ply
format ascii 1.0
element vertex 230
property float x
property float y
property float z
element face 226
property list uchar int vertex_index
end_header
-20.491482 -70.482437 12.900571
-16.963409 -69.923317 22.262154
-22.52566 -63.81876 20.230902
-19.684063 -73.804207 8.439642
-21.908773 -69.651794 7.750471
-18.903002 -70.663979 17.689867
-16.038322 -74.007416 18.181486
-17.983549 -74.311752 13.506019
-23.833128 -60.194496 23.247107
-25.264084 -60.346825 18.771765
-20.962685 -63.065495 24.604332
-13.953752 -72.548782 22.551977
-21.458265 -67.181198 16.689079
-22.731258 -66.723831 11.761
-23.879786 -63.641113 15.283465
-19.899439 -66.785309 21.580553
-24.116106 -65.417435 6.377168
-20.102331 -72.079643 10.752866
-20.743073 -71.870506 8.194816
-21.182184 -70.203293 10.324494
-19.767414 -70.650368 15.251424
-18.479481 -72.497597 15.546447
-19.331064 -72.378777 13.139159
-18.882761 -74.074371 11.067651
-15.927352 -69.186211 24.31303
-15.575109 -71.140953 22.522932
-22.033566 -65.472351 18.413639
-22.730072 -65.337967 16.003857
-23.335644 -63.693043 17.748606
-21.75536 -63.588314 22.501944
-20.362671 -65.021835 23.148285
-21.263882 -65.341911 20.835489
-20.704163 -67.101982 19.229513
-23.952093 -64.636238 10.970345
-23.398926 -66.159477 9.166524
-24.540545 -64.104744 8.316545
-21.579556 -71.124039 5.596
-22.674105 -68.971252 4.933665
-17.982233 -70.384621 20.064583
-16.491257 -72.005241 20.271893
-17.492882 -72.436333 17.936544
-17.133175 -74.236816 15.774312
-23.157217 -62.023731 21.823572
-23.917021 -62.123257 19.402962
-24.577847 -60.3974 21.05311
-26.015266 -58.617622 20.405827
-22.36912 -61.591652 24.10778
-12.279982 -73.68187 22.656324
-14.973601 -73.364159 20.522171
-20.998333 -68.803864 14.747504
-21.601284 -68.672592 12.313879
-22.153877 -66.999069 14.160406
-23.354422 -65.102303 13.377618
-24.535555 -63.170605 12.725153
-24.567989 -62.007313 16.98765
-17.46365 -67.948463 23.917458
-19.490694 -64.45887 25.144949
-18.916811 -66.480522 23.648117
-18.504299 -68.378616 21.90797
-19.442459 -68.696434 19.652126
-20.247036 -68.886238 17.221035
-22.284153 -68.191727 9.838132
-23.035223 -67.478271 7.139532
-23.761057 -66.742531 4.370765
-24.825229 -63.384781 9.238943
-24.246319 -64.370491 9.643445
-24.531003 -63.650528 10.565843
-20.05892 -73.603695 7.14267
-19.473834 -74.654171 7.315221
-17.279174 -75.246128 13.574424
-16.853988 -75.20866 14.708571
-17.558362 -74.274284 14.640166
-17.781804 -75.189655 12.344388
-17.279174 -75.246128 13.574424
-19.059397 -74.862995 8.51847
-18.658746 -74.998077 9.832475
-19.283412 -73.939289 9.753646
-19.473834 -74.654171 7.315221
-19.059397 -74.862995 8.51847
-26.384954 -57.781282 21.10763
-25.626134 -58.604263 21.546488
-27.066148 -56.982566 20.636258
-26.696461 -57.818906 19.934455
-26.384954 -57.781282 21.10763
-23.101124 -60.893074 23.677444
-22.725559 -60.563742 24.781706
-23.457563 -59.865164 24.351369
-13.370299 -72.056748 23.543703
-14.175366 -71.449649 23.540538
-13.116867 -73.115326 22.604151
-12.533414 -72.623291 23.595877
-13.370299 -72.056748 23.543703
-17.706285 -66.885807 24.758824
-16.988655 -67.48418 24.917268
-20.226689 -63.762183 24.87464
-19.778189 -63.385496 25.872228
-20.514185 -62.688809 25.601919
-24.535066 -59.3927 22.967128
-24.141566 -59.229746 24.015384
-24.141566 -59.229746 24.015384
-23.457563 -59.865164 24.351369
-23.766002 -58.900413 25.119646
-15.162166 -69.768364 24.421064
-15.449527 -68.665363 25.263604
-14.986044 -70.745735 23.526015
-15.162166 -69.768364 24.421064
-15.751231 -70.163582 23.417981
-14.76443 -71.844867 22.537455
-14.175366 -71.449649 23.540538
-14.986044 -70.745735 23.526015
-15.287987 -74.735458 18.233743
-15.833002 -74.97284 17.06303
-25.567332 -60.250618 17.55522
-25.91761 -59.495305 18.398255
-20.588425 -72.636844 7.020257
-20.05892 -73.603695 7.14267
-20.213568 -72.837356 8.317229
-21.006667 -72.263611 5.720849
-20.588425 -72.636844 7.020257
-21.161314 -71.497273 6.895408
-21.373662 -71.99984 4.453158
-21.006667 -72.263611 5.720849
-21.936058 -70.858799 4.208349
-21.373662 -71.99984 4.453158
-22.483332 -69.782406 3.877182
-21.936058 -70.858799 4.208349
-22.126831 -70.047646 5.264833
-23.054106 -68.580185 3.595284
-22.483332 -69.782406 3.877182
-16.380429 -75.08754 15.859444
-15.833002 -74.97284 17.06303
-16.585749 -74.122116 16.977899
-16.380429 -75.08754 15.859444
-16.853988 -75.20866 14.708571
-18.23141 -75.070965 11.125204
-17.781804 -75.189655 12.344388
-18.433155 -74.193061 12.286835
-18.23141 -75.070965 11.125204
-18.658746 -74.998077 9.832475
-24.907425 -59.494152 21.87013
-24.205487 -60.295948 22.150109
-24.535066 -59.3927 22.967128
-25.296557 -59.507511 20.729468
-24.907425 -59.494152 21.87013
-25.626134 -58.604263 21.546488
-26.293201 -58.630703 19.215286
-25.91761 -59.495305 18.398255
-25.639675 -59.482224 19.588796
-26.293201 -58.630703 19.215286
-26.696461 -57.818906 19.934455
-21.266843 -62.023466 25.322037
-20.514185 -62.688809 25.601919
-21.97006 -61.286545 25.073761
-22.725559 -60.563742 24.781706
-21.665903 -62.328574 24.356056
-21.266843 -62.023466 25.322037
-21.97006 -61.286545 25.073761
-11.735846 -73.177135 23.544168
-12.533414 -72.623291 23.595877
-11.503986 -74.324276 22.467113
-10.95985 -73.819541 23.354957
-11.735846 -73.177135 23.544168
-14.755626 -74.41383 19.404086
-15.505962 -73.685788 19.351828
-15.287987 -74.735458 18.233743
-14.224464 -74.061031 20.458161
-14.755626 -74.41383 19.404086
-13.71454 -73.653343 21.473064
-14.463677 -72.95647 21.537074
-14.224464 -74.061031 20.458161
-12.877655 -74.219887 21.525238
-13.116867 -73.115326 22.604151
-13.71454 -73.653343 21.473064
-12.091017 -74.827106 21.476265
-12.877655 -74.219887 21.525238
-11.503986 -74.324276 22.467113
-12.091017 -74.827106 21.476265
-24.822734 -62.917711 11.443248
-24.531003 -63.650528 10.565843
-24.243824 -63.903422 11.847749
-25.219284 -61.080862 16.663163
-24.916037 -61.177069 17.879707
-25.567332 -60.250618 17.55522
-24.849643 -61.883093 15.754844
-25.219284 -61.080862 16.663163
-24.505541 -62.699993 14.902752
-24.223888 -62.824213 16.135557
-24.849643 -61.883093 15.754844
-24.833425 -62.464739 13.623596
-24.20767 -63.405859 14.004309
-24.505541 -62.699993 14.902752
-25.144655 -62.210946 12.253046
-24.833425 -62.464739 13.623596
-24.822734 -62.917711 11.443248
-25.144655 -62.210946 12.253046
-16.220506 -68.103054 25.115054
-15.449527 -68.665363 25.263604
-16.695501 -68.567337 24.115244
-16.220506 -68.103054 25.115054
-16.988655 -67.48418 24.917268
-19.016641 -64.020211 26.112262
-19.778189 -63.385496 25.872228
-18.719808 -65.14101 25.37257
-19.016641 -64.020211 26.112262
-18.432866 -66.151837 24.624154
-18.719808 -65.14101 25.37257
-19.203753 -65.469696 24.396533
-18.19023 -67.214493 23.782787
-17.706285 -66.885807 24.758824
-18.432866 -66.151837 24.624154
-23.597582 -67.465824 3.313833
-23.054106 -68.580185 3.595284
-23.217581 -67.856892 4.652215
-25.083563 -63.142069 7.887527
-24.825229 -63.384781 9.238943
-24.886277 -63.719263 6.88578
-25.083563 -63.142069 7.887527
-24.674057 -64.375608 5.916092
-24.328325 -64.761089 7.346856
-24.886277 -63.719263 6.88578
-24.494048 -64.979076 4.975184
-24.674057 -64.375608 5.916092
-24.316524 -65.641625 3.971982
-23.938581 -66.079983 5.373966
-24.494048 -64.979076 4.975184
-24.098389 -66.413952 3.017907
-24.316524 -65.641625 3.971982
-23.934914 -67.137245 1.960975
-23.597582 -67.465824 3.313833
-24.098389 -66.413952 3.017907
3 0 19 17
3 0 22 20
3 0 17 22
3 1 25 24
3 2 28 26
3 2 31 29
3 2 26 31
3 64 35 65
3 66 65 33
3 64 65 66
3 3 67 68
3 4 36 18
3 4 37 36
3 5 40 38
3 7 41 21
3 7 69 71
3 71 70 41
3 69 70 71
3 7 72 73
3 3 74 76
3 76 75 23
3 74 75 76
3 3 77 78
3 8 44 42
3 79 45 80
3 83 82 45
3 81 82 83
3 8 84 86
3 84 46 85
3 84 85 86
3 8 42 46
3 11 87 88
3 11 89 91
3 89 47 90
3 89 90 91
3 6 48 39
3 12 51 49
3 14 52 27
3 14 53 52
3 9 54 43
3 92 55 93
3 10 94 96
3 94 56 95
3 94 95 96
3 15 57 30
3 15 58 57
3 15 59 58
3 12 60 32
3 12 49 60
3 13 61 50
3 16 62 34
3 16 63 62
3 17 18 3
3 19 18 17
3 19 4 18
3 20 21 5
3 22 21 20
3 22 7 21
3 22 23 7
3 17 23 22
3 17 3 23
3 98 97 8
3 99 8 100
3 99 100 101
3 24 102 103
3 25 104 106
3 106 105 24
3 104 105 106
3 25 107 109
3 107 11 108
3 107 108 109
3 111 110 6
3 26 27 12
3 28 27 26
3 28 14 27
3 113 112 9
3 29 30 10
3 31 30 29
3 31 15 30
3 31 32 15
3 26 32 31
3 26 12 32
3 33 34 13
3 35 34 33
3 35 16 34
3 18 114 116
3 116 115 3
3 114 115 116
3 36 117 119
3 119 118 18
3 117 118 119
3 36 120 121
3 36 122 123
3 37 124 126
3 126 125 36
3 124 125 126
3 37 127 128
3 38 39 1
3 40 39 38
3 40 6 39
3 21 40 5
3 41 40 21
3 41 6 40
3 41 129 131
3 131 130 6
3 129 130 131
3 133 132 41
3 23 134 136
3 136 135 7
3 134 135 136
3 138 137 23
3 42 43 2
3 44 43 42
3 44 9 43
3 139 44 140
3 141 140 8
3 139 140 141
3 45 142 144
3 142 44 143
3 142 143 144
3 45 9 44
3 45 145 147
3 147 146 9
3 145 146 147
3 149 148 45
3 150 10 151
3 46 152 153
3 46 154 156
3 154 10 155
3 154 155 156
3 46 29 10
3 42 29 46
3 42 2 29
3 47 157 158
3 47 159 161
3 159 160 161
3 39 25 1
3 48 25 39
3 48 11 25
3 162 48 163
3 164 163 6
3 162 163 164
3 165 48 166
3 167 11 168
3 169 168 48
3 167 168 169
3 170 47 171
3 172 171 11
3 170 171 172
3 173 47 174
3 176 175 47
3 49 50 0
3 51 50 49
3 51 13 50
3 27 51 12
3 52 51 27
3 52 13 51
3 52 33 13
3 53 33 52
3 53 177 179
3 179 178 33
3 177 178 179
3 43 28 2
3 54 28 43
3 54 14 28
3 180 54 181
3 182 181 9
3 180 181 182
3 183 54 184
3 185 14 186
3 187 186 54
3 185 186 187
3 188 53 189
3 190 189 14
3 188 189 190
3 191 53 192
3 194 193 53
3 195 24 196
3 55 197 199
3 197 24 198
3 197 198 199
3 55 1 24
3 56 200 201
3 56 202 203
3 30 56 10
3 57 56 30
3 57 204 206
3 206 205 56
3 204 205 206
3 57 207 209
3 207 55 208
3 207 208 209
3 58 55 57
3 58 1 55
3 58 38 1
3 59 38 58
3 59 5 38
3 32 59 15
3 60 59 32
3 60 5 59
3 60 20 5
3 49 20 60
3 49 0 20
3 50 19 0
3 61 19 50
3 61 4 19
3 34 61 13
3 62 61 34
3 62 4 61
3 62 37 4
3 63 37 62
3 63 210 212
3 212 211 37
3 210 211 212
3 213 35 214
3 215 35 216
3 217 16 218
3 219 218 35
3 217 218 219
3 220 16 221
3 222 63 223
3 224 223 16
3 222 223 224
3 225 63 226
3 229 228 63
3 227 228 229
