ply
format ascii 1.0
element vertex 230
property float x
property float y
property float z
element face 185
property list uchar int vertex_index
end_header
-2.332967 -0.982139 -53.498871
-2.785696 -12.322133 -49.095417
-1.043272 8.319516 -58.451939
0.57362 12.087274 -62.043568
2.446621 10.212641 -64.662262
-0.708675 -3.489205 -55.087608
-2.363856 -6.759623 -51.426079
-0.993494 -9.481371 -52.675064
-0.692715 2.551516 -57.214432
2.399963 4.149558 -62.92609
-3.780631 -18.347557 -46.353893
-0.787547 -6.344474 -53.994648
-0.113117 7.395361 -59.737381
-0.800292 5.47125 -57.994781
0.005394 4.44487 -59.029335
0.057973 1.479851 -58.127918
3.377861 12.09609 -66.312279
3.367403 8.98342 -65.647995
-2.482432 -9.556389 -50.341003
-3.208428 -15.245732 -47.76619
-0.222057 10.189709 -60.297729
0.626379 9.057108 -61.456264
2.325157 12.973505 -64.991356
-1.427804 -2.128966 -54.402439
-2.274889 -3.830996 -52.570251
-1.537685 -5.207825 -53.158585
-1.573426 -8.037682 -52.165604
-1.817818 -10.925265 -50.918324
-2.253404 -13.882366 -49.485233
-1.756344 6.486912 -56.800442
-1.547976 3.686551 -56.228573
-1.4711 0.902399 -55.400879
-0.692816 -0.332175 -56.21563
2.386391 7.18167 -63.8139
3.356908 5.936368 -64.806267
-4.487835 -21.337162 -44.937225
-2.73509 -16.902384 -48.139992
0.34895 5.33483 -59.90354
-0.053861 5.920115 -59.383358
0.289694 6.810075 -60.257562
0.395629 3.863291 -59.518147
0.34895 5.33483 -59.90354
3.916828 11.521357 -66.843926
3.931723 13.085045 -67.113216
-2.756862 -1.716925 -52.69727
-2.826364 -0.201402 -53.138729
-3.119619 -11.605848 -48.868819
-2.967987 -10.222976 -49.491612
-2.634064 -10.939261 -49.71821
-3.312214 -13.087121 -48.185983
-3.119619 -11.605848 -48.868819
-2.997062 -13.783932 -48.430803
-3.52358 -14.548921 -47.52137
-3.312214 -13.087121 -48.185983
0.175782 11.138492 -61.170648
-0.25185 11.582265 -60.539758
0.145989 12.531047 -61.412678
1.009356 11.552181 -62.659687
1.035736 10.037097 -62.366035
0.6 10.572191 -61.749916
2.365946 14.443742 -65.201973
1.868248 13.462342 -64.352034
2.862974 13.996106 -65.853573
2.365946 14.443742 -65.201973
-1.185746 -11.082828 -51.925258
-1.597908 -11.804775 -51.046888
-1.405656 -10.203318 -51.796694
-1.399808 7.403214 -57.62619
-1.883817 7.968815 -57.035679
-1.527281 8.885117 -57.861428
0.035703 -0.081791 -57.549074
0.415099 0.874772 -58.546009
2.378248 2.563238 -62.365442
1.982657 3.088017 -61.921594
2.833446 3.409134 -63.286312
2.811731 1.822815 -62.725664
2.378248 2.563238 -62.365442
2.416506 8.697156 -64.238081
1.948364 7.668134 -63.257858
1.978479 9.183619 -63.68204
3.870344 6.951332 -65.69928
3.362156 7.459894 -65.227131
3.875591 8.474858 -66.120144
3.808983 5.320253 -65.149666
3.870344 6.951332 -65.69928
-2.796895 -6.085645 -51.104542
-2.752411 -4.621332 -51.676628
-2.319373 -5.29531 -51.998165
-4.347975 -18.974491 -45.479868
-4.031028 -17.569725 -46.165678
-4.134233 -19.84236 -45.645559
-4.701577 -20.469293 -44.771534
-4.347975 -18.974491 -45.479868
-2.282278 -16.31877 -48.963946
-2.494247 -15.392375 -48.812613
-2.041435 -14.80876 -49.636566
0.521477 13.510693 -62.175032
0.145989 12.531047 -61.412678
0.99248 13.019227 -62.87814
0.521477 13.510693 -62.175032
-0.401477 -5.519509 -54.936331
-0.748111 -4.91684 -54.541128
-0.362041 -4.091874 -55.482811
-0.487411 -7.130597 -54.266361
-0.401477 -5.519509 -54.936331
-0.590385 -8.699046 -53.606569
-0.890521 -7.912922 -53.334856
-0.487411 -7.130597 -54.266361
-0.745105 -10.231204 -52.895296
-0.590385 -8.699046 -53.606569
0.421918 2.380782 -59.067438
0.031683 2.96236 -58.578626
0.395629 3.863291 -59.518147
0.415099 0.874772 -58.546009
0.421918 2.380782 -59.067438
1.96892 4.647821 -62.403728
1.982657 3.088017 -61.921594
3.911599 9.965022 -66.511784
3.372632 10.539755 -65.980137
3.916828 11.521357 -66.843926
3.875591 8.474858 -66.120144
3.911599 9.965022 -66.511784
-2.917436 -8.879739 -50.000258
-2.858148 -7.481357 -50.542795
-2.423144 -8.158006 -50.883541
-2.917436 -8.879739 -50.000258
-2.967987 -10.222976 -49.491612
-3.744927 -16.018813 -46.871826
-3.52358 -14.548921 -47.52137
-3.49453 -16.796644 -47.060041
-4.031028 -17.569725 -46.165678
-3.744927 -16.018813 -46.871826
-1.094143 9.767689 -58.738113
-1.527281 8.885117 -57.861428
-0.683535 10.702786 -59.661008
-0.25185 11.582265 -60.539758
-0.632664 9.254613 -59.374834
-1.094143 9.767689 -58.738113
-0.683535 10.702786 -59.661008
0.659442 7.640949 -61.117004
0.289694 6.810075 -60.257562
0.256631 8.226235 -60.596823
1.068358 8.605853 -62.07904
0.659442 7.640949 -61.117004
1.068358 8.605853 -62.07904
1.035736 10.037097 -62.366035
1.945857 10.614864 -63.969034
1.978479 9.183619 -63.68204
1.428216 12.484133 -63.494259
1.009356 11.552181 -62.659687
0.99248 13.019227 -62.87814
1.885125 11.995296 -64.133581
1.428216 12.484133 -63.494259
1.868248 13.462342 -64.352034
2.385889 11.593073 -64.826809
1.945857 10.614864 -63.969034
1.885125 11.995296 -64.133581
3.389326 13.557398 -66.514035
2.851509 12.534797 -65.651817
2.862974 13.996106 -65.853573
3.931723 13.085045 -67.113216
3.389326 13.557398 -66.514035
-1.815701 -13.283325 -50.330343
-2.035611 -12.403816 -50.201779
-1.597908 -11.804775 -51.046888
-2.041435 -14.80876 -49.636566
-1.815701 -13.283325 -50.330343
-1.185746 -11.082828 -51.925258
-0.745105 -10.231204 -52.895296
-2.347003 0.502125 -53.989249
-2.826364 -0.201402 -53.138729
-2.288219 7.165474 -56.251701
-1.883817 7.968815 -57.035679
-2.153935 5.71525 -55.992548
-2.288219 7.165474 -56.251701
-2.049751 4.315069 -55.706614
-2.153935 5.71525 -55.992548
-1.65216 5.086731 -56.514507
-1.954507 2.83647 -55.3541
-2.049751 4.315069 -55.706614
-1.916069 1.444394 -54.940252
-1.954507 2.83647 -55.3541
-1.509538 2.294475 -55.814726
-1.902033 -0.03987 -54.449875
-2.347003 0.502125 -53.989249
-1.916069 1.444394 -54.940252
-0.339691 -0.987804 -56.59293
-0.317422 0.573838 -57.171774
0.035703 -0.081791 -57.549074
-0.347621 -2.566319 -56.028919
-0.700746 -1.91069 -55.651619
-0.339691 -0.987804 -56.59293
-0.362041 -4.091874 -55.482811
-0.347621 -2.566319 -56.028919
1.962134 6.163877 -62.847634
1.948364 7.668134 -63.257858
2.393177 5.665614 -63.369995
1.96892 4.647821 -62.403728
1.962134 6.163877 -62.847634
3.311918 4.302539 -64.226401
2.833446 3.409134 -63.286312
2.878436 5.042963 -63.866179
3.311918 4.302539 -64.226401
3.808983 5.320253 -65.149666
-2.727823 -3.141354 -52.232959
-2.756862 -1.716925 -52.69727
-2.303928 -2.406567 -53.034561
-2.727823 -3.141354 -52.232959
-2.752411 -4.621332 -51.676628
-2.796895 -6.085645 -51.104542
-2.858148 -7.481357 -50.542795
-5.095464 -21.810665 -44.061014
-5.309206 -20.942797 -43.895323
-4.701577 -20.469293 -44.771534
-4.912684 -22.781363 -44.211027
-5.095464 -21.810665 -44.061014
-2.594898 -17.972478 -48.209113
-2.282278 -16.31877 -48.963946
-3.084629 -18.552697 -47.374927
-2.594898 -17.972478 -48.209113
-3.6074 -19.275283 -46.481878
-3.257861 -17.62497 -47.246943
-3.084629 -18.552697 -47.374927
-3.961002 -20.770086 -45.773544
-4.134233 -19.84236 -45.645559
-3.6074 -19.275283 -46.481878
-4.35841 -22.343336 -45.039383
-3.961002 -20.770086 -45.773544
-4.912684 -22.781363 -44.211027
-4.35841 -22.343336 -45.039383
3 37 14 38
3 39 38 12
3 37 38 39
3 41 40 14
3 43 42 16
3 0 44 45
3 1 46 48
3 48 47 18
3 46 47 48
3 1 49 50
3 1 51 53
3 51 19 52
3 51 52 53
3 3 54 56
3 54 20 55
3 54 55 56
3 3 21 20
3 3 57 59
3 59 58 21
3 57 58 59
3 60 22 61
3 63 62 22
3 5 25 23
3 7 26 11
3 7 27 26
3 7 64 66
3 66 65 27
3 64 65 66
3 2 67 69
3 67 29 68
3 67 68 69
3 8 30 13
3 8 31 30
3 8 32 31
3 71 70 15
3 9 72 73
3 9 74 76
3 74 75 76
3 4 77 79
3 77 33 78
3 77 78 79
3 80 34 81
3 82 81 17
3 80 81 82
3 84 83 34
3 6 85 87
3 87 86 24
3 85 86 87
3 10 88 89
3 10 90 92
3 90 35 91
3 90 91 92
3 93 36 94
3 95 94 28
3 93 94 95
3 96 3 97
3 99 98 3
3 100 11 101
3 102 101 5
3 100 101 102
3 103 11 104
3 105 7 106
3 107 106 11
3 105 106 107
3 109 108 7
3 12 13 2
3 14 13 12
3 14 8 13
3 14 15 8
3 110 15 111
3 112 111 14
3 110 111 112
3 114 113 15
3 115 9 116
3 16 17 4
3 117 17 118
3 119 118 16
3 117 118 119
3 121 120 17
3 18 122 124
3 124 123 6
3 122 123 124
3 126 125 18
3 19 127 128
3 19 129 131
3 129 10 130
3 129 130 131
3 132 2 133
3 20 134 135
3 20 136 138
3 136 2 137
3 136 137 138
3 20 12 2
3 21 12 20
3 21 139 141
3 141 140 12
3 139 140 141
3 21 142 143
3 145 144 21
3 146 4 147
3 150 149 3
3 148 149 150
3 22 151 153
3 151 152 153
3 22 154 156
3 154 4 155
3 154 155 156
3 22 16 4
3 157 16 158
3 159 158 22
3 157 158 159
3 161 160 16
3 23 24 0
3 25 24 23
3 25 6 24
3 11 25 5
3 26 25 11
3 26 6 25
3 26 18 6
3 27 18 26
3 27 1 18
3 27 28 1
3 162 28 163
3 164 163 27
3 162 163 164
3 166 165 28
3 168 167 7
3 169 0 170
3 29 171 172
3 29 173 174
3 13 29 2
3 30 29 13
3 30 175 177
3 177 176 29
3 175 176 177
3 30 178 179
3 31 180 182
3 182 181 30
3 180 181 182
3 31 183 185
3 183 0 184
3 183 184 185
3 31 23 0
3 32 23 31
3 32 5 23
3 15 32 8
3 186 32 187
3 188 187 15
3 186 187 188
3 189 5 190
3 191 190 32
3 189 190 191
3 193 192 5
3 33 194 195
3 33 196 198
3 196 9 197
3 196 197 198
3 17 33 4
3 34 33 17
3 34 9 33
3 34 199 201
3 201 200 9
3 199 200 201
3 203 202 34
3 24 204 206
3 206 205 0
3 204 205 206
3 208 207 24
3 210 209 6
3 35 211 213
3 211 212 213
3 35 214 215
3 28 19 1
3 36 19 28
3 36 10 19
3 216 36 217
3 218 36 219
3 220 10 221
3 222 221 36
3 220 221 222
3 223 35 224
3 225 224 10
3 223 224 225
3 226 35 227
3 229 228 35
