ply
format ascii 1.0
element vertex 511
property float x
property float y
property float z
element face 593
property list uchar int vertex_index
end_header
27.88249 -51.488163 22.418795
17.105274 -49.003506 35.306839
17.830399 -66.875183 24.293221
12.452764 -55.42197 36.964554
30.473499 -49.771957 13.076292
26.557398 -57.894836 14.693075
27.991325 -43.630466 28.398256
32.606537 -36.465221 26.59214
32.313087 -43.818714 20.454342
23.212395 -51.254776 29.970528
23.197321 -59.401428 24.048048
18.126045 -58.624001 31.275383
12.398397 -64.601761 31.713089
21.681601 -42.183567 33.744381
29.41334 -50.786205 17.970602
28.592932 -53.67477 13.790315
27.288977 -54.820549 18.849569
28.139803 -47.829815 25.601604
30.451252 -43.981354 24.729631
30.036732 -47.723877 21.518885
31.477835 -46.964848 16.976696
20.309593 -50.405785 32.785358
20.770905 -54.844223 30.765022
17.80966 -53.871979 33.632565
12.566628 -59.963329 34.841625
19.410191 -45.763477 34.42141
22.664211 -46.688072 32.041569
20.689924 -63.274128 24.279385
34.734112 -36.652012 22.770775
34.684761 -32.892376 25.578566
14.840263 -52.384418 36.145401
27.351994 -39.359825 30.705206
29.790962 -35.795162 29.976257
30.26046 -40.062946 27.59371
32.68111 -40.307438 23.742565
34.40773 -40.078697 19.453417
33.595901 -43.150291 15.749352
25.806728 -51.576477 26.547266
25.587397 -55.478523 23.300623
23.345854 -55.58173 27.326441
20.845013 -59.351677 27.882378
18.073109 -62.834614 28.273588
15.306521 -56.973381 34.334251
15.458179 -61.620457 31.6537
15.133111 -66.137115 28.118155
11.941851 -68.98336 27.797329
24.903008 -43.086964 31.406792
25.533951 -47.577583 29.195492
25.053951 -59.045673 19.555435
32.212666 -32.172337 29.148346
34.364117 -28.661879 28.123806
28.736103 -51.106037 20.307314
28.395607 -52.712029 18.426554
27.6353 -53.113667 20.742941
28.022287 -49.738937 24.110643
29.158621 -47.864262 23.603479
28.931231 -49.606709 22.058039
29.785799 -49.210079 19.845434
18.683462 -49.870605 34.083794
19.11216 -52.112282 33.200581
17.536274 -51.466782 34.506546
16.652369 -46.777473 35.949871
17.740887 -45.011303 35.546665
18.246162 -47.372334 34.861591
19.760113 -48.143002 33.730675
19.274406 -65.165268 24.303982
19.14595 -67.024895 22.058895
35.550999 -36.711376 20.59383
35.705276 -34.869858 22.094826
29.97526 -51.040546 11.071548
27.623068 -55.663651 14.324915
28.087557 -55.12635 11.867941
27.123903 -57.208885 12.366598
27.676973 -41.627228 29.600935
28.867073 -39.716473 29.249926
29.095768 -41.897575 28.013504
31.423203 -44.014099 22.689121
31.55162 -42.071121 24.358192
32.459229 -42.231483 22.253839
33.529343 -40.355568 21.766218
33.323582 -41.997395 20.061596
34.045021 -41.648487 17.744829
33.041878 -43.460995 18.246279
31.066553 -48.256462 15.010644
32.048107 -46.407333 14.484375
31.496387 -47.734596 12.587518
24.573675 -51.517998 28.306849
24.586147 -53.523724 26.998264
23.334412 -53.486816 28.70915
19.478399 -56.761757 31.048695
20.814457 -57.08815 29.509375
19.56311 -58.977528 29.657728
19.54817 -61.248802 27.952229
18.297436 -60.671711 29.782911
13.704535 -54.001217 36.520424
15.185054 -54.721371 35.259453
13.867231 -56.278179 35.648289
12.46465 -62.313614 33.4226
13.975164 -60.882526 33.279274
13.926895 -63.215778 31.692713
15.398598 -63.840836 29.999628
13.766388 -65.480072 29.915852
13.542972 -67.692696 27.917631
12.24445 -66.743912 29.891018
22.863764 -40.298271 33.46035
24.521744 -40.705002 32.339565
23.272043 -42.582397 32.679588
22.831587 -49.057194 31.181965
24.115368 -47.141857 30.733076
24.328186 -49.4198 29.633873
25.716864 -49.590343 27.96027
24.383457 -57.546837 23.648479
25.388813 -57.158466 21.572193
24.202528 -59.302673 21.81023
31.265676 -36.179523 28.371592
30.995792 -34.00779 29.595716
32.335846 -34.36319 28.03129
34.540821 -30.874353 26.878134
30.032433 -50.229916 15.60285
29.55986 -51.634472 13.560315
29.009008 -52.295315 15.891614
28.030106 -54.223434 16.378128
26.928076 -56.419529 16.792324
28.112953 -45.715042 27.106838
29.325998 -43.837234 26.620304
29.335163 -45.865108 25.133512
30.291964 -45.954132 23.130699
31.215492 -45.691616 20.989859
31.966105 -45.377045 18.737167
30.878254 -47.233791 19.393894
30.493095 -48.770229 17.456223
21.771791 -50.874252 31.463568
22.017981 -53.131981 30.335102
20.610395 -52.647427 31.828341
19.28747 -54.408382 32.279411
18.039581 -56.272331 32.534748
12.413598 -57.762642 36.064178
11.083167 -59.046288 36.383568
11.16174 -61.243397 35.047844
11.004545 -63.567787 33.512375
10.745085 -65.829659 31.793299
9.420347 -64.670502 33.674252
20.485933 -43.833294 34.127171
22.085846 -44.47472 33.003376
21.000059 -46.238903 33.319157
21.374945 -48.415604 32.530956
22.065151 -61.2995 24.105967
23.074295 -61.303257 21.899658
21.843153 -63.23048 22.091276
33.764671 -36.670921 24.66964
33.654827 -34.673237 26.138134
34.711239 -34.877838 24.247679
35.660717 -33.089561 23.629541
15.56343 -48.424255 36.399433
15.974066 -50.653397 35.746216
14.517783 -50.033913 36.837872
29.048916 -53.039577 11.453352
16.257782 -68.668236 24.060764
17.63813 -68.821747 21.96464
27.03953 -37.135147 31.66231
28.62369 -37.623306 30.284468
30.097157 -37.984341 28.777433
31.362745 -38.179073 27.255095
30.485895 -41.918144 26.211342
31.61861 -40.089977 25.749262
32.687759 -38.40012 25.240002
33.712559 -38.502972 23.285553
34.613544 -38.452858 21.165054
35.400089 -38.322079 18.726345
34.997124 -39.986233 16.963633
32.542068 -45.059948 16.339397
26.951611 -51.568302 24.5194
26.768702 -53.356003 22.963686
25.787264 -53.541862 24.936985
24.583097 -55.511524 25.365265
23.385437 -57.470081 25.689859
22.114717 -55.373871 29.057556
22.119587 -57.541473 27.585403
22.063883 -59.532684 25.971697
20.861414 -61.360992 26.079279
19.424639 -63.174946 26.310221
17.957607 -64.915245 26.383902
16.307701 -53.096809 34.947166
16.616579 -55.550232 33.935825
16.687353 -57.902451 32.86277
13.912619 -58.456554 34.672138
15.307487 -59.331982 33.191444
16.798092 -60.215324 31.472479
16.835888 -62.311337 29.955875
16.651669 -64.506119 28.240284
16.501259 -66.59507 26.256781
14.894826 -68.225288 26.097801
10.641683 -67.950714 29.826059
25.750523 -38.943924 32.003899
26.202806 -41.267654 30.977552
26.529257 -43.475842 29.930645
23.767225 -44.815762 31.747849
25.367712 -45.282593 30.30135
26.724962 -45.623184 28.830517
26.981249 -47.681412 27.432142
26.90333 -49.831223 26.103701
26.508072 -55.135277 21.217255
26.155546 -56.940891 19.312677
25.830467 -58.581028 17.201342
33.522472 -32.600262 27.430901
33.31144 -30.379469 28.701681
36.003799 -35.839962 20.203391
35.906095 -36.674174 19.35492
30.224379 -50.406251 12.07392
30.447469 -50.045591 10.809182
30.696589 -49.411296 11.811554
26.351349 -58.63659 13.599361
26.634601 -58.293615 12.436122
26.84065 -57.551861 13.529837
30.696589 -49.411296 11.811554
31.208033 -48.392616 11.567167
30.984943 -48.753276 12.831905
21.45999 -40.997936 34.107641
20.891047 -41.858173 34.254288
22.272683 -41.240919 33.602365
22.051072 -40.055288 33.965626
21.45999 -40.997936 34.107641
10.38718 -58.524382 37.144902
11.077955 -57.920822 36.912762
10.394473 -61.873591 35.138244
10.41286 -60.760431 35.865583
10.315876 -63.035786 34.37051
11.083143 -62.405592 34.280109
10.394473 -61.873591 35.138244
9.523777 -63.587143 34.451448
10.212446 -64.119145 33.593314
10.315876 -63.035786 34.37051
19.163091 -44.562492 34.769179
18.328439 -44.186405 35.331806
18.575539 -45.38739 34.984037
19.948062 -44.798386 34.27429
19.700962 -43.597401 34.622059
19.163091 -44.562492 34.769179
36.116993 -33.085176 22.527186
35.682997 -33.979709 22.862184
36.139273 -33.975324 21.759829
36.116329 -32.210924 23.223118
36.116993 -33.085176 22.527186
14.316831 -48.894972 37.143122
15.040606 -49.229084 36.618652
14.839654 -48.090143 36.923902
14.839654 -48.090143 36.923902
15.392711 -47.250839 36.66992
28.353082 -54.678089 10.636496
27.880257 -55.762428 10.821506
16.170593 -69.655629 22.82089
15.487337 -69.473472 23.907018
34.071535 -42.269068 15.503435
34.296095 -41.518166 16.501174
33.820461 -42.399389 16.74709
33.820985 -42.924015 14.461872
34.071535 -42.269068 15.503435
32.558218 -45.471441 14.08865
32.266903 -46.116422 13.152645
12.686045 -69.375633 26.73295
13.486605 -68.730301 26.793101
12.742411 -68.338028 27.85748
11.820874 -70.042439 26.659767
12.686045 -69.375633 26.73295
9.918258 -67.500118 30.748401
10.693384 -66.890186 30.809679
9.969959 -66.439591 31.732022
24.940244 -38.685663 32.583527
25.567648 -37.777787 32.447931
23.508406 -61.204396 20.812697
22.90354 -62.2267 20.921758
18.25491 -68.84932 20.838815
17.537289 -69.758751 20.68417
29.620764 -34.650091 30.546449
29.001943 -35.617531 30.675964
31.463399 -32.01544 29.918095
30.854962 -32.933166 30.14178
31.604229 -33.090063 29.372031
32.110411 -31.069119 29.688734
31.463399 -32.01544 29.918095
33.765387 -28.356725 28.949239
33.239048 -29.21552 29.238177
33.837778 -29.520674 28.412743
34.341694 -27.513861 28.594392
33.765387 -28.356725 28.949239
17.196628 -45.894388 35.748268
16.965183 -44.7341 36.046827
16.420924 -45.617186 36.24843
19.902079 -65.164479 23.212738
20.609839 -64.218908 23.20044
19.982165 -64.219698 24.291684
19.837851 -66.094292 22.090194
19.902079 -65.164479 23.212738
19.210178 -66.095081 23.181438
19.717052 -66.995644 20.960197
19.837851 -66.094292 22.090194
36.080938 -34.919203 20.953889
35.628137 -35.790617 21.344328
36.003799 -35.839962 20.203391
36.139273 -33.975324 21.759829
36.080938 -34.919203 20.953889
30.191888 -50.624271 9.726489
30.447469 -50.045591 10.809182
29.754608 -51.600544 10.027648
30.191888 -50.624271 9.726489
27.39843 -56.803696 11.070835
27.880257 -55.762428 10.821506
27.60573 -56.167618 12.117269
26.957625 -57.814657 11.211728
27.39843 -56.803696 11.070835
26.957625 -57.814657 11.211728
26.634601 -58.293615 12.436122
31.991043 -46.780054 12.204216
32.266903 -46.116422 13.152645
31.772247 -47.070965 13.535946
31.69385 -47.39806 11.289115
31.991043 -46.780054 12.204216
31.69385 -47.39806 11.289115
31.208033 -48.392616 11.567167
22.668391 -39.194351 33.818582
22.051072 -40.055288 33.965626
23.496865 -39.362837 33.311752
22.668391 -39.194351 33.818582
23.692754 -40.501637 32.899957
24.325854 -39.566202 32.75136
23.496865 -39.362837 33.311752
35.114523 -30.943601 25.893802
34.612791 -31.883364 26.22835
35.186493 -31.952613 25.244018
35.023497 -29.930568 26.586651
35.114523 -30.943601 25.893802
34.935144 -28.824331 27.209487
34.452469 -29.768116 27.50097
35.023497 -29.930568 26.586651
34.909571 -27.737933 27.730877
34.935144 -28.824331 27.209487
11.74317 -57.278999 36.753067
12.433181 -56.592306 36.514366
11.762753 -56.108664 37.203255
11.748382 -58.404465 36.223873
11.74317 -57.278999 36.753067
11.077955 -57.920822 36.912762
10.373573 -59.661877 36.533445
10.38718 -58.524382 37.144902
11.122453 -60.144842 35.715706
10.373573 -59.661877 36.533445
10.41286 -60.760431 35.865583
9.30759 -65.860012 32.672498
9.969959 -66.439591 31.732022
10.082716 -65.25008 32.733776
8.741217 -64.168888 34.523388
9.523777 -63.587143 34.451448
8.625879 -65.332348 33.59865
8.741217 -64.168888 34.523388
9.30759 -65.860012 32.672498
8.625879 -65.332348 33.59865
17.520471 -43.861961 35.839567
16.965183 -44.7341 36.046827
17.520471 -43.861961 35.839567
18.328439 -44.186405 35.331806
20.293214 -42.683037 34.445683
19.700962 -43.597401 34.622059
21.083767 -43.008431 33.935776
20.891047 -41.858173 34.254288
20.293214 -42.683037 34.445683
22.28797 -63.190311 21.017567
22.90354 -62.2267 20.921758
22.458724 -62.266869 21.995467
21.186453 -64.197085 22.106385
21.266539 -63.252304 23.18533
20.609839 -64.218908 23.20044
21.702613 -64.154958 21.00175
21.186453 -64.197085 22.106385
22.28797 -63.190311 21.017567
21.702613 -64.154958 21.00175
35.674471 -32.051206 24.269506
35.186493 -31.952613 25.244018
35.172739 -32.990969 24.604053
35.674471 -32.051206 24.269506
36.116329 -32.210924 23.223118
13.815069 -49.70446 37.376516
14.316831 -48.894972 37.143122
14.003436 -50.817511 37.047483
13.815069 -49.70446 37.376516
14.164676 -51.992763 36.701248
14.679023 -51.209165 36.491636
14.003436 -50.817511 37.047483
13.596812 -52.801163 36.888759
14.272399 -53.192817 36.332912
14.164676 -51.992763 36.701248
12.995957 -53.505642 37.160028
13.596812 -52.801163 36.888759
12.370071 -54.216019 37.382093
13.07865 -54.711593 36.742489
12.995957 -53.505642 37.160028
11.768871 -54.928883 37.626594
12.370071 -54.216019 37.382093
11.762753 -56.108664 37.203255
11.768871 -54.928883 37.626594
15.937181 -46.427448 36.445139
16.420924 -45.617186 36.24843
16.1079 -47.600864 36.174652
15.937181 -46.427448 36.445139
15.392711 -47.250839 36.66992
29.291436 -52.60006 10.21855
29.754608 -51.600544 10.027648
29.512088 -52.040062 11.26245
28.833762 -53.634703 10.429202
28.568236 -54.082964 11.660647
28.353082 -54.678089 10.636496
29.291436 -52.60006 10.21855
28.833762 -53.634703 10.429202
16.860768 -69.732384 21.772828
16.947956 -68.744991 23.012702
16.170593 -69.655629 22.82089
17.537289 -69.758751 20.68417
16.860768 -69.732384 21.772828
27.626227 -36.287523 31.518991
26.807889 -35.990274 32.168475
28.418307 -36.531602 30.83007
27.626227 -36.287523 31.518991
27.83161 -37.379227 30.973389
29.207326 -36.709234 30.130363
29.001943 -35.617531 30.675964
28.418307 -36.531602 30.83007
35.830641 -37.479525 18.421178
35.906095 -36.674174 19.35492
35.475544 -37.516728 19.660087
35.65412 -38.282578 17.539491
36.084671 -37.440024 17.234324
35.830641 -37.479525 18.421178
35.452637 -39.114655 16.658136
35.65412 -38.282578 17.539491
35.198606 -39.154156 17.844989
35.237774 -39.820383 15.732519
35.452637 -39.114655 16.658136
34.772146 -40.687038 16.110575
34.521073 -40.81736 17.354231
34.296095 -41.518166 16.501174
35.237774 -39.820383 15.732519
34.772146 -40.687038 16.110575
32.805199 -44.797748 15.016162
32.295088 -45.73364 15.411886
32.558218 -45.471441 14.08865
33.332115 -43.84292 14.721139
33.068984 -44.10512 16.044374
32.805199 -44.797748 15.016162
33.820985 -42.924015 14.461872
33.332115 -43.84292 14.721139
14.805859 -69.251999 24.925537
15.487337 -69.473472 23.907018
15.576304 -68.446762 25.079282
14.162533 -68.996597 25.883186
14.218899 -67.958992 27.007716
13.486605 -68.730301 26.793101
14.805859 -69.251999 24.925537
14.162533 -68.996597 25.883186
9.812736 -68.646347 29.641748
9.918258 -67.500118 30.748401
10.491919 -69.088825 28.69721
9.812736 -68.646347 29.641748
9.662972 -69.784458 28.512898
11.142003 -69.605148 27.682845
11.291767 -68.467037 28.811694
10.491919 -69.088825 28.69721
11.820874 -70.042439 26.659767
11.142003 -69.605148 27.682845
26.212151 -36.873398 32.277137
26.807889 -35.990274 32.168475
26.395027 -38.039535 31.833104
26.212151 -36.873398 32.277137
25.567648 -37.777787 32.447931
25.136133 -39.824463 32.171732
24.940244 -38.685663 32.583527
24.325854 -39.566202 32.75136
24.072522 -60.204104 20.767983
23.638412 -60.302965 21.854944
23.508406 -61.204396 20.812697
24.498234 -60.075603 19.640585
24.628239 -59.174173 20.682832
24.072522 -60.204104 20.767983
24.910389 -59.875477 18.438607
24.498234 -60.075603 19.640585
25.298647 -59.643154 17.261561
25.442209 -58.81335 18.378388
24.910389 -59.875477 18.438607
25.710504 -59.252792 16.039905
25.298647 -59.643154 17.261561
26.073969 -58.909696 14.785772
26.193932 -58.237932 15.947209
25.710504 -59.252792 16.039905
26.351349 -58.63659 13.599361
26.073969 -58.909696 14.785772
19.00882 -67.950894 20.885942
18.39204 -67.923321 22.011767
18.25491 -68.84932 20.838815
19.717052 -66.995644 20.960197
19.00882 -67.950894 20.885942
30.223179 -33.756405 30.356178
29.620764 -34.650091 30.546449
30.393377 -34.901476 29.785986
30.223179 -33.756405 30.356178
30.854962 -32.933166 30.14178
32.659798 -30.172685 29.465401
32.110411 -31.069119 29.688734
32.762053 -31.275903 28.925013
32.659798 -30.172685 29.465401
33.239048 -29.21552 29.238177
34.887148 -26.589916 28.201463
34.341694 -27.513861 28.594392
34.909571 -27.737933 27.730877
3 0 53 51
3 0 56 54
3 0 51 56
3 1 60 58
3 1 63 61
3 1 58 63
3 2 66 65
3 207 206 67
3 4 208 210
3 208 69 209
3 208 209 210
3 5 72 70
3 5 211 213
3 213 212 72
3 211 212 213
3 6 75 73
3 8 78 76
3 8 80 78
3 8 82 80
3 4 85 83
3 4 214 216
3 216 215 85
3 214 215 216
3 9 88 86
3 11 91 89
3 11 93 91
3 3 96 94
3 12 99 97
3 12 101 99
3 12 103 101
3 13 217 218
3 13 219 221
3 219 104 220
3 219 220 221
3 13 106 104
3 9 109 107
3 9 86 109
3 10 113 111
3 7 116 114
3 14 120 118
3 16 121 52
3 16 122 121
3 17 125 123
3 19 126 55
3 19 127 126
3 19 129 127
3 14 130 57
3 14 118 130
3 21 133 131
3 23 134 59
3 23 135 134
3 222 137 223
3 224 138 225
3 226 139 227
3 228 227 138
3 226 227 228
3 229 141 230
3 231 230 139
3 229 230 231
3 25 232 234
3 234 233 62
3 232 233 234
3 25 235 237
3 235 142 236
3 235 236 237
3 25 144 142
3 21 145 64
3 21 131 145
3 27 148 146
3 28 151 149
3 238 152 239
3 240 239 68
3 238 239 240
3 242 241 152
3 243 155 244
3 245 244 153
3 243 244 245
3 246 153 247
3 15 156 119
3 249 248 71
3 251 250 157
3 31 160 159
3 33 161 74
3 33 162 161
3 18 163 124
3 34 164 77
3 34 165 164
3 34 166 165
3 35 167 79
3 35 168 167
3 35 169 168
3 36 252 254
3 254 253 81
3 252 253 254
3 36 255 256
3 20 170 128
3 258 257 84
3 37 173 171
3 39 174 87
3 39 175 174
3 22 176 132
3 40 177 90
3 40 178 177
3 40 179 178
3 41 180 92
3 41 181 180
3 30 182 154
3 42 183 95
3 42 184 183
3 24 185 136
3 43 186 98
3 43 187 186
3 43 188 187
3 44 189 100
3 44 190 189
3 44 191 190
3 45 259 261
3 261 260 102
3 259 260 261
3 45 262 263
3 264 192 265
3 266 265 140
3 264 265 266
3 267 193 268
3 46 194 105
3 46 195 194
3 26 196 143
3 47 197 108
3 47 198 197
3 47 199 198
3 37 200 110
3 37 171 200
3 38 201 172
3 48 202 112
3 48 203 202
3 270 269 147
3 272 271 158
3 32 273 274
3 49 275 277
3 277 276 115
3 275 276 277
3 49 278 279
3 29 204 150
3 50 205 117
3 50 280 282
3 282 281 205
3 280 281 282
3 50 283 284
3 51 52 14
3 53 52 51
3 53 16 52
3 54 55 17
3 56 55 54
3 56 19 55
3 56 57 19
3 51 57 56
3 51 14 57
3 58 59 21
3 60 59 58
3 60 23 59
3 61 285 287
3 285 62 286
3 285 286 287
3 63 62 61
3 63 25 62
3 63 64 25
3 58 64 63
3 58 21 64
3 65 288 290
3 290 289 27
3 288 289 290
3 66 291 293
3 293 292 65
3 291 292 293
3 66 294 295
3 67 68 28
3 296 68 297
3 298 297 67
3 296 297 298
3 300 299 68
3 69 301 302
3 69 303 304
3 70 71 15
3 72 71 70
3 72 305 307
3 307 306 71
3 305 306 307
3 72 308 309
3 311 310 72
3 73 74 31
3 75 74 73
3 75 33 74
3 76 77 18
3 78 77 76
3 78 34 77
3 78 79 34
3 80 79 78
3 80 35 79
3 80 81 35
3 82 81 80
3 82 36 81
3 83 84 20
3 85 84 83
3 85 312 314
3 314 313 84
3 312 313 314
3 85 315 316
3 318 317 85
3 86 87 37
3 88 87 86
3 88 39 87
3 89 90 22
3 91 90 89
3 91 40 90
3 91 92 40
3 93 92 91
3 93 41 92
3 94 95 30
3 96 95 94
3 96 42 95
3 97 98 24
3 99 98 97
3 99 43 98
3 99 100 43
3 101 100 99
3 101 44 100
3 101 102 44
3 103 102 101
3 103 45 102
3 104 319 320
3 104 321 322
3 104 323 325
3 323 105 324
3 323 324 325
3 106 105 104
3 106 46 105
3 107 108 26
3 109 108 107
3 109 47 108
3 109 110 47
3 86 110 109
3 86 37 110
3 111 112 38
3 113 112 111
3 113 48 112
3 114 115 32
3 116 115 114
3 116 49 115
3 326 117 327
3 328 327 29
3 326 327 328
3 329 117 330
3 331 50 332
3 333 332 117
3 331 332 333
3 335 334 50
3 118 119 4
3 120 119 118
3 120 15 119
3 52 120 14
3 121 120 52
3 121 15 120
3 121 70 15
3 122 70 121
3 122 5 70
3 123 124 6
3 125 124 123
3 125 18 124
3 55 125 17
3 126 125 55
3 126 18 125
3 126 76 18
3 127 76 126
3 127 8 76
3 127 128 8
3 129 128 127
3 129 20 128
3 57 129 19
3 130 129 57
3 130 20 129
3 130 83 20
3 118 83 130
3 118 4 83
3 131 132 9
3 133 132 131
3 133 22 132
3 59 133 21
3 134 133 59
3 134 22 133
3 134 89 22
3 135 89 134
3 135 11 89
3 336 136 337
3 338 337 3
3 336 337 338
3 137 339 341
3 339 136 340
3 339 340 341
3 137 24 136
3 342 137 343
3 138 344 346
3 344 137 345
3 344 345 346
3 138 24 137
3 138 97 24
3 139 97 138
3 139 12 97
3 139 140 12
3 141 140 139
3 141 347 349
3 349 348 140
3 347 348 349
3 350 141 351
3 352 141 353
3 355 354 141
3 62 356 357
3 359 358 62
3 142 360 361
3 142 362 364
3 362 13 363
3 362 363 364
3 142 143 13
3 144 143 142
3 144 26 143
3 64 144 25
3 145 144 64
3 145 26 144
3 145 107 26
3 131 107 145
3 131 9 107
3 146 147 10
3 148 147 146
3 148 365 367
3 367 366 147
3 365 366 367
3 368 148 369
3 370 369 27
3 368 369 370
3 371 148 372
3 374 373 148
3 149 150 7
3 151 150 149
3 151 29 150
3 68 151 28
3 152 151 68
3 152 29 151
3 152 375 377
3 377 376 29
3 375 376 377
3 379 378 152
3 153 154 1
3 155 154 153
3 155 30 154
3 380 155 381
3 382 155 383
3 384 30 385
3 386 385 155
3 384 385 386
3 387 94 388
3 389 388 30
3 387 388 389
3 390 94 391
3 392 3 393
3 394 393 94
3 392 393 394
3 395 3 396
3 398 397 3
3 399 61 400
3 153 401 403
3 401 61 402
3 401 402 403
3 153 1 61
3 119 69 4
3 156 69 119
3 156 404 406
3 406 405 69
3 404 405 406
3 71 156 15
3 407 156 408
3 409 408 71
3 407 408 409
3 411 410 156
3 157 158 2
3 412 158 413
3 414 413 157
3 412 413 414
3 416 415 158
3 159 417 418
3 160 419 421
3 421 420 159
3 419 420 421
3 160 422 424
3 422 32 423
3 422 423 424
3 74 160 31
3 161 160 74
3 161 32 160
3 161 114 32
3 162 114 161
3 162 7 114
3 124 75 6
3 163 75 124
3 163 33 75
3 77 163 18
3 164 163 77
3 164 33 163
3 164 162 33
3 165 162 164
3 165 7 162
3 165 149 7
3 166 149 165
3 166 28 149
3 79 166 34
3 167 166 79
3 167 28 166
3 167 67 28
3 168 67 167
3 168 425 427
3 427 426 67
3 425 426 427
3 168 428 430
3 428 429 430
3 169 431 433
3 433 432 168
3 431 432 433
3 169 434 435
3 81 169 35
3 436 169 437
3 438 437 81
3 436 437 438
3 440 439 169
3 128 82 8
3 170 82 128
3 170 36 82
3 84 170 20
3 441 170 442
3 443 442 84
3 441 442 443
3 444 36 445
3 446 445 170
3 444 445 446
3 448 447 36
3 171 172 0
3 173 172 171
3 173 38 172
3 87 173 37
3 174 173 87
3 174 38 173
3 174 111 38
3 175 111 174
3 175 10 111
3 132 88 9
3 176 88 132
3 176 39 88
3 90 176 22
3 177 176 90
3 177 39 176
3 177 175 39
3 178 175 177
3 178 10 175
3 178 146 10
3 179 146 178
3 179 27 146
3 92 179 40
3 180 179 92
3 180 27 179
3 180 65 27
3 181 65 180
3 181 2 65
3 154 60 1
3 182 60 154
3 182 23 60
3 95 182 30
3 183 182 95
3 183 23 182
3 183 135 23
3 184 135 183
3 184 11 135
3 136 96 3
3 185 96 136
3 185 42 96
3 98 185 24
3 186 185 98
3 186 42 185
3 186 184 42
3 187 184 186
3 187 11 184
3 187 93 11
3 188 93 187
3 188 41 93
3 100 188 43
3 189 188 100
3 189 41 188
3 189 181 41
3 190 181 189
3 190 2 181
3 190 157 2
3 191 157 190
3 191 449 451
3 451 450 157
3 449 450 451
3 102 191 44
3 452 191 453
3 454 453 102
3 452 453 454
3 456 455 191
3 140 103 12
3 192 103 140
3 192 45 103
3 457 192 458
3 459 192 460
3 459 460 461
3 462 45 463
3 464 463 192
3 462 463 464
3 466 465 45
3 467 159 468
3 193 469 471
3 469 159 470
3 469 470 471
3 193 31 159
3 105 472 474
3 472 193 473
3 472 473 474
3 194 193 105
3 194 31 193
3 194 73 31
3 195 73 194
3 195 6 73
3 143 106 13
3 196 106 143
3 196 46 106
3 108 196 26
3 197 196 108
3 197 46 196
3 197 195 46
3 198 195 197
3 198 6 195
3 198 123 6
3 199 123 198
3 199 17 123
3 110 199 47
3 200 199 110
3 200 17 199
3 200 54 17
3 171 54 200
3 171 0 54
3 172 53 0
3 201 53 172
3 201 16 53
3 112 201 38
3 202 201 112
3 202 16 201
3 202 122 16
3 203 122 202
3 203 5 122
3 147 113 10
3 475 113 476
3 477 476 147
3 475 476 477
3 478 48 479
3 480 479 113
3 478 479 480
3 481 48 482
3 483 203 484
3 485 484 48
3 483 484 485
3 486 203 487
3 488 5 489
3 490 489 203
3 488 489 490
3 492 491 5
3 158 66 2
3 493 66 494
3 495 494 158
3 493 494 495
3 497 496 66
3 115 498 500
3 500 499 32
3 498 499 500
3 502 501 115
3 150 116 7
3 204 116 150
3 204 49 116
3 117 204 29
3 205 204 117
3 205 49 204
3 205 503 505
3 505 504 49
3 503 504 505
3 507 506 205
3 510 509 50
3 508 509 510
