ply
format ascii 1.0
element vertex 77
property float x
property float y
property float z
element face 56
property list uchar int vertex_index
end_header
14.147142 55.742004 -51.677143
14.643045 47.172108 -51.944386
13.728921 59.580128 -51.449574
15.753196 59.335384 -51.477226
18.161507 49.967972 -51.420113
16.244865 50.794983 -51.701271
12.188331 56.050789 -51.620441
12.679976 51.901436 -51.89986
14.605371 51.600723 -51.834366
16.459118 61.056751 -51.362991
15.411193 61.406948 -51.35441
17.268522 48.16008 -51.554678
18.064653 47.580763 -51.385024
13.81088 47.570352 -52.019389
13.792043 49.78466 -51.964379
14.624208 49.386415 -51.889376
14.399055 61.52932 -51.340584
13.342109 61.376738 -51.294359
14.741059 59.457756 -51.4634
14.399055 61.52932 -51.340584
15.411193 61.406948 -51.35441
17.203186 50.381478 -51.560692
17.097095 52.582426 -51.580513
18.055416 52.16892 -51.439934
16.310201 48.573586 -51.695257
17.203186 50.381478 -51.560692
17.268522 48.16008 -51.554678
15.509291 46.762148 -51.816814
15.443955 48.983546 -51.822828
16.310201 48.573586 -51.695257
12.627527 59.705269 -51.363508
13.342109 61.376738 -51.294359
11.857232 57.9406 -51.448942
12.627527 59.705269 -51.363508
12.958626 57.815459 -51.535007
11.169289 56.149963 -51.536406
11.857232 57.9406 -51.448942
11.532095 54.392523 -51.721633
10.513053 54.491698 -51.637598
11.169289 56.149963 -51.536406
11.777918 52.317847 -51.861343
11.532095 54.392523 -51.721633
12.434154 53.976112 -51.76015
11.955215 50.228966 -52.031874
11.777918 52.317847 -51.861343
18.993718 51.735124 -51.288317
18.055416 52.16892 -51.439934
18.99487 49.34179 -51.235894
18.993718 51.735124 -51.288317
18.064653 47.580763 -51.385024
18.99487 49.34179 -51.235894
16.781192 58.997148 -51.432367
16.459118 61.056751 -51.362991
15.935365 57.322156 -51.548339
16.781192 58.997148 -51.432367
15.132338 55.525467 -51.648298
14.950169 57.538694 -51.577185
15.935365 57.322156 -51.548339
16.181199 53.051956 -51.660362
17.097095 52.582426 -51.580513
15.361452 53.454826 -51.72691
16.181199 53.051956 -51.660362
15.425118 51.197853 -51.767819
14.376257 53.671363 -51.755755
15.132338 55.525467 -51.648298
15.361452 53.454826 -51.72691
12.829345 49.935017 -51.997125
13.642674 51.75108 -51.867113
13.792043 49.78466 -51.964379
11.955215 50.228966 -52.031874
12.829345 49.935017 -51.997125
14.591616 45.055199 -51.974407
15.509291 46.762148 -51.816814
13.788885 45.487535 -52.104517
14.591616 45.055199 -51.974407
13.81088 47.570352 -52.019389
13.788885 45.487535 -52.104517
3 9 3 10
3 12 11 4
3 0 6 2
3 0 7 6
3 1 8 5
3 1 13 15
3 15 14 8
3 13 14 15
3 16 2 17
3 3 18 20
3 18 2 19
3 18 19 20
3 3 0 2
3 4 21 23
3 21 5 22
3 21 22 23
3 24 5 25
3 26 25 4
3 24 25 26
3 27 1 28
3 29 28 5
3 27 28 29
3 2 30 31
3 6 32 34
3 34 33 2
3 32 33 34
3 6 35 36
3 6 37 39
3 37 38 39
3 7 40 42
3 42 41 6
3 40 41 42
3 7 43 44
3 45 4 46
3 47 4 48
3 50 49 4
3 51 3 52
3 53 3 54
3 55 0 56
3 57 56 3
3 55 56 57
3 5 58 59
3 8 60 62
3 62 61 5
3 60 61 62
3 8 63 65
3 63 0 64
3 63 64 65
3 8 7 0
3 66 7 67
3 68 67 8
3 66 67 68
3 70 69 7
3 71 1 72
3 73 1 74
3 76 75 1
