ply
format ascii 1.0
element vertex 627
property float x
property float y
property float z
element face 639
property list uchar int vertex_index
end_header
12.876076 31.030441 43.515469
17.895477 64.619911 12.352779
24.74509 29.723717 27.637377
16.864958 21.090279 42.501316
19.046858 30.594528 36.38472
25.648823 49.074089 4.82505
5.774394 30.873129 49.107857
10.016223 20.403074 49.155628
23.501099 66.900566 -4.069428
22.540522 60.269863 4.676126
21.163944 53.710583 13.145351
16.405222 57.49765 21.21616
20.437086 46.882549 21.449648
20.079683 39.249615 29.300928
11.829369 15.802167 48.689526
18.781248 68.008705 7.847273
21.126913 65.941177 4.043978
20.272306 62.539875 8.603341
21.75561 57.058952 8.982013
19.483099 59.180523 12.902103
18.331011 52.021599 21.678217
18.074366 48.392963 25.652281
10.467188 36.233299 43.619461
13.842508 35.881111 40.566532
22.015308 30.015623 32.065186
19.754797 34.95771 32.890675
22.479275 34.198952 28.454584
22.667292 38.101746 24.796415
25.195086 33.401226 23.831646
14.984554 25.891222 43.144142
16.083902 30.618898 40.262428
18.220478 25.730431 39.486706
21.120462 25.686068 35.611652
23.994514 25.705189 31.340246
25.842941 51.926197 1.16939
9.409134 31.010269 46.495052
8.021297 25.562544 49.286308
11.64633 25.596077 46.405369
13.535738 20.801102 45.983444
24.718067 60.80286 -3.03244
23.175997 63.549538 0.362579
24.440023 57.893322 0.902806
23.973482 54.639217 4.943289
23.447901 51.613113 8.915195
23.050562 48.48608 12.924674
17.030182 61.089516 16.930931
18.847372 55.616779 17.283394
20.730972 50.227123 17.38242
22.819685 45.32803 16.880299
17.397396 40.208748 33.512035
17.741404 44.423916 29.831848
20.230137 43.173023 25.597252
18.347153 66.261116 10.149544
19.57539 65.349121 8.140592
19.048513 63.597431 10.608687
19.851826 60.799343 10.831869
18.662889 61.807434 12.78803
11.620174 33.529312 43.72385
12.20854 36.119041 42.113556
13.337984 33.351231 42.169456
23.404484 29.748302 29.915873
22.166149 32.221615 30.433994
23.533096 31.933678 28.185066
23.791945 33.952305 26.119457
24.990744 31.538469 25.816002
26.140554 29.302877 25.496548
16.008976 23.444061 42.784027
16.655416 25.732895 41.362885
17.660883 23.350527 40.946621
20.630144 23.428986 37.187466
22.070946 23.445435 35.207695
22.599012 25.559298 33.516342
25.75794 50.542355 2.933995
8.144506 33.617252 46.481953
7.619519 30.915119 47.847588
8.299732 20.451485 50.484024
7.260913 22.968525 50.582298
9.127663 22.98551 49.186043
9.779223 25.537964 47.961353
10.91424 23.14658 47.709503
12.626596 23.148937 46.221062
11.801646 20.60813 47.605995
12.609189 13.524481 48.478184
13.523847 16.053577 47.09808
24.121096 63.888676 -3.470352
21.855841 63.160736 4.335423
22.130219 64.867813 2.309407
22.860447 62.008644 2.52011
23.782919 60.824291 0.675362
23.560894 59.037178 2.768548
24.256138 56.173096 2.895938
23.213331 57.409275 4.956363
21.464985 55.419216 10.970531
22.652393 54.298683 8.803704
22.295998 52.706249 11.056684
23.304626 49.985744 10.775428
22.119396 50.978294 13.045856
16.654057 59.436184 19.072697
17.960876 58.314373 17.111954
17.623932 56.614166 19.284441
19.404268 49.486614 21.46723
19.531454 51.296856 19.429926
20.588539 48.612297 19.327236
21.789268 47.80331 16.99942
21.669914 46.01717 19.170876
17.541767 30.589653 38.459106
19.924852 37.143898 31.152813
18.593918 37.665192 33.163345
18.862528 39.684113 31.326647
18.898741 41.967701 29.531708
18.975166 43.989799 27.671665
20.112038 41.31028 27.54147
9.239302 17.818665 50.398331
11.002472 18.104076 48.889153
19.981186 67.04184 5.912124
20.758131 64.206848 6.254777
21.477766 61.522377 6.466255
22.08581 58.759026 6.923631
21.001347 59.891155 8.77708
20.665169 58.013386 10.960145
20.264006 56.498508 13.118517
17.316078 54.764942 21.565342
17.116594 52.772636 23.771135
18.212313 50.214405 23.635725
19.276936 47.618073 23.593773
12.559792 38.753567 40.570126
14.151381 38.459232 38.991692
20.543804 30.275663 34.288086
20.824059 32.345364 32.670307
21.068817 34.634079 30.777164
21.237959 36.729221 28.937635
21.314346 38.843121 27.069035
22.500948 36.378273 26.674791
23.899567 35.754566 24.326385
17.605488 69.042786 9.527115
17.063116 67.4188 11.946223
13.849085 28.264208 43.538761
14.5213 30.627312 42.011719
15.63595 28.219917 41.673428
17.252394 28.082729 39.832996
18.670025 28.258654 37.942276
19.186493 23.327337 39.094673
19.624474 25.861065 37.614655
20.098463 28.162766 35.989227
21.575209 27.775015 33.976128
23.006765 27.725897 31.775824
24.485497 27.639751 29.455103
25.860256 27.393917 27.355734
25.907213 53.351974 -0.747345
26.563311 50.461506 -0.655454
10.005816 33.583794 45.070351
11.206761 30.746857 45.125923
6.269057 25.389326 50.576469
6.963823 28.122286 49.244255
8.747081 28.173721 47.946194
10.513288 28.207781 46.55928
12.297276 28.203026 45.030243
13.363505 25.621712 44.840492
14.31939 23.223492 44.593243
15.238256 20.840376 44.297672
12.792191 18.255407 47.282719
14.348926 18.4706 45.763695
23.383797 65.244812 -1.840881
24.019148 62.354603 -1.482679
24.580065 59.489479 -1.038467
25.178875 54.721115 1.029742
24.961784 53.310257 3.044455
24.77495 51.813755 4.952556
22.878527 55.92963 6.947329
23.761009 53.094528 6.795432
24.591503 50.364723 6.814883
24.462074 48.882603 8.607644
16.697044 65.572571 14.126828
16.246204 63.865547 16.379568
17.491898 62.754623 14.634254
18.279747 60.105305 14.956531
19.165285 57.413158 15.049315
20.02894 54.66489 15.205
18.544113 53.824547 19.552589
19.72547 52.919746 17.466169
20.838013 52.100079 15.378165
21.866518 49.571938 15.036122
22.913879 46.960453 14.870406
14.92924 33.312458 40.488174
17.882854 46.48671 27.79553
19.183483 45.675755 25.674051
20.307207 45.041752 23.612707
21.397306 40.660374 25.257153
21.460382 42.527191 23.30278
21.48505 44.399174 21.335657
22.533532 22.444137 34.967552
21.793039 22.339253 36.002201
22.842975 23.512648 34.08182
22.533532 22.444137 34.967552
26.132317 48.42116 3.817138
26.186876 49.155293 2.87161
25.703381 49.808222 3.879523
6.108147 32.154729 48.419257
5.198812 32.228116 48.967535
6.696957 30.894124 48.477722
7.03071 32.175724 47.789122
6.108147 32.154729 48.419257
13.45186 13.667534 47.662094
12.995506 12.515661 48.329363
23.817422 66.157429 -4.810006
23.500927 67.669937 -5.1573
23.811098 65.394621 -3.76989
24.12742 64.651483 -4.510468
23.817422 66.157429 -4.810006
15.958132 58.820643 21.044113
15.773856 57.87302 22.201968
16.52964 58.466917 20.144429
16.082549 59.78991 19.972382
15.958132 58.820643 21.044113
18.510125 31.77824 36.579943
17.757579 31.775802 37.617136
18.294313 30.59209 37.421913
8.77085 16.648038 51.033747
8.348137 17.824084 51.082151
9.656146 16.656693 50.323679
8.77085 16.648038 51.033747
19.381217 67.525272 6.879698
19.566944 68.451672 5.690961
18.966975 68.935104 6.658535
16.49158 53.298765 24.632358
16.621263 54.174877 23.608402
18.14334 49.303684 24.644003
17.580359 50.603111 24.685444
17.511385 49.69239 25.693722
10.672679 37.544243 42.866867
9.837859 37.572981 43.551136
25.235295 34.320442 22.872681
24.587536 35.497112 23.12005
24.547327 34.577896 24.079015
25.861556 33.17313 22.70617
25.235295 34.320442 22.872681
16.988312 69.552391 10.362257
17.162703 70.482014 9.209043
16.717126 68.740398 11.57181
17.334302 68.230793 10.736669
16.988312 69.552391 10.362257
19.594302 22.239242 38.935295
18.849501 22.193689 39.859375
24.766733 25.549182 30.235879
25.012224 26.516463 29.293308
24.240005 26.67247 30.397675
14.75546 17.348847 45.618563
13.936387 17.262089 46.430887
14.342921 16.140335 46.285756
15.194509 18.582325 44.8822
14.75546 17.348847 45.618563
24.967712 60.0592 -3.82812
24.712346 61.557665 -4.019777
24.99942 59.298208 -2.869809
24.967712 60.0592 -3.82812
21.296326 66.767013 2.931641
20.743075 67.360202 3.811031
22.812844 65.0635 0.163854
22.289955 65.722637 1.137269
22.653108 64.208675 1.335993
23.279897 64.397175 -0.739151
22.916745 65.911136 -0.937875
22.812844 65.0635 0.163854
24.82077 57.184223 0.070587
24.890791 57.982302 -0.900049
24.510044 58.691401 -0.067831
24.809449 56.307218 0.966274
25.190196 55.598119 0.134055
24.82077 57.184223 0.070587
23.666913 47.97373 11.747225
23.793945 48.723562 10.672602
23.177594 49.235912 11.850051
23.594738 47.255381 12.729594
23.666913 47.97373 11.747225
16.04258 66.138183 14.981197
16.281136 66.996956 13.83286
16.638193 62.477531 16.65525
16.045623 62.96607 17.504816
16.437612 61.578055 17.780498
23.417796 44.92327 15.727784
23.464893 45.739481 14.722838
22.866782 46.144241 15.875352
19.0703 35.147527 33.896937
19.561303 33.891464 33.828642
17.312758 39.03649 34.369852
17.911018 37.764711 34.195507
17.995657 38.93697 33.33769
16.683507 40.371206 34.507216
17.312758 39.03649 34.369852
16.812298 41.498368 33.594723
16.683507 40.371206 34.507216
17.06604 44.699028 30.846813
17.708638 43.393085 30.689616
17.171166 45.704375 29.87214
17.06604 44.699028 30.846813
17.812129 45.455313 28.813689
17.24189 46.735771 28.853981
17.171166 45.704375 29.87214
22.060226 42.220709 22.150931
22.074501 41.25108 23.119142
22.07256 43.1567 21.16737
21.472716 43.463183 22.319218
22.060226 42.220709 22.150931
22.115192 43.977393 20.175208
22.07256 43.1567 21.16737
26.611991 27.318067 26.153635
26.434124 26.343404 27.121527
17.452648 48.672416 26.723848
17.511385 49.69239 25.693722
25.693024 31.37531 24.633993
25.795195 32.306689 23.641815
25.092915 32.469848 24.823824
26.267929 30.257514 24.474266
25.693024 31.37531 24.633993
25.565649 30.420673 25.656275
26.843465 29.222611 24.305923
26.267929 30.257514 24.474266
21.072639 22.331029 36.992086
20.316128 22.290067 37.981691
21.350545 23.43721 36.197581
21.072639 22.331029 36.992086
21.793039 22.339253 36.002201
23.107008 24.569579 33.236143
22.334979 24.502367 34.362019
22.842975 23.512648 34.08182
23.804759 24.642525 32.148095
23.296763 25.632244 32.428294
23.107008 24.569579 33.236143
24.521015 24.563433 31.143346
23.804759 24.642525 32.148095
26.196773 49.800345 1.974215
26.239274 50.492266 1.091913
25.800441 51.234276 2.051692
26.196773 49.800345 1.974215
26.186876 49.155293 2.87161
7.293203 33.526791 47.106305
7.527392 34.989479 46.371176
7.882013 32.266185 47.164771
7.293203 33.526791 47.106305
7.03071 32.175724 47.789122
7.780323 21.710005 50.533161
6.85451 21.659281 51.226706
7.37392 20.400761 51.177568
13.909188 14.932082 46.972042
13.066518 14.789029 47.788132
13.45186 13.667534 47.662094
14.342921 16.140335 46.285756
13.909188 14.932082 46.972042
24.41386 63.100572 -4.238733
24.12742 64.651483 -4.510468
24.419581 62.345768 -3.251396
24.712346 61.557665 -4.019777
24.41386 63.100572 -4.238733
16.24955 60.751388 18.851381
16.082549 59.78991 19.972382
16.84212 60.26285 18.001814
16.437612 61.578055 17.780498
16.24955 60.751388 18.851381
17.003436 31.830855 38.605358
16.274504 31.845477 39.507019
16.812835 30.604275 39.360767
17.003436 31.830855 38.605358
17.757579 31.775802 37.617136
18.269199 41.023184 31.437016
17.536634 41.285501 32.529709
18.129962 39.946431 32.419341
18.287306 42.164978 30.539546
18.269199 41.023184 31.437016
18.880634 40.825907 30.429178
18.320073 43.195808 29.681778
17.708638 43.393085 30.689616
18.287306 42.164978 30.539546
22.677956 39.038357 23.86596
23.335493 37.845578 23.563413
17.688734 21.07516 41.562697
17.261704 19.969225 42.356304
26.122276 47.763579 4.677497
25.595183 48.38134 5.724861
4.89197 30.786573 49.691597
5.198812 32.228116 48.967535
7.878353 19.140494 51.124998
7.37392 20.400761 51.177568
8.769517 19.135075 50.441177
7.878353 19.140494 51.124998
8.348137 17.824084 51.082151
10.537731 16.799399 49.56909
10.120887 17.961371 49.643742
9.656146 16.656693 50.323679
10.95118 15.648445 49.469276
11.41592 16.953122 48.789339
10.537731 16.799399 49.56909
11.359581 14.527902 49.366545
10.95118 15.648445 49.469276
11.749491 13.38906 49.260874
12.219279 14.663324 48.583855
11.359581 14.527902 49.366545
12.10874 12.389106 49.154831
11.749491 13.38906 49.260874
12.995506 12.515661 48.329363
12.10874 12.389106 49.154831
23.147081 68.313869 -4.310356
23.500927 67.669937 -5.1573
20.170212 67.910534 4.745104
19.566944 68.451672 5.690961
20.554049 66.491508 4.978051
20.743075 67.360202 3.811031
20.170212 67.910534 4.745104
16.265577 56.537384 22.330914
15.773856 57.87302 22.201968
16.721004 55.17103 22.505505
16.86065 56.131296 21.390751
16.265577 56.537384 22.330914
17.216336 53.768789 22.668239
16.721004 55.17103 22.505505
16.621263 54.174877 23.608402
17.032499 51.882227 24.753149
16.49158 53.298765 24.632358
17.664454 51.493521 23.70343
17.032499 51.882227 24.753149
17.580359 50.603111 24.685444
11.543355 37.487114 42.113914
10.672679 37.544243 42.866867
11.337864 36.17617 42.866509
11.718981 38.804377 41.342199
11.543355 37.487114 42.113914
12.384166 37.436304 41.341841
11.924551 40.043013 40.558548
11.718981 38.804377 41.342199
12.723823 40.006914 39.765742
11.924551 40.043013 40.558548
13.519618 39.859747 38.976524
12.723823 40.006914 39.765742
13.355587 38.606399 39.780909
14.366018 39.656946 38.092064
13.519618 39.859747 38.976524
19.955807 31.550441 34.527348
19.207334 31.709873 35.575665
19.795331 30.435096 35.336403
20.095934 32.585291 33.718458
19.955807 31.550441 34.527348
20.683931 31.310513 33.479197
20.289428 33.651537 32.780491
19.561303 33.891464 33.828642
20.095934 32.585291 33.718458
23.951631 36.671988 23.328398
23.335493 37.845578 23.563413
23.28343 36.928156 24.5614
23.951631 36.671988 23.328398
24.587536 35.497112 23.12005
25.861556 33.17313 22.70617
25.795195 32.306689 23.641815
18.360208 69.428719 7.569934
18.966975 68.935104 6.658535
17.772329 69.945759 8.409854
17.162703 70.482014 9.209043
18.193368 68.525745 8.687194
18.360208 69.428719 7.569934
17.772329 69.945759 8.409854
18.086696 22.205284 40.785349
17.26292 22.220403 41.723968
17.688734 21.07516 41.562697
18.423688 23.338932 40.020647
18.086696 22.205284 40.785349
18.849501 22.193689 39.859375
19.908319 23.378161 38.14107
19.594302 22.239242 38.935295
20.316128 22.290067 37.981691
25.699604 26.393546 28.243623
25.172877 27.516834 28.405419
25.012224 26.516463 29.293308
26.434124 26.343404 27.121527
25.699604 26.393546 28.243623
24.766733 25.549182 30.235879
24.521015 24.563433 31.143346
26.176467 52.61517 -1.60172
25.865455 54.143827 -1.594573
26.504516 51.169936 -1.555775
26.176467 52.61517 -1.60172
26.235262 51.90674 -0.701399
26.824223 49.611345 -1.444328
26.504516 51.169936 -1.555775
26.599459 49.75992 0.179491
26.203126 51.193852 0.256968
26.239274 50.492266 1.091913
26.945884 48.930008 -0.690204
26.599459 49.75992 0.179491
26.824223 49.611345 -1.444328
26.945884 48.930008 -0.690204
26.132317 48.42116 3.817138
26.122276 47.763579 4.677497
9.610985 36.182346 44.323878
9.837859 37.572981 43.551136
8.449644 34.874323 45.755123
7.527392 34.989479 46.371176
9.380299 34.857594 45.049323
8.449644 34.874323 45.755123
9.075161 33.600523 45.776152
10.236502 34.908546 44.344906
9.610985 36.182346 44.323878
9.380299 34.857594 45.049323
5.465 29.539125 49.764763
4.89197 30.786573 49.691597
6.388041 22.929837 51.204422
6.85451 21.659281 51.226706
5.892114 24.140237 51.201508
6.388041 22.929837 51.204422
6.764985 24.178925 50.579384
5.41252 25.391017 51.145895
5.892114 24.140237 51.201508
5.712331 26.797224 50.499069
5.41252 25.391017 51.145895
6.059714 28.163704 49.832962
5.712331 26.797224 50.499069
6.61644 26.755806 49.910362
6.369108 29.497707 49.176056
5.465 29.539125 49.764763
6.059714 28.163704 49.832962
15.639174 19.767213 44.149189
14.793591 19.655488 45.030683
15.194509 18.582325 44.8822
16.452525 19.892164 43.251011
16.051607 20.965328 43.399494
15.639174 19.767213 44.149189
17.261704 19.969225 42.356304
16.452525 19.892164 43.251011
23.113748 67.481235 -3.207044
23.147081 68.313869 -4.310356
21.797978 66.230332 2.064356
21.296326 66.767013 2.931641
21.628566 65.404495 3.176693
21.797978 66.230332 2.064356
22.289955 65.722637 1.137269
23.055098 66.653358 -2.092771
22.916745 65.911136 -0.937875
23.442448 66.072689 -2.955154
23.113748 67.481235 -3.207044
23.055098 66.653358 -2.092771
24.930419 58.641518 -1.872823
24.99942 59.298208 -2.869809
24.649066 60.146169 -2.035454
24.930419 58.641518 -1.872823
24.890791 57.982302 -0.900049
25.554365 54.913549 -0.754489
25.865455 54.143827 -1.594573
25.543044 54.036544 0.141198
25.554365 54.913549 -0.754489
25.190196 55.598119 0.134055
25.066523 49.026657 6.719778
25.595183 48.38134 5.724861
25.120163 49.719406 5.819966
25.001809 48.285597 7.616158
25.066523 49.026657 6.719778
24.526789 49.623663 7.711264
24.976492 47.600195 8.455243
25.001809 48.285597 7.616158
24.372669 48.171992 9.588711
23.88335 49.434173 9.691536
23.793945 48.723562 10.672602
24.976492 47.600195 8.455243
24.372669 48.171992 9.588711
16.464172 67.920071 12.742558
16.717126 68.740398 11.57181
16.88008 66.495686 13.036525
16.464172 67.920071 12.742558
16.281136 66.996956 13.83286
15.631698 64.326854 17.232535
16.045623 62.96607 17.504816
15.81716 65.284672 16.107567
15.631698 64.326854 17.232535
16.471624 64.719059 15.253198
16.04258 66.138183 14.981197
15.81716 65.284672 16.107567
23.526397 46.492567 13.70246
23.594738 47.255381 12.729594
22.982221 47.723267 13.89754
23.526397 46.492567 13.70246
23.464893 45.739481 14.722838
15.697173 33.192257 39.619892
15.506571 31.965678 40.375301
16.274504 31.845477 39.507019
15.202464 34.537863 39.611382
15.697173 33.192257 39.619892
14.659098 35.822189 39.65056
14.385874 34.596784 40.527353
15.202464 34.537863 39.611382
14.813534 37.11125 38.863141
13.996945 37.170171 39.779112
14.659098 35.822189 39.65056
14.937736 38.321962 38.086472
14.813534 37.11125 38.863141
14.366018 39.656946 38.092064
14.937736 38.321962 38.086472
18.510125 31.77824 36.579943
19.207334 31.709873 35.575665
18.48986 36.501268 34.033271
19.0703 35.147527 33.896937
19.174357 36.311451 33.02701
18.48986 36.501268 34.033271
17.911018 37.764711 34.195507
16.812298 41.498368 33.594723
17.536634 41.285501 32.529709
17.356891 47.71929 27.795473
17.24189 46.735771 28.853981
17.97861 47.439836 26.723906
17.452648 48.672416 26.723848
17.356891 47.71929 27.795473
22.042963 40.317671 24.096329
22.032299 39.38106 25.026784
22.677956 39.038357 23.86596
21.428844 41.593783 24.279967
22.042963 40.317671 24.096329
22.074501 41.25108 23.119142
22.207625 44.78639 19.092818
21.577482 45.208172 20.253267
22.115192 43.977393 20.175208
22.78251 44.44182 17.947529
22.244799 45.6726 18.025588
22.207625 44.78639 19.092818
23.427819 44.052819 16.705285
22.78251 44.44182 17.947529
23.417796 44.92327 15.727784
23.427819 44.052819 16.705285
26.75214 28.272548 25.224042
26.000405 28.348397 26.426141
26.611991 27.318067 26.153635
26.843465 29.222611 24.305923
26.75214 28.272548 25.224042
3 1 54 52
3 1 56 54
3 0 59 57
3 2 62 60
3 2 64 62
3 2 65 64
3 3 68 66
3 190 70 191
3 193 192 70
3 5 194 196
3 196 195 72
3 194 195 196
3 6 197 198
3 6 199 201
3 199 74 200
3 199 200 201
3 7 77 75
3 7 79 77
3 7 81 79
3 203 202 82
3 8 204 205
3 8 206 208
3 206 84 207
3 206 207 208
3 9 87 85
3 9 89 87
3 9 91 89
3 10 94 92
3 10 96 94
3 11 209 210
3 11 211 213
3 211 97 212
3 211 212 213
3 11 99 97
3 12 102 100
3 12 104 102
3 4 214 216
3 216 215 105
3 214 215 216
3 13 108 106
3 13 109 108
3 13 111 109
3 217 112 218
3 220 219 112
3 15 221 223
3 221 114 222
3 221 222 223
3 17 115 53
3 17 116 115
3 17 118 116
3 19 119 55
3 19 120 119
3 224 122 225
3 21 226 228
3 226 123 227
3 226 227 228
3 21 124 123
3 22 229 230
3 23 125 58
3 23 126 125
3 24 128 127
3 26 129 61
3 26 130 129
3 26 132 130
3 28 133 63
3 28 231 233
3 233 232 133
3 231 232 233
3 28 234 235
3 236 134 237
3 238 135 239
3 240 239 134
3 238 239 240
3 29 138 136
3 31 139 67
3 31 140 139
3 241 141 242
3 32 142 69
3 32 143 142
3 32 144 143
3 33 145 71
3 33 146 145
3 33 243 245
3 245 244 146
3 243 244 245
3 34 149 148
3 35 150 73
3 35 151 150
3 36 152 76
3 36 153 152
3 36 154 153
3 37 155 78
3 37 156 155
3 37 157 156
3 38 158 80
3 38 159 158
3 14 160 113
3 246 161 247
3 248 247 83
3 246 247 248
3 250 249 161
3 39 251 252
3 39 253 254
3 16 255 256
3 40 257 259
3 259 258 86
3 257 258 259
3 40 260 262
3 260 162 261
3 260 261 262
3 40 163 162
3 41 164 88
3 41 263 265
3 265 264 164
3 263 264 265
3 41 266 268
3 266 165 267
3 266 267 268
3 42 166 90
3 42 167 166
3 18 168 117
3 43 169 93
3 43 170 169
3 43 171 170
3 44 269 271
3 271 270 95
3 269 270 271
3 44 272 273
3 274 172 275
3 45 276 278
3 276 173 277
3 276 277 278
3 45 174 173
3 45 175 174
3 46 176 98
3 46 177 176
3 20 178 121
3 47 179 101
3 47 180 179
3 47 181 180
3 48 182 103
3 48 279 281
3 281 280 182
3 279 280 281
3 30 183 137
3 25 282 283
3 49 284 286
3 286 285 107
3 284 285 286
3 49 287 288
3 49 289 290
3 50 291 292
3 50 293 294
3 50 295 297
3 295 184 296
3 295 296 297
3 51 185 110
3 51 186 185
3 27 187 131
3 298 188 299
3 300 189 301
3 302 301 188
3 300 301 302
3 304 303 189
3 306 305 147
3 52 53 15
3 54 53 52
3 54 17 53
3 54 55 17
3 56 55 54
3 56 19 55
3 307 21 308
3 57 58 22
3 59 58 57
3 59 23 58
3 60 61 24
3 62 61 60
3 62 26 61
3 62 63 26
3 64 63 62
3 64 28 63
3 64 309 311
3 311 310 28
3 309 310 311
3 65 312 314
3 314 313 64
3 312 313 314
3 65 315 316
3 66 67 29
3 68 67 66
3 68 31 67
3 317 69 318
3 70 319 321
3 319 69 320
3 319 320 321
3 70 32 69
3 70 71 32
3 322 71 323
3 324 323 70
3 322 323 324
3 325 33 326
3 327 326 71
3 325 326 327
3 329 328 33
3 72 330 332
3 332 331 34
3 330 331 332
3 334 333 72
3 335 73 336
3 74 337 339
3 337 73 338
3 337 338 339
3 74 35 73
3 75 340 342
3 340 76 341
3 340 341 342
3 77 76 75
3 77 36 76
3 77 78 36
3 79 78 77
3 79 37 78
3 79 80 37
3 81 80 79
3 81 38 80
3 82 83 14
3 343 83 344
3 345 344 82
3 343 344 345
3 347 346 83
3 84 348 349
3 84 350 352
3 350 39 351
3 350 351 352
3 85 86 16
3 87 86 85
3 87 40 86
3 87 88 40
3 89 88 87
3 89 41 88
3 89 90 41
3 91 90 89
3 91 42 90
3 92 93 18
3 94 93 92
3 94 43 93
3 94 95 43
3 96 95 94
3 96 44 95
3 97 353 354
3 97 355 357
3 355 45 356
3 355 356 357
3 97 98 45
3 99 98 97
3 99 46 98
3 100 101 20
3 102 101 100
3 102 47 101
3 102 103 47
3 104 103 102
3 104 48 103
3 105 358 360
3 360 359 30
3 358 359 360
3 362 361 105
3 106 107 25
3 108 107 106
3 108 49 107
3 108 363 365
3 365 364 49
3 363 364 365
3 109 366 368
3 368 367 108
3 366 367 368
3 109 369 371
3 369 50 370
3 369 370 371
3 109 110 50
3 111 110 109
3 111 51 110
3 373 372 27
3 375 374 3
3 377 376 5
3 378 6 379
3 380 75 381
3 112 382 384
3 382 75 383
3 382 383 384
3 112 7 75
3 112 113 7
3 385 113 386
3 387 386 112
3 385 386 387
3 388 14 389
3 390 389 113
3 388 389 390
3 391 14 392
3 393 82 394
3 395 394 14
3 393 394 395
3 396 82 397
3 399 398 82
3 400 8 401
3 114 402 403
3 114 404 406
3 404 16 405
3 404 405 406
3 53 114 15
3 115 114 53
3 115 16 114
3 115 85 16
3 116 85 115
3 116 9 85
3 116 117 9
3 118 117 116
3 118 18 117
3 55 118 17
3 119 118 55
3 119 18 118
3 119 92 18
3 120 92 119
3 120 10 92
3 407 11 408
3 409 121 410
3 411 410 11
3 409 410 411
3 122 412 414
3 412 121 413
3 412 413 414
3 122 20 121
3 415 122 416
3 123 417 419
3 417 122 418
3 417 418 419
3 123 20 122
3 123 100 20
3 124 100 123
3 124 12 100
3 58 420 422
3 422 421 22
3 420 421 422
3 125 423 425
3 425 424 58
3 423 424 425
3 125 426 427
3 125 428 429
3 126 430 432
3 432 431 125
3 430 431 432
3 126 433 434
3 127 435 437
3 437 436 4
3 435 436 437
3 128 438 440
3 440 439 127
3 438 439 440
3 128 441 443
3 441 25 442
3 441 442 443
3 61 128 24
3 129 128 61
3 129 25 128
3 129 106 25
3 130 106 129
3 130 13 106
3 130 131 13
3 132 131 130
3 132 27 131
3 63 132 26
3 133 132 63
3 133 27 132
3 133 444 446
3 446 445 27
3 444 445 446
3 448 447 133
3 450 449 28
3 451 15 452
3 134 453 454
3 134 455 457
3 455 15 456
3 455 456 457
3 134 52 15
3 135 52 134
3 135 1 52
3 136 137 0
3 138 137 136
3 138 30 137
3 67 138 29
3 139 138 67
3 139 30 138
3 139 105 30
3 140 105 139
3 140 4 105
3 458 68 459
3 460 459 3
3 458 459 460
3 141 461 463
3 461 68 462
3 461 462 463
3 141 31 68
3 69 464 466
3 464 141 465
3 464 465 466
3 142 141 69
3 142 31 141
3 142 140 31
3 143 140 142
3 143 4 140
3 143 127 4
3 144 127 143
3 144 24 127
3 71 144 32
3 145 144 71
3 145 24 144
3 145 60 24
3 146 60 145
3 146 2 60
3 146 147 2
3 467 147 468
3 469 468 146
3 467 468 469
3 471 470 147
3 473 472 33
3 148 474 475
3 149 476 478
3 478 477 148
3 476 477 478
3 149 479 480
3 481 149 482
3 483 482 34
3 481 482 483
3 484 149 485
3 487 486 149
3 489 488 5
3 490 22 491
3 73 492 493
3 150 494 496
3 496 495 73
3 494 495 496
3 150 497 499
3 497 22 498
3 497 498 499
3 150 57 22
3 151 57 150
3 151 0 57
3 500 6 501
3 76 502 503
3 152 504 506
3 506 505 76
3 504 505 506
3 152 507 508
3 152 509 510
3 153 511 513
3 513 512 152
3 511 512 513
3 153 514 516
3 514 6 515
3 514 515 516
3 153 74 6
3 154 74 153
3 154 35 74
3 78 154 36
3 155 154 78
3 155 35 154
3 155 151 35
3 156 151 155
3 156 0 151
3 156 136 0
3 157 136 156
3 157 29 136
3 80 157 37
3 158 157 80
3 158 29 157
3 158 66 29
3 159 66 158
3 159 3 66
3 113 81 7
3 160 81 113
3 160 38 81
3 83 160 14
3 161 160 83
3 161 38 160
3 161 159 38
3 517 159 518
3 519 518 161
3 517 518 519
3 520 3 521
3 522 521 159
3 520 521 522
3 524 523 3
3 525 8 526
3 86 527 529
3 529 528 16
3 527 528 529
3 531 530 86
3 162 532 533
3 162 534 536
3 534 8 535
3 534 535 536
3 162 84 8
3 163 84 162
3 163 39 84
3 88 163 40
3 164 163 88
3 164 39 163
3 164 537 539
3 539 538 39
3 537 538 539
3 541 540 164
3 542 148 543
3 165 544 546
3 544 148 545
3 544 545 546
3 165 34 148
3 90 165 41
3 166 165 90
3 166 34 165
3 166 72 34
3 167 72 166
3 167 5 72
3 117 91 9
3 168 91 117
3 168 42 91
3 93 168 18
3 169 168 93
3 169 42 168
3 169 167 42
3 170 167 169
3 170 5 167
3 170 547 549
3 549 548 5
3 547 548 549
3 171 550 552
3 552 551 170
3 550 551 552
3 171 553 554
3 95 171 43
3 555 171 556
3 557 556 95
3 555 556 557
3 559 558 171
3 560 135 561
3 172 562 564
3 562 135 563
3 562 563 564
3 172 1 135
3 173 565 566
3 173 567 568
3 173 569 571
3 569 172 570
3 569 570 571
3 174 172 173
3 174 1 172
3 174 56 1
3 175 56 174
3 175 19 56
3 98 175 45
3 176 175 98
3 176 19 175
3 176 120 19
3 177 120 176
3 177 10 120
3 121 99 11
3 178 99 121
3 178 46 99
3 101 178 20
3 179 178 101
3 179 46 178
3 179 177 46
3 180 177 179
3 180 10 177
3 180 96 10
3 181 96 180
3 181 44 96
3 103 181 47
3 182 181 103
3 182 44 181
3 182 572 574
3 574 573 44
3 572 573 574
3 576 575 182
3 137 59 0
3 183 59 137
3 183 23 59
3 577 183 578
3 579 578 30
3 577 578 579
3 580 183 581
3 582 23 583
3 584 583 183
3 582 583 584
3 585 126 586
3 587 586 23
3 585 586 587
3 588 126 589
3 591 590 126
3 593 592 4
3 107 594 596
3 596 595 25
3 594 595 596
3 598 597 107
3 600 599 49
3 184 601 602
3 184 603 605
3 603 21 604
3 603 604 605
3 110 184 50
3 185 184 110
3 185 21 184
3 185 124 21
3 186 124 185
3 186 12 124
3 131 111 13
3 187 111 131
3 187 51 111
3 606 187 607
3 608 607 27
3 606 607 608
3 188 609 611
3 609 187 610
3 609 610 611
3 188 51 187
3 188 186 51
3 189 186 188
3 189 12 186
3 189 104 12
3 612 104 613
3 614 613 189
3 612 613 614
3 615 48 616
3 617 616 104
3 615 616 617
3 618 48 619
3 621 620 48
3 147 65 2
3 622 65 623
3 624 623 147
3 622 623 624
3 626 625 65
