ply
format ascii 1.0
element vertex 359
property float x
property float y
property float z
element face 320
property list uchar int vertex_index
end_header
-23.578011 39.386906 22.603563
-11.62616 15.415567 49.990971
-17.459005 20.681528 43.058491
-11.159225 26.421392 47.196793
-20.07147 17.801311 40.857975
-11.491796 20.783464 48.665848
-8.139748 23.450336 50.398663
-7.407825 29.216814 48.941814
-14.153295 8.329476 49.512184
-24.885511 34.216049 24.657089
-24.837931 22.240438 32.776894
-22.543154 20.158031 36.93121
-14.684901 18.067747 46.601929
-14.411811 23.511198 45.325523
-13.851847 29.29833 43.920803
-10.45032 32.454414 45.575375
-24.147127 27.387575 31.218624
-23.248837 32.653839 29.39975
-22.0868 38.164299 27.425068
-26.252117 32.571785 23.194817
-25.493702 31.679733 25.616064
-18.842752 19.268736 41.89872
-20.076197 20.496027 40.049568
-18.760454 21.900984 41.209698
-17.290615 23.422943 42.417408
-13.0812 14.241762 49.037891
-14.600801 15.46909 47.346817
-13.132774 16.759924 48.359772
-11.254687 23.511171 48.050835
-13.015439 22.295111 46.946991
-12.772386 24.985491 46.337494
-14.138806 26.40336 44.662701
-12.436603 27.995838 45.627068
-12.175183 30.876917 44.806248
-10.705033 29.38188 46.531406
-5.591647 30.604479 49.582253
-7.113036 32.193527 48.012016
-23.573658 23.801998 33.998005
-24.603308 24.830154 31.880199
-23.206198 26.423315 33.309799
-22.379307 31.830736 31.609312
-21.909054 34.592663 30.632204
-22.663532 35.37912 28.503769
-21.325523 37.388939 29.722715
-17.428621 17.986675 43.840996
-11.571327 18.111977 49.337048
-9.87567 19.346796 50.345787
-9.797045 22.103628 49.607334
-9.597363 25.081516 48.824734
-9.266755 28.033768 48.076462
-7.768991 26.325403 49.714233
-5.93175 27.601414 50.478905
-14.418795 10.728676 48.680359
-13.053301 11.740725 49.678154
-24.182413 36.89603 23.679859
-23.731703 21.282671 34.834663
-22.364805 22.783754 36.208855
-21.338165 19.040848 38.901833
-21.255651 21.612379 38.165108
-16.040022 16.818172 45.600407
-16.106485 19.514334 44.817848
-13.157005 19.476629 47.621185
-14.606927 20.732393 45.950768
-15.954541 22.156561 44.220383
-15.735012 24.971273 43.577305
-10.01752 35.438282 44.686325
-9.00474 30.858402 47.244423
-8.599343 33.74041 46.407124
-25.92259 23.272934 30.56419
-25.537012 25.908606 29.714712
-25.112934 28.442318 28.835098
-22.797722 29.114998 32.521145
-23.77146 30.043585 30.221676
-24.683611 30.975441 27.822014
-24.031651 33.570709 27.08147
-23.455763 36.102264 26.142515
-22.901264 38.781448 24.920216
-23.937022 39.620045 21.407246
-24.262842 38.419548 21.913997
-23.277204 40.589306 22.091962
-23.937022 39.620045 21.407246
-25.777354 30.41467 26.078006
-26.177017 30.834897 24.942058
-5.429495 32.159566 49.07116
-4.642869 31.487382 49.807721
-22.745991 25.905333 34.270731
-23.389928 25.112656 33.653902
-22.929721 24.594674 34.614834
-21.258926 35.444172 31.27386
-21.49323 34.035963 31.766008
-20.96716 36.84231 30.819116
-21.617289 35.990801 30.17746
-21.258926 35.444172 31.27386
-17.437804 16.806638 44.140135
-18.11703 17.411994 43.229296
-9.182759 18.639981 51.059138
-9.986052 18.009591 50.621374
-8.968397 22.776982 50.002999
-9.001904 21.388552 50.403277
-8.173255 22.061906 50.798941
-5.115766 26.853497 51.256628
-6.077051 26.181166 50.877294
-4.956978 28.358542 50.800587
-5.115766 26.853497 51.256628
-14.286045 9.529076 49.096272
-15.049683 10.122351 48.221035
-14.916933 8.922751 48.636947
-12.325245 11.107386 50.459877
-12.982655 10.565846 50.027656
-12.386417 12.326021 50.107923
-12.325245 11.107386 50.459877
-14.775773 7.771136 49.061105
-14.037055 7.288535 49.881464
-14.916933 8.922751 48.636947
-14.775773 7.771136 49.061105
-25.219434 34.609745 23.510043
-25.902736 33.787613 22.778907
-25.568814 33.393917 23.925953
-24.533962 35.556039 24.168474
-24.867885 35.949736 23.021428
-25.219434 34.609745 23.510043
-23.137428 20.720351 35.882936
-23.780942 20.028644 35.239822
-23.186667 19.466324 36.288095
-20.704818 18.421079 39.879904
-21.333992 17.821708 39.273936
-20.700645 17.20194 40.252007
-20.623603 22.436943 38.704952
-20.665924 21.054203 39.107338
-20.033876 21.878767 39.647182
-21.189963 22.951269 37.76252
-20.623603 22.436943 38.704952
-14.732517 28.579334 43.323548
-14.875996 27.131849 43.694496
-13.995327 27.850845 44.291752
-14.508733 30.015988 43.015794
-14.732517 28.579334 43.323548
-13.687587 30.883781 43.465255
-14.508733 30.015988 43.015794
-11.102399 33.184477 44.766973
-11.964831 32.395728 44.38241
-11.312752 31.665665 45.190811
-10.23392 33.946348 45.13085
-10.885999 34.676411 44.322448
-11.102399 33.184477 44.766973
-7.682343 34.532881 46.688818
-7.856189 32.966969 47.20957
-6.93919 33.759439 47.491264
-8.434723 35.376058 45.832903
-7.682343 34.532881 46.688818
-25.38026 22.756686 31.670542
-26.032709 22.073504 30.990499
-25.49038 21.557256 32.096851
-22.15566 29.954714 33.129389
-22.321182 28.668808 33.543201
-7.306556 22.71769 51.202229
-8.173255 22.061906 50.798941
-7.181051 24.105627 50.837173
-7.306556 22.71769 51.202229
-13.532652 8.860221 49.944671
-13.44871 7.758995 50.290702
-13.44871 7.758995 50.290702
-14.037055 7.288535 49.881464
-26.556224 31.280923 23.731434
-26.955136 31.62712 22.590224
-25.872909 32.125759 24.405441
-26.556224 31.280923 23.731434
-26.177017 30.834897 24.942058
-22.603707 18.938978 37.25714
-23.186667 19.466324 36.288095
-19.376004 22.581246 40.227248
-20.033876 21.878767 39.647182
-19.418326 21.198506 40.629633
-18.699306 23.273393 40.83195
-19.376004 22.581246 40.227248
-17.964387 24.034372 41.435805
-18.699306 23.273393 40.83195
-18.025534 22.661963 41.813553
-17.212623 24.792283 42.051924
-17.964387 24.034372 41.435805
-13.841 14.855426 48.192354
-14.573239 14.302358 47.660412
-13.813439 13.688694 48.505949
-6.190189 32.95409 48.286041
-6.352341 31.399003 48.797134
-5.429495 32.159566 49.07116
-6.93919 33.759439 47.491264
-6.190189 32.95409 48.286041
-21.728357 32.655 32.254562
-21.946453 31.312583 32.673473
-22.144181 33.2117 31.120758
-21.728357 32.655 32.254562
-21.49323 34.035963 31.766008
-20.049889 16.588957 41.2204
-20.700645 17.20194 40.252007
-19.438454 17.319312 41.737786
-20.049889 16.588957 41.2204
-18.824095 18.053024 42.258158
-19.457111 18.535024 41.378348
-19.438454 17.319312 41.737786
-18.135686 18.627706 42.869858
-18.824095 18.053024 42.258158
-18.11703 17.411994 43.229296
-10.83388 17.392181 50.117005
-11.598744 16.763772 49.66401
-10.861297 16.043976 50.443966
-10.723498 18.729387 49.841418
-10.83388 17.392181 50.117005
-9.986052 18.009591 50.621374
-9.041216 20.010137 50.772503
-9.182759 18.639981 51.059138
-9.836358 20.725212 49.976561
-9.041216 20.010137 50.772503
-9.001904 21.388552 50.403277
-6.995672 25.54316 50.494958
-7.95437 24.88787 50.056448
-7.181051 24.105627 50.837173
-6.850371 26.963408 50.096569
-6.995672 25.54316 50.494958
-6.077051 26.181166 50.877294
-4.786927 29.860075 50.352261
-5.761698 29.102947 50.030579
-4.956978 28.358542 50.800587
-4.642869 31.487382 49.807721
-4.786927 29.860075 50.352261
-15.168593 11.307058 47.815247
-15.049683 10.122351 48.221035
-14.482236 11.932151 48.327183
-15.168593 11.307058 47.815247
-13.665402 10.059821 49.528759
-14.286045 9.529076 49.096272
-13.532652 8.860221 49.944671
-13.736048 11.2347 49.179257
-13.665402 10.059821 49.528759
-12.982655 10.565846 50.027656
-13.799489 12.438175 48.826081
-14.482236 11.932151 48.327183
-13.736048 11.2347 49.179257
-13.067251 12.991243 49.358023
-13.813439 13.688694 48.505949
-13.799489 12.438175 48.826081
-12.400367 13.576539 49.787792
-13.067251 12.991243 49.358023
-12.386417 12.326021 50.107923
-11.672847 14.163442 50.264332
-12.35368 14.828664 49.514431
-12.400367 13.576539 49.787792
-10.888632 14.843423 50.730326
-11.672847 14.163442 50.264332
-10.861297 16.043976 50.443966
-10.888632 14.843423 50.730326
-26.671616 32.830135 22.003063
-26.955136 31.62712 22.590224
-26.671616 32.830135 22.003063
-25.902736 33.787613 22.778907
-24.565043 37.17411 22.452145
-24.867885 35.949736 23.021428
-23.880212 38.141468 23.141711
-24.262842 38.419548 21.913997
-24.565043 37.17411 22.452145
-24.954973 20.992353 33.142357
-25.49038 21.557256 32.096851
-24.401858 20.513469 34.171242
-23.780942 20.028644 35.239822
-24.284817 21.761555 33.805779
-24.954973 20.992353 33.142357
-24.401858 20.513469 34.171242
-22.325294 24.085552 35.720259
-22.929721 24.594674 34.614834
-22.969231 23.292876 35.10343
-22.001213 18.380387 38.242451
-21.333992 17.821708 39.273936
-21.94066 19.59944 37.916522
-22.603707 18.938978 37.25714
-22.001213 18.380387 38.242451
-21.74454 23.536956 36.784394
-21.810228 22.198066 37.186982
-21.189963 22.951269 37.76252
-22.325294 24.085552 35.720259
-21.74454 23.536956 36.784394
-15.339042 14.87873 46.773224
-14.573239 14.302358 47.660412
-16.058652 15.553272 45.900019
-15.339042 14.87873 46.773224
-15.320412 16.143631 46.473612
-16.743505 16.222386 45.019841
-16.058652 15.553272 45.900019
-16.734322 17.402424 44.720701
-17.437804 16.806638 44.140135
-16.743505 16.222386 45.019841
-16.434821 25.566448 42.631873
-17.212623 24.792283 42.051924
-16.512814 24.197108 42.997357
-15.6741 26.415805 43.151798
-14.936909 25.687317 44.120003
-14.875996 27.131849 43.694496
-16.434821 25.566448 42.631873
-15.6741 26.415805 43.151798
-12.849255 31.673074 43.907978
-13.687587 30.883781 43.465255
-13.013515 30.087623 44.363525
-12.849255 31.673074 43.907978
-11.964831 32.395728 44.38241
-10.758558 36.164421 43.788258
-10.885999 34.676411 44.322448
-9.828819 36.997535 44.140232
-10.758558 36.164421 43.788258
-9.143811 36.224995 44.972504
-9.308431 34.589346 45.546724
-8.434723 35.376058 45.832903
-9.828819 36.997535 44.140232
-9.143811 36.224995 44.972504
-26.58112 22.510317 29.917285
-26.032709 22.073504 30.990499
-26.401886 23.796522 29.473225
-26.58112 22.510317 29.917285
-26.209097 25.114358 29.048486
-26.401886 23.796522 29.473225
-25.729801 24.59077 30.139451
-26.001978 26.392367 28.580738
-26.209097 25.114358 29.048486
-25.789939 27.659223 28.140931
-26.001978 26.392367 28.580738
-25.324973 27.175462 29.274905
-25.58697 28.795963 27.687523
-25.789939 27.659223 28.140931
-22.525419 27.322966 33.937528
-22.745991 25.905333 34.270731
-23.00196 27.769157 32.915472
-22.525419 27.322966 33.937528
-22.321182 28.668808 33.543201
-22.588515 30.472867 32.065228
-22.15566 29.954714 33.129389
-21.946453 31.312583 32.673473
-25.372308 30.062524 27.180981
-25.58697 28.795963 27.687523
-24.898272 29.70888 28.328556
-25.088656 31.327587 26.719039
-25.777354 30.41467 26.078006
-25.372308 30.062524 27.180981
-20.655715 38.240341 30.413007
-20.96716 36.84231 30.819116
-21.032187 38.744889 29.248019
-20.655715 38.240341 30.413007
-21.412826 39.132569 28.099196
-21.706162 37.776619 28.573892
-21.032187 38.744889 29.248019
-21.826874 39.395759 26.916446
-21.412826 39.132569 28.099196
-22.234106 39.704334 25.66402
-22.494032 38.472873 26.172642
-21.826874 39.395759 26.916446
-22.557545 40.061166 24.502319
-22.234106 39.704334 25.66402
-22.895919 40.363895 23.343993
-23.239638 39.084177 23.76189
-22.557545 40.061166 24.502319
-23.277204 40.589306 22.091962
-22.895919 40.363895 23.343993
3 0 77 78
3 0 79 80
3 81 20 82
3 2 23 21
3 2 24 23
3 1 27 25
3 3 30 28
3 3 32 30
3 3 34 32
3 84 83 35
3 85 39 86
3 87 86 37
3 85 86 87
3 88 41 89
3 90 43 91
3 92 91 41
3 90 91 92
3 93 44 94
3 95 46 96
3 6 97 99
3 97 47 98
3 97 98 99
3 6 48 47
3 6 50 48
3 100 51 101
3 103 102 51
3 8 104 106
3 104 52 105
3 104 105 106
3 107 53 108
3 110 109 53
3 8 111 112
3 8 113 114
3 9 115 117
3 117 116 19
3 115 116 117
3 9 118 120
3 118 54 119
3 118 119 120
3 11 121 123
3 121 55 122
3 121 122 123
3 11 56 55
3 4 124 126
3 124 57 125
3 124 125 126
3 127 58 128
3 129 128 22
3 127 128 129
3 131 130 58
3 12 59 26
3 12 60 59
3 5 61 45
3 13 62 29
3 13 63 62
3 13 64 63
3 14 132 134
3 134 133 31
3 132 133 134
3 14 135 136
3 14 137 138
3 15 139 141
3 141 140 33
3 139 140 141
3 15 142 144
3 142 65 143
3 142 143 144
3 7 66 49
3 145 67 146
3 147 146 36
3 145 146 147
3 149 148 67
3 10 150 152
3 150 68 151
3 150 151 152
3 16 69 38
3 16 70 69
3 153 71 154
3 17 72 40
3 17 73 72
3 17 74 73
3 18 75 42
3 18 76 75
3 155 6 156
3 158 157 6
3 160 159 8
3 161 8 162
3 163 19 164
3 20 165 167
3 165 19 166
3 165 166 167
3 20 9 19
3 168 11 169
3 21 22 4
3 23 22 21
3 23 170 172
3 172 171 22
3 170 171 172
3 23 173 174
3 24 175 177
3 177 176 23
3 175 176 177
3 24 178 179
3 25 180 182
3 180 26 181
3 180 181 182
3 27 26 25
3 27 12 26
3 28 29 5
3 30 29 28
3 30 13 29
3 30 31 13
3 32 31 30
3 32 14 31
3 32 33 14
3 34 33 32
3 34 15 33
3 35 36 7
3 183 36 184
3 185 184 35
3 183 184 185
3 187 186 36
3 37 38 10
3 39 38 37
3 39 16 38
3 188 40 189
3 41 190 192
3 190 40 191
3 190 191 192
3 41 17 40
3 41 42 17
3 43 42 41
3 43 18 42
3 193 4 194
3 195 4 196
3 197 21 198
3 199 198 4
3 197 198 199
3 44 200 202
3 200 21 201
3 200 201 202
3 44 2 21
3 203 45 204
3 205 204 1
3 203 204 205
3 46 206 208
3 206 45 207
3 206 207 208
3 46 5 45
3 209 46 210
3 47 211 213
3 211 46 212
3 211 212 213
3 47 5 46
3 47 28 5
3 48 28 47
3 48 3 28
3 48 49 3
3 50 49 48
3 50 7 49
3 214 50 215
3 216 215 6
3 214 215 216
3 51 217 219
3 217 50 218
3 217 218 219
3 51 7 50
3 51 35 7
3 220 35 221
3 222 221 51
3 220 221 222
3 224 223 35
3 52 225 226
3 52 227 228
3 229 52 230
3 231 230 8
3 229 230 231
3 53 232 234
3 232 52 233
3 232 233 234
3 53 235 237
3 237 236 52
3 235 236 237
3 53 238 240
3 238 25 239
3 238 239 240
3 241 25 242
3 243 242 53
3 241 242 243
3 244 1 245
3 246 245 25
3 244 245 246
3 247 1 248
3 250 249 1
3 19 251 252
3 254 253 19
3 54 255 256
3 54 257 259
3 257 0 258
3 257 258 259
3 260 10 261
3 55 262 263
3 55 264 266
3 264 10 265
3 264 265 266
3 55 37 10
3 56 37 55
3 56 267 269
3 269 268 37
3 267 268 269
3 57 270 271
3 57 272 274
3 272 11 273
3 272 273 274
3 22 57 4
3 58 57 22
3 58 11 57
3 58 56 11
3 275 56 276
3 277 276 58
3 275 276 277
3 279 278 56
3 26 280 281
3 59 282 284
3 284 283 26
3 282 283 284
3 59 285 286
3 59 287 289
3 287 44 288
3 287 288 289
3 60 44 59
3 60 2 44
3 45 27 1
3 61 27 45
3 61 12 27
3 29 61 5
3 62 61 29
3 62 12 61
3 62 60 12
3 63 60 62
3 63 2 60
3 63 24 2
3 64 24 63
3 64 290 292
3 292 291 24
3 290 291 292
3 31 64 13
3 293 64 294
3 295 294 31
3 293 294 295
3 297 296 64
3 33 298 300
3 300 299 14
3 298 299 300
3 302 301 33
3 65 303 304
3 65 305 306
3 49 34 3
3 66 34 49
3 66 15 34
3 36 66 7
3 67 66 36
3 67 15 66
3 67 65 15
3 307 65 308
3 309 308 67
3 307 308 309
3 311 310 65
3 68 312 313
3 68 314 315
3 38 68 10
3 69 68 38
3 69 316 318
3 318 317 68
3 316 317 318
3 69 319 320
3 70 321 323
3 323 322 69
3 321 322 323
3 70 324 325
3 326 39 327
3 71 328 330
3 328 39 329
3 328 329 330
3 71 16 39
3 40 331 333
3 331 71 332
3 331 332 333
3 72 71 40
3 72 16 71
3 72 70 16
3 73 70 72
3 73 334 336
3 336 335 70
3 334 335 336
3 73 337 339
3 337 20 338
3 337 338 339
3 74 20 73
3 74 9 20
3 42 74 17
3 75 74 42
3 75 9 74
3 75 54 9
3 76 54 75
3 76 0 54
3 340 43 341
3 342 43 343
3 344 18 345
3 346 345 43
3 344 345 346
3 347 18 348
3 349 76 350
3 351 350 18
3 349 350 351
3 352 76 353
3 354 0 355
3 356 355 76
3 354 355 356
3 358 357 0
