ply
format ascii 1.0
element vertex 55
property float x
property float y
property float z
element face 41
property list uchar int vertex_index
end_header
-3.694092 32.370285 50.033188
-6.765344 35.325352 46.970512
-2.851631 38.578918 47.936779
-5.267342 33.714653 48.560066
-4.742188 36.960464 47.522144
-3.252731 35.471275 49.033482
-1.215314 37.012188 49.571491
-1.73673 33.693947 50.643253
-4.480717 33.042469 49.296627
-5.429495 32.159566 49.07116
-4.642869 31.487382 49.807721
-7.682343 34.532881 46.688818
-6.93919 33.759439 47.491264
-7.517724 36.16853 46.114597
-7.682343 34.532881 46.688818
-6.529347 36.916621 46.432008
-7.517724 36.16853 46.114597
-3.63315 39.420223 47.09895
-4.578428 38.610996 46.891632
-3.796909 37.769691 47.729461
-2.617431 40.194763 47.350139
-3.63315 39.420223 47.09895
-1.85572 39.415662 48.151297
-2.617431 40.194763 47.350139
-0.262149 37.760683 49.811731
-0.555055 36.028429 50.369909
-6.190189 32.95409 48.286041
-5.429495 32.159566 49.07116
-6.016343 34.520003 47.765289
-6.93919 33.759439 47.491264
-6.190189 32.95409 48.286041
-0.815763 34.369309 50.90579
-0.555055 36.028429 50.369909
-1.476022 35.353068 50.107372
-3.83815 30.742978 50.577729
-4.642869 31.487382 49.807721
-2.91141 31.411918 50.86915
-3.83815 30.742978 50.577729
-5.517769 37.734177 46.707825
-6.529347 36.916621 46.432008
-5.753766 36.142908 47.246328
-5.517769 37.734177 46.707825
-4.578428 38.610996 46.891632
-1.037562 38.632297 48.968653
-1.85572 39.415662 48.151297
-2.033472 37.795553 48.754135
-1.037562 38.632297 48.968653
-0.262149 37.760683 49.811731
-1.932729 32.073749 51.174183
-2.715411 33.032116 50.338221
-2.91141 31.411918 50.86915
-0.953288 32.761485 51.476832
-1.932729 32.073749 51.174183
-0.815763 34.369309 50.90579
-0.953288 32.761485 51.476832
3 0 8 10
3 8 3 9
3 8 9 10
3 0 5 3
3 0 7 5
3 1 11 12
3 1 13 14
3 1 15 16
3 2 17 19
3 19 18 4
3 17 18 19
3 2 20 21
3 2 22 23
3 25 24 6
3 3 26 27
3 3 28 30
3 28 1 29
3 28 29 30
3 3 4 1
3 5 4 3
3 5 2 4
3 5 6 2
3 7 6 5
3 7 31 33
3 33 32 6
3 31 32 33
3 34 0 35
3 37 36 0
3 4 38 40
3 40 39 1
3 38 39 40
3 42 41 4
3 6 43 45
3 45 44 2
3 43 44 45
3 47 46 6
3 48 7 49
3 50 49 0
3 48 49 50
3 51 7 52
3 54 53 7
