ply
format ascii 1.0
element vertex 316
property float x
property float y
property float z
element face 318
property list uchar int vertex_index
end_header
-16.923676 -84.235611 -6.667034
-8.513668 -83.872902 12.558245
-18.85857 -77.224236 3.743697
-23.434107 -68.189117 2.256902
-10.727991 -74.966682 22.277903
-15.18876 -77.921196 13.478166
-12.81342 -85.705833 3.303697
-3.991147 -78.475258 21.557755
-21.167767 -72.875641 3.310316
-17.042963 -78.0084 8.755372
-9.736647 -79.295883 17.786531
-7.41392 -76.677887 22.109728
-6.23589 -81.360313 17.294996
-2.512331 -83.379791 16.673834
-4.713886 -86.16597 12.079474
-6.977102 -88.232773 7.362405
-14.92994 -85.290909 -1.648702
-17.995033 -80.628281 -1.194451
-20.604429 -75.891136 -1.407728
-12.946303 -76.937111 18.122652
-12.020826 -81.035355 13.240738
-10.72578 -85.30603 7.878253
-14.099521 -81.784157 8.573771
-16.18434 -81.516594 3.589798
-9.366228 -89.221115 2.598867
-9.169416 -81.525337 15.28721
-7.978746 -80.417358 17.497725
-7.359486 -82.764709 14.900207
-5.46796 -83.770775 14.733373
-6.579157 -85.109772 12.291476
-5.810007 -87.393089 9.641006
-7.784057 -86.066032 9.971106
-15.955028 -84.790207 -4.081941
-18.439632 -78.941025 1.26365
-19.360601 -78.345985 -1.518396
-19.648674 -76.840691 1.024181
-22.292559 -70.593559 2.820699
-22.039837 -72.002251 0.664657
-23.096376 -69.747475 0.236805
-24.156891 -67.475502 -0.369687
-15.627682 -75.938263 15.944575
-14.537652 -75.463501 18.286001
-14.135033 -77.391647 16.039101
-12.569847 -78.881439 15.816228
-13.721192 -79.384262 13.528535
-13.109643 -81.426582 11.065588
-14.620116 -79.85746 11.147508
-17.95426 -77.699455 6.309853
-16.592569 -79.762817 6.311508
-17.549658 -79.396095 3.813675
-17.112434 -81.10865 1.246755
-5.678368 -77.680054 21.745237
-4.636004 -75.870644 24.054274
-2.282485 -79.036575 21.647644
-11.933471 -85.395096 5.75528
-10.113287 -87.196007 5.338229
-11.094454 -87.535011 2.99401
-19.263605 -75.504135 6.1908
-20.033356 -75.11702 3.520921
-20.433777 -73.403183 5.845697
-16.5748 -76.180504 13.642829
-16.201828 -77.944153 11.229148
-17.580059 -76.067558 11.182757
-18.434731 -75.921783 8.597299
-10.168532 -77.238441 20.022713
-9.114195 -75.872253 22.185541
-8.439875 -78.184906 19.921852
-6.783738 -79.041985 19.755249
-5.097005 -80.115982 19.282516
-3.282255 -80.918282 19.152884
-4.374097 -82.40979 16.948366
-3.629466 -84.743813 14.498324
-13.900772 -85.562469 0.866377
-12.137626 -87.661209 0.489213
-17.418554 -82.518929 -3.849376
-18.780102 -80.245781 -3.859435
-20.898453 -74.385269 0.905352
-21.766212 -73.589355 -1.781114
-13.475327 -74.757904 20.394152
-11.902051 -75.972343 20.296206
-11.374712 -78.129875 18.026047
-10.896426 -80.257706 15.578413
-10.263785 -82.515793 12.941604
-9.60905 -84.732674 10.231458
-11.393857 -83.16468 10.630816
-12.437106 -83.487488 8.49643
-13.557265 -83.683075 5.934038
-15.600857 -79.932877 8.789106
-15.165697 -81.816093 5.967841
-14.570761 -83.650391 3.487957
-15.580495 -83.423569 0.944062
-16.57884 -82.908867 -1.362831
-1.560601 -81.691887 19.029902
-8.916321 -86.812859 7.618987
-17.350874 -83.933708 -7.837532
-16.557673 -85.178063 -7.928144
-16.115876 -85.43813 -6.771721
-15.631553 -85.715428 -5.479174
-16.439352 -84.512909 -5.374487
-16.557673 -85.178063 -7.928144
-16.115876 -85.43813 -6.771721
-10.194949 -74.233799 23.342512
-10.95985 -73.819541 23.354957
-3.523065 -77.623226 22.647841
-3.845493 -76.320919 23.896101
-4.313575 -77.172951 22.806014
-3.136816 -78.755916 21.602699
-2.668734 -77.903885 22.692786
-3.523065 -77.623226 22.647841
-20.05892 -73.603695 7.14267
-19.848691 -74.453659 6.018249
-19.473834 -74.654171 7.315221
-17.279174 -75.246128 13.574424
-16.853988 -75.20866 14.708571
-17.781804 -75.189655 12.344388
-17.07743 -76.124031 12.412793
-17.279174 -75.246128 13.574424
-19.059397 -74.862995 8.51847
-18.658746 -74.998077 9.832475
-19.473834 -74.654171 7.315221
-18.849168 -75.712959 7.394049
-19.059397 -74.862995 8.51847
-3.732721 -86.691067 11.971804
-3.190511 -85.979989 13.181229
-4.171676 -85.454892 13.288899
-4.329238 -87.247593 10.862621
-3.732721 -86.691067 11.971804
-5.964255 -88.884754 7.256209
-5.380707 -88.464912 8.39551
-6.393555 -87.812931 8.501705
-6.552248 -89.295109 6.053265
-5.964255 -88.884754 7.256209
-14.0926 -86.346645 -1.735926
-13.578016 -86.482426 -0.478387
-14.415356 -85.426689 -0.391162
-20.39371 -76.773315 -2.650405
-19.771796 -78.00074 -2.705738
-19.982515 -77.118561 -1.463062
-20.988185 -75.61425 -2.758896
-20.39371 -76.773315 -2.650405
-22.29598 -72.458869 -1.93741
-21.903025 -72.795803 -0.558229
-22.432792 -71.665318 -0.714524
-22.176544 -73.212154 -3.107807
-22.29598 -72.458869 -1.93741
-7.682104 -75.548394 23.180728
-8.532241 -75.145577 23.218635
-8.264057 -76.27507 22.147635
-8.817213 -89.001415 3.801245
-9.190742 -87.988861 5.170926
-9.739757 -88.208561 3.968548
-8.33016 -90.07901 2.464646
-8.817213 -89.001415 3.801245
-11.238962 -88.642418 0.241032
-11.820783 -88.575005 -0.910685
-15.117766 -85.964226 -4.241679
-14.605221 -86.214577 -3.02506
-15.442484 -85.040558 -2.865321
-15.117766 -85.964226 -4.241679
-15.631553 -85.715428 -5.479174
-22.961062 -70.537929 -0.92845
-22.432792 -71.665318 -0.714524
-22.568106 -70.874863 0.450731
-23.516191 -69.294742 -1.090518
-22.961062 -70.537929 -0.92845
-24.046449 -68.158756 -1.393764
-23.516191 -69.294742 -1.090518
-23.626634 -68.611489 -0.066441
-24.599034 -66.970642 -1.737964
-24.046449 -68.158756 -1.393764
-15.082667 -75.700882 17.115288
-15.287987 -74.735458 18.233743
-15.833002 -74.97284 17.06303
-5.999293 -76.483143 22.880799
-6.867069 -75.982059 23.063045
-6.546144 -77.17897 21.927482
-5.47811 -75.578438 24.035317
-5.999293 -76.483143 22.880799
-5.157186 -76.775349 22.899755
-4.936989 -74.7071 25.106265
-5.47811 -75.578438 24.035317
-4.145891 -75.119411 25.000943
-4.936989 -74.7071 25.106265
-4.145891 -75.119411 25.000943
-3.845493 -76.320919 23.896101
-1.821292 -78.227867 22.712658
-2.668734 -77.903885 22.692786
-1.50302 -79.473346 21.514208
-1.821292 -78.227867 22.712658
-1.666956 -83.720867 16.6723
-2.14089 -84.543422 15.470917
-20.588425 -72.636844 7.020257
-20.05892 -73.603695 7.14267
-21.006667 -72.263611 5.720849
-20.588425 -72.636844 7.020257
-21.373662 -71.99984 4.453158
-20.800772 -73.139412 4.578006
-21.006667 -72.263611 5.720849
-21.936058 -70.858799 4.208349
-21.730163 -71.7346 3.065507
-21.373662 -71.99984 4.453158
-22.483332 -69.782406 3.877182
-21.936058 -70.858799 4.208349
-23.054106 -68.580185 3.595284
-22.863333 -69.391338 2.5388
-22.483332 -69.782406 3.877182
-16.380429 -75.08754 15.859444
-15.833002 -74.97284 17.06303
-16.101241 -76.059383 14.793702
-16.380429 -75.08754 15.859444
-16.853988 -75.20866 14.708571
-18.23141 -75.070965 11.125204
-17.781804 -75.189655 12.344388
-18.007395 -75.994671 9.890028
-18.23141 -75.070965 11.125204
-18.658746 -74.998077 9.832475
-2.699457 -85.225434 14.383162
-2.14089 -84.543422 15.470917
-3.070899 -84.061802 15.586079
-2.699457 -85.225434 14.383162
-3.190511 -85.979989 13.181229
-4.877299 -87.861153 9.643387
-4.329238 -87.247593 10.862621
-5.261946 -86.779529 10.86024
-4.877299 -87.861153 9.643387
-5.380707 -88.464912 8.39551
-12.696443 -87.531796 -0.666969
-13.019199 -86.611839 0.677795
-13.578016 -86.482426 -0.478387
-11.820783 -88.575005 -0.910685
-12.696443 -87.531796 -0.666969
-14.0926 -86.346645 -1.735926
-14.605221 -86.214577 -3.02506
-17.905924 -82.160641 -5.152963
-17.658485 -83.018982 -6.561792
-17.171115 -83.37727 -5.258205
-18.586698 -81.024067 -5.157992
-17.905924 -82.160641 -5.152963
-18.099328 -81.382355 -3.854405
-19.257165 -79.802075 -5.063036
-18.586698 -81.024067 -5.157992
-19.481547 -78.950638 -3.876258
-19.070352 -79.295883 -2.688916
-19.771796 -78.00074 -2.705738
-19.257165 -79.802075 -5.063036
-19.481547 -78.950638 -3.876258
-21.569077 -74.463359 -2.945589
-20.988185 -75.61425 -2.758896
-21.18532 -74.740246 -1.594421
-21.569077 -74.463359 -2.945589
-22.176544 -73.212154 -3.107807
-11.503986 -74.324276 22.467113
-10.95985 -73.819541 23.354957
-14.755626 -74.41383 19.404086
-15.287987 -74.735458 18.233743
-14.224464 -74.061031 20.458161
-14.755626 -74.41383 19.404086
-14.00649 -75.110703 19.340076
-13.71454 -73.653343 21.473064
-14.224464 -74.061031 20.458161
-12.877655 -74.219887 21.525238
-13.71454 -73.653343 21.473064
-12.091017 -74.827106 21.476265
-12.877655 -74.219887 21.525238
-12.688689 -75.365123 20.345179
-11.315021 -75.469513 21.287054
-11.503986 -74.324276 22.467113
-12.091017 -74.827106 21.476265
-17.350874 -83.933708 -7.837532
-17.658485 -83.018982 -6.561792
-23.597582 -67.465824 3.313833
-23.054106 -68.580185 3.595284
-23.934914 -67.137245 1.960975
-23.597582 -67.465824 3.313833
-24.296307 -66.780438 0.647681
-23.795499 -67.83231 0.943608
-23.934914 -67.137245 1.960975
-24.712392 -66.294998 -0.727278
-24.296307 -66.780438 0.647681
-24.599034 -66.970642 -1.737964
-24.712392 -66.294998 -0.727278
-9.388051 -74.686585 23.29633
-10.194949 -74.233799 23.342512
-9.921093 -75.419467 22.231722
-9.388051 -74.686585 23.29633
-8.532241 -75.145577 23.218635
-7.682104 -75.548394 23.180728
-6.867069 -75.982059 23.063045
-1.142078 -80.801002 20.205337
-1.50302 -79.473346 21.514208
-1.921543 -80.364231 20.338773
-1.191091 -82.876915 17.850333
-2.036466 -82.535839 17.851868
-1.666956 -83.720867 16.6723
-0.719106 -82.011677 19.059316
-1.191091 -82.876915 17.850333
-1.142078 -80.801002 20.205337
-0.719106 -82.011677 19.059316
-8.592259 -87.797287 6.311305
-9.514804 -87.004433 6.478608
-9.190742 -87.988861 5.170926
-7.62265 -88.507244 6.183014
-7.946712 -87.522816 7.490696
-8.592259 -87.797287 6.311305
-6.552248 -89.295109 6.053265
-7.62265 -88.507244 6.183014
-10.717377 -88.579319 1.49343
-11.61604 -87.59811 1.741611
-11.238962 -88.642418 0.241032
-9.853264 -89.422371 1.295858
-10.230341 -88.378063 2.796438
-10.717377 -88.579319 1.49343
-8.896269 -90.275577 1.219696
-9.853264 -89.422371 1.295858
-8.33016 -90.07901 2.464646
-8.896269 -90.275577 1.219696
3 0 94 95
3 1 27 25
3 1 29 27
3 1 31 29
3 0 96 98
3 98 97 32
3 96 97 98
3 0 99 100
3 2 35 33
3 3 38 36
3 3 39 38
3 5 42 40
3 5 44 42
3 5 46 44
3 2 49 47
3 2 33 49
3 4 101 102
3 7 52 51
3 7 103 105
3 105 104 52
3 103 104 105
3 7 106 108
3 106 53 107
3 106 107 108
3 6 56 54
3 109 59 110
3 111 110 57
3 109 110 111
3 112 60 113
3 114 62 115
3 116 115 60
3 114 115 116
3 117 63 118
3 119 57 120
3 121 120 63
3 119 120 121
3 10 66 64
3 12 67 26
3 12 68 67
3 12 70 68
3 14 71 28
3 14 122 124
3 124 123 71
3 122 123 124
3 14 125 126
3 15 127 129
3 129 128 30
3 127 128 129
3 15 130 131
3 16 132 134
3 134 133 72
3 132 133 134
3 17 75 74
3 18 135 137
3 137 136 34
3 135 136 137
3 18 138 139
3 8 76 58
3 140 77 141
3 142 141 37
3 140 141 142
3 144 143 77
3 19 78 41
3 19 79 78
3 19 80 79
3 20 81 43
3 20 82 81
3 20 84 82
3 22 85 45
3 22 86 85
3 9 87 61
3 23 88 48
3 23 89 88
3 23 90 89
3 17 91 50
3 17 74 91
3 11 145 147
3 147 146 65
3 145 146 147
3 13 92 69
3 21 93 83
3 24 148 150
3 150 149 55
3 148 149 150
3 24 151 152
3 154 153 73
3 25 26 10
3 27 26 25
3 27 12 26
3 27 28 12
3 29 28 27
3 29 14 28
3 29 30 14
3 31 30 29
3 31 15 30
3 32 155 157
3 157 156 16
3 155 156 157
3 159 158 32
3 33 34 17
3 35 34 33
3 35 18 34
3 36 37 8
3 38 37 36
3 38 160 162
3 162 161 37
3 160 161 162
3 38 163 164
3 39 165 167
3 167 166 38
3 165 166 167
3 39 168 169
3 40 170 172
3 170 41 171
3 170 171 172
3 42 41 40
3 42 19 41
3 42 43 19
3 44 43 42
3 44 20 43
3 44 45 20
3 46 45 44
3 46 22 45
3 47 48 9
3 49 48 47
3 49 23 48
3 49 50 23
3 33 50 49
3 33 17 50
3 51 173 175
3 175 174 11
3 173 174 175
3 52 176 178
3 178 177 51
3 176 177 178
3 52 179 180
3 52 181 182
3 184 183 52
3 53 185 186
3 53 187 188
3 190 189 13
3 54 55 21
3 56 55 54
3 56 24 55
3 57 58 2
3 59 58 57
3 59 8 58
3 191 59 192
3 193 59 194
3 195 8 196
3 197 196 59
3 195 196 197
3 198 36 199
3 200 199 8
3 198 199 200
3 201 36 202
3 203 3 204
3 205 204 36
3 203 204 205
3 206 40 207
3 60 208 210
3 208 40 209
3 208 209 210
3 60 5 40
3 60 61 5
3 62 61 60
3 62 9 61
3 211 62 212
3 63 213 215
3 213 62 214
3 213 214 215
3 63 9 62
3 63 47 9
3 57 47 63
3 57 2 47
3 64 65 4
3 66 65 64
3 66 11 65
3 26 66 10
3 67 66 26
3 67 11 66
3 67 51 11
3 68 51 67
3 68 7 51
3 68 69 7
3 70 69 68
3 70 13 69
3 28 70 12
3 71 70 28
3 71 13 70
3 71 216 218
3 218 217 13
3 216 217 218
3 220 219 71
3 30 221 223
3 223 222 14
3 221 222 223
3 225 224 30
3 72 73 6
3 226 73 227
3 228 227 72
3 226 227 228
3 230 229 73
3 232 231 16
3 74 233 235
3 235 234 0
3 233 234 235
3 75 236 238
3 238 237 74
3 236 237 238
3 75 239 240
3 34 75 17
3 241 75 242
3 243 242 34
3 241 242 243
3 245 244 75
3 58 35 2
3 76 35 58
3 76 18 35
3 37 76 8
3 77 76 37
3 77 18 76
3 77 246 248
3 248 247 18
3 246 247 248
3 250 249 77
3 251 4 252
3 41 253 254
3 78 255 257
3 257 256 41
3 255 256 257
3 78 258 259
3 78 260 261
3 79 262 264
3 264 263 78
3 262 263 264
3 79 265 267
3 265 4 266
3 265 266 267
3 79 64 4
3 80 64 79
3 80 10 64
3 43 80 19
3 81 80 43
3 81 10 80
3 81 25 10
3 82 25 81
3 82 1 25
3 82 83 1
3 84 83 82
3 84 21 83
3 45 84 20
3 85 84 45
3 85 21 84
3 85 54 21
3 86 54 85
3 86 6 54
3 61 46 5
3 87 46 61
3 87 22 46
3 48 87 9
3 88 87 48
3 88 22 87
3 88 86 22
3 89 86 88
3 89 6 86
3 89 72 6
3 90 72 89
3 90 16 72
3 50 90 23
3 91 90 50
3 91 16 90
3 91 32 16
3 74 32 91
3 74 0 32
3 269 268 0
3 270 3 271
3 272 3 273
3 274 39 275
3 276 275 3
3 274 275 276
3 277 39 278
3 280 279 39
3 65 281 283
3 283 282 4
3 281 282 283
3 285 284 65
3 287 286 11
3 69 53 7
3 92 53 69
3 92 288 290
3 290 289 53
3 288 289 290
3 291 92 292
3 293 292 13
3 291 292 293
3 294 92 295
3 297 296 92
3 83 31 1
3 93 31 83
3 93 15 31
3 55 93 21
3 298 93 299
3 300 299 55
3 298 299 300
3 301 15 302
3 303 302 93
3 301 302 303
3 305 304 15
3 73 56 6
3 306 56 307
3 308 307 73
3 306 307 308
3 309 24 310
3 311 310 56
3 309 310 311
3 312 24 313
3 315 314 24
