ply
format ascii 1.0
element vertex 219
property float x
property float y
property float z
element face 213
property list uchar int vertex_index
end_header
-1.088017 -79.792175 -43.532417
7.855089 -79.010498 -40.830818
17.252338 -88.233322 -34.59193
-1.73701 -73.077301 -44.709534
13.813268 -90.627289 -36.811958
6.49202 -71.121994 -41.80257
11.434577 -77.039612 -38.915081
8.71762 -85.589378 -39.954773
3.534955 -79.681328 -42.491314
2.698662 -72.485641 -43.400784
20.886423 -90.688004 -30.78466
19.503742 -84.721771 -32.366146
12.844696 -84.257057 -37.918404
15.753562 -81.571762 -35.857796
11.801255 -91.563698 -37.727577
8.152143 -70.190788 -40.939384
3.930389 -83.197395 -41.931606
1.41458 -80.154213 -43.014462
-2.082812 -69.388306 -45.260876
0.418884 -72.727486 -44.168541
0.225655 -69.180878 -44.571678
17.760523 -91.137077 -33.945873
19.698177 -92.53231 -31.953432
19.155113 -89.58297 -32.772057
20.358459 -87.921387 -31.480829
18.563049 -86.624626 -33.426643
8.310672 -82.360535 -40.418266
10.970663 -85.010719 -38.942871
10.376194 -81.530396 -39.447105
12.805209 -75.720886 -37.979942
13.670065 -79.520462 -37.423168
14.787045 -77.714539 -36.527515
16.854282 -79.923065 -34.833282
-3.833673 -76.211472 -44.519989
-1.334983 -76.621651 -44.116459
-4.078916 -72.765564 -45.184956
15.693545 -89.600632 -35.711399
7.065114 -74.978462 -41.381111
9.519958 -77.758293 -40.027882
8.949964 -74.299194 -40.414776
10.490581 -73.084496 -39.506184
9.241844 -89.079773 -39.27412
6.591212 -86.123589 -40.696289
6.093514 -82.686996 -41.298622
5.690963 -79.178207 -41.764179
0.749159 -76.46859 -43.667942
3.0146 -76.006126 -43.01355
5.238058 -75.62394 -42.181332
4.533722 -71.737343 -42.697124
-3.694414 -79.411659 -43.815746
21.110649 -85.871101 -30.406586
20.326231 -82.730484 -31.202255
11.229692 -88.307396 -38.50069
13.385438 -87.629906 -37.391388
15.112394 -86.497345 -36.323627
12.087263 -80.644897 -38.478718
14.424596 -83.097122 -36.891537
16.539288 -85.125084 -35.252239
17.759859 -83.391434 -34.133255
18.724796 -81.344254 -33.02639
10.648022 -91.791493 -38.158304
11.953651 -92.991089 -37.322086
0.163281 -79.973194 -43.27344
1.445494 -81.760822 -42.738321
0.194195 -81.579803 -42.997299
-1.074318 -67.38675 -45.182118
-0.928579 -69.284592 -44.916277
-2.228552 -67.490464 -45.526717
0.003793 -67.249909 -44.831438
-1.074318 -67.38675 -45.182118
14.445238 -75.882199 -36.72665
13.796127 -76.717713 -37.253729
13.45432 -74.885372 -37.452863
15.422868 -77.042378 -35.944618
14.445238 -75.882199 -36.72665
-5.252666 -72.733246 -45.296504
-3.956295 -74.488518 -44.852473
-5.130045 -74.4562 -44.96402
14.968004 -91.585296 -35.92258
13.944349 -92.042054 -36.485478
14.753407 -90.113961 -36.261679
15.908143 -91.071968 -35.372301
14.968004 -91.585296 -35.92258
10.103345 -71.126511 -39.74922
9.321362 -71.637642 -40.222784
8.934126 -69.679657 -40.46582
11.236591 -72.467148 -38.992258
10.103345 -71.126511 -39.74922
5.378426 -86.184868 -41.02903
6.722276 -87.696575 -40.377804
-4.849254 -79.333793 -43.795244
-3.562362 -81.068924 -43.384815
-6.168974 -77.596359 -44.212523
-5.014134 -77.674225 -44.233024
-4.849254 -79.333793 -43.795244
21.167082 -92.129761 -30.284589
20.572959 -93.051914 -30.868975
20.2923 -91.610157 -31.369046
21.656767 -91.126557 -29.700027
21.167082 -92.129761 -30.284589
21.379846 -89.768437 -30.12959
21.656767 -91.126557 -29.700027
18.314658 -79.74181 -33.345703
17.789539 -80.633659 -33.929836
17.379401 -79.031216 -34.249149
19.190662 -80.444394 -32.385972
18.314658 -79.74181 -33.345703
12.938342 -92.510258 -36.943287
11.953651 -92.991089 -37.322086
12.807261 -91.095494 -37.269768
13.944349 -92.042054 -36.485478
12.938342 -92.510258 -36.943287
6.974637 -68.69315 -41.622032
7.322082 -70.656391 -41.370977
6.144575 -69.158752 -42.053625
7.783492 -68.133824 -41.192937
6.974637 -68.69315 -41.622032
8.934126 -69.679657 -40.46582
7.783492 -68.133824 -41.192937
2.703399 -83.282413 -42.196894
4.048015 -84.721771 -41.646688
2.672484 -81.675804 -42.473034
2.703399 -83.282413 -42.196894
1.445494 -81.760822 -42.738321
1.21884 -68.986999 -44.215263
2.455343 -70.639381 -43.629817
1.462159 -70.833259 -43.986231
1.21884 -68.986999 -44.215263
0.003793 -67.249909 -44.831438
18.72935 -91.834694 -32.949652
18.921009 -93.265614 -32.569358
17.952182 -92.567997 -33.565579
16.456487 -78.14664 -35.097501
15.820664 -78.818802 -35.680398
15.422868 -77.042378 -35.944618
17.379401 -79.031216 -34.249149
16.456487 -78.14664 -35.097501
-5.435266 -70.816341 -45.702143
-5.252666 -72.733246 -45.296504
-4.244338 -71.019977 -45.496756
-5.435266 -70.816341 -45.702143
-3.073385 -71.175846 -45.259045
-2.907963 -72.921433 -44.947245
-4.244338 -71.019977 -45.496756
-3.246286 -69.331348 -45.534716
-1.909911 -71.232804 -44.985205
-3.073385 -71.175846 -45.259045
-3.303903 -67.607312 -45.803472
-3.246286 -69.331348 -45.534716
-2.228552 -67.490464 -45.526717
-3.303903 -67.607312 -45.803472
16.941631 -91.840191 -34.489538
17.952182 -92.567997 -33.565579
16.727034 -90.368854 -34.828636
16.941631 -91.840191 -34.489538
15.908143 -91.071968 -35.372301
12.393905 -73.785343 -38.229138
11.647895 -74.402691 -38.743063
11.236591 -72.467148 -38.992258
13.45432 -74.885372 -37.452863
12.393905 -73.785343 -38.229138
8.047592 -89.174667 -39.666719
9.368317 -90.54953 -38.931576
7.916528 -87.601681 -39.985205
8.047592 -89.174667 -39.666719
6.722276 -87.696575 -40.377804
5.260801 -84.660492 -41.313947
5.378426 -86.184868 -41.02903
4.048015 -84.721771 -41.646688
3.372873 -70.265232 -43.277986
3.616192 -72.111492 -43.048954
2.455343 -70.639381 -43.629817
4.290868 -69.842476 -42.910238
3.372873 -70.265232 -43.277986
5.270017 -69.534802 -42.462961
5.512871 -71.429668 -42.249847
4.290868 -69.842476 -42.910238
6.144575 -69.158752 -42.053625
5.270017 -69.534802 -42.462961
-1.043832 -81.396446 -43.18938
0.194195 -81.579803 -42.997299
-2.347031 -81.206188 -43.331045
-3.562362 -81.068924 -43.384815
-2.391215 -79.601917 -43.674081
-1.043832 -81.396446 -43.18938
-2.347031 -81.206188 -43.331045
-5.083763 -76.074131 -44.585146
-3.764044 -77.811566 -44.167867
-5.014134 -77.674225 -44.233024
-5.130045 -74.4562 -44.96402
-5.083763 -76.074131 -44.585146
19.910046 -93.863033 -31.487682
18.921009 -93.265614 -32.569358
20.784828 -94.382637 -30.403225
19.910046 -93.863033 -31.487682
20.572959 -93.051914 -30.868975
21.115865 -88.385128 -30.477674
21.379846 -89.768437 -30.12959
20.622441 -89.304696 -31.132745
21.49196 -87.359985 -29.940553
21.115865 -88.385128 -30.477674
20.734554 -86.896244 -30.943708
21.808131 -86.211822 -29.333967
21.49196 -87.359985 -29.940553
21.439557 -84.734882 -29.779636
21.808131 -86.211822 -29.333967
21.047348 -83.164574 -30.17747
21.439557 -84.734882 -29.779636
20.71844 -84.300793 -30.80442
20.681287 -81.695065 -30.560372
21.047348 -83.164574 -30.17747
10.521549 -90.321736 -38.500849
10.648022 -91.791493 -38.158304
9.368317 -90.54953 -38.931576
19.99138 -81.137508 -31.473904
19.525514 -82.037369 -32.114323
19.190662 -80.444394 -32.385972
20.681287 -81.695065 -30.560372
19.99138 -81.137508 -31.473904
3 60 14 61
3 0 62 64
3 62 17 63
3 62 63 64
3 65 20 66
3 67 66 18
3 65 66 67
3 69 68 20
3 2 23 21
3 2 25 23
3 1 28 26
3 70 31 71
3 72 71 29
3 70 71 72
3 74 73 31
3 75 35 76
3 77 76 33
3 75 76 77
3 4 78 79
3 4 80 82
3 80 36 81
3 80 81 82
3 5 39 37
3 83 40 84
3 85 84 15
3 83 84 85
3 87 86 40
3 88 42 89
3 8 43 16
3 8 44 43
3 3 45 34
3 9 46 19
3 9 47 46
3 9 48 47
3 90 49 91
3 94 93 49
3 92 93 94
3 10 95 97
3 97 96 22
3 95 96 97
3 10 98 99
3 10 100 101
3 11 50 24
3 11 51 50
3 7 52 41
3 12 53 27
3 12 54 53
3 6 55 38
3 13 56 30
3 13 57 56
3 13 58 57
3 102 59 103
3 104 103 32
3 102 103 104
3 106 105 59
3 14 107 108
3 14 109 111
3 109 4 110
3 109 110 111
3 112 15 113
3 114 113 5
3 112 113 114
3 115 15 116
3 118 117 15
3 119 16 120
3 17 121 123
3 121 16 122
3 121 122 123
3 17 8 16
3 18 19 3
3 20 19 18
3 20 9 19
3 20 124 126
3 126 125 9
3 124 125 126
3 128 127 20
3 21 129 131
3 129 22 130
3 129 130 131
3 23 22 21
3 23 10 22
3 23 24 10
3 25 24 23
3 25 11 24
3 26 27 7
3 28 27 26
3 28 12 27
3 29 30 6
3 31 30 29
3 31 13 30
3 31 32 13
3 132 32 133
3 134 133 31
3 132 133 134
3 136 135 32
3 33 34 0
3 35 34 33
3 35 3 34
3 137 35 138
3 139 35 140
3 141 3 142
3 143 142 35
3 141 142 143
3 144 18 145
3 146 145 3
3 144 145 146
3 147 18 148
3 150 149 18
3 151 21 152
3 36 153 155
3 153 21 154
3 153 154 155
3 36 2 21
3 37 38 1
3 39 38 37
3 39 6 38
3 15 39 5
3 40 39 15
3 40 6 39
3 40 29 6
3 156 29 157
3 158 157 40
3 156 157 158
3 160 159 29
3 161 41 162
3 42 163 165
3 163 41 164
3 163 164 165
3 42 7 41
3 16 166 168
3 166 42 167
3 166 167 168
3 43 42 16
3 43 7 42
3 43 26 7
3 44 26 43
3 44 1 26
3 34 17 0
3 45 17 34
3 45 8 17
3 19 45 3
3 46 45 19
3 46 8 45
3 46 44 8
3 47 44 46
3 47 1 44
3 47 37 1
3 48 37 47
3 48 5 37
3 169 48 170
3 171 170 9
3 169 170 171
3 172 48 173
3 174 5 175
3 176 175 48
3 174 175 176
3 178 177 5
3 179 0 180
3 49 181 182
3 49 183 185
3 183 0 184
3 183 184 185
3 49 33 0
3 186 33 187
3 188 187 49
3 186 187 188
3 190 189 33
3 22 191 192
3 195 194 22
3 193 194 195
3 24 196 198
3 198 197 10
3 196 197 198
3 50 199 201
3 201 200 24
3 199 200 201
3 50 202 203
3 50 204 205
3 51 206 208
3 208 207 50
3 206 207 208
3 51 209 210
3 41 211 213
3 211 14 212
3 211 212 213
3 52 14 41
3 52 4 14
3 27 52 7
3 53 52 27
3 53 4 52
3 53 36 4
3 54 36 53
3 54 2 36
3 38 28 1
3 55 28 38
3 55 12 28
3 30 55 6
3 56 55 30
3 56 12 55
3 56 54 12
3 57 54 56
3 57 2 54
3 57 25 2
3 58 25 57
3 58 11 25
3 32 58 13
3 59 58 32
3 59 11 58
3 59 51 11
3 214 51 215
3 216 215 59
3 214 215 216
3 218 217 51
