ply
format ascii 1.0
element vertex 78
property float x
property float y
property float z
element face 58
property list uchar int vertex_index
end_header
-35.551529 32.37114 21.230562
-35.463085 24.337927 23.412035
-35.958332 42.015713 15.884727
-36.09848 37.874977 17.419367
-36.208061 29.287645 20.117735
-35.502934 28.251904 22.501852
-36.240479 25.162737 21.003225
-36.095592 21.114414 22.096098
-35.456287 36.677925 20.025362
-36.185326 33.61544 18.830004
-36.340522 40.457817 15.325585
-36.257975 42.387352 14.573702
-36.582314 25.752574 19.83408
-36.22427 27.225191 20.56048
-36.566105 27.815028 19.391336
-36.542372 23.484237 20.411651
-36.582314 25.752574 19.83408
-35.404848 38.854112 19.251487
-35.130293 38.130526 20.50083
-36.521761 34.057249 17.553811
-36.141903 35.745209 18.124685
-36.478338 36.187017 16.848492
-36.5357 32.072083 18.223058
-36.521761 34.057249 17.553811
-35.194599 31.833014 22.481802
-35.1956 33.918273 21.837649
-35.143168 25.749132 24.077471
-35.163092 27.70612 23.62238
-35.48301 26.294916 22.956944
-35.10656 23.618707 24.533752
-35.143168 25.749132 24.077471
-35.413568 22.240568 23.834395
-35.10656 23.618707 24.533752
-36.001129 18.907471 22.574722
-36.389566 19.383032 21.453094
-36.028406 39.945345 16.652047
-35.725944 39.452638 17.94849
-35.65587 41.523006 17.181169
-36.410596 38.387449 16.092905
-36.028406 39.945345 16.652047
-36.340522 40.457817 15.325585
-36.478338 36.187017 16.848492
-36.410596 38.387449 16.092905
-36.469929 21.460076 20.958088
-36.168036 23.138576 21.549661
-36.542372 23.484237 20.411651
-36.389566 19.383032 21.453094
-36.469929 21.460076 20.958088
-35.14798 36.071665 21.235049
-35.130293 38.130526 20.50083
-35.503908 34.524532 20.627962
-35.1956 33.918273 21.837649
-35.14798 36.071665 21.235049
-35.777383 37.276451 18.722365
-35.404848 38.854112 19.251487
-35.725944 39.452638 17.94849
-36.547067 29.908186 18.866923
-36.196694 31.451543 19.473869
-36.5357 32.072083 18.223058
-36.566105 27.815028 19.391336
-36.547067 29.908186 18.866923
-35.562489 43.434164 16.513452
-35.65587 41.523006 17.181169
-35.852823 43.948608 15.151085
-35.562489 43.434164 16.513452
-36.257975 42.387352 14.573702
-35.852823 43.948608 15.151085
-35.170302 29.773396 23.117447
-35.194599 31.833014 22.481802
-35.527231 30.311522 21.866207
-35.170302 29.773396 23.117447
-35.163092 27.70612 23.62238
-35.729822 20.628811 23.176426
-35.413568 22.240568 23.834395
-35.779339 22.726171 22.754067
-35.635359 18.421869 23.65505
-35.729822 20.628811 23.176426
-36.001129 18.907471 22.574722
3 11 10 2
3 12 6 13
3 14 13 4
3 12 13 14
3 16 15 6
3 17 8 18
3 19 9 20
3 21 20 3
3 19 20 21
3 23 22 9
3 0 24 25
3 1 26 28
3 28 27 5
3 26 27 28
3 1 29 30
3 1 31 32
3 34 33 7
3 2 35 37
3 35 3 36
3 35 36 37
3 38 3 39
3 40 39 2
3 38 39 40
3 42 41 3
3 4 5 0
3 6 5 4
3 6 1 5
3 6 7 1
3 43 7 44
3 45 44 6
3 43 44 45
3 47 46 7
3 8 48 49
3 8 50 52
3 50 0 51
3 50 51 52
3 3 53 55
3 53 8 54
3 53 54 55
3 9 8 3
3 9 0 8
3 9 4 0
3 56 4 57
3 58 57 9
3 56 57 58
3 60 59 4
3 61 2 62
3 63 2 64
3 66 65 2
3 5 67 69
3 69 68 0
3 67 68 69
3 71 70 5
3 7 72 74
3 74 73 1
3 72 73 74
3 77 76 7
3 75 76 77
