ply
format ascii 1.0
element vertex 250
property float x
property float y
property float z
element face 256
property list uchar int vertex_index
end_header
-24.32995 -80.31768 -18.25366
-23.207834 -101.476479 -17.823416
-25.446321 -91.892769 -17.981405
-20.65406 -96.706924 -27.292664
-22.330656 -85.880119 -26.576414
-26.263781 -94.329269 -7.546952
-25.176865 -86.271843 -18.106136
-24.141607 -89.275818 -22.61582
-23.82979 -83.534416 -22.335939
-24.838165 -97.100708 -17.857126
-22.205433 -99.632301 -22.936457
-23.707245 -94.78701 -22.778194
-21.910589 -91.548729 -27.094776
-23.046818 -77.229408 -22.101564
-23.406897 -102.267464 -12.568782
-25.281885 -98.339928 -12.762202
-26.145264 -93.579086 -13.019058
-26.093977 -88.192825 -13.324671
-21.990774 -79.724236 -26.280697
-24.837357 -83.384766 -18.031031
-24.566746 -85.053787 -20.252939
-24.198256 -82.11042 -20.234846
-21.96063 -103.332985 -17.794542
-20.344931 -104.257027 -20.039188
-21.740046 -102.567055 -20.231028
-25.24539 -94.654396 -17.967482
-24.386406 -96.077057 -20.284225
-24.754404 -93.453377 -20.314045
-23.342838 -87.743927 -24.567961
-23.253902 -90.717056 -24.741653
-22.308605 -88.852852 -26.690329
-20.9013 -89.543068 -28.85808
-21.166494 -86.690285 -28.603838
-25.283627 -98.558075 -9.878201
-25.910517 -96.400795 -9.920916
-25.836975 -96.103638 -12.803288
-26.266056 -94.171951 -10.43273
-26.367804 -88.754585 -10.651019
-21.463282 -98.405922 -25.190308
-20.501587 -100.424187 -25.090054
-22.640213 -78.529495 -24.180038
-25.406637 -89.019211 -18.003334
-24.833719 -90.865303 -20.48102
-24.834568 -88.050659 -20.213568
-24.121258 -86.473518 -22.297178
-23.213634 -84.68856 -24.45204
-24.133324 -99.363113 -17.976439
-22.857725 -100.606766 -20.396229
-23.704838 -98.489029 -20.431623
-23.138802 -97.303093 -22.779274
-22.360041 -95.973877 -25.050158
-24.022621 -92.162811 -22.749489
-22.842783 -93.274574 -25.117609
-21.359621 -94.248795 -27.286331
-20.258919 -92.115814 -29.293579
-23.827375 -77.283424 -18.270624
-23.73399 -78.90789 -20.196341
-23.218193 -75.858429 -20.334932
-22.206108 -103.640999 -14.986362
-23.411814 -101.959618 -15.255113
-24.48173 -100.418381 -12.493823
-24.356287 -100.080582 -15.445896
-25.13685 -97.801888 -15.437806
-25.64443 -95.318062 -15.43365
-25.88608 -92.8312 -15.431875
-26.426691 -91.553085 -10.562295
-26.249178 -90.835045 -12.924991
-25.880623 -90.142563 -15.662678
-25.710537 -87.208504 -15.62088
-25.365685 -84.418739 -15.773758
-24.884287 -81.407349 -15.948027
-24.347689 -78.451736 -16.166685
-21.190586 -101.658089 -22.716059
-23.453037 -80.346657 -22.257368
-22.933664 -81.659401 -24.430567
-22.192379 -82.875366 -26.479107
-21.098984 -80.533249 -28.23456
-21.142494 -83.652725 -28.508629
-26.023133 -95.479363 -7.39511
-26.168602 -94.461895 -6.160045
-26.087149 -95.365032 -8.733934
-25.8465 -96.515126 -8.582092
-26.023133 -95.479363 -7.39511
-20.166328 -97.770214 -27.313182
-20.570939 -98.619713 -26.262004
-21.058671 -97.556423 -26.241486
-19.348333 -104.553207 -21.181649
-20.085282 -103.849975 -21.304246
-20.015014 -89.766773 -29.914248
-20.302876 -88.42313 -29.715635
-23.225124 -75.000473 -19.450537
-23.522784 -76.570926 -19.302778
-23.529716 -75.71297 -18.418384
-22.806503 -102.954231 -13.777572
-22.119681 -103.767865 -13.727237
-22.720076 -103.081097 -12.518446
-26.470962 -90.44757 -9.37876
-26.462091 -91.733882 -9.264534
-25.364736 -83.425033 -14.673082
-25.579072 -84.8381 -14.584384
-25.124037 -81.919338 -14.760217
-25.124986 -82.913044 -15.860893
-25.364736 -83.425033 -14.673082
-24.280932 -77.471588 -15.216663
-24.575671 -78.969196 -15.090785
-24.064335 -77.012863 -16.344186
-24.280932 -77.471588 -15.216663
-19.888484 -101.335099 -25.006821
-19.505926 -100.602166 -26.151981
-20.50786 -80.862037 -29.21085
-20.496451 -79.277375 -29.065024
-20.529615 -82.421775 -29.347885
-21.120739 -82.092987 -28.371595
-20.50786 -80.862037 -29.21085
-20.523294 -83.936379 -29.435657
-20.529615 -82.421775 -29.347885
-21.15278 -103.795006 -18.916865
-20.523942 -104.502006 -18.713707
-21.331792 -104.039986 -17.591384
-20.782839 -103.004989 -21.400166
-20.085282 -103.849975 -21.304246
-21.042488 -103.412041 -20.135108
-20.435474 -86.996738 -29.588513
-20.302876 -88.42313 -29.715635
-21.033897 -88.116677 -28.730959
-23.273392 -102.329396 -11.196264
-22.720076 -103.081097 -12.518446
-25.533055 -97.593766 -8.560735
-25.164098 -98.642041 -8.531285
-25.597072 -97.479435 -9.899559
-25.533055 -97.593766 -8.560735
-25.8465 -96.515126 -8.582092
-26.350172 -87.704449 -9.636527
-26.441518 -89.048321 -9.423122
-26.238615 -87.407455 -10.872917
-26.350172 -87.704449 -9.636527
-26.101701 -87.126576 -12.209744
-26.230891 -88.473705 -11.987845
-26.238615 -87.407455 -10.872917
-25.943218 -86.725144 -13.35984
-26.101701 -87.126576 -12.209744
-20.090091 -99.628846 -26.211877
-20.982435 -99.415054 -25.140181
-20.570939 -98.619713 -26.262004
-19.505926 -100.602166 -26.151981
-20.090091 -99.628846 -26.211877
-22.417882 -76.887909 -24.144115
-22.843515 -77.879452 -23.140801
-22.621184 -76.237865 -23.104878
-22.180329 -77.537849 -25.09458
-22.417882 -76.887909 -24.144115
-21.85561 -78.13522 -26.144909
-22.315493 -79.126866 -25.230367
-22.180329 -77.537849 -25.09458
-26.349295 -93.247989 -6.305587
-26.168602 -94.461895 -6.160045
-26.380636 -93.121974 -7.756862
-26.349295 -93.247989 -6.305587
-19.609927 -104.878498 -19.934793
-20.523942 -104.502006 -18.713707
-19.609927 -104.878498 -19.934793
-19.348333 -104.553207 -21.181649
-19.610101 -96.837978 -28.415625
-20.116209 -95.727016 -28.330751
-20.468989 -94.497951 -28.327585
-20.116209 -95.727016 -28.330751
-21.006841 -95.477859 -27.289497
-19.918639 -93.431461 -29.331209
-20.468989 -94.497951 -28.327585
-20.80927 -93.182305 -28.289955
-19.340947 -92.415939 -30.229498
-19.918639 -93.431461 -29.331209
-19.693823 -91.053146 -30.131998
-20.580109 -90.829441 -29.07583
-20.015014 -89.766773 -29.914248
-19.340947 -92.415939 -30.229498
-19.693823 -91.053146 -30.131998
-22.933798 -74.252205 -20.392195
-23.225124 -75.000473 -19.450537
-22.866914 -74.939217 -21.267413
-22.933798 -74.252205 -20.392195
-22.781226 -75.624706 -22.150729
-23.132506 -76.543919 -21.218248
-22.866914 -74.939217 -21.267413
-22.621184 -76.237865 -23.104878
-22.781226 -75.624706 -22.150729
-21.425992 -104.378949 -14.910472
-22.119681 -103.767865 -13.727237
-21.454531 -104.193993 -16.187294
-21.425992 -104.378949 -14.910472
-22.083369 -103.486992 -16.390452
-21.331792 -104.039986 -17.591384
-21.454531 -104.193993 -16.187294
-23.878982 -101.438572 -11.203429
-23.273392 -102.329396 -11.196264
-24.817347 -99.583877 -9.858138
-25.164098 -98.642041 -8.531285
-24.416398 -100.51403 -11.165949
-24.817347 -99.583877 -9.858138
-24.882678 -99.488228 -11.186012
-23.944313 -101.342923 -12.531303
-23.878982 -101.438572 -11.203429
-24.416398 -100.51403 -11.165949
-26.381773 -93.043316 -9.199751
-26.264919 -94.25061 -8.989841
-26.380636 -93.121974 -7.756862
-26.346373 -92.862518 -10.497512
-26.381773 -93.043316 -9.199751
-26.462091 -91.733882 -9.264534
-26.397247 -90.153835 -10.606657
-26.470962 -90.44757 -9.37876
-26.441518 -89.048321 -9.423122
-25.751498 -86.232983 -14.507945
-25.902257 -87.700665 -14.472776
-25.943218 -86.725144 -13.35984
-25.538111 -85.813622 -15.697319
-25.751498 -86.232983 -14.507945
-25.579072 -84.8381 -14.584384
-24.843971 -80.447002 -14.981456
-25.124037 -81.919338 -14.760217
-24.615988 -79.929542 -16.057356
-24.843971 -80.447002 -14.981456
-24.575671 -78.969196 -15.090785
-23.804178 -76.428707 -17.396155
-24.087532 -77.86758 -17.218654
-24.064335 -77.012863 -16.344186
-23.529716 -75.71297 -18.418384
-23.804178 -76.428707 -17.396155
-20.508109 -102.550507 -22.642682
-20.782839 -103.004989 -21.400166
-21.465316 -102.112572 -21.473543
-20.232983 -101.95205 -23.819823
-20.846086 -101.041138 -23.903056
-19.888484 -101.335099 -25.006821
-20.508109 -102.550507 -22.642682
-20.232983 -101.95205 -23.819823
-20.166328 -97.770214 -27.313182
-19.610101 -96.837978 -28.415625
-21.44495 -78.473885 -27.146783
-21.85561 -78.13522 -26.144909
-20.999055 -78.878391 -28.123714
-20.496451 -79.277375 -29.065024
-21.544879 -80.128743 -27.257628
-21.44495 -78.473885 -27.146783
-20.999055 -78.878391 -28.123714
-20.535294 -85.455159 -29.483262
-21.154494 -85.171505 -28.556233
-20.523294 -83.936379 -29.435657
-20.435474 -86.996738 -29.588513
-20.535294 -85.455159 -29.483262
3 0 21 19
3 1 24 22
3 2 27 25
3 4 30 28
3 4 32 30
3 5 78 79
3 5 80 82
3 80 34 81
3 80 81 82
3 5 36 34
3 3 83 85
3 85 84 38
3 83 84 85
3 6 43 41
3 8 44 20
3 8 45 44
3 87 86 23
3 9 48 46
3 11 49 26
3 11 50 49
3 7 51 42
3 12 52 29
3 12 53 52
3 12 54 53
3 89 88 31
3 90 57 91
3 92 91 55
3 90 91 92
3 14 93 95
3 93 58 94
3 93 94 95
3 14 59 58
3 15 60 33
3 15 61 60
3 15 62 61
3 16 63 35
3 16 64 63
3 96 65 97
3 17 66 37
3 17 67 66
3 17 68 67
3 98 69 99
3 100 70 101
3 102 101 69
3 100 101 102
3 103 71 104
3 106 105 71
3 10 72 47
3 108 107 39
3 13 73 56
3 18 74 40
3 18 75 74
3 109 76 110
3 111 77 112
3 113 112 76
3 111 112 113
3 115 114 77
3 19 20 6
3 21 20 19
3 21 8 20
3 22 116 118
3 116 23 117
3 116 117 118
3 24 23 22
3 24 119 121
3 121 120 23
3 119 120 121
3 25 26 9
3 27 26 25
3 27 11 26
3 28 29 7
3 30 29 28
3 30 12 29
3 30 31 12
3 32 31 30
3 32 122 124
3 124 123 31
3 122 123 124
3 125 14 126
3 127 33 128
3 34 129 131
3 129 33 130
3 129 130 131
3 34 15 33
3 34 35 15
3 36 35 34
3 36 16 35
3 132 37 133
3 134 37 135
3 136 17 137
3 138 137 37
3 136 137 138
3 140 139 17
3 38 39 10
3 141 39 142
3 143 142 38
3 141 142 143
3 145 144 39
3 146 40 147
3 148 147 13
3 146 147 148
3 149 40 150
3 151 18 152
3 153 152 40
3 151 152 153
3 41 42 2
3 43 42 41
3 43 7 42
3 20 43 6
3 44 43 20
3 44 7 43
3 44 28 7
3 45 28 44
3 45 4 28
3 154 5 155
3 157 156 5
3 23 158 159
3 161 160 23
3 163 162 3
3 46 47 1
3 48 47 46
3 48 10 47
3 26 48 9
3 49 48 26
3 49 10 48
3 49 38 10
3 50 38 49
3 50 3 38
3 42 27 2
3 51 27 42
3 51 11 27
3 29 51 7
3 52 51 29
3 52 11 51
3 52 50 11
3 53 50 52
3 53 3 50
3 53 164 166
3 166 165 3
3 164 165 166
3 54 167 169
3 169 168 53
3 167 168 169
3 54 170 171
3 31 54 12
3 172 54 173
3 174 173 31
3 172 173 174
3 176 175 54
3 55 56 0
3 57 56 55
3 57 13 56
3 177 57 178
3 179 57 180
3 181 13 182
3 183 182 57
3 181 182 183
3 185 184 13
3 58 186 187
3 58 188 189
3 58 190 192
3 190 22 191
3 190 191 192
3 59 22 58
3 59 1 22
3 193 14 194
3 33 195 196
3 60 197 199
3 199 198 33
3 197 198 199
3 60 200 202
3 200 14 201
3 200 201 202
3 60 59 14
3 61 59 60
3 61 1 59
3 61 46 1
3 62 46 61
3 62 9 46
3 35 62 15
3 63 62 35
3 63 9 62
3 63 25 9
3 64 25 63
3 64 2 25
3 203 36 204
3 205 204 5
3 203 204 205
3 65 206 208
3 206 36 207
3 206 207 208
3 65 16 36
3 37 209 211
3 209 65 210
3 209 210 211
3 66 65 37
3 66 16 65
3 66 64 16
3 67 64 66
3 67 2 64
3 67 41 2
3 68 41 67
3 68 6 41
3 212 68 213
3 214 213 17
3 212 213 214
3 69 215 217
3 215 68 216
3 215 216 217
3 69 6 68
3 69 19 6
3 70 19 69
3 70 0 19
3 218 70 219
3 71 220 222
3 220 70 221
3 220 221 222
3 71 0 70
3 71 55 0
3 223 55 224
3 225 224 71
3 223 224 225
3 227 226 55
3 47 24 1
3 72 24 47
3 72 228 230
3 230 229 24
3 228 229 230
3 39 72 10
3 231 72 232
3 233 232 39
3 231 232 233
3 235 234 72
3 237 236 3
3 56 21 0
3 73 21 56
3 73 8 21
3 40 73 13
3 74 73 40
3 74 8 73
3 74 45 8
3 75 45 74
3 75 4 45
3 238 18 239
3 76 240 241
3 76 242 244
3 242 18 243
3 242 243 244
3 76 75 18
3 77 75 76
3 77 4 75
3 77 32 4
3 245 32 246
3 247 246 77
3 245 246 247
3 249 248 32
