ply
format ascii 1.0
element vertex 105
property float x
property float y
property float z
element face 76
property list uchar int vertex_index
end_header
-11.487615 41.542786 -35.49815
-10.439343 43.210075 -39.474957
-12.160514 39.632729 -31.681627
-11.056221 42.303848 -37.519855
-11.900513 39.956127 -37.527935
-13.296394 34.551006 -27.325846
-13.150291 35.645256 -29.339624
-12.922072 36.854191 -31.382977
-12.701741 37.820717 -33.564117
-11.857535 40.618622 -33.568779
-11.092814 43.566322 -33.79401
-11.694064 40.749457 -36.513042
-12.109057 39.47432 -36.583734
-11.902608 40.267649 -35.568842
-10.912353 42.009974 -39.495085
-11.220792 41.55686 -38.517534
-10.747782 42.756962 -38.497406
-10.580179 42.429254 -40.455922
-10.912353 42.009974 -39.495085
-12.947235 36.099812 -27.49411
-13.03832 35.589998 -26.601402
-12.874184 36.646937 -28.500999
-13.223342 35.098131 -28.332735
-12.947235 36.099812 -27.49411
-12.541293 38.24346 -31.532302
-12.652818 37.781622 -30.505001
-12.272039 39.170891 -30.654325
-10.984797 44.56159 -32.984251
-11.268773 43.10408 -32.878006
-10.780718 44.912216 -33.998474
-10.984797 44.56159 -32.984251
-10.879586 43.267461 -36.635511
-11.271918 41.923317 -36.509003
-11.095283 42.88693 -35.624659
-10.656227 43.533851 -37.598278
-10.879586 43.267461 -36.635511
-10.347787 43.986965 -38.575829
-10.747782 42.756962 -38.497406
-10.656227 43.533851 -37.598278
-11.944761 40.717802 -30.847222
-12.272039 39.170891 -30.654325
-11.58687 42.222357 -30.987409
-11.802623 41.137283 -31.821814
-11.944761 40.717802 -30.847222
-12.421625 38.682722 -37.579023
-12.109057 39.47432 -36.583734
-12.144263 39.245753 -38.602728
-12.421625 38.682722 -37.579023
-11.642938 40.382999 -38.521574
-11.478367 41.129987 -37.523895
-11.220792 41.55686 -38.517534
-12.144263 39.245753 -38.602728
-11.642938 40.382999 -38.521574
-10.030351 44.412584 -39.455702
-10.347787 43.986965 -38.575829
-10.094342 43.584536 -40.392598
-10.030351 44.412584 -39.455702
-10.235178 42.803715 -41.373562
-10.580179 42.429254 -40.455922
-10.094342 43.584536 -40.392598
-13.372635 33.96669 -26.387237
-13.03832 35.589998 -26.601402
-13.725691 32.97311 -27.2624
-13.372635 33.96669 -26.387237
-13.635108 33.670786 -28.223802
-13.725691 32.97311 -27.2624
-13.562057 34.217911 -29.230691
-13.635108 33.670786 -28.223802
-13.223342 35.098131 -28.332735
-13.499986 34.813704 -30.372857
-13.562057 34.217911 -29.230691
-12.766927 37.177155 -29.483324
-12.874184 36.646937 -28.500999
-13.036181 36.249724 -30.3613
-12.766927 37.177155 -29.483324
-12.652818 37.781622 -30.505001
-13.385877 35.418171 -31.394534
-13.499986 34.813704 -30.372857
-13.036181 36.249724 -30.3613
-13.273041 36.033696 -32.494772
-13.385877 35.418171 -31.394534
-13.162876 36.516959 -33.585342
-13.273041 36.033696 -32.494772
-12.811906 37.337454 -32.473547
-13.008896 37.092333 -34.574514
-13.162876 36.516959 -33.585342
-12.509671 38.406615 -34.601826
-13.008896 37.092333 -34.574514
-12.087568 39.805567 -34.604157
-12.509671 38.406615 -34.601826
-12.279638 39.21967 -33.566448
-11.672575 41.080704 -34.533465
-11.902608 40.267649 -35.568842
-12.087568 39.805567 -34.604157
-11.651133 41.63023 -32.76539
-12.009024 40.125675 -32.625203
-11.802623 41.137283 -31.821814
-11.475175 42.092472 -33.681394
-11.651133 41.63023 -32.76539
-11.268773 43.10408 -32.878006
-10.897883 43.898698 -34.772588
-11.095283 42.88693 -35.624659
-11.290215 42.554554 -34.64608
-10.897883 43.898698 -34.772588
-10.780718 44.912216 -33.998474
3 0 11 13
3 11 4 12
3 11 12 13
3 1 14 16
3 16 15 3
3 14 15 16
3 1 17 18
3 19 5 20
3 21 6 22
3 23 22 5
3 21 22 23
3 2 24 26
3 24 7 25
3 24 25 26
3 2 8 7
3 2 9 8
3 27 10 28
3 30 29 10
3 31 3 32
3 33 32 0
3 31 32 33
3 34 3 35
3 36 1 37
3 38 37 3
3 36 37 38
3 39 2 40
3 43 42 2
3 41 42 43
3 4 44 45
3 4 46 47
3 3 4 0
3 48 4 49
3 50 49 3
3 48 49 50
3 52 51 4
3 53 1 54
3 55 1 56
3 59 58 1
3 57 58 59
3 5 60 61
3 5 62 63
3 5 64 65
3 6 66 68
3 68 67 5
3 66 67 68
3 6 69 70
3 71 6 72
3 7 73 75
3 73 6 74
3 73 74 75
3 7 76 78
3 78 77 6
3 76 77 78
3 7 79 80
3 8 81 83
3 83 82 7
3 81 82 83
3 8 84 85
3 8 86 87
3 9 88 90
3 90 89 8
3 88 89 90
3 9 91 93
3 91 0 92
3 91 92 93
3 94 9 95
3 96 95 2
3 94 95 96
3 10 97 99
3 97 9 98
3 97 98 99
3 10 0 9
3 10 100 102
3 102 101 0
3 100 101 102
3 104 103 10
