ply
format ascii 1.0
element vertex 147
property float x
property float y
property float z
element face 127
property list uchar int vertex_index
end_header
-38.436253 -27.689528 12.107186
-38.888065 -27.122202 20.65299
-39.033596 -27.726284 16.483807
-38.794327 -31.710592 18.778147
-37.864346 -26.530298 24.575151
-38.058491 -31.188473 22.824379
-37.967056 -35.534634 20.753374
-36.233891 -28.438181 27.369995
-38.810333 -27.611383 14.270337
-38.94865 -29.659445 15.461941
-39.04834 -23.56502 16.091923
-38.480988 -27.037663 22.649084
-37.94487 -29.035078 23.840443
-38.526859 -29.260691 21.768925
-38.464905 -33.507599 19.820192
-39.066467 -27.432222 18.478931
-38.871777 -29.433189 19.659883
-38.989391 -29.787264 17.620953
-38.907505 -31.771839 16.578114
-36.948658 -26.406559 26.478876
-38.876781 -24.81563 21.510685
-39.117088 -25.107819 19.48085
-39.121532 -25.490145 17.340338
-38.906857 -25.669554 15.152436
-38.501541 -25.622202 13.015118
-37.24128 -28.543011 25.601276
-37.308609 -30.953743 24.914085
-37.420135 -33.089157 23.956648
-38.525227 -31.410936 20.838598
-38.039783 -33.31868 21.942509
-36.097796 -27.285649 27.704091
-35.622326 -28.327129 28.199348
-38.586792 -28.622226 12.699697
-38.773832 -28.583154 13.781273
-38.623293 -27.650455 13.188762
-38.409005 -28.59221 11.563454
-38.586792 -28.622226 12.699697
-38.883388 -31.687948 15.464359
-38.928078 -30.715642 16.020027
-38.903961 -30.631751 14.906273
-38.8545 -32.681621 15.951492
-38.883388 -31.687948 15.464359
-38.860487 -23.724386 21.842063
-38.64304 -24.771254 22.453355
-39.167867 -24.147788 18.821241
-39.136278 -24.035372 19.832311
-39.17009 -24.338951 17.750985
-39.11931 -25.298982 18.410594
-39.167867 -24.147788 18.821241
-38.787678 -24.640655 14.574323
-38.977598 -24.617287 15.62218
-38.858419 -23.588387 15.044066
-38.58502 -24.616979 13.505664
-38.704199 -25.645878 14.083777
-38.787678 -24.640655 14.574323
-37.68853 -35.44128 21.836717
-37.724894 -34.333303 22.431284
-38.003419 -34.426657 21.347942
-37.621943 -36.4956 21.306435
-37.68853 -35.44128 21.836717
-35.790486 -29.430175 27.848263
-35.622326 -28.327129 28.199348
-36.340659 -29.549228 27.012982
-35.790486 -29.430175 27.848263
-38.84299 -29.607185 14.377075
-38.879492 -28.635414 14.866139
-38.773832 -28.583154 13.781273
-38.903961 -30.631751 14.906273
-38.84299 -29.607185 14.377075
-39.128879 -22.381757 16.489783
-39.133494 -23.376389 17.126777
-38.952261 -22.548695 15.448211
-39.128879 -22.381757 16.489783
-38.858419 -23.588387 15.044066
-38.952261 -22.548695 15.448211
-38.585197 -33.638437 18.661945
-38.629616 -32.609095 19.299169
-38.749909 -32.739934 18.140923
-38.40097 -34.525875 19.237474
-38.585197 -33.638437 18.661945
-38.152046 -35.539392 19.704065
-38.215981 -34.521116 20.286783
-38.40097 -34.525875 19.237474
-37.864214 -36.547543 20.214346
-38.152046 -35.539392 19.704065
-38.806497 -32.770557 17.040906
-38.749909 -32.739934 18.140923
-38.850916 -31.741215 17.678131
-38.806497 -32.770557 17.040906
-38.8545 -32.681621 15.951492
-36.883105 -25.188904 26.716869
-36.455179 -26.269838 27.258532
-37.334505 -25.369804 25.852624
-36.883105 -25.188904 26.716869
-37.792349 -25.431673 24.900762
-37.406502 -26.468429 25.527014
-37.334505 -25.369804 25.852624
-38.136822 -25.628588 23.985588
-37.792349 -25.431673 24.900762
-38.445143 -25.88227 23.022554
-38.172667 -26.78398 23.612118
-38.136822 -25.628588 23.985588
-38.678885 -25.926646 22.079884
-38.445143 -25.88227 23.022554
-38.64304 -24.771254 22.453355
-39.016125 -23.889277 20.847229
-38.860487 -23.724386 21.842063
-38.996935 -24.961724 20.495767
-39.016125 -23.889277 20.847229
-39.136278 -24.035372 19.832311
-39.084936 -24.527583 16.71613
-39.17009 -24.338951 17.750985
-39.133494 -23.376389 17.126777
-36.591274 -27.42237 26.924436
-36.097796 -27.285649 27.704091
-36.455179 -26.269838 27.258532
-36.844353 -29.601644 26.128622
-36.340659 -29.549228 27.012982
-36.737586 -28.490596 26.485636
-36.878017 -30.807009 25.785027
-36.844353 -29.601644 26.128622
-37.274945 -29.748377 25.25768
-36.943439 -32.008986 25.377685
-36.878017 -30.807009 25.785027
-36.999203 -33.076693 24.898966
-36.943439 -32.008986 25.377685
-37.364372 -32.02145 24.435367
-37.056576 -34.155832 24.397281
-36.999203 -33.076693 24.898966
-37.41507 -34.218542 23.438353
-37.729959 -33.203919 22.949579
-37.724894 -34.333303 22.431284
-37.056576 -34.155832 24.397281
-37.41507 -34.218542 23.438353
-37.621943 -36.4956 21.306435
-37.864214 -36.547543 20.214346
-38.30539 -24.728592 12.473992
-38.58502 -24.616979 13.505664
-38.234062 -25.726658 11.967415
-38.30539 -24.728592 12.473992
-38.201418 -26.760321 11.513449
-38.468897 -26.655865 12.561152
-38.234062 -25.726658 11.967415
-38.178579 -27.575859 11.053618
-38.201418 -26.760321 11.513449
-38.409005 -28.59221 11.563454
-38.178579 -27.575859 11.053618
3 30 7 31
3 0 32 34
3 34 33 8
3 32 33 34
3 0 35 36
3 1 13 11
3 2 17 15
3 37 18 38
3 39 38 9
3 37 38 39
3 41 40 18
3 42 20 43
3 44 21 45
3 46 22 47
3 48 47 21
3 46 47 48
3 49 23 50
3 51 50 10
3 49 50 51
3 52 24 53
3 54 53 23
3 52 53 54
3 4 25 19
3 5 26 12
3 5 27 26
3 3 28 16
3 6 29 14
3 6 55 57
3 57 56 29
3 55 56 57
3 6 58 59
3 7 60 61
3 7 62 63
3 8 9 2
3 64 9 65
3 66 65 8
3 64 65 66
3 68 67 9
3 69 10 70
3 71 10 72
3 74 73 10
3 11 12 4
3 13 12 11
3 13 5 12
3 75 14 76
3 77 76 3
3 75 76 77
3 78 14 79
3 80 6 81
3 82 81 14
3 80 81 82
3 84 83 6
3 15 16 1
3 17 16 15
3 17 3 16
3 9 17 2
3 18 17 9
3 18 3 17
3 18 85 87
3 87 86 3
3 85 86 87
3 89 88 18
3 90 19 91
3 92 19 93
3 94 4 95
3 96 95 19
3 94 95 96
3 97 4 98
3 99 11 100
3 101 100 4
3 99 100 101
3 20 102 104
3 102 11 103
3 102 103 104
3 20 1 11
3 105 20 106
3 21 107 109
3 107 20 108
3 107 108 109
3 21 1 20
3 21 15 1
3 22 15 21
3 22 2 15
3 10 110 112
3 110 22 111
3 110 111 112
3 23 22 10
3 23 2 22
3 23 8 2
3 24 8 23
3 24 0 8
3 19 113 115
3 113 7 114
3 113 114 115
3 25 7 19
3 25 116 118
3 118 117 7
3 116 117 118
3 12 25 4
3 26 25 12
3 26 119 121
3 121 120 25
3 119 120 121
3 26 122 123
3 27 124 126
3 126 125 26
3 124 125 126
3 27 127 128
3 16 13 1
3 28 13 16
3 28 5 13
3 14 28 3
3 29 28 14
3 29 5 28
3 29 27 5
3 129 27 130
3 131 130 29
3 129 130 131
3 133 132 27
3 135 134 6
3 136 24 137
3 138 24 139
3 140 0 141
3 142 141 24
3 140 141 142
3 143 0 144
3 146 145 0
