ply
format ascii 1.0
element vertex 304
property float x
property float y
property float z
element face 266
property list uchar int vertex_index
end_header
-6.702529 82.978737 -47.172256
-20.012562 69.454704 -52.144062
-11.762963 71.395676 -51.023964
-25.850475 62.889072 -50.949558
-18.638378 76.660782 -51.205383
-15.996691 70.912514 -51.843071
-14.241638 77.431602 -50.645477
-1.573732 81.100571 -45.181126
-11.767893 83.697906 -48.662773
-3.438832 87.516159 -44.149368
1.554945 85.231987 -42.016834
-20.68285 62.491962 -52.508183
-17.41732 63.821037 -52.496895
-13.417173 64.719086 -52.013199
-9.468635 77.632179 -49.4104
-25.863533 71.487724 -50.358673
-23.079561 59.685081 -52.059589
-16.419544 77.287651 -50.970776
-1.012326 86.521942 -43.194019
-20.51082 65.98732 -52.372585
-19.204786 63.52113 -52.547768
-18.746387 66.951729 -52.365822
-13.913664 71.373062 -51.481392
-14.792461 67.752106 -51.988842
-12.589473 67.984802 -51.583038
-9.198647 83.295815 -48.014793
-10.562094 80.665657 -49.114197
-8.026448 80.185326 -48.384502
-27.162319 73.579201 -49.179077
-22.002832 64.836464 -52.242771
-26.836586 60.294838 -50.306664
-25.388365 58.749348 -51.084885
-24.00839 57.364517 -51.628372
-24.500025 61.359173 -51.584633
-19.454309 73.165588 -51.749004
-18.007521 70.331665 -52.066078
-17.39435 73.825668 -51.613766
-15.109642 74.331345 -51.293175
-12.894659 74.575089 -50.851902
-4.056903 82.121529 -46.228901
-5.575337 79.728851 -47.501678
-7.62882 86.061577 -46.584908
-5.116493 85.204361 -45.817356
-2.553651 84.332214 -44.827305
0.011444 83.368294 -43.630444
-19.387884 59.997948 -52.63105
-17.786699 60.42408 -52.627686
-15.93224 60.771633 -52.522594
-16.816013 67.202805 -52.257717
-15.50826 64.194756 -52.328018
-14.092633 61.208294 -52.322781
-12.106563 61.350842 -52.031597
-13.016424 80.621109 -49.753033
-11.855907 77.53775 -50.11554
-10.538908 74.371239 -50.290375
-27.253 69.452614 -49.720451
-26.008495 67.115936 -50.721592
-24.655886 69.056564 -51.210629
-24.613167 65.261009 -51.484943
-23.394396 63.319344 -51.967876
-21.971491 61.288757 -52.345383
-23.154848 53.490417 -51.631927
-11.118367 69.676491 -51.058543
-11.531623 67.971054 -51.338079
-12.176218 69.690239 -51.303501
-20.902229 68.941647 -52.097692
-20.634341 70.859996 -51.934382
-20.261691 67.721012 -52.258324
-21.151359 67.207954 -52.211954
-20.902229 68.941647 -52.097692
-2.355908 80.032387 -45.845425
-3.597494 80.542866 -46.369312
-2.815317 81.61105 -45.705013
-19.718131 76.422275 -51.190624
-19.217559 78.112164 -50.884401
-19.046343 74.913185 -51.477193
-20.126096 74.674678 -51.462435
-19.718131 76.422275 -51.190624
-8.241421 87.602124 -46.204077
-8.918738 86.255691 -46.961401
-4.782102 87.918518 -44.625763
-3.996252 88.993972 -43.757563
-4.277662 86.36026 -44.983362
-5.620933 86.762619 -45.459757
-4.782102 87.918518 -44.625763
1.943526 83.633137 -42.231896
1.171775 82.70129 -43.0387
0.783195 84.30014 -42.823639
-20.035367 61.244955 -52.569617
-20.040827 59.627673 -52.588527
-20.688309 60.874679 -52.527094
-12.392159 82.159508 -49.207903
-13.616524 82.128815 -49.476382
-12.992259 83.667213 -48.931252
-6.255375 78.321999 -48.069866
-5.055782 78.010166 -47.609707
-23.96973 68.112187 -51.517724
-23.854186 69.991894 -51.37266
-23.948371 66.214409 -51.654881
-24.634526 67.158786 -51.347786
-23.96973 68.112187 -51.517724
-23.338985 65.243577 -51.896347
-24.003782 64.290177 -51.72641
-23.948371 66.214409 -51.654881
-20.688309 60.874679 -52.527094
-21.33263 60.273077 -52.445694
-21.327171 61.89036 -52.426783
-23.899085 53.953863 -51.371164
-23.385248 51.914433 -51.361959
-22.78119 57.788747 -52.057924
-23.245604 56.628466 -51.842315
-23.543976 58.524799 -51.843981
-22.40763 58.817284 -52.208323
-22.78119 57.788747 -52.057924
-17.061736 78.694469 -50.721327
-17.528961 76.974216 -51.088079
-18.171153 78.381035 -50.83863
-15.92984 78.937629 -50.573422
-17.061736 78.694469 -50.721327
-14.840887 79.009605 -50.410772
-15.330591 77.359626 -50.808127
-15.92984 78.937629 -50.573422
-1.188352 79.465553 -45.312494
-0.429794 80.560486 -44.609871
-18.171153 78.381035 -50.83863
-19.217559 78.112164 -50.884401
-2.650569 88.549804 -43.246447
-3.996252 88.993972 -43.757563
-1.437315 88.052696 -42.768772
-2.225579 87.01905 -43.671694
-2.650569 88.549804 -43.246447
-0.222298 87.353843 -42.337919
-1.437315 88.052696 -42.768772
1.061338 86.708866 -41.749327
0.271309 85.876964 -42.605427
-0.222298 87.353843 -42.337919
-11.91149 66.173439 -51.605406
-12.32534 64.540581 -51.820486
-13.003323 66.351944 -51.798119
-11.91149 66.173439 -51.605406
-11.531623 67.971054 -51.338079
-26.947034 75.694588 -48.853004
-27.672337 74.469468 -48.542688
-26.385368 74.586827 -49.483175
-26.947034 75.694588 -48.853004
-25.735976 73.541088 -50.072973
-26.512926 72.533462 -49.768875
-26.385368 74.586827 -49.483175
-21.897365 66.632527 -52.147047
-22.643203 66.002137 -52.033794
-21.256826 65.411892 -52.307678
-21.897365 66.632527 -52.147047
-21.151359 67.207954 -52.211954
-26.487165 58.10968 -50.382737
-27.25144 58.945144 -49.932058
-25.763055 57.336935 -50.771847
-26.487165 58.10968 -50.382737
-26.112476 59.522093 -50.695774
-25.015844 56.583329 -51.097643
-25.763055 57.336935 -50.771847
-24.698377 58.056933 -51.356628
-24.325856 55.890913 -51.369387
-25.015844 56.583329 -51.097643
-4.356711 79.346527 -47.005701
-4.81612 80.92519 -46.86529
-3.597494 80.542866 -46.369312
-5.055782 78.010166 -47.609707
-4.356711 79.346527 -47.005701
-2.355908 80.032387 -45.845425
-1.188352 79.465553 -45.312494
-20.355214 72.715439 -51.736852
-20.126096 74.674678 -51.462435
-19.733435 71.310146 -51.946533
-20.634341 70.859996 -51.934382
-20.355214 72.715439 -51.736852
-27.556814 61.165251 -49.785075
-27.25144 58.945144 -49.932058
-26.991795 62.535347 -50.210545
-27.556814 61.165251 -49.785075
-26.498739 63.832464 -50.531992
-26.34353 61.591955 -50.628111
-26.991795 62.535347 -50.210545
-12.353977 85.189857 -48.307876
-12.992259 83.667213 -48.931252
-10.988274 85.073856 -48.000333
-12.353977 85.189857 -48.307876
-9.703651 84.87281 -47.676344
-10.48327 83.49686 -48.338783
-10.988274 85.073856 -48.000333
-8.413733 84.678696 -47.29985
-9.703651 84.87281 -47.676344
-8.918738 86.255691 -46.961401
-6.877097 87.191227 -45.843533
-8.241421 87.602124 -46.204077
-6.372656 85.632969 -46.201132
-6.877097 87.191227 -45.843533
-5.620933 86.762619 -45.459757
0.362794 81.694348 -43.83453
-0.429794 80.560486 -44.609871
-0.781144 82.234432 -44.405785
0.362794 81.694348 -43.83453
1.171775 82.70129 -43.0387
-19.457952 58.428505 -52.619639
-20.040827 59.627673 -52.588527
-18.721075 58.519058 -52.644568
-19.457952 58.428505 -52.619639
-17.920482 58.732124 -52.642885
-18.721075 58.519058 -52.644568
-18.587291 60.211014 -52.629368
-17.125211 58.961687 -52.628622
-17.920482 58.732124 -52.642885
-16.197981 59.135464 -52.576076
-17.125211 58.961687 -52.628622
-16.859469 60.597856 -52.57514
-15.246457 59.143416 -52.518863
-16.197981 59.135464 -52.576076
-14.326653 59.361746 -52.418957
-15.246457 59.143416 -52.518863
-15.012436 60.989964 -52.422687
-13.398243 59.642612 -52.315505
-14.326653 59.361746 -52.418957
-12.405209 59.713887 -52.169912
-13.398243 59.642612 -52.315505
-13.099598 61.279568 -52.177189
-11.45477 59.739981 -52.034567
-12.405209 59.713887 -52.169912
-11.670036 62.856459 -51.829685
-12.761868 63.034964 -52.022398
-12.32534 64.540581 -51.820486
-11.096726 61.29089 -51.843935
-11.670036 62.856459 -51.829685
-11.45477 59.739981 -52.034567
-11.096726 61.29089 -51.843935
-14.22828 80.604359 -49.96455
-13.616524 82.128815 -49.476382
-13.629031 79.026355 -50.199255
-14.840887 79.009605 -50.410772
-14.22828 80.604359 -49.96455
-7.480931 78.550236 -48.511278
-6.800892 79.957088 -47.94309
-6.255375 78.321999 -48.069866
-8.202025 77.273663 -49.024227
-8.747542 78.908752 -48.897451
-7.480931 78.550236 -48.511278
-8.878709 75.927887 -49.506388
-8.202025 77.273663 -49.024227
-9.413846 74.297417 -49.946375
-10.003771 76.001709 -49.850387
-8.878709 75.927887 -49.506388
-9.97413 72.704971 -50.357151
-9.413846 74.297417 -49.946375
-10.586157 71.21719 -50.723945
-11.150935 72.883457 -50.657169
-9.97413 72.704971 -50.357151
-11.118367 69.676491 -51.058543
-10.586157 71.21719 -50.723945
2.336977 86.025448 -41.132734
1.061338 86.708866 -41.749327
2.760789 84.543678 -41.35673
2.336977 86.025448 -41.132734
1.943526 83.633137 -42.231896
2.760789 84.543678 -41.35673
-27.79341 72.31044 -48.85613
-27.672337 74.469468 -48.542688
-27.83875 70.247146 -49.126818
-27.79341 72.31044 -48.85613
-27.207659 71.515907 -49.449764
-27.828995 68.063969 -49.370472
-27.83875 70.247146 -49.126818
-27.200001 67.114235 -49.917439
-27.828995 68.063969 -49.370472
-26.577749 65.945896 -50.418009
-27.200001 67.114235 -49.917439
-26.630747 68.284275 -50.221021
-25.929485 65.002504 -50.835575
-26.498739 63.832464 -50.531992
-26.577749 65.945896 -50.418009
-25.09203 72.371338 -50.585514
-25.735976 73.541088 -50.072973
-24.488206 71.155757 -51.011492
-23.854186 69.991894 -51.37266
-25.259709 70.272144 -50.784651
-25.09203 72.371338 -50.585514
-24.488206 71.155757 -51.011492
-22.698614 64.077904 -52.105323
-23.338985 65.243577 -51.896347
-22.643203 66.002137 -52.033794
-21.853595 59.619121 -52.351219
-22.40763 58.817284 -52.208323
-22.525526 60.486919 -52.202486
-21.853595 59.619121 -52.351219
-21.33263 60.273077 -52.445694
-22.595735 51.465919 -51.596036
-23.385248 51.914433 -51.361959
-22.366022 52.79751 -51.807865
-22.595735 51.465919 -51.596036
-23.581619 55.427467 -51.63015
-23.899085 53.953863 -51.371164
-24.325856 55.890913 -51.369387
-22.818834 54.691416 -51.844093
-23.581619 55.427467 -51.63015
-23.245604 56.628466 -51.842315
-22.366022 52.79751 -51.807865
-22.818834 54.691416 -51.844093
3 1 21 19
3 2 24 22
3 2 62 64
3 64 63 24
3 62 63 64
3 0 27 25
3 1 65 66
3 1 67 69
3 67 19 68
3 67 68 69
3 3 31 30
3 3 33 31
3 4 36 34
3 6 37 17
3 6 38 37
3 7 70 72
3 72 71 39
3 70 71 72
3 4 73 74
3 4 75 77
3 75 34 76
3 75 76 77
3 78 41 79
3 9 80 81
3 9 82 84
3 82 42 83
3 82 83 84
3 9 43 42
3 10 44 18
3 10 85 87
3 87 86 44
3 85 86 87
3 11 88 90
3 88 45 89
3 88 89 90
3 12 46 20
3 12 47 46
3 5 48 35
3 13 49 23
3 13 50 49
3 13 51 50
3 8 91 93
3 91 52 92
3 91 92 93
3 14 53 26
3 14 54 53
3 95 94 40
3 15 55 28
3 15 56 55
3 96 57 97
3 98 58 99
3 100 99 57
3 98 99 100
3 101 59 102
3 103 102 58
3 101 102 103
3 11 60 29
3 11 104 106
3 106 105 60
3 104 105 106
3 107 61 108
3 16 109 111
3 111 110 32
3 109 110 111
3 16 112 113
3 114 17 115
3 116 115 4
3 114 115 116
3 117 17 118
3 119 6 120
3 121 120 17
3 119 120 121
3 123 122 7
3 124 4 125
3 126 9 127
3 128 18 129
3 130 129 9
3 128 129 130
3 131 18 132
3 133 10 134
3 135 134 18
3 133 134 135
3 19 20 11
3 21 20 19
3 21 12 20
3 22 23 5
3 24 23 22
3 24 13 23
3 24 136 138
3 138 137 13
3 136 137 138
3 140 139 24
3 25 26 8
3 27 26 25
3 27 14 26
3 141 28 142
3 143 28 144
3 145 15 146
3 147 146 28
3 145 146 147
3 148 29 149
3 19 150 152
3 150 29 151
3 150 151 152
3 19 11 29
3 30 153 154
3 31 155 157
3 157 156 30
3 155 156 157
3 31 158 159
3 31 160 162
3 160 32 161
3 160 161 162
3 33 32 31
3 33 16 32
3 34 35 1
3 36 35 34
3 36 5 35
3 17 36 4
3 37 36 17
3 37 5 36
3 37 22 5
3 38 22 37
3 38 2 22
3 39 40 0
3 163 40 164
3 165 164 39
3 163 164 165
3 167 166 40
3 169 168 7
3 34 170 171
3 34 172 174
3 172 1 173
3 172 173 174
3 175 30 176
3 177 30 178
3 179 3 180
3 181 180 30
3 179 180 181
3 182 8 183
3 184 8 185
3 186 25 187
3 188 187 8
3 186 187 188
3 41 189 191
3 189 25 190
3 189 190 191
3 41 0 25
3 192 41 193
3 42 194 196
3 194 41 195
3 194 195 196
3 42 0 41
3 42 39 0
3 43 39 42
3 43 7 39
3 18 43 9
3 44 43 18
3 44 7 43
3 44 197 199
3 199 198 7
3 197 198 199
3 201 200 44
3 45 202 203
3 45 204 205
3 20 45 11
3 46 45 20
3 46 206 208
3 208 207 45
3 206 207 208
3 46 209 210
3 47 211 213
3 213 212 46
3 211 212 213
3 47 214 215
3 35 21 1
3 48 21 35
3 48 12 21
3 23 48 5
3 49 48 23
3 49 12 48
3 49 47 12
3 50 47 49
3 50 216 218
3 218 217 47
3 216 217 218
3 50 219 220
3 51 221 223
3 223 222 50
3 221 222 223
3 51 224 225
3 226 51 227
3 228 227 13
3 226 227 228
3 229 51 230
3 232 231 51
3 52 233 234
3 52 235 237
3 235 6 236
3 235 236 237
3 26 52 8
3 53 52 26
3 53 6 52
3 53 38 6
3 54 38 53
3 54 2 38
3 40 27 0
3 238 27 239
3 240 239 40
3 238 239 240
3 241 14 242
3 243 242 27
3 241 242 243
3 244 14 245
3 246 54 247
3 248 247 14
3 246 247 248
3 249 54 250
3 251 2 252
3 253 252 54
3 251 252 253
3 255 254 2
3 256 10 257
3 258 10 259
3 261 260 10
3 28 262 263
3 55 264 266
3 266 265 28
3 264 265 266
3 55 267 268
3 55 269 270
3 56 271 273
3 273 272 55
3 271 272 273
3 56 274 276
3 274 3 275
3 274 275 276
3 277 15 278
3 57 279 280
3 57 281 283
3 281 15 282
3 281 282 283
3 57 56 15
3 58 56 57
3 58 3 56
3 58 33 3
3 59 33 58
3 59 16 33
3 29 284 286
3 284 59 285
3 284 285 286
3 60 59 29
3 60 16 59
3 60 287 289
3 289 288 16
3 287 288 289
3 291 290 60
3 61 292 293
3 61 294 295
3 32 296 298
3 296 61 297
3 296 297 298
3 299 61 300
3 301 300 32
3 299 300 301
3 303 302 61
