ply
format ascii 1.0
element vertex 465
property float x
property float y
property float z
element face 476
property list uchar int vertex_index
end_header
-5.021052 -33.927101 -44.134991
-14.461926 -37.684673 -31.60664
0.5548 -5.926605 -56.475021
6.733288 -21.913244 -57.417297
0.692506 6.22479 -60.777744
0.38532 -28.850594 -50.804909
-9.805895 -36.817955 -37.712406
-5.337533 -24.225563 -43.484829
-1.063585 -19.281502 -50.507858
3.276666 -12.904658 -58.049446
-7.698593 -41.340847 -41.149689
-4.828001 -39.383305 -44.439568
-1.714025 -37.096523 -47.613861
-2.378853 -31.628777 -47.489765
-7.734025 -26.126661 -40.218906
-1.829467 -15.735155 -49.787899
0.018994 -12.405716 -53.646061
1.010359 -16.184998 -54.27874
1.822868 -9.245955 -57.461948
5.09691 -30.57962 -53.699284
0.772224 0.269692 -58.9641
1.570055 -34.047184 -50.684971
3.416296 -25.558735 -54.17783
-7.408796 -35.598553 -40.959377
-12.419728 -32.357655 -34.255943
-9.778469 -31.729252 -37.428913
-7.402918 -30.551376 -40.555077
-5.095305 -28.862911 -43.810589
-3.150345 -22.178856 -46.874313
-2.741199 -26.643578 -47.294666
-0.313185 -23.653267 -50.944824
2.110324 -20.65889 -54.440292
4.820261 -17.243498 -57.919807
5.750049 -9.19916 -61.632618
-6.363271 -37.759575 -42.57954
-6.305643 -40.581055 -42.797871
-4.982109 -36.600807 -44.26125
-3.586921 -35.580498 -45.891552
-3.727951 -32.854588 -45.798321
-13.271041 -37.643181 -33.109188
-0.015407 -4.694543 -55.878014
-0.187276 -7.91672 -54.538074
-0.496717 -10.981037 -53.115528
0.418395 -9.149856 -55.229706
0.903224 -11.004333 -55.503853
1.20045 -7.611361 -57.026817
5.924092 -26.152817 -55.529606
6.920376 -28.525734 -55.208832
7.669884 -24.310488 -56.989151
0.785864 3.281712 -60.006958
1.565351 2.026477 -60.917099
1.537877 5.146084 -61.881367
-2.776134 -44.15942 -45.93425
-0.568431 -32.889679 -49.21014
-0.108983 -35.705635 -49.13435
0.971148 -31.293394 -50.835293
2.553969 -29.582937 -52.443626
1.894538 -27.229998 -52.526093
-8.691544 -38.927059 -39.553383
-8.608869 -36.270897 -39.339989
-11.090792 -32.299232 -35.805538
-10.086149 -29.43528 -37.148087
-6.506559 -25.276848 -41.836567
-7.478789 -28.212496 -40.424713
-6.295749 -27.279675 -42.038826
-6.297534 -29.814312 -42.087658
-5.201573 -26.502409 -43.607555
-1.477997 -17.583488 -50.072868
-2.454705 -19.042572 -48.278233
-2.140401 -20.919077 -48.58535
-2.90076 -24.261385 -47.154205
-1.784299 -22.756624 -48.974686
-1.544715 -25.140055 -49.096497
-0.687689 -21.315855 -50.789398
2.104189 -14.575431 -56.173569
1.487695 -18.462677 -54.328495
2.724533 -16.728132 -56.225857
3.439029 -19.156656 -56.151154
3.994829 -15.186477 -57.963272
6.617887 -11.627822 -61.270111
1.510337 8.154598 -62.701817
1.445093 11.017087 -63.275806
-7.834178 -44.455067 -41.217522
-6.249998 -43.432846 -42.926018
-4.734184 -42.61866 -44.441265
-3.085865 -41.418121 -45.978622
-3.351477 -38.434525 -45.984768
-2.123996 -34.419418 -47.523533
-1.040462 -30.320833 -49.117676
-5.703093 -22.284168 -43.184803
-1.377998 -12.684284 -51.175453
-0.899588 -14.219607 -51.647255
-0.480963 -15.855569 -52.032215
-0.047427 -17.916796 -52.328354
0.498485 -14.361269 -53.961105
1.474319 -12.67296 -55.895691
2.475217 -10.87838 -57.806614
4.105123 -34.789661 -51.997036
0.013434 -1.643433 -56.97023
0.746679 -2.78056 -57.868763
1.387166 -4.405021 -58.402397
1.477161 -1.032351 -59.718678
2.356532 0.976919 -61.804794
-1.313932 -39.925663 -47.551521
0.330239 -38.432556 -48.95723
2.220126 -36.747993 -50.483742
3.319237 -32.153351 -52.267712
4.274629 -27.901854 -54.049484
4.993495 -23.817327 -55.781727
-9.018455 -42.021435 -39.499084
-7.593148 -38.433243 -41.005962
-6.199083 -34.804794 -42.581364
-14.655306 -35.192177 -31.49086
-13.32722 -35.126633 -33.051865
-12.131828 -34.964134 -34.501732
-10.962366 -34.786701 -35.972473
-9.77703 -34.288868 -37.512875
-8.68283 -28.859293 -38.867172
-8.517778 -31.086393 -39.054737
-8.602911 -33.759052 -39.087196
-7.353154 -33.072819 -40.792984
-6.247518 -32.245003 -42.315331
-5.051833 -31.228228 -43.973289
-3.434168 -20.203009 -46.609863
-4.228986 -23.34951 -45.141541
-4.074644 -25.454817 -45.30817
-3.875439 -27.66745 -45.605007
-3.864786 -30.350607 -45.628448
-2.595378 -29.043751 -47.385132
-1.291693 -27.587633 -49.169716
0.023568 -26.220226 -50.917969
0.441343 -19.838053 -52.652508
0.874867 -22.144991 -52.70406
1.340593 -24.798794 -52.602962
2.711498 -23.288736 -54.272991
4.232501 -21.392334 -56.069374
5.702363 -19.705376 -57.63929
3.578204 -9.159481 -59.692738
4.749162 -7.263549 -61.558277
4.426479 -11.031843 -59.842384
5.309532 -13.267262 -59.73978
6.282584 -15.681278 -59.488796
7.269623 -17.940706 -59.176003
-14.364539 -38.996488 -31.756147
-14.930559 -38.949981 -30.994515
-13.866484 -37.663927 -32.357914
-13.769096 -38.975742 -32.507421
-14.364539 -38.996488 -31.756147
7.576853 -21.002759 -58.147892
8.045151 -22.201381 -57.933819
7.201586 -23.111866 -57.203224
0.34895 5.33483 -59.90354
0.289694 6.810075 -60.257562
0.739185 4.753251 -60.392351
0.395629 3.863291 -59.518147
0.34895 5.33483 -59.90354
-3.677645 -44.892691 -45.170643
-3.564414 -46.42295 -45.137892
-9.878678 -38.160345 -37.78746
-10.444156 -38.354578 -37.009949
-9.207382 -36.544426 -38.526198
-9.280165 -37.886816 -38.601252
-9.878678 -38.160345 -37.78746
-10.318545 -28.381441 -37.012211
-10.773888 -29.669425 -36.35035
1.009356 11.552181 -62.659687
1.035736 10.037097 -62.366035
-7.766386 -42.897957 -41.183605
-8.512431 -44.794962 -40.425829
-8.444639 -43.237852 -40.391913
-5.902607 -21.327234 -43.093159
-6.308406 -22.793339 -42.365019
-1.185746 -11.082828 -51.925258
-1.597908 -11.804775 -51.046888
5.555236 -31.865823 -53.531568
5.059342 -33.970844 -52.680445
4.601017 -32.684641 -52.84816
7.375006 -29.93862 -54.934954
7.848705 -27.678663 -55.870785
0.392829 -0.68687 -57.967165
0.035703 -0.081791 -57.549074
0.415099 0.874772 -58.546009
2.378248 2.563238 -62.365442
1.960942 1.501698 -61.360946
1.982657 3.088017 -61.921594
2.811731 1.822815 -62.725664
2.378248 2.563238 -62.365442
1.948364 7.668134 -63.257858
1.978479 9.183619 -63.68204
-9.588188 -42.262125 -38.753454
-9.728001 -43.889725 -38.793909
-14.816529 -33.924504 -31.448457
-15.290478 -35.05806 -30.775067
-13.06821 -32.558821 -33.51334
-12.635459 -31.191139 -34.149997
-12.873474 -33.742144 -33.653904
-13.521956 -33.94331 -32.911301
-13.06821 -32.558821 -33.51334
-8.208427 -27.492977 -39.543039
-8.896828 -27.861194 -38.695351
-8.422425 -26.494878 -39.371218
-2.282278 -16.31877 -48.963946
-2.041435 -14.80876 -49.636566
1.743276 -5.07083 -58.727457
1.801744 -3.350821 -59.421188
3.730044 -7.309745 -60.541865
3.218946 -8.248499 -59.603896
5.249605 -8.231355 -61.595447
5.347674 -6.468993 -62.365864
5.848117 -7.436798 -62.403034
7.030559 -14.713325 -60.284619
6.450235 -13.65455 -60.379453
7.198211 -12.686597 -61.175276
7.524078 -15.843038 -60.128222
6.776103 -16.810992 -59.3324
7.030559 -14.713325 -60.284619
8.053085 -17.072655 -59.878098
7.524078 -15.843038 -60.128222
-13.24764 -38.963617 -33.22024
-13.769096 -38.975742 -32.507421
-12.69752 -37.568663 -33.852961
-13.24764 -38.963617 -33.22024
-0.401477 -5.519509 -54.936331
-0.362041 -4.091874 -55.482811
-0.487411 -7.130597 -54.266361
-0.401477 -5.519509 -54.936331
-0.101342 -6.305632 -55.208044
-0.590385 -8.699046 -53.606569
-0.487411 -7.130597 -54.266361
-0.341997 -9.448878 -53.826801
-0.745105 -10.231204 -52.895296
-0.590385 -8.699046 -53.606569
8.22346 -25.571039 -56.760945
7.848705 -27.678663 -55.870785
7.29513 -26.418111 -56.098991
8.530532 -23.415163 -57.659762
8.22346 -25.571039 -56.760945
8.530532 -23.415163 -57.659762
8.045151 -22.201381 -57.933819
0.421918 2.380782 -59.067438
0.395629 3.863291 -59.518147
0.779044 1.775702 -59.485529
0.415099 0.874772 -58.546009
0.421918 2.380782 -59.067438
1.96892 4.647821 -62.403728
1.982657 3.088017 -61.921594
1.551614 3.58628 -61.399233
-2.56626 -45.626442 -45.896475
-3.564414 -46.42295 -45.137892
-1.843321 -43.491924 -46.663
-2.56626 -45.626442 -45.896475
-9.321502 -39.214897 -38.707949
-9.424732 -40.714937 -38.780603
-8.650206 -37.598978 -39.446686
-9.321502 -39.214897 -38.707949
-9.280165 -37.886816 -38.601252
-11.940678 -31.130612 -34.904278
-12.635459 -31.191139 -34.149997
-11.27621 -31.101401 -35.679075
-11.75526 -32.328444 -35.030741
-11.940678 -31.130612 -34.904278
-10.58847 -30.867256 -36.476812
-11.27621 -31.101401 -35.679075
-10.773888 -29.669425 -36.35035
6.400921 -8.482917 -62.360016
5.848117 -7.436798 -62.403034
6.834841 -9.697249 -62.178763
6.183968 -10.413491 -61.451364
6.400921 -8.482917 -62.360016
7.412951 -10.800297 -62.047731
6.834841 -9.697249 -62.178763
7.198211 -12.686597 -61.175276
7.412951 -10.800297 -62.047731
0.659442 7.640949 -61.117004
0.289694 6.810075 -60.257562
1.068358 8.605853 -62.07904
1.101422 7.189694 -61.73978
0.659442 7.640949 -61.117004
1.477715 9.585843 -62.988811
1.068358 8.605853 -62.07904
1.035736 10.037097 -62.366035
1.945857 10.614864 -63.969034
1.978479 9.183619 -63.68204
1.477715 9.585843 -62.988811
1.428216 12.484133 -63.494259
1.009356 11.552181 -62.659687
1.885125 11.995296 -64.133581
1.428216 12.484133 -63.494259
1.945857 10.614864 -63.969034
1.885125 11.995296 -64.133581
-8.541291 -46.284117 -40.526024
-8.512431 -44.794962 -40.425829
-7.812673 -45.926424 -41.309357
-8.541291 -46.284117 -40.526024
-7.020583 -45.415313 -42.163605
-7.812673 -45.926424 -41.309357
-7.042088 -43.943956 -42.07177
-6.263676 -44.982267 -42.906433
-7.020583 -45.415313 -42.163605
-5.505769 -44.575175 -43.664057
-6.263676 -44.982267 -42.906433
-5.492091 -43.025753 -43.683642
-4.65667 -44.12231 -44.42415
-5.505769 -44.575175 -43.664057
-3.910025 -42.01839 -45.209944
-3.832511 -43.522041 -45.192829
-4.65667 -44.12231 -44.42415
-10.376054 -37.015857 -36.939056
-10.444156 -38.354578 -37.009949
-7.98554 -25.158029 -40.051209
-8.422425 -26.494878 -39.371218
-7.323872 -24.714585 -40.88207
-7.98554 -25.158029 -40.051209
-6.710139 -24.289679 -41.690901
-7.120292 -25.701754 -41.027737
-7.323872 -24.714585 -40.88207
-6.104826 -23.780508 -42.510685
-6.710139 -24.289679 -41.690901
-6.308406 -22.793339 -42.365019
-1.815701 -13.283325 -50.330343
-1.597908 -11.804775 -51.046888
-1.603733 -14.20972 -50.481676
-2.041435 -14.80876 -49.636566
-1.815701 -13.283325 -50.330343
-0.937358 -11.83266 -52.14549
-1.185746 -11.082828 -51.925258
-0.745105 -10.231204 -52.895296
4.547441 -36.251844 -51.818022
3.581126 -37.021997 -51.175843
4.547441 -36.251844 -51.818022
5.059342 -33.970844 -52.680445
6.466969 -30.83888 -54.286343
5.555236 -31.865823 -53.531568
6.008643 -29.552677 -54.454058
6.466969 -30.83888 -54.286343
7.375006 -29.93862 -54.934954
-15.027936 -37.655939 -30.907636
-14.930559 -38.949981 -30.994515
-0.339691 -0.987804 -56.59293
0.035703 -0.081791 -57.549074
-0.347621 -2.566319 -56.028919
-0.339691 -0.987804 -56.59293
-0.000987 -3.168988 -56.424122
-0.362041 -4.091874 -55.482811
-0.347621 -2.566319 -56.028919
1.846741 -1.664486 -60.079329
1.801744 -3.350821 -59.421188
1.432163 -2.718686 -59.060537
2.286427 -0.659851 -61.122387
1.846741 -1.664486 -60.079329
1.916847 -0.027716 -60.761736
2.75291 0.256906 -62.098163
2.286427 -0.659851 -61.122387
2.75291 0.256906 -62.098163
2.811731 1.822815 -62.725664
1.962134 6.163877 -62.847634
1.524107 6.650341 -62.291592
1.948364 7.668134 -63.257858
1.96892 4.647821 -62.403728
1.962134 6.163877 -62.847634
-2.930999 -42.78877 -45.956436
-3.677645 -44.892691 -45.170643
-3.832511 -43.522041 -45.192829
-1.11222 -41.375046 -47.471636
-1.843321 -43.491924 -46.663
-2.045033 -42.042541 -46.742885
-0.290134 -40.628493 -48.17449
-1.11222 -41.375046 -47.471636
-0.491847 -39.179109 -48.254376
0.683538 -39.77713 -48.916626
-0.290134 -40.628493 -48.17449
1.628481 -38.934849 -49.679882
0.683538 -39.77713 -48.916626
1.275183 -37.590274 -49.720486
2.638628 -38.001163 -50.419196
1.628481 -38.934849 -49.679882
3.162624 -35.768827 -51.240389
3.581126 -37.021997 -51.175843
2.638628 -38.001163 -50.419196
-9.10457 -43.578146 -39.56661
-9.728001 -43.889725 -38.793909
-8.358524 -41.681141 -40.324387
-8.444639 -43.237852 -40.391913
-9.10457 -43.578146 -39.56661
-8.854999 -40.474247 -39.526234
-9.588188 -42.262125 -38.753454
-9.424732 -40.714937 -38.780603
-15.124626 -36.409691 -30.849746
-15.290478 -35.05806 -30.775067
-14.558616 -36.438425 -31.54875
-15.027936 -37.655939 -30.907636
-15.124626 -36.409691 -30.849746
-14.185999 -33.976082 -32.130798
-14.816529 -33.924504 -31.448457
-13.991263 -35.159405 -32.271363
-14.185999 -33.976082 -32.130798
-13.521956 -33.94331 -32.911301
-12.127914 -36.229139 -34.549233
-12.69752 -37.568663 -33.852961
-12.701435 -36.303657 -33.80546
-11.543183 -36.140422 -35.284603
-12.127914 -36.229139 -34.549233
-11.547097 -34.875417 -35.237102
-10.95429 -36.000231 -36.06909
-11.543183 -36.140422 -35.284603
-10.361622 -35.751314 -36.839291
-10.95429 -36.000231 -36.06909
-10.369698 -34.537785 -36.742674
-9.791462 -35.553411 -37.61264
-10.376054 -37.015857 -36.939056
-10.361622 -35.751314 -36.839291
-9.598488 -28.149188 -37.835808
-10.318545 -28.381441 -37.012211
-9.38449 -29.147286 -38.007629
-9.598488 -28.149188 -37.835808
-8.896828 -27.861194 -38.695351
-5.309206 -20.942797 -43.895323
-5.902607 -21.327234 -43.093159
-5.095464 -21.810665 -44.061014
-5.309206 -20.942797 -43.895323
-4.912684 -22.781363 -44.211027
-5.520313 -23.254866 -43.334816
-5.095464 -21.810665 -44.061014
-2.594898 -17.972478 -48.209113
-2.282278 -16.31877 -48.963946
-2.142086 -17.388863 -49.033066
-3.084629 -18.552697 -47.374927
-2.594898 -17.972478 -48.209113
-2.944437 -19.622791 -47.444048
-3.6074 -19.275283 -46.481878
-3.084629 -18.552697 -47.374927
-3.961002 -20.770086 -45.773544
-3.6074 -19.275283 -46.481878
-4.35841 -22.343336 -45.039383
-3.961002 -20.770086 -45.773544
-3.831577 -21.77626 -45.875702
-4.783259 -23.787537 -44.313185
-4.912684 -22.781363 -44.211027
-4.35841 -22.343336 -45.039383
1.649919 -6.674001 -58.039667
1.293808 -6.008191 -57.714607
1.743276 -5.07083 -58.727457
1.961127 -7.491297 -58.257233
1.511659 -8.428658 -57.244383
1.649919 -6.674001 -58.039667
2.341278 -8.291736 -58.488501
1.961127 -7.491297 -58.257233
2.667452 -9.107948 -58.660834
2.149042 -10.062168 -57.634281
2.341278 -8.291736 -58.488501
3.026711 -10.01893 -58.749676
2.667452 -9.107948 -58.660834
3.218946 -8.248499 -59.603896
4.881096 -5.525494 -62.3515
5.347674 -6.468993 -62.365864
4.315523 -6.361779 -61.474634
4.881096 -5.525494 -62.3515
4.163683 -8.211515 -60.625507
3.730044 -7.309745 -60.541865
4.315523 -6.361779 -61.474634
7.84502 -19.01649 -59.027245
7.576853 -21.002759 -58.147892
7.001456 -19.926975 -58.29665
7.84502 -19.01649 -59.027245
8.053085 -17.072655 -59.878098
3 0 36 34
3 0 38 36
3 1 143 144
3 1 145 147
3 145 39 146
3 145 146 147
3 2 41 40
3 2 43 41
3 2 45 43
3 3 48 46
3 3 148 150
3 150 149 48
3 148 149 150
3 4 151 152
3 4 153 155
3 153 49 154
3 153 154 155
3 4 51 49
3 156 52 157
3 5 55 53
3 5 57 55
3 6 158 159
3 6 160 162
3 160 59 161
3 160 161 162
3 163 61 164
3 7 64 62
3 7 66 64
3 8 69 67
3 8 71 69
3 8 73 71
3 9 76 74
3 9 78 76
3 165 81 166
3 10 167 169
3 167 82 168
3 167 168 169
3 11 83 35
3 11 84 83
3 11 86 84
3 13 87 37
3 13 88 87
3 170 89 171
3 172 90 173
3 16 91 42
3 16 92 91
3 16 94 92
3 18 95 44
3 18 96 95
3 19 174 176
3 176 175 97
3 174 175 176
3 178 177 47
3 20 179 181
3 179 98 180
3 179 180 181
3 20 99 98
3 20 101 99
3 182 102 183
3 184 183 50
3 182 183 184
3 186 185 102
3 188 187 80
3 12 103 85
3 21 104 54
3 21 105 104
3 21 106 105
3 22 107 56
3 22 108 107
3 189 109 190
3 23 110 58
3 23 111 110
3 191 112 192
3 24 193 194
3 24 195 197
3 195 113 196
3 195 196 197
3 24 114 113
3 25 115 60
3 25 116 115
3 14 198 200
3 198 117 199
3 198 199 200
3 26 118 63
3 26 119 118
3 26 120 119
3 27 121 65
3 27 122 121
3 15 201 202
3 28 123 68
3 28 124 123
3 28 125 124
3 29 126 70
3 29 127 126
3 29 128 127
3 30 129 72
3 30 130 129
3 17 131 93
3 31 132 75
3 31 133 132
3 31 134 133
3 32 135 77
3 32 136 135
3 204 203 100
3 205 137 206
3 33 207 209
3 207 138 208
3 207 208 209
3 33 139 138
3 33 140 139
3 210 141 211
3 212 211 79
3 210 211 212
3 213 142 214
3 215 214 141
3 213 214 215
3 217 216 142
3 34 35 10
3 36 35 34
3 36 11 35
3 36 37 11
3 38 37 36
3 38 13 37
3 39 218 219
3 39 220 221
3 40 222 223
3 41 224 226
3 226 225 40
3 224 225 226
3 41 227 228
3 41 229 231
3 229 42 230
3 229 230 231
3 43 42 41
3 43 16 42
3 43 44 16
3 45 44 43
3 45 18 44
3 46 47 19
3 48 47 46
3 48 232 234
3 234 233 47
3 232 233 234
3 48 235 236
3 238 237 48
3 49 239 240
3 49 241 243
3 241 20 242
3 241 242 243
3 49 50 20
3 51 50 49
3 51 244 246
3 246 245 50
3 244 245 246
3 52 247 248
3 52 249 250
3 53 54 12
3 55 54 53
3 55 21 54
3 55 56 21
3 57 56 55
3 57 22 56
3 251 58 252
3 59 253 255
3 253 58 254
3 253 254 255
3 59 23 58
3 256 24 257
3 258 60 259
3 260 259 24
3 258 259 260
3 61 261 263
3 261 60 262
3 261 262 263
3 61 25 60
3 62 63 14
3 64 63 62
3 64 26 63
3 64 65 26
3 66 65 64
3 66 27 65
3 67 68 15
3 69 68 67
3 69 28 68
3 69 70 28
3 71 70 69
3 71 29 70
3 71 72 29
3 73 72 71
3 73 30 72
3 74 75 17
3 76 75 74
3 76 31 75
3 76 77 31
3 78 77 76
3 78 32 77
3 264 33 265
3 266 79 267
3 268 267 33
3 266 267 268
3 269 79 270
3 272 271 79
3 273 4 274
3 275 80 276
3 277 276 4
3 275 276 277
3 81 278 280
3 278 80 279
3 278 279 280
3 81 281 283
3 283 282 80
3 281 282 283
3 284 81 285
3 286 81 287
3 289 288 81
3 82 290 291
3 82 292 293
3 35 82 10
3 83 82 35
3 83 294 296
3 296 295 82
3 294 295 296
3 83 297 298
3 84 299 301
3 301 300 83
3 299 300 301
3 84 302 303
3 84 304 306
3 304 85 305
3 304 305 306
3 86 85 84
3 86 12 85
3 37 86 11
3 87 86 37
3 87 12 86
3 87 53 12
3 88 53 87
3 88 5 53
3 307 6 308
3 309 14 310
3 311 14 312
3 313 62 314
3 315 314 14
3 313 314 315
3 89 316 318
3 316 62 317
3 316 317 318
3 89 7 62
3 90 319 320
3 90 321 323
3 321 15 322
3 321 322 323
3 42 324 326
3 324 90 325
3 324 325 326
3 91 90 42
3 91 15 90
3 91 67 15
3 92 67 91
3 92 8 67
3 92 93 8
3 94 93 92
3 94 17 93
3 44 94 16
3 95 94 44
3 95 17 94
3 95 74 17
3 96 74 95
3 96 9 74
3 97 327 328
3 330 329 97
3 47 331 333
3 333 332 19
3 331 332 333
3 335 334 47
3 336 1 337
3 98 338 339
3 98 340 341
3 98 342 344
3 342 40 343
3 342 343 344
3 99 40 98
3 99 2 40
3 99 100 2
3 101 100 99
3 101 345 347
3 347 346 100
3 345 346 347
3 50 101 20
3 102 101 50
3 102 348 350
3 350 349 101
3 348 349 350
3 102 351 352
3 354 353 102
3 80 51 4
3 355 51 356
3 357 356 80
3 355 356 357
3 359 358 51
3 85 360 362
3 360 52 361
3 360 361 362
3 103 52 85
3 103 363 365
3 365 364 52
3 363 364 365
3 54 103 12
3 104 103 54
3 104 366 368
3 368 367 103
3 366 367 368
3 104 369 370
3 105 371 373
3 373 372 104
3 371 372 373
3 105 374 375
3 105 376 378
3 376 97 377
3 376 377 378
3 106 97 105
3 106 19 97
3 56 106 21
3 107 106 56
3 107 19 106
3 107 46 19
3 108 46 107
3 108 3 46
3 109 379 380
3 109 381 383
3 381 10 382
3 381 382 383
3 58 384 386
3 384 109 385
3 384 385 386
3 110 109 58
3 110 10 109
3 110 34 10
3 111 34 110
3 111 0 34
3 112 387 388
3 112 389 391
3 389 1 390
3 389 390 391
3 392 112 393
3 113 394 396
3 394 112 395
3 394 395 396
3 113 1 112
3 113 39 1
3 114 39 113
3 114 397 399
3 399 398 39
3 397 398 399
3 60 114 24
3 115 114 60
3 115 400 402
3 402 401 114
3 400 401 402
3 115 403 404
3 116 405 407
3 407 406 115
3 405 406 407
3 116 408 410
3 408 6 409
3 408 409 410
3 411 61 412
3 117 413 415
3 413 61 414
3 413 414 415
3 117 25 61
3 63 117 14
3 118 117 63
3 118 25 117
3 118 116 25
3 119 116 118
3 119 6 116
3 119 59 6
3 120 59 119
3 120 23 59
3 65 120 26
3 121 120 65
3 121 23 120
3 121 111 23
3 122 111 121
3 122 0 111
3 416 89 417
3 418 89 419
3 420 7 421
3 422 421 89
3 420 421 422
3 68 423 425
3 425 424 15
3 423 424 425
3 123 426 428
3 428 427 68
3 426 427 428
3 123 429 430
3 123 431 432
3 124 433 435
3 435 434 123
3 433 434 435
3 124 436 438
3 436 7 437
3 436 437 438
3 124 66 7
3 125 66 124
3 125 27 66
3 70 125 28
3 126 125 70
3 126 27 125
3 126 122 27
3 127 122 126
3 127 0 122
3 127 38 0
3 128 38 127
3 128 13 38
3 72 128 29
3 129 128 72
3 129 13 128
3 129 88 13
3 130 88 129
3 130 5 88
3 93 73 8
3 131 73 93
3 131 30 73
3 75 131 17
3 132 131 75
3 132 30 131
3 132 130 30
3 133 130 132
3 133 5 130
3 133 57 5
3 134 57 133
3 134 22 57
3 77 134 31
3 135 134 77
3 135 22 134
3 135 108 22
3 136 108 135
3 136 3 108
3 100 45 2
3 439 45 440
3 441 440 100
3 439 440 441
3 442 18 443
3 444 443 45
3 442 443 444
3 445 18 446
3 447 96 448
3 449 448 18
3 447 448 449
3 137 450 452
3 450 96 451
3 450 451 452
3 137 9 96
3 138 453 454
3 138 455 456
3 138 457 459
3 457 137 458
3 457 458 459
3 139 137 138
3 139 9 137
3 139 78 9
3 140 78 139
3 140 32 78
3 79 140 33
3 141 140 79
3 141 32 140
3 141 136 32
3 142 136 141
3 142 3 136
3 142 460 462
3 462 461 3
3 460 461 462
3 464 463 142
