ply
format ascii 1.0
element vertex 69
property float x
property float y
property float z
element face 55
property list uchar int vertex_index
end_header
-10.101385 106.223206 -25.129707
-12.246848 107.284279 -19.295313
-15.270865 107.01149 -25.316885
-10.98574 106.855499 -22.183645
-13.617695 107.342049 -22.288857
-12.627364 106.754204 -25.308369
-8.767202 105.202621 -27.80497
-11.428704 105.827972 -28.185436
-14.062482 106.258865 -28.092289
-9.601955 106.580948 -19.296072
-8.488485 106.081032 -22.373625
-7.260579 105.316849 -24.831129
-9.485098 104.924243 -29.277598
-8.06769 104.532768 -29.083348
-13.512588 107.466152 -19.301329
-12.793831 107.343593 -17.683248
-15.709399 107.250282 -23.75115
-14.882814 107.415562 -22.237136
-14.44428 107.17677 -23.802871
-16.410872 106.989441 -25.112032
-15.709399 107.250282 -23.75115
-13.552968 105.719879 -29.483745
-12.745593 106.043419 -28.138863
-12.236079 105.504433 -29.530318
-8.372535 106.126747 -19.2517
-8.94229 106.270897 -17.703249
-7.8158 105.876789 -20.790476
-9.04522 106.33099 -20.834848
-8.372535 106.126747 -19.2517
-5.885153 104.734436 -24.684454
-6.524273 105.16967 -23.409131
-6.606129 104.77166 -26.124193
-5.885153 104.734436 -24.684454
-10.815849 105.236919 -29.467831
-10.097953 105.515297 -27.995203
-9.485098 104.924243 -29.277598
-12.236079 105.504433 -29.530318
-10.815849 105.236919 -29.467831
-14.198011 107.495037 -20.798101
-13.512588 107.466152 -19.301329
-12.932271 107.313164 -20.792085
-14.198011 107.495037 -20.798101
-14.882814 107.415562 -22.237136
-14.801025 105.813209 -29.481025
-13.552968 105.719879 -29.483745
-15.309679 106.265106 -28.123652
-14.801025 105.813209 -29.481025
-15.913871 106.641419 -26.735951
-14.666673 106.635177 -26.704587
-15.309679 106.265106 -28.123652
-16.410872 106.989441 -25.112032
-15.913871 106.641419 -26.735951
-11.572984 107.069603 -17.783978
-12.793831 107.343593 -17.683248
-10.250538 106.717938 -17.784358
-8.94229 106.270897 -17.703249
-10.924402 106.932614 -19.295693
-11.572984 107.069603 -17.783978
-10.250538 106.717938 -17.784358
-7.138226 105.551761 -22.180379
-7.8158 105.876789 -20.790476
-7.874532 105.69894 -23.602377
-7.138226 105.551761 -22.180379
-6.524273 105.16967 -23.409131
-7.35944 104.714546 -27.611114
-8.01389 105.259735 -26.31805
-6.606129 104.77166 -26.124193
-8.06769 104.532768 -29.083348
-7.35944 104.714546 -27.611114
3 0 5 3
3 13 12 6
3 1 14 15
3 2 16 18
3 18 17 4
3 16 17 18
3 2 19 20
3 21 8 22
3 23 22 7
3 21 22 23
3 24 9 25
3 26 10 27
3 28 27 9
3 26 27 28
3 29 11 30
3 32 31 11
3 3 4 1
3 5 4 3
3 5 2 4
3 6 7 0
3 33 7 34
3 35 34 6
3 33 34 35
3 37 36 7
3 4 38 40
3 40 39 1
3 38 39 40
3 42 41 4
3 7 5 0
3 8 5 7
3 8 2 5
3 43 8 44
3 45 8 46
3 47 2 48
3 49 48 8
3 47 48 49
3 51 50 2
3 52 1 53
3 9 54 55
3 9 56 58
3 56 1 57
3 56 57 58
3 9 3 1
3 10 3 9
3 10 0 3
3 59 10 60
3 11 61 63
3 61 10 62
3 61 62 63
3 11 0 10
3 11 6 0
3 64 6 65
3 66 65 11
3 64 65 66
3 68 67 6
