ply
format ascii 1.0
element vertex 257
property float x
property float y
property float z
element face 247
property list uchar int vertex_index
end_header
5.284311 -63.261143 -42.738468
-2.374292 -65.592621 -45.792557
-3.60207 -49.729492 -48.395729
2.803171 -47.152935 -45.388348
-6.781259 -65.37056 -46.860241
-7.210773 -57.835186 -48.236122
4.000534 -55.181374 -43.922779
-7.596438 -42.351303 -51.507252
-4.120605 -41.74136 -50.164047
-7.471737 -34.704556 -53.489567
1.789033 -64.980858 -44.320984
0.615734 -56.685314 -45.567657
-3.047069 -57.825245 -46.971611
-7.676212 -49.933796 -49.852737
-0.235076 -48.601665 -46.975304
5.79713 -67.195511 -42.30468
6.889623 -62.222946 -41.857174
6.08135 -58.24662 -42.497791
4.610614 -59.388432 -43.298958
-9.501333 -38.589851 -53.173077
-7.715682 -38.388531 -52.560455
-9.30738 -34.803902 -54.193569
-9.043592 -31.335777 -55.170906
2.212024 -68.793121 -43.858849
-0.218069 -65.318939 -45.091198
-0.825509 -61.315094 -45.719376
-2.788043 -61.6273 -46.394554
-9.472733 -53.914165 -49.492229
-7.463145 -53.843575 -49.023716
-9.630426 -49.951298 -50.38229
-9.657154 -46.075939 -51.289444
4.737559 -50.149864 -43.826588
5.923331 -49.056782 -43.030109
-1.617856 -53.342098 -46.987194
0.150432 -52.655785 -46.237511
-1.917423 -49.201855 -47.723881
-2.412089 -41.393795 -49.382904
-8.282699 -24.007294 -57.426285
-4.40976 -69.274391 -45.808556
-4.524995 -65.826317 -46.346069
-4.761484 -61.883659 -46.963612
-7.070065 -61.655396 -47.549168
5.480403 -54.257038 -43.079388
3.339926 -51.178654 -44.645798
-5.726311 -46.193874 -49.924606
-4.021502 -45.531746 -49.334194
-5.877804 -42.027924 -50.890232
-6.000678 -38.075043 -51.915955
-5.822442 -34.385689 -52.840714
-7.36434 -31.027212 -54.566246
-8.661219 -27.641798 -56.262844
4.048013 -67.947609 -43.123352
3.546649 -63.962856 -43.591965
2.891646 -60.128643 -44.161541
1.186299 -61.042957 -44.903793
-1.16364 -57.328369 -46.30019
-3.508082 -53.624573 -47.743881
-5.180735 -57.659626 -47.708118
-5.352994 -53.984669 -48.355747
-5.622126 -50.166546 -49.115814
-7.689856 -46.148842 -50.66507
-9.616334 -42.317627 -52.212742
2.522916 -56.273613 -44.648689
1.799828 -52.060284 -45.44521
1.335036 -48.027939 -46.187626
-2.157278 -45.446445 -48.467297
-0.571574 -44.62833 -47.777279
0.942492 -44.173409 -46.95948
6.349576 -64.669001 -42.092479
6.605985 -66.636185 -41.875585
5.54072 -65.228327 -42.521574
6.086967 -62.742044 -42.297821
7.152232 -64.149902 -41.651832
6.349576 -64.669001 -42.092479
-10.254217 -34.745167 -54.535957
-9.404357 -36.696877 -53.683323
-10.351194 -36.638142 -54.025711
-10.10124 -32.899485 -55.079611
-10.254217 -34.745167 -54.535957
-1.074318 -67.38675 -45.182118
-2.228552 -67.490464 -45.526717
-1.29618 -65.45578 -45.441878
0.003793 -67.249909 -44.831438
-1.074318 -67.38675 -45.182118
-10.637609 -50.120776 -50.549532
-9.551579 -51.932732 -49.937259
-10.558763 -52.102209 -50.104501
-10.684275 -48.03837 -51.081305
-10.637609 -50.120776 -50.549532
3.45009 -46.66248 -44.987227
4.417285 -48.160944 -44.206347
3.770365 -48.651399 -44.607468
2.484589 -45.091352 -45.849225
3.45009 -46.66248 -44.987227
-8.025247 -22.336484 -57.963552
-8.751594 -22.339773 -58.280634
-5.59551 -67.322475 -46.334399
-5.600688 -69.070755 -46.013943
-6.786437 -67.11884 -46.539786
-9.504242 -27.526504 -56.63369
-8.852405 -29.488788 -55.716875
-9.695429 -29.373493 -56.087721
-9.282989 -25.741368 -57.210611
-9.504242 -27.526504 -56.63369
-10.635006 -42.290491 -52.504104
-9.636744 -44.196783 -51.751093
-10.655416 -44.169647 -52.042456
-10.514108 -40.450075 -52.992145
-10.635006 -42.290491 -52.504104
6.439348 -48.395083 -42.628933
5.531003 -46.972383 -43.447945
-0.733394 -42.669119 -48.22274
-1.491831 -43.011062 -48.580092
-1.653651 -41.051851 -49.025553
0.023639 -42.441659 -47.81384
0.185459 -44.400869 -47.36838
-0.733394 -42.669119 -48.22274
0.683326 -42.119175 -47.456963
0.023639 -42.441659 -47.81384
-7.980808 -65.251507 -47.01376
-6.786437 -67.11884 -46.539786
-7.98296 -63.554867 -47.367328
-7.980808 -65.251507 -47.01376
6.974637 -68.69315 -41.622032
6.144575 -69.158752 -42.053625
6.974637 -68.69315 -41.622032
6.605985 -66.636185 -41.875585
7.961057 -63.811988 -41.152741
7.152232 -64.149902 -41.651832
7.561451 -61.750185 -41.442452
7.961057 -63.811988 -41.152741
6.485487 -60.234783 -42.177482
7.157314 -59.762022 -41.76276
7.561451 -61.750185 -41.442452
-9.969346 -31.165422 -55.568279
-9.175486 -33.06984 -54.682237
-10.10124 -32.899485 -55.079611
-9.695429 -29.373493 -56.087721
-9.969346 -31.165422 -55.568279
1.21884 -68.986999 -44.215263
2.455343 -70.639381 -43.629817
0.996977 -67.05603 -44.475023
1.21884 -68.986999 -44.215263
0.003793 -67.249909 -44.831438
-10.697639 -46.100691 -51.534881
-9.64379 -48.013618 -50.835867
-10.684275 -48.03837 -51.081305
-10.655416 -44.169647 -52.042456
-10.697639 -46.100691 -51.534881
5.330445 -49.603323 -43.428348
6.339344 -51.168459 -42.640303
5.746458 -51.715 -43.038542
5.010171 -47.614403 -43.808107
5.330445 -49.603323 -43.428348
4.417285 -48.160944 -44.206347
5.531003 -46.972383 -43.447945
5.010171 -47.614403 -43.808107
-3.333534 -39.636972 -50.261042
-3.266347 -41.567577 -49.773476
-4.187792 -39.810755 -50.651613
-2.547982 -39.365339 -49.907106
-3.333534 -39.636972 -50.261042
-1.653651 -41.051851 -49.025553
-2.547982 -39.365339 -49.907106
-7.481908 -23.930312 -57.076334
-7.667057 -25.682792 -56.534722
-7.481908 -23.930312 -57.076334
-8.025247 -22.336484 -57.963552
-4.244338 -71.019977 -45.496756
-5.435266 -70.816341 -45.702143
-5.600688 -69.070755 -46.013943
-3.073385 -71.175846 -45.259045
-4.244338 -71.019977 -45.496756
-3.246286 -69.331348 -45.534716
-3.073385 -71.175846 -45.259045
-3.303903 -67.607312 -45.803472
-3.246286 -69.331348 -45.534716
-4.467377 -67.550354 -46.077313
-3.449643 -65.709469 -46.069313
-2.228552 -67.490464 -45.526717
-3.303903 -67.607312 -45.803472
-8.127363 -61.697285 -47.711792
-6.925662 -63.512978 -47.204705
-7.98296 -63.554867 -47.367328
-8.275888 -59.697466 -48.131153
-8.127363 -61.697285 -47.711792
-8.346242 -57.787361 -48.474631
-7.140419 -59.745291 -47.892645
-8.275888 -59.697466 -48.131153
-9.477222 -55.82685 -49.102684
-8.341753 -55.874675 -48.864176
-8.346242 -57.787361 -48.474631
-10.574692 -53.945583 -49.667099
-9.477222 -55.82685 -49.102684
-10.558763 -52.102209 -50.104501
-10.574692 -53.945583 -49.667099
6.802286 -57.782808 -42.045292
7.157314 -59.762022 -41.76276
6.501813 -55.788017 -42.33609
6.802286 -57.782808 -42.045292
5.780876 -56.251829 -42.78859
6.11788 -53.768587 -42.664942
6.501813 -55.788017 -42.33609
5.108981 -52.203451 -43.452988
5.746458 -51.715 -43.038542
6.11788 -53.768587 -42.664942
-5.127828 -37.977597 -51.527567
-4.187792 -39.810755 -50.651613
-5.060642 -39.908202 -51.040001
-5.03871 -36.132919 -51.989947
-5.127828 -37.977597 -51.527567
-5.91156 -36.230366 -52.378334
-5.043379 -34.174803 -52.505723
-5.03871 -36.132919 -51.989947
-5.755562 -32.663795 -53.318533
-5.043379 -34.174803 -52.505723
-6.526511 -30.984557 -54.181299
-5.755562 -32.663795 -53.318533
-6.593391 -32.706451 -53.70348
-7.207878 -29.192751 -55.104702
-6.526511 -30.984557 -54.181299
-7.856317 -27.500044 -55.953001
-7.207878 -29.192751 -55.104702
-8.01278 -29.334505 -55.414545
-8.471959 -25.824546 -56.844565
-7.667057 -25.682792 -56.534722
-7.856317 -27.500044 -55.953001
-9.093729 -23.924115 -57.792332
-8.471959 -25.824546 -56.844565
-9.282989 -25.741368 -57.210611
-9.562625 -22.256595 -58.646681
-8.751594 -22.339773 -58.280634
-9.093729 -23.924115 -57.792332
3.372873 -70.265232 -43.277986
2.455343 -70.639381 -43.629817
4.290868 -69.842476 -42.910238
3.372873 -70.265232 -43.277986
3.130019 -68.370365 -43.491101
5.270017 -69.534802 -42.462961
4.290868 -69.842476 -42.910238
4.922572 -67.57156 -42.714016
6.144575 -69.158752 -42.053625
5.270017 -69.534802 -42.462961
-10.456608 -38.586187 -53.472313
-9.558834 -40.453739 -52.692909
-10.514108 -40.450075 -52.992145
-10.351194 -36.638142 -54.025711
-10.456608 -38.586187 -53.472313
6.83326 -50.370873 -42.276329
6.339344 -51.168459 -42.640303
6.83326 -50.370873 -42.276329
6.439348 -48.395083 -42.628933
1.55425 -43.60159 -46.634791
2.484589 -45.091352 -45.849225
1.872831 -45.663172 -46.173914
1.55425 -43.60159 -46.634791
0.683326 -42.119175 -47.456963
3 0 68 70
3 70 69 15
3 68 69 70
3 0 71 73
3 71 16 72
3 71 72 73
3 0 18 16
3 74 21 75
3 76 75 19
3 74 75 76
3 78 77 21
3 1 79 80
3 1 81 83
3 81 24 82
3 81 82 83
3 1 26 24
3 84 29 85
3 86 85 27
3 84 85 86
3 88 87 29
3 3 89 91
3 91 90 31
3 89 90 91
3 3 92 93
3 2 35 33
3 95 94 37
3 4 96 98
3 96 38 97
3 96 97 98
3 4 39 38
3 4 41 39
3 6 42 17
3 6 43 42
3 7 46 44
3 9 47 20
3 9 48 47
3 9 49 48
3 99 50 100
3 101 100 22
3 99 100 101
3 103 102 50
3 10 51 23
3 10 52 51
3 10 54 52
3 12 55 25
3 12 56 55
3 5 57 40
3 13 58 28
3 13 59 58
3 13 60 59
3 104 61 105
3 106 105 30
3 104 105 106
3 108 107 61
3 110 109 32
3 11 62 53
3 14 63 34
3 14 64 63
3 8 65 45
3 111 66 112
3 113 112 36
3 111 112 113
3 114 67 115
3 116 115 66
3 114 115 116
3 118 117 67
3 119 4 120
3 122 121 4
3 15 123 124
3 126 125 15
3 16 127 128
3 16 129 130
3 16 131 133
3 131 17 132
3 131 132 133
3 18 17 16
3 18 6 17
3 19 20 7
3 21 20 19
3 21 9 20
3 21 22 9
3 134 22 135
3 136 135 21
3 134 135 136
3 138 137 22
3 139 23 140
3 24 141 143
3 141 23 142
3 141 142 143
3 24 10 23
3 24 25 10
3 26 25 24
3 26 12 25
3 27 28 5
3 29 28 27
3 29 13 28
3 29 30 13
3 144 30 145
3 146 145 29
3 144 145 146
3 148 147 30
3 31 149 151
3 149 32 150
3 149 150 151
3 152 32 153
3 154 153 31
3 152 153 154
3 156 155 32
3 33 34 11
3 35 34 33
3 35 14 34
3 157 36 158
3 159 158 8
3 157 158 159
3 160 36 161
3 163 162 36
3 37 164 165
3 167 166 37
3 38 168 170
3 168 169 170
3 38 171 172
3 38 173 174
3 39 175 177
3 177 176 38
3 175 176 177
3 39 178 180
3 178 1 179
3 178 179 180
3 39 40 1
3 41 40 39
3 41 5 40
3 181 41 182
3 183 182 4
3 181 182 183
3 184 41 185
3 186 5 187
3 188 187 41
3 186 187 188
3 189 27 190
3 191 190 5
3 189 190 191
3 192 27 193
3 195 194 27
3 17 196 197
3 42 198 200
3 200 199 17
3 198 199 200
3 42 201 202
3 42 203 205
3 203 31 204
3 203 204 205
3 43 31 42
3 43 3 31
3 44 45 2
3 46 45 44
3 46 8 45
3 20 46 7
3 47 46 20
3 47 8 46
3 47 206 208
3 208 207 8
3 206 207 208
3 48 209 211
3 211 210 47
3 209 210 211
3 48 212 213
3 48 214 215
3 49 216 218
3 218 217 48
3 216 217 218
3 49 219 220
3 22 49 9
3 50 49 22
3 50 221 223
3 223 222 49
3 221 222 223
3 50 224 226
3 224 37 225
3 224 225 226
3 227 37 228
3 229 228 50
3 227 228 229
3 232 231 37
3 230 231 232
3 23 233 234
3 51 235 237
3 237 236 23
3 235 236 237
3 51 238 239
3 51 240 242
3 240 15 241
3 240 241 242
3 52 15 51
3 52 0 15
3 52 53 0
3 54 53 52
3 54 11 53
3 25 54 10
3 55 54 25
3 55 11 54
3 55 33 11
3 56 33 55
3 56 2 33
3 40 26 1
3 57 26 40
3 57 12 26
3 28 57 5
3 58 57 28
3 58 12 57
3 58 56 12
3 59 56 58
3 59 2 56
3 59 44 2
3 60 44 59
3 60 7 44
3 30 60 13
3 61 60 30
3 61 7 60
3 61 19 7
3 243 19 244
3 245 244 61
3 243 244 245
3 247 246 19
3 32 248 249
3 251 250 32
3 53 18 0
3 62 18 53
3 62 6 18
3 34 62 11
3 63 62 34
3 63 6 62
3 63 43 6
3 64 43 63
3 64 3 43
3 45 35 2
3 65 35 45
3 65 14 35
3 36 65 8
3 66 65 36
3 66 14 65
3 66 64 14
3 67 64 66
3 67 3 64
3 67 252 254
3 254 253 3
3 252 253 254
3 256 255 67
