ply
format ascii 1.0
element vertex 862
property float x
property float y
property float z
element face 911
property list uchar int vertex_index
end_header
-34.18716 77.499817 -25.796505
-14.250804 107.228745 -12.825541
-28.191431 98.320961 -8.323021
-24.928791 99.192078 -35.163021
-30.611696 69.632652 -46.147949
-22.337431 46.181484 -51.025429
-28.983591 92.385872 5.847461
-24.744482 100.748764 3.208625
-19.8785 106.40094 -24.944153
-36.351521 60.144604 -31.192137
-33.795647 56.244007 -41.198788
-33.341354 75.063507 -37.426144
-31.234392 86.993767 -4.567086
-22.576712 105.612068 -11.253939
-27.055216 100.734612 -22.803242
-30.697407 90.228012 -31.624605
-28.706581 86.888481 -42.093388
-28.943462 50.868393 -47.705826
-21.577196 52.104603 -51.983803
-19.109072 44.969933 -51.817654
-25.563309 97.100342 10.454553
-35.457634 69.480873 -28.675949
-34.917202 68.163582 -34.550934
-33.97094 76.510277 -31.939093
-34.785595 68.031776 -2.786148
-28.665834 95.588631 -1.127128
-30.087791 90.252747 0.399149
-29.891226 93.225853 -6.740716
-31.247177 89.223572 -11.676188
-29.761171 94.916649 -13.747066
-16.114195 106.123756 -6.081548
-20.218864 105.556961 -5.037243
-18.753176 107.126221 -12.092445
-22.590214 103.598114 -30.169764
-23.940172 104.269562 -23.868807
-26.190983 100.515488 -29.119143
-28.902172 96.306625 -27.53759
-28.199165 95.342072 -33.6035
-29.904785 89.053482 -37.215813
-26.991142 93.517403 -39.120998
-32.42952 63.566265 -43.809952
-31.657909 53.53941 -44.877621
-30.280018 60.490906 -47.194698
-27.666294 57.595451 -49.557453
-28.404991 66.675323 -49.020493
-22.991539 39.44389 -49.630043
-19.286303 38.206821 -50.896542
-29.365961 87.95974 12.797784
-27.787085 93.076195 11.759596
-27.211994 97.097832 4.632442
-26.553703 100.285049 -2.684009
-17.111832 107.651215 -18.909557
-17.907278 105.147476 -30.911139
-35.321484 58.492195 -36.699036
-34.001522 65.843948 -39.480652
-32.269669 72.866165 -42.119499
-34.187653 77.497581 -19.48634
-32.538803 82.57341 -9.055329
-23.72164 103.60833 -3.925313
-25.819763 102.556076 -9.871043
-21.396233 106.527 -18.196274
-24.996895 103.887115 -17.172585
-27.634859 100.13266 -15.615764
-32.598289 84.309639 -28.890684
-32.133373 83.3592 -34.851295
-31.384478 81.168968 -40.056366
-30.016071 78.717819 -44.45285
-27.206093 83.300789 -46.130955
-28.182354 75.359734 -47.9063
-32.640152 45.786072 -42.243858
-29.77965 43.362221 -45.494568
-26.397219 40.976101 -47.930923
-25.895142 48.411285 -49.641113
-24.643322 54.417309 -51.110401
-34.890678 73.986931 -24.34586
-35.543648 70.065887 -25.655914
-34.841473 73.665375 -27.369709
-34.686474 73.313156 -30.445654
-34.133194 77.048347 -28.853537
-28.383247 97.200294 -4.716271
-29.271254 94.541412 -3.85189
-29.122097 95.839363 -7.546119
-29.841146 94.161324 -10.336623
-28.9489 96.910995 -11.244501
-15.295194 106.829514 -9.582942
-17.462738 106.821983 -9.129094
-16.491907 107.391235 -12.767406
-23.777267 101.570938 -32.816078
-24.47732 102.228279 -29.776485
-25.623453 100.024551 -32.15765
-27.228264 98.114716 -31.419777
-26.630388 97.501846 -34.455513
-27.635059 94.608315 -36.446823
-25.975426 96.5373 -37.254829
-31.577841 66.644127 -45.045513
-31.404972 61.827423 -45.670513
-30.552885 65.232376 -46.748466
-29.485106 63.615936 -48.097626
-29.551622 68.24826 -47.719936
-22.704422 42.891777 -50.36858
-21.12929 38.579838 -50.291779
-20.901556 41.871861 -50.904037
-25.172318 99.071533 6.727467
-26.478279 97.246078 7.410267
-26.070211 99.01741 4.08745
-26.867069 98.80883 1.07082
-25.630264 100.750397 0.26828
-15.539567 105.367554 -30.869761
-16.923794 104.087448 -33.514896
-19.380089 103.700714 -33.331123
-35.905712 59.553169 -33.968266
-34.151325 71.680458 -36.113361
-34.518795 66.985619 -37.162266
-33.681412 70.661423 -38.744751
-33.156902 69.159531 -41.030712
-32.859203 74.029388 -39.906822
-34.61676 73.200821 -11.259274
-34.784767 73.469559 -14.453613
-34.888248 73.727974 -17.778685
-29.192106 90.32399 9.150364
-29.762899 87.61422 10.062943
-29.676168 89.560593 6.567805
-30.68117 88.58683 -2.089137
-30.65638 87.240173 1.490965
-31.864925 84.913979 -6.835826
-31.944111 86.792412 -13.786769
-21.512331 105.723122 -8.086608
-22.036242 104.812248 -4.733977
-23.301147 104.657318 -7.729038
-24.792921 103.325935 -7.138597
-24.30595 104.279129 -10.759935
-18.592743 107.213753 -22.065153
-19.350254 107.267334 -18.802067
-20.687073 106.62429 -21.447056
-25.628262 102.612305 -23.419018
-24.487991 104.205803 -20.620895
-26.103565 102.432358 -19.919018
-26.456966 102.081276 -16.579311
-29.850863 93.454826 -29.419441
-31.665115 87.548599 -30.278858
-32.454483 83.789116 -31.878056
-31.489246 86.859924 -33.18557
-29.418186 87.949234 -39.762043
-30.698605 85.154221 -38.842518
-30.142876 84.170174 -41.155159
-30.755745 80.010902 -42.406883
-29.452816 82.9328 -43.336586
-26.166262 81.65609 -47.712025
-27.828863 79.51149 -47.026817
-26.731749 77.809975 -48.526932
-34.353283 52.212273 -39.777328
-33.359783 51.035824 -41.765717
-30.303427 52.015213 -46.454716
-30.843588 48.212837 -45.219345
-29.411924 47.13538 -46.625824
-28.156557 42.225521 -46.811428
-27.788309 45.887436 -47.85984
-26.118477 44.713097 -48.863369
-27.439455 49.706005 -48.791588
-26.137745 55.924522 -50.458809
-22.036623 49.441422 -51.560146
-20.702631 45.310886 -51.448853
-23.822733 100.360962 6.251238
-35.9856 64.801605 -30.033173
-35.643471 64.262085 -32.979923
-35.279716 68.752106 -31.563597
-34.508564 72.389793 -33.329777
-33.704193 75.948235 -34.729973
-34.41774 72.690659 -7.875782
-28.798223 94.19091 2.299888
-29.549059 91.426003 3.078372
-29.440935 93.044365 -0.557809
-30.03511 91.660103 -3.095836
-30.585087 90.249191 -5.616631
-31.256498 88.148743 -8.048297
-30.568569 91.309402 -9.096872
-30.568253 92.089966 -12.779449
-30.45368 92.963181 -16.238792
-16.923082 105.190201 -2.602957
-18.853281 105.013947 -2.126257
-18.355494 106.039505 -5.71835
-19.65238 106.4664 -8.773315
-20.825405 106.520271 -11.724869
-21.272257 105.127174 -27.813042
-21.98761 105.520851 -24.582285
-23.243948 104.119331 -27.112719
-24.972294 102.677475 -26.673868
-26.589895 100.807762 -26.142269
-28.041761 98.617287 -25.154776
-27.64246 98.558647 -28.34086
-28.647842 95.876663 -30.518625
-29.588701 92.863602 -32.506279
-30.313948 89.881638 -34.451759
-29.112518 92.387794 -35.36607
-28.527514 91.650818 -38.057587
-28.03425 90.255226 -40.537834
-33.133934 59.662987 -42.609592
-32.836365 54.718456 -43.078747
-32.177246 58.52346 -44.411606
-31.028494 56.986603 -46.074013
-29.819754 56.030151 -47.457172
-28.428303 54.349796 -48.631424
-29.044476 58.864475 -48.460003
-28.277042 62.035664 -49.263485
-27.147003 64.775856 -50.114426
-28.664255 90.662743 12.148792
-28.441793 92.782196 8.863921
-26.807407 95.279335 10.893865
-27.568054 95.111412 8.155455
-28.192101 94.776459 5.390884
-27.930174 96.635345 1.574315
-27.660912 98.194458 -2.0661
-27.342848 99.606049 -5.737809
-13.340814 107.402908 -16.071182
-15.548182 107.641785 -15.989787
-14.778327 107.648026 -19.307344
-16.147934 107.489075 -22.185415
-17.55088 106.967392 -24.907179
-16.556877 106.271347 -28.155016
-18.942123 105.926758 -28.006252
-20.34606 104.578529 -30.620634
-21.644857 102.881653 -33.087387
-22.874008 100.711655 -35.600418
-24.138033 98.190254 -37.751072
-35.222416 53.224716 -37.526497
-34.615643 57.237495 -39.110779
-35.25922 63.284641 -35.534424
-34.696388 62.077545 -38.153152
-33.958977 61.173302 -40.554428
-33.265236 64.722099 -41.82132
-32.374424 68.388268 -43.19455
-31.477873 71.563553 -44.273594
-14.780407 105.031548 -2.94998
-13.90711 105.866531 -6.344568
-12.937025 106.465446 -9.790439
-34.931229 73.866295 -21.120197
-34.250401 77.399956 -22.715309
-30.169155 88.488731 4.002756
-31.925508 85.92318 -10.396338
-32.60186 83.451263 -12.414474
-23.218731 102.102486 2.566984
-20.901596 104.462822 -1.666122
-22.624973 103.582008 -1.102595
-24.218943 102.284554 -0.269434
-25.269983 102.128258 -3.568093
-26.208048 101.564331 -6.552361
-27.112648 100.584839 -9.323615
-17.919142 107.53241 -15.599532
-19.981339 107.070564 -15.239723
-22.068998 106.160858 -14.760461
-22.731104 105.55513 -21.274733
-23.286501 105.403076 -17.691072
-23.823429 104.950417 -14.090109
-25.387838 103.392891 -13.572492
-26.758141 101.503143 -12.844742
-28.005812 99.184555 -11.978016
-28.785885 97.65596 -14.880081
-33.467476 80.749107 -27.451252
-33.326473 80.520325 -30.377703
-33.114132 79.918732 -33.483505
-32.779079 79.39679 -36.185535
-31.070963 86.431595 -36.045578
-31.785322 82.527405 -37.48278
-32.404797 78.361816 -38.746632
-31.910189 77.132614 -41.122429
-31.255253 75.833107 -43.312508
-30.436171 74.330063 -45.33255
-25.256083 95.369896 -39.691845
-27.189426 88.999664 -42.853165
-27.971298 85.25827 -44.24707
-28.701893 81.325821 -45.289219
-29.175785 76.996353 -46.324474
-29.49456 72.511276 -47.109055
-28.424501 71.041679 -48.533184
-32.149155 49.742466 -43.664944
-31.182667 44.486938 -44.083187
-24.732088 40.187469 -48.843742
-24.493193 43.954697 -49.692688
-24.081144 47.186356 -50.435101
-26.866133 53.019619 -49.671776
-25.240274 51.435596 -50.459206
-23.615648 50.338448 -51.091991
-22.482819 55.892414 -52.056259
-16.352552 103.370098 -34.800642
-15.697161 104.094078 -33.532116
-15.12592 103.376728 -34.817861
-17.597262 103.266765 -34.761581
-16.352552 103.370098 -34.800642
-36.644987 58.295741 -30.374759
-36.504864 60.534628 -29.699199
-36.430374 57.872885 -31.784007
-36.644987 58.295741 -30.374759
-36.128616 59.848886 -32.580202
-36.20747 57.577168 -33.172072
-36.430374 57.872885 -31.784007
-34.37216 75.266026 -13.672365
-34.700764 73.33519 -12.856444
-34.288156 75.131657 -12.075195
-34.460144 75.315888 -15.333287
-34.37216 75.266026 -13.672365
-31.230967 86.264325 -2.823231
-30.954355 87.060856 -1.584257
-30.957781 87.790299 -3.328111
-31.524876 85.3321 -4.017607
-31.230967 86.264325 -2.823231
-31.549658 85.953873 -5.701456
-31.840142 84.292206 -5.151978
-31.524876 85.3321 -4.017607
-27.216915 100.638157 -21.052613
-26.741089 101.48703 -19.610501
-26.579391 101.583485 -21.36113
-27.661499 99.716057 -22.188417
-27.216915 100.638157 -21.052613
-30.802583 90.455414 -30.040223
-30.379311 92.068821 -28.937641
-30.274135 91.841419 -30.522023
-31.181261 88.888306 -30.951732
-31.286437 89.115707 -29.367349
-30.802583 90.455414 -30.040223
-25.610963 80.669041 -48.390591
-25.187713 82.531231 -47.992567
-25.893707 78.745983 -48.798045
-26.449005 79.733033 -48.119478
-25.610963 80.669041 -48.390591
-26.170084 76.702213 -49.157103
-25.893707 78.745983 -48.798045
-20.995802 50.381531 -51.950796
-21.225516 49.049941 -51.738968
-21.806909 50.773013 -51.771974
-23.205265 100.076836 7.705239
-23.992501 99.490238 8.032224
-35.817183 67.518151 -27.789839
-35.860189 67.810658 -26.279821
-35.500641 69.77338 -27.165931
-35.721617 67.141239 -29.354561
-36.081165 65.178517 -28.468451
-35.817183 67.518151 -27.789839
-35.042536 66.166858 -1.874541
-34.634363 67.720645 -1.197377
-35.185205 66.511039 -3.561838
-35.042536 66.166858 -1.874541
-34.881773 68.456359 -4.344502
-35.185205 66.511039 -3.561838
-34.047482 74.136017 -7.051665
-34.299553 72.377281 -6.162667
-34.117515 74.572082 -8.698527
-34.047482 74.136017 -7.051665
-22.091135 37.343249 -49.647604
-22.951798 37.596914 -49.284378
-19.321948 36.451135 -50.604433
-20.243442 36.637644 -50.302052
-20.207797 38.39333 -50.594161
-18.426082 36.316486 -50.897383
-19.321948 36.451135 -50.604433
-19.157091 43.304062 -51.607473
-19.95387 43.474539 -51.423073
-19.905852 45.14041 -51.633253
-28.22567 91.869469 11.954194
-28.349324 90.741398 13.636871
-27.910739 91.948124 13.442273
-26.185358 96.189839 10.674209
-26.393008 95.087521 12.463947
-25.770959 95.998024 12.244291
-13.512588 107.466152 -19.301329
-14.05957 107.525467 -17.689263
-12.793831 107.343593 -17.683248
-15.709399 107.250282 -23.75115
-14.882814 107.415562 -22.237136
-16.410872 106.989441 -25.112032
-16.849407 107.228234 -23.546297
-15.709399 107.250282 -23.75115
-21.178813 102.330365 -34.465546
-20.512473 103.291184 -33.209255
-20.04643 102.739895 -34.587413
-21.793389 101.245365 -35.722061
-22.259432 101.796654 -34.343902
-21.178813 102.330365 -34.465546
-22.428506 100.099087 -36.882831
-21.793389 101.245365 -35.722061
-35.27195 55.858456 -37.112766
-35.594294 53.92269 -36.231972
-35.643828 56.556429 -35.818241
-14.061917 104.324776 -1.471493
-15.122077 104.490917 -1.245386
-12.69994 105.597527 -6.554772
-13.207216 105.247871 -4.901446
-12.214897 105.896984 -8.277707
-13.422068 106.165988 -8.067503
-12.69994 105.597527 -6.554772
-29.642447 86.59964 13.066447
-29.715832 85.387104 14.784402
-29.439346 86.747204 14.515739
-30.032758 86.101075 10.392859
-29.984893 87.19928 8.715524
-30.661244 86.451569 3.139597
-30.92409 85.687751 1.839049
-32.80645 80.918701 -8.28253
-32.485314 82.062832 -7.295255
-32.879494 81.30323 -10.067079
-32.80645 80.918701 -8.28253
-32.6413 83.682418 -13.992413
-32.272986 85.121837 -13.100621
-32.312426 85.352993 -14.67856
-32.984611 81.924083 -13.39341
-32.6413 83.682418 -13.992413
-22.358593 102.628869 2.201856
-22.698463 101.818463 4.03369
-29.059486 96.285869 -25.879348
-28.62928 97.441201 -24.687941
-28.471967 97.461956 -26.346183
-32.667797 84.312657 -27.372822
-32.248662 85.908851 -28.058324
-33.032882 82.529373 -28.170968
-33.10239 82.53239 -26.653106
-32.667797 84.312657 -27.372822
-24.25293 96.146744 -39.900978
-24.697058 96.780075 -38.721458
-23.693905 97.556923 -38.930592
-26.376055 89.820141 -43.173595
-26.775725 90.614632 -42.093699
-26.778258 85.187671 -45.584225
-25.893472 86.115688 -45.915977
-26.321306 84.228805 -46.462708
-27.588696 84.279529 -45.189013
-27.160861 86.166412 -44.642283
-26.778258 85.187671 -45.584225
-32.810488 43.942431 -41.591328
-33.249926 46.536741 -41.284056
-32.116594 43.29397 -42.482123
-32.810488 43.942431 -41.591328
-29.946426 41.531363 -44.890119
-30.647934 42.093721 -44.184429
-30.481158 43.92458 -44.788877
-29.11381 40.920975 -45.590706
-29.946426 41.531363 -44.890119
-26.54578 39.269836 -47.439199
-27.425449 39.894547 -46.879452
-27.276888 41.600811 -47.371175
-25.587436 38.66433 -47.964862
-26.54578 39.269836 -47.439199
-25.564653 40.581785 -48.387332
-24.754871 38.270014 -48.421272
-25.587436 38.66433 -47.964862
-23.899085 53.953863 -51.371164
-23.385248 51.914433 -51.361959
-24.129485 52.377879 -51.101196
-22.78119 57.788747 -52.057924
-23.245604 56.628466 -51.842315
-22.40763 58.817284 -52.208323
-22.109259 56.92095 -52.206657
-22.78119 57.788747 -52.057924
-20.85517 51.856321 -52.11806
-21.345728 53.42157 -52.148724
-35.217163 72.026409 -25.000887
-35.559143 70.216526 -24.12447
-35.232658 72.177048 -23.469442
-34.389814 69.524421 -2.00532
-34.634363 67.720645 -1.197377
-34.48348 70.04784 -3.61785
-34.389814 69.524421 -2.00532
-18.325895 43.173924 -51.800619
-18.219468 44.774933 -51.971229
-27.432568 93.052884 13.174159
-27.910739 91.948124 13.442273
-15.005048 104.734131 -32.209548
-14.291511 105.274224 -30.872481
-16.23168 104.727501 -32.192329
-15.005048 104.734131 -32.209548
-15.697161 104.094078 -33.532116
-18.825409 103.073398 -34.669694
-18.151941 103.894081 -33.423009
-17.597262 103.266765 -34.761581
-20.04643 102.739895 -34.587413
-18.825409 103.073398 -34.669694
-35.935941 57.086916 -34.452856
-36.20747 57.577168 -33.172072
-35.613598 59.022682 -35.333651
-35.643828 56.556429 -35.818241
-35.935941 57.086916 -34.452856
-35.004936 71.519482 -12.024815
-34.900652 71.357727 -10.288867
-35.08894 71.653851 -13.621985
-35.004936 71.519482 -12.024815
-34.700764 73.33519 -12.856444
-35.146771 71.831868 -15.31492
-35.08894 71.653851 -13.621985
-34.836507 73.598767 -16.116149
-35.198511 71.961075 -16.977455
-35.146771 71.831868 -15.31492
-34.511884 75.445095 -16.995823
-34.836507 73.598767 -16.116149
-34.460144 75.315888 -15.333287
-34.161587 77.329898 -17.84965
-34.53795 75.612777 -18.632512
-34.511884 75.445095 -16.995823
-29.941527 88.172466 6.967955
-29.984893 87.19928 8.715524
-29.719534 88.587407 8.315374
-30.941961 86.387528 0.205794
-30.668775 87.913501 -0.299086
-30.954355 87.060856 -1.584257
-30.92409 85.687751 1.839049
-30.941961 86.387528 0.205794
-32.148375 83.233116 -6.185503
-31.840142 84.292206 -5.151978
-32.201864 83.743695 -7.945578
-32.485314 82.062832 -7.295255
-32.148375 83.233116 -6.185503
-31.602671 88.344204 -14.509214
-31.595644 88.007992 -12.731478
-31.254204 89.559784 -13.453924
-31.989517 86.919254 -15.435779
-31.602671 88.344204 -14.509214
-32.312426 85.352993 -14.67856
-31.989517 86.919254 -15.435779
-26.91779 101.311489 -17.940647
-26.280265 102.256817 -18.249164
-26.741089 101.48703 -19.610501
-27.506736 100.337181 -17.458873
-27.045913 101.106968 -16.097538
-26.91779 101.311489 -17.940647
-28.090028 99.211254 -16.963373
-27.506736 100.337181 -17.458873
-29.949739 93.594245 -27.895915
-29.475394 95.020145 -26.954989
-29.376517 94.880725 -28.478516
-29.949739 93.594245 -27.895915
-30.379311 92.068821 -28.937641
-31.782075 87.528332 -28.752412
-31.286437 89.115707 -29.367349
-32.131702 85.929119 -29.584771
-32.248662 85.908851 -28.058324
-31.782075 87.528332 -28.752412
-25.801391 83.406456 -47.253242
-25.187713 82.531231 -47.992567
-26.686177 82.47844 -46.92149
-26.321306 84.228805 -46.462708
-25.801391 83.406456 -47.253242
-26.947034 75.694588 -48.853004
-27.672337 74.469468 -48.542688
-27.457051 76.584855 -48.216616
-26.385368 74.586827 -49.483175
-26.947034 75.694588 -48.853004
-26.170084 76.702213 -49.157103
-34.106491 49.749842 -40.05079
-34.61358 50.172359 -38.996426
-33.609741 49.161617 -41.044985
-34.106491 49.749842 -40.05079
-33.856533 51.624049 -40.771523
-32.999967 48.410948 -42.004788
-33.249926 46.536741 -41.284056
-33.609741 49.161617 -41.044985
-26.487165 58.10968 -50.382737
-26.90202 56.759986 -50.008131
-27.25144 58.945144 -49.932058
-25.763055 57.336935 -50.771847
-26.487165 58.10968 -50.382737
-25.015844 56.583329 -51.097643
-25.390534 55.170916 -50.784605
-25.763055 57.336935 -50.771847
-24.325856 55.890913 -51.369387
-25.015844 56.583329 -51.097643
-20.55852 46.984673 -51.683321
-21.369627 47.376154 -51.5045
-21.225516 49.049941 -51.738968
-19.76174 46.814196 -51.867722
-19.905852 45.14041 -51.633253
-20.55852 46.984673 -51.683321
-20.995802 50.381531 -51.950796
-20.85517 51.856321 -52.11806
-18.981856 46.507521 -51.991609
-19.76174 46.814196 -51.867722
-18.092251 46.312521 -52.145185
-18.219468 44.774933 -51.971229
-18.981856 46.507521 -51.991609
-25.131706 96.784168 11.946615
-25.770959 95.998024 12.244291
-24.862789 97.859928 10.133881
-25.131706 96.784168 11.946615
-24.667294 98.845523 8.270338
-25.367814 98.085938 8.59101
-24.862789 97.859928 10.133881
-24.497526 99.716248 6.489352
-24.667294 98.845523 8.270338
-23.992501 99.490238 8.032224
-35.890217 68.155495 -24.784402
-35.559143 70.216526 -24.12447
-35.890217 68.155495 -24.784402
-35.860189 67.810658 -26.279821
-36.321903 62.863129 -29.119717
-36.081165 65.178517 -28.468451
-36.16856 62.473104 -30.612655
-36.504864 60.534628 -29.699199
-36.321903 62.863129 -29.119717
-34.881773 68.456359 -4.344502
-34.48348 70.04784 -3.61785
-34.697845 70.785801 -6.88932
-34.299553 72.377281 -6.162667
-34.801142 71.102646 -8.597121
-34.697845 70.785801 -6.88932
-34.51725 72.94574 -9.567528
-34.900652 71.357727 -10.288867
-34.801142 71.102646 -8.597121
-34.217025 74.827164 -10.390273
-34.51725 72.94574 -9.567528
-34.117515 74.572082 -8.698527
-34.288156 75.131657 -12.075195
-34.217025 74.827164 -10.390273
-30.914741 90.992981 -14.005554
-31.254204 89.559784 -13.453924
-30.907715 90.656769 -12.227818
-30.857455 91.429588 -15.735226
-30.914741 90.992981 -14.005554
-30.510966 92.526574 -14.50912
-30.844443 91.676762 -17.3474
-30.857455 91.429588 -15.735226
-17.888182 105.102074 -2.364607
-18.21198 104.505093 -0.570609
-17.24688 104.59322 -0.80896
-27.556814 61.165251 -49.785075
-27.25144 58.945144 -49.932058
-27.971668 59.815557 -49.410469
-26.991795 62.535347 -50.210545
-27.556814 61.165251 -49.785075
-27.712023 63.40576 -49.688956
-26.498739 63.832464 -50.531992
-26.991795 62.535347 -50.210545
-21.16001 36.911223 -49.978472
-22.091135 37.343249 -49.647604
-22.060415 39.011864 -49.960911
-21.16001 36.911223 -49.978472
-20.243442 36.637644 -50.302052
-20.053332 41.755026 -51.150665
-20.802093 43.591374 -51.176445
-19.95387 43.474539 -51.423073
-19.245706 39.922506 -51.146918
-20.09393 40.039341 -50.900289
-20.053332 41.755026 -51.150665
-19.157091 43.304062 -51.607473
-18.325895 43.173924 -51.800619
-18.409636 38.068939 -51.142536
-19.245706 39.922506 -51.146918
-18.426082 36.316486 -50.897383
-18.409636 38.068939 -51.142536
-29.120839 88.08511 14.226214
-29.439346 86.747204 14.515739
-29.194223 86.872574 15.944168
-28.769986 89.436611 13.901718
-28.349324 90.741398 13.636871
-29.015108 89.311241 12.473288
-29.120839 88.08511 14.226214
-28.769986 89.436611 13.901718
-26.942729 94.154454 12.741293
-26.393008 95.087521 12.463947
-27.297246 94.177765 11.326731
-27.432568 93.052884 13.174159
-26.942729 94.154454 12.741293
-14.198011 107.495037 -20.798101
-13.512588 107.466152 -19.301329
-15.463131 107.568551 -20.746379
-14.198011 107.495037 -20.798101
-14.882814 107.415562 -22.237136
-14.801025 105.813209 -29.481025
-13.552968 105.719879 -29.483745
-14.291511 105.274224 -30.872481
-15.309679 106.265106 -28.123652
-14.801025 105.813209 -29.481025
-16.048222 105.819451 -29.512389
-15.913871 106.641419 -26.735951
-15.309679 106.265106 -28.123652
-17.053878 106.61937 -26.531098
-16.410872 106.989441 -25.112032
-15.913871 106.641419 -26.735951
-23.060519 98.838386 -37.958158
-23.50602 99.450954 -36.675745
-22.428506 100.099087 -36.882831
-23.693905 97.556923 -38.930592
-23.060519 98.838386 -37.958158
-35.488486 51.306585 -36.719293
-35.594294 53.92269 -36.231972
-35.048147 50.678581 -37.87101
-35.488486 51.306585 -36.719293
-34.78785 52.718495 -38.651912
-34.61358 50.172359 -38.996426
-35.048147 50.678581 -37.87101
-16.193414 104.570244 -1.071875
-17.24688 104.59322 -0.80896
-15.851745 105.110874 -2.776469
-16.193414 104.570244 -1.071875
-15.122077 104.490917 -1.245386
-13.643864 104.830379 -3.204153
-14.061917 104.324776 -1.471493
-12.925375 104.123607 -1.725665
-14.343758 105.449039 -4.647274
-13.643864 104.830379 -3.204153
-13.207216 105.247871 -4.901446
-11.723599 106.125904 -9.839341
-12.214897 105.896984 -8.277707
-12.414797 106.613289 -11.355934
-11.723599 106.125904 -9.839341
-13.071687 106.994938 -12.873485
-13.593915 106.847095 -11.30799
-12.414797 106.613289 -11.355934
-12.616691 107.08202 -14.496306
-13.795809 107.315827 -14.448362
-13.071687 106.994938 -12.873485
-12.119967 107.128918 -16.171913
-12.616691 107.08202 -14.496306
-11.572984 107.069603 -17.783978
-12.793831 107.343593 -17.683248
-12.119967 107.128918 -16.171913
-35.2633 71.862728 -18.610448
-35.198511 71.961075 -16.977455
-35.28479 71.931888 -20.281204
-35.2633 71.862728 -18.610448
-34.909739 73.797134 -19.449441
-35.252933 72.11673 -21.856611
-35.28479 71.931888 -20.281204
-34.910954 73.926613 -22.733028
-35.232658 72.177048 -23.469442
-35.252933 72.11673 -21.856611
-29.840916 86.42688 11.699027
-29.642447 86.59964 13.066447
-29.56443 87.78698 11.430364
-29.840916 86.42688 11.699027
-30.032758 86.101075 10.392859
-30.188021 87.636536 5.68543
-29.941527 88.172466 6.967955
-29.922662 89.024662 5.28528
-30.417632 87.075848 4.395492
-30.412768 87.864452 2.74686
-30.661244 86.451569 3.139597
-30.188021 87.636536 5.68543
-30.417632 87.075848 4.395492
-32.911022 81.742157 -11.746652
-32.879494 81.30323 -10.067079
-32.570332 83.012337 -10.734901
-32.911022 81.742157 -11.746652
-32.984611 81.924083 -13.39341
-33.800768 79.203663 -18.533504
-34.161587 77.329898 -17.84965
-33.849211 79.205421 -20.253558
-33.800768 79.203663 -18.533504
-33.880585 79.156609 -21.868043
-34.219027 77.448768 -21.100825
-33.849211 79.205421 -20.253558
-33.880988 79.178051 -23.497798
-33.880585 79.156609 -21.868043
-33.849367 79.227981 -25.038396
-34.21878 77.449886 -24.255907
-33.880988 79.178051 -23.497798
-23.000464 100.9477 5.875816
-23.205265 100.076836 7.705239
-23.520732 101.231724 4.409111
-23.000464 100.9477 5.875816
-22.698463 101.818463 4.03369
-19.206311 104.384869 -0.347173
-18.21198 104.505093 -0.570609
-20.230469 104.109307 -0.117106
-19.206311 104.384869 -0.347173
-19.877439 104.738384 -1.896189
-21.200026 103.809037 0.085303
-20.230469 104.109307 -0.117106
-22.061714 103.368629 0.367066
-21.200026 103.809037 0.085303
-21.763285 104.022415 -1.384359
-22.921852 102.842247 0.732195
-22.358593 102.628869 2.201856
-22.061714 103.368629 0.367066
-28.665541 97.972904 -16.595531
-28.210372 98.89431 -15.247923
-28.090028 99.211254 -16.963373
-29.182 96.683628 -16.047511
-28.665541 97.972904 -16.595531
-29.669643 95.313973 -15.481003
-29.273528 96.286304 -14.313574
-29.182 96.683628 -16.047511
-30.015898 94.337239 -16.726866
-30.107425 93.939915 -14.992929
-29.669643 95.313973 -15.481003
-30.440273 93.098038 -17.867587
-30.015898 94.337239 -16.726866
-30.844443 91.676762 -17.3474
-30.440273 93.098038 -17.867587
-28.154772 98.657395 -23.364183
-27.661499 99.716057 -22.188417
-27.548489 99.67595 -23.979009
-28.154772 98.657395 -23.364183
-28.62928 97.441201 -24.687941
-29.059486 96.285869 -25.879348
-29.475394 95.020145 -26.954989
-33.489525 80.852626 -25.865769
-33.10239 82.53239 -26.653106
-33.827318 79.124462 -26.623879
-33.849367 79.227981 -25.038396
-33.489525 80.852626 -25.865769
-24.905724 94.61861 -40.789152
-24.25293 96.146744 -39.900978
-25.809054 93.799747 -40.513039
-24.905724 94.61861 -40.789152
-26.676583 92.873501 -40.227615
-26.123613 94.443649 -39.406422
-25.809054 93.799747 -40.513039
-27.198137 91.242413 -40.936033
-27.512696 91.886314 -39.829416
-26.676583 92.873501 -40.227615
-27.611838 89.627445 -41.695499
-27.198137 91.242413 -40.936033
-26.775725 90.614632 -42.093699
-26.769925 88.037109 -43.94533
-26.376055 89.820141 -43.173595
-27.580362 87.128967 -43.550117
-26.769925 88.037109 -43.94533
-27.160861 86.166412 -44.642283
-27.79341 72.31044 -48.85613
-28.303427 73.200706 -48.219742
-27.672337 74.469468 -48.542688
-27.83875 70.247146 -49.126818
-27.79341 72.31044 -48.85613
-27.828995 68.063969 -49.370472
-28.414746 68.858501 -48.776838
-27.83875 70.247146 -49.126818
-27.200001 67.114235 -49.917439
-27.775997 65.72559 -49.567459
-27.828995 68.063969 -49.370472
-26.577749 65.945896 -50.418009
-27.200001 67.114235 -49.917439
-26.498739 63.832464 -50.531992
-26.577749 65.945896 -50.418009
-31.387851 42.644403 -43.401787
-32.116594 43.29397 -42.482123
-31.911409 45.136505 -43.163522
-31.387851 42.644403 -43.401787
-30.647934 42.093721 -44.184429
-28.302263 40.352625 -46.249136
-29.11381 40.920975 -45.590706
-28.968103 42.793871 -46.152998
-28.302263 40.352625 -46.249136
-27.425449 39.894547 -46.879452
-23.822073 37.968704 -48.891227
-24.754871 38.270014 -48.421272
-23.861814 39.81568 -49.236892
-22.951798 37.596914 -49.284378
-23.822073 37.968704 -48.891227
-22.595735 51.465919 -51.596036
-22.826135 49.889935 -51.326069
-23.385248 51.914433 -51.361959
-22.366022 52.79751 -51.807865
-21.806909 50.773013 -51.771974
-22.595735 51.465919 -51.596036
-23.899085 53.953863 -51.371164
-24.325856 55.890913 -51.369387
-22.818834 54.691416 -51.844093
-23.245604 56.628466 -51.842315
-22.030007 53.998508 -52.020031
-22.366022 52.79751 -51.807865
-22.818834 54.691416 -51.844093
-21.79854 55.315476 -52.184951
-21.345728 53.42157 -52.148724
-22.030007 53.998508 -52.020031
-21.79854 55.315476 -52.184951
-22.109259 56.92095 -52.206657
3 0 76 74
3 0 78 76
3 2 81 79
3 2 83 81
3 1 86 84
3 3 89 87
3 3 91 89
3 3 93 91
3 4 96 94
3 4 98 96
3 5 101 99
3 7 104 102
3 7 106 104
3 283 108 284
3 283 284 285
3 287 286 108
3 9 288 289
3 9 290 291
3 9 292 294
3 292 110 293
3 292 293 294
3 11 113 111
3 11 115 113
3 295 117 296
3 297 296 116
3 295 296 297
3 299 298 117
3 6 121 119
3 12 300 302
3 302 301 122
3 300 301 302
3 12 303 304
3 12 305 307
3 305 124 306
3 305 306 307
3 13 128 126
3 13 130 128
3 8 133 131
3 14 136 134
3 14 308 310
3 310 309 136
3 308 309 310
3 14 311 312
3 15 313 315
3 315 314 138
3 313 314 315
3 15 316 318
3 316 139 317
3 316 317 318
3 15 141 139
3 16 144 142
3 16 146 144
3 319 147 320
3 321 149 322
3 323 322 147
3 321 322 323
3 325 324 149
3 10 151 150
3 17 154 152
3 17 156 154
3 17 158 156
3 18 326 328
3 328 327 160
3 326 327 328
3 329 162 330
3 21 331 333
3 333 332 75
3 331 332 333
3 21 334 336
3 334 163 335
3 334 335 336
3 21 165 163
3 23 166 77
3 23 167 166
3 24 337 338
3 24 339 340
3 24 341 342
3 343 168 344
3 346 345 168
3 25 171 169
3 27 172 80
3 27 173 172
3 27 175 173
3 29 176 82
3 29 177 176
3 30 180 178
3 32 181 85
3 32 182 181
3 33 185 183
3 35 186 88
3 35 187 186
3 35 189 187
3 37 190 90
3 37 191 190
3 37 193 191
3 39 194 92
3 39 195 194
3 40 198 196
3 42 199 95
3 42 200 199
3 42 202 200
3 44 203 97
3 44 204 203
3 45 347 348
3 46 349 351
3 351 350 100
3 349 350 351
3 46 352 353
3 19 354 356
3 356 355 161
3 354 355 356
3 48 357 359
3 357 205 358
3 357 358 359
3 48 206 205
3 20 360 362
3 360 207 361
3 360 361 362
3 49 208 103
3 49 209 208
3 49 210 209
3 50 211 105
3 50 212 211
3 363 215 364
3 365 364 213
3 363 364 365
3 366 216 367
3 368 217 369
3 370 369 216
3 368 369 370
3 52 218 107
3 52 219 218
3 52 220 219
3 371 221 372
3 373 372 109
3 371 372 373
3 374 222 375
3 376 375 221
3 374 375 376
3 378 377 222
3 53 379 381
3 379 224 380
3 379 380 381
3 53 225 224
3 22 226 164
3 54 227 112
3 54 228 227
3 54 229 228
3 55 230 114
3 55 231 230
3 382 232 383
3 384 233 385
3 386 234 387
3 388 387 233
3 386 387 388
3 56 235 118
3 56 236 235
3 47 389 391
3 389 390 391
3 393 392 120
3 26 237 170
3 395 394 123
3 57 396 397
3 57 398 399
3 28 238 174
3 400 239 401
3 402 401 125
3 400 401 402
3 404 403 239
3 405 240 406
3 31 241 179
3 58 242 127
3 58 243 242
3 58 244 243
3 59 245 129
3 59 246 245
3 51 247 214
3 60 248 132
3 60 249 248
3 34 250 184
3 61 251 135
3 61 252 251
3 61 253 252
3 62 254 137
3 62 255 254
3 62 256 255
3 36 407 409
3 409 408 188
3 407 408 409
3 63 410 411
3 63 412 414
3 412 257 413
3 412 413 414
3 63 258 257
3 64 259 140
3 64 260 259
3 38 261 192
3 65 262 143
3 65 263 262
3 65 264 263
3 66 265 145
3 66 266 265
3 415 267 416
3 417 416 223
3 415 416 417
3 418 268 419
3 67 420 422
3 420 421 422
3 67 423 425
3 423 269 424
3 423 424 425
3 67 270 269
3 68 271 148
3 68 272 271
3 68 273 272
3 69 426 427
3 69 428 429
3 41 274 197
3 70 275 153
3 70 430 432
3 432 431 275
3 430 431 432
3 70 433 434
3 71 435 437
3 437 436 155
3 435 436 437
3 71 438 439
3 71 440 442
3 440 276 441
3 440 441 442
3 72 277 157
3 72 278 277
3 43 279 201
3 73 280 159
3 73 281 280
3 73 443 445
3 445 444 281
3 443 444 445
3 446 282 447
3 450 449 282
3 448 449 450
3 452 451 18
3 74 453 455
3 453 75 454
3 453 454 455
3 76 75 74
3 76 21 75
3 76 77 21
3 78 77 76
3 78 23 77
3 456 24 457
3 459 458 24
3 79 80 25
3 81 80 79
3 81 27 80
3 81 82 27
3 83 82 81
3 83 29 82
3 84 85 30
3 86 85 84
3 86 32 85
3 87 88 33
3 89 88 87
3 89 35 88
3 89 90 35
3 91 90 89
3 91 37 90
3 91 92 37
3 93 92 91
3 93 39 92
3 94 95 40
3 96 95 94
3 96 42 95
3 96 97 42
3 98 97 96
3 98 44 97
3 99 100 45
3 101 100 99
3 101 46 100
3 461 460 19
3 462 48 463
3 102 103 20
3 104 103 102
3 104 49 103
3 104 105 49
3 106 105 104
3 106 50 105
3 464 107 465
3 108 466 468
3 466 107 467
3 466 467 468
3 108 52 107
3 108 109 52
3 469 109 470
3 471 470 108
3 469 470 471
3 473 472 109
3 110 474 475
3 110 476 478
3 476 53 477
3 476 477 478
3 111 112 22
3 113 112 111
3 113 54 112
3 113 114 54
3 115 114 113
3 115 55 114
3 116 479 480
3 117 481 483
3 483 482 116
3 481 482 483
3 117 484 485
3 117 486 488
3 486 118 487
3 486 487 488
3 489 118 490
3 491 490 117
3 489 490 491
3 492 56 493
3 494 493 118
3 492 493 494
3 119 120 47
3 121 120 119
3 121 495 497
3 497 496 120
3 495 496 497
3 122 123 26
3 498 123 499
3 500 499 122
3 498 499 500
3 502 501 123
3 124 503 504
3 124 505 507
3 505 57 506
3 505 506 507
3 508 125 509
3 510 509 28
3 508 509 510
3 511 125 512
3 514 513 125
3 126 127 31
3 128 127 126
3 128 58 127
3 128 129 58
3 130 129 128
3 130 59 129
3 131 132 51
3 133 132 131
3 133 60 132
3 134 135 34
3 136 135 134
3 136 61 135
3 136 137 61
3 515 137 516
3 517 516 136
3 515 516 517
3 518 62 519
3 520 519 137
3 518 519 520
3 522 521 62
3 138 523 525
3 525 524 36
3 523 524 525
3 527 526 138
3 139 528 529
3 139 530 532
3 530 63 531
3 530 531 532
3 139 140 63
3 141 140 139
3 141 64 140
3 142 143 38
3 144 143 142
3 144 65 143
3 144 145 65
3 146 145 144
3 146 66 145
3 147 533 534
3 147 535 537
3 535 67 536
3 535 536 537
3 147 148 67
3 149 148 147
3 149 68 148
3 149 538 540
3 540 539 68
3 538 539 540
3 543 542 149
3 541 542 543
3 150 544 545
3 151 546 548
3 548 547 150
3 546 547 548
3 151 549 551
3 549 69 550
3 549 550 551
3 152 153 41
3 154 153 152
3 154 70 153
3 154 155 70
3 156 155 154
3 156 71 155
3 156 157 71
3 158 157 156
3 158 72 157
3 552 159 553
3 554 553 43
3 552 553 554
3 555 159 556
3 557 73 558
3 559 558 159
3 557 558 559
3 561 560 73
3 160 161 5
3 562 161 563
3 564 563 160
3 562 563 564
3 565 19 566
3 567 566 161
3 565 566 567
3 569 568 18
3 570 19 571
3 574 573 19
3 572 573 574
3 575 20 576
3 577 20 578
3 579 102 580
3 581 580 20
3 579 580 581
3 162 582 584
3 582 102 583
3 582 583 584
3 162 7 102
3 75 585 586
3 588 587 75
3 163 589 590
3 163 591 593
3 591 9 592
3 591 592 593
3 163 164 9
3 165 164 163
3 165 22 164
3 77 165 21
3 166 165 77
3 166 22 165
3 166 111 22
3 167 111 166
3 167 11 111
3 595 594 24
3 168 596 597
3 168 598 599
3 168 600 602
3 600 116 601
3 600 601 602
3 603 116 604
3 605 604 168
3 603 604 605
3 607 606 116
3 169 170 6
3 171 170 169
3 171 26 170
3 80 171 25
3 172 171 80
3 172 26 171
3 172 122 26
3 173 122 172
3 173 12 122
3 173 174 12
3 175 174 173
3 175 28 174
3 82 175 27
3 176 175 82
3 176 28 175
3 176 608 610
3 610 609 28
3 608 609 610
3 177 611 613
3 613 612 176
3 611 612 613
3 177 614 615
3 178 616 618
3 616 179 617
3 616 617 618
3 180 179 178
3 180 31 179
3 85 180 30
3 181 180 85
3 181 31 180
3 181 126 31
3 182 126 181
3 182 13 126
3 183 184 8
3 185 184 183
3 185 34 184
3 88 185 33
3 186 185 88
3 186 34 185
3 186 134 34
3 187 134 186
3 187 14 134
3 187 188 14
3 189 188 187
3 189 36 188
3 90 189 35
3 190 189 90
3 190 36 189
3 190 138 36
3 191 138 190
3 191 15 138
3 191 192 15
3 193 192 191
3 193 38 192
3 92 193 37
3 194 193 92
3 194 38 193
3 194 142 38
3 195 142 194
3 195 16 142
3 196 197 10
3 198 197 196
3 198 41 197
3 95 198 40
3 199 198 95
3 199 41 198
3 199 152 41
3 200 152 199
3 200 17 152
3 200 201 17
3 202 201 200
3 202 43 201
3 97 202 42
3 203 202 97
3 203 43 202
3 203 619 621
3 621 620 43
3 619 620 621
3 204 622 624
3 624 623 203
3 622 623 624
3 204 625 626
3 100 627 629
3 629 628 45
3 627 628 629
3 631 630 100
3 161 101 5
3 632 101 633
3 634 633 161
3 632 633 634
3 635 46 636
3 637 636 101
3 635 636 637
3 639 638 19
3 640 46 641
3 643 642 46
3 644 47 645
3 644 645 646
3 205 647 648
3 205 649 651
3 649 47 650
3 649 650 651
3 205 119 47
3 206 119 205
3 206 6 119
3 207 652 653
3 207 654 656
3 654 48 655
3 654 655 656
3 103 207 20
3 208 207 103
3 208 48 207
3 208 206 48
3 209 206 208
3 209 6 206
3 209 169 6
3 210 169 209
3 210 25 169
3 105 210 49
3 211 210 105
3 211 25 210
3 211 79 25
3 212 79 211
3 212 2 79
3 213 214 1
3 215 214 213
3 215 51 214
3 657 215 658
3 216 659 661
3 659 215 660
3 659 660 661
3 216 51 215
3 216 131 51
3 217 131 216
3 217 8 131
3 107 662 664
3 662 663 664
3 218 665 667
3 667 666 107
3 665 666 667
3 218 668 669
3 218 670 672
3 670 217 671
3 670 671 672
3 219 217 218
3 219 8 217
3 219 183 8
3 220 183 219
3 220 33 183
3 109 220 52
3 221 220 109
3 221 33 220
3 221 87 33
3 222 87 221
3 222 3 87
3 222 223 3
3 673 223 674
3 675 674 222
3 673 674 675
3 677 676 223
3 224 678 679
3 224 680 681
3 224 682 684
3 682 150 683
3 682 683 684
3 225 150 224
3 225 10 150
3 164 110 9
3 226 110 164
3 226 53 110
3 112 226 22
3 227 226 112
3 227 53 226
3 227 225 53
3 228 225 227
3 228 10 225
3 228 196 10
3 229 196 228
3 229 40 196
3 114 229 54
3 230 229 114
3 230 40 229
3 230 94 40
3 231 94 230
3 231 4 94
3 685 178 686
3 232 687 689
3 687 178 688
3 687 688 689
3 232 30 178
3 690 232 691
3 690 691 692
3 233 693 695
3 693 232 694
3 693 694 695
3 233 30 232
3 233 84 30
3 234 84 233
3 234 1 84
3 696 234 697
3 698 234 699
3 700 1 701
3 702 701 234
3 700 701 702
3 703 213 704
3 705 704 1
3 703 704 705
3 706 213 707
3 710 709 213
3 708 709 710
3 118 711 712
3 235 713 715
3 715 714 118
3 713 714 715
3 235 716 717
3 235 718 720
3 718 74 719
3 718 719 720
3 236 74 235
3 236 0 74
3 120 721 723
3 723 722 47
3 721 722 723
3 725 724 120
3 170 121 6
3 237 121 170
3 237 726 728
3 728 727 121
3 726 727 728
3 123 237 26
3 729 237 730
3 731 730 123
3 729 730 731
3 733 732 237
3 174 124 12
3 238 124 174
3 238 57 124
3 125 238 28
3 239 238 125
3 239 57 238
3 239 734 736
3 736 735 57
3 734 735 736
3 738 737 239
3 739 56 740
3 741 56 742
3 743 236 744
3 745 744 56
3 743 744 745
3 746 236 747
3 748 0 749
3 750 749 236
3 748 749 750
3 751 162 752
3 240 753 755
3 753 162 754
3 753 754 755
3 240 7 162
3 179 756 757
3 241 758 760
3 760 759 179
3 758 759 760
3 241 761 762
3 127 241 31
3 242 241 127
3 242 763 765
3 765 764 241
3 763 764 765
3 242 766 768
3 766 240 767
3 766 767 768
3 243 240 242
3 243 7 240
3 243 106 7
3 244 106 243
3 244 50 106
3 129 244 58
3 245 244 129
3 245 50 244
3 245 212 50
3 246 212 245
3 246 2 212
3 214 86 1
3 247 86 214
3 247 32 86
3 132 247 51
3 248 247 132
3 248 32 247
3 248 182 32
3 249 182 248
3 249 13 182
3 184 133 8
3 250 133 184
3 250 60 133
3 135 250 34
3 251 250 135
3 251 60 250
3 251 249 60
3 252 249 251
3 252 13 249
3 252 130 13
3 253 130 252
3 253 59 130
3 137 253 61
3 254 253 137
3 254 59 253
3 254 246 59
3 255 246 254
3 255 2 246
3 255 83 2
3 256 83 255
3 256 29 83
3 769 256 770
3 771 770 62
3 769 770 771
3 772 256 773
3 774 29 775
3 776 775 256
3 774 775 776
3 777 177 778
3 779 778 29
3 777 778 779
3 780 177 781
3 783 782 177
3 188 784 786
3 786 785 14
3 784 785 786
3 788 787 188
3 790 789 36
3 257 791 792
3 257 793 795
3 793 0 794
3 793 794 795
3 257 78 0
3 258 78 257
3 258 23 78
3 140 258 63
3 259 258 140
3 259 23 258
3 259 167 23
3 260 167 259
3 260 11 167
3 192 141 15
3 261 141 192
3 261 64 141
3 143 261 38
3 262 261 143
3 262 64 261
3 262 260 64
3 263 260 262
3 263 11 260
3 263 115 11
3 264 115 263
3 264 55 115
3 145 264 65
3 265 264 145
3 265 55 264
3 265 231 55
3 266 231 265
3 266 4 231
3 223 93 3
3 267 93 223
3 267 39 93
3 796 267 797
3 798 267 799
3 800 39 801
3 802 801 267
3 800 801 802
3 803 195 804
3 805 804 39
3 803 804 805
3 268 806 808
3 806 195 807
3 806 807 808
3 268 16 195
3 809 268 810
3 269 811 813
3 811 268 812
3 811 812 813
3 269 16 268
3 269 146 16
3 270 146 269
3 270 66 146
3 148 270 67
3 271 270 148
3 271 66 270
3 271 266 66
3 272 266 271
3 272 4 266
3 272 98 4
3 273 98 272
3 273 44 98
3 814 273 815
3 816 815 68
3 814 815 816
3 817 273 818
3 819 44 820
3 821 820 273
3 819 820 821
3 822 204 823
3 824 823 44
3 822 823 824
3 825 204 826
3 828 827 204
3 197 151 10
3 274 151 197
3 274 69 151
3 153 274 41
3 275 274 153
3 275 69 274
3 275 829 831
3 831 830 69
3 829 830 831
3 833 832 275
3 155 834 836
3 836 835 70
3 834 835 836
3 838 837 155
3 276 839 840
3 276 841 843
3 841 45 842
3 841 842 843
3 157 276 71
3 277 276 157
3 277 45 276
3 277 99 45
3 278 99 277
3 278 5 99
3 201 158 17
3 279 158 201
3 279 72 158
3 159 279 43
3 280 279 159
3 280 72 279
3 280 278 72
3 281 278 280
3 281 5 278
3 281 160 5
3 844 160 845
3 846 845 281
3 844 845 846
3 847 18 848
3 849 848 160
3 847 848 849
3 851 850 73
3 282 852 853
3 282 854 856
3 854 18 855
3 854 855 856
3 282 857 859
3 859 858 18
3 857 858 859
3 861 860 282
