ply
format ascii 1.0
element vertex 181
property float x
property float y
property float z
element face 174
property list uchar int vertex_index
end_header
-19.85149 60.060127 11.610872
-24.155535 50.482342 8.094124
-23.033861 60.031513 2.167185
-21.216518 49.666595 17.918818
-22.045267 55.076435 10.067436
-23.496517 55.272133 5.358971
-21.499311 60.367989 6.798752
-23.660219 45.265499 15.582672
-22.646637 50.299992 12.98011
-20.399378 54.953178 14.927234
-18.840611 54.17387 19.834064
-18.089542 59.762161 16.375959
-20.970552 57.597786 10.832828
-21.758017 57.680012 8.508609
-20.726587 60.261856 9.073582
-25.26631 48.150692 7.095661
-24.843994 50.448486 5.832579
-23.262793 57.704231 3.744201
-22.479349 47.383091 16.677761
-23.166224 47.745907 14.193177
-21.971304 49.911903 15.431138
-21.552689 52.537239 13.972322
-20.823156 52.28371 16.349052
-18.50535 56.911953 18.061516
-17.25396 59.131397 18.939047
-23.093098 52.645287 9.22637
-23.814709 52.795536 6.779675
-22.816294 55.18512 7.641168
-22.507328 57.81765 6.129217
-22.381754 60.05228 4.407883
-23.009825 44.853249 18.004848
-21.71291 47.148453 19.208242
-24.521191 52.764248 4.369358
-18.745298 62.689205 12.010348
-19.648514 62.690746 9.725365
-24.618593 48.048027 9.341578
-24.36463 45.621613 13.018488
-23.851524 48.015896 11.781384
-23.420366 50.282192 10.628726
-22.285923 52.706581 11.618886
-21.229401 55.003696 12.518824
-20.186964 57.351616 13.233629
-20.056347 51.920414 18.862295
-19.578426 54.722042 17.390099
-19.280441 57.409939 15.60899
-19.017481 59.925705 13.904263
-17.863993 62.252277 14.556855
-20.480145 62.999729 7.23628
-21.387058 62.734417 4.913757
-23.468584 58.67659 1.929434
-23.58305 57.512949 2.717942
-23.148327 58.867872 2.955693
-23.314999 59.92888 1.106201
-23.468584 58.67659 1.929434
-16.83325 58.849474 20.12462
-17.458745 57.755295 19.764365
-16.645768 60.342321 19.122355
-16.83325 58.849474 20.12462
-22.688009 44.608707 19.21273
-23.327123 43.600618 18.552897
-22.039552 45.75631 19.814427
-22.361368 46.000851 18.606545
-22.688009 44.608707 19.21273
-18.599756 64.054163 11.096583
-18.160146 63.784658 12.38663
-24.866262 46.845289 10.0049
-25.223797 46.918789 8.763572
-24.012425 45.443556 14.30058
-24.671821 44.386651 13.629325
-24.319616 44.208593 14.911417
-19.04919 52.852371 20.609825
-18.435755 53.922525 21.070987
-19.448479 53.047142 19.34818
-19.657058 51.725643 20.12394
-19.04919 52.852371 20.609825
-19.929778 64.233427 7.538909
-20.064329 62.845237 8.480823
-19.513962 64.078936 8.783451
-21.260531 64.068903 3.983615
-20.84374 64.070086 5.184311
-21.750335 62.707369 3.799461
-21.260531 64.068903 3.983615
-25.601731 48.108984 5.947249
-25.859504 47.032542 6.477624
-25.390572 49.257881 5.315708
-25.601731 48.108984 5.947249
-25.055152 49.299589 6.46412
-25.174287 50.345985 4.721932
-25.390572 49.257881 5.315708
-23.739776 56.369591 3.371196
-23.856638 55.153542 4.178581
-23.379655 56.488182 4.551586
-23.739776 56.369591 3.371196
-23.58305 57.512949 2.717942
-18.252071 55.276531 20.211874
-18.435755 53.922525 21.070987
-18.08444 56.645573 19.3256
-18.672981 55.542912 18.94779
-18.252071 55.276531 20.211874
-17.879655 58.021675 18.500281
-18.08444 56.645573 19.3256
-17.458745 57.755295 19.764365
-17.090753 60.55487 17.962536
-17.508544 60.870252 16.680992
-17.671751 59.446779 17.657503
-17.090753 60.55487 17.962536
-16.645768 60.342321 19.122355
-23.972518 44.045662 16.137215
-24.319616 44.208593 14.911417
-23.647321 43.839537 17.348304
-23.327123 43.600618 18.552897
-23.335022 45.059374 16.79376
-23.972518 44.045662 16.137215
-23.647321 43.839537 17.348304
-25.012886 51.503866 3.990322
-25.174287 50.345985 4.721932
-24.682592 51.606367 5.100969
-24.368975 53.899599 3.683775
-24.008854 54.018191 4.864165
-23.856638 55.153542 4.178581
-24.840719 52.58572 3.295064
-24.368975 53.899599 3.683775
-25.012886 51.503866 3.990322
-24.840719 52.58572 3.295064
-19.051364 64.054934 9.954091
-19.196906 62.689976 10.867857
-18.599756 64.054163 11.096583
-19.513962 64.078936 8.783451
-19.051364 64.054934 9.954091
-25.547656 46.970122 7.640613
-25.859504 47.032542 6.477624
-24.942452 48.099359 8.218619
-25.547656 46.970122 7.640613
-25.223797 46.918789 8.763572
-25.012034 44.543408 12.391064
-24.671821 44.386651 13.629325
-24.73928 45.632082 11.843355
-25.012034 44.543408 12.391064
-24.482727 46.829223 11.224804
-24.73928 45.632082 11.843355
-24.108077 46.818754 12.399936
-24.235059 48.031961 10.561481
-24.866262 46.845289 10.0049
-24.482727 46.829223 11.224804
-21.387443 46.89032 20.415091
-22.039552 45.75631 19.814427
-21.099666 48.196532 19.825906
-21.387443 46.89032 20.415091
-20.85147 49.455602 19.181195
-21.464714 48.407524 18.56353
-21.099666 48.196532 19.825906
-20.271385 50.582512 19.652933
-19.657058 51.725643 20.12394
-20.636432 50.793504 18.390557
-20.85147 49.455602 19.181195
-20.271385 50.582512 19.652933
-17.719494 63.566194 13.659884
-18.160146 63.784658 12.38663
-18.304645 62.470741 13.283601
-17.39577 62.11531 15.77144
-17.976768 61.007219 15.466407
-17.508544 60.870252 16.680992
-17.235465 63.538446 14.773737
-17.39577 62.11531 15.77144
-17.719494 63.566194 13.659884
-17.235465 63.538446 14.773737
-20.390284 64.202742 6.345572
-19.929778 64.233427 7.538909
-20.933602 62.867073 6.075019
-20.390284 64.202742 6.345572
-20.84374 64.070086 5.184311
-22.247682 61.366301 3.546524
-21.884406 61.393349 4.66082
-21.750335 62.707369 3.799461
-22.573736 61.355917 2.426175
-22.707808 60.041897 3.287534
-22.247682 61.366301 3.546524
-22.895208 61.242172 1.37048
-22.573736 61.355917 2.426175
-23.314999 59.92888 1.106201
-22.895208 61.242172 1.37048
3 0 14 12
3 1 16 15
3 2 49 51
3 51 50 17
3 49 50 51
3 2 52 53
3 3 20 18
3 3 22 20
3 54 24 55
3 57 56 24
3 4 27 25
3 6 28 13
3 6 29 28
3 58 30 59
3 60 31 61
3 62 61 30
3 60 61 62
3 5 32 26
3 64 63 33
3 65 35 66
3 7 67 69
3 67 36 68
3 67 68 69
3 8 37 19
3 8 38 37
3 8 39 38
3 9 40 21
3 9 41 40
3 10 70 71
3 10 72 74
3 72 42 73
3 72 73 74
3 10 43 42
3 11 44 23
3 11 45 44
3 11 46 45
3 75 47 76
3 77 76 34
3 75 76 77
3 78 48 79
3 81 80 48
3 12 13 4
3 14 13 12
3 14 6 13
3 15 82 83
3 16 84 86
3 86 85 15
3 84 85 86
3 16 87 88
3 17 89 91
3 91 90 5
3 89 90 91
3 93 92 17
3 18 19 7
3 20 19 18
3 20 8 19
3 20 21 8
3 22 21 20
3 22 9 21
3 94 10 95
3 96 23 97
3 98 97 10
3 96 97 98
3 24 99 101
3 99 23 100
3 99 100 101
3 24 11 23
3 24 102 104
3 104 103 11
3 102 103 104
3 106 105 24
3 25 26 1
3 27 26 25
3 27 5 26
3 13 27 4
3 28 27 13
3 28 5 27
3 28 17 5
3 29 17 28
3 29 2 17
3 107 7 108
3 30 109 110
3 30 111 113
3 111 7 112
3 111 112 113
3 30 18 7
3 31 18 30
3 31 3 18
3 26 16 1
3 32 16 26
3 32 114 116
3 116 115 16
3 114 115 116
3 117 32 118
3 119 118 5
3 117 118 119
3 120 32 121
3 123 122 32
3 33 34 0
3 124 34 125
3 126 125 33
3 124 125 126
3 128 127 34
3 129 15 130
3 35 131 133
3 131 15 132
3 131 132 133
3 35 1 15
3 36 134 135
3 36 136 137
3 19 36 7
3 37 36 19
3 37 138 140
3 140 139 36
3 138 139 140
3 37 141 143
3 141 35 142
3 141 142 143
3 38 35 37
3 38 1 35
3 38 25 1
3 39 25 38
3 39 4 25
3 21 39 8
3 40 39 21
3 40 4 39
3 40 12 4
3 41 12 40
3 41 0 12
3 144 31 145
3 146 31 147
3 148 3 149
3 150 149 31
3 148 149 150
3 42 151 152
3 42 153 155
3 153 3 154
3 153 154 155
3 42 22 3
3 43 22 42
3 43 9 22
3 23 43 10
3 44 43 23
3 44 9 43
3 44 41 9
3 45 41 44
3 45 0 41
3 45 33 0
3 46 33 45
3 46 156 158
3 158 157 33
3 156 157 158
3 159 46 160
3 161 160 11
3 159 160 161
3 162 46 163
3 165 164 46
3 34 14 0
3 47 14 34
3 47 6 14
3 166 47 167
3 48 168 170
3 168 47 169
3 168 169 170
3 48 6 47
3 48 29 6
3 171 29 172
3 173 172 48
3 171 172 173
3 174 2 175
3 176 175 29
3 174 175 176
3 177 2 178
3 180 179 2
