ply
format ascii 1.0
element vertex 191
property float x
property float y
property float z
element face 180
property list uchar int vertex_index
end_header
-11.319777 -48.851643 37.986652
-8.931402 -58.904259 35.456985
-14.825514 -55.848644 33.822205
-14.033059 -47.435257 36.708378
-12.924501 -52.296238 35.933598
-15.939365 -50.7673 34.92934
-7.373525 -55.312492 38.261101
-10.100848 -53.862808 37.012077
-11.831042 -57.370716 34.664604
-17.890717 -54.048119 33.031868
-6.068408 -60.361588 36.291599
-15.449823 -46.550545 36.204365
-14.982301 -49.027317 35.820751
-16.434183 -48.188068 35.372478
-10.058316 -49.36129 38.75687
-9.433372 -52.018085 38.19743
-10.736893 -51.304855 37.550655
-13.900056 -54.030087 34.897373
-12.461774 -54.866734 35.318794
-13.346302 -56.518372 34.270966
-12.785734 -59.180256 33.409298
-14.314528 -58.346203 33.05088
-18.445591 -51.570343 33.615547
-8.224401 -57.047626 36.796413
-6.81746 -57.826206 37.312096
-7.499338 -59.601803 35.880905
-12.635789 -48.052132 37.356018
-12.059283 -50.585541 36.946938
-13.457898 -49.834114 36.376038
-14.430919 -51.629784 35.380306
-15.400354 -53.448757 34.383572
-9.733917 -60.669403 34.131191
-8.085009 -52.703808 38.962456
-8.725378 -54.59153 37.619583
-9.516199 -56.469402 36.280544
-11.540985 -53.232735 36.384037
-10.989176 -55.703587 35.775471
-10.375362 -58.038193 35.108257
-11.248683 -59.842155 33.829269
-17.415871 -49.982533 34.50964
-16.82782 -52.448673 34.054981
-16.415596 -54.962234 33.398216
-18.974909 -55.524914 31.884245
-17.496641 -56.421791 32.283669
-15.913081 -57.434673 32.657425
-15.442316 -59.939644 31.717793
-6.035155 -56.164131 38.85857
-5.412854 -58.546814 37.897911
-4.638093 -60.928101 36.862614
-16.698056 -46.981678 35.537468
-15.942003 -47.369307 35.788421
-16.205876 -46.162917 35.953411
-9.468547 -61.965812 33.510647
-10.225649 -61.53166 33.427204
-8.429725 -51.438116 39.238333
-7.776147 -51.851523 39.655417
-12.514774 -60.426561 32.913418
-13.348471 -59.932202 32.768867
-18.202295 -49.528284 34.310274
-17.649021 -48.751251 34.722577
-19.550516 -56.22431 31.183652
-19.798533 -55.041742 31.638467
-17.235706 -57.672771 31.835484
-18.016657 -57.112841 31.660778
-16.443926 -58.179212 32.022362
-16.704861 -56.928232 32.470547
-17.235706 -57.672771 31.835484
-16.208544 -59.431698 31.552546
-15.677698 -58.687158 32.187609
-16.443926 -58.179212 32.022362
-6.70434 -55.738311 38.559835
-6.405262 -54.869695 39.261162
-7.074447 -54.443876 38.962427
-9.745844 -50.689687 38.47715
-9.103907 -51.095254 38.85582
-9.416379 -49.766857 39.13554
-14.112868 -59.515175 32.589658
-13.348471 -59.932202 32.768867
-13.550131 -58.76323 33.230089
-19.285329 -51.099457 33.398178
-18.717156 -50.32219 33.863228
-18.967435 -52.34767 33.109029
-19.285329 -51.099457 33.398178
-18.689998 -53.586557 32.81719
-18.168154 -52.809231 33.323707
-18.967435 -52.34767 33.109029
-9.000575 -60.98452 34.315981
-8.599317 -60.101948 34.978878
-9.33266 -59.786831 34.794088
-9.000575 -60.98452 34.315981
-9.468547 -61.965812 33.510647
-7.430189 -53.139534 39.313105
-7.776147 -51.851523 39.655417
-7.729267 -54.00815 38.611778
-7.074447 -54.443876 38.962427
-7.430189 -53.139534 39.313105
-8.75919 -52.360946 38.579943
-8.429725 -51.438116 39.238333
-9.103907 -51.095254 38.85582
-10.983031 -61.118036 33.276243
-10.225649 -61.53166 33.427204
-10.4913 -60.255779 33.98023
-11.746249 -60.757511 33.123403
-12.017208 -59.511206 33.619283
-12.514774 -60.426561 32.913418
-10.983031 -61.118036 33.276243
-11.746249 -60.757511 33.123403
-17.158178 -47.854019 35.153996
-16.698056 -46.981678 35.537468
-16.925027 -49.085301 34.941059
-17.158178 -47.854019 35.153996
-17.649021 -48.751251 34.722577
-17.930731 -50.776438 34.062593
-18.202295 -49.528284 34.310274
-18.717156 -50.32219 33.863228
-19.232094 -54.324955 32.243378
-19.798533 -55.041742 31.638467
-18.432813 -54.786517 32.458056
-18.689998 -53.586557 32.81719
-19.232094 -54.324955 32.243378
-18.755791 -56.664402 31.461066
-19.550516 -56.22431 31.183652
-18.235775 -55.973353 32.083957
-18.755791 -56.664402 31.461066
-18.016657 -57.112841 31.660778
-14.676762 -60.311896 31.923115
-14.112868 -59.515175 32.589658
-14.878422 -59.142924 32.384337
-15.978491 -60.607609 31.03347
-16.208544 -59.431698 31.552546
-15.158167 -61.064627 31.247321
-15.978491 -60.607609 31.03347
-14.676762 -60.311896 31.923115
-15.158167 -61.064627 31.247321
-9.706218 -48.533582 39.404497
-9.416379 -49.766857 39.13554
-10.356908 -48.119684 38.979889
-9.706218 -48.533582 39.404497
-10.987638 -47.864861 38.59478
-10.689046 -49.106466 38.371761
-10.356908 -48.119684 38.979889
-11.648699 -47.578467 38.164799
-10.987638 -47.864861 38.59478
-12.306705 -47.178711 37.849481
-11.977783 -48.451887 37.671335
-11.648699 -47.578467 38.164799
-12.972673 -46.801213 37.501869
-12.306705 -47.178711 37.849481
-13.671308 -46.492775 37.178049
-13.334424 -47.743695 37.032198
-12.972673 -46.801213 37.501869
-14.336458 -46.141047 36.8718
-13.671308 -46.492775 37.178049
-15.04484 -45.69869 36.619793
-14.741441 -46.992901 36.456372
-14.336458 -46.141047 36.8718
-15.746364 -45.363146 36.338101
-15.04484 -45.69869 36.619793
-16.205876 -46.162917 35.953411
-15.746364 -45.363146 36.338101
-5.762323 -55.201813 39.67963
-6.405262 -54.869695 39.261162
-5.38206 -56.483576 39.225984
-5.762323 -55.201813 39.67963
-5.070909 -57.674917 38.745655
-5.38206 -56.483576 39.225984
-5.724004 -57.355472 38.378241
-4.726249 -58.868593 38.22707
-5.070909 -57.674917 38.745655
-4.338869 -60.059236 37.709422
-4.726249 -58.868593 38.22707
-5.025474 -59.737457 37.380263
-3.962397 -61.228584 37.143298
-4.338869 -60.059236 37.709422
-7.883285 -60.45072 35.190838
-8.21537 -59.253031 35.668945
-8.599317 -60.101948 34.978878
-7.155384 -60.859941 35.314472
-7.883285 -60.45072 35.190838
-6.439919 -61.239834 35.519819
-6.783873 -59.981696 36.086252
-7.155384 -60.859941 35.314472
-5.745318 -61.56106 35.687472
-6.439919 -61.239834 35.519819
-5.03016 -61.844316 35.972979
-5.35325 -60.644844 36.577106
-5.745318 -61.56106 35.687472
-4.288632 -62.153736 36.196388
-5.03016 -61.844316 35.972979
-3.962397 -61.228584 37.143298
-4.288632 -62.153736 36.196388
3 49 13 50
3 51 50 11
3 49 50 51
3 0 16 14
3 2 19 17
3 2 21 19
3 1 25 23
3 3 28 26
3 5 29 12
3 5 30 29
3 53 52 31
3 54 32 55
3 7 33 15
3 7 34 33
3 4 35 27
3 8 36 18
3 8 37 36
3 8 38 37
3 57 56 20
3 58 39 59
3 9 40 22
3 9 41 40
3 60 42 61
3 62 43 63
3 64 44 65
3 66 65 43
3 64 65 66
3 67 45 68
3 69 68 44
3 67 68 69
3 6 70 72
3 70 46 71
3 70 71 72
3 10 47 24
3 10 48 47
3 11 12 3
3 13 12 11
3 13 5 12
3 14 73 75
3 73 15 74
3 73 74 75
3 16 15 14
3 16 7 15
3 17 18 4
3 19 18 17
3 19 8 18
3 19 20 8
3 21 20 19
3 21 76 78
3 78 77 20
3 76 77 78
3 79 22 80
3 81 22 82
3 83 9 84
3 85 84 22
3 83 84 85
3 23 24 6
3 25 24 23
3 25 10 24
3 26 27 0
3 28 27 26
3 28 4 27
3 12 28 3
3 29 28 12
3 29 4 28
3 29 17 4
3 30 17 29
3 30 2 17
3 31 86 88
3 88 87 1
3 86 87 88
3 90 89 31
3 32 91 92
3 32 93 95
3 93 6 94
3 93 94 95
3 15 96 98
3 96 32 97
3 96 97 98
3 33 32 15
3 33 6 32
3 33 23 6
3 34 23 33
3 34 1 23
3 27 16 0
3 35 16 27
3 35 7 16
3 18 35 4
3 36 35 18
3 36 7 35
3 36 34 7
3 37 34 36
3 37 1 34
3 37 31 1
3 38 31 37
3 38 99 101
3 101 100 31
3 99 100 101
3 20 38 8
3 102 38 103
3 104 103 20
3 102 103 104
3 106 105 38
3 107 13 108
3 39 109 111
3 109 13 110
3 109 110 111
3 39 5 13
3 22 112 114
3 112 39 113
3 112 113 114
3 40 39 22
3 40 5 39
3 40 30 5
3 41 30 40
3 41 2 30
3 42 115 116
3 42 117 119
3 117 9 118
3 117 118 119
3 120 42 121
3 43 122 124
3 122 42 123
3 122 123 124
3 43 9 42
3 43 41 9
3 44 41 43
3 44 2 41
3 44 21 2
3 45 21 44
3 45 125 127
3 127 126 21
3 125 126 127
3 128 45 129
3 130 45 131
3 133 132 45
3 134 14 135
3 136 14 137
3 138 0 139
3 140 139 14
3 138 139 140
3 141 0 142
3 143 26 144
3 145 144 0
3 143 144 145
3 146 26 147
3 148 3 149
3 150 149 26
3 148 149 150
3 151 3 152
3 153 11 154
3 155 154 3
3 153 154 155
3 156 11 157
3 159 158 11
3 46 160 161
3 46 162 163
3 24 46 6
3 47 46 24
3 47 164 166
3 166 165 46
3 164 165 166
3 47 167 168
3 48 169 171
3 171 170 47
3 169 170 171
3 48 172 173
3 174 25 175
3 176 175 1
3 174 175 176
3 177 25 178
3 179 10 180
3 181 180 25
3 179 180 181
3 182 10 183
3 184 48 185
3 186 185 10
3 184 185 186
3 187 48 188
3 190 189 48
