ply
format ascii 1.0
element vertex 320
property float x
property float y
property float z
element face 305
property list uchar int vertex_index
end_header
26.031067 -67.790031 3.601604
24.975054 -53.520039 -11.647998
24.56238 -39.256119 -20.639332
24.341116 -64.688133 -4.545337
26.188572 -55.039642 -4.454307
23.932398 -58.214592 -10.887802
26.425766 -40.592293 -16.819839
25.191818 -66.193169 -0.598374
26.425909 -62.500351 3.625637
25.686102 -61.236702 -0.56544
27.76811 -49.75716 -4.57391
26.37813 -47.975124 -12.204312
25.373251 -46.833282 -15.951728
24.321716 -52.693142 -15.027761
24.037256 -45.470123 -19.61463
23.713406 -63.121479 -7.709377
26.722076 -56.146263 -0.661412
24.999043 -59.96138 -4.416683
24.493254 -58.73534 -7.669718
27.158449 -48.855785 -8.468848
25.574558 -54.265606 -8.171091
27.163055 -41.378143 -14.843853
25.594769 -67.038483 1.366195
25.132839 -68.900864 -0.737081
25.587225 -69.71373 1.365887
26.546562 -65.843246 5.803885
26.747183 -63.26152 5.691831
26.146656 -65.071938 3.50967
25.740622 -64.392258 1.345937
25.680393 -50.792095 -11.862713
25.330063 -50.200436 -13.644832
24.669336 -53.087967 -13.347469
24.297705 -49.410587 -17.296534
24.777792 -46.160824 -17.745737
24.004902 -63.835236 -6.203253
27.058954 -56.542385 1.454059
24.979809 -62.885078 -2.601972
25.350544 -60.429611 -2.573598
24.622284 -62.189617 -4.440406
24.296209 -61.570026 -6.147343
28.032038 -45.88628 -8.684818
28.399048 -46.370453 -6.626885
26.912741 -52.49329 -4.570746
26.625528 -52.02039 -6.527701
25.935457 -54.489799 -6.29235
25.025408 -56.524788 -7.787255
25.243828 -57.125488 -6.136866
24.423147 -55.948299 -11.22771
25.590096 -39.868164 -18.698154
24.735079 -65.469055 -2.698227
24.250471 -67.249466 -4.564541
24.701426 -67.904427 -2.619664
27.417326 -60.98748 7.843766
27.138014 -60.459095 5.814732
26.824003 -59.891079 3.686486
26.496077 -59.210457 1.488867
26.068192 -61.891445 1.553664
25.339413 -63.70892 -0.705453
27.063635 -45.088772 -12.591047
26.57453 -44.282005 -14.490727
25.905823 -47.36409 -14.14996
24.804016 -49.951862 -15.509103
26.431377 -68.591309 5.857347
26.000454 -70.374054 3.491918
26.409918 -71.060364 5.844449
25.869738 -43.650383 -16.520096
25.108717 -43.010796 -18.400393
24.245596 -42.421883 -20.226137
26.490856 -55.464546 -2.560739
26.115044 -58.74572 -0.678356
25.837782 -58.008774 -2.618954
25.50663 -57.603027 -4.480554
24.717676 -59.390434 -6.085328
24.045977 -60.877499 -7.663431
23.808561 -60.367496 -9.106874
27.581997 -45.493073 -10.652847
26.783024 -48.431049 -10.37763
25.988726 -51.282478 -10.148618
27.478479 -49.309689 -6.535113
26.30698 -51.670593 -8.372715
25.283615 -53.87989 -9.914827
24.695171 -56.258755 -9.587012
24.222437 -58.382217 -9.255693
27.506318 -41.61504 -13.858251
27.878197 -39.953485 -14.029474
24.689744 -37.660023 -20.897368
25.26466 -38.000616 -19.898953
24.035558 -38.842888 -21.547752
24.689744 -37.660023 -20.897368
24.026204 -48.976974 -18.185789
23.849176 -50.587806 -17.950221
24.099894 -65.446872 -5.423094
23.931787 -65.020424 -6.252052
24.173009 -64.261685 -5.374295
27.200606 -56.872915 2.577228
27.521222 -55.496681 2.594629
29.041095 -45.074928 -5.632723
28.8425 -44.924768 -6.696333
23.82805 -58.090426 -11.618339
24.073425 -56.957279 -11.788293
24.177772 -57.081446 -11.057756
26.689754 -39.029587 -16.993452
27.11493 -39.320488 -16.027669
26.007931 -40.230228 -17.758997
26.271918 -38.667523 -17.932609
26.689754 -39.029587 -16.993452
24.94825 -69.705342 -1.769401
25.186274 -70.143238 -0.753008
27.275946 -62.318314 7.938358
27.575457 -61.25226 9.05966
24.104493 -52.496384 -15.917676
24.345643 -51.125743 -16.158347
24.562866 -51.322502 -15.268432
26.619309 -70.111592 7.0842
26.420648 -69.825837 5.850898
26.630038 -68.877064 7.090649
26.630038 -68.877064 7.090649
26.66715 -67.577991 6.946485
23.495382 -63.646849 -8.502948
23.613232 -62.661164 -8.380562
24.056719 -67.92321 -5.518721
24.287424 -68.439682 -4.576709
25.849738 -71.2994 2.431579
26.054455 -71.616066 3.545613
27.10804 -54.787759 -0.552129
27.229278 -55.032246 0.445515
26.606466 -55.805404 -1.611075
26.99243 -54.446901 -1.501793
27.10804 -54.787759 -0.552129
23.613232 -62.661164 -8.380562
23.779518 -61.539174 -8.357589
23.879691 -61.999489 -7.686404
28.240876 -44.182564 -9.774434
28.004284 -43.93786 -10.758222
27.623295 -49.533424 -5.554512
28.091942 -48.073656 -5.563949
28.236757 -48.297392 -4.583347
23.649677 -59.171413 -11.367374
23.76786 -59.147742 -10.657975
27.483574 -39.713413 -15.039675
27.878197 -39.953485 -14.029474
26.79441 -40.985218 -15.831846
27.11493 -39.320488 -16.027669
27.483574 -39.713413 -15.039675
25.413467 -70.549671 0.298477
25.186274 -70.143238 -0.753008
25.360032 -69.307297 0.314403
26.646873 -64.552383 5.747858
26.940875 -63.455333 6.862391
26.840564 -64.746196 6.918418
24.266248 -47.352093 -18.41039
24.537748 -47.785705 -17.521135
24.026204 -48.976974 -18.185789
23.89598 -47.006743 -19.344836
24.407524 -45.815473 -18.680183
24.266248 -47.352093 -18.41039
23.758089 -64.601304 -7.067385
23.612341 -64.244425 -7.820447
23.859154 -63.478358 -6.956315
23.758089 -64.601304 -7.067385
23.931787 -65.020424 -6.252052
27.397717 -55.230306 1.503251
27.521222 -55.496681 2.594629
26.890515 -56.344324 0.396323
27.229278 -55.032246 0.445515
27.397717 -55.230306 1.503251
28.658995 -44.682682 -7.7253
28.465896 -44.379168 -8.790419
28.215543 -46.128366 -7.655851
28.658995 -44.682682 -7.7253
28.8425 -44.924768 -6.696333
24.272327 -55.839405 -12.072452
24.548281 -54.625275 -12.282596
24.699101 -54.734169 -11.437854
24.272327 -55.839405 -12.072452
24.073425 -56.957279 -11.788293
23.82805 -58.090426 -11.618339
23.649677 -59.171413 -11.367374
25.778518 -38.306639 -18.928365
26.271918 -38.667523 -17.932609
25.076238 -39.562141 -19.668743
25.26466 -38.000616 -19.898953
25.778518 -38.306639 -18.928365
24.512901 -68.767162 -3.60427
24.287424 -68.439682 -4.576709
24.475949 -67.576946 -3.592103
24.732543 -69.207123 -2.710693
24.917133 -68.402646 -1.678373
24.94825 -69.705342 -1.769401
24.512901 -68.767162 -3.60427
24.732543 -69.207123 -2.710693
27.742227 -59.984547 9.001571
27.575457 -61.25226 9.05966
27.638345 -59.632475 7.902061
27.742227 -59.984547 9.001571
27.082254 -62.1245 6.767798
27.275946 -62.318314 7.938358
26.940875 -63.455333 6.862391
27.498689 -59.368282 6.887544
27.638345 -59.632475 7.902061
27.27767 -60.723287 6.829249
27.364338 -59.14604 5.813126
27.498689 -59.368282 6.887544
27.207332 -58.862032 4.749003
27.364338 -59.14604 5.813126
26.981009 -60.175087 4.750609
27.08313 -58.547262 3.693442
27.207332 -58.862032 4.749003
26.66004 -59.550768 2.587676
26.919167 -58.206951 2.594632
27.08313 -58.547262 3.693442
28.374575 -48.467334 -3.627602
28.236757 -48.297392 -4.583347
27.906917 -49.946109 -3.611053
28.374575 -48.467334 -3.627602
27.479233 -51.314175 -3.609471
27.340426 -51.125225 -4.572328
27.906917 -49.946109 -3.611053
27.077349 -52.655991 -3.568017
27.479233 -51.314175 -3.609471
26.715264 -53.929167 -3.509797
26.550657 -53.766466 -4.512526
27.077349 -52.655991 -3.568017
26.819083 -44.685389 -13.540887
27.212055 -43.06697 -13.681688
27.456608 -43.470354 -12.731848
24.092488 -50.855106 -17.052062
24.55086 -49.681224 -16.402819
24.345643 -51.125743 -16.158347
23.849176 -50.587806 -17.950221
24.092488 -50.855106 -17.052062
24.395422 -54.409239 -13.132331
24.822195 -53.304003 -12.497733
24.548281 -54.625275 -12.282596
24.266038 -54.229754 -13.923825
24.395422 -54.409239 -13.132331
24.092228 -54.032341 -14.76397
24.495526 -52.890555 -14.187615
24.266038 -54.229754 -13.923825
23.935608 -53.866672 -15.581547
24.092228 -54.032341 -14.76397
24.104493 -52.496384 -15.917676
23.935608 -53.866672 -15.581547
26.259187 -71.959221 4.721878
26.054455 -71.616066 3.545613
26.205186 -70.717209 4.668183
26.585968 -71.501889 7.020601
26.619309 -70.111592 7.0842
26.451669 -72.405491 5.910562
26.585968 -71.501889 7.020601
26.259187 -71.959221 4.721878
26.451669 -72.405491 5.910562
26.724743 -66.20396 6.919754
26.840564 -64.746196 6.918418
26.48897 -67.217277 5.830616
26.724743 -66.20396 6.919754
26.66715 -67.577991 6.946485
26.868792 -42.830074 -14.66729
27.506318 -41.61504 -13.858251
27.212055 -43.06697 -13.681688
23.557938 -46.603544 -20.234348
23.89598 -47.006743 -19.344836
23.59534 -45.125589 -20.560998
23.557938 -46.603544 -20.234348
23.699509 -43.601469 -20.866751
24.141426 -43.946003 -19.920383
23.59534 -45.125589 -20.560998
23.761941 -41.987694 -21.152479
23.699509 -43.601469 -20.866751
23.920333 -40.404812 -21.359077
24.403988 -40.839001 -20.432735
23.761941 -41.987694 -21.152479
24.035558 -38.842888 -21.547752
23.920333 -40.404812 -21.359077
23.495382 -63.646849 -8.502948
23.612341 -64.244425 -7.820447
24.054571 -66.727539 -5.432695
24.099894 -65.446872 -5.423094
24.295794 -65.968799 -4.554939
24.054571 -66.727539 -5.432695
24.056719 -67.92321 -5.518721
25.643124 -70.969238 1.368563
25.79384 -70.043892 2.428902
25.849738 -71.2994 2.431579
25.413467 -70.549671 0.298477
25.643124 -70.969238 1.368563
26.866407 -54.141618 -2.563013
26.99243 -54.446901 -1.501793
26.339714 -55.252094 -3.507523
26.715264 -53.929167 -3.509797
26.866407 -54.141618 -2.563013
26.777515 -57.876421 1.471463
27.200606 -56.872915 2.577228
26.919167 -58.206951 2.594632
23.660809 -61.284172 -9.079311
23.927269 -60.622498 -8.385153
23.779518 -61.539174 -8.357589
23.596072 -60.97234 -9.597738
23.660809 -61.284172 -9.079311
27.745103 -43.73571 -11.727322
27.456608 -43.470354 -12.731848
27.322816 -45.290923 -11.621947
27.745103 -43.73571 -11.727322
28.004284 -43.93786 -10.758222
27.807018 -45.689677 -9.668833
28.240876 -44.182564 -9.774434
28.465896 -44.379168 -8.790419
28.552226 -46.604039 -5.609834
29.041095 -45.074928 -5.632723
27.938764 -47.840071 -6.580999
28.552226 -46.604039 -5.609834
28.091942 -48.073656 -5.563949
23.91288 -59.231554 -9.841921
23.76786 -59.147742 -10.657975
24.077417 -58.298405 -10.071748
23.705942 -60.224193 -9.767511
23.91288 -59.231554 -9.841921
24.015499 -59.374856 -9.181283
23.596072 -60.97234 -9.597738
23.705942 -60.224193 -9.767511
3 83 21 84
3 0 24 22
3 0 27 25
3 0 22 27
3 1 31 29
3 2 85 86
3 2 87 88
3 90 89 32
3 3 91 93
3 93 92 34
3 91 92 93
3 94 35 95
3 3 38 36
3 3 34 38
3 96 41 97
3 4 44 42
3 4 46 44
3 5 98 100
3 100 99 47
3 98 99 100
3 6 101 102
3 6 103 105
3 103 48 104
3 103 104 105
3 7 51 49
3 107 106 23
3 108 52 109
3 8 53 26
3 8 54 53
3 8 56 54
3 7 57 28
3 7 49 57
3 11 60 58
3 13 61 30
3 13 110 112
3 112 111 61
3 110 111 112
3 113 64 114
3 115 114 62
3 113 114 115
3 116 62 117
3 12 65 59
3 14 66 33
3 14 67 66
3 15 118 119
3 121 120 50
3 123 122 63
3 16 124 125
3 16 126 128
3 126 68 127
3 126 127 128
3 9 69 55
3 17 70 37
3 17 71 70
3 17 72 71
3 15 73 39
3 15 129 131
3 131 130 73
3 129 130 131
3 132 75 133
3 19 76 40
3 19 77 76
3 10 134 136
3 134 78 135
3 134 135 136
3 20 79 43
3 20 80 79
3 20 81 80
3 18 82 45
3 18 74 82
3 138 137 5
3 21 139 140
3 21 141 143
3 141 6 142
3 141 142 143
3 22 23 7
3 24 23 22
3 24 144 146
3 146 145 23
3 144 145 146
3 25 147 149
3 147 26 148
3 147 148 149
3 27 26 25
3 27 8 26
3 27 28 8
3 22 28 27
3 22 7 28
3 29 30 11
3 31 30 29
3 31 13 30
3 32 33 12
3 150 33 151
3 152 151 32
3 150 151 152
3 153 14 154
3 155 154 33
3 153 154 155
3 34 156 158
3 158 157 15
3 156 157 158
3 160 159 34
3 35 161 162
3 35 163 165
3 163 16 164
3 163 164 165
3 36 37 9
3 38 37 36
3 38 17 37
3 38 39 17
3 34 39 38
3 34 15 39
3 166 40 167
3 41 168 170
3 168 40 169
3 168 169 170
3 41 19 40
3 42 43 10
3 44 43 42
3 44 20 43
3 44 45 20
3 46 45 44
3 46 18 45
3 47 171 173
3 173 172 1
3 171 172 173
3 175 174 47
3 177 176 5
3 48 178 179
3 48 180 182
3 180 2 181
3 180 181 182
3 49 50 3
3 51 50 49
3 51 183 185
3 185 184 50
3 183 184 185
3 23 51 7
3 186 51 187
3 188 187 23
3 186 187 188
3 190 189 51
3 52 191 192
3 52 193 194
3 26 195 197
3 195 52 196
3 195 196 197
3 53 52 26
3 53 198 200
3 200 199 52
3 198 199 200
3 53 201 202
3 54 203 205
3 205 204 53
3 203 204 205
3 54 206 207
3 54 208 210
3 208 55 209
3 208 209 210
3 56 55 54
3 56 9 55
3 28 56 8
3 57 56 28
3 57 9 56
3 57 36 9
3 49 36 57
3 49 3 36
3 211 10 212
3 213 10 214
3 215 42 216
3 217 216 10
3 215 216 217
3 218 42 219
3 220 4 221
3 222 221 42
3 220 221 222
3 58 223 225
3 223 59 224
3 223 224 225
3 60 59 58
3 60 12 59
3 30 60 11
3 61 60 30
3 61 12 60
3 61 32 12
3 226 32 227
3 228 227 61
3 226 227 228
3 230 229 32
3 231 31 232
3 233 232 1
3 231 232 233
3 234 31 235
3 236 13 237
3 238 237 31
3 236 237 238
3 239 13 240
3 242 241 13
3 62 63 0
3 64 63 62
3 64 243 245
3 245 244 63
3 243 244 245
3 246 64 247
3 248 64 249
3 251 250 64
3 252 25 253
3 62 254 256
3 254 25 255
3 254 255 256
3 62 0 25
3 59 257 259
3 257 21 258
3 257 258 259
3 65 21 59
3 65 6 21
3 33 65 12
3 66 65 33
3 66 6 65
3 66 48 6
3 67 48 66
3 67 2 48
3 260 14 261
3 262 14 263
3 264 67 265
3 266 265 14
3 264 265 266
3 267 67 268
3 269 2 270
3 271 270 67
3 269 270 271
3 273 272 2
3 275 274 15
3 50 276 278
3 278 277 3
3 276 277 278
3 280 279 50
3 63 24 0
3 281 24 282
3 283 282 63
3 281 282 283
3 285 284 24
3 68 286 287
3 68 288 290
3 288 4 289
3 288 289 290
3 55 291 293
3 291 35 292
3 291 292 293
3 69 35 55
3 69 16 35
3 37 69 9
3 70 69 37
3 70 16 69
3 70 68 16
3 71 68 70
3 71 4 68
3 71 46 4
3 72 46 71
3 72 18 46
3 39 72 17
3 73 72 39
3 73 18 72
3 73 74 18
3 294 74 295
3 296 295 73
3 294 295 296
3 298 297 74
3 299 58 300
3 75 301 303
3 301 58 302
3 301 302 303
3 75 11 58
3 40 304 306
3 304 75 305
3 304 305 306
3 76 75 40
3 76 11 75
3 76 29 11
3 77 29 76
3 77 1 29
3 307 41 308
3 78 309 311
3 309 41 310
3 309 310 311
3 78 19 41
3 43 78 10
3 79 78 43
3 79 19 78
3 79 77 19
3 80 77 79
3 80 1 77
3 80 47 1
3 81 47 80
3 81 5 47
3 45 81 20
3 82 81 45
3 82 5 81
3 82 312 314
3 314 313 5
3 312 313 314
3 74 315 317
3 317 316 82
3 315 316 317
3 74 318 319
