ply
format ascii 1.0
element vertex 1118
property float x
property float y
property float z
element face 1241
property list uchar int vertex_index
end_header
40.655075 8.710883 15.501492
19.849127 12.642424 41.263847
24.247095 9.638888 -4.673269
36.641014 8.518458 3.185251
32.180099 13.522241 26.477575
35.715122 24.628529 10.689259
16.637897 14.193645 -11.092503
40.303638 8.885671 9.317939
14.797931 28.089905 -25.86307
25.919222 13.59818 33.838985
28.135628 6.579226 34.027905
21.810205 5.548728 40.891373
22.996117 21.442839 34.727409
29.044535 21.139059 26.407442
34.468109 28.166361 3.428074
19.403397 11.557962 -7.448521
30.506926 8.720724 -1.543802
37.620655 11.782402 20.172951
38.735832 3.83157 21.969328
34.050816 5.806372 27.990456
34.859829 19.846241 18.602417
39.374695 15.777584 12.507691
15.576838 17.085634 -16.251871
22.841383 22.780428 -7.356618
28.686516 20.817019 -4.745104
34.4482 19.220753 -0.701542
38.353561 17.856066 5.136202
40.869465 8.787722 12.716676
40.571171 4.811531 12.371601
40.733307 5.508382 15.518954
22.820293 13.175031 37.669136
23.96962 9.666069 37.376129
20.932266 9.068628 40.917347
21.614717 16.977177 38.033085
24.589615 17.30575 34.169796
21.550123 10.362241 -6.022833
33.766495 8.313269 0.670713
35.011791 12.890176 23.267584
36.054867 8.890241 24.051184
33.132675 9.78984 27.240597
25.834152 2.76808 37.637169
28.808155 2.772061 34.730026
30.736271 17.376837 26.219358
32.030979 20.748652 22.330256
33.593971 16.795958 22.775997
36.537464 15.778339 19.132441
31.658659 19.966854 -2.9762
35.303745 26.627508 6.899845
36.607903 23.018932 4.004755
37.525612 21.748247 7.494498
39.259712 16.97678 8.620244
37.83844 20.065977 11.325344
15.901013 15.705831 -13.546598
38.94191 8.641575 6.243279
39.485149 4.28959 9.097581
15.168272 33.333366 -33.039062
29.048443 13.749343 30.081121
30.243853 10.0481 30.374304
27.012207 10.042154 33.893505
24.86805 6.277596 37.486397
22.600655 2.188484 40.98761
27.007992 25.292892 26.887321
25.906731 21.295849 30.759251
27.566795 17.467093 30.265463
17.789938 12.889524 -9.063014
16.661121 12.050678 44.85001
17.722254 8.388598 44.521973
27.339838 9.001128 -3.196563
12.710616 40.868866 -44.33905
39.632809 10.24356 17.425463
39.974537 6.548774 18.375612
38.396996 7.827852 21.048834
36.718647 5.029549 24.866568
34.764698 1.760077 28.689371
31.198622 6.370347 30.93722
31.910122 2.526363 31.660109
18.686041 4.940249 44.289268
19.480726 1.623837 44.240585
33.194679 26.780291 14.496835
29.841433 24.90353 22.649263
32.844326 23.885817 18.435104
35.616108 22.363123 14.530934
37.478729 18.062624 15.281532
38.845718 14.024404 16.234385
40.319271 11.869226 14.004839
14.479213 23.106113 -20.167067
14.366546 22.344215 -17.263119
14.723828 21.456038 -14.626406
15.551583 20.460873 -12.190374
16.806643 19.147751 -10.227717
18.472181 18.176514 -8.689671
20.740166 17.124336 -7.336986
23.358868 15.938428 -6.108847
25.649744 21.550053 -6.135771
26.35968 14.932059 -4.804254
29.64995 14.371533 -3.264957
32.714741 13.963493 -1.440982
35.647717 13.823578 0.923218
35.081924 23.934978 0.857596
36.686092 18.63166 1.968557
38.001537 13.48786 3.795793
39.574043 13.127286 6.955619
40.371372 12.674108 10.559235
40.837219 8.653033 14.321334
40.881977 7.023566 13.986848
40.761684 7.359546 15.415837
21.300669 12.911549 39.53017
21.9606 11.132167 39.233715
20.43626 10.756422 41.056717
19.237617 14.501828 41.510559
20.019526 16.836351 40.011192
20.804052 14.882208 39.598244
22.302345 15.044436 37.753933
22.841787 10.05877 -5.360593
22.104624 7.656668 -5.391988
23.378239 7.180956 -4.663148
35.205048 8.411438 1.816845
34.286911 5.88457 1.845213
33.646076 13.254998 24.818609
34.211685 11.236676 25.21018
32.722202 11.706654 26.767351
24.602613 0.885098 39.363281
26.225416 0.931722 37.791096
31.33634 15.379067 26.533663
32.18721 16.988773 24.547197
32.953354 15.119183 24.642256
34.464272 14.912031 22.781305
35.598045 25.601166 8.830927
36.451904 24.211031 7.114697
36.69521 23.369459 8.989029
37.719036 21.075163 9.308796
36.827374 22.333782 10.996354
16.212353 14.988063 -12.259239
39.711094 8.702167 7.750458
39.197086 6.28582 7.552872
39.986229 6.613249 9.182186
40.519398 3.008048 14.026739
14.47219 30.733225 -27.043129
15.005258 30.74239 -29.151543
27.450386 13.712362 31.979658
28.065136 12.034418 31.945797
26.535313 11.868447 33.748734
22.90246 7.553801 39.173584
24.411661 7.936379 37.434975
23.335781 5.968876 39.175423
23.820539 4.280842 39.177429
22.292339 3.888329 40.844131
21.515133 21.233072 36.796707
23.615004 23.579861 32.955944
25.047516 23.421677 30.946447
24.442547 21.349201 32.778297
25.301983 15.371654 33.958382
26.023222 17.478609 32.259769
26.820295 15.488737 32.035297
28.323029 15.466757 30.192444
18.522884 12.340609 -8.23081
19.08622 9.341042 -7.725604
15.070654 11.775023 46.512337
15.587392 9.754637 46.408546
28.902306 8.605126 -2.360826
27.737858 6.169209 -2.363871
29.401955 5.827757 -1.401584
13.597275 39.701786 -40.23275
12.679545 41.495243 -41.716728
38.77549 11.018592 18.668819
39.101471 9.199796 19.108885
38.082069 9.857946 20.553003
35.097527 7.439917 25.990871
36.466309 7.056085 24.358355
35.435848 5.49936 26.411337
35.776516 3.36587 26.813869
34.472801 3.828369 28.287275
29.208035 8.386812 32.197124
30.743269 8.22715 30.63092
29.629028 6.412326 32.562126
30.367296 2.731998 33.187084
18.18248 6.602326 44.434826
28.041208 23.218369 26.620659
28.433296 25.078291 24.782841
29.455662 23.080395 24.578438
33.487041 20.27401 20.473635
32.392159 22.434404 20.484482
33.889709 21.725994 18.594809
34.307655 23.049641 16.531269
35.343327 21.10425 16.538914
36.615669 20.233486 14.799624
36.223743 19.014879 16.915203
37.13953 13.710794 19.669008
37.762783 14.876745 17.71513
38.319092 12.916172 18.211321
39.315796 11.998301 16.892113
14.379296 22.641563 -18.683058
13.983003 24.938477 -17.911606
14.697246 23.988718 -13.989057
15.078503 21.012962 -13.346863
15.17311 23.809757 -12.845312
16.414507 22.440378 -10.907844
17.251343 22.165356 -10.062655
17.563465 18.670429 -9.429261
18.160326 21.506798 -9.304261
20.396177 20.431572 -7.968085
21.703032 19.992001 -7.365677
22.038139 16.492252 -6.7021
22.990953 19.388012 -6.7912
27.151794 21.078035 -5.466533
25.937727 18.148092 -5.513575
27.512602 17.930315 -4.853378
27.984238 14.677717 -4.08987
29.108881 17.384121 -4.059056
33.124584 19.70632 -1.88588
32.256737 16.95969 -2.24197
33.690865 16.805107 -1.192468
34.172058 13.979621 -0.394431
35.06953 16.323895 0.047039
33.836128 28.922537 1.775246
34.143215 26.74966 0.519183
34.876728 26.253429 1.968316
37.528019 20.49111 4.512877
36.748119 21.125988 2.839202
37.610821 18.431486 3.562331
37.427723 16.051382 2.857065
38.301151 15.6707 4.331423
38.892254 13.270468 5.3536
39.015087 15.498898 5.958756
39.41391 16.452065 10.516756
39.898827 14.757511 9.587754
40.001225 14.322165 11.442293
40.442619 12.292892 12.330823
39.926449 13.71503 13.287246
14.158882 25.588919 -21.094669
39.41888 5.307137 20.088066
40.044506 4.682498 18.645746
39.483093 3.243106 20.471823
40.694817 8.785225 11.024148
40.504761 6.718512 10.826216
40.801186 6.835083 12.458958
40.76054 5.072699 13.980565
40.591286 3.408828 15.635812
24.35219 13.409813 35.771637
24.999886 11.692884 35.568928
23.373524 11.453943 37.517715
22.527927 9.403725 39.058983
21.432514 7.317049 40.820351
20.888239 19.077171 38.30838
22.396809 19.208447 36.337147
23.827532 19.393833 34.395557
23.177105 17.160759 36.018314
23.691189 15.171882 36.014992
20.415445 11.143226 -6.736683
32.185516 8.377358 -0.446914
31.029858 5.818552 -0.447948
32.692749 5.772476 0.663872
14.408243 37.745361 -38.713966
36.370213 12.395561 21.692293
36.892139 10.43741 22.071922
35.642265 10.879211 23.567268
34.684502 9.386571 25.573992
33.752251 7.913882 27.407473
26.973335 4.659873 35.897598
28.447496 4.66397 34.428631
27.338823 2.873296 36.137806
27.726336 0.981255 36.338299
29.915092 19.18767 26.305815
30.499741 21.116968 24.328094
31.425591 19.088272 24.301588
32.884773 18.779787 22.455362
34.403698 18.218773 20.62895
35.760193 17.752987 18.853052
35.155865 16.347582 20.85634
35.891891 14.353545 21.139109
30.167566 20.243294 -3.912253
33.730434 22.179741 -1.324572
34.973698 27.363728 5.02496
35.579323 25.533493 3.570084
36.129448 24.822063 5.332055
37.166775 22.388481 5.790702
38.096012 19.9062 6.221335
38.82793 17.734013 6.834398
38.447937 19.397167 8.01763
38.639324 18.756636 9.777163
38.715355 17.829386 11.794136
38.012604 2.312611 23.784576
38.840622 1.613489 22.335985
15.722299 16.303753 -14.832928
37.871464 8.641675 4.622924
37.114998 6.075465 4.559154
38.285854 6.147512 6.084343
40.15118 4.580669 10.731474
30.598675 13.69078 28.28233
31.098629 11.903388 28.560471
29.590677 11.980919 30.242712
28.627974 10.22901 32.059696
27.615479 8.28665 33.912342
25.423588 9.818369 35.716537
25.91692 8.139351 35.759789
26.507357 6.517914 35.715561
25.395424 4.613304 37.488026
24.266407 2.632846 39.215057
23.106689 0.621101 40.879665
25.538952 25.393175 29.131512
26.5354 23.231735 28.855194
27.476776 21.207249 28.593082
25.276352 19.343868 32.488663
26.735073 19.387157 30.507359
28.378426 19.357443 28.298918
29.131672 17.328875 28.313931
29.841173 15.502716 28.312883
17.162601 13.496894 -10.019548
18.282232 12.346998 43.067879
18.876719 10.54535 42.82399
17.253719 10.149956 44.63295
16.083881 7.911573 46.288261
25.738052 9.110221 -3.930309
24.818535 6.602633 -3.866493
26.274675 6.293883 -3.109717
11.587182 42.231335 -45.594341
14.708333 35.613155 -34.691128
40.27116 9.438008 16.339273
40.419041 7.793043 16.702471
39.875675 8.435189 17.871088
39.281406 7.23893 19.678061
38.545399 5.741583 21.667519
37.301697 8.518085 22.467073
37.573486 6.456353 22.997978
37.737198 4.365922 23.566948
36.963448 2.874968 25.316425
36.009033 1.398601 27.194443
31.734457 10.11361 28.688044
32.219597 8.077451 29.084507
32.675957 6.23227 29.386467
29.988178 4.634559 32.885166
31.465256 4.435524 31.429386
32.996819 4.343891 29.800705
33.41328 2.367683 30.07091
19.294487 8.640429 42.803822
19.871277 6.960163 42.579494
20.268991 5.321519 42.559635
19.118042 3.285 44.227787
20.65613 3.646386 42.578899
21.095795 2.05522 42.526318
21.479025 0.375277 42.533253
34.569027 25.656631 12.591704
28.776726 26.928774 22.803534
30.272945 26.397703 20.673859
30.947502 22.775278 22.507015
31.348289 24.436226 20.53615
31.640278 26.027943 18.553425
33.135429 25.289465 16.432346
34.44437 24.472116 14.584446
35.744198 23.462873 12.667699
36.811012 21.264696 12.920585
37.751667 19.136806 13.225969
38.461407 17.163076 13.797648
37.111107 16.872108 17.223616
38.205379 16.06027 15.730075
39.144371 15.118092 14.315808
39.685421 12.9955 15.069182
40.070057 11.091269 15.710295
40.570179 10.050116 14.829625
14.96555 20.644585 -19.509972
14.857209 20.282162 -18.096081
14.903612 19.679321 -16.747414
14.102258 24.637968 -16.50844
14.517402 21.757034 -15.890824
15.051956 19.001766 -15.30711
15.240808 18.645809 -13.964992
15.570667 17.994093 -12.800394
16.035353 17.117704 -11.649257
15.767008 23.129362 -11.799821
16.122335 19.636623 -11.166677
16.569969 16.465635 -10.611567
17.226845 16.005323 -9.656914
17.998785 15.385346 -8.81402
18.91157 14.86362 -8.05164
19.196918 20.92815 -8.613367
19.543169 17.598213 -7.979899
19.901121 14.422801 -7.392573
21.076744 13.758564 -6.709657
22.342155 13.183116 -6.067821
23.658747 12.65385 -5.446149
24.165472 22.254913 -6.793735
24.422136 18.702602 -6.163783
24.749077 15.417619 -5.504853
25.206629 12.259515 -4.762065
26.781961 11.805683 -4.033105
28.422337 11.721244 -3.298103
29.967579 11.415853 -2.482389
30.702097 17.141705 -3.205956
31.181591 14.241516 -2.431258
31.703632 11.244583 -1.483003
33.331478 11.129239 -0.400931
34.800919 11.209645 0.705628
36.196381 11.077176 2.020424
34.859695 21.643021 -0.098147
35.907787 23.569632 2.388891
35.943939 21.364697 1.39703
35.590714 19.016365 0.528894
36.309967 16.278839 1.359302
36.948921 13.610269 2.359555
37.424633 11.129517 3.384004
38.454811 11.08395 4.837113
39.344952 10.975943 6.457502
40.019257 10.993119 8.131495
39.545502 15.242943 7.710538
40.084522 12.970192 8.74171
40.449383 10.888995 9.773938
40.689064 10.667967 11.473401
40.728523 10.377865 13.230712
14.238689 28.304108 -23.896578
14.493759 25.688774 -22.734564
14.819618 23.130459 -21.726257
40.486679 5.995924 16.912321
40.43375 3.921005 17.1849
40.297375 1.807937 17.459362
36.203037 7.200389 3.179009
35.485054 7.14688 2.494806
35.923031 8.464948 2.501048
24.780822 -0.000511 39.402065
24.012238 -0.150206 40.164703
16.780286 13.257448 -11.44606
16.567515 13.654657 -12.029428
16.425125 14.590854 -11.675871
40.348786 1.894598 14.104999
40.43389 2.098714 14.960838
15.092428 28.171351 -26.907291
14.929557 29.493011 -27.49732
14.63506 29.411565 -26.4531
22.533532 22.444137 34.967552
21.793039 22.339253 36.002201
22.255625 21.337955 35.762058
23.30556 22.51135 33.841677
22.842975 23.512648 34.08182
22.533532 22.444137 34.967552
14.480629 10.641292 47.304358
14.226239 11.640932 47.34644
14.226239 11.640932 47.34644
14.682592 12.792806 46.67917
13.686602 39.499128 -41.530005
14.175456 38.58701 -40.722231
13.827376 26.417088 -18.362839
13.98796 25.098496 -18.666061
14.804884 25.567313 -13.769588
14.555454 25.646225 -14.342465
15.042816 25.477832 -13.197716
14.935178 23.899237 -13.417185
14.804884 25.567313 -13.769588
17.622235 23.518189 -9.976714
17.149287 23.859799 -10.379143
18.076727 23.18891 -9.597517
17.705835 21.836077 -9.683458
17.622235 23.518189 -9.976714
22.272208 21.386215 -7.361147
21.598248 21.666064 -7.657502
22.167423 23.060278 -7.652973
27.919155 20.947527 -5.105818
27.712049 22.564613 -5.384259
28.479411 22.434105 -5.023544
15.964509 16.249491 -16.806342
15.531586 17.507373 -16.963435
21.258937 9.18508 -6.066487
20.691598 9.575572 -6.423412
20.982784 10.752733 -6.379758
21.890949 6.45868 -5.426152
22.457701 6.228333 -5.030169
33.807467 4.599413 1.896541
34.519755 4.641903 2.487779
14.26062 37.81071 -37.43988
13.940654 38.835583 -38.216688
27.112434 0.002713 37.170777
26.975876 0.956489 37.064698
26.361973 -0.022054 37.897175
27.920575 0.026356 36.400476
27.112434 0.002713 37.170777
33.346495 23.634962 -1.574021
33.103141 22.467486 -1.903215
38.041573 1.14735 24.040976
37.568013 1.559659 24.757295
16.202432 14.729852 -14.007174
16.113075 15.028813 -14.650339
15.811656 16.004792 -14.189763
39.025442 4.058377 8.322589
38.881411 5.056492 7.550235
39.341117 5.287705 8.325226
39.160697 2.996707 9.130837
39.025442 4.058377 8.322589
15.328311 30.790578 -30.355266
15.521069 29.576004 -29.60104
24.766733 25.549182 30.235879
25.012224 26.516463 29.293308
17.791021 11.813745 -9.319409
17.477353 12.11743 -9.797676
17.47627 13.193209 -9.541281
15.225133 7.73009 47.158712
15.835636 8.833105 46.348404
14.976888 8.651623 47.218854
15.486287 6.803544 47.096096
15.225133 7.73009 47.158712
17.15014 13.177248 44.088785
16.328579 13.085839 44.972065
17.471677 12.198838 43.958945
17.960695 13.325408 43.197719
17.15014 13.177248 44.088785
27.324632 4.860795 -2.282598
28.047584 4.81455 -1.871022
30.519615 4.574834 -0.406694
31.381751 4.551848 0.164692
36.684386 4.813386 4.56389
37.306547 4.86521 5.292616
12.200536 41.950397 -43.734572
12.185 42.263586 -42.423411
12.69508 41.182054 -43.027889
12.148899 41.5501 -44.966696
11.638819 42.631632 -44.362217
12.200536 41.950397 -43.734572
12.698482 40.586141 -45.591829
12.136765 41.267376 -46.219475
12.148899 41.5501 -44.966696
14.938302 34.47326 -33.865095
14.487023 35.669456 -33.48182
14.716992 34.529562 -32.655787
34.877402 0.774377 28.866917
35.499569 0.593639 28.119453
35.386865 1.579339 27.941907
19.299384 2.454419 44.234186
18.480348 2.200545 45.097727
18.66169 1.369963 45.104126
20.914649 -0.622795 43.274916
20.682692 0.230363 43.34766
21.700674 -0.43897 42.47859
20.914649 -0.622795 43.274916
33.237302 27.39088 13.510387
32.558604 27.853962 14.572419
33.881853 26.218461 13.54427
33.924476 26.82905 12.557821
33.237302 27.39088 13.510387
27.185859 26.267555 25.919429
26.434124 26.343404 27.121527
14.722382 21.875349 -19.83852
15.049785 20.890549 -20.217787
14.806617 22.121313 -20.546335
14.066195 26.160199 -16.239429
13.947793 26.131793 -16.898223
14.620615 21.606536 -15.258615
14.416398 23.122584 -15.584152
14.519611 22.972086 -14.951942
16.000357 24.64859 -11.676683
15.642012 24.829974 -12.14287
19.696109 22.426831 -8.595136
19.118749 22.672675 -8.910956
25.522402 23.279593 -6.415782
26.238332 23.056374 -6.086227
24.907608 21.902483 -6.464753
24.780266 23.632023 -6.744764
25.522402 23.279593 -6.415782
34.568325 24.300943 0.165259
34.098971 25.708284 -0.003948
34.612569 25.342319 0.688389
34.97081 22.789 0.379725
34.457211 23.154964 -0.312613
34.568325 24.300943 0.165259
14.068564 28.257216 -23.005403
13.961751 29.568056 -23.526837
14.196099 26.949548 -22.424397
14.366224 26.996441 -23.315571
14.068564 28.257216 -23.005403
14.806617 22.121313 -20.546335
14.976819 22.133486 -21.32593
14.649415 23.118286 -20.946662
40.225708 3.262289 18.068583
40.239128 4.301751 17.915323
40.031086 3.643035 18.799006
40.157521 2.205755 18.205814
40.365563 2.864471 17.322131
40.225708 3.262289 18.068583
39.17014 1.345185 21.549038
38.864317 0.498717 22.482793
24.445851 5.477901 -3.8723
25.153533 5.255979 -3.452349
19.628571 15.66909 40.760875
19.236127 16.66948 40.961775
18.845173 15.502218 41.711458
23.094508 5.990476 -4.665749
22.457701 6.228333 -5.030169
22.741432 7.418812 -5.027568
35.025986 5.883446 2.50899
34.74598 7.148004 1.831029
35.485054 7.14688 2.494806
34.519755 4.641903 2.487779
35.025986 5.883446 2.50899
25.592223 0.022801 38.615972
25.414015 0.90841 38.577189
24.780822 -0.000511 39.402065
26.361973 -0.022054 37.897175
25.592223 0.022801 38.615972
16.43947 14.011432 -12.681255
16.283801 14.370316 -13.324934
16.056683 15.346947 -12.902919
16.43947 14.011432 -12.681255
16.567515 13.654657 -12.029428
40.366656 2.830213 13.20643
40.392542 3.731954 12.378861
40.545285 3.909789 13.19917
40.366656 2.830213 13.20643
40.348786 1.894598 14.104999
14.738724 30.737808 -28.097336
14.58118 32.082203 -28.779884
14.314646 32.077621 -27.725676
15.196091 29.497593 -28.551527
14.738724 30.737808 -28.097336
14.929557 29.493011 -27.49732
15.521069 29.576004 -29.60104
15.196091 29.497593 -28.551527
21.072639 22.331029 36.992086
20.758622 21.19211 37.786312
21.072639 22.331029 36.992086
21.793039 22.339253 36.002201
23.107008 24.569579 33.236143
22.842975 23.512648 34.08182
23.804759 24.642525 32.148095
23.107008 24.569579 33.236143
24.33126 23.500769 31.951196
24.521015 24.563433 31.143346
23.804759 24.642525 32.148095
18.451242 11.181366 -8.418939
18.08477 11.455824 -8.835041
18.156411 12.615067 -8.646912
18.732911 9.681583 -8.166336
18.451242 11.181366 -8.418939
18.804552 10.840826 -7.978207
19.121287 8.320147 -7.883549
18.732911 9.681583 -8.166336
14.738998 9.631099 47.252462
15.329023 10.76483 46.460442
14.480629 10.641292 47.304358
14.976888 8.651623 47.218854
14.738998 9.631099 47.252462
15.533345 12.948012 45.803229
14.682592 12.792806 46.67917
15.865887 11.91285 45.681173
16.328579 13.085839 44.972065
15.533345 12.948012 45.803229
28.879632 4.643824 -1.389879
28.047584 4.81455 -1.871022
28.569907 5.998483 -1.882728
13.13841 40.598515 -40.974739
12.687127 41.694615 -40.516832
13.145992 40.797886 -39.774843
13.227736 40.395857 -42.271994
13.13841 40.598515 -40.974739
13.686602 39.499128 -41.530005
13.243272 40.082668 -43.583154
12.69508 41.182054 -43.027889
13.227736 40.395857 -42.271994
13.284273 39.926391 -44.886288
13.243272 40.082668 -43.583154
15.443652 33.405227 -34.309019
15.727292 32.213515 -33.5065
29.828065 1.892477 33.994707
29.587725 2.752029 33.958555
29.048495 1.912508 34.766178
30.542287 1.750498 33.329216
29.828065 1.892477 33.994707
31.3137 1.64768 32.565728
31.138709 2.62918 32.423597
30.542287 1.750498 33.329216
32.089681 1.539525 31.79685
31.3137 1.64768 32.565728
17.363023 6.344416 45.32288
17.952367 7.495462 44.4784
17.13291 7.237552 45.366454
17.658908 5.575159 45.191269
17.363023 6.344416 45.32288
17.910688 4.744121 45.11849
18.434261 5.771287 44.362047
17.658908 5.575159 45.191269
18.853434 0.549458 45.071657
18.66169 1.369963 45.104126
19.683542 0.854644 44.201326
18.853434 0.549458 45.071657
32.575724 27.079277 15.492752
32.558604 27.853962 14.572419
14.186107 23.95004 -19.051786
14.429254 22.873838 -19.425062
14.236065 24.182315 -19.793791
14.18115 23.79002 -18.297332
14.186107 23.95004 -19.051786
13.98796 25.098496 -18.666061
14.506321 24.238426 -14.633268
14.555454 25.646225 -14.342465
14.710537 22.722378 -14.307731
14.519611 22.972086 -14.951942
14.506321 24.238426 -14.633268
16.73087 23.99731 -10.801738
16.324107 24.304098 -11.230695
16.832925 22.302867 -10.48525
16.73087 23.99731 -10.801738
17.149287 23.859799 -10.379143
20.94482 21.88585 -7.958706
20.295738 22.178542 -8.272495
21.049605 20.211786 -7.666881
20.94482 21.88585 -7.958706
21.598248 21.666064 -7.657502
26.989357 22.820365 -5.751608
27.712049 22.564613 -5.384259
26.400769 21.314044 -5.801152
26.238332 23.056374 -6.086227
26.989357 22.820365 -5.751608
33.989672 27.836098 1.147215
33.656828 28.166489 0.445201
33.503284 29.252928 1.073233
13.930813 26.830964 -20.723554
14.028661 26.899621 -21.604449
14.0759 25.423718 -20.257592
13.930813 26.830964 -20.723554
14.236065 24.182315 -19.793791
14.319047 24.347516 -20.630868
14.0759 25.423718 -20.257592
39.750379 2.923339 19.712045
40.031086 3.643035 18.799006
39.763799 3.962802 19.558785
40.469834 2.299104 15.765375
40.43389 2.098714 14.960838
40.555342 3.208438 14.831276
15.246703 26.96189 -26.254058
14.907489 26.934153 -25.240931
19.629528 17.847231 40.198763
19.236127 16.66948 40.961775
20.063885 18.967641 39.347357
19.629528 17.847231 40.198763
20.453882 17.956761 39.159786
20.445175 20.114159 38.542148
20.063885 18.967641 39.347357
21.201686 20.155121 37.552543
20.758622 21.19211 37.786312
20.445175 20.114159 38.542148
20.176139 9.962162 -6.824922
19.670116 10.16953 -7.180841
19.909421 11.350594 -7.092602
20.176139 9.962162 -6.824922
20.691598 9.575572 -6.423412
21.536188 7.832293 -5.751065
21.258937 9.18508 -6.066487
21.827374 9.009455 -5.70741
21.536188 7.832293 -5.751065
21.890949 6.45868 -5.426152
32.213196 4.52881 0.720602
31.381751 4.551848 0.164692
31.861303 5.795514 0.107962
33.010385 4.543367 1.305871
33.48983 5.828523 1.254542
33.807467 4.599413 1.896541
32.213196 4.52881 0.720602
33.010385 4.543367 1.305871
13.53517 39.813795 -38.97608
13.145992 40.797886 -39.774843
14.002759 38.723574 -39.473358
13.53517 39.813795 -38.97608
13.940654 38.835583 -38.216688
14.58094 37.608797 -39.962839
14.175456 38.58701 -40.722231
14.002759 38.723574 -39.473358
28.507585 1.017105 35.570314
29.048495 1.912508 34.766178
28.267246 1.876658 35.534163
28.507585 1.017105 35.570314
27.920575 0.026356 36.400476
22.728417 24.42719 -7.637817
22.167423 23.060278 -7.652973
29.20041 22.141108 -4.606891
28.479411 22.434105 -5.023544
29.940935 21.854245 -4.190466
29.427041 20.530156 -4.328679
29.20041 22.141108 -4.606891
30.626895 21.677524 -3.739556
29.940935 21.854245 -4.190466
31.372442 21.539305 -3.27153
30.913113 20.105074 -3.444227
30.626895 21.677524 -3.739556
32.067254 21.361043 -2.729029
31.372442 21.539305 -3.27153
32.800216 21.230776 -2.183869
32.391621 19.836587 -2.43104
32.067254 21.361043 -2.729029
33.427509 20.94303 -1.605226
32.800216 21.230776 -2.183869
33.103141 22.467486 -1.903215
38.455582 0.797789 23.31668
38.426613 1.96305 23.060281
38.041573 1.14735 24.040976
38.864317 0.498717 22.482793
38.455582 0.797789 23.31668
16.044824 15.482248 -15.380292
15.972094 15.873188 -16.089764
15.649569 16.694693 -15.5424
16.044824 15.482248 -15.380292
16.113075 15.028813 -14.650339
16.202432 14.729852 -14.007174
16.283801 14.370316 -13.324934
37.891975 4.901233 6.05521
37.306547 4.86521 5.292616
37.700426 6.111489 5.321748
38.425794 4.987338 6.81597
38.74147 6.216666 6.818607
38.881411 5.056492 7.550235
37.891975 4.901233 6.05521
38.425794 4.987338 6.81597
40.182547 3.616524 11.558798
40.361176 4.6961 11.551538
40.392542 3.731954 12.378861
39.913148 3.424808 10.759405
40.182547 3.616524 11.558798
39.580133 3.279268 9.942459
39.818164 4.43513 9.914528
39.913148 3.424808 10.759405
39.160697 2.996707 9.130837
39.580133 3.279268 9.942459
14.921185 33.251981 -31.837724
14.716992 34.529562 -32.655787
14.839678 31.956494 -29.893964
14.58118 32.082203 -28.779884
14.839678 31.956494 -29.893964
15.328311 30.790578 -30.355266
15.409819 32.086066 -32.299026
14.921185 33.251981 -31.837724
15.727292 32.213515 -33.5065
15.409819 32.086066 -32.299026
15.092428 28.171351 -26.907291
15.246703 26.96189 -26.254058
23.264276 -0.282205 40.922895
24.012238 -0.150206 40.164703
23.854651 0.7531 40.121473
25.699604 26.393546 28.243623
25.012224 26.516463 29.293308
26.273472 25.343033 28.009417
26.434124 26.343404 27.121527
25.699604 26.393546 28.243623
25.293234 24.407426 30.038979
24.766733 25.549182 30.235879
24.521015 24.563433 31.143346
33.293575 30.281402 1.774288
33.503284 29.252928 1.073233
33.595348 29.795637 2.573484
33.293575 30.281402 1.774288
33.911338 29.417549 3.399897
34.152119 28.544449 2.60166
33.595348 29.795637 2.573484
34.09219 29.076027 4.298873
33.911338 29.417549 3.399897
34.344984 28.67471 5.097316
34.720903 27.765044 4.226517
34.09219 29.076027 4.298873
34.546436 28.167155 5.928387
34.344984 28.67471 5.097316
34.71146 27.799045 6.86583
35.138722 26.995618 5.962402
34.546436 28.167155 5.928387
34.87352 27.245278 7.755752
34.71146 27.799045 6.86583
35.02067 26.732107 8.721294
35.450895 26.114337 7.865386
34.87352 27.245278 7.755752
35.05056 26.258397 9.703387
35.02067 26.732107 8.721294
35.109099 25.772078 10.632553
35.656583 25.114847 9.760093
35.05056 26.258397 9.703387
17.238135 12.489147 -10.331765
16.975783 12.837523 -10.868242
16.900249 13.84527 -10.556026
17.238135 12.489147 -10.331765
17.477353 12.11743 -9.797676
17.791021 11.813745 -9.319409
18.08477 11.455824 -8.835041
19.511527 9.06107 -7.319383
19.244808 10.449502 -7.587063
19.670116 10.16953 -7.180841
19.481064 7.894854 -7.424964
19.511527 9.06107 -7.319383
19.121287 8.320147 -7.883549
19.481064 7.894854 -7.424964
16.313724 6.99904 46.249598
17.13291 7.237552 45.366454
16.903067 8.150085 45.405117
16.313724 6.99904 46.249598
15.486287 6.803544 47.096096
18.438387 14.402823 42.41906
18.845173 15.502218 41.711458
18.759925 13.424413 42.289219
18.438387 14.402823 42.41906
17.960695 13.325408 43.197719
25.881603 5.101604 -3.073961
25.153533 5.255979 -3.452349
25.546605 6.448258 -3.488105
26.593041 4.923132 -2.65552
27.006266 6.231546 -2.736794
27.324632 4.860795 -2.282598
25.881603 5.101604 -3.073961
26.593041 4.923132 -2.65552
29.705663 4.579436 -0.883512
30.215907 5.823155 -0.924766
30.519615 4.574834 -0.406694
28.879632 4.643824 -1.389879
29.705663 4.579436 -0.883512
36.440029 5.978893 3.86596
36.203037 7.200389 3.179009
36.878006 7.296962 3.872203
36.440029 5.978893 3.86596
36.684386 4.813386 4.56389
12.217433 42.665756 -41.238796
12.687127 41.694615 -40.516832
12.217433 42.665756 -41.238796
12.185 42.263586 -42.423411
11.087911 43.285094 -45.10738
11.638819 42.631632 -44.362217
10.933046 42.821297 -46.300312
11.087911 43.285094 -45.10738
11.450696 41.891869 -46.861176
10.933046 42.821297 -46.300312
11.450696 41.891869 -46.861176
12.136765 41.267376 -46.219475
12.698482 40.586141 -45.591829
13.284273 39.926391 -44.886288
14.22687 36.947321 -34.220985
14.487023 35.669456 -33.48182
14.410666 36.744608 -35.428461
14.22687 36.947321 -34.220985
15.213683 34.545122 -35.135052
14.938302 34.47326 -33.865095
15.443652 33.405227 -34.309019
14.94924 35.589449 -36.026255
15.213683 34.545122 -35.135052
14.410666 36.744608 -35.428461
14.94924 35.589449 -36.026255
14.799195 36.655552 -38.037674
14.26062 37.81071 -37.43988
15.012686 36.632471 -39.22798
14.799195 36.655552 -38.037674
14.58094 37.608797 -39.962839
15.012686 36.632471 -39.22798
37.043435 1.840837 25.523219
37.568013 1.559659 24.757295
37.488026 2.593789 24.5505
36.566227 1.102653 26.462228
37.043435 1.840837 25.523219
36.486241 2.136785 26.255434
36.08454 0.331367 27.412037
36.566227 1.102653 26.462228
36.08454 0.331367 27.412037
35.499569 0.593639 28.119453
32.841261 1.460185 31.00225
32.661701 2.447023 30.86551
32.089681 1.539525 31.79685
33.520967 1.314296 30.300598
32.841261 1.460185 31.00225
34.196676 1.010493 29.609829
34.088989 2.06388 29.380141
33.520967 1.314296 30.300598
34.877402 0.774377 28.866917
34.196676 1.010493 29.609829
18.138635 3.948288 45.061144
17.910688 4.744121 45.11849
18.354636 3.120664 45.030403
18.480348 2.200545 45.097727
18.902041 4.112624 44.258527
18.138635 3.948288 45.061144
18.354636 3.120664 45.030403
20.491076 1.070335 43.344193
20.28826 1.839528 43.383452
19.683542 0.854644 44.201326
21.28741 1.215248 42.529786
20.491076 1.070335 43.344193
20.682692 0.230363 43.34766
22.514506 -0.316058 41.651796
22.292857 0.498189 41.706459
21.700674 -0.43897 42.47859
23.264276 -0.282205 40.922895
22.514506 -0.316058 41.651796
34.536051 26.28613 11.583775
33.924476 26.82905 12.557821
35.142074 25.14258 11.640481
35.109099 25.772078 10.632553
34.536051 26.28613 11.583775
27.898511 26.160255 24.867189
27.185859 26.267555 25.919429
27.720644 25.185592 25.835081
28.070226 27.085496 23.877535
27.898511 26.160255 24.867189
28.605011 26.003532 23.793188
28.161551 28.035559 22.959416
28.070226 27.085496 23.877535
28.918404 27.788435 21.79948
28.161551 28.035559 22.959416
29.666513 27.5229 20.734642
28.918404 27.788435 21.79948
29.524836 26.663238 21.738696
30.400667 27.210041 19.657165
29.666513 27.5229 20.734642
31.084333 27.025161 18.596948
30.400667 27.210041 19.657165
30.956612 26.212823 19.613642
31.798523 26.703103 17.521048
31.084333 27.025161 18.596948
32.546098 26.333864 16.460508
31.798523 26.703103 17.521048
32.387853 25.658704 17.492885
33.165054 26.034878 15.46459
32.575724 27.079277 15.492752
32.546098 26.333864 16.460508
15.305934 19.93631 -20.018585
15.049785 20.890549 -20.217787
15.262284 19.5559 -19.282981
15.305934 19.93631 -20.018585
15.208113 19.374688 -18.576036
15.262284 19.5559 -19.282981
14.911379 20.463373 -18.803027
15.171771 19.105638 -17.88554
15.208113 19.374688 -18.576036
15.194973 18.804217 -17.211206
15.171771 19.105638 -17.88554
14.88041 19.980742 -17.421748
15.240225 18.382478 -16.499643
15.531586 17.507373 -16.963435
15.194973 18.804217 -17.211206
13.888166 26.282047 -17.599806
13.827376 26.417088 -18.362839
14.042631 24.788222 -17.210023
13.888166 26.282047 -17.599806
13.947793 26.131793 -16.898223
14.208827 24.563051 -15.892959
14.066195 26.160199 -16.239429
14.30983 23.197501 -16.199632
14.208827 24.563051 -15.892959
14.416398 23.122584 -15.584152
15.345063 25.170172 -12.665616
15.042816 25.477832 -13.197716
15.470059 23.46956 -12.322567
15.345063 25.170172 -12.665616
15.642012 24.829974 -12.14287
16.090758 22.78487 -11.353832
16.000357 24.64859 -11.676683
16.324107 24.304098 -11.230695
18.600454 22.961999 -9.256403
18.076727 23.18891 -9.597517
18.678622 21.217474 -8.958814
18.600454 22.961999 -9.256403
19.118749 22.672675 -8.910956
19.796548 20.679861 -8.290726
19.696109 22.426831 -8.595136
20.295738 22.178542 -8.272495
23.43073 24.227852 -7.340451
22.728417 24.42719 -7.637817
24.092775 23.965094 -7.059009
24.780266 23.632023 -6.744764
23.503428 22.517671 -7.075176
23.43073 24.227852 -7.340451
24.092775 23.965094 -7.059009
33.677381 27.164513 -0.145574
33.656828 28.166489 0.445201
33.677381 27.164513 -0.145574
34.098971 25.708284 -0.003948
33.89258 23.423324 -0.925825
33.346495 23.634962 -1.574021
34.295065 21.911381 -0.71136
33.89258 23.423324 -0.925825
34.457211 23.154964 -0.312613
14.117879 32.184594 -26.726236
14.314646 32.077621 -27.725676
14.239459 30.792508 -26.040313
14.117879 32.184594 -26.726236
14.40233 29.470848 -25.450284
14.63506 29.411565 -26.4531
14.239459 30.792508 -26.040313
14.122709 29.577949 -24.467038
13.961751 29.568056 -23.526837
14.51831 28.197007 -24.879824
14.40233 29.470848 -25.450284
14.122709 29.577949 -24.467038
14.627868 27.041254 -24.257685
14.907489 26.934153 -25.240931
14.51831 28.197007 -24.879824
14.755403 25.733587 -23.676678
14.627868 27.041254 -24.257685
14.366224 26.996441 -23.315571
14.883465 24.577401 -23.102752
14.755403 25.733587 -23.676678
14.326321 25.638846 -21.914617
14.196099 26.949548 -22.424397
14.028661 26.899621 -21.604449
15.046394 23.298243 -22.598599
14.883465 24.577401 -23.102752
14.656689 24.409616 -22.23041
15.182703 22.220631 -22.067411
15.046394 23.298243 -22.598599
15.182703 22.220631 -22.067411
14.976819 22.133486 -21.32593
40.322878 1.498658 16.677149
40.469834 2.299104 15.765375
40.44433 2.608383 16.547587
39.491375 2.159994 20.616957
39.161857 2.428298 21.403904
39.17014 1.345185 21.549038
39.750379 2.923339 19.712045
39.491375 2.159994 20.616957
40.106093 1.078439 18.34949
40.157521 2.205755 18.205814
40.19829 0.737754 17.566807
40.106093 1.078439 18.34949
40.322878 1.498658 16.677149
40.19829 0.737754 17.566807
15.964509 16.249491 -16.806342
15.972094 15.873188 -16.089764
16.780286 13.257448 -11.44606
16.975783 12.837523 -10.868242
23.725704 5.767063 -4.270627
24.098387 6.891794 -4.26482
24.445851 5.477901 -3.8723
23.094508 5.990476 -4.665749
23.725704 5.767063 -4.270627
3 0 105 103
3 1 108 106
3 1 111 109
3 1 106 111
3 2 115 113
3 3 414 416
3 416 415 116
3 414 415 416
3 4 120 118
3 418 417 121
3 4 125 123
3 4 118 125
3 5 129 127
3 5 131 129
3 6 419 421
3 421 420 132
3 419 420 421
3 7 135 133
3 423 422 136
3 8 424 426
3 426 425 137
3 424 425 426
3 9 141 139
3 11 144 142
3 11 146 144
3 12 427 429
3 429 428 147
3 427 428 429
3 12 430 432
3 430 148 431
3 430 431 432
3 12 150 148
3 9 153 151
3 9 139 153
3 15 156 155
3 434 433 157
3 435 157 436
3 16 161 159
3 438 437 162
3 17 166 164
3 19 169 167
3 19 171 169
3 10 174 172
3 13 179 177
3 20 182 180
3 20 184 182
3 20 186 184
3 17 189 187
3 17 164 189
3 439 192 440
3 441 193 442
3 443 195 444
3 445 444 193
3 443 444 445
3 446 197 447
3 448 199 449
3 450 449 197
3 448 449 450
3 23 451 453
3 451 201 452
3 451 452 453
3 23 203 201
3 24 454 456
3 454 204 455
3 454 455 456
3 24 206 204
3 24 208 206
3 25 211 209
3 25 213 211
3 14 216 214
3 26 219 217
3 26 221 219
3 26 223 221
3 21 226 224
3 21 228 226
3 18 232 230
3 22 457 458
3 27 235 233
3 29 236 104
3 29 237 236
3 30 240 238
3 32 241 107
3 32 242 241
3 33 243 110
3 33 244 243
3 33 246 244
3 30 247 112
3 30 238 247
3 35 459 461
3 461 460 248
3 459 460 461
3 463 462 114
3 36 251 249
3 465 464 117
3 466 252 467
3 37 255 253
3 39 256 119
3 39 257 256
3 40 260 258
3 468 261 469
3 470 469 122
3 468 469 470
3 472 471 261
3 42 264 262
3 44 265 124
3 44 266 265
3 44 268 266
3 37 269 126
3 37 253 269
3 473 271 474
3 47 274 272
3 49 275 128
3 49 276 275
3 49 278 276
3 51 279 130
3 51 280 279
3 476 475 281
3 52 477 479
3 479 478 283
3 477 478 479
3 53 286 284
3 54 480 482
3 482 481 134
3 480 481 482
3 54 483 484
3 28 287 234
3 486 485 138
3 56 290 288
3 58 291 140
3 58 292 291
3 31 293 239
3 59 294 143
3 59 295 294
3 59 296 295
3 60 297 145
3 60 298 297
3 487 299 488
3 62 300 149
3 62 301 300
3 34 302 245
3 63 303 152
3 63 304 303
3 63 305 304
3 56 306 154
3 56 288 306
3 64 489 491
3 491 490 307
3 489 490 491
3 65 310 308
3 492 311 493
3 494 493 158
3 492 493 494
3 496 495 311
3 65 497 498
3 65 499 501
3 499 308 500
3 499 500 501
3 67 314 312
3 503 502 160
3 505 504 250
3 507 506 285
3 68 508 510
3 510 509 163
3 508 509 510
3 68 511 513
3 511 315 512
3 511 512 513
3 68 514 516
3 516 515 315
3 514 515 516
3 55 517 519
3 517 316 518
3 517 518 519
3 69 319 317
3 71 320 165
3 71 321 320
3 38 322 254
3 72 323 168
3 72 324 323
3 72 325 324
3 73 326 170
3 73 520 522
3 522 521 326
3 520 521 522
3 57 327 289
3 74 328 173
3 74 329 328
3 41 330 259
3 75 331 175
3 75 332 331
3 75 333 332
3 66 334 309
3 76 335 176
3 76 336 335
3 77 523 525
3 523 337 524
3 523 524 525
3 77 338 337
3 77 339 338
3 526 340 527
3 529 528 340
3 78 530 531
3 78 532 534
3 532 341 533
3 532 533 534
3 61 535 536
3 79 342 178
3 79 343 342
3 43 344 263
3 80 345 181
3 80 346 345
3 80 347 346
3 81 348 183
3 81 349 348
3 81 350 349
3 82 351 185
3 82 352 351
3 45 353 267
3 83 354 188
3 83 355 354
3 83 356 355
3 69 357 190
3 69 317 357
3 85 537 539
3 537 359 538
3 537 538 539
3 86 360 191
3 86 361 360
3 540 362 541
3 87 542 544
3 542 363 543
3 542 543 544
3 87 364 363
3 87 365 364
3 88 366 194
3 88 367 366
3 545 368 546
3 89 369 196
3 89 370 369
3 89 371 370
3 90 372 198
3 90 373 372
3 547 374 548
3 91 375 200
3 91 376 375
3 91 377 376
3 92 378 202
3 92 379 378
3 93 549 550
3 93 551 553
3 551 380 552
3 551 552 553
3 93 381 380
3 94 382 205
3 94 383 382
3 94 384 383
3 95 385 207
3 95 386 385
3 46 387 270
3 96 388 210
3 96 389 388
3 96 390 389
3 97 391 212
3 97 392 391
3 98 554 556
3 556 555 215
3 554 555 556
3 98 557 559
3 557 393 558
3 557 558 559
3 48 394 273
3 99 395 218
3 99 396 395
3 99 397 396
3 100 398 220
3 100 399 398
3 100 400 399
3 101 401 222
3 101 402 401
3 50 403 277
3 102 404 225
3 102 405 404
3 102 406 405
3 84 407 227
3 84 358 407
3 560 408 561
3 562 409 563
3 564 563 408
3 562 563 564
3 85 410 229
3 85 565 567
3 567 566 410
3 565 566 567
3 70 411 318
3 568 412 569
3 570 569 231
3 568 569 570
3 571 413 572
3 573 572 412
3 571 572 573
3 575 574 282
3 577 576 313
3 103 104 27
3 105 104 103
3 105 29 104
3 106 107 30
3 108 107 106
3 108 32 107
3 109 578 580
3 578 110 579
3 578 579 580
3 111 110 109
3 111 33 110
3 111 112 33
3 106 112 111
3 106 30 112
3 113 114 35
3 115 114 113
3 115 581 583
3 583 582 114
3 581 582 583
3 116 117 36
3 584 117 585
3 586 585 116
3 584 585 586
3 588 587 117
3 118 119 37
3 120 119 118
3 120 39 119
3 121 122 40
3 589 122 590
3 591 590 121
3 589 590 591
3 593 592 122
3 123 124 42
3 125 124 123
3 125 44 124
3 125 126 44
3 118 126 125
3 118 37 126
3 127 128 47
3 129 128 127
3 129 49 128
3 129 130 49
3 131 130 129
3 131 51 130
3 132 594 596
3 596 595 52
3 594 595 596
3 598 597 132
3 133 134 53
3 135 134 133
3 135 54 134
3 136 599 601
3 601 600 28
3 599 600 601
3 603 602 136
3 137 604 606
3 604 138 605
3 604 605 606
3 607 138 608
3 609 608 137
3 607 608 609
3 611 610 138
3 139 140 56
3 141 140 139
3 141 58 140
3 142 143 31
3 144 143 142
3 144 59 143
3 144 145 59
3 146 145 144
3 146 60 145
3 147 612 613
3 615 614 147
3 148 616 617
3 148 618 619
3 148 620 622
3 620 149 621
3 620 621 622
3 150 149 148
3 150 62 149
3 151 152 34
3 153 152 151
3 153 63 152
3 153 154 63
3 139 154 153
3 139 56 154
3 155 623 625
3 625 624 64
3 623 624 625
3 156 626 628
3 628 627 155
3 626 627 628
3 156 629 630
3 157 158 65
3 631 158 632
3 633 632 157
3 631 632 633
3 635 634 158
3 157 636 637
3 157 638 640
3 638 65 639
3 638 639 640
3 159 160 67
3 161 160 159
3 161 641 643
3 643 642 160
3 641 642 643
3 162 644 646
3 644 163 645
3 644 645 646
3 647 163 648
3 649 648 162
3 647 648 649
3 650 68 651
3 652 651 163
3 650 651 652
3 654 653 68
3 656 655 55
3 164 165 69
3 166 165 164
3 166 71 165
3 167 168 38
3 169 168 167
3 169 72 168
3 169 170 72
3 171 170 169
3 171 73 170
3 172 173 57
3 174 173 172
3 174 74 173
3 657 175 658
3 659 658 41
3 657 658 659
3 660 175 661
3 662 75 663
3 664 663 175
3 662 663 664
3 666 665 75
3 667 176 668
3 669 668 66
3 667 668 669
3 670 176 671
3 672 76 673
3 674 673 176
3 672 673 674
3 675 77 676
3 678 677 77
3 679 78 680
3 177 178 61
3 179 178 177
3 179 79 178
3 180 181 43
3 182 181 180
3 182 80 181
3 182 183 80
3 184 183 182
3 184 81 183
3 184 185 81
3 186 185 184
3 186 82 185
3 187 188 45
3 189 188 187
3 189 83 188
3 189 190 83
3 164 190 189
3 164 69 190
3 681 191 682
3 683 682 85
3 681 682 683
3 192 684 686
3 684 191 685
3 684 685 686
3 192 86 191
3 193 687 688
3 193 689 691
3 689 87 690
3 689 690 691
3 193 194 87
3 195 194 193
3 195 88 194
3 692 196 693
3 197 694 696
3 694 196 695
3 694 695 696
3 197 89 196
3 197 198 89
3 199 198 197
3 199 90 198
3 697 200 698
3 201 699 701
3 699 200 700
3 699 700 701
3 201 91 200
3 201 202 91
3 203 202 201
3 203 92 202
3 204 702 703
3 204 704 706
3 704 93 705
3 704 705 706
3 204 205 93
3 206 205 204
3 206 94 205
3 206 207 94
3 208 207 206
3 208 95 207
3 209 210 46
3 211 210 209
3 211 96 210
3 211 212 96
3 213 212 211
3 213 97 212
3 214 707 709
3 707 215 708
3 707 708 709
3 216 215 214
3 216 98 215
3 217 218 48
3 219 218 217
3 219 99 218
3 219 220 99
3 221 220 219
3 221 100 220
3 221 222 100
3 223 222 221
3 223 101 222
3 224 225 50
3 226 225 224
3 226 102 225
3 226 227 102
3 228 227 226
3 228 84 227
3 710 229 711
3 712 229 713
3 714 85 715
3 716 715 229
3 714 715 716
3 230 231 70
3 232 231 230
3 232 717 719
3 719 718 231
3 717 718 719
3 233 234 7
3 235 234 233
3 235 28 234
3 104 235 27
3 236 235 104
3 236 28 235
3 236 136 28
3 237 136 236
3 237 720 722
3 722 721 136
3 720 721 722
3 724 723 8
3 238 239 9
3 240 239 238
3 240 31 239
3 107 240 30
3 241 240 107
3 241 31 240
3 241 142 31
3 242 142 241
3 242 11 142
3 110 725 726
3 243 727 729
3 729 728 110
3 727 728 729
3 243 730 731
3 243 732 734
3 732 147 733
3 732 733 734
3 244 147 243
3 244 12 147
3 244 245 12
3 246 245 244
3 246 34 245
3 112 246 33
3 247 246 112
3 247 34 246
3 247 151 34
3 238 151 247
3 238 9 151
3 248 735 737
3 737 736 15
3 735 736 737
3 739 738 248
3 114 740 742
3 742 741 35
3 740 741 742
3 744 743 114
3 249 250 16
3 251 250 249
3 251 745 747
3 747 746 250
3 745 746 747
3 117 251 36
3 748 251 749
3 750 749 117
3 748 749 750
3 752 751 251
3 753 162 754
3 252 755 757
3 755 162 756
3 755 756 757
3 252 758 760
3 760 759 162
3 758 759 760
3 253 254 17
3 255 254 253
3 255 38 254
3 119 255 37
3 256 255 119
3 256 38 255
3 256 167 38
3 257 167 256
3 257 19 167
3 258 259 10
3 260 259 258
3 260 41 259
3 122 260 40
3 261 260 122
3 261 41 260
3 261 761 763
3 763 762 41
3 761 762 763
3 765 764 261
3 262 263 13
3 264 263 262
3 264 43 263
3 124 264 42
3 265 264 124
3 265 43 264
3 265 180 43
3 266 180 265
3 266 20 180
3 266 267 20
3 268 267 266
3 268 45 267
3 126 268 44
3 269 268 126
3 269 45 268
3 269 187 45
3 253 187 269
3 253 17 187
3 766 23 767
3 768 24 769
3 770 270 771
3 772 771 24
3 770 771 772
3 773 270 774
3 775 46 776
3 777 776 270
3 775 776 777
3 778 46 779
3 780 209 781
3 782 781 46
3 780 781 782
3 271 783 785
3 783 209 784
3 783 784 785
3 271 25 209
3 272 273 14
3 274 273 272
3 274 48 273
3 128 274 47
3 275 274 128
3 275 48 274
3 275 217 48
3 276 217 275
3 276 26 217
3 276 277 26
3 278 277 276
3 278 50 277
3 130 278 49
3 279 278 130
3 279 50 278
3 279 224 50
3 280 224 279
3 280 21 224
3 281 282 18
3 786 282 787
3 788 787 281
3 786 787 788
3 790 789 282
3 283 791 793
3 793 792 22
3 791 792 793
3 795 794 283
3 797 796 52
3 284 285 3
3 286 285 284
3 286 798 800
3 800 799 285
3 798 799 800
3 134 286 53
3 801 286 802
3 803 802 134
3 801 802 803
3 805 804 286
3 234 135 7
3 287 135 234
3 287 54 135
3 806 287 807
3 808 807 28
3 806 807 808
3 809 287 810
3 811 54 812
3 813 812 287
3 811 812 813
3 815 814 54
3 816 55 817
3 138 818 819
3 821 820 138
3 822 55 823
3 825 824 55
3 827 826 8
3 288 289 4
3 290 289 288
3 290 57 289
3 140 290 56
3 291 290 140
3 291 57 290
3 291 172 57
3 292 172 291
3 292 10 172
3 239 141 9
3 293 141 239
3 293 58 141
3 143 293 31
3 294 293 143
3 294 58 293
3 294 292 58
3 295 292 294
3 295 10 292
3 295 258 10
3 296 258 295
3 296 40 258
3 145 296 59
3 297 296 145
3 297 40 296
3 297 121 40
3 298 121 297
3 298 828 830
3 830 829 121
3 828 829 830
3 299 831 832
3 299 833 835
3 833 61 834
3 833 834 835
3 149 836 838
3 836 299 837
3 836 837 838
3 300 299 149
3 300 61 299
3 300 177 61
3 301 177 300
3 301 13 177
3 245 150 12
3 302 150 245
3 302 62 150
3 152 302 34
3 303 302 152
3 303 62 302
3 303 301 62
3 304 301 303
3 304 13 301
3 304 262 13
3 305 262 304
3 305 42 262
3 154 305 63
3 306 305 154
3 306 42 305
3 306 123 42
3 288 123 306
3 288 4 123
3 839 214 840
3 841 214 842
3 843 14 844
3 845 844 214
3 843 844 845
3 846 14 847
3 848 272 849
3 850 849 14
3 848 849 850
3 851 272 852
3 853 47 854
3 855 854 272
3 853 854 855
3 856 47 857
3 858 127 859
3 860 859 47
3 858 859 860
3 861 127 862
3 863 5 864
3 865 864 127
3 863 864 865
3 307 866 868
3 868 867 6
3 866 867 868
3 870 869 307
3 872 871 64
3 873 156 874
3 875 874 15
3 873 874 875
3 876 156 877
3 879 878 156
3 308 309 1
3 310 309 308
3 310 66 309
3 158 310 65
3 311 310 158
3 311 66 310
3 311 880 882
3 882 881 66
3 880 881 882
3 884 883 311
3 885 109 886
3 308 887 889
3 887 109 888
3 887 888 889
3 308 1 109
3 312 313 2
3 314 313 312
3 314 890 892
3 892 891 313
3 890 891 892
3 160 314 67
3 893 314 894
3 895 894 160
3 893 894 895
3 897 896 314
3 250 161 16
3 898 161 899
3 900 899 250
3 898 899 900
3 902 901 161
3 285 903 905
3 905 904 3
3 903 904 905
3 907 906 285
3 163 908 909
3 911 910 163
3 315 912 913
3 315 914 915
3 315 916 917
3 919 918 315
3 921 920 68
3 316 922 923
3 316 924 925
3 926 316 927
3 928 927 55
3 926 927 928
3 929 316 930
3 932 931 316
3 933 252 934
3 935 252 936
3 938 937 252
3 317 318 0
3 319 318 317
3 319 70 318
3 165 319 69
3 320 319 165
3 320 70 319
3 320 230 70
3 321 230 320
3 321 18 230
3 254 166 17
3 322 166 254
3 322 71 166
3 168 322 38
3 323 322 168
3 323 71 322
3 323 321 71
3 324 321 323
3 324 18 321
3 324 281 18
3 325 281 324
3 325 939 941
3 941 940 281
3 939 940 941
3 170 325 72
3 326 325 170
3 326 942 944
3 944 943 325
3 942 943 944
3 326 945 946
3 948 947 326
3 289 120 4
3 327 120 289
3 327 39 120
3 173 327 57
3 328 327 173
3 328 39 327
3 328 257 39
3 329 257 328
3 329 19 257
3 259 174 10
3 330 174 259
3 330 74 174
3 175 330 41
3 331 330 175
3 331 74 330
3 331 329 74
3 332 329 331
3 332 19 329
3 332 171 19
3 333 171 332
3 333 73 171
3 949 333 950
3 951 950 75
3 949 950 951
3 952 333 953
3 954 73 955
3 956 955 333
3 954 955 956
3 958 957 73
3 309 108 1
3 334 108 309
3 334 32 108
3 176 334 66
3 335 334 176
3 335 32 334
3 335 242 32
3 336 242 335
3 336 11 242
3 959 76 960
3 337 961 962
3 337 963 965
3 963 76 964
3 963 964 965
3 337 336 76
3 338 336 337
3 338 11 336
3 338 146 11
3 339 146 338
3 339 60 146
3 966 339 967
3 968 967 77
3 966 967 968
3 340 969 971
3 969 339 970
3 969 970 971
3 340 60 339
3 340 298 60
3 972 298 973
3 974 973 340
3 972 973 974
3 976 975 298
3 341 977 978
3 341 979 981
3 979 5 980
3 979 980 981
3 178 982 984
3 984 983 61
3 982 983 984
3 342 985 987
3 987 986 178
3 985 986 987
3 342 988 989
3 342 990 991
3 343 992 994
3 994 993 342
3 992 993 994
3 343 995 996
3 263 179 13
3 344 179 263
3 344 79 179
3 181 344 43
3 345 344 181
3 345 79 344
3 345 343 79
3 346 343 345
3 346 997 999
3 999 998 343
3 997 998 999
3 346 1000 1001
3 347 1002 1004
3 1004 1003 346
3 1002 1003 1004
3 347 1005 1007
3 1005 78 1006
3 1005 1006 1007
3 183 347 80
3 348 347 183
3 348 78 347
3 348 341 78
3 349 341 348
3 349 5 341
3 349 131 5
3 350 131 349
3 350 51 131
3 185 350 81
3 351 350 185
3 351 51 350
3 351 280 51
3 352 280 351
3 352 21 280
3 267 186 20
3 353 186 267
3 353 82 186
3 188 353 45
3 354 353 188
3 354 82 353
3 354 352 82
3 355 352 354
3 355 21 352
3 355 228 21
3 356 228 355
3 356 84 228
3 190 356 83
3 357 356 190
3 357 84 356
3 357 358 84
3 317 358 357
3 317 0 358
3 359 1008 1009
3 359 1010 1011
3 191 359 85
3 360 359 191
3 360 1012 1014
3 1014 1013 359
3 1012 1013 1014
3 360 1015 1016
3 361 1017 1019
3 1019 1018 360
3 1017 1018 1019
3 361 1020 1022
3 1020 22 1021
3 1020 1021 1022
3 1023 192 1024
3 362 1025 1027
3 1025 192 1026
3 1025 1026 1027
3 362 86 192
3 1028 362 1029
3 363 1030 1032
3 1030 362 1031
3 1030 1031 1032
3 363 86 362
3 363 361 86
3 364 361 363
3 364 22 361
3 364 283 22
3 365 283 364
3 365 52 283
3 194 365 87
3 366 365 194
3 366 52 365
3 366 132 52
3 367 132 366
3 367 6 132
3 1033 195 1034
3 368 1035 1037
3 1035 195 1036
3 1035 1036 1037
3 368 88 195
3 196 1038 1040
3 1038 368 1039
3 1038 1039 1040
3 369 368 196
3 369 88 368
3 369 367 88
3 370 367 369
3 370 6 367
3 370 307 6
3 371 307 370
3 371 64 307
3 198 371 89
3 372 371 198
3 372 64 371
3 372 155 64
3 373 155 372
3 373 15 155
3 1041 199 1042
3 374 1043 1045
3 1043 199 1044
3 1043 1044 1045
3 374 90 199
3 200 1046 1048
3 1046 374 1047
3 1046 1047 1048
3 375 374 200
3 375 90 374
3 375 373 90
3 376 373 375
3 376 15 373
3 376 248 15
3 377 248 376
3 377 35 248
3 202 377 91
3 378 377 202
3 378 35 377
3 378 113 35
3 379 113 378
3 379 2 113
3 1049 23 1050
3 380 1051 1052
3 380 1053 1055
3 1053 23 1054
3 1053 1054 1055
3 380 203 23
3 381 203 380
3 381 92 203
3 205 381 93
3 382 381 205
3 382 92 381
3 382 379 92
3 383 379 382
3 383 2 379
3 383 312 2
3 384 312 383
3 384 67 312
3 207 384 94
3 385 384 207
3 385 67 384
3 385 159 67
3 386 159 385
3 386 16 159
3 270 208 24
3 387 208 270
3 387 95 208
3 210 387 46
3 388 387 210
3 388 95 387
3 388 386 95
3 389 386 388
3 389 16 386
3 389 249 16
3 390 249 389
3 390 36 249
3 212 390 96
3 391 390 212
3 391 36 390
3 391 116 36
3 392 116 391
3 392 3 116
3 215 1056 1057
3 1059 1058 215
3 1060 271 1061
3 393 1062 1064
3 1062 271 1063
3 1062 1063 1064
3 393 25 271
3 273 216 14
3 394 216 273
3 394 98 216
3 218 394 48
3 395 394 218
3 395 98 394
3 395 393 98
3 396 393 395
3 396 25 393
3 396 213 25
3 397 213 396
3 397 97 213
3 220 397 99
3 398 397 220
3 398 97 397
3 398 392 97
3 399 392 398
3 399 3 392
3 399 284 3
3 400 284 399
3 400 53 284
3 222 400 100
3 401 400 222
3 401 53 400
3 401 133 53
3 402 133 401
3 402 7 133
3 277 223 26
3 403 223 277
3 403 101 223
3 225 403 50
3 404 403 225
3 404 101 403
3 404 402 101
3 405 402 404
3 405 7 402
3 405 233 7
3 406 233 405
3 406 27 233
3 227 406 102
3 407 406 227
3 407 27 406
3 407 103 27
3 358 103 407
3 358 0 103
3 1065 137 1066
3 1067 137 1068
3 1069 8 1070
3 1071 1070 137
3 1069 1070 1071
3 408 1072 1073
3 408 1074 1076
3 1074 8 1075
3 1074 1075 1076
3 408 1077 1079
3 1079 1078 8
3 1077 1078 1079
3 409 1080 1082
3 1082 1081 408
3 1080 1081 1082
3 409 1083 1084
3 229 1085 1087
3 1085 409 1086
3 1085 1086 1087
3 410 409 229
3 410 1088 1090
3 1090 1089 409
3 1088 1089 1090
3 410 1091 1092
3 1094 1093 410
3 318 105 0
3 411 105 318
3 411 29 105
3 231 411 70
3 412 411 231
3 412 29 411
3 412 237 29
3 413 237 412
3 413 1095 1097
3 1097 1096 237
3 1095 1096 1097
3 282 232 18
3 1098 232 1099
3 1100 1099 282
3 1098 1099 1100
3 1102 1101 232
3 1103 413 1104
3 1105 413 1106
3 1108 1107 413
3 1110 1109 22
3 1112 1111 6
3 313 115 2
3 1113 115 1114
3 1115 1114 313
3 1113 1114 1115
3 1117 1116 115
