ply
format ascii 1.0
element vertex 497
property float x
property float y
property float z
element face 592
property list uchar int vertex_index
end_header
10.774954 83.594551 6.69945
-3.452244 93.456955 9.530544
6.620765 72.068352 24.347418
8.907242 90.159058 -1.360725
4.764969 88.263931 8.058882
0.553652 97.086395 -1.984386
-0.616333 75.333694 28.217207
-12.165771 96.98317 12.049584
-8.896947 102.263573 -0.979315
-4.306807 103.732971 -13.232364
-6.305811 86.78952 21.062933
1.826442 82.94294 18.219578
8.847392 78.932617 14.890977
12.764057 83.148087 3.800973
12.542088 80.05941 8.303547
10.078156 86.597771 3.15851
12.335803 86.393028 -0.782051
8.259385 85.666 7.341908
6.732028 89.677719 3.153274
-7.915334 95.599503 10.620188
-10.633781 100.062721 5.46731
-6.204497 98.078629 4.732738
2.998762 97.405975 -7.049831
-1.788754 100.818565 -7.56439
-10.559891 88.034248 22.910446
-7.552029 82.554306 26.657089
3.064672 73.832497 26.388384
0.557608 79.485023 23.221088
4.373772 77.626297 21.426958
5.526759 81.022331 16.526861
7.73339 75.665054 19.652119
10.884827 73.916153 17.168015
9.907735 70.402336 21.76927
7.419984 93.753105 -6.580012
11.511187 89.686516 -5.955264
0.839647 91.035126 8.539913
-1.572343 95.620453 3.829599
2.676294 92.911423 3.20684
4.842122 93.831238 -1.818658
-4.649387 76.607101 30.181841
5.615512 68.122589 28.789047
-11.49277 105.328522 -6.764976
-4.045904 99.911873 -1.638051
-6.788849 103.487556 -7.16234
-9.507905 106.035065 -13.050268
-13.675173 93.40937 18.352169
-9.475116 92.212051 16.873486
-5.011624 90.478188 15.327094
-3.541291 81.029999 25.091055
-2.212769 85.006035 19.639391
-0.868327 88.412331 14.104456
3.28132 85.930092 13.025321
6.779299 83.847816 11.695386
10.006962 81.570091 10.373031
11.846977 77.165237 12.562086
11.66708 83.432129 5.424038
12.719615 81.597313 6.071642
11.595548 82.09893 7.371646
10.472222 84.971916 5.134821
11.485166 84.947578 3.410675
9.708656 84.534256 6.950962
9.100993 86.337059 5.135484
-5.669964 94.525024 10.135188
-7.145299 96.924911 7.738959
-4.841628 95.8041 7.243711
-9.688969 83.110153 27.640539
-8.094213 80.178925 29.401022
4.916491 72.769989 25.533154
3.683187 75.801208 23.946602
5.414763 74.938408 22.991135
6.131071 76.687645 20.484112
7.174154 73.817123 22.100567
8.816171 73.157921 20.712919
8.319313 71.170967 23.1637
8.244745 91.97261 -3.980394
9.603419 91.773331 -6.496806
10.079292 90.134987 -3.670692
13.663912 85.767113 -2.57143
2.812233 89.783691 8.143847
1.727223 92.034599 5.919994
3.753846 90.633141 5.652465
7.781494 90.131279 0.691451
5.857683 91.675751 0.86914
6.866902 92.090187 -1.626743
6.161147 93.852974 -4.227333
3.79015 68.804443 29.983435
-9.815529 101.195312 2.428046
-12.07534 102.044968 2.697087
-11.144073 103.065781 -0.52765
-12.507321 104.629211 -3.458325
-10.177107 103.942085 -3.887727
-0.590106 96.495262 0.902868
-2.892811 97.868103 1.206901
-1.822066 98.554924 -1.704334
-3.145847 102.407333 -10.181986
-4.344572 102.232368 -7.27825
-5.602423 103.766838 -10.294111
-8.078795 104.918137 -10.231667
-6.967606 105.026344 -13.177876
-8.282625 105.960846 -16.110426
-14.199644 91.252739 21.496441
-8.43644 87.476044 21.963139
-10.037007 90.096764 20.04591
-7.991077 89.623886 19.016716
-7.190258 91.349472 16.105892
-5.7109 88.724495 18.225868
-2.545314 75.93869 29.189056
-4.12505 78.844208 27.718306
-2.033124 78.178596 26.713396
1.185716 81.208328 20.802431
-0.906036 82.196053 21.642979
-0.089078 83.929642 18.93688
-1.541867 86.746109 16.915091
0.568092 85.716293 16.140884
1.19695 87.316444 13.436546
2.423549 84.701073 15.502277
7.292968 79.932961 15.719049
6.202913 82.426689 14.128376
7.859835 81.453804 13.300328
8.467397 82.725288 11.003293
9.362027 80.452522 12.543518
10.880933 79.491272 11.526097
10.321774 78.124031 13.78713
9.603834 88.326874 0.925572
10.752177 88.251823 -1.107297
11.190515 86.568924 1.202226
12.709728 84.629532 1.568487
6.636407 87.004822 7.544157
5.626786 89.166649 5.558418
7.483928 87.704926 5.326361
8.512897 88.229614 2.929996
-10.102638 96.276627 11.507116
-11.49296 98.714058 8.642106
-9.330024 97.908043 8.162204
-8.328163 99.162636 4.961709
-7.459674 100.318283 1.737917
1.631386 97.475784 -4.653481
-0.740985 99.055695 -4.556604
0.597768 99.166367 -7.246492
-0.602256 100.871452 -10.199875
-12.722132 88.663422 23.685801
-11.149156 85.929008 25.694098
-8.996323 85.16021 24.988531
-6.962847 84.820869 23.810541
-0.082894 77.570435 25.693584
1.773126 76.689972 24.912241
2.469775 78.578369 22.367807
3.126667 80.353386 19.824308
3.708586 82.054733 17.312267
4.911148 79.415123 18.97781
6.64254 78.380112 18.158232
8.270149 77.310715 17.329321
9.907187 76.377686 16.145573
9.397507 74.762405 18.423923
10.43482 72.136993 19.465961
12.816434 89.150276 -8.132473
11.950336 88.029213 -3.223473
13.23511 87.538971 -5.267873
-1.187114 92.143326 9.117673
-2.573023 94.672615 6.639364
-0.347087 93.30706 6.333482
0.484347 94.228683 3.744597
1.566431 95.04332 0.765487
4.818071 91.204506 3.264663
3.812587 93.374107 0.737813
2.736655 95.539291 -2.028476
3.865214 95.765678 -4.47852
5.189482 95.708412 -6.94359
-6.531219 77.131332 31.089067
4.365752 70.956322 27.675219
6.149832 70.0569 26.629183
7.798764 69.170364 25.543804
7.42448 67.164009 27.641493
-3.920547 97.023315 4.089413
-5.188413 99.148323 1.485453
-6.406403 101.156212 -1.393279
-3.010367 100.507744 -4.596641
-5.324234 101.723465 -4.269065
-7.752947 102.951042 -4.164104
-9.120686 104.508347 -7.003357
-10.510173 105.786362 -9.888243
-11.892569 106.761131 -12.921429
-10.89912 106.854927 -16.272644
-12.820015 95.128838 15.355774
-12.226847 90.821434 20.749146
-11.508295 92.709183 17.791393
-10.740107 94.612251 14.547102
-8.565787 93.905495 13.750864
-6.460823 93.025856 13.12436
-4.266675 92.051147 12.436203
-6.12033 79.655815 28.458403
-5.566209 81.829582 25.87793
-4.916452 83.935883 23.143642
-1.462436 80.204498 24.231943
-2.933303 83.07666 22.434431
-4.263173 85.97094 20.308167
-3.640879 87.88858 17.438261
-3.028234 89.527245 14.736745
-2.147366 90.899696 11.963951
-0.092427 89.817741 11.361245
1.95076 88.599976 10.860655
3.883756 87.339317 10.444316
4.316193 83.61731 14.811766
5.075334 84.939316 12.300048
5.847999 86.037994 9.919147
7.506027 84.886627 9.425334
9.105663 83.693428 8.932027
10.38411 82.79409 8.336391
11.282804 80.910957 9.319105
12.180635 78.736786 10.388757
11.346951 75.661568 14.814235
9.329759 68.565308 24.153357
-8.321016 78.890275 30.751308
-9.110885 80.409272 29.894137
-12.87436 98.035362 10.796471
-13.244024 97.249237 12.358434
-5.003856 104.28719 -14.626114
-6.334256 104.933876 -14.598869
-5.637206 104.379658 -13.20512
-14.46474 89.98259 23.187436
-15.162345 91.224129 22.059377
13.380292 82.063618 4.126161
13.385568 82.874485 2.958604
13.162769 79.784996 7.521907
13.251533 80.553947 6.405954
12.630851 80.828361 7.187594
13.025457 78.983776 8.686704
13.162769 79.784996 7.521907
13.385568 82.874485 2.958604
13.358404 83.615207 1.842361
12.736892 83.88881 2.68473
0.079992 100.754372 -11.514552
0.625694 100.008415 -10.039794
-1.211831 101.574272 -11.563199
0.079992 100.754372 -11.514552
-11.447214 84.68666 27.203269
-12.124395 86.026318 26.239297
2.418899 75.261235 25.650312
1.47812 75.665516 26.129817
2.123893 74.236778 26.867888
10.621014 69.969479 21.114359
10.884556 70.836807 19.962705
10.171278 71.269665 20.617615
8.040909 93.644165 -7.792333
6.98768 94.58979 -7.94146
11.163997 90.559452 -7.349966
10.210113 91.602859 -7.620737
10.557303 90.729923 -6.226035
12.163811 89.418396 -7.043868
11.81662 90.291332 -8.438571
11.163997 90.559452 -7.349966
14.054051 86.421776 -4.985798
13.449511 86.653042 -3.919651
14.268452 85.535847 -3.637577
13.920744 87.172173 -6.325934
14.054051 86.421776 -4.985798
6.98768 94.58979 -7.94146
5.872429 95.567444 -8.123249
6.304733 94.730759 -6.761801
-11.751701 100.420749 5.693366
-12.18129 99.746418 7.280765
-11.063371 99.388389 7.054708
-13.182164 102.270832 3.006447
-12.709384 102.831486 1.352041
-12.69994 105.597527 -6.554772
-13.207216 105.247871 -4.901446
-12.000045 104.978867 -5.11165
-12.214897 105.896984 -8.277707
-12.69994 105.597527 -6.554772
-8.94229 106.270897 -17.703249
-7.71287 105.816696 -17.658876
-14.320344 94.555831 17.109629
-14.634897 93.493888 18.794344
-13.247594 94.269104 16.853972
-13.892765 95.415565 15.611432
-14.320344 94.555831 17.109629
12.519453 76.675376 11.98207
12.686282 77.461151 10.895405
12.013806 77.951011 11.475421
9.15129 67.478546 25.288185
8.564262 68.867836 24.848581
8.385793 67.781075 25.983409
2.426203 98.275677 -8.464772
3.644442 97.367214 -8.378651
-9.908263 81.874886 29.013896
-10.71712 83.277233 28.17649
-8.891591 81.644539 28.520781
-9.908263 81.874886 29.013896
-9.110885 80.409272 29.894137
13.732931 85.03043 -1.374416
12.999858 86.080071 -1.67674
13.068877 85.343388 -0.479727
14.405531 84.658901 -2.297818
13.732931 85.03043 -1.374416
14.268452 85.535847 -3.637577
14.405531 84.658901 -2.297818
3.523333 67.672848 31.080483
2.866915 69.111202 30.535953
4.4188 67.344547 30.533191
3.523333 67.672848 31.080483
5.33148 67.00362 29.935997
4.702831 68.463516 29.386241
4.4188 67.344547 30.533191
6.21184 66.646076 29.336008
5.33148 67.00362 29.935997
-12.243751 103.341893 -0.260327
-12.709384 102.831486 1.352041
-11.609707 102.555374 1.084718
-11.825697 103.847496 -1.992987
-12.925375 104.123607 -1.725665
-12.243751 103.341893 -0.260327
-6.991765 105.401127 -16.065145
-7.625115 105.493595 -14.644151
-6.334256 104.933876 -14.598869
-7.71287 105.816696 -17.658876
-6.991765 105.401127 -16.065145
-14.897133 92.415573 20.36648
-15.162345 91.224129 22.059377
-13.937409 92.331054 19.924305
-14.634897 93.493888 18.794344
-14.897133 92.415573 20.36648
11.565949 73.50383 16.521556
11.34733 72.625332 17.656408
13.358071 81.288231 5.261496
13.380292 82.063618 4.126161
12.741836 82.3727 4.936307
13.358071 81.288231 5.261496
13.251533 80.553947 6.405954
13.255839 84.461639 0.695542
13.068877 85.343388 -0.479727
12.522766 85.51128 0.393218
13.255839 84.461639 0.695542
13.358404 83.615207 1.842361
1.225706 99.155872 -8.563102
1.798265 98.286171 -7.148162
2.426203 98.275677 -8.464772
-0.002244 100.01891 -8.723184
1.225706 99.155872 -8.563102
0.625694 100.008415 -10.039794
-2.483627 102.342212 -11.554254
-1.874051 101.639392 -10.190931
-1.211831 101.574272 -11.563199
-3.064107 103.005032 -13.079444
-3.726327 103.070152 -11.707175
-2.483627 102.342212 -11.554254
-3.73996 103.643658 -14.653652
-3.064107 103.005032 -13.079444
-12.910883 87.393524 25.235149
-13.725983 88.687931 24.282116
-11.935644 87.296215 24.68995
-12.910883 87.393524 25.235149
-12.124395 86.026318 26.239297
-10.419062 84.51958 26.667319
-11.447214 84.68666 27.203269
-10.71712 83.277233 28.17649
0.55011 76.105748 26.520488
-0.349614 76.452065 26.955396
0.28339 74.987377 27.7823
0.845116 77.130203 25.302913
0.55011 76.105748 26.520488
1.47812 75.665516 26.129817
11.122327 71.735752 18.80538
11.34733 72.625332 17.656408
10.659823 73.026573 18.316988
11.122327 71.735752 18.80538
10.884556 70.836807 19.962705
9.132627 92.654278 -7.75073
8.040909 93.644165 -7.792333
8.511702 92.763218 -6.538409
9.132627 92.654278 -7.75073
10.210113 91.602859 -7.620737
12.465694 89.96394 -9.474345
11.81662 90.291332 -8.438571
13.470254 88.75679 -9.140693
12.465694 89.96394 -9.474345
13.711405 87.977825 -7.758234
13.025772 88.344624 -6.700173
13.920744 87.172173 -6.325934
13.470254 88.75679 -9.140693
13.711405 87.977825 -7.758234
4.739802 96.518432 -8.32553
3.644442 97.367214 -8.378651
4.094122 96.557193 -6.996711
4.739802 96.518432 -8.32553
5.872429 95.567444 -8.123249
-6.790241 75.823879 32.391488
-7.539519 77.366478 31.59533
-5.810604 75.556377 31.918381
-6.790241 75.823879 32.391488
-4.869687 75.294262 31.464768
-5.590303 76.869216 30.635454
-5.810604 75.556377 31.918381
-3.905988 75.067802 30.952932
-4.869687 75.294262 31.464768
-2.853951 74.733597 30.45654
-3.597351 76.272896 29.685448
-3.905988 75.067802 30.952932
-1.899307 74.476722 29.954711
-2.853951 74.733597 30.45654
-0.934817 74.174224 29.468787
-1.580823 75.636192 28.703131
-1.899307 74.476722 29.954711
0.026573 73.8414 28.989746
-0.934817 74.174224 29.468787
0.28339 74.987377 27.7823
0.026573 73.8414 28.989746
2.805318 72.733356 27.583714
2.123893 74.236778 26.867888
3.168057 70.21933 29.381239
2.866915 69.111202 30.535953
3.455858 71.295269 28.227131
3.168057 70.21933 29.381239
4.077951 69.880382 28.829327
3.715212 72.394409 27.031802
2.805318 72.733356 27.583714
3.455858 71.295269 28.227131
8.198651 66.777897 27.032253
8.385793 67.781075 25.983409
7.611622 68.167186 26.592649
7.116324 66.166786 28.762231
6.519996 67.643299 28.21527
6.21184 66.646076 29.336008
7.980626 65.671547 28.1768
7.116324 66.166786 28.762231
8.198651 66.777897 27.032253
7.980626 65.671547 28.1768
-12.537954 98.900806 9.092733
-12.87436 98.035362 10.796471
-11.829365 97.848614 10.345845
-12.537954 98.900806 9.092733
-12.18129 99.746418 7.280765
-12.47248 101.411873 4.308255
-11.751701 100.420749 5.693366
-11.354561 101.053844 4.082199
-12.47248 101.411873 4.308255
-13.182164 102.270832 3.006447
-13.643864 104.830379 -3.204153
-12.925375 104.123607 -1.725665
-13.643864 104.830379 -3.204153
-13.207216 105.247871 -4.901446
-11.723599 106.125904 -9.839341
-12.214897 105.896984 -8.277707
-11.001472 105.557442 -8.326609
-12.414797 106.613289 -11.355934
-11.723599 106.125904 -9.839341
-11.201371 106.273747 -11.404836
-13.071687 106.994938 -12.873485
-12.414797 106.613289 -11.355934
-12.616691 107.08202 -14.496306
-13.071687 106.994938 -12.873485
-12.119967 107.128918 -16.171913
-12.616691 107.08202 -14.496306
-11.395844 106.808029 -14.597036
-11.572984 107.069603 -17.783978
-12.119967 107.128918 -16.171913
-10.250538 106.717938 -17.784358
-9.590872 106.407887 -16.191535
-8.94229 106.270897 -17.703249
-11.572984 107.069603 -17.783978
-10.250538 106.717938 -17.784358
-5.003856 104.28719 -14.626114
-3.73996 103.643658 -14.653652
-13.571146 96.322071 14.011529
-13.892765 95.415565 15.611432
-12.492893 96.056004 13.702679
-13.244024 97.249237 12.358434
-13.571146 96.322071 14.011529
-13.460888 89.95808 22.591121
-14.46474 89.98259 23.187436
-13.725983 88.687931 24.282116
-7.312716 78.655129 30.245044
-8.321016 78.890275 30.751308
-7.539519 77.366478 31.59533
12.844731 78.322464 9.729309
13.025457 78.983776 8.686704
12.361362 79.398098 9.346152
12.844731 78.322464 9.729309
12.686282 77.461151 10.895405
11.797011 74.376537 15.344666
11.115889 74.78886 15.991125
11.565949 73.50383 16.521556
12.045087 75.175697 14.204065
11.797011 74.376537 15.344666
12.2951 75.927532 13.07799
11.596964 76.413403 13.688161
12.045087 75.175697 14.204065
12.519453 76.675376 11.98207
12.2951 75.927532 13.07799
9.897745 67.139752 24.562472
9.15129 67.478546 25.288185
10.077974 68.130318 23.478661
9.897745 67.139752 24.562472
10.366962 69.048832 22.286617
9.618747 69.483822 22.961313
10.077974 68.130318 23.478661
10.621014 69.969479 21.114359
10.366962 69.048832 22.286617
3 0 57 55
3 0 55 58
3 0 58 60
3 1 64 62
3 212 66 213
3 2 69 67
3 2 71 69
3 2 73 71
3 3 76 74
3 4 80 78
3 3 83 81
3 3 74 83
3 7 214 215
3 8 88 86
3 8 90 88
3 5 93 91
3 9 96 94
3 9 98 96
3 9 216 218
3 218 217 98
3 216 217 218
3 219 100 220
3 10 103 101
3 10 105 103
3 6 108 106
3 11 111 109
3 11 113 111
3 11 115 113
3 12 118 116
3 12 120 118
3 12 122 120
3 13 221 222
3 14 223 225
3 225 224 56
3 223 224 225
3 14 226 227
3 15 125 123
3 13 126 59
3 13 228 230
3 230 229 126
3 228 229 230
3 17 129 127
3 15 130 61
3 15 123 130
3 19 133 131
3 21 134 63
3 21 135 134
3 22 138 136
3 231 139 232
3 234 233 139
3 235 141 236
3 25 142 65
3 25 143 142
3 26 237 239
3 237 145 238
3 237 238 239
3 28 146 68
3 28 147 146
3 28 149 147
3 30 150 70
3 30 151 150
3 30 153 151
3 32 154 72
3 32 240 242
3 242 241 154
3 240 241 242
3 33 243 244
3 34 245 247
3 247 246 75
3 245 246 247
3 34 248 250
3 248 155 249
3 248 249 250
3 16 156 124
3 251 157 252
3 253 252 77
3 251 252 253
3 255 254 157
3 35 160 158
3 37 161 79
3 37 162 161
3 18 163 128
3 38 164 82
3 38 165 164
3 38 166 165
3 33 167 84
3 33 256 258
3 258 257 167
3 256 257 258
3 40 169 85
3 40 170 169
3 40 172 170
3 20 259 261
3 261 260 132
3 259 260 261
3 263 262 87
3 41 264 266
3 266 265 89
3 264 265 266
3 41 267 268
3 36 173 159
3 42 174 92
3 42 175 174
3 23 176 137
3 43 177 95
3 43 178 177
3 43 179 178
3 44 180 97
3 44 181 180
3 44 182 181
3 270 269 99
3 45 271 272
3 45 273 275
3 273 183 274
3 273 274 275
3 24 184 140
3 46 185 102
3 46 186 185
3 46 187 186
3 47 188 104
3 47 189 188
3 39 190 168
3 48 191 107
3 48 192 191
3 27 193 144
3 49 194 110
3 49 195 194
3 49 196 195
3 50 197 112
3 50 198 197
3 50 199 198
3 51 200 114
3 51 201 200
3 29 202 148
3 52 203 117
3 52 204 203
3 52 205 204
3 53 206 119
3 53 207 206
3 53 208 207
3 54 209 121
3 54 276 278
3 278 277 209
3 276 277 278
3 31 210 152
3 279 211 280
3 281 280 171
3 279 280 281
3 55 56 13
3 57 56 55
3 57 14 56
3 58 59 15
3 55 59 58
3 55 13 59
3 60 61 17
3 58 61 60
3 58 15 61
3 62 63 19
3 64 63 62
3 64 21 63
3 283 282 22
3 284 65 285
3 66 286 288
3 286 65 287
3 286 287 288
3 66 25 65
3 67 68 26
3 69 68 67
3 69 28 68
3 69 70 28
3 71 70 69
3 71 30 70
3 71 72 30
3 73 72 71
3 73 32 72
3 74 75 33
3 76 75 74
3 76 34 75
3 289 77 290
3 291 290 16
3 289 290 291
3 292 77 293
3 295 294 77
3 78 79 35
3 80 79 78
3 80 37 79
3 81 82 18
3 83 82 81
3 83 38 82
3 83 84 38
3 74 84 83
3 74 33 84
3 296 85 297
3 298 85 299
3 300 40 301
3 302 301 85
3 300 301 302
3 304 303 40
3 86 87 20
3 88 87 86
3 88 305 307
3 307 306 87
3 305 306 307
3 88 308 310
3 308 89 309
3 308 309 310
3 90 89 88
3 90 41 89
3 91 92 36
3 93 92 91
3 93 42 92
3 94 95 23
3 96 95 94
3 96 43 95
3 96 97 43
3 98 97 96
3 98 44 97
3 98 99 44
3 311 99 312
3 313 312 98
3 311 312 313
3 315 314 99
3 100 316 317
3 100 318 320
3 318 45 319
3 318 319 320
3 101 102 24
3 103 102 101
3 103 46 102
3 103 104 46
3 105 104 103
3 105 47 104
3 106 107 39
3 108 107 106
3 108 48 107
3 109 110 27
3 111 110 109
3 111 49 110
3 111 112 49
3 113 112 111
3 113 50 112
3 113 114 50
3 115 114 113
3 115 51 114
3 116 117 29
3 118 117 116
3 118 52 117
3 118 119 52
3 120 119 118
3 120 53 119
3 120 121 53
3 122 121 120
3 122 54 121
3 322 321 31
3 56 323 325
3 325 324 13
3 323 324 325
3 327 326 56
3 123 124 3
3 125 124 123
3 125 16 124
3 59 125 15
3 126 125 59
3 126 16 125
3 126 328 330
3 330 329 16
3 328 329 330
3 332 331 126
3 127 128 4
3 129 128 127
3 129 18 128
3 61 129 17
3 130 129 61
3 130 18 129
3 130 81 18
3 123 81 130
3 123 3 81
3 131 132 7
3 133 132 131
3 133 20 132
3 63 133 19
3 134 133 63
3 134 20 133
3 134 86 20
3 135 86 134
3 135 8 86
3 136 137 5
3 138 137 136
3 138 23 137
3 333 138 334
3 335 334 22
3 333 334 335
3 139 336 338
3 336 138 337
3 336 337 338
3 139 23 138
3 139 94 23
3 339 94 340
3 341 340 139
3 339 340 341
3 342 9 343
3 344 343 94
3 342 343 344
3 346 345 9
3 347 140 348
3 141 349 351
3 349 140 350
3 349 350 351
3 141 24 140
3 65 352 354
3 352 141 353
3 352 353 354
3 142 141 65
3 142 24 141
3 142 101 24
3 143 101 142
3 143 10 101
3 355 144 356
3 357 356 6
3 355 356 357
3 145 358 360
3 358 144 359
3 358 359 360
3 145 27 144
3 68 145 26
3 146 145 68
3 146 27 145
3 146 109 27
3 147 109 146
3 147 11 109
3 147 148 11
3 149 148 147
3 149 29 148
3 70 149 28
3 150 149 70
3 150 29 149
3 150 116 29
3 151 116 150
3 151 12 116
3 151 152 12
3 153 152 151
3 153 31 152
3 72 153 30
3 154 153 72
3 154 31 153
3 154 361 363
3 363 362 31
3 361 362 363
3 365 364 154
3 75 366 368
3 368 367 33
3 366 367 368
3 370 369 75
3 155 371 372
3 155 373 374
3 124 76 3
3 156 76 124
3 156 34 76
3 77 156 16
3 157 156 77
3 157 34 156
3 157 155 34
3 375 155 376
3 377 376 157
3 375 376 377
3 379 378 155
3 158 159 1
3 160 159 158
3 160 36 159
3 79 160 35
3 161 160 79
3 161 36 160
3 161 91 36
3 162 91 161
3 162 5 91
3 128 80 4
3 163 80 128
3 163 37 80
3 82 163 18
3 164 163 82
3 164 37 163
3 164 162 37
3 165 162 164
3 165 5 162
3 165 136 5
3 166 136 165
3 166 22 136
3 84 166 38
3 167 166 84
3 167 22 166
3 167 380 382
3 382 381 22
3 380 381 382
3 384 383 167
3 385 168 386
3 387 168 388
3 389 39 390
3 391 390 168
3 389 390 391
3 392 39 393
3 394 106 395
3 396 395 39
3 394 395 396
3 397 106 398
3 399 6 400
3 401 400 106
3 399 400 401
3 402 6 403
3 405 404 6
3 406 26 407
3 85 408 409
3 169 410 412
3 412 411 85
3 410 411 412
3 169 413 415
3 413 26 414
3 413 414 415
3 169 67 26
3 170 67 169
3 170 2 67
3 170 171 2
3 172 171 170
3 172 416 418
3 418 417 171
3 416 417 418
3 419 172 420
3 421 420 40
3 419 420 421
3 422 172 423
3 425 424 172
3 132 426 428
3 428 427 7
3 426 427 428
3 430 429 132
3 87 431 433
3 433 432 20
3 431 432 433
3 435 434 87
3 89 436 437
3 439 438 89
3 159 64 1
3 173 64 159
3 173 21 64
3 92 173 36
3 174 173 92
3 174 21 173
3 174 135 21
3 175 135 174
3 175 8 135
3 137 93 5
3 176 93 137
3 176 42 93
3 95 176 23
3 177 176 95
3 177 42 176
3 177 175 42
3 178 175 177
3 178 8 175
3 178 90 8
3 179 90 178
3 179 41 90
3 97 179 43
3 180 179 97
3 180 41 179
3 180 440 442
3 442 441 41
3 440 441 442
3 181 443 445
3 445 444 180
3 443 444 445
3 181 446 447
3 181 448 449
3 182 450 452
3 452 451 181
3 450 451 452
3 182 453 454
3 99 182 44
3 455 182 456
3 457 456 99
3 455 456 457
3 459 458 182
3 461 460 9
3 183 462 463
3 183 464 466
3 464 7 465
3 464 465 466
3 140 467 469
3 467 100 468
3 467 468 469
3 184 100 140
3 184 45 100
3 102 184 24
3 185 184 102
3 185 45 184
3 185 183 45
3 186 183 185
3 186 7 183
3 186 131 7
3 187 131 186
3 187 19 131
3 104 187 46
3 188 187 104
3 188 19 187
3 188 62 19
3 189 62 188
3 189 1 62
3 168 470 472
3 470 66 471
3 470 471 472
3 190 66 168
3 190 25 66
3 107 190 39
3 191 190 107
3 191 25 190
3 191 143 25
3 192 143 191
3 192 10 143
3 144 108 6
3 193 108 144
3 193 48 108
3 110 193 27
3 194 193 110
3 194 48 193
3 194 192 48
3 195 192 194
3 195 10 192
3 195 105 10
3 196 105 195
3 196 47 105
3 112 196 49
3 197 196 112
3 197 47 196
3 197 189 47
3 198 189 197
3 198 1 189
3 198 158 1
3 199 158 198
3 199 35 158
3 114 199 50
3 200 199 114
3 200 35 199
3 200 78 35
3 201 78 200
3 201 4 78
3 148 115 11
3 202 115 148
3 202 51 115
3 117 202 29
3 203 202 117
3 203 51 202
3 203 201 51
3 204 201 203
3 204 4 201
3 204 127 4
3 205 127 204
3 205 17 127
3 119 205 52
3 206 205 119
3 206 17 205
3 206 60 17
3 207 60 206
3 207 0 60
3 207 57 0
3 208 57 207
3 208 14 57
3 121 208 53
3 209 208 121
3 209 14 208
3 209 473 475
3 475 474 14
3 473 474 475
3 477 476 209
3 152 122 12
3 210 122 152
3 210 54 122
3 478 210 479
3 480 479 31
3 478 479 480
3 481 210 482
3 483 54 484
3 485 484 210
3 483 484 485
3 487 486 54
3 171 73 2
3 211 73 171
3 211 32 73
3 488 211 489
3 490 211 491
3 492 32 493
3 494 493 211
3 492 493 494
3 496 495 32
