ply
format ascii 1.0
element vertex 190
property float x
property float y
property float z
element face 178
property list uchar int vertex_index
end_header
-11.768287 53.419815 50.278751
-20.454311 36.1712 61.950378
-18.869564 50.915951 55.215115
-13.433854 39.844814 57.509979
-25.989805 36.837265 60.463013
-16.931795 38.087936 60.11076
-15.249997 52.62014 52.779823
-18.125736 58.136578 51.231003
-22.887346 40.603386 60.278561
-22.14641 48.261322 57.012783
-19.512213 43.396816 58.852577
-16.066532 45.636059 56.50304
-12.55084 46.658283 53.985043
-13.552103 52.92437 51.647614
-14.894731 56.20808 50.757542
-21.719986 38.191105 61.294807
-21.269594 42.187462 59.667007
-20.058664 39.83427 60.458714
-15.220685 39.135334 58.83868
-16.473783 41.866024 58.350842
-14.747725 42.626472 57.111408
-14.355649 46.1912 55.311798
-12.923306 43.272442 55.72934
-22.230305 34.478287 62.682201
-23.467556 36.920486 61.619541
-20.539108 49.708588 56.206921
-21.857044 52.162521 55.126434
-20.109102 53.393208 54.312084
-19.508785 60.849068 50.117191
-19.258553 33.611523 62.633877
-18.69593 37.282265 61.101654
-17.451399 34.629662 61.660091
-15.658883 35.794029 60.402336
-17.067295 51.852139 54.059898
-18.368988 54.672264 53.164406
-16.631323 55.374012 52.080235
-24.090467 42.634995 59.163738
-22.603548 44.453674 58.69875
-20.852524 45.98172 57.979626
-19.043755 47.133724 57.057617
-18.21344 40.830875 59.522324
-17.760481 44.462872 57.800507
-17.400299 48.172291 55.966549
-15.66796 49.180595 54.661915
-13.864221 49.589928 53.44577
-12.032349 50.076229 52.066349
-24.576077 38.816525 60.531689
-19.757664 57.125217 52.274174
-12.431646 54.830225 49.983282
-13.323554 54.582503 50.667713
-12.660195 53.172093 50.963183
-21.342308 35.324743 62.316289
-21.665156 33.359345 63.064249
-20.777158 34.205801 62.698338
-26.602429 35.811362 60.250614
-26.173175 34.834536 61.068573
-17.77576 32.82119 62.429081
-18.354976 34.120593 62.146984
-18.679337 32.31212 62.915974
-15.027259 34.478193 60.569227
-15.914598 34.049862 61.181494
-14.756431 36.033541 59.810181
-15.027259 34.478193 60.569227
-18.679337 32.31212 62.915974
-19.617554 31.730612 63.366858
-15.635685 57.491713 50.447365
-14.711738 57.830011 49.777924
-22.785926 49.447828 56.367695
-22.937903 47.561729 57.217123
-22.472877 53.401398 54.445978
-21.642966 53.991693 54.175772
-20.372568 60.270598 50.591154
-20.224025 62.062685 49.505388
-26.378068 37.974417 59.655075
-25.771184 38.873829 59.810121
-13.994868 56.224357 50.222678
-14.223417 54.566225 51.202578
-13.323554 54.582503 50.667713
-14.711738 57.830011 49.777924
-13.994868 56.224357 50.222678
-22.545085 32.52343 63.342287
-21.665156 33.359345 63.064249
-23.025768 33.731856 62.830991
-22.545085 32.52343 63.342287
-22.848931 35.699387 62.150871
-23.644393 34.952955 62.299661
-23.025768 33.731856 62.830991
-20.768995 54.607037 53.768597
-21.642966 53.991693 54.175772
-20.983073 52.777864 54.719259
-18.675142 61.22269 49.631414
-18.81726 59.492823 50.674097
-17.983618 59.866445 50.188321
-19.403014 62.683132 48.965381
-18.675142 61.22269 49.631414
-20.224025 62.062685 49.505388
-19.403014 62.683132 48.965381
-26.602429 35.811362 60.250614
-26.378068 37.974417 59.655075
-16.810856 33.467679 61.810371
-17.77576 32.82119 62.429081
-16.555141 35.211846 61.031213
-16.810856 33.467679 61.810371
-15.914598 34.049862 61.181494
-14.537332 37.704193 59.028352
-15.439784 37.464681 59.620508
-14.756431 36.033541 59.810181
-13.643917 38.058933 58.364002
-14.327269 39.490074 58.174329
-14.537332 37.704193 59.028352
-20.179279 32.925962 63.040087
-19.617554 31.730612 63.366858
-19.856432 34.891362 62.292127
-20.777158 34.205801 62.698338
-20.179279 32.925962 63.040087
-16.503981 57.074679 51.108711
-15.763027 55.791046 51.418889
-15.635685 57.491713 50.447365
-17.251188 58.455962 50.684095
-17.378529 56.755295 51.655619
-16.503981 57.074679 51.108711
-17.983618 59.866445 50.188321
-17.251188 58.455962 50.684095
-11.532986 55.041023 49.300294
-10.88727 53.496721 49.657618
-23.909932 44.748566 58.292601
-24.604116 43.77002 58.445622
-23.166472 45.657905 58.060107
-23.909932 44.748566 58.292601
-23.347008 43.544335 58.931244
-22.374979 46.357498 57.855767
-22.937903 47.561729 57.217123
-23.166472 45.657905 58.060107
-12.784184 38.518097 57.650433
-13.643917 38.058933 58.364002
-12.520218 40.136791 56.80563
-12.784184 38.518097 57.650433
-12.264944 41.850605 55.91531
-13.17858 41.558628 56.619659
-12.520218 40.136791 56.80563
-12.016077 43.523283 55.025864
-12.264944 41.850605 55.91531
-11.829844 45.216203 54.153715
-12.737073 44.965362 54.857191
-12.016077 43.523283 55.025864
-11.68447 46.966267 53.274002
-11.829844 45.216203 54.153715
-11.425224 48.67524 52.314656
-12.291595 48.367256 53.025696
-11.68447 46.966267 53.274002
-11.153299 50.243267 51.404455
-11.425224 48.67524 52.314656
-11.021268 51.91506 50.510656
-11.900318 51.748022 51.17255
-11.153299 50.243267 51.404455
-10.88727 53.496721 49.657618
-11.021268 51.91506 50.510656
-25.476256 35.842199 61.167347
-26.173175 34.834536 61.068573
-24.215131 35.88381 61.745611
-23.644393 34.952955 62.299661
-24.769392 36.831829 61.201685
-24.215131 35.88381 61.745611
-24.021816 37.868505 61.075615
-25.282941 37.826895 60.497351
-25.476256 35.842199 61.167347
-24.769392 36.831829 61.201685
-25.06432 39.863459 59.844459
-25.771184 38.873829 59.810121
-25.282941 37.826895 60.497351
-24.821515 41.772694 59.160484
-25.06432 39.863459 59.844459
-24.333272 40.72576 59.847713
-24.604116 43.77002 58.445622
-24.821515 41.772694 59.160484
-22.641243 51.398428 55.42452
-22.785926 49.447828 56.367695
-22.001727 50.211922 56.069609
-22.641243 51.398428 55.42452
-22.472877 53.401398 54.445978
-20.593276 56.473042 52.749642
-20.768995 54.607037 53.768597
-19.933383 55.259213 53.293129
-20.497007 58.408672 51.669646
-19.633224 58.987143 51.195683
-20.372568 60.270598 50.591154
-20.593276 56.473042 52.749642
-20.497007 58.408672 51.669646
-12.431646 54.830225 49.983282
-11.532986 55.041023 49.300294
3 0 48 50
3 50 49 13
3 48 49 50
3 1 17 15
3 3 20 18
3 3 22 20
3 1 51 53
3 51 23 52
3 51 52 53
3 1 15 23
3 2 27 25
3 4 54 55
3 56 31 57
3 58 57 29
3 56 57 58
3 59 32 60
3 62 61 32
3 63 29 64
3 6 35 33
3 66 65 14
3 8 37 36
3 10 38 16
3 10 39 38
3 5 40 30
3 11 41 19
3 11 42 41
3 11 43 42
3 12 44 21
3 12 45 44
3 8 46 24
3 8 36 46
3 9 67 68
3 70 69 26
3 7 47 34
3 72 71 28
3 74 73 4
3 13 14 6
3 75 14 76
3 77 76 13
3 75 76 77
3 79 78 14
3 15 16 8
3 17 16 15
3 17 10 16
3 18 19 5
3 20 19 18
3 20 11 19
3 20 21 11
3 22 21 20
3 22 12 21
3 23 80 81
3 23 82 83
3 23 84 86
3 84 24 85
3 84 85 86
3 15 24 23
3 15 8 24
3 25 26 9
3 27 26 25
3 27 87 89
3 89 88 26
3 87 88 89
3 90 28 91
3 92 91 7
3 90 91 92
3 93 28 94
3 96 95 28
3 98 97 4
3 29 30 1
3 31 30 29
3 31 5 30
3 99 31 100
3 32 101 103
3 101 31 102
3 101 102 103
3 32 5 31
3 32 18 5
3 104 18 105
3 106 105 32
3 104 105 106
3 107 3 108
3 109 108 18
3 107 108 109
3 29 110 111
3 29 112 114
3 112 1 113
3 112 113 114
3 33 34 2
3 35 34 33
3 35 7 34
3 14 35 6
3 115 35 116
3 117 116 14
3 115 116 117
3 118 7 119
3 120 119 35
3 118 119 120
3 122 121 7
3 124 123 0
3 36 125 126
3 37 127 129
3 129 128 36
3 127 128 129
3 37 130 132
3 130 9 131
3 130 131 132
3 16 37 8
3 38 37 16
3 38 9 37
3 38 25 9
3 39 25 38
3 39 2 25
3 30 17 1
3 40 17 30
3 40 10 17
3 19 40 5
3 41 40 19
3 41 10 40
3 41 39 10
3 42 39 41
3 42 2 39
3 42 33 2
3 43 33 42
3 43 6 33
3 21 43 11
3 44 43 21
3 44 6 43
3 44 13 6
3 45 13 44
3 45 0 13
3 133 3 134
3 135 3 136
3 137 22 138
3 139 138 3
3 137 138 139
3 140 22 141
3 142 12 143
3 144 143 22
3 142 143 144
3 145 12 146
3 147 45 148
3 149 148 12
3 147 148 149
3 150 45 151
3 152 0 153
3 154 153 45
3 152 153 154
3 156 155 0
3 157 4 158
3 24 159 160
3 46 161 163
3 163 162 24
3 161 162 163
3 46 164 166
3 164 4 165
3 164 165 166
3 46 167 169
3 169 168 4
3 167 168 169
3 36 170 172
3 172 171 46
3 170 171 172
3 36 173 174
3 26 175 177
3 177 176 9
3 175 176 177
3 179 178 26
3 34 27 2
3 47 27 34
3 47 180 182
3 182 181 27
3 180 181 182
3 28 47 7
3 183 47 184
3 185 184 28
3 183 184 185
3 187 186 47
3 189 188 0
