ply
format ascii 1.0
element vertex 98
property float x
property float y
property float z
element face 82
property list uchar int vertex_index
end_header
23.351063 -66.266602 -40.207859
25.664482 -58.671597 -43.276459
20.662912 -65.208527 -43.268372
25.675638 -66.314034 -36.640617
21.752913 -61.467236 -44.564247
22.131191 -69.608421 -38.824654
23.457764 -69.416603 -37.023201
24.700874 -66.093849 -38.592308
24.478964 -62.512089 -41.82674
25.753479 -62.717823 -40.240311
26.857952 -59.341408 -41.616245
20.896448 -69.208794 -40.546619
19.383648 -68.94989 -42.006378
22.121918 -65.613342 -41.906467
23.15094 -61.921021 -43.360939
24.296722 -58.050072 -44.721325
26.8741 -62.993263 -38.320953
27.773767 -63.133369 -36.35577
19.560059 -70.886509 -40.577313
20.246598 -70.986927 -39.836132
20.02328 -67.079208 -42.637375
18.608477 -68.727371 -42.628082
19.248109 -66.85669 -43.259079
23.592876 -57.774683 -45.301721
23.024817 -59.758654 -44.642786
22.320971 -59.483265 -45.223183
24.151608 -55.729725 -46.013643
24.855454 -56.005114 -45.433246
23.592876 -57.774683 -45.301721
25.00448 -67.945412 -35.824179
23.895543 -69.496696 -36.01547
24.566701 -67.865319 -36.831909
26.093979 -66.308781 -35.651727
25.00448 -67.945412 -35.824179
27.47889 -61.264515 -39.088852
26.313789 -62.855543 -39.280632
26.91858 -61.126795 -40.04853
28.771164 -61.49444 -36.250829
28.378571 -61.473427 -37.188133
29.129286 -61.497648 -35.253096
28.131888 -63.136578 -35.358036
28.771164 -61.49444 -36.250829
26.800624 -57.066763 -43.256012
26.156239 -56.781815 -44.013749
19.925692 -64.887921 -43.865654
19.248109 -66.85669 -43.259079
20.470693 -63.017275 -44.513592
21.207912 -63.337882 -43.916309
19.925692 -64.887921 -43.865654
21.030826 -61.024838 -45.161926
20.470693 -63.017275 -44.513592
22.320971 -59.483265 -45.223183
21.030826 -61.024838 -45.161926
22.794477 -69.512512 -37.923928
22.174242 -71.118126 -37.214411
21.510956 -71.214035 -38.115138
27.470816 -59.438587 -40.736497
26.91858 -61.126795 -40.04853
26.305715 -61.029616 -40.928278
27.397359 -57.401668 -42.425905
26.261217 -59.006502 -42.446352
26.800624 -57.066763 -43.256012
27.961497 -57.672552 -41.580635
27.397359 -57.401668 -42.425905
27.470816 -59.438587 -40.736497
27.961497 -57.672552 -41.580635
20.86397 -71.186741 -38.97515
21.510956 -71.214035 -38.115138
21.51382 -69.408608 -39.685637
20.86397 -71.186741 -38.97515
20.246598 -70.986927 -39.836132
17.945505 -70.701424 -41.965252
18.608477 -68.727371 -42.628082
18.803659 -70.757057 -41.307192
17.945505 -70.701424 -41.965252
20.140048 -69.079342 -41.276499
19.560059 -70.886509 -40.577313
18.803659 -70.757057 -41.307192
25.472359 -56.471052 -44.736182
26.156239 -56.781815 -44.013749
24.980602 -58.360834 -43.998892
25.472359 -56.471052 -44.736182
24.855454 -56.005114 -45.433246
22.700208 -71.14777 -36.265028
22.174242 -71.118126 -37.214411
22.700208 -71.14777 -36.265028
23.895543 -69.496696 -36.01547
27.928738 -61.403374 -38.170725
27.47889 -61.264515 -39.088852
27.323933 -63.063316 -37.338362
27.928738 -61.403374 -38.170725
28.378571 -61.473427 -37.188133
27.143043 -64.718448 -35.509304
26.093979 -66.308781 -35.651727
26.724702 -64.723702 -36.498193
27.501165 -64.721657 -34.51157
27.143043 -64.718448 -35.509304
28.131888 -63.136578 -35.358036
3 0 7 5
3 1 10 8
3 18 11 19
3 2 20 22
3 20 12 21
3 20 21 22
3 2 13 12
3 2 14 13
3 23 15 24
3 25 24 4
3 23 24 25
3 28 27 15
3 26 27 28
3 3 29 31
3 31 30 6
3 29 30 31
3 3 32 33
3 34 16 35
3 36 35 9
3 34 35 36
3 37 17 38
3 41 40 17
3 39 40 41
3 43 42 1
3 44 2 45
3 46 4 47
3 48 47 2
3 46 47 48
3 49 4 50
3 52 51 4
3 5 53 55
3 53 6 54
3 53 54 55
3 7 6 5
3 7 3 6
3 8 9 0
3 10 9 8
3 10 56 58
3 58 57 9
3 56 57 58
3 59 10 60
3 61 60 1
3 59 60 61
3 62 10 63
3 65 64 10
3 66 5 67
3 11 68 70
3 68 5 69
3 68 69 70
3 11 0 5
3 12 71 72
3 12 73 74
3 12 75 77
3 75 11 76
3 75 76 77
3 13 11 12
3 13 0 11
3 13 8 0
3 14 8 13
3 14 1 8
3 4 14 2
3 15 14 4
3 15 1 14
3 15 78 80
3 80 79 1
3 78 79 80
3 82 81 15
3 6 83 84
3 86 85 6
3 9 7 0
3 16 7 9
3 16 3 7
3 87 16 88
3 17 89 91
3 89 16 90
3 89 90 91
3 17 3 16
3 17 92 94
3 94 93 3
3 92 93 94
3 97 96 17
3 95 96 97
