ply
format ascii 1.0
element vertex 264
property float x
property float y
property float z
element face 270
property list uchar int vertex_index
end_header
24.92609 -100.037758 -20.229496
26.487488 -90.444237 -15.990846
24.322453 -82.119453 -21.67474
23.773378 -92.018265 -26.208733
26.274145 -95.402832 -17.99958
25.596479 -91.889832 -21.205015
24.640099 -96.555099 -23.492872
23.17131 -82.189667 -25.923258
23.034094 -77.107491 -23.987877
24.79644 -81.357147 -17.443401
25.498833 -86.598953 -19.195702
24.453213 -87.295349 -23.877806
22.505613 -86.552544 -28.261347
22.277687 -103.571602 -22.544117
22.422377 -100.465149 -25.781202
26.991951 -93.527588 -12.454642
26.320213 -98.535095 -14.314841
25.665848 -100.558197 -10.154267
24.42108 -102.791206 -16.447166
21.933172 -96.032173 -28.613262
25.77878 -97.833405 -19.022995
25.588938 -96.102707 -20.803358
24.935934 -98.263878 -21.820751
22.200224 -81.398354 -27.982996
22.446014 -79.288651 -26.878159
26.256819 -87.833664 -15.236049
25.758171 -85.94075 -16.741385
26.05024 -88.586464 -17.584772
24.819696 -92.006485 -23.725983
25.107235 -89.637054 -22.48848
24.285315 -89.647827 -24.907574
23.597586 -87.086685 -26.113365
23.187029 -89.526337 -27.297705
20.431604 -104.984276 -23.481007
20.734703 -103.627914 -25.213091
26.797827 -96.099472 -13.346253
26.752047 -97.100227 -11.267365
24.541506 -102.64785 -11.375639
25.183088 -101.762085 -13.319915
23.931252 -103.660934 -14.399288
23.006205 -104.487144 -17.447533
22.433266 -105.173286 -15.510783
24.646191 -81.977905 -19.592815
24.236 -79.307182 -18.96134
24.035446 -79.525429 -20.840357
22.35165 -98.340294 -27.162373
26.477417 -92.897148 -17.07659
26.111721 -91.18853 -18.731955
25.981268 -93.780464 -19.729366
25.279114 -94.225632 -22.286333
24.331425 -94.36721 -24.793861
23.827129 -82.248169 -23.88983
23.689411 -79.701042 -22.909239
23.129898 -79.455345 -24.970608
25.359591 -83.363365 -15.988868
25.191723 -83.933449 -18.254292
24.947195 -84.596085 -20.477362
25.684935 -89.328575 -20.071075
25.124239 -87.19249 -21.448473
24.471474 -84.773056 -22.745085
23.814219 -84.750809 -24.946613
22.931929 -84.334648 -27.057812
21.768465 -83.598663 -29.152685
23.796885 -102.05513 -21.159481
23.879354 -100.399162 -22.955843
22.501827 -102.089134 -24.149933
20.865332 -101.896362 -26.907009
26.798281 -92.006508 -14.297077
26.731493 -94.523392 -15.17169
26.386234 -97.052277 -16.242144
25.774025 -99.399857 -17.144178
26.146322 -99.507339 -12.164742
25.544622 -100.791 -15.200022
24.821405 -101.476311 -18.31216
23.440439 -103.458214 -19.440237
21.866934 -104.903526 -20.552517
23.744007 -98.67025 -24.539373
23.402798 -96.584869 -26.133774
23.055128 -94.144424 -27.335508
21.447741 -93.571518 -29.784519
22.427111 -91.565109 -28.615395
21.87327 -88.848869 -29.47452
21.822076 -79.898785 -28.39311
21.618283 -81.028999 -28.950742
19.527453 -104.827942 -24.957982
19.354038 -105.475937 -24.005803
26.843181 -96.476749 -9.830185
26.900294 -95.9427 -10.824608
23.84185 -103.507122 -11.947847
24.137757 -102.918339 -10.331778
23.536724 -104.013664 -13.459671
24.236379 -103.154392 -12.887463
23.84185 -103.507122 -11.947847
22.787731 -104.76984 -14.015419
23.182259 -104.41711 -14.955036
23.536724 -104.013664 -13.459671
22.439408 -78.019471 -26.411402
22.041217 -77.735287 -27.35151
25.625608 -84.261341 -15.17538
25.372298 -82.904724 -14.912806
19.97926 -102.503971 -27.368373
20.800017 -102.762138 -26.06005
19.913946 -103.369747 -26.521414
19.970134 -101.590965 -28.152931
19.97926 -102.503971 -27.368373
26.973208 -92.173401 -11.979789
27.059541 -92.807651 -11.025517
26.895116 -92.767048 -13.37586
26.876373 -91.412861 -12.901007
26.973208 -92.173401 -11.979789
25.81577 -99.867065 -8.66674
25.354923 -100.890225 -9.133664
26.060889 -99.420029 -9.706236
25.81577 -99.867065 -8.66674
25.906085 -100.032768 -11.159505
26.301126 -98.894599 -10.711474
26.060889 -99.420029 -9.706236
21.550117 -105.38192 -19.607184
22.43657 -104.695335 -19.000025
22.119752 -105.173729 -18.054692
20.8855 -105.487259 -21.143711
21.550117 -105.38192 -19.607184
24.560499 -80.045303 -17.121845
24.83791 -81.049671 -16.361898
24.038611 -78.054802 -18.489493
23.960412 -78.110485 -19.456402
23.226993 -77.078496 -23.008195
23.554651 -78.375271 -22.468876
23.361753 -78.404267 -23.448558
21.167082 -92.129761 -30.284589
20.572959 -93.051914 -30.868975
21.656767 -91.126557 -29.700027
21.937426 -92.568314 -29.199957
21.167082 -92.129761 -30.284589
21.379846 -89.768437 -30.12959
22.150191 -90.206989 -29.044957
21.656767 -91.126557 -29.700027
21.944971 -78.843933 -27.840691
22.323119 -80.343502 -27.430577
21.822076 -79.898785 -28.39311
22.041217 -77.735287 -27.35151
21.944971 -78.843933 -27.840691
26.007495 -86.887207 -15.988717
25.824898 -85.550033 -15.551638
26.074222 -86.49649 -14.79897
19.679002 -104.149761 -25.824023
20.583154 -104.306095 -24.347049
19.527453 -104.827942 -24.957982
19.913946 -103.369747 -26.521414
19.679002 -104.149761 -25.824023
27.020246 -94.15638 -11.418246
27.059541 -92.807651 -11.025517
26.923184 -95.442322 -11.864052
26.894889 -94.81353 -12.900448
27.020246 -94.15638 -11.418246
26.774937 -96.59985 -12.306809
26.923184 -95.442322 -11.864052
26.900294 -95.9427 -10.824608
24.792752 -101.935051 -9.74435
24.137757 -102.918339 -10.331778
25.103677 -101.603024 -10.764953
25.354923 -100.890225 -9.133664
24.792752 -101.935051 -9.74435
21.833282 -105.5168 -17.086317
22.119752 -105.173729 -18.054692
22.719735 -104.830215 -16.479158
23.860135 -78.219608 -20.39591
23.960412 -78.110485 -19.456402
24.135723 -79.416305 -19.900849
22.92735 -75.831268 -23.56247
22.691731 -75.676472 -24.479498
21.551085 -99.097725 -27.835252
22.387014 -99.402721 -26.471787
21.586449 -100.160152 -27.144666
21.468969 -97.992325 -28.457305
21.551085 -99.097725 -27.835252
21.25973 -96.838265 -29.182749
22.142411 -97.186234 -27.887817
21.468969 -97.992325 -28.457305
22.78135 -78.102818 -25.457626
22.787956 -79.371998 -25.924383
22.439408 -78.019471 -26.411402
22.733448 -76.92889 -24.966261
23.081996 -78.281418 -24.479242
22.78135 -78.102818 -25.457626
22.691731 -75.676472 -24.479498
22.733448 -76.92889 -24.966261
25.119485 -82.05278 -15.634632
25.372298 -82.904724 -14.912806
25.078015 -82.360256 -16.716135
24.83791 -81.049671 -16.361898
25.119485 -82.05278 -15.634632
25.558881 -84.652057 -16.365127
25.625608 -84.261341 -15.17538
25.824898 -85.550033 -15.551638
21.402404 -82.129154 -29.535587
21.618283 -81.028999 -28.950742
21.984344 -82.498508 -28.567841
20.807927 -100.875759 -27.70757
21.586449 -100.160152 -27.144666
21.643854 -101.180756 -26.344105
20.807927 -100.875759 -27.70757
19.970134 -101.590965 -28.152931
26.296971 -87.288567 -14.009933
26.074222 -86.49649 -14.79897
26.456415 -88.634491 -14.370305
26.296971 -87.288567 -14.009933
26.571749 -89.939777 -14.747704
26.372153 -89.13895 -15.613447
26.456415 -88.634491 -14.370305
26.727145 -90.720913 -13.900819
26.876373 -91.412861 -12.901007
26.642885 -91.225372 -15.143961
26.571749 -89.939777 -14.747704
26.727145 -90.720913 -13.900819
26.603988 -97.691044 -10.262785
26.843181 -96.476749 -9.830185
26.449185 -98.303783 -11.716054
26.603988 -97.691044 -10.262785
26.301126 -98.894599 -10.711474
20.167835 -105.527634 -22.607956
21.149269 -104.943901 -22.016762
20.8855 -105.487259 -21.143711
19.354038 -105.475937 -24.005803
20.167835 -105.527634 -22.607956
21.928047 -105.472889 -14.543878
22.787731 -104.76984 -14.015419
21.501558 -105.799976 -16.028337
21.928047 -105.472889 -14.543878
21.833282 -105.5168 -17.086317
21.501558 -105.799976 -16.028337
24.280279 -79.02032 -17.880814
24.560499 -80.045303 -17.121845
24.51622 -80.332165 -18.202371
24.280279 -79.02032 -17.880814
24.038611 -78.054802 -18.489493
23.727669 -78.287464 -21.434435
23.862429 -79.613236 -21.874798
23.554651 -78.375271 -22.468876
23.860135 -78.219608 -20.39591
23.727669 -78.287464 -21.434435
23.226993 -77.078496 -23.008195
22.92735 -75.831268 -23.56247
21.027544 -95.612965 -29.817597
21.25973 -96.838265 -29.182749
20.784828 -94.382637 -30.403225
20.572959 -93.051914 -30.868975
21.690456 -94.801845 -29.19889
21.027544 -95.612965 -29.817597
20.784828 -94.382637 -30.403225
21.115865 -88.385128 -30.477674
21.379846 -89.768437 -30.12959
21.49196 -87.359985 -29.940553
21.115865 -88.385128 -30.477674
21.808131 -86.211822 -29.333967
22.189442 -87.700706 -28.867933
21.49196 -87.359985 -29.940553
21.439557 -84.734882 -29.779636
22.137039 -85.075603 -28.707016
21.808131 -86.211822 -29.333967
21.047348 -83.164574 -30.17747
21.439557 -84.734882 -29.779636
21.402404 -82.129154 -29.535587
21.047348 -83.164574 -30.17747
3 0 22 20
3 83 82 23
3 1 27 25
3 3 30 28
3 3 32 30
3 85 84 33
3 86 36 87
3 88 37 89
3 90 39 91
3 92 91 37
3 90 91 92
3 93 41 94
3 95 94 39
3 93 94 95
3 2 44 42
3 4 48 46
3 6 49 21
3 6 50 49
3 7 53 51
3 97 96 24
3 98 54 99
3 10 55 26
3 10 56 55
3 5 57 47
3 11 58 29
3 11 59 58
3 11 60 59
3 12 61 31
3 12 62 61
3 13 65 63
3 100 66 101
3 102 101 34
3 100 101 102
3 104 103 66
3 15 105 106
3 15 107 109
3 107 67 108
3 107 108 109
3 15 68 67
3 16 69 35
3 16 70 69
3 17 110 111
3 17 112 113
3 17 114 116
3 114 71 115
3 114 115 116
3 18 72 38
3 18 73 72
3 18 74 73
3 117 75 118
3 119 118 40
3 117 118 119
3 121 120 75
3 9 122 123
3 125 124 43
3 8 126 128
3 128 127 52
3 126 127 128
3 14 76 64
3 19 77 45
3 19 78 77
3 129 79 130
3 131 80 132
3 133 132 79
3 131 132 133
3 134 81 135
3 136 135 80
3 134 135 136
3 20 21 4
3 22 21 20
3 22 6 21
3 23 24 7
3 137 24 138
3 139 138 23
3 137 138 139
3 141 140 24
3 25 142 144
3 142 26 143
3 142 143 144
3 27 26 25
3 27 10 26
3 28 29 5
3 30 29 28
3 30 11 29
3 30 31 11
3 32 31 30
3 32 12 31
3 33 34 13
3 145 34 146
3 147 146 33
3 145 146 147
3 149 148 34
3 150 15 151
3 152 35 153
3 154 153 15
3 152 153 154
3 36 155 157
3 155 35 156
3 155 156 157
3 36 16 35
3 37 158 159
3 37 160 162
3 160 17 161
3 160 161 162
3 37 38 17
3 39 38 37
3 39 18 38
3 39 40 18
3 41 40 39
3 41 163 165
3 165 164 40
3 163 164 165
3 42 43 9
3 44 43 42
3 44 166 168
3 168 167 43
3 166 167 168
3 170 169 8
3 171 45 172
3 173 172 14
3 171 172 173
3 174 45 175
3 176 19 177
3 178 177 45
3 176 177 178
3 46 47 1
3 48 47 46
3 48 5 47
3 21 48 4
3 49 48 21
3 49 5 48
3 49 28 5
3 50 28 49
3 50 3 28
3 51 52 2
3 53 52 51
3 53 8 52
3 24 53 7
3 179 53 180
3 181 180 24
3 179 180 181
3 182 8 183
3 184 183 53
3 182 183 184
3 186 185 8
3 54 187 188
3 54 189 191
3 189 9 190
3 189 190 191
3 26 192 194
3 192 54 193
3 192 193 194
3 55 54 26
3 55 9 54
3 55 42 9
3 56 42 55
3 56 2 42
3 47 27 1
3 57 27 47
3 57 10 27
3 29 57 5
3 58 57 29
3 58 10 57
3 58 56 10
3 59 56 58
3 59 2 56
3 59 51 2
3 60 51 59
3 60 7 51
3 31 60 11
3 61 60 31
3 61 7 60
3 61 23 7
3 62 23 61
3 62 195 197
3 197 196 23
3 195 196 197
3 63 64 0
3 65 64 63
3 65 14 64
3 34 65 13
3 66 65 34
3 66 14 65
3 66 198 200
3 200 199 14
3 198 199 200
3 202 201 66
3 203 25 204
3 205 25 206
3 207 1 208
3 209 208 25
3 207 208 209
3 67 210 211
3 67 212 214
3 212 1 213
3 212 213 214
3 67 46 1
3 68 46 67
3 68 4 46
3 35 68 15
3 69 68 35
3 69 4 68
3 69 20 4
3 70 20 69
3 70 0 20
3 215 36 216
3 71 217 219
3 217 36 218
3 217 218 219
3 71 16 36
3 38 71 17
3 72 71 38
3 72 16 71
3 72 70 16
3 73 70 72
3 73 0 70
3 73 63 0
3 74 63 73
3 74 13 63
3 40 74 18
3 75 74 40
3 75 13 74
3 75 33 13
3 220 33 221
3 222 221 75
3 220 221 222
3 224 223 33
3 225 41 226
3 227 41 228
3 230 229 41
3 43 231 233
3 233 232 9
3 231 232 233
3 235 234 43
3 52 44 2
3 236 44 237
3 238 237 52
3 236 237 238
3 240 239 44
3 242 241 8
3 64 22 0
3 76 22 64
3 76 6 22
3 45 76 14
3 77 76 45
3 77 6 76
3 77 50 6
3 78 50 77
3 78 3 50
3 243 19 244
3 79 245 246
3 79 247 249
3 247 19 248
3 247 248 249
3 79 78 19
3 80 78 79
3 80 3 78
3 80 32 3
3 81 32 80
3 81 12 32
3 250 81 251
3 252 81 253
3 254 12 255
3 256 255 81
3 254 255 256
3 257 62 258
3 259 258 12
3 257 258 259
3 260 62 261
3 263 262 62
