ply
format ascii 1.0
element vertex 457
property float x
property float y
property float z
element face 445
property list uchar int vertex_index
end_header
33.986862 77.297798 -3.607514
31.849077 64.573425 23.87517
30.568661 79.642288 18.666004
31.050484 54.319225 35.71843
35.919476 62.233814 3.785294
31.153576 86.814835 3.556382
32.941936 72.365532 10.272032
34.214092 56.881264 16.166777
34.467392 78.351204 -10.585112
35.605537 71.166519 -6.558722
34.975819 70.017479 0.173495
31.322397 72.039345 21.430927
31.673914 76.602852 14.312936
32.336483 68.95459 17.239071
33.6036 64.767365 13.428356
32.904518 61.193199 19.751404
32.290665 56.735413 25.835651
30.274109 74.944382 25.670599
30.952482 67.331841 28.164421
31.432478 59.617039 30.021313
30.606441 61.991219 34.378498
30.293638 55.967052 40.258217
36.26889 43.148281 15.66022
36.628368 34.670036 17.694038
36.639591 25.99419 19.743813
32.492401 82.45298 -0.00657
30.870945 83.606308 11.19802
32.09594 79.942139 7.022026
33.461067 75.197563 3.536027
34.353146 67.700417 6.714783
35.130203 59.750206 10.012327
34.225994 78.022629 -7.15813
34.998035 74.998993 -8.448271
34.777664 74.354836 -5.135904
35.328487 70.546402 -3.172059
34.502705 73.703392 -1.824459
31.6078 68.452057 22.537807
31.786015 70.769287 19.314226
32.093548 66.768097 20.578653
32.643833 65.211922 18.36676
32.353054 62.863583 21.804214
32.602707 59.042576 22.764908
32.082947 60.540768 25.012024
30.649975 71.162643 26.925875
30.488699 68.516289 30.248528
30.779179 64.676605 31.378698
30.311342 65.649094 33.590752
35.685932 41.517422 18.245043
36.504539 38.990982 16.592344
35.843369 37.308414 19.240726
35.860329 29.046059 21.317299
35.843483 24.493118 22.105255
31.831661 84.740814 1.56221
30.147425 83.055138 17.064205
30.227188 85.339157 13.247881
30.741886 81.673805 14.883754
32.260311 74.632767 12.354632
31.890514 78.426666 10.583602
32.544037 76.073418 8.778028
32.732857 77.826698 5.196697
33.203629 73.990273 6.787739
33.906593 71.448586 5.263692
33.601963 70.149796 8.529138
33.916985 60.921635 14.81
34.31427 62.520214 11.654436
34.689579 58.310608 13.111275
31.240984 57.153038 32.784798
31.613525 55.659618 30.781
31.398861 53.255241 33.482925
34.65992 78.539909 -13.948483
35.515148 74.864128 -15.097593
35.312035 74.84951 -11.733521
35.494114 65.947479 2.056111
30.469627 88.700523 5.666759
31.005356 75.903992 19.869202
31.142365 77.974968 16.600548
31.518454 74.304588 17.861752
32.052788 72.600029 15.810389
32.632568 70.848091 13.696326
33.242649 68.567703 12.145799
32.957657 66.808472 15.299694
33.241608 62.945156 16.740982
33.531307 59.018608 17.952675
33.803638 54.910789 19.138382
33.142883 57.202606 20.944916
32.75444 55.101254 24.041624
30.901291 51.528233 38.291008
31.211794 50.42654 36.1828
33.694511 81.315926 -9.07971
33.499916 80.586014 -5.41211
30.009823 80.643303 20.959986
30.484657 77.034615 22.204678
30.836662 73.514023 23.468794
31.135826 69.808472 24.772621
31.408892 66.19046 25.782341
31.632082 62.177799 27.046124
31.215698 63.800949 28.945726
31.033939 61.022903 32.072838
30.862011 58.045933 35.092854
30.184278 62.665504 36.47633
30.459419 58.946365 37.316589
30.669638 55.341755 38.067551
30.547527 52.309162 40.659473
35.905819 33.238556 20.237305
32.704193 83.408348 -3.647305
33.197815 80.081924 -1.806683
30.962044 85.484322 7.485457
31.295498 80.136314 12.838277
31.474987 81.909981 9.015697
31.636959 83.475601 5.331906
32.274574 81.430611 3.450373
32.997044 78.864143 1.745546
33.721203 76.445557 -0.113533
34.171696 72.804245 1.848241
34.645592 69.061966 3.506626
35.079632 65.143478 5.31889
33.960979 66.508125 10.029053
34.719131 63.827847 8.499495
35.536598 61.230743 6.772254
35.981651 56.979092 8.358863
36.364017 52.850056 9.860086
36.669754 48.638687 11.408073
36.104115 47.198143 14.300833
31.821188 58.395523 27.964907
30.241658 68.892689 31.340971
30.308869 70.353623 29.693107
30.15298 67.459091 33.012083
30.400021 67.082692 31.91964
30.241658 68.892689 31.340971
35.443076 38.820966 19.993024
35.764651 39.412918 18.742884
35.364357 40.925471 19.495183
35.464502 23.725504 23.166901
35.480926 25.952309 22.858149
35.797713 22.268721 22.453369
35.464502 23.725504 23.166901
36.348896 60.728277 3.02408
36.113625 62.64967 2.181332
36.158831 60.25441 4.512458
36.348896 60.728277 3.02408
31.223569 87.422612 1.731119
30.84396 88.494446 2.833
31.492618 85.777825 2.559296
31.562612 86.385601 0.734033
31.223569 87.422612 1.731119
34.603426 55.615559 15.310634
34.841169 56.330231 13.782883
34.451836 57.595936 14.639026
34.364065 54.681713 16.817836
34.753399 53.416008 15.961693
34.603426 55.615559 15.310634
35.72635 71.355114 -8.14772
35.4226 73.271351 -9.092495
35.301786 73.082756 -7.503497
36.031505 69.406418 -7.157611
35.72635 71.355114 -8.14772
35.857383 69.341221 -5.474981
36.031505 69.406418 -7.157611
35.387595 68.489952 -0.521337
35.563929 68.754413 -2.194114
35.152153 70.28194 -1.499282
35.234966 67.982479 1.114803
35.646742 66.454952 0.419971
35.387595 68.489952 -0.521337
30.116854 89.500275 6.777803
30.171105 90.264069 4.806276
32.362608 54.709439 26.348797
32.594496 53.892359 25.451784
32.522553 55.918334 24.938637
30.964913 49.525858 38.561741
30.815905 50.085518 39.65253
33.310467 82.66647 -8.139127
33.395603 82.932541 -9.898309
33.213169 82.301514 -6.305327
33.597213 80.95097 -7.24591
33.310467 82.66647 -8.139127
29.683499 81.17152 22.008843
29.770018 82.312348 20.164684
30.086185 76.627674 24.962265
30.000155 75.382465 26.704829
30.379383 75.989498 23.937638
30.191458 77.67279 23.229305
30.086185 76.627674 24.962265
29.89969 63.070158 37.598087
29.996634 64.629146 35.994978
30.376528 57.456709 38.787403
30.233109 59.410212 38.33857
30.150218 57.920555 39.809384
36.697916 41.589207 14.899138
36.597805 43.679564 14.278773
36.953524 35.182299 16.510849
36.891609 37.342771 15.960002
36.566454 36.830509 17.143191
36.998075 33.077158 17.040739
36.953524 35.182299 16.510849
35.53062 32.422845 21.497625
35.537428 34.565197 20.966491
36.641852 28.176844 19.286164
36.25222 29.702778 20.072907
36.24996 27.520125 20.530556
37.02753 26.494277 18.544374
36.641852 28.176844 19.286164
37.007351 24.285987 18.99595
37.02753 26.494277 18.544374
35.936934 72.967568 -15.704691
35.804699 73.206527 -14.059606
32.598297 82.930664 -1.826937
32.342492 84.644036 -2.800065
32.236596 84.166351 -0.979697
30.607295 85.352184 10.367147
30.285417 86.218609 11.392077
30.549067 84.472733 12.22295
30.916494 84.545315 9.341738
30.652845 86.291191 8.510865
30.607295 85.352184 10.367147
36.094915 52.134642 11.409074
35.940984 54.219454 10.654511
36.247783 50.028957 12.183067
36.516886 50.744371 10.63408
36.094915 52.134642 11.409074
35.964964 49.308685 13.629447
36.386934 47.918415 12.854453
36.247783 50.028957 12.183067
33.903951 52.833179 19.761405
33.579923 53.975103 20.617037
31.803475 55.033929 29.774676
31.683296 53.648392 31.153931
31.358406 49.812395 35.207903
31.253076 48.473021 36.47081
30.201574 73.567669 27.404142
30.000155 75.382465 26.704829
30.389507 71.6768 28.03178
30.462042 73.053513 26.298237
30.201574 73.567669 27.404142
30.569337 69.839466 28.587201
30.389507 71.6768 28.03178
30.308869 70.353623 29.693107
30.069194 56.317335 41.285235
30.150218 57.920555 39.809384
30.237347 54.398874 41.54681
30.069194 56.317335 41.285235
35.48935 28.22878 22.464171
35.507875 30.326597 22.037622
35.851906 26.769588 21.711277
35.48935 28.22878 22.464171
35.480926 25.952309 22.858149
36.215385 23.015065 21.31469
36.613439 23.765601 20.133969
36.241537 25.243654 20.924534
36.215385 23.015065 21.31469
35.797713 22.268721 22.453369
31.906226 85.310269 -0.195307
31.562612 86.385601 0.734033
32.162031 83.596897 0.77782
32.236596 84.166351 -0.979697
31.906226 85.310269 -0.195307
30.187306 84.197147 15.156043
29.914118 85.806545 14.512629
29.874236 84.664535 16.420791
35.103766 56.94973 12.280105
35.324078 57.669529 10.730632
34.909891 59.030407 11.561801
35.103766 56.94973 12.280105
34.841169 56.330231 13.782883
31.575964 52.446203 32.504893
31.683296 53.648392 31.153931
31.506193 54.45743 32.131963
35.087534 76.702018 -14.523038
35.203547 76.506996 -16.123985
34.775932 78.344887 -15.54943
35.703142 73.199219 -12.37757
35.804699 73.206527 -14.059606
35.413592 74.856819 -13.415557
35.5796 73.196609 -10.735119
35.155035 74.924251 -10.090896
35.4226 73.271351 -9.092495
35.703142 73.199219 -12.37757
35.5796 73.196609 -10.735119
35.718858 69.031162 -3.781649
35.857383 69.341221 -5.474981
35.467012 70.85646 -4.865391
35.718858 69.031162 -3.781649
35.563929 68.754413 -2.194114
35.900944 64.506502 1.316741
35.646742 66.454952 0.419971
35.706795 64.090647 2.920702
36.113625 62.64967 2.181332
35.900944 64.506502 1.316741
30.501985 89.43729 3.888189
30.171105 90.264069 4.806276
30.811602 87.757679 4.611571
30.84396 88.494446 2.833
30.501985 89.43729 3.888189
33.249546 55.121012 21.520304
33.579923 53.975103 20.617037
33.47326 56.056697 20.041649
33.055324 54.070335 23.068658
33.249546 55.121012 21.520304
32.948662 56.15193 22.49327
32.837832 53.029578 24.542085
33.055324 54.070335 23.068658
32.837832 53.029578 24.542085
32.594496 53.892359 25.451784
31.120164 48.975012 37.507637
31.056542 50.977387 37.236904
30.964913 49.525858 38.561741
31.253076 48.473021 36.47081
31.120164 48.975012 37.507637
34.384703 79.998074 -14.92589
34.775932 78.344887 -15.54943
34.263255 80.109771 -13.168666
34.384703 79.998074 -14.92589
34.16699 80.015419 -11.486981
34.563656 78.445556 -12.266797
34.263255 80.109771 -13.168666
33.78055 81.49778 -10.734279
33.395603 82.932541 -9.898309
34.080951 79.833565 -9.832411
34.16699 80.015419 -11.486981
33.78055 81.49778 -10.734279
29.838819 83.518265 18.216793
29.874236 84.664535 16.420791
30.078624 81.849221 19.012096
29.838819 83.518265 18.216793
29.770018 82.312348 20.164684
29.954042 79.477135 22.606959
29.683499 81.17152 22.008843
30.24724 78.838959 21.582332
29.954042 79.477135 22.606959
30.191458 77.67279 23.229305
30.060166 66.120942 34.552189
30.15298 67.459091 33.012083
30.24781 64.157299 35.033541
30.060166 66.120942 34.552189
29.996634 64.629146 35.994978
30.095538 61.269781 37.91844
29.89969 63.070158 37.598087
30.321849 60.805934 36.896459
30.095538 61.269781 37.91844
30.233109 59.410212 38.33857
30.639024 50.475983 40.836763
30.815905 50.085518 39.65253
30.724409 51.918698 39.47524
30.364291 52.569929 41.747438
30.420583 54.138107 40.458845
30.237347 54.398874 41.54681
30.487114 50.700066 41.927976
30.364291 52.569929 41.747438
30.639024 50.475983 40.836763
30.487114 50.700066 41.927976
36.815741 39.510557 15.3652
36.697916 41.589207 14.899138
36.386714 41.069631 16.126282
36.815741 39.510557 15.3652
36.891609 37.342771 15.960002
35.506203 36.600126 20.468201
35.443076 38.820966 19.993024
35.874594 35.273485 19.739016
35.506203 36.600126 20.468201
35.537428 34.565197 20.966491
35.883074 31.142308 20.777302
35.53062 32.422845 21.497625
35.507875 30.326597 22.037622
36.274966 31.799027 19.53291
35.883074 31.142308 20.777302
36.25222 29.702778 20.072907
36.63624 32.514767 18.261277
36.267094 33.954296 18.965671
36.274966 31.799027 19.53291
36.998075 33.077158 17.040739
36.63624 32.514767 18.261277
37.007351 24.285987 18.99595
36.613439 23.765601 20.133969
35.603628 74.72958 -16.791495
35.203547 76.506996 -16.123985
35.603628 74.72958 -16.791495
35.936934 72.967568 -15.704691
32.413086 85.155514 -4.646962
32.342492 84.644036 -2.800065
32.815308 83.712681 -5.422924
32.413086 85.155514 -4.646962
33.102054 81.997181 -4.529707
33.213169 82.301514 -6.305327
32.815308 83.712681 -5.422924
29.940818 86.920204 12.571662
29.914118 85.806545 14.512629
29.940818 86.920204 12.571662
30.285417 86.218609 11.392077
30.406636 87.899292 7.601516
30.116854 89.500275 6.777803
30.715835 87.092422 6.576108
30.406636 87.899292 7.601516
30.652845 86.291191 8.510865
35.967392 59.752874 6.005938
36.158831 60.25441 4.512458
35.728037 61.732278 5.278774
36.189919 57.627049 6.799243
35.967392 59.752874 6.005938
35.759124 59.104917 7.565558
36.398981 55.495069 7.680581
36.189919 57.627049 6.799243
35.749802 56.283972 9.903899
35.555927 58.364649 9.185595
35.324078 57.669529 10.730632
36.172834 54.914574 9.109475
35.749802 56.283972 9.903899
35.940984 54.219454 10.654511
36.590164 53.430551 8.431192
36.398981 55.495069 7.680581
36.172834 54.914574 9.109475
36.802305 51.307681 9.124056
36.590164 53.430551 8.431192
36.955174 49.201996 9.898049
36.802305 51.307681 9.124056
36.516886 50.744371 10.63408
37.078987 47.10284 10.741649
36.955174 49.201996 9.898049
36.798237 46.424766 12.152699
37.078987 47.10284 10.741649
36.515417 45.704494 13.599079
36.798237 46.424766 12.152699
36.386934 47.918415 12.854453
36.186503 45.173212 14.980526
36.597805 43.679564 14.278773
36.515417 45.704494 13.599079
35.680716 48.619867 15.098271
35.964964 49.308685 13.629447
35.788437 46.587652 15.699181
35.680716 48.619867 15.098271
35.870824 44.562721 16.378875
36.186503 45.173212 14.980526
35.788437 46.587652 15.699181
35.579346 43.747292 17.671287
35.977411 42.332852 16.952631
35.870824 44.562721 16.378875
35.306807 42.92899 18.954547
35.579346 43.747292 17.671287
35.364357 40.925471 19.495183
35.306807 42.92899 18.954547
34.158838 53.696476 18.303638
34.364065 54.681713 16.817836
34.008865 55.896027 17.65258
34.158838 53.696476 18.303638
33.903951 52.833179 19.761405
31.907306 56.401882 28.366629
31.717357 57.02757 29.372954
31.803475 55.033929 29.774676
32.142045 55.571827 27.302001
32.055926 57.565468 26.900279
31.907306 56.401882 28.366629
32.362608 54.709439 26.348797
32.142045 55.571827 27.302001
31.45194 51.226745 33.857966
31.305328 51.840891 34.832863
31.358406 49.812395 35.207903
31.575964 52.446203 32.504893
31.45194 51.226745 33.857966
3 0 33 31
3 0 35 33
3 1 38 36
3 1 40 38
3 1 42 40
3 124 44 125
3 126 46 127
3 128 127 44
3 126 127 128
3 129 49 130
3 131 130 47
3 129 130 131
3 132 51 133
3 135 134 51
3 4 136 137
3 4 138 139
3 5 140 141
3 5 142 144
3 142 52 143
3 142 143 144
3 2 55 53
3 6 58 56
3 6 60 58
3 6 62 60
3 7 65 63
3 7 145 147
3 147 146 65
3 145 146 147
3 7 148 150
3 148 149 150
3 3 68 66
3 8 71 69
3 9 151 153
3 153 152 32
3 151 152 153
3 9 154 155
3 9 156 157
3 10 158 160
3 160 159 34
3 158 159 160
3 10 161 163
3 161 72 162
3 161 162 163
3 164 73 165
3 11 76 74
3 13 77 37
3 13 78 77
3 13 80 78
3 15 81 39
3 15 82 81
3 15 84 82
3 16 85 41
3 16 166 168
3 168 167 85
3 166 167 168
3 170 169 86
3 171 88 172
3 173 89 174
3 175 174 88
3 173 174 175
3 176 90 177
3 17 178 179
3 17 180 182
3 180 91 181
3 180 181 182
3 17 92 91
3 18 93 43
3 18 94 93
3 18 96 94
3 20 97 45
3 20 98 97
3 183 99 184
3 21 185 187
3 185 100 186
3 185 186 187
3 21 101 100
3 21 102 101
3 22 188 189
3 23 190 192
3 192 191 48
3 190 191 192
3 23 193 194
3 195 103 196
3 24 197 199
3 199 198 50
3 197 198 199
3 24 200 201
3 24 202 203
3 205 204 70
3 25 206 208
3 206 104 207
3 206 207 208
3 25 105 104
3 26 209 211
3 211 210 54
3 209 210 211
3 26 212 214
3 212 106 213
3 212 213 214
3 12 107 75
3 27 108 57
3 27 109 108
3 27 110 109
3 28 111 59
3 28 112 111
3 28 113 112
3 29 114 61
3 29 115 114
3 14 116 79
3 30 117 64
3 30 118 117
3 30 119 118
3 215 120 216
3 217 121 218
3 219 218 120
3 217 218 219
3 220 122 221
3 222 221 121
3 220 221 222
3 224 223 83
3 19 123 95
3 226 225 67
3 228 227 87
3 31 32 8
3 33 32 31
3 33 9 32
3 33 34 9
3 35 34 33
3 35 10 34
3 36 37 11
3 38 37 36
3 38 13 37
3 38 39 13
3 40 39 38
3 40 15 39
3 40 41 15
3 42 41 40
3 42 16 41
3 229 17 230
3 231 43 232
3 233 232 17
3 231 232 233
3 44 234 236
3 234 43 235
3 234 235 236
3 44 18 43
3 44 45 18
3 46 45 44
3 46 20 45
3 237 21 238
3 240 239 21
3 47 48 22
3 49 48 47
3 49 23 48
3 241 50 242
3 51 243 245
3 243 50 244
3 243 244 245
3 51 24 50
3 51 246 248
3 248 247 24
3 246 247 248
3 250 249 51
3 52 251 252
3 52 253 255
3 253 25 254
3 253 254 255
3 53 256 258
3 256 54 257
3 256 257 258
3 55 54 53
3 55 26 54
3 56 57 12
3 58 57 56
3 58 27 57
3 58 59 27
3 60 59 58
3 60 28 59
3 60 61 28
3 62 61 60
3 62 29 61
3 63 64 14
3 65 64 63
3 65 30 64
3 65 259 261
3 261 260 30
3 259 260 261
3 263 262 65
3 66 67 19
3 68 67 66
3 68 264 266
3 266 265 67
3 264 265 266
3 69 267 269
3 267 70 268
3 267 268 269
3 71 70 69
3 71 270 272
3 272 271 70
3 270 271 272
3 32 71 8
3 273 71 274
3 275 274 32
3 273 274 275
3 277 276 71
3 34 278 280
3 280 279 9
3 278 279 280
3 282 281 34
3 72 283 284
3 72 285 287
3 285 4 286
3 285 286 287
3 73 288 289
3 73 290 292
3 290 5 291
3 290 291 292
3 74 75 2
3 76 75 74
3 76 12 75
3 37 76 11
3 77 76 37
3 77 12 76
3 77 56 12
3 78 56 77
3 78 6 56
3 78 79 6
3 80 79 78
3 80 14 79
3 39 80 13
3 81 80 39
3 81 14 80
3 81 63 14
3 82 63 81
3 82 7 63
3 82 83 7
3 84 83 82
3 84 293 295
3 295 294 83
3 293 294 295
3 41 84 15
3 85 84 41
3 85 296 298
3 298 297 84
3 296 297 298
3 85 299 300
3 302 301 85
3 86 87 3
3 303 87 304
3 305 304 86
3 303 304 305
3 307 306 87
3 308 69 309
3 310 69 311
3 312 8 313
3 314 313 69
3 312 313 314
3 88 315 316
3 88 317 319
3 317 8 318
3 317 318 319
3 88 31 8
3 89 31 88
3 89 0 31
3 320 53 321
3 90 322 324
3 322 53 323
3 322 323 324
3 90 2 53
3 325 90 326
3 91 327 329
3 327 90 328
3 327 328 329
3 91 2 90
3 91 74 2
3 92 74 91
3 92 11 74
3 43 92 17
3 93 92 43
3 93 11 92
3 93 36 11
3 94 36 93
3 94 1 36
3 94 95 1
3 96 95 94
3 96 19 95
3 45 96 18
3 97 96 45
3 97 19 96
3 97 66 19
3 98 66 97
3 98 3 66
3 330 46 331
3 99 332 334
3 332 46 333
3 332 333 334
3 99 20 46
3 335 99 336
3 100 337 339
3 337 99 338
3 337 338 339
3 100 20 99
3 100 98 20
3 101 98 100
3 101 3 98
3 101 86 3
3 102 86 101
3 102 340 342
3 342 341 86
3 340 341 342
3 343 102 344
3 345 344 21
3 343 344 345
3 346 102 347
3 349 348 102
3 48 350 352
3 352 351 22
3 350 351 352
3 354 353 48
3 355 49 356
3 103 357 359
3 357 49 358
3 357 358 359
3 103 23 49
3 50 360 362
3 360 103 361
3 360 361 362
3 363 103 364
3 365 364 50
3 363 364 365
3 366 23 367
3 368 367 103
3 366 367 368
3 370 369 23
3 372 371 24
3 70 373 374
3 376 375 70
3 104 377 378
3 104 379 380
3 104 381 383
3 381 89 382
3 381 382 383
3 105 89 104
3 105 0 89
3 54 384 385
3 387 386 54
3 388 73 389
3 106 390 392
3 390 73 391
3 390 391 392
3 106 5 73
3 75 55 2
3 107 55 75
3 107 26 55
3 57 107 12
3 108 107 57
3 108 26 107
3 108 106 26
3 109 106 108
3 109 5 106
3 109 52 5
3 110 52 109
3 110 25 52
3 59 110 27
3 111 110 59
3 111 25 110
3 111 105 25
3 112 105 111
3 112 0 105
3 112 35 0
3 113 35 112
3 113 10 35
3 61 113 28
3 114 113 61
3 114 10 113
3 114 72 10
3 115 72 114
3 115 4 72
3 79 62 6
3 116 62 79
3 116 29 62
3 64 116 14
3 117 116 64
3 117 29 116
3 117 115 29
3 118 115 117
3 118 4 115
3 118 393 395
3 395 394 4
3 393 394 395
3 119 396 398
3 398 397 118
3 396 397 398
3 119 399 400
3 401 119 402
3 403 402 30
3 401 402 403
3 120 404 406
3 404 119 405
3 404 405 406
3 120 407 409
3 409 408 119
3 407 408 409
3 120 410 411
3 121 412 414
3 414 413 120
3 412 413 414
3 121 415 416
3 121 417 418
3 122 419 421
3 421 420 121
3 419 420 421
3 122 422 424
3 422 22 423
3 422 423 424
3 425 122 426
3 427 122 428
3 429 22 430
3 431 430 122
3 429 430 431
3 432 47 433
3 434 433 22
3 432 433 434
3 435 47 436
3 438 437 47
3 83 439 441
3 441 440 7
3 439 440 441
3 443 442 83
3 95 42 1
3 123 42 95
3 123 16 42
3 67 123 19
3 444 123 445
3 446 445 67
3 444 445 446
3 447 16 448
3 449 448 123
3 447 448 449
3 451 450 16
3 87 68 3
3 452 68 453
3 454 453 87
3 452 453 454
3 456 455 68
