ply
format ascii 1.0
element vertex 199
property float x
property float y
property float z
element face 162
property list uchar int vertex_index
end_header
19.460794 -35.967686 -27.964001
7.441333 -24.71958 -41.608398
13.187728 -31.077539 -34.917774
10.191671 -28.078583 -38.224995
12.589748 -25.727612 -36.28434
5.061106 -20.626492 -45.148285
16.396137 -33.581848 -31.478174
20.795809 -33.859024 -26.768446
19.251816 -33.07988 -28.583973
8.792528 -26.589735 -39.871399
9.768463 -25.460684 -38.997787
8.345286 -23.646584 -40.758415
7.098573 -21.920952 -42.424538
5.924337 -20.036648 -44.159332
6.195126 -22.736368 -43.366997
25.96694 -36.745113 -19.158575
23.503078 -35.47237 -23.144209
14.778171 -32.412682 -33.217659
16.042557 -30.824104 -32.165768
14.414809 -29.733335 -33.888554
11.656322 -29.810019 -36.56152
12.853557 -28.480286 -35.552258
11.310596 -27.028652 -37.243359
10.964811 -24.235935 -38.084057
18.001717 -34.755802 -29.690416
15.352971 -35.365559 -32.414837
13.81737 -34.095699 -34.068417
12.239736 -32.67281 -35.768799
10.690056 -31.036295 -37.485748
9.30476 -29.352339 -39.092964
7.985895 -27.706898 -40.711697
6.658536 -25.812624 -42.471973
22.179892 -34.781487 -24.978306
17.611032 -31.878151 -30.460932
5.43125 -23.603191 -44.272083
25.392024 -36.40452 -20.156989
25.26466 -38.000616 -19.898953
10.215435 -23.585003 -38.929583
10.366637 -24.848309 -38.540922
9.617261 -24.197378 -39.386448
10.811417 -22.953978 -38.544885
10.215435 -23.585003 -38.929583
4.923813 -19.307752 -45.5852
5.355429 -19.01283 -45.090723
5.492722 -20.33157 -44.653808
4.556994 -19.703125 -46.013558
4.923813 -19.307752 -45.5852
14.86137 -36.325375 -32.912142
15.602308 -36.89069 -32.096698
14.09357 -35.690445 -33.738932
14.585171 -34.730629 -33.241627
14.86137 -36.325375 -32.912142
11.844178 -33.4002 -36.180884
12.588684 -34.149321 -35.365715
11.069337 -32.581942 -37.039358
11.464896 -31.854552 -36.627274
11.844178 -33.4002 -36.180884
8.943482 -30.027698 -39.502012
9.640764 -30.885573 -38.674303
8.284049 -29.204977 -40.311379
8.645328 -28.529618 -39.902331
8.943482 -30.027698 -39.502012
7.603553 -28.229115 -41.172926
8.284049 -29.204977 -40.311379
22.241982 -36.295578 -24.613922
22.841485 -35.126928 -24.061257
22.903575 -36.641019 -23.696873
21.526018 -35.809117 -25.593863
22.241982 -36.295578 -24.613922
16.78557 -30.012873 -31.584003
15.901911 -29.498209 -32.525368
13.343992 -26.424724 -35.456045
13.475897 -27.801061 -35.090004
12.721653 -27.103949 -35.918299
5.680177 -25.17413 -43.833937
6.044893 -24.707907 -43.372028
6.29382 -26.278847 -42.933881
20.702647 -32.435687 -27.139988
21.494366 -32.798587 -26.183531
19.930651 -32.046115 -28.047752
20.702647 -32.435687 -27.139988
20.023812 -33.469452 -27.676209
19.184775 -31.595745 -28.917585
19.930651 -32.046115 -28.047752
8.905672 -23.290328 -40.266762
9.617261 -24.197378 -39.386448
9.056874 -24.553634 -39.878101
8.218956 -22.423466 -41.139635
8.905672 -23.290328 -40.266762
7.595599 -21.56065 -41.972696
8.218956 -22.423466 -41.139635
7.721929 -22.783768 -41.591476
6.989068 -20.62214 -42.831288
7.595599 -21.56065 -41.972696
6.511455 -20.9788 -43.291935
6.40195 -19.679988 -43.698684
6.989068 -20.62214 -42.831288
26.079645 -35.262308 -19.477071
26.674392 -35.537104 -18.41446
26.079645 -35.262308 -19.477071
25.392024 -36.40452 -20.156989
24.160093 -35.768148 -22.149806
24.217954 -34.300354 -22.482191
23.505907 -36.951014 -22.80019
24.160093 -35.768148 -22.149806
22.903575 -36.641019 -23.696873
23.505907 -36.951014 -22.80019
15.088037 -28.952824 -33.386761
15.901911 -29.498209 -32.525368
15.228683 -30.27872 -33.027161
13.234264 -25.025681 -35.8757
12.443383 -24.38342 -36.737444
26.460341 -37.105997 -18.16282
26.674392 -35.537104 -18.41446
25.778518 -38.306639 -18.928365
26.460341 -37.105997 -18.16282
25.26466 -38.000616 -19.898953
25.778518 -38.306639 -18.928365
11.630914 -23.637581 -37.637303
12.443383 -24.38342 -36.737444
11.777279 -24.981774 -37.184199
11.630914 -23.637581 -37.637303
10.811417 -22.953978 -38.544885
5.830318 -18.830059 -44.550531
6.40195 -19.679988 -43.698684
5.830318 -18.830059 -44.550531
5.355429 -19.01283 -45.090723
18.179765 -36.321632 -29.351979
18.731255 -35.361744 -28.827208
18.909304 -36.927574 -28.488771
17.417977 -35.675493 -30.234368
18.179765 -36.321632 -29.351979
16.615187 -35.088516 -31.128247
17.198927 -34.168825 -30.584295
17.417977 -35.675493 -30.234368
16.093604 -35.980372 -31.596578
15.602308 -36.89069 -32.096698
15.874554 -34.473703 -31.946506
16.615187 -35.088516 -31.128247
16.093604 -35.980372 -31.596578
13.377501 -34.860765 -34.515524
14.09357 -35.690445 -33.738932
13.028553 -33.384254 -34.918608
13.377501 -34.860765 -34.515524
12.588684 -34.149321 -35.365715
10.333412 -31.727551 -37.870695
11.069337 -32.581942 -37.039358
9.997408 -30.194317 -38.289356
10.333412 -31.727551 -37.870695
9.640764 -30.885573 -38.674303
6.939874 -27.281977 -42.053064
7.322216 -26.759761 -41.591835
7.603553 -28.229115 -41.172926
6.29382 -26.278847 -42.933881
6.939874 -27.281977 -42.053064
23.568593 -34.015349 -23.409973
24.217954 -34.300354 -22.482191
22.907 -33.669907 -24.327022
23.568593 -34.015349 -23.409973
22.841485 -35.126928 -24.061257
22.186408 -33.259819 -25.288461
22.907 -33.669907 -24.327022
21.487851 -34.320256 -25.873376
21.494366 -32.798587 -26.183531
22.186408 -33.259819 -25.288461
20.833976 -35.347885 -26.488933
21.487851 -34.320256 -25.873376
21.526018 -35.809117 -25.593863
20.166469 -36.402216 -27.08671
20.128301 -34.913355 -27.366224
20.833976 -35.347885 -26.488933
19.623912 -37.43026 -27.613248
20.166469 -36.402216 -27.08671
18.909304 -36.927574 -28.488771
19.623912 -37.43026 -27.613248
18.364383 -30.994881 -29.856064
19.184775 -31.595745 -28.917585
18.431424 -32.479016 -29.522452
17.569807 -30.539896 -30.731585
16.826794 -31.351127 -31.31335
16.78557 -30.012873 -31.584003
18.364383 -30.994881 -29.856064
17.569807 -30.539896 -30.731585
14.256522 -28.427585 -34.258152
13.634183 -29.106811 -34.720406
13.475897 -27.801061 -35.090004
15.088037 -28.952824 -33.386761
14.256522 -28.427585 -34.258152
13.343992 -26.424724 -35.456045
13.234264 -25.025681 -35.8757
5.062368 -23.968123 -44.768858
5.680177 -25.17413 -43.833937
4.870829 -22.499417 -45.18777
5.062368 -23.968123 -44.768858
4.685757 -21.011067 -45.625872
5.246178 -22.114841 -44.710184
4.870829 -22.499417 -45.18777
4.556994 -19.703125 -46.013558
4.685757 -21.011067 -45.625872
3 0 8 7
3 1 11 9
3 1 12 11
3 1 14 12
3 36 35 15
3 2 19 17
3 3 22 20
3 37 23 38
3 39 38 10
3 37 38 39
3 41 40 23
3 5 42 44
3 44 43 13
3 42 43 44
3 5 45 46
3 47 25 48
3 49 26 50
3 51 50 25
3 49 50 51
3 52 27 53
3 54 28 55
3 56 55 27
3 54 55 56
3 57 29 58
3 59 30 60
3 61 60 29
3 59 60 61
3 63 62 30
3 64 32 65
3 66 65 16
3 64 65 66
3 68 67 32
3 6 33 24
3 70 69 18
3 4 71 73
3 73 72 21
3 71 72 73
3 74 34 75
3 76 75 31
3 74 75 76
3 7 77 78
3 8 79 81
3 81 80 7
3 79 80 81
3 8 82 83
3 9 10 3
3 11 10 9
3 11 84 86
3 86 85 10
3 84 85 86
3 11 87 88
3 12 89 91
3 91 90 11
3 89 90 91
3 12 92 93
3 12 94 96
3 94 13 95
3 94 95 96
3 14 13 12
3 14 5 13
3 15 97 98
3 100 99 15
3 101 16 102
3 103 16 104
3 106 105 16
3 17 18 6
3 19 18 17
3 19 107 109
3 109 108 18
3 107 108 109
3 111 110 4
3 112 15 113
3 114 15 115
3 117 116 15
3 20 21 2
3 22 21 20
3 22 4 21
3 10 22 3
3 23 22 10
3 23 4 22
3 23 118 120
3 120 119 4
3 118 119 120
3 122 121 23
3 13 123 124
3 126 125 13
3 127 24 128
3 129 128 0
3 127 128 129
3 130 24 131
3 132 6 133
3 134 133 24
3 132 133 134
3 25 135 136
3 25 137 139
3 137 6 138
3 137 138 139
3 25 17 6
3 26 17 25
3 26 2 17
3 140 26 141
3 27 142 144
3 142 26 143
3 142 143 144
3 27 2 26
3 27 20 2
3 28 20 27
3 28 3 20
3 145 28 146
3 29 147 149
3 147 28 148
3 147 148 149
3 29 3 28
3 29 9 3
3 30 9 29
3 30 1 9
3 30 31 1
3 150 31 151
3 152 151 30
3 150 151 152
3 154 153 31
3 16 155 156
3 32 157 159
3 159 158 16
3 157 158 159
3 32 160 161
3 32 162 164
3 162 7 163
3 162 163 164
3 165 7 166
3 167 166 32
3 165 166 167
3 168 0 169
3 170 169 7
3 168 169 170
3 171 0 172
3 174 173 0
3 24 8 0
3 33 8 24
3 33 175 177
3 177 176 8
3 175 176 177
3 18 33 6
3 178 33 179
3 180 179 18
3 178 179 180
3 182 181 33
3 21 19 2
3 183 19 184
3 185 184 21
3 183 184 185
3 187 186 19
3 189 188 4
3 31 14 1
3 34 14 31
3 34 5 14
3 190 34 191
3 192 34 193
3 194 5 195
3 196 195 34
3 194 195 196
3 198 197 5
