ply
format ascii 1.0
element vertex 119
property float x
property float y
property float z
element face 98
property list uchar int vertex_index
end_header
-26.3965 41.0312 12.811983
-26.274677 35.669662 19.926529
-27.739038 36.557186 15.110717
-24.901638 40.544479 17.743597
-30.449192 37.334061 5.51725
-29.261091 37.030102 10.125546
-24.947672 37.45219 21.22443
-25.592556 38.118294 18.817381
-24.296034 39.853184 20.21093
-27.043924 38.788425 14.008268
-28.520218 36.768711 12.677235
-27.788425 39.002575 11.542744
-27.812487 33.715836 18.450722
-28.493093 34.254356 16.146729
-27.017885 36.12746 17.541477
-26.365219 38.347836 16.477255
-25.637564 40.782318 15.364763
-27.091114 33.088486 20.81131
-25.553356 35.003441 22.362997
-29.194538 34.657612 13.815763
-29.803003 37.366459 7.838513
-23.937022 39.620045 21.407246
-24.621853 38.652687 20.71768
-24.262842 38.419548 21.913997
-23.277204 40.589306 22.091962
-23.636216 40.822445 20.895645
-23.937022 39.620045 21.407246
-26.703392 41.198622 11.640082
-27.399355 40.184309 11.005463
-27.092462 40.016887 12.177364
-26.027969 42.248201 12.287812
-26.703392 41.198622 11.640082
-24.593227 41.685152 17.217678
-24.961191 41.804071 16.028261
-25.269601 40.663398 16.55418
-27.374634 31.885471 21.39847
-27.799546 32.17756 20.186019
-25.219434 34.609745 23.510043
-25.902736 33.787613 22.778907
-24.867885 35.949736 23.021428
-25.219434 34.609745 23.510043
-30.73825 37.214505 4.420646
-31.128303 36.281061 4.932782
-30.062983 38.309467 5.073092
-30.73825 37.214505 4.420646
-29.585494 36.002609 10.762929
-29.215058 35.871914 12.038773
-28.890655 36.899406 11.40139
-29.972857 36.060234 9.510242
-29.585494 36.002609 10.762929
-29.532047 37.19828 8.982029
-30.243814 36.228413 8.366725
-29.972857 36.060234 9.510242
-23.970228 41.100586 19.655938
-24.273029 41.446234 18.422272
-24.598836 40.198831 18.977263
-23.970228 41.100586 19.655938
-23.636216 40.822445 20.895645
-30.85135 36.322344 6.02591
-31.128303 36.281061 4.932782
-28.088768 39.119388 10.444873
-28.825101 38.133152 9.736273
-28.524758 38.016339 10.834145
-28.088768 39.119388 10.444873
-27.399355 40.184309 11.005463
-28.15279 33.985096 17.298725
-28.929173 33.020517 16.596386
-28.58887 32.751257 17.748382
-25.308288 41.967003 14.802463
-25.687756 42.091444 13.526072
-26.017032 40.906759 14.088373
-25.308288 41.967003 14.802463
-24.961191 41.804071 16.028261
-24.593227 41.685152 17.217678
-24.273029 41.446234 18.422272
-28.160232 32.491235 19.005725
-28.58887 32.751257 17.748382
-27.451801 33.402161 19.631016
-28.160232 32.491235 19.005725
-27.799546 32.17756 20.186019
-26.671616 32.830135 22.003063
-27.374634 31.885471 21.39847
-26.322235 34.045963 21.587153
-26.671616 32.830135 22.003063
-25.902736 33.787613 22.778907
-24.565043 37.17411 22.452145
-25.250514 36.227816 21.793714
-24.867885 35.949736 23.021428
-24.262842 38.419548 21.913997
-24.565043 37.17411 22.452145
-29.239134 33.382803 15.405202
-28.929173 33.020517 16.596386
-29.589857 33.584431 14.239719
-29.239134 33.382803 15.405202
-28.843815 34.455984 14.981246
-29.964033 33.742997 13.05706
-29.589857 33.584431 14.239719
-29.552218 34.816364 12.608038
-28.857378 35.713161 13.246499
-29.215058 35.871914 12.038773
-29.964033 33.742997 13.05706
-29.552218 34.816364 12.608038
-30.528256 36.338543 7.186541
-30.243814 36.228413 8.366725
-30.126098 37.35026 6.677881
-30.85135 36.322344 6.02591
-30.528256 36.338543 7.186541
-29.096057 38.30133 8.592757
-29.532047 37.19828 8.982029
-28.825101 38.133152 9.736273
-29.444817 38.344622 7.357085
-29.096057 38.30133 8.592757
-29.767911 38.328423 6.196454
-30.126098 37.35026 6.677881
-29.444817 38.344622 7.357085
-30.062983 38.309467 5.073092
-29.767911 38.328423 6.196454
-26.027969 42.248201 12.287812
-25.687756 42.091444 13.526072
3 21 8 22
3 23 22 6
3 21 22 23
3 26 25 8
3 24 25 26
3 0 11 9
3 0 27 29
3 29 28 11
3 27 28 29
3 0 30 31
3 1 14 12
3 3 15 7
3 3 16 15
3 3 32 34
3 34 33 16
3 32 33 34
3 35 17 36
3 37 18 38
3 40 39 18
3 4 41 42
3 4 43 44
3 2 19 13
3 5 45 47
3 47 46 10
3 45 46 47
3 5 48 49
3 5 50 52
3 50 20 51
3 50 51 52
3 6 7 1
3 8 7 6
3 8 3 7
3 8 53 55
3 55 54 3
3 53 54 55
3 57 56 8
3 58 4 59
3 9 10 2
3 11 10 9
3 11 5 10
3 11 60 62
3 62 61 5
3 60 61 62
3 64 63 11
3 12 65 67
3 65 13 66
3 65 66 67
3 14 13 12
3 14 2 13
3 7 14 1
3 15 14 7
3 15 2 14
3 15 9 2
3 16 9 15
3 16 0 9
3 16 68 70
3 70 69 0
3 68 69 70
3 72 71 16
3 74 73 3
3 75 12 76
3 17 77 79
3 77 12 78
3 77 78 79
3 17 1 12
3 80 17 81
3 18 82 84
3 82 17 83
3 82 83 84
3 18 1 17
3 18 6 1
3 85 6 86
3 87 86 18
3 85 86 87
3 89 88 6
3 13 90 91
3 19 92 94
3 94 93 13
3 92 93 94
3 19 95 96
3 10 19 2
3 97 19 98
3 99 98 10
3 97 98 99
3 101 100 19
3 20 102 103
3 20 104 106
3 104 4 105
3 104 105 106
3 107 20 108
3 109 108 5
3 107 108 109
3 110 20 111
3 112 4 113
3 114 113 20
3 112 113 114
3 116 115 4
3 118 117 0
