ply
format ascii 1.0
element vertex 307
property float x
property float y
property float z
element face 321
property list uchar int vertex_index
end_header
27.714834 -72.507332 22.778091
24.286526 -71.609108 42.028896
27.412006 -70.543121 13.062035
28.724304 -63.149235 31.996122
28.832853 -61.562199 21.985123
28.313868 -59.392132 12.52454
26.680336 -73.189728 32.563766
27.743368 -71.547562 17.988255
27.183891 -76.84726 18.158243
28.257017 -68.030876 27.363279
28.862461 -62.504292 26.923777
28.324148 -67.326286 22.463676
28.166286 -66.154556 17.680223
25.681789 -72.774918 37.222168
24.846321 -77.120102 32.403664
23.304192 -76.120277 36.762051
27.339298 -68.443413 37.334591
27.134567 -63.649147 8.03295
26.828699 -69.162819 8.32395
28.655369 -60.430527 17.230122
27.72868 -64.945511 12.662663
27.376463 -72.999916 27.772379
26.784288 -77.556808 22.937258
25.959841 -77.775291 27.685669
28.339329 -63.708008 37.095585
27.90407 -68.599739 32.416153
27.785528 -71.940094 20.470724
27.493624 -74.128632 18.1068
27.446394 -74.593628 20.561893
27.981812 -70.340004 25.131062
28.316702 -67.740898 24.874815
28.043243 -69.969566 22.731548
28.053967 -69.338737 20.323252
24.98608 -72.391205 39.579639
24.620121 -74.522942 37.075699
23.840202 -73.913193 39.363663
25.395712 -69.962967 42.175507
25.963625 -70.566513 39.805344
27.141903 -69.89386 10.633625
27.071428 -72.614098 10.744187
28.85973 -62.139477 24.461693
28.782576 -60.883495 19.707829
27.807405 -68.159996 15.377547
27.989412 -65.488487 15.223612
27.575174 -67.670181 13.002362
27.272427 -67.099434 10.530944
27.068974 -73.195366 30.126804
26.749966 -75.398102 27.850327
26.314598 -75.529846 30.098759
23.622629 -78.937874 31.950346
24.382702 -79.352196 29.897579
26.966612 -70.948082 35.125805
27.655256 -68.541573 34.95528
27.345997 -70.974586 32.607273
27.648724 -70.791229 30.143713
27.634056 -70.922333 15.590124
27.299255 -73.083023 13.181357
27.424364 -73.741058 15.487224
27.239773 -76.254852 15.637203
28.519361 -65.556999 29.764923
28.821426 -62.820694 29.415474
28.595884 -65.25531 27.115742
28.603825 -65.007935 24.64439
28.593557 -64.380913 22.230312
28.523876 -63.799145 19.839268
28.305191 -66.529747 20.197311
27.970797 -68.749069 17.833529
26.216026 -73.050072 34.946735
25.837784 -75.322212 32.457912
25.283312 -74.965332 34.796513
24.102518 -76.695366 34.647915
22.777054 -78.32428 34.038589
27.523054 -66.164787 39.803696
26.872868 -68.354156 39.825356
26.580921 -70.578445 37.601952
27.733589 -61.51704 10.275555
28.067129 -58.981613 10.159376
23.003269 -73.071487 41.651382
28.490421 -59.934696 14.78649
28.384418 -63.342419 17.405649
28.191509 -62.738834 14.842316
27.955404 -62.248291 12.460803
27.431355 -64.311081 10.212433
26.902924 -66.564674 8.035624
27.595676 -72.758392 25.239506
27.31609 -74.929398 23.018444
27.087708 -75.25589 25.297344
26.457298 -77.631538 25.329838
25.709627 -79.851471 25.177261
25.429712 -77.6147 29.949814
25.047709 -79.884171 27.388542
22.469343 -75.261581 38.976089
21.937334 -77.447205 36.16058
28.559927 -63.558174 34.442791
27.908291 -66.057983 37.328983
28.177523 -66.064812 34.689548
28.358829 -65.974945 32.282394
28.138306 -68.24939 29.836685
27.832354 -70.742462 27.602472
27.045923 -77.154572 20.677631
24.841119 -70.786038 42.102202
25.00778 -69.717827 43.284905
24.453187 -70.540897 43.211599
28.84587 -61.867279 31.846797
28.788262 -62.022447 33.100122
28.957649 -60.47855 23.132058
28.971087 -60.767189 24.370342
28.846291 -61.850838 23.223408
28.957614 -60.140676 21.952278
28.957649 -60.47855 23.132058
28.807714 -61.222847 20.846476
28.932475 -59.801325 20.813631
28.957614 -60.140676 21.952278
23.408006 -80.015598 30.620102
22.928646 -79.71775 31.632781
28.522115 -57.969097 12.496308
28.574787 -58.329617 13.646086
27.084801 -77.93644 16.905929
27.112742 -77.640236 15.645409
27.211832 -76.551056 16.897723
26.601459 -68.255443 40.97077
26.991684 -67.105946 41.051634
27.275946 -62.318314 7.938358
27.575457 -61.25226 9.05966
27.434078 -62.583094 9.154253
26.619309 -70.111592 7.0842
26.630038 -68.877064 7.090649
27.164504 -74.180999 11.964223
27.234068 -74.443623 13.10692
28.962129 -61.227076 28.046926
28.941612 -61.385277 29.292774
28.841943 -62.662493 28.169626
28.810458 -59.039717 17.201975
28.856703 -59.226045 18.410167
28.572895 -60.182612 16.008306
28.727984 -58.791802 15.980159
28.810458 -59.039717 17.201975
26.630038 -68.877064 7.090649
26.66715 -67.577991 6.946485
26.865811 -67.863746 8.179787
24.52263 -80.774307 27.241226
24.715205 -79.618184 28.643061
24.190126 -80.50832 28.495745
24.897837 -80.953175 26.126093
24.52263 -80.774307 27.241226
22.004723 -74.822186 39.96903
22.736306 -74.166534 40.313735
22.271687 -73.727138 41.306676
21.194593 -77.888379 35.920086
21.493835 -76.931377 37.20608
21.626135 -78.482754 34.829443
21.194593 -77.888379 35.920086
28.518955 -62.395007 36.868189
28.412592 -62.390003 38.220333
28.449628 -63.633091 35.769188
28.629254 -62.32009 35.541792
28.518955 -62.395007 36.868189
28.318917 -57.486973 10.14885
27.963247 -58.629542 9.059866
25.539065 -68.784347 43.39861
25.00778 -69.717827 43.284905
25.862881 -69.059849 42.145846
25.539065 -68.784347 43.39861
25.679668 -70.26474 40.990426
26.146838 -69.361622 40.960764
25.862881 -69.059849 42.145846
26.940875 -63.455333 6.862391
26.840564 -64.746196 6.918418
26.95196 -70.918637 9.415188
26.795358 -70.553116 8.260351
26.985301 -69.52834 9.478787
26.916723 -72.278756 9.47047
26.95196 -70.918637 9.415188
27.106665 -71.253979 10.688906
26.939882 -73.565041 9.578152
26.916723 -72.278756 9.47047
28.976192 -60.878794 25.620714
28.977558 -61.061201 26.851757
28.861095 -62.321884 25.692735
28.976192 -60.878794 25.620714
28.971087 -60.767189 24.370342
28.920306 -59.452529 19.64902
28.932475 -59.801325 20.813631
28.718972 -60.657011 18.468975
28.856703 -59.226045 18.410167
28.920306 -59.452529 19.64902
23.788042 -80.222759 29.593719
24.002665 -79.145035 30.923963
23.408006 -80.015598 30.620102
24.190126 -80.50832 28.495745
23.788042 -80.222759 29.593719
28.204176 -63.69361 38.378088
28.412592 -62.390003 38.220333
26.677574 -78.584801 21.781153
26.469729 -78.772953 22.883705
27.296622 -74.77264 14.259853
27.234068 -74.443623 13.10692
27.361809 -73.41204 14.33429
27.204327 -76.029537 14.334843
27.296622 -74.77264 14.259853
27.332068 -74.997955 15.562213
27.145695 -77.292633 14.428912
27.204327 -76.029537 14.334843
27.145695 -77.292633 14.428912
27.112742 -77.640236 15.645409
22.505859 -79.410954 32.676902
22.928646 -79.71775 31.632781
23.199841 -78.631077 32.994467
27.316777 -66.011261 41.040804
27.622619 -64.937473 40.892722
27.197961 -67.259472 39.814526
27.316777 -66.011261 41.040804
26.991684 -67.105946 41.051634
26.418247 -69.460335 39.81535
26.601459 -68.255443 40.97077
26.146838 -69.361622 40.960764
27.742227 -59.984547 9.001571
27.900359 -60.249327 10.217465
27.575457 -61.25226 9.05966
27.963247 -58.629542 9.059866
27.742227 -59.984547 9.001571
27.275946 -62.318314 7.938358
26.940875 -63.455333 6.862391
23.202866 -72.045727 42.864872
23.644897 -72.340298 41.840139
23.844495 -71.314537 43.053629
22.535891 -72.698814 42.600299
23.202866 -72.045727 42.864872
22.271687 -73.727138 41.306676
22.535891 -72.698814 42.600299
23.844495 -71.314537 43.053629
24.453187 -70.540897 43.211599
26.619309 -70.111592 7.0842
26.795358 -70.553116 8.260351
27.05059 -73.946537 10.745638
27.185341 -72.84856 11.962772
27.164504 -74.180999 11.964223
26.939882 -73.565041 9.578152
27.05059 -73.946537 10.745638
28.894431 -61.703009 30.556473
28.84587 -61.867279 31.846797
28.772865 -62.984965 30.705798
28.894431 -61.703009 30.556473
28.941612 -61.385277 29.292774
28.962129 -61.227076 28.046926
28.977558 -61.061201 26.851757
28.663064 -58.600898 14.777061
28.727984 -58.791802 15.980159
28.402144 -59.663414 13.655515
28.574787 -58.329617 13.646086
28.663064 -58.600898 14.777061
26.724743 -66.20396 6.919754
26.840564 -64.746196 6.918418
27.018746 -65.10691 8.034287
26.724743 -66.20396 6.919754
26.66715 -67.577991 6.946485
26.306234 -78.810318 24.079995
26.469729 -78.772953 22.883705
26.620793 -77.594173 24.133548
25.932398 -79.920285 24.003707
26.306234 -78.810318 24.079995
26.083463 -78.741505 25.253549
25.567695 -80.941353 23.974414
25.932398 -79.920285 24.003707
25.228796 -80.936825 25.020453
25.378668 -79.867821 26.282902
24.897837 -80.953175 26.126093
25.567695 -80.941353 23.974414
25.228796 -80.936825 25.020453
21.75984 -75.838566 38.613834
22.004723 -74.822186 39.96903
22.203339 -76.354393 37.568335
21.75984 -75.838566 38.613834
21.493835 -76.931377 37.20608
22.045995 -78.921291 33.768448
22.357194 -77.885742 35.099585
21.626135 -78.482754 34.829443
22.505859 -79.410954 32.676902
22.045995 -78.921291 33.768448
28.706073 -62.226917 34.323456
28.629254 -62.32009 35.541792
28.642115 -63.353704 33.219456
28.788262 -62.022447 33.100122
28.706073 -62.226917 34.323456
27.796039 -64.921999 39.732143
27.622619 -64.937473 40.892722
27.988657 -64.868597 38.494787
27.796039 -64.921999 39.732143
27.715672 -66.111385 38.566339
28.12381 -64.882995 37.212284
28.204176 -63.69361 38.378088
27.988657 -64.868597 38.494787
26.808391 -78.383682 20.651339
26.915105 -77.35569 21.807445
26.677574 -78.584801 21.781153
26.929147 -78.313541 19.45111
26.808391 -78.383682 20.651339
26.998131 -78.159886 18.191416
27.114907 -77.000916 19.417937
26.929147 -78.313541 19.45111
27.084801 -77.93644 16.905929
26.998131 -78.159886 18.191416
28.398746 -57.763838 11.313726
28.522115 -57.969097 12.496308
28.190499 -59.186872 11.341958
28.398746 -57.763838 11.313726
28.318917 -57.486973 10.14885
3 0 28 26
3 0 31 29
3 0 26 31
3 1 35 33
3 1 100 102
3 100 36 101
3 100 101 102
3 1 33 36
3 2 39 38
3 3 103 104
3 4 105 107
3 107 106 40
3 105 106 107
3 4 108 109
3 4 110 112
3 110 41 111
3 110 111 112
3 2 44 42
3 2 38 44
3 6 48 46
3 114 113 49
3 6 53 51
3 6 46 53
3 5 115 116
3 7 57 55
3 8 58 27
3 8 117 119
3 119 118 58
3 117 118 119
3 9 61 59
3 11 62 30
3 11 63 62
3 11 65 63
3 7 66 32
3 7 55 66
3 13 69 67
3 15 70 34
3 15 71 70
3 120 73 121
3 13 74 37
3 13 67 74
3 17 122 124
3 124 123 75
3 122 123 124
3 18 125 126
3 128 127 56
3 10 129 131
3 131 130 60
3 129 130 131
3 19 132 133
3 19 134 136
3 134 78 135
3 134 135 136
3 12 79 64
3 20 80 43
3 20 81 80
3 20 82 81
3 18 83 45
3 18 137 139
3 139 138 83
3 137 138 139
3 21 86 84
3 23 87 47
3 23 88 87
3 14 89 68
3 140 90 141
3 142 141 50
3 140 141 142
3 144 143 90
3 145 91 146
3 147 146 77
3 145 146 147
3 148 92 149
3 151 150 92
3 24 152 153
3 24 154 156
3 154 93 155
3 154 155 156
3 16 94 72
3 25 95 52
3 25 96 95
3 25 97 96
3 21 98 54
3 21 84 98
3 22 99 85
3 158 157 76
3 26 27 7
3 28 27 26
3 28 8 27
3 29 30 9
3 31 30 29
3 31 11 30
3 31 32 11
3 26 32 31
3 26 7 32
3 33 34 13
3 35 34 33
3 35 15 34
3 36 159 160
3 36 161 162
3 36 163 165
3 163 37 164
3 163 164 165
3 33 37 36
3 33 13 37
3 167 166 17
3 38 168 170
3 170 169 18
3 168 169 170
3 39 171 173
3 173 172 38
3 171 172 173
3 39 174 175
3 40 176 178
3 178 177 10
3 176 177 178
3 180 179 40
3 41 181 182
3 41 183 185
3 183 19 184
3 183 184 185
3 42 43 12
3 44 43 42
3 44 20 43
3 44 45 20
3 38 45 44
3 38 18 45
3 46 47 21
3 48 47 46
3 48 23 47
3 49 50 14
3 186 50 187
3 188 187 49
3 186 187 188
3 190 189 50
3 191 24 192
3 51 52 16
3 53 52 51
3 53 25 52
3 53 54 25
3 46 54 53
3 46 21 54
3 194 193 22
3 55 56 2
3 57 56 55
3 57 195 197
3 197 196 56
3 195 196 197
3 27 57 7
3 58 57 27
3 58 198 200
3 200 199 57
3 198 199 200
3 58 201 202
3 204 203 58
3 59 60 3
3 61 60 59
3 61 10 60
3 30 61 9
3 62 61 30
3 62 10 61
3 62 40 10
3 63 40 62
3 63 4 40
3 63 64 4
3 65 64 63
3 65 12 64
3 32 65 11
3 66 65 32
3 66 12 65
3 66 42 12
3 55 42 66
3 55 2 42
3 67 68 6
3 69 68 67
3 69 14 68
3 34 69 13
3 70 69 34
3 70 14 69
3 70 49 14
3 71 49 70
3 71 205 207
3 207 206 49
3 205 206 207
3 208 72 209
3 73 210 212
3 210 72 211
3 210 211 212
3 73 16 72
3 37 213 215
3 213 73 214
3 213 214 215
3 74 73 37
3 74 16 73
3 74 51 16
3 67 51 74
3 67 6 51
3 75 76 5
3 216 76 217
3 218 217 75
3 216 217 218
3 220 219 76
3 222 221 17
3 223 77 224
3 225 224 1
3 223 224 225
3 226 77 227
3 229 228 77
3 230 1 231
3 233 232 18
3 56 39 2
3 234 39 235
3 236 235 56
3 234 235 236
3 238 237 39
3 60 239 241
3 241 240 3
3 239 240 241
3 243 242 60
3 245 244 10
3 78 246 247
3 78 248 250
3 248 5 249
3 248 249 250
3 64 41 4
3 79 41 64
3 79 19 41
3 43 79 12
3 80 79 43
3 80 19 79
3 80 78 19
3 81 78 80
3 81 5 78
3 81 75 5
3 82 75 81
3 82 17 75
3 45 82 20
3 83 82 45
3 83 17 82
3 83 251 253
3 253 252 17
3 251 252 253
3 255 254 83
3 84 85 0
3 86 85 84
3 86 22 85
3 47 86 21
3 87 86 47
3 87 22 86
3 87 256 258
3 258 257 22
3 256 257 258
3 88 259 261
3 261 260 87
3 259 260 261
3 88 262 263
3 68 48 6
3 89 48 68
3 89 23 48
3 50 89 14
3 90 89 50
3 90 23 89
3 90 88 23
3 264 88 265
3 266 265 90
3 264 265 266
3 268 267 88
3 77 35 1
3 91 35 77
3 91 15 35
3 269 91 270
3 92 271 273
3 271 91 272
3 271 272 273
3 92 15 91
3 92 71 15
3 274 71 275
3 276 275 92
3 274 275 276
3 278 277 71
3 93 279 280
3 93 281 283
3 281 3 282
3 281 282 283
3 72 284 285
3 94 286 288
3 288 287 72
3 286 287 288
3 94 289 291
3 289 24 290
3 289 290 291
3 52 94 16
3 95 94 52
3 95 24 94
3 95 93 24
3 96 93 95
3 96 3 93
3 96 59 3
3 97 59 96
3 97 9 59
3 54 97 25
3 98 97 54
3 98 9 97
3 98 29 9
3 84 29 98
3 84 0 29
3 85 28 0
3 99 28 85
3 99 8 28
3 292 99 293
3 294 293 22
3 292 293 294
3 295 99 296
3 297 8 298
3 299 298 99
3 297 298 299
3 301 300 8
3 76 302 304
3 304 303 5
3 302 303 304
3 306 305 76
