ply
format ascii 1.0
element vertex 159
property float x
property float y
property float z
element face 149
property list uchar int vertex_index
end_header
-39.190456 -2.62526 -53.58268
-38.449287 7.455056 -49.990658
-40.303734 -9.312509 -50.098518
-40.325157 -3.343539 -49.076515
-37.065346 9.107649 -55.223106
-37.309132 -2.181242 -57.827549
-39.93689 1.782361 -47.414135
-38.994411 3.045355 -52.323814
-37.452198 3.990263 -56.891773
-35.185242 4.569337 -61.085182
-40.743034 -6.432964 -47.569061
-40.664776 -3.790097 -46.843323
-39.826672 -5.885133 -51.826439
-39.673531 -9.29282 -52.168461
-39.11235 -5.688902 -53.922504
-38.146416 -5.523959 -56.077244
-38.335632 -2.36342 -55.773006
-38.80175 6.758472 -47.526718
-39.592838 3.867786 -46.317577
-39.282852 4.575381 -48.739433
-39.569691 2.260707 -49.878342
-38.782154 5.435423 -51.215832
-37.29528 6.738202 -56.199741
-36.29493 7.395437 -58.463852
-36.466637 4.315364 -58.953491
-40.762657 -9.305288 -47.98505
-40.349625 -6.01554 -49.734585
-39.829727 -2.947532 -51.387348
-37.865173 8.27117 -52.614086
-36.105968 -2.086677 -59.729275
-40.234257 0.804351 -45.17667
-40.473228 -1.316062 -46.238697
-40.172928 -0.740762 -48.457302
-39.760735 -0.331553 -50.710258
-39.173923 0.227505 -52.978043
-38.087631 6.17526 -53.867886
-38.265671 3.680221 -54.733665
-38.423107 0.614936 -55.221249
-37.424953 0.918329 -57.521038
-36.371826 1.224092 -59.428322
-40.778872 -4.052428 -45.711475
-40.83362 -5.287885 -46.155325
-38.625518 7.106764 -48.758688
-38.335642 8.107956 -48.148623
-38.15941 8.456247 -49.380593
-35.651247 8.946149 -59.185974
-36.212429 8.603715 -58.042249
-35.746199 7.521657 -59.512692
-35.651247 8.946149 -59.185974
-40.931183 -9.56662 -46.845116
-40.915243 -10.972725 -47.027128
-40.209667 -10.936983 -50.217121
-40.499567 -10.970229 -49.113655
-39.167497 -10.824502 -53.168008
-39.551384 -10.918285 -52.20862
-39.289644 -9.199037 -53.127849
-37.230837 -3.880407 -57.819134
-37.649479 -5.551766 -56.943981
-37.727774 -3.8526 -56.952396
-36.70755 -2.13396 -58.778412
-36.629255 -3.833124 -58.769997
-37.230837 -3.880407 -57.819134
-35.125096 3.014008 -61.213701
-35.718387 1.341385 -60.385271
-35.778534 2.896714 -60.256752
-40.872749 -6.609319 -46.518194
-40.921371 -8.130458 -46.637121
-40.703905 -5.11153 -47.206192
-40.872749 -6.609319 -46.518194
-40.83362 -5.287885 -46.155325
-39.009054 -7.397078 -54.004871
-39.289644 -9.199037 -53.127849
-39.39294 -7.490861 -53.045483
-38.629383 -5.606431 -54.999874
-38.526087 -7.314607 -55.082241
-39.009054 -7.397078 -54.004871
-38.525549 7.556512 -46.868487
-38.335642 8.107956 -48.148623
-38.962469 6.204139 -46.26574
-38.525549 7.556512 -46.868487
-39.197294 5.313129 -46.922148
-39.358013 4.758796 -45.661169
-38.962469 6.204139 -46.26574
-36.712604 8.275097 -56.910194
-37.180313 7.922925 -55.711424
-36.597637 9.45982 -56.421876
-36.795105 7.06682 -57.331797
-36.712604 8.275097 -56.910194
-36.212429 8.603715 -58.042249
-35.832053 5.98162 -59.757511
-36.380783 5.855401 -58.708672
-35.746199 7.521657 -59.512692
-35.191355 6.108607 -60.823357
-35.82594 4.44235 -60.019337
-35.832053 5.98162 -59.757511
-40.729028 -10.966618 -48.056921
-40.915243 -10.972725 -47.027128
-40.533195 -9.308898 -49.041784
-40.499567 -10.970229 -49.113655
-40.729028 -10.966618 -48.056921
-40.752845 -7.869126 -47.777056
-40.931183 -9.56662 -46.845116
-40.921371 -8.130458 -46.637121
-37.924039 8.904177 -50.613974
-38.15941 8.456247 -49.380593
-37.631982 9.312234 -51.925687
-38.15723 7.863113 -51.302372
-37.924039 8.904177 -50.613974
-37.310118 9.709153 -53.244733
-37.631982 9.312234 -51.925687
-36.910204 10.127393 -54.549244
-37.46526 8.68941 -53.918596
-37.310118 9.709153 -53.244733
-36.460942 10.593266 -55.813135
-36.910204 10.127393 -54.549244
-36.597637 9.45982 -56.421876
-36.460942 10.593266 -55.813135
-39.894566 -10.927139 -51.252093
-40.209667 -10.936983 -50.217121
-39.988632 -9.302665 -51.133489
-39.894566 -10.927139 -51.252093
-39.551384 -10.918285 -52.20862
-38.067299 -7.303064 -55.980795
-38.526087 -7.314607 -55.082241
-38.067299 -7.303064 -55.980795
-37.649479 -5.551766 -56.943981
-36.008307 -3.891785 -59.634768
-36.629255 -3.833124 -58.769997
-35.454811 -2.078254 -60.559893
-36.008307 -3.891785 -59.634768
-39.703683 3.415165 -45.1576
-39.358013 4.758796 -45.661169
-40.024393 1.883447 -44.587147
-39.703683 3.415165 -45.1576
-39.913547 2.336069 -45.747124
-40.299938 0.502354 -44.104859
-40.024393 1.883447 -44.587147
-40.46022 -0.60617 -44.516075
-40.299938 0.502354 -44.104859
-40.579706 -1.666376 -45.047089
-40.46022 -0.60617 -44.516075
-40.353742 -0.255856 -45.707684
-40.683098 -2.81541 -45.409163
-40.579706 -1.666376 -45.047089
-40.569002 -2.553079 -46.54101
-40.778872 -4.052428 -45.711475
-40.683098 -2.81541 -45.409163
-35.585459 -0.313999 -60.535747
-36.238897 -0.431292 -59.578799
-35.718387 1.341385 -60.385271
-35.454811 -2.078254 -60.559893
-35.585459 -0.313999 -60.535747
-34.512526 6.2392 -61.851408
-35.191355 6.108607 -60.823357
-34.4273 4.685579 -62.086064
-34.512526 6.2392 -61.851408
-34.367153 3.13025 -62.214582
-35.125096 3.014008 -61.213701
-34.4273 4.685579 -62.086064
3 40 11 41
3 0 14 12
3 0 16 14
3 1 42 44
3 42 17 43
3 42 43 44
3 1 19 17
3 1 21 19
3 45 23 46
3 48 47 23
3 49 25 50
3 3 26 10
3 3 27 26
3 2 51 52
3 55 54 13
3 53 54 55
3 5 56 58
3 58 57 15
3 56 57 58
3 5 59 61
3 59 29 60
3 59 60 61
3 6 30 18
3 6 31 30
3 6 32 31
3 7 33 20
3 7 34 33
3 4 35 28
3 8 36 22
3 8 37 36
3 8 38 37
3 9 39 24
3 9 62 64
3 64 63 39
3 62 63 64
3 65 10 66
3 11 67 69
3 67 10 68
3 67 68 69
3 11 3 10
3 12 13 2
3 14 13 12
3 14 70 72
3 72 71 13
3 70 71 72
3 14 73 75
3 73 15 74
3 73 74 75
3 16 15 14
3 16 5 15
3 17 76 77
3 17 78 79
3 17 80 82
3 80 18 81
3 80 81 82
3 19 18 17
3 19 6 18
3 19 20 6
3 21 20 19
3 21 7 20
3 83 22 84
3 85 84 4
3 83 84 85
3 23 86 88
3 86 22 87
3 86 87 88
3 23 8 22
3 23 24 8
3 89 24 90
3 91 90 23
3 89 90 91
3 92 9 93
3 94 93 24
3 92 93 94
3 25 95 96
3 25 97 99
3 97 2 98
3 97 98 99
3 10 100 102
3 100 25 101
3 100 101 102
3 26 25 10
3 26 2 25
3 26 12 2
3 27 12 26
3 27 0 12
3 103 1 104
3 105 28 106
3 107 106 1
3 105 106 107
3 108 28 109
3 110 4 111
3 112 111 28
3 110 111 112
3 113 4 114
3 116 115 4
3 13 117 119
3 119 118 2
3 117 118 119
3 121 120 13
3 15 122 123
3 125 124 15
3 29 126 127
3 29 128 129
3 18 130 131
3 30 132 134
3 134 133 18
3 132 133 134
3 30 135 136
3 30 137 138
3 31 139 141
3 141 140 30
3 139 140 141
3 31 142 143
3 31 144 146
3 144 11 145
3 144 145 146
3 32 11 31
3 32 3 11
3 20 32 6
3 33 32 20
3 33 3 32
3 33 27 3
3 34 27 33
3 34 0 27
3 28 21 1
3 35 21 28
3 35 7 21
3 22 35 4
3 36 35 22
3 36 7 35
3 36 34 7
3 37 34 36
3 37 0 34
3 37 16 0
3 38 16 37
3 38 5 16
3 24 38 8
3 39 38 24
3 39 5 38
3 39 29 5
3 147 29 148
3 149 148 39
3 147 148 149
3 151 150 29
3 152 9 153
3 154 9 155
3 158 157 9
3 156 157 158
