ply
format ascii 1.0
element vertex 55
property float x
property float y
property float z
element face 41
property list uchar int vertex_index
end_header
16.927521 35.536198 36.942368
16.465105 33.072056 38.75161
17.973392 32.961952 36.775166
19.367809 32.825218 34.766609
15.475688 35.763268 38.734589
15.724091 38.184692 37.181252
18.385803 35.337345 34.903198
17.228119 37.864231 35.227669
18.510125 31.77824 36.579943
17.757579 31.775802 37.617136
19.0703 35.147527 33.896937
18.876806 34.081282 34.834904
19.561303 33.891464 33.828642
17.312758 39.03649 34.369852
17.911018 37.764711 34.195507
16.598869 39.198948 35.365032
17.312758 39.03649 34.369852
17.003436 31.830855 38.605358
16.274504 31.845477 39.507019
17.219248 33.017004 37.763388
17.003436 31.830855 38.605358
17.757579 31.775802 37.617136
19.955807 31.550441 34.527348
19.207334 31.709873 35.575665
20.095934 32.585291 33.718458
19.955807 31.550441 34.527348
19.561303 33.891464 33.828642
20.095934 32.585291 33.718458
15.697173 33.192257 39.619892
16.274504 31.845477 39.507019
15.202464 34.537863 39.611382
15.697173 33.192257 39.619892
15.970396 34.417662 38.743099
14.659098 35.822189 39.65056
15.202464 34.537863 39.611382
14.813534 37.11125 38.863141
14.659098 35.822189 39.65056
14.937736 38.321962 38.086472
14.813534 37.11125 38.863141
15.599889 36.97398 37.957921
15.152373 39.519676 37.186844
14.937736 38.321962 38.086472
18.6706 32.893585 35.770888
18.510125 31.77824 36.579943
19.207334 31.709873 35.575665
18.48986 36.501268 34.033271
19.0703 35.147527 33.896937
17.806961 36.600788 35.065433
18.48986 36.501268 34.033271
17.911018 37.764711 34.195507
15.846854 39.359178 36.341824
16.476105 38.024462 36.20446
16.598869 39.198948 35.365032
15.152373 39.519676 37.186844
15.846854 39.359178 36.341824
3 8 2 9
3 0 4 1
3 0 5 4
3 10 6 11
3 12 11 3
3 10 11 12
3 13 7 14
3 16 15 7
3 17 1 18
3 2 19 21
3 19 1 20
3 19 20 21
3 2 0 1
3 22 3 23
3 24 3 25
3 27 26 3
3 1 28 29
3 4 30 32
3 32 31 1
3 30 31 32
3 4 33 34
3 4 35 36
3 5 37 39
3 39 38 4
3 37 38 39
3 5 40 41
3 3 42 44
3 42 2 43
3 42 43 44
3 6 2 3
3 6 0 2
3 45 6 46
3 7 47 49
3 47 6 48
3 47 48 49
3 7 0 6
3 7 5 0
3 50 5 51
3 52 51 7
3 50 51 52
3 54 53 5
