ply
format ascii 1.0
element vertex 419
property float x
property float y
property float z
element face 399
property list uchar int vertex_index
end_header
29.962217 -49.84206 21.24852
30.450136 -45.620106 3.771632
29.449387 -51.87326 30.476013
31.026176 -25.521042 28.425035
30.491474 -47.552307 12.481263
27.342257 -57.203445 3.700397
29.683399 -50.743874 25.948944
31.392347 -42.443401 16.873192
30.244839 -48.768814 16.806322
27.859364 -58.27747 7.960356
30.064226 -44.973446 -0.532168
28.261429 -50.699558 -0.606791
29.167225 -57.76825 31.349592
29.288984 -56.790134 26.33618
29.358988 -55.617332 21.688475
29.308638 -54.865383 16.917946
31.728838 -17.807615 28.056768
32.49411 -23.713829 24.614931
32.850925 -29.76342 20.983223
32.687004 -35.680317 17.051748
31.914778 -41.406208 12.596824
30.581156 -46.507332 8.186147
29.237944 -53.664684 12.520768
29.035364 -52.621403 8.068676
28.746891 -51.545658 3.780754
29.815454 -50.317436 23.661207
30.342113 -46.81274 21.08836
30.591879 -46.086811 18.959633
30.107998 -49.306622 19.014256
30.261072 -45.361206 1.60872
29.149281 -47.832176 -0.594887
29.373827 -48.233788 1.57425
28.852219 -60.89566 34.204121
29.07366 -58.034328 33.895462
28.967436 -60.585323 31.697472
29.092655 -59.618111 26.779736
29.082445 -59.394901 24.278992
29.314262 -56.40403 24.082012
29.082375 -58.719154 21.919432
29.058037 -58.021564 19.590212
31.398664 -21.631502 28.151449
32.131248 -20.807047 26.379284
31.735815 -24.706959 26.498917
29.341587 -52.340916 32.94817
32.232925 -30.473278 22.853346
32.275597 -33.529713 20.963116
32.842556 -32.652042 19.113817
32.211723 -36.336933 19.069344
31.010258 -45.047199 14.696083
31.678877 -41.923466 14.661827
31.161106 -44.619183 12.464441
31.305691 -44.040005 10.368873
30.49976 -47.250607 10.294646
28.835707 -57.267101 14.767632
29.31142 -54.090977 14.700191
28.730362 -56.546062 12.468076
27.590662 -57.832985 5.81152
28.344622 -55.617462 7.823912
28.218313 -54.871643 5.83185
28.916134 -52.018322 5.886649
27.98349 -54.450977 3.735199
27.736479 -53.918228 1.552442
29.5599 -51.399227 28.079262
31.644657 -39.612106 19.0714
30.811588 -45.50053 17.003685
30.39233 -48.083988 14.668732
28.705404 -46.837624 -4.592784
28.981041 -47.177509 -2.681294
28.045725 -50.135059 -2.648196
27.241957 -52.818691 -2.565288
29.231237 -55.266502 33.355572
29.317602 -54.806835 31.127644
29.061798 -59.94986 29.170074
29.250128 -57.08886 28.844936
29.40514 -54.320019 28.469696
29.47994 -53.846409 26.137632
29.562246 -53.260372 23.832279
29.645702 -52.693203 21.378168
29.681498 -52.447624 19.096579
29.33515 -55.326206 19.211866
28.965548 -57.648907 17.173828
31.451294 -42.913303 6.083328
32.159264 -14.267788 27.696932
32.532017 -17.131203 26.213457
32.95369 -19.950277 24.468594
33.239925 -23.08238 22.716713
31.368286 -28.210587 26.665966
32.057606 -27.457605 24.686195
32.74107 -26.874805 22.750132
33.444683 -26.202557 20.78684
32.031998 -39.138458 16.896536
32.398544 -38.532246 14.856899
32.151215 -40.734661 10.512744
31.402889 -43.477345 8.262374
30.527617 -46.077114 5.87074
29.746674 -51.856323 16.983805
29.801046 -51.230824 14.74984
29.815514 -50.702152 12.511948
28.570705 -55.992332 10.138323
29.146685 -53.122272 10.211684
29.798143 -50.177437 10.245072
29.743553 -49.646545 7.915717
29.709173 -49.005531 5.876938
29.55352 -48.608948 3.650033
28.486759 -51.203629 1.529238
27.494003 -53.429256 -0.442847
30.04128 -48.556287 22.30675
29.967899 -48.793976 23.513093
29.888835 -50.079748 22.454864
30.152165 -48.3274 21.16844
30.231229 -47.041628 22.226669
30.04128 -48.556287 22.30675
30.355604 -45.490656 2.690176
30.792916 -44.031609 2.683067
30.887448 -44.161058 3.764523
28.84587 -61.867279 31.846797
28.909827 -60.740492 32.950797
28.788262 -62.022447 33.100122
28.957649 -60.47855 23.132058
28.971087 -60.767189 24.370342
28.957614 -60.140676 21.952278
29.08241 -59.057028 23.099212
28.957649 -60.47855 23.132058
28.932475 -59.801325 20.813631
28.957614 -60.140676 21.952278
31.21242 -23.576272 28.288242
31.045454 -22.1223 29.064363
30.85921 -24.06707 29.201156
29.43335 -50.621397 31.577652
29.37945 -50.855225 32.81373
29.395487 -52.107088 31.712091
32.008106 -35.166202 21.049979
31.995116 -33.824126 21.977106
31.976169 -36.569812 20.103093
32.24366 -34.933323 20.01623
32.008106 -35.166202 21.049979
28.522115 -57.969097 12.496308
28.783034 -56.906582 13.617854
28.574787 -58.329617 13.646086
27.200606 -56.872915 2.577228
27.521222 -55.496681 2.594629
27.662873 -55.827211 3.717798
29.69988 -49.559714 26.947181
29.63813 -49.88739 28.012339
29.62165 -51.071551 27.014103
30.579928 -43.325088 -0.572935
30.64536 -43.600927 0.522371
30.010421 -44.609394 -1.523907
30.579928 -43.325088 -0.572935
29.522634 -46.075478 -1.606731
29.468828 -45.711426 -2.59847
30.010421 -44.609394 -1.523907
28.962129 -61.227076 28.046926
28.941612 -61.385277 29.292774
28.810458 -59.039717 17.201975
29.011792 -57.835235 18.38202
28.856703 -59.226045 18.410167
28.727984 -58.791802 15.980159
28.810458 -59.039717 17.201975
31.880268 -41.541311 7.247794
31.872204 -41.437326 6.046397
31.52559 -16.498425 28.808421
31.15627 -17.01191 29.671979
31.359518 -18.3211 28.920326
31.944051 -16.037701 27.87685
31.740803 -14.728512 28.628503
31.52559 -16.498425 28.808421
31.485463 -29.633228 25.770938
31.176916 -30.036949 26.782477
31.830123 -29.256737 24.781053
31.712946 -27.834096 25.676081
31.485463 -29.633228 25.770938
33.165958 -29.455941 19.976527
33.462837 -27.675509 19.878335
33.147804 -27.982988 20.885032
33.032934 -33.923647 17.020919
33.11071 -32.409509 18.051953
32.76478 -34.166179 18.082783
32.897011 -35.461312 15.972728
33.032934 -33.923647 17.020919
32.321936 -39.669403 12.691537
32.56382 -38.232422 13.821575
32.156661 -39.969227 13.726862
32.032996 -41.070435 11.554784
32.440155 -39.33363 11.649497
32.321936 -39.669403 12.691537
28.215035 -57.134901 9.04934
28.318917 -57.486973 10.14885
27.963247 -58.629542 9.059866
27.10804 -54.787759 -0.552129
27.615241 -53.673742 0.554798
27.229278 -55.032246 0.445515
26.99243 -54.446901 -1.501793
27.10804 -54.787759 -0.552129
28.091942 -48.073656 -5.563949
28.236757 -48.297392 -4.583347
29.865901 -48.98247 24.65891
29.799874 -49.195689 25.802778
29.749426 -50.530655 24.805076
29.865901 -48.98247 24.65891
29.967899 -48.793976 23.513093
30.401157 -45.417326 22.226121
30.231229 -47.041628 22.226669
30.556392 -45.17724 21.120829
30.401157 -45.417326 22.226121
30.466996 -46.449776 20.023997
30.681275 -44.814275 20.056465
30.556392 -45.17724 21.120829
30.743783 -43.794808 1.592815
30.792916 -44.031609 2.683067
30.162649 -45.167326 0.538276
30.64536 -43.600927 0.522371
30.743783 -43.794808 1.592815
28.96294 -59.464994 34.049791
29.009366 -58.173267 35.151409
28.898646 -59.603933 35.305739
28.976192 -60.878794 25.620714
28.977558 -61.061201 26.851757
29.08755 -59.506506 25.529364
28.976192 -60.878794 25.620714
28.971087 -60.767189 24.370342
28.920306 -59.452529 19.64902
29.070206 -58.370359 20.754822
28.932475 -59.801325 20.813631
28.856703 -59.226045 18.410167
28.920306 -59.452529 19.64902
31.194431 -20.233044 28.967666
31.045454 -22.1223 29.064363
31.563751 -19.719558 28.104109
31.359518 -18.3211 28.920326
31.194431 -20.233044 28.967666
29.318794 -51.072359 33.972464
29.262265 -51.268496 35.229056
29.285058 -52.537053 34.204762
29.318794 -51.072359 33.972464
29.37945 -50.855225 32.81373
31.973781 -32.295908 22.922221
31.917783 -30.764573 23.864628
32.254261 -32.001496 21.908231
31.973781 -32.295908 22.922221
31.995116 -33.824126 21.977106
27.397717 -55.230306 1.503251
27.859984 -54.184602 2.643821
27.521222 -55.496681 2.594629
27.229278 -55.032246 0.445515
27.397717 -55.230306 1.503251
30.715592 -25.877284 29.354322
30.85921 -24.06707 29.201156
29.561701 -50.129168 29.132435
29.506444 -50.366184 30.33081
29.504644 -51.636244 29.277637
29.561701 -50.129168 29.132435
29.63813 -49.88739 28.012339
29.69988 -49.559714 26.947181
29.799874 -49.195689 25.802778
31.455219 -39.838436 20.084829
31.692636 -38.207399 20.104121
31.367446 -41.262867 19.078247
31.455219 -39.838436 20.084829
31.241291 -42.678515 17.979143
31.518502 -41.027754 17.972296
31.367446 -41.262867 19.078247
30.841057 -44.50022 19.022364
30.681275 -44.814275 20.056465
30.950912 -44.207079 18.04439
30.841057 -44.50022 19.022364
30.701733 -45.79367 17.981659
31.101968 -43.971965 16.938439
31.241291 -42.678515 17.979143
30.950912 -44.207079 18.04439
27.638345 -59.632475 7.902061
27.963247 -58.629542 9.059866
27.742227 -59.984547 9.001571
27.498689 -59.368282 6.887544
27.638345 -59.632475 7.902061
27.364338 -59.14604 5.813126
27.725013 -58.055228 6.885938
27.498689 -59.368282 6.887544
27.207332 -58.862032 4.749003
27.364338 -59.14604 5.813126
27.08313 -58.547262 3.693442
27.466459 -57.518215 4.755959
27.207332 -58.862032 4.749003
26.919167 -58.206951 2.594632
27.08313 -58.547262 3.693442
29.33101 -45.541483 -3.554215
29.194273 -45.308514 -4.615673
28.843223 -47.007566 -3.637039
29.33101 -45.541483 -3.554215
29.468828 -45.711426 -2.59847
28.374575 -48.467334 -3.627602
28.236757 -48.297392 -4.583347
28.843223 -47.007566 -3.637039
27.906917 -49.946109 -3.611053
28.374575 -48.467334 -3.627602
28.513383 -48.656284 -2.664745
27.479233 -51.314175 -3.609471
27.906917 -49.946109 -3.611053
27.077349 -52.655991 -3.568017
27.479233 -51.314175 -3.609471
27.643841 -51.476875 -2.606742
26.715264 -53.929167 -3.509797
27.077349 -52.655991 -3.568017
29.096631 -56.816423 34.866404
29.009366 -58.173267 35.151409
29.17542 -55.43251 34.596458
29.096631 -56.816423 34.866404
29.152448 -56.650415 33.625517
29.229883 -53.999846 34.408462
29.17542 -55.43251 34.596458
29.286412 -53.803709 33.151871
29.285058 -52.537053 34.204762
29.229883 -53.999846 34.408462
28.894431 -61.703009 30.556473
28.84587 -61.867279 31.846797
29.014617 -60.267592 30.433773
28.894431 -61.703009 30.556473
28.941612 -61.385277 29.292774
29.077227 -59.783986 27.974905
28.962129 -61.227076 28.046926
28.977558 -61.061201 26.851757
28.663064 -58.600898 14.777061
28.900627 -57.458004 15.97073
28.727984 -58.791802 15.980159
28.574787 -58.329617 13.646086
28.663064 -58.600898 14.777061
31.388027 -42.807657 4.920371
31.872204 -41.437326 6.046397
30.950715 -44.266705 4.92748
30.887448 -44.161058 3.764523
31.388027 -42.807657 4.920371
28.7754 -60.988833 35.422457
28.898646 -59.603933 35.305739
28.706073 -62.226917 34.323456
28.7754 -60.988833 35.422457
28.629254 -62.32009 35.541792
28.788262 -62.022447 33.100122
28.706073 -62.226917 34.323456
31.931353 -12.742518 28.50579
31.740803 -14.728512 28.628503
32.340514 -12.380529 27.623792
31.931353 -12.742518 28.50579
32.580755 -13.677908 26.829495
32.340514 -12.380529 27.623792
32.767132 -15.109616 26.087757
32.580755 -13.677908 26.829495
32.345641 -15.699495 26.955194
32.945441 -16.653643 25.322412
32.767132 -15.109616 26.087757
33.156277 -18.06318 24.44998
32.945441 -16.653643 25.322412
32.742854 -18.54074 25.341026
33.354439 -19.516777 23.552917
33.156277 -18.06318 24.44998
33.497557 -21.082828 22.676977
33.354439 -19.516777 23.552917
33.096807 -21.516329 23.592653
33.60713 -22.6904 21.801685
33.497557 -21.082828 22.676977
29.43335 -50.621397 31.577652
29.506444 -50.366184 30.33081
30.873818 -27.305792 28.532628
30.715592 -25.877284 29.354322
30.563234 -27.662034 29.461915
31.044873 -28.650565 27.653094
31.176916 -30.036949 26.782477
31.197231 -26.865814 27.545501
30.873818 -27.305792 28.532628
31.044873 -28.650565 27.653094
32.145266 -28.965442 23.76977
31.830123 -29.256737 24.781053
31.917783 -30.764573 23.864628
33.709509 -24.250488 20.836749
33.60713 -22.6904 21.801685
33.342304 -24.642468 21.751776
33.77429 -25.793454 19.885212
33.709509 -24.250488 20.836749
33.77429 -25.793454 19.885212
33.462837 -27.675509 19.878335
33.161774 -30.900252 19.041824
33.165958 -29.455941 19.976527
32.84674 -31.207731 20.04852
33.161774 -30.900252 19.041824
33.11071 -32.409509 18.051953
31.92819 -37.974519 19.070372
31.976169 -36.569812 20.103093
31.692636 -38.207399 20.104121
32.752781 -36.887276 14.875304
32.897011 -35.461312 15.972728
32.542774 -37.106282 15.954324
32.752781 -36.887276 14.875304
32.56382 -38.232422 13.821575
32.569186 -39.082598 10.584559
32.440155 -39.33363 11.649497
32.230228 -40.45199 9.462502
32.569186 -39.082598 10.584559
31.856065 -41.823332 8.337317
32.230228 -40.45199 9.462502
31.777052 -42.106003 9.387559
31.427091 -43.195324 7.172851
31.880268 -41.541311 7.247794
31.856065 -41.823332 8.337317
28.398746 -57.763838 11.313726
28.522115 -57.969097 12.496308
28.650534 -56.269197 11.303199
28.398746 -57.763838 11.313726
28.318917 -57.486973 10.14885
26.866407 -54.141618 -2.563013
27.36798 -53.123974 -1.504067
26.99243 -54.446901 -1.501793
26.715264 -53.929167 -3.509797
26.866407 -54.141618 -2.563013
27.200606 -56.872915 2.577228
26.919167 -58.206951 2.594632
28.552226 -46.604039 -5.609834
29.041095 -45.074928 -5.632723
29.194273 -45.308514 -4.615673
28.552226 -46.604039 -5.609834
28.091942 -48.073656 -5.563949
3 0 106 108
3 108 107 25
3 106 107 108
3 0 109 111
3 109 26 110
3 109 110 111
3 0 28 26
3 1 112 114
3 112 29 113
3 112 113 114
3 1 31 29
3 115 34 116
3 117 116 32
3 115 116 117
3 118 36 119
3 120 38 121
3 122 121 36
3 120 121 122
3 124 123 38
3 3 125 127
3 125 40 126
3 125 126 127
3 3 42 40
3 2 128 130
3 130 129 43
3 128 129 130
3 131 45 132
3 133 47 134
3 135 134 45
3 133 134 135
3 4 50 48
3 4 52 50
3 136 55 137
3 138 137 53
3 136 137 138
3 5 58 56
3 5 60 58
3 5 139 141
3 141 140 60
3 139 140 141
3 6 142 144
3 144 143 62
3 142 143 144
3 8 64 27
3 8 65 64
3 10 145 146
3 10 147 148
3 10 149 151
3 149 67 150
3 149 150 151
3 11 68 30
3 11 69 68
3 12 70 33
3 12 71 70
3 152 72 153
3 13 73 35
3 13 74 73
3 13 75 74
3 14 76 37
3 14 77 76
3 14 79 77
3 154 80 155
3 156 155 39
3 154 155 156
3 158 157 80
3 159 81 160
3 16 161 163
3 161 162 163
3 16 164 166
3 164 82 165
3 164 165 166
3 16 83 82
3 17 84 41
3 17 85 84
3 167 86 168
3 169 87 170
3 171 170 86
3 169 170 171
3 18 88 44
3 18 89 88
3 18 172 174
3 174 173 89
3 172 173 174
3 19 175 177
3 177 176 46
3 175 176 177
3 19 178 179
3 7 90 63
3 20 91 49
3 20 180 182
3 182 181 91
3 180 181 182
3 20 183 185
3 183 92 184
3 183 184 185
3 21 93 51
3 21 94 93
3 15 95 78
3 22 96 54
3 22 97 96
3 9 186 188
3 186 98 187
3 186 187 188
3 23 99 57
3 23 100 99
3 23 101 100
3 24 102 59
3 24 103 102
3 24 104 103
3 189 105 190
3 191 190 61
3 189 190 191
3 193 192 105
3 195 194 66
3 25 196 198
3 198 197 6
3 196 197 198
3 200 199 25
3 26 201 202
3 26 203 204
3 26 205 207
3 205 27 206
3 205 206 207
3 28 27 26
3 28 8 27
3 29 208 209
3 29 210 212
3 210 10 211
3 210 211 212
3 29 30 10
3 31 30 29
3 31 11 30
3 32 213 215
3 213 33 214
3 213 214 215
3 34 33 32
3 34 12 33
3 216 35 217
3 36 218 220
3 218 35 219
3 218 219 220
3 36 13 35
3 36 37 13
3 38 37 36
3 38 14 37
3 38 39 14
3 221 39 222
3 223 222 38
3 221 222 223
3 225 224 39
3 40 226 227
3 40 228 230
3 228 16 229
3 228 229 230
3 40 41 16
3 42 41 40
3 42 17 41
3 43 231 233
3 231 232 233
3 235 234 43
3 236 44 237
3 45 238 240
3 238 44 239
3 238 239 240
3 45 18 44
3 45 46 18
3 47 46 45
3 47 19 46
3 48 49 7
3 50 49 48
3 50 20 49
3 50 51 20
3 52 51 50
3 52 21 51
3 53 54 15
3 55 54 53
3 55 22 54
3 56 57 9
3 58 57 56
3 58 23 57
3 58 59 23
3 60 59 58
3 60 24 59
3 60 61 24
3 241 61 242
3 243 242 60
3 241 242 243
3 245 244 61
3 246 3 247
3 62 248 250
3 250 249 2
3 248 249 250
3 252 251 62
3 254 253 6
3 255 63 256
3 257 63 258
3 259 7 260
3 261 260 63
3 259 260 261
3 27 262 263
3 64 264 266
3 266 265 27
3 264 265 266
3 64 267 269
3 267 7 268
3 267 268 269
3 64 48 7
3 65 48 64
3 65 4 48
3 270 9 271
3 270 271 272
3 273 9 274
3 275 56 276
3 277 276 9
3 275 276 277
3 278 56 279
3 280 5 281
3 282 281 56
3 280 281 282
3 284 283 5
3 285 66 286
3 67 287 289
3 287 66 288
3 287 288 289
3 67 290 292
3 292 291 66
3 290 291 292
3 30 67 10
3 68 67 30
3 68 293 295
3 295 294 67
3 293 294 295
3 68 296 297
3 69 298 300
3 300 299 68
3 298 299 300
3 69 301 302
3 33 303 304
3 70 305 307
3 307 306 33
3 305 306 307
3 70 308 309
3 70 310 312
3 310 43 311
3 310 311 312
3 71 43 70
3 71 2 43
3 313 34 314
3 72 315 317
3 315 34 316
3 315 316 317
3 72 12 34
3 35 318 320
3 318 72 319
3 318 319 320
3 73 72 35
3 73 12 72
3 73 71 12
3 74 71 73
3 74 2 71
3 74 62 2
3 75 62 74
3 75 6 62
3 37 75 13
3 76 75 37
3 76 6 75
3 76 25 6
3 77 25 76
3 77 0 25
3 77 78 0
3 79 78 77
3 79 15 78
3 39 79 14
3 80 79 39
3 80 15 79
3 80 53 15
3 321 53 322
3 323 322 80
3 321 322 323
3 325 324 53
3 81 326 327
3 81 328 330
3 328 1 329
3 328 329 330
3 331 32 332
3 333 32 334
3 333 334 335
3 337 336 32
3 82 338 339
3 82 340 341
3 82 342 343
3 83 344 346
3 346 345 82
3 344 345 346
3 83 347 348
3 41 83 16
3 84 83 41
3 84 349 351
3 351 350 83
3 349 350 351
3 84 352 353
3 85 354 356
3 356 355 84
3 354 355 356
3 85 357 358
3 360 359 2
3 361 3 362
3 361 362 363
3 86 364 365
3 86 366 368
3 366 3 367
3 366 367 368
3 86 42 3
3 87 42 86
3 87 17 42
3 44 369 371
3 369 87 370
3 369 370 371
3 88 87 44
3 88 17 87
3 88 85 17
3 89 85 88
3 89 372 374
3 374 373 85
3 372 373 374
3 89 375 376
3 378 377 89
3 46 379 381
3 381 380 18
3 379 380 381
3 383 382 46
3 63 384 386
3 384 47 385
3 384 385 386
3 90 47 63
3 90 19 47
3 49 90 7
3 91 90 49
3 91 19 90
3 91 387 389
3 389 388 19
3 387 388 389
3 391 390 91
3 92 392 393
3 92 394 395
3 51 92 20
3 93 92 51
3 93 396 398
3 398 397 92
3 396 397 398
3 93 399 401
3 399 81 400
3 399 400 401
3 94 81 93
3 94 1 81
3 78 28 0
3 95 28 78
3 95 8 28
3 54 95 15
3 96 95 54
3 96 8 95
3 96 65 8
3 97 65 96
3 97 4 65
3 402 55 403
3 98 404 406
3 404 55 405
3 404 405 406
3 98 22 55
3 57 98 9
3 99 98 57
3 99 22 98
3 99 97 22
3 100 97 99
3 100 4 97
3 100 52 4
3 101 52 100
3 101 21 52
3 59 101 23
3 102 101 59
3 102 21 101
3 102 94 21
3 103 94 102
3 103 1 94
3 103 31 1
3 104 31 103
3 104 11 31
3 61 104 24
3 105 104 61
3 105 11 104
3 105 69 11
3 407 69 408
3 409 408 105
3 407 408 409
3 411 410 69
3 413 412 5
3 66 414 416
3 414 415 416
3 418 417 66
