ply
format ascii 1.0
element vertex 295
property float x
property float y
property float z
element face 304
property list uchar int vertex_index
end_header
-28.602507 -65.920486 36.229939
-27.10483 -67.478142 16.068674
-25.805563 -75.150398 30.607677
-28.03867 -67.500488 26.213343
-25.530487 -71.182884 40.819328
-27.254704 -70.736298 33.502243
-27.186232 -71.533005 28.54269
-28.358358 -66.904778 31.189766
-27.450619 -68.836082 38.652119
-25.669622 -73.511909 35.689827
-26.733471 -72.109802 18.019768
-29.338963 -62.195393 33.672211
-27.495924 -62.643124 14.008441
-26.442709 -67.008507 10.765595
-26.005247 -76.137749 25.402536
-27.011244 -72.024323 23.33754
-27.640337 -67.697929 21.258211
-29.034275 -62.748367 28.869493
-28.623516 -63.022011 23.921667
-28.141218 -62.854691 19.084496
-22.883074 -72.427246 42.484241
-23.352295 -75.392448 37.391472
-23.961836 -77.504768 32.460396
-27.952379 -68.373123 35.005302
-27.867884 -68.901192 32.527355
-28.474863 -66.551651 33.750736
-28.709627 -65.111176 38.793655
-28.15036 -66.5504 40.027294
-28.10721 -67.402405 37.564877
-27.380623 -69.78875 36.160297
-26.940302 -69.719925 17.068439
-26.535654 -72.099159 15.409951
-26.642878 -69.809082 14.371812
-27.796902 -59.985283 13.052801
-27.138342 -62.447247 11.485378
-25.164316 -77.242729 28.814245
-25.961351 -75.578758 27.928917
-27.670776 -69.536629 27.495474
-27.127031 -71.757034 26.03393
-27.532621 -69.739754 24.867619
-27.337755 -69.985413 22.210352
-27.839197 -67.747047 23.763311
-29.185572 -62.575993 31.25708
-28.384274 -63.009075 21.450785
-28.676815 -60.399147 20.454853
-28.374746 -60.446899 17.898106
-26.537905 -68.934959 42.28474
-25.48942 -69.767761 43.283867
-24.291119 -71.900208 41.812126
-23.191874 -73.878952 40.033314
-24.493496 -73.293114 39.18861
-25.713755 -74.439308 33.170269
-24.766788 -75.597748 34.140316
-24.973513 -76.488029 31.461447
-26.534666 -72.959213 32.146915
-26.556456 -73.493111 29.477661
-27.213539 -71.239037 31.006371
-27.80196 -69.164452 29.982622
-28.209944 -67.223579 28.685516
-27.416162 -67.920746 41.093758
-26.552547 -70.223785 39.706352
-25.620424 -72.398727 38.279945
-26.570711 -71.24482 37.243465
-26.553862 -72.147499 34.811256
-26.4706 -74.491005 19.142654
-29.163788 -63.400738 37.445541
-29.046408 -63.994637 34.975864
-29.50528 -61.517818 36.147663
-29.714577 -59.804523 34.806263
-27.300743 -65.053291 15.115637
-26.78689 -67.312317 13.467674
-26.917917 -64.911522 12.349843
-26.574505 -64.530136 9.809471
-26.113455 -76.304993 22.822184
-26.572725 -73.854897 26.939716
-26.562105 -74.144814 24.441723
-26.547974 -74.27076 21.709572
-26.874857 -72.177559 20.597673
-27.165051 -69.917183 19.763887
-27.386251 -67.665489 18.70187
-28.877802 -64.615341 32.615101
-28.756262 -64.766357 30.11334
-28.547903 -65.205307 27.664165
-28.860239 -62.824394 26.460106
-28.362129 -65.268654 25.071623
-28.150269 -65.235474 22.545858
-27.863617 -65.430779 20.047216
-27.609507 -65.189278 17.596529
-27.851858 -62.656292 16.556379
-28.087679 -60.316784 15.503299
-24.613525 -74.575928 36.6008
-23.608389 -76.581779 34.919628
-26.366873 -69.476738 11.776113
-27.606915 -59.952287 11.794539
-27.961589 -58.779541 12.623003
-28.930104 -59.177065 21.177407
-28.783223 -60.498013 21.665904
-28.819121 -59.1763 19.996533
-28.930104 -59.177065 21.177407
-26.553187 -73.327877 17.268082
-26.421751 -74.518479 17.829525
-26.602035 -73.300404 18.581211
-26.396273 -73.17065 14.620413
-26.422779 -71.985233 14.061931
-29.553894 -61.242267 37.281771
-29.334534 -62.459278 36.796602
-29.383147 -62.183728 37.930709
-29.867611 -58.523159 35.389972
-29.788843 -59.425815 36.028309
-29.815377 -58.686712 34.226146
-29.867611 -58.523159 35.389972
-29.383147 -62.183728 37.930709
-29.207436 -63.023359 38.678268
-26.69056 -63.292774 9.445253
-26.856423 -63.488692 10.647424
-26.972479 -62.251329 10.283206
-26.392536 -64.409733 8.586001
-26.69056 -63.292774 9.445253
-25.776585 -77.20377 24.51596
-25.691127 -76.950108 25.845959
-26.059351 -76.221371 24.11236
-25.830689 -77.287392 23.225784
-25.776585 -77.20377 24.51596
-28.741878 -62.923203 25.190886
-28.983714 -61.67989 25.899569
-28.865353 -61.778698 24.63035
-28.398958 -59.108854 16.326351
-28.231212 -60.381842 16.700702
-28.542491 -59.173912 17.523754
-28.258411 -59.036698 15.072654
-28.398958 -59.108854 16.326351
-22.819896 -71.536045 43.764247
-23.537895 -71.411637 43.338526
-22.170767 -72.499794 42.776309
-22.819896 -71.536045 43.764247
-22.29813 -73.386028 41.473073
-22.170767 -72.499794 42.776309
-22.697918 -75.642849 37.668747
-22.617708 -74.886101 38.989668
-23.272084 -74.6357 38.712393
-22.808562 -76.387943 36.389283
-22.697918 -75.642849 37.668747
-23.332733 -78.009155 32.713135
-23.156009 -77.547661 33.942751
-23.785113 -77.043273 33.690012
-23.546095 -78.55207 31.431776
-23.332733 -78.009155 32.713135
-28.429994 -65.830788 39.410474
-28.472639 -65.333413 40.61819
-28.752273 -64.6138 40.001371
-26.476391 -70.840194 13.542862
-26.422779 -71.985233 14.061931
-26.589266 -70.954121 14.890881
-27.277636 -61.183269 11.010828
-27.467622 -61.216265 12.269089
-27.606915 -59.952287 11.794539
-26.972479 -62.251329 10.283206
-27.277636 -61.183269 11.010828
-25.270661 -77.502598 27.551814
-24.840459 -78.295345 27.973343
-25.669179 -76.670612 27.10915
-25.270661 -77.502598 27.551814
-25.562833 -76.410743 28.371581
-25.983299 -75.858253 26.665726
-25.691127 -76.950108 25.845959
-25.669179 -76.670612 27.10915
-29.381683 -61.385405 31.851021
-29.262268 -62.385693 32.464645
-29.458378 -61.195105 33.058586
-29.308692 -61.520382 30.69965
-29.381683 -61.385405 31.851021
-29.233044 -61.606569 29.505857
-29.109924 -62.66218 30.063286
-29.308692 -61.520382 30.69965
-28.756574 -61.809444 23.399311
-28.865353 -61.778698 24.63035
-28.636952 -61.802976 22.16387
-28.503895 -63.015543 22.686226
-28.756574 -61.809444 23.399311
-28.530545 -61.704111 20.952819
-28.636952 -61.802976 22.16387
-28.783223 -60.498013 21.665904
-28.668086 -59.200176 18.71816
-28.52578 -60.423023 19.176479
-28.819121 -59.1763 19.996533
-28.542491 -59.173912 17.523754
-28.668086 -59.200176 18.71816
-26.490497 -68.208103 43.611641
-26.951803 -67.83076 42.961423
-25.966254 -68.624504 44.111204
-26.490497 -68.208103 43.611641
-26.013662 -69.35136 42.784304
-25.376171 -69.033871 44.560381
-25.966254 -68.624504 44.111204
-24.841068 -70.081894 43.738338
-25.376171 -69.033871 44.560381
-24.241917 -71.148118 43.002468
-24.841068 -70.081894 43.738338
-24.890269 -70.833984 42.547996
-23.587097 -72.163727 42.148184
-23.537895 -71.411637 43.338526
-24.241917 -71.148118 43.002468
-24.596104 -77.493313 30.647555
-24.090266 -78.001682 31.14703
-24.467675 -76.996398 31.960922
-24.691505 -77.870663 29.323954
-24.596104 -77.493313 30.647555
-25.068914 -76.865379 30.137846
-24.840459 -78.295345 27.973343
-24.691505 -77.870663 29.323954
-26.252237 -68.199128 9.995912
-26.279008 -66.899922 9.558295
-28.153207 -66.044128 41.250227
-28.472639 -65.333413 40.61819
-27.786108 -66.729301 41.783459
-28.153207 -66.044128 41.250227
-27.783261 -67.235573 40.560526
-27.390932 -67.323654 42.365932
-27.786108 -66.729301 41.783459
-26.977033 -68.427853 41.689249
-26.951803 -67.83076 42.961423
-27.390932 -67.323654 42.365932
-26.304561 -75.634068 18.377937
-26.315441 -75.485092 19.708869
-26.304561 -75.634068 18.377937
-26.421751 -74.518479 17.829525
-26.454278 -73.322555 15.963173
-26.553187 -73.327877 17.268082
-26.634563 -72.10448 16.714859
-26.454278 -73.322555 15.963173
-26.396273 -73.17065 14.620413
-29.684194 -60.282463 36.699009
-29.553894 -61.242267 37.281771
-29.609928 -60.66117 35.476963
-29.684194 -60.282463 36.699009
-29.788843 -59.425815 36.028309
-29.646185 -59.99967 33.625613
-29.458378 -61.195105 33.058586
-29.52677 -60.999958 34.239237
-29.646185 -59.99967 33.625613
-29.815377 -58.686712 34.226146
-28.980355 -63.878579 39.352325
-28.752273 -64.6138 40.001371
-28.936708 -64.255957 38.119598
-28.980355 -63.878579 39.352325
-29.207436 -63.023359 38.678268
-26.344906 -65.660736 9.080234
-26.279008 -66.899922 9.558295
-26.508607 -65.769321 10.287533
-26.344906 -65.660736 9.080234
-26.392536 -64.409733 8.586001
-25.910634 -77.40017 22.021133
-25.830689 -77.287392 23.225784
-26.136868 -76.392086 21.548634
-25.910634 -77.40017 22.021133
-26.354128 -75.374969 20.992328
-26.136868 -76.392086 21.548634
-26.330714 -75.287876 22.265878
-26.509287 -74.380882 20.426113
-26.315441 -75.485092 19.708869
-26.354128 -75.374969 20.992328
-29.166859 -61.604448 28.386075
-29.233044 -61.606569 29.505857
-29.07984 -61.642461 27.181382
-28.983714 -61.67989 25.899569
-28.947257 -62.78638 27.6648
-29.166859 -61.604448 28.386075
-29.07984 -61.642461 27.181382
-28.113022 -58.870947 13.847405
-27.94229 -60.151033 14.27805
-28.258411 -59.036698 15.072654
-27.961589 -58.779541 12.623003
-28.113022 -58.870947 13.847405
-22.45253 -74.111881 40.24761
-22.29813 -73.386028 41.473073
-23.037474 -73.153099 41.258777
-22.45253 -74.111881 40.24761
-22.617708 -74.886101 38.989668
-22.936608 -76.982608 35.153361
-22.808562 -76.387943 36.389283
-23.480342 -75.987113 36.15555
-22.936608 -76.982608 35.153361
-23.156009 -77.547661 33.942751
-23.546095 -78.55207 31.431776
-24.090266 -78.001682 31.14703
-26.338389 -70.674023 12.245012
-26.476391 -70.840194 13.542862
-26.504875 -69.64291 13.073963
-26.214319 -69.433243 10.501171
-26.404791 -68.242622 11.270854
-26.252237 -68.199128 9.995912
-26.219843 -70.65892 11.004405
-26.214319 -69.433243 10.501171
-26.338389 -70.674023 12.245012
-26.219843 -70.65892 11.004405
3 0 25 23
3 0 28 26
3 0 23 28
3 1 32 30
3 94 93 33
3 2 36 35
3 3 39 37
3 3 41 39
3 95 44 96
3 98 97 44
3 4 47 46
3 4 48 47
3 4 50 48
3 2 53 51
3 2 35 53
3 5 56 54
3 7 57 24
3 7 58 57
3 8 59 27
3 8 60 59
3 8 62 60
3 5 63 29
3 5 54 63
3 10 99 101
3 101 100 64
3 99 100 101
3 103 102 31
3 104 67 105
3 106 105 65
3 104 105 106
3 107 68 108
3 110 109 68
3 111 65 112
3 12 71 69
3 113 72 114
3 115 114 34
3 113 114 115
3 117 116 72
3 14 118 119
3 14 120 122
3 120 73 121
3 120 121 122
3 6 74 55
3 15 75 38
3 15 76 75
3 15 77 76
3 16 78 40
3 16 79 78
3 11 80 66
3 17 81 42
3 17 82 81
3 18 123 125
3 123 83 124
3 123 124 125
3 18 84 83
3 18 85 84
3 19 86 43
3 19 87 86
3 19 88 87
3 126 89 127
3 128 127 45
3 126 127 128
3 130 129 89
3 20 131 132
3 20 133 134
3 20 135 136
3 21 137 139
3 139 138 49
3 137 138 139
3 21 140 141
3 9 90 61
3 22 91 52
3 22 142 144
3 144 143 91
3 142 143 144
3 22 145 146
3 13 92 70
3 23 24 5
3 25 24 23
3 25 7 24
3 26 147 149
3 147 27 148
3 147 148 149
3 28 27 26
3 28 8 27
3 28 29 8
3 23 29 28
3 23 5 29
3 30 31 10
3 32 31 30
3 32 150 152
3 152 151 31
3 150 151 152
3 33 34 12
3 153 34 154
3 155 154 33
3 153 154 155
3 157 156 34
3 35 158 159
3 36 160 162
3 162 161 35
3 160 161 162
3 36 163 165
3 163 14 164
3 163 164 165
3 37 38 6
3 39 38 37
3 39 15 38
3 39 40 15
3 41 40 39
3 41 16 40
3 166 42 167
3 168 167 11
3 166 167 168
3 169 42 170
3 171 17 172
3 173 172 42
3 171 172 173
3 174 18 175
3 176 43 177
3 178 177 18
3 176 177 178
3 44 179 181
3 179 43 180
3 179 180 181
3 44 19 43
3 44 45 19
3 182 45 183
3 184 183 44
3 182 183 184
3 186 185 45
3 46 187 188
3 47 189 191
3 191 190 46
3 189 190 191
3 47 192 193
3 47 194 195
3 48 196 198
3 198 197 47
3 196 197 198
3 48 199 201
3 199 20 200
3 199 200 201
3 48 49 20
3 50 49 48
3 50 21 49
3 51 52 9
3 53 52 51
3 53 22 52
3 53 202 204
3 204 203 22
3 202 203 204
3 35 205 207
3 207 206 53
3 205 206 207
3 35 208 209
3 211 210 13
3 54 55 2
3 56 55 54
3 56 6 55
3 24 56 5
3 57 56 24
3 57 6 56
3 57 37 6
3 58 37 57
3 58 3 37
3 27 212 213
3 59 214 216
3 216 215 27
3 214 215 216
3 59 217 218
3 59 219 221
3 219 46 220
3 219 220 221
3 60 46 59
3 60 4 46
3 60 61 4
3 62 61 60
3 62 9 61
3 29 62 8
3 63 62 29
3 63 9 62
3 63 51 9
3 54 51 63
3 54 2 51
3 64 222 223
3 225 224 64
3 31 226 228
3 228 227 10
3 226 227 228
3 230 229 31
3 65 66 0
3 67 66 65
3 67 11 66
3 231 67 232
3 68 233 235
3 233 67 234
3 233 234 235
3 68 11 67
3 68 236 238
3 238 237 11
3 236 237 238
3 240 239 68
3 241 26 242
3 65 243 245
3 243 26 244
3 243 244 245
3 65 0 26
3 69 70 1
3 71 70 69
3 71 13 70
3 34 71 12
3 72 71 34
3 72 13 71
3 72 246 248
3 248 247 13
3 246 247 248
3 250 249 72
3 73 251 252
3 73 253 254
3 55 36 2
3 74 36 55
3 74 14 36
3 38 74 6
3 75 74 38
3 75 14 74
3 75 73 14
3 76 73 75
3 76 255 257
3 257 256 73
3 255 256 257
3 76 258 260
3 258 64 259
3 258 259 260
3 77 64 76
3 77 10 64
3 40 77 15
3 78 77 40
3 78 10 77
3 78 30 10
3 79 30 78
3 79 1 30
3 66 25 0
3 80 25 66
3 80 7 25
3 42 80 11
3 81 80 42
3 81 7 80
3 81 58 7
3 82 58 81
3 82 3 58
3 261 17 262
3 83 263 264
3 83 265 267
3 265 17 266
3 265 266 267
3 83 82 17
3 84 82 83
3 84 3 82
3 84 41 3
3 85 41 84
3 85 16 41
3 43 85 18
3 86 85 43
3 86 16 85
3 86 79 16
3 87 79 86
3 87 1 79
3 87 69 1
3 88 69 87
3 88 12 69
3 45 88 19
3 89 88 45
3 89 12 88
3 89 33 12
3 268 33 269
3 270 269 89
3 268 269 270
3 272 271 33
3 49 273 275
3 275 274 20
3 273 274 275
3 277 276 49
3 61 50 4
3 90 50 61
3 90 21 50
3 52 90 9
3 91 90 52
3 91 21 90
3 91 278 280
3 280 279 21
3 278 279 280
3 282 281 91
3 284 283 22
3 70 32 1
3 92 32 70
3 92 285 287
3 287 286 32
3 285 286 287
3 288 92 289
3 290 289 13
3 288 289 290
3 291 92 292
3 294 293 92
