ply
format ascii 1.0
element vertex 118
property float x
property float y
property float z
element face 103
property list uchar int vertex_index
end_header
27.088085 -1.158599 -1.198447
32.998184 -1.564164 3.360689
31.733643 3.285143 0.777332
28.948654 -5.515916 0.69325
25.488531 3.909325 -3.038204
28.357309 3.459891 -1.378173
29.908033 -1.441556 0.850272
32.39323 0.901332 2.032899
30.78701 0.964791 0.828085
31.502377 -1.545696 2.095177
30.732576 -3.753663 2.028727
32.263264 -3.841157 3.394451
26.236597 1.295082 -2.145058
24.870405 1.63735 -3.040499
25.752701 -0.83113 -2.185918
33.328022 3.314257 1.947869
27.985928 -3.512352 -0.249628
26.669008 -3.058315 -1.359213
26.911406 3.552381 -2.201324
27.610588 1.057697 -1.258756
30.009371 3.331115 -0.365439
29.132748 0.963836 -0.280491
28.412109 -1.439984 -0.223123
29.317749 -3.723047 0.853246
30.267679 -5.705458 1.929797
34.04031 3.356746 2.539106
33.807467 4.599413 1.896541
33.608095 2.034251 2.640821
34.04031 3.356746 2.539106
28.32575 -5.411217 0.095338
27.844386 -4.409434 -0.376101
28.467291 -4.514134 0.221811
27.634358 3.506136 -1.789748
27.324632 4.860795 -2.282598
28.047584 4.81455 -1.871022
30.871507 3.308129 0.205947
30.519615 4.574834 -0.406694
31.381751 4.551848 0.164692
30.962682 -5.725089 2.592396
30.500128 -4.72956 1.979262
31.195131 -4.749191 2.641862
30.815899 -6.714106 2.544261
30.962682 -5.725089 2.592396
24.780849 4.131248 -3.458156
24.445851 5.477901 -3.8723
25.153533 5.255979 -3.452349
24.250362 1.854833 -3.472831
24.704262 0.617692 -3.087541
26.095751 -2.879492 -1.864868
26.632852 -3.922103 -1.474513
28.900793 -6.391391 0.55571
29.495391 -6.522714 1.208353
28.879632 4.643824 -1.389879
28.047584 4.81455 -1.871022
31.960475 -4.792938 3.324724
31.195131 -4.749191 2.641862
31.49792 -3.79741 2.711589
25.145409 -0.616549 -2.66025
24.704262 0.617692 -3.087541
25.311553 0.40311 -2.613208
32.213196 4.52881 0.720602
31.381751 4.551848 0.164692
33.010385 4.543367 1.305871
33.807467 4.599413 1.896541
32.530833 3.2997 1.362601
32.213196 4.52881 0.720602
33.010385 4.543367 1.305871
33.140699 0.827788 2.683337
32.860626 2.107794 1.990384
33.608095 2.034251 2.640821
33.443176 -0.40496 3.347231
32.695707 -0.331416 2.696794
33.140699 0.827788 2.683337
27.185927 -4.182416 -0.930894
27.327468 -3.285334 -0.80442
27.844386 -4.409434 -0.376101
26.632852 -3.922103 -1.474513
27.185927 -4.182416 -0.930894
28.32575 -5.411217 0.095338
28.900793 -6.391391 0.55571
25.881603 5.101604 -3.073961
25.153533 5.255979 -3.452349
26.593041 4.923132 -2.65552
27.324632 4.860795 -2.282598
26.199968 3.730853 -2.619764
25.881603 5.101604 -3.073961
26.593041 4.923132 -2.65552
29.705663 4.579436 -0.883512
30.519615 4.574834 -0.406694
29.18334 3.395503 -0.871806
28.879632 4.643824 -1.389879
29.705663 4.579436 -0.883512
30.154904 -6.617485 1.826627
29.495391 -6.522714 1.208353
29.608167 -5.610687 1.311524
30.154904 -6.617485 1.826627
30.815899 -6.714106 2.544261
33.753801 -1.497051 4.054752
33.443176 -0.40496 3.347231
33.325369 -2.65744 4.035401
33.753801 -1.497051 4.054752
32.957909 -3.795936 4.052283
32.630724 -2.70266 3.37757
33.325369 -2.65744 4.035401
32.668312 -4.877327 4.060056
32.957909 -3.795936 4.052283
31.960475 -4.792938 3.324724
32.668312 -4.877327 4.060056
24.471787 2.99526 -3.459303
24.780849 4.131248 -3.458156
25.179468 2.773338 -3.039351
24.471787 2.99526 -3.459303
24.250362 1.854833 -3.472831
25.637597 -1.765899 -2.27822
26.210854 -1.944722 -1.772566
26.095751 -2.879492 -1.864868
25.145409 -0.616549 -2.66025
25.637597 -1.765899 -2.27822
3 1 9 7
3 1 11 9
3 0 14 12
3 25 15 26
3 28 27 15
3 3 29 31
3 31 30 16
3 29 30 31
3 5 32 34
3 32 18 33
3 32 33 34
3 5 19 18
3 2 35 37
3 35 20 36
3 35 36 37
3 6 21 8
3 6 22 21
3 6 23 22
3 38 24 39
3 40 39 10
3 38 39 40
3 42 41 24
3 4 43 45
3 43 44 45
3 47 46 13
3 49 48 17
3 51 50 3
3 52 5 53
3 7 8 2
3 9 8 7
3 9 6 8
3 9 10 6
3 11 10 9
3 11 54 56
3 56 55 10
3 54 55 56
3 12 13 4
3 14 13 12
3 14 57 59
3 59 58 13
3 57 58 59
3 60 2 61
3 15 62 63
3 15 64 66
3 64 2 65
3 64 65 66
3 15 7 2
3 67 7 68
3 69 68 15
3 67 68 69
3 70 1 71
3 72 71 7
3 70 71 72
3 16 17 0
3 73 17 74
3 75 74 16
3 73 74 75
3 77 76 17
3 79 78 3
3 80 4 81
3 18 82 83
3 18 84 86
3 84 4 85
3 84 85 86
3 18 12 4
3 19 12 18
3 19 0 12
3 20 87 88
3 20 89 91
3 89 5 90
3 89 90 91
3 8 20 2
3 21 20 8
3 21 5 20
3 21 19 5
3 22 19 21
3 22 0 19
3 22 16 0
3 23 16 22
3 23 3 16
3 10 23 6
3 24 23 10
3 24 3 23
3 24 92 94
3 94 93 3
3 92 93 94
3 96 95 24
3 97 1 98
3 99 1 100
3 101 11 102
3 103 102 1
3 101 102 103
3 104 11 105
3 107 106 11
3 13 108 110
3 110 109 4
3 108 109 110
3 112 111 13
3 17 14 0
3 113 14 114
3 115 114 17
3 113 114 115
3 117 116 14
