ply
format ascii 1.0
element vertex 388
property float x
property float y
property float z
element face 359
property list uchar int vertex_index
end_header
1.486815 3.298111 -58.359138
3.498672 -5.94065 -51.574284
-0.987009 12.81214 -64.922813
-2.159414 2.618351 -63.907612
6.7998 -14.450503 -44.830227
3.155047 -16.45587 -48.710506
4.322035 -0.842785 -52.47348
-0.463821 17.815088 -64.416985
0.847984 -1.627748 -57.587101
9.466059 -22.934072 -39.775108
6.879563 -19.323328 -43.238037
4.737638 -15.444679 -46.724922
2.321537 8.442308 -58.663044
3.361741 3.880721 -55.516941
2.391335 -1.539483 -54.949501
1.868291 -6.625204 -53.827038
-3.087924 17.303749 -67.769585
-3.384457 12.300944 -67.818115
0.390806 8.129424 -61.821903
-1.609417 7.86278 -64.809166
3.064616 -11.210961 -50.279907
1.669844 -11.687292 -52.442436
0.583619 -4.28968 -57.012108
8.092626 -21.200348 -41.520855
3.910854 6.605722 -55.677715
4.378932 4.198435 -54.243969
3.915229 -3.491765 -51.977757
3.3059 -1.219112 -53.679577
2.925104 -3.731172 -53.253841
2.082649 -4.004349 -54.474178
2.632779 -6.290269 -52.698559
-1.284287 22.210264 -64.881927
-0.799357 15.395554 -64.88855
-1.700467 17.558823 -66.106667
-1.955868 15.301744 -66.439163
-3.24408 14.878356 -67.922302
-2.173439 12.766239 -66.501411
1.86627 5.928952 -58.627403
1.328248 8.401849 -60.31271
0.968123 5.799503 -60.135754
-1.181093 2.916857 -62.677231
-0.846448 5.499922 -63.036606
-1.899208 5.343213 -64.478088
-2.774404 7.61376 -66.20031
-2.948537 4.898462 -65.604721
5.784657 -12.468254 -46.517227
3.887621 -15.934899 -47.727829
3.816698 -13.268337 -48.553905
3.060855 -13.696071 -49.536812
2.366283 -11.577311 -51.276314
2.357833 -14.149429 -50.561108
4.873053 1.999254 -52.865902
0.371874 15.557762 -63.157627
0.031372 13.174026 -63.44976
1.09589 0.751093 -58.081787
0.657796 3.271454 -59.807003
-1.453385 0.360106 -62.134014
9.225402 -20.248314 -40.69725
8.012517 -18.611504 -42.30925
6.77037 -16.962578 -44.019348
5.699421 -15.064466 -45.725311
5.736299 -17.62347 -44.94173
4.786521 -17.989012 -46.022114
4.052882 -18.779758 -46.87883
3.868828 11.441757 -57.123566
2.755128 11.241678 -58.723625
3.330173 8.82606 -57.203709
2.861082 6.08009 -57.046253
2.368567 3.453084 -56.91013
3.780259 1.438421 -54.028229
2.834346 1.138373 -55.291668
1.966281 0.872763 -56.610287
1.622929 -1.508627 -56.255184
1.335933 -3.997656 -55.772614
1.154584 -6.643305 -55.083561
-1.538482 19.825554 -65.681824
1.810398 10.901831 -60.155178
0.722674 10.724097 -61.910442
-0.268046 10.53866 -63.4622
-0.540332 8.111807 -63.317223
-1.367032 10.378379 -65.057365
-2.46372 10.138514 -66.427834
-3.707163 9.821133 -67.704483
4.133622 -8.32791 -49.849243
4.760841 -12.978597 -47.449791
3.942767 -10.944272 -49.137619
3.252825 -8.648046 -50.890614
2.477091 -8.979344 -51.954472
1.72868 -9.123783 -53.172222
1.023195 -9.522343 -54.289791
4.310408 -21.395643 -46.103458
0.218068 -4.375015 -57.616964
0.514148 -5.67607 -56.604095
5.012453 4.500666 -53.603023
4.709675 5.639702 -54.308712
-0.665095 22.382988 -64.036158
-1.236763 23.401224 -64.44363
-2.658078 2.494744 -64.43992
-3.052639 3.6348 -65.288475
-2.553975 3.758407 -64.756167
7.50057 -14.033487 -44.368367
7.361817 -15.260725 -44.033684
6.938551 -13.144759 -45.187265
7.50057 -14.033487 -44.368367
6.292229 -13.459378 -45.673727
6.43098 -12.153635 -46.030766
6.938551 -13.144759 -45.187265
0.727726 14.397113 -62.472585
0.933254 15.745838 -62.305479
0.557474 13.205246 -62.618652
0.201623 14.365894 -63.303693
0.727726 14.397113 -62.472585
0.574757 -0.450664 -58.533015
0.69871 0.738756 -58.780358
0.971937 -0.438327 -57.834444
-1.109905 -0.79365 -61.17622
-0.99894 0.432214 -61.475611
-1.211342 -2.176333 -60.775547
-1.554822 -1.022577 -61.733341
-1.109905 -0.79365 -61.17622
10.215435 -23.585003 -38.929583
9.617261 -24.197378 -39.386448
10.062041 -22.303046 -39.390411
10.215435 -23.585003 -38.929583
9.345731 -21.591193 -40.236179
9.941713 -20.960167 -39.851482
10.062041 -22.303046 -39.390411
4.923813 -19.307752 -45.5852
5.355429 -19.01283 -45.090723
4.556994 -19.703125 -46.013558
4.419702 -18.384385 -46.450472
4.923813 -19.307752 -45.5852
4.165663 10.4297 -56.453869
4.477799 11.939653 -56.437071
3.896336 9.121852 -56.493941
3.5995 10.133909 -57.163638
4.165663 10.4297 -56.453869
-1.001151 18.820321 -65.049405
-0.90406 20.009218 -64.812258
-0.366729 19.003985 -64.179839
-2.977549 18.450705 -67.538937
-2.283821 18.578243 -66.707478
-2.394195 17.431286 -66.938126
-3.684603 18.294073 -68.283436
-2.977549 18.450705 -67.538937
-3.764063 17.092633 -68.444282
-4.360741 18.082957 -68.958134
-3.684603 18.294073 -68.283436
-3.997993 13.378045 -68.50893
-3.927805 14.666752 -68.561024
-3.314268 13.58965 -67.870209
-4.088068 12.117373 -68.439533
-3.997993 13.378045 -68.50893
0.368712 4.413421 -60.691303
0.216251 3.145344 -60.514236
-3.778557 8.456979 -67.442363
-3.240784 8.717446 -66.952396
-3.312177 7.353293 -66.690277
-4.344512 9.534261 -68.201435
-3.778557 8.456979 -67.442363
4.504936 -9.31815 -49.051315
4.723383 -8.069364 -49.287717
3.958131 -21.744042 -46.600685
4.501946 -22.864349 -45.684545
3.820492 -20.268689 -47.013693
3.958131 -21.744042 -46.600685
0.333297 -3.100385 -57.922157
0.465479 -1.769419 -58.209654
0.715801 -2.958714 -57.299605
0.333297 -3.100385 -57.922157
0.218068 -4.375015 -57.616964
8.905672 -23.290328 -40.266762
9.617261 -24.197378 -39.386448
8.218956 -22.423466 -41.139635
8.779342 -22.06721 -40.647982
8.905672 -23.290328 -40.266762
7.595599 -21.56065 -41.972696
8.218956 -22.423466 -41.139635
6.989068 -20.62214 -42.831288
7.486095 -20.261838 -42.379446
7.595599 -21.56065 -41.972696
6.40195 -19.679988 -43.698684
6.989068 -20.62214 -42.831288
4.475637 6.843345 -55.025585
4.186676 8.011682 -55.730943
4.144893 5.402079 -54.960842
4.475637 6.843345 -55.025585
4.709675 5.639702 -54.308712
-1.941752 23.17686 -65.343422
-1.236763 23.401224 -64.44363
-1.977678 22.049301 -65.753681
-1.941752 23.17686 -65.343422
-1.01377 4.20839 -62.856918
-0.535871 4.259577 -62.129038
-0.703194 2.968045 -61.94935
-3.399244 5.995643 -66.392482
-3.312177 7.353293 -66.690277
-2.861471 6.256111 -65.902515
-3.536938 4.702948 -66.12896
-3.399244 5.995643 -66.392482
-3.64104 3.439286 -65.812714
-3.536938 4.702948 -66.12896
-3.052639 3.6348 -65.288475
5.935755 -11.208028 -46.838188
6.43098 -12.153635 -46.030766
5.330453 -11.388321 -47.385307
5.935755 -11.208028 -46.838188
5.558844 2.306449 -52.243269
5.259514 3.401076 -52.91399
5.211392 0.87882 -52.088787
5.558844 2.306449 -52.243269
4.935883 -0.542199 -51.892576
4.597544 0.578234 -52.669691
5.211392 0.87882 -52.088787
4.646966 -1.93942 -51.683639
4.935883 -0.542199 -51.892576
4.443563 -3.26391 -51.435778
4.118632 -2.167275 -52.225618
4.646966 -1.93942 -51.683639
4.189096 -4.651797 -51.197758
4.443563 -3.26391 -51.435778
3.980818 -5.87624 -50.996021
3.706951 -4.716207 -51.776021
4.189096 -4.651797 -51.197758
0.088668 17.95216 -63.610241
-0.366729 19.003985 -64.179839
0.506516 16.823498 -62.980562
0.933254 15.745838 -62.305479
-0.045974 16.686425 -63.787306
0.088668 17.95216 -63.610241
0.506516 16.823498 -62.980562
0.479663 1.998936 -59.642966
0.876843 2.011273 -58.944395
0.69871 0.738756 -58.780358
0.216251 3.145344 -60.514236
0.479663 1.998936 -59.642966
0.574757 -0.450664 -58.533015
0.465479 -1.769419 -58.209654
-0.862794 1.71059 -61.747219
-0.703194 2.968045 -61.94935
-1.317239 1.638481 -62.405622
-0.862794 1.71059 -61.747219
-0.99894 0.432214 -61.475611
-1.891372 0.113253 -62.614391
-2.244387 1.242376 -63.50119
-1.806399 1.489229 -63.020813
-1.891372 0.113253 -62.614391
-1.554822 -1.022577 -61.733341
9.949898 -19.705117 -40.248344
9.941713 -20.960167 -39.851482
9.28788 -18.969544 -41.064054
9.949898 -19.705117 -40.248344
8.681437 -18.151139 -41.870054
9.28788 -18.969544 -41.064054
8.61896 -19.429909 -41.50325
7.968176 -17.341226 -42.773195
8.681437 -18.151139 -41.870054
7.347102 -16.516763 -43.628245
7.968176 -17.341226 -42.773195
7.391444 -17.787041 -43.164299
6.785085 -15.70654 -44.424788
7.361817 -15.260725 -44.033684
7.347102 -16.516763 -43.628245
5.830318 -18.830059 -44.550531
6.307931 -18.473399 -44.089883
6.40195 -19.679988 -43.698684
5.26141 -17.806241 -45.481922
5.830318 -18.830059 -44.550531
5.355429 -19.01283 -45.090723
4.10969 12.885191 -57.097805
4.477799 11.939653 -56.437071
3.571229 12.615512 -57.79793
4.10969 12.885191 -57.097805
3.311978 11.341718 -57.923595
3.014379 12.515472 -58.59796
3.571229 12.615512 -57.79793
3.620513 7.715891 -56.440712
3.896336 9.121852 -56.493941
4.186676 8.011682 -55.730943
4.625992 3.098845 -53.554935
5.012453 4.500666 -53.603023
5.259514 3.401076 -52.91399
0.799631 -6.852882 -55.639822
0.514148 -5.67607 -56.604095
0.869101 -5.466492 -56.047835
-0.776963 21.201573 -64.41231
-0.665095 22.382988 -64.036158
-1.411385 21.017909 -65.281876
-0.776963 21.201573 -64.41231
-0.90406 20.009218 -64.812258
-2.104776 20.856946 -66.153629
-1.977678 22.049301 -65.753681
-1.411385 21.017909 -65.281876
-2.202828 19.711608 -66.495057
-1.619474 18.692189 -65.894246
-2.283821 18.578243 -66.707478
-2.769121 20.743 -66.966862
-2.104776 20.856946 -66.153629
-2.202828 19.711608 -66.495057
-3.842141 15.879936 -68.520641
-3.764063 17.092633 -68.444282
-3.166002 16.091052 -67.845944
-3.842141 15.879936 -68.520641
-3.927805 14.666752 -68.561024
2.450805 12.398188 -59.435993
3.014379 12.515472 -58.59796
1.97844 12.228265 -60.15177
2.450805 12.398188 -59.435993
2.282763 11.071755 -59.439402
1.446988 12.069148 -60.971361
1.97844 12.228265 -60.15177
0.903126 11.980281 -61.848993
1.446988 12.069148 -60.971361
1.266536 10.812964 -61.03281
0.377023 11.949061 -62.680101
0.557474 13.205246 -62.618652
0.903126 11.980281 -61.848993
0.523875 5.677445 -60.855678
0.81296 4.535478 -59.971379
0.368712 4.413421 -60.691303
0.235217 6.842406 -61.698753
0.679464 6.964463 -60.978828
0.523875 5.677445 -60.855678
-0.38341 5.527655 -62.306105
-0.535871 4.259577 -62.129038
-0.230352 6.833597 -62.446413
-0.38341 5.527655 -62.306105
-0.69339 6.805865 -63.176914
-0.074763 8.120615 -62.569563
0.235217 6.842406 -61.698753
-0.230352 6.833597 -62.446413
-4.249421 10.877467 -68.382717
-4.088068 12.117373 -68.439533
-3.54581 11.061038 -67.761299
-4.249421 10.877467 -68.382717
-4.344512 9.534261 -68.201435
-2.658078 2.494744 -64.43992
-2.244387 1.242376 -63.50119
4.298293 -7.069869 -50.133501
4.723383 -8.069364 -49.287717
3.816147 -7.13428 -50.711764
3.980818 -5.87624 -50.996021
4.298293 -7.069869 -50.133501
4.818545 -11.643493 -47.851589
5.330453 -11.388321 -47.385307
5.272749 -12.723426 -46.983509
4.409508 -10.62633 -48.695503
4.818545 -11.643493 -47.851589
4.351804 -11.961434 -48.293705
4.038194 -9.636091 -49.493431
4.504936 -9.31815 -49.051315
4.409508 -10.62633 -48.695503
0.733936 -8.292402 -55.242937
0.799631 -6.852882 -55.639822
1.08889 -8.082824 -54.686676
4.870829 -22.499417 -45.18777
5.062368 -23.968123 -44.768858
4.501946 -22.864349 -45.684545
4.685757 -21.011067 -45.625872
4.870829 -22.499417 -45.18777
4.181645 -20.087701 -46.491144
4.556994 -19.703125 -46.013558
4.685757 -21.011067 -45.625872
3.69173 -18.960746 -47.401378
4.181645 -20.087701 -46.491144
3.820492 -20.268689 -47.013693
3.242812 -17.798803 -48.317217
3.603965 -17.617814 -47.794668
3.69173 -18.960746 -47.401378
2.811038 -16.73247 -49.213741
3.242812 -17.798803 -48.317217
2.412431 -15.579249 -50.139042
2.75644 -15.30265 -49.635807
2.811038 -16.73247 -49.213741
2.026841 -14.329571 -51.083103
2.412431 -15.579249 -50.139042
1.682847 -13.098502 -52.023768
2.013838 -12.91836 -51.501772
2.026841 -14.329571 -51.083103
1.300946 -11.844411 -53.039676
1.682847 -13.098502 -52.023768
0.977622 -10.761937 -53.963354
1.34652 -10.604817 -53.366113
1.300946 -11.844411 -53.039676
0.656238 -9.618455 -54.893736
0.977622 -10.761937 -53.963354
0.733936 -8.292402 -55.242937
0.656238 -9.618455 -54.893736
3 92 91 22
3 93 25 94
3 1 28 26
3 1 30 28
3 95 31 96
3 2 34 32
3 2 36 34
3 0 39 37
3 3 42 40
3 3 44 42
3 3 97 99
3 99 98 44
3 97 98 99
3 4 100 101
3 4 102 103
3 4 104 106
3 104 45 105
3 104 105 106
3 5 48 46
3 5 50 48
3 107 52 108
3 109 53 110
3 111 110 52
3 109 110 111
3 8 112 114
3 114 113 54
3 112 113 114
3 115 56 116
3 119 118 56
3 117 118 119
3 9 120 121
3 9 122 123
3 9 124 126
3 124 57 125
3 124 125 126
3 10 58 23
3 10 59 58
3 10 61 59
3 127 62 128
3 129 63 130
3 131 130 62
3 129 130 131
3 132 64 133
3 134 66 135
3 136 135 64
3 134 135 136
3 13 67 24
3 13 68 67
3 6 69 51
3 14 70 27
3 14 71 70
3 14 72 71
3 15 73 29
3 15 74 73
3 7 137 139
3 137 75 138
3 137 138 139
3 16 140 142
3 142 141 33
3 140 141 142
3 16 143 144
3 16 145 147
3 145 146 147
3 17 148 150
3 150 149 35
3 148 149 150
3 17 151 152
3 12 76 65
3 18 77 38
3 18 78 77
3 154 153 55
3 19 79 41
3 19 80 79
3 19 81 80
3 155 82 156
3 157 156 43
3 155 156 157
3 159 158 82
3 160 83 161
3 11 84 60
3 20 85 47
3 20 86 85
3 20 87 86
3 21 88 49
3 21 89 88
3 162 90 163
3 165 164 90
3 22 166 168
3 168 167 8
3 166 167 168
3 170 169 22
3 171 9 172
3 173 23 174
3 175 174 9
3 173 174 175
3 176 23 177
3 178 10 179
3 180 179 23
3 178 179 180
3 182 181 10
3 183 24 184
3 25 185 187
3 185 24 186
3 185 186 187
3 25 13 24
3 26 27 6
3 28 27 26
3 28 14 27
3 28 29 14
3 30 29 28
3 30 15 29
3 31 188 189
3 31 190 191
3 32 33 7
3 34 33 32
3 34 16 33
3 34 35 16
3 36 35 34
3 36 17 35
3 37 38 12
3 39 38 37
3 39 18 38
3 40 192 194
3 192 41 193
3 192 193 194
3 42 41 40
3 42 19 41
3 42 43 19
3 44 43 42
3 44 195 197
3 197 196 43
3 195 196 197
3 44 198 199
3 202 201 44
3 200 201 202
3 45 203 204
3 45 205 206
3 46 47 11
3 48 47 46
3 48 20 47
3 48 49 20
3 50 49 48
3 50 21 49
3 207 51 208
3 209 51 210
3 211 6 212
3 213 212 51
3 211 212 213
3 214 6 215
3 216 26 217
3 218 217 6
3 216 217 218
3 219 26 220
3 221 1 222
3 223 222 26
3 221 222 223
3 224 7 225
3 52 226 227
3 52 228 230
3 228 7 229
3 228 229 230
3 52 32 7
3 53 32 52
3 53 2 32
3 54 55 0
3 231 55 232
3 233 232 54
3 231 232 233
3 235 234 55
3 237 236 8
3 238 40 239
3 56 240 242
3 240 40 241
3 240 241 242
3 56 3 40
3 56 243 245
3 245 244 3
3 243 244 245
3 247 246 56
3 57 248 249
3 57 250 251
3 23 57 9
3 58 57 23
3 58 252 254
3 254 253 57
3 252 253 254
3 58 255 256
3 59 257 259
3 259 258 58
3 257 258 259
3 59 260 262
3 260 4 261
3 260 261 262
3 59 60 4
3 61 60 59
3 61 11 60
3 263 61 264
3 265 264 10
3 263 264 265
3 62 266 268
3 266 61 267
3 266 267 268
3 62 11 61
3 62 46 11
3 63 46 62
3 63 5 46
3 64 269 270
3 64 271 272
3 64 273 275
3 273 65 274
3 273 274 275
3 66 65 64
3 66 12 65
3 24 276 278
3 276 66 277
3 276 277 278
3 67 66 24
3 67 12 66
3 67 37 12
3 68 37 67
3 68 0 37
3 51 279 281
3 279 25 280
3 279 280 281
3 69 25 51
3 69 13 25
3 27 69 6
3 70 69 27
3 70 13 69
3 70 68 13
3 71 68 70
3 71 0 68
3 71 54 0
3 72 54 71
3 72 8 54
3 29 72 14
3 73 72 29
3 73 8 72
3 73 22 8
3 74 22 73
3 74 282 284
3 284 283 22
3 282 283 284
3 285 31 286
3 75 287 289
3 287 31 288
3 287 288 289
3 75 290 292
3 292 291 31
3 290 291 292
3 33 75 7
3 293 75 294
3 295 294 33
3 293 294 295
3 298 297 75
3 296 297 298
3 35 299 301
3 301 300 16
3 299 300 301
3 303 302 35
3 65 304 305
3 76 306 308
3 308 307 65
3 306 307 308
3 76 309 310
3 38 76 12
3 77 76 38
3 77 311 313
3 313 312 76
3 311 312 313
3 77 314 316
3 314 53 315
3 314 315 316
3 78 53 77
3 78 2 53
3 55 39 0
3 317 39 318
3 319 318 55
3 317 318 319
3 320 18 321
3 322 321 39
3 320 321 322
3 41 323 324
3 79 325 327
3 327 326 41
3 325 326 327
3 79 328 330
3 328 18 329
3 328 329 330
3 79 78 18
3 80 78 79
3 80 2 78
3 80 36 2
3 81 36 80
3 81 17 36
3 43 81 19
3 82 81 43
3 82 17 81
3 82 331 333
3 333 332 17
3 331 332 333
3 335 334 82
3 337 336 3
3 83 338 339
3 83 340 342
3 340 1 341
3 340 341 342
3 60 45 4
3 84 45 60
3 84 343 345
3 345 344 45
3 343 344 345
3 47 84 11
3 85 84 47
3 85 346 348
3 348 347 84
3 346 347 348
3 85 349 351
3 349 83 350
3 349 350 351
3 86 83 85
3 86 1 83
3 86 30 1
3 87 30 86
3 87 15 30
3 49 87 20
3 88 87 49
3 88 15 87
3 88 74 15
3 89 74 88
3 89 352 354
3 354 353 74
3 352 353 354
3 90 355 357
3 355 356 357
3 90 358 359
3 90 360 362
3 360 63 361
3 360 361 362
3 363 63 364
3 365 364 90
3 363 364 365
3 366 5 367
3 368 367 63
3 366 367 368
3 369 5 370
3 371 50 372
3 373 372 5
3 371 372 373
3 374 50 375
3 376 21 377
3 378 377 50
3 376 377 378
3 379 21 380
3 381 89 382
3 383 382 21
3 381 382 383
3 384 89 385
3 387 386 89
