ply
format ascii 1.0
element vertex 400
property float x
property float y
property float z
element face 360
property list uchar int vertex_index
end_header
30.472607 42.362617 45.787014
28.036871 28.241961 61.107948
29.248367 57.094955 44.529713
30.106163 29.320154 53.31337
32.560143 48.555038 27.728998
31.362972 38.762562 37.228123
29.260988 21.697418 60.140274
29.369631 29.058506 57.402611
29.966099 22.026567 56.292213
33.356209 53.039417 22.095692
30.73052 48.642803 41.014053
31.294359 46.519501 36.75882
30.93746 40.963337 41.387493
30.669041 34.928204 45.512894
25.844316 27.122765 64.004707
27.828712 20.776819 63.771381
30.042868 49.750031 45.35067
30.288801 35.973797 49.768784
33.680122 44.811066 24.024483
32.703709 40.775536 29.105204
31.753067 51.637165 31.526861
31.90472 43.915268 32.701447
29.618431 18.065491 59.536266
29.689989 21.599337 58.266823
29.928946 18.339731 57.336979
30.107077 18.887068 55.155544
30.590176 45.375763 43.56641
30.861052 44.84491 41.255482
30.720057 41.85854 43.561237
30.793612 38.228134 43.470036
30.600122 38.5765 45.777542
23.266209 29.805683 64.234482
24.706039 30.404289 63.581169
24.531612 26.529266 64.903107
26.806026 20.362398 65.177658
30.006798 59.874058 39.36055
29.844749 56.667618 42.312252
30.181055 52.830696 42.835403
29.700029 53.230717 45.124859
29.804607 29.066097 55.408173
29.400816 32.780636 55.954845
29.867321 32.490669 53.914818
29.973026 35.855957 52.064503
30.201754 32.622238 51.579746
30.418928 32.389004 49.408195
30.32164 29.00132 51.176655
34.514038 52.482162 17.468895
32.921223 50.957901 25.042547
33.51025 48.905571 23.218172
33.062977 46.979771 25.860565
33.188625 43.059196 26.50919
32.666012 44.4963 28.419321
31.34561 42.675419 37.093815
31.574762 45.573544 34.688011
31.598787 41.480503 35.171253
31.901049 39.945992 33.306053
28.72794 24.871447 60.764362
28.75699 28.924519 59.341347
29.304344 25.37686 58.85363
29.73275 25.57597 56.891521
30.053173 25.492937 54.739258
30.24312 25.740568 52.623638
32.434551 52.683464 26.861944
31.028534 47.523483 38.832474
31.097042 43.647392 39.248676
31.141369 39.904278 39.293568
30.955481 37.241348 41.410362
27.053349 27.65946 62.716633
25.751474 23.426117 65.189949
26.881157 24.024204 64.053627
27.936634 24.574936 62.471638
28.65555 21.008942 62.104706
30.426701 49.090969 43.19648
30.27651 46.071793 45.716095
29.874023 46.494892 47.921177
30.1618 42.618332 48.074772
30.048145 39.386372 50.19577
30.37373 39.043175 47.926186
30.506517 35.397221 47.692326
30.565966 31.938389 47.276466
34.004265 50.755569 20.384428
34.171375 46.773766 21.424692
31.993425 54.408241 28.768351
32.145844 50.250378 29.468658
31.505018 49.19825 34.233006
31.827974 47.799973 32.287781
32.221157 46.444588 30.211084
32.262672 42.39674 30.901253
29.902027 16.599737 57.834104
29.773688 18.202611 58.436622
29.74677 16.462617 58.933748
29.98079 16.735867 56.795771
29.902027 16.599737 57.834104
23.172176 27.878685 64.856792
22.455164 29.191118 64.499436
23.804878 26.240476 65.191105
23.89891 28.167474 64.568794
23.172176 27.878685 64.856792
29.546558 56.881287 43.420983
29.634436 58.452913 42.05068
29.336244 58.666582 43.15941
28.045932 30.226722 60.388903
27.599854 29.966655 61.15139
34.364065 54.681713 16.817836
34.753399 53.416008 15.961693
31.486846 38.118498 36.278253
31.604754 39.477469 35.249819
31.48088 40.121533 36.199688
31.343168 36.93187 37.321157
31.486846 38.118498 36.278253
30.06955 22.154887 55.134337
30.113087 23.888072 54.357859
30.009636 23.759752 55.515735
30.152521 18.919885 54.064256
30.10629 17.133257 54.689191
32.362608 54.709439 26.348797
32.594496 53.892359 25.451784
30.879527 48.083143 39.923263
30.964913 49.525858 38.561741
30.815905 50.085518 39.65253
30.738645 34.745945 44.393355
30.80093 36.39591 43.371926
30.731327 36.578169 44.491465
30.668138 33.136061 45.333445
30.738645 34.745945 44.393355
25.938815 29.012764 63.302464
25.369677 30.653526 63.090694
25.275177 28.763527 63.792938
26.448833 27.391112 63.36067
26.543332 29.281112 62.658427
25.938815 29.012764 63.302464
25.731476 21.550397 65.72234
25.09266 23.19702 65.591599
30.233109 59.410212 38.33857
30.150218 57.920555 39.809384
29.800829 44.873806 49.053877
29.597895 46.620609 49.015532
29.944717 42.935526 49.130674
30.017912 44.556612 47.997974
29.800829 44.873806 49.053877
29.094574 30.778775 57.645474
28.788253 30.711781 58.614841
29.063311 28.991512 58.371979
29.161196 34.480772 56.067913
29.460267 34.511155 55.045267
30.514057 30.315668 48.136589
30.492447 32.163697 48.342331
30.440538 30.540976 49.202454
30.555996 30.270086 47.130621
30.514057 30.315668 48.136589
30.305334 25.596093 51.521648
30.2624 24.098583 52.202203
33.680237 51.897493 21.24006
33.903951 52.833179 19.761405
33.579923 53.975103 20.617037
33.997846 43.652394 23.237424
34.243473 44.633744 21.937528
33.925748 45.792416 22.724587
33.713888 42.691513 24.53202
33.997846 43.652394 23.237424
32.960814 39.800168 28.254257
33.203271 40.941997 26.956249
32.946167 41.917366 27.807197
32.712922 38.696812 29.410612
32.960814 39.800168 28.254257
31.873246 53.022703 30.147606
31.803475 55.033929 29.774676
31.683296 53.648392 31.153931
31.399688 47.858875 35.495913
31.358406 49.812395 35.207903
31.253076 48.473021 36.47081
32.084421 39.145083 32.407394
31.895948 38.019705 33.473932
30.069856 17.009535 55.705053
30.018012 18.613399 56.246262
29.98079 16.735867 56.795771
30.10629 17.133257 54.689191
30.069856 17.009535 55.705053
22.566789 31.064425 63.877898
22.455164 29.191118 64.499436
23.308155 31.71273 63.567066
22.566789 31.064425 63.877898
23.986124 30.104986 63.907826
24.02807 32.012034 63.24041
23.308155 31.71273 63.567066
26.817628 18.40961 65.673458
26.258751 20.018538 65.716194
27.310651 18.659582 64.993729
26.817628 18.40961 65.673458
27.821994 18.866792 64.29059
27.317369 20.569609 64.474519
27.310651 18.659582 64.993729
28.218215 19.017074 63.504362
27.821994 18.866792 64.29059
29.71546 60.056134 40.574829
29.810949 61.674435 39.040198
29.925773 58.270838 40.836401
29.71546 60.056134 40.574829
29.634436 58.452913 42.05068
30.069194 56.317335 41.285235
30.150218 57.920555 39.809384
29.925773 58.270838 40.836401
30.012902 54.749157 42.573828
30.237347 54.398874 41.54681
30.069194 56.317335 41.285235
29.69352 34.366171 54.025253
29.460267 34.511155 55.045267
29.634068 32.635652 54.934832
29.920174 34.173313 52.98966
29.746372 36.048815 53.100096
29.69352 34.366171 54.025253
30.391894 28.847133 50.086683
30.440538 30.540976 49.202454
30.370284 30.695162 50.292425
34.885677 51.261877 16.682302
34.753399 53.416008 15.961693
34.603214 50.414555 18.140813
34.885677 51.261877 16.682302
31.575964 52.446203 32.504893
31.683296 53.648392 31.153931
31.755885 38.710213 34.317218
31.749918 40.713247 34.238653
31.604754 39.477469 35.249819
31.895948 38.019705 33.473932
31.755885 38.710213 34.317218
28.980694 58.882957 44.195158
29.336244 58.666582 43.15941
30.20806 24.011888 53.300049
30.148147 25.616753 53.681448
30.113087 23.888072 54.357859
30.2624 24.098583 52.202203
30.20806 24.011888 53.300049
30.140038 20.585138 54.566002
30.06955 22.154887 55.134337
30.036588 20.456817 55.723878
30.140038 20.585138 54.566002
30.152521 18.919885 54.064256
33.249546 55.121012 21.520304
33.579923 53.975103 20.617037
33.055324 54.070335 23.068658
33.249546 55.121012 21.520304
32.837832 53.029578 24.542085
33.138716 51.998659 23.569119
33.055324 54.070335 23.068658
32.677887 51.820683 25.952246
32.837832 53.029578 24.542085
32.594496 53.892359 25.451784
31.120164 48.975012 37.507637
30.964913 49.525858 38.561741
31.161447 47.021492 37.795647
31.253076 48.473021 36.47081
31.120164 48.975012 37.507637
31.134473 38.207959 39.339548
31.245275 37.637101 38.306826
31.25217 39.33342 38.260846
31.041529 36.876494 40.397945
31.134473 38.207959 39.339548
31.048425 38.572813 40.351965
30.943239 35.379116 41.320473
31.041529 36.876494 40.397945
30.881865 35.902517 42.342089
30.874547 37.734741 42.440199
30.80093 36.39591 43.371926
30.943239 35.379116 41.320473
30.881865 35.902517 42.342089
24.806097 32.287014 62.865654
24.02807 32.012034 63.24041
24.806097 32.287014 62.865654
25.369677 30.653526 63.090694
27.108092 29.675404 61.955732
26.543332 29.281112 62.658427
27.54511 27.95071 61.91229
27.599854 29.966655 61.15139
27.108092 29.675404 61.955732
24.482729 24.748594 65.448177
23.804878 26.240476 65.191105
25.141543 24.977691 65.046528
24.482729 24.748594 65.448177
25.09266 23.19702 65.591599
26.27875 21.894258 65.183803
25.731476 21.550397 65.72234
26.258751 20.018538 65.716194
28.631634 19.133135 62.671025
28.242131 20.892881 62.938043
28.218215 19.017074 63.504362
28.924228 19.382973 61.774586
28.631634 19.133135 62.671025
29.226947 19.727211 60.79237
28.958269 21.35318 61.12249
28.924228 19.382973 61.774586
29.405668 17.911248 60.490366
29.439709 19.881455 59.83827
29.226947 19.727211 60.79237
29.602688 16.304583 59.997101
29.405668 17.911248 60.490366
29.74677 16.462617 58.933748
29.602688 16.304583 59.997101
30.095538 61.269781 37.91844
29.810949 61.674435 39.040198
30.095538 61.269781 37.91844
30.233109 59.410212 38.33857
30.639024 50.475983 40.836763
30.815905 50.085518 39.65253
30.364291 52.569929 41.747438
30.237347 54.398874 41.54681
30.487114 50.700066 41.927976
30.364291 52.569929 41.747438
30.303878 50.960833 43.015941
30.57861 48.866886 42.105266
30.639024 50.475983 40.836763
30.487114 50.700066 41.927976
28.866859 57.199019 45.578733
28.980694 58.882957 44.195158
29.162889 55.421621 45.837553
28.866859 57.199019 45.578733
29.38872 53.489502 46.135126
29.474198 55.162836 44.827286
29.162889 55.421621 45.837553
29.611377 51.627674 46.397154
29.38872 53.489502 46.135126
29.782797 49.887332 46.510059
29.871448 51.490374 45.237764
29.611377 51.627674 46.397154
29.698374 48.259762 47.795313
29.597895 46.620609 49.015532
29.958445 48.122462 46.635924
29.782797 49.887332 46.510059
29.698374 48.259762 47.795313
28.405991 30.568001 59.505602
28.045932 30.226722 60.388903
28.39693 28.58324 60.224648
28.405991 30.568001 59.505602
28.788253 30.711781 58.614841
29.110166 32.63984 56.921591
29.094574 30.778775 57.645474
29.385223 30.919571 56.678728
29.110166 32.63984 56.921591
29.161196 34.480772 56.067913
29.804058 37.760179 52.138417
29.746372 36.048815 53.100096
29.841618 39.525387 51.20405
29.804058 37.760179 52.138417
30.010586 37.621164 51.130137
29.887889 41.319546 50.191174
29.841618 39.525387 51.20405
30.104973 41.002352 49.135271
29.944717 42.935526 49.130674
29.887889 41.319546 50.191174
30.616601 31.641154 46.215231
30.668138 33.136061 45.333445
30.617503 33.433296 46.39468
30.616601 31.641154 46.215231
30.555996 30.270086 47.130621
30.344594 27.226469 50.798157
30.28238 27.370944 51.900146
30.305334 25.596093 51.521648
30.391894 28.847133 50.086683
30.344594 27.226469 50.798157
34.158838 53.696476 18.303638
34.364065 54.681713 16.817836
34.259152 51.618865 18.926662
34.158838 53.696476 18.303638
33.903951 52.833179 19.761405
34.348327 49.551258 19.598579
34.603214 50.414555 18.140813
34.259152 51.618865 18.926662
34.431883 47.560356 20.118711
34.348327 49.551258 19.598579
34.08782 48.764668 20.90456
34.549528 45.557161 20.544372
34.431883 47.560356 20.118711
34.549528 45.557161 20.544372
34.243473 44.633744 21.937528
33.468139 41.815578 25.774373
33.713888 42.691513 24.53202
33.434373 43.935131 25.266837
33.468139 41.815578 25.774373
33.203271 40.941997 26.956249
31.907306 56.401882 28.366629
31.803475 55.033929 29.774676
32.142045 55.571827 27.302001
31.907306 56.401882 28.366629
32.213988 53.545852 27.815148
32.362608 54.709439 26.348797
32.142045 55.571827 27.302001
31.45194 51.226745 33.857966
31.358406 49.812395 35.207903
31.629043 50.417708 32.879933
31.575964 52.446203 32.504893
31.45194 51.226745 33.857966
32.265232 40.370457 31.204994
32.081861 41.171366 32.103653
32.084421 39.145083 32.407394
32.485751 39.559855 30.30697
32.483191 41.586138 30.003228
32.265232 40.370457 31.204994
32.712922 38.696812 29.410612
32.485751 39.559855 30.30697
31.343168 36.93187 37.321157
31.245275 37.637101 38.306826
3 88 24 89
3 90 89 22
3 88 89 90
3 92 91 24
3 0 28 26
3 0 30 28
3 93 31 94
3 95 33 96
3 97 96 31
3 95 96 97
3 2 98 100
3 98 36 99
3 98 99 100
3 2 38 36
3 1 101 102
3 3 41 39
3 3 43 41
3 3 45 43
3 103 46 104
3 4 49 47
3 4 51 49
3 5 54 52
3 5 105 107
3 107 106 54
3 105 106 107
3 5 108 109
3 6 58 56
3 8 59 23
3 8 60 59
3 8 110 112
3 112 111 60
3 110 111 112
3 114 113 25
3 115 62 116
3 10 117 119
3 117 63 118
3 117 118 119
3 12 64 27
3 12 65 64
3 12 66 65
3 13 120 122
3 122 121 29
3 120 121 122
3 13 123 124
3 14 125 127
3 127 126 32
3 125 126 127
3 14 128 130
3 128 67 129
3 128 129 130
3 131 68 132
3 15 69 34
3 15 70 69
3 15 71 70
3 134 133 35
3 16 72 37
3 16 73 72
3 135 74 136
3 137 75 138
3 139 138 74
3 137 138 139
3 7 140 142
3 142 141 57
3 140 141 142
3 144 143 40
3 17 76 42
3 17 77 76
3 17 78 77
3 145 79 146
3 147 146 44
3 145 146 147
3 149 148 79
3 151 150 61
3 9 152 154
3 152 80 153
3 152 153 154
3 18 81 48
3 18 155 157
3 157 156 81
3 155 156 157
3 18 158 159
3 19 160 162
3 162 161 50
3 160 161 162
3 19 163 164
3 20 165 167
3 165 82 166
3 165 166 167
3 20 83 82
3 11 168 170
3 168 84 169
3 168 169 170
3 21 85 53
3 21 86 85
3 21 87 86
3 172 171 55
3 22 23 6
3 24 23 22
3 24 8 23
3 24 25 8
3 173 25 174
3 175 174 24
3 173 174 175
3 177 176 25
3 26 27 10
3 28 27 26
3 28 12 27
3 28 29 12
3 30 29 28
3 30 13 29
3 31 178 179
3 31 180 181
3 31 182 184
3 182 32 183
3 182 183 184
3 33 32 31
3 33 14 32
3 185 34 186
3 187 34 188
3 189 15 190
3 191 190 34
3 189 190 191
3 193 192 15
3 194 35 195
3 36 196 198
3 196 35 197
3 196 197 198
3 36 199 201
3 201 200 35
3 199 200 201
3 36 202 204
3 202 37 203
3 202 203 204
3 38 37 36
3 38 16 37
3 39 40 7
3 41 40 39
3 41 205 207
3 207 206 40
3 205 206 207
3 41 208 210
3 208 42 209
3 208 209 210
3 43 42 41
3 43 17 42
3 43 44 17
3 45 44 43
3 45 211 213
3 213 212 44
3 211 212 213
3 46 214 215
3 46 216 217
3 47 48 9
3 49 48 47
3 49 18 48
3 49 50 18
3 51 50 49
3 51 19 50
3 218 20 219
3 52 53 11
3 54 53 52
3 54 21 53
3 54 55 21
3 220 55 221
3 222 221 54
3 220 221 222
3 224 223 55
3 225 2 226
3 56 57 1
3 58 57 56
3 58 7 57
3 23 58 6
3 59 58 23
3 59 7 58
3 59 39 7
3 60 39 59
3 60 3 39
3 60 61 3
3 227 61 228
3 229 228 60
3 227 228 229
3 231 230 61
3 25 232 234
3 234 233 8
3 232 233 234
3 236 235 25
3 237 9 238
3 239 9 240
3 241 47 242
3 243 242 9
3 241 242 243
3 62 244 246
3 244 47 245
3 244 245 246
3 62 4 47
3 63 247 248
3 63 249 251
3 249 11 250
3 249 250 251
3 27 63 10
3 64 63 27
3 64 11 63
3 64 52 11
3 65 52 64
3 65 5 52
3 65 252 254
3 254 253 5
3 252 253 254
3 66 255 257
3 257 256 65
3 255 256 257
3 66 258 259
3 29 66 12
3 260 66 261
3 262 261 29
3 260 261 262
3 264 263 66
3 32 265 266
3 268 267 32
3 67 269 270
3 67 271 273
3 271 1 272
3 271 272 273
3 274 33 275
3 68 276 278
3 276 33 277
3 276 277 278
3 68 14 33
3 34 279 281
3 279 68 280
3 279 280 281
3 69 68 34
3 69 14 68
3 69 67 14
3 70 67 69
3 70 1 67
3 70 56 1
3 71 56 70
3 71 6 56
3 282 71 283
3 284 283 15
3 282 283 284
3 285 71 286
3 287 6 288
3 289 288 71
3 287 288 289
3 290 22 291
3 292 291 6
3 290 291 292
3 293 22 294
3 296 295 22
3 35 297 298
3 300 299 35
3 301 10 302
3 37 303 304
3 72 305 307
3 307 306 37
3 305 306 307
3 72 308 310
3 308 10 309
3 308 309 310
3 72 26 10
3 73 26 72
3 73 0 26
3 311 2 312
3 313 2 314
3 315 38 316
3 317 316 2
3 315 316 317
3 318 38 319
3 320 16 321
3 322 321 38
3 320 321 322
3 74 323 324
3 74 325 327
3 325 16 326
3 325 326 327
3 74 73 16
3 75 73 74
3 75 0 73
3 57 328 330
3 330 329 1
3 328 329 330
3 332 331 57
3 40 333 335
3 335 334 7
3 333 334 335
3 337 336 40
3 42 338 339
3 76 340 342
3 342 341 42
3 340 341 342
3 76 343 344
3 76 345 347
3 345 75 346
3 345 346 347
3 77 75 76
3 77 0 75
3 77 30 0
3 78 30 77
3 78 13 30
3 44 78 17
3 79 78 44
3 79 13 78
3 79 348 350
3 350 349 13
3 348 349 350
3 352 351 79
3 61 45 3
3 353 45 354
3 355 354 61
3 353 354 355
3 357 356 45
3 358 46 359
3 80 360 362
3 360 46 361
3 360 361 362
3 80 363 365
3 365 364 46
3 363 364 365
3 48 80 9
3 81 80 48
3 81 366 368
3 368 367 80
3 366 367 368
3 81 369 370
3 372 371 81
3 50 373 375
3 375 374 18
3 373 374 375
3 377 376 50
3 82 378 379
3 82 380 381
3 82 382 384
3 382 62 383
3 382 383 384
3 83 62 82
3 83 4 62
3 84 385 386
3 84 387 389
3 387 20 388
3 387 388 389
3 53 84 11
3 85 84 53
3 85 20 84
3 85 83 20
3 86 83 85
3 86 4 83
3 86 51 4
3 87 51 86
3 87 19 51
3 55 87 21
3 390 87 391
3 392 391 55
3 390 391 392
3 393 19 394
3 395 394 87
3 393 394 395
3 397 396 19
3 399 398 5
