ply
format ascii 1.0
element vertex 541
property float x
property float y
property float z
element face 590
property list uchar int vertex_index
end_header
-4.812918 100.537796 -34.648285
5.583107 97.017273 -12.214788
14.725031 85.765404 -26.740921
-16.595654 83.526215 -49.506371
-11.170296 94.5709 -43.564941
-0.069029 90.939568 -40.453804
1.058252 101.061424 -23.831718
5.960558 94.517586 -31.466719
11.057216 93.048004 -21.014462
9.239076 84.473328 -35.549667
-25.055664 79.681992 -49.069157
-8.08468 98.08506 -39.607094
-5.611251 93.150742 -42.355576
-2.397522 96.266075 -38.038204
-7.368177 103.862915 -30.361727
-13.043454 105.180893 -30.8752
-10.569942 102.141289 -35.742069
3.64982 99.410561 -17.989058
6.241457 97.362473 -22.545189
8.46483 95.451172 -16.885666
0.762241 100.637291 -12.829229
-1.705058 102.951408 -18.854324
10.708899 90.363007 -29.35708
7.836184 89.890572 -34.014908
12.199725 85.435196 -31.366041
-19.110708 88.902191 -47.415741
-23.522257 86.866959 -47.134373
-21.012814 82.302345 -49.673672
-22.671362 74.920593 -51.055756
10.009239 93.006241 -11.346598
-14.247037 89.571785 -46.991291
-8.854021 89.14267 -45.823246
15.433653 80.909531 -28.460951
-16.452955 94.610764 -44.293018
-1.953897 101.583389 -29.390995
0.901946 97.88591 -33.10598
3.790611 98.149498 -28.013096
8.694981 94.322609 -26.375917
13.150491 89.86441 -24.330549
12.87429 90.963318 -15.439209
15.25014 88.220139 -19.0187
-7.143116 105.672546 -19.207327
-4.509726 104.152023 -24.537779
3.156641 93.284851 -36.154034
4.94303 88.032715 -38.164284
12.784333 80.159531 -32.535862
-23.283575 67.167809 -51.824818
-6.565625 99.591782 -37.164726
-5.20122 97.385757 -38.785698
-3.585411 98.538216 -36.441719
-6.073048 102.305885 -32.635136
-8.941618 103.16851 -33.155777
-7.754945 101.548775 -35.194767
-9.124689 100.29982 -37.633614
4.674606 98.309418 -15.122577
5.993382 97.584122 -17.507332
7.044124 96.33815 -14.565714
4.290121 97.328453 -9.70747
1.853644 99.145378 -9.879713
3.203295 98.869141 -12.464159
2.130537 100.195976 -15.44931
-17.703928 80.101288 -50.471878
-15.440136 80.587608 -50.176067
12.768995 88.188301 -28.109486
11.501772 88.02034 -30.528599
13.499846 85.768913 -29.078981
-17.890198 86.257317 -48.620796
-20.09494 85.710426 -48.649761
-18.944002 82.881767 -49.726387
-19.79674 79.563545 -50.563419
-12.603254 92.252396 -45.335529
-11.595066 89.381859 -46.545349
-9.880106 91.858109 -44.834846
-2.876049 92.14872 -41.51115
-4.553672 90.471786 -43.365757
-1.862305 89.58345 -42.343525
0.56773 88.185745 -41.481819
-14.470529 104.100708 -33.549335
-12.318698 97.043877 -41.974586
-15.01938 97.131622 -42.300606
-13.905245 94.855202 -43.93668
-15.225194 92.284286 -45.708687
-0.388195 101.460205 -26.676207
0.957488 99.945847 -28.814053
2.376076 99.737564 -26.163784
8.662881 95.326889 -21.735262
7.672751 95.841316 -24.42885
10.02915 93.727325 -23.644947
10.963634 92.18306 -25.486574
12.155835 91.574554 -22.807577
12.114954 90.777603 -10.816217
11.431129 92.135765 -13.470309
13.392971 89.909065 -12.775327
-5.700906 104.841408 -16.019863
-0.450736 102.217918 -21.361708
-3.158997 103.746643 -21.718027
-1.71022 102.688194 -24.39225
-3.296084 103.022484 -27.115334
3.556507 96.217896 -32.334934
1.989529 95.768272 -34.76622
4.643645 94.011894 -33.847271
8.629421 87.242928 -34.897785
6.376739 89.117935 -36.172241
7.069806 86.199028 -37.077915
5.512233 85.198349 -38.935577
7.776976 83.446457 -37.443836
14.044511 80.848686 -30.621195
-24.209164 83.406372 -48.273109
-25.43652 85.156822 -46.79446
-25.608418 75.594452 -49.787273
-21.256119 72.265289 -51.724701
-23.052486 70.927223 -51.534691
-21.791897 68.428589 -52.051323
-9.574767 96.497841 -41.634228
-8.388419 94.134415 -42.93713
-6.616509 95.764893 -40.978249
-3.97139 94.800453 -40.315868
-1.180624 93.662453 -39.393692
-10.202994 104.645866 -30.750227
-11.727486 103.776726 -33.437042
-13.297431 102.573509 -35.952209
-12.096566 100.834015 -38.044739
-10.821947 98.83873 -39.909782
2.260232 100.470398 -20.985882
3.755376 99.230537 -23.340868
4.843101 98.598312 -20.452192
7.438644 96.493607 -19.556255
9.819503 94.340294 -18.988575
-1.821407 102.277092 -12.926523
-3.173112 103.554344 -16.07494
-0.593562 102.015839 -15.770028
1.018442 101.249886 -18.343803
8.363728 92.535751 -30.516201
7.00878 92.205574 -32.897308
9.35943 90.146751 -31.782835
10.135335 87.735771 -32.742027
10.786044 85.190384 -33.413513
-22.24263 84.809906 -48.5163
-23.097467 81.217133 -49.474411
-23.885691 77.43206 -50.179352
-21.931053 78.844131 -50.428631
-20.797884 76.183769 -51.175865
6.555377 95.426476 -9.302908
7.926784 94.961082 -11.666227
8.661835 93.535225 -9.004654
10.816807 91.432388 -8.744668
-15.497743 86.701103 -48.348122
-14.216624 83.63652 -49.19973
-12.940061 86.681808 -47.95298
-10.208656 86.449806 -47.337894
-7.176699 91.272682 -44.152035
-6.125373 88.320877 -45.102158
15.198135 83.342979 -27.740131
-17.876764 91.734528 -46.05962
-16.618853 89.411392 -47.282467
-3.134941 101.092484 -32.098366
-1.876697 99.262398 -33.985088
-0.550598 99.847427 -31.438551
2.370756 98.145378 -30.665726
4.901969 96.481682 -29.808603
5.013209 97.894302 -25.462906
6.293938 96.310768 -27.2458
7.395557 94.527428 -28.984001
9.836378 92.323616 -28.08036
11.947427 90.3181 -26.836617
14.026654 87.91375 -25.63689
9.251848 94.342728 -14.107973
10.812897 93.189552 -16.179844
11.96735 92.162842 -18.216333
14.078777 89.745872 -17.321611
13.202599 90.739044 -20.097635
14.358573 89.04184 -21.645426
15.10928 87.46077 -23.144848
15.807346 85.5411 -24.39579
-4.453127 104.439682 -18.943151
-5.787967 105.022491 -21.987133
-5.951679 104.226471 -27.417257
-4.642682 102.817795 -29.964161
-0.736078 97.288574 -35.605427
0.397974 94.947678 -37.114521
1.438593 92.442902 -38.344898
5.564444 91.604057 -35.182186
3.97909 90.757851 -37.378864
2.400241 89.655861 -39.389313
3.11901 86.818909 -40.248634
13.91608 83.272888 -29.924295
12.523868 82.924767 -32.107792
11.123285 82.461555 -34.070824
11.401007 79.582405 -34.406445
9.616091 81.421928 -36.099239
-24.320526 73.254951 -50.812355
-15.697161 104.094078 -33.532116
-15.12592 103.376728 -34.817861
13.758522 89.136184 -11.46212
12.753963 90.343334 -11.795772
13.119514 89.570453 -10.482564
-5.003856 104.28719 -14.626114
-6.334256 104.933876 -14.598869
-25.610963 80.669041 -48.390591
-25.187713 82.531231 -47.992567
-24.632414 81.544182 -48.671133
-25.893707 78.745983 -48.798045
-25.610963 80.669041 -48.390591
-25.332041 77.638222 -49.428215
-26.170084 76.702213 -49.157103
-25.893707 78.745983 -48.798045
-20.902229 68.941647 -52.097692
-21.524008 70.346939 -51.888012
-20.634341 70.859996 -51.934382
-21.151359 67.207954 -52.211954
-20.902229 68.941647 -52.097692
-8.785585 104.25439 -30.555977
-9.485098 104.924243 -29.277598
-8.06769 104.532768 -29.083348
0.079992 100.754372 -11.514552
0.625694 100.008415 -10.039794
1.307943 99.891334 -11.354471
-0.529583 101.457191 -12.877876
-1.211831 101.574272 -11.563199
0.079992 100.754372 -11.514552
-20.272962 88.518616 -47.366962
-19.688297 90.076496 -46.697085
-19.718131 76.422275 -51.190624
-20.297312 77.873657 -50.869642
-19.217559 78.112164 -50.884401
-20.126096 74.674678 -51.462435
-19.718131 76.422275 -51.190624
8.040909 93.644165 -7.792333
7.608606 94.480851 -9.153781
6.98768 94.58979 -7.94146
11.163997 90.559452 -7.349966
10.210113 91.602859 -7.620737
11.81662 90.291332 -8.438571
11.163997 90.559452 -7.349966
6.98768 94.58979 -7.94146
5.872429 95.567444 -8.123249
-8.241421 87.602124 -46.204077
-8.918738 86.255691 -46.961401
-9.531339 87.796238 -46.58057
-4.782102 87.918518 -44.625763
-5.339522 89.396332 -44.233958
-3.996252 88.993972 -43.757563
-5.620933 86.762619 -45.459757
-4.782102 87.918518 -44.625763
-13.552968 105.719879 -29.483745
-12.236079 105.504433 -29.530318
-17.102047 95.652359 -43.460831
-16.38526 96.912788 -42.464624
-15.736168 95.871193 -43.296812
-17.684497 94.366051 -44.361033
-17.102047 95.652359 -43.460831
-17.164859 93.172646 -45.176319
-18.396402 92.927933 -45.244333
-17.684497 94.366051 -44.361033
14.664459 88.983006 -18.170155
14.984876 88.562225 -16.801366
15.570557 87.799359 -17.64991
15.959238 86.238567 -22.548663
15.628982 87.052101 -21.877772
16.30827 85.278732 -23.174134
15.458313 86.500935 -23.770319
15.959238 86.238567 -22.548663
16.599181 84.249069 -23.791288
16.30827 85.278732 -23.174134
-8.372535 106.126747 -19.2517
-8.94229 106.270897 -17.703249
-7.71287 105.816696 -17.658876
-7.8158 105.876789 -20.790476
-8.372535 106.126747 -19.2517
-5.885153 104.734436 -24.684454
-6.524273 105.16967 -23.409131
-5.148846 104.587257 -23.262456
-5.230702 104.189247 -25.977518
-6.606129 104.77166 -26.124193
-5.885153 104.734436 -24.684454
-13.616524 82.128815 -49.476382
-12.992259 83.667213 -48.931252
4.739433 84.52686 -39.816101
5.809173 83.664535 -39.164864
10.634823 79.073051 -35.386618
11.403005 78.087639 -34.562989
9.742365 79.992813 -36.233015
10.508549 80.502166 -35.252842
10.634823 79.073051 -35.386618
8.875694 80.98172 -36.977312
9.742365 79.992813 -36.233015
-24.034308 87.885468 -46.29208
-22.976344 88.576153 -46.474707
-25.893472 86.115688 -45.915977
-26.321306 84.228805 -46.462708
-23.96973 68.112187 -51.517724
-23.854186 69.991894 -51.37266
-23.168031 69.047516 -51.679755
-23.948371 66.214409 -51.654881
-23.96973 68.112187 -51.517724
-23.338985 65.243577 -51.896347
-23.948371 66.214409 -51.654881
3.071883 98.236915 -9.793592
2.426203 98.275677 -8.464772
3.644442 97.367214 -8.378651
-17.061736 78.694469 -50.721327
-18.171153 78.381035 -50.83863
-15.92984 78.937629 -50.573422
-17.061736 78.694469 -50.721327
-16.572032 80.344448 -50.323972
-14.840887 79.009605 -50.410772
-15.92984 78.937629 -50.573422
-18.171153 78.381035 -50.83863
-19.217559 78.112164 -50.884401
-18.750334 79.832416 -50.517648
-2.650569 88.549804 -43.246447
-3.996252 88.993972 -43.757563
-3.207988 90.027618 -42.854641
-1.437315 88.052696 -42.768772
-2.650569 88.549804 -43.246447
-0.222298 87.353843 -42.337919
-1.437315 88.052696 -42.768772
-0.647288 88.884597 -41.912672
1.061338 86.708866 -41.749327
-0.222298 87.353843 -42.337919
-15.005048 104.734131 -32.209548
-14.291511 105.274224 -30.872481
-13.756992 104.6408 -32.212267
-15.005048 104.734131 -32.209548
-15.697161 104.094078 -33.532116
-13.669039 97.08775 -42.137596
-14.328958 98.110008 -41.315834
-12.978617 98.066136 -41.152824
16.065095 87.059879 -18.584451
15.570557 87.799359 -17.64991
15.699413 87.431786 -19.814698
16.065095 87.059879 -18.584451
-6.991765 105.401127 -16.065145
-6.334256 104.933876 -14.598869
-6.422011 105.256977 -17.613595
-7.71287 105.816696 -17.658876
-6.991765 105.401127 -16.065145
6.941545 82.78859 -38.418993
5.809173 83.664535 -39.164864
6.644604 84.322403 -38.189706
14.738838 79.720505 -29.813235
14.739082 80.879109 -29.541073
15.433409 79.750927 -28.733113
14.129817 79.439568 -30.745833
14.738838 79.720505 -29.813235
13.499727 79.09499 -31.703167
13.414422 80.504109 -31.578529
14.129817 79.439568 -30.745833
-25.801391 83.406456 -47.253242
-24.822842 84.281597 -47.533784
-25.187713 82.531231 -47.992567
-26.321306 84.228805 -46.462708
-25.801391 83.406456 -47.253242
-26.385368 74.586827 -49.483175
-26.170084 76.702213 -49.157103
-25.735976 73.541088 -50.072973
-26.385368 74.586827 -49.483175
-21.897365 66.632527 -52.147047
-22.643203 66.002137 -52.033794
-22.537736 67.798199 -51.93807
-21.897365 66.632527 -52.147047
-21.151359 67.207954 -52.211954
-10.815849 105.236919 -29.467831
-9.485098 104.924243 -29.277598
-11.623224 104.913379 -30.812714
-12.236079 105.504433 -29.530318
-10.815849 105.236919 -29.467831
-14.539371 102.613129 -36.019299
-15.12592 103.376728 -34.817861
-13.88398 103.337108 -34.750772
-14.000346 101.767994 -37.156582
-14.539371 102.613129 -36.019299
-13.399914 100.898247 -38.202846
-14.000346 101.767994 -37.156582
-12.696998 101.703762 -36.998474
-12.867551 99.961204 -39.1879
-13.399914 100.898247 -38.202846
-12.230242 98.963562 -40.120422
-12.867551 99.961204 -39.1879
-11.459256 99.836372 -38.97726
-11.570322 97.941304 -40.942184
-12.978617 98.066136 -41.152824
-12.230242 98.963562 -40.120422
1.225706 99.155872 -8.563102
2.426203 98.275677 -8.464772
1.225706 99.155872 -8.563102
0.625694 100.008415 -10.039794
-2.483627 102.342212 -11.554254
-1.211831 101.574272 -11.563199
-3.064107 103.005032 -13.079444
-2.483627 102.342212 -11.554254
-2.49726 102.915718 -14.500732
-3.73996 103.643658 -14.653652
-3.064107 103.005032 -13.079444
-22.478737 87.501 -47.226278
-22.976344 88.576153 -46.474707
-20.765079 86.922733 -47.983973
-20.272962 88.518616 -47.366962
-19.602824 87.306309 -48.032751
-21.838923 86.472473 -47.917242
-20.765079 86.922733 -47.983973
-21.168785 85.260166 -48.58303
-22.882444 85.838432 -47.825336
-22.478737 87.501 -47.226278
-21.838923 86.472473 -47.917242
-20.355214 72.715439 -51.736852
-21.027002 74.224529 -51.450283
-20.126096 74.674678 -51.462435
-20.634341 70.859996 -51.934382
-20.355214 72.715439 -51.736852
9.132627 92.654278 -7.75073
8.040909 93.644165 -7.792333
9.739321 92.483807 -8.874661
9.132627 92.654278 -7.75073
10.210113 91.602859 -7.620737
12.465694 89.96394 -9.474345
11.465881 91.104996 -9.780442
11.81662 90.291332 -8.438571
13.470254 88.75679 -9.140693
13.119514 89.570453 -10.482564
12.465694 89.96394 -9.474345
4.739802 96.518432 -8.32553
3.644442 97.367214 -8.378651
5.422749 96.377465 -9.505189
4.739802 96.518432 -8.32553
5.872429 95.567444 -8.123249
-12.353977 85.189857 -48.307876
-12.992259 83.667213 -48.931252
-13.578342 85.159164 -48.576355
-10.988274 85.073856 -48.000333
-12.353977 85.189857 -48.307876
-11.574358 86.565807 -47.645437
-9.703651 84.87281 -47.676344
-10.988274 85.073856 -48.000333
-9.703651 84.87281 -47.676344
-8.918738 86.255691 -46.961401
-6.877097 87.191227 -45.843533
-8.241421 87.602124 -46.204077
-7.489697 88.731774 -45.462702
-6.877097 87.191227 -45.843533
-5.620933 86.762619 -45.459757
15.762505 83.338009 -26.623755
14.961583 84.554192 -27.240526
15.525953 84.549221 -26.12415
15.919241 82.12408 -27.0462
15.762505 83.338009 -26.623755
16.037 80.907356 -27.40661
15.315894 82.126255 -28.100541
15.919241 82.12408 -27.0462
16.049315 79.725803 -27.748337
16.037 80.907356 -27.40661
16.652662 79.723629 -26.693995
15.433409 79.750927 -28.733113
16.049315 79.725803 -27.748337
-13.552968 105.719879 -29.483745
-14.291511 105.274224 -30.872481
-15.616053 98.103122 -41.41234
-14.328958 98.110008 -41.315834
-15.616053 98.103122 -41.41234
-16.38526 96.912788 -42.464624
-19.071325 91.492664 -46.019024
-18.396402 92.927933 -45.244333
-18.493736 90.318359 -46.73768
-19.688297 90.076496 -46.697085
-19.071325 91.492664 -46.019024
14.396763 88.622673 -12.386947
13.758522 89.136184 -11.46212
14.096387 89.249958 -13.622709
14.396763 88.622673 -12.386947
13.837047 89.777085 -14.95465
13.13363 90.436192 -14.107268
14.096387 89.249958 -13.622709
14.439291 89.168362 -15.895851
14.984876 88.562225 -16.801366
13.476534 90.354595 -16.38041
13.837047 89.777085 -14.95465
14.439291 89.168362 -15.895851
15.253629 87.842636 -21.128062
14.804357 88.630989 -20.332063
15.699413 87.431786 -19.814698
14.733926 88.251305 -22.395137
15.253629 87.842636 -21.128062
15.628982 87.052101 -21.877772
16.067111 84.437069 -24.951584
15.525953 84.549221 -26.12415
15.266189 85.653252 -25.568356
16.067111 84.437069 -24.951584
16.599181 84.249069 -23.791288
-4.437009 104.197876 -16.047401
-5.003856 104.28719 -14.626114
-3.73996 103.643658 -14.653652
-7.138226 105.551761 -22.180379
-7.8158 105.876789 -20.790476
-6.465542 105.347519 -20.59723
-7.138226 105.551761 -22.180379
-6.524273 105.16967 -23.409131
-7.35944 104.714546 -27.611114
-6.606129 104.77166 -26.124193
-6.659928 104.044693 -28.889492
-8.06769 104.532768 -29.083348
-7.35944 104.714546 -27.611114
-14.22828 80.604359 -49.96455
-14.82838 82.112064 -49.687899
-13.616524 82.128815 -49.476382
-14.840887 79.009605 -50.410772
-14.22828 80.604359 -49.96455
2.336977 86.025448 -41.132734
1.061338 86.708866 -41.749327
1.84337 87.502327 -40.865227
3.542821 85.33714 -40.472629
4.315621 86.008629 -39.592106
4.739433 84.52686 -39.816101
2.336977 86.025448 -41.132734
3.542821 85.33714 -40.472629
12.810278 78.798974 -32.677597
13.499727 79.09499 -31.703167
12.118615 78.510411 -33.612888
11.403005 78.087639 -34.562989
12.09267 79.870968 -33.471153
12.810278 78.798974 -32.677597
12.118615 78.510411 -33.612888
7.956136 81.993984 -37.64961
8.696534 82.434192 -36.771537
8.875694 80.98172 -36.977312
6.941545 82.78859 -38.418993
7.956136 81.993984 -37.64961
-24.991439 87.030399 -46.122124
-24.034308 87.885468 -46.29208
-24.479388 86.01189 -46.964416
-24.991439 87.030399 -46.122124
-25.893472 86.115688 -45.915977
-25.09203 72.371338 -50.585514
-25.735976 73.541088 -50.072973
-24.964472 74.424701 -50.299814
-24.488206 71.155757 -51.011492
-23.686506 72.091087 -51.173523
-23.854186 69.991894 -51.37266
-25.09203 72.371338 -50.585514
-24.488206 71.155757 -51.011492
-23.338985 65.243577 -51.896347
-22.643203 66.002137 -52.033794
3 0 49 47
3 0 52 50
3 0 47 52
3 1 56 54
3 1 59 57
3 1 54 59
3 3 62 61
3 2 65 63
3 3 68 66
3 3 61 68
3 4 72 70
3 5 75 73
3 5 76 75
3 192 191 77
3 4 80 78
3 4 70 80
3 6 84 82
3 8 87 85
3 8 89 87
3 193 92 194
3 195 194 90
3 193 194 195
3 196 93 197
3 6 96 94
3 6 82 96
3 7 100 98
3 9 103 101
3 9 105 103
3 10 198 200
3 200 199 107
3 198 199 200
3 10 201 202
3 10 203 205
3 203 109 204
3 203 204 205
3 206 112 207
3 208 207 110
3 206 207 208
3 210 209 112
3 11 115 113
3 13 116 48
3 13 117 116
3 14 211 213
3 211 118 212
3 211 212 213
3 16 119 51
3 16 120 119
3 16 121 120
3 11 122 53
3 11 113 122
3 17 125 123
3 19 126 55
3 19 127 126
3 20 214 216
3 216 215 58
3 214 215 216
3 20 217 219
3 217 128 218
3 217 218 219
3 20 130 128
3 17 131 60
3 17 123 131
3 22 134 132
3 24 135 64
3 24 136 135
3 25 220 221
3 27 137 67
3 27 138 137
3 27 140 138
3 222 141 223
3 224 223 69
3 222 223 224
3 226 225 141
3 227 144 228
3 229 228 142
3 227 228 229
3 230 145 231
3 233 232 145
3 234 142 235
3 30 148 146
3 31 149 71
3 31 236 238
3 238 237 149
3 236 237 238
3 12 150 114
3 239 151 240
3 241 240 74
3 239 240 241
3 243 242 151
3 15 244 245
3 33 246 248
3 248 247 79
3 246 247 248
3 33 249 250
3 33 251 253
3 251 153 252
3 251 252 253
3 30 154 81
3 30 146 154
3 34 157 155
3 36 158 83
3 36 159 158
3 18 160 124
3 37 161 86
3 37 162 161
3 37 163 162
3 38 164 88
3 38 165 164
3 29 166 143
3 39 167 91
3 39 168 167
3 40 254 256
3 254 169 255
3 254 255 256
3 40 170 169
3 40 171 170
3 257 172 258
3 259 173 260
3 261 260 172
3 259 260 261
3 263 262 173
3 41 264 266
3 264 265 266
3 41 267 268
3 21 174 129
3 42 175 95
3 42 269 271
3 271 270 175
3 269 270 271
3 42 272 274
3 272 176 273
3 272 273 274
3 34 177 97
3 34 155 177
3 276 275 147
3 35 178 156
3 43 179 99
3 43 180 179
3 23 181 133
3 44 182 102
3 44 183 182
3 44 184 183
3 278 277 104
3 32 185 152
3 45 186 106
3 45 187 186
3 279 188 280
3 281 189 282
3 283 282 188
3 281 282 283
3 285 284 189
3 26 286 287
3 289 288 108
3 28 190 139
3 46 290 292
3 292 291 111
3 290 291 292
3 46 293 294
3 46 295 296
3 47 48 11
3 49 48 47
3 49 13 48
3 50 51 14
3 52 51 50
3 52 16 51
3 52 53 16
3 47 53 52
3 47 11 53
3 54 55 17
3 56 55 54
3 56 19 55
3 57 297 299
3 297 58 298
3 297 298 299
3 59 58 57
3 59 20 58
3 59 60 20
3 54 60 59
3 54 17 60
3 61 300 301
3 62 302 304
3 304 303 61
3 302 303 304
3 62 305 306
3 63 64 22
3 65 64 63
3 65 24 64
3 66 67 25
3 68 67 66
3 68 27 67
3 68 69 27
3 61 69 68
3 61 307 309
3 309 308 69
3 307 308 309
3 70 71 30
3 72 71 70
3 72 31 71
3 73 74 12
3 75 74 73
3 75 310 312
3 312 311 74
3 310 311 312
3 75 313 314
3 76 315 317
3 317 316 75
3 315 316 317
3 76 318 319
3 77 320 322
3 322 321 15
3 320 321 322
3 324 323 77
3 78 325 327
3 325 79 326
3 325 326 327
3 80 79 78
3 80 33 79
3 80 81 33
3 70 81 80
3 70 30 81
3 82 83 34
3 84 83 82
3 84 36 83
3 85 86 18
3 87 86 85
3 87 37 86
3 87 88 37
3 89 88 87
3 89 38 88
3 90 91 29
3 92 91 90
3 92 39 91
3 328 40 329
3 331 330 40
3 93 332 333
3 93 334 336
3 334 41 335
3 334 335 336
3 94 95 21
3 96 95 94
3 96 42 95
3 96 97 42
3 82 97 96
3 82 34 97
3 98 99 35
3 100 99 98
3 100 43 99
3 101 102 23
3 103 102 101
3 103 44 102
3 103 104 44
3 105 104 103
3 105 337 339
3 339 338 104
3 337 338 339
3 340 106 341
3 342 341 32
3 340 341 342
3 343 106 344
3 345 45 346
3 347 346 106
3 345 346 347
3 107 108 26
3 348 108 349
3 350 349 107
3 348 349 350
3 352 351 108
3 109 353 354
3 109 355 356
3 110 111 28
3 112 111 110
3 112 46 111
3 112 357 359
3 359 358 46
3 357 358 359
3 361 360 112
3 113 114 4
3 115 114 113
3 115 12 114
3 48 115 11
3 116 115 48
3 116 12 115
3 116 73 12
3 117 73 116
3 117 5 73
3 118 362 363
3 118 364 366
3 364 15 365
3 364 365 366
3 51 118 14
3 119 118 51
3 119 15 118
3 119 77 15
3 120 77 119
3 120 367 369
3 369 368 77
3 367 368 369
3 120 370 371
3 121 372 374
3 374 373 120
3 372 373 374
3 121 375 376
3 53 121 16
3 122 121 53
3 122 377 379
3 379 378 121
3 377 378 379
3 122 380 382
3 380 78 381
3 380 381 382
3 113 78 122
3 113 4 78
3 123 124 6
3 125 124 123
3 125 18 124
3 55 125 17
3 126 125 55
3 126 18 125
3 126 85 18
3 127 85 126
3 127 8 85
3 58 383 384
3 386 385 58
3 128 387 388
3 128 389 390
3 128 391 393
3 391 129 392
3 391 392 393
3 130 129 128
3 130 21 129
3 60 130 20
3 131 130 60
3 131 21 130
3 131 94 21
3 123 94 131
3 123 6 94
3 132 133 7
3 134 133 132
3 134 23 133
3 64 134 22
3 135 134 64
3 135 23 134
3 135 101 23
3 136 101 135
3 136 9 101
3 394 26 395
3 67 396 398
3 398 397 25
3 396 397 398
3 137 399 401
3 401 400 67
3 399 400 401
3 137 402 404
3 402 26 403
3 402 403 404
3 137 107 26
3 138 107 137
3 138 10 107
3 138 139 10
3 140 139 138
3 140 28 139
3 69 140 27
3 141 140 69
3 141 28 140
3 141 110 28
3 405 110 406
3 407 406 141
3 405 406 407
3 409 408 110
3 142 143 1
3 144 143 142
3 144 29 143
3 410 144 411
3 145 412 414
3 412 144 413
3 412 413 414
3 145 29 144
3 145 90 29
3 415 90 416
3 417 416 145
3 415 416 417
3 420 419 90
3 418 419 420
3 421 57 422
3 142 423 425
3 423 57 424
3 423 424 425
3 142 1 57
3 146 147 3
3 148 147 146
3 148 426 428
3 428 427 147
3 426 427 428
3 71 148 30
3 149 148 71
3 149 429 431
3 431 430 148
3 429 430 431
3 149 432 433
3 435 434 149
3 114 72 4
3 150 72 114
3 150 31 72
3 74 150 12
3 151 150 74
3 151 31 150
3 151 436 438
3 438 437 31
3 436 437 438
3 440 439 151
3 441 152 442
3 443 442 2
3 441 442 443
3 444 152 445
3 446 32 447
3 448 447 152
3 446 447 448
3 449 32 450
3 449 450 451
3 453 452 32
3 455 454 15
3 79 456 457
3 459 458 79
3 153 460 461
3 153 462 464
3 462 25 463
3 462 463 464
3 81 153 33
3 154 153 81
3 154 25 153
3 154 66 25
3 146 66 154
3 146 3 66
3 155 156 0
3 157 156 155
3 157 35 156
3 83 157 34
3 158 157 83
3 158 35 157
3 158 98 35
3 159 98 158
3 159 7 98
3 124 84 6
3 160 84 124
3 160 36 84
3 86 160 18
3 161 160 86
3 161 36 160
3 161 159 36
3 162 159 161
3 162 7 159
3 162 132 7
3 163 132 162
3 163 22 132
3 88 163 37
3 164 163 88
3 164 22 163
3 164 63 22
3 165 63 164
3 165 2 63
3 143 56 1
3 166 56 143
3 166 19 56
3 91 166 29
3 167 166 91
3 167 19 166
3 167 127 19
3 168 127 167
3 168 8 127
3 465 92 466
3 467 92 468
3 469 39 470
3 471 470 92
3 469 470 471
3 169 472 473
3 169 474 476
3 474 39 475
3 474 475 476
3 169 168 39
3 170 168 169
3 170 8 168
3 170 89 8
3 171 89 170
3 171 38 89
3 477 171 478
3 479 478 40
3 477 478 479
3 172 480 482
3 480 171 481
3 480 481 482
3 172 38 171
3 172 165 38
3 173 165 172
3 173 2 165
3 173 483 485
3 485 484 2
3 483 484 485
3 487 486 173
3 129 488 490
3 488 93 489
3 488 489 490
3 174 93 129
3 174 41 93
3 95 174 21
3 175 174 95
3 175 41 174
3 175 491 493
3 493 492 41
3 491 492 493
3 495 494 175
3 176 496 497
3 176 498 500
3 498 14 499
3 498 499 500
3 97 176 42
3 177 176 97
3 177 14 176
3 177 50 14
3 155 50 177
3 155 0 50
3 147 62 3
3 501 62 502
3 503 502 147
3 501 502 503
3 505 504 62
3 156 49 0
3 178 49 156
3 178 13 49
3 99 178 35
3 179 178 99
3 179 13 178
3 179 117 13
3 180 117 179
3 180 5 117
3 133 100 7
3 181 100 133
3 181 43 100
3 102 181 23
3 182 181 102
3 182 43 181
3 182 180 43
3 183 180 182
3 183 5 180
3 183 76 5
3 184 76 183
3 184 506 508
3 508 507 76
3 506 507 508
3 104 184 44
3 509 184 510
3 511 510 104
3 509 510 511
3 513 512 184
3 152 65 2
3 185 65 152
3 185 24 65
3 106 185 32
3 186 185 106
3 186 24 185
3 186 136 24
3 187 136 186
3 187 9 136
3 514 45 515
3 188 516 517
3 188 518 520
3 518 45 519
3 518 519 520
3 188 187 45
3 189 187 188
3 189 9 187
3 189 105 9
3 521 105 522
3 523 522 189
3 521 522 523
3 525 524 105
3 108 526 528
3 528 527 26
3 526 527 528
3 530 529 108
3 139 109 10
3 190 109 139
3 190 531 533
3 533 532 109
3 531 532 533
3 111 190 28
3 534 190 535
3 536 535 111
3 534 535 536
3 538 537 190
3 540 539 46
