ply
format ascii 1.0
element vertex 370
property float x
property float y
property float z
element face 418
property list uchar int vertex_index
end_header
-3.994784 -100.154594 -32.628738
2.895946 -99.579781 -27.007856
-7.999218 -106.1147 -24.059803
7.685016 -91.253311 -34.549564
0.806557 -89.541084 -39.143723
-15.242822 -103.856842 -26.901981
-11.188544 -96.053123 -34.735035
-4.52854 -105.352951 -21.354959
-9.56528 -107.296761 -19.466766
-0.556996 -100.59864 -30.105888
5.265937 -95.991028 -30.92898
2.029612 -96.182678 -33.988892
4.512986 -90.748016 -37.336998
-1.716709 -95.515541 -36.084259
-16.596136 -105.98851 -22.054403
-19.825632 -103.442924 -22.569304
-18.422976 -92.716064 -31.165417
-16.227722 -97.03656 -31.5135
5.921105 -97.601181 -22.914206
0.516593 -102.174438 -22.608046
-2.624996 -103.544037 -25.871708
-6.163639 -103.758568 -28.577759
8.306421 -94.541962 -27.213413
10.871836 -90.258865 -31.135477
13.322678 -85.230133 -34.579205
10.132023 -85.451828 -37.821529
6.89822 -84.636185 -40.117569
-13.02667 -107.273857 -20.950775
-11.748682 -105.712845 -25.693869
-9.976473 -102.927406 -30.092598
-18.510265 -100.780144 -27.213907
-13.471564 -100.640549 -31.046885
-7.836256 -98.723083 -34.104084
-5.168711 -93.353653 -37.443703
-2.693183 -87.076126 -40.075092
-2.098216 -100.443253 -31.494364
0.769692 -98.500671 -32.126293
-1.024418 -98.240608 -33.535889
0.151477 -95.997238 -35.158592
-2.934948 -97.952858 -34.454288
-16.284019 -92.522789 -33.065372
2.154998 -100.947998 -20.540892
-0.391738 -102.86908 -20.286495
-6.284165 -105.927917 -22.733286
-3.691148 -104.629753 -23.665916
-5.435851 -105.055321 -25.057549
-4.364612 -103.812363 -27.320108
-7.093002 -105.059891 -26.420361
4.359415 -98.81958 -24.975027
7.089041 -96.220184 -25.136724
5.541693 -97.26049 -27.214584
6.521762 -93.746422 -32.741646
8.11679 -93.189224 -31.173687
9.300132 -90.912971 -32.936089
12.129522 -87.799576 -32.93549
10.453364 -88.401299 -34.656628
11.803939 -85.410103 -36.327053
9.039617 -88.33802 -36.24369
2.727443 -90.306801 -38.323914
5.579441 -87.873817 -38.782013
3.891831 -87.215935 -39.702625
5.044264 -83.893776 -41.000378
2.222043 -86.176353 -40.477154
-16.029848 -105.122429 -24.420544
-14.173397 -106.05304 -24.002806
-13.527843 -105.004967 -26.296234
-10.993966 -104.483002 -27.927553
-12.667231 -103.631111 -28.562494
-19.678596 -98.833504 -27.3337
-13.739519 -96.609589 -33.298012
-14.909193 -98.852348 -31.448956
-12.269703 -98.48996 -33.029701
-10.705009 -99.925659 -32.658581
-9.45142 -97.592186 -34.514778
-6.650359 -96.111801 -35.8843
-8.219408 -94.853714 -36.219997
-5.657486 -88.808006 -39.017509
-4.154255 -85.475685 -40.250534
-3.117465 -104.619347 -19.760271
-5.523981 -105.886215 -19.109644
-7.121213 -106.52478 -20.450453
-8.711135 -106.826279 -21.724455
1.196796 -100.261002 -28.593063
4.071251 -97.892723 -29.076189
2.433947 -98.389008 -30.634794
3.778657 -96.143097 -32.574429
4.991765 -93.745819 -34.360817
6.14607 -91.091774 -36.075085
3.181181 -93.634148 -35.740452
1.45285 -93.247208 -36.819839
-0.341046 -92.568459 -37.713924
-18.351736 -104.849388 -22.32411
-17.612696 -103.882027 -24.82375
-19.578358 -94.747108 -29.368839
-18.566141 -96.969032 -29.538586
-17.352131 -94.989922 -31.458075
-15.098165 -94.728622 -33.247536
-12.480987 -94.083038 -34.961243
-9.648604 -93.262138 -36.436401
5.774169 -97.567749 -18.554779
7.087677 -96.446419 -20.795265
4.621442 -98.829239 -20.688709
3.297669 -99.982513 -22.728134
1.841033 -100.927475 -24.729956
-2.01924 -103.911514 -22.00956
-0.863168 -102.902557 -24.286896
0.146125 -101.725487 -26.477427
-1.566878 -102.197945 -28.03455
-3.445295 -102.405518 -29.3799
-5.112317 -102.052383 -30.738428
8.511967 -94.953316 -22.899157
9.622242 -93.551872 -24.947657
10.818671 -91.791481 -27.064262
6.980443 -95.209457 -29.249887
9.643164 -92.457283 -29.252613
12.091396 -89.700005 -29.071993
13.408051 -87.339493 -30.926413
7.327876 -88.186249 -37.662674
8.536249 -85.162987 -39.0653
-11.19253 -107.419182 -20.299614
-10.467072 -106.877647 -22.657333
-14.798903 -106.793159 -21.595253
-12.402703 -106.657364 -23.318142
-9.912181 -106.062042 -25.004375
-9.086477 -104.9655 -27.226645
-8.035471 -103.541542 -29.374722
-7.0357 -101.695168 -31.538155
-19.275381 -102.24601 -24.923588
-17.04343 -102.426788 -27.111557
-17.428446 -99.120293 -29.425869
-16.050364 -100.797462 -29.362593
-14.420262 -102.347008 -29.082808
-11.603975 -101.896851 -30.764645
-8.757571 -100.961372 -32.225353
-5.897875 -99.527397 -33.542747
-4.955614 -97.321602 -35.205559
-3.487387 -94.58609 -36.87735
-2.341425 -91.684776 -38.349003
-6.770678 -91.832916 -37.78109
-3.845523 -90.157288 -38.8969
-0.859504 -88.477234 -39.712769
0.460217 -85.037506 -40.968174
-0.996662 -103.195805 -19.179532
0.273682 -102.284733 -19.218075
-20.166328 -97.770214 -27.313182
-20.570939 -98.619713 -26.262004
-4.826804 -84.564598 -40.261972
-5.553554 -86.154301 -39.705833
-3.406431 -83.59129 -40.838577
-4.826804 -84.564598 -40.261972
-6.005375 -106.023628 -18.04167
-4.841918 -105.454437 -18.273525
-8.343246 -106.910771 -19.95861
-7.530273 -106.699528 -19.385704
-8.752306 -107.085518 -18.893861
-19.088684 -104.146156 -22.446707
-19.348333 -104.553207 -21.181649
-20.085282 -103.849975 -21.304246
-14.489384 -93.512264 -34.001663
-15.691092 -93.625706 -33.156454
-15.082311 -92.409347 -33.910582
-13.180796 -93.189472 -34.858517
-13.789576 -94.40583 -34.104389
-14.489384 -93.512264 -34.001663
-11.809675 -92.683739 -35.709084
-13.180796 -93.189472 -34.858517
3.999265 -99.279919 -19.519092
5.197805 -98.198494 -19.621744
4.575628 -98.649174 -18.452127
13.983767 -85.068947 -33.608978
13.387189 -86.353668 -32.787121
12.7261 -86.514854 -33.757348
14.548418 -83.769626 -34.493025
13.983767 -85.068947 -33.608978
13.903325 -83.79351 -35.43468
14.548418 -83.769626 -34.493025
11.517854 -84.017212 -37.813278
12.353812 -83.99635 -37.06604
10.967981 -85.430966 -37.074291
10.754514 -83.859985 -38.534964
11.517854 -84.017212 -37.813278
8.337054 -83.179565 -40.302931
9.156068 -83.442966 -39.776797
7.717234 -84.899586 -39.591435
7.455758 -82.948006 -40.764502
8.337054 -83.179565 -40.302931
5.773376 -82.082814 -41.600119
4.325375 -83.225987 -41.367985
-12.1096 -107.346519 -20.625194
-12.225187 -107.517525 -19.494609
-13.142257 -107.444862 -19.820189
-15.69752 -106.390835 -21.824828
-15.95047 -106.656013 -20.630547
-16.849086 -106.253689 -20.860123
-18.892823 -101.513077 -26.068748
-19.888484 -101.335099 -25.006821
-19.505926 -100.602166 -26.151981
-7.561488 -90.989429 -37.826836
-8.209641 -92.547527 -37.108745
-9.000451 -91.70404 -37.154491
-9.734551 -107.359463 -18.420859
-8.752306 -107.085518 -18.893861
-20.782839 -103.004989 -21.400166
-20.085282 -103.849975 -21.304246
-16.715599 -91.268654 -32.974247
-17.353497 -92.619427 -32.115395
-17.785077 -91.365292 -32.024269
-15.555332 -91.139294 -33.891965
-16.715599 -91.268654 -32.974247
-15.082311 -92.409347 -33.910582
-15.555332 -91.139294 -33.891965
1.54705 -101.324192 -19.345273
2.766043 -100.339298 -19.445184
0.88163 -101.908539 -20.413694
1.54705 -101.324192 -19.345273
0.273682 -102.284733 -19.218075
2.914265 -84.367275 -41.106373
4.325375 -83.225987 -41.367985
3.633154 -85.035065 -40.738766
-14.12586 -107.255692 -20.09328
-13.142257 -107.444862 -19.820189
-20.090091 -99.628846 -26.211877
-20.570939 -98.619713 -26.262004
-19.094431 -99.806824 -27.273803
-19.505926 -100.602166 -26.151981
-20.090091 -99.628846 -26.211877
-6.305169 -87.820461 -39.089321
-7.004892 -89.476975 -38.445045
-4.90587 -87.141846 -39.634022
-6.305169 -87.820461 -39.089321
-5.553554 -86.154301 -39.705833
-2.725245 -84.578952 -40.737898
-1.994708 -85.379173 -40.650177
-3.423719 -86.275905 -40.162813
-2.725245 -84.578952 -40.737898
-3.406431 -83.59129 -40.838577
-3.63866 -104.821003 -18.598839
-2.359526 -104.070939 -18.91642
-4.320723 -105.252781 -19.434957
-3.63866 -104.821003 -18.598839
-4.841918 -105.454437 -18.273525
-6.731656 -106.380245 -18.7153
-6.005375 -106.023628 -18.04167
-6.322597 -106.205498 -19.780048
-6.731656 -106.380245 -18.7153
-7.530273 -106.699528 -19.385704
-17.735529 -105.744239 -20.942401
-16.849086 -106.253689 -20.860123
-18.613329 -105.174678 -21.077255
-19.609927 -104.878498 -19.934793
-19.348333 -104.553207 -21.181649
-17.473936 -105.418949 -22.189256
-17.735529 -105.744239 -20.942401
-18.613329 -105.174678 -21.077255
-19.072249 -95.85807 -29.453713
-19.610101 -96.837978 -28.415625
-20.116209 -95.727016 -28.330751
-10.393484 -92.273289 -36.446663
-11.064796 -93.672588 -35.698822
-11.809675 -92.683739 -35.709084
-9.000451 -91.70404 -37.154491
-10.393484 -92.273289 -36.446663
6.430923 -97.007084 -19.675022
7.690086 -95.724034 -19.610646
7.033332 -96.284699 -18.490403
3.38822 -99.888619 -20.614801
3.999265 -99.279919 -19.519092
2.766043 -100.339298 -19.445184
-1.754602 -103.744214 -20.023383
-0.996662 -103.195805 -19.179532
-2.359526 -104.070939 -18.91642
-20.468989 -94.497951 -28.327585
-20.116209 -95.727016 -28.330751
-19.918639 -93.431461 -29.331209
-20.468989 -94.497951 -28.327585
-19.340947 -92.415939 -30.229498
-19.000667 -93.731586 -30.267128
-19.918639 -93.431461 -29.331209
-18.775852 -91.353272 -31.067917
-19.340947 -92.415939 -30.229498
-17.785077 -91.365292 -32.024269
-18.775852 -91.353272 -31.067917
8.308345 -95.134438 -20.713001
7.690086 -95.724034 -19.610646
9.02049 -94.387886 -21.764947
8.308345 -95.134438 -20.713001
7.799822 -95.699868 -21.847211
9.638939 -93.68074 -22.833301
9.02049 -94.387886 -21.764947
10.194076 -92.980018 -23.857551
9.638939 -93.68074 -22.833301
9.067104 -94.252594 -23.923407
10.817895 -92.148152 -24.898854
10.194076 -92.980018 -23.857551
11.416109 -91.267956 -25.957157
10.817895 -92.148152 -24.898854
10.220457 -92.671677 -26.005959
12.003463 -90.365395 -26.96154
11.416109 -91.267956 -25.957157
12.639826 -89.319657 -27.965405
12.003463 -90.365395 -26.96154
11.455033 -90.745743 -28.068127
13.279902 -88.255257 -28.893464
12.639826 -89.319657 -27.965405
13.93823 -87.075001 -29.820674
13.279902 -88.255257 -28.893464
12.749723 -88.519749 -29.999203
14.590477 -85.87849 -30.769932
13.93823 -87.075001 -29.820674
14.026454 -86.123627 -31.782582
12.768787 -87.569535 -31.930951
13.387189 -86.353668 -32.787121
14.590477 -85.87849 -30.769932
14.026454 -86.123627 -31.782582
13.143955 -83.883496 -36.308604
13.903325 -83.79351 -35.43468
12.563308 -85.320118 -35.453129
13.143955 -83.883496 -36.308604
12.353812 -83.99635 -37.06604
9.956627 -83.715565 -39.156849
10.754514 -83.859985 -38.534964
9.334136 -85.307408 -38.443415
9.956627 -83.715565 -39.156849
9.156068 -83.442966 -39.776797
6.52878 -82.576802 -41.205906
7.455758 -82.948006 -40.764502
5.971242 -84.264981 -40.558974
6.52878 -82.576802 -41.205906
5.773376 -82.082814 -41.600119
6.416756 -96.751152 -17.360782
7.033332 -96.284699 -18.490403
5.191641 -97.930729 -17.405055
6.416756 -96.751152 -17.360782
4.575628 -98.649174 -18.452127
5.191641 -97.930729 -17.405055
-10.554105 -107.47852 -18.738907
-9.734551 -107.359463 -18.420859
-11.36773 -107.53973 -19.155331
-12.225187 -107.517525 -19.494609
-10.378905 -107.357972 -19.88319
-10.554105 -107.47852 -18.738907
-11.36773 -107.53973 -19.155331
-15.011976 -107.015343 -20.41552
-15.95047 -106.656013 -20.630547
-13.912786 -107.033508 -21.273014
-14.12586 -107.255692 -20.09328
-15.011976 -107.015343 -20.41552
-20.508109 -102.550507 -22.642682
-20.782839 -103.004989 -21.400166
-20.232983 -101.95205 -23.819823
-19.888484 -101.335099 -25.006821
-19.550506 -102.844467 -23.746446
-20.508109 -102.550507 -22.642682
-20.232983 -101.95205 -23.819823
-19.122369 -97.901268 -28.436143
-20.166328 -97.770214 -27.313182
-19.610101 -96.837978 -28.415625
-6.214082 -90.320461 -38.399299
-7.561488 -90.989429 -37.826836
-7.004892 -89.476975 -38.445045
2.033352 -83.797852 -41.351883
2.914265 -84.367275 -41.106373
1.34113 -85.60693 -40.722664
-0.418009 -84.359863 -41.096718
-1.116483 -86.056816 -40.521633
-1.994708 -85.379173 -40.650177
1.134898 -83.298599 -41.52836
-0.418009 -84.359863 -41.096718
2.033352 -83.797852 -41.351883
1.134898 -83.298599 -41.52836
3 0 37 35
3 0 39 37
3 142 42 143
3 2 45 43
3 2 47 45
3 1 50 48
3 3 53 51
3 3 55 53
3 3 57 55
3 4 60 58
3 4 62 60
3 5 65 63
3 5 67 65
3 144 68 145
3 6 71 69
3 6 73 71
3 6 75 73
3 146 77 147
3 149 148 77
3 150 79 151
3 8 152 154
3 152 80 153
3 152 153 154
3 8 81 80
3 9 84 82
3 11 85 36
3 11 86 85
3 11 88 86
3 13 89 38
3 13 90 89
3 15 155 157
3 155 91 156
3 155 156 157
3 15 92 91
3 16 95 93
3 158 96 159
3 160 159 40
3 158 159 160
3 161 97 162
3 163 162 96
3 161 162 163
3 165 164 97
3 166 101 167
3 168 167 99
3 166 167 168
3 19 102 41
3 19 103 102
3 7 104 78
3 20 105 44
3 20 106 105
3 20 107 106
3 21 108 46
3 21 109 108
3 18 110 100
3 22 111 49
3 22 112 111
3 10 113 83
3 23 114 52
3 23 115 114
3 23 116 115
3 24 169 171
3 171 170 54
3 169 170 171
3 24 172 173
3 24 174 175
3 25 176 178
3 178 177 56
3 176 177 178
3 25 179 180
3 12 117 87
3 26 118 59
3 26 181 183
3 183 182 118
3 181 182 183
3 26 184 185
3 187 186 61
3 27 188 190
3 188 119 189
3 188 189 190
3 27 120 119
3 14 191 193
3 191 121 192
3 191 192 193
3 28 122 64
3 28 123 122
3 28 124 123
3 29 125 66
3 29 126 125
3 30 194 196
3 194 127 195
3 194 195 196
3 30 128 127
3 17 129 94
3 31 130 70
3 31 131 130
3 31 132 131
3 32 133 72
3 32 134 133
3 32 135 134
3 33 136 74
3 33 137 136
3 197 138 198
3 199 198 98
3 197 198 199
3 34 139 76
3 34 140 139
3 34 141 140
3 200 8 201
3 35 36 9
3 37 36 35
3 37 11 36
3 37 38 11
3 39 38 37
3 39 13 38
3 202 15 203
3 204 40 205
3 206 205 16
3 204 205 206
3 207 40 208
3 210 209 40
3 211 41 212
3 42 213 215
3 213 41 214
3 213 214 215
3 42 19 41
3 43 44 7
3 45 44 43
3 45 20 44
3 45 46 20
3 47 46 45
3 47 21 46
3 48 49 18
3 50 49 48
3 50 22 49
3 51 52 10
3 53 52 51
3 53 23 52
3 53 54 23
3 55 54 53
3 55 24 54
3 55 56 24
3 57 56 55
3 57 25 56
3 58 59 12
3 60 59 58
3 60 26 59
3 60 61 26
3 62 61 60
3 62 216 218
3 218 217 61
3 216 217 218
3 219 27 220
3 63 64 14
3 65 64 63
3 65 28 64
3 65 66 28
3 67 66 65
3 67 29 66
3 68 221 222
3 68 223 225
3 223 30 224
3 223 224 225
3 69 70 17
3 71 70 69
3 71 31 70
3 71 72 31
3 73 72 71
3 73 32 72
3 73 74 32
3 75 74 73
3 75 33 74
3 226 76 227
3 77 228 230
3 228 76 229
3 228 229 230
3 77 34 76
3 77 231 233
3 233 232 34
3 231 232 233
3 235 234 77
3 236 78 237
3 79 238 240
3 238 78 239
3 238 239 240
3 79 7 78
3 241 79 242
3 80 243 245
3 243 79 244
3 243 244 245
3 80 7 79
3 80 43 7
3 81 43 80
3 81 2 43
3 82 83 1
3 84 83 82
3 84 10 83
3 36 84 9
3 85 84 36
3 85 10 84
3 85 51 10
3 86 51 85
3 86 3 51
3 86 87 3
3 88 87 86
3 88 12 87
3 38 88 11
3 89 88 38
3 89 12 88
3 89 58 12
3 90 58 89
3 90 4 58
3 246 14 247
3 91 248 250
3 248 249 250
3 91 251 253
3 251 14 252
3 251 252 253
3 91 63 14
3 92 63 91
3 92 5 63
3 93 254 256
3 254 94 255
3 254 255 256
3 95 94 93
3 95 17 94
3 40 95 16
3 96 95 40
3 96 17 95
3 96 69 17
3 97 69 96
3 97 6 69
3 97 98 6
3 257 98 258
3 259 258 97
3 257 258 259
3 261 260 98
3 99 262 264
3 262 100 263
3 262 263 264
3 101 100 99
3 101 18 100
3 41 265 267
3 265 101 266
3 265 266 267
3 102 101 41
3 102 18 101
3 102 48 18
3 103 48 102
3 103 1 48
3 78 268 270
3 268 42 269
3 268 269 270
3 104 42 78
3 104 19 42
3 44 104 7
3 105 104 44
3 105 19 104
3 105 103 19
3 106 103 105
3 106 1 103
3 106 82 1
3 107 82 106
3 107 9 82
3 46 107 20
3 108 107 46
3 108 9 107
3 108 35 9
3 109 35 108
3 109 0 35
3 271 93 272
3 273 93 274
3 275 16 276
3 277 276 93
3 275 276 277
3 278 16 279
3 281 280 16
3 100 282 283
3 110 284 286
3 286 285 100
3 284 285 286
3 110 287 288
3 49 110 18
3 111 110 49
3 111 289 291
3 291 290 110
3 289 290 291
3 111 292 293
3 112 294 296
3 296 295 111
3 294 295 296
3 112 297 298
3 83 50 1
3 113 50 83
3 113 22 50
3 52 113 10
3 114 113 52
3 114 22 113
3 114 112 22
3 115 112 114
3 115 299 301
3 301 300 112
3 299 300 301
3 115 302 303
3 116 304 306
3 306 305 115
3 304 305 306
3 116 307 308
3 54 116 23
3 309 116 310
3 311 310 54
3 309 310 311
3 313 312 116
3 56 314 316
3 316 315 24
3 314 315 316
3 318 317 56
3 87 57 3
3 117 57 87
3 117 25 57
3 59 117 12
3 118 117 59
3 118 25 117
3 118 319 321
3 321 320 25
3 319 320 321
3 323 322 118
3 61 324 326
3 326 325 26
3 324 325 326
3 328 327 61
3 329 99 330
3 331 99 332
3 334 333 99
3 335 8 336
3 119 337 338
3 119 339 341
3 339 8 340
3 339 340 341
3 119 81 8
3 120 81 119
3 120 2 81
3 121 342 343
3 121 344 346
3 344 27 345
3 344 345 346
3 64 121 14
3 122 121 64
3 122 27 121
3 122 120 27
3 123 120 122
3 123 2 120
3 123 47 2
3 124 47 123
3 124 21 47
3 66 124 28
3 125 124 66
3 125 21 124
3 125 109 21
3 126 109 125
3 126 0 109
3 347 15 348
3 127 349 350
3 127 351 353
3 351 15 352
3 351 352 353
3 127 92 15
3 128 92 127
3 128 5 92
3 94 354 356
3 354 68 355
3 354 355 356
3 129 68 94
3 129 30 68
3 70 129 17
3 130 129 70
3 130 30 129
3 130 128 30
3 131 128 130
3 131 5 128
3 131 67 5
3 132 67 131
3 132 29 67
3 72 132 31
3 133 132 72
3 133 29 132
3 133 126 29
3 134 126 133
3 134 0 126
3 134 39 0
3 135 39 134
3 135 13 39
3 74 135 32
3 136 135 74
3 136 13 135
3 136 90 13
3 137 90 136
3 137 4 90
3 98 75 6
3 138 75 98
3 138 33 75
3 76 357 359
3 357 138 358
3 357 358 359
3 139 138 76
3 139 33 138
3 139 137 33
3 140 137 139
3 140 4 137
3 140 62 4
3 141 62 140
3 141 360 362
3 362 361 62
3 360 361 362
3 363 141 364
3 365 364 34
3 363 364 365
3 366 141 367
3 369 368 141
