ply
format ascii 1.0
element vertex 713
property float x
property float y
property float z
element face 848
property list uchar int vertex_index
end_header
-5.838037 2.50201 57.6474
-20.135435 -14.550175 45.74337
-13.444104 -5.583815 53.716228
-6.936424 -21.424625 58.772488
-11.346878 6.223547 52.507805
-9.441671 -1.623627 56.104919
-15.77923 2.084874 49.641827
-5.975513 -8.720084 60.081825
0.254718 3.655817 61.344994
-22.202553 -20.127756 40.789192
-26.232994 -11.452222 39.16222
-13.965147 -18.084496 52.286285
-10.345112 -26.697042 52.281174
-16.290815 -23.332975 46.117466
-17.074604 -9.923631 50.445908
-23.304344 -6.056851 43.01664
-19.728189 -1.793596 46.5956
-10.279991 -13.33072 57.117859
-29.328829 -2.925539 35.483978
-8.266015 4.103002 55.479713
-8.602467 8.073249 54.21146
-5.767719 5.685984 56.865608
-7.387609 0.579945 57.044212
-10.53962 2.151714 54.241386
-4.275943 -0.250204 59.38644
-5.938326 -2.781484 58.900234
-3.323261 2.911839 59.229702
-0.740451 -0.224782 61.660587
-2.554592 6.901025 58.723709
-21.321077 -17.174797 43.16819
-24.277246 -15.778561 40.29792
-23.183386 -12.931174 42.41951
-17.120953 -16.25602 49.022991
-15.209303 -20.562616 49.456921
-18.237984 -19.014357 46.207684
-19.122652 -21.825588 43.383888
-15.32816 -7.635264 52.20636
-18.472258 -5.743446 48.670406
-16.645546 -3.842841 50.318901
-9.762907 -7.400892 57.115112
-8.182179 -11.029363 58.768543
-11.818105 -9.552151 55.685341
-13.818842 -11.541497 53.866314
-24.591703 -2.16434 41.001171
-26.350458 -4.527247 39.222931
-5.287304 -25.640427 58.962349
-11.323769 -3.57171 55.115421
-14.752297 -1.705901 51.677036
-12.669014 0.138696 53.031136
-13.609387 4.104956 51.099285
-7.866665 -5.064725 58.086605
3.923061 4.554486 63.356506
3.094956 0.076779 63.934528
0.975239 8.256295 60.626999
-29.404795 -10.144478 35.805279
-10.469744 -19.864166 55.663662
-8.733837 -24.05666 55.865208
-12.107523 -22.344778 52.59251
-13.302304 -24.991497 49.227772
-18.75754 -12.080532 48.184189
-21.93428 -10.285766 44.512207
-20.184536 -8.030369 46.84584
-21.572147 -3.962539 44.887562
-17.736687 0.138093 48.252892
-6.380361 -14.853403 60.241791
-8.608837 -17.311333 58.185379
-12.207928 -15.780277 54.97765
-15.574081 -13.885017 51.661964
-24.939297 -8.575743 40.991421
-27.827583 -7.241013 37.620865
-31.01263 -5.87365 33.872551
-7.174735 -28.511959 55.426567
-6.938295 3.075036 56.722225
-7.101721 4.902055 56.125687
-5.806425 3.801071 57.33168
-6.586735 1.690947 57.328369
-7.962158 2.296625 56.180046
-5.1836 1.342727 58.383999
-5.896595 0.093263 58.210739
-4.752639 2.663644 58.343388
-3.697367 1.313473 59.381336
-4.451951 4.28799 58.128708
-20.723177 -15.876521 44.47974
-22.292967 -15.084857 42.830448
-21.639502 -13.81601 44.072639
-18.649834 -15.493184 47.327736
-17.766644 -17.59016 47.58717
-19.289145 -16.729658 45.971844
-19.716906 -18.143435 44.723309
-14.325812 -6.734282 53.080093
-16.005411 -5.740169 51.287971
-15.091003 -4.616881 52.005634
-11.630713 -6.550906 55.46246
-10.886035 -8.411018 56.358734
-12.593658 -7.5484 54.783222
-13.536139 -8.693867 54.050419
-5.070773 -22.163057 60.299648
-4.219498 -24.296053 60.473698
-6.026599 -23.511532 58.991081
-12.744125 7.188514 51.069221
-12.912009 9.390967 50.377159
-11.514824 8.287932 51.850773
-7.049572 8.979533 55.123993
-10.405881 -2.540227 55.596947
-12.010093 -1.790518 54.109943
-11.135343 -0.755233 54.55159
-10.95718 4.158526 53.362934
-12.069392 3.037102 52.737122
-12.547916 5.135573 51.764603
-13.920815 6.247594 50.250744
-7.760962 -2.276171 57.507877
-6.930441 -3.948346 58.497837
-8.701756 -3.34232 57.087959
-9.624403 -4.352509 56.632038
2.064818 4.08306 62.356388
3.60789 2.254243 63.72702
1.727927 1.908107 62.682312
-1.179806 5.27847 60.028885
-0.79709 7.535042 59.700031
0.696107 5.89219 61.061054
2.51081 6.44856 62.034359
-25.307858 -13.50093 39.803886
-25.816967 -15.099557 38.868618
-26.839905 -12.968901 38.251904
-28.496601 -12.348016 36.606567
-27.823874 -10.783379 37.480274
-12.24739 -18.970848 53.989895
-11.297018 -21.073975 54.234142
-12.923844 -20.294035 52.609669
-15.750808 -22.055126 47.762581
-14.285034 -22.830765 49.321819
-14.812931 -24.281017 47.541996
-13.744876 -26.444229 47.478714
-20.612961 -21.104475 42.03624
-17.99966 -10.857734 49.30534
-19.608368 -10.109841 47.434814
-18.710043 -8.86497 48.588909
-19.10976 -3.848452 47.688995
-19.978714 -4.911425 46.868382
-20.642876 -2.869097 45.781349
-22.087601 -1.938328 43.926159
-21.233364 -0.735934 44.646893
-15.28154 0.109823 50.686665
-16.305601 -0.955155 49.995094
-16.738691 1.10573 48.987228
-9.206841 -12.264906 58.029545
-7.306658 -12.920019 59.532433
-8.319482 -14.156042 58.74173
-7.414637 -16.145144 59.358921
-9.389677 -15.330118 57.757591
-10.492409 -16.529173 56.557407
-11.298416 -14.481406 56.098488
-15.46633 -10.773527 52.182983
-14.723811 -12.738173 52.822937
-16.432583 -11.908026 51.018505
-17.211483 -13.021854 49.894863
-22.620766 -8.189086 43.858841
-23.415688 -9.500823 42.768276
-24.129532 -7.325039 42.024906
-27.797604 -3.743091 37.413353
-27.20137 -5.781036 38.307129
-28.685287 -5.101746 36.512836
-29.496031 -6.492712 35.671638
-30.176403 -4.372593 34.68779
-33.279236 -3.502276 30.823378
-9.571186 -25.428659 54.118462
-7.899416 -26.230593 55.770378
-8.702581 -27.650364 53.925907
-9.733996 5.170419 54.079327
-10.066601 7.165518 53.310478
-8.5078 6.080489 54.786671
-7.150337 6.882707 55.580757
-5.643045 7.590667 56.465744
-8.327848 -0.560074 56.658848
-10.002749 0.223299 55.186272
-8.958783 1.333968 55.690868
-9.407681 3.17032 54.857788
-3.305017 -1.750502 60.389381
-4.042875 -3.170764 60.251251
-5.05319 -1.55775 59.19416
-6.718472 -1.162092 57.96088
-1.591485 3.25322 60.271343
-0.250426 1.647125 61.519768
-2.075865 1.489516 60.394497
-2.542989 -0.26369 60.52042
-4.047033 8.555052 57.311462
-4.19167 6.265763 57.795666
-2.890023 4.699867 59.062664
-21.667383 -18.790911 42.005905
-23.247459 -18.086048 40.570915
-22.74757 -16.66605 41.688366
-23.79237 -14.274823 41.31324
-24.733992 -12.086556 40.767204
-15.563124 -17.178427 50.656006
-14.594712 -19.294655 50.958172
-16.229616 -18.452713 49.21793
-16.737518 -19.858608 47.767452
-17.200535 -21.286844 46.246162
-17.718899 -22.635286 44.655876
-18.708984 -20.397583 44.777847
-20.263969 -19.511007 43.309635
-16.198978 -8.767027 51.388569
-17.85651 -7.806304 49.537407
-16.996922 -6.727878 50.384911
-17.63125 -4.712039 49.441284
-18.20281 -2.777744 48.477234
-16.218414 4.120798 48.631912
-17.212681 3.177841 47.905334
-7.871964 -8.063481 58.645023
-7.026975 -9.891636 59.506657
-8.964153 -9.139044 57.982838
-9.976187 -10.288774 57.300949
-11.037487 -11.319578 56.466217
-12.117716 -12.490448 55.484058
-12.820098 -10.621434 54.838493
-14.546019 -9.623602 53.131271
-23.990551 -4.035083 42.011433
-24.735605 -5.293153 41.230644
-25.494242 -3.275497 40.09745
-26.902946 -2.400342 38.275745
-28.397739 -1.689829 36.37101
-4.4732 -27.857178 58.931114
-10.821611 -28.204393 50.520363
-9.373002 -28.86763 52.180023
-10.139576 9.268133 52.727638
-12.357462 -4.62617 54.486282
-14.064338 -3.649436 52.774223
-13.070747 -2.670513 53.43079
-13.638837 -0.7873 52.441849
-14.305622 1.174721 51.288788
-11.615325 1.140019 53.640759
-13.181273 2.082622 52.040447
-14.749125 3.05037 50.34375
-15.022858 5.089121 49.525837
-4.921658 -7.667364 60.61483
-4.982302 -4.478613 59.93692
-5.926497 -5.809462 59.590603
-7.012122 -6.911443 59.06052
-8.805903 -6.194323 57.630947
-10.582122 -5.531173 56.133087
5.873321 5.083057 64.369102
7.529129 3.188434 65.754799
5.593263 2.734803 64.769218
4.977787 0.409201 64.953499
1.157142 -0.072716 62.804546
-2.354978 9.248882 58.254688
4.467557 7.000303 63.067081
-24.792809 -17.236115 39.286476
-8.795353 -20.541851 57.200836
-7.874757 -22.612558 57.429996
-9.58779 -22.024218 55.80006
-10.499523 -23.123049 54.212601
-11.226239 -24.460234 52.51627
-13.630942 -21.482342 51.064339
-12.711273 -23.704336 50.960056
-11.795013 -25.95582 50.727642
-12.300597 -27.239498 49.028801
-19.551849 -13.194049 46.9161
-21.074545 -12.422565 45.176945
-20.415407 -11.163968 46.277882
-21.111113 -9.067391 45.674351
-21.775188 -7.021937 44.913425
-19.44536 -6.798332 47.673561
-20.954952 -5.927223 45.839794
-22.486408 -4.94255 43.92194
-23.111065 -2.897388 42.898781
-15.615915 -2.798885 51.125626
-17.272726 -1.824614 49.241806
-18.785587 -0.732902 47.37748
-18.234335 2.128755 47.161575
-19.265511 1.121618 46.355354
-20.238674 0.13413 45.554272
-3.771062 -21.0903 61.640579
-5.731765 -20.202387 60.174934
-6.69507 -18.20665 59.711975
-7.64158 -19.407505 58.645039
-9.562235 -18.559786 57.00861
-11.3589 -17.827854 55.359386
-13.08808 -16.858231 53.74276
-13.032259 -13.651428 54.489845
-13.906028 -14.769119 53.368004
-14.679273 -15.974896 52.166367
-16.379278 -15.103593 50.367199
-18.05205 -14.15883 48.552189
-22.486895 -11.735385 43.560268
-24.071335 -10.825632 41.78598
-25.620697 -9.99872 40.056946
-25.617426 -6.473927 40.217026
-26.385202 -7.906486 39.298328
-27.181 -9.335608 38.31152
-28.656925 -8.542049 36.670902
-30.205196 -7.985024 34.927872
-31.759548 -7.54753 33.145397
-30.860443 -2.400672 33.571327
-31.730082 -3.861214 32.774586
-32.48085 -5.420044 32.091526
-7.023277 -24.825504 57.450401
-6.221461 -27.125782 57.310547
-5.467034 -29.180241 57.194839
-7.886205 -29.937111 53.59235
-6.352774 -30.727829 55.221138
-4.833075 -31.513369 56.778748
-7.025659 10.182977 54.837895
-6.318395 9.424931 55.526415
-22.959903 -19.870468 40.137481
-22.359425 -20.974106 40.248846
-15.772702 -24.449831 46.032797
-15.03376 -24.923852 46.745062
-15.551873 -23.806996 46.829731
-16.464579 -24.055721 45.365105
-15.772702 -24.449831 46.032797
-21.604681 -21.315798 40.825306
-20.809885 -21.804157 41.44883
-21.407757 -20.616115 41.412716
-22.359425 -20.974106 40.248846
-21.604681 -21.315798 40.825306
-5.48324 -9.673118 60.540575
-4.981027 -9.046549 60.789457
-16.986121 4.703497 47.690576
-16.397146 5.108108 48.18396
-27.247982 -1.342642 37.654501
-26.488012 -1.793623 38.658348
-27.995379 -0.987385 36.702134
-27.650343 -2.045085 37.323377
-27.247982 -1.342642 37.654501
-4.355868 -26.026553 59.753418
-3.821966 -25.354367 60.509092
-4.753401 -24.96824 59.718024
-4.880252 -26.748803 58.946731
-3.948817 -27.134929 59.7378
-4.355868 -26.026553 59.753418
-10.363985 -29.306833 50.386183
-11.08247 -28.899735 49.587446
-12.982655 10.565846 50.027656
-12.254599 9.932507 50.809379
-14.775773 7.771136 49.061105
-14.659533 6.730195 49.430385
-14.037055 7.288535 49.881464
-4.434354 -6.983536 60.804994
-3.892849 -7.912228 61.318478
3.773398 -0.866712 64.538049
4.714813 -0.700501 65.047535
4.036371 0.24299 64.444013
0.196185 9.09804 59.919796
-0.689979 8.737414 59.456312
0.089075 7.895668 60.163515
1.091615 9.513119 60.367789
0.196185 9.09804 59.919796
1.87609 8.546584 61.102466
1.091615 9.513119 60.367789
-26.084459 -15.870249 38.406532
-26.589979 -14.778852 38.156513
-29.71985 -11.032473 35.431763
-29.265753 -12.134242 35.832407
-28.950698 -11.246247 36.205923
-30.142941 -9.938071 35.008541
-29.71985 -11.032473 35.431763
-13.271421 -27.534115 47.334369
-13.994121 -27.127819 46.581306
-18.579994 -22.946967 43.340998
-17.878118 -23.351816 43.976991
-18.420775 -22.230437 44.019882
-22.881607 -1.483814 42.895031
-22.387631 -0.964248 43.353243
-18.448735 3.14598 46.636723
-17.723508 2.653298 47.533455
-17.937908 3.670523 47.008602
-19.984092 1.647422 45.410692
-19.497327 2.129094 45.80961
-20.470674 1.153678 45.010151
-19.752092 0.627874 45.954813
-19.984092 1.647422 45.410692
-20.975268 0.635257 44.58349
-20.470674 1.153678 45.010151
-4.189594 -19.976284 61.475834
-3.187385 -20.368956 62.185761
-5.169946 -19.532327 60.743012
-4.751413 -20.646344 60.907757
-4.189594 -19.976284 61.475834
-7.181949 -11.424583 59.53188
-6.604347 -10.855719 59.900937
-7.604577 -10.4605 59.1376
-5.813059 -14.309932 60.650925
-6.276208 -13.343239 60.296246
-6.843509 -13.886711 59.887112
-5.360815 -15.225833 60.97855
-5.813059 -14.309932 60.650925
-5.915353 -15.852603 60.547546
-5.360815 -15.225833 60.97855
8.282576 2.185937 66.38543
7.287308 1.93069 65.905243
-31.622566 -2.120256 32.590292
-31.164384 -1.394577 32.991611
-32.057386 -2.850528 32.191921
-31.295262 -3.130943 33.172956
-31.622566 -2.120256 32.590292
-33.238582 -5.283238 31.141592
-32.880043 -4.46116 31.457452
-33.637776 -4.324354 30.507518
-32.822626 -6.361471 31.788649
-33.238582 -5.283238 31.141592
-8.207211 -30.611203 52.656832
-8.629603 -29.40237 52.886187
-8.950609 -30.076462 51.950668
-5.987229 -31.900008 55.023598
-6.714489 -31.472458 54.239569
-5.22738 -32.292777 55.802402
-5.592925 -31.120599 55.999943
-5.987229 -31.900008 55.023598
-4.479756 -32.67129 56.615782
-5.22738 -32.292777 55.802402
-25.33239 -1.675622 40.021061
-24.874865 -1.148262 40.451
-4.645136 -23.229555 60.386673
-3.663594 -23.71735 61.12109
-4.089231 -22.650852 61.034065
-12.828067 8.289741 50.72319
-13.532652 8.860221 49.944671
-13.44871 7.758995 50.290702
-11.556006 9.38099 51.546186
-12.254599 9.932507 50.809379
-12.213417 8.83945 51.113966
-7.82111 9.638216 54.392931
-8.597558 9.185074 53.936665
-7.82602 8.526391 54.667727
-7.82111 9.638216 54.392931
-7.025659 10.182977 54.837895
-13.44871 7.758995 50.290702
-14.037055 7.288535 49.881464
-13.33247 6.718054 50.659982
-0.113173 -1.117162 62.257694
-1.055194 -1.130624 61.675854
-27.101448 -13.713525 37.848156
-26.589979 -14.778852 38.156513
-26.328436 -14.034229 38.560261
-27.668253 -12.658459 37.429236
-27.929796 -13.403082 37.025487
-27.101448 -13.713525 37.848156
-14.499732 -26.005458 46.713421
-14.278904 -25.362623 47.510355
-15.03376 -24.923852 46.745062
-13.994121 -27.127819 46.581306
-14.499732 -26.005458 46.713421
-20.036444 -22.236677 42.045027
-19.291289 -22.597234 42.718851
-19.867807 -21.465032 42.710064
-20.036444 -22.236677 42.045027
-20.809885 -21.804157 41.44883
-21.960512 -0.36305 43.71361
-22.387631 -0.964248 43.353243
-21.660483 -1.337131 44.286526
-33.555561 -2.472645 30.260348
-32.831963 -2.671059 31.216318
-33.985233 -3.286684 29.873018
-33.555561 -2.472645 30.260348
-33.637776 -4.324354 30.507518
-33.985233 -3.286684 29.873018
-5.615132 8.730498 56.197291
-6.318395 9.424931 55.526415
-6.346309 8.2851 55.794868
-3.673946 -2.460633 60.320316
-3.146812 -3.32787 60.861435
-2.777883 -2.617738 60.9305
-1.956463 -1.150079 61.10577
-1.055194 -1.130624 61.675854
-1.64172 -0.244236 61.090503
-2.337477 -1.893485 61.04025
-1.956463 -1.150079 61.10577
-2.924003 -1.007096 60.454901
-2.777883 -2.617738 60.9305
-2.337477 -1.893485 61.04025
-4.845039 8.072859 56.888603
-4.817125 9.212691 56.620149
-5.615132 8.730498 56.197291
-17.483255 4.232019 47.327287
-16.715547 3.649319 48.268623
-16.986121 4.703497 47.690576
-17.937908 3.670523 47.008602
-17.483255 4.232019 47.327287
-25.78366 -2.2312 39.569201
-25.042972 -2.719919 40.549311
-25.33239 -1.675622 40.021061
-26.198594 -2.837919 39.186598
-25.78366 -2.2312 39.569201
-26.488012 -1.793623 38.658348
-3.270548 -24.761788 61.197464
-3.663594 -23.71735 61.12109
-3.270548 -24.761788 61.197464
-3.821966 -25.354367 60.509092
-3.63277 -28.256799 59.651136
-3.948817 -27.134929 59.7378
-4.130951 -29.068025 58.785145
-3.63277 -28.256799 59.651136
-9.639681 -29.638451 51.216013
-10.097307 -28.536012 51.350193
-10.363985 -29.306833 50.386183
-8.950609 -30.076462 51.950668
-9.639681 -29.638451 51.216013
-13.665402 10.059821 49.528759
-13.532652 8.860221 49.944671
-13.665402 10.059821 49.528759
-12.982655 10.565846 50.027656
-10.868382 9.87109 51.984619
-11.556006 9.38099 51.546186
-10.8272 8.778033 52.289205
-9.366112 9.782516 53.194754
-9.371022 8.670691 53.469549
-8.597558 9.185074 53.936665
-10.146421 10.497909 52.415582
-9.366112 9.782516 53.194754
-10.868382 9.87109 51.984619
-10.146421 10.497909 52.415582
-15.799368 5.592269 48.630922
-16.397146 5.108108 48.18396
-15.620636 4.604959 49.078874
-15.210555 6.150958 49.067932
-14.471836 5.668357 49.88829
-14.659533 6.730195 49.430385
-15.799368 5.592269 48.630922
-15.210555 6.150958 49.067932
-4.4541 -8.520188 61.05596
-3.892849 -7.912228 61.318478
-5.448586 -8.193724 60.348327
-4.981027 -9.046549 60.789457
-4.4541 -8.520188 61.05596
-3.507652 -4.064898 60.7967
-3.146812 -3.32787 60.861435
-3.977365 -4.718822 60.639534
-3.507652 -4.064898 60.7967
-4.512588 -3.824689 60.094086
-4.464676 -5.38916 60.46604
-3.977365 -4.718822 60.639534
-4.936773 -6.054584 60.292881
-4.464676 -5.38916 60.46604
-5.4544 -5.144037 59.763762
-5.424078 -6.738413 60.102716
-4.434354 -6.983536 60.804994
-4.936773 -6.054584 60.292881
6.701225 4.135746 65.06195
7.690395 4.421508 65.554467
6.862491 5.36882 64.861618
6.319375 1.703875 65.412453
7.287308 1.93069 65.905243
6.561196 2.961619 65.262009
6.011637 0.541074 65.504593
6.319375 1.703875 65.412453
5.285525 1.572002 64.861358
5.724182 -0.539376 65.579205
6.011637 0.541074 65.504593
5.724182 -0.539376 65.579205
4.714813 -0.700501 65.047535
0.835624 -1.041129 62.829673
0.208345 -0.148749 62.232567
-0.113173 -1.117162 62.257694
1.803907 -0.9807 63.399744
0.835624 -1.041129 62.829673
2.772814 -0.905953 63.964735
2.126049 0.002031 63.369537
1.803907 -0.9807 63.399744
3.773398 -0.866712 64.538049
2.772814 -0.905953 63.964735
-3.983607 9.729143 57.054271
-4.817125 9.212691 56.620149
-3.137579 10.076059 57.525885
-3.983607 9.729143 57.054271
-3.201005 8.901967 57.783075
-2.220423 10.42072 58.037397
-3.137579 10.076059 57.525885
-1.468923 9.594334 58.73364
-1.576034 8.391962 58.97736
-0.689979 8.737414 59.456312
-2.220423 10.42072 58.037397
-1.468923 9.594334 58.73364
2.643876 7.642717 61.806146
1.87609 8.546584 61.102466
1.743025 7.352427 61.330679
3.622249 7.918589 62.322508
2.643876 7.642717 61.806146
3.489184 6.724431 62.55072
4.579232 8.323671 62.789434
3.622249 7.918589 62.322508
5.41048 7.309042 63.541131
4.579232 8.323671 62.789434
6.113362 6.350419 64.192142
5.41048 7.309042 63.541131
5.170439 6.04168 63.718091
6.862491 5.36882 64.861618
6.113362 6.350419 64.192142
-23.482356 -18.849614 40.028343
-22.959903 -19.870468 40.137481
-22.725006 -19.106902 40.680053
-24.255031 -18.424647 39.386123
-23.482356 -18.849614 40.028343
-24.020134 -17.661082 39.928696
-25.021285 -18.068244 38.800818
-24.255031 -18.424647 39.386123
-25.572379 -16.938527 38.615461
-25.304888 -16.167836 39.077547
-26.084459 -15.870249 38.406532
-25.021285 -18.068244 38.800818
-25.572379 -16.938527 38.615461
-28.733567 -13.196207 36.268262
-27.929796 -13.403082 37.025487
-28.733567 -13.196207 36.268262
-29.265753 -12.134242 35.832407
-11.821962 -28.417287 48.841666
-11.08247 -28.899735 49.587446
-11.561104 -27.721946 49.774582
-12.549282 -27.93175 48.109413
-13.022737 -26.841864 48.253757
-13.271421 -27.534115 47.334369
-11.821962 -28.417287 48.841666
-12.549282 -27.93175 48.109413
-17.178621 -23.706876 44.63431
-16.464579 -24.055721 45.365105
-17.004857 -22.98413 45.386671
-17.178621 -23.706876 44.63431
-17.878118 -23.351816 43.976991
-18.579994 -22.946967 43.340998
-19.291289 -22.597234 42.718851
-23.393339 -1.963344 42.381342
-22.599333 -2.417858 43.41247
-22.881607 -1.483814 42.895031
-24.133658 -1.59682 41.432537
-23.851384 -2.530864 41.949976
-23.393339 -1.963344 42.381342
-24.874865 -1.148262 40.451
-24.133658 -1.59682 41.432537
-18.981739 2.632663 46.212721
-18.448735 3.14598 46.636723
-18.749923 1.625186 46.758465
-18.981739 2.632663 46.212721
-19.497327 2.129094 45.80961
-21.472613 0.200225 44.129801
-20.736019 -0.300902 45.100583
-20.975268 0.635257 44.58349
-21.960512 -0.36305 43.71361
-21.472613 0.200225 44.129801
-2.755041 -21.419812 62.376345
-3.187385 -20.368956 62.185761
-3.439376 -22.114473 61.704531
-2.755041 -21.419812 62.376345
-4.420917 -21.626678 60.970113
-4.089231 -22.650852 61.034065
-3.439376 -22.114473 61.704531
-6.008971 -10.258894 60.252991
-5.48324 -9.673118 60.540575
-6.501244 -9.30586 59.794241
-6.008971 -10.258894 60.252991
-6.604347 -10.855719 59.900937
-6.744188 -12.369911 59.913825
-7.181949 -11.424583 59.53188
-7.744419 -11.974691 59.150488
-6.744188 -12.369911 59.913825
-6.276208 -13.343239 60.296246
-6.432491 -16.498473 60.106111
-5.915353 -15.852603 60.547546
-6.897499 -15.499273 59.800356
-6.072707 -17.529227 60.282639
-6.432491 -16.498473 60.106111
-7.054854 -17.175897 59.535448
-5.651598 -18.534458 60.511532
-6.072707 -17.529227 60.282639
-6.213418 -19.204518 59.943455
-5.169946 -19.532327 60.743012
-5.651598 -18.534458 60.511532
8.524102 3.433787 66.237236
7.690395 4.421508 65.554467
8.524102 3.433787 66.237236
8.282576 2.185937 66.38543
-30.543141 -8.858344 34.569838
-30.142941 -9.938071 35.008541
-29.804996 -9.064751 35.366575
-31.320317 -8.639598 33.6786
-30.543141 -8.858344 34.569838
-30.982372 -7.766277 34.036635
-32.0559 -8.448711 32.862677
-31.320317 -8.639598 33.6786
-28.746538 -0.685965 35.735805
-27.995379 -0.987385 36.702134
-29.198476 -1.347877 35.348232
-28.746538 -0.685965 35.735805
-29.664021 -1.965732 34.904716
-28.863284 -2.307684 35.927494
-29.198476 -1.347877 35.348232
-30.429828 -1.703299 33.948391
-31.164384 -1.394577 32.991611
-30.094636 -2.663106 34.527653
-29.664021 -1.965732 34.904716
-30.429828 -1.703299 33.948391
-32.504659 -3.681745 31.798982
-32.057386 -2.850528 32.191921
-32.831963 -2.671059 31.216318
-32.461975 -7.425214 32.315584
-32.120199 -6.483787 32.618462
-32.822626 -6.361471 31.788649
-32.0559 -8.448711 32.862677
-32.461975 -7.425214 32.315584
-4.627868 -29.729557 57.917007
-4.130951 -29.068025 58.785145
-4.970117 -28.518709 58.062977
-7.481205 -31.077099 53.425174
-8.207211 -30.611203 52.656832
-7.11949 -30.33247 54.406744
-7.481205 -31.077099 53.425174
-6.714489 -31.472458 54.239569
-4.310888 -30.896121 57.708962
-4.627868 -29.729557 57.917007
-5.150054 -30.346805 56.986794
-3.962728 -31.986412 57.615357
-4.310888 -30.896121 57.708962
-3.962728 -31.986412 57.615357
-4.479756 -32.67129 56.615782
3 0 74 72
3 0 72 75
3 0 75 77
3 0 77 79
3 0 79 74
3 1 84 82
3 1 87 85
3 1 82 87
3 2 91 89
3 2 94 92
3 2 89 94
3 3 98 96
3 4 101 99
3 303 302 102
3 5 105 103
3 4 108 106
3 4 99 108
3 5 112 110
3 5 103 112
3 8 116 114
3 8 119 117
3 8 114 119
3 9 304 305
3 10 123 121
3 10 125 123
3 11 128 126
3 13 131 129
3 13 306 308
3 308 307 131
3 306 307 308
3 13 309 310
3 9 311 313
3 313 312 133
3 311 312 313
3 9 314 315
3 14 136 134
3 16 139 137
3 16 141 139
3 6 144 142
3 7 316 317
3 17 147 145
3 17 149 147
3 17 151 149
3 14 154 152
3 14 134 154
3 15 158 156
3 18 161 159
3 18 163 161
3 12 167 165
3 19 170 168
3 21 171 73
3 21 172 171
3 22 175 173
3 19 176 76
3 19 168 176
3 24 179 177
3 22 180 78
3 22 173 180
3 26 183 181
3 24 184 80
3 24 177 184
3 21 186 172
3 26 187 81
3 26 181 187
3 29 190 188
3 31 191 83
3 31 192 191
3 32 195 193
3 34 196 86
3 34 197 196
3 34 199 197
3 29 200 88
3 29 188 200
3 36 203 201
3 38 204 90
3 38 205 204
3 319 318 206
3 39 210 208
3 41 211 93
3 41 212 211
3 41 214 212
3 36 215 95
3 36 201 215
3 43 218 216
3 320 219 321
3 322 220 323
3 324 323 219
3 322 323 324
3 45 325 327
3 327 326 97
3 325 326 327
3 45 328 330
3 328 221 329
3 328 329 330
3 332 331 222
3 334 333 100
3 20 224 169
3 46 227 225
3 48 228 104
3 48 229 228
3 23 230 174
3 49 231 107
3 49 232 231
3 49 233 232
3 337 336 109
3 335 336 337
3 338 234 339
3 25 235 178
3 50 236 111
3 50 237 236
3 50 238 237
3 46 239 113
3 46 225 239
3 51 242 240
3 52 243 115
3 52 340 342
3 342 341 243
3 340 341 342
3 27 244 182
3 28 245 185
3 53 343 345
3 345 344 118
3 343 344 345
3 53 346 347
3 53 348 349
3 51 246 120
3 51 240 246
3 30 247 189
3 351 350 122
3 54 352 354
3 354 353 124
3 352 353 354
3 54 355 356
3 55 250 248
3 57 251 127
3 57 252 251
3 33 253 194
3 58 254 130
3 58 255 254
3 58 256 255
3 358 357 132
3 35 359 361
3 361 360 198
3 359 360 361
3 59 259 257
3 61 260 135
3 61 261 260
3 37 262 202
3 62 263 138
3 62 264 263
3 62 265 264
3 363 362 140
3 47 266 226
3 63 267 143
3 63 268 267
3 364 269 365
3 366 365 207
3 364 365 366
3 367 270 368
3 369 271 370
3 371 370 270
3 369 370 371
3 373 372 271
3 374 272 375
3 376 273 377
3 378 377 272
3 376 377 378
3 40 379 381
3 381 380 209
3 379 380 381
3 64 382 384
3 384 383 146
3 382 383 384
3 64 385 386
3 64 387 388
3 65 274 148
3 65 275 274
3 65 276 275
3 66 277 150
3 66 278 277
3 42 279 213
3 67 280 153
3 67 281 280
3 67 282 281
3 59 283 155
3 59 257 283
3 390 389 241
3 60 284 258
3 68 285 157
3 68 286 285
3 44 287 217
3 69 288 160
3 69 289 288
3 69 290 289
3 70 291 162
3 70 292 291
3 391 293 392
3 393 294 394
3 395 394 293
3 393 394 395
3 396 295 397
3 398 397 164
3 396 397 398
3 400 399 295
3 56 296 249
3 71 297 166
3 71 298 297
3 401 299 402
3 403 402 223
3 401 402 403
3 404 300 405
3 406 301 407
3 408 407 300
3 406 407 408
3 410 409 301
3 72 73 19
3 74 73 72
3 74 21 73
3 75 76 22
3 72 76 75
3 72 19 76
3 77 78 24
3 75 78 77
3 75 22 78
3 79 80 26
3 77 80 79
3 77 24 80
3 74 81 21
3 79 81 74
3 79 26 81
3 82 83 29
3 84 83 82
3 84 31 83
3 85 86 32
3 87 86 85
3 87 34 86
3 87 88 34
3 82 88 87
3 82 29 88
3 89 90 36
3 91 90 89
3 91 38 90
3 92 93 39
3 94 93 92
3 94 41 93
3 94 95 41
3 89 95 94
3 89 36 95
3 412 411 43
3 96 413 415
3 413 97 414
3 413 414 415
3 98 97 96
3 98 45 97
3 99 416 418
3 416 100 417
3 416 417 418
3 101 100 99
3 101 419 421
3 421 420 100
3 419 420 421
3 102 422 424
3 424 423 20
3 422 423 424
3 426 425 102
3 103 104 46
3 105 104 103
3 105 48 104
3 106 107 23
3 108 107 106
3 108 49 107
3 108 109 49
3 99 109 108
3 99 427 429
3 429 428 109
3 427 428 429
3 110 111 25
3 112 111 110
3 112 50 111
3 112 113 50
3 103 113 112
3 103 46 113
3 114 115 51
3 116 115 114
3 116 52 115
3 431 430 27
3 117 118 28
3 119 118 117
3 119 53 118
3 119 120 53
3 114 120 119
3 114 51 120
3 121 122 30
3 123 122 121
3 123 432 434
3 434 433 122
3 432 433 434
3 123 435 437
3 435 124 436
3 435 436 437
3 125 124 123
3 125 54 124
3 126 127 55
3 128 127 126
3 128 57 127
3 129 130 33
3 131 130 129
3 131 58 130
3 131 132 58
3 438 132 439
3 440 439 131
3 438 439 440
3 442 441 132
3 133 443 445
3 445 444 35
3 443 444 445
3 447 446 133
3 134 135 59
3 136 135 134
3 136 61 135
3 137 138 37
3 139 138 137
3 139 62 138
3 139 140 62
3 141 140 139
3 141 448 450
3 450 449 140
3 448 449 450
3 142 143 47
3 144 143 142
3 144 63 143
3 145 146 40
3 147 146 145
3 147 64 146
3 147 148 64
3 149 148 147
3 149 65 148
3 149 150 65
3 151 150 149
3 151 66 150
3 152 153 42
3 154 153 152
3 154 67 153
3 154 155 67
3 134 155 154
3 134 59 155
3 156 157 60
3 158 157 156
3 158 68 157
3 159 160 44
3 161 160 159
3 161 69 160
3 161 162 69
3 163 162 161
3 163 70 162
3 451 164 452
3 453 164 454
3 456 455 164
3 165 166 56
3 167 166 165
3 167 71 166
3 168 169 4
3 170 169 168
3 170 20 169
3 73 170 19
3 171 170 73
3 171 20 170
3 171 102 20
3 172 102 171
3 172 457 459
3 459 458 102
3 457 458 459
3 173 174 5
3 175 174 173
3 175 23 174
3 76 175 22
3 176 175 76
3 176 23 175
3 176 106 23
3 168 106 176
3 168 4 106
3 177 460 462
3 460 178 461
3 460 461 462
3 179 178 177
3 179 25 178
3 78 179 24
3 180 179 78
3 180 25 179
3 180 110 25
3 173 110 180
3 173 5 110
3 181 182 8
3 183 182 181
3 183 27 182
3 80 183 26
3 184 183 80
3 184 27 183
3 184 463 465
3 465 464 27
3 463 464 465
3 177 466 468
3 468 467 184
3 466 467 468
3 177 469 470
3 172 471 473
3 471 185 472
3 471 472 473
3 186 185 172
3 186 28 185
3 81 186 21
3 187 186 81
3 187 28 186
3 187 117 28
3 181 117 187
3 181 8 117
3 188 189 9
3 190 189 188
3 190 30 189
3 83 190 29
3 191 190 83
3 191 30 190
3 191 121 30
3 192 121 191
3 192 10 121
3 193 194 11
3 195 194 193
3 195 33 194
3 86 195 32
3 196 195 86
3 196 33 195
3 196 129 33
3 197 129 196
3 197 13 129
3 197 198 13
3 199 198 197
3 199 35 198
3 88 199 34
3 200 199 88
3 200 35 199
3 200 133 35
3 188 133 200
3 188 9 133
3 201 202 14
3 203 202 201
3 203 37 202
3 90 203 36
3 204 203 90
3 204 37 203
3 204 137 37
3 205 137 204
3 205 16 137
3 206 207 6
3 474 207 475
3 476 475 206
3 474 475 476
3 478 477 207
3 208 209 7
3 210 209 208
3 210 40 209
3 93 210 39
3 211 210 93
3 211 40 210
3 211 145 40
3 212 145 211
3 212 17 145
3 212 213 17
3 214 213 212
3 214 42 213
3 95 214 41
3 215 214 95
3 215 42 214
3 215 152 42
3 201 152 215
3 201 14 152
3 216 217 15
3 218 217 216
3 218 44 217
3 479 218 480
3 481 480 43
3 479 480 481
3 219 482 484
3 482 218 483
3 482 483 484
3 219 44 218
3 219 159 44
3 220 159 219
3 220 18 159
3 97 485 486
3 488 487 97
3 221 489 490
3 221 491 492
3 222 223 12
3 493 223 494
3 495 494 222
3 493 494 495
3 497 496 223
3 100 498 499
3 501 500 100
3 169 101 4
3 224 101 169
3 224 502 504
3 504 503 101
3 502 503 504
3 505 224 506
3 507 506 20
3 505 506 507
3 508 224 509
3 511 510 224
3 225 226 2
3 227 226 225
3 227 47 226
3 104 227 46
3 228 227 104
3 228 47 227
3 228 142 47
3 229 142 228
3 229 6 142
3 174 105 5
3 230 105 174
3 230 48 105
3 107 230 23
3 231 230 107
3 231 48 230
3 231 229 48
3 232 229 231
3 232 6 229
3 232 206 6
3 233 206 232
3 233 512 514
3 514 513 206
3 512 513 514
3 109 233 49
3 515 233 516
3 517 516 109
3 515 516 517
3 519 518 233
3 234 520 521
3 234 522 524
3 522 7 523
3 522 523 524
3 178 525 526
3 235 527 529
3 529 528 178
3 527 528 529
3 235 530 531
3 111 235 25
3 236 235 111
3 236 532 534
3 534 533 235
3 532 533 534
3 236 535 537
3 535 234 536
3 535 536 537
3 237 234 236
3 237 7 234
3 237 208 7
3 238 208 237
3 238 39 208
3 113 238 50
3 239 238 113
3 239 39 238
3 239 92 39
3 225 92 239
3 225 2 92
3 240 538 540
3 538 241 539
3 538 539 540
3 242 241 240
3 242 541 543
3 543 542 241
3 541 542 543
3 115 242 51
3 243 242 115
3 243 544 546
3 546 545 242
3 544 545 546
3 243 547 548
3 550 549 243
3 182 116 8
3 244 116 182
3 244 52 116
3 551 244 552
3 553 552 27
3 551 552 553
3 554 244 555
3 556 52 557
3 558 557 244
3 556 557 558
3 560 559 52
3 185 561 562
3 245 563 565
3 565 564 185
3 563 564 565
3 245 566 567
3 118 245 28
3 568 245 569
3 570 569 118
3 568 569 570
3 572 571 245
3 120 573 575
3 575 574 53
3 573 574 575
3 246 576 578
3 578 577 120
3 576 577 578
3 246 579 580
3 246 581 582
3 240 583 585
3 585 584 246
3 583 584 585
3 240 586 587
3 189 588 590
3 590 589 9
3 588 589 590
3 247 591 593
3 593 592 189
3 591 592 593
3 247 594 595
3 122 247 30
3 596 247 597
3 598 597 122
3 596 597 598
3 600 599 247
3 124 601 602
3 604 603 124
3 248 249 3
3 250 249 248
3 250 56 249
3 127 250 55
3 251 250 127
3 251 56 250
3 251 165 56
3 252 165 251
3 252 12 165
3 194 128 11
3 253 128 194
3 253 57 128
3 130 253 33
3 254 253 130
3 254 57 253
3 254 252 57
3 255 252 254
3 255 12 252
3 255 222 12
3 256 222 255
3 256 605 607
3 607 606 222
3 605 606 607
3 132 256 58
3 608 256 609
3 610 609 132
3 608 609 610
3 612 611 256
3 198 613 615
3 615 614 13
3 613 614 615
3 617 616 198
3 619 618 35
3 257 258 1
3 259 258 257
3 259 60 258
3 135 259 59
3 260 259 135
3 260 60 259
3 260 156 60
3 261 156 260
3 261 15 156
3 202 136 14
3 262 136 202
3 262 61 136
3 138 262 37
3 263 262 138
3 263 61 262
3 263 261 61
3 264 261 263
3 264 15 261
3 264 216 15
3 265 216 264
3 265 43 216
3 140 265 62
3 620 265 621
3 622 621 140
3 620 621 622
3 623 43 624
3 625 624 265
3 623 624 625
3 627 626 43
3 226 91 2
3 266 91 226
3 266 38 91
3 143 266 47
3 267 266 143
3 267 38 266
3 267 205 38
3 268 205 267
3 268 16 205
3 207 144 6
3 269 144 207
3 269 63 144
3 628 269 629
3 270 630 632
3 630 269 631
3 630 631 632
3 270 63 269
3 270 268 63
3 271 268 270
3 271 16 268
3 271 141 16
3 633 141 634
3 635 634 271
3 633 634 635
3 637 636 141
3 272 638 639
3 272 640 641
3 272 642 644
3 642 96 643
3 642 643 644
3 273 96 272
3 273 3 96
3 209 645 647
3 647 646 7
3 645 646 647
3 649 648 209
3 146 650 652
3 652 651 40
3 650 651 652
3 654 653 146
3 148 655 657
3 657 656 64
3 655 656 657
3 274 658 660
3 660 659 148
3 658 659 660
3 274 661 662
3 274 663 665
3 663 273 664
3 663 664 665
3 275 273 274
3 275 3 273
3 275 248 3
3 276 248 275
3 276 55 248
3 150 276 65
3 277 276 150
3 277 55 276
3 277 126 55
3 278 126 277
3 278 11 126
3 213 151 17
3 279 151 213
3 279 66 151
3 153 279 42
3 280 279 153
3 280 66 279
3 280 278 66
3 281 278 280
3 281 11 278
3 281 193 11
3 282 193 281
3 282 32 193
3 155 282 67
3 283 282 155
3 283 32 282
3 283 85 32
3 257 85 283
3 257 1 85
3 241 666 667
3 669 668 241
3 258 84 1
3 284 84 258
3 284 31 84
3 157 284 60
3 285 284 157
3 285 31 284
3 285 192 31
3 286 192 285
3 286 10 192
3 217 158 15
3 287 158 217
3 287 68 158
3 160 287 44
3 288 287 160
3 288 68 287
3 288 286 68
3 289 286 288
3 289 10 286
3 289 125 10
3 290 125 289
3 290 54 125
3 162 290 69
3 291 290 162
3 291 54 290
3 291 670 672
3 672 671 54
3 670 671 672
3 292 673 675
3 675 674 291
3 673 674 675
3 292 676 677
3 678 220 679
3 680 220 681
3 682 18 683
3 684 683 220
3 682 683 684
3 293 685 686
3 293 687 689
3 687 18 688
3 687 688 689
3 293 163 18
3 294 163 293
3 294 70 163
3 164 690 692
3 690 294 691
3 690 691 692
3 295 294 164
3 295 70 294
3 295 292 70
3 693 292 694
3 695 694 295
3 693 694 695
3 697 696 292
3 249 98 3
3 296 98 249
3 296 45 98
3 166 296 56
3 297 296 166
3 297 45 296
3 297 221 45
3 298 221 297
3 298 698 700
3 700 699 221
3 698 699 700
3 223 167 12
3 299 167 223
3 299 71 167
3 701 299 702
3 300 703 705
3 703 299 704
3 703 704 705
3 300 71 299
3 300 298 71
3 301 298 300
3 301 706 708
3 708 707 298
3 706 707 708
3 301 709 710
3 712 711 301
