ply
format ascii 1.0
element vertex 132
property float x
property float y
property float z
element face 111
property list uchar int vertex_index
end_header
-5.624463 21.40056 -69.535439
-8.889956 24.448641 -70.466385
-9.186964 14.850807 -71.942596
-9.500757 9.080718 -71.096199
-9.006163 19.921186 -71.754951
-5.983762 16.48016 -70.338943
-7.720047 12.925487 -71.105476
-9.328588 11.915546 -71.626671
-7.84172 10.107585 -70.668625
-7.238864 23.039619 -70.159256
-9.054275 22.265598 -71.293602
-7.320583 20.682253 -70.815292
-7.423162 18.23859 -71.174164
-5.83343 18.957813 -70.106903
-7.291544 25.264931 -69.272079
-5.583963 23.604103 -68.831749
-10.96317 16.166597 -72.554253
-10.964426 13.311333 -72.31134
-10.904679 18.936874 -72.469185
-9.256043 17.528887 -72.042122
-7.584242 15.804073 -71.287956
-4.082232 23.895779 -67.427719
-4.097815 21.582096 -68.187332
-2.867174 19.597662 -67.308289
-4.281282 19.284397 -68.797287
-7.065751 10.647771 -70.345425
-7.780883 11.516536 -70.887051
-7.004914 12.056722 -70.56385
-7.160542 9.281302 -70.109139
-7.065751 10.647771 -70.345425
-6.411943 25.444373 -68.578384
-7.254955 26.221086 -68.684345
-5.558153 24.613958 -68.358219
-6.437753 24.434517 -69.051914
-6.411943 25.444373 -68.578384
-10.334626 9.782784 -71.483875
-10.248542 11.200198 -71.749111
-9.414672 10.498132 -71.361435
-10.309736 8.33164 -71.125077
-10.334626 9.782784 -71.483875
-9.47422 7.568357 -70.670422
-10.309736 8.33164 -71.125077
-9.846946 24.101932 -70.926567
-9.85635 25.14439 -70.445999
-9.929537 20.605174 -71.934143
-9.953592 21.77738 -71.703469
-9.030219 21.093392 -71.524277
-9.955421 19.42903 -72.112068
-10.878794 20.113018 -72.29126
-9.929537 20.605174 -71.934143
-6.03377 15.195595 -70.302925
-6.83401 14.857551 -70.777432
-6.784002 16.142117 -70.813449
-3.376651 22.892059 -67.026577
-3.340724 24.019618 -66.616318
-3.384442 21.735217 -67.406384
-4.090024 22.738937 -67.807525
-3.376651 22.892059 -67.026577
-2.977549 18.450705 -67.538937
-2.283821 18.578243 -66.707478
-3.684603 18.294073 -68.283436
-3.574228 19.441029 -68.052788
-2.977549 18.450705 -67.538937
-4.360741 18.082957 -68.958134
-3.684603 18.294073 -68.283436
-7.89468 8.703449 -70.344071
-8.724199 8.190016 -70.557857
-8.671238 9.594151 -70.882412
-7.89468 8.703449 -70.344071
-7.160542 9.281302 -70.109139
-8.957925 25.527794 -69.926338
-9.85635 25.14439 -70.445999
-8.15872 25.935939 -69.329185
-7.254955 26.221086 -68.684345
-8.09075 24.856786 -69.869232
-8.957925 25.527794 -69.926338
-8.15872 25.935939 -69.329185
-11.869707 15.509028 -72.668568
-11.856603 16.870725 -72.707695
-11.870335 14.081397 -72.547111
-11.869707 15.509028 -72.668568
-10.963798 14.738965 -72.432796
-11.954426 12.573327 -72.36325
-11.870335 14.081397 -72.547111
-11.066461 11.898091 -72.091446
-10.146507 12.61344 -71.969006
-10.248542 11.200198 -71.749111
-11.954426 12.573327 -72.36325
-11.066461 11.898091 -72.091446
-9.47422 7.568357 -70.670422
-8.724199 8.190016 -70.557857
-9.929105 23.010411 -71.340176
-9.846946 24.101932 -70.926567
-8.972116 23.357119 -70.879994
-9.929105 23.010411 -71.340176
-9.953592 21.77738 -71.703469
-11.872739 19.53122 -72.562905
-10.878794 20.113018 -72.29126
-11.827357 18.255864 -72.665161
-11.872739 19.53122 -72.562905
-10.933924 17.551735 -72.511719
-11.856603 16.870725 -72.707695
-11.827357 18.255864 -72.665161
-6.901912 13.418258 -70.686192
-7.652145 14.36478 -71.196716
-6.83401 14.857551 -70.777432
-7.004914 12.056722 -70.56385
-6.901912 13.418258 -70.686192
-4.007589 24.947116 -66.866878
-3.340724 24.019618 -66.616318
-4.807288 24.759797 -67.656204
-4.007589 24.947116 -66.866878
-4.833098 23.749941 -68.129734
-5.558153 24.613958 -68.358219
-4.807288 24.759797 -67.656204
-2.202828 19.711608 -66.495057
-2.283821 18.578243 -66.707478
-2.769121 20.743 -66.966862
-2.202828 19.711608 -66.495057
-3.482494 20.589879 -67.74781
-3.384442 21.735217 -67.406384
-2.769121 20.743 -66.966862
-5.136815 17.919665 -69.612942
-5.057356 19.121105 -69.452095
-4.360741 18.082957 -68.958134
-5.211982 16.680838 -69.728961
-5.908596 17.718986 -70.222923
-5.136815 17.919665 -69.612942
-5.297646 15.467654 -69.769344
-5.211982 16.680838 -69.728961
-6.03377 15.195595 -70.302925
-5.297646 15.467654 -69.769344
3 25 8 26
3 27 26 6
3 25 26 27
3 29 28 8
3 0 11 9
3 0 13 11
3 30 14 31
3 32 15 33
3 34 33 14
3 32 33 34
3 2 17 16
3 3 35 37
3 37 36 7
3 35 36 37
3 3 38 39
3 3 40 41
3 1 42 43
3 4 44 46
3 46 45 10
3 44 45 46
3 4 47 49
3 47 18 48
3 47 48 49
3 4 19 18
3 5 20 12
3 5 50 52
3 52 51 20
3 50 51 52
3 53 21 54
3 55 22 56
3 57 56 21
3 55 56 57
3 58 23 59
3 60 24 61
3 62 61 23
3 60 61 62
3 64 63 24
3 6 7 2
3 8 7 6
3 8 3 7
3 8 65 67
3 67 66 3
3 65 66 67
3 69 68 8
3 9 10 1
3 11 10 9
3 11 4 10
3 11 12 4
3 13 12 11
3 13 5 12
3 70 1 71
3 14 72 73
3 14 74 76
3 74 1 75
3 74 75 76
3 14 9 1
3 15 9 14
3 15 0 9
3 16 77 78
3 17 79 81
3 81 80 16
3 79 80 81
3 17 82 83
3 7 17 2
3 84 17 85
3 86 85 7
3 84 85 86
3 88 87 17
3 90 89 3
3 10 91 93
3 93 92 1
3 91 92 93
3 95 94 10
3 18 96 97
3 18 98 99
3 18 100 102
3 100 16 101
3 100 101 102
3 19 16 18
3 19 2 16
3 12 19 4
3 20 19 12
3 20 2 19
3 20 6 2
3 103 6 104
3 105 104 20
3 103 104 105
3 107 106 6
3 21 108 109
3 21 110 111
3 21 112 114
3 112 15 113
3 112 113 114
3 22 15 21
3 22 0 15
3 23 115 116
3 23 117 118
3 23 119 121
3 119 22 120
3 119 120 121
3 24 22 23
3 24 0 22
3 24 13 0
3 122 13 123
3 124 123 24
3 122 123 124
3 125 5 126
3 127 126 13
3 125 126 127
3 128 5 129
3 131 130 5
