ply
format ascii 1.0
element vertex 154
property float x
property float y
property float z
element face 138
property list uchar int vertex_index
end_header
22.161306 -66.345245 15.38036
26.982544 -58.811298 5.167779
22.732786 -63.150143 19.943859
20.288153 -66.966393 19.8615
27.672958 -56.398506 9.775071
25.846378 -60.577957 10.193383
24.471151 -62.148918 15.150663
23.717495 -65.165901 10.276885
26.119856 -60.951584 5.232709
20.529753 -65.163689 22.121494
26.791348 -58.420429 10.056858
26.1453 -59.378345 12.505647
22.520903 -64.714142 17.674274
23.66449 -62.702179 17.61812
23.337185 -64.372803 15.086377
24.084679 -63.70142 12.802189
22.976078 -65.821831 12.893865
27.876877 -56.566517 4.864453
21.562073 -65.079437 19.912224
21.20142 -66.81813 17.720352
28.243116 -55.357269 7.152933
27.338839 -57.556713 7.374288
26.41507 -59.737766 7.748748
25.443991 -62.012047 7.823333
23.942516 -61.105534 19.725735
24.766827 -60.70528 17.321779
25.59054 -59.924557 14.878469
25.160204 -61.505356 12.627895
24.792213 -62.87495 10.401901
24.523935 -64.093559 7.792337
19.884388 -68.849098 17.438011
20.96492 -68.343376 15.185879
21.890675 -67.807037 12.720992
22.650238 -67.213715 10.370509
25.989337 -61.554863 3.975072
25.650919 -62.075111 5.226686
26.351349 -58.63659 13.599361
26.634601 -58.293615 12.436122
27.329213 -58.140501 3.90065
27.77638 -57.01811 3.748987
27.42971 -57.688907 5.016116
28.145783 -55.314167 9.590061
28.353082 -54.678089 10.636496
27.880257 -55.762428 10.821506
27.958037 -55.877887 8.464002
28.430862 -54.793548 8.278992
28.145783 -55.314167 9.590061
23.337651 -62.127838 19.834797
23.508406 -61.204396 20.812697
22.90354 -62.2267 20.921758
19.765577 -69.626019 16.13328
19.21582 -69.780307 17.286463
20.305844 -69.373158 15.007214
20.424654 -68.596237 16.311945
19.765577 -69.626019 16.13328
21.67662 -68.598514 11.416508
21.233899 -68.898269 12.624575
22.056401 -68.301853 10.241267
22.270457 -67.510376 11.545751
21.67662 -68.598514 11.416508
26.459354 -60.371685 3.943074
26.890698 -59.301542 3.910609
26.5512 -59.881441 5.200244
26.459354 -60.371685 3.943074
25.989337 -61.554863 3.975072
19.902079 -65.164479 23.212738
20.609839 -64.218908 23.20044
19.837851 -66.094292 22.090194
19.902079 -65.164479 23.212738
19.717052 -66.995644 20.960197
20.408953 -66.065041 20.991497
19.837851 -66.094292 22.090194
27.39843 -56.803696 11.070835
27.880257 -55.762428 10.821506
26.957625 -57.814657 11.211728
27.232153 -57.409467 9.915965
27.39843 -56.803696 11.070835
26.468324 -58.899387 11.281253
26.957625 -57.814657 11.211728
26.634601 -58.293615 12.436122
28.201588 -55.882485 3.625714
28.642694 -54.756399 3.50212
28.317983 -55.440432 4.740859
28.201588 -55.882485 3.625714
27.77638 -57.01811 3.748987
27.329213 -58.140501 3.90065
26.890698 -59.301542 3.910609
22.28797 -63.190311 21.017567
22.90354 -62.2267 20.921758
21.186453 -64.197085 22.106385
20.609839 -64.218908 23.20044
21.702613 -64.154958 21.00175
21.186453 -64.197085 22.106385
21.045913 -65.121563 21.016859
22.14743 -64.11479 19.928041
22.28797 -63.190311 21.017567
21.702613 -64.154958 21.00175
28.680363 -54.305805 6.967744
28.430862 -54.793548 8.278992
28.501103 -54.835808 5.885099
28.680363 -54.305805 6.967744
28.059997 -55.961893 6.008693
28.317983 -55.440432 4.740859
28.501103 -54.835808 5.885099
25.312987 -62.605343 6.521999
25.650919 -62.075111 5.226686
25.781923 -61.481815 6.528021
24.072522 -60.204104 20.767983
23.508406 -61.204396 20.812697
24.498234 -60.075603 19.640585
24.072522 -60.204104 20.767983
24.910389 -59.875477 18.438607
24.498234 -60.075603 19.640585
24.354672 -60.905407 18.523757
25.298647 -59.643154 17.261561
24.910389 -59.875477 18.438607
25.710504 -59.252792 16.039905
25.298647 -59.643154 17.261561
25.178683 -60.314919 16.100124
26.073969 -58.909696 14.785772
25.710504 -59.252792 16.039905
25.86792 -59.651451 13.692058
26.351349 -58.63659 13.599361
26.073969 -58.909696 14.785772
24.852958 -63.646099 6.5065
25.312987 -62.605343 6.521999
24.983963 -63.052803 7.807835
19.579921 -67.921642 19.787245
19.717052 -66.995644 20.960197
19.00882 -67.950894 20.885942
19.378039 -68.862995 18.575501
19.21582 -69.780307 17.286463
20.086271 -67.907746 18.649755
19.579921 -67.921642 19.787245
19.378039 -68.862995 18.575501
20.771022 -69.166439 13.857018
20.305844 -69.373158 15.007214
21.427798 -68.075207 13.953436
20.771022 -69.166439 13.857018
21.233899 -68.898269 12.624575
22.451579 -67.972641 8.978703
22.056401 -68.301853 10.241267
23.024037 -66.846027 9.057009
22.451579 -67.972641 8.978703
23.557665 -65.822121 9.010198
23.183867 -66.189808 10.323697
23.024037 -66.846027 9.057009
23.960885 -65.28595 7.767924
24.120715 -64.62973 9.034611
23.557665 -65.822121 9.010198
24.340097 -64.78955 6.564237
23.960885 -65.28595 7.767924
24.852958 -63.646099 6.5065
24.340097 -64.78955 6.564237
3 35 34 8
3 36 11 37
3 0 14 12
3 0 16 14
3 1 38 40
3 40 39 17
3 38 39 40
3 3 18 9
3 3 19 18
3 4 41 43
3 41 42 43
3 4 44 46
3 44 20 45
3 44 45 46
3 4 21 20
3 5 22 10
3 5 23 22
3 2 47 49
3 47 24 48
3 47 48 49
3 6 25 13
3 6 26 25
3 6 27 26
3 7 28 15
3 7 29 28
3 50 30 51
3 52 31 53
3 54 53 30
3 52 53 54
3 55 32 56
3 57 33 58
3 59 58 32
3 57 58 59
3 8 60 62
3 62 61 1
3 60 61 62
3 64 63 8
3 65 9 66
3 67 9 68
3 69 3 70
3 71 70 9
3 69 70 71
3 72 4 73
3 74 10 75
3 76 75 4
3 74 75 76
3 11 77 79
3 77 10 78
3 77 78 79
3 11 5 10
3 12 13 2
3 14 13 12
3 14 6 13
3 14 15 6
3 16 15 14
3 16 7 15
3 17 80 82
3 80 81 82
3 84 83 17
3 86 85 1
3 87 2 88
3 9 89 90
3 18 91 93
3 93 92 9
3 91 92 93
3 18 94 96
3 94 2 95
3 94 95 96
3 18 12 2
3 19 12 18
3 19 0 12
3 20 97 98
3 20 99 100
3 20 101 103
3 101 17 102
3 101 102 103
3 21 17 20
3 21 1 17
3 10 21 4
3 22 21 10
3 22 1 21
3 22 8 1
3 23 8 22
3 23 104 106
3 106 105 8
3 104 105 106
3 24 107 108
3 24 109 110
3 13 24 2
3 25 24 13
3 25 111 113
3 113 112 24
3 111 112 113
3 25 114 115
3 26 116 118
3 118 117 25
3 116 117 118
3 26 119 120
3 26 121 123
3 121 11 122
3 121 122 123
3 27 11 26
3 27 5 11
3 15 27 6
3 28 27 15
3 28 5 27
3 28 23 5
3 29 23 28
3 29 124 126
3 126 125 23
3 124 125 126
3 127 3 128
3 127 128 129
3 30 130 131
3 30 132 134
3 132 3 133
3 132 133 134
3 30 19 3
3 31 19 30
3 31 0 19
3 135 31 136
3 32 137 139
3 137 31 138
3 137 138 139
3 32 0 31
3 32 16 0
3 33 16 32
3 33 7 16
3 140 33 141
3 142 33 143
3 144 7 145
3 146 145 33
3 144 145 146
3 147 29 148
3 149 148 7
3 147 148 149
3 150 29 151
3 153 152 29
