ply
format ascii 1.0
element vertex 191
property float x
property float y
property float z
element face 185
property list uchar int vertex_index
end_header
19.996334 78.107689 -6.722471
15.242155 81.890648 0.482383
19.50194 71.641045 3.019268
15.053135 78.613724 5.340942
22.004171 72.667267 -5.432322
17.677105 80.41156 -3.304675
19.914114 75.065247 -1.804685
17.547157 77.07402 1.72811
17.151533 73.536621 6.486701
16.371136 70.061996 11.197398
14.872993 85.304581 -4.703724
21.730453 69.415443 -0.605554
20.95826 76.964317 -8.646031
21.898401 74.283691 -7.804821
21.065035 75.401711 -6.029001
18.779652 80.781525 -7.515907
16.450239 81.228111 -1.382841
17.776312 78.573555 -0.780977
16.464342 79.485222 1.147216
14.783605 77.063133 7.648014
16.081053 76.159126 6.034906
15.777946 74.526688 8.334404
16.719917 71.921242 8.890971
13.80195 84.293747 -0.177402
15.147151 83.55069 -2.024206
16.382196 82.944954 -4.158832
19.78438 73.452812 0.442926
20.887943 72.195625 -1.133323
20.612034 70.552322 1.319461
14.00708 82.600883 2.116235
15.185398 80.307213 2.894299
13.996528 80.979149 4.451349
22.812881 71.22551 -6.984861
22.793062 69.727173 -4.551284
19.152702 69.861504 5.469797
20.359238 68.779228 3.578084
18.8543 79.377411 -5.050557
19.994852 76.69014 -4.305908
18.928394 77.652275 -2.546864
18.78327 76.002487 0.030918
18.623436 74.32959 2.350075
16.26619 77.910866 3.62228
17.337225 75.384155 4.168866
18.312618 72.694412 4.758883
17.939169 70.848732 7.292594
16.25338 84.375313 -6.726715
17.613081 81.936333 -5.864286
21.004425 73.870972 -3.523258
21.9235 71.047134 -2.971161
22.726398 68.061905 -2.34466
21.465738 67.59285 1.819304
22.449692 66.577461 -0.03487
19.925204 78.845425 -8.055055
19.316863 80.182343 -8.451773
19.387993 79.444607 -7.119189
20.477297 77.536003 -7.684251
20.406167 78.273739 -9.016835
19.925204 78.845425 -8.055055
15.111877 74.977002 9.151692
15.280776 75.79491 7.991209
14.614706 76.245224 8.808497
15.605848 73.661641 9.481136
15.111877 74.977002 9.151692
13.380292 82.063618 4.126161
14.001804 81.790016 3.283792
13.385568 82.874485 2.958604
13.385568 82.874485 2.958604
13.358404 83.615207 1.842361
19.566944 68.451672 5.690961
18.966975 68.935104 6.658535
16.988312 69.552391 10.362257
17.162703 70.482014 9.209043
16.545527 70.991619 10.044185
16.717126 68.740398 11.57181
16.988312 69.552391 10.362257
14.054051 86.421776 -4.985798
14.268452 85.535847 -3.637577
14.739685 86.054978 -6.043859
13.920744 87.172173 -6.325934
14.054051 86.421776 -4.985798
15.563187 84.839947 -5.715219
15.429879 85.590344 -7.055355
14.739685 86.054978 -6.043859
21.296326 66.767013 2.931641
20.912488 68.186039 2.698694
20.743075 67.360202 3.811031
22.812844 65.0635 0.163854
22.289955 65.722637 1.137269
22.916745 65.911136 -0.937875
22.812844 65.0635 0.163854
21.428331 75.624004 -8.225426
21.857231 74.838432 -9.029112
21.387161 76.178745 -9.449717
18.652073 81.52776 -8.85269
18.083227 82.118935 -7.996405
18.652073 81.52776 -8.85269
19.316863 80.182343 -8.451773
20.874578 77.554432 -9.856704
20.406167 78.273739 -9.016835
21.387161 76.178745 -9.449717
20.874578 77.554432 -9.856704
16.076833 72.358918 9.75942
16.248931 73.223965 8.612687
15.605848 73.661641 9.481136
15.902443 71.429294 10.912634
16.545527 70.991619 10.044185
16.076833 72.358918 9.75942
13.732931 85.03043 -1.374416
13.068877 85.343388 -0.479727
14.405531 84.658901 -2.297818
13.732931 85.03043 -1.374416
14.47455 83.922218 -1.100804
15.010072 84.427636 -3.363965
14.268452 85.535847 -3.637577
14.405531 84.658901 -2.297818
13.358071 81.288231 5.261496
13.380292 82.063618 4.126161
13.889989 80.244866 5.595808
13.358071 81.288231 5.261496
14.418293 79.062153 6.040605
14.524831 79.796436 4.896146
13.889989 80.244866 5.595808
14.283528 78.286857 7.19414
14.91837 77.838428 6.494478
14.418293 79.062153 6.040605
14.146216 77.485637 8.358937
14.283528 78.286857 7.19414
14.614706 76.245224 8.808497
14.146216 77.485637 8.358937
13.255839 84.461639 0.695542
13.068877 85.343388 -0.479727
13.904515 83.447315 0.969417
13.255839 84.461639 0.695542
13.358404 83.615207 1.842361
22.290103 73.410675 -8.481514
21.857231 74.838432 -9.029112
22.747343 71.881585 -8.071535
22.290103 73.410675 -8.481514
22.355641 72.754601 -7.394841
23.137644 70.392918 -7.753404
22.747343 71.881585 -8.071535
23.156818 69.832409 -6.615016
23.137644 70.392918 -7.753404
23.146909 69.08324 -5.398227
23.156818 69.832409 -6.615016
22.802971 70.476341 -5.768073
23.147081 68.313869 -4.310356
23.500927 67.669937 -5.1573
23.146909 69.08324 -5.398227
20.170212 67.910534 4.745104
19.75597 69.320366 4.523941
19.566944 68.451672 5.690961
20.743075 67.360202 3.811031
20.170212 67.910534 4.745104
18.360208 69.428719 7.569934
18.966975 68.935104 6.658535
18.545935 70.355118 6.381196
17.772329 69.945759 8.409854
17.329543 71.384987 8.091783
17.162703 70.482014 9.209043
18.360208 69.428719 7.569934
17.772329 69.945759 8.409854
16.057921 85.170327 -8.069887
15.429879 85.590344 -7.055355
16.820092 83.915829 -7.601809
16.057921 85.170327 -8.069887
17.499942 82.696339 -7.170594
16.820092 83.915829 -7.601809
16.933231 83.155823 -6.295501
18.196366 81.358929 -6.690097
18.083227 82.118935 -7.996405
17.499942 82.696339 -7.170594
23.113748 67.481235 -3.207044
23.147081 68.313869 -4.310356
22.75973 68.894539 -3.447972
21.797978 66.230332 2.064356
21.296326 66.767013 2.931641
21.957715 67.085155 0.892217
21.797978 66.230332 2.064356
22.289955 65.722637 1.137269
23.055098 66.653358 -2.092771
22.588045 67.319683 -1.189765
22.916745 65.911136 -0.937875
23.113748 67.481235 -3.207044
23.055098 66.653358 -2.092771
15.720682 70.513301 12.06301
15.902443 71.429294 10.912634
16.118182 69.241669 12.368146
15.720682 70.513301 12.06301
16.717126 68.740398 11.57181
16.118182 69.241669 12.368146
3 0 14 12
3 0 52 54
3 54 53 15
3 52 53 54
3 0 55 57
3 55 12 56
3 55 56 57
3 1 18 16
3 58 21 59
3 60 59 19
3 58 59 60
3 62 61 21
3 1 24 23
3 1 16 24
3 2 28 26
3 63 31 64
3 65 64 29
3 63 64 65
3 66 29 67
3 4 32 13
3 4 33 32
3 69 68 34
3 5 38 36
3 7 39 17
3 7 40 39
3 3 41 30
3 8 42 20
3 8 43 42
3 8 44 43
3 9 70 72
3 72 71 22
3 70 71 72
3 9 73 74
3 10 75 76
3 10 77 79
3 77 78 79
3 10 80 82
3 80 45 81
3 80 81 82
3 5 46 25
3 5 36 46
3 6 47 37
3 11 48 27
3 11 49 48
3 83 50 84
3 85 84 35
3 83 84 85
3 86 51 87
3 89 88 51
3 12 90 92
3 90 13 91
3 90 91 92
3 14 13 12
3 14 4 13
3 15 93 94
3 96 95 15
3 12 97 98
3 12 99 100
3 16 17 5
3 18 17 16
3 18 7 17
3 19 20 3
3 21 20 19
3 21 8 20
3 21 22 8
3 101 22 102
3 103 102 21
3 101 102 103
3 104 9 105
3 106 105 22
3 104 105 106
3 23 107 108
3 24 109 111
3 111 110 23
3 109 110 111
3 24 112 114
3 112 10 113
3 112 113 114
3 24 25 10
3 16 25 24
3 16 5 25
3 26 27 6
3 28 27 26
3 28 11 27
3 29 30 1
3 31 30 29
3 31 3 30
3 115 31 116
3 117 31 118
3 119 3 120
3 121 120 31
3 119 120 121
3 122 19 123
3 124 123 3
3 122 123 124
3 125 19 126
3 128 127 19
3 129 23 130
3 29 131 133
3 131 23 132
3 131 132 133
3 29 1 23
3 13 134 135
3 32 136 138
3 138 137 13
3 136 137 138
3 32 139 140
3 32 141 142
3 33 143 145
3 145 144 32
3 143 144 145
3 33 146 148
3 146 147 148
3 34 35 2
3 149 35 150
3 151 150 34
3 149 150 151
3 153 152 35
3 36 37 0
3 38 37 36
3 38 6 37
3 17 38 5
3 39 38 17
3 39 6 38
3 39 26 6
3 40 26 39
3 40 2 26
3 30 18 1
3 41 18 30
3 41 7 18
3 20 41 3
3 42 41 20
3 42 7 41
3 42 40 7
3 43 40 42
3 43 2 40
3 43 34 2
3 44 34 43
3 44 154 156
3 156 155 34
3 154 155 156
3 22 44 8
3 157 44 158
3 159 158 22
3 157 158 159
3 161 160 44
3 45 162 163
3 45 164 165
3 25 45 10
3 46 45 25
3 46 166 168
3 168 167 45
3 166 167 168
3 46 169 171
3 169 15 170
3 169 170 171
3 36 15 46
3 36 0 15
3 37 14 0
3 47 14 37
3 47 4 14
3 27 47 6
3 48 47 27
3 48 4 47
3 48 33 4
3 49 33 48
3 49 172 174
3 174 173 33
3 172 173 174
3 35 28 2
3 50 28 35
3 50 11 28
3 175 50 176
3 51 177 179
3 177 50 178
3 177 178 179
3 51 11 50
3 51 49 11
3 180 49 181
3 182 181 51
3 180 181 182
3 184 183 49
3 185 9 186
3 187 9 188
3 190 189 9
