ply
format ascii 1.0
element vertex 199
property float x
property float y
property float z
element face 184
property list uchar int vertex_index
end_header
-20.003159 -73.459061 -39.426769
-20.432407 -62.292732 -45.57317
-27.455664 -64.111351 -37.338749
-23.553974 -71.020821 -36.75145
-24.212152 -66.239059 -40.191845
-20.290768 -68.04528 -42.717564
-24.452887 -60.613495 -43.740314
-14.946329 -84.845421 -35.3643
-22.805727 -75.110214 -32.780777
-19.36871 -78.088364 -35.99559
-15.45074 -80.579834 -38.731098
-15.622813 -75.745621 -41.756474
-16.037224 -69.874748 -44.38171
-26.014793 -64.966705 -38.878242
-26.261349 -62.28437 -40.814106
-24.486235 -63.327522 -41.995358
-14.782145 -86.476616 -33.609962
-24.711088 -71.818359 -33.077278
-21.872114 -72.139557 -38.23156
-21.541618 -74.41613 -36.455814
-19.62336 -75.951347 -37.784683
-17.450085 -79.444809 -37.409939
-17.620592 -77.24292 -39.08226
-15.707624 -78.035034 -40.314842
-17.891094 -74.590431 -40.698994
-20.45392 -65.017265 -44.231689
-18.276924 -68.963867 -43.602409
-18.264578 -66.098114 -44.965599
-18.385418 -62.720352 -46.366329
-25.186029 -69.679245 -35.170147
-25.492178 -67.613564 -37.080029
-23.955524 -68.619019 -38.528343
-22.135139 -69.681572 -39.941753
-20.021545 -71.015076 -41.135414
-22.331778 -67.049156 -41.599251
-22.326283 -64.477661 -43.189476
-22.552197 -61.458302 -44.69466
-23.174215 -73.235542 -34.76857
-21.209282 -76.468407 -34.567261
-19.039383 -79.952682 -34.305588
-17.056942 -81.594307 -35.787552
-15.03616 -82.993973 -37.13554
-17.968643 -71.898132 -42.258404
-15.807659 -72.784645 -43.167927
-22.596664 -58.327919 -46.249352
-22.653791 -54.869938 -47.838688
-20.533926 -59.068707 -46.975609
-27.260939 -60.410645 -41.044758
-27.108669 -61.775051 -40.090042
-26.393305 -60.870729 -41.694553
-27.260939 -60.410645 -41.044758
-25.618366 -70.193447 -33.214412
-25.269627 -71.283947 -32.205515
-26.473921 -65.862458 -37.209389
-26.284498 -66.952008 -36.260005
-27.26624 -65.200901 -36.389364
-13.787675 -86.483318 -35.180571
-13.705583 -87.298916 -34.303402
-14.864237 -85.661019 -34.487131
-13.901647 -85.501889 -36.053591
-13.787675 -86.483318 -35.180571
-22.510681 -76.084148 -31.7899
-23.44096 -74.493183 -31.910379
-21.80978 -76.73629 -32.703041
-22.510681 -76.084148 -31.7899
-14.233023 -82.316047 -38.561363
-14.025733 -83.523117 -37.763584
-15.24345 -81.786903 -37.933319
-14.374173 -81.189201 -39.255533
-14.233023 -82.316047 -38.561363
-14.418941 -77.631649 -41.49302
-14.461346 -78.776355 -40.772204
-15.665218 -76.890327 -41.035658
-14.543986 -76.234646 -42.145489
-14.418941 -77.631649 -41.49302
-14.724739 -71.941017 -44.077393
-14.609957 -73.395965 -43.470501
-15.922441 -71.329696 -43.774818
-14.800939 -70.364845 -44.670007
-14.724739 -71.941017 -44.077393
-23.600148 -56.315357 -46.650355
-23.624381 -57.886379 -45.817299
-21.591049 -55.307339 -48.106762
-22.564403 -53.204994 -48.606448
-20.531117 -57.406723 -47.675223
-21.593858 -56.969323 -47.407148
-21.591049 -55.307339 -48.106762
-19.405625 -59.37131 -47.296549
-20.531117 -57.406723 -47.675223
-26.985391 -63.116219 -39.12211
-26.735228 -64.539028 -38.108496
-27.705826 -62.688541 -38.352363
-26.138071 -63.625538 -39.846174
-26.985391 -63.116219 -39.12211
-27.108669 -61.775051 -40.090042
-25.505748 -61.392305 -42.285179
-25.373792 -62.805946 -41.404732
-26.393305 -60.870729 -41.694553
-25.489074 -60.035291 -43.157657
-24.469561 -61.970509 -42.867836
-25.505748 -61.392305 -42.285179
-15.640017 -85.785996 -32.874956
-14.627439 -87.269753 -32.724694
-15.799428 -84.950722 -33.788618
-15.640017 -85.785996 -32.874956
-15.88152 -84.135125 -34.665787
-14.864237 -85.661019 -34.487131
-15.799428 -84.950722 -33.788618
-24.393641 -72.847256 -32.05863
-24.952179 -72.312843 -31.186867
-25.269627 -71.283947 -32.205515
-23.758408 -73.464287 -32.929028
-23.44096 -74.493183 -31.910379
-24.393641 -72.847256 -32.05863
-17.176865 -66.491485 -45.280914
-16.063187 -68.379802 -44.98897
-17.150901 -67.986431 -44.673654
-17.237285 -64.802605 -45.981279
-17.176865 -66.491485 -45.280914
-18.324998 -64.409233 -45.665964
-17.193479 -63.248852 -46.581494
-17.237285 -64.802605 -45.981279
-26.131423 -67.984848 -35.305064
-25.855837 -69.12389 -34.260847
-25.339104 -68.646404 -36.125088
-26.131423 -67.984848 -35.305064
-26.284498 -66.952008 -36.260005
-28.193051 -63.397175 -36.635765
-27.26624 -65.200901 -36.389364
-28.411578 -62.239874 -37.585544
-28.193051 -63.397175 -36.635765
-29.148966 -61.525698 -36.88256
-27.705826 -62.688541 -38.352363
-28.411578 -62.239874 -37.585544
-13.692248 -88.001503 -33.43925
-13.537542 -88.79464 -32.553982
-14.627439 -87.269753 -32.724694
-13.692248 -88.001503 -33.43925
-13.705583 -87.298916 -34.303402
-24.948559 -70.748802 -34.123712
-25.618366 -70.193447 -33.214412
-25.855837 -69.12389 -34.260847
-21.011558 -77.415386 -33.596283
-21.80978 -76.73629 -32.703041
-22.007505 -75.78931 -33.674019
-19.926608 -79.157524 -33.465446
-21.011558 -77.415386 -33.596283
-20.124333 -78.210544 -34.436425
-18.825415 -80.876259 -33.401916
-19.926608 -79.157524 -33.465446
-17.928047 -81.688755 -34.136431
-18.825415 -80.876259 -33.401916
-16.936827 -82.509568 -34.877413
-17.928047 -81.688755 -34.136431
-18.048163 -80.773494 -35.04657
-16.001635 -83.219864 -35.575926
-15.88152 -84.135125 -34.665787
-16.936827 -82.509568 -34.877413
-13.946562 -84.576165 -36.939211
-13.901647 -85.501889 -36.053591
-14.991245 -83.919697 -36.24992
-12.936134 -85.105309 -37.567255
-13.946562 -84.576165 -36.939211
-14.025733 -83.523117 -37.763584
-14.502614 -79.916801 -40.047405
-14.374173 -81.189201 -39.255533
-15.579182 -79.307434 -39.52297
-14.502614 -79.916801 -40.047405
-14.461346 -78.776355 -40.772204
-14.636409 -74.754158 -42.851215
-14.543986 -76.234646 -42.145489
-15.715236 -74.265133 -42.4622
-14.636409 -74.754158 -42.851215
-14.609957 -73.395965 -43.470501
-14.800939 -70.364845 -44.670007
-16.063187 -68.379802 -44.98897
-25.551387 -58.608511 -44.019628
-25.489074 -60.035291 -43.157657
-24.552492 -59.029167 -44.56278
-25.551387 -58.608511 -44.019628
-23.602148 -59.451571 -45.039953
-23.502542 -61.035899 -44.217487
-24.552492 -59.029167 -44.56278
-22.57443 -59.893111 -45.472006
-23.602148 -59.451571 -45.039953
-23.624381 -57.886379 -45.817299
-23.607808 -52.883642 -48.279331
-23.51842 -51.218699 -49.047091
-22.564403 -53.204994 -48.606448
-23.628712 -54.586366 -47.445023
-23.607808 -52.883642 -48.279331
-22.625228 -56.598928 -47.04402
-23.600148 -56.315357 -46.650355
-23.628712 -54.586366 -47.445023
-18.331372 -61.197132 -46.991909
-19.459672 -60.89453 -46.670969
-19.405625 -59.37131 -47.296549
-17.193479 -63.248852 -46.581494
-18.331372 -61.197132 -46.991909
3 47 14 48
3 50 49 14
3 51 17 52
3 0 20 18
3 0 22 20
3 0 24 22
3 1 27 25
3 1 28 27
3 2 53 55
3 53 30 54
3 53 54 55
3 4 31 13
3 4 32 31
3 4 34 32
3 6 35 15
3 6 36 35
3 7 56 58
3 58 57 16
3 56 57 58
3 7 59 60
3 8 61 62
3 8 63 64
3 3 37 29
3 9 38 19
3 9 39 38
3 9 40 39
3 10 41 21
3 10 65 67
3 67 66 41
3 65 66 67
3 10 68 69
3 11 70 72
3 72 71 23
3 70 71 72
3 11 73 74
3 5 42 33
3 12 43 26
3 12 75 77
3 77 76 43
3 75 76 77
3 12 78 79
3 80 44 81
3 82 45 83
3 84 46 85
3 86 85 45
3 84 85 86
3 88 87 46
3 89 13 90
3 91 90 2
3 89 90 91
3 14 92 94
3 92 13 93
3 92 93 94
3 14 4 13
3 14 15 4
3 95 15 96
3 97 96 14
3 95 96 97
3 98 6 99
3 100 99 15
3 98 99 100
3 101 16 102
3 103 16 104
3 105 7 106
3 107 106 16
3 105 106 107
3 17 108 110
3 108 109 110
3 17 111 113
3 111 8 112
3 111 112 113
3 18 19 3
3 20 19 18
3 20 9 19
3 20 21 9
3 22 21 20
3 22 10 21
3 22 23 10
3 24 23 22
3 24 11 23
3 25 26 5
3 27 26 25
3 27 12 26
3 27 114 116
3 116 115 12
3 114 115 116
3 28 117 119
3 119 118 27
3 117 118 119
3 28 120 121
3 122 29 123
3 30 124 126
3 124 29 125
3 124 125 126
3 30 3 29
3 13 30 2
3 31 30 13
3 31 3 30
3 31 18 3
3 32 18 31
3 32 0 18
3 32 33 0
3 34 33 32
3 34 5 33
3 15 34 4
3 35 34 15
3 35 5 34
3 35 25 5
3 36 25 35
3 36 1 25
3 127 2 128
3 129 2 130
3 129 130 131
3 133 132 2
3 16 134 136
3 134 135 136
3 138 137 16
3 29 139 141
3 139 17 140
3 139 140 141
3 37 17 29
3 37 8 17
3 19 37 3
3 38 37 19
3 38 8 37
3 38 142 144
3 144 143 8
3 142 143 144
3 39 145 147
3 147 146 38
3 145 146 147
3 39 148 149
3 39 150 151
3 40 152 154
3 154 153 39
3 152 153 154
3 40 155 157
3 155 7 156
3 155 156 157
3 21 40 9
3 41 40 21
3 41 7 40
3 41 158 160
3 160 159 7
3 158 159 160
3 163 162 41
3 161 162 163
3 23 164 166
3 166 165 10
3 164 165 166
3 168 167 23
3 33 24 0
3 42 24 33
3 42 11 24
3 26 42 5
3 43 42 26
3 43 11 42
3 43 169 171
3 171 170 11
3 169 170 171
3 173 172 43
3 175 174 12
3 176 6 177
3 178 6 179
3 180 36 181
3 182 181 6
3 180 181 182
3 44 183 185
3 183 36 184
3 183 184 185
3 44 1 36
3 45 186 188
3 186 187 188
3 45 189 190
3 45 191 193
3 191 44 192
3 191 192 193
3 46 44 45
3 46 1 44
3 46 28 1
3 194 28 195
3 196 195 46
3 194 195 196
3 198 197 28
