ply
format ascii 1.0
element vertex 855
property float x
property float y
property float z
element face 811
property list uchar int vertex_index
end_header
13.501556 38.421734 -31.474936
-6.765751 57.933113 -51.214153
17.589762 29.067917 -34.95266
19.173136 20.260698 -28.658756
-15.656381 44.229809 -52.352444
-2.205631 46.025127 -52.721394
10.278909 43.411259 -47.006283
14.753637 37.472233 -41.211712
-14.560674 57.515198 -52.515133
-2.588588 69.591805 -47.832043
19.537027 13.339046 -22.03451
-8.926097 44.747826 -52.946301
8.721534 39.164883 -55.98106
16.698603 23.728895 -27.252743
17.205872 19.597523 -24.599867
12.694709 41.893986 -39.316936
14.112998 37.87606 -36.165794
20.485817 25.994606 -37.014313
19.068977 30.151377 -40.286522
-4.536226 76.291481 -47.717735
-10.802977 58.12912 -52.037537
-11.826715 51.072067 -52.550327
-8.055686 51.529736 -52.235268
-0.016295 41.389221 -54.516262
-3.035122 40.242661 -54.412636
12.59774 39.734653 -49.370541
9.624811 41.331745 -51.713696
14.157102 33.422016 -28.408224
16.03688 28.409618 -30.050537
18.485043 24.561495 -31.728247
21.553907 21.4835 -33.383591
-12.44435 37.510582 -52.59116
-4.419386 51.644806 -51.651707
-0.663879 51.397968 -50.684605
3.286331 42.012886 -54.213032
15.036742 37.395069 -46.593624
16.356121 33.426601 -38.076279
17.287556 34.05043 -43.662697
-9.249566 64.486679 -51.137939
-7.233221 70.844696 -49.713158
-4.837725 63.73138 -49.765312
13.483118 33.680874 -24.39291
17.325132 16.647635 -21.845013
-15.302791 51.102924 -52.604153
-12.358906 44.517128 -52.71669
-9.409166 38.334316 -53.26984
-5.509336 45.429459 -52.966743
-6.248806 39.298683 -53.893345
7.50898 45.082863 -49.285118
6.429564 42.011696 -53.356174
5.351575 38.772797 -56.926365
19.41856 16.504137 -25.31613
16.192823 21.389696 -24.076124
16.351789 19.627478 -22.872217
13.051982 40.908585 -33.058899
13.222508 40.48901 -35.315857
13.745407 38.281487 -33.750843
-8.854052 57.915665 -51.70216
-9.372482 54.745644 -52.085327
-7.464293 54.656776 -51.781967
1.047975 39.422447 -55.68964
-0.454954 38.853092 -55.573311
13.874243 38.234241 -50.724979
12.310881 39.196274 -51.989182
17.874529 21.921776 -28.00028
17.591269 24.055183 -29.463293
18.955683 22.252005 -30.242022
19.951641 22.910383 -32.544498
20.363384 20.796787 -30.988771
-17.329863 44.579933 -52.124805
-17.542717 41.377914 -51.783585
-15.798517 40.951012 -52.109165
-14.018003 40.713737 -52.422291
2.185599 44.054649 -53.053989
3.775328 43.984558 -52.704578
13.775928 39.296471 -42.827259
13.857929 38.983917 -45.433525
14.963898 37.403446 -43.979111
16.286312 31.093664 -33.973938
15.719032 33.477089 -35.578976
17.041096 31.268528 -36.581345
19.673874 30.770187 -43.016453
18.255657 32.183098 -42.130978
18.746679 32.601986 -44.820572
17.642385 34.316444 -46.448692
-11.233508 64.362076 -51.627773
-10.473772 67.957306 -51.093121
-3.669834 73.042976 -47.846539
-6.022081 73.567802 -48.835117
-4.952454 70.354095 -48.856533
-6.001964 67.312637 -49.726002
-3.85927 66.930542 -48.866806
-2.902917 63.516415 -48.951756
-1.675629 66.032867 -47.906422
-16.463722 57.499294 -52.629559
-16.736147 54.21265 -52.63261
-15.060726 54.326794 -52.605286
-10.317771 48.069504 -52.6726
-12.079716 47.917114 -52.669704
-10.663384 44.708912 -52.842239
-10.856547 41.36956 -52.930569
-9.254285 41.639378 -53.140289
-3.271542 48.723854 -52.092716
-5.020429 48.700668 -52.323765
-3.848085 45.791393 -52.873352
-4.623341 39.668438 -54.199081
-4.95987 36.889118 -54.630653
8.950401 44.399063 -48.139172
9.210777 40.273403 -53.904751
8.03511 41.830597 -52.555729
7.583994 40.459362 -54.631912
5.906688 40.485771 -55.13279
7.037131 39.107323 -56.521713
18.354805 14.938001 -21.885479
18.336597 16.342569 -23.419025
19.545048 14.855602 -23.757275
15.695475 25.833874 -26.645046
15.957536 23.537985 -25.345364
16.946207 21.581692 -25.874153
18.066757 19.874098 -26.443823
-17.155005 47.761784 -52.373627
12.605894 42.55164 -36.827606
13.473065 39.925804 -37.71941
18.961226 27.323032 -35.820499
18.435442 29.503881 -37.663242
19.873419 28.010212 -38.629059
-3.138084 78.964203 -46.509724
-12.703854 58.076931 -52.308228
-13.120691 54.46204 -52.497578
-11.283476 54.665516 -52.32531
-9.949242 51.505085 -52.413765
-8.644605 48.232346 -52.62648
-1.108314 43.656319 -53.496468
-2.667331 43.149399 -53.608139
-1.512718 40.844452 -54.519749
-1.896648 38.047337 -55.421791
11.314211 41.552402 -48.12801
9.949978 42.393517 -49.420147
11.093491 40.729912 -50.544327
10.784547 39.91531 -52.884331
10.400208 38.988537 -55.246399
20.848688 13.333374 -23.914371
13.881401 35.831997 -29.9254
14.265712 35.725758 -32.272511
14.674098 33.170597 -30.636385
15.651365 30.838766 -31.55899
16.838945 28.616817 -32.469662
16.438026 25.968742 -28.694178
17.184593 26.491869 -31.005571
18.141506 26.72366 -33.374405
19.605026 25.02919 -34.290104
21.080328 23.621603 -35.096451
-19.205109 41.638191 -51.397293
-4.744949 57.6731 -50.659588
-5.581295 54.71954 -51.36887
-0.499456 46.1339 -52.50248
0.551196 43.646591 -53.465019
1.639277 41.785622 -54.41877
2.628823 39.942478 -55.657734
10.58864 44.338852 -44.620419
11.690456 43.031929 -43.130093
12.686348 40.303417 -46.844608
13.911024 38.623821 -48.029079
15.231706 37.125206 -49.344135
15.190147 35.565742 -37.361382
15.617129 35.519581 -39.741993
17.672783 31.764908 -39.391171
16.911438 33.675224 -40.91074
15.9643 35.639397 -42.453217
16.313305 35.678055 -45.214493
16.396404 35.895073 -47.85957
-10.08689 61.230938 -51.656273
-7.971127 61.218315 -51.144226
-6.935414 76.915146 -48.638054
-8.288783 74.223595 -49.602375
-9.409351 71.038704 -50.423927
-8.212267 67.651649 -50.467121
-7.001198 64.352554 -50.476158
-5.831938 60.820461 -50.5476
-3.739344 60.518024 -49.819103
12.941226 41.205299 -30.805103
13.247703 38.849426 -29.310736
13.505356 36.31636 -27.752357
13.763568 33.635963 -26.409342
14.006728 30.851791 -25.037498
13.684813 30.832005 -23.157097
16.419107 18.308096 -21.679235
17.280674 15.448832 -20.287537
-17.035984 51.080112 -52.544601
-15.586492 47.777466 -52.5168
-13.599918 51.173706 -52.600082
-13.879304 47.696445 -52.615723
-14.069263 44.323055 -52.549976
-12.453017 41.038631 -52.69096
-6.137774 51.605961 -51.96748
-6.773894 48.332733 -52.530323
-7.271711 45.035702 -52.990875
-4.205596 42.682953 -53.6012
-5.823723 42.262897 -53.506073
-7.542405 41.825809 -53.350666
-7.791706 38.78508 -53.603386
8.464456 43.146034 -50.429066
6.974022 43.558678 -51.382603
5.405552 43.828838 -52.142864
4.869245 42.025818 -53.914089
4.238549 40.151749 -55.607819
6.467839 37.574013 -58.365643
17.253048 18.051128 -23.205515
18.221628 17.973936 -24.891226
19.295418 18.317987 -26.954556
20.789867 15.005111 -25.654247
20.659441 16.802553 -27.355831
20.503557 18.676767 -29.04557
21.793085 19.39608 -31.466534
16.061087 19.725389 -22.259917
15.948788 20.469141 -22.640391
0.797917 38.18131 -56.274938
1.567961 38.548872 -56.370653
13.748326 38.050506 -52.079517
14.515634 37.60905 -51.368864
4.14999 44.92749 -51.869272
3.326755 45.117517 -52.139616
14.264782 38.384352 -42.019486
13.686602 39.499128 -41.530005
14.175456 38.58701 -40.722231
19.572225 31.880093 -45.306936
19.210276 31.686086 -43.918512
20.035822 30.964194 -44.404877
18.963513 32.779583 -46.16602
19.572225 31.880093 -45.306936
-11.118367 69.676491 -51.058543
-11.531623 67.971054 -51.338079
-4.352227 35.708689 -55.110895
-4.211769 37.142729 -54.841858
-4.99702 35.326559 -54.857727
-4.352227 35.708689 -55.110895
9.614655 43.905161 -47.572727
9.149155 45.011444 -46.995115
9.81341 44.517542 -46.428671
15.615353 23.502007 -24.408152
15.487291 24.658192 -24.982078
-17.886497 49.347323 -52.393198
-18.004822 47.903447 -52.269596
12.559012 42.931387 -35.676928
12.257807 43.953049 -36.514764
14.26062 37.81071 -37.43988
13.940654 38.835583 -38.216688
13.793031 38.900932 -36.942602
-2.355908 80.032387 -45.845425
-3.597494 80.542866 -46.369312
-1.367836 37.114916 -55.98968
-1.175801 38.450215 -55.497551
-0.646989 37.517793 -56.065439
-2.124678 36.669237 -55.765487
-1.367836 37.114916 -55.98968
11.405504 39.218237 -53.687055
11.547714 39.555792 -52.436757
12.168671 38.858719 -53.239481
11.213334 38.754851 -54.868089
10.592377 39.451923 -54.065365
11.405504 39.218237 -53.687055
15.844123 29.624192 -30.804763
15.328311 30.790578 -30.355266
15.521069 29.576004 -29.60104
22.125954 21.958521 -34.692701
21.889165 23.027572 -35.549132
21.317118 22.552551 -34.240021
-19.157091 43.304062 -51.607473
-19.95387 43.474539 -51.423073
-17.537843 39.654485 -51.586058
-16.710021 39.565259 -51.794052
-12.482421 35.948995 -52.495128
-13.319088 37.502915 -52.389721
-11.616174 35.905758 -52.746075
-12.482421 35.948995 -52.495128
-4.193473 56.094639 -50.766644
-3.759189 57.590466 -50.312264
-1.6102 51.45537 -50.961374
-1.250968 52.867666 -50.49177
-1.037602 50.099859 -51.204962
-1.6102 51.45537 -50.961374
0.349208 46.14205 -52.333517
-0.108197 47.336327 -51.940815
0.874534 44.898395 -52.814787
0.02587 44.890245 -52.98375
0.349208 46.14205 -52.333517
10.671598 44.874265 -43.465599
10.141976 45.549335 -44.151579
12.225015 42.865127 -40.0389
12.279183 43.217083 -38.841659
12.200536 41.950397 -43.734572
12.185 42.263586 -42.423411
11.638819 42.631632 -44.362217
12.200536 41.950397 -43.734572
12.698482 40.586141 -45.591829
12.136765 41.267376 -46.219475
14.487023 35.669456 -33.48182
14.716992 34.529562 -32.655787
17.129409 35.236437 -48.534325
17.019395 35.105758 -47.154131
17.752399 34.447122 -47.828886
16.495796 35.869547 -49.235922
17.129409 35.236437 -48.534325
-5.73582 76.603313 -48.177894
-6.255375 78.321999 -48.069866
-5.055782 78.010166 -47.609707
-2.353027 61.865416 -48.975861
-1.899633 63.23167 -48.474501
12.743567 42.746282 -30.488424
12.736758 42.441326 -31.551268
13.172482 38.937809 -28.252831
13.043052 40.323309 -28.990138
13.301309 37.671276 -27.473641
13.37653 37.582893 -28.531546
13.172482 38.937809 -28.252831
13.623343 33.658418 -25.401126
13.531142 35.009035 -26.080245
13.390918 35.031491 -25.072029
13.791626 29.521164 -22.635663
13.592261 30.858852 -22.302582
13.961751 29.568056 -23.526837
13.791626 29.521164 -22.635663
17.267048 14.913678 -19.532301
16.79249 15.913244 -19.532276
17.805345 14.555063 -20.29277
17.267048 14.913678 -19.532301
-10.195422 38.14996 -53.098162
-10.919113 39.667581 -52.928526
-10.132857 39.851938 -53.100205
-9.358493 36.680965 -53.316752
-10.195422 38.14996 -53.098162
7.063909 46.235718 -48.739221
7.720047 45.850884 -48.250101
6.782472 45.340372 -49.744213
7.063909 46.235718 -48.739221
4.516366 38.569408 -56.979906
3.959853 39.258885 -56.320633
4.795062 39.462273 -56.267092
7.092581 37.026635 -59.165022
7.323102 37.739727 -58.190573
21.492952 14.338216 -25.794422
20.819277 14.169242 -24.784309
21.522362 13.502347 -24.924484
21.317059 17.104699 -28.487327
21.378597 16.141675 -27.552619
21.239117 18.041806 -29.332196
20.581499 17.73966 -28.2007
21.317059 17.104699 -28.487327
21.883881 18.401463 -30.542678
21.148321 19.036424 -30.256052
21.239117 18.041806 -29.332196
15.869305 21.35025 -23.242345
15.732997 22.427862 -23.773532
16.272306 20.508587 -23.47417
15.869305 21.35025 -23.242345
15.948788 20.469141 -22.640391
13.137245 40.698797 -34.187378
12.867319 41.900072 -34.921053
12.782056 42.109859 -33.792574
21.004047 26.266858 -38.279608
21.306868 25.236016 -37.362048
0.046452 37.896633 -56.216774
0.296511 39.137769 -55.631475
0.797917 38.18131 -56.274938
-0.646989 37.517793 -56.065439
0.046452 37.896633 -56.216774
12.966645 38.531523 -52.711619
13.092562 38.715257 -51.35708
13.748326 38.050506 -52.079517
12.168671 38.858719 -53.239481
12.966645 38.531523 -52.711619
14.58118 32.082203 -28.779884
14.314646 32.077621 -27.725676
15.711903 28.331207 -29.001024
15.521069 29.576004 -29.60104
-17.43629 42.978923 -51.954195
-18.325895 43.173924 -51.800619
-18.219468 44.774933 -51.971229
-15.837921 39.351809 -51.956842
-16.710021 39.565259 -51.794052
-16.670617 41.164463 -51.946375
-14.996171 39.223129 -52.148724
-15.837921 39.351809 -51.956842
-14.105915 39.104492 -52.305287
-14.996171 39.223129 -52.148724
-14.90826 40.832375 -52.265728
-13.231177 39.11216 -52.506726
-13.319088 37.502915 -52.389721
-14.105915 39.104492 -52.305287
-0.333296 52.674892 -50.152862
-1.250968 52.867666 -50.49177
2.53189 45.152563 -52.314322
1.691736 45.102424 -52.609272
2.980463 44.019604 -52.879283
2.53189 45.152563 -52.314322
3.326755 45.117517 -52.139616
12.687127 41.694615 -40.516832
13.145992 40.797886 -39.774843
13.227736 40.395857 -42.271994
13.686602 39.499128 -41.530005
13.243272 40.082668 -43.583154
13.227736 40.395857 -42.271994
13.816928 39.140194 -44.130392
13.284273 39.926391 -44.886288
13.243272 40.082668 -43.583154
16.002672 32.285376 -34.776457
15.443652 33.405227 -34.309019
15.727292 32.213515 -33.5065
18.411366 33.636812 -46.98008
18.194532 33.459215 -45.634632
18.963513 32.779583 -46.16602
17.752399 34.447122 -47.828886
18.411366 33.636812 -46.98008
-11.91149 66.173439 -51.605406
-12.32534 64.540581 -51.820486
-10.85364 66.159691 -51.360447
-11.91149 66.173439 -51.605406
-11.531623 67.971054 -51.338079
-1.285989 64.489897 -47.951834
-1.899633 63.23167 -48.474501
-2.289273 64.774641 -48.429089
13.328936 35.202509 -24.143405
13.390918 35.031491 -25.072029
-16.599934 55.855972 -52.631085
-17.395207 55.626409 -52.645347
-17.258994 57.269731 -52.643822
-4.043505 38.532388 -54.626071
-3.829231 39.95555 -54.305858
-3.249395 38.8195 -54.732849
-4.791605 38.278778 -54.414867
-4.043505 38.532388 -54.626071
-4.211769 37.142729 -54.841858
-5.648552 36.524744 -54.445877
-6.29302 37.729526 -54.077223
-5.604338 38.093901 -54.261999
-5.648552 36.524744 -54.445877
-4.99702 35.326559 -54.857727
8.440758 45.508983 -47.677128
9.149155 45.011444 -46.995115
8.229691 44.740963 -48.712145
7.720047 45.850884 -48.250101
8.440758 45.508983 -47.677128
15.356261 25.806137 -25.631919
15.246703 26.96189 -26.254058
15.826505 24.68593 -25.995205
15.356261 25.806137 -25.631919
15.487291 24.658192 -24.982078
16.07518 22.46384 -24.710744
15.615353 23.502007 -24.408152
15.732997 22.427862 -23.773532
-18.092251 46.312521 -52.145185
-18.219468 44.774933 -51.971229
-17.242434 46.170858 -52.249216
-18.092251 46.312521 -52.145185
-18.004822 47.903447 -52.269596
12.234775 43.54591 -37.596995
12.257807 43.953049 -36.514764
12.650301 42.222813 -38.072271
12.279183 43.217083 -38.841659
12.234775 43.54591 -37.596995
12.914201 41.520325 -36.071731
12.559012 42.931387 -35.676928
12.867319 41.900072 -34.921053
13.53517 39.813795 -38.97608
13.145992 40.797886 -39.774843
13.083887 40.909895 -38.518173
13.53517 39.813795 -38.97608
13.940654 38.835583 -38.216688
14.58094 37.608797 -39.962839
14.175456 38.58701 -40.722231
20.697848 27.274661 -39.086981
20.179618 27.002409 -37.821686
21.004047 26.266858 -38.279608
20.257267 28.351709 -39.9512
20.697848 27.274661 -39.086981
19.855046 29.422292 -40.779932
19.471198 29.080794 -39.457791
20.257267 28.351709 -39.9512
20.157494 29.731697 -42.144897
19.371426 30.460782 -41.651488
19.855046 29.422292 -40.779932
20.523238 30.060543 -43.509533
20.157494 29.731697 -42.144897
20.035822 30.964194 -44.404877
20.523238 30.060543 -43.509533
-4.356711 79.346527 -47.005701
-3.597494 80.542866 -46.369312
-3.837155 77.627842 -47.113729
-5.055782 78.010166 -47.609707
-4.356711 79.346527 -47.005701
-1.970528 78.397369 -45.976793
-2.355908 80.032387 -45.845425
-2.707963 77.253502 -46.608337
-1.970528 78.397369 -45.976793
-3.407034 75.917141 -47.212343
-3.837155 77.627842 -47.113729
-2.707963 77.253502 -46.608337
-2.973838 74.292889 -47.276745
-4.10303 74.667228 -47.782137
-3.407034 75.917141 -47.212343
-2.520302 72.638488 -47.294491
-2.973838 74.292889 -47.276745
-1.97968 70.912903 -47.287243
-3.129211 71.31739 -47.839291
-2.520302 72.638488 -47.294491
-1.549901 69.173775 -47.307944
-1.97968 70.912903 -47.287243
-2.680159 37.721838 -55.237426
-3.249395 38.8195 -54.732849
-2.465885 39.144999 -54.917214
-2.680159 37.721838 -55.237426
-2.124678 36.669237 -55.765487
20.793093 12.542371 -22.938491
20.192857 13.33621 -22.974441
20.137263 12.545208 -21.99856
21.518506 12.589181 -23.914552
20.793093 12.542371 -22.938491
21.522362 13.502347 -24.924484
21.518506 12.589181 -23.914552
14.921185 33.251981 -31.837724
14.716992 34.529562 -32.655787
14.469905 34.448177 -31.454448
14.839678 31.956494 -29.893964
14.4156 33.296307 -29.522305
14.58118 32.082203 -28.779884
15.162731 32.004682 -31.097687
14.839678 31.956494 -29.893964
15.328311 30.790578 -30.355266
15.409819 32.086066 -32.299026
14.921185 33.251981 -31.837724
15.162731 32.004682 -31.097687
15.968839 30.966215 -32.766464
15.727292 32.213515 -33.5065
15.409819 32.086066 -32.299026
15.5412 27.043335 -27.298279
15.246703 26.96189 -26.254058
15.912475 27.110769 -28.322845
15.5412 27.043335 -27.298279
16.066751 25.901308 -27.669612
16.237453 27.18918 -29.372357
15.711903 28.331207 -29.001024
15.912475 27.110769 -28.322845
21.604123 24.049514 -36.403116
21.306868 25.236016 -37.362048
20.783073 24.808104 -36.055382
21.604123 24.049514 -36.403116
21.889165 23.027572 -35.549132
-20.053332 41.755026 -51.150665
-19.95387 43.474539 -51.423073
-19.245706 39.922506 -51.146918
-20.053332 41.755026 -51.150665
-18.373913 41.508052 -51.590439
-19.157091 43.304062 -51.607473
-18.325895 43.173924 -51.800619
-18.369039 39.784624 -51.392912
-18.373913 41.508052 -51.590439
-17.537843 39.654485 -51.586058
-19.245706 39.922506 -51.146918
-18.369039 39.784624 -51.392912
-4.611645 54.617859 -51.121285
-5.163122 56.19632 -51.014229
-4.193473 56.094639 -50.766644
-4.030691 53.080492 -51.262703
-5.000341 53.182173 -51.510289
-4.611645 54.617859 -51.121285
-3.487953 51.578789 -51.444925
-4.030691 53.080492 -51.262703
-2.914031 50.118313 -51.66543
-3.845464 50.18433 -51.872212
-3.487953 51.578789 -51.444925
-2.341434 48.762802 -51.909018
-2.914031 50.118313 -51.66543
-1.808479 47.413438 -52.223356
-2.738587 47.374491 -52.407055
-2.341434 48.762802 -51.909018
0.149198 51.215101 -50.420908
-0.333296 52.674892 -50.152862
-0.190408 49.968361 -51.031878
0.149198 51.215101 -50.420908
-1.037602 50.099859 -51.204962
-0.190408 49.968361 -51.031878
-0.955391 47.467825 -52.1139
-0.108197 47.336327 -51.940815
-1.352543 46.079513 -52.611937
-1.808479 47.413438 -52.223356
-0.955391 47.467825 -52.1139
1.368397 43.85062 -53.259504
0.874534 44.898395 -52.814787
1.691736 45.102424 -52.609272
2.358385 38.808887 -56.3547
1.567961 38.548872 -56.370653
1.838399 39.682462 -55.673687
9.968275 44.981338 -45.235739
10.141976 45.549335 -44.151579
10.433775 43.875056 -45.813351
9.81341 44.517542 -46.428671
9.968275 44.981338 -45.235739
12.217433 42.665756 -41.238796
12.225015 42.865127 -40.0389
12.687127 41.694615 -40.516832
11.722889 43.434099 -41.945479
12.217433 42.665756 -41.238796
12.185 42.263586 -42.423411
11.222506 44.220804 -42.720437
11.722889 43.434099 -41.945479
11.139548 43.68539 -43.875256
10.671598 44.874265 -43.465599
11.222506 44.220804 -42.720437
11.087911 43.285094 -45.10738
11.139548 43.68539 -43.875256
11.638819 42.631632 -44.362217
10.933046 42.821297 -46.300312
10.433775 43.875056 -45.813351
11.087911 43.285094 -45.10738
11.450696 41.891869 -46.861176
10.79656 42.481831 -47.567147
10.933046 42.821297 -46.300312
12.00028 40.927909 -47.486309
11.450696 41.891869 -46.861176
12.136765 41.267376 -46.219475
13.272139 39.643667 -46.139066
12.698482 40.586141 -45.591829
13.284273 39.926391 -44.886288
15.194365 37.054533 -50.678442
14.515634 37.60905 -51.368864
14.552975 37.679723 -50.034557
14.22687 36.947321 -34.220985
14.00556 37.003622 -33.011677
14.487023 35.669456 -33.48182
14.410666 36.744608 -35.428461
13.929202 38.078773 -34.958319
14.22687 36.947321 -34.220985
15.213683 34.545122 -35.135052
15.443652 33.405227 -34.309019
14.94924 35.589449 -36.026255
15.213683 34.545122 -35.135052
15.45459 34.521416 -36.470179
14.651573 36.720901 -36.763588
14.410666 36.744608 -35.428461
14.94924 35.589449 -36.026255
14.799195 36.655552 -38.037674
14.26062 37.81071 -37.43988
14.651573 36.720901 -36.763588
15.012686 36.632471 -39.22798
14.799195 36.655552 -38.037674
15.403638 35.542662 -38.551687
15.185383 36.495907 -40.476852
14.58094 37.608797 -39.962839
15.012686 36.632471 -39.22798
15.913447 36.484613 -49.978205
15.814055 36.510139 -48.601852
16.495796 35.869547 -49.235922
15.194365 37.054533 -50.678442
15.913447 36.484613 -49.978205
-17.125211 58.961687 -52.628622
-17.258994 57.269731 -52.643822
-16.197981 59.135464 -52.576076
-17.125211 58.961687 -52.628622
-15.246457 59.143416 -52.518863
-15.512198 57.507246 -52.572346
-16.197981 59.135464 -52.576076
-14.326653 59.361746 -52.418957
-15.246457 59.143416 -52.518863
-13.398243 59.642612 -52.315505
-13.632264 57.796064 -52.411681
-14.326653 59.361746 -52.418957
-12.405209 59.713887 -52.169912
-13.398243 59.642612 -52.315505
-11.45477 59.739981 -52.034567
-11.753415 58.103026 -52.172883
-12.405209 59.713887 -52.169912
-11.670036 62.856459 -51.829685
-12.32534 64.540581 -51.820486
-11.096726 61.29089 -51.843935
-11.670036 62.856459 -51.829685
-10.660199 62.796507 -51.642023
-10.444934 59.680029 -51.846905
-11.45477 59.739981 -52.034567
-11.096726 61.29089 -51.843935
-7.480931 78.550236 -48.511278
-6.255375 78.321999 -48.069866
-8.202025 77.273663 -49.024227
-7.480931 78.550236 -48.511278
-8.878709 75.927887 -49.506388
-8.202025 77.273663 -49.024227
-7.612099 75.56937 -49.120215
-9.413846 74.297417 -49.946375
-8.878709 75.927887 -49.506388
-9.97413 72.704971 -50.357151
-9.413846 74.297417 -49.946375
-8.849067 72.631149 -50.013151
-10.586157 71.21719 -50.723945
-9.97413 72.704971 -50.357151
-9.941561 69.498005 -50.758524
-11.118367 69.676491 -51.058543
-10.586157 71.21719 -50.723945
-3.256387 59.012928 -49.892021
-3.759189 57.590466 -50.312264
-4.242147 59.095562 -50.239345
-2.771241 60.36622 -49.409534
-3.32113 62.017219 -49.38543
-2.353027 61.865416 -48.975861
-3.256387 59.012928 -49.892021
-2.771241 60.36622 -49.409534
-1.093421 67.394306 -47.345133
-2.132109 67.812336 -47.869232
-1.549901 69.173775 -47.307944
-0.664281 65.757396 -47.342453
-1.093421 67.394306 -47.345133
-1.285989 64.489897 -47.951834
-0.664281 65.757396 -47.342453
12.792136 42.292969 -32.678165
12.782056 42.109859 -33.792574
12.52221 43.494243 -33.41184
12.996604 41.056942 -31.932001
12.792136 42.292969 -32.678165
12.736758 42.441326 -31.551268
12.889814 41.501245 -29.737322
12.743567 42.746282 -30.488424
13.094465 40.027362 -30.057919
12.889814 41.501245 -29.737322
13.043052 40.323309 -28.990138
13.402037 36.349233 -26.751753
13.301309 37.671276 -27.473641
13.634462 34.976162 -27.080849
13.402037 36.349233 -26.751753
13.531142 35.009035 -26.080245
14.117879 32.184594 -26.726236
14.314646 32.077621 -27.725676
13.960335 33.528989 -27.408783
14.239459 30.792508 -26.040313
14.117879 32.184594 -26.726236
13.885148 32.243877 -25.72342
14.40233 29.470848 -25.450284
14.239459 30.792508 -26.040313
13.404723 33.760659 -23.50141
13.328936 35.202509 -24.143405
13.505571 32.336224 -22.883503
13.592261 30.858852 -22.302582
13.583965 32.256439 -23.775004
13.404723 33.760659 -23.50141
13.505571 32.336224 -22.883503
14.122709 29.577949 -24.467038
13.845771 30.841898 -24.097297
13.961751 29.568056 -23.526837
14.40233 29.470848 -25.450284
14.122709 29.577949 -24.467038
16.032713 18.768065 -21.103216
16.094746 19.065697 -21.663426
16.395318 17.798659 -20.985879
16.032713 18.768065 -21.103216
16.84833 16.968428 -21.068769
16.87212 17.477866 -21.762124
16.395318 17.798659 -20.985879
16.826102 16.369027 -20.290031
16.79249 15.913244 -19.532276
17.302903 16.048234 -21.066275
16.84833 16.968428 -21.068769
16.826102 16.369027 -20.290031
18.34241 14.299647 -21.091741
17.81774 15.193416 -21.086508
17.805345 14.555063 -20.29277
18.933521 13.50017 -21.166257
18.945916 14.138523 -21.959995
18.34241 14.299647 -21.091741
19.496401 12.645707 -21.137058
18.933521 13.50017 -21.166257
20.096637 11.851869 -21.101108
20.137263 12.545208 -21.99856
19.496401 12.645707 -21.137058
-17.545285 54.122572 -52.609621
-17.395207 55.626409 -52.645347
-17.695203 52.556303 -52.565617
-17.545285 54.122572 -52.609621
-16.886066 52.646381 -52.588605
-17.826987 51.006487 -52.478685
-17.695203 52.556303 -52.565617
-17.095495 49.420948 -52.459114
-17.886497 49.347323 -52.393198
-17.826987 51.006487 -52.478685
-11.717347 39.502117 -52.808721
-11.654782 41.204096 -52.810764
-10.919113 39.667581 -52.928526
-11.713014 37.738093 -52.758821
-12.448683 39.274607 -52.64106
-11.717347 39.502117 -52.808721
-11.616174 35.905758 -52.746075
-11.713014 37.738093 -52.758821
-7.06447 37.472725 -53.932243
-7.020256 39.041882 -53.748365
-6.29302 37.729526 -54.077223
-7.821702 37.160475 -53.704775
-7.06447 37.472725 -53.932243
-8.630433 36.935093 -53.538002
-8.600436 38.559698 -53.436613
-7.821702 37.160475 -53.704775
-9.358493 36.680965 -53.316752
-8.630433 36.935093 -53.538002
6.514993 44.57828 -50.792956
6.782472 45.340372 -49.744213
7.241501 44.320771 -50.333861
5.730758 44.713359 -51.173086
6.514993 44.57828 -50.792956
6.189787 43.693758 -51.762734
4.965102 44.84963 -51.588415
5.730758 44.713359 -51.173086
4.59044 43.906698 -52.423721
4.14999 44.92749 -51.869272
4.965102 44.84963 -51.588415
3.15499 39.154249 -56.345591
3.433686 40.047114 -55.632776
3.959853 39.258885 -56.320633
2.358385 38.808887 -56.3547
3.15499 39.154249 -56.345591
11.018043 38.394249 -56.020842
11.213334 38.754851 -54.868089
10.131625 38.487589 -56.371071
11.018043 38.394249 -56.020842
9.292288 38.575762 -56.738401
9.560871 39.07671 -55.613729
10.131625 38.487589 -56.371071
8.449949 38.535162 -56.998282
9.292288 38.575762 -56.738401
7.607748 38.506382 -57.268608
7.879333 39.136103 -56.251386
8.449949 38.535162 -56.998282
6.752485 38.340668 -57.443678
7.607748 38.506382 -57.268608
7.323102 37.739727 -58.190573
6.269347 36.711861 -59.284067
7.092581 37.026635 -59.165022
5.610609 37.232169 -58.504157
6.269347 36.711861 -59.284067
5.052478 37.83156 -57.784517
5.909707 38.173405 -57.646004
5.610609 37.232169 -58.504157
4.516366 38.569408 -56.979906
5.052478 37.83156 -57.784517
16.385448 18.967787 -22.275726
16.061087 19.725389 -22.259917
16.094746 19.065697 -21.663426
21.44381 15.242953 -26.701827
21.492952 14.338216 -25.794422
20.724654 15.903832 -26.505039
21.44381 15.242953 -26.701827
21.378597 16.141675 -27.552619
22.618826 18.754872 -31.759526
21.883881 18.401463 -30.542678
22.420471 19.827118 -32.706459
22.618826 18.754872 -31.759526
22.300882 20.870828 -33.664988
21.673496 20.43979 -32.425063
22.420471 19.827118 -32.706459
22.125954 21.958521 -34.692701
22.300882 20.870828 -33.664988
3 214 53 215
3 0 56 54
3 1 59 57
3 217 216 60
3 219 218 62
3 3 66 64
3 3 68 66
3 4 71 69
3 4 72 71
3 220 74 221
3 7 222 224
3 222 75 223
3 222 223 224
3 7 77 75
3 2 80 78
3 225 83 226
3 227 226 81
3 225 226 227
3 229 228 83
3 230 86 231
3 9 89 87
3 9 91 89
3 9 93 91
3 8 96 94
3 11 99 97
3 11 101 99
3 5 104 102
3 232 106 233
3 235 234 106
3 6 236 238
3 236 107 237
3 236 237 238
3 12 110 108
3 12 112 110
3 10 115 113
3 239 117 240
3 14 118 52
3 14 119 118
3 241 120 242
3 243 121 244
3 16 122 55
3 16 245 247
3 247 246 122
3 245 246 247
3 17 125 123
3 248 126 249
3 20 129 127
3 22 130 58
3 22 131 130
3 23 134 132
3 250 135 251
3 252 251 61
3 250 251 252
3 254 253 135
3 25 138 136
3 255 139 256
3 257 256 63
3 255 256 257
3 258 140 259
3 260 259 139
3 258 259 260
3 27 144 142
3 28 261 263
3 261 145 262
3 261 262 263
3 28 146 145
3 13 147 116
3 29 148 65
3 29 149 148
3 29 150 149
3 30 151 67
3 30 264 266
3 266 265 151
3 264 265 266
3 267 152 268
3 270 269 70
3 31 271 272
3 31 273 274
3 276 275 153
3 33 277 278
3 33 279 280
3 281 155 282
3 283 156 284
3 285 284 155
3 283 284 285
3 34 157 73
3 34 158 157
3 286 159 287
3 15 288 289
3 290 160 291
3 293 292 160
3 294 161 295
3 35 162 76
3 35 163 162
3 297 296 143
3 36 164 79
3 36 165 164
3 18 166 124
3 37 167 82
3 37 168 167
3 37 169 168
3 298 170 299
3 300 299 84
3 298 299 300
3 302 301 170
3 38 171 85
3 38 172 171
3 19 303 305
3 303 173 304
3 303 304 305
3 39 174 88
3 39 175 174
3 39 176 175
3 40 177 90
3 40 178 177
3 40 179 178
3 307 306 92
3 308 180 309
3 310 181 311
3 312 182 313
3 314 313 181
3 312 313 314
3 41 315 317
3 315 183 316
3 315 316 317
3 41 184 183
3 318 185 319
3 321 320 185
3 322 187 323
3 325 324 187
3 43 188 95
3 43 189 188
3 21 190 128
3 44 191 98
3 44 192 191
3 44 193 192
3 45 326 328
3 328 327 100
3 326 327 328
3 45 329 330
3 32 194 154
3 46 195 103
3 46 196 195
3 24 197 133
3 47 198 105
3 47 199 198
3 47 200 199
3 48 331 332
3 48 333 334
3 26 201 137
3 49 202 109
3 49 203 202
3 49 204 203
3 50 205 111
3 50 335 337
3 337 336 205
3 335 336 337
3 338 206 339
3 42 207 186
3 51 208 114
3 51 209 208
3 340 210 341
3 342 341 141
3 340 341 342
3 343 211 344
3 345 212 346
3 347 346 211
3 345 346 347
3 348 213 349
3 350 349 212
3 348 349 350
3 351 52 352
3 53 353 355
3 353 52 354
3 353 354 355
3 53 14 52
3 54 356 358
3 356 55 357
3 356 357 358
3 56 55 54
3 56 16 55
3 360 359 17
3 57 58 20
3 59 58 57
3 59 22 58
3 60 61 23
3 361 61 362
3 363 362 60
3 361 362 363
3 365 364 61
3 62 63 25
3 366 63 367
3 368 367 62
3 366 367 368
3 370 369 63
3 372 371 27
3 373 28 374
3 64 65 13
3 66 65 64
3 66 29 65
3 66 67 29
3 68 67 66
3 68 30 67
3 69 375 377
3 375 70 376
3 375 376 377
3 71 70 69
3 71 378 380
3 380 379 70
3 378 379 380
3 71 381 382
3 72 383 385
3 385 384 71
3 383 384 385
3 72 386 388
3 386 31 387
3 386 387 388
3 389 33 390
3 391 73 392
3 74 393 395
3 393 73 394
3 393 394 395
3 74 34 73
3 397 396 15
3 75 398 399
3 75 400 401
3 75 402 404
3 402 76 403
3 402 403 404
3 77 76 75
3 77 35 76
3 78 405 407
3 405 79 406
3 405 406 407
3 80 79 78
3 80 36 79
3 81 82 18
3 83 82 81
3 83 37 82
3 83 84 37
3 408 84 409
3 410 409 83
3 408 409 410
3 412 411 84
3 413 85 414
3 86 415 417
3 415 85 416
3 415 416 417
3 86 38 85
3 87 88 19
3 89 88 87
3 89 39 88
3 89 90 39
3 91 90 89
3 91 40 90
3 91 92 40
3 93 92 91
3 93 418 420
3 420 419 92
3 418 419 420
3 421 41 422
3 94 423 425
3 423 95 424
3 423 424 425
3 96 95 94
3 96 43 95
3 97 98 21
3 99 98 97
3 99 44 98
3 99 100 44
3 101 100 99
3 101 45 100
3 102 103 32
3 104 103 102
3 104 46 103
3 426 105 427
3 428 427 24
3 426 427 428
3 106 429 431
3 429 105 430
3 429 430 431
3 106 47 105
3 106 432 434
3 434 433 47
3 432 433 434
3 436 435 106
3 107 437 438
3 107 439 441
3 439 48 440
3 439 440 441
3 108 109 26
3 110 109 108
3 110 49 109
3 110 111 49
3 112 111 110
3 112 50 111
3 113 114 42
3 115 114 113
3 115 51 114
3 442 116 443
3 117 444 446
3 444 116 445
3 444 445 446
3 117 13 116
3 52 447 449
3 447 117 448
3 447 448 449
3 118 117 52
3 118 13 117
3 118 64 13
3 119 64 118
3 119 3 64
3 450 69 451
3 120 452 454
3 452 69 453
3 452 453 454
3 120 4 69
3 121 455 456
3 121 457 459
3 457 15 458
3 457 458 459
3 55 460 462
3 460 121 461
3 460 461 462
3 122 121 55
3 122 15 121
3 122 463 465
3 465 464 15
3 463 464 465
3 467 466 122
3 468 7 469
3 123 124 2
3 125 124 123
3 125 18 124
3 470 125 471
3 472 471 17
3 470 471 472
3 473 125 474
3 475 18 476
3 477 476 125
3 475 476 477
3 478 81 479
3 480 479 18
3 478 479 480
3 481 81 482
3 484 483 81
3 126 485 486
3 126 487 489
3 487 19 488
3 487 488 489
3 490 126 491
3 492 126 493
3 494 19 495
3 496 495 126
3 494 495 496
3 497 87 498
3 499 498 19
3 497 498 499
3 500 87 501
3 502 9 503
3 504 503 87
3 502 503 504
3 506 505 9
3 127 128 8
3 129 128 127
3 129 21 128
3 58 129 20
3 130 129 58
3 130 21 129
3 130 97 21
3 131 97 130
3 131 11 97
3 132 133 5
3 134 133 132
3 134 24 133
3 61 134 23
3 135 134 61
3 135 24 134
3 135 507 509
3 509 508 24
3 507 508 509
3 511 510 135
3 136 137 6
3 138 137 136
3 138 26 137
3 63 138 25
3 139 138 63
3 139 26 138
3 139 108 26
3 140 108 139
3 140 12 108
3 512 141 513
3 514 513 10
3 512 513 514
3 515 141 516
3 518 517 141
3 142 143 0
3 144 143 142
3 144 519 521
3 521 520 143
3 519 520 521
3 522 144 523
3 524 523 27
3 522 523 524
3 145 525 527
3 525 144 526
3 525 526 527
3 145 528 530
3 530 529 144
3 528 529 530
3 145 531 533
3 531 78 532
3 531 532 533
3 146 78 145
3 146 2 78
3 116 534 535
3 147 536 538
3 538 537 116
3 536 537 538
3 147 539 541
3 539 28 540
3 539 540 541
3 65 147 13
3 148 147 65
3 148 28 147
3 148 146 28
3 149 146 148
3 149 2 146
3 149 123 2
3 150 123 149
3 150 17 123
3 67 150 29
3 151 150 67
3 151 17 150
3 151 542 544
3 544 543 17
3 542 543 544
3 546 545 151
3 152 547 548
3 152 549 550
3 70 551 553
3 551 152 552
3 551 552 553
3 554 152 555
3 556 555 70
3 554 555 556
3 558 557 152
3 153 154 1
3 559 154 560
3 561 560 153
3 559 560 561
3 562 32 563
3 564 563 154
3 562 563 564
3 565 32 566
3 567 102 568
3 569 568 32
3 567 568 569
3 570 102 571
3 572 5 573
3 574 573 102
3 572 573 574
3 575 33 576
3 577 33 578
3 580 579 33
3 155 581 582
3 155 583 585
3 583 5 584
3 583 584 585
3 155 132 5
3 156 132 155
3 156 23 132
3 73 586 588
3 586 156 587
3 586 587 588
3 157 156 73
3 157 23 156
3 157 60 23
3 158 60 157
3 158 589 591
3 591 590 60
3 589 590 591
3 159 592 593
3 159 594 596
3 594 6 595
3 594 595 596
3 599 598 15
3 597 598 599
3 160 600 602
3 600 601 602
3 160 603 604
3 160 605 607
3 605 159 606
3 605 606 607
3 608 159 609
3 610 609 160
3 608 609 610
3 611 6 612
3 613 612 159
3 611 612 613
3 614 136 615
3 616 615 6
3 614 615 616
3 161 617 619
3 617 136 618
3 617 618 619
3 161 25 136
3 76 620 622
3 620 161 621
3 620 621 622
3 162 161 76
3 162 25 161
3 162 62 25
3 163 62 162
3 163 623 625
3 625 624 62
3 623 624 625
3 143 56 0
3 626 56 627
3 628 627 143
3 626 627 628
3 629 16 630
3 631 630 56
3 629 630 631
3 79 632 633
3 164 634 636
3 636 635 79
3 634 635 636
3 164 637 639
3 637 16 638
3 637 638 639
3 164 640 642
3 642 641 16
3 640 641 642
3 165 643 645
3 645 644 164
3 643 644 645
3 165 646 648
3 646 7 647
3 646 647 648
3 124 80 2
3 166 80 124
3 166 36 80
3 82 166 18
3 167 166 82
3 167 36 166
3 167 165 36
3 168 165 167
3 168 7 165
3 168 77 7
3 169 77 168
3 169 35 77
3 84 169 37
3 170 169 84
3 170 35 169
3 170 163 35
3 649 163 650
3 651 650 170
3 649 650 651
3 653 652 163
3 654 94 655
3 656 94 657
3 658 8 659
3 660 659 94
3 658 659 660
3 661 8 662
3 663 127 664
3 665 664 8
3 663 664 665
3 666 127 667
3 668 20 669
3 670 669 127
3 668 669 670
3 85 671 672
3 171 673 675
3 675 674 85
3 673 674 675
3 171 676 678
3 676 20 677
3 676 677 678
3 171 57 20
3 172 57 171
3 172 1 57
3 173 679 680
3 173 681 682
3 88 173 19
3 174 173 88
3 174 683 685
3 685 684 173
3 683 684 685
3 174 686 687
3 175 688 690
3 690 689 174
3 688 689 690
3 175 691 692
3 175 693 695
3 693 86 694
3 693 694 695
3 176 86 175
3 176 38 86
3 90 176 39
3 177 176 90
3 177 38 176
3 177 172 38
3 178 172 177
3 178 1 172
3 178 153 1
3 179 153 178
3 179 696 698
3 698 697 153
3 696 697 698
3 92 179 40
3 699 179 700
3 701 700 92
3 699 700 701
3 703 702 179
3 704 93 705
3 706 705 9
3 704 705 706
3 707 93 708
3 710 709 93
3 711 54 712
3 711 712 713
3 180 714 716
3 714 54 715
3 714 715 716
3 180 0 54
3 717 180 718
3 181 719 721
3 719 180 720
3 719 720 721
3 181 0 180
3 181 142 0
3 182 142 181
3 182 27 142
3 722 182 723
3 183 724 726
3 724 182 725
3 724 725 726
3 183 27 182
3 183 727 729
3 729 728 27
3 727 728 729
3 184 730 732
3 732 731 183
3 730 731 732
3 184 733 734
3 735 41 736
3 185 737 738
3 185 739 741
3 739 41 740
3 739 740 741
3 185 184 41
3 742 184 743
3 744 743 185
3 742 743 744
3 746 745 184
3 747 186 748
3 749 186 750
3 751 42 752
3 753 752 186
3 751 752 753
3 187 754 755
3 187 756 758
3 756 42 757
3 756 757 758
3 187 113 42
3 759 113 760
3 761 760 187
3 759 760 761
3 762 10 763
3 764 763 113
3 762 763 764
3 765 10 766
3 769 768 10
3 767 768 769
3 95 770 771
3 188 772 774
3 774 773 95
3 772 773 774
3 188 775 776
3 188 777 779
3 777 120 778
3 777 778 779
3 189 120 188
3 189 4 120
3 128 96 8
3 190 96 128
3 190 43 96
3 98 190 21
3 191 190 98
3 191 43 190
3 191 189 43
3 192 189 191
3 192 4 189
3 192 72 4
3 193 72 192
3 193 31 72
3 100 193 44
3 780 193 781
3 782 781 100
3 780 781 782
3 783 31 784
3 785 784 193
3 783 784 785
3 787 786 31
3 154 59 1
3 194 59 154
3 194 22 59
3 103 194 32
3 195 194 103
3 195 22 194
3 195 131 22
3 196 131 195
3 196 11 131
3 133 104 5
3 197 104 133
3 197 46 104
3 105 197 24
3 198 197 105
3 198 46 197
3 198 196 46
3 199 196 198
3 199 11 196
3 199 101 11
3 200 101 199
3 200 45 101
3 788 200 789
3 790 789 47
3 788 789 790
3 791 200 792
3 793 45 794
3 795 794 200
3 793 794 795
3 797 796 45
3 137 107 6
3 201 107 137
3 201 48 107
3 109 201 26
3 202 201 109
3 202 48 201
3 202 798 800
3 800 799 48
3 798 799 800
3 203 801 803
3 803 802 202
3 801 802 803
3 203 804 805
3 203 806 808
3 806 74 807
3 806 807 808
3 204 74 203
3 204 34 74
3 111 204 49
3 205 204 111
3 205 34 204
3 205 158 34
3 809 158 810
3 811 810 205
3 809 810 811
3 813 812 158
3 814 140 815
3 816 140 817
3 818 12 819
3 820 819 140
3 818 819 820
3 821 12 822
3 823 112 824
3 825 824 12
3 823 824 825
3 206 826 828
3 826 112 827
3 826 827 828
3 206 50 112
3 829 206 830
3 831 206 832
3 833 50 834
3 835 834 206
3 833 834 835
3 837 836 50
3 186 838 840
3 838 53 839
3 838 839 840
3 207 53 186
3 207 14 53
3 114 207 42
3 208 207 114
3 208 14 207
3 208 119 14
3 209 119 208
3 209 3 119
3 141 115 10
3 210 115 141
3 210 51 115
3 841 210 842
3 211 843 845
3 843 210 844
3 843 844 845
3 211 51 210
3 211 209 51
3 212 209 211
3 212 3 209
3 212 68 3
3 213 68 212
3 213 30 68
3 846 213 847
3 848 213 849
3 850 30 851
3 852 851 213
3 850 851 852
3 854 853 30
