ply
format ascii 1.0
element vertex 648
property float x
property float y
property float z
element face 638
property list uchar int vertex_index
end_header
-36.140617 24.743269 -2.762159
-8.31771 55.473354 -37.535313
-26.590322 33.875092 -8.250269
-12.425122 54.121861 -24.873646
-31.960606 28.605862 -5.78777
-14.465016 35.458904 -15.865112
-12.704807 40.438828 -21.537243
-14.900738 50.609085 -18.703987
-29.55978 39.275188 -4.04625
-15.85246 64.37944 -23.019209
-10.309491 55.793217 -31.664524
-34.346104 26.497383 -4.32702
-8.984982 51.662094 -36.743618
-17.490927 38.197914 -12.931623
-15.704782 32.956635 -13.680019
-15.91251 40.720615 -14.79933
-14.559677 43.410576 -17.164331
-16.285452 48.088737 -16.163521
-26.81629 27.396423 -8.042606
-24.071461 29.712093 -9.037519
-21.580307 32.411098 -10.102205
-24.010702 36.718414 -9.429921
-17.45681 62.258091 -19.724245
-12.452987 47.555382 -22.91923
-12.071302 42.363285 -24.894495
-11.580011 49.105259 -26.374393
-10.789449 50.360813 -29.872423
-11.38198 55.44355 -28.254183
-29.222195 31.045712 -7.119814
-13.420637 33.027588 -20.512766
-13.481248 38.18961 -18.552414
-13.420305 45.363052 -19.803753
-13.653937 52.631321 -21.55051
-19.298061 35.260773 -11.402924
-30.840555 34.114994 -5.229895
-28.585329 37.027256 -6.569234
-18.484352 52.733833 -15.215091
-16.901487 55.529472 -17.816648
-15.353825 57.491364 -20.660889
-13.958344 59.415379 -23.849436
-14.122559 65.401917 -26.403276
-12.566044 60.563324 -27.199631
-11.176456 61.094589 -30.650217
-9.247067 56.001606 -34.891094
-12.987142 35.406891 -23.904795
-12.598077 37.648617 -27.662374
-9.941852 51.027637 -33.450451
-35.858509 23.587074 -3.324842
-34.849121 24.098719 -4.236974
-35.38884 25.480682 -3.522968
-8.603057 53.853657 -37.120415
-8.456818 52.171177 -38.188198
-8.085259 54.195 -38.482601
-17.659845 41.897511 -13.459181
-16.683155 39.506409 -13.811818
-16.854191 43.215263 -14.403956
-26.773832 30.536877 -8.194415
-25.48037 28.740551 -8.538354
-25.374027 31.980612 -8.740412
-24.113163 33.388447 -9.2644
-25.312166 35.391354 -8.816738
-12.41248 50.859859 -23.85203
-11.985545 48.271912 -24.674063
-11.9248 51.694824 -25.55138
-11.474218 52.196907 -27.179245
-11.900061 54.910618 -26.570856
-32.373207 25.798111 -5.796213
-30.985126 26.826368 -6.473747
-29.591263 28.087238 -7.078037
-30.640194 29.800699 -6.460022
-15.055541 34.152512 -14.696052
-14.089011 33.171097 -16.597887
-13.69401 34.360935 -17.905735
-13.9672 36.915478 -17.111568
-14.684041 47.096119 -17.935284
-13.94795 44.398041 -18.466822
-14.043346 48.258385 -19.336161
-13.439619 48.981102 -20.741711
-14.252924 51.683689 -20.107439
-21.586914 36.015961 -10.441039
-20.35763 33.745182 -10.726745
-20.503605 37.280502 -11.057575
-19.473169 38.744396 -11.768594
-30.255711 36.72308 -4.647499
-29.748228 35.514904 -5.883706
-29.168932 38.162266 -5.493463
-18.802691 56.339611 -15.927645
-17.665735 54.014778 -16.437744
-17.977751 57.480202 -17.237047
-16.635056 63.257915 -21.320906
-16.346647 59.945427 -20.277931
-15.631886 60.996468 -21.792269
-14.638823 58.533211 -22.24951
-14.89107 61.934082 -23.414854
-13.352017 62.997948 -26.705345
-12.60647 63.544796 -28.460585
-11.91768 60.868813 -28.798819
-11.798856 63.627026 -30.206062
-12.99744 36.742798 -21.007111
-13.169099 34.40115 -22.106884
-12.721889 37.845955 -22.613056
-11.7729 43.236679 -26.778606
-12.242721 39.791214 -26.202906
-11.991109 40.859646 -28.036385
-12.383564 38.709053 -29.627024
-11.729009 41.802876 -30.012817
-10.539385 53.083946 -30.709732
-10.361786 50.750168 -31.731165
-10.062067 53.429501 -32.453697
-9.599533 53.652729 -34.033096
-9.79201 56.000435 -33.276203
-33.213776 27.431387 -5.084584
-9.453408 49.429028 -36.335682
-17.326473 34.137619 -12.40717
-16.535057 35.682106 -13.27213
-15.780096 36.771187 -14.192282
-15.063786 38.049023 -15.301553
-14.460845 39.53228 -16.50481
-15.213411 41.902962 -15.878244
-15.591695 49.429035 -17.373459
-22.850473 31.028906 -9.533398
-22.795238 34.661854 -9.840927
-12.510109 43.87429 -22.249516
-12.387616 41.246075 -23.143606
-12.146056 44.878746 -23.823683
-11.784695 45.678055 -25.576559
-11.446898 46.704472 -27.250359
-11.111233 47.228924 -29.075972
-11.18947 49.643135 -28.10586
-11.029347 52.671524 -28.855457
-10.837894 55.692764 -29.99136
-28.234915 26.29303 -7.528934
-28.180967 29.277239 -7.650536
-27.944113 32.466057 -7.66715
-13.317772 35.478882 -19.463528
-13.058972 39.278133 -20.050997
-13.925947 40.594639 -17.715031
-13.390189 41.711315 -19.158764
-12.927786 43.048447 -20.683096
-12.904797 46.531006 -21.36405
-12.942358 50.311569 -22.288612
-13.04883 53.629486 -23.192368
-18.28299 36.457561 -12.13089
-18.509975 40.276424 -12.572555
-35.810387 26.319923 -2.500782
-34.928329 27.466858 -3.299495
-33.82119 28.884066 -4.077179
-32.663857 30.03064 -4.888502
-31.409657 31.490988 -5.594223
-30.162405 32.619831 -6.317781
-28.944378 34.189194 -6.896219
-27.699579 35.64563 -7.512733
-19.253963 51.145145 -14.083226
-17.372152 50.39817 -15.667619
-16.551231 51.795357 -16.964273
-15.870951 53.159771 -18.248013
-17.232428 59.004185 -18.710884
-16.161358 56.657784 -19.17783
-15.152761 54.169891 -19.610638
-14.459661 55.075455 -21.057835
-13.801051 55.978157 -22.603994
-13.142571 56.788914 -24.271809
-14.989541 65.061096 -24.737007
-14.12359 62.551716 -25.041231
-13.236779 59.996063 -25.520069
-12.478397 57.336563 -25.993746
-11.906801 57.967453 -27.65444
-11.330428 58.436722 -29.33025
-10.674875 58.336212 -31.077101
-10.451955 60.804565 -32.325623
-10.047321 58.47126 -32.820919
-9.492382 58.213482 -34.283951
-8.735191 55.741337 -36.353699
-12.456399 38.970131 -24.406326
-12.780246 36.62899 -25.876959
-10.73413 47.95631 -30.97842
-10.359898 48.356289 -32.8629
-9.925537 48.920334 -34.65696
-9.472488 51.556232 -35.077194
-9.078972 53.773941 -35.700096
-35.999563 24.165171 -3.0435
-36.245495 23.414892 -2.800747
-36.386549 23.99299 -2.519405
-17.388961 44.326706 -14.178873
-17.257018 42.556387 -13.931569
-17.791788 43.667829 -13.706485
-16.96938 44.962486 -14.695747
-17.388961 44.326706 -14.178873
-14.511302 33.665458 -15.612011
-14.806565 33.012262 -15.02748
-14.760279 34.805708 -15.280582
-14.277013 34.315 -16.231499
-14.3233 32.521555 -15.978398
-14.511302 33.665458 -15.612011
-21.134189 38.513039 -10.865471
-21.04526 36.648231 -10.749307
-21.675844 37.880768 -10.557203
-20.57867 39.122978 -11.223712
-21.134189 38.513039 -10.865471
-29.907746 37.999134 -4.346875
-30.405926 37.186322 -3.89504
-30.057961 38.462376 -3.594415
-18.903844 57.963777 -16.324198
-19.324082 57.266934 -15.601173
-18.491374 58.534073 -16.978899
-18.390221 56.909906 -16.582346
-18.903844 57.963777 -16.324198
-12.54679 64.909209 -29.175016
-12.967788 64.763162 -28.298908
-12.142983 64.950323 -30.047754
-12.202663 63.585911 -29.333323
-12.54679 64.909209 -29.175016
-11.740179 42.494326 -28.285922
-11.882005 42.048163 -27.407495
-11.631075 43.682842 -27.657033
-11.609129 42.965941 -29.274138
-11.860059 41.331261 -29.024601
-11.740179 42.494326 -28.285922
-11.45529 43.383505 -30.192255
-11.609129 42.965941 -29.274138
-34.011343 25.720192 -4.686373
-34.262851 24.52086 -4.64135
-34.597612 25.298051 -4.281997
-33.77994 26.964385 -4.705802
-33.445179 26.187194 -5.065155
-34.011343 25.720192 -4.686373
-8.949112 50.778568 -37.372509
-9.183325 49.662035 -37.168541
-9.219195 50.545561 -36.53965
-8.398736 51.233927 -38.871044
-8.171925 52.314244 -38.921768
-15.813367 46.92552 -16.407194
-16.189167 46.386965 -15.82882
-15.938574 48.758886 -16.76849
-15.466489 47.595669 -17.012163
-15.813367 46.92552 -16.407194
-26.132072 26.334566 -8.143436
-26.852165 25.805983 -7.896516
-24.115589 28.0124 -8.866982
-24.820044 27.526629 -8.6174
-24.775915 29.226322 -8.787937
-23.397132 28.594222 -9.129938
-24.115589 28.0124 -8.866982
-23.460967 30.3705 -9.285459
-22.786638 29.252629 -9.377878
-23.397132 28.594222 -9.129938
-23.44509 37.482864 -9.724672
-22.837358 36.454584 -9.930175
-23.40297 35.690134 -9.635424
-29.001852 25.742576 -7.234783
-28.354435 24.685254 -7.355748
-15.700463 31.011351 -13.446831
-16.067898 32.354068 -13.224833
-20.965691 31.236978 -10.199898
-21.560966 30.647409 -9.921411
-19.247607 33.367086 -11.182402
-19.777392 32.60929 -10.844312
-19.827846 34.502978 -11.064834
-18.749285 33.982428 -11.522775
-19.247607 33.367086 -11.182402
-18.790526 35.859167 -11.766907
-18.24175 34.580821 -11.886758
-18.749285 33.982428 -11.522775
-19.099339 41.398399 -12.367033
-18.991572 39.51041 -12.170575
-19.580935 40.632385 -11.965053
-18.6207 42.066153 -12.796834
-19.099339 41.398399 -12.367033
-35.057138 27.941111 -2.652465
-35.369358 26.89339 -2.900138
-35.498167 27.367644 -2.253108
-33.489937 30.071509 -3.865373
-34.014202 29.350877 -3.479471
-32.911271 30.644796 -4.271034
-33.242524 29.457353 -4.482841
-33.489937 30.071509 -3.865373
-31.451304 33.351669 -4.841929
-31.086253 34.632208 -4.558326
-31.125106 32.802991 -5.412059
-31.735855 32.039666 -5.024093
-31.451304 33.351669 -4.841929
-18.869158 51.939489 -14.649158
-19.398604 52.890152 -14.370791
-19.013799 53.684496 -14.936724
-18.3054 50.84667 -14.895285
-18.690205 50.052326 -14.329352
-18.869158 51.939489 -14.649158
-17.928252 51.566001 -15.441355
-17.7493 49.678838 -15.121549
-18.3054 50.84667 -14.895285
-17.344619 60.631138 -19.217565
-17.751193 60.035345 -18.440196
-17.863384 61.662298 -18.946877
-14.531878 66.647297 -26.259335
-14.078577 66.843834 -27.133993
-14.55605 65.231506 -25.570141
-14.965369 66.476887 -25.426201
-14.531878 66.647297 -26.259335
-10.110632 60.797332 -33.155964
-10.306599 62.053535 -33.007988
-9.908314 59.63068 -33.403612
-10.249638 59.637912 -32.573271
-10.110632 60.797332 -33.155964
-9.630845 59.501791 -34.135128
-9.769851 58.342371 -33.552435
-9.908314 59.63068 -33.403612
-13.57232 32.016129 -21.176288
-13.680184 31.251896 -20.312506
-13.279881 33.823679 -23.741324
-13.370859 33.320808 -22.842368
-13.078121 34.904021 -23.00584
-13.218008 34.394633 -24.676712
-13.279881 33.823679 -23.741324
-12.947235 36.099812 -27.49411
-13.03832 35.589998 -26.601402
-12.689162 37.138804 -26.769666
-12.874184 36.646937 -28.500999
-12.947235 36.099812 -27.49411
-12.652818 37.781622 -30.505001
-12.272039 39.170891 -30.654325
-35.353815 23.842897 -3.780908
-35.049453 22.972897 -4.063617
-35.554147 22.717075 -3.60755
-36.086334 22.549954 -3.073796
-36.245495 23.414892 -2.800747
-35.554147 22.717075 -3.60755
-36.086334 22.549954 -3.073796
-7.986146 53.326155 -39.06897
-8.171925 52.314244 -38.921768
-8.271038 53.183088 -38.3354
-16.473537 43.950227 -14.949038
-16.002696 42.702904 -15.146725
-16.38335 41.967939 -14.601643
-16.473537 43.950227 -14.949038
-16.96938 44.962486 -14.695747
-16.68501 47.399223 -15.57553
-16.189167 46.386965 -15.82882
-31.84102 24.903835 -6.035858
-32.550165 24.553997 -5.690677
-31.146979 25.417964 -6.374625
-31.84102 24.903835 -6.035858
-31.679167 26.312239 -6.13498
-30.376958 26.009245 -6.70719
-31.146979 25.417964 -6.374625
-30.288195 27.456803 -6.775892
-29.680026 26.63968 -7.009334
-30.376958 26.009245 -6.70719
-15.081792 32.182825 -14.440842
-15.406413 31.584887 -13.932825
-15.380161 33.554574 -14.188035
-15.081792 32.182825 -14.440842
-14.806565 33.012262 -15.02748
-14.212589 31.233947 -16.362033
-14.3233 32.521555 -15.978398
-14.033375 31.886498 -17.040754
-14.212589 31.233947 -16.362033
-13.89151 33.766016 -17.251811
-13.835874 32.481416 -17.694677
-14.033375 31.886498 -17.040754
-20.063451 39.854925 -11.579221
-19.988387 38.012449 -11.413085
-20.57867 39.122978 -11.223712
-19.580935 40.632385 -11.965053
-20.063451 39.854925 -11.579221
-30.793831 35.936251 -4.267129
-30.405926 37.186322 -3.89504
-30.548133 35.419037 -4.938697
-31.086253 34.632208 -4.558326
-30.793831 35.936251 -4.267129
-19.172968 55.487385 -15.293001
-19.324082 57.266934 -15.601173
-18.643521 54.536722 -15.571368
-19.013799 53.684496 -14.936724
-19.172968 55.487385 -15.293001
-13.725832 65.691723 -27.270254
-14.078577 66.843834 -27.133993
-13.340561 64.489739 -27.421289
-13.737288 64.199933 -26.55431
-13.725832 65.691723 -27.270254
-12.979243 63.271372 -27.582965
-13.340561 64.489739 -27.421289
-12.967788 64.763162 -28.298908
-11.944761 40.717802 -30.847222
-12.272039 39.170891 -30.654325
-12.056286 40.255964 -29.81992
-11.58687 42.222357 -30.987409
-11.944761 40.717802 -30.847222
-11.58687 42.222357 -30.987409
-11.45529 43.383505 -30.192255
-34.440632 23.340204 -4.52274
-35.049453 22.972897 -4.063617
-34.440632 23.340204 -4.52274
-34.262851 24.52086 -4.64135
-33.024895 25.370556 -5.420969
-32.550165 24.553997 -5.690677
-32.793492 26.614749 -5.440399
-33.024895 25.370556 -5.420969
-33.445179 26.187194 -5.065155
-9.496802 48.379216 -37.065861
-9.735543 48.14745 -36.209137
-9.496802 48.379216 -37.065861
-9.183325 49.662035 -37.168541
-8.68503 51.033109 -38.094799
-8.949112 50.778568 -37.372509
-8.7209 51.916635 -37.465908
-8.68503 51.033109 -38.094799
-8.398736 51.233927 -38.871044
-16.878743 32.94456 -12.588408
-17.284393 32.221008 -12.162325
-16.483035 33.716803 -13.020889
-16.878743 32.94456 -12.588408
-16.930765 34.909863 -12.83965
-16.119919 34.31937 -13.476074
-16.067898 32.354068 -13.224833
-16.483035 33.716803 -13.020889
-15.653147 43.294077 -15.686182
-15.56296 41.311789 -15.338787
-16.002696 42.702904 -15.146725
-15.277347 43.832632 -16.264556
-15.653147 43.294077 -15.686182
-14.95048 44.586439 -16.907599
-14.886544 42.656769 -16.521287
-15.277347 43.832632 -16.264556
-15.012662 46.42921 -17.293076
-14.621859 45.253348 -17.549808
-14.95048 44.586439 -16.907599
-15.137868 48.262577 -17.654371
-15.012662 46.42921 -17.293076
-15.466489 47.595669 -17.012163
-25.464112 27.00663 -8.39131
-26.132072 26.334566 -8.143436
-26.14833 28.068487 -8.29048
-25.464112 27.00663 -8.39131
-24.820044 27.526629 -8.6174
-22.196048 29.956313 -9.637007
-22.786638 29.252629 -9.377878
-22.21539 31.720002 -9.817801
-21.560966 30.647409 -9.921411
-22.196048 29.956313 -9.637007
-22.233196 37.131637 -10.230231
-22.191076 35.338907 -10.140983
-22.837358 36.454584 -9.930175
-21.675844 37.880768 -10.557203
-22.233196 37.131637 -10.230231
-29.679903 39.603881 -3.181529
-30.057961 38.462376 -3.594415
-17.967818 63.208963 -19.378073
-17.863384 61.662298 -18.946877
-17.567943 63.882761 -20.22995
-17.967818 63.208963 -19.378073
-17.157066 64.382673 -21.028281
-17.045933 62.758003 -20.522576
-17.567943 63.882761 -20.22995
-16.715316 64.765467 -21.862038
-17.157066 64.382673 -21.028281
-16.324018 65.326229 -22.711189
-16.243758 63.818677 -22.170057
-16.715316 64.765467 -21.862038
-11.468073 45.416739 -27.89291
-11.631075 43.682842 -27.657033
-11.609899 44.970576 -27.014482
-11.279065 46.966698 -28.163165
-11.300241 45.678964 -28.805716
-11.468073 45.416739 -27.89291
-27.561478 25.254287 -7.63968
-28.354435 24.685254 -7.355748
-27.525602 26.844727 -7.78577
-26.852165 25.805983 -7.896516
-27.561478 25.254287 -7.63968
-28.913089 27.190134 -7.303485
-29.001852 25.742576 -7.234783
-29.680026 26.63968 -7.009334
-15.700463 31.011351 -13.446831
-15.406413 31.584887 -13.932825
-13.546217 32.455696 -19.73152
-13.680184 31.251896 -20.312506
-13.682904 33.122369 -18.428005
-13.835874 32.481416 -17.694677
-13.494784 33.681343 -19.206901
-13.682904 33.122369 -18.428005
-13.505891 34.919908 -18.684632
-13.369204 34.253235 -19.988147
-13.546217 32.455696 -19.73152
-13.494784 33.681343 -19.206901
-20.354353 31.90402 -10.512168
-20.965691 31.236978 -10.199898
-20.968969 33.07814 -10.414475
-20.354353 31.90402 -10.512168
-19.777392 32.60929 -10.844312
-17.763492 33.420851 -12.024898
-17.284393 32.221008 -12.162325
-17.804732 35.29759 -12.26903
-17.763492 33.420851 -12.024898
-18.24175 34.580821 -11.886758
-18.195635 42.876696 -13.240147
-18.08491 41.086968 -13.015868
-18.6207 42.066153 -12.796834
-17.791788 43.667829 -13.706485
-18.195635 42.876696 -13.240147
-36.176777 25.625519 -2.129094
-35.975502 25.531596 -2.63147
-36.341892 24.837193 -2.259783
-35.951092 26.562691 -1.828248
-36.176777 25.625519 -2.129094
-35.498167 27.367644 -2.253108
-35.951092 26.562691 -1.828248
-36.341892 24.837193 -2.259783
-36.386549 23.99299 -2.519405
-8.103388 55.865486 -38.019806
-8.328911 56.388506 -37.399786
-34.567771 28.642273 -3.090629
-35.057138 27.941111 -2.652465
-34.374759 28.175462 -3.688337
-34.567771 28.642273 -3.090629
-34.014202 29.350877 -3.479471
-32.362955 31.309492 -4.671233
-32.911271 30.644796 -4.271034
-32.036757 30.760814 -5.241363
-32.362955 31.309492 -4.671233
-31.735855 32.039666 -5.024093
-29.203463 40.616449 -3.582264
-29.679903 39.603881 -3.181529
-29.082778 40.160455 -4.404676
-29.203463 40.616449 -3.582264
-28.887354 39.603994 -5.128283
-29.364356 38.718727 -4.769856
-29.082778 40.160455 -4.404676
-28.644649 39.054608 -5.811974
-28.887354 39.603994 -5.128283
-28.352847 38.487102 -6.349859
-28.87713 37.594761 -6.031349
-28.644649 39.054608 -5.811974
-28.009566 37.800623 -6.905772
-28.352847 38.487102 -6.349859
-27.56669 37.10981 -7.377521
-28.142454 36.336443 -7.040983
-28.009566 37.800623 -6.905772
-27.11101 36.306927 -7.813128
-27.56669 37.10981 -7.377521
-26.556381 35.421658 -8.181897
-27.144951 34.760361 -7.881501
-27.11101 36.306927 -7.813128
-25.917303 36.179789 -8.465131
-25.951244 34.633223 -8.533504
-26.556381 35.421658 -8.181897
-25.301144 36.90435 -8.787777
-25.917303 36.179789 -8.465131
-24.650413 37.567881 -9.094368
-24.661434 36.054884 -9.12333
-25.301144 36.90435 -8.787777
-24.075646 38.436264 -9.416227
-24.650413 37.567881 -9.094368
-23.44509 37.482864 -9.724672
-24.075646 38.436264 -9.416227
-19.827267 52.228107 -13.780819
-19.398604 52.890152 -14.370791
-19.713707 50.41752 -13.529221
-19.827267 52.228107 -13.780819
-19.125284 49.337467 -13.800595
-19.713707 50.41752 -13.529221
-19.125284 49.337467 -13.800595
-18.690205 50.052326 -14.329352
-17.22836 48.553939 -15.327579
-17.7493 49.678838 -15.121549
-16.828802 49.243454 -15.91557
-16.68501 47.399223 -15.57553
-17.22836 48.553939 -15.327579
-18.123855 59.273353 -17.703277
-18.491374 58.534073 -16.978899
-17.605089 58.242193 -17.973965
-18.123855 59.273353 -17.703277
-17.751193 60.035345 -18.440196
-15.888216 65.858593 -23.63153
-16.324018 65.326229 -22.711189
-15.456756 66.199421 -24.490429
-14.965369 66.476887 -25.426201
-15.421 64.720268 -23.878108
-15.888216 65.858593 -23.63153
-15.456756 66.199421 -24.490429
-11.701539 64.94993 -30.921193
-12.142983 64.950323 -30.047754
-11.379556 63.603794 -31.115091
-11.701539 64.94993 -30.921193
-11.068357 62.337576 -31.337169
-11.487656 62.360807 -30.42814
-11.379556 63.603794 -31.115091
-10.706106 62.192564 -32.174872
-10.306599 62.053535 -33.007988
-10.814205 60.949577 -31.48792
-11.068357 62.337576 -31.337169
-10.706106 62.192564 -32.174872
-9.293553 59.225483 -34.898125
-9.630845 59.501791 -34.135128
-9.185247 58.049683 -35.082535
-9.293553 59.225483 -34.898125
-9.06259 56.943745 -35.386106
-9.369725 57.107544 -34.587523
-9.185247 58.049683 -35.082535
-8.806652 56.81361 -36.117409
-8.991129 55.871471 -35.622397
-9.06259 56.943745 -35.386106
-8.537651 56.522498 -36.808979
-8.806652 56.81361 -36.117409
-8.328911 56.388506 -37.399786
-8.52645 55.607346 -36.944506
-8.537651 56.522498 -36.808979
-13.446551 32.702911 -21.973348
-13.57232 32.016129 -21.176288
-13.294868 33.714369 -21.309825
-13.446551 32.702911 -21.973348
-13.370859 33.320808 -22.842368
-13.11456 35.005682 -25.662794
-13.218008 34.394633 -24.676712
-12.883694 36.017941 -24.890877
-13.11456 35.005682 -25.662794
-13.03832 35.589998 -26.601402
-12.766927 37.177155 -29.483324
-12.874184 36.646937 -28.500999
-12.49082 38.178835 -28.644699
-12.766927 37.177155 -29.483324
-12.652818 37.781622 -30.505001
-11.146402 46.096529 -29.723833
-11.300241 45.678964 -28.805716
-10.95785 46.460222 -30.675057
-11.146402 46.096529 -29.723833
-10.922681 47.592617 -30.027196
-10.805455 46.756584 -31.576456
-10.95785 46.460222 -30.675057
-10.618339 46.956573 -32.518696
-10.805455 46.756584 -31.576456
-10.547014 48.1563 -31.92066
-10.41426 47.307199 -33.532919
-10.618339 46.956573 -32.518696
-10.197079 47.589222 -34.429949
-10.41426 47.307199 -33.532919
-10.142717 48.638312 -33.75993
-9.971608 47.893102 -35.369776
-10.197079 47.589222 -34.429949
-9.689473 49.174681 -35.496321
-9.735543 48.14745 -36.209137
-9.971608 47.893102 -35.369776
-7.987163 55.226309 -38.49345
-8.201484 54.834177 -38.008957
-8.103388 55.865486 -38.019806
-7.798332 54.501182 -39.10907
-7.987163 55.226309 -38.49345
-7.986146 53.326155 -39.06897
-7.798332 54.501182 -39.10907
3 0 49 47
3 0 180 182
3 180 47 181
3 180 181 182
3 1 52 50
3 183 55 184
3 185 184 53
3 183 184 185
3 187 186 55
3 2 58 56
3 2 60 58
3 3 63 61
3 3 65 63
3 4 67 66
3 4 69 67
3 5 188 190
3 190 189 70
3 188 189 190
3 5 191 193
3 191 71 192
3 191 192 193
3 5 73 71
3 7 76 74
3 7 78 76
3 194 81 195
3 196 195 79
3 194 195 196
3 198 197 81
3 8 199 201
3 199 83 200
3 199 200 201
3 8 85 83
3 202 86 203
3 204 88 205
3 206 205 86
3 204 205 206
3 9 91 89
3 9 93 91
3 207 95 208
3 209 97 210
3 211 210 95
3 209 210 211
3 6 100 98
3 212 103 213
3 214 213 101
3 212 213 214
3 215 105 216
3 217 216 103
3 215 216 217
3 219 218 105
3 10 108 106
3 10 110 108
3 11 220 222
3 222 221 48
3 220 221 222
3 11 223 225
3 223 111 224
3 223 224 225
3 12 226 228
3 228 227 112
3 226 227 228
3 230 229 51
3 13 114 113
3 15 115 54
3 15 116 115
3 15 118 116
3 17 231 232
3 17 233 235
3 233 119 234
3 233 234 235
3 18 236 237
3 19 238 240
3 240 239 57
3 238 239 240
3 19 241 242
3 19 243 245
3 243 120 244
3 243 244 245
3 21 121 59
3 21 246 248
3 248 247 121
3 246 247 248
3 23 124 122
3 25 125 62
3 25 126 125
3 25 128 126
3 27 129 64
3 27 130 129
3 249 131 250
3 28 132 68
3 28 133 132
3 14 251 252
3 30 134 72
3 30 135 134
3 16 136 117
3 31 137 75
3 31 138 137
3 31 139 138
3 32 140 77
3 32 141 140
3 20 253 254
3 33 255 257
3 257 256 80
3 255 256 257
3 33 258 259
3 33 260 262
3 260 142 261
3 260 261 262
3 263 143 264
3 265 264 82
3 263 264 265
3 267 266 143
3 268 145 269
3 270 269 144
3 268 269 270
3 271 146 272
3 273 147 274
3 275 274 146
3 273 274 275
3 34 276 277
3 34 278 280
3 278 148 279
3 278 279 280
3 34 149 148
3 35 150 84
3 35 151 150
3 36 281 283
3 281 152 282
3 281 282 283
3 36 284 286
3 286 285 152
3 284 285 286
3 36 287 289
3 287 153 288
3 287 288 289
3 37 154 87
3 37 155 154
3 22 290 292
3 290 156 291
3 290 291 292
3 38 157 90
3 38 158 157
3 38 159 158
3 39 160 92
3 39 161 160
3 40 293 294
3 40 295 297
3 295 162 296
3 295 296 297
3 40 163 162
3 41 164 94
3 41 165 164
3 41 166 165
3 42 167 96
3 42 168 167
3 298 169 299
3 300 170 301
3 302 301 169
3 300 301 302
3 303 171 304
3 305 304 170
3 303 304 305
3 29 306 307
3 44 308 310
3 310 309 99
3 308 309 310
3 44 311 312
3 24 173 123
3 45 174 102
3 45 313 315
3 315 314 174
3 313 314 315
3 45 316 317
3 319 318 104
3 26 175 127
3 46 176 107
3 46 177 176
3 46 178 177
3 43 179 109
3 43 172 179
3 47 320 322
3 320 48 321
3 320 321 322
3 49 48 47
3 49 11 48
3 47 323 324
3 47 325 326
3 50 51 12
3 52 51 50
3 52 327 329
3 329 328 51
3 327 328 329
3 53 54 13
3 55 54 53
3 55 15 54
3 55 330 332
3 332 331 15
3 330 331 332
3 334 333 55
3 335 17 336
3 56 57 18
3 58 57 56
3 58 19 57
3 58 59 19
3 60 59 58
3 60 21 59
3 61 62 23
3 63 62 61
3 63 25 62
3 63 64 25
3 65 64 63
3 65 27 64
3 66 337 338
3 67 339 341
3 341 340 66
3 339 340 341
3 67 342 343
3 67 344 346
3 344 68 345
3 344 345 346
3 69 68 67
3 69 28 68
3 70 347 349
3 349 348 14
3 347 348 349
3 351 350 70
3 71 352 353
3 71 354 355
3 71 356 358
3 356 72 357
3 356 357 358
3 73 72 71
3 73 30 72
3 74 75 16
3 76 75 74
3 76 31 75
3 76 77 31
3 78 77 76
3 78 32 77
3 79 80 20
3 81 80 79
3 81 33 80
3 81 82 33
3 359 82 360
3 361 360 81
3 359 360 361
3 363 362 82
3 83 364 365
3 83 366 368
3 366 34 367
3 366 367 368
3 83 84 34
3 85 84 83
3 85 35 84
3 86 369 370
3 86 371 373
3 371 36 372
3 371 372 373
3 86 87 36
3 88 87 86
3 88 37 87
3 89 90 22
3 91 90 89
3 91 38 90
3 91 92 38
3 93 92 91
3 93 39 92
3 374 40 375
3 376 94 377
3 378 377 40
3 376 377 378
3 95 379 381
3 379 94 380
3 379 380 381
3 95 41 94
3 95 96 41
3 97 96 95
3 97 42 96
3 98 99 29
3 100 99 98
3 100 44 99
3 101 102 24
3 103 102 101
3 103 45 102
3 103 104 45
3 105 104 103
3 105 382 384
3 384 383 104
3 382 383 384
3 105 385 386
3 388 387 105
3 106 107 26
3 108 107 106
3 108 46 107
3 108 109 46
3 110 109 108
3 110 43 109
3 48 389 390
3 392 391 48
3 393 66 394
3 111 395 397
3 395 66 396
3 395 396 397
3 111 4 66
3 112 398 399
3 401 400 112
3 51 402 404
3 404 403 12
3 402 403 404
3 406 405 51
3 113 407 408
3 114 409 411
3 411 410 113
3 409 410 411
3 114 412 414
3 412 14 413
3 412 413 414
3 54 114 13
3 115 114 54
3 115 14 114
3 115 70 14
3 116 70 115
3 116 5 70
3 116 117 5
3 118 117 116
3 118 16 117
3 415 118 416
3 417 416 15
3 415 416 417
3 418 118 419
3 420 16 421
3 422 421 118
3 420 421 422
3 423 74 424
3 425 424 16
3 423 424 425
3 119 426 428
3 426 74 427
3 426 427 428
3 119 7 74
3 57 429 431
3 431 430 18
3 429 430 431
3 433 432 57
3 120 434 435
3 120 436 438
3 436 20 437
3 436 437 438
3 59 120 19
3 121 120 59
3 121 20 120
3 121 79 20
3 439 79 440
3 441 440 121
3 439 440 441
3 443 442 79
3 444 8 445
3 446 22 447
3 448 22 449
3 450 89 451
3 452 451 22
3 450 451 452
3 453 89 454
3 455 9 456
3 457 456 89
3 455 456 457
3 122 123 6
3 124 123 122
3 124 24 123
3 62 124 23
3 125 124 62
3 125 24 124
3 125 101 24
3 126 101 125
3 126 458 460
3 460 459 101
3 458 459 460
3 126 461 463
3 461 127 462
3 461 462 463
3 128 127 126
3 128 26 127
3 64 128 25
3 129 128 64
3 129 26 128
3 129 106 26
3 130 106 129
3 130 10 106
3 131 464 465
3 131 466 468
3 466 18 467
3 466 467 468
3 68 469 471
3 469 131 470
3 469 470 471
3 132 131 68
3 132 18 131
3 132 56 18
3 133 56 132
3 133 2 56
3 473 472 14
3 474 29 475
3 72 476 477
3 134 478 480
3 480 479 72
3 478 479 480
3 134 481 483
3 481 29 482
3 481 482 483
3 134 98 29
3 135 98 134
3 135 6 98
3 117 73 5
3 136 73 117
3 136 30 73
3 75 136 16
3 137 136 75
3 137 30 136
3 137 135 30
3 138 135 137
3 138 6 135
3 138 122 6
3 139 122 138
3 139 23 122
3 77 139 31
3 140 139 77
3 140 23 139
3 140 61 23
3 141 61 140
3 141 3 61
3 80 484 486
3 486 485 20
3 484 485 486
3 488 487 80
3 489 113 490
3 142 491 493
3 491 113 492
3 491 492 493
3 142 13 113
3 82 142 33
3 143 142 82
3 143 13 142
3 143 53 13
3 494 53 495
3 496 495 143
3 494 495 496
3 498 497 53
3 499 144 500
3 501 500 0
3 499 500 501
3 502 144 503
3 505 504 144
3 506 0 507
3 509 508 1
3 144 49 0
3 145 49 144
3 145 11 49
3 510 145 511
3 146 512 514
3 512 145 513
3 512 513 514
3 146 11 145
3 146 111 11
3 147 111 146
3 147 4 111
3 515 147 516
3 148 517 519
3 517 147 518
3 517 518 519
3 148 4 147
3 148 69 4
3 149 69 148
3 149 28 69
3 84 149 34
3 150 149 84
3 150 28 149
3 150 133 28
3 151 133 150
3 151 2 133
3 520 8 521
3 522 8 523
3 524 85 525
3 526 525 8
3 524 525 526
3 527 85 528
3 529 35 530
3 531 530 85
3 529 530 531
3 532 35 533
3 534 151 535
3 536 535 35
3 534 535 536
3 537 151 538
3 539 2 540
3 541 540 151
3 539 540 541
3 542 60 543
3 544 543 2
3 542 543 544
3 545 60 546
3 547 21 548
3 549 548 60
3 547 548 549
3 550 21 551
3 553 552 21
3 152 554 555
3 152 556 557
3 152 558 559
3 561 560 152
3 153 562 563
3 153 564 566
3 564 17 565
3 564 565 566
3 87 153 36
3 154 153 87
3 154 17 153
3 154 119 17
3 155 119 154
3 155 7 119
3 567 88 568
3 156 569 571
3 569 88 570
3 569 570 571
3 156 37 88
3 90 156 22
3 157 156 90
3 157 37 156
3 157 155 37
3 158 155 157
3 158 7 155
3 158 78 7
3 159 78 158
3 159 32 78
3 92 159 38
3 160 159 92
3 160 32 159
3 160 141 32
3 161 141 160
3 161 3 141
3 572 9 573
3 162 574 575
3 162 576 578
3 576 9 577
3 576 577 578
3 162 93 9
3 163 93 162
3 163 39 93
3 94 163 40
3 164 163 94
3 164 39 163
3 164 161 39
3 165 161 164
3 165 3 161
3 165 65 3
3 166 65 165
3 166 27 65
3 96 166 41
3 167 166 96
3 167 27 166
3 167 130 27
3 168 130 167
3 168 10 130
3 579 97 580
3 581 97 582
3 583 42 584
3 585 584 97
3 583 584 585
3 169 586 587
3 169 588 590
3 588 42 589
3 588 589 590
3 169 168 42
3 170 168 169
3 170 10 168
3 170 110 10
3 171 110 170
3 171 43 110
3 591 171 592
3 593 171 594
3 595 43 596
3 597 596 171
3 595 596 597
3 598 172 599
3 600 599 43
3 598 599 600
3 601 172 602
3 603 1 604
3 605 604 172
3 603 604 605
3 99 606 608
3 608 607 29
3 606 607 608
3 610 609 99
3 123 100 6
3 173 100 123
3 173 44 100
3 102 173 24
3 174 173 102
3 174 44 173
3 174 611 613
3 613 612 44
3 611 612 613
3 615 614 174
3 104 616 618
3 618 617 45
3 616 617 618
3 620 619 104
3 127 621 622
3 175 623 625
3 625 624 127
3 623 624 625
3 175 626 627
3 107 175 26
3 176 175 107
3 176 628 630
3 630 629 175
3 628 629 630
3 176 631 632
3 177 633 635
3 635 634 176
3 633 634 635
3 177 636 637
3 177 638 640
3 638 112 639
3 638 639 640
3 178 112 177
3 178 12 112
3 109 178 46
3 179 178 109
3 179 12 178
3 179 50 12
3 172 50 179
3 172 1 50
3 641 52 642
3 643 642 1
3 641 642 643
3 644 52 645
3 647 646 52
