ply
format ascii 1.0
element vertex 149
property float x
property float y
property float z
element face 134
property list uchar int vertex_index
end_header
38.146439 4.984714 -55.381714
39.415913 2.073571 -50.676449
39.241756 5.328503 -47.527035
38.236942 8.657854 -52.50024
36.463966 12.091782 -57.384892
36.045441 7.987721 -60.01115
39.284439 -2.655113 -52.892521
37.640228 -0.025716 -57.346146
38.897015 3.386951 -52.988029
38.886814 5.428097 -51.626595
38.188862 7.234334 -54.107666
37.445667 10.39236 -54.982914
37.371181 8.722048 -56.433353
36.336811 10.136719 -58.785507
37.196438 6.522566 -57.732761
39.810673 -3.927192 -50.656929
36.465218 1.515784 -59.598286
39.827961 0.230132 -48.356949
39.727844 1.96823 -46.802261
39.385361 3.733069 -49.147839
38.776932 7.224813 -50.055038
37.361481 11.950779 -53.462173
36.502754 13.62056 -55.757469
35.0527 11.380279 -61.183815
40.166454 -3.249129 -47.295124
39.848053 -1.665259 -49.679737
39.4002 -0.152708 -51.910366
38.807869 1.131798 -54.119324
37.981022 2.472739 -56.436207
38.55912 -1.265739 -55.146084
38.103447 -3.880084 -56.115311
36.921764 4.051274 -58.723217
35.685165 5.350591 -60.920387
38.140283 9.49959 -51.754299
38.410279 8.783069 -50.531698
38.506937 7.941334 -51.277639
37.799211 10.304317 -52.981206
37.702553 11.146052 -52.235265
38.140283 9.49959 -51.754299
35.969795 13.546585 -57.800572
35.989189 14.310974 -56.98686
36.48336 12.856171 -56.57118
35.924161 12.6641 -58.560944
35.969795 13.546585 -57.800572
35.434299 8.394736 -61.041948
34.937929 10.091015 -61.628281
35.54907 9.684 -60.597482
40.176559 -4.305929 -47.830576
40.287292 -4.975696 -46.708039
40.017359 -3.513994 -49.022883
40.007254 -2.457194 -48.487431
40.176559 -4.305929 -47.830576
38.313647 -5.852448 -55.363453
38.524536 -4.379618 -55.040818
37.83722 -5.216935 -56.421181
38.313647 -5.852448 -55.363453
39.399347 4.363512 -46.400992
39.642391 2.683375 -46.038605
39.4848 3.648367 -47.164648
35.42466 3.983435 -61.275412
36.075192 3.433187 -60.259337
35.814686 2.066032 -60.614361
34.99051 5.932266 -61.936897
35.42466 3.983435 -61.275412
39.932285 -5.815569 -50.121595
39.998669 -4.64496 -49.511478
39.700943 -5.064621 -51.209139
39.932285 -5.815569 -50.121595
39.437826 -4.428581 -52.326935
39.547556 -3.291152 -51.774725
39.700943 -5.064621 -51.209139
39.115032 -3.767133 -53.429423
39.437826 -4.428581 -52.326935
39.122049 6.004318 -46.764084
38.920507 6.941838 -47.963002
36.76763 -0.385085 -58.933273
37.052723 0.745034 -58.472216
37.355135 -1.155835 -57.807203
36.189356 0.073388 -59.882221
36.76763 -0.385085 -58.933273
35.814686 2.066032 -60.614361
36.189356 0.073388 -59.882221
39.777902 1.099181 -47.579605
39.894678 0.388016 -46.440061
39.944737 -0.481033 -47.217405
38.688095 7.889993 -49.227003
38.920507 6.941838 -47.963002
39.009344 6.276658 -48.791037
38.688095 7.889993 -49.227003
38.410279 8.783069 -50.531698
37.271063 12.599543 -52.534549
37.702553 11.146052 -52.235265
36.876217 13.450997 -53.717384
36.785799 14.09976 -52.78976
37.271063 12.599543 -52.534549
36.446854 14.285887 -54.865032
36.876217 13.450997 -53.717384
36.932118 12.78567 -54.609821
35.939476 15.087318 -56.204718
36.446854 14.285887 -54.865032
35.939476 15.087318 -56.204718
35.989189 14.310974 -56.98686
35.860584 11.686568 -59.261252
35.924161 12.6641 -58.560944
36.400388 11.114251 -58.0852
35.218529 12.308349 -60.460406
35.860584 11.686568 -59.261252
35.694755 10.758499 -59.984661
34.513626 13.059849 -61.617398
35.218529 12.308349 -60.460406
34.367098 11.958208 -62.212052
34.513626 13.059849 -61.617398
34.252327 10.668944 -62.656517
34.367098 11.958208 -62.212052
34.937929 10.091015 -61.628281
40.250101 -3.999291 -46.127802
40.370939 -5.725858 -45.540717
40.287292 -4.975696 -46.708039
40.113983 -2.220664 -46.686493
40.250101 -3.999291 -46.127802
39.997208 -1.509498 -47.826037
39.944737 -0.481033 -47.217405
40.113983 -2.220664 -46.686493
39.829363 -2.796225 -50.168333
40.017359 -3.513994 -49.022883
39.998669 -4.64496 -49.511478
38.752372 -3.072446 -54.556204
38.921779 -1.960426 -54.019303
39.115032 -3.767133 -53.429423
38.331283 -2.572912 -55.630697
38.752372 -3.072446 -54.556204
38.524536 -4.379618 -55.040818
37.586745 -3.083019 -57.191786
37.355135 -1.155835 -57.807203
37.871837 -1.9529 -56.730728
37.586745 -3.083019 -57.191786
37.83722 -5.216935 -56.421181
39.828825 1.128928 -45.66816
39.894678 0.388016 -46.440061
39.828825 1.128928 -45.66816
39.642391 2.683375 -46.038605
39.27964 5.039326 -45.638041
39.399347 4.363512 -46.400992
39.122049 6.004318 -46.764084
35.254161 7.076171 -61.496567
35.434299 8.394736 -61.041948
35.865303 6.669156 -60.465768
35.254161 7.076171 -61.496567
34.99051 5.932266 -61.936897
3 0 10 8
3 0 12 10
3 0 14 12
3 1 19 17
3 3 20 9
3 3 33 35
3 35 34 20
3 33 34 35
3 3 36 38
3 36 21 37
3 36 37 38
3 4 22 11
3 4 39 41
3 41 40 22
3 39 40 41
3 4 42 43
3 5 23 13
3 5 44 46
3 46 45 23
3 44 45 46
3 47 24 48
3 49 25 50
3 51 50 24
3 49 50 51
3 6 26 15
3 6 27 26
3 6 29 27
3 52 30 53
3 55 54 30
3 2 56 58
3 58 57 18
3 56 57 58
3 7 31 28
3 59 32 60
3 61 60 16
3 59 60 61
3 63 62 32
3 8 9 1
3 10 9 8
3 10 3 9
3 10 11 3
3 12 11 10
3 12 4 11
3 12 13 4
3 14 13 12
3 14 5 13
3 64 15 65
3 66 15 67
3 68 6 69
3 70 69 15
3 68 69 70
3 72 71 6
3 74 73 2
3 75 16 76
3 77 76 7
3 75 76 77
3 78 16 79
3 81 80 16
3 17 82 84
3 82 18 83
3 82 83 84
3 19 18 17
3 19 2 18
3 9 19 1
3 20 19 9
3 20 2 19
3 20 85 87
3 87 86 2
3 85 86 87
3 89 88 20
3 21 90 91
3 21 92 94
3 92 93 94
3 11 21 3
3 22 21 11
3 22 95 97
3 97 96 21
3 95 96 97
3 22 98 99
3 101 100 22
3 13 102 104
3 104 103 4
3 102 103 104
3 23 105 107
3 107 106 13
3 105 106 107
3 23 108 109
3 23 110 111
3 114 113 23
3 112 113 114
3 24 115 117
3 115 116 117
3 24 118 119
3 24 120 122
3 120 17 121
3 120 121 122
3 25 17 24
3 25 1 17
3 15 123 125
3 123 25 124
3 123 124 125
3 26 25 15
3 26 1 25
3 26 8 1
3 27 8 26
3 27 0 8
3 27 28 0
3 29 28 27
3 29 7 28
3 126 29 127
3 128 127 6
3 126 127 128
3 30 129 131
3 129 29 130
3 129 130 131
3 30 7 29
3 30 132 134
3 134 133 7
3 132 133 134
3 136 135 30
3 18 137 138
3 140 139 18
3 143 142 2
3 141 142 143
3 28 14 0
3 31 14 28
3 31 5 14
3 16 31 7
3 32 31 16
3 32 5 31
3 32 144 146
3 146 145 5
3 144 145 146
3 148 147 32
