ply
format ascii 1.0
element vertex 614
property float x
property float y
property float z
element face 557
property list uchar int vertex_index
end_header
-36.23748 9.134612 22.224791
-30.386616 -47.858967 27.739241
-30.276159 -47.993801 36.287872
-31.356112 -36.445007 25.68078
-34.725315 -7.571092 23.840374
-35.602772 -20.777082 16.563877
-33.866611 -33.575588 8.662981
-30.079599 -53.171291 29.280075
-29.960217 -52.998615 24.748381
-30.509933 -47.707867 23.257046
-31.628489 -24.175354 28.310228
-31.064917 -30.862476 28.859095
-32.176178 -35.558521 21.661152
-34.581547 7.238447 26.394041
-33.881847 -0.840453 27.112886
-35.50106 0.74876 23.321304
-35.07333 -27.442982 12.743294
-30.223713 -52.850487 33.920994
-30.302925 -48.042149 32.147114
-30.978519 -18.118658 31.488857
-32.317379 -16.71244 27.966585
-36.68354 17.651649 20.810091
-30.167894 -43.077381 34.789783
-30.411425 -42.904785 30.736109
-30.674793 -36.872692 29.562943
-30.799004 -42.204433 26.575027
-31.236755 -42.032249 22.291868
-33.06601 -9.267693 27.609165
-33.804829 -15.400208 24.36441
-36.339832 -6.114251 19.843159
-35.37492 -14.186156 20.383707
-34.325211 -21.748318 20.748053
-34.236252 -28.302549 17.057055
-33.542397 -34.348831 13.058416
-32.103783 -40.247459 9.113073
-31.976341 -39.533031 4.897191
-31.59189 -38.552734 0.196476
-30.235735 -50.42305 28.5399
-30.032715 -52.955845 27.067362
-30.230976 -50.356098 26.32477
-30.210363 -50.440346 23.997688
-30.449162 -47.762844 25.501717
-35.402538 7.960333 24.353237
-35.094261 4.144715 24.786983
-35.959099 4.940047 22.644814
-30.314716 -50.212364 37.236263
-30.280941 -52.483871 36.034592
-30.293415 -50.321072 35.040688
-30.262503 -50.666271 32.835613
-30.285158 -47.957752 34.184811
-31.25605 -14.465955 31.354948
-31.62397 -17.615129 29.687527
-31.953028 -13.798199 29.555073
-36.844265 21.805738 19.820078
-30.272791 -42.730141 32.779762
-30.314287 -40.23259 32.025707
-31.282045 -33.626175 27.166016
-30.847628 -33.749233 29.242624
-31.000599 -36.465061 27.701996
-30.769859 -39.570644 28.159216
-31.04574 -39.33374 26.191507
-31.011803 -42.168171 24.450638
-31.353497 -39.173161 24.081451
-31.983608 -38.639599 19.914385
-34.311035 -4.294697 25.486008
-33.491322 -5.130487 27.339708
-33.891941 -8.452744 25.733202
-33.499241 -12.400336 25.872349
-34.299377 -11.689994 24.005854
-36.800365 -1.935486 19.392408
-36.095798 -13.570411 18.345694
-35.520538 -17.522486 18.630461
-34.856617 -18.194395 20.51557
-35.003426 -21.184126 18.679302
-34.383114 -25.014132 18.85804
-34.924133 -24.47003 16.92919
-34.547058 -30.605764 10.756207
-34.319214 -30.903509 12.927932
-33.740959 -33.97316 10.878396
-32.903915 -37.33844 11.091843
-32.976528 -36.975956 8.874529
-32.097927 -39.793953 7.000101
-32.983574 -36.608402 6.775462
-30.559633 -47.643017 21.05372
-31.073849 -24.502691 30.053064
-31.338087 -27.67362 28.505127
-31.757275 -35.869675 23.760973
-34.312912 3.144311 26.624941
-34.733311 -0.145039 25.118982
-35.174362 -3.455963 23.494326
-35.405663 -24.292044 14.653295
-30.151346 -53.091888 31.587477
-30.239628 -50.648235 30.756084
-30.334015 -48.013992 29.931549
-30.187084 -22.253435 33.52813
-30.710302 -21.595123 31.752584
-31.323296 -21.13204 29.881159
-31.992298 -20.478748 28.037792
-36.695507 5.698514 20.723604
-34.923599 11.390144 25.748039
-35.675121 12.315855 23.801481
-35.906666 16.700529 23.053345
-36.45636 13.346634 21.68523
-37.269493 14.388973 19.31628
-30.22035 -45.60955 35.570644
-30.274158 -45.449593 33.487556
-30.346823 -45.449844 31.409485
-30.441898 -45.438625 29.255987
-30.514158 -39.822083 30.176548
-30.584259 -42.559952 28.684519
-30.563721 -45.215839 27.17293
-30.698893 -45.06546 25.03688
-30.845306 -44.892605 22.889452
-30.991978 -44.696461 20.723072
-31.673717 -38.829308 22.057241
-31.486727 -41.621368 20.2006
-33.077763 -2.083049 28.907782
-32.70652 -5.990943 29.131945
-32.300385 -10.070514 29.383553
-32.734581 -13.222408 27.632624
-36.341282 1.222127 21.183586
-35.985363 -2.566291 21.548225
-35.533501 -6.735352 21.929586
-35.83765 -10.104767 20.270731
-35.051994 -11.009907 22.204809
-34.598415 -14.952834 22.358053
-34.155319 -18.428497 22.522778
-33.581722 -31.609491 17.370806
-34.716797 -27.750952 14.890108
-33.979107 -31.31171 15.137114
-33.265751 -34.721581 15.271471
-32.764774 -37.678776 13.28133
-31.822947 -39.077507 2.585059
-30.379299 -41.177322 -1.630559
-29.996037 -40.676765 -3.879376
-29.627003 -39.930859 -6.029637
-29.112274 -39.308964 -8.171144
-31.415195 -12.635743 31.26395
-31.107762 -13.097729 32.070272
-31.763685 -12.301865 30.364013
-31.604539 -14.132077 30.455011
-31.415195 -12.635743 31.26395
-36.884207 24.074075 19.242507
-36.542372 23.484237 20.411651
-37.190432 22.304292 18.658898
-36.884207 24.074075 19.242507
-30.22332 -38.956435 32.746824
-30.22483 -40.317656 33.049413
-35.561655 -19.149784 17.597169
-35.842167 -17.29956 17.562869
-35.883284 -18.926858 16.529577
-29.957321 -54.392421 28.623414
-30.006053 -54.423742 29.772475
-29.854279 -54.235372 25.278788
-29.890528 -54.213988 26.438278
-29.996466 -52.97723 25.907871
-29.779432 -54.328112 24.078813
-29.854279 -54.235372 25.278788
-29.921926 -52.995908 23.644546
-29.779432 -54.328112 24.078813
-30.355705 -49.012918 22.498193
-30.20592 -50.379158 22.868514
-30.360148 -49.074106 23.627367
-30.534783 -47.675442 22.155383
-30.380555 -48.980494 21.39653
-30.355705 -49.012918 22.498193
-34.447229 5.191379 26.509491
-34.057716 4.760862 27.458854
-34.192034 6.80793 27.343404
-30.187146 -53.959231 34.436889
-30.21576 -53.775923 35.493689
-30.252327 -52.667179 34.977793
-30.140809 -54.065781 33.257574
-30.187146 -53.959231 34.436889
-30.18753 -52.971187 32.754236
-30.104626 -54.186481 32.090816
-30.140809 -54.065781 33.257574
-30.056849 -20.960329 34.23362
-29.981918 -22.725129 34.352173
-30.6954 -18.52553 32.336323
-30.813338 -16.784563 32.258319
-30.84441 -19.85689 31.62072
-30.561291 -20.263762 32.468186
-30.6954 -18.52553 32.336323
-32.50293 -18.180061 27.118458
-32.340389 -20.063215 27.154062
-32.154839 -18.595594 28.002188
-35.040108 13.63451 25.431779
-34.653254 13.035839 26.476631
-35.415869 14.097365 24.4585
-35.29936 11.852999 24.77476
-35.040108 13.63451 25.431779
-36.295103 17.176089 21.931718
-36.001129 18.907471 22.574722
-36.389566 19.383032 21.453094
-30.123059 -43.131701 35.846021
-30.081544 -41.918932 35.473421
-30.194122 -44.343466 35.180214
-30.149287 -44.397785 36.236452
-30.123059 -43.131701 35.846021
-30.846308 -30.975278 29.785982
-30.949933 -29.363002 29.59314
-30.572486 -35.493672 30.362687
-30.658904 -33.931942 30.202528
-30.761211 -35.310963 29.402783
-30.522734 -37.037534 30.573452
-30.572486 -35.493672 30.362687
-30.594476 -38.347387 29.869746
-30.442416 -38.51223 30.880254
-30.522734 -37.037534 30.573452
-31.578585 -41.586715 19.136139
-31.735167 -40.130483 20.057493
-31.827025 -40.095831 18.993032
-31.297134 -43.096397 19.339677
-31.578585 -41.586715 19.136139
-33.479805 -1.461751 28.010334
-33.271204 0.132854 28.778084
-33.673246 0.754152 27.880636
-33.430396 -15.83444 25.238003
-33.277602 -14.334504 25.991973
-33.652035 -13.900272 25.118379
-33.604487 -17.430547 24.346861
-33.430396 -15.83444 25.238003
-36.744942 1.678665 20.100465
-36.518394 3.46032 20.953595
-36.922055 3.916859 19.870475
-33.974921 -22.015165 21.757515
-33.889975 -20.355254 22.644877
-34.240265 -20.088408 21.635416
-34.061523 -23.513047 20.833174
-33.974921 -22.015165 21.757515
-33.988838 -28.418249 18.138587
-34.062269 -26.77404 19.039079
-34.309683 -26.658341 17.957547
-33.908987 -29.95602 17.213931
-33.661574 -30.07172 18.295462
-33.988838 -28.418249 18.138587
-32.083759 -40.459086 10.235693
-32.483825 -39.004576 11.225078
-32.503849 -38.792949 10.102458
-31.700758 -41.771782 9.285734
-32.083759 -40.459086 10.235693
-31.660137 -41.604971 8.194926
-31.700758 -41.771782 9.285734
-31.516628 -41.127689 5.031816
-31.577421 -41.25815 6.08327
-32.037134 -39.663492 5.948646
-31.4539 -40.818127 3.893965
-31.516628 -41.127689 5.031816
-31.707418 -38.81512 1.390768
-32.274581 -37.491672 2.364574
-32.159053 -37.229286 1.170283
-31.129606 -40.142319 0.422355
-31.245134 -40.404705 1.616647
-31.707418 -38.81512 1.390768
-30.985594 -39.865028 -0.717041
-30.523311 -41.454612 -0.491163
-31.129606 -40.142319 0.422355
-30.485976 -39.072371 -3.985436
-30.65126 -39.344406 -2.95771
-30.301459 -38.699417 -5.060567
-29.81152 -40.303812 -4.954506
-30.485976 -39.072371 -3.985436
-29.583818 -37.680855 -8.297213
-29.817197 -38.057436 -7.272832
-28.851628 -38.887465 -9.189602
-29.583818 -37.680855 -8.297213
-31.765032 -25.527559 27.526319
-31.953811 -23.736087 27.412226
-30.297829 -51.348118 36.635428
-30.300008 -52.38899 37.098984
-30.316896 -51.253236 37.69982
-30.952103 -14.958212 32.191365
-31.107762 -13.097729 32.070272
-31.117284 -16.292306 31.421903
-30.813338 -16.784563 32.258319
-30.952103 -14.958212 32.191365
-36.469929 21.460076 20.958088
-36.542372 23.484237 20.411651
-36.763903 19.728693 20.315084
-36.389566 19.383032 21.453094
-36.469929 21.460076 20.958088
-37.132532 20.162532 19.172263
-37.05217 18.085487 19.667269
-36.763903 19.728693 20.315084
-37.132532 20.162532 19.172263
-37.190432 22.304292 18.658898
-30.151634 -41.740051 34.431452
-30.081544 -41.918932 35.473421
-30.204082 -41.566431 33.426441
-30.220343 -42.903761 33.784773
-30.151634 -41.740051 34.431452
-30.293539 -41.481366 32.402734
-30.204082 -41.566431 33.426441
-30.22483 -40.317656 33.049413
-32.272579 -37.067365 19.676543
-32.079893 -37.09906 20.787768
-32.368864 -35.526826 20.549926
-32.141256 -38.483643 18.789783
-32.272579 -37.067365 19.676543
-31.827025 -40.095831 18.993032
-32.141256 -38.483643 18.789783
-37.159509 -1.727202 18.319918
-36.974483 0.099859 19.204876
-36.941055 -3.632264 18.584907
-37.159509 -1.727202 18.319918
-36.710788 -5.721646 18.810282
-36.570099 -4.024869 19.617784
-36.941055 -3.632264 18.584907
-36.129796 -15.323522 17.420486
-36.428488 -13.275524 17.289488
-35.808168 -15.546449 18.488078
-36.129796 -15.323522 17.420486
-35.842167 -17.29956 17.562869
-32.066851 -36.930955 0.036865
-32.159053 -37.229286 1.170283
-31.449186 -38.282391 -0.919784
-32.066851 -36.930955 0.036865
-30.32227 -50.13888 38.198681
-30.316896 -51.253236 37.69982
-30.295016 -49.140335 37.765722
-30.32227 -50.13888 38.198681
-30.275737 -48.031053 37.291527
-30.295437 -49.103082 36.762068
-30.295016 -49.140335 37.765722
-29.933879 -54.284698 27.517057
-29.957321 -54.392421 28.623414
-30.056157 -53.063568 28.173718
-29.933879 -54.284698 27.517057
-29.890528 -54.213988 26.438278
-30.046999 -51.716774 23.2692
-29.921926 -52.995908 23.644546
-30.08529 -51.719481 24.373034
-30.046999 -51.716774 23.2692
-30.20592 -50.379158 22.868514
-30.362501 -48.942274 20.240646
-30.380555 -48.980494 21.39653
-30.597771 -47.464216 19.962934
-30.362501 -48.942274 20.240646
-30.954399 -26.183109 30.190124
-30.793805 -24.761145 31.00369
-31.086518 -27.768574 29.416156
-30.954399 -26.183109 30.190124
-31.205968 -26.088155 29.279096
-31.201502 -29.268048 28.682111
-30.949933 -29.363002 29.59314
-31.086518 -27.768574 29.416156
-31.619831 -27.276692 27.623769
-31.483288 -25.924487 28.407677
-31.765032 -25.527559 27.526319
-31.448935 -29.041727 27.738557
-31.619831 -27.276692 27.623769
-31.312349 -30.636155 27.915541
-31.201502 -29.268048 28.682111
-31.448935 -29.041727 27.738557
-31.420913 -32.018005 27.069001
-31.173481 -32.244326 28.012555
-31.312349 -30.636155 27.915541
-31.505203 -33.344006 26.243596
-31.420913 -32.018005 27.069001
-31.542237 -34.753422 25.500978
-31.319078 -35.035591 26.423398
-31.505203 -33.344006 26.243596
-31.742818 -34.465756 24.541075
-31.556694 -36.157341 24.720876
-31.542237 -34.753422 25.500978
-31.972801 -34.250428 23.610647
-31.742818 -34.465756 24.541075
-32.182253 -34.09485 22.560736
-31.966727 -35.714098 22.711063
-31.972801 -34.250428 23.610647
-32.425045 -34.003948 21.505056
-32.182253 -34.09485 22.560736
-32.368864 -35.526826 20.549926
-32.425045 -34.003948 21.505056
-33.888779 2.746534 27.636663
-34.057716 4.760862 27.458854
-34.09738 1.151929 26.868913
-33.673246 0.754152 27.880636
-33.888779 2.746534 27.636663
-35.850269 -20.642533 15.508778
-35.883284 -18.926858 16.529577
-35.751715 -22.400014 14.553486
-35.504217 -22.534563 15.608586
-35.850269 -20.642533 15.508778
-35.627663 -23.954462 13.635568
-35.751715 -22.400014 14.553486
-35.461496 -25.52993 12.680568
-35.239497 -25.867513 13.698294
-35.627663 -23.954462 13.635568
-35.237066 -27.12283 11.745817
-35.461496 -25.52993 12.680568
-34.973931 -28.704222 10.752274
-34.810194 -29.024373 11.749751
-35.237066 -27.12283 11.745817
-34.659315 -30.285105 9.675554
-34.973931 -28.704222 10.752274
-34.319091 -31.770017 8.628941
-34.206834 -32.090676 9.709594
-34.659315 -30.285105 9.675554
-33.904703 -33.331524 7.645751
-34.319091 -31.770017 8.628941
-30.253709 -53.531506 36.532522
-30.300008 -52.38899 37.098984
-30.253709 -53.531506 36.532522
-30.21576 -53.775923 35.493689
-30.041927 -54.38404 30.926175
-30.104626 -54.186481 32.090816
-30.115473 -53.131589 30.433776
-30.006053 -54.423742 29.772475
-30.041927 -54.38404 30.926175
-30.124471 -24.065221 33.606537
-29.981918 -22.725129 34.352173
-30.350423 -23.636518 32.741223
-30.124471 -24.065221 33.606537
-30.299682 -20.592918 33.355959
-30.056849 -20.960329 34.23362
-30.448693 -21.924279 32.640357
-30.299682 -20.592918 33.355959
-30.561291 -20.263762 32.468186
-30.612032 -23.307361 31.853451
-30.350423 -23.636518 32.741223
-30.448693 -21.924279 32.640357
-30.892075 -23.048907 30.902824
-30.793805 -24.761145 31.00369
-30.612032 -23.307361 31.853451
-32.135716 -21.887784 27.276008
-31.953811 -23.736087 27.412226
-31.810393 -22.327051 28.17401
-32.135716 -21.887784 27.276008
-32.340389 -20.063215 27.154062
-36.865536 7.847336 20.375136
-36.466493 7.416563 21.474198
-36.636522 9.565385 21.12573
-37.088646 5.971554 19.596633
-36.865536 7.847336 20.375136
-36.922055 3.916859 19.870475
-37.088646 5.971554 19.596633
-34.356779 8.913083 27.082349
-34.192034 6.80793 27.343404
-34.527805 10.988932 26.759348
-34.653254 13.035839 26.476631
-34.752573 9.314296 26.07104
-34.356779 8.913083 27.082349
-34.527805 10.988932 26.759348
-35.635359 18.421869 23.65505
-36.001129 18.907471 22.574722
-35.531641 16.289702 24.084432
-35.635359 18.421869 23.65505
-35.790893 14.508192 23.427413
-35.415869 14.097365 24.4585
-35.531641 16.289702 24.084432
-36.745962 11.671396 20.85595
-36.636522 9.565385 21.12573
-36.34692 11.240623 21.955011
-37.152529 12.192566 19.671474
-36.745962 11.671396 20.85595
-36.862927 13.867804 20.500755
-37.522621 12.580896 18.557485
-37.152529 12.192566 19.671474
-37.345146 16.454149 18.920364
-36.976517 16.020311 20.063185
-37.05217 18.085487 19.667269
-37.647888 14.739451 18.103746
-37.345146 16.454149 18.920364
-37.522621 12.580896 18.557485
-37.647888 14.739451 18.103746
-30.229081 -46.799481 36.888554
-30.275737 -48.031053 37.291527
-30.201177 -45.607355 36.529939
-30.149287 -44.397785 36.236452
-30.248255 -46.801676 35.929258
-30.229081 -46.799481 36.888554
-30.201177 -45.607355 36.529939
-30.737664 -32.418656 29.977747
-30.846308 -30.975278 29.785982
-30.956273 -32.305854 29.05086
-30.737664 -32.418656 29.977747
-30.658904 -33.931942 30.202528
-30.342481 -38.717484 31.804834
-30.22332 -38.956435 32.746824
-30.414223 -40.027337 31.101127
-30.342481 -38.717484 31.804834
-30.442416 -38.51223 30.880254
-30.813943 -45.990938 19.79761
-30.597771 -47.464216 19.962934
-30.775806 -46.169739 20.888396
-31.049759 -44.633944 19.600913
-31.239352 -43.158914 20.461836
-31.297134 -43.096397 19.339677
-30.813943 -45.990938 19.79761
-31.049759 -44.633944 19.600913
-32.89854 -0.400148 29.660231
-33.271204 0.132854 28.778084
-32.708775 -2.489087 29.78971
-32.89854 -0.400148 29.660231
-32.523153 -4.443034 29.901791
-32.708775 -2.489087 29.78971
-32.892141 -4.036996 29.019863
-32.332964 -6.491848 30.008672
-32.523153 -4.443034 29.901791
-32.129897 -8.531633 30.134476
-32.332964 -6.491848 30.008672
-32.503452 -8.030728 29.257749
-31.937363 -10.438022 30.278253
-32.129897 -8.531633 30.134476
-32.126706 -11.934356 29.469313
-31.763685 -12.301865 30.364013
-31.937363 -10.438022 30.278253
-32.895271 -14.745541 26.87211
-33.116911 -12.811372 26.752486
-33.277602 -14.334504 25.991973
-32.686671 -16.490557 27.039091
-32.52598 -14.967424 27.799605
-32.895271 -14.745541 26.87211
-32.50293 -18.180061 27.118458
-32.686671 -16.490557 27.039091
-36.570824 -0.35668 20.287997
-36.744942 1.678665 20.100465
-36.974483 0.099859 19.204876
-36.485012 -7.766011 18.951276
-36.710788 -5.721646 18.810282
-36.362995 -11.494091 18.202544
-36.428488 -13.275524 17.289488
-36.233921 -9.761268 19.165062
-36.362995 -11.494091 18.202544
-35.966724 -11.837589 19.308213
-36.088741 -8.109509 20.056945
-36.485012 -7.766011 18.951276
-36.233921 -9.761268 19.165062
-33.779731 -18.944691 23.426046
-33.604487 -17.430547 24.346861
-33.980074 -16.914352 23.443594
-33.779731 -18.944691 23.426046
-33.889975 -20.355254 22.644877
-34.090475 -25.145953 19.888168
-34.061523 -23.513047 20.833174
-34.354163 -23.381225 19.803047
-34.090475 -25.145953 19.888168
-34.062269 -26.77404 19.039079
-33.35588 -31.851225 18.377639
-33.661574 -30.07172 18.295462
-33.268946 -33.292108 17.380311
-33.35588 -31.851225 18.377639
-33.11096 -34.848152 16.330644
-33.268946 -33.292108 17.380311
-33.423737 -33.165536 16.321138
-32.914414 -36.363843 15.360477
-33.11096 -34.848152 16.330644
-32.663925 -37.84244 14.365406
-32.914414 -36.363843 15.360477
-33.015263 -36.200178 14.276401
-32.376847 -39.328097 13.426289
-32.663925 -37.84244 14.365406
-32.414255 -39.174744 12.319821
-32.834345 -37.508608 12.186587
-32.483825 -39.004576 11.225078
-32.376847 -39.328097 13.426289
-32.414255 -39.174744 12.319821
-31.657208 -41.378218 7.13844
-31.660137 -41.604971 8.194926
-32.100855 -40.020706 8.056587
-31.657208 -41.378218 7.13844
-31.577421 -41.25815 6.08327
-33.463184 -34.847931 6.701992
-33.425092 -35.091995 7.719221
-33.904703 -33.331524 7.645751
-32.941067 -36.442043 5.653458
-33.463184 -34.847931 6.701992
-32.437451 -37.904358 4.714322
-32.479957 -38.070717 5.836327
-32.941067 -36.442043 5.653458
-32.360754 -37.676595 3.558257
-32.274581 -37.491672 2.364574
-31.899644 -39.305269 3.741125
-32.437451 -37.904358 4.714322
-32.360754 -37.676595 3.558257
-31.377203 -40.590364 2.737899
-31.4539 -40.818127 3.893965
-31.899644 -39.305269 3.741125
-31.377203 -40.590364 2.737899
-31.245134 -40.404705 1.616647
-29.914015 -42.708051 -1.494019
-30.523311 -41.454612 -0.491163
-29.751143 -42.40707 -2.584517
-29.914015 -42.708051 -1.494019
-30.84289 -39.594684 -1.833302
-30.985594 -39.865028 -0.717041
-31.449186 -38.282391 -0.919784
-30.187668 -40.927043 -2.754968
-30.84289 -39.594684 -1.833302
-30.65126 -39.344406 -2.95771
-29.559513 -42.156791 -3.708926
-29.751143 -42.40707 -2.584517
-30.187668 -40.927043 -2.754968
-29.357214 -41.898445 -4.747444
-29.559513 -42.156791 -3.708926
-29.172697 -41.525492 -5.822574
-29.357214 -41.898445 -4.747444
-29.81152 -40.303812 -4.954506
-28.929086 -41.189848 -6.923755
-29.172697 -41.525492 -5.822574
-30.074562 -38.368384 -6.202078
-30.301459 -38.699417 -5.060567
-29.369639 -39.619912 -7.10039
-30.074562 -38.368384 -6.202078
-29.817197 -38.057436 -7.272832
-28.671722 -40.878901 -7.994509
-28.929086 -41.189848 -6.923755
-29.369639 -39.619912 -7.10039
-28.404212 -40.51499 -9.030597
-28.671722 -40.878901 -7.994509
-28.404212 -40.51499 -9.030597
-28.851628 -38.887465 -9.189602
3 1 39 37
3 1 41 39
3 0 44 42
3 2 47 45
3 2 49 47
3 137 50 138
3 139 52 140
3 141 140 50
3 139 140 141
3 142 53 143
3 145 144 53
3 146 55 147
3 3 58 56
3 3 60 58
3 3 62 60
3 4 66 64
3 4 68 66
3 5 148 150
3 148 71 149
3 148 149 150
3 5 73 71
3 5 75 73
3 6 78 76
3 6 80 78
3 6 82 80
3 7 151 152
3 8 153 155
3 155 154 38
3 153 154 155
3 8 156 157
3 8 158 159
3 9 160 162
3 162 161 40
3 160 161 162
3 9 163 165
3 163 83 164
3 163 164 165
3 10 85 84
3 13 166 168
3 166 87 167
3 166 167 168
3 15 88 43
3 15 89 88
3 17 169 171
3 171 170 46
3 169 170 171
3 17 172 173
3 17 174 176
3 174 91 175
3 174 175 176
3 18 92 48
3 18 93 92
3 177 94 178
3 19 179 180
3 19 181 183
3 181 95 182
3 181 182 183
3 19 96 95
3 20 97 51
3 20 184 186
3 186 185 97
3 184 185 186
3 187 99 188
3 189 100 190
3 191 190 99
3 189 190 191
3 21 192 194
3 192 101 193
3 192 193 194
3 21 102 101
3 21 103 102
3 22 195 196
3 22 197 199
3 197 104 198
3 197 198 199
3 22 105 104
3 23 106 54
3 23 107 106
3 11 200 201
3 24 202 204
3 204 203 57
3 202 203 204
3 24 205 206
3 24 207 209
3 207 108 208
3 207 208 209
3 25 109 59
3 25 110 109
3 25 111 110
3 26 112 61
3 26 113 112
3 12 114 86
3 210 115 211
3 212 211 63
3 210 211 212
3 214 213 115
3 14 215 217
3 215 116 216
3 215 216 217
3 27 117 65
3 27 118 117
3 27 119 118
3 28 218 220
3 220 219 67
3 218 219 220
3 28 221 222
3 223 120 224
3 225 224 98
3 223 224 225
3 29 121 69
3 29 122 121
3 30 123 70
3 30 124 123
3 30 125 124
3 31 126 72
3 31 226 228
3 228 227 126
3 226 227 228
3 31 229 230
3 32 231 233
3 233 232 74
3 231 232 233
3 32 234 236
3 234 127 235
3 234 235 236
3 16 128 90
3 33 129 77
3 33 130 129
3 33 131 130
3 34 237 239
3 239 238 79
3 237 238 239
3 34 240 241
3 34 242 243
3 35 244 246
3 246 245 81
3 244 245 246
3 35 247 248
3 36 249 251
3 249 132 250
3 249 250 251
3 36 252 254
3 254 253 132
3 252 253 254
3 36 255 257
3 255 133 256
3 255 256 257
3 258 134 259
3 260 135 261
3 262 261 134
3 260 261 262
3 263 136 264
3 266 265 136
3 37 38 7
3 39 38 37
3 39 8 38
3 39 40 8
3 41 40 39
3 41 9 40
3 268 267 10
3 42 43 13
3 44 43 42
3 44 15 43
3 45 269 271
3 269 46 270
3 269 270 271
3 47 46 45
3 47 17 46
3 47 48 17
3 49 48 47
3 49 18 48
3 50 272 273
3 50 274 276
3 274 19 275
3 274 275 276
3 50 51 19
3 52 51 50
3 52 20 51
3 53 277 278
3 53 279 281
3 279 21 280
3 279 280 281
3 53 282 284
3 284 283 21
3 282 283 284
3 286 285 53
3 287 22 288
3 289 54 290
3 291 290 22
3 289 290 291
3 55 292 294
3 292 54 293
3 292 293 294
3 55 23 54
3 56 57 11
3 58 57 56
3 58 24 57
3 58 59 24
3 60 59 58
3 60 25 59
3 60 61 25
3 62 61 60
3 62 26 61
3 295 63 296
3 297 296 12
3 295 296 297
3 298 63 299
3 301 300 63
3 64 65 14
3 66 65 64
3 66 27 65
3 66 67 27
3 68 67 66
3 68 28 67
3 302 69 303
3 304 69 305
3 306 29 307
3 308 307 69
3 306 307 308
3 309 70 310
3 71 311 313
3 311 70 312
3 311 312 313
3 71 30 70
3 71 72 30
3 73 72 71
3 73 31 72
3 73 74 31
3 75 74 73
3 75 32 74
3 76 77 16
3 78 77 76
3 78 33 77
3 78 79 33
3 80 79 78
3 80 34 79
3 80 81 34
3 82 81 80
3 82 35 81
3 314 36 315
3 317 316 36
3 318 45 319
3 320 45 321
3 322 2 323
3 324 323 45
3 322 323 324
3 38 325 327
3 327 326 7
3 325 326 327
3 329 328 38
3 40 330 332
3 332 331 8
3 330 331 332
3 334 333 40
3 83 335 336
3 83 337 338
3 84 339 340
3 85 341 343
3 343 342 84
3 341 342 343
3 85 344 346
3 344 11 345
3 344 345 346
3 347 85 348
3 349 348 10
3 347 348 349
3 350 85 351
3 352 11 353
3 354 353 85
3 352 353 354
3 355 56 356
3 357 356 11
3 355 356 357
3 358 56 359
3 360 3 361
3 362 361 56
3 360 361 362
3 363 86 364
3 365 364 3
3 363 364 365
3 366 86 367
3 368 12 369
3 370 369 86
3 368 369 370
3 371 12 372
3 374 373 12
3 87 375 376
3 87 377 379
3 377 14 378
3 377 378 379
3 43 87 13
3 88 87 43
3 88 14 87
3 88 64 14
3 89 64 88
3 89 4 64
3 380 5 381
3 382 90 383
3 384 383 5
3 382 383 384
3 385 90 386
3 387 16 388
3 389 388 90
3 387 388 389
3 390 16 391
3 392 76 393
3 394 393 16
3 392 393 394
3 395 76 396
3 397 6 398
3 399 398 76
3 397 398 399
3 401 400 6
3 46 402 403
3 405 404 46
3 91 406 407
3 91 408 410
3 408 7 409
3 408 409 410
3 48 91 17
3 92 91 48
3 92 7 91
3 92 37 7
3 93 37 92
3 93 1 37
3 94 411 412
3 94 413 414
3 415 94 416
3 95 417 419
3 417 94 418
3 417 418 419
3 95 420 422
3 422 421 94
3 420 421 422
3 95 423 425
3 423 84 424
3 423 424 425
3 96 84 95
3 96 10 84
3 51 96 19
3 97 96 51
3 97 10 96
3 97 426 428
3 428 427 10
3 426 427 428
3 430 429 97
3 431 98 432
3 433 432 0
3 431 432 433
3 434 98 435
3 437 436 98
3 438 13 439
3 99 440 441
3 99 442 444
3 442 13 443
3 442 443 444
3 99 42 13
3 100 42 99
3 100 0 42
3 101 445 446
3 101 447 448
3 101 449 451
3 449 100 450
3 449 450 451
3 102 100 101
3 102 0 100
3 102 452 454
3 454 453 0
3 452 453 454
3 103 455 457
3 457 456 102
3 455 456 457
3 103 458 459
3 460 103 461
3 462 461 21
3 460 461 462
3 463 103 464
3 466 465 103
3 467 2 468
3 104 469 470
3 104 471 473
3 471 2 472
3 471 472 473
3 104 49 2
3 105 49 104
3 105 18 49
3 54 105 22
3 106 105 54
3 106 18 105
3 106 93 18
3 107 93 106
3 107 1 93
3 57 474 476
3 476 475 11
3 474 475 476
3 478 477 57
3 479 55 480
3 108 481 483
3 481 55 482
3 481 482 483
3 108 23 55
3 59 108 24
3 109 108 59
3 109 23 108
3 109 107 23
3 110 107 109
3 110 1 107
3 110 41 1
3 111 41 110
3 111 9 41
3 61 111 25
3 112 111 61
3 112 9 111
3 112 83 9
3 113 83 112
3 113 484 486
3 486 485 83
3 484 485 486
3 86 62 3
3 114 62 86
3 114 26 62
3 63 114 12
3 115 114 63
3 115 26 114
3 115 113 26
3 487 113 488
3 489 488 115
3 487 488 489
3 491 490 113
3 116 492 493
3 116 494 495
3 65 116 14
3 117 116 65
3 117 496 498
3 498 497 116
3 496 497 498
3 117 499 500
3 118 501 503
3 503 502 117
3 501 502 503
3 118 504 505
3 118 506 508
3 506 52 507
3 506 507 508
3 119 52 118
3 119 20 52
3 67 119 27
3 509 119 510
3 511 510 67
3 509 510 511
3 512 20 513
3 514 513 119
3 512 513 514
3 516 515 20
3 98 44 0
3 120 44 98
3 120 15 44
3 69 517 519
3 517 120 518
3 517 518 519
3 121 120 69
3 121 15 120
3 121 89 15
3 122 89 121
3 122 4 89
3 520 29 521
3 70 522 523
3 123 524 526
3 526 525 70
3 524 525 526
3 123 527 529
3 527 29 528
3 527 528 529
3 123 122 29
3 124 122 123
3 124 4 122
3 124 68 4
3 125 68 124
3 125 28 68
3 72 125 30
3 126 125 72
3 126 28 125
3 126 530 532
3 532 531 28
3 530 531 532
3 534 533 126
3 74 535 537
3 537 536 31
3 535 536 537
3 539 538 74
3 127 540 541
3 127 542 543
3 90 75 5
3 128 75 90
3 128 32 75
3 77 128 16
3 129 128 77
3 129 32 128
3 129 127 32
3 130 127 129
3 130 544 546
3 546 545 127
3 544 545 546
3 130 547 548
3 131 549 551
3 551 550 130
3 549 550 551
3 131 552 553
3 79 131 33
3 554 131 555
3 556 555 79
3 554 555 556
3 558 557 131
3 81 559 561
3 561 560 34
3 559 560 561
3 563 562 81
3 564 82 565
3 566 565 6
3 564 565 566
3 567 82 568
3 569 35 570
3 571 570 82
3 569 570 571
3 132 572 573
3 132 574 576
3 574 35 575
3 574 575 576
3 132 577 579
3 579 578 35
3 577 578 579
3 581 580 132
3 133 582 583
3 133 584 585
3 586 133 587
3 588 587 36
3 586 587 588
3 134 589 591
3 589 133 590
3 589 590 591
3 134 592 594
3 594 593 133
3 592 593 594
3 134 595 596
3 135 597 599
3 599 598 134
3 597 598 599
3 135 600 601
3 602 135 603
3 136 604 606
3 604 135 605
3 604 605 606
3 136 607 609
3 609 608 135
3 607 608 609
3 136 610 611
3 613 612 136
