ply
format ascii 1.0
element vertex 87
property float x
property float y
property float z
element face 70
property list uchar int vertex_index
end_header
33.183807 -52.805302 -22.322746
35.058037 -42.929989 -21.266586
34.372074 -47.62191 -21.768732
36.134693 -42.657005 -25.483181
33.420067 -50.082481 -20.037844
33.864891 -50.170601 -22.109339
35.798466 -45.175678 -25.975214
34.201775 -45.326469 -19.358442
33.493698 -53.11409 -24.656767
34.256916 -50.38591 -24.345158
33.811558 -47.757442 -19.560122
34.781052 -45.191364 -21.580708
34.887379 -47.66172 -24.0954
35.304779 -45.272381 -23.802423
35.648449 -42.693424 -23.475861
35.188992 -41.792551 -21.155968
34.803925 -42.941143 -20.26626
35.443371 -41.708706 -22.117863
35.188992 -41.792551 -21.155968
33.524349 -51.487951 -22.216043
33.308082 -51.432756 -21.089046
32.96754 -52.750107 -21.19575
33.767006 -46.428422 -18.384459
33.965828 -45.26331 -18.354088
34.060456 -51.746128 -25.642562
33.573143 -53.283041 -25.723003
35.075188 -47.739557 -25.169151
34.572147 -49.023815 -24.220279
34.759957 -49.101652 -25.29403
36.277065 -41.40978 -25.33009
36.033943 -41.42799 -24.326431
35.891571 -42.675214 -24.479521
33.085671 -51.388697 -20.053299
32.890538 -51.18184 -18.929628
33.642479 -50.126541 -21.073591
33.085671 -51.388697 -20.053299
33.308082 -51.432756 -21.089046
36.004711 -45.096075 -27.025144
35.530732 -46.496536 -26.109058
36.202826 -43.832808 -26.774395
36.004711 -45.096075 -27.025144
36.370939 -42.573471 -26.528378
35.966579 -43.916342 -25.729197
36.202826 -43.832808 -26.774395
36.536957 -41.237713 -26.35424
36.370939 -42.573471 -26.528378
34.375794 -44.139383 -19.312188
33.965828 -45.26331 -18.354088
34.629906 -44.128229 -20.312514
34.803925 -42.941143 -20.26626
34.375794 -44.139383 -19.312188
34.442065 -50.382038 -25.486758
33.875307 -51.75 -24.500962
34.060456 -51.746128 -25.642562
34.759957 -49.101652 -25.29403
34.442065 -50.382038 -25.486758
32.594335 -54.065481 -21.322484
32.96754 -52.750107 -21.19575
32.761272 -54.207882 -22.506347
32.594335 -54.065481 -21.322484
32.916218 -54.362276 -23.673358
33.338752 -52.959696 -23.489756
32.761272 -54.207882 -22.506347
33.024891 -54.518724 -24.817944
32.916218 -54.362276 -23.673358
33.573143 -53.283041 -25.723003
33.024891 -54.518724 -24.817944
33.173977 -49.957287 -18.870962
32.890538 -51.18184 -18.929628
33.369722 -48.794767 -18.632101
33.173977 -49.957287 -18.870962
33.615813 -48.919961 -19.798983
33.571897 -47.643909 -18.485298
33.369722 -48.794767 -18.632101
34.006666 -46.541956 -19.459282
33.767006 -46.428422 -18.384459
33.571897 -47.643909 -18.485298
35.342923 -46.418699 -25.035307
35.075188 -47.739557 -25.169151
35.530732 -46.496536 -26.109058
35.738577 -41.590423 -23.222501
35.443371 -41.708706 -22.117863
35.353243 -42.811706 -22.371223
35.738577 -41.590423 -23.222501
36.033943 -41.42799 -24.326431
36.277065 -41.40978 -25.33009
36.536957 -41.237713 -26.35424
3 1 15 16
3 1 17 18
3 0 19 21
3 19 5 20
3 19 20 21
3 22 7 23
3 25 24 8
3 2 10 4
3 2 11 10
3 26 12 27
3 28 27 9
3 26 27 28
3 3 13 6
3 3 14 13
3 3 29 31
3 31 30 14
3 29 30 31
3 32 4 33
3 5 34 36
3 34 4 35
3 34 35 36
3 5 2 4
3 37 6 38
3 39 6 40
3 41 3 42
3 43 42 6
3 41 42 43
3 45 44 3
3 7 46 47
3 7 48 50
3 48 1 49
3 48 49 50
3 8 9 0
3 51 9 52
3 53 52 8
3 51 52 53
3 55 54 9
3 56 0 57
3 58 0 59
3 60 8 61
3 62 61 0
3 60 61 62
3 63 8 64
3 66 65 8
3 4 67 68
3 10 69 71
3 71 70 4
3 69 70 71
3 10 72 73
3 10 74 76
3 74 7 75
3 74 75 76
3 11 7 10
3 11 1 7
3 9 5 0
3 12 5 9
3 12 2 5
3 6 77 79
3 77 12 78
3 77 78 79
3 13 12 6
3 13 2 12
3 13 11 2
3 14 11 13
3 14 1 11
3 14 80 82
3 82 81 1
3 80 81 82
3 84 83 14
3 86 85 3
