ply
format ascii 1.0
element vertex 430
property float x
property float y
property float z
element face 384
property list uchar int vertex_index
end_header
33.974335 -22.29842 20.886658
27.849581 -41.851936 -12.872649
36.028435 -6.34866 20.218523
33.552994 -34.407307 12.772553
34.157463 6.178484 26.350353
32.521763 -10.493269 27.550652
29.683142 -43.779404 -4.638562
35.04092 -14.470881 20.673992
35.382965 -21.024178 16.931101
35.064598 -27.582048 12.72595
34.119644 -28.335255 16.925949
33.340748 -2.160655 27.106377
31.707611 -4.457472 30.424034
30.295212 -19.907303 31.567774
32.34119 -39.297249 3.805891
36.918377 1.750181 19.392809
34.03297 -33.631683 8.427565
32.309242 -40.169319 8.41226
36.407673 17.352676 21.344315
34.742176 14.527452 25.422823
35.891235 8.304079 22.595407
35.152084 -0.16879 23.39883
34.314442 -8.517431 23.879028
33.358864 -16.176083 24.431366
30.941992 -12.383764 30.981758
28.899755 -42.872055 -8.89602
34.538067 -18.34815 20.77087
35.274223 -17.809429 18.846045
34.692825 -21.749527 18.908791
34.73103 -24.898167 16.96513
34.103897 -25.384352 18.983583
32.062157 -0.645029 30.195448
31.32476 -42.702011 3.757414
31.226494 -42.228409 1.576911
36.519794 -2.231184 19.773752
34.280399 -31.208855 12.734976
34.679066 -30.474985 10.570134
33.800491 -34.192635 10.489032
33.128117 -37.121815 8.262529
32.987156 -37.430534 10.656374
36.587288 21.537012 20.524124
35.751942 20.044323 22.801483
34.502827 10.314893 25.866264
35.36071 11.837755 23.961527
35.048645 7.450119 24.472437
35.588245 4.089708 22.948879
34.652756 3.149009 24.949825
32.973209 -6.358077 27.248154
33.839569 -5.346993 25.509792
33.44577 -9.221714 25.702673
33.858635 -12.534002 24.092846
33.002247 -13.088028 25.962057
30.910721 -41.131069 -2.717758
29.285952 -43.479084 -6.765782
35.548183 -10.457225 20.473856
35.845146 -13.73609 18.682959
35.340073 -24.210604 14.869024
34.640163 -27.89234 14.850358
33.878143 -31.536198 14.973412
33.300213 5.007346 28.132797
33.72131 1.933358 26.847893
32.878807 0.731918 28.543056
32.516121 -3.379696 28.741219
32.118809 -7.264749 29.012987
29.901691 -17.17955 33.12434
29.653927 -20.929121 33.465733
31.095629 -41.676731 -0.613701
29.956615 -44.245342 -2.515646
33.252544 -36.559887 6.121084
32.293114 -39.961349 6.009466
34.968086 18.708443 24.807878
35.577694 15.728464 23.445679
36.209389 12.78537 21.964367
36.743946 9.484996 20.586048
36.450951 5.077491 21.00316
36.096584 0.986935 21.357466
35.660236 -3.235806 21.731068
34.19627 -1.188519 25.379589
34.718185 -4.339013 23.723812
35.182095 -7.412165 22.083214
34.728619 -11.332889 22.303534
34.241215 -15.307996 22.489481
33.755188 -19.083277 22.637241
31.283314 -8.362541 30.799259
31.703442 -11.217248 29.314648
30.575157 -16.110685 31.345572
31.322342 -15.189236 29.560074
33.480991 -29.148462 18.969831
33.378864 -32.166977 16.990089
33.107018 -35.242306 14.893708
32.729095 -37.932598 12.786251
28.426571 -42.382648 -10.863597
27.506318 -41.61504 -13.858251
28.22146 -40.190382 -13.043872
30.792916 -44.031609 2.683067
30.887448 -44.161058 3.764523
36.439443 -6.067771 19.170829
36.685123 -4.009033 18.948444
36.274114 -4.289922 19.996138
35.418732 21.501107 23.515014
35.797713 22.268721 22.453369
35.464502 23.725504 23.166901
34.330145 8.246688 26.108308
34.058497 9.713847 26.830395
33.885814 7.645642 27.072439
30.146468 -42.209423 -4.786471
30.760258 -40.885255 -3.826068
30.296931 -42.455236 -3.67816
29.484547 -43.629244 -5.702172
29.947874 -42.059263 -5.85008
30.146468 -42.209423 -4.786471
29.041095 -45.074928 -5.632723
28.8425 -44.924768 -6.696333
29.484547 -43.629244 -5.702172
35.698744 -19.025726 16.869562
35.644373 -17.418352 17.827034
35.328594 -19.416804 17.888573
35.704866 -20.666837 15.886768
35.698744 -19.025726 16.869562
35.361519 -22.617391 15.900063
35.68342 -22.26005 14.855729
35.704866 -20.666837 15.886768
32.878406 4.162171 28.985433
33.046707 6.247018 28.830585
32.667704 2.024457 29.190563
33.08951 2.869632 28.337927
32.878406 4.162171 28.985433
29.414942 -21.381385 34.321051
29.502994 -19.549896 34.15052
32.28752 -39.114664 2.690345
32.790512 -37.739384 3.770499
30.579928 -43.325088 -0.572935
31.161061 -41.95257 0.481605
30.64536 -43.600927 0.522371
30.010421 -44.609394 -1.523907
30.526122 -42.961036 -1.564674
30.579928 -43.325088 -0.572935
29.468828 -45.711426 -2.59847
30.010421 -44.609394 -1.523907
37.336906 2.186775 18.288101
37.111858 3.911596 19.144959
35.259426 -27.324921 11.599087
35.456804 -25.625613 12.725673
34.464834 -31.904567 8.325122
34.787882 -30.326217 9.396406
34.356018 -32.053334 9.498849
34.090179 -33.436615 7.242801
34.464834 -31.904567 8.325122
33.642757 -35.095785 7.274324
33.699966 -34.900717 6.08956
34.090179 -33.436615 7.242801
31.880268 -41.541311 7.247794
31.872204 -41.437326 6.046397
32.301178 -40.065334 7.210863
36.825432 17.901941 20.215003
36.915239 19.994109 19.804907
36.497481 19.444844 20.93422
36.709682 15.662792 20.641314
36.825432 17.901941 20.215003
34.431812 15.895801 26.155196
34.322458 13.915868 26.38702
34.855131 16.617947 25.11535
34.544767 17.986297 25.847724
34.431812 15.895801 26.155196
31.112653 -10.373152 30.890508
30.917659 -9.149746 31.600132
30.746998 -11.160358 31.691381
31.52559 -16.498425 28.808421
31.15627 -17.01191 29.671979
31.740803 -14.728512 28.628503
31.52559 -16.498425 28.808421
33.165958 -29.455941 19.976527
33.462837 -27.675509 19.878335
33.032934 -33.923647 17.020919
33.11071 -32.409509 18.051953
32.897011 -35.461312 15.972728
33.242941 -33.704642 15.941899
33.032934 -33.923647 17.020919
32.321936 -39.669403 12.691537
32.56382 -38.232422 13.821575
32.440155 -39.33363 11.649497
32.321936 -39.669403 12.691537
29.356455 -41.217327 -9.01058
29.541272 -41.604405 -7.976825
28.663163 -42.627352 -9.879808
29.119864 -40.972623 -9.994369
29.356455 -41.217327 -9.01058
28.240876 -44.182564 -9.774434
28.004284 -43.93786 -10.758222
28.663163 -42.627352 -9.879808
31.866689 0.747369 30.866343
32.259378 1.335983 30.016759
31.690768 -1.31763 30.979774
31.866689 0.747369 30.866343
31.513495 -3.223851 31.094067
31.884884 -2.551251 30.309741
31.690768 -1.31763 30.979774
30.743783 -43.794808 1.592815
31.275627 -42.46521 2.667162
30.792916 -44.031609 2.683067
30.64536 -43.600927 0.522371
30.743783 -43.794808 1.592815
36.940261 -1.928766 18.675167
37.139553 0.061917 18.484696
36.719085 -0.240501 19.583281
36.940261 -1.928766 18.675167
36.685123 -4.009033 18.948444
36.215385 23.015065 21.31469
36.613439 23.765601 20.133969
36.169615 20.790667 21.662804
36.215385 23.015065 21.31469
35.797713 22.268721 22.453369
34.202784 11.809588 26.60874
34.058497 9.713847 26.830395
34.622501 12.421173 25.644544
34.322458 13.915868 26.38702
34.202784 11.809588 26.60874
30.570992 -12.96401 31.881656
30.746998 -11.160358 31.691381
30.642705 -19.370944 30.675829
30.493728 -21.2602 30.772526
31.3938 -39.518074 -2.793764
31.529459 -39.722037 -1.615318
31.3938 -39.518074 -2.793764
30.760258 -40.885255 -3.826068
29.734371 -41.907919 -6.911706
29.947874 -42.059263 -5.85008
29.092854 -43.17557 -7.830901
29.541272 -41.604405 -7.976825
29.734371 -41.907919 -6.911706
28.658995 -44.682682 -7.7253
28.465896 -44.379168 -8.790419
29.092854 -43.17557 -7.830901
28.658995 -44.682682 -7.7253
28.8425 -44.924768 -6.696333
35.95836 -10.072994 19.466276
36.198487 -8.018712 19.33861
35.788309 -8.402942 20.34619
36.106842 -11.712426 18.570828
35.95836 -10.072994 19.466276
35.696664 -12.096657 19.578408
36.21887 -13.393681 17.650706
36.106842 -11.712426 18.570828
35.929834 -15.381683 17.745491
35.559685 -15.77276 18.764502
35.644373 -17.418352 17.827034
36.21887 -13.393681 17.650706
35.929834 -15.381683 17.745491
35.594541 -23.939891 13.79721
35.68342 -22.26005 14.855729
35.202335 -25.896326 13.797487
35.456804 -25.625613 12.725673
35.594541 -23.939891 13.79721
33.457189 7.060073 27.963661
33.046707 6.247018 28.830585
33.728838 5.592915 27.241575
33.885814 7.645642 27.072439
33.457189 7.060073 27.963661
32.470482 0.043444 29.369252
32.667704 2.024457 29.190563
32.259378 1.335983 30.016759
29.626877 -17.67511 33.979824
29.753052 -15.788483 33.796184
29.777809 -19.054336 33.295036
29.626877 -17.67511 33.979824
29.502994 -19.549896 34.15052
29.581165 -22.718941 33.561686
29.414942 -21.381385 34.321051
29.845372 -22.284927 32.66466
29.581165 -22.718941 33.561686
30.166015 -21.774018 31.715681
29.97457 -20.418212 32.516754
29.845372 -22.284927 32.66466
30.493728 -21.2602 30.772526
30.166015 -21.774018 31.715681
31.730171 -40.580244 1.575854
32.28752 -39.114664 2.690345
31.783842 -40.762829 2.691401
31.664739 -40.304405 0.480548
31.730171 -40.580244 1.575854
31.161061 -41.95257 0.481605
31.621913 -39.994867 -0.563289
31.664739 -40.304405 0.480548
31.003175 -41.4039 -1.665729
31.529459 -39.722037 -1.615318
31.621913 -39.994867 -0.563289
29.33101 -45.541483 -3.554215
29.194273 -45.308514 -4.615673
29.819879 -44.012373 -3.577104
29.33101 -45.541483 -3.554215
29.468828 -45.711426 -2.59847
27.212055 -43.06697 -13.681688
27.456608 -43.470354 -12.731848
37.336906 2.186775 18.288101
37.139553 0.061917 18.484696
36.439443 -6.067771 19.170829
36.198487 -8.018712 19.33861
35.06666 -28.771389 10.521179
35.259426 -27.324921 11.599087
34.871832 -29.028517 11.648042
35.06666 -28.771389 10.521179
34.787882 -30.326217 9.396406
33.246189 -36.370703 4.928096
33.699966 -34.900717 6.08956
32.796867 -37.928568 4.963487
32.790512 -37.739384 3.770499
33.246189 -36.370703 4.928096
31.388027 -42.807657 4.920371
31.808937 -41.33168 4.88344
31.872204 -41.437326 6.046397
30.887448 -44.161058 3.764523
31.388027 -42.807657 4.920371
36.9812 22.057398 19.386105
36.613439 23.765601 20.133969
36.9812 22.057398 19.386105
36.915239 19.994109 19.804907
34.630607 20.038767 25.576736
34.544767 17.986297 25.847724
35.026804 20.833167 24.518212
34.630607 20.038767 25.576736
35.360014 19.376383 23.80468
35.418732 21.501107 23.515014
35.026804 20.833167 24.518212
36.61054 13.37914 20.95134
36.709682 15.662792 20.641314
36.308531 15.069023 21.654341
36.877819 11.728953 20.26218
36.61054 13.37914 20.95134
36.476668 11.135183 21.275208
37.184196 10.014513 19.437545
36.877819 11.728953 20.26218
37.024643 7.779003 19.741578
37.184196 10.014513 19.437545
36.878146 5.575251 19.950134
37.024643 7.779003 19.741578
36.597448 7.281244 20.794604
36.684664 3.413836 20.197985
37.111858 3.911596 19.144959
36.878146 5.575251 19.950134
27.506318 -41.61504 -13.858251
27.212055 -43.06697 -13.681688
31.299385 -5.18062 31.309616
31.513495 -3.223851 31.094067
31.087236 -7.133155 31.497228
30.917659 -9.149746 31.600132
31.495463 -6.410006 30.611646
31.299385 -5.18062 31.309616
31.087236 -7.133155 31.497228
30.050842 -15.361903 32.952947
29.753052 -15.788483 33.796184
30.387575 -14.827471 32.063564
30.050842 -15.361903 32.952947
30.238424 -16.645117 32.234956
30.758575 -14.247224 31.163665
30.570992 -12.96401 31.881656
30.387575 -14.827471 32.063564
30.782677 -17.472635 30.564728
30.435184 -18.008994 31.456673
30.642705 -19.370944 30.675829
30.948749 -15.64996 30.452823
30.782677 -17.472635 30.564728
31.15627 -17.01191 29.671979
31.931353 -12.742518 28.50579
31.512892 -13.203242 29.437361
31.740803 -14.728512 28.628503
32.340514 -12.380529 27.623792
32.112603 -10.855258 28.43265
31.931353 -12.742518 28.50579
32.580755 -13.677908 26.829495
32.762005 -11.790648 26.756355
32.340514 -12.380529 27.623792
32.767132 -15.109616 26.087757
32.580755 -13.677908 26.829495
32.945441 -16.653643 25.322412
33.180555 -14.632055 25.196711
32.767132 -15.109616 26.087757
33.156277 -18.06318 24.44998
32.945441 -16.653643 25.322412
33.354439 -19.516777 23.552917
33.557026 -17.62968 23.534304
33.156277 -18.06318 24.44998
33.497557 -21.082828 22.676977
33.354439 -19.516777 23.552917
33.60713 -22.6904 21.801685
33.864762 -20.690849 21.76195
33.497557 -21.082828 22.676977
33.709509 -24.250488 20.836749
33.60713 -22.6904 21.801685
33.77429 -25.793454 19.885212
34.039116 -23.841386 19.935121
33.709509 -24.250488 20.836749
33.792444 -27.266407 18.976707
33.77429 -25.793454 19.885212
33.462837 -27.675509 19.878335
33.161774 -30.900252 19.041824
33.165958 -29.455941 19.976527
33.429928 -30.657719 17.97996
33.161774 -30.900252 19.041824
33.11071 -32.409509 18.051953
32.752781 -36.887276 14.875304
32.897011 -35.461312 15.972728
32.918056 -36.587452 13.83998
32.752781 -36.887276 14.875304
32.56382 -38.232422 13.821575
32.569186 -39.082598 10.584559
32.858125 -37.681566 11.721312
32.440155 -39.33363 11.649497
32.230228 -40.45199 9.462502
32.648199 -38.799926 9.534317
32.569186 -39.082598 10.584559
31.856065 -41.823332 8.337317
32.230228 -40.45199 9.462502
31.880268 -41.541311 7.247794
31.856065 -41.823332 8.337317
28.487877 -40.642955 -12.060381
28.22146 -40.190382 -13.043872
28.776372 -40.908311 -11.055855
29.119864 -40.972623 -9.994369
28.138076 -42.117292 -11.868123
28.487877 -40.642955 -12.060381
28.776372 -40.908311 -11.055855
27.745103 -43.73571 -11.727322
27.456608 -43.470354 -12.731848
28.138076 -42.117292 -11.868123
27.745103 -43.73571 -11.727322
28.004284 -43.93786 -10.758222
28.240876 -44.182564 -9.774434
28.465896 -44.379168 -8.790419
29.041095 -45.074928 -5.632723
29.194273 -45.308514 -4.615673
3 0 28 26
3 0 30 28
3 1 92 93
3 95 94 32
3 2 96 98
3 98 97 34
3 96 97 98
3 3 37 35
3 3 39 37
3 99 41 100
3 99 100 101
3 4 102 104
3 102 42 103
3 102 103 104
3 4 44 42
3 4 46 44
3 5 49 47
3 5 51 49
3 6 105 107
3 107 106 52
3 105 106 107
3 6 108 110
3 108 53 109
3 108 109 110
3 6 111 113
3 113 112 53
3 111 112 113
3 7 55 54
3 8 114 116
3 116 115 27
3 114 115 116
3 8 117 118
3 8 119 121
3 119 56 120
3 119 120 121
3 10 57 29
3 10 58 57
3 122 59 123
3 124 61 125
3 126 125 59
3 124 125 126
3 12 62 31
3 12 63 62
3 127 65 128
3 14 129 130
3 131 66 132
3 133 132 33
3 131 132 133
3 134 67 135
3 136 135 66
3 134 135 136
3 138 137 67
3 15 139 140
3 9 141 142
3 16 143 145
3 145 144 36
3 143 144 145
3 16 146 147
3 16 148 150
3 148 68 149
3 148 149 150
3 17 69 38
3 17 151 153
3 153 152 69
3 151 152 153
3 18 154 156
3 156 155 40
3 154 155 156
3 18 157 158
3 19 159 160
3 19 161 163
3 161 70 162
3 161 162 163
3 19 71 70
3 20 72 43
3 20 73 72
3 20 74 73
3 21 75 45
3 21 76 75
3 11 77 60
3 22 78 48
3 22 79 78
3 22 80 79
3 23 81 50
3 23 82 81
3 24 164 166
3 164 83 165
3 164 165 166
3 24 84 83
3 13 85 64
3 167 86 168
3 170 169 86
3 171 87 172
3 173 88 174
3 175 89 176
3 177 176 88
3 175 176 177
3 178 90 179
3 181 180 90
3 25 182 183
3 25 184 186
3 184 91 185
3 184 185 186
3 25 187 189
3 189 188 91
3 187 188 189
3 26 27 7
3 28 27 26
3 28 8 27
3 28 29 8
3 30 29 28
3 30 10 29
3 190 31 191
3 192 31 193
3 194 12 195
3 196 195 31
3 194 195 196
3 32 33 14
3 197 33 198
3 199 198 32
3 197 198 199
3 201 200 33
3 34 202 204
3 204 203 15
3 202 203 204
3 206 205 34
3 35 36 9
3 37 36 35
3 37 16 36
3 37 38 16
3 39 38 37
3 39 17 38
3 207 40 208
3 41 209 211
3 209 40 210
3 209 210 211
3 41 18 40
3 42 212 213
3 42 214 216
3 214 19 215
3 214 215 216
3 42 43 19
3 44 43 42
3 44 20 43
3 44 45 20
3 46 45 44
3 46 21 45
3 47 48 11
3 49 48 47
3 49 22 48
3 49 50 22
3 51 50 49
3 51 23 50
3 217 24 218
3 220 219 13
3 52 221 222
3 224 223 52
3 53 225 226
3 53 227 229
3 227 25 228
3 227 228 229
3 53 230 232
3 232 231 25
3 230 231 232
3 234 233 53
3 54 235 237
3 237 236 2
3 235 236 237
3 55 238 240
3 240 239 54
3 238 239 240
3 55 241 242
3 27 55 7
3 243 55 244
3 245 244 27
3 243 244 245
3 247 246 55
3 56 248 249
3 56 250 252
3 250 9 251
3 250 251 252
3 29 56 8
3 57 56 29
3 57 9 56
3 57 35 9
3 58 35 57
3 58 3 35
3 59 253 254
3 59 255 257
3 255 4 256
3 255 256 257
3 59 60 4
3 61 60 59
3 61 11 60
3 31 258 260
3 258 61 259
3 258 259 260
3 62 61 31
3 62 11 61
3 62 47 11
3 63 47 62
3 63 5 47
3 261 64 262
3 65 263 265
3 263 64 264
3 263 264 265
3 65 13 64
3 266 65 267
3 268 65 269
3 270 13 271
3 272 271 65
3 270 271 272
3 274 273 13
3 33 275 277
3 277 276 14
3 275 276 277
3 66 278 280
3 280 279 33
3 278 279 280
3 66 281 282
3 66 283 285
3 283 52 284
3 283 284 285
3 67 52 66
3 67 6 52
3 67 286 288
3 288 287 6
3 286 287 288
3 290 289 67
3 292 291 1
3 294 293 15
3 296 295 2
3 36 297 299
3 299 298 9
3 297 298 299
3 301 300 36
3 68 302 303
3 68 304 306
3 304 14 305
3 304 305 306
3 38 68 16
3 69 68 38
3 69 14 68
3 69 32 14
3 307 32 308
3 309 308 69
3 307 308 309
3 311 310 32
3 40 312 313
3 315 314 40
3 70 316 317
3 70 318 319
3 70 320 322
3 320 41 321
3 320 321 322
3 71 41 70
3 71 18 41
3 43 71 19
3 72 71 43
3 72 18 71
3 72 323 325
3 325 324 18
3 323 324 325
3 73 326 328
3 328 327 72
3 326 327 328
3 73 329 330
3 73 331 332
3 74 333 335
3 335 334 73
3 333 334 335
3 74 336 338
3 336 15 337
3 336 337 338
3 45 74 20
3 75 74 45
3 75 15 74
3 75 34 15
3 76 34 75
3 76 2 34
3 60 46 4
3 77 46 60
3 77 21 46
3 48 77 11
3 78 77 48
3 78 21 77
3 78 76 21
3 79 76 78
3 79 2 76
3 79 54 2
3 80 54 79
3 80 7 54
3 50 80 22
3 81 80 50
3 81 7 80
3 81 26 7
3 82 26 81
3 82 0 26
3 340 339 1
3 341 12 342
3 83 343 344
3 83 345 347
3 345 12 346
3 345 346 347
3 83 63 12
3 84 63 83
3 84 5 63
3 64 348 349
3 85 350 352
3 352 351 64
3 350 351 352
3 85 353 355
3 353 24 354
3 353 354 355
3 356 85 357
3 358 357 13
3 356 357 358
3 86 359 361
3 359 85 360
3 359 360 361
3 86 24 85
3 86 84 24
3 362 84 363
3 364 363 86
3 362 363 364
3 365 5 366
3 367 366 84
3 365 366 367
3 368 51 369
3 370 369 5
3 368 369 370
3 371 51 372
3 373 23 374
3 375 374 51
3 373 374 375
3 376 23 377
3 378 82 379
3 380 379 23
3 378 379 380
3 381 82 382
3 383 0 384
3 385 384 82
3 383 384 385
3 386 0 387
3 388 30 389
3 390 389 0
3 388 389 390
3 87 391 393
3 391 30 392
3 391 392 393
3 87 10 30
3 394 87 395
3 88 396 398
3 396 87 397
3 396 397 398
3 88 10 87
3 88 58 10
3 89 58 88
3 89 3 58
3 399 89 400
3 90 401 403
3 401 89 402
3 401 402 403
3 90 3 89
3 90 39 3
3 404 39 405
3 406 405 90
3 404 405 406
3 407 17 408
3 409 408 39
3 407 408 409
3 410 17 411
3 413 412 17
3 414 1 415
3 91 416 417
3 91 418 420
3 418 1 419
3 418 419 420
3 91 421 423
3 423 422 1
3 421 422 423
3 425 424 91
3 427 426 25
3 429 428 6
