ply
format ascii 1.0
element vertex 451
property float x
property float y
property float z
element face 441
property list uchar int vertex_index
end_header
-30.439594 56.772732 40.354958
-32.110786 49.336823 27.60648
-26.8092 28.706676 62.751804
-30.111877 18.899385 58.528404
-29.272446 35.639534 55.586617
-30.604511 41.035095 46.523788
-31.275871 45.42873 37.081123
-31.931911 55.944073 24.644115
-32.734913 51.45232 22.900045
-28.254675 32.235188 59.42252
-28.89349 43.833179 53.30611
-21.650171 28.321718 64.790169
-30.435877 21.599525 54.40723
-30.534985 48.803738 43.921673
-30.974688 43.130459 41.740952
-30.930428 51.026707 38.860455
-31.235579 52.902145 33.734478
-32.258957 41.879307 30.228645
-33.002907 44.06916 25.624708
-29.717134 54.61322 45.447922
-29.588106 62.100285 41.401508
-28.928707 24.254465 60.99065
-29.662609 27.490694 57.336735
-30.256214 29.94453 53.090378
-30.027351 38.390343 51.436218
-29.878351 46.520771 48.80579
-25.069794 25.129332 65.169983
-23.82123 32.985424 62.979782
-31.682726 39.552341 34.888474
-31.651876 47.329689 32.205891
-31.552652 54.45821 28.947731
-30.667253 57.640324 37.846004
-30.396362 60.428474 38.288837
-30.475973 52.900623 42.302948
-30.754038 50.083042 41.319389
-30.706165 54.111916 39.629547
-30.901585 54.824692 37.017487
-32.212242 45.657539 28.884216
-32.599705 42.964024 27.973616
-32.512333 46.802696 26.628277
-33.140511 52.37257 20.456516
-33.278557 48.913948 21.958454
-29.100101 57.237221 46.041328
-27.329882 24.7106 63.584084
-28.429171 22.588186 62.712048
-27.923254 26.650629 62.090065
-28.806341 34.009476 57.535492
-29.057901 29.954029 58.454933
-29.513039 31.447113 56.39101
-29.990652 28.583256 55.315571
-29.853712 32.860802 54.402302
-30.168787 34.148136 52.207314
-29.691593 37.103001 53.492836
-29.424417 45.132927 51.189358
-29.357182 49.316883 49.479103
-29.792913 50.654785 47.206905
-21.100006 32.240402 63.446297
-22.859865 30.568573 64.002373
-30.624269 36.903191 47.701405
-30.796213 38.041164 45.445011
-31.124537 44.235855 39.430756
-31.119854 40.030144 40.717213
-31.287228 41.248238 38.328445
-31.461706 38.376995 37.142979
-31.468733 42.625359 35.930481
-31.677975 43.663902 33.586361
-31.453503 46.433842 34.611515
-31.387239 53.71064 31.294176
-32.94088 56.094173 18.898537
-32.031837 52.736549 26.082054
-32.403915 50.362328 25.264143
-32.29969 53.709064 23.78437
-32.636791 54.691875 21.321169
-26.356544 32.831806 61.674133
-27.570763 30.597845 61.157986
-27.215054 34.785458 60.038216
-27.903662 36.600506 58.334743
-28.535492 38.068027 56.557301
-29.069828 39.588482 54.615593
-30.287695 20.326342 56.51627
-30.57863 44.95282 45.267578
-30.801857 41.921921 44.207596
-30.788445 45.931103 42.86644
-30.959391 47.178715 40.372665
-31.119625 48.164509 37.88636
-31.271704 49.226429 35.383808
-31.093502 51.732876 36.368553
-33.073154 40.093494 26.989906
-33.570919 41.297684 24.55513
-32.868919 47.866913 24.327827
-33.451134 45.243771 23.215956
-30.14962 55.580112 42.890175
-30.08436 59.353691 40.973858
-29.659992 58.415359 43.475319
-29.006102 60.957405 44.035786
-28.240124 63.607868 44.081821
-29.237345 20.108215 61.76704
-29.606712 21.738146 59.875584
-28.552038 28.164373 60.374592
-29.364872 25.710144 59.160641
-29.914381 23.154305 57.885376
-30.152021 24.458954 55.88179
-30.339384 25.803164 53.858524
-30.472527 31.418575 50.808609
-30.402103 35.630348 50.058578
-30.356575 39.549503 49.0131
-29.540979 41.181644 52.452076
-29.949553 42.420338 50.228634
-30.302254 43.75507 47.755997
-30.236885 47.867188 46.365093
-30.167543 51.810802 44.826481
-26.573639 22.858297 64.959122
-26.011032 26.875502 64.056641
-23.356621 26.940796 65.121117
-24.488245 28.946539 64.161858
-25.422836 30.927248 63.037453
-24.962706 34.847134 61.871681
-30.957283 39.168102 43.082153
-31.93811 44.413944 31.236496
-31.865152 48.274704 29.925936
-31.431887 50.128475 32.964046
-31.604511 50.973763 30.662052
-31.79862 51.830822 28.39319
-31.735786 55.099113 26.769865
-33.43545 51.26446 19.919524
-33.336351 53.0445 19.178057
-28.990681 50.509586 49.875702
-29.066164 48.64922 50.607594
-29.287052 51.332424 48.675197
-28.990681 50.509586 49.875702
-21.665156 33.359345 63.064249
-20.777158 34.205801 62.698338
-30.212623 16.941001 58.676808
-29.990419 18.286788 59.485422
-32.837664 57.701072 18.269764
-32.706269 56.959598 19.476873
-32.554224 56.258449 20.68819
-32.417206 55.725605 21.831386
-32.706269 56.959598 19.476873
-32.788836 55.393024 20.109853
-32.554224 56.258449 20.68819
-26.602429 35.811362 60.250614
-26.785799 33.808632 60.856174
-26.173175 34.834536 61.068573
-27.743796 38.621353 57.763834
-27.334997 37.856037 58.59094
-28.059711 39.355114 56.875113
-28.219577 37.334266 57.446022
-27.743796 38.621353 57.763834
-28.418293 40.132801 55.945548
-28.059711 39.355114 56.875113
-30.475704 19.584768 54.617178
-30.401612 18.948177 55.671698
-30.361786 20.962933 55.46175
-30.97732 55.223551 35.739863
-30.877492 56.578715 36.117856
-32.45022 40.467501 29.749683
-32.260353 39.962694 30.872951
-33.692986 45.829901 21.984126
-33.364846 47.07886 22.587205
-33.606697 47.664989 21.355375
-33.774296 43.861729 22.667463
-33.692986 45.829901 21.984126
-28.667376 60.482865 45.134314
-29.053101 59.097313 45.038557
-28.714375 58.622772 46.137085
-28.284387 61.808096 45.157331
-28.623113 62.282637 44.058803
-28.667376 60.482865 45.134314
-30.382998 28.618221 52.364937
-30.424582 26.547538 52.74901
-30.297799 27.873847 53.474451
-30.36437 30.681553 51.949494
-30.491154 29.355244 51.224052
-30.382998 28.618221 52.364937
-25.821717 23.993814 65.064552
-26.091038 22.030932 65.549576
-25.339116 23.16645 65.655006
-22.503396 27.631257 64.955643
-22.838338 25.835762 65.516083
-21.985113 26.526223 65.350609
-29.802766 62.588877 40.097938
-30.050893 61.21558 39.884113
-29.836233 60.726988 41.187683
-31.102103 38.107954 41.31069
-31.190936 38.635883 40.106814
-31.658911 37.4587 35.543919
-31.548401 36.871027 36.671171
-31.572216 38.964668 36.015726
-31.810227 38.06469 34.351689
-31.658911 37.4587 35.543919
-31.811723 40.083616 33.772532
-31.810227 38.06469 34.351689
-32.064766 56.351704 23.492859
-31.899659 57.319212 23.899777
-30.646726 59.431139 36.7499
-30.760326 57.986531 36.532114
-30.511281 60.825214 36.971317
-30.646726 59.431139 36.7499
-30.531807 59.034399 38.06742
-30.347176 62.368195 37.192642
-30.511281 60.825214 36.971317
-30.509847 20.225755 53.606716
-30.495871 22.288524 53.318214
-30.760326 57.986531 36.532114
-30.877492 56.578715 36.117856
-30.784419 56.232508 37.431746
-33.504473 49.535148 20.670493
-33.209534 50.643259 21.207485
-33.43545 51.26446 19.919524
-33.606697 47.664989 21.355375
-33.504473 49.535148 20.670493
-29.158511 55.292593 46.95631
-29.408617 55.92522 45.744625
-29.467028 53.980593 46.659607
-28.792499 56.574079 47.182417
-29.158511 55.292593 46.95631
-28.714375 58.622772 46.137085
-28.792499 56.574079 47.182417
-27.879527 23.649393 63.148066
-28.123964 21.791689 63.48348
-27.57432 22.852896 63.919499
-29.099781 46.557242 51.462721
-29.158953 44.483053 52.247734
-28.834317 45.907367 52.521097
-29.390799 47.224905 50.334231
-29.099781 46.557242 51.462721
-29.066164 48.64922 50.607594
-29.504917 52.001375 47.539098
-29.575048 49.985834 48.343004
-29.287052 51.332424 48.675197
-29.467028 53.980593 46.659607
-29.755024 52.634002 46.327413
-29.504917 52.001375 47.539098
-24.567673 24.073759 65.677826
-25.339116 23.16645 65.655006
-22.545085 32.52343 63.342287
-21.979935 31.404488 63.724335
-21.665156 33.359345 63.064249
-23.025768 33.731856 62.830991
-23.340547 31.776999 63.491078
-22.545085 32.52343 63.342287
-23.644393 34.952955 62.299661
-23.025768 33.731856 62.830991
-29.542676 64.058775 40.174818
-29.277425 63.476267 41.464779
-30.708294 35.464092 47.086058
-30.632955 34.816603 48.199719
-30.794266 36.033079 45.957861
-30.708294 35.464092 47.086058
-30.710241 37.472178 46.573208
-30.868127 36.567161 44.788726
-30.794266 36.033079 45.957861
-31.274623 39.24493 38.91243
-31.190936 38.635883 40.106814
-31.203541 40.639191 39.522829
-31.374467 39.812617 37.735712
-31.361862 37.809309 38.319696
-31.274623 39.24493 38.91243
-31.292847 55.038143 31.596018
-31.311409 53.306393 32.514327
-31.217016 54.633895 32.816169
-31.359787 55.449696 30.410859
-31.292847 55.038143 31.596018
-31.442493 55.823481 29.237637
-31.469946 54.084425 30.120953
-31.359787 55.449696 30.410859
-31.526035 56.034453 28.100127
-31.442493 55.823481 29.237637
-33.104559 56.701417 17.718373
-33.236536 54.905302 18.399067
-33.104559 56.701417 17.718373
-32.837664 57.701072 18.269764
-32.248655 55.2342 23.062986
-32.1158 54.826569 24.214242
-32.064766 56.351704 23.492859
-32.468241 54.200469 22.55277
-32.248655 55.2342 23.062986
-32.417206 55.725605 21.831386
-33.236536 54.905302 18.399067
-33.336351 53.0445 19.178057
-33.040695 54.233372 19.677526
-26.990693 36.948513 59.442676
-26.602429 35.811362 60.250614
-27.559358 35.692982 59.18648
-26.990693 36.948513 59.442676
-27.334997 37.856037 58.59094
-28.685461 40.893028 54.974694
-28.80266 38.828254 55.586447
-28.418293 40.132801 55.945548
-28.597292 43.015377 54.319952
-28.981659 41.710831 53.960851
-28.685461 40.893028 54.974694
-28.501455 45.206236 53.543953
-28.597292 43.015377 54.319952
-28.834317 45.907367 52.521097
-28.501455 45.206236 53.543953
-21.122466 27.192093 65.101017
-21.985113 26.526223 65.350609
-20.813363 29.08571 64.445004
-21.122466 27.192093 65.101017
-20.53828 31.045051 63.773068
-21.375089 30.28106 64.118233
-20.813363 29.08571 64.445004
-20.179279 32.925962 63.040087
-20.53828 31.045051 63.773068
-20.777158 34.205801 62.698338
-20.179279 32.925962 63.040087
-30.356828 18.337862 56.698139
-30.268919 17.624384 57.704206
-30.199786 19.612863 57.522337
-30.356828 18.337862 56.698139
-30.401612 18.948177 55.671698
-30.475704 19.584768 54.617178
-30.509847 20.225755 53.606716
-31.073279 53.677643 35.415396
-30.997543 53.278784 36.69302
-30.97732 55.223551 35.739863
-31.144317 54.262277 34.098358
-31.164541 52.31751 35.051516
-31.073279 53.677643 35.415396
-31.217016 54.633895 32.816169
-31.144317 54.262277 34.098358
-32.620594 41.00986 28.622169
-32.45022 40.467501 29.749683
-32.429331 42.421666 29.101131
-32.857319 39.574595 28.130313
-32.620594 41.00986 28.622169
-32.83643 41.528759 27.481761
-33.088446 38.110952 27.605217
-32.857319 39.574595 28.130313
-33.352739 38.784163 26.390797
-33.088446 38.110952 27.605217
-33.601622 39.386257 25.173409
-33.352739 38.784163 26.390797
-33.322037 40.695589 25.772518
-33.889719 39.862299 23.9958
-33.601622 39.386257 25.173409
-33.834189 41.888685 23.33705
-33.511026 43.270727 23.885543
-33.774296 43.861729 22.667463
-33.889719 39.862299 23.9958
-33.834189 41.888685 23.33705
-28.986422 62.904827 42.781918
-29.277425 63.476267 41.464779
-29.297104 61.528845 42.718647
-28.603434 64.230058 42.804935
-28.986422 62.904827 42.781918
-28.623113 62.282637 44.058803
-28.2108 65.399316 42.888367
-28.603434 64.230058 42.804935
-27.821341 62.851807 45.291492
-28.284387 61.808096 45.157331
-27.769274 64.704317 44.125486
-27.821341 62.851807 45.291492
-28.2108 65.399316 42.888367
-27.769274 64.704317 44.125486
-28.629753 20.521629 63.05925
-28.123964 21.791689 63.48348
-29.033839 19.281644 62.586746
-28.629753 20.521629 63.05925
-28.833258 21.348201 62.239544
-29.430694 17.972818 61.999794
-29.033839 19.281644 62.586746
-29.553153 18.891203 61.10474
-29.430694 17.972818 61.999794
-29.737837 19.706169 60.159012
-29.553153 18.891203 61.10474
-29.422029 20.923181 60.821312
-29.859295 20.318765 59.201994
-29.990419 18.286788 59.485422
-29.737837 19.706169 60.159012
-30.447624 24.390343 53.043861
-30.495871 22.288524 53.318214
-30.387631 23.701344 54.132877
-30.447624 24.390343 53.043861
-30.424582 26.547538 52.74901
-30.56689 29.944074 50.108413
-30.491154 29.355244 51.224052
-30.557083 32.074295 49.753321
-30.56689 29.944074 50.108413
-30.521871 34.180182 49.378305
-30.557083 32.074295 49.753321
-30.437315 33.524462 50.433594
-30.513186 36.266769 48.879992
-30.632955 34.816603 48.199719
-30.521871 34.180182 49.378305
-26.844665 21.02142 65.310841
-26.091038 22.030932 65.549576
-27.196199 21.926744 64.607017
-26.844665 21.02142 65.310841
-26.95176 23.784448 64.271603
-27.57432 22.852896 63.919499
-27.196199 21.926744 64.607017
-23.711087 24.97949 65.653393
-22.838338 25.835762 65.516083
-24.213208 26.035064 65.14555
-24.567673 24.073759 65.677826
-23.711087 24.97949 65.653393
-25.476256 35.842199 61.167347
-26.173175 34.834536 61.068573
-25.659625 33.83947 61.772907
-24.215131 35.88381 61.745611
-24.391968 33.916279 62.425731
-23.644393 34.952955 62.299661
-24.769392 36.831829 61.201685
-24.215131 35.88381 61.745611
-25.476256 35.842199 61.167347
-24.769392 36.831829 61.201685
-30.206894 61.752972 38.541603
-30.240361 59.891082 39.631348
-30.050893 61.21558 39.884113
-30.347176 62.368195 37.192642
-30.206894 61.752972 38.541603
-29.802766 62.588877 40.097938
-29.542676 64.058775 40.174818
-30.212623 16.941001 58.676808
-30.268919 17.624384 57.704206
-30.948662 37.13063 43.607298
-30.868127 36.567161 44.788726
-30.876748 38.604633 44.263582
-31.020817 37.676933 42.49316
-31.038569 39.599123 41.899683
-31.102103 38.107954 41.31069
-30.948662 37.13063 43.607298
-31.020817 37.676933 42.49316
-31.430493 36.306629 37.784183
-31.361862 37.809309 38.319696
-31.430493 36.306629 37.784183
-31.548401 36.871027 36.671171
-32.099839 41.247099 31.442618
-32.260353 39.962694 30.872951
-31.809348 42.139397 33.121476
-31.811723 40.083616 33.772532
-31.68035 41.608121 34.237417
-31.939415 42.514418 31.946543
-31.809348 42.139397 33.121476
-31.808042 44.038923 32.411428
-32.098534 43.146625 30.732571
-32.099839 41.247099 31.442618
-31.939415 42.514418 31.946543
-31.617602 56.354904 27.011193
-31.644219 54.778661 27.858798
-31.526035 56.034453 28.100127
-31.699494 56.665085 25.963679
-31.617602 56.354904 27.011193
-31.797556 57.087564 24.900804
-31.833849 55.521593 25.70699
-31.699494 56.665085 25.963679
-31.899659 57.319212 23.899777
-31.797556 57.087564 24.900804
3 0 32 31
3 0 35 33
3 0 31 35
3 1 39 37
3 125 124 40
3 2 45 43
3 4 48 46
3 4 50 48
3 4 52 50
3 126 54 127
3 129 128 54
3 131 130 56
3 3 132 133
3 5 59 58
3 6 62 60
3 6 64 62
3 6 66 64
3 135 134 68
3 7 71 69
3 136 72 137
3 138 68 139
3 140 139 72
3 138 139 140
3 141 75 142
3 143 142 73
3 141 142 143
3 144 76 145
3 146 77 147
3 148 147 76
3 146 147 148
3 150 149 77
3 12 151 153
3 153 152 79
3 151 152 153
3 13 82 80
3 15 83 34
3 15 84 83
3 15 86 84
3 155 154 36
3 17 156 157
3 18 87 38
3 18 88 87
3 8 89 70
3 158 90 159
3 160 159 41
3 158 159 160
3 162 161 90
3 19 93 91
3 163 94 164
3 165 164 42
3 163 164 165
3 166 95 167
3 168 167 94
3 166 167 168
3 21 96 44
3 21 97 96
3 9 98 74
3 22 99 47
3 22 100 99
3 22 101 100
3 23 102 49
3 23 169 171
3 171 170 102
3 169 170 171
3 23 172 174
3 172 103 173
3 172 173 174
3 24 104 51
3 24 105 104
3 10 106 78
3 25 107 53
3 25 108 107
3 25 109 108
3 19 110 55
3 19 91 110
3 26 175 177
3 175 111 176
3 175 176 177
3 26 112 111
3 11 178 180
3 178 113 179
3 178 179 180
3 27 114 57
3 27 115 114
3 27 116 115
3 20 181 183
3 183 182 92
3 181 182 183
3 14 117 81
3 185 184 61
3 28 186 188
3 188 187 63
3 186 187 188
3 28 189 190
3 28 191 192
3 29 118 65
3 29 119 118
3 16 120 85
3 30 121 67
3 30 122 121
3 30 123 122
3 194 193 7
3 31 195 196
3 32 197 199
3 199 198 31
3 197 198 199
3 32 200 201
3 203 202 12
3 33 34 13
3 35 34 33
3 35 15 34
3 35 36 15
3 31 36 35
3 31 204 206
3 206 205 36
3 204 205 206
3 37 38 17
3 39 38 37
3 39 18 38
3 40 41 8
3 207 41 208
3 209 208 40
3 207 208 209
3 211 210 41
3 212 42 213
3 214 213 19
3 212 213 214
3 215 42 216
3 218 217 42
3 43 219 221
3 219 44 220
3 219 220 221
3 45 44 43
3 45 21 44
3 46 47 9
3 48 47 46
3 48 22 47
3 48 49 22
3 50 49 48
3 50 23 49
3 50 51 23
3 52 51 50
3 52 24 51
3 222 53 223
3 224 223 10
3 222 223 224
3 54 225 227
3 225 53 226
3 225 226 227
3 54 25 53
3 54 55 25
3 228 55 229
3 230 229 54
3 228 229 230
3 231 19 232
3 233 232 55
3 231 232 233
3 234 26 235
3 56 57 11
3 236 57 237
3 238 237 56
3 236 237 238
3 239 27 240
3 241 240 57
3 239 240 241
3 243 242 27
3 245 244 20
3 58 246 247
3 59 248 250
3 250 249 58
3 248 249 250
3 59 251 252
3 60 61 14
3 62 61 60
3 62 253 255
3 255 254 61
3 253 254 255
3 62 256 258
3 256 63 257
3 256 257 258
3 64 63 62
3 64 28 63
3 64 65 28
3 66 65 64
3 66 29 65
3 259 67 260
3 261 260 16
3 259 260 261
3 262 67 263
3 264 30 265
3 266 265 67
3 264 265 266
3 268 267 30
3 68 269 270
3 272 271 68
3 69 70 1
3 71 70 69
3 71 8 70
3 273 71 274
3 275 274 7
3 273 274 275
3 72 276 278
3 276 71 277
3 276 277 278
3 72 8 71
3 72 40 8
3 68 40 72
3 68 279 281
3 281 280 40
3 279 280 281
3 73 74 2
3 75 74 73
3 75 9 74
3 282 75 283
3 76 284 286
3 284 75 285
3 284 285 286
3 76 9 75
3 76 46 9
3 77 46 76
3 77 4 46
3 77 78 4
3 287 78 288
3 289 288 77
3 287 288 289
3 290 10 291
3 292 291 78
3 290 291 292
3 293 10 294
3 296 295 10
3 297 11 298
3 299 11 300
3 301 56 302
3 303 302 11
3 301 302 303
3 304 56 305
3 307 306 56
3 79 308 310
3 310 309 3
3 308 309 310
3 312 311 79
3 314 313 12
3 80 81 5
3 82 81 80
3 82 14 81
3 34 82 13
3 83 82 34
3 83 14 82
3 83 60 14
3 84 60 83
3 84 6 60
3 84 85 6
3 86 85 84
3 86 16 85
3 36 86 15
3 315 86 316
3 317 316 36
3 315 316 317
3 318 16 319
3 320 319 86
3 318 319 320
3 322 321 16
3 38 323 325
3 325 324 17
3 323 324 325
3 87 326 328
3 328 327 38
3 326 327 328
3 87 329 330
3 87 331 332
3 88 333 335
3 335 334 87
3 333 334 335
3 88 336 337
3 70 39 1
3 89 39 70
3 89 18 39
3 41 89 8
3 90 89 41
3 90 18 89
3 90 88 18
3 338 88 339
3 340 339 90
3 338 339 340
3 342 341 88
3 91 92 0
3 93 92 91
3 93 20 92
3 42 93 19
3 94 93 42
3 94 20 93
3 94 343 345
3 345 344 20
3 343 344 345
3 95 346 348
3 348 347 94
3 346 347 348
3 95 349 350
3 351 95 352
3 353 95 354
3 356 355 95
3 44 357 358
3 96 359 361
3 361 360 44
3 359 360 361
3 96 362 363
3 96 364 365
3 97 366 368
3 368 367 96
3 366 367 368
3 97 369 371
3 369 3 370
3 369 370 371
3 74 45 2
3 98 45 74
3 98 21 45
3 47 98 9
3 99 98 47
3 99 21 98
3 99 97 21
3 100 97 99
3 100 3 97
3 100 79 3
3 101 79 100
3 101 12 79
3 49 101 22
3 102 101 49
3 102 12 101
3 102 372 374
3 374 373 12
3 372 373 374
3 376 375 102
3 103 377 378
3 103 379 380
3 51 103 23
3 104 103 51
3 104 381 383
3 383 382 103
3 381 382 383
3 104 384 386
3 384 58 385
3 384 385 386
3 105 58 104
3 105 5 58
3 78 52 4
3 106 52 78
3 106 24 52
3 53 106 10
3 107 106 53
3 107 24 106
3 107 105 24
3 108 105 107
3 108 5 105
3 108 80 5
3 109 80 108
3 109 13 80
3 55 109 25
3 110 109 55
3 110 13 109
3 110 33 13
3 91 33 110
3 91 0 33
3 111 387 388
3 111 389 390
3 111 391 393
3 391 43 392
3 391 392 393
3 112 43 111
3 112 2 43
3 113 394 395
3 113 396 398
3 396 26 397
3 396 397 398
3 57 113 11
3 114 113 57
3 114 26 113
3 114 112 26
3 115 112 114
3 115 2 112
3 115 73 2
3 116 73 115
3 116 399 401
3 401 400 73
3 399 400 401
3 402 116 403
3 404 403 27
3 402 403 404
3 405 116 406
3 408 407 116
3 92 32 0
3 409 32 410
3 411 410 92
3 409 410 411
3 413 412 32
3 415 414 20
3 417 416 3
3 81 59 5
3 117 59 81
3 117 418 420
3 420 419 59
3 418 419 420
3 61 117 14
3 421 117 422
3 423 422 61
3 421 422 423
3 425 424 117
3 63 426 427
3 429 428 63
3 430 17 431
3 65 432 434
3 434 433 28
3 432 433 434
3 118 435 437
3 437 436 65
3 435 436 437
3 118 438 440
3 438 17 439
3 438 439 440
3 118 37 17
3 119 37 118
3 119 1 37
3 85 66 6
3 120 66 85
3 120 29 66
3 67 120 16
3 121 120 67
3 121 29 120
3 121 119 29
3 122 119 121
3 122 1 119
3 122 69 1
3 123 69 122
3 123 7 69
3 441 123 442
3 443 442 30
3 441 442 443
3 444 123 445
3 446 7 447
3 448 447 123
3 446 447 448
3 450 449 7
