ply
format ascii 1.0
element vertex 112
property float x
property float y
property float z
element face 85
property list uchar int vertex_index
end_header
17.751371 -5.157186 -67.219872
21.11084 -4.583806 -67.361458
14.284958 -7.527386 -65.832588
22.292202 -10.866738 -64.822174
14.679812 -3.811411 -67.43058
16.010542 -6.296233 -66.612495
16.575172 -2.989737 -67.982727
17.037081 0.259995 -69.222221
18.352209 -2.096395 -68.397041
19.471348 -4.691329 -67.42141
13.922001 -11.152685 -64.230782
15.66815 -9.80503 -65.109627
17.292837 -8.488846 -65.85128
22.869965 -4.853596 -67.02784
21.896641 -7.571875 -66.159561
14.971967 -2.152828 -68.11829
14.030709 -2.637499 -67.77969
15.919647 -1.741991 -68.394363
15.627492 -3.400574 -67.706654
14.971967 -2.152828 -68.11829
18.019948 0.614019 -69.342472
17.341405 1.891145 -69.785076
18.677512 -0.564176 -68.929882
17.694645 -0.9182 -68.809631
18.019948 0.614019 -69.342472
20.291094 -4.637567 -67.391434
19.802467 -3.160346 -67.960728
20.622214 -3.106584 -67.930752
20.748345 -5.99754 -66.859108
19.928599 -6.051302 -66.889084
20.291094 -4.637567 -67.391434
13.429119 -8.25111 -65.336292
13.632891 -6.339353 -66.190227
14.103479 -9.340035 -65.031685
13.247641 -10.063759 -64.535389
13.429119 -8.25111 -65.336292
18.298882 -6.377129 -66.76273
18.069615 -8.042959 -66.078434
17.522104 -6.823016 -66.535576
23.791605 -5.135075 -66.734783
23.36823 -3.374265 -67.435306
22.094421 -9.219307 -65.490868
22.71029 -7.874223 -65.920204
22.908071 -9.521655 -65.25151
21.559025 -10.360087 -65.096153
21.361244 -8.712656 -65.764847
22.094421 -9.219307 -65.490868
21.521458 -3.094534 -67.834846
20.622214 -3.106584 -67.930752
13.830317 -4.481365 -66.989224
14.030709 -2.637499 -67.77969
14.482385 -5.669398 -66.631584
13.632891 -6.339353 -66.190227
13.830317 -4.481365 -66.989224
23.110878 -11.397863 -64.483074
22.908071 -9.521655 -65.25151
16.326981 1.538365 -69.629192
17.341405 1.891145 -69.785076
16.150602 -0.117125 -69.014111
16.326981 1.538365 -69.629192
16.806126 -1.364871 -68.602474
15.919647 -1.741991 -68.394363
16.150602 -0.117125 -69.014111
19.242898 -1.862879 -68.448543
18.677512 -0.564176 -68.929882
18.911778 -3.393862 -67.909225
19.242898 -1.862879 -68.448543
19.802467 -3.160346 -67.960728
19.15887 -6.144201 -66.863499
18.298882 -6.377129 -66.76273
18.611359 -4.924257 -67.320641
19.15887 -6.144201 -66.863499
19.928599 -6.051302 -66.889084
13.02326 -11.938261 -63.685158
13.247641 -10.063759 -64.535389
13.683351 -13.038192 -63.388634
13.02326 -11.938261 -63.685158
14.572234 -12.193494 -63.912239
13.683351 -13.038192 -63.388634
15.445308 -11.519666 -64.351662
14.572234 -12.193494 -63.912239
14.795075 -10.478858 -64.670205
16.31464 -10.731641 -64.803982
15.445308 -11.519666 -64.351662
17.126984 -10.073549 -65.174809
16.31464 -10.731641 -64.803982
16.480494 -9.146938 -65.480454
17.87117 -9.426597 -65.5103
17.126984 -10.073549 -65.174809
17.87117 -9.426597 -65.5103
18.069615 -8.042959 -66.078434
22.4028 -12.648596 -64.088658
23.110878 -11.397863 -64.483074
21.640372 -11.989529 -64.426857
22.4028 -12.648596 -64.088658
21.559025 -10.360087 -65.096153
21.640372 -11.989529 -64.426857
22.401021 -3.229429 -67.668037
23.36823 -3.374265 -67.435306
21.990403 -4.718701 -67.194649
21.521458 -3.094534 -67.834846
22.401021 -3.229429 -67.668037
23.196952 -6.515083 -66.354343
23.791605 -5.135075 -66.734783
22.383303 -6.212735 -66.5937
23.196952 -6.515083 -66.354343
22.71029 -7.874223 -65.920204
21.141246 -7.491575 -66.25816
20.748345 -5.99754 -66.859108
21.50374 -6.077841 -66.760509
21.141246 -7.491575 -66.25816
21.361244 -8.712656 -65.764847
3 15 4 16
3 17 6 18
3 19 18 4
3 17 18 19
3 20 7 21
3 22 8 23
3 24 23 7
3 22 23 24
3 1 25 27
3 25 9 26
3 25 26 27
3 1 28 30
3 30 29 9
3 28 29 30
3 2 31 32
3 2 33 35
3 33 10 34
3 33 34 35
3 2 11 10
3 0 12 5
3 0 36 38
3 38 37 12
3 36 37 38
3 39 13 40
3 3 41 43
3 41 14 42
3 41 42 43
3 3 44 46
3 46 45 14
3 44 45 46
3 47 1 48
3 4 49 50
3 4 51 53
3 51 2 52
3 51 52 53
3 4 5 2
3 6 5 4
3 6 0 5
3 54 3 55
3 7 56 57
3 7 58 59
3 7 60 62
3 60 6 61
3 60 61 62
3 8 6 7
3 8 0 6
3 63 8 64
3 9 65 67
3 65 8 66
3 65 66 67
3 9 0 8
3 9 68 70
3 70 69 0
3 68 69 70
3 72 71 9
3 10 73 74
3 10 75 76
3 10 77 78
3 11 79 81
3 81 80 10
3 79 80 81
3 11 82 83
3 5 11 2
3 12 11 5
3 12 84 86
3 86 85 11
3 84 85 86
3 12 87 88
3 90 89 12
3 91 3 92
3 93 3 94
3 96 95 3
3 13 97 98
3 13 99 101
3 99 1 100
3 99 100 101
3 102 13 103
3 14 104 106
3 104 13 105
3 104 105 106
3 14 1 13
3 14 107 109
3 109 108 1
3 107 108 109
3 111 110 14
