ply
format ascii 1.0
element vertex 192
property float x
property float y
property float z
element face 174
property list uchar int vertex_index
end_header
18.45204 -103.946091 -3.958584
9.305859 -104.359985 -7.274822
8.10548 -98.537498 2.821009
19.342726 -100.674713 2.303876
22.052872 -101.780922 -1.9054
24.234276 -101.702904 -6.162905
21.167955 -104.700188 -8.145055
17.028271 -106.424858 -10.203042
15.446519 -101.934677 0.28699
14.259993 -104.842834 -5.923816
11.157336 -102.05397 -1.446036
6.372864 -101.067184 -2.611961
18.827227 -102.407028 -0.798046
20.710011 -101.384636 0.22722
20.254152 -102.991234 -2.767775
21.687775 -103.301338 -4.961048
19.922195 -104.413567 -5.92662
19.287006 -105.742355 -9.257984
17.887228 -105.275253 -7.047871
13.798676 -100.61824 2.208992
13.249037 -102.133629 -0.679531
11.732999 -100.469986 1.623659
5.824014 -97.820618 2.511833
7.359897 -99.912979 0.113867
5.049132 -99.246834 -0.347741
3.927185 -100.312149 -3.14881
23.734009 -103.188828 -9.287918
25.043999 -101.222252 -8.113061
11.869246 -104.770767 -6.66754
6.755521 -96.472122 5.145557
23.286032 -101.731056 -3.791811
22.904221 -103.242096 -6.956967
22.284239 -104.642845 -10.274902
17.464678 -101.389 1.416432
17.032303 -103.090042 -1.839478
16.42178 -104.575439 -5.03845
14.933629 -103.441696 -2.728243
12.660426 -103.613586 -3.779226
10.324411 -103.421059 -4.545989
9.558949 -100.350586 0.704423
8.831062 -101.762283 -2.215405
7.964358 -102.869278 -4.962388
5.553742 -102.197601 -5.49214
15.670832 -105.798248 -8.123006
13.128937 -99.78582 3.331295
14.083486 -99.704483 3.818115
12.096099 -99.711693 3.038628
12.765837 -100.544113 1.916325
13.128937 -99.78582 3.331295
4.305392 -98.184292 0.857855
5.436573 -98.533726 1.082046
4.692833 -97.471184 2.287643
3.86748 -98.78249 -0.463772
4.305392 -98.184292 0.857855
23.84185 -103.507122 -11.947847
24.137757 -102.918339 -10.331778
23.438102 -103.777611 -10.903986
10.079429 -105.01015 -8.395633
11.361123 -105.215542 -8.091992
10.587553 -104.565376 -6.971181
6.080422 -95.391616 6.270094
7.052995 -95.610569 6.560785
5.627823 -96.12003 4.949353
6.080422 -95.391616 6.270094
20.168045 -100.081433 2.906675
19.494519 -99.701179 3.936211
22.147665 -100.937984 -0.338191
21.476235 -100.739841 0.728119
21.381442 -101.582779 -0.83909
22.780584 -100.976795 -1.358988
22.147665 -100.937984 -0.338191
22.669452 -101.755989 -2.848606
23.397164 -100.951862 -2.302194
22.780584 -100.976795 -1.358988
20.832813 -105.287994 -9.767581
21.390955 -105.259323 -10.832505
21.726097 -104.671516 -9.209979
17.707245 -106.587845 -11.261688
18.836613 -106.246594 -10.789158
18.157639 -106.083607 -9.730513
16.547507 -106.837124 -11.688175
17.707245 -106.587845 -11.261688
16.455599 -101.661838 0.851711
16.659132 -100.83456 2.357039
15.650053 -101.107399 1.792318
8.832214 -99.444042 1.762716
9.917604 -99.616959 2.104559
9.19087 -98.710414 3.162852
3.440571 -100.749806 -4.479297
2.709894 -99.767582 -3.22224
24.767035 -100.741371 -5.604523
24.390753 -100.877797 -4.581581
25.504846 -100.199093 -7.646138
25.354923 -100.890225 -9.133664
14.826131 -100.44918 2.753319
14.083486 -99.704483 3.818115
14.622598 -101.276458 1.247991
15.650053 -101.107399 1.792318
14.826131 -100.44918 2.753319
3.306507 -99.315147 -1.864306
4.488158 -99.779492 -1.748276
3.86748 -98.78249 -0.463772
2.709894 -99.767582 -3.22224
3.306507 -99.315147 -1.864306
24.792752 -101.935051 -9.74435
24.389004 -102.20554 -8.700489
24.137757 -102.918339 -10.331778
25.354923 -100.890225 -9.133664
24.792752 -101.935051 -9.74435
12.586824 -105.316883 -7.733299
13.782197 -105.352916 -7.361436
13.064619 -104.806801 -6.295678
12.586824 -105.316883 -7.733299
11.361123 -105.215542 -8.091992
8.443142 -97.742779 4.236794
9.19087 -98.710414 3.162852
7.768162 -96.710091 5.399068
7.052995 -95.610569 6.560785
7.4305 -97.50481 3.983283
8.443142 -97.742779 4.236794
7.768162 -96.710091 5.399068
5.16207 -96.794277 3.632491
6.289767 -97.14637 3.828695
5.627823 -96.12003 4.949353
4.692833 -97.471184 2.287643
5.16207 -96.794277 3.632491
20.851688 -100.436394 1.868348
20.168045 -100.081433 2.906675
20.026369 -101.029674 1.265548
20.851688 -100.436394 1.868348
21.476235 -100.739841 0.728119
23.916631 -100.891873 -3.396033
23.397164 -100.951862 -2.302194
23.760154 -101.71698 -4.977358
24.390753 -100.877797 -4.581581
23.916631 -100.891873 -3.396033
22.713217 -104.504619 -11.397479
23.438102 -103.777611 -10.903986
23.009124 -103.915836 -9.78141
21.853534 -105.207668 -11.925937
22.713217 -104.504619 -11.397479
21.853534 -105.207668 -11.925937
21.390955 -105.259323 -10.832505
19.892339 -105.809078 -10.324046
20.832813 -105.287994 -9.767581
20.22748 -105.221272 -8.701519
19.892339 -105.809078 -10.324046
18.836613 -106.246594 -10.789158
8.839255 -104.782959 -8.724854
8.098324 -104.093246 -7.611819
18.578506 -100.183639 3.337346
19.494519 -99.701179 3.936211
17.639482 -100.540783 2.893624
16.659132 -100.83456 2.357039
18.403702 -101.031857 1.860154
18.578506 -100.183639 3.337346
17.639482 -100.540783 2.893624
11.00463 -99.676659 2.564177
12.096099 -99.711693 3.038628
10.645974 -100.410286 1.164041
11.00463 -99.676659 2.564177
9.917604 -99.616959 2.104559
7.427573 -103.347893 -6.455602
8.098324 -104.093246 -7.611819
8.635108 -103.614632 -6.118605
6.222265 -103.012055 -6.720478
7.427573 -103.347893 -6.455602
6.75905 -102.53344 -5.227264
4.938631 -102.546112 -6.861976
6.222265 -103.012055 -6.720478
4.25385 -101.692532 -5.650962
4.740463 -101.254875 -4.320475
3.440571 -100.749806 -4.479297
4.938631 -102.546112 -6.861976
4.25385 -101.692532 -5.650962
25.171897 -100.501046 -6.579601
24.767035 -100.741371 -5.604523
24.639138 -101.462578 -7.137983
25.171897 -100.501046 -6.579601
25.504846 -100.199093 -7.646138
14.487617 -105.830624 -8.461032
14.965412 -105.320541 -7.023411
13.782197 -105.352916 -7.361436
15.184815 -106.26638 -9.605392
14.487617 -105.830624 -8.461032
15.863534 -106.579685 -10.64541
16.349552 -106.111553 -9.163024
15.184815 -106.26638 -9.605392
16.547507 -106.837124 -11.688175
15.863534 -106.579685 -10.64541
10.079429 -105.01015 -8.395633
8.839255 -104.782959 -8.724854
3 0 14 12
3 0 16 14
3 0 18 16
3 44 19 45
3 46 21 47
3 48 47 19
3 46 47 48
3 49 24 50
3 51 50 22
3 49 50 51
3 53 52 24
3 56 55 26
3 54 55 56
3 1 57 59
3 59 58 28
3 57 58 59
3 60 29 61
3 63 62 29
3 3 64 65
3 4 66 68
3 68 67 13
3 66 67 68
3 4 69 70
3 4 71 73
3 71 30 72
3 71 72 73
3 6 31 15
3 6 32 31
3 6 74 76
3 76 75 32
3 74 75 76
3 7 77 79
3 79 78 17
3 77 78 79
3 7 80 81
3 8 82 84
3 82 33 83
3 82 83 84
3 8 34 33
3 8 36 34
3 10 37 20
3 10 38 37
3 2 85 87
3 85 39 86
3 85 86 87
3 11 40 23
3 11 41 40
3 11 42 41
3 89 88 25
3 5 90 91
3 93 92 27
3 9 43 35
3 12 13 3
3 14 13 12
3 14 4 13
3 14 15 4
3 16 15 14
3 16 6 15
3 16 17 6
3 18 17 16
3 18 7 17
3 19 94 95
3 19 96 98
3 96 8 97
3 96 97 98
3 19 20 8
3 21 20 19
3 21 10 20
3 22 23 2
3 24 23 22
3 24 11 23
3 24 25 11
3 99 25 100
3 101 100 24
3 99 100 101
3 103 102 25
3 26 27 5
3 104 27 105
3 106 105 26
3 104 105 106
3 108 107 27
3 28 109 111
3 111 110 9
3 109 110 111
3 113 112 28
3 114 2 115
3 29 116 117
3 29 118 120
3 118 2 119
3 118 119 120
3 29 22 2
3 121 22 122
3 123 122 29
3 121 122 123
3 125 124 22
3 13 126 128
3 128 127 3
3 126 127 128
3 130 129 13
3 30 131 132
3 30 133 135
3 133 5 134
3 133 134 135
3 15 30 4
3 31 30 15
3 31 5 30
3 31 26 5
3 32 26 31
3 32 136 138
3 138 137 26
3 136 137 138
3 32 139 140
3 142 141 32
3 17 143 145
3 145 144 6
3 143 144 145
3 147 146 17
3 149 148 1
3 150 3 151
3 33 152 153
3 33 154 156
3 154 3 155
3 154 155 156
3 33 12 3
3 34 12 33
3 34 0 12
3 34 35 0
3 36 35 34
3 36 9 35
3 20 36 8
3 37 36 20
3 37 9 36
3 37 28 9
3 38 28 37
3 38 1 28
3 157 21 158
3 39 159 161
3 159 21 160
3 159 160 161
3 39 10 21
3 23 39 2
3 40 39 23
3 40 10 39
3 40 38 10
3 41 38 40
3 41 1 38
3 41 162 164
3 164 163 1
3 162 163 164
3 42 165 167
3 167 166 41
3 165 166 167
3 42 168 169
3 25 42 11
3 170 42 171
3 172 171 25
3 170 171 172
3 174 173 42
3 27 175 177
3 177 176 5
3 175 176 177
3 179 178 27
3 35 18 0
3 43 18 35
3 43 7 18
3 180 43 181
3 182 181 9
3 180 181 182
3 183 43 184
3 185 7 186
3 187 186 43
3 185 186 187
3 189 188 7
3 191 190 1
