ply
format ascii 1.0
element vertex 79
property float x
property float y
property float z
element face 61
property list uchar int vertex_index
end_header
28.830105 -14.950172 -61.546738
28.707493 -23.474199 -58.148159
25.632677 -20.553526 -60.325909
26.374949 -30.526773 -56.027863
28.379372 -27.481709 -56.598316
26.784445 -26.289219 -57.654633
27.158607 -21.931217 -59.342041
25.405973 -24.779827 -58.650532
28.895578 -19.244892 -59.8134
27.292568 -17.769354 -60.991299
23.7742 -23.605106 -59.45351
24.096712 -19.255665 -61.16785
25.607625 -29.823671 -56.518919
25.3042 -32.074294 -55.688143
25.812373 -27.704894 -57.332304
26.579697 -28.407996 -56.841248
25.607625 -29.823671 -56.518919
25.123137 -26.950198 -57.830253
26.095209 -25.534523 -58.152582
25.812373 -27.704894 -57.332304
28.749688 -13.013348 -62.312534
29.575997 -13.422852 -61.777264
28.055525 -14.346964 -62.065807
28.749688 -13.013348 -62.312534
29.52204 -23.994837 -57.560805
29.35798 -25.998593 -56.785883
28.543433 -25.477954 -57.373238
29.602773 -21.916056 -58.385818
29.52204 -23.994837 -57.560805
28.801535 -21.359545 -58.980779
29.696815 -19.801403 -59.218439
29.602773 -21.916056 -58.385818
25.707977 -18.589278 -61.100378
26.537923 -17.197192 -61.433073
26.462623 -19.16144 -60.658604
22.780538 -24.931665 -59.042564
23.551219 -25.794798 -58.60526
23.282635 -18.631166 -61.534618
23.146021 -20.610461 -60.744009
24.154393 -17.359347 -61.92267
23.282635 -18.631166 -61.534618
29.660146 -15.543973 -60.93226
29.575997 -13.422852 -61.777264
26.119391 -32.739377 -55.202826
25.3042 -32.074294 -55.688143
27.187224 -31.149769 -55.481822
26.119391 -32.739377 -55.202826
27.377161 -29.004241 -56.31309
28.189435 -29.627237 -55.767048
27.187224 -31.149769 -55.481822
29.124852 -28.170006 -55.974424
28.189435 -29.627237 -55.767048
29.124852 -28.170006 -55.974424
29.35798 -25.998593 -56.785883
29.692882 -17.691333 -60.065591
29.696815 -19.801403 -59.218439
28.862842 -17.097532 -60.680069
29.660146 -15.543973 -60.93226
29.692882 -17.691333 -60.065591
27.286756 -15.756555 -61.788088
28.055525 -14.346964 -62.065807
28.061336 -16.359763 -61.269019
27.286756 -15.756555 -61.788088
26.537923 -17.197192 -61.433073
24.367106 -26.382158 -58.203772
25.123137 -26.950198 -57.830253
24.590086 -24.192467 -59.052021
24.367106 -26.382158 -58.203772
23.551219 -25.794798 -58.60526
22.984765 -22.785181 -59.886839
22.780538 -24.931665 -59.042564
23.935456 -21.430385 -60.31068
22.984765 -22.785181 -59.886839
23.146021 -20.610461 -60.744009
24.939995 -17.940347 -61.521349
25.707977 -18.589278 -61.100378
24.864694 -19.904595 -60.74688
24.939995 -17.940347 -61.521349
24.154393 -17.359347 -61.92267
3 12 3 13
3 14 5 15
3 16 15 3
3 14 15 16
3 17 7 18
3 19 18 5
3 17 18 19
3 0 20 21
3 0 22 23
3 1 24 26
3 26 25 4
3 24 25 26
3 1 27 28
3 1 29 31
3 29 8 30
3 29 30 31
3 2 9 6
3 2 32 34
3 34 33 9
3 32 33 34
3 35 10 36
3 37 11 38
3 40 39 11
3 41 0 42
3 3 43 44
3 3 45 46
3 3 47 49
3 47 4 48
3 47 48 49
3 5 4 3
3 5 1 4
3 5 6 1
3 7 6 5
3 7 2 6
3 4 50 51
3 53 52 4
3 8 54 55
3 8 56 58
3 56 0 57
3 56 57 58
3 6 8 1
3 9 8 6
3 9 0 8
3 9 59 61
3 61 60 0
3 59 60 61
3 63 62 9
3 64 7 65
3 10 66 68
3 66 7 67
3 66 67 68
3 10 2 7
3 69 10 70
3 11 71 73
3 71 10 72
3 71 72 73
3 11 2 10
3 11 74 76
3 76 75 2
3 74 75 76
3 78 77 11
