ply
format ascii 1.0
element vertex 377
property float x
property float y
property float z
element face 398
property list uchar int vertex_index
end_header
-15.702964 26.112459 63.869106
-1.288523 30.260149 53.570263
-10.875224 17.34691 64.046021
-8.335062 28.877369 58.583012
-3.988358 19.262455 59.16106
3.04009 20.13328 54.270176
-8.487589 13.484251 63.729103
-7.359223 18.496147 61.576523
-5.431643 14.523905 61.517323
-2.160407 14.761455 59.258282
-18.100122 31.012718 63.198071
-14.395636 33.162357 60.736118
-4.901721 29.822056 55.980774
-7.291891 35.137589 55.417126
-17.002823 19.245121 66.459076
-19.370565 24.030899 65.798737
2.217687 30.846048 51.288765
4.721301 15.21207 54.383179
6.448107 20.350037 51.871113
8.302398 15.477412 51.669163
-13.11451 21.400269 64.068153
-11.882342 27.93932 61.191849
-9.597676 22.87059 61.555588
-6.006557 23.999773 58.878479
-2.58442 24.635038 56.45322
1.047362 25.134327 54.009514
-0.489683 19.630272 56.744293
1.237124 15.013751 56.864571
-10.8845 34.24427 58.1679
4.555984 25.392708 51.715321
-7.573001 11.77029 63.612553
-6.991998 14.066798 62.646839
-6.161379 12.297488 62.585144
-8.998107 11.09725 64.637016
-4.720716 12.441401 61.59726
-16.835754 28.775753 63.483471
-16.170313 32.305695 61.960651
-14.962242 29.568768 62.347603
-3.086132 30.114107 54.721069
-4.251835 32.713245 54.424129
-2.529289 33.033375 53.230003
-0.761123 33.229218 52.100395
-16.269926 22.649172 65.193039
-18.084494 21.628271 66.150627
-17.550297 24.944088 64.986015
-18.716843 27.523121 64.550186
1.078981 33.390003 50.975025
0.466789 30.34971 52.497681
6.50794 15.195205 53.090836
-12.009591 19.214542 64.130409
-11.338085 22.188787 62.82835
-10.25208 20.083036 62.854733
-5.587479 18.883804 60.322208
-6.67472 21.130592 60.293083
-4.884426 21.622459 58.97282
-4.281374 24.515156 57.579773
-3.184853 21.839407 57.799046
-11.361188 14.46923 65.123535
-12.700496 16.355785 65.32296
-13.76369 18.427046 65.280411
-1.431888 22.153894 56.563175
-2.242031 19.677607 57.884296
-0.464276 14.847416 58.075809
1.977898 12.703503 56.916378
-10.060398 28.387495 59.889301
-11.337687 30.933027 59.746136
-9.551201 31.503063 58.368988
2.065128 22.661921 54.162971
2.807128 25.189001 52.895023
3.854556 22.610937 53.01836
-9.578811 15.360744 63.865902
-9.148973 18.017267 62.831501
-7.953031 16.035719 62.690487
-6.335948 16.466167 61.545235
-4.696967 16.689779 60.414177
-10.12249 12.658363 64.904755
-2.974003 17.148968 59.136131
-3.800994 14.625568 60.406582
-3.181301 12.420965 60.560341
-13.85398 36.273052 59.218025
-6.611969 29.389111 57.256557
-7.764667 32.047943 56.971237
-5.966563 32.326618 55.6782
-5.540099 35.428322 54.149372
-21.223396 22.431448 66.562584
-22.320055 24.730728 65.911049
-20.594761 26.062468 65.411865
-19.976555 29.849701 64.099838
4.009546 30.700018 50.275337
3.878817 17.450211 54.422558
4.777459 20.087601 53.110611
5.77906 17.715494 53.020485
7.456973 17.829502 51.765972
10.07299 15.494722 50.249027
-14.371784 23.790266 63.973022
-13.770254 27.152412 62.55513
-12.501429 24.743378 62.662964
-10.712584 25.261702 61.427563
-9.02074 25.924116 60.130661
-8.50364 20.647169 61.608444
-7.78893 23.620461 60.159988
-7.155228 26.620998 58.667923
-5.366582 26.935488 57.388741
-3.637489 27.419941 56.100063
-1.841409 27.432341 54.973907
-15.633735 17.190786 66.483658
-15.044274 20.410131 65.319351
-0.149673 27.532938 53.904953
-0.785509 24.855049 55.244301
0.240474 22.496778 55.379841
1.270827 20.009336 55.473175
-1.310059 17.244328 57.992607
0.381594 17.298538 56.83852
2.105186 17.485886 55.624798
2.907349 15.022202 55.70673
-13.221837 30.435745 61.081146
-12.568788 33.685429 59.460293
-12.134514 37.19138 57.790886
-9.09409 34.821823 56.749779
1.607832 27.885952 52.721222
3.321573 27.938553 51.662224
5.155605 28.205122 50.421669
5.51517 22.891148 51.826546
-6.446654 11.518963 62.960442
-6.86719 12.033889 63.098849
-7.152464 11.255364 63.474146
-7.152464 11.255364 63.474146
-7.720363 10.861504 63.918108
-5.900709 11.461676 62.61684
-6.446654 11.518963 62.960442
-3.7101 11.469587 61.147161
-3.951009 12.431183 61.0788
-4.479807 11.479805 61.665621
-2.88192 11.428172 60.591189
-3.7101 11.469587 61.147161
-17.77576 32.82119 62.429081
-18.679337 32.31212 62.915974
-15.027259 34.478193 60.569227
-15.914598 34.049862 61.181494
-15.282974 32.734026 61.348384
-14.124808 34.717704 59.977071
-14.756431 36.033541 59.810181
-15.027259 34.478193 60.569227
-4.707354 35.601488 53.550117
-4.895967 34.070784 54.28675
-4.063222 34.243949 53.687496
-5.30288 37.058188 53.32226
-4.707354 35.601488 53.550117
-17.948335 18.809726 66.874393
-17.314758 17.676212 66.988526
-19.728812 22.176836 66.405735
-19.085777 20.975522 66.58168
-18.727529 22.829585 65.974682
-20.296981 23.231174 66.180661
-20.655228 21.377111 66.787658
-19.728812 22.176836 66.405735
-18.679337 32.31212 62.915974
-19.617554 31.730612 63.366858
-19.038339 30.43121 63.648955
2.575621 32.17835 50.574358
2.006267 33.450327 50.417488
1.648334 32.118026 51.131895
3.113617 30.773033 50.782051
3.47155 32.105334 50.067644
2.575621 32.17835 50.574358
8.77085 16.648038 51.033747
8.348137 17.824084 51.082151
7.879685 16.653457 51.717568
9.187694 15.486067 50.959095
9.656146 16.656693 50.323679
8.77085 16.648038 51.033747
-15.040287 16.23777 66.476642
-16.017948 15.631727 67.044915
2.874616 12.713675 56.279425
2.255415 11.577191 56.978178
-22.838338 25.835762 65.516083
-21.985113 26.526223 65.350609
-8.432916 10.524984 64.43034
-9.140141 9.924277 64.988147
-8.57495 9.352011 64.781471
-8.285554 11.43377 64.124785
-8.432916 10.524984 64.43034
-7.720363 10.861504 63.918108
-5.180378 11.533632 62.122898
-5.441047 12.369445 62.091202
-5.900709 11.461676 62.61684
-4.479807 11.479805 61.665621
-5.180378 11.533632 62.122898
-3.201949 34.404015 53.090433
-4.063222 34.243949 53.687496
-3.390562 32.87331 53.827066
-2.273257 34.463943 52.499914
-3.201949 34.404015 53.090433
-1.389174 34.561865 51.93511
-2.273257 34.463943 52.499914
-1.645206 33.131297 52.665199
-0.471106 34.63718 51.367243
-1.099158 35.969828 51.201957
-1.389174 34.561865 51.93511
0.158929 33.309611 51.53771
0.448945 34.717573 50.804558
-0.471106 34.63718 51.367243
6.010819 14.011304 53.725047
5.614621 15.203637 53.737008
5.1175 14.019737 54.371218
6.907181 14.084976 53.039
6.010819 14.011304 53.725047
7.80441 14.22608 52.328164
7.405169 15.336308 52.379999
6.907181 14.084976 53.039
8.67286 14.309641 51.630886
7.80441 14.22608 52.328164
-12.274734 13.880487 65.754536
-11.628232 13.05078 65.630581
-12.944388 14.823764 65.854248
-12.274734 13.880487 65.754536
-12.030842 15.412508 65.223247
-13.573667 15.82027 65.896293
-12.944388 14.823764 65.854248
-13.232093 17.391416 65.301685
-14.105265 16.855901 65.875019
-13.573667 15.82027 65.896293
-0.984134 13.693524 58.726921
-1.312342 14.804436 58.667046
-1.8322 13.650543 59.318157
-0.0894 13.745845 58.094158
-0.984134 13.693524 58.726921
0.7613 13.829012 57.488539
0.386424 14.930584 57.47019
-0.0894 13.745845 58.094158
1.131687 12.673888 57.514443
1.607511 13.858627 56.890474
0.7613 13.829012 57.488539
1.401482 11.553282 57.587938
1.131687 12.673888 57.514443
2.255415 11.577191 56.978178
1.401482 11.553282 57.587938
-7.938373 36.623386 55.236884
-7.026728 36.643528 54.619203
6.85451 21.659281 51.226706
7.37392 20.400761 51.177568
-9.783193 10.607389 65.204525
-9.140141 9.924277 64.988147
-10.345385 11.387946 65.338394
-9.783193 10.607389 65.204525
-9.560299 11.877807 64.770885
-11.008883 12.145346 65.521191
-10.345385 11.387946 65.338394
-10.741839 13.563796 65.014145
-11.628232 13.05078 65.630581
-11.008883 12.145346 65.521191
-2.342646 12.480298 59.969187
-1.8322 13.650543 59.318157
-2.670854 13.59121 59.909312
-2.342646 12.480298 59.969187
-2.88192 11.428172 60.591189
-16.810856 33.467679 61.810371
-17.77576 32.82119 62.429081
-17.135217 31.659206 62.579361
-16.810856 33.467679 61.810371
-15.914598 34.049862 61.181494
-14.537332 37.704193 59.028352
-14.756431 36.033541 59.810181
-13.643917 38.058933 58.364002
-14.537332 37.704193 59.028352
-6.150832 36.788894 53.985326
-7.026728 36.643528 54.619203
-6.415995 35.282955 54.783249
-6.150832 36.788894 53.985326
-5.30288 37.058188 53.32226
-18.489171 20.001301 66.720169
-17.948335 18.809726 66.874393
-17.543658 20.436696 66.304851
-18.489171 20.001301 66.720169
-19.085777 20.975522 66.58168
-21.579766 20.531256 67.118649
-20.655228 21.377111 66.787658
-22.128017 21.635281 66.786663
-21.579766 20.531256 67.118649
-21.771726 23.581088 66.236817
-22.676346 22.784921 66.460895
-22.128017 21.635281 66.786663
-21.122466 27.192093 65.101017
-21.985113 26.526223 65.350609
-21.457408 25.396598 65.661457
-20.813363 29.08571 64.445004
-21.122466 27.192093 65.101017
-20.285658 27.956084 64.755852
-20.53828 31.045051 63.773068
-20.813363 29.08571 64.445004
-20.179279 32.925962 63.040087
-20.53828 31.045051 63.773068
-19.617554 31.730612 63.366858
1.31398 34.777634 50.287134
0.448945 34.717573 50.804558
1.31398 34.777634 50.287134
2.006267 33.450327 50.417488
4.316389 32.14156 49.551275
3.47155 32.105334 50.067644
4.89197 30.786573 49.691597
5.198812 32.228116 48.967535
4.316389 32.14156 49.551275
7.878353 19.140494 51.124998
7.37392 20.400761 51.177568
6.95254 19.08977 51.818542
7.878353 19.140494 51.124998
8.348137 17.824084 51.082151
10.537731 16.799399 49.56909
9.656146 16.656693 50.323679
10.95118 15.648445 49.469276
10.537731 16.799399 49.56909
9.558156 14.318296 50.920818
9.187694 15.486067 50.959095
8.67286 14.309641 51.630886
10.481392 14.37418 50.146296
9.558156 14.318296 50.920818
11.359581 14.527902 49.366545
10.95118 15.648445 49.469276
10.481392 14.37418 50.146296
-16.630215 16.649045 67.000817
-16.017948 15.631727 67.044915
-16.318279 18.217954 66.471367
-17.314758 17.676212 66.988526
-16.630215 16.649045 67.000817
-14.698712 17.808916 65.882035
-15.040287 16.23777 66.476642
-14.105265 16.855901 65.875019
3.339341 13.873024 55.6746
2.442623 13.862852 56.311554
2.874616 12.713675 56.279425
4.246317 13.967958 55.012825
3.814325 15.117136 55.044955
3.339341 13.873024 55.6746
5.1175 14.019737 54.371218
4.246317 13.967958 55.012825
-12.784184 38.518097 57.650433
-13.643917 38.058933 58.364002
-12.994247 36.732216 58.504455
-8.839472 36.465503 55.90321
-8.192991 34.979706 56.083452
-7.938373 36.623386 55.236884
-9.735084 36.161307 56.631424
-8.839472 36.465503 55.90321
-10.630288 35.87253 57.340485
-9.989295 34.533046 57.458839
-9.735084 36.161307 56.631424
-11.255295 37.346085 57.151978
-11.509507 35.717825 57.979393
-10.630288 35.87253 57.340485
-11.870548 38.810074 56.946083
-11.255295 37.346085 57.151978
-12.520218 40.136791 56.80563
-12.784184 38.518097 57.650433
-11.870548 38.810074 56.946083
-23.192804 23.874457 66.048359
-22.676346 22.784921 66.460895
-23.711087 24.97949 65.653393
-23.192804 23.874457 66.048359
-22.838338 25.835762 65.516083
5.465 29.539125 49.764763
4.89197 30.786573 49.691597
4.582576 29.45257 50.348503
6.388041 22.929837 51.204422
5.981639 21.620593 51.84883
6.85451 21.659281 51.226706
5.892114 24.140237 51.201508
6.388041 22.929837 51.204422
5.41252 25.391017 51.145895
5.035577 24.141928 51.770933
5.892114 24.140237 51.201508
5.712331 26.797224 50.499069
4.855795 26.798915 51.068495
5.41252 25.391017 51.145895
6.059714 28.163704 49.832962
5.712331 26.797224 50.499069
5.465 29.539125 49.764763
6.059714 28.163704 49.832962
3 123 32 124
3 125 124 30
3 123 124 125
3 126 30 127
3 129 128 32
3 0 37 35
3 1 40 38
3 1 41 40
3 0 44 42
3 0 35 44
3 1 47 41
3 2 51 49
3 4 54 52
3 4 56 54
3 2 58 57
3 2 49 58
3 4 61 56
3 3 66 64
3 5 69 67
3 6 72 70
3 8 73 31
3 8 74 73
3 6 75 33
3 6 70 75
3 8 77 74
3 130 78 131
3 132 131 34
3 130 131 132
3 134 133 78
3 10 135 136
3 11 137 139
3 139 138 36
3 137 138 139
3 11 140 142
3 140 79 141
3 140 141 142
3 12 82 80
3 143 83 144
3 145 144 39
3 143 144 145
3 147 146 83
3 14 148 149
3 15 150 152
3 152 151 43
3 150 151 152
3 15 153 155
3 153 84 154
3 153 154 155
3 15 86 84
3 10 87 45
3 10 156 158
3 158 157 87
3 156 157 158
3 16 159 161
3 161 160 46
3 159 160 161
3 16 162 164
3 162 88 163
3 162 163 164
3 17 91 89
3 19 92 48
3 19 165 167
3 167 166 92
3 165 166 167
3 19 168 170
3 168 93 169
3 168 169 170
3 20 96 94
3 22 97 50
3 22 98 97
3 7 99 71
3 23 100 53
3 23 101 100
3 23 102 101
3 24 103 55
3 24 104 103
3 171 105 172
3 20 106 59
3 20 94 106
3 24 108 104
3 26 109 60
3 26 110 109
3 9 111 76
3 27 112 62
3 27 113 112
3 27 114 113
3 174 173 63
3 21 115 95
3 28 116 65
3 28 117 116
3 13 118 81
3 176 175 85
3 25 119 107
3 29 120 68
3 29 121 120
3 18 122 90
3 30 31 6
3 32 31 30
3 32 8 31
3 177 33 178
3 177 178 179
3 30 180 182
3 180 33 181
3 180 181 182
3 30 6 33
3 32 34 8
3 183 34 184
3 185 184 32
3 183 184 185
3 187 186 34
3 35 36 10
3 37 36 35
3 37 11 36
3 38 39 12
3 40 39 38
3 40 188 190
3 190 189 39
3 188 189 190
3 40 191 192
3 41 193 195
3 195 194 40
3 193 194 195
3 41 196 198
3 196 197 198
3 42 43 14
3 44 43 42
3 44 15 43
3 44 45 15
3 35 45 44
3 35 10 45
3 41 199 201
3 199 46 200
3 199 200 201
3 47 46 41
3 47 16 46
3 202 48 203
3 204 203 17
3 202 203 204
3 205 48 206
3 207 19 208
3 209 208 48
3 207 208 209
3 211 210 19
3 49 50 20
3 51 50 49
3 51 22 50
3 52 53 7
3 54 53 52
3 54 23 53
3 54 55 23
3 56 55 54
3 56 24 55
3 57 212 213
3 58 214 216
3 216 215 57
3 214 215 216
3 58 217 218
3 58 219 221
3 219 59 220
3 219 220 221
3 49 59 58
3 49 20 59
3 56 60 24
3 61 60 56
3 61 26 60
3 222 62 223
3 224 223 9
3 222 223 224
3 225 62 226
3 227 27 228
3 229 228 62
3 227 228 229
3 230 63 231
3 232 231 27
3 230 231 232
3 233 63 234
3 236 235 63
3 64 65 21
3 66 65 64
3 66 28 65
3 238 237 13
3 67 68 25
3 69 68 67
3 69 29 68
3 240 239 18
3 70 71 2
3 72 71 70
3 72 7 71
3 31 72 6
3 73 72 31
3 73 7 72
3 73 52 7
3 74 52 73
3 74 4 52
3 33 241 242
3 75 243 245
3 245 244 33
3 243 244 245
3 75 246 247
3 75 248 250
3 248 57 249
3 248 249 250
3 70 57 75
3 70 2 57
3 74 76 4
3 77 76 74
3 77 9 76
3 34 77 8
3 78 77 34
3 78 9 77
3 78 251 253
3 253 252 9
3 251 252 253
3 255 254 78
3 36 256 258
3 258 257 10
3 256 257 258
3 260 259 36
3 79 261 262
3 79 263 264
3 80 81 3
3 82 81 80
3 82 13 81
3 39 82 12
3 83 82 39
3 83 13 82
3 83 265 267
3 267 266 13
3 265 266 267
3 269 268 83
3 43 270 272
3 272 271 14
3 270 271 272
3 274 273 43
3 84 275 276
3 84 277 278
3 84 279 281
3 279 85 280
3 279 280 281
3 86 85 84
3 86 282 284
3 284 283 85
3 282 283 284
3 45 86 15
3 87 86 45
3 87 285 287
3 287 286 86
3 285 286 287
3 87 288 289
3 292 291 87
3 290 291 292
3 46 293 294
3 296 295 46
3 88 297 298
3 88 299 301
3 299 300 301
3 89 90 5
3 91 90 89
3 91 18 90
3 48 91 17
3 92 91 48
3 92 18 91
3 92 302 304
3 304 303 18
3 302 303 304
3 306 305 92
3 93 307 308
3 93 309 310
3 311 93 312
3 313 312 19
3 311 312 313
3 314 93 315
3 318 317 93
3 316 317 318
3 94 95 0
3 96 95 94
3 96 21 95
3 50 96 20
3 97 96 50
3 97 21 96
3 97 64 21
3 98 64 97
3 98 3 64
3 71 51 2
3 99 51 71
3 99 22 51
3 53 99 7
3 100 99 53
3 100 22 99
3 100 98 22
3 101 98 100
3 101 3 98
3 101 80 3
3 102 80 101
3 102 12 80
3 55 102 23
3 103 102 55
3 103 12 102
3 103 38 12
3 104 38 103
3 104 1 38
3 105 319 320
3 105 321 323
3 321 14 322
3 321 322 323
3 59 324 326
3 324 105 325
3 324 325 326
3 106 105 59
3 106 14 105
3 106 42 14
3 94 42 106
3 94 0 42
3 104 107 1
3 108 107 104
3 108 25 107
3 60 108 24
3 109 108 60
3 109 25 108
3 109 67 25
3 110 67 109
3 110 5 67
3 76 61 4
3 111 61 76
3 111 26 61
3 62 111 9
3 112 111 62
3 112 26 111
3 112 110 26
3 113 110 112
3 113 5 110
3 113 89 5
3 114 89 113
3 114 17 89
3 63 114 27
3 327 114 328
3 329 328 63
3 327 328 329
3 330 17 331
3 332 331 114
3 330 331 332
3 334 333 17
3 95 37 0
3 115 37 95
3 115 11 37
3 65 115 21
3 116 115 65
3 116 11 115
3 116 79 11
3 117 79 116
3 117 335 337
3 337 336 79
3 335 336 337
3 81 66 3
3 118 66 81
3 118 28 66
3 338 118 339
3 340 339 13
3 338 339 340
3 341 118 342
3 343 28 344
3 345 344 118
3 343 344 345
3 346 117 347
3 348 347 28
3 346 347 348
3 349 117 350
3 353 352 117
3 351 352 353
3 85 354 355
3 358 357 85
3 356 357 358
3 107 47 1
3 119 47 107
3 119 16 47
3 68 119 25
3 120 119 68
3 120 16 119
3 120 88 16
3 121 88 120
3 121 359 361
3 361 360 88
3 359 360 361
3 90 69 5
3 122 69 90
3 122 29 69
3 362 122 363
3 364 363 18
3 362 363 364
3 365 122 366
3 367 29 368
3 369 368 122
3 367 368 369
3 370 121 371
3 372 371 29
3 370 371 372
3 373 121 374
3 376 375 121
