ply
format ascii 1.0
element vertex 88
property float x
property float y
property float z
element face 70
property list uchar int vertex_index
end_header
-29.596855 -14.227453 37.956196
-30.097269 -6.612409 37.61253
-29.588991 -8.808709 41.092407
-30.508774 -5.824322 35.850018
-29.401003 -17.77352 38.23608
-29.48222 -10.023573 42.929214
-29.818626 -5.094357 40.828728
-29.84289 -10.533196 37.665501
-29.954807 -13.146448 36.23465
-30.230482 -9.493038 35.982117
-29.364826 -15.078013 39.65427
-29.386692 -12.492611 41.344952
-29.562145 -11.333798 39.542507
-29.783581 -7.920458 39.284187
-29.664738 -15.570944 37.17182
-29.566812 -17.343978 37.311762
-29.498929 -16.000487 38.096138
-30.611561 -7.254335 35.069365
-30.785403 -5.304077 34.949015
-30.054428 -14.577015 35.459494
-30.18813 -12.740657 35.353985
-29.292126 -15.556612 40.622057
-29.283235 -16.828235 39.810465
-29.9315 -4.597375 39.95582
-29.945336 -3.114807 40.750214
-30.452777 -4.37086 36.588882
-30.303021 -6.218366 36.731274
-30.247025 -4.764903 37.470139
-30.68278 -3.836655 35.703665
-30.452777 -4.37086 36.588882
-30.959409 -3.31641 34.802662
-30.785403 -5.304077 34.949015
-30.68278 -3.836655 35.703665
-29.47345 -19.046752 37.475676
-29.337161 -19.520705 38.342098
-29.47345 -19.046752 37.475676
-29.566812 -17.343978 37.311762
-29.565561 -8.618475 43.727798
-29.490591 -10.36742 43.975487
-29.582308 -8.112958 42.831903
-29.565561 -8.618475 43.727798
-29.635694 -7.505526 41.9135
-29.535606 -9.416141 42.010811
-29.582308 -8.112958 42.831903
-29.750511 -5.64835 41.78166
-29.703809 -6.951533 40.960567
-29.635694 -7.505526 41.9135
-29.857206 -3.786012 41.676917
-29.750511 -5.64835 41.78166
-29.945336 -3.114807 40.750214
-29.857206 -3.786012 41.676917
-30.325967 -10.913951 35.227719
-30.18813 -12.740657 35.353985
-30.092644 -11.319743 36.108384
-30.472415 -9.088693 35.135414
-30.369628 -7.65868 35.916067
-30.611561 -7.254335 35.069365
-30.325967 -10.913951 35.227719
-30.472415 -9.088693 35.135414
-29.843713 -15.030442 36.311047
-29.664738 -15.570944 37.17182
-29.775831 -13.686951 37.095423
-29.843713 -15.030442 36.311047
-30.054428 -14.577015 35.459494
-29.301324 -18.175989 39.10137
-29.337161 -19.520705 38.342098
-29.237482 -19.923174 39.207388
-29.382914 -16.425767 38.945175
-29.301324 -18.175989 39.10137
-29.283235 -16.828235 39.810465
-29.403289 -11.705717 43.119267
-29.490591 -10.36742 43.975487
-29.355525 -12.940236 42.327135
-29.403289 -11.705717 43.119267
-29.434456 -11.258092 42.137083
-29.303058 -14.263912 41.467398
-29.355525 -12.940236 42.327135
-29.375759 -13.785312 40.499611
-29.292126 -15.556612 40.622057
-29.303058 -14.263912 41.467398
-29.913978 -6.010426 39.183549
-29.801103 -6.507407 40.056458
-29.9315 -4.597375 39.95582
-30.070822 -5.356401 38.347721
-29.940425 -7.266433 38.448358
-29.913978 -6.010426 39.183549
-30.247025 -4.764903 37.470139
-30.070822 -5.356401 38.347721
3 0 14 16
3 16 15 4
3 14 15 16
3 1 9 7
3 18 17 3
3 20 19 8
3 21 10 22
3 2 11 5
3 2 12 11
3 2 13 12
3 24 23 6
3 25 3 26
3 27 26 1
3 25 26 27
3 28 3 29
3 32 31 3
3 30 31 32
3 4 33 34
3 36 35 4
3 37 5 38
3 39 5 40
3 41 2 42
3 43 42 5
3 41 42 43
3 44 6 45
3 46 45 2
3 44 45 46
3 47 6 48
3 50 49 6
3 7 8 0
3 9 8 7
3 9 51 53
3 53 52 8
3 51 52 53
3 3 9 1
3 54 9 55
3 56 55 3
3 54 55 56
3 58 57 9
3 8 59 61
3 61 60 0
3 59 60 61
3 63 62 8
3 64 4 65
3 64 65 66
3 10 67 69
3 67 4 68
3 67 68 69
3 10 0 4
3 5 70 71
3 11 72 74
3 74 73 5
3 72 73 74
3 11 75 76
3 11 77 79
3 77 10 78
3 77 78 79
3 12 10 11
3 12 0 10
3 12 7 0
3 13 7 12
3 13 1 7
3 6 13 2
3 80 13 81
3 82 81 6
3 80 81 82
3 83 1 84
3 85 84 13
3 83 84 85
3 87 86 1
