ply
format ascii 1.0
element vertex 563
property float x
property float y
property float z
element face 545
property list uchar int vertex_index
end_header
21.813738 63.687004 -16.440695
25.823698 54.93568 -2.441801
19.866184 75.464775 -21.408499
15.361182 75.839066 -29.286892
0.875525 56.505856 -48.405788
4.524652 45.870422 -51.033966
24.743767 59.897377 -9.635037
4.989321 65.589211 -42.956364
9.969376 72.493362 -36.617069
22.100956 57.598915 -14.359391
21.144222 69.751343 -18.868103
19.181787 70.756538 -22.565262
19.962627 64.853264 -19.624519
4.265379 55.067822 -46.316799
2.547865 50.815121 -49.416855
5.678085 49.859959 -47.443665
25.505648 57.589821 -6.076673
25.29887 53.709343 -8.520334
26.376532 51.378014 -5.463036
14.57956 70.055809 -29.649315
12.749164 74.516243 -32.957417
12.236762 68.293198 -33.024551
9.951637 65.919197 -36.484711
17.68951 76.154121 -25.568964
16.974373 70.715004 -26.082842
-2.77343 57.507832 -49.964939
1.197873 46.1502 -52.164555
22.793184 68.1567 -15.019608
23.444799 62.07901 -13.172264
23.931454 66.326996 -11.21015
24.578157 63.837189 -7.104511
23.84799 55.637146 -11.456809
-0.89635 62.946926 -47.997246
2.83093 61.306297 -45.772587
5.962517 59.373276 -43.065521
7.43912 69.308304 -39.837875
7.898922 63.009655 -39.753983
21.125063 61.201984 -16.737223
21.220482 58.145012 -15.628071
22.015499 60.7728 -15.353154
21.599535 66.680138 -17.512644
20.690273 67.344292 -19.248234
20.946884 64.289825 -17.968859
20.151924 61.73027 -18.236612
5.707916 54.519516 -44.999008
5.001066 52.388859 -46.744396
25.733603 56.20327 -4.331831
25.933788 54.456272 -5.802798
26.215628 53.331757 -4.092022
13.418033 69.296349 -31.311409
17.859184 78.347237 -24.930269
18.811132 75.711929 -23.561499
18.599554 68.173264 -22.812336
18.055317 70.837929 -24.415762
17.493259 67.87059 -24.411831
-0.850833 56.864525 -49.247398
-1.838057 54.337364 -50.298935
-0.002713 53.951817 -49.62112
3.552162 48.393097 -50.027988
1.98478 48.49073 -50.779663
2.878182 46.250477 -51.574654
23.431639 67.295532 -13.10251
24.706625 62.312469 -5.007114
22.255438 71.197891 -16.089308
24.170631 61.02132 -11.371693
23.6609 58.803326 -12.277047
24.405993 57.766575 -10.653813
25.624657 50.511749 -7.989911
24.853962 51.222992 -9.371945
2.261515 64.489944 -45.584328
4.005712 63.462837 -44.282703
4.478739 60.499096 -44.448063
5.5135 62.447922 -42.923752
15.433165 78.592323 -29.005274
14.215122 78.030449 -30.870472
11.340413 73.50444 -34.83849
11.405004 76.592873 -34.719532
8.754991 70.87587 -38.166779
8.904675 64.59153 -38.128277
8.221128 59.709839 -39.742191
20.551809 72.71859 -20.215549
19.607714 73.128105 -22.103445
20.25951 70.234413 -20.601553
19.679983 67.94249 -21.056145
18.911671 65.160439 -21.273045
2.617516 55.982441 -47.386379
1.7049 53.487949 -48.858639
3.355834 53.122074 -47.871307
4.180923 50.422276 -48.486404
5.107872 47.787689 -49.309052
25.170849 58.918949 -7.917707
25.017904 56.92128 -9.05599
25.541145 55.70171 -7.372662
25.88072 52.512695 -7.047668
26.251516 49.322342 -6.706703
15.04605 73.028862 -29.51067
14.100317 75.130081 -31.093521
13.834109 72.373344 -31.215866
12.49575 71.512321 -33.075539
11.241851 70.579216 -34.81385
10.085354 69.203743 -36.396954
11.103275 67.373039 -34.740124
26.445721 51.878365 -2.456095
16.664976 78.542076 -27.035723
16.57415 75.973747 -27.417395
18.521557 73.429497 -24.080204
17.441647 73.490364 -25.884125
16.178301 73.261719 -27.834562
15.794732 70.544006 -27.878056
15.292986 67.633896 -27.826452
-3.641996 54.516178 -50.873699
-2.55652 51.512772 -51.238144
-1.411326 48.80175 -51.725319
0.962275 51.032234 -50.157211
0.283063 48.538754 -51.37915
22.408735 65.903801 -15.823695
22.671997 63.033802 -14.824418
23.14957 65.354378 -14.131769
23.832544 64.105309 -12.270168
24.377455 63.223869 -10.375321
24.786156 61.96793 -8.530132
25.068977 60.671001 -6.629877
25.217356 59.31554 -4.6238
25.280773 57.793556 -2.707179
25.201517 56.475124 -0.761632
21.473686 71.918747 -18.142233
22.012341 68.92379 -16.965525
22.84177 59.913532 -13.880247
22.976723 56.695415 -12.957232
23.104712 53.379608 -12.06764
24.643721 54.490063 -9.946038
26.766167 50.195015 -3.817081
-1.803137 60.214417 -48.999966
0.073874 59.767139 -48.069016
1.025079 62.423561 -46.893536
1.821054 58.957714 -47.12318
3.532964 58.239052 -45.946468
5.017063 57.427269 -44.725395
6.521947 56.192669 -43.293571
12.836223 77.438416 -32.819332
6.151231 67.663025 -41.453907
8.802896 67.869286 -38.172028
7.687576 66.17173 -39.748405
6.503319 64.367264 -41.448715
6.948599 61.206802 -41.370113
7.276873 58.207897 -41.574951
6.063328 53.069769 -45.266886
6.393633 53.869368 -44.375755
19.338658 75.588352 -22.484999
18.882493 76.829887 -23.164644
19.410019 76.70631 -22.088144
17.670902 66.620979 -23.670807
18.046406 68.021927 -23.612083
18.224049 66.772316 -22.87106
17.137336 66.587723 -24.48111
17.670902 66.620979 -23.670807
4.14999 44.92749 -51.869272
3.326755 45.117517 -52.139616
3.701417 46.060449 -51.30431
25.444907 47.577364 -8.324887
25.329408 49.287611 -8.454987
25.740156 48.801502 -7.859811
4.497516 64.526024 -43.619534
3.641903 65.117771 -44.320617
4.133707 66.180958 -43.657448
9.987696 74.010177 -36.554672
10.673215 74.515716 -35.665382
10.654895 72.998901 -35.727779
9.290789 73.341435 -37.403469
9.987696 74.010177 -36.554672
9.362184 71.684616 -37.391924
8.683596 72.532689 -38.178324
9.290789 73.341435 -37.403469
21.691188 56.238153 -14.442685
21.250951 56.511202 -15.077025
21.660719 57.871963 -14.993731
22.132714 55.8561 -13.847112
21.691188 56.238153 -14.442685
19.540599 63.436477 -19.684006
19.015121 63.590065 -20.508269
19.437149 65.006851 -20.448782
19.663691 60.398218 -18.351025
20.194947 60.222522 -17.630678
15.518363 66.247268 -26.945894
15.826936 67.761593 -27.011157
14.981269 66.104466 -27.823889
15.518363 66.247268 -26.945894
-3.207713 56.012005 -50.419319
-4.193473 56.094639 -50.766644
-3.759189 57.590466 -50.312264
-1.6102 51.45537 -50.961374
-2.197288 52.925068 -50.76854
-1.250968 52.867666 -50.49177
-1.037602 50.099859 -51.204962
-1.983923 50.157261 -51.481731
-1.6102 51.45537 -50.961374
0.349208 46.14205 -52.333517
-0.108197 47.336327 -51.940815
0.740468 47.344477 -51.771853
0.874534 44.898395 -52.814787
0.349208 46.14205 -52.333517
24.468122 64.389568 -8.142092
24.322804 65.254768 -7.403977
24.682156 62.90256 -7.817322
24.572121 63.454939 -8.854902
24.468122 64.389568 -8.142092
24.967712 60.0592 -3.82812
24.96199 60.814004 -4.815457
24.712346 61.557665 -4.019777
24.99942 59.298208 -2.869809
25.249064 58.554548 -3.66549
24.967712 60.0592 -3.82812
24.82077 57.184223 0.070587
24.890791 57.982302 -0.900049
25.190196 55.598119 0.134055
24.82077 57.184223 0.070587
21.492732 73.066002 -17.735925
21.118614 73.339821 -18.759659
24.450079 51.809565 -10.029767
24.491535 50.120461 -9.745541
26.925651 49.4781 -3.025142
26.605944 51.03669 -3.136588
26.765428 50.319775 -2.344648
-1.349743 61.580671 -48.498606
-2.353027 61.865416 -48.975861
-1.899633 63.23167 -48.474501
11.403005 78.087639 -34.562989
10.636821 77.578285 -35.543161
6.717239 70.105828 -40.554743
7.384457 70.982261 -39.775842
6.795176 68.485665 -40.645891
6.073295 69.283188 -41.362758
6.717239 70.105828 -40.554743
7.860455 57.41542 -40.826223
7.749001 58.958868 -40.658571
8.332583 58.166392 -39.909843
7.527922 56.619326 -41.696468
7.860455 57.41542 -40.826223
21.172773 59.673498 -16.182647
20.729226 58.429894 -16.326407
20.681517 59.95838 -16.880983
20.681517 59.95838 -16.880983
20.194947 60.222522 -17.630678
20.638494 61.466127 -17.486918
5.709903 52.004441 -46.139579
5.354491 53.454188 -45.871702
6.063328 53.069769 -45.266886
6.048412 50.739991 -46.489214
5.339576 51.124409 -47.094031
5.709903 52.004441 -46.139579
13.791513 68.053895 -30.383598
13.998797 69.676079 -30.480362
14.372277 68.433625 -29.552551
13.242404 67.749157 -31.256949
13.791513 68.053895 -30.383598
12.651769 67.247581 -32.11352
12.827398 68.794774 -32.16798
13.242404 67.749157 -31.256949
12.12509 66.813523 -32.966198
12.651769 67.247581 -32.11352
18.406519 78.147541 -23.849028
17.808304 79.536477 -24.53503
18.335158 77.029583 -24.245884
18.406519 78.147541 -23.849028
18.882493 76.829887 -23.164644
16.927073 67.87994 -25.303846
16.66763 69.302147 -26.139352
17.233816 69.292797 -25.247336
16.927073 67.87994 -25.303846
17.137336 66.587723 -24.48111
-0.333296 52.674892 -50.152862
-1.250968 52.867666 -50.49177
-0.920385 54.14459 -49.960027
2.53189 45.152563 -52.314322
1.691736 45.102424 -52.609272
2.038028 46.200339 -51.869605
2.53189 45.152563 -52.314322
3.326755 45.117517 -52.139616
23.164525 68.760006 -13.610062
23.112412 67.726116 -14.061059
22.845298 69.19059 -14.568611
23.418502 68.308754 -12.56148
23.164525 68.760006 -13.610062
23.668409 67.824486 -11.6153
23.681546 66.811264 -12.15633
23.418502 68.308754 -12.56148
24.355951 64.62574 -6.327547
24.322804 65.254768 -7.403977
24.420185 63.86338 -5.278849
24.642391 63.074829 -6.055813
24.355951 64.62574 -6.327547
24.41386 63.100572 -4.238733
24.420185 63.86338 -5.278849
24.12742 64.651483 -4.510468
24.712346 61.557665 -4.019777
24.41386 63.100572 -4.238733
22.22646 72.222511 -15.64145
21.883608 72.705574 -16.709463
22.576425 70.711185 -15.103461
22.22646 72.222511 -15.64145
22.845298 69.19059 -14.568611
22.524311 69.677295 -15.554458
22.576425 70.711185 -15.103461
24.94406 49.643232 -9.146004
25.239309 50.86737 -8.680928
25.329408 49.287611 -8.454987
24.491535 50.120461 -9.745541
24.94406 49.643232 -9.146004
-1.285989 64.489897 -47.951834
-1.899633 63.23167 -48.474501
2.769804 65.631325 -44.97143
1.860283 66.128108 -45.605164
3.133614 63.97639 -44.933515
2.769804 65.631325 -44.97143
3.641903 65.117771 -44.320617
14.738838 79.720505 -29.813235
15.433409 79.750927 -28.733113
14.129817 79.439568 -30.745833
14.738838 79.720505 -29.813235
14.824143 78.311386 -29.937873
13.499727 79.09499 -31.703167
14.129817 79.439568 -30.745833
10.70551 76.059933 -35.605903
11.372708 75.048656 -34.779011
10.673215 74.515716 -35.665382
10.636821 77.578285 -35.543161
10.70551 76.059933 -35.605903
8.042393 71.766044 -38.940295
8.683596 72.532689 -38.178324
8.097055 70.092087 -39.002327
7.384457 70.982261 -39.775842
8.042393 71.766044 -38.940295
9.42202 63.629773 -37.292694
9.428156 65.255364 -37.306494
9.945501 64.293606 -36.470911
8.9823 62.94258 -38.110294
9.42202 63.629773 -37.292694
8.479423 62.151642 -38.923147
8.401798 63.800593 -38.94113
8.9823 62.94258 -38.110294
8.640526 60.501734 -38.917251
8.060025 61.359747 -39.748087
8.479423 62.151642 -38.923147
8.759434 58.846604 -38.916669
8.640526 60.501734 -38.917251
8.332583 58.166392 -39.909843
8.759434 58.846604 -38.916669
20.73556 56.77568 -15.722786
20.729226 58.429894 -16.326407
20.73556 56.77568 -15.722786
21.250951 56.511202 -15.077025
18.380108 65.265904 -22.101414
18.224049 66.772316 -22.87106
18.755612 66.666852 -22.04269
18.49967 63.734656 -21.287944
18.380108 65.265904 -22.101414
18.49967 63.734656 -21.287944
19.015121 63.590065 -20.508269
19.635248 61.87498 -18.990053
19.540599 63.436477 -19.684006
20.057276 63.291767 -18.930566
19.635248 61.87498 -18.990053
19.663691 60.398218 -18.351025
26.053586 48.206798 -7.218207
25.740156 48.801502 -7.859811
25.938086 49.917046 -7.348307
4.800773 67.261562 -42.904572
4.133707 66.180958 -43.657448
11.558346 66.353443 -33.823985
11.670019 67.833119 -33.882338
12.12509 66.813523 -32.966198
11.044312 65.767029 -34.680782
11.558346 66.353443 -33.823985
10.468493 65.040108 -35.553076
10.527456 66.646118 -35.612417
11.044312 65.767029 -34.680782
9.945501 64.293606 -36.470911
10.468493 65.040108 -35.553076
26.176467 52.61517 -1.60172
26.134709 53.407022 -2.448948
25.865455 54.143827 -1.594573
26.504516 51.169936 -1.555775
26.176467 52.61517 -1.60172
26.824223 49.611345 -1.444328
26.765428 50.319775 -2.344648
26.504516 51.169936 -1.555775
17.249765 79.62621 -25.641268
17.808304 79.536477 -24.53503
16.652662 79.723629 -26.693995
17.249765 79.62621 -25.641268
17.26208 78.444657 -25.982996
16.049315 79.725803 -27.748337
16.652662 79.723629 -26.693995
16.04907 78.567199 -28.020499
15.433409 79.750927 -28.733113
16.049315 79.725803 -27.748337
16.077809 69.216648 -27.036959
16.384552 70.629505 -26.980449
16.66763 69.302147 -26.139352
15.543859 69.088951 -27.852254
16.077809 69.216648 -27.036959
15.826936 67.761593 -27.011157
14.72899 67.222668 -28.64112
14.372277 68.433625 -29.552551
14.936273 68.844853 -28.737884
14.72899 67.222668 -28.64112
14.981269 66.104466 -27.823889
-4.611645 54.617859 -51.121285
-4.193473 56.094639 -50.766644
-4.030691 53.080492 -51.262703
-4.611645 54.617859 -51.121285
-3.487953 51.578789 -51.444925
-4.030691 53.080492 -51.262703
-3.099258 53.014475 -51.055921
-2.914031 50.118313 -51.66543
-3.487953 51.578789 -51.444925
-2.341434 48.762802 -51.909018
-2.914031 50.118313 -51.66543
-1.983923 50.157261 -51.481731
-1.808479 47.413438 -52.223356
-2.341434 48.762802 -51.909018
0.149198 51.215101 -50.420908
-0.333296 52.674892 -50.152862
0.479781 52.492025 -49.889165
-0.190408 49.968361 -51.031878
0.149198 51.215101 -50.420908
0.622669 49.785494 -50.76818
-0.564132 48.670252 -51.552234
-1.037602 50.099859 -51.204962
-0.190408 49.968361 -51.031878
-0.955391 47.467825 -52.1139
-0.564132 48.670252 -51.552234
-0.108197 47.336327 -51.940815
-1.808479 47.413438 -52.223356
-0.955391 47.467825 -52.1139
0.874534 44.898395 -52.814787
1.691736 45.102424 -52.609272
23.873801 67.175335 -10.549751
23.668409 67.824486 -11.6153
24.14477 65.634472 -10.194911
23.873801 67.175335 -10.549751
24.36777 64.082909 -9.777497
24.154454 64.775432 -10.792735
24.14477 65.634472 -10.194911
24.581806 62.5959 -9.452727
24.36777 64.082909 -9.777497
24.572121 63.454939 -8.854902
24.930419 58.641518 -1.872823
24.99942 59.298208 -2.869809
25.241145 57.13434 -1.734406
24.930419 58.641518 -1.872823
24.890791 57.982302 -0.900049
25.554365 54.913549 -0.754489
25.865455 54.143827 -1.594573
25.512608 55.705402 -1.601716
25.554365 54.913549 -0.754489
25.190196 55.598119 0.134055
19.836103 76.586083 -21.065622
19.410019 76.70631 -22.088144
20.314863 75.112835 -20.392792
19.836103 76.586083 -21.065622
20.657675 73.739743 -19.796317
20.208996 74.091683 -20.812024
20.314863 75.112835 -20.392792
21.012747 72.318669 -19.178891
20.657675 73.739743 -19.796317
21.118614 73.339821 -18.759659
21.864562 71.558319 -17.11577
21.492732 73.066002 -17.735925
21.883608 72.705574 -16.709463
22.570597 55.40435 -13.146033
22.132714 55.8561 -13.847112
22.53884 57.147165 -13.658311
22.634591 53.746446 -12.701237
22.570597 55.40435 -13.146033
23.040717 55.037511 -12.512436
22.642569 52.067083 -12.262646
22.634591 53.746446 -12.701237
24.344958 53.4431 -10.316813
24.748841 52.856527 -9.658991
24.450079 51.809565 -10.029767
23.947093 54.016642 -11.072198
24.245855 55.063604 -10.701424
24.344958 53.4431 -10.316813
23.575454 52.887873 -11.377614
23.476351 54.508377 -11.762225
23.947093 54.016642 -11.072198
23.153078 51.798944 -11.693431
23.575454 52.887873 -11.377614
23.623819 51.307209 -11.003405
22.690935 50.48642 -11.888437
22.642569 52.067083 -12.262646
23.153078 51.798944 -11.693431
27.032813 48.700531 -3.811743
26.925651 49.4781 -3.025142
26.802499 49.224865 -4.533554
27.032813 48.700531 -3.811743
26.607681 49.816364 -5.356532
26.57135 50.786514 -4.640059
26.802499 49.224865 -4.533554
26.545173 48.788528 -5.978365
26.314024 50.350178 -6.084869
26.607681 49.816364 -5.356532
26.452501 47.782999 -6.539433
26.545173 48.788528 -5.978365
26.053586 48.206798 -7.218207
26.452501 47.782999 -6.539433
-3.256387 59.012928 -49.892021
-3.759189 57.590466 -50.312264
-2.771241 60.36622 -49.409534
-2.353027 61.865416 -48.975861
-2.288283 58.861125 -49.482453
-3.256387 59.012928 -49.892021
-2.771241 60.36622 -49.409534
-0.274641 64.214426 -47.387865
-1.285989 64.489897 -47.951834
1.304291 64.985935 -46.181406
1.860283 66.128108 -45.605164
0.686073 63.952743 -46.83601
1.304291 64.985935 -46.181406
1.643297 63.456752 -46.238932
0.064365 62.685243 -47.445391
-0.274641 64.214426 -47.387865
0.686073 63.952743 -46.83601
6.800649 54.705944 -43.523037
6.393633 53.869368 -44.375755
6.114931 55.356093 -44.14629
12.810278 78.798974 -32.677597
13.499727 79.09499 -31.703167
13.525672 77.734432 -31.844902
12.118615 78.510411 -33.612888
12.120614 77.015645 -33.769432
11.403005 78.087639 -34.562989
12.810278 78.798974 -32.677597
12.118615 78.510411 -33.612888
5.381728 68.29847 -42.153343
6.073295 69.283188 -41.362758
5.570276 66.626118 -42.205135
4.800773 67.261562 -42.904572
5.381728 68.29847 -42.153343
7.150459 55.611711 -42.555779
6.89941 57.200283 -42.434261
7.527922 56.619326 -41.696468
7.429161 54.124987 -42.785244
6.800649 54.705944 -43.523037
7.150459 55.611711 -42.555779
6.396481 49.485907 -46.841868
6.048412 50.739991 -46.489214
6.148461 48.624266 -47.818495
6.396481 49.485907 -46.841868
5.863355 47.588131 -48.751188
5.392978 48.823824 -48.376359
6.148461 48.624266 -47.818495
5.581918 46.692785 -49.75618
5.863355 47.588131 -48.751188
5.290308 45.734151 -50.618637
4.816262 46.829055 -50.171509
5.581918 46.692785 -49.75618
4.965102 44.84963 -51.588415
5.290308 45.734151 -50.618637
5.730758 44.713359 -51.173086
4.14999 44.92749 -51.869272
4.965102 44.84963 -51.588415
3 0 39 37
3 0 42 40
3 0 37 42
3 147 146 44
3 1 48 46
3 2 148 150
3 148 51 149
3 148 149 150
3 151 54 152
3 153 152 52
3 151 152 153
3 155 154 54
3 4 57 55
3 5 60 58
3 5 156 158
3 158 157 60
3 156 157 158
3 6 66 64
3 161 160 67
3 159 160 161
3 7 162 164
3 162 70 163
3 162 163 164
3 7 72 70
3 3 74 73
3 8 165 167
3 167 166 75
3 165 166 167
3 8 168 169
3 8 170 172
3 170 77 171
3 170 171 172
3 9 173 175
3 175 174 38
3 173 174 175
3 9 176 177
3 10 82 80
3 12 83 41
3 12 84 83
3 12 178 180
3 180 179 84
3 178 179 180
3 182 181 43
3 13 87 85
3 15 88 45
3 15 89 88
3 16 92 90
3 18 93 47
3 18 94 93
3 19 97 95
3 21 98 49
3 21 99 98
3 21 101 99
3 23 103 50
3 23 104 103
3 11 105 81
3 24 106 53
3 24 107 106
3 24 108 107
3 183 109 184
3 186 185 109
3 25 187 189
3 187 110 188
3 187 188 189
3 190 111 191
3 192 191 56
3 190 191 192
3 193 112 194
3 195 194 111
3 193 194 195
3 14 113 86
3 26 114 59
3 26 196 198
3 198 197 114
3 196 197 198
3 26 199 200
3 27 117 115
3 29 118 61
3 29 119 118
3 30 201 202
3 30 203 205
3 203 120 204
3 203 204 205
3 30 121 120
3 206 122 207
3 208 207 62
3 206 207 208
3 209 123 210
3 211 210 122
3 209 210 211
3 212 124 213
3 215 214 124
3 216 125 217
3 27 126 63
3 27 115 126
3 28 127 116
3 31 128 65
3 31 129 128
3 17 130 91
3 219 218 68
3 220 131 221
3 222 221 102
3 220 221 222
3 32 223 225
3 223 132 224
3 223 224 225
3 32 133 132
3 33 134 69
3 33 135 134
3 33 136 135
3 34 137 71
3 34 138 137
3 20 139 96
3 227 226 76
3 35 228 229
3 35 230 232
3 230 140 231
3 230 231 232
3 22 141 100
3 36 142 78
3 36 143 142
3 36 144 143
3 233 145 234
3 235 234 79
3 233 234 235
3 237 236 145
3 37 238 240
3 238 38 239
3 238 239 240
3 39 38 37
3 39 9 38
3 40 41 10
3 42 41 40
3 42 12 41
3 42 43 12
3 37 43 42
3 37 241 243
3 243 242 43
3 241 242 243
3 44 45 13
3 244 45 245
3 246 245 44
3 244 245 246
3 247 15 248
3 249 248 45
3 247 248 249
3 46 47 16
3 48 47 46
3 48 18 47
3 250 49 251
3 252 251 19
3 250 251 252
3 253 49 254
3 255 21 256
3 257 256 49
3 255 256 257
3 259 258 21
3 260 50 261
3 51 262 264
3 262 50 263
3 262 263 264
3 51 23 50
3 52 53 11
3 54 53 52
3 54 24 53
3 54 265 267
3 267 266 24
3 265 266 267
3 269 268 54
3 55 56 25
3 57 56 55
3 57 270 272
3 272 271 56
3 270 271 272
3 58 59 14
3 60 59 58
3 60 26 59
3 60 273 275
3 275 274 26
3 273 274 275
3 277 276 60
3 278 61 279
3 280 279 27
3 278 279 280
3 281 61 282
3 283 29 284
3 285 284 61
3 283 284 285
3 286 30 287
3 288 62 289
3 290 289 30
3 288 289 290
3 291 62 292
3 291 292 293
3 295 294 62
3 296 63 297
3 298 63 299
3 300 27 301
3 302 301 63
3 300 301 302
3 64 65 28
3 66 65 64
3 66 31 65
3 67 68 17
3 303 68 304
3 305 304 67
3 303 304 305
3 307 306 68
3 308 32 309
3 310 69 311
3 70 312 314
3 312 69 313
3 312 313 314
3 70 33 69
3 70 71 33
3 72 71 70
3 72 34 71
3 73 315 316
3 74 317 319
3 319 318 73
3 317 318 319
3 74 320 321
3 75 76 20
3 322 76 323
3 324 323 75
3 322 323 324
3 326 325 76
3 77 327 328
3 77 329 331
3 329 35 330
3 329 330 331
3 332 78 333
3 334 333 22
3 332 333 334
3 335 78 336
3 337 36 338
3 339 338 78
3 337 338 339
3 340 79 341
3 342 341 36
3 340 341 342
3 343 79 344
3 346 345 79
3 38 347 348
3 350 349 38
3 80 81 2
3 82 81 80
3 82 11 81
3 41 82 10
3 83 82 41
3 83 11 82
3 83 52 11
3 84 52 83
3 84 351 353
3 353 352 52
3 351 352 353
3 84 354 355
3 357 356 84
3 43 358 360
3 360 359 12
3 358 359 360
3 362 361 43
3 85 86 4
3 87 86 85
3 87 14 86
3 45 87 13
3 88 87 45
3 88 14 87
3 88 58 14
3 89 58 88
3 89 5 58
3 90 91 6
3 92 91 90
3 92 17 91
3 47 92 16
3 93 92 47
3 93 17 92
3 93 67 17
3 94 67 93
3 94 363 365
3 365 364 67
3 363 364 365
3 366 7 367
3 95 96 3
3 97 96 95
3 97 20 96
3 49 97 19
3 98 97 49
3 98 20 97
3 98 75 20
3 99 75 98
3 99 8 75
3 99 100 8
3 101 100 99
3 101 22 100
3 368 101 369
3 370 369 21
3 368 369 370
3 371 101 372
3 373 22 374
3 375 374 101
3 373 374 375
3 377 376 22
3 378 102 379
3 380 379 1
3 378 379 380
3 381 102 382
3 385 384 102
3 383 384 385
3 50 386 387
3 103 388 390
3 390 389 50
3 388 389 390
3 103 391 392
3 103 393 395
3 393 73 394
3 393 394 395
3 104 73 103
3 104 3 73
3 81 51 2
3 105 51 81
3 105 23 51
3 53 105 11
3 106 105 53
3 106 23 105
3 106 104 23
3 107 104 106
3 107 3 104
3 107 95 3
3 108 95 107
3 108 19 95
3 396 108 397
3 398 397 24
3 396 397 398
3 109 399 401
3 399 108 400
3 399 400 401
3 109 19 108
3 109 402 404
3 404 403 19
3 402 403 404
3 406 405 109
3 110 407 408
3 110 409 410
3 56 110 25
3 111 110 56
3 111 411 413
3 413 412 110
3 411 412 413
3 111 414 415
3 112 416 418
3 418 417 111
3 416 417 418
3 112 419 420
3 86 57 4
3 113 57 86
3 113 421 423
3 423 422 57
3 421 422 423
3 59 113 14
3 114 113 59
3 114 424 426
3 426 425 113
3 424 425 426
3 114 427 429
3 427 112 428
3 427 428 429
3 430 112 431
3 432 431 114
3 430 431 432
3 434 433 112
3 436 435 26
3 115 116 0
3 117 116 115
3 117 28 116
3 61 117 27
3 118 117 61
3 118 28 117
3 118 64 28
3 119 64 118
3 119 6 64
3 437 29 438
3 439 29 440
3 441 119 442
3 443 442 29
3 441 442 443
3 120 444 446
3 444 119 445
3 444 445 446
3 120 6 119
3 120 90 6
3 121 90 120
3 121 16 90
3 62 121 30
3 122 121 62
3 122 16 121
3 122 46 16
3 123 46 122
3 123 1 46
3 447 123 448
3 124 449 451
3 449 123 450
3 449 450 451
3 124 1 123
3 124 452 454
3 454 453 1
3 452 453 454
3 456 455 124
3 457 2 458
3 459 2 460
3 461 80 462
3 463 462 2
3 461 462 463
3 125 464 466
3 464 80 465
3 464 465 466
3 125 10 80
3 63 467 469
3 467 125 468
3 467 468 469
3 126 125 63
3 126 10 125
3 126 40 10
3 115 40 126
3 115 0 40
3 116 39 0
3 127 39 116
3 127 9 39
3 65 127 28
3 128 127 65
3 128 9 127
3 128 470 472
3 472 471 9
3 470 471 472
3 129 473 475
3 475 474 128
3 473 474 475
3 129 476 477
3 91 66 6
3 130 66 91
3 130 31 66
3 68 130 17
3 478 130 479
3 480 479 68
3 478 479 480
3 481 31 482
3 483 482 130
3 481 482 483
3 484 129 485
3 486 485 31
3 484 485 486
3 487 129 488
3 487 488 489
3 492 491 129
3 490 491 492
3 102 48 1
3 131 48 102
3 131 18 48
3 493 131 494
3 495 131 496
3 497 18 498
3 499 498 131
3 497 498 499
3 500 94 501
3 502 501 18
3 500 501 502
3 503 94 504
3 506 505 94
3 507 25 508
3 132 509 510
3 132 511 513
3 511 25 512
3 511 512 513
3 132 55 25
3 133 55 132
3 133 4 55
3 514 32 515
3 69 516 517
3 134 518 520
3 520 519 69
3 518 519 520
3 134 521 523
3 521 32 522
3 521 522 523
3 134 133 32
3 135 133 134
3 135 4 133
3 135 85 4
3 136 85 135
3 136 13 85
3 71 136 33
3 137 136 71
3 137 13 136
3 137 44 13
3 138 44 137
3 138 524 526
3 526 525 44
3 524 525 526
3 96 74 3
3 139 74 96
3 139 527 529
3 529 528 74
3 527 528 529
3 76 139 20
3 530 139 531
3 532 531 76
3 530 531 532
3 534 533 139
3 140 535 536
3 140 537 539
3 537 7 538
3 537 538 539
3 100 77 8
3 141 77 100
3 141 35 77
3 78 141 22
3 142 141 78
3 142 35 141
3 142 140 35
3 143 140 142
3 143 7 140
3 143 72 7
3 144 72 143
3 144 34 72
3 79 144 36
3 145 144 79
3 145 34 144
3 145 138 34
3 540 138 541
3 542 541 145
3 540 541 542
3 545 544 138
3 543 544 545
3 546 15 547
3 548 15 549
3 550 89 551
3 552 551 15
3 550 551 552
3 553 89 554
3 555 5 556
3 557 556 89
3 555 556 557
3 558 5 559
3 558 559 560
3 562 561 5
