ply
format ascii 1.0
element vertex 69
property float x
property float y
property float z
element face 52
property list uchar int vertex_index
end_header
33.103733 11.610577 29.139971
32.4566 3.316996 29.83807
31.999023 6.104523 31.266014
33.614166 9.112801 27.794525
33.90274 13.304283 27.351217
32.337688 9.879803 30.849415
32.793201 7.48669 29.528374
33.325253 15.786341 28.803053
34.121449 17.264151 26.887569
34.058497 9.713847 26.830395
33.885814 7.645642 27.072439
31.982238 9.269039 31.695463
32.135901 11.219628 31.509667
32.878406 4.162171 28.985433
33.046707 6.247018 28.830585
32.624901 5.401843 29.683222
32.667704 2.024457 29.190563
32.878406 4.162171 28.985433
33.214493 13.698459 28.971512
32.961935 14.839134 29.666332
32.851175 12.751252 29.834792
34.431812 15.895801 26.155196
34.012095 15.284217 27.119393
34.322458 13.915868 26.38702
34.544767 17.986297 25.847724
34.431812 15.895801 26.155196
31.639432 5.363181 32.085653
31.812905 7.381399 31.903763
31.453314 6.640056 32.723402
31.835122 4.122145 31.401626
31.639432 5.363181 32.085653
32.06391 2.728382 30.687655
32.227812 4.710759 30.552042
31.835122 4.122145 31.401626
31.866689 0.747369 30.866343
32.259378 1.335983 30.016759
32.06391 2.728382 30.687655
34.202784 11.809588 26.60874
33.758453 11.208542 27.572871
34.058497 9.713847 26.830395
34.322458 13.915868 26.38702
34.202784 11.809588 26.60874
32.468153 11.885865 30.689514
32.135901 11.219628 31.509667
32.72071 10.74519 29.994693
32.851175 12.751252 29.834792
32.468153 11.885865 30.689514
32.168356 7.992163 31.057714
31.982238 9.269039 31.695463
31.812905 7.381399 31.903763
33.457189 7.060073 27.963661
33.203683 8.299746 28.661449
33.046707 6.247018 28.830585
33.885814 7.645642 27.072439
33.457189 7.060073 27.963661
32.667704 2.024457 29.190563
32.259378 1.335983 30.016759
33.089321 17.071927 29.44433
32.961935 14.839134 29.666332
33.44721 17.853817 28.51679
33.089321 17.071927 29.44433
33.845309 18.592722 27.559047
33.44721 17.853817 28.51679
33.723351 16.525246 27.845311
34.207289 19.316621 26.616581
33.845309 18.592722 27.559047
34.630607 20.038767 25.576736
34.207289 19.316621 26.616581
34.544767 17.986297 25.847724
3 10 9 3
3 11 5 12
3 1 6 2
3 1 13 15
3 15 14 6
3 13 14 15
3 1 16 17
3 0 18 20
3 18 7 19
3 18 19 20
3 21 8 22
3 23 22 4
3 21 22 23
3 25 24 8
3 26 2 27
3 26 27 28
3 29 2 30
3 31 1 32
3 33 32 2
3 31 32 33
3 36 35 1
3 34 35 36
3 3 4 0
3 37 4 38
3 39 38 3
3 37 38 39
3 41 40 4
3 5 42 43
3 5 44 46
3 44 0 45
3 44 45 46
3 2 47 49
3 47 5 48
3 47 48 49
3 6 5 2
3 6 0 5
3 6 3 0
3 50 3 51
3 52 51 6
3 50 51 52
3 54 53 3
3 56 55 1
3 7 57 58
3 7 59 60
3 4 7 0
3 8 7 4
3 8 61 63
3 63 62 7
3 61 62 63
3 8 64 65
3 68 67 8
3 66 67 68
