ply
format ascii 1.0
element vertex 552
property float x
property float y
property float z
element face 542
property list uchar int vertex_index
end_header
-6.165545 -51.718369 41.303448
-0.431999 -71.285469 30.577602
2.110692 -64.498116 39.853569
-3.286701 -61.529068 37.423981
-26.020565 -34.168747 34.553848
-14.094923 -38.822979 39.281193
-19.727766 -36.093372 36.652546
5.486824 -73.89801 32.404224
-3.625432 -53.200935 43.278324
-2.084158 -58.167946 41.223392
-4.728964 -56.80302 39.593399
-28.037134 -30.010967 34.150043
-11.455201 -40.284847 41.230034
-22.835339 -35.064312 35.616741
0.934862 -67.769302 35.197144
3.744562 -69.108902 36.384705
2.422131 -72.458885 31.362099
4.052433 -77.445435 26.986565
1.02781 -76.24366 26.267
0.618425 -59.817719 42.918186
-0.614758 -62.902882 38.594528
-1.921071 -66.432114 34.297108
-8.774441 -50.172424 39.51421
-29.22224 -33.951698 33.104973
-31.221188 -29.853634 32.279186
-7.505561 -46.866123 42.517818
-10.000593 -45.29475 40.466114
-12.621981 -43.673046 38.724892
-15.321208 -42.306442 37.309299
-16.836489 -37.384098 37.80555
-18.198572 -40.980877 36.213779
-21.306719 -39.606831 35.335072
-24.446066 -38.443264 34.503426
5.085143 -66.146446 41.46019
6.773019 -70.696617 37.716133
-2.075928 -74.902924 26.071005
-0.723555 -79.910118 21.380772
-4.861064 -52.698792 42.146603
-4.090697 -55.110725 41.373875
-5.489491 -54.239494 40.50069
0.23215 -69.493523 32.850807
1.685925 -70.070389 33.378048
1.003218 -71.83416 30.96384
1.727626 -74.396378 28.721764
0.250813 -73.710663 28.499346
-0.213718 -57.454926 44.106083
-2.765731 -59.795334 39.222961
-1.425658 -60.524986 39.922115
-1.929514 -62.220634 37.988316
-1.283086 -64.598 36.441463
-2.640275 -64.001007 35.918751
-26.75721 -36.038414 34.016193
-28.332888 -35.853252 33.34985
-27.614107 -34.06012 33.891571
-29.663582 -29.919924 33.270191
-8.271311 -44.424824 42.929062
-8.79329 -46.047085 41.420025
-9.518452 -43.50124 41.866871
-12.740063 -39.555275 40.216892
-11.97713 -42.105133 39.866787
-13.27046 -41.338299 39.022968
-13.974816 -42.969006 37.960171
-14.600561 -40.593525 38.26545
-19.100258 -34.217297 37.451351
-17.552731 -34.916183 38.148136
-18.252516 -36.656387 37.219662
-17.383148 -39.241764 36.990528
-18.911438 -38.548588 36.444855
-19.739916 -40.225376 35.765953
-20.494455 -37.785439 35.971275
-24.4846 -34.424358 35.107681
-23.610178 -36.724182 35.060337
-25.164507 -36.304935 34.58215
-26.000889 -38.008812 34.032017
8.865372 -69.725021 41.353081
2.771521 -63.023186 42.259857
3.632219 -65.37075 40.632786
4.599687 -71.522408 34.388474
5.207861 -69.812035 37.094978
6.054552 -72.096024 35.174061
7.600712 -72.810463 35.902248
6.952146 -74.357109 33.271484
6.260625 -76.21743 30.309311
3.38546 -79.44799 24.194218
-3.054983 -76.771194 23.737928
-1.360098 -77.419159 23.777672
-2.279285 -54.169495 44.255051
-1.50993 -56.536327 43.264156
-2.843528 -55.789146 42.267876
-3.402325 -57.54533 40.336868
-4.039645 -59.190372 38.556229
-25.36574 -32.241386 35.086811
-27.06559 -32.144924 34.363865
-26.419554 -30.169327 34.921722
-10.26314 -41.100212 42.221241
-20.62635 -33.796261 36.795315
-21.304905 -35.442501 36.132767
-22.2267 -33.062382 36.248302
-23.777397 -32.734161 35.661491
1.543501 -66.141716 37.482212
3.001542 -66.879715 38.178204
2.354689 -68.448639 35.755836
3.136237 -70.863419 33.763569
3.920545 -73.167732 31.825499
4.774911 -75.506737 29.839647
3.266203 -74.911644 29.286079
2.610163 -76.883018 26.579126
1.88555 -78.65966 24.125069
1.307463 -62.014061 41.552662
-0.722458 -59.141491 41.924492
-0.057124 -61.35656 40.627605
0.738224 -63.701683 39.190033
0.124632 -65.366852 36.923115
-0.54111 -67.005966 34.757637
-1.224255 -68.902596 32.44083
-7.467286 -50.999237 40.348377
-6.775369 -53.57526 39.663754
-28.634464 -32.000896 33.62368
-30.194443 -31.893974 32.753441
-4.349702 -50.889572 44.018196
-5.596795 -50.160336 42.907856
-6.248717 -47.802261 43.567024
-6.92078 -49.26379 41.86216
-8.129706 -48.443729 40.952831
-9.354121 -47.705875 40.052124
-10.655499 -46.878078 39.202908
-10.755681 -42.838203 40.781944
-11.289554 -44.583286 39.519566
-11.97762 -46.30529 38.342945
-13.309558 -45.550293 37.64772
-14.639857 -44.846836 37.035221
-16.042904 -44.175747 36.471836
-15.423029 -38.035671 38.530487
-15.959911 -39.678596 37.657246
-16.721684 -41.537746 36.758842
-17.548172 -43.292835 35.993454
-19.144258 -42.618996 35.507027
-21.935019 -37.329586 35.535351
-22.883675 -38.89986 34.939964
6.485581 -66.804276 42.358986
4.461299 -67.553093 39.012798
5.88597 -68.384827 39.638493
7.309548 -68.989166 40.53371
8.262441 -71.149246 38.782673
9.144264 -73.275574 36.910271
-3.406176 -65.818741 33.895504
-2.639589 -68.219299 32.23457
-1.851084 -70.821693 30.220415
-2.711999 -72.474968 28.201368
-1.129136 -73.199806 28.249325
-0.538789 -75.678215 26.004622
0.273352 -78.089409 23.847916
-0.578908 -56.20785 44.742647
0.059624 -56.591092 45.286402
-8.619933 -43.154944 43.202547
-8.008347 -43.592797 43.800097
-9.243503 -42.693151 42.671452
-8.894882 -43.963032 42.397967
-8.619933 -43.154944 43.202547
8.460204 -68.697116 42.248124
9.211565 -69.02766 42.682316
3.8063 -80.556946 23.194823
2.955437 -80.283791 22.966183
-3.523065 -77.623226 22.647841
-3.845493 -76.320919 23.896101
-2.668734 -77.903885 22.692786
-3.523065 -77.623226 22.647841
-25.604497 -30.267404 35.283802
-25.892647 -31.205357 35.004266
-25.07759 -31.303434 35.366346
-21.040498 -32.59946 36.898848
-20.321309 -32.870379 37.209319
-21.840674 -32.23252 36.625341
-21.426525 -33.429322 36.521809
-21.040498 -32.59946 36.898848
-24.283418 -31.549822 35.653686
-23.479731 -31.792333 35.977342
-25.07759 -31.303434 35.366346
-24.571568 -32.487774 35.374151
-24.283418 -31.549822 35.653686
1.306215 -60.230448 43.378483
0.867861 -59.023586 44.026476
0.962944 -60.91589 42.235424
1.650734 -61.328619 42.695721
1.306215 -60.230448 43.378483
-8.429725 -51.438116 39.238333
-7.776147 -51.851523 39.655417
-8.120863 -50.585831 39.931293
-29.501848 -34.86013 32.843739
-29.057172 -35.810907 32.966177
-28.777564 -34.902475 33.227412
-29.95787 -33.910308 32.668675
-29.501848 -34.86013 32.843739
-31.456117 -30.878982 32.011135
-30.942744 -31.899152 32.248263
-30.707816 -30.873804 32.516314
-32.012202 -29.911064 31.666165
-31.456117 -30.878982 32.011135
-4.663607 -49.729536 44.404792
-4.056646 -50.103258 45.001796
-5.287154 -49.364918 43.849623
-4.973249 -50.524954 43.463026
-4.663607 -49.729536 44.404792
-6.877139 -47.334192 43.042421
-6.592925 -46.525055 43.904938
-7.221347 -46.056986 43.380335
-16.533734 -36.474851 38.320421
-16.891855 -35.240894 38.491715
-17.19461 -36.15014 37.976843
-16.129759 -37.709885 38.168019
-15.827004 -36.800638 38.68289
-16.533734 -36.474851 38.320421
-20.991944 -40.80715 35.212885
-20.208542 -41.116422 35.428325
-20.523318 -39.916103 35.550512
-21.735925 -40.396423 35.047488
-20.991944 -40.80715 35.212885
-24.084529 -39.485042 34.442179
-23.303334 -39.713341 34.660448
-23.66487 -38.671562 34.721695
-24.86164 -39.204525 34.235231
-24.084529 -39.485042 34.442179
-26.401537 -38.746189 33.765416
-26.748303 -37.791786 33.770924
5.358433 -65.359203 42.769043
4.628605 -64.955162 42.318666
5.785362 -66.475361 41.909588
6.058652 -65.688118 43.218441
5.358433 -65.359203 42.769043
8.835962 -74.138955 35.465832
8.372488 -73.043019 36.40626
8.064186 -73.906399 34.961821
9.611555 -74.347786 35.947428
8.835962 -74.138955 35.465832
4.834614 -77.702877 27.309286
5.195853 -76.733529 28.735827
4.413672 -76.476086 28.413106
-6.405262 -54.869695 39.261162
-7.074447 -54.443876 38.962427
-4.079025 -65.447098 33.819422
-3.672674 -64.599057 34.712834
-3.022575 -69.093254 31.245326
-3.407576 -67.918533 32.102338
-2.628322 -70.394451 30.238249
-2.245337 -69.520496 31.227492
-3.022575 -69.093254 31.245326
-2.393963 -73.688946 27.136187
-3.183888 -73.421573 27.07449
-2.865852 -74.635551 26.009309
0.124879 -80.248169 21.423969
0.623332 -79.337815 22.657541
-0.225101 -78.999764 22.614344
0.451789 -57.84219 44.620424
0.059624 -56.591092 45.286402
0.202354 -58.636322 43.512135
0.867861 -59.023586 44.026476
0.451789 -57.84219 44.620424
-9.103907 -51.095254 38.85582
-9.416379 -49.766857 39.13554
-27.545049 -35.945833 33.683022
-27.914303 -36.714006 33.42984
-27.126464 -36.806587 33.763012
-29.387199 -28.907835 33.539436
-28.850358 -29.965446 33.710117
-28.573974 -28.953356 33.979362
-30.165643 -28.836136 33.062433
-29.387199 -28.907835 33.539436
-30.944446 -28.802991 32.56693
-30.442385 -29.886779 32.774688
-30.165643 -28.836136 33.062433
-31.725532 -28.855495 31.998573
-30.944446 -28.802991 32.56693
-7.604222 -44.836337 43.585957
-8.008347 -43.592797 43.800097
-7.888436 -45.645474 42.72344
-7.221347 -46.056986 43.380335
-7.604222 -44.836337 43.585957
-18.326495 -34.56674 37.799744
-18.026475 -33.786903 38.232887
-18.800238 -33.43746 37.884495
-27.126464 -36.806587 33.763012
-26.748303 -37.791786 33.770924
-26.37905 -37.023613 34.024105
9.634141 -69.984539 41.843305
9.211565 -69.02766 42.682316
9.353804 -70.708465 40.559571
9.634141 -69.984539 41.843305
3.471794 -63.393532 42.7185
3.037122 -62.166872 43.550625
3.902143 -64.567314 41.904965
3.471794 -63.393532 42.7185
3.20187 -64.196968 41.446321
4.358681 -65.758598 41.046488
4.628605 -64.955162 42.318666
3.902143 -64.567314 41.904965
7.739903 -74.679722 33.646439
8.064186 -73.906399 34.961821
7.276429 -73.583786 34.586866
7.370335 -75.530597 32.198847
7.739903 -74.679722 33.646439
7.024575 -76.460758 30.71776
7.370335 -75.530597 32.198847
6.606386 -75.287269 31.790398
6.750562 -77.429901 29.249157
7.024575 -76.460758 30.71776
4.174705 -79.663563 24.508543
4.508192 -78.662285 25.904716
3.718946 -78.446713 25.590391
4.174705 -79.663563 24.508543
3.8063 -80.556946 23.194823
-3.35538 -75.569686 24.842771
-4.145891 -75.119411 25.000943
-3.845493 -76.320919 23.896101
-2.565456 -75.837059 24.904466
-2.865852 -74.635551 26.009309
-3.35538 -75.569686 24.842771
-1.821292 -78.227867 22.712658
-2.20754 -77.095176 23.7578
-2.668734 -77.903885 22.692786
-1.50302 -79.473346 21.514208
-1.041826 -78.664638 22.579222
-1.821292 -78.227867 22.712658
-1.894607 -55.352911 43.759603
-1.227014 -55.74855 44.321683
-1.611691 -54.565134 44.817131
-26.13116 -29.222293 35.215841
-25.604497 -30.267404 35.283802
-26.990606 -29.017528 34.800444
-26.13116 -29.222293 35.215841
-27.799396 -28.938349 34.414604
-27.228344 -30.090147 34.535882
-26.990606 -29.017528 34.800444
-28.573974 -28.953356 33.979362
-27.799396 -28.938349 34.414604
-9.982702 -40.317623 43.052805
-9.615847 -41.492638 42.848636
-10.636247 -39.861208 42.440426
-9.982702 -40.317623 43.052805
-11.232278 -39.453525 41.944823
-10.859171 -40.692529 41.725638
-10.636247 -39.861208 42.440426
-11.850924 -39.093055 41.386257
-11.232278 -39.453525 41.944823
-12.493355 -38.728269 40.879686
-12.097632 -39.920061 40.723463
-11.850924 -39.093055 41.386257
-13.135918 -38.33907 40.378816
-12.493355 -38.728269 40.879686
-13.813349 -37.972921 39.910967
-13.417493 -39.189127 39.749043
-13.135918 -38.33907 40.378816
-19.558263 -33.080897 37.537337
-18.800238 -33.43746 37.884495
-19.863304 -34.006779 37.123333
-19.558263 -33.080897 37.537337
-20.321309 -32.870379 37.209319
-22.704382 -31.956443 36.270748
-21.840674 -32.23252 36.625341
-23.002049 -32.898271 35.954897
-22.704382 -31.956443 36.270748
-23.479731 -31.792333 35.977342
2.205482 -79.889625 22.931608
2.955437 -80.283791 22.966183
2.635505 -79.053825 24.159644
2.382763 -61.833182 43.049318
3.037122 -62.166872 43.550625
2.039492 -62.518624 41.906259
2.382763 -61.833182 43.049318
1.650734 -61.328619 42.695721
-0.861824 -56.995627 43.685119
-0.578908 -56.20785 44.742647
-1.227014 -55.74855 44.321683
-7.430189 -53.139534 39.313105
-7.121327 -52.287249 40.006065
-7.776147 -51.851523 39.655417
-7.074447 -54.443876 38.962427
-7.430189 -53.139534 39.313105
-8.429725 -51.438116 39.238333
-9.103907 -51.095254 38.85582
-28.595194 -36.709023 33.109705
-27.914303 -36.714006 33.42984
-28.595194 -36.709023 33.109705
-29.057172 -35.810907 32.966177
-30.443971 -32.881446 32.492908
-29.95787 -33.910308 32.668675
-29.708341 -32.922836 32.929207
-30.443971 -32.881446 32.492908
-30.942744 -31.899152 32.248263
-32.012202 -29.911064 31.666165
-31.725532 -28.855495 31.998573
-1.98163 -53.336536 45.35874
-1.611691 -54.565134 44.817131
-2.640518 -52.995392 44.701563
-1.98163 -53.336536 45.35874
-3.313592 -52.511112 44.2132
-2.952358 -53.685215 43.766688
-2.640518 -52.995392 44.701563
-3.675727 -51.35543 44.583135
-4.056646 -50.103258 45.001796
-3.987567 -52.045254 43.64826
-3.313592 -52.511112 44.2132
-3.675727 -51.35543 44.583135
-6.015013 -46.94141 44.460901
-6.592925 -46.525055 43.904938
-5.613115 -48.18588 44.179207
-6.015013 -46.94141 44.460901
-5.922756 -48.981299 43.23744
-5.287154 -49.364918 43.849623
-5.613115 -48.18588 44.179207
-9.706218 -48.533582 39.404497
-9.416379 -49.766857 39.13554
-9.064281 -48.939149 39.783167
-10.356908 -48.119684 38.979889
-9.706218 -48.533582 39.404497
-10.00481 -47.291977 39.627516
-10.987638 -47.864861 38.59478
-10.356908 -48.119684 38.979889
-9.890796 -42.300726 42.044056
-9.243503 -42.693151 42.671452
-9.615847 -41.492638 42.848636
-11.648699 -47.578467 38.164799
-10.987638 -47.864861 38.59478
-11.31656 -46.591684 38.772926
-12.306705 -47.178711 37.849481
-11.648699 -47.578467 38.164799
-12.972673 -46.801213 37.501869
-12.306705 -47.178711 37.849481
-12.643589 -45.927791 37.995333
-13.671308 -46.492775 37.178049
-12.972673 -46.801213 37.501869
-14.336458 -46.141047 36.8718
-13.671308 -46.492775 37.178049
-13.974707 -45.198565 37.34147
-15.04484 -45.69869 36.619793
-14.336458 -46.141047 36.8718
-15.746364 -45.363146 36.338101
-15.04484 -45.69869 36.619793
-15.34138 -44.511291 36.753529
-16.502417 -44.975518 36.087147
-16.205876 -46.162917 35.953411
-15.746364 -45.363146 36.338101
-14.470858 -37.59503 39.459803
-13.813349 -37.972921 39.910967
-17.296328 -34.072153 38.648466
-18.026475 -33.786903 38.232887
-17.296328 -34.072153 38.648466
-16.891855 -35.240894 38.491715
-15.134911 -37.201376 39.08445
-15.827004 -36.800638 38.68289
-14.758976 -38.429325 38.90584
-14.470858 -37.59503 39.459803
-15.134911 -37.201376 39.08445
-17.255051 -44.534061 35.847955
-16.502417 -44.975518 36.087147
-16.795538 -43.734291 36.232645
-18.032913 -44.14896 35.621012
-17.255051 -44.534061 35.847955
-18.830956 -43.812041 35.377798
-18.032913 -44.14896 35.621012
-18.346215 -42.955916 35.750241
-19.591449 -43.521943 35.162388
-18.830956 -43.812041 35.377798
-19.910713 -42.313232 35.298862
-19.442087 -41.422186 35.63649
-20.208542 -41.116422 35.428325
-19.591449 -43.521943 35.162388
-19.910713 -42.313232 35.298862
-22.524403 -40.042938 34.849934
-21.735925 -40.396423 35.047488
-22.095197 -39.253345 35.137518
-22.524403 -40.042938 34.849934
-23.303334 -39.713341 34.660448
-25.639052 -38.987299 33.999527
-24.86164 -39.204525 34.235231
-25.223478 -38.226038 34.267722
-25.639052 -38.987299 33.999527
-26.401537 -38.746189 33.765416
6.821 -66.118496 43.647412
6.058652 -65.688118 43.218441
7.270309 -67.236744 42.751076
6.821 -66.118496 43.647412
7.682293 -68.329189 41.838438
7.270309 -67.236744 42.751076
6.897564 -67.896721 41.446348
8.08746 -69.357093 40.943396
8.460204 -68.697116 42.248124
7.682293 -68.329189 41.838438
9.052339 -71.420578 39.274366
9.353804 -70.708465 40.559571
8.563907 -70.437134 40.067877
9.49325 -72.483742 38.338166
9.052339 -71.420578 39.274366
8.703353 -72.21241 37.846472
9.953853 -73.553753 37.347431
9.49325 -72.483742 38.338166
9.953853 -73.553753 37.347431
9.611555 -74.347786 35.947428
5.93871 -77.088875 28.97066
5.517768 -75.862083 30.074479
5.195853 -76.733529 28.735827
6.750562 -77.429901 29.249157
5.93871 -77.088875 28.97066
4.834614 -77.702877 27.309286
4.508192 -78.662285 25.904716
-5.762323 -55.201813 39.67963
-6.13243 -53.907377 40.082222
-6.405262 -54.869695 39.261162
-5.38206 -56.483576 39.225984
-5.109228 -55.521257 40.047044
-5.762323 -55.201813 39.67963
-5.070909 -57.674917 38.745655
-5.38206 -56.483576 39.225984
-4.726249 -58.868593 38.22707
-4.384305 -57.996696 39.074814
-5.070909 -57.674917 38.745655
-4.338869 -60.059236 37.709422
-4.726249 -58.868593 38.22707
-3.962397 -61.228584 37.143298
-3.663173 -60.35972 37.990105
-4.338869 -60.059236 37.709422
-3.612936 -62.45422 36.477072
-3.962397 -61.228584 37.143298
-4.288632 -62.153736 36.196388
-3.289723 -63.69019 35.724457
-2.963488 -62.765038 36.671366
-3.612936 -62.45422 36.477072
-3.023225 -64.909874 34.907128
-3.289723 -63.69019 35.724457
-3.672674 -64.599057 34.712834
-3.79087 -66.718254 32.932805
-4.079025 -65.447098 33.819422
-3.022882 -67.01902 33.065037
-3.79087 -66.718254 32.932805
-3.407576 -67.918533 32.102338
-3.457787 -72.162564 28.185264
-3.183888 -73.421573 27.07449
-3.058779 -71.221089 29.228725
-3.457787 -72.162564 28.185264
-2.281541 -71.648331 29.210891
-2.628322 -70.394451 30.238249
-3.058779 -71.221089 29.228725
1.429431 -79.62294 22.796117
1.079451 -78.374535 23.986493
0.623332 -79.337815 22.657541
2.205482 -79.889625 22.931608
1.429431 -79.62294 22.796117
-1.142078 -80.801002 20.205337
-1.50302 -79.473346 21.514208
-0.300583 -81.120792 20.234751
-1.142078 -80.801002 20.205337
0.124879 -80.248169 21.423969
-0.300583 -81.120792 20.234751
3 0 39 37
3 1 42 40
3 1 44 42
3 152 45 153
3 3 48 46
3 3 50 48
3 4 53 51
3 154 55 155
3 156 57 157
3 158 157 55
3 156 157 158
3 5 60 58
3 5 62 60
3 6 65 63
3 6 67 65
3 6 69 67
3 4 72 70
3 4 51 72
3 159 74 160
3 2 76 75
3 7 79 77
3 7 81 79
3 7 82 81
3 162 161 83
3 163 84 164
3 166 165 84
3 8 88 86
3 10 89 38
3 10 90 89
3 167 93 168
3 169 168 91
3 167 168 169
3 170 95 171
3 172 97 173
3 174 173 95
3 172 173 174
3 175 98 176
3 177 91 178
3 179 178 98
3 177 178 179
3 14 101 99
3 16 102 41
3 16 103 102
3 16 105 103
3 18 106 43
3 18 107 106
3 19 180 181
3 19 182 184
3 182 108 183
3 182 183 184
3 9 109 87
3 20 110 47
3 20 111 110
3 20 112 111
3 21 113 49
3 21 114 113
3 22 185 187
3 187 186 115
3 185 186 187
3 23 188 190
3 190 189 52
3 188 189 190
3 23 191 192
3 11 117 92
3 24 118 54
3 24 193 195
3 195 194 118
3 193 194 195
3 24 196 197
3 198 119 199
3 200 120 201
3 202 201 119
3 200 201 202
3 25 203 205
3 203 121 204
3 203 204 205
3 25 122 121
3 25 123 122
3 26 124 56
3 26 125 124
3 12 126 94
3 27 127 59
3 27 128 127
3 27 129 128
3 28 130 61
3 28 131 130
3 29 206 208
3 208 207 64
3 206 207 208
3 29 209 211
3 209 132 210
3 209 210 211
3 29 133 132
3 30 134 66
3 30 135 134
3 30 136 135
3 31 212 214
3 214 213 68
3 212 213 214
3 31 215 216
3 13 137 96
3 32 138 71
3 32 217 219
3 219 218 138
3 217 218 219
3 32 220 221
3 223 222 73
3 33 224 225
3 33 226 228
3 226 139 227
3 226 227 228
3 15 140 100
3 34 141 78
3 34 142 141
3 34 143 142
3 229 144 230
3 231 230 80
3 229 230 231
3 233 232 144
3 17 234 236
3 236 235 104
3 234 235 236
3 238 237 116
3 239 145 240
3 241 146 242
3 243 147 244
3 245 244 146
3 243 244 245
3 35 246 248
3 246 148 247
3 246 247 248
3 35 149 148
3 35 150 149
3 36 151 85
3 36 249 251
3 251 250 151
3 249 250 251
3 37 38 8
3 39 38 37
3 39 10 38
3 40 41 14
3 42 41 40
3 42 16 41
3 42 43 16
3 44 43 42
3 44 18 43
3 45 252 253
3 45 254 256
3 254 19 255
3 254 255 256
3 46 47 9
3 48 47 46
3 48 20 47
3 48 49 20
3 50 49 48
3 50 21 49
3 258 257 22
3 51 259 261
3 259 52 260
3 259 260 261
3 53 52 51
3 53 23 52
3 262 54 263
3 264 263 11
3 262 263 264
3 265 54 266
3 267 24 268
3 269 268 54
3 267 268 269
3 271 270 24
3 55 272 273
3 55 274 276
3 274 25 275
3 274 275 276
3 55 56 25
3 57 56 55
3 57 26 56
3 58 59 12
3 60 59 58
3 60 27 59
3 60 61 27
3 62 61 60
3 62 28 61
3 63 277 279
3 277 64 278
3 277 278 279
3 65 64 63
3 65 29 64
3 65 66 29
3 67 66 65
3 67 30 66
3 67 68 30
3 69 68 67
3 69 31 68
3 70 71 13
3 72 71 70
3 72 32 71
3 72 73 32
3 51 73 72
3 51 280 282
3 282 281 73
3 280 281 282
3 74 283 284
3 74 285 286
3 75 287 288
3 76 289 291
3 291 290 75
3 289 290 291
3 76 292 294
3 292 33 293
3 292 293 294
3 77 78 15
3 79 78 77
3 79 34 78
3 79 80 34
3 81 80 79
3 81 295 297
3 297 296 80
3 295 296 297
3 81 298 299
3 82 300 302
3 302 301 81
3 300 301 302
3 82 303 304
3 83 305 307
3 307 306 17
3 305 306 307
3 309 308 83
3 84 310 312
3 310 311 312
3 84 313 315
3 313 35 314
3 313 314 315
3 84 85 35
3 316 85 317
3 318 317 84
3 316 317 318
3 319 36 320
3 321 320 85
3 319 320 321
3 86 322 324
3 322 87 323
3 322 323 324
3 88 87 86
3 88 9 87
3 38 88 8
3 89 88 38
3 89 9 88
3 89 46 9
3 90 46 89
3 90 3 46
3 91 92 4
3 93 92 91
3 93 11 92
3 325 93 326
3 327 93 328
3 329 11 330
3 331 330 93
3 329 330 331
3 333 332 11
3 334 94 335
3 336 94 337
3 338 12 339
3 340 339 94
3 338 339 340
3 341 12 342
3 343 58 344
3 345 344 12
3 343 344 345
3 346 58 347
3 348 5 349
3 350 349 58
3 348 349 350
3 351 63 352
3 95 353 355
3 353 63 354
3 353 354 355
3 95 6 63
3 95 96 6
3 97 96 95
3 97 13 96
3 356 97 357
3 98 358 360
3 358 97 359
3 358 359 360
3 98 13 97
3 98 70 13
3 91 70 98
3 91 4 70
3 99 100 2
3 101 100 99
3 101 15 100
3 41 101 14
3 102 101 41
3 102 15 101
3 102 77 15
3 103 77 102
3 103 7 77
3 103 104 7
3 105 104 103
3 105 17 104
3 43 105 16
3 106 105 43
3 106 17 105
3 106 83 17
3 107 83 106
3 107 361 363
3 363 362 83
3 361 362 363
3 364 75 365
3 108 366 368
3 366 75 367
3 366 367 368
3 108 2 75
3 87 369 371
3 369 45 370
3 369 370 371
3 109 45 87
3 109 19 45
3 47 109 9
3 110 109 47
3 110 19 109
3 110 108 19
3 111 108 110
3 111 2 108
3 111 99 2
3 112 99 111
3 112 14 99
3 49 112 20
3 113 112 49
3 113 14 112
3 113 40 14
3 114 40 113
3 114 1 40
3 115 116 0
3 372 116 373
3 374 373 115
3 372 373 374
3 376 375 116
3 378 377 22
3 52 379 380
3 382 381 52
3 92 53 4
3 117 53 92
3 117 23 53
3 54 117 11
3 118 117 54
3 118 23 117
3 118 383 385
3 385 384 23
3 383 384 385
3 387 386 118
3 389 388 24
3 390 86 391
3 392 86 393
3 394 8 395
3 396 395 86
3 394 395 396
3 119 397 398
3 119 399 401
3 399 8 400
3 399 400 401
3 119 37 8
3 120 37 119
3 120 0 37
3 121 402 403
3 121 404 405
3 121 406 408
3 406 120 407
3 406 407 408
3 122 120 121
3 122 0 120
3 122 115 0
3 123 115 122
3 123 22 115
3 56 123 25
3 124 123 56
3 124 22 123
3 124 409 411
3 411 410 22
3 409 410 411
3 125 412 414
3 414 413 124
3 412 413 414
3 125 415 416
3 94 417 419
3 417 57 418
3 417 418 419
3 126 57 94
3 126 26 57
3 59 126 12
3 127 126 59
3 127 26 126
3 127 125 26
3 128 125 127
3 128 420 422
3 422 421 125
3 420 421 422
3 128 423 424
3 129 425 427
3 427 426 128
3 425 426 427
3 129 428 429
3 61 129 27
3 130 129 61
3 130 430 432
3 432 431 129
3 430 431 432
3 130 433 434
3 131 435 437
3 437 436 130
3 435 436 437
3 131 438 440
3 438 439 440
3 441 5 442
3 64 443 444
3 446 445 64
3 132 447 448
3 132 449 451
3 449 5 450
3 449 450 451
3 132 62 5
3 133 62 132
3 133 28 62
3 66 133 29
3 134 133 66
3 134 28 133
3 134 131 28
3 135 131 134
3 135 452 454
3 454 453 131
3 452 453 454
3 135 455 456
3 136 457 459
3 459 458 135
3 457 458 459
3 136 460 461
3 68 136 30
3 462 136 463
3 464 463 68
3 462 463 464
3 466 465 136
3 96 69 6
3 137 69 96
3 137 31 69
3 71 137 13
3 138 137 71
3 138 31 137
3 138 467 469
3 469 468 31
3 467 468 469
3 471 470 138
3 73 472 474
3 474 473 32
3 472 473 474
3 476 475 73
3 139 477 478
3 139 479 480
3 100 76 2
3 140 76 100
3 140 33 76
3 78 140 15
3 141 140 78
3 141 33 140
3 141 139 33
3 142 139 141
3 142 481 483
3 483 482 139
3 481 482 483
3 142 484 486
3 484 74 485
3 484 485 486
3 143 74 142
3 143 487 489
3 489 488 74
3 487 488 489
3 80 143 34
3 144 143 80
3 144 490 492
3 492 491 143
3 490 491 492
3 144 493 494
3 496 495 144
3 104 82 7
3 497 82 498
3 499 498 104
3 497 498 499
3 501 500 82
3 503 502 17
3 116 39 0
3 504 39 505
3 506 505 116
3 504 505 506
3 507 10 508
3 509 508 39
3 507 508 509
3 510 10 511
3 512 90 513
3 514 513 10
3 512 513 514
3 515 90 516
3 517 3 518
3 519 518 90
3 517 518 519
3 520 3 521
3 520 521 522
3 523 50 524
3 525 524 3
3 523 524 525
3 145 526 528
3 526 50 527
3 526 527 528
3 145 21 50
3 529 145 530
3 146 531 533
3 531 145 532
3 531 532 533
3 146 21 145
3 146 114 21
3 147 114 146
3 147 1 114
3 148 534 535
3 148 536 537
3 148 538 540
3 538 147 539
3 538 539 540
3 149 147 148
3 149 1 147
3 149 44 1
3 150 44 149
3 150 18 44
3 85 150 35
3 151 150 85
3 151 18 150
3 151 107 18
3 541 107 542
3 543 542 151
3 541 542 543
3 545 544 107
3 546 36 547
3 548 36 549
3 551 550 36
