ply
format ascii 1.0
element vertex 128
property float x
property float y
property float z
element face 103
property list uchar int vertex_index
end_header
-17.923731 45.438148 -13.953789
-21.764774 39.745575 -10.673367
-19.688702 42.520374 -12.161512
-24.083126 43.37822 -9.401538
-22.149315 46.471802 -10.962933
-20.173452 49.689896 -12.975215
-16.092882 44.685192 -15.49412
-17.084568 46.709709 -14.987539
-20.653734 40.965454 -11.389849
-21.114014 47.955341 -11.929013
-15.341282 45.762302 -16.650867
-22.879477 38.247314 -10.019423
-18.731424 43.855881 -13.021114
-24.140589 40.154114 -9.402534
-22.969656 41.7262 -10.129949
-23.086899 45.057831 -10.164412
-21.899641 43.048851 -10.861853
-20.955971 44.621494 -11.626888
-19.908154 46.009136 -12.544272
-18.996605 47.529789 -13.517964
-18.126448 48.959507 -14.575479
-17.388961 44.326706 -14.178873
-17.791788 43.667829 -13.706485
-17.50415 46.073928 -14.470664
-16.96938 44.962486 -14.695747
-17.388961 44.326706 -14.178873
-21.134189 38.513039 -10.865471
-21.675844 37.880768 -10.557203
-21.209254 40.355514 -11.031608
-20.57867 39.122978 -11.223712
-21.134189 38.513039 -10.865471
-15.813367 46.92552 -16.407194
-15.717082 45.223747 -16.072494
-16.189167 46.386965 -15.82882
-15.466489 47.595669 -17.012163
-15.813367 46.92552 -16.407194
-23.44509 37.482864 -9.724672
-22.837358 36.454584 -9.930175
-19.099339 41.398399 -12.367033
-19.580935 40.632385 -11.965053
-19.210063 43.188127 -12.591313
-18.6207 42.066153 -12.796834
-19.099339 41.398399 -12.367033
-24.111857 41.766167 -9.402036
-24.660532 40.930775 -9.02559
-24.631801 42.542828 -9.025092
-22.618107 45.764816 -10.563672
-23.117997 46.726452 -10.192664
-22.649205 47.433437 -10.591925
-18.3054 50.84667 -14.895285
-18.690205 50.052326 -14.329352
-17.7493 49.678838 -15.121549
-18.3054 50.84667 -14.895285
-16.473537 43.950227 -14.949038
-16.002696 42.702904 -15.146725
-16.588725 45.697451 -15.24083
-16.473537 43.950227 -14.949038
-16.96938 44.962486 -14.695747
-16.68501 47.399223 -15.57553
-16.189167 46.386965 -15.82882
-16.588725 45.697451 -15.24083
-20.063451 39.854925 -11.579221
-20.57867 39.122978 -11.223712
-20.171218 41.742914 -11.77568
-19.580935 40.632385 -11.965053
-20.063451 39.854925 -11.579221
-24.578694 44.132702 -8.928665
-24.631801 42.542828 -9.025092
-22.180923 48.108938 -11.077651
-22.649205 47.433437 -10.591925
-21.663273 48.850708 -11.560692
-21.631664 47.213572 -11.445973
-22.180923 48.108938 -11.077651
-21.217713 49.779306 -12.097739
-21.663273 48.850708 -11.560692
-20.747432 50.646583 -12.62084
-20.643733 48.822618 -12.452114
-21.217713 49.779306 -12.097739
-15.653147 43.294077 -15.686182
-16.002696 42.702904 -15.146725
-15.277347 43.832632 -16.264556
-15.653147 43.294077 -15.686182
-15.717082 45.223747 -16.072494
-14.95048 44.586439 -16.907599
-15.277347 43.832632 -16.264556
-15.012662 46.42921 -17.293076
-14.95048 44.586439 -16.907599
-15.012662 46.42921 -17.293076
-15.466489 47.595669 -17.012163
-22.233196 37.131637 -10.230231
-22.837358 36.454584 -9.930175
-22.322125 38.996445 -10.346395
-21.675844 37.880768 -10.557203
-22.233196 37.131637 -10.230231
-18.195635 42.876696 -13.240147
-18.6207 42.066153 -12.796834
-18.327578 44.647014 -13.487452
-17.791788 43.667829 -13.706485
-18.195635 42.876696 -13.240147
-24.715356 39.28573 -9.080675
-24.660532 40.930775 -9.02559
-24.075646 38.436264 -9.416227
-24.715356 39.28573 -9.080675
-23.510033 39.200714 -9.710978
-23.44509 37.482864 -9.724672
-24.075646 38.436264 -9.416227
-24.075976 45.007511 -9.367657
-24.578694 44.132702 -8.928665
-23.577863 45.847317 -9.749094
-23.117997 46.726452 -10.192664
-23.585012 44.218025 -9.782975
-24.075976 45.007511 -9.367657
-23.577863 45.847317 -9.749094
-20.287012 51.500483 -13.226814
-20.747432 50.646583 -12.62084
-19.713707 50.41752 -13.529221
-20.287012 51.500483 -13.226814
-19.125284 49.337467 -13.800595
-19.585028 48.609842 -13.246589
-19.713707 50.41752 -13.529221
-18.561526 48.244648 -14.046722
-19.125284 49.337467 -13.800595
-18.690205 50.052326 -14.329352
-17.22836 48.553939 -15.327579
-17.605508 47.834608 -14.781509
-17.7493 49.678838 -15.121549
-16.68501 47.399223 -15.57553
-17.22836 48.553939 -15.327579
3 0 21 22
3 0 23 25
3 23 7 24
3 23 24 25
3 1 26 27
3 1 28 30
3 28 8 29
3 28 29 30
3 31 10 32
3 33 32 6
3 31 32 33
3 35 34 10
3 36 11 37
3 2 38 39
3 2 40 42
3 40 12 41
3 40 41 42
3 3 43 45
3 43 13 44
3 43 44 45
3 3 14 13
3 4 46 48
3 46 15 47
3 46 47 48
3 4 16 15
3 4 17 16
3 5 18 9
3 5 19 18
3 49 20 50
3 52 51 20
3 53 6 54
3 7 55 57
3 55 6 56
3 55 56 57
3 7 58 60
3 60 59 6
3 58 59 60
3 8 61 62
3 8 63 65
3 63 2 64
3 63 64 65
3 66 3 67
3 68 4 69
3 70 9 71
3 72 71 4
3 70 71 72
3 73 9 74
3 75 5 76
3 77 76 9
3 75 76 77
3 6 78 79
3 10 80 82
3 82 81 6
3 80 81 82
3 10 83 84
3 10 85 86
3 88 87 10
3 11 89 90
3 11 91 93
3 91 1 92
3 91 92 93
3 12 94 95
3 12 96 98
3 96 0 97
3 96 97 98
3 13 99 100
3 13 101 102
3 13 103 105
3 103 11 104
3 103 104 105
3 14 11 13
3 14 1 11
3 106 3 107
3 15 108 109
3 15 110 112
3 110 3 111
3 110 111 112
3 15 14 3
3 16 14 15
3 16 1 14
3 16 8 1
3 17 8 16
3 17 2 8
3 9 17 4
3 18 17 9
3 18 2 17
3 18 12 2
3 19 12 18
3 19 0 12
3 113 5 114
3 115 5 116
3 117 19 118
3 119 118 5
3 117 118 119
3 20 120 122
3 120 19 121
3 120 121 122
3 20 0 19
3 20 7 0
3 123 7 124
3 125 124 20
3 123 124 125
3 127 126 7
