ply
format ascii 1.0
element vertex 523
property float x
property float y
property float z
element face 525
property list uchar int vertex_index
end_header
-31.805565 60.913898 21.985905
-33.291344 73.481575 0.537523
-35.186871 58.668724 6.534682
-32.45055 67.327248 12.862076
-33.959553 77.062492 -12.891117
-31.136248 59.787544 30.12051
-31.053873 71.268654 20.939232
-31.156681 80.474159 8.738324
-31.235207 90.390343 -18.456007
-32.471657 57.825024 20.05521
-33.026588 60.67437 15.170556
-32.068691 63.995361 17.948811
-34.269394 66.130615 3.451054
-33.677223 75.581375 -6.227548
-35.353409 41.0303 18.477612
-30.853399 58.332737 35.218224
-30.738489 65.449478 30.619287
-30.522261 77.347656 19.889576
-31.089268 76.246208 15.025334
-30.392595 82.21888 14.008677
-34.938328 48.759846 15.631475
-33.668316 63.569801 9.510971
-32.922848 70.542595 6.844294
-31.44842 60.452198 25.644772
-31.452347 65.702209 21.483551
-31.070301 65.894539 25.769442
-30.632446 71.626816 25.63863
-31.59556 70.130257 16.497641
-31.841394 74.121269 10.596179
-32.074619 77.532578 4.520561
-30.206886 86.78434 7.368105
-31.191799 84.13533 2.187132
-32.335674 80.21196 -1.995365
-32.68074 83.913574 -15.570352
-32.745865 84.447144 -22.545341
-29.43395 96.069962 -20.741846
-31.039124 90.894226 -25.287542
-32.059753 59.679497 21.148384
-32.282318 60.846745 18.971643
-31.919054 62.262733 20.215927
-31.867407 58.694351 23.155439
-32.19762 56.759335 22.341602
-33.779652 69.733574 2.130028
-34.483131 67.409515 0.391394
-33.994034 71.017067 -1.224492
-34.181366 72.063904 -4.449552
-33.460625 74.762535 -2.785229
-30.6262 61.221954 35.653797
-30.450527 80.019089 16.851994
-34.710873 52.580669 13.892052
-32.766502 63.832394 14.006853
-33.363518 61.897423 12.537248
-33.035122 65.381203 11.222381
-33.277695 67.044838 8.309391
-32.671528 68.987038 9.991183
-35.608166 54.83622 8.173018
-34.135521 77.162216 -16.212961
-31.289391 60.279984 27.671223
-31.260305 63.14978 25.694815
-31.093527 62.968193 28.020948
-30.667578 68.76416 28.24222
-31.198454 56.365646 31.89786
-31.332335 57.188751 29.527542
-31.499418 57.610695 27.252522
-31.260742 68.520027 21.162115
-31.521183 67.940346 19.043335
-31.297132 71.005714 18.495399
-31.108234 78.494545 12.040297
-31.424343 75.324448 12.808066
-31.505192 77.338593 9.74626
-31.959337 75.844315 7.711316
-31.617996 79.007774 6.462151
-31.227541 85.534882 -1.079377
-31.74758 82.304543 -0.075073
-31.815359 83.670433 -3.468129
-32.431824 81.552254 -5.53518
-31.26123 89.895996 -15.231659
-32.034924 87.046097 -17.084789
-32.763802 84.132759 -19.0762
-31.981379 87.611122 -20.553274
-27.378613 100.541702 -19.301983
-28.545197 98.289848 -18.310982
-28.267782 98.697502 -21.573591
-30.048615 93.733665 -26.372389
-30.907759 90.682816 -28.455841
-31.899035 87.508064 -27.225965
-33.268238 57.308662 16.53821
-32.734447 59.307972 17.640991
-32.503494 62.373699 16.595057
-32.258316 65.558235 15.536892
-34.737549 62.44305 4.921658
-33.817291 76.453506 -9.521272
-30.99622 59.106564 32.667133
-30.950994 62.375954 30.55508
-30.800608 61.981438 32.961533
-30.561512 64.629318 33.467709
-31.053055 55.62241 34.462238
-30.821842 74.29512 20.357199
-31.070539 73.903511 17.932491
-30.779903 77.044281 17.405954
-30.77301 79.265411 14.489414
-30.765234 81.357635 11.455886
-35.747314 45.881504 14.417443
-35.461063 49.940109 12.799889
-35.156357 53.710651 11.174404
-34.786663 57.3582 9.725929
-33.999691 59.994453 11.086966
-34.400726 61.121853 8.0884
-33.986855 64.9468 6.433579
-33.538647 68.445084 5.283829
-33.093952 72.117279 3.831921
-35.166645 44.852615 17.142178
-31.631384 60.744732 23.559401
-31.644714 62.95417 21.791636
-31.433456 63.143555 23.689522
-31.242067 65.887962 23.633705
-31.047613 68.712158 23.503447
-30.901264 65.702324 28.204948
-30.866642 68.650307 25.846161
-30.832584 71.605812 23.271048
-30.587435 74.516182 22.811871
-31.663202 58.231056 25.157494
-31.72871 64.84787 19.709841
-31.829496 67.05928 17.226534
-31.991251 68.846451 14.543989
-31.364199 73.08638 15.760335
-31.710554 72.070175 13.714223
-32.137383 70.892334 11.648635
-32.3508 72.380524 8.681271
-32.477814 74.219971 5.663456
-32.629986 75.747681 2.471565
-29.918934 85.23954 13.335111
-30.302616 84.587929 10.722775
-30.696217 83.727119 8.131042
-30.666109 85.662964 4.788229
-31.151217 82.449272 5.608305
-31.645729 80.918961 3.300825
-32.190273 79.06958 1.252796
-32.795948 76.941513 -0.644983
-32.966728 78.052826 -4.044972
-33.074097 79.263992 -7.509731
-33.220184 80.033051 -11.078829
-33.367363 80.396904 -14.372346
-33.413883 80.909744 -17.580669
-33.510769 80.913261 -21.020777
-33.511574 80.956146 -24.280287
-29.578115 95.711296 -17.214941
-30.426867 93.232895 -19.496382
-29.216799 96.265114 -24.221106
-30.211882 93.756058 -23.0026
-31.145891 90.801819 -21.978172
-31.933914 87.771843 -24.080988
-32.737305 84.315674 -25.854961
-35.601841 57.170214 5.926341
-35.812489 55.253962 6.74551
-35.397518 56.752472 7.35385
-34.37216 75.266026 -13.672365
-34.288156 75.131657 -12.075195
-34.047537 77.112354 -14.552039
-34.460144 75.315888 -15.333287
-34.37216 75.266026 -13.672365
-31.230967 86.264325 -2.823231
-30.954355 87.060856 -1.584257
-31.524876 85.3321 -4.017607
-31.52145 84.602657 -2.273753
-31.230967 86.264325 -2.823231
-31.840142 84.292206 -5.151978
-31.524876 85.3321 -4.017607
-27.216915 100.638157 -21.052613
-26.741089 101.48703 -19.610501
-27.661499 99.716057 -22.188417
-27.823197 99.619602 -20.437787
-27.216915 100.638157 -21.052613
-30.802583 90.455414 -30.040223
-30.379311 92.068821 -28.937641
-31.286437 89.115707 -29.367349
-30.802583 90.455414 -30.040223
-32.603052 58.566498 18.848101
-32.837664 57.701072 18.269764
-32.706269 56.959598 19.476873
-32.554224 56.258449 20.68819
-32.417206 55.725605 21.831386
-32.334638 57.29218 21.198406
-32.706269 56.959598 19.476873
-32.554224 56.258449 20.68819
-34.656266 64.799191 2.679007
-34.890343 62.955408 3.414309
-34.503472 64.286833 4.186356
-34.891304 65.855728 -0.28577
-34.634363 67.720645 -1.197377
-34.047482 74.136017 -7.051665
-34.299553 72.377281 -6.162667
-33.929294 73.822639 -5.33855
-33.747257 76.01744 -7.87441
-34.117515 74.572082 -8.698527
-34.047482 74.136017 -7.051665
-35.404848 38.854112 19.251487
-35.078854 40.306713 19.726954
-30.429752 64.468616 34.782078
-30.593856 62.925636 34.560753
-30.462096 62.764934 35.875122
-30.408479 66.155536 33.482653
-30.429752 64.468616 34.782078
-30.953227 56.977574 34.840231
-30.97732 55.223551 35.739863
-30.877492 56.578715 36.117856
-34.748309 55.02025 11.877123
-34.933615 53.14566 12.533228
-34.525566 54.455259 13.235947
-34.563462 56.844025 11.152886
-34.97151 55.534425 10.450166
-34.748309 55.02025 11.877123
-33.339862 59.5569 14.56421
-33.460687 57.874046 15.248037
-33.147413 58.991516 15.854383
-35.052487 46.80623 16.386827
-34.797402 46.157358 17.73536
-34.683243 48.110974 16.980008
-29.642447 86.59964 13.066447
-29.715832 85.387104 14.784402
-30.254751 85.686135 9.04544
-30.032758 86.101075 10.392859
-29.984893 87.19928 8.715524
-30.928954 84.899147 3.487681
-30.661244 86.451569 3.139597
-30.92409 85.687751 1.839049
-32.80645 80.918701 -8.28253
-32.752961 80.408123 -6.522456
-32.485314 82.062832 -7.295255
-32.879494 81.30323 -10.067079
-33.147141 79.648522 -9.29428
-32.80645 80.918701 -8.28253
-32.6413 83.682418 -13.992413
-32.312426 85.352993 -14.67856
-33.024051 82.155239 -14.971349
-32.984611 81.924083 -13.39341
-32.6413 83.682418 -13.992413
-29.059486 96.285869 -25.879348
-28.62928 97.441201 -24.687941
-32.667797 84.312657 -27.372822
-32.31817 85.911869 -26.540463
-32.248662 85.908851 -28.058324
-33.10239 82.53239 -26.653106
-32.667797 84.312657 -27.372822
-32.032514 57.726843 22.748521
-32.064766 56.351704 23.492859
-31.899659 57.319212 23.899777
-34.389814 69.524421 -2.00532
-34.634363 67.720645 -1.197377
-34.238582 69.213291 -0.416549
-34.0877 71.540485 -2.837022
-34.48348 70.04784 -3.61785
-34.389814 69.524421 -2.00532
-35.725944 39.452638 17.94849
-35.65587 41.523006 17.181169
-30.646726 59.431139 36.7499
-30.7398 59.777345 35.43601
-30.760326 57.986531 36.532114
-30.511281 60.825214 36.971317
-30.646726 59.431139 36.7499
-30.462096 62.764934 35.875122
-30.511281 60.825214 36.971317
-30.760326 57.986531 36.532114
-30.877492 56.578715 36.117856
-30.298931 80.062282 18.29002
-30.486394 78.683372 18.370785
-30.334798 78.726566 19.808811
-30.234391 81.454712 16.707973
-30.298931 80.062282 18.29002
-30.205425 82.554608 15.286314
-30.421561 81.118984 15.430336
-30.234391 81.454712 16.707973
-34.466116 51.879185 15.346838
-34.824601 50.670258 14.761764
-34.579843 49.968773 16.216549
-34.332964 53.725115 14.608161
-34.466116 51.879185 15.346838
-34.525566 54.455259 13.235947
-34.332964 53.725115 14.608161
-34.579843 49.968773 16.216549
-34.683243 48.110974 16.980008
-36.025723 53.290848 7.593053
-35.803123 52.830011 9.025078
-36.025723 53.290848 7.593053
-35.812489 55.253962 6.74551
-34.511884 75.445095 -16.995823
-34.460144 75.315888 -15.333287
-34.161587 77.329898 -17.84965
-34.511884 75.445095 -16.995823
-30.578232 68.432163 29.604523
-30.703034 67.106819 29.430754
-30.613688 66.774822 30.793057
-30.540642 70.048034 28.309092
-30.578232 68.432163 29.604523
-30.523076 71.479363 27.007296
-30.650012 70.195488 26.940425
-30.540642 70.048034 28.309092
-30.48027 73.06506 25.595959
-30.523076 71.479363 27.007296
-31.292847 55.038143 31.596018
-31.217016 54.633895 32.816169
-31.359787 55.449696 30.410859
-31.292847 55.038143 31.596018
-31.265394 56.777198 30.712701
-31.442493 55.823481 29.237637
-31.359787 55.449696 30.410859
-31.415876 57.399723 28.390032
-31.526035 56.034453 28.100127
-31.442493 55.823481 29.237637
-29.941527 88.172466 6.967955
-29.984893 87.19928 8.715524
-30.941961 86.387528 0.205794
-30.954355 87.060856 -1.584257
-31.20967 84.835106 0.553878
-30.92409 85.687751 1.839049
-30.941961 86.387528 0.205794
-32.148375 83.233116 -6.185503
-32.123592 82.611344 -4.501654
-31.840142 84.292206 -5.151978
-32.485314 82.062832 -7.295255
-32.148375 83.233116 -6.185503
-31.602671 88.344204 -14.509214
-31.254204 89.559784 -13.453924
-31.989517 86.919254 -15.435779
-31.602671 88.344204 -14.509214
-31.648077 88.471046 -16.158224
-32.357832 85.479836 -16.327571
-32.312426 85.352993 -14.67856
-31.989517 86.919254 -15.435779
-26.91779 101.311489 -17.940647
-26.741089 101.48703 -19.610501
-27.506736 100.337181 -17.458873
-26.91779 101.311489 -17.940647
-27.961905 99.415775 -18.806483
-28.090028 99.211254 -16.963373
-27.506736 100.337181 -17.458873
-29.949739 93.594245 -27.895915
-29.475394 95.020145 -26.954989
-30.478187 92.208241 -27.414115
-29.949739 93.594245 -27.895915
-30.379311 92.068821 -28.937641
-31.782075 87.528332 -28.752412
-31.403397 89.09544 -27.840903
-31.286437 89.115707 -29.367349
-32.248662 85.908851 -28.058324
-31.782075 87.528332 -28.752412
-33.104559 56.701417 17.718373
-33.400215 55.512546 17.218903
-33.001342 58.308317 17.0896
-33.104559 56.701417 17.718373
-32.837664 57.701072 18.269764
-32.248655 55.2342 23.062986
-32.064766 56.351704 23.492859
-32.248655 55.2342 23.062986
-32.417206 55.725605 21.831386
-35.127873 61.115242 4.217551
-35.352533 59.228079 5.024064
-34.96221 60.555887 5.72817
-35.127873 61.115242 4.217551
-34.890343 62.955408 3.414309
-34.763134 65.43864 1.149177
-34.656266 64.799191 2.679007
-34.376262 66.770065 1.921224
-34.763134 65.43864 1.149177
-34.891304 65.855728 -0.28577
-34.579658 70.472423 -5.176204
-34.48348 70.04784 -3.61785
-34.579658 70.472423 -5.176204
-34.299553 72.377281 -6.162667
-34.217025 74.827164 -10.390273
-34.117515 74.572082 -8.698527
-33.888422 76.757999 -11.206194
-34.288156 75.131657 -12.075195
-34.217025 74.827164 -10.390273
-35.404848 38.854112 19.251487
-35.725944 39.452638 17.94849
-30.525199 66.364742 32.217268
-30.613688 66.774822 30.793057
-30.650001 65.039398 32.043498
-30.525199 66.364742 32.217268
-30.408479 66.155536 33.482653
-31.073279 53.677643 35.415396
-30.97732 55.223551 35.739863
-31.144317 54.262277 34.098358
-31.073279 53.677643 35.415396
-31.125754 55.994028 33.180049
-31.217016 54.633895 32.816169
-31.144317 54.262277 34.098358
-30.914741 90.992981 -14.005554
-31.254204 89.559784 -13.453924
-30.857455 91.429588 -15.735226
-30.914741 90.992981 -14.005554
-30.844443 91.676762 -17.3474
-31.248219 90.143169 -16.843833
-30.857455 91.429588 -15.735226
-36.013208 46.327358 13.087311
-36.152466 44.320248 13.84006
-35.870083 48.356661 12.278534
-36.013208 46.327358 13.087311
-35.604189 47.910806 13.608666
-35.729572 50.381956 11.338513
-35.870083 48.356661 12.278534
-35.577219 52.267227 10.525771
-35.729572 50.381956 11.338513
-35.30871 51.82538 11.987146
-35.382261 54.273435 9.673711
-35.803123 52.830011 9.025078
-35.577219 52.267227 10.525771
-33.611646 56.089111 15.93124
-33.400215 55.512546 17.218903
-33.611646 56.089111 15.93124
-33.460687 57.874046 15.248037
-33.508328 60.168427 13.247556
-33.339862 59.5569 14.56421
-33.195053 61.285897 13.853902
-33.826414 59.216942 12.522416
-33.508328 60.168427 13.247556
-33.681604 60.945938 11.812107
-34.169975 58.162151 11.833405
-33.826414 59.216942 12.522416
-34.393177 58.676327 10.406448
-34.563462 56.844025 11.152886
-34.169975 58.162151 11.833405
-34.984206 42.237919 19.154603
-35.078854 40.306713 19.726954
-34.890823 44.149076 18.486886
-34.797402 46.157358 17.73536
-35.260027 42.941457 17.809895
-34.984206 42.237919 19.154603
-34.890823 44.149076 18.486886
-35.562489 43.434164 16.513452
-35.65587 41.523006 17.181169
-35.260027 42.941457 17.809895
-35.852823 43.948608 15.151085
-35.562489 43.434164 16.513452
-35.45698 45.367059 15.77981
-36.152466 44.320248 13.84006
-35.852823 43.948608 15.151085
-35.601841 57.170214 5.926341
-35.352533 59.228079 5.024064
-30.457764 74.509743 24.182579
-30.609941 73.071499 24.225251
-30.48027 73.06506 25.595959
-30.420482 75.920074 22.735285
-30.457764 74.509743 24.182579
-30.387895 77.335812 21.274138
-30.554848 75.931919 21.350724
-30.420482 75.920074 22.735285
-30.334798 78.726566 19.808811
-30.387895 77.335812 21.274138
-31.617602 56.354904 27.011193
-31.526035 56.034453 28.100127
-31.699494 56.665085 25.963679
-31.617602 56.354904 27.011193
-31.58131 57.920876 26.205008
-31.797556 57.087564 24.900804
-31.699494 56.665085 25.963679
-31.765304 58.462704 24.156467
-31.899659 57.319212 23.899777
-31.797556 57.087564 24.900804
-29.968595 84.064937 14.949531
-29.715832 85.387104 14.784402
-30.155765 83.72921 13.671894
-30.205425 82.554608 15.286314
-29.968595 84.064937 14.949531
-29.840916 86.42688 11.699027
-29.642447 86.59964 13.066447
-30.110775 84.913735 12.028943
-29.840916 86.42688 11.699027
-30.032758 86.101075 10.392859
-30.188021 87.636536 5.68543
-29.941527 88.172466 6.967955
-30.417632 87.075848 4.395492
-30.661244 86.451569 3.139597
-30.436498 86.223652 6.078167
-30.188021 87.636536 5.68543
-30.417632 87.075848 4.395492
-32.911022 81.742157 -11.746652
-32.879494 81.30323 -10.067079
-33.293774 80.214978 -12.725587
-32.911022 81.742157 -11.746652
-32.984611 81.924083 -13.39341
-33.800768 79.203663 -18.533504
-34.161587 77.329898 -17.84965
-33.774702 79.03598 -16.896815
-33.849211 79.205421 -20.253558
-33.800768 79.203663 -18.533504
-33.462326 80.911503 -19.300723
-33.880585 79.156609 -21.868043
-33.849211 79.205421 -20.253558
-33.880988 79.178051 -23.497798
-33.880585 79.156609 -21.868043
-33.511172 80.934704 -22.650532
-33.849367 79.227981 -25.038396
-33.880988 79.178051 -23.497798
-28.665541 97.972904 -16.595531
-28.090028 99.211254 -16.963373
-29.182 96.683628 -16.047511
-28.665541 97.972904 -16.595531
-29.061656 97.000572 -17.762961
-29.669643 95.313973 -15.481003
-29.182 96.683628 -16.047511
-30.015898 94.337239 -16.726866
-29.669643 95.313973 -15.481003
-30.440273 93.098038 -17.867587
-30.015898 94.337239 -16.726866
-30.002491 94.472095 -18.355662
-30.831037 91.811619 -18.976194
-30.844443 91.676762 -17.3474
-30.440273 93.098038 -17.867587
-28.154772 98.657395 -23.364183
-27.661499 99.716057 -22.188417
-28.742291 97.481308 -22.897348
-28.154772 98.657395 -23.364183
-28.62928 97.441201 -24.687941
-29.632707 94.99939 -25.296747
-29.059486 96.285869 -25.879348
-29.475394 95.020145 -26.954989
-33.489525 80.852626 -25.865769
-33.12444 82.63591 -25.067624
-33.10239 82.53239 -26.653106
-33.849367 79.227981 -25.038396
-33.489525 80.852626 -25.865769
3 0 39 37
3 0 37 40
3 1 44 42
3 1 46 44
3 3 52 50
3 3 54 52
3 2 153 155
3 155 154 55
3 153 154 155
3 4 156 157
3 4 158 160
3 158 56 159
3 158 159 160
3 5 59 57
3 5 62 61
3 5 57 62
3 6 66 64
3 7 69 67
3 7 71 69
3 161 72 162
3 163 74 164
3 165 164 72
3 163 164 165
3 167 166 74
3 8 77 76
3 8 79 77
3 168 80 169
3 170 82 171
3 172 171 80
3 170 171 172
3 173 84 174
3 176 175 84
3 9 177 179
3 177 87 178
3 177 178 179
3 11 88 38
3 11 89 88
3 9 180 182
3 182 181 41
3 180 181 182
3 9 183 184
3 12 185 187
3 187 186 90
3 185 186 187
3 189 188 43
3 13 190 192
3 192 191 45
3 190 191 192
3 13 193 195
3 193 91 194
3 193 194 195
3 14 196 197
3 15 94 92
3 198 95 199
3 200 199 47
3 198 199 200
3 202 201 95
3 15 203 205
3 203 96 204
3 203 204 205
3 15 92 96
3 17 99 97
3 19 100 48
3 19 101 100
3 20 103 102
3 206 104 207
3 208 207 49
3 206 207 208
3 209 105 210
3 211 210 104
3 209 210 211
3 10 212 214
3 214 213 86
3 212 213 214
3 21 106 51
3 21 107 106
3 21 108 107
3 22 109 53
3 22 110 109
3 20 215 217
3 215 111 216
3 215 216 217
3 20 102 111
3 23 114 112
3 25 115 58
3 25 116 115
3 16 117 93
3 26 118 60
3 26 119 118
3 26 120 119
3 23 121 63
3 23 112 121
3 24 122 113
3 27 123 65
3 27 124 123
3 18 125 98
3 28 126 68
3 28 127 126
3 28 128 127
3 29 129 70
3 29 130 129
3 218 131 219
3 30 220 222
3 220 132 221
3 220 221 222
3 30 133 132
3 31 223 225
3 223 134 224
3 223 224 225
3 31 135 134
3 31 136 135
3 32 137 73
3 32 138 137
3 32 139 138
3 226 140 227
3 228 227 75
3 226 227 228
3 229 141 230
3 231 230 140
3 229 230 231
3 33 232 233
3 33 234 236
3 234 142 235
3 234 235 236
3 33 143 142
3 34 144 78
3 34 145 144
3 35 146 81
3 35 147 146
3 237 148 238
3 36 149 83
3 36 150 149
3 36 151 150
3 239 152 240
3 241 240 85
3 239 240 241
3 243 242 152
3 37 38 9
3 39 38 37
3 39 11 38
3 40 244 246
3 244 41 245
3 244 245 246
3 37 41 40
3 37 9 41
3 42 43 12
3 44 43 42
3 44 247 249
3 249 248 43
3 247 248 249
3 44 250 252
3 250 45 251
3 250 251 252
3 46 45 44
3 46 13 45
3 254 253 14
3 255 47 256
3 257 256 15
3 255 256 257
3 258 47 259
3 261 260 47
3 262 15 263
3 264 48 265
3 266 265 17
3 264 265 266
3 267 48 268
3 269 19 270
3 271 270 48
3 269 270 271
3 272 49 273
3 274 273 20
3 272 273 274
3 275 49 276
3 278 277 49
3 50 51 10
3 52 51 50
3 52 21 51
3 52 53 21
3 54 53 52
3 54 22 53
3 279 20 280
3 55 281 282
3 284 283 55
3 56 285 286
3 56 287 288
3 57 58 23
3 59 58 57
3 59 25 58
3 289 60 290
3 291 290 16
3 289 290 291
3 292 60 293
3 294 26 295
3 296 295 60
3 294 295 296
3 298 297 26
3 61 299 300
3 62 301 303
3 303 302 61
3 301 302 303
3 62 304 305
3 62 306 308
3 306 63 307
3 306 307 308
3 57 63 62
3 57 23 63
3 64 65 24
3 66 65 64
3 66 27 65
3 67 68 18
3 69 68 67
3 69 28 68
3 69 70 28
3 71 70 69
3 71 29 70
3 309 30 310
3 72 311 312
3 72 313 315
3 313 31 314
3 313 314 315
3 72 73 31
3 74 73 72
3 74 32 73
3 74 75 32
3 316 75 317
3 318 317 74
3 316 317 318
3 320 319 75
3 76 321 322
3 77 323 325
3 325 324 76
3 323 324 325
3 77 326 328
3 326 33 327
3 326 327 328
3 77 78 33
3 79 78 77
3 79 34 78
3 80 329 330
3 80 331 332
3 80 333 335
3 333 81 334
3 333 334 335
3 82 81 80
3 82 35 81
3 336 83 337
3 84 338 340
3 338 83 339
3 338 339 340
3 84 36 83
3 84 85 36
3 341 85 342
3 343 342 84
3 341 342 343
3 345 344 85
3 346 86 347
3 87 348 350
3 348 86 349
3 348 349 350
3 87 10 86
3 38 87 9
3 88 87 38
3 88 10 87
3 88 50 10
3 89 50 88
3 89 3 50
3 41 351 352
3 354 353 41
3 90 355 357
3 357 356 2
3 355 356 357
3 359 358 90
3 43 360 362
3 362 361 12
3 360 361 362
3 364 363 43
3 45 365 366
3 368 367 45
3 91 369 370
3 91 371 373
3 371 4 372
3 371 372 373
3 375 374 14
3 92 93 5
3 94 93 92
3 94 16 93
3 47 94 15
3 95 94 47
3 95 16 94
3 95 376 378
3 378 377 16
3 376 377 378
3 380 379 95
3 96 381 382
3 96 383 384
3 96 385 387
3 385 61 386
3 385 386 387
3 92 61 96
3 92 5 61
3 97 98 6
3 99 98 97
3 99 18 98
3 48 99 17
3 100 99 48
3 100 18 99
3 100 67 18
3 101 67 100
3 101 7 67
3 388 76 389
3 390 76 391
3 392 8 393
3 394 393 76
3 392 393 394
3 102 395 396
3 103 397 399
3 399 398 102
3 397 398 399
3 103 400 401
3 49 103 20
3 104 103 49
3 104 402 404
3 404 403 103
3 402 403 404
3 104 405 407
3 405 55 406
3 405 406 407
3 105 55 104
3 105 2 55
3 86 408 409
3 411 410 86
3 51 412 414
3 414 413 10
3 412 413 414
3 106 415 417
3 417 416 51
3 415 416 417
3 106 418 419
3 106 420 422
3 420 105 421
3 420 421 422
3 107 105 106
3 107 2 105
3 107 90 2
3 108 90 107
3 108 12 90
3 53 108 21
3 109 108 53
3 109 12 108
3 109 42 12
3 110 42 109
3 110 1 42
3 423 14 424
3 111 425 426
3 111 427 429
3 427 14 428
3 427 428 429
3 111 430 432
3 432 431 14
3 430 431 432
3 102 433 435
3 435 434 111
3 433 434 435
3 102 436 437
3 439 438 2
3 112 113 0
3 114 113 112
3 114 24 113
3 58 114 23
3 115 114 58
3 115 24 114
3 115 64 24
3 116 64 115
3 116 6 64
3 93 59 5
3 117 59 93
3 117 25 59
3 60 117 16
3 118 117 60
3 118 25 117
3 118 116 25
3 119 116 118
3 119 6 116
3 119 97 6
3 120 97 119
3 120 17 97
3 440 120 441
3 442 441 26
3 440 441 442
3 443 120 444
3 445 17 446
3 447 446 120
3 445 446 447
3 449 448 17
3 63 450 451
3 121 452 454
3 454 453 63
3 452 453 454
3 121 455 456
3 121 457 459
3 457 40 458
3 457 458 459
3 112 40 121
3 112 0 40
3 113 39 0
3 122 39 113
3 122 11 39
3 65 122 24
3 123 122 65
3 123 11 122
3 123 89 11
3 124 89 123
3 124 3 89
3 98 66 6
3 125 66 98
3 125 27 66
3 68 125 18
3 126 125 68
3 126 27 125
3 126 124 27
3 127 124 126
3 127 3 124
3 127 54 3
3 128 54 127
3 128 22 54
3 70 128 28
3 129 128 70
3 129 22 128
3 129 110 22
3 130 110 129
3 130 1 110
3 131 460 461
3 131 462 464
3 462 19 463
3 462 463 464
3 465 131 466
3 132 467 469
3 467 131 468
3 467 468 469
3 132 19 131
3 132 101 19
3 133 101 132
3 133 7 101
3 470 30 471
3 134 472 473
3 134 474 476
3 474 30 475
3 474 475 476
3 134 133 30
3 135 133 134
3 135 7 133
3 135 71 7
3 136 71 135
3 136 29 71
3 73 136 31
3 137 136 73
3 137 29 136
3 137 130 29
3 138 130 137
3 138 1 130
3 138 46 1
3 139 46 138
3 139 13 46
3 75 139 32
3 140 139 75
3 140 13 139
3 140 91 13
3 141 91 140
3 141 4 91
3 477 141 478
3 142 479 481
3 479 141 480
3 479 480 481
3 142 4 141
3 142 56 4
3 143 56 142
3 143 482 484
3 484 483 56
3 482 483 484
3 78 143 33
3 144 143 78
3 144 485 487
3 487 486 143
3 485 486 487
3 144 488 489
3 145 490 492
3 492 491 144
3 490 491 492
3 145 493 494
3 81 495 496
3 146 497 499
3 499 498 81
3 497 498 499
3 146 500 501
3 146 502 503
3 147 504 506
3 506 505 146
3 504 505 506
3 147 507 509
3 507 8 508
3 507 508 509
3 510 82 511
3 148 512 514
3 512 82 513
3 512 513 514
3 148 35 82
3 83 515 517
3 515 148 516
3 515 516 517
3 149 148 83
3 149 35 148
3 149 147 35
3 150 147 149
3 150 8 147
3 150 79 8
3 151 79 150
3 151 34 79
3 85 151 36
3 152 151 85
3 152 34 151
3 152 145 34
3 518 145 519
3 520 519 152
3 518 519 520
3 522 521 145
