ply
format ascii 1.0
element vertex 78
property float x
property float y
property float z
element face 58
property list uchar int vertex_index
end_header
-33.532192 53.716431 17.899597
-34.34026 56.329849 12.579843
-33.934837 46.416031 20.752296
-34.221359 51.1777 16.801624
-33.955055 54.86956 15.324269
-33.730389 50.156349 19.382532
-34.428158 47.462101 18.328541
-33.653137 58.43943 13.957865
-34.097458 42.479687 22.118971
-34.615002 43.445538 19.831594
-33.631291 51.93639 18.641064
-33.43545 51.26446 19.919524
-33.336351 53.0445 19.178057
-34.748309 55.02025 11.877123
-34.525566 54.455259 13.235947
-34.563462 56.844025 11.152886
-34.748309 55.02025 11.877123
-33.339862 59.5569 14.56421
-33.460687 57.874046 15.248037
-33.692986 45.829901 21.984126
-33.606697 47.664989 21.355375
-34.016148 44.447859 21.435634
-33.774296 43.861729 22.667463
-33.692986 45.829901 21.984126
-34.797402 46.157358 17.73536
-34.683243 48.110974 16.980008
-34.466116 51.879185 15.346838
-34.579843 49.968773 16.216549
-34.332964 53.725115 14.608161
-34.466116 51.879185 15.346838
-34.088207 53.02363 16.062946
-34.147658 55.599705 13.952056
-34.525566 54.455259 13.235947
-34.332964 53.725115 14.608161
-33.504473 49.535148 20.670493
-33.43545 51.26446 19.919524
-33.832613 48.28619 20.067414
-33.606697 47.664989 21.355375
-33.504473 49.535148 20.670493
-34.579843 49.968773 16.216549
-34.683243 48.110974 16.980008
-34.324759 49.319901 17.565083
-33.104559 56.701417 17.718373
-33.400215 55.512546 17.218903
-33.236536 54.905302 18.399067
-33.236536 54.905302 18.399067
-33.336351 53.0445 19.178057
-33.611646 56.089111 15.93124
-33.743623 54.292996 16.611933
-33.400215 55.512546 17.218903
-33.804096 56.654495 14.641067
-33.611646 56.089111 15.93124
-33.460687 57.874046 15.248037
-33.508328 60.168427 13.247556
-33.339862 59.5569 14.56421
-33.826414 59.216942 12.522416
-33.508328 60.168427 13.247556
-34.169975 58.162151 11.833405
-33.996699 57.38464 13.268854
-33.826414 59.216942 12.522416
-34.563462 56.844025 11.152886
-34.169975 58.162151 11.833405
-33.834189 41.888685 23.33705
-33.774296 43.861729 22.667463
-34.152989 40.4533 22.777721
-33.834189 41.888685 23.33705
-34.450878 41.031407 21.547634
-34.152989 40.4533 22.777721
-34.70965 41.514332 20.403945
-34.450878 41.031407 21.547634
-34.35623 42.962612 20.975282
-34.984206 42.237919 19.154603
-34.70965 41.514332 20.403945
-34.890823 44.149076 18.486886
-34.52158 45.453819 19.080067
-34.797402 46.157358 17.73536
-34.984206 42.237919 19.154603
-34.890823 44.149076 18.486886
3 0 4 3
3 0 10 12
3 10 5 11
3 10 11 12
3 0 3 5
3 1 13 14
3 1 15 16
3 17 7 18
3 2 19 20
3 2 21 23
3 21 8 22
3 21 22 23
3 2 9 8
3 25 24 6
3 3 26 27
3 4 28 30
3 30 29 3
3 28 29 30
3 4 31 33
3 31 1 32
3 31 32 33
3 5 34 35
3 5 36 38
3 36 2 37
3 36 37 38
3 5 6 2
3 3 6 5
3 3 39 41
3 41 40 6
3 39 40 41
3 44 43 0
3 42 43 44
3 45 0 46
3 47 4 48
3 49 48 0
3 47 48 49
3 7 50 52
3 50 4 51
3 50 51 52
3 7 1 4
3 53 7 54
3 55 7 56
3 57 1 58
3 59 58 7
3 57 58 59
3 61 60 1
3 8 62 63
3 8 64 65
3 8 66 67
3 9 68 70
3 70 69 8
3 68 69 70
3 9 71 72
3 6 9 2
3 73 9 74
3 75 74 6
3 73 74 75
3 77 76 9
