ply
format ascii 1.0
element vertex 117
property float x
property float y
property float z
element face 87
property list uchar int vertex_index
end_header
-6.289782 11.187957 -70.022224
-6.547618 5.488169 -68.749542
-3.849951 7.092825 -67.180244
-7.947641 7.299314 -70.019516
-6.479364 8.455018 -69.549652
-4.12534 4.507435 -66.653198
-11.168496 10.484849 -71.871552
-9.447683 6.055997 -70.244644
-8.077204 4.386619 -69.179787
-6.083777 13.911029 -70.266907
-4.440201 16.881516 -69.11898
-4.61153 14.455147 -69.199745
-4.791679 11.933802 -69.060951
-4.981862 9.24739 -68.698387
-5.156879 6.664701 -68.169632
-5.337302 3.764224 -67.390007
-7.065751 10.647771 -70.345425
-7.004914 12.056722 -70.56385
-6.384573 9.821487 -69.785938
-7.160542 9.281302 -70.109139
-7.065751 10.647771 -70.345425
-10.334626 9.782784 -71.483875
-10.248542 11.200198 -71.749111
-10.309736 8.33164 -71.125077
-11.143605 9.033705 -71.512753
-10.334626 9.782784 -71.483875
-9.47422 7.568357 -70.670422
-10.283199 6.81928 -70.699299
-10.309736 8.33164 -71.125077
-6.648715 4.040414 -68.32008
-7.413508 3.48964 -68.535202
-7.312411 4.937394 -68.964664
-6.03377 15.195595 -70.302925
-6.83401 14.857551 -70.777432
-3.764063 17.092633 -68.444282
-4.360741 18.082957 -68.958134
-3.997993 13.378045 -68.50893
-3.927805 14.666752 -68.561024
-4.088068 12.117373 -68.439533
-4.701605 13.194475 -69.130348
-3.997993 13.378045 -68.50893
-3.778557 8.456979 -67.442363
-3.312177 7.353293 -66.690277
-4.415907 8.170108 -67.939315
-4.344512 9.534261 -68.201435
-3.778557 8.456979 -67.442363
-4.831807 2.702854 -66.608933
-4.731321 4.135829 -67.021603
-4.225826 3.07446 -66.240528
-5.452203 2.309134 -66.946441
-4.831807 2.702854 -66.608933
-7.89468 8.703449 -70.344071
-8.724199 8.190016 -70.557857
-7.213503 7.877166 -69.784584
-7.89468 8.703449 -70.344071
-7.160542 9.281302 -70.109139
-3.399244 5.995643 -66.392482
-3.312177 7.353293 -66.690277
-3.536938 4.702948 -66.12896
-3.987645 5.80013 -66.916721
-3.399244 5.995643 -66.392482
-3.64104 3.439286 -65.812714
-3.536938 4.702948 -66.12896
-4.225826 3.07446 -66.240528
-3.64104 3.439286 -65.812714
-11.066461 11.898091 -72.091446
-10.248542 11.200198 -71.749111
-12.056461 11.160085 -72.143356
-11.066461 11.898091 -72.091446
-12.050586 9.614689 -71.818466
-12.056461 11.160085 -72.143356
-12.050586 9.614689 -71.818466
-11.143605 9.033705 -71.512753
-10.26475 5.239938 -70.216797
-10.283199 6.81928 -70.699299
-9.498673 4.424309 -69.720802
-10.26475 5.239938 -70.216797
-8.697662 6.677656 -70.13208
-9.47422 7.568357 -70.670422
-8.724199 8.190016 -70.557857
-8.813434 3.58962 -69.188374
-9.498673 4.424309 -69.720802
-8.762443 5.221308 -69.712215
-8.053999 2.929851 -68.65189
-8.813434 3.58962 -69.188374
-8.053999 2.929851 -68.65189
-7.413508 3.48964 -68.535202
-6.901912 13.418258 -70.686192
-6.83401 14.857551 -70.777432
-6.18678 12.549493 -70.144565
-7.004914 12.056722 -70.56385
-6.901912 13.418258 -70.686192
-5.136815 17.919665 -69.612942
-4.360741 18.082957 -68.958134
-5.211982 16.680838 -69.728961
-5.136815 17.919665 -69.612942
-3.842141 15.879936 -68.520641
-3.764063 17.092633 -68.444282
-4.525866 15.668332 -69.159362
-3.842141 15.879936 -68.520641
-3.927805 14.666752 -68.561024
-5.297646 15.467654 -69.769344
-5.211982 16.680838 -69.728961
-4.525866 15.668332 -69.159362
-5.347653 14.183088 -69.733326
-6.03377 15.195595 -70.302925
-5.297646 15.467654 -69.769344
-4.249421 10.877467 -68.382717
-4.088068 12.117373 -68.439533
-4.88677 10.590596 -68.879669
-4.249421 10.877467 -68.382717
-4.344512 9.534261 -68.201435
-6.043557 3.178442 -67.640312
-6.648715 4.040414 -68.32008
-5.94246 4.626196 -68.069774
-6.043557 3.178442 -67.640312
-5.452203 2.309134 -66.946441
3 0 16 17
3 0 18 20
3 18 4 19
3 18 19 20
3 21 6 22
3 25 24 6
3 23 24 25
3 26 7 27
3 26 27 28
3 1 8 3
3 1 29 31
3 31 30 8
3 29 30 31
3 32 9 33
3 34 10 35
3 36 11 37
3 38 12 39
3 40 39 11
3 38 39 40
3 2 41 42
3 2 43 45
3 43 13 44
3 43 44 45
3 2 14 13
3 46 15 47
3 48 47 5
3 46 47 48
3 50 49 15
3 51 3 52
3 4 53 55
3 53 3 54
3 53 54 55
3 4 1 3
3 56 2 57
3 58 5 59
3 60 59 2
3 58 59 60
3 61 5 62
3 64 63 5
3 6 65 66
3 6 67 68
3 6 69 70
3 72 71 6
3 7 73 74
3 7 75 76
3 3 77 79
3 77 7 78
3 77 78 79
3 8 7 3
3 8 80 82
3 82 81 7
3 80 81 82
3 8 83 84
3 86 85 8
3 9 87 88
3 9 89 91
3 89 0 90
3 89 90 91
3 10 92 93
3 10 94 95
3 96 10 97
3 11 98 100
3 98 10 99
3 98 99 100
3 11 101 103
3 103 102 10
3 101 102 103
3 11 104 106
3 104 9 105
3 104 105 106
3 12 9 11
3 12 0 9
3 107 12 108
3 13 109 111
3 109 12 110
3 109 110 111
3 13 0 12
3 13 4 0
3 14 4 13
3 14 1 4
3 5 14 2
3 15 14 5
3 15 1 14
3 15 112 114
3 114 113 1
3 112 113 114
3 116 115 15
