ply
format ascii 1.0
element vertex 420
property float x
property float y
property float z
element face 463
property list uchar int vertex_index
end_header
-23.801796 -75.73098 -24.93902
-26.910576 -64.305252 -8.372621
-22.269123 -74.375648 -6.571964
-16.699186 -87.438637 -24.742283
-20.49402 -80.815392 -15.950026
-26.16873 -69.683281 -16.480824
-31.18865 -58.61401 -18.369013
-31.47887 -54.424015 -11.121252
-18.611448 -81.799835 -32.498245
-17.260712 -86.223274 -16.134195
-18.692022 -82.819153 -11.386282
-24.687418 -69.210152 -7.316487
-24.212572 -72.123886 -11.593782
-26.578667 -66.990463 -12.278324
-28.738447 -64.17382 -17.287855
-29.037773 -61.590431 -13.45422
-33.832214 -49.320915 -12.608516
-33.499035 -51.362915 -15.948343
-20.419228 -81.585022 -24.612211
-17.735985 -84.950386 -28.597164
-21.546309 -78.879913 -28.829062
-19.734228 -79.358368 -6.266637
-22.825748 -71.328384 -2.093705
-25.041176 -66.465782 -3.106242
-27.020281 -69.71209 -25.239531
-25.24227 -72.467911 -29.306633
-13.161286 -92.410057 -24.550459
-15.479136 -89.400826 -20.750246
-18.990723 -84.002075 -20.336899
-22.270189 -78.361687 -20.566206
-21.576744 -77.507957 -11.250175
-23.466471 -75.225166 -16.048143
-25.286636 -72.691429 -20.801014
-28.115068 -66.955353 -21.320532
-27.224144 -61.765274 -4.371099
-29.250834 -59.189922 -9.70512
-31.318205 -56.413811 -14.626274
-13.919643 -90.553543 -28.0872
-14.472732 -88.062889 -31.839426
-17.197733 -85.249146 -11.439381
-17.778072 -83.631805 -9.00803
-25.824518 -66.69178 -7.78218
-25.572514 -68.256645 -9.837978
-26.767792 -65.634895 -10.377374
-27.874857 -64.123062 -12.791249
-27.957811 -62.919647 -10.810432
-22.061691 -78.789375 -24.89603
-20.983366 -80.336464 -26.762617
-22.836901 -77.193268 -26.902905
-23.936007 -68.84201 -2.417841
-13.690388 -91.83149 -20.672955
-14.667053 -90.351646 -18.66708
-18.95899 -83.458916 -15.939848
-18.098349 -85.250694 -18.31801
-19.756573 -82.496338 -18.181595
-20.609509 -81.291611 -20.531338
-21.376698 -79.673676 -18.294071
-21.084185 -76.838303 -6.55312
-20.664371 -78.467346 -8.809135
-22.019423 -75.788574 -8.906476
-25.140789 -71.032036 -14.042127
-23.860895 -73.76413 -13.959987
-24.808214 -72.492218 -16.137518
-24.398344 -73.952454 -18.342054
-25.74135 -71.234505 -18.450218
-26.673094 -69.918694 -20.954063
-27.111065 -68.483971 -19.006399
-29.998699 -61.371464 -17.831785
-29.7635 -62.674927 -19.559109
-31.72308 -53.292042 -9.432466
-30.498817 -55.755482 -8.501895
-29.268639 -58.28627 -7.685504
-30.336708 -56.810436 -10.266831
-30.293507 -57.760975 -12.108358
-31.433958 -55.294388 -12.920373
-14.88046 -90.0868 -24.597361
-13.488619 -91.648651 -26.313354
-15.464643 -88.898247 -26.535988
-18.171942 -83.524422 -30.48822
-16.11002 -86.623817 -30.317049
-16.497889 -85.095375 -32.13995
-16.816711 -83.424828 -33.967274
-24.076193 -73.876152 -31.039982
-14.658983 -89.571884 -14.212287
-15.626995 -88.68013 -16.372269
-16.498955 -86.902946 -13.826844
-18.090738 -84.436279 -13.826784
-19.556377 -81.894287 -13.496325
-23.494173 -71.814697 -6.932064
-23.227722 -73.28949 -9.095648
-24.406713 -70.741112 -9.309509
-25.366468 -69.643768 -11.882596
-26.446341 -68.233246 -14.375341
-27.498121 -66.902679 -16.956282
-27.681551 -65.540276 -14.774952
-28.92729 -62.841854 -15.386307
-30.07925 -60.206444 -15.849923
-32.86216 -50.922955 -10.074214
-32.638969 -51.884476 -11.707279
-32.576855 -52.701698 -13.52943
-33.656586 -50.261898 -14.223347
-18.572491 -84.563293 -24.67745
-17.390522 -86.03418 -26.690254
-19.258316 -83.137505 -26.677191
-19.703693 -81.884903 -28.687464
-20.111769 -80.44722 -30.721659
-18.393295 -81.802353 -6.45655
-20.182991 -77.655495 -3.893081
-21.371941 -75.337364 -4.110065
-22.586876 -72.834953 -4.4345
-23.758347 -70.290161 -4.794774
-24.845863 -67.858307 -5.179274
-25.958611 -65.366013 -5.667358
-25.47908 -72.650284 -25.167152
-24.614773 -74.049385 -27.11591
-14.292293 -91.062042 -22.634031
-16.106276 -88.497108 -22.745331
-16.39819 -87.891342 -18.571758
-17.226692 -86.814911 -20.653742
-17.901941 -85.776772 -22.669811
-19.640358 -82.988014 -22.549618
-21.429829 -79.961403 -22.591484
-23.077425 -77.052628 -22.796791
-19.28845 -81.063736 -8.965045
-20.214045 -80.117226 -11.305697
-21.099041 -79.178955 -13.748535
-22.891453 -74.902313 -11.432194
-22.572348 -76.335442 -13.744386
-22.028019 -78.00238 -15.958669
-22.917675 -76.821938 -18.282049
-23.770332 -75.579208 -20.510235
-24.618311 -74.22937 -23.000477
-26.197165 -71.210236 -23.115429
-27.709776 -68.186378 -23.302074
-28.457611 -65.597954 -19.283871
-29.463448 -64.012138 -21.461712
-25.267893 -65.114494 -1.084869
-26.112339 -64.086197 -3.595548
-26.999849 -63.088367 -6.25663
-28.35718 -59.437767 -5.130463
-28.185335 -60.604271 -7.107281
-28.015427 -61.777596 -8.78892
-29.101971 -60.414169 -11.476011
-30.170952 -58.98251 -13.921995
-31.240749 -57.52845 -16.436089
-32.425392 -53.816139 -15.16246
-32.39452 -54.798153 -17.017008
-32.283913 -55.955547 -18.79664
-15.801844 -87.85743 -28.402931
-14.144505 -89.493286 -29.965118
-23.453619 -75.655548 -28.98407
-22.215635 -77.058083 -30.799023
-20.813833 -78.362366 -32.625305
-17.350874 -83.933708 -7.837532
-16.984872 -84.876159 -9.098641
-14.253919 -90.737972 -17.633647
-13.761596 -91.523346 -18.699585
-31.108503 -59.222784 -19.273282
-30.513528 -60.601511 -19.004668
-30.593674 -59.992737 -18.100399
-31.704896 -57.803749 -19.537895
-31.108503 -59.222784 -19.273282
-15.969162 -87.396 -12.74493
-15.578969 -88.237415 -14.019565
-15.049176 -88.730469 -12.937652
-33.347187 -50.121935 -11.341365
-33.404824 -49.795828 -10.495123
-33.889851 -48.994808 -11.762273
-15.049176 -88.730469 -12.937652
-14.155091 -89.921036 -12.998088
-20.39371 -76.773315 -2.650405
-19.771796 -78.00074 -2.705738
-20.988185 -75.61425 -2.758896
-20.777466 -76.49643 -4.001573
-20.39371 -76.773315 -2.650405
-22.29598 -72.458869 -1.93741
-22.432792 -71.665318 -0.714524
-22.706312 -72.081669 -3.264102
-22.176544 -73.212154 -3.107807
-22.29598 -72.458869 -1.93741
-26.638629 -70.375245 -26.272634
-25.868029 -71.844341 -26.236445
-26.249681 -71.181187 -25.203342
-28.592344 -66.153489 -22.424865
-28.389698 -66.769001 -23.415636
-27.912422 -67.570865 -22.311303
-30.124112 -62.566124 -21.766716
-29.613474 -63.343532 -20.51041
-30.274138 -61.897518 -20.815414
-29.968165 -63.178619 -22.741347
-30.124112 -62.566124 -21.766716
-25.395808 -64.482544 -0.066857
-24.851807 -65.599933 0.29009
-26.668242 -62.925736 -3.983324
-26.227833 -63.453121 -2.623212
-26.783735 -62.292659 -3.010988
-28.953278 -58.244102 -5.539174
-28.48266 -58.891165 -4.250028
-32.886809 -54.025787 -18.169574
-32.918173 -53.525915 -17.292295
-32.831505 -54.604484 -19.05939
-32.339216 -55.37685 -17.906824
-32.886809 -54.025787 -18.169574
-32.82873 -55.025436 -19.975149
-32.831505 -54.604484 -19.05939
-12.460401 -93.165512 -25.249013
-12.322695 -93.474025 -24.431629
-12.977511 -91.810531 -27.929271
-12.761999 -92.358086 -27.042349
-13.704131 -91.101097 -27.200277
-13.013695 -91.393566 -28.873533
-12.977511 -91.810531 -27.929271
-13.460736 -89.461296 -31.6726
-13.296623 -90.176494 -30.735446
-14.308619 -88.778087 -30.902272
-13.537542 -88.79464 -32.553982
-13.460736 -89.461296 -31.6726
-22.510681 -76.084148 -31.7899
-23.145914 -75.467118 -30.919503
-23.44096 -74.493183 -31.910379
-21.80978 -76.73629 -32.703041
-21.514734 -77.710224 -31.712164
-22.510681 -76.084148 -31.7899
-16.694702 -85.68483 -10.314317
-16.318551 -86.569099 -11.551199
-17.487903 -84.440475 -10.223705
-16.694702 -85.68483 -10.314317
-16.984872 -84.876159 -9.098641
-34.346077 -48.156921 -12.920062
-33.889851 -48.994808 -11.762273
-34.28833 -48.531538 -13.798609
-34.346077 -48.156921 -12.920062
-22.961062 -70.537929 -0.92845
-22.432792 -71.665318 -0.714524
-23.516191 -69.294742 -1.090518
-23.380878 -70.085197 -2.255773
-22.961062 -70.537929 -0.92845
-24.046449 -68.158756 -1.393764
-23.516191 -69.294742 -1.090518
-24.599034 -66.970642 -1.737964
-24.488591 -67.653896 -2.762042
-24.046449 -68.158756 -1.393764
-27.454974 -68.82011 -26.33649
-27.772604 -68.212788 -25.409368
-13.273264 -92.263267 -19.702523
-12.760285 -92.989483 -20.752249
-14.178721 -91.091568 -19.670018
-13.273264 -92.263267 -19.702523
-13.761596 -91.523346 -18.699585
-30.395929 -61.253242 -19.86833
-29.881099 -62.023195 -18.695447
-30.513528 -60.601511 -19.004668
-30.274138 -61.897518 -20.815414
-30.395929 -61.253242 -19.86833
-27.346781 -61.15506 -3.403333
-26.783735 -62.292659 -3.010988
-31.218793 -54.032971 -8.120707
-31.792717 -52.911538 -8.505868
-30.606662 -55.264691 -7.655421
-31.218793 -54.032971 -8.120707
-31.110948 -54.523762 -8.96718
-30.024097 -56.40296 -7.22489
-30.606662 -55.264691 -7.655421
-29.883728 -57.020876 -8.093699
-29.409008 -57.668354 -6.816695
-30.024097 -56.40296 -7.22489
-33.47043 -51.808296 -16.757962
-34.026359 -50.450203 -17.151372
-15.640017 -85.785996 -32.874956
-14.627439 -87.269753 -32.724694
-15.485311 -86.579132 -31.989688
-15.799428 -84.950722 -33.788618
-15.640017 -85.785996 -32.874956
-16.6573 -84.260102 -33.053612
-15.88152 -84.135125 -34.665787
-15.799428 -84.950722 -33.788618
-24.952179 -72.312843 -31.186867
-24.659232 -73.172032 -30.173307
-25.535218 -71.608723 -30.320193
-24.393641 -72.847256 -32.05863
-24.952179 -72.312843 -31.186867
-23.44096 -74.493183 -31.910379
-24.393641 -72.847256 -32.05863
-15.142989 -89.126007 -15.292278
-14.73389 -89.902214 -16.486241
-14.249884 -90.348091 -15.406251
-16.848344 -86.076046 -12.633112
-15.969162 -87.396 -12.74493
-16.318551 -86.569099 -11.551199
-32.986109 -50.49115 -9.219938
-33.404824 -49.795828 -10.495123
-32.362257 -51.726994 -8.826742
-32.986109 -50.49115 -9.219938
-32.29262 -52.107499 -9.75334
-31.792717 -52.911538 -8.505868
-32.362257 -51.726994 -8.826742
-34.200516 -49.00203 -14.606024
-33.7444 -49.791407 -13.415931
-34.28833 -48.531538 -13.798609
-34.136337 -49.462872 -15.43995
-34.200516 -49.00203 -14.606024
-34.057562 -50.01338 -16.302448
-33.57781 -50.812407 -15.085845
-34.136337 -49.462872 -15.43995
-34.026359 -50.450203 -17.151372
-34.057562 -50.01338 -16.302448
-13.769643 -90.728378 -14.348171
-14.155091 -89.921036 -12.998088
-14.249884 -90.348091 -15.406251
-13.769643 -90.728378 -14.348171
-17.905924 -82.160641 -5.152963
-17.658485 -83.018982 -6.561792
-18.586698 -81.024067 -5.157992
-17.905924 -82.160641 -5.152963
-19.257165 -79.802075 -5.063036
-19.063761 -80.58036 -6.361593
-18.586698 -81.024067 -5.157992
-19.481547 -78.950638 -3.876258
-19.771796 -78.00074 -2.705738
-19.95861 -78.506932 -5.079859
-19.257165 -79.802075 -5.063036
-19.481547 -78.950638 -3.876258
-21.569077 -74.463359 -2.945589
-20.988185 -75.61425 -2.758896
-21.979408 -74.086158 -4.272282
-21.569077 -74.463359 -2.945589
-22.176544 -73.212154 -3.107807
-25.435875 -72.543892 -27.210824
-25.046926 -73.349835 -26.141531
-25.868029 -71.844341 -26.236445
-25.749623 -71.753155 -28.306185
-24.928522 -73.258648 -28.211272
-25.435875 -72.543892 -27.210824
-26.638629 -70.375245 -26.272634
-27.454974 -68.82011 -26.33649
-26.142736 -70.828644 -29.367173
-25.749623 -71.753155 -28.306185
-25.535218 -71.608723 -30.320193
-26.142736 -70.828644 -29.367173
-12.863475 -92.861671 -23.629131
-12.322695 -93.474025 -24.431629
-13.128025 -92.572388 -21.690379
-12.760285 -92.989483 -20.752249
-13.428978 -92.187664 -22.670918
-13.128025 -92.572388 -21.690379
-13.99134 -91.446766 -21.653493
-13.72679 -91.73605 -23.592245
-12.863475 -92.861671 -23.629131
-13.428978 -92.187664 -22.670918
-15.147024 -89.515888 -17.519675
-14.253919 -90.737972 -17.633647
-14.73389 -89.902214 -16.486241
-18.085684 -82.717079 -7.73229
-17.350874 -83.933708 -7.837532
-17.658485 -83.018982 -6.561792
-28.117352 -67.449932 -24.44064
-27.772604 -68.212788 -25.409368
-27.365029 -68.949234 -24.270803
-28.117352 -67.449932 -24.44064
-28.389698 -66.769001 -23.415636
-29.266534 -64.681881 -22.495455
-28.592344 -66.153489 -22.424865
-28.789258 -65.483745 -21.391122
-29.266534 -64.681881 -22.495455
-29.968165 -63.178619 -22.741347
-24.712392 -66.294998 -0.727278
-24.851807 -65.599933 0.29009
-25.154535 -65.790138 -2.095556
-24.599034 -66.970642 -1.737964
-24.712392 -66.294998 -0.727278
-25.80561 -63.96727 -1.367873
-25.395808 -64.482544 -0.066857
-25.690116 -64.600346 -2.340209
-25.80561 -63.96727 -1.367873
-26.227833 -63.453121 -2.623212
-27.913299 -59.991307 -3.783015
-28.48266 -58.891165 -4.250028
-27.790662 -60.60152 -4.750781
-27.346781 -61.15506 -3.403333
-27.913299 -59.991307 -3.783015
-28.812909 -58.862019 -6.407984
-28.953278 -58.244102 -5.539174
-29.409008 -57.668354 -6.816695
-32.933609 -53.034908 -16.36502
-32.962214 -52.589527 -15.555401
-33.47043 -51.808296 -16.757962
-32.409956 -54.307146 -16.089734
-32.933609 -53.034908 -16.36502
-32.918173 -53.525915 -17.292295
-32.252527 -56.474518 -19.751708
-31.704896 -57.803749 -19.537895
-31.736281 -57.284779 -18.582826
-32.252527 -56.474518 -19.751708
-32.82873 -55.025436 -19.975149
-12.624067 -92.784809 -26.13046
-12.460401 -93.165512 -25.249013
-13.324953 -92.029354 -25.431907
-12.624067 -92.784809 -26.13046
-12.761999 -92.358086 -27.042349
-13.126126 -90.863438 -29.812492
-13.013695 -91.393566 -28.873533
-14.032074 -90.023415 -29.026159
-13.126126 -90.863438 -29.812492
-13.296623 -90.176494 -30.735446
-13.537542 -88.79464 -32.553982
-14.627439 -87.269753 -32.724694
-21.011558 -77.415386 -33.596283
-21.80978 -76.73629 -32.703041
-19.926608 -79.157524 -33.465446
-21.011558 -77.415386 -33.596283
-18.825415 -80.876259 -33.401916
-19.71264 -80.0811 -32.561775
-19.926608 -79.157524 -33.465446
-17.928047 -81.688755 -34.136431
-17.71408 -82.612332 -33.23276
-18.825415 -80.876259 -33.401916
-16.936827 -82.509568 -34.877413
-17.928047 -81.688755 -34.136431
-15.88152 -84.135125 -34.665787
-16.936827 -82.509568 -34.877413
3 153 40 154
3 1 43 41
3 1 45 43
3 0 48 46
3 155 51 156
3 4 54 52
3 4 56 54
3 2 59 57
3 5 62 60
3 5 64 62
3 5 66 64
3 6 157 159
3 159 158 67
3 157 158 159
3 6 160 161
3 7 70 69
3 7 72 70
3 7 74 72
3 3 77 75
3 8 80 78
3 8 81 80
3 162 85 163
3 164 163 83
3 162 163 164
3 10 86 39
3 10 87 86
3 11 90 88
3 13 91 42
3 13 92 91
3 13 94 92
3 15 95 44
3 15 96 95
3 16 165 167
3 165 97 166
3 165 166 167
3 16 98 97
3 16 100 98
3 168 83 169
3 18 103 101
3 20 104 47
3 20 105 104
3 170 107 171
3 172 108 173
3 174 173 107
3 172 173 174
3 22 175 176
3 22 177 179
3 177 109 178
3 177 178 179
3 22 110 109
3 23 111 49
3 23 112 111
3 24 180 182
3 182 181 113
3 180 181 182
3 27 115 50
3 27 116 115
3 9 117 84
3 28 118 53
3 28 119 118
3 28 120 119
3 29 121 55
3 29 122 121
3 21 123 106
3 30 124 58
3 30 125 124
3 12 126 89
3 31 127 61
3 31 128 127
3 31 129 128
3 32 130 63
3 32 131 130
3 32 132 131
3 33 133 65
3 33 183 185
3 185 184 133
3 183 184 185
3 14 134 93
3 186 135 187
3 188 187 68
3 186 187 188
3 190 189 135
3 191 136 192
3 34 193 195
3 193 137 194
3 193 194 195
3 34 138 137
3 196 139 197
3 35 140 71
3 35 141 140
3 35 142 141
3 36 143 73
3 36 144 143
3 17 145 99
3 198 146 199
3 200 147 201
3 202 201 146
3 200 201 202
3 204 203 147
3 26 205 206
3 37 207 209
3 209 208 76
3 207 208 209
3 37 210 211
3 19 148 102
3 38 149 79
3 38 212 214
3 214 213 149
3 212 213 214
3 38 215 216
3 25 150 114
3 217 151 218
3 219 218 82
3 217 218 219
3 220 152 221
3 222 221 151
3 220 221 222
3 223 39 224
3 40 225 227
3 225 39 226
3 225 226 227
3 40 10 39
3 41 42 11
3 43 42 41
3 43 13 42
3 43 44 13
3 45 44 43
3 45 15 44
3 228 16 229
3 231 230 16
3 46 47 18
3 48 47 46
3 48 20 47
3 232 22 233
3 234 49 235
3 236 235 22
3 234 235 236
3 237 49 238
3 239 23 240
3 241 240 49
3 239 240 241
3 243 242 24
3 244 50 245
3 51 246 248
3 246 50 247
3 246 247 248
3 51 27 50
3 52 53 9
3 54 53 52
3 54 28 53
3 54 55 28
3 56 55 54
3 56 29 55
3 57 58 21
3 59 58 57
3 59 30 58
3 60 61 12
3 62 61 60
3 62 31 61
3 62 63 31
3 64 63 62
3 64 32 63
3 64 65 32
3 66 65 64
3 66 33 65
3 67 68 14
3 249 68 250
3 251 250 67
3 249 250 251
3 253 252 68
3 254 34 255
3 69 256 257
3 70 258 260
3 260 259 69
3 258 259 260
3 70 261 262
3 70 263 265
3 263 71 264
3 263 264 265
3 72 71 70
3 72 35 71
3 72 73 35
3 74 73 72
3 74 36 73
3 267 266 17
3 75 76 26
3 77 76 75
3 77 37 76
3 78 79 19
3 80 79 78
3 80 38 79
3 80 268 270
3 270 269 38
3 268 269 270
3 81 271 273
3 273 272 80
3 271 272 273
3 81 274 275
3 276 82 277
3 278 277 25
3 276 277 278
3 279 82 280
3 282 281 82
3 83 283 285
3 283 84 284
3 283 284 285
3 85 84 83
3 85 9 84
3 39 286 288
3 286 85 287
3 286 287 288
3 86 85 39
3 86 9 85
3 86 52 9
3 87 52 86
3 87 4 52
3 88 89 2
3 90 89 88
3 90 12 89
3 42 90 11
3 91 90 42
3 91 12 90
3 91 60 12
3 92 60 91
3 92 5 60
3 92 93 5
3 94 93 92
3 94 14 93
3 44 94 13
3 95 94 44
3 95 14 94
3 95 67 14
3 96 67 95
3 96 6 67
3 97 289 290
3 97 291 292
3 97 293 295
3 293 69 294
3 293 294 295
3 98 69 97
3 98 7 69
3 98 99 7
3 100 99 98
3 100 17 99
3 296 100 297
3 298 297 16
3 296 297 298
3 299 100 300
3 301 17 302
3 303 302 100
3 301 302 303
3 305 304 17
3 83 306 307
3 83 308 309
3 101 102 3
3 103 102 101
3 103 19 102
3 47 103 18
3 104 103 47
3 104 19 103
3 104 78 19
3 105 78 104
3 105 8 78
3 310 106 311
3 312 106 313
3 314 21 315
3 316 315 106
3 314 315 316
3 107 317 318
3 107 319 321
3 319 21 320
3 319 320 321
3 107 57 21
3 108 57 107
3 108 2 57
3 322 108 323
3 109 324 326
3 324 108 325
3 324 325 326
3 109 2 108
3 109 88 2
3 110 88 109
3 110 11 88
3 49 110 22
3 111 110 49
3 111 11 110
3 111 41 11
3 112 41 111
3 112 1 41
3 113 114 0
3 327 114 328
3 329 328 113
3 327 328 329
3 330 25 331
3 332 331 114
3 330 331 332
3 334 333 24
3 335 25 336
3 338 337 25
3 339 26 340
3 50 341 342
3 115 343 345
3 345 344 50
3 343 344 345
3 115 346 348
3 346 26 347
3 346 347 348
3 115 75 26
3 116 75 115
3 116 3 75
3 84 349 351
3 349 51 350
3 349 350 351
3 117 51 84
3 117 27 51
3 53 117 9
3 118 117 53
3 118 27 117
3 118 116 27
3 119 116 118
3 119 3 116
3 119 101 3
3 120 101 119
3 120 18 101
3 55 120 28
3 121 120 55
3 121 18 120
3 121 46 18
3 122 46 121
3 122 0 46
3 106 352 354
3 352 40 353
3 352 353 354
3 123 40 106
3 123 10 40
3 58 123 21
3 124 123 58
3 124 10 123
3 124 87 10
3 125 87 124
3 125 4 87
3 89 59 2
3 126 59 89
3 126 30 59
3 61 126 12
3 127 126 61
3 127 30 126
3 127 125 30
3 128 125 127
3 128 4 125
3 128 56 4
3 129 56 128
3 129 29 56
3 63 129 31
3 130 129 63
3 130 29 129
3 130 122 29
3 131 122 130
3 131 0 122
3 131 113 0
3 132 113 131
3 132 24 113
3 65 132 32
3 133 132 65
3 133 24 132
3 133 355 357
3 357 356 24
3 355 356 357
3 359 358 133
3 93 66 5
3 134 66 93
3 134 33 66
3 68 134 14
3 135 134 68
3 135 33 134
3 135 360 362
3 362 361 33
3 360 361 362
3 364 363 135
3 136 365 366
3 136 367 369
3 367 23 368
3 367 368 369
3 370 136 371
3 137 372 374
3 372 136 373
3 372 373 374
3 137 23 136
3 137 112 23
3 138 112 137
3 138 1 112
3 139 375 376
3 139 377 379
3 377 34 378
3 377 378 379
3 71 380 382
3 380 139 381
3 380 381 382
3 140 139 71
3 140 34 139
3 140 138 34
3 141 138 140
3 141 1 138
3 141 45 1
3 142 45 141
3 142 15 45
3 73 142 35
3 143 142 73
3 143 15 142
3 143 96 15
3 144 96 143
3 144 6 96
3 99 74 7
3 145 74 99
3 145 36 74
3 383 145 384
3 385 384 17
3 383 384 385
3 146 386 388
3 386 145 387
3 386 387 388
3 146 36 145
3 146 144 36
3 147 144 146
3 147 6 144
3 147 389 391
3 391 390 6
3 389 390 391
3 393 392 147
3 76 394 396
3 396 395 26
3 394 395 396
3 398 397 76
3 102 77 3
3 148 77 102
3 148 37 77
3 79 148 19
3 149 148 79
3 149 37 148
3 149 399 401
3 401 400 37
3 399 400 401
3 403 402 149
3 405 404 38
3 114 48 0
3 150 48 114
3 150 20 48
3 82 150 25
3 151 150 82
3 151 20 150
3 151 105 20
3 152 105 151
3 152 8 105
3 406 152 407
3 408 152 409
3 410 8 411
3 412 411 152
3 410 411 412
3 413 81 414
3 415 414 8
3 413 414 415
3 416 81 417
3 419 418 81
