ply
format ascii 1.0
element vertex 350
property float x
property float y
property float z
element face 340
property list uchar int vertex_index
end_header
-23.183678 -35.539219 -21.133478
-28.231169 -42.448837 -7.817873
-28.126276 -57.573799 12.193204
-25.757992 -66.42749 5.78307
-26.737314 -56.42067 2.631751
-25.242714 -54.099174 -6.452899
-25.853567 -39.158489 -15.450316
-22.248323 -39.569366 -21.122183
-27.506269 -56.934261 7.429695
-28.682524 -51.433903 6.227519
-28.027819 -50.727699 1.476557
-24.965277 -65.926804 0.646303
-26.526525 -48.546951 -7.228508
-24.44108 -52.474934 -10.473188
-25.644426 -46.731396 -11.254107
-24.646072 -44.633011 -14.858837
-27.139229 -40.754791 -11.920429
-26.806616 -62.055412 9.081034
-25.994301 -61.534626 3.997572
-25.201193 -60.841812 -0.779384
-24.431467 -59.677475 -5.343877
-26.007074 -55.446148 -1.990409
-27.363962 -49.751171 -2.853372
-29.122988 -43.636818 -3.538475
-24.474083 -37.103031 -18.702137
-23.413813 -42.187668 -18.33728
-27.35634 -45.478973 -7.568209
-26.104271 -47.614788 -9.338272
-26.860823 -44.770969 -9.600348
-26.374763 -43.894638 -11.49216
-27.69615 -41.721016 -9.89005
-27.416929 -59.919292 10.536277
-27.146355 -56.630806 5.028566
-26.681656 -59.375092 5.693918
-26.295324 -59.046486 3.286115
-25.589495 -61.165733 1.500412
-25.923128 -58.583584 0.892518
-25.52301 -58.221195 -1.415281
-26.407217 -55.862247 0.34034
-28.856169 -47.863987 1.298712
-27.679983 -50.365341 -0.690929
-28.51902 -47.341007 -1.08619
-28.168922 -46.760807 -3.344713
-26.115307 -66.791336 8.350996
-26.061766 -69.389748 9.226228
-25.748426 -68.902863 6.629049
-24.749502 -56.960247 -5.955163
-24.405689 -56.101437 -7.964967
-23.951084 -51.570629 -12.511551
-25.19582 -41.88834 -15.2371
-24.022171 -43.482483 -16.673548
-24.591988 -40.839539 -16.872663
-23.989252 -39.659531 -18.41157
-25.21361 -38.065289 -17.103437
-27.824711 -57.347683 9.902024
-28.349817 -54.554131 9.242258
-28.060974 -54.191154 6.848154
-27.681166 -54.028515 4.449567
-27.368944 -53.489162 2.086105
-28.357233 -51.157097 3.851241
-25.372591 -66.24662 3.247336
-25.885723 -51.207176 -6.822544
-24.841373 -53.442154 -8.449098
-25.421307 -50.561298 -8.915285
-24.969206 -49.623562 -10.963132
-24.585949 -48.516155 -12.722729
-24.099234 -47.448914 -14.513776
-25.178089 -45.666363 -13.096697
-25.838125 -42.848392 -13.386092
-26.560301 -39.911167 -13.680256
-26.210567 -64.28933 7.36253
-27.072807 -59.590294 8.116837
-26.393017 -61.928436 6.552022
-25.787428 -64.044609 4.652013
-25.42577 -63.644749 2.313702
-25.035368 -63.428429 0.019277
-24.622513 -62.849072 -2.518426
-24.830635 -60.282894 -3.040659
-25.100449 -57.743019 -3.799956
-25.587679 -54.926922 -4.32749
-26.988255 -53.105354 -0.256154
-26.594152 -52.66378 -2.557842
-26.198383 -52.150509 -4.727746
-26.94754 -49.314831 -4.988434
-27.745502 -46.292774 -5.47237
-28.718391 -43.120125 -5.615512
-28.590982 -38.465965 -10.208059
-28.015779 -37.714199 -12.046179
-27.232885 -37.052235 -14.035019
-26.532913 -36.180721 -15.782736
-25.766338 -35.429729 -17.416981
-23.792509 -36.152569 -20.075718
-23.509621 -46.331577 -16.359138
-22.8202 -40.856026 -19.82066
-23.351236 -38.407879 -19.887129
-22.762598 -35.715933 -21.634954
-22.97374 -36.392685 -21.134922
-27.771603 -58.746545 11.36474
-27.606915 -59.952287 11.794539
-27.961589 -58.779541 12.623003
-29.092315 -46.181535 -0.096317
-28.687595 -47.602497 0.106261
-29.260889 -46.443026 1.096134
-28.983875 -45.789894 -1.221834
-29.092315 -46.181535 -0.096317
-23.535459 -52.402963 -13.247582
-23.765457 -50.919848 -13.379217
-21.747649 -39.948499 -21.740671
-22.018835 -40.746629 -21.106336
-28.749395 -53.348111 10.063614
-28.473064 -54.752705 10.432104
-28.371749 -52.812528 6.537837
-28.501929 -53.00242 7.757748
-28.812704 -51.623795 7.447431
-25.003255 -67.112133 1.075965
-25.206912 -67.272041 2.376482
-25.168934 -66.086712 1.946819
-26.69056 -63.292774 9.445253
-26.972479 -62.251329 10.283206
-26.508592 -63.172371 8.221782
-26.392536 -64.409733 8.586001
-26.69056 -63.292774 9.445253
-29.323172 -37.259355 -9.31567
-28.851628 -38.887465 -9.189602
-28.351365 -36.279305 -12.263442
-28.75134 -36.514385 -11.230809
-27.959918 -35.948323 -13.257862
-27.624332 -37.383217 -13.040599
-28.351365 -36.279305 -12.263442
-26.826745 -34.805011 -15.968695
-27.222707 -35.170902 -15.084761
-26.443458 -34.429516 -16.785818
-26.149625 -35.805225 -16.599858
-26.826745 -34.805011 -15.968695
-26.06729 -70.615426 9.729463
-25.93918 -70.45131 8.439637
-24.133421 -60.728459 -6.195507
-24.328254 -60.975739 -5.111413
-24.193872 -53.898842 -10.321463
-24.394019 -54.382452 -9.309418
-24.641227 -52.958544 -9.461143
-23.186959 -43.524681 -18.206326
-23.491138 -44.172089 -17.37446
-23.717992 -42.835076 -17.505414
-22.888112 -42.82781 -18.998514
-23.186959 -43.524681 -18.206326
-23.117007 -41.521847 -19.07897
-22.591305 -42.16199 -19.740204
-22.888112 -42.82781 -18.998514
-22.019843 -38.752403 -21.691955
-22.506063 -38.407758 -21.129275
-29.14892 -50.210121 7.157163
-28.812704 -51.623795 7.447431
-29.052225 -49.994528 6.00204
-29.14892 -50.210121 7.157163
-24.811637 -67.011539 -0.197899
-24.772806 -65.669529 -0.570101
-27.277636 -61.183269 11.010828
-27.606915 -59.952287 11.794539
-27.111773 -60.987352 9.808656
-26.972479 -62.251329 10.283206
-27.277636 -61.183269 11.010828
-28.808826 -45.499794 -2.351096
-28.343971 -47.050907 -2.215451
-28.983875 -45.789894 -1.221834
-29.285859 -43.937799 -2.447977
-28.645955 -45.198813 -3.441594
-28.808826 -45.499794 -2.351096
-26.088537 -68.090542 8.788612
-26.252237 -68.199128 9.995912
-26.279008 -66.899922 9.558295
-25.782511 -70.207867 7.141047
-25.93918 -70.45131 8.439637
-25.905096 -69.146305 7.927639
-24.388146 -57.996491 -6.749154
-24.229128 -59.355104 -6.443511
-24.590485 -58.318861 -5.64952
-24.216239 -57.567085 -7.754056
-24.388146 -57.996491 -6.749154
-24.577596 -56.530842 -6.960065
-24.03799 -57.04369 -8.788666
-24.216239 -57.567085 -7.754056
-23.736756 -53.058534 -12.285681
-23.981755 -53.510687 -11.266499
-24.196082 -52.022781 -11.49237
-23.736756 -53.058534 -12.285681
-23.535459 -52.402963 -13.247582
-21.747649 -39.948499 -21.740671
-22.019843 -38.752403 -21.691955
-28.210512 -56.149481 10.761988
-27.975493 -57.460741 11.047614
-28.361294 -56.262539 11.907577
-28.087264 -55.950907 9.572141
-28.210512 -56.149481 10.761988
-28.473064 -54.752705 10.432104
-28.646351 -53.183909 8.954801
-28.749395 -53.348111 10.063614
-28.205396 -54.372642 8.045206
-28.646351 -53.183909 8.954801
-28.501929 -53.00242 7.757748
-28.889579 -49.856125 4.8139
-28.519879 -51.2955 5.03938
-29.052225 -49.994528 6.00204
-28.729102 -49.76038 3.641984
-28.889579 -49.856125 4.8139
-28.564395 -49.545681 2.454642
-28.192526 -50.942398 2.663899
-28.729102 -49.76038 3.641984
-28.97857 -48.113825 2.365719
-28.441994 -49.295843 1.387634
-28.564395 -49.545681 2.454642
-29.436003 -46.524433 2.21139
-28.97857 -48.113825 2.365719
-29.260889 -46.443026 1.096134
-29.436003 -46.524433 2.21139
-25.383713 -67.517749 3.624686
-25.576414 -67.608184 4.892553
-25.565292 -66.337055 4.515203
-25.383713 -67.517749 3.624686
-25.206912 -67.272041 2.376482
-25.003255 -67.112133 1.075965
-24.811637 -67.011539 -0.197899
-24.08289 -49.392611 -13.484806
-23.765457 -50.919848 -13.379217
-24.268517 -50.043392 -12.61714
-24.342591 -47.982534 -13.618253
-23.839532 -48.85899 -14.380329
-24.08289 -49.392611 -13.484806
-26.344906 -65.660736 9.080234
-26.279008 -66.899922 9.558295
-26.162937 -65.540333 7.856763
-26.344906 -65.660736 9.080234
-26.392536 -64.409733 8.586001
-24.807851 -64.420342 -0.883614
-24.772806 -65.669529 -0.570101
-25.000322 -64.677616 0.33279
-24.601424 -64.130663 -2.152465
-24.807851 -64.420342 -0.883614
-24.828941 -63.138751 -1.249574
-24.404401 -63.900667 -3.34984
-24.601424 -64.130663 -2.152465
-24.423777 -62.561537 -3.698688
-24.404401 -63.900667 -3.34984
-24.527839 -61.278448 -3.959804
-24.423777 -62.561537 -3.698688
-24.726574 -61.565983 -2.779542
-24.631051 -59.980185 -4.192268
-24.328254 -60.975739 -5.111413
-24.527839 -61.278448 -3.959804
-28.277709 -57.665205 13.417606
-27.961589 -58.779541 12.623003
-28.477075 -56.400419 13.041356
-28.277709 -57.665205 13.417606
-28.361294 -56.262539 11.907577
-28.477075 -56.400419 13.041356
-23.158353 -34.791996 -21.417239
-23.621167 -34.921976 -20.760303
-29.751143 -42.40707 -2.584517
-29.285859 -43.937799 -2.447977
-29.559513 -42.156791 -3.708926
-29.751143 -42.40707 -2.584517
-29.357214 -41.898445 -4.747444
-28.92069 -43.378472 -4.576994
-29.559513 -42.156791 -3.708926
-29.172697 -41.525492 -5.822574
-29.357214 -41.898445 -4.747444
-28.929086 -41.189848 -6.923755
-28.47478 -42.784481 -6.716692
-29.172697 -41.525492 -5.822574
-28.671722 -40.878901 -7.994509
-28.929086 -41.189848 -6.923755
-28.404212 -40.51499 -9.030597
-27.963659 -42.084926 -8.853962
-28.671722 -40.878901 -7.994509
-28.143566 -40.093491 -10.049055
-28.404212 -40.51499 -9.030597
-28.851628 -38.887465 -9.189602
-29.038942 -36.890268 -10.311749
-29.323172 -37.259355 -9.31567
-28.30338 -38.090082 -11.127119
-29.038942 -36.890268 -10.311749
-28.75134 -36.514385 -11.230809
-27.572693 -35.606659 -14.210902
-27.959918 -35.948323 -13.257862
-26.882899 -36.616478 -14.908877
-27.572693 -35.606659 -14.210902
-27.222707 -35.170902 -15.084761
-26.004538 -34.144887 -17.618139
-26.443458 -34.429516 -16.785818
-25.369917 -35.053039 -18.183778
-26.004538 -34.144887 -17.618139
-24.723789 -35.889691 -18.826356
-25.12021 -36.26638 -18.059559
-25.369917 -35.053039 -18.183778
-24.383002 -35.414459 -19.513146
-24.133296 -36.6278 -19.388928
-24.723789 -35.889691 -18.826356
-23.925582 -35.228651 -20.231423
-24.383002 -35.414459 -19.513146
-23.621167 -34.921976 -20.760303
-23.488093 -35.845894 -20.604598
-23.925582 -35.228651 -20.231423
-26.214319 -69.433243 10.501171
-26.252237 -68.199128 9.995912
-26.214319 -69.433243 10.501171
-26.06729 -70.615426 9.729463
-25.571631 -68.845871 5.315543
-25.753209 -67.665177 6.20606
-25.576414 -67.608184 4.892553
-25.640953 -70.098843 5.849484
-25.571631 -68.845871 5.315543
-25.782511 -70.207867 7.141047
-25.640953 -70.098843 5.849484
-24.133421 -60.728459 -6.195507
-24.229128 -59.355104 -6.443511
-24.176177 -55.712093 -9.067353
-24.623531 -54.771795 -8.207033
-24.394019 -54.382452 -9.309418
-24.03799 -57.04369 -8.788666
-24.176177 -55.712093 -9.067353
-24.193872 -53.898842 -10.321463
-23.981755 -53.510687 -11.266499
-23.577025 -48.367995 -15.262718
-23.839532 -48.85899 -14.380329
-23.282219 -47.809326 -16.185399
-23.577025 -48.367995 -15.262718
-23.804427 -46.890246 -15.436457
-23.053615 -47.01721 -17.019772
-23.282219 -47.809326 -16.185399
-23.234862 -45.596636 -17.217256
-23.765896 -44.90703 -16.516343
-23.491138 -44.172089 -17.37446
-23.053615 -47.01721 -17.019772
-23.234862 -45.596636 -17.217256
-22.304773 -41.38996 -20.455575
-22.591305 -42.16199 -19.740204
-22.534261 -40.212696 -20.471421
-22.018835 -40.746629 -21.106336
-22.304773 -41.38996 -20.455575
-23.057519 -37.827015 -20.511747
-22.506063 -38.407758 -21.129275
-22.799779 -38.988623 -20.504656
-23.278156 -36.69936 -20.606042
-23.057519 -37.827015 -20.511747
-23.571872 -37.280224 -19.981423
-23.488093 -35.845894 -20.604598
-22.97374 -36.392685 -21.134922
-23.278156 -36.69936 -20.606042
-22.762598 -35.715933 -21.634954
-23.158353 -34.791996 -21.417239
3 0 95 96
3 1 28 26
3 1 30 28
3 2 97 99
3 97 31 98
3 97 98 99
3 4 34 32
3 4 36 34
3 4 38 36
3 100 41 101
3 102 101 39
3 100 101 102
3 104 103 41
3 3 45 43
3 5 47 46
3 106 105 48
3 6 51 49
3 6 53 51
3 7 107 108
3 109 55 110
3 9 111 113
3 111 56 112
3 111 112 113
3 9 57 56
3 9 59 57
3 11 114 116
3 116 115 60
3 114 115 116
3 12 63 61
3 14 64 27
3 14 65 64
3 14 67 65
3 16 68 29
3 16 69 68
3 17 117 118
3 17 119 121
3 119 70 120
3 119 120 121
3 8 71 54
3 18 72 33
3 18 73 72
3 18 74 73
3 19 75 35
3 19 76 75
3 19 77 76
3 21 78 37
3 21 79 78
3 10 80 58
3 22 81 40
3 22 82 81
3 22 83 82
3 23 84 42
3 23 85 84
3 122 86 123
3 124 87 125
3 126 88 127
3 128 127 87
3 126 127 128
3 129 89 130
3 131 90 132
3 133 132 89
3 131 132 133
3 135 134 44
3 20 136 137
3 13 138 140
3 140 139 62
3 138 139 140
3 15 92 66
3 25 141 143
3 143 142 50
3 141 142 143
3 25 144 145
3 25 146 148
3 146 93 147
3 146 147 148
3 24 94 52
3 24 91 94
3 150 149 7
3 151 9 152
3 154 153 9
3 156 155 11
3 26 27 12
3 28 27 26
3 28 14 27
3 28 29 14
3 30 29 28
3 30 16 29
3 31 157 158
3 31 159 161
3 159 17 160
3 159 160 161
3 32 33 8
3 34 33 32
3 34 18 33
3 34 35 18
3 36 35 34
3 36 19 35
3 36 37 19
3 38 37 36
3 38 21 37
3 39 40 10
3 41 40 39
3 41 22 40
3 41 42 22
3 162 42 163
3 164 163 41
3 162 163 164
3 165 23 166
3 167 166 42
3 165 166 167
3 43 168 170
3 168 44 169
3 168 169 170
3 45 44 43
3 45 171 173
3 173 172 44
3 171 172 173
3 46 174 176
3 176 175 20
3 174 175 176
3 47 177 179
3 179 178 46
3 177 178 179
3 47 180 181
3 48 182 184
3 184 183 13
3 182 183 184
3 186 185 48
3 49 50 15
3 51 50 49
3 51 25 50
3 51 52 25
3 53 52 51
3 53 24 52
3 188 187 7
3 189 54 190
3 191 190 2
3 189 190 191
3 55 192 194
3 192 54 193
3 192 193 194
3 55 8 54
3 195 55 196
3 56 197 199
3 197 55 198
3 197 198 199
3 56 8 55
3 56 32 8
3 57 32 56
3 57 4 32
3 57 58 4
3 59 58 57
3 59 10 58
3 200 59 201
3 202 201 9
3 200 201 202
3 203 59 204
3 205 10 206
3 207 206 59
3 205 206 207
3 208 39 209
3 210 209 10
3 208 209 210
3 211 39 212
3 214 213 39
3 60 215 217
3 217 216 3
3 215 216 217
3 219 218 60
3 221 220 11
3 61 62 5
3 63 62 61
3 63 13 62
3 27 63 12
3 64 63 27
3 64 13 63
3 64 48 13
3 65 48 64
3 65 222 224
3 224 223 48
3 222 223 224
3 65 225 227
3 225 66 226
3 225 226 227
3 67 66 65
3 67 15 66
3 29 67 14
3 68 67 29
3 68 15 67
3 68 49 15
3 69 49 68
3 69 6 49
3 228 43 229
3 70 230 232
3 230 43 231
3 230 231 232
3 70 3 43
3 54 31 2
3 71 31 54
3 71 17 31
3 33 71 8
3 72 71 33
3 72 17 71
3 72 70 17
3 73 70 72
3 73 3 70
3 73 60 3
3 74 60 73
3 74 11 60
3 35 74 18
3 75 74 35
3 75 11 74
3 75 233 235
3 235 234 11
3 233 234 235
3 76 236 238
3 238 237 75
3 236 237 238
3 76 239 240
3 76 241 242
3 77 243 245
3 245 244 76
3 243 244 245
3 77 246 248
3 246 20 247
3 246 247 248
3 37 77 19
3 78 77 37
3 78 20 77
3 78 46 20
3 79 46 78
3 79 5 46
3 58 38 4
3 80 38 58
3 80 21 38
3 40 80 10
3 81 80 40
3 81 21 80
3 81 79 21
3 82 79 81
3 82 5 79
3 82 61 5
3 83 61 82
3 83 12 61
3 42 83 22
3 84 83 42
3 84 12 83
3 84 26 12
3 85 26 84
3 85 1 26
3 249 2 250
3 251 2 252
3 254 253 2
3 256 255 0
3 257 23 258
3 259 23 260
3 261 85 262
3 263 262 23
3 261 262 263
3 264 85 265
3 266 1 267
3 268 267 85
3 266 267 268
3 269 1 270
3 271 30 272
3 273 272 1
3 271 272 273
3 86 274 276
3 274 30 275
3 274 275 276
3 86 16 30
3 277 86 278
3 87 279 281
3 279 86 280
3 279 280 281
3 87 16 86
3 87 69 16
3 88 69 87
3 88 6 69
3 282 88 283
3 89 284 286
3 284 88 285
3 284 285 286
3 89 6 88
3 89 53 6
3 90 53 89
3 90 24 53
3 287 90 288
3 289 90 290
3 291 24 292
3 293 292 90
3 291 292 293
3 294 91 295
3 296 295 24
3 294 295 296
3 297 91 298
3 299 0 300
3 301 300 91
3 299 300 301
3 44 302 303
3 305 304 44
3 306 45 307
3 308 307 3
3 306 307 308
3 309 45 310
3 312 311 45
3 314 313 20
3 62 47 5
3 315 47 316
3 317 316 62
3 315 316 317
3 319 318 47
3 321 320 13
3 66 322 323
3 92 324 326
3 326 325 66
3 324 325 326
3 92 327 328
3 50 92 15
3 329 92 330
3 331 330 50
3 329 330 331
3 333 332 92
3 93 334 335
3 93 336 338
3 336 7 337
3 336 337 338
3 52 93 25
3 94 93 52
3 94 7 93
3 94 339 341
3 341 340 7
3 339 340 341
3 91 342 344
3 344 343 94
3 342 343 344
3 91 345 347
3 345 0 346
3 345 346 347
3 349 348 0
