ply
format ascii 1.0
element vertex 121
property float x
property float y
property float z
element face 94
property list uchar int vertex_index
end_header
30.595066 27.906807 44.907108
30.281679 22.456598 51.780769
30.930998 33.516884 41.230583
30.462147 28.692947 48.996712
30.348518 22.14456 47.633499
30.327127 22.13287 49.711918
30.751291 30.795567 43.123661
30.478203 24.506176 44.508354
30.173 22.283207 53.97646
30.197966 18.952702 52.972969
31.127577 36.511639 39.385529
30.808249 34.563686 43.273815
30.667236 31.343918 45.153996
30.546026 28.601784 46.984776
30.367548 25.451618 50.419659
30.436964 25.403526 48.397682
30.476048 25.323687 46.393475
30.615766 27.545914 43.958471
30.693879 28.990293 43.066747
30.673178 29.351187 44.015384
30.536634 26.206491 44.707731
30.557335 25.845598 43.759094
30.615766 27.545914 43.958471
30.06955 22.154887 55.134337
30.113087 23.888072 54.357859
30.151734 17.166073 53.597904
30.152521 18.919885 54.064256
30.10629 17.133257 54.689191
30.161703 17.28878 52.531824
30.151734 17.166073 53.597904
30.738645 34.745945 44.393355
30.80093 36.39591 43.371926
30.668138 33.136061 45.333445
30.737742 32.953802 44.213905
30.738645 34.745945 44.393355
30.514057 30.315668 48.136589
30.440538 30.540976 49.202454
30.504086 28.647365 47.990744
30.555996 30.270086 47.130621
30.514057 30.315668 48.136589
30.324613 23.954108 51.100214
30.305334 25.596093 51.521648
30.2624 24.098583 52.202203
30.346514 21.997308 46.710186
30.410278 23.586872 46.090174
30.412283 23.734123 47.013487
30.99613 33.050179 40.325594
31.09442 34.547556 39.403067
31.029287 35.014262 40.308056
30.391894 28.847133 50.086683
30.440538 30.540976 49.202454
30.277051 20.557212 50.323885
30.304403 22.294734 50.746343
30.254326 20.719076 51.358311
30.275391 20.553448 49.275042
30.277051 20.557212 50.323885
30.286086 20.559293 48.235832
30.337823 22.138715 48.672708
30.275391 20.553448 49.275042
30.277868 20.519386 47.242272
30.286086 20.559293 48.235832
30.789322 30.287895 42.207332
30.879176 31.648554 41.260794
30.841144 32.156225 42.177122
30.789322 30.287895 42.207332
30.693879 28.990293 43.066747
30.488263 24.187423 43.604604
30.557335 25.845598 43.759094
30.411843 23.033932 44.263811
30.488263 24.187423 43.604604
30.20806 24.011888 53.300049
30.113087 23.888072 54.357859
30.227339 22.369903 52.878614
30.2624 24.098583 52.202203
30.20806 24.011888 53.300049
30.140038 20.585138 54.566002
30.06955 22.154887 55.134337
30.185483 20.617954 53.474715
30.140038 20.585138 54.566002
30.152521 18.919885 54.064256
30.21247 18.967128 51.95441
30.254326 20.719076 51.358311
30.239823 20.70465 52.376869
30.21247 18.967128 51.95441
30.161703 17.28878 52.531824
31.134473 38.207959 39.339548
31.245275 37.637101 38.306826
31.041529 36.876494 40.397945
31.134473 38.207959 39.339548
30.943239 35.379116 41.320473
31.029287 35.014262 40.308056
31.041529 36.876494 40.397945
30.881865 35.902517 42.342089
30.80093 36.39591 43.371926
30.869623 34.040285 42.252199
30.943239 35.379116 41.320473
30.881865 35.902517 42.342089
30.616601 31.641154 46.215231
30.668138 33.136061 45.333445
30.606631 29.972851 46.069386
30.616601 31.641154 46.215231
30.555996 30.270086 47.130621
30.344594 27.226469 50.798157
30.305334 25.596093 51.521648
30.414848 27.072283 49.708185
30.391894 28.847133 50.086683
30.344594 27.226469 50.798157
30.411356 23.178116 45.147613
30.477125 24.914932 45.450914
30.410278 23.586872 46.090174
30.411843 23.033932 44.263811
30.411356 23.178116 45.147613
30.346514 21.997308 46.710186
30.277868 20.519386 47.242272
31.225471 35.806408 38.399861
31.343168 36.93187 37.321157
31.245275 37.637101 38.306826
31.225471 35.806408 38.399861
31.09442 34.547556 39.403067
30.99613 33.050179 40.325594
30.879176 31.648554 41.260794
3 0 17 19
3 19 18 6
3 17 18 19
3 0 20 22
3 20 7 21
3 20 21 22
3 23 8 24
3 25 9 26
3 25 26 27
3 29 28 9
3 30 11 31
3 32 12 33
3 34 33 11
3 32 33 34
3 3 35 36
3 3 37 39
3 37 13 38
3 37 38 39
3 1 40 42
3 40 14 41
3 40 41 42
3 4 15 5
3 4 16 15
3 4 43 45
3 45 44 16
3 43 44 45
3 2 46 48
3 48 47 10
3 46 47 48
3 49 3 50
3 51 5 52
3 53 52 1
3 51 52 53
3 54 5 55
3 56 4 57
3 58 57 5
3 56 57 58
3 60 59 4
3 6 61 63
3 63 62 2
3 61 62 63
3 65 64 6
3 7 66 67
3 7 68 69
3 8 70 71
3 8 72 74
3 72 1 73
3 72 73 74
3 75 8 76
3 9 77 79
3 77 8 78
3 77 78 79
3 9 1 8
3 9 80 82
3 82 81 1
3 80 81 82
3 84 83 9
3 85 10 86
3 87 10 88
3 89 2 90
3 91 90 10
3 89 90 91
3 11 92 93
3 11 94 96
3 94 2 95
3 94 95 96
3 11 6 2
3 12 6 11
3 12 0 6
3 97 12 98
3 13 99 101
3 99 12 100
3 99 100 101
3 13 0 12
3 14 102 103
3 14 104 106
3 104 3 105
3 104 105 106
3 5 14 1
3 15 14 5
3 15 3 14
3 15 13 3
3 16 13 15
3 16 0 13
3 16 7 0
3 107 7 108
3 109 108 16
3 107 108 109
3 111 110 7
3 113 112 4
3 10 114 116
3 114 115 116
3 118 117 10
3 120 119 2
