ply
format ascii 1.0
element vertex 759
property float x
property float y
property float z
element face 817
property list uchar int vertex_index
end_header
-10.057684 75.500885 -36.069984
0.428223 62.079052 -47.410851
-24.416458 57.992569 -5.871986
-19.035164 72.169449 -20.290688
-26.425591 49.674435 -0.658565
-15.100258 75.685143 -28.206007
-8.804253 64.58567 -36.722088
-5.429057 58.986427 -42.559673
-25.81707 46.227539 -7.309085
-22.320774 53.267517 -11.412629
-22.066885 65.975075 -12.66338
-19.004997 59.587944 -16.720751
-12.48711 66.273621 -29.889446
-2.717985 50.479538 -48.14571
-9.439204 70.031128 -36.483856
-7.148571 68.059822 -39.666817
-25.453453 53.646847 -3.141323
-26.612892 48.291359 -4.367642
-25.160198 52.354977 -6.581172
-24.005226 49.916138 -9.254821
-23.781534 55.920677 -9.117818
-19.889597 75.147667 -17.594931
-21.348673 71.799477 -13.311667
-20.707226 69.244545 -16.264057
-20.866219 63.287777 -15.079028
-19.313993 66.027023 -18.368132
-17.604107 68.542824 -22.009205
-12.712161 76.065399 -32.195244
-13.857501 71.04628 -29.240585
-11.691688 71.301956 -33.050335
-10.688843 65.955139 -33.353569
-2.927421 60.862816 -45.078583
-4.033813 54.952518 -45.266331
-1.020056 56.043278 -47.622066
1.669123 45.258793 -52.312992
2.417478 39.844109 -54.429726
-25.50458 50.243484 3.611285
-24.752787 54.781445 0.951244
-24.079044 59.335617 -2.069497
-18.006306 78.039391 -22.133999
-17.197039 74.412445 -24.261696
-15.81554 79.889969 -26.579479
-13.309158 80.754715 -30.896868
2.407654 56.58334 -49.430809
-8.43711 59.540775 -36.999607
-7.24448 57.127369 -39.797474
-7.102482 62.294254 -39.65414
-4.956594 64.97168 -42.47662
-1.961234 66.812065 -45.101387
-28.062462 44.55201 -2.274116
-27.637907 42.755775 -5.620966
-26.318758 39.945995 -7.93748
-23.368347 63.756958 -5.420521
-23.325575 62.245419 -9.051966
-22.367254 59.721287 -11.920923
-20.654762 56.744801 -13.944818
-15.834935 70.027657 -25.490309
-9.769308 60.7901 -33.986305
-6.220437 53.947021 -42.580463
-5.363359 50.002552 -45.636826
0.462404 50.754154 -49.994827
-1.652936 45.98177 -50.938408
-9.761084 72.735992 -36.335934
-8.514183 71.983841 -38.013641
-8.733464 74.69207 -37.790123
-24.907253 55.970806 -4.408037
-25.437902 53.047173 -4.887107
-24.818073 55.137455 -6.223133
-24.457478 54.157471 -7.861814
-24.195772 57.218124 -7.641479
-19.539656 73.771912 -19.087435
-20.376101 72.277168 -16.960701
-19.926653 70.751328 -18.202469
-20.102865 67.706093 -17.394646
-19.27042 69.214073 -19.315285
-18.490591 67.390282 -20.155788
-18.387766 70.473465 -21.258465
-11.407918 75.885155 -34.179047
-12.217752 73.75795 -32.703129
-10.990214 73.304268 -34.569389
-10.55768 70.834579 -34.834972
-1.391268 61.367542 -46.282597
-1.900685 58.499916 -46.405704
-0.283489 58.905254 -47.507839
3.700356 42.027973 -53.55563
-24.216759 55.03495 2.998191
-23.903307 57.321667 1.691683
-24.402546 57.073368 -0.447723
-23.596136 59.826248 0.045217
-18.172026 79.57122 -20.67626
-17.073925 80.878639 -23.104769
-17.031721 79.02137 -24.219194
-15.966636 81.755737 -25.396528
-11.923061 80.913383 -32.987633
-8.619085 61.997494 -36.771351
-7.887463 61.117905 -38.211536
-7.972935 63.720787 -38.165058
-6.037975 69.639206 -41.035397
-6.074955 66.514 -41.063141
-4.732956 67.893539 -42.516548
-3.450895 65.761894 -43.951942
-26.998974 47.550243 0.350378
-27.903643 45.115089 -0.379935
-27.282681 47.016796 -1.520557
-26.359308 47.180099 -5.973026
-27.19458 45.48658 -4.917053
-26.742472 44.368301 -6.445006
-27.067295 41.475533 -6.927835
-26.042387 43.150867 -7.686616
-25.180475 41.707436 -8.648646
-25.074263 44.887184 -8.455791
-23.115829 51.641792 -10.352625
-23.149094 48.395073 -10.220917
-22.212532 49.746075 -11.19237
-21.321411 51.603271 -12.266465
-21.78817 68.861893 -12.985924
-21.93696 69.976273 -11.303857
-22.422909 66.914909 -11.005127
-22.952602 65.085121 -9.226655
-22.716724 64.153267 -10.85032
-22.950268 61.109642 -10.615059
-22.324694 62.947586 -12.131008
-20.068932 61.410843 -15.863936
-20.827814 60.02454 -14.44767
-19.845474 58.194256 -15.2747
-19.543245 54.635159 -14.658357
-16.185335 75.188866 -26.230818
-16.596291 72.157242 -24.902761
-15.597353 72.993469 -26.860346
-13.129295 68.877228 -29.736654
-14.034595 68.285751 -27.86471
-13.329105 65.981529 -28.137232
-9.710503 65.489243 -35.155617
-10.161243 63.302505 -33.690353
-9.373532 62.714607 -35.270397
-9.094725 60.237484 -35.512299
-6.467909 58.190048 -41.086422
-6.726932 55.661461 -41.135189
-5.830415 56.410885 -42.495304
-3.28116 52.929668 -46.708748
-4.594753 52.520145 -45.457058
-4.107501 50.37516 -46.933315
-4.969986 47.993504 -47.258339
-3.659826 48.19965 -48.44323
3.241642 53.629696 -50.355186
1.470138 53.705803 -49.632935
2.162569 50.770496 -50.671871
0.414855 43.155273 -52.975048
-0.02398 45.60894 -51.751545
-1.165741 43.70528 -52.341877
-2.673777 43.862019 -51.659565
-9.13873 67.315514 -36.552589
-8.054045 66.435173 -38.240547
-8.323514 69.127014 -38.069057
-7.22965 70.9534 -39.622467
-25.901779 51.775833 -1.86593
-26.647421 49.029785 -2.607349
-26.026447 51.026672 -3.817936
-25.909678 50.141186 -5.466919
-25.524765 49.332127 -6.901182
-24.916788 47.998878 -8.239202
-24.736029 51.109875 -7.977771
-23.904388 52.87207 -9.203392
-23.14197 54.850117 -10.375597
-20.643553 73.647041 -15.44956
-21.094313 70.837112 -14.960418
-21.380365 67.823425 -14.510477
-21.573601 64.587616 -13.922339
-20.864107 66.275253 -15.624177
-20.123369 64.566666 -16.617033
-19.246082 62.691372 -17.414698
-18.269958 61.066505 -18.169508
-18.478825 64.159836 -19.0319
-17.679077 65.507431 -20.735655
-16.795576 66.273018 -22.40317
-13.930139 75.958214 -30.218752
-14.500572 73.472946 -28.846483
-13.448523 73.615318 -30.652956
-12.807647 71.415421 -31.171829
-12.18896 68.932205 -31.472622
-11.604223 66.272835 -31.636324
-11.222514 68.732826 -33.174057
-10.239335 68.154869 -34.791508
-4.271996 60.123302 -43.826889
-4.648946 57.182957 -43.947453
-3.378683 57.905243 -45.203762
-2.589557 55.694744 -46.480339
-1.910479 53.229469 -47.767208
2.789159 47.801216 -51.694054
2.102175 42.50272 -53.406445
-10.35761 78.054276 -35.581688
-26.568998 47.805862 2.498044
-26.07976 49.911335 1.412946
-25.160248 52.407192 2.220769
-25.614714 52.116344 0.219674
-25.167356 54.438286 -1.185157
-24.754911 56.647079 -2.59944
-24.318916 58.935711 -4.094621
-18.984482 76.753433 -19.848265
-18.622671 75.226868 -21.243061
-18.145788 73.387741 -22.273649
-17.650948 76.341919 -23.383801
-16.643517 77.278847 -25.406734
-15.545347 77.727608 -27.468924
-14.641724 80.258514 -28.730673
-14.280143 78.287498 -29.660641
-13.028385 78.348747 -31.703077
-11.715031 78.448624 -33.678337
1.471908 59.395813 -48.454041
5.230478 53.56218 -50.956295
-8.340112 57.303658 -37.264259
-7.889067 56.257618 -38.504299
-7.823612 58.561676 -38.395931
-7.122219 59.69416 -39.729752
-6.214765 60.828148 -41.171318
-7.097524 64.999397 -39.663189
-6.153462 63.539082 -41.067589
-5.188911 61.97543 -42.473549
-3.909804 62.949299 -43.817589
-2.426652 63.714867 -45.101532
-0.708805 64.583618 -46.301495
-27.371778 46.293793 -3.309386
-27.988533 43.794579 -4.000572
-28.605776 41.045723 -4.763103
-28.120365 39.946949 -6.130484
-27.433802 38.57399 -7.242309
-26.52244 36.968224 -8.113524
-25.290123 38.417347 -8.758816
-24.068827 46.636803 -9.333776
-23.726336 61.650562 -3.839346
-23.923439 60.927864 -5.711459
-23.461605 63.078388 -7.346342
-23.901878 59.953682 -7.447454
-23.57366 59.154572 -9.138976
-23.094467 57.933842 -10.441552
-22.394842 56.356327 -11.600611
-21.613262 61.524765 -13.474925
-21.623964 58.394073 -12.989436
-21.46876 55.108601 -12.66229
-20.400572 53.311069 -13.478413
-17.506281 71.493088 -23.115316
-16.764822 69.329475 -23.680523
-15.923971 67.337746 -24.243851
-14.860387 70.702179 -27.392378
-14.941196 67.892677 -26.115395
-10.960257 63.580563 -32.02412
-8.878113 57.885883 -35.881119
-7.511405 54.807365 -39.735538
-5.208245 54.556831 -43.938324
-5.809237 51.926022 -44.05735
0.7273 56.37286 -48.637569
-0.248578 53.390335 -48.823151
-1.244548 50.633373 -49.123318
1.148381 47.981361 -51.195103
-0.504276 48.137936 -50.495422
-2.16398 48.163864 -49.574581
-3.172145 46.031532 -50.03083
-4.209932 43.96579 -50.681431
-23.468584 58.67659 1.929434
-23.58305 57.512949 2.717942
-23.314999 59.92888 1.106201
-23.749721 58.573957 0.86845
-23.468584 58.67659 1.929434
-16.484306 82.189217 -23.589548
-17.069396 81.607193 -22.340237
-15.930662 82.627765 -24.735428
-16.52028 81.317188 -24.250649
-16.484306 82.189217 -23.589548
-4.690332 69.415543 -42.456446
-5.385466 68.766373 -41.775973
-5.342842 70.288376 -41.71587
-3.989554 68.45591 -43.167833
-4.690332 69.415543 -42.456446
-18.903844 57.963777 -16.324198
-19.324082 57.266934 -15.601173
-19.425235 58.8911 -15.997725
-18.491374 58.534073 -16.978899
-18.903844 57.963777 -16.324198
-12.54679 64.909209 -29.175016
-12.967788 64.763162 -28.298908
-12.908107 66.127575 -29.013339
-12.142983 64.950323 -30.047754
-12.54679 64.909209 -29.175016
3.027019 50.691164 -50.946624
2.702106 52.200096 -50.513529
3.566556 52.120764 -50.788282
-0.986663 42.502764 -53.062195
-0.375443 43.430277 -52.658462
-0.196365 42.22776 -53.378781
-1.724306 42.711033 -52.783468
-0.986663 42.502764 -53.062195
-7.288769 72.266762 -39.540829
-7.871916 71.468621 -38.818054
-7.931036 72.781982 -38.736415
-6.590651 71.748963 -40.317556
-7.288769 72.266762 -39.540829
-20.266575 74.397354 -16.522246
-20.282916 75.082481 -15.837598
-19.905938 75.832794 -16.910283
1.583843 40.241993 -54.319546
1.426191 41.571298 -53.807906
2.259826 41.173414 -53.918086
1.761243 38.921874 -54.948386
1.583843 40.241993 -54.319546
-9.650243 79.069535 -36.301218
-10.452765 79.283043 -35.276064
-26.036789 49.024673 3.054665
-26.253075 47.936569 3.64844
-25.720866 49.15538 4.205061
-13.975441 80.506615 -29.813771
-14.062098 81.60672 -29.278095
-13.395815 81.854821 -30.361192
-11.131476 79.480217 -34.324388
-11.819046 79.681004 -33.332985
-11.235491 80.712596 -33.979037
-10.452765 79.283043 -35.276064
-11.03632 78.25145 -34.630012
-11.131476 79.480217 -34.324388
5.816855 55.087559 -50.86121
4.780302 55.078711 -50.564188
-28.462746 43.555538 -1.814434
-28.383336 43.837078 -0.867344
-27.983052 44.83355 -1.327025
-28.454804 43.25486 -2.696197
-28.462746 43.555538 -1.814434
-24.660532 40.930775 -9.02559
-24.631801 42.542828 -9.025092
-23.117997 46.726452 -10.192664
-22.649205 47.433437 -10.591925
-23.547342 62.70376 -4.629933
-23.376027 63.064459 -3.677294
-23.197032 64.117656 -4.467881
-21.327545 72.336681 -12.506395
-20.998929 73.317631 -13.615177
-21.892125 70.442193 -10.370165
-22.207842 68.979069 -10.301134
-19.398604 52.890152 -14.370791
-19.013799 53.684496 -14.936724
-17.751193 60.035345 -18.440196
-17.863384 61.662298 -18.946877
-14.531878 66.647297 -26.259335
-14.487896 68.089214 -26.990052
-14.078577 66.843834 -27.133993
-14.965369 66.476887 -25.426201
-14.531878 66.647297 -26.259335
-10.110632 60.797332 -33.155964
-10.306599 62.053535 -33.007988
-9.965276 62.046302 -33.838329
-9.908314 59.63068 -33.403612
-10.110632 60.797332 -33.155964
-9.630845 59.501791 -34.135128
-9.908314 59.63068 -33.403612
-6.67758 53.60478 -41.835316
-6.930827 54.462 -41.112679
-6.473685 54.804241 -41.857826
-6.505384 52.701576 -42.588161
-6.67758 53.60478 -41.835316
-5.929632 49.748213 -44.924998
-6.152571 50.709948 -44.13526
-5.586298 50.964287 -44.847088
-5.765426 48.801354 -45.799799
-5.929632 49.748213 -44.924998
-5.454656 46.87397 -47.448901
-4.807006 46.977438 -48.077404
-4.022504 42.980234 -51.555601
-3.441854 43.913905 -51.170498
-3.254426 42.928348 -52.044668
-4.789538 42.955181 -51.104225
-4.022504 42.980234 -51.555601
-8.040676 74.136097 -38.624657
-7.931036 72.781982 -38.736415
-8.623824 73.337955 -37.901882
4.473856 41.63949 -53.59477
4.319954 43.224695 -53.209816
3.784876 40.52568 -54.016559
4.473856 41.63949 -53.59477
3.143436 39.433749 -54.453608
3.058917 40.936041 -53.992678
3.784876 40.52568 -54.016559
3.224622 38.001395 -54.999256
2.498663 38.411755 -54.975375
3.143436 39.433749 -54.453608
-25.174287 50.345985 4.721932
-25.720866 49.15538 4.205061
-25.390572 49.257881 5.315708
-23.739776 56.369591 3.371196
-23.856638 55.153542 4.178581
-24.060033 56.178308 2.344937
-23.739776 56.369591 3.371196
-23.58305 57.512949 2.717942
-17.618446 80.953484 -21.125982
-18.107937 80.317871 -19.959693
-17.622975 80.22493 -21.890515
-17.618446 80.953484 -21.125982
-17.069396 81.607193 -22.340237
-12.709999 81.938019 -31.449002
-13.395815 81.854821 -30.361192
-12.016951 82.017353 -32.494385
-12.61611 80.834049 -31.942251
-12.709999 81.938019 -31.449002
-11.215349 82.027916 -33.621659
-12.016951 82.017353 -32.494385
-11.235491 80.712596 -33.979037
-11.215349 82.027916 -33.621659
-3.348524 67.390087 -43.88553
-4.091926 66.827717 -43.234245
-3.989554 68.45591 -43.167833
-2.603693 67.915173 -44.460253
-2.706065 66.28698 -44.526665
-3.348524 67.390087 -43.88553
-27.451308 46.332666 -0.014778
-27.767722 45.228658 0.568729
-27.315388 46.446236 0.933886
-24.578694 44.132702 -8.928665
-24.631801 42.542828 -9.025092
-25.127369 43.29731 -8.552218
-22.180923 48.108938 -11.077651
-22.649205 47.433437 -10.591925
-22.680813 49.070574 -10.706644
-21.663273 48.850708 -11.560692
-22.180923 48.108938 -11.077651
-21.217713 49.779306 -12.097739
-21.663273 48.850708 -11.560692
-21.766972 50.674673 -11.729418
-20.747432 50.646583 -12.62084
-21.217713 49.779306 -12.097739
-23.026468 65.258236 -5.420843
-23.197032 64.117656 -4.467881
-22.450817 67.448387 -10.151769
-22.207842 68.979069 -10.301134
-22.179935 68.445591 -11.154492
-22.687756 66.000015 -10.115891
-22.715663 66.533493 -9.262533
-22.450817 67.448387 -10.151769
-19.172968 55.487385 -15.293001
-19.694359 56.414708 -14.966528
-19.324082 57.266934 -15.601173
-19.013799 53.684496 -14.936724
-19.172968 55.487385 -15.293001
-13.725832 65.691723 -27.270254
-14.078577 66.843834 -27.133993
-13.68185 67.13364 -28.000971
-13.340561 64.489739 -27.421289
-13.725832 65.691723 -27.270254
-13.340561 64.489739 -27.421289
-12.967788 64.763162 -28.298908
-4.151926 47.080511 -48.669849
-4.807006 46.977438 -48.077404
-4.314906 48.096577 -47.850785
-2.478324 42.789402 -52.442312
-1.919759 43.783649 -52.000721
-1.724306 42.711033 -52.783468
-3.254426 42.928348 -52.044668
-2.478324 42.789402 -52.442312
-5.994814 71.091865 -41.024022
-6.633813 70.296303 -40.328932
-6.590651 71.748963 -40.317556
-5.342842 70.288376 -41.71587
-5.994814 71.091865 -41.024022
-20.646369 74.241413 -14.684123
-20.282916 75.082481 -15.837598
-20.996113 72.723259 -14.380613
-20.998929 73.317631 -13.615177
-20.646369 74.241413 -14.684123
-17.967818 63.208963 -19.378073
-17.863384 61.662298 -18.946877
-18.374392 62.61317 -18.600704
-17.567943 63.882761 -20.22995
-17.967818 63.208963 -19.378073
-18.078951 64.833633 -19.883778
-17.157066 64.382673 -21.028281
-17.567943 63.882761 -20.22995
-16.715316 64.765467 -21.862038
-17.157066 64.382673 -21.028281
-17.237327 65.890224 -21.569412
-16.324018 65.326229 -22.711189
-16.715316 64.765467 -21.862038
3.6419 47.713037 -51.868834
3.340314 49.206524 -51.457716
3.056355 46.336703 -52.178746
3.6419 47.713037 -51.868834
2.496336 45.065491 -52.488214
2.229141 46.530004 -52.003523
3.056355 46.336703 -52.178746
3.511953 43.450081 -53.109533
4.319954 43.224695 -53.209816
2.712862 43.687455 -53.034941
3.511953 43.450081 -53.109533
2.901266 42.265346 -53.481037
1.885649 43.880756 -52.859718
2.496336 45.065491 -52.488214
2.712862 43.687455 -53.034941
0.582531 41.897575 -53.592207
1.258515 42.828997 -53.190747
1.426191 41.571298 -53.807906
-0.196365 42.22776 -53.378781
0.582531 41.897575 -53.592207
1.761243 38.921874 -54.948386
2.498663 38.411755 -54.975375
-9.590564 77.721683 -36.565134
-9.440601 76.444988 -36.809282
-10.207647 76.77758 -35.825836
-9.590564 77.721683 -36.565134
-9.650243 79.069535 -36.301218
-26.849637 46.699079 3.079343
-26.253075 47.936569 3.64844
-27.1004 46.574045 2.007719
-26.849637 46.699079 3.079343
-26.783986 47.678052 1.424211
-27.315388 46.446236 0.933886
-27.1004 46.574045 2.007719
-25.012886 51.503866 3.990322
-25.174287 50.345985 4.721932
-24.368975 53.899599 3.683775
-23.856638 55.153542 4.178581
-24.840719 52.58572 3.295064
-24.368975 53.899599 3.683775
-24.688503 53.721071 2.60948
-25.332414 51.325338 2.916027
-25.012886 51.503866 3.990322
-24.840719 52.58572 3.295064
-19.492408 76.648522 -18.002663
-19.905938 75.832794 -16.910283
-18.633623 78.860298 -19.543328
-18.107937 80.317871 -19.959693
-19.039851 77.451404 -19.12933
-18.633623 78.860298 -19.543328
-18.578254 78.162327 -20.262262
-19.437039 75.95055 -18.721598
-19.492408 76.648522 -18.002663
-19.039851 77.451404 -19.12933
-15.335093 83.027031 -25.922956
-15.930662 82.627765 -24.735428
-15.366967 82.08638 -26.529772
-15.335093 83.027031 -25.922956
-15.291419 81.153496 -27.121247
-15.891088 80.822853 -25.988003
-15.366967 82.08638 -26.529772
-14.704511 81.337769 -28.196844
-14.062098 81.60672 -29.278095
-15.228632 80.074241 -27.655076
-15.291419 81.153496 -27.121247
-14.704511 81.337769 -28.196844
1.907709 60.938885 -48.431582
0.950066 60.737432 -47.932446
1.385867 62.280504 -47.909987
2.434971 59.505205 -48.892786
1.907709 60.938885 -48.431582
2.902844 58.098968 -49.381171
1.939781 57.989576 -48.942425
2.434971 59.505205 -48.892786
3.36889 56.589291 -49.801445
2.902844 58.098968 -49.381171
3.785884 55.112469 -50.263633
2.824648 55.106518 -49.892998
3.36889 56.589291 -49.801445
4.23606 53.595938 -50.655741
3.785884 55.112469 -50.263633
4.780302 55.078711 -50.564188
4.560974 52.087006 -51.088836
3.566556 52.120764 -50.788282
4.23606 53.595938 -50.655741
6.146911 53.322828 -51.18256
5.816855 55.087559 -50.86121
5.474208 51.906101 -51.308998
6.146911 53.322828 -51.18256
6.390642 51.66675 -51.535263
4.560974 52.087006 -51.088836
5.474208 51.906101 -51.308998
-8.114589 56.780638 -37.884279
-8.103388 55.865486 -38.019806
-8.328911 56.388506 -37.399786
-8.778491 76.040581 -37.669352
-9.395574 75.096477 -36.930053
-9.440601 76.444988 -36.809282
-8.038937 75.581852 -38.534593
-8.778491 76.040581 -37.669352
-8.040676 74.136097 -38.624657
-8.038937 75.581852 -38.534593
-1.706226 68.402657 -45.103026
-2.603693 67.915173 -44.460253
-1.017828 67.295635 -45.701962
-1.706226 68.402657 -45.103026
-0.391614 66.181411 -46.302016
-1.33502 65.697842 -45.701441
-1.017828 67.295635 -45.701962
0.25628 64.840111 -46.870013
-0.391614 66.181411 -46.302016
0.824794 63.587828 -47.42469
-0.140291 63.331335 -46.856173
0.25628 64.840111 -46.870013
1.385867 62.280504 -47.909987
0.824794 63.587828 -47.42469
-28.27407 44.074865 0.07733
-27.767722 45.228658 0.568729
-28.27407 44.074865 0.07733
-28.383336 43.837078 -0.867344
-28.417839 42.876144 -3.559425
-28.454804 43.25486 -2.696197
-28.025498 44.173294 -3.137344
-28.726461 41.501717 -3.940691
-28.417839 42.876144 -3.559425
-28.297154 42.420151 -4.381837
-29.082778 40.160455 -4.404676
-29.203463 40.616449 -3.582264
-28.726461 41.501717 -3.940691
-28.887354 39.603994 -5.128283
-29.082778 40.160455 -4.404676
-28.644649 39.054608 -5.811974
-28.887354 39.603994 -5.128283
-28.36307 40.496336 -5.446794
-28.352847 38.487102 -6.349859
-28.644649 39.054608 -5.811974
-28.009566 37.800623 -6.905772
-28.352847 38.487102 -6.349859
-27.777083 39.260469 -6.686396
-27.56669 37.10981 -7.377521
-28.009566 37.800623 -6.905772
-27.11101 36.306927 -7.813128
-27.56669 37.10981 -7.377521
-26.978121 37.771107 -7.677917
-26.556381 35.421658 -8.181897
-27.11101 36.306927 -7.813128
-25.917303 36.179789 -8.465131
-26.556381 35.421658 -8.181897
-25.301144 36.90435 -8.787777
-25.917303 36.179789 -8.465131
-25.906281 37.692785 -8.43617
-24.650413 37.567881 -9.094368
-25.301144 36.90435 -8.787777
-24.715356 39.28573 -9.080675
-25.235299 40.062392 -8.703731
-24.660532 40.930775 -9.02559
-24.075646 38.436264 -9.416227
-24.650413 37.567881 -9.094368
-24.715356 39.28573 -9.080675
-24.075976 45.007511 -9.367657
-24.578694 44.132702 -8.928665
-24.571545 45.761994 -8.894783
-23.577863 45.847317 -9.749094
-23.608961 47.515938 -9.777347
-23.117997 46.726452 -10.192664
-24.075976 45.007511 -9.367657
-23.577863 45.847317 -9.749094
-23.176345 61.139539 0.309495
-23.314999 59.92888 1.106201
-22.895208 61.242172 1.37048
-23.469051 60.980467 -0.865424
-23.176345 61.139539 0.309495
-23.710506 60.735152 -1.922781
-23.83759 59.580933 -1.01214
-23.469051 60.980467 -0.865424
-23.534152 61.892624 -2.807705
-23.376027 63.064459 -3.677294
-23.90269 60.493089 -2.954422
-23.710506 60.735152 -1.922781
-23.534152 61.892624 -2.807705
-21.621688 71.42508 -11.502491
-21.327545 72.336681 -12.506395
-21.642817 70.887875 -12.307762
-21.621688 71.42508 -11.502491
-21.892125 70.442193 -10.370165
-23.15325 64.875511 -6.36866
-23.026468 65.258236 -5.420843
-22.945378 65.539592 -8.271727
-22.715663 66.533493 -9.262533
-23.19988 64.536226 -7.33157
-22.945378 65.539592 -8.271727
-23.207103 64.081755 -8.286499
-23.414976 63.417673 -6.383432
-23.15325 64.875511 -6.36866
-23.19988 64.536226 -7.33157
-20.287012 51.500483 -13.226814
-20.747432 50.646583 -12.62084
-20.860992 52.45717 -12.872439
-19.827267 52.228107 -13.780819
-19.971908 53.973114 -14.068385
-19.398604 52.890152 -14.370791
-19.713707 50.41752 -13.529221
-20.287012 51.500483 -13.226814
-19.827267 52.228107 -13.780819
-18.123855 59.273353 -17.703277
-18.491374 58.534073 -16.978899
-18.637477 60.327224 -17.44513
-18.123855 59.273353 -17.703277
-17.751193 60.035345 -18.440196
-15.888216 65.858593 -23.63153
-16.324018 65.326229 -22.711189
-16.359773 66.805382 -23.32351
-15.456756 66.199421 -24.490429
-15.432583 67.615212 -25.179623
-14.965369 66.476887 -25.426201
-15.888216 65.858593 -23.63153
-15.456756 66.199421 -24.490429
-11.701539 64.94993 -30.921193
-12.142983 64.950323 -30.047754
-12.045666 66.273228 -30.762885
-11.379556 63.603794 -31.115091
-11.701539 64.94993 -30.921193
-11.28224 64.926699 -31.830222
-11.068357 62.337576 -31.337169
-11.379556 63.603794 -31.115091
-10.706106 62.192564 -32.174872
-10.56075 63.441534 -32.857236
-10.306599 62.053535 -33.007988
-11.068357 62.337576 -31.337169
-10.706106 62.192564 -32.174872
-9.293553 59.225483 -34.898125
-9.630845 59.501791 -34.135128
-9.432016 60.513792 -34.749302
-9.185247 58.049683 -35.082535
-9.293553 59.225483 -34.898125
-8.986419 59.061684 -35.696709
-9.06259 56.943745 -35.386106
-9.185247 58.049683 -35.082535
-8.806652 56.81361 -36.117409
-9.06259 56.943745 -35.386106
-8.537651 56.522498 -36.808979
-8.806652 56.81361 -36.117409
-8.609113 57.59477 -36.572689
-8.328911 56.388506 -37.399786
-8.537651 56.522498 -36.808979
-7.987163 55.226309 -38.49345
-8.103388 55.865486 -38.019806
-7.798332 54.501182 -39.10907
-7.987163 55.226309 -38.49345
-7.700236 55.532491 -39.119918
-7.699218 53.632337 -39.695438
-7.986146 53.326155 -39.06897
-7.798332 54.501182 -39.10907
-7.323064 54.034952 -40.412853
-7.119168 55.234413 -40.435363
-6.930827 54.462 -41.112679
-7.699218 53.632337 -39.695438
-7.323064 54.034952 -40.412853
-6.299785 51.691077 -43.326605
-6.505384 52.701576 -42.588161
-6.014837 52.936521 -43.318906
-6.299785 51.691077 -43.326605
-6.152571 50.709948 -44.13526
-5.568739 47.79683 -46.610556
-5.765426 48.801354 -45.799799
-5.166672 48.998028 -46.447582
-5.568739 47.79683 -46.610556
-5.454656 46.87397 -47.448901
2.475864 49.285856 -51.182963
3.027019 50.691164 -50.946624
3.340314 49.206524 -51.457716
-3.908086 45.996452 -49.46365
-4.151926 47.080511 -48.669849
-3.415985 47.115591 -49.23703
-4.426979 44.963581 -49.78895
-3.908086 45.996452 -49.46365
-3.691039 44.998661 -50.356131
-4.887398 43.940413 -50.126128
-5.104446 44.938204 -49.233647
-4.426979 44.963581 -49.78895
-4.887398 43.940413 -50.126128
-4.789538 42.955181 -51.104225
3 0 64 62
3 2 67 65
3 2 69 67
3 3 72 70
3 3 74 72
3 3 76 74
3 0 79 77
3 0 62 79
3 1 83 81
3 258 86 259
3 260 88 261
3 262 261 86
3 260 261 262
3 263 90 264
3 265 92 266
3 267 266 90
3 265 266 267
3 6 96 94
3 268 99 269
3 270 269 97
3 268 269 270
3 272 271 99
3 4 103 101
3 8 106 104
3 8 108 106
3 8 110 108
3 9 113 111
3 9 114 113
3 10 117 115
3 10 119 117
3 10 121 119
3 11 124 122
3 11 273 275
3 275 274 124
3 273 274 275
3 11 276 277
3 5 128 126
3 12 131 129
3 12 278 280
3 280 279 131
3 278 279 280
3 12 281 282
3 6 134 132
3 6 94 134
3 7 138 136
3 13 141 139
3 13 143 141
3 283 146 284
3 285 284 144
3 283 284 285
3 286 149 287
3 288 287 147
3 286 287 288
3 290 289 149
3 14 153 151
3 291 154 292
3 293 292 63
3 291 292 293
3 295 294 154
3 16 157 155
3 18 158 66
3 18 159 158
3 18 161 159
3 20 162 68
3 20 163 162
3 21 296 298
3 296 164 297
3 296 297 298
3 23 165 71
3 23 166 165
3 23 168 166
3 25 169 73
3 25 170 169
3 25 172 170
3 26 173 75
3 26 174 173
3 27 177 175
3 29 178 78
3 29 179 178
3 29 181 179
3 14 182 80
3 14 151 182
3 31 185 183
3 33 186 82
3 33 187 186
3 35 189 84
3 35 299 301
3 301 300 189
3 299 300 301
3 35 302 303
3 305 304 190
3 36 306 308
3 306 191 307
3 306 307 308
3 36 192 191
3 37 193 85
3 37 194 193
3 37 195 194
3 38 196 87
3 38 197 196
3 39 198 89
3 39 199 198
3 39 201 199
3 41 202 91
3 41 203 202
3 42 309 311
3 309 204 310
3 309 310 311
3 42 205 204
3 42 206 205
3 312 207 313
3 314 313 93
3 312 313 314
3 315 190 316
3 317 316 207
3 315 316 317
3 318 209 319
3 44 212 210
3 46 213 95
3 46 214 213
3 15 215 152
3 47 216 98
3 47 217 216
3 47 218 217
3 48 219 100
3 48 220 219
3 49 320 322
3 322 321 102
3 320 321 322
3 49 323 324
3 17 221 156
3 50 222 105
3 50 223 222
3 50 224 223
3 51 225 107
3 51 226 225
3 51 227 226
3 326 325 109
3 19 228 160
3 328 327 112
3 52 329 331
3 329 229 330
3 329 330 331
3 52 230 229
3 22 332 333
3 335 334 116
3 53 231 118
3 53 232 231
3 53 233 232
3 54 234 120
3 54 235 234
3 24 236 167
3 55 237 123
3 55 238 237
3 55 239 238
3 337 336 125
3 339 338 171
3 40 240 200
3 56 241 127
3 56 242 241
3 28 243 176
3 340 244 341
3 342 341 130
3 340 341 342
3 344 343 244
3 30 245 180
3 57 345 347
3 347 346 133
3 345 346 347
3 57 348 349
3 57 350 351
3 44 246 135
3 44 210 246
3 45 247 211
3 58 352 354
3 354 353 137
3 352 353 354
3 58 355 356
3 32 248 184
3 59 249 140
3 59 357 359
3 359 358 249
3 357 358 359
3 59 360 361
3 363 362 142
3 43 250 208
3 60 251 145
3 60 252 251
3 34 253 188
3 61 254 148
3 61 255 254
3 61 256 255
3 364 257 365
3 366 365 150
3 364 365 366
3 368 367 257
3 62 63 14
3 64 63 62
3 64 369 371
3 371 370 63
3 369 370 371
3 65 66 16
3 67 66 65
3 67 18 66
3 67 68 18
3 69 68 67
3 69 20 68
3 70 71 21
3 72 71 70
3 72 23 71
3 72 73 23
3 74 73 72
3 74 25 73
3 74 75 25
3 76 75 74
3 76 26 75
3 77 78 27
3 79 78 77
3 79 29 78
3 79 80 29
3 62 80 79
3 62 14 80
3 81 82 31
3 83 82 81
3 83 33 82
3 372 84 373
3 374 84 375
3 376 35 377
3 378 377 84
3 376 377 378
3 381 380 35
3 379 380 381
3 382 36 383
3 382 383 384
3 385 85 386
3 86 387 389
3 387 85 388
3 387 388 389
3 86 37 85
3 86 87 37
3 88 87 86
3 88 38 87
3 390 89 391
3 90 392 394
3 392 89 393
3 392 393 394
3 90 39 89
3 90 91 39
3 92 91 90
3 92 41 91
3 395 42 396
3 397 93 398
3 399 398 42
3 397 398 399
3 400 93 401
3 403 402 93
3 94 95 44
3 96 95 94
3 96 46 95
3 97 98 15
3 99 98 97
3 99 47 98
3 99 100 47
3 404 100 405
3 406 405 99
3 404 405 406
3 407 48 408
3 409 408 100
3 407 408 409
3 101 410 412
3 410 102 411
3 410 411 412
3 103 102 101
3 103 49 102
3 104 105 17
3 106 105 104
3 106 50 105
3 106 107 50
3 108 107 106
3 108 51 107
3 108 109 51
3 110 109 108
3 110 413 415
3 415 414 109
3 413 414 415
3 111 112 19
3 113 112 111
3 113 416 418
3 418 417 112
3 416 417 418
3 113 419 420
3 114 421 423
3 423 422 113
3 421 422 423
3 114 424 425
3 426 52 427
3 115 116 22
3 117 116 115
3 117 428 430
3 430 429 116
3 428 429 430
3 117 431 433
3 431 118 432
3 431 432 433
3 119 118 117
3 119 53 118
3 119 120 53
3 121 120 119
3 121 54 120
3 122 123 24
3 124 123 122
3 124 55 123
3 124 125 55
3 434 125 435
3 436 435 124
3 434 435 436
3 438 437 125
3 126 127 40
3 128 127 126
3 128 56 127
3 129 130 28
3 131 130 129
3 131 439 441
3 441 440 130
3 439 440 441
3 131 442 443
3 445 444 131
3 132 133 30
3 134 133 132
3 134 57 133
3 134 135 57
3 94 135 134
3 94 44 135
3 136 137 45
3 138 137 136
3 138 58 137
3 139 140 32
3 141 140 139
3 141 59 140
3 141 142 59
3 143 142 141
3 143 446 448
3 448 447 142
3 446 447 448
3 144 145 43
3 146 145 144
3 146 60 145
3 147 148 34
3 149 148 147
3 149 61 148
3 149 150 61
3 449 150 450
3 451 450 149
3 449 450 451
3 453 452 150
3 151 152 6
3 153 152 151
3 153 15 152
3 63 153 14
3 154 153 63
3 154 15 153
3 154 97 15
3 454 97 455
3 456 455 154
3 454 455 456
3 458 457 97
3 155 156 4
3 157 156 155
3 157 17 156
3 66 157 16
3 158 157 66
3 158 17 157
3 158 104 17
3 159 104 158
3 159 8 104
3 159 160 8
3 161 160 159
3 161 19 160
3 68 161 18
3 162 161 68
3 162 19 161
3 162 111 19
3 163 111 162
3 163 9 111
3 164 459 460
3 164 461 463
3 461 22 462
3 461 462 463
3 71 164 21
3 165 164 71
3 165 22 164
3 165 115 22
3 166 115 165
3 166 10 115
3 166 167 10
3 168 167 166
3 168 24 167
3 73 168 23
3 169 168 73
3 169 24 168
3 169 122 24
3 170 122 169
3 170 11 122
3 170 171 11
3 172 171 170
3 172 464 466
3 466 465 171
3 464 465 466
3 75 172 25
3 173 172 75
3 173 467 469
3 469 468 172
3 467 468 469
3 173 470 471
3 174 472 474
3 474 473 173
3 472 473 474
3 174 475 476
3 175 176 5
3 177 176 175
3 177 28 176
3 78 177 27
3 178 177 78
3 178 28 177
3 178 129 28
3 179 129 178
3 179 12 129
3 179 180 12
3 181 180 179
3 181 30 180
3 80 181 29
3 182 181 80
3 182 30 181
3 182 132 30
3 151 132 182
3 151 6 132
3 183 184 7
3 185 184 183
3 185 32 184
3 82 185 31
3 186 185 82
3 186 32 185
3 186 139 32
3 187 139 186
3 187 13 139
3 477 188 478
3 479 188 480
3 481 34 482
3 483 482 188
3 481 482 483
3 84 484 485
3 189 486 488
3 488 487 84
3 486 487 488
3 189 489 491
3 489 34 490
3 489 490 491
3 189 147 34
3 492 147 493
3 494 493 189
3 492 493 494
3 496 495 147
3 498 497 35
3 190 499 501
3 501 500 0
3 499 500 501
3 503 502 190
3 191 504 505
3 191 506 507
3 191 508 510
3 508 101 509
3 508 509 510
3 192 101 191
3 192 4 101
3 511 36 512
3 85 513 514
3 193 515 517
3 517 516 85
3 515 516 517
3 193 518 520
3 518 36 519
3 518 519 520
3 193 192 36
3 194 192 193
3 194 4 192
3 194 155 4
3 195 155 194
3 195 16 155
3 87 195 37
3 196 195 87
3 196 16 195
3 196 65 16
3 197 65 196
3 197 2 65
3 521 21 522
3 89 523 524
3 198 525 527
3 527 526 89
3 525 526 527
3 198 528 530
3 528 21 529
3 528 529 530
3 198 70 21
3 199 70 198
3 199 3 70
3 199 200 3
3 201 200 199
3 201 40 200
3 91 201 39
3 202 201 91
3 202 40 201
3 202 126 40
3 203 126 202
3 203 5 126
3 531 92 532
3 533 92 534
3 535 41 536
3 537 536 92
3 535 536 537
3 204 538 539
3 204 540 542
3 540 41 541
3 540 541 542
3 204 203 41
3 205 203 204
3 205 5 203
3 205 175 5
3 206 175 205
3 206 27 175
3 93 206 42
3 207 206 93
3 207 27 206
3 207 77 27
3 190 77 207
3 190 0 77
3 543 208 544
3 545 544 1
3 543 544 545
3 546 208 547
3 548 43 549
3 550 549 208
3 548 549 550
3 551 43 552
3 553 144 554
3 555 554 43
3 553 554 555
3 209 556 558
3 556 144 557
3 556 557 558
3 209 559 561
3 561 560 144
3 559 560 561
3 562 209 563
3 564 209 565
3 564 565 566
3 568 567 209
3 210 569 571
3 569 211 570
3 569 570 571
3 212 211 210
3 212 45 211
3 95 212 44
3 213 212 95
3 213 45 212
3 213 136 45
3 214 136 213
3 214 7 136
3 152 96 6
3 215 96 152
3 215 46 96
3 98 215 15
3 216 215 98
3 216 46 215
3 216 214 46
3 217 214 216
3 217 7 214
3 217 183 7
3 218 183 217
3 218 31 183
3 100 218 47
3 219 218 100
3 219 31 218
3 219 81 31
3 220 81 219
3 220 1 81
3 572 64 573
3 574 573 0
3 572 573 574
3 575 64 576
3 578 577 64
3 579 48 580
3 581 48 582
3 583 220 584
3 585 584 48
3 583 584 585
3 586 220 587
3 588 1 589
3 590 589 220
3 588 589 590
3 592 591 1
3 102 593 594
3 596 595 102
3 156 103 4
3 221 103 156
3 221 49 103
3 105 221 17
3 222 221 105
3 222 49 221
3 222 597 599
3 599 598 49
3 597 598 599
3 223 600 602
3 602 601 222
3 600 601 602
3 223 603 605
3 603 604 605
3 223 606 607
3 224 608 610
3 610 609 223
3 608 609 610
3 224 611 612
3 107 224 50
3 225 224 107
3 225 613 615
3 615 614 224
3 613 614 615
3 225 616 617
3 226 618 620
3 620 619 225
3 618 619 620
3 226 621 622
3 226 623 624
3 227 625 627
3 627 626 226
3 625 626 627
3 227 628 629
3 109 227 51
3 630 227 631
3 632 631 109
3 630 631 632
3 635 634 227
3 633 634 635
3 160 110 8
3 228 110 160
3 228 636 638
3 638 637 110
3 636 637 638
3 112 228 19
3 639 228 640
3 641 640 112
3 639 640 641
3 643 642 228
3 644 88 645
3 644 645 646
3 647 88 648
3 649 38 650
3 651 650 88
3 649 650 651
3 229 652 653
3 229 654 656
3 654 38 655
3 654 655 656
3 229 197 38
3 230 197 229
3 230 2 197
3 116 657 659
3 659 658 22
3 657 658 659
3 661 660 116
3 662 52 663
3 118 664 665
3 231 666 668
3 668 667 118
3 666 667 668
3 231 669 671
3 669 52 670
3 669 670 671
3 231 230 52
3 232 230 231
3 232 2 230
3 232 69 2
3 233 69 232
3 233 20 69
3 120 233 53
3 234 233 120
3 234 20 233
3 234 163 20
3 235 163 234
3 235 9 163
3 167 121 10
3 236 121 167
3 236 54 121
3 123 236 24
3 237 236 123
3 237 54 236
3 237 235 54
3 238 235 237
3 238 9 235
3 238 114 9
3 239 114 238
3 239 672 674
3 674 673 114
3 672 673 674
3 125 239 55
3 675 239 676
3 677 676 125
3 675 676 677
3 680 679 239
3 678 679 680
3 171 681 683
3 683 682 11
3 681 682 683
3 685 684 171
3 200 76 3
3 240 76 200
3 240 26 76
3 127 240 40
3 241 240 127
3 241 26 240
3 241 174 26
3 242 174 241
3 242 686 688
3 688 687 174
3 686 687 688
3 176 128 5
3 243 128 176
3 243 56 128
3 130 243 28
3 244 243 130
3 244 56 243
3 244 242 56
3 689 242 690
3 691 690 244
3 689 690 691
3 693 692 242
3 180 694 696
3 696 695 12
3 694 695 696
3 245 697 699
3 699 698 180
3 697 698 699
3 245 700 701
3 133 245 30
3 702 245 703
3 704 703 133
3 702 703 704
3 706 705 245
3 135 707 709
3 709 708 57
3 707 708 709
3 246 710 712
3 712 711 135
3 710 711 712
3 246 713 714
3 246 715 716
3 210 717 719
3 719 718 246
3 717 718 719
3 210 720 721
3 211 722 723
3 247 724 726
3 726 725 211
3 724 725 726
3 247 727 729
3 727 728 729
3 137 247 45
3 730 247 731
3 732 731 137
3 730 731 732
3 734 733 247
3 184 138 7
3 248 138 184
3 248 58 138
3 140 248 32
3 249 248 140
3 249 58 248
3 249 735 737
3 737 736 58
3 735 736 737
3 739 738 249
3 142 740 742
3 742 741 59
3 740 741 742
3 744 743 142
3 208 83 1
3 250 83 208
3 250 33 83
3 145 250 43
3 251 250 145
3 251 33 250
3 251 187 33
3 252 187 251
3 252 13 187
3 188 745 747
3 745 146 746
3 745 746 747
3 253 146 188
3 253 60 146
3 148 253 34
3 254 253 148
3 254 60 253
3 254 252 60
3 255 252 254
3 255 13 252
3 255 143 13
3 256 143 255
3 256 748 750
3 750 749 143
3 748 749 750
3 150 256 61
3 257 256 150
3 257 751 753
3 753 752 256
3 751 752 753
3 257 754 756
3 754 755 756
3 758 757 257
