ply
format ascii 1.0
element vertex 84
property float x
property float y
property float z
element face 62
property list uchar int vertex_index
end_header
31.486425 -58.970665 -27.654343
30.914145 -59.605049 -32.101913
29.669582 -62.488285 -30.12262
29.211119 -62.755955 -32.295559
32.556084 -55.923359 -24.979122
32.703835 -56.079403 -27.243996
32.717377 -56.196228 -29.55125
31.237741 -59.410698 -29.917873
28.490009 -63.139786 -34.360302
30.408901 -59.820995 -34.103825
28.260915 -64.363928 -32.469195
28.572333 -64.162039 -31.452368
31.949022 -57.171251 -24.024392
32.447411 -55.76691 -23.834536
32.09513 -57.525034 -27.449169
32.087988 -57.402874 -26.312134
31.479283 -58.848505 -26.517308
31.689813 -58.051904 -31.943488
31.851611 -57.954729 -30.851468
31.075943 -59.507874 -31.009893
29.129286 -61.497648 -35.253096
28.131888 -63.136578 -35.358036
30.088732 -59.838253 -35.124857
29.449455 -61.48039 -34.232063
29.129286 -61.497648 -35.253096
30.788362 -60.400318 -26.668337
31.479283 -58.848505 -26.517308
28.801564 -64.028204 -30.365899
29.025418 -63.824663 -29.294672
29.440351 -62.62212 -31.209089
28.801564 -64.028204 -30.365899
28.572333 -64.162039 -31.452368
33.024891 -54.518724 -24.817944
32.916218 -54.362276 -23.673358
32.447411 -55.76691 -23.834536
33.104336 -54.687675 -25.884181
33.573143 -53.283041 -25.723003
33.024891 -54.518724 -24.817944
32.014112 -57.324852 -25.179697
31.949022 -57.171251 -24.024392
32.629959 -56.001381 -26.111559
32.014112 -57.324852 -25.179697
32.087988 -57.402874 -26.312134
33.178212 -54.765698 -27.016618
33.104336 -54.687675 -25.884181
32.629959 -56.001381 -26.111559
33.289485 -54.686846 -28.19082
33.178212 -54.765698 -27.016618
33.296256 -54.745258 -29.344447
33.289485 -54.686846 -28.19082
32.710606 -56.137816 -28.397623
33.266062 -54.820894 -30.420528
33.296256 -54.745258 -29.344447
30.725307 -60.565815 -27.809674
30.788362 -60.400318 -26.668337
29.816886 -62.324625 -29.043813
29.025418 -63.824663 -29.294672
30.600966 -60.785832 -28.94144
29.816886 -62.324625 -29.043813
30.453661 -60.949491 -30.020246
31.362083 -59.190681 -28.786108
30.725307 -60.565815 -27.809674
30.600966 -60.785832 -28.94144
32.591429 -56.347494 -30.668157
31.977559 -57.803463 -29.734561
31.851611 -57.954729 -30.851468
33.266062 -54.820894 -30.420528
32.591429 -56.347494 -30.668157
27.501165 -64.721657 -34.51157
28.131888 -63.136578 -35.358036
27.90036 -64.555844 -33.501566
27.501165 -64.721657 -34.51157
28.850564 -62.947871 -33.32793
28.260915 -64.363928 -32.469195
27.90036 -64.555844 -33.501566
30.972116 -58.277073 -35.015517
30.088732 -59.838253 -35.124857
31.295313 -58.135691 -34.002983
30.972116 -58.277073 -35.015517
31.547935 -58.027718 -33.002027
30.661523 -59.713022 -33.102869
31.295313 -58.135691 -34.002983
31.689813 -58.051904 -31.943488
31.547935 -58.027718 -33.002027
3 10 3 11
3 12 4 13
3 0 14 16
3 14 5 15
3 14 15 16
3 0 6 5
3 1 7 2
3 1 17 19
3 19 18 7
3 17 18 19
3 20 8 21
3 22 9 23
3 24 23 8
3 22 23 24
3 25 0 26
3 27 2 28
3 3 29 31
3 29 2 30
3 29 30 31
3 3 1 2
3 4 32 34
3 32 33 34
3 4 35 37
3 35 36 37
3 38 4 39
3 5 40 42
3 40 4 41
3 40 41 42
3 5 43 45
3 45 44 4
3 43 44 45
3 5 46 47
3 6 48 50
3 50 49 5
3 48 49 50
3 6 51 52
3 53 0 54
3 2 55 56
3 7 57 59
3 59 58 2
3 57 58 59
3 7 60 62
3 60 0 61
3 60 61 62
3 7 6 0
3 63 6 64
3 65 64 7
3 63 64 65
3 67 66 6
3 8 68 69
3 8 70 71
3 8 72 74
3 72 3 73
3 72 73 74
3 9 3 8
3 9 1 3
3 75 9 76
3 77 9 78
3 79 1 80
3 81 80 9
3 79 80 81
3 83 82 1
