ply
format ascii 1.0
element vertex 1094
property float x
property float y
property float z
element face 1053
property list uchar int vertex_index
end_header
-1.929541 45.242123 45.438396
-8.736671 93.161316 -27.075119
-17.404055 80.443306 -5.76663
-28.936014 41.314075 3.626086
-9.640119 38.556789 43.594139
-7.790776 50.973724 38.508099
-10.481638 85.392593 -33.229332
-3.703894 82.724983 -41.263294
-14.229426 88.202614 -16.397032
-19.792305 77.683273 -14.415194
-15.894688 83.499794 -24.074327
-5.166464 97.577583 -17.938803
-15.000102 69.898941 13.396518
-18.926823 70.604568 3.840284
-18.378927 47.556782 27.370935
-16.412539 58.567551 21.310192
-21.89492 69.595612 -5.315943
-5.926403 41.623585 44.707417
-8.669576 44.878292 41.224606
-4.920356 48.371723 42.02282
-1.168199 51.781273 42.624737
1.899612 48.904453 45.998989
-9.898586 89.508171 -30.724237
-6.402965 89.594193 -35.379047
-5.412499 93.887039 -32.055031
-11.625905 91.296135 -21.892733
-15.447488 86.149582 -20.582376
-12.888869 88.368561 -25.769384
-13.47189 84.828743 -28.69005
-22.366194 44.364166 20.420612
-17.230291 53.083824 24.679205
-14.596293 57.398819 25.856632
-13.648379 63.21854 22.259985
-29.697054 40.595901 -0.44292
-18.380177 75.601257 -0.814751
-20.668051 70.224541 -0.83631
-19.976002 75.00563 -5.379596
-9.349186 59.78133 31.124268
-6.718515 57.508762 35.275307
0.772231 65.689148 35.380978
4.8117 69.820679 35.215446
-10.54792 80.51181 -34.97044
-7.383429 79.283424 -38.865128
-7.174828 84.725716 -37.473694
-2.726098 88.356682 -39.56776
-26.452698 45.914391 5.859587
-27.631802 45.342228 1.517394
-16.042833 84.701599 -11.064426
-18.947313 79.363457 -10.289655
-17.477592 83.075348 -15.45489
-18.043848 81.064522 -19.243126
-7.272789 95.689697 -22.750813
-1.883642 99.942245 -23.337965
-17.574995 64.880112 12.762913
-19.37941 65.467125 7.841538
-17.036226 70.457016 8.570286
-16.426048 75.67144 4.099341
-15.516346 80.815224 -0.942544
-12.406383 89.59362 -11.75801
-10.015993 93.122688 -17.214546
-27.73843 41.407642 8.072361
-25.11393 45.642551 10.668223
-19.465733 42.030052 29.861626
-20.934267 43.386276 25.314398
-19.818083 48.673485 22.842939
-15.737265 64.269371 17.362207
-21.134003 65.403389 3.053472
-22.513515 64.84481 -1.261748
-21.057508 73.776772 -9.677334
-22.478725 67.981865 -9.298411
-3.884628 43.420078 45.125164
-5.308304 44.920055 43.523788
-3.531424 46.817989 43.703037
-3.063158 50.137714 42.29425
-1.55773 48.465431 44.094528
0.408483 50.525097 44.266365
0.069624 47.078587 45.763798
-9.512152 91.356277 -28.906168
-7.774937 91.817268 -31.359959
-7.143313 93.667824 -29.568913
-10.221039 92.374077 -24.534462
-12.314219 89.958305 -23.974653
-10.992281 90.791183 -26.385466
-11.364575 89.269501 -28.195992
-23.644421 42.347988 19.100946
-22.976398 41.791706 21.58036
-14.986986 54.509731 27.702885
-13.559896 56.759003 28.08864
-13.125687 59.6394 26.30545
-12.032877 58.844448 28.563545
-0.215423 69.762032 31.569969
-30.199381 39.050781 2.443402
-30.44828 38.906101 0.384937
-29.352171 41.14138 1.548129
-17.989077 78.022072 -3.317284
-19.238352 75.366272 -3.165451
-18.726467 77.9496 -5.747951
-11.075046 39.948502 41.81665
-8.254289 47.978268 39.866787
-9.906941 46.265175 39.488983
-9.611558 49.368752 37.948372
-8.485525 55.67049 34.945385
-7.200222 54.300827 36.953079
-10.507637 83.142448 -34.255684
-8.98012 82.595497 -36.327492
-8.749706 85.267235 -35.498844
-4.080266 91.517609 -36.20298
-4.651441 89.119644 -37.483986
-2.302559 91.007637 -38.193501
-25.937151 48.067276 4.798837
-15.059965 86.722534 -13.672577
-16.757576 84.113327 -13.311398
-15.899633 85.7901 -15.988153
-15.780288 84.865997 -22.404896
-16.879234 83.636909 -19.857021
-17.064867 82.335747 -21.575705
-12.027311 85.355888 -30.924883
-13.482472 82.954926 -29.825516
-12.11084 83.121323 -32.001137
-6.216718 96.772263 -20.459303
-4.628001 97.885994 -23.178078
-3.622553 98.856285 -20.787525
-16.332861 67.498375 13.030393
-17.314692 67.766129 10.619112
-16.03356 70.14019 11.066213
-15.464056 75.539444 6.372009
-15.016711 78.169014 4.021979
-16.053892 78.252274 1.573659
-9.080788 93.735703 -14.842319
-7.642972 95.438034 -17.782761
-8.752362 94.484741 -20.031054
-28.389111 39.236202 9.347001
-27.010284 41.366043 10.468181
-26.427624 43.458801 9.355641
-25.659437 43.465202 11.763641
-18.883419 44.91795 28.652472
-20.226538 42.811153 27.563253
-19.693636 45.489162 26.324953
-20.399063 46.112186 23.952032
-19.11972 48.123642 25.144903
-16.757318 55.8965 23.061951
-18.030899 53.671181 22.307909
-17.66353 56.379192 20.589684
-16.927547 61.978344 16.986025
-16.037577 61.553246 19.305664
-7.539859 61.91748 31.387581
-5.590317 80.994759 -40.208088
-3.882011 79.795349 -41.885803
-19.212296 67.999542 5.816834
-20.300423 65.405754 5.454865
-20.0445 68.04705 3.524442
-21.406223 69.811111 -3.099631
-21.636675 67.664482 -1.142353
-22.295786 67.104195 -3.343911
-23.025717 64.478355 -3.515241
-22.684589 66.759514 -5.421165
-19.503975 78.535561 -12.486132
-20.097431 76.639847 -10.106323
-20.504131 75.72982 -11.886512
-7.77784 40.296764 44.114891
-9.141292 41.725643 42.467167
-7.235183 43.360115 43.019768
-6.840066 46.412754 41.747162
-6.364498 49.627583 40.353756
-5.844195 52.850349 38.886089
-4.392292 51.63306 40.608929
-2.489146 53.507664 40.825089
-0.685351 55.317501 40.980816
0.853056 53.884022 42.776367
2.458714 52.443241 44.565216
3.915337 50.599277 46.433369
-10.223072 87.588699 -32.07922
-8.608879 87.626839 -34.254837
-8.076806 89.902832 -33.068192
-5.918275 91.831856 -33.902725
-3.462886 93.82486 -34.548588
-13.005133 89.847382 -19.110861
-14.8115 87.427322 -18.72315
-13.62375 88.808495 -21.337885
-14.156043 87.475716 -23.24012
-14.561402 85.909584 -24.896545
-14.70355 84.298325 -26.449383
-13.270989 86.703285 -27.27462
-11.82733 87.308884 -29.647316
-2.57043 99.612152 -18.156494
-24.979012 43.151688 14.240162
-24.284817 42.825825 16.691759
-17.817059 50.229504 26.09672
-16.449862 52.443848 26.863903
-15.933756 55.179516 25.393349
-15.41745 58.204418 23.641695
-15.092987 61.020981 21.674393
-14.080734 60.459194 24.022612
-1.863152 81.314461 -42.960861
-29.800026 39.932575 -2.316808
-18.720509 73.087997 1.530401
-19.805124 70.604294 1.414076
-19.657835 72.836617 -0.902528
-20.440155 72.542633 -3.200483
-21.048994 72.20459 -5.339927
-19.922279 76.517921 -16.225636
-20.649185 74.835785 -13.918686
-10.466995 43.006302 40.779888
-10.894468 57.876099 30.80143
-9.764556 56.631588 33.007591
-8.079884 58.645527 33.264973
-6.342579 60.668999 33.418087
-4.940107 59.406464 35.449741
-4.507285 62.658249 33.540749
-0.71777 66.810661 33.472061
1.278279 68.835136 33.426952
2.890041 67.768906 35.385387
-8.942876 80.084793 -37.020748
-7.203148 82.117836 -38.389534
-5.339705 83.958374 -39.515793
-6.780218 87.277794 -36.57077
-5.014595 86.543365 -38.665421
-3.215183 85.468063 -40.632065
-27.660791 43.598831 4.819582
-28.26549 43.284397 2.64076
-27.130276 45.592297 3.660641
-16.827204 82.567375 -8.34859
-18.161274 80.177429 -8.173092
-17.615314 82.080345 -10.7848
-18.23192 81.389519 -12.86313
-18.725861 80.464859 -14.731366
-16.46632 84.826553 -17.974806
-17.829313 82.198723 -17.43203
-18.979362 79.450531 -16.801128
-19.095219 78.149376 -18.410395
-14.767299 82.417023 -27.663015
-8.270103 37.011707 45.258682
-6.29335 38.507889 45.893505
-4.414669 40.261528 46.26112
-2.38323 41.810608 46.7635
-7.845289 94.711861 -25.117792
-0.999856 100.756645 -20.881685
-18.454214 65.419121 10.182817
-18.271191 68.019882 8.142931
-18.094088 70.410156 6.152202
-15.79103 72.959892 8.619195
-16.836473 72.961288 6.344156
-17.711185 73.206223 4.005167
-17.461275 75.620483 1.661041
-17.055504 78.129333 -0.772265
-16.541508 80.628731 -3.382732
-15.906651 82.933846 -5.89324
-15.218306 85.109543 -8.712429
-14.229665 87.305679 -11.434115
-13.271132 89.146286 -14.324279
-11.221808 91.511009 -14.537437
-12.174157 90.764694 -16.807575
-10.907909 92.284859 -19.553406
-9.512635 93.565521 -22.413719
-29.676773 39.284874 4.628934
-29.08663 39.322784 6.875657
-28.322136 41.54987 5.774459
-27.046551 43.659672 7.012438
-25.829002 45.789551 8.185566
-20.738852 40.100838 28.773323
-21.566948 40.62722 26.407824
-22.213827 41.340885 24.084423
-21.616917 43.978474 22.920649
-21.061977 46.632187 21.621941
-20.486423 49.24461 20.443571
-18.544508 50.930195 23.760773
-19.257769 51.530872 21.385586
-16.606937 64.824615 14.990619
-15.277021 67.101784 15.586143
-14.768692 63.69236 19.812254
-14.350518 66.48584 17.957893
1.41974 45.104652 47.521084
-28.644497 43.034641 0.534596
-28.863029 42.559067 -1.354752
-28.847145 41.95771 -3.118279
-22.113611 62.680321 2.685164
-20.931101 67.824745 1.122192
-21.870922 65.22113 0.835355
-22.756554 62.452831 0.573774
-23.341967 62.134686 -1.776065
-19.490252 77.321014 -7.840934
-20.556442 74.631485 -7.637829
-21.540514 71.646935 -7.466649
-21.306416 72.873886 -11.701124
-21.84729 70.908112 -9.436472
-22.311697 68.806465 -7.284722
-22.938154 65.994064 -7.316799
-23.277204 40.589306 22.091962
-23.636216 40.822445 20.895645
-13.028634 56.293775 29.226553
-13.815379 55.291277 28.918695
-12.265124 57.336498 29.464005
-12.796387 57.801726 28.326093
-13.028634 56.293775 29.226553
-0.004497 71.398064 30.367984
0.744219 70.86388 31.408518
-10.357582 39.252645 42.705394
-11.287321 38.419531 42.35342
-10.569858 37.723675 43.242165
-8.377748 51.791851 37.5131
-9.288139 50.989365 37.233237
-8.701167 50.171238 38.228235
-7.495499 52.637276 37.730589
-8.082471 53.455402 36.73559
-8.377748 51.791851 37.5131
-1.894051 92.219124 -37.531931
-3.191413 91.262623 -37.19824
-2.782904 92.47411 -36.53667
-1.063214 91.704445 -38.614645
-1.894051 92.219124 -37.531931
-16.484306 82.189217 -23.589548
-17.069396 81.607193 -22.340237
-16.479778 82.91777 -22.825016
-15.930662 82.627765 -24.735428
-16.484306 82.189217 -23.589548
-14.247852 79.368851 3.964384
-14.488457 78.023754 5.28767
-14.763356 79.481053 2.730158
-14.247852 79.368851 3.964384
-6.404718 96.507809 -17.860782
-7.192894 95.679916 -16.428437
-5.954641 96.749691 -16.506457
-26.703392 41.198622 11.640082
-27.399355 40.184309 11.005463
-26.027969 42.248201 12.287812
-26.33486 42.415622 11.115911
-26.703392 41.198622 11.640082
-18.631173 46.237366 28.011703
-18.221519 45.899174 29.134363
-17.969273 47.21859 28.493595
-16.83325 58.849474 20.12462
-17.458745 57.755295 19.764365
-17.038035 57.473371 20.949938
-16.225058 60.060399 20.307928
-16.645768 60.342321 19.122355
-16.83325 58.849474 20.12462
-7.328586 63.427597 30.413164
-6.667573 62.942881 31.42691
-24.593227 41.685152 17.217678
-24.961191 41.804071 16.028261
-22.688009 44.608707 19.21273
-23.327123 43.600618 18.552897
-23.005308 43.356077 19.760779
-22.039552 45.75631 19.814427
-22.688009 44.608707 19.21273
-16.010047 52.052288 28.003641
-16.734447 51.034599 27.573549
-12.853594 61.065483 25.477584
-12.344331 60.741413 26.506549
-30.174758 39.439552 -0.948218
-30.550371 38.594652 -0.53429
-30.072667 39.751001 -0.028992
-29.74854 40.264238 -1.379864
-30.226244 39.107889 -1.885162
-30.174758 39.439552 -0.948218
-20.282916 75.082481 -15.837598
-19.905938 75.832794 -16.910283
-10.834519 45.2598 39.228382
-10.603936 46.817978 38.542766
-10.014129 55.081604 33.838071
-10.590167 55.681778 32.78285
-5.621319 54.554535 38.014204
-4.938852 53.889963 38.918905
-4.05202 60.384756 35.471288
-4.229516 58.804296 36.377096
-3.835609 62.010649 34.516792
-4.723696 61.032356 34.495245
-4.05202 60.384756 35.471288
-3.568267 63.664997 33.560869
-3.835609 62.010649 34.516792
0.02723 66.249904 34.426519
-0.977696 65.145471 34.472571
-0.232696 64.584715 35.427029
-9.745398 80.298302 -35.995594
-9.650243 79.069535 -36.301218
-10.452765 79.283043 -35.276064
-1.798088 87.703675 -40.557323
-2.042631 86.259365 -41.089475
-2.970641 86.912373 -40.099913
-26.253075 47.936569 3.64844
-25.720866 49.15538 4.205061
-14.062098 81.60672 -29.278095
-13.395815 81.854821 -30.361192
-11.131476 79.480217 -34.324388
-11.235491 80.712596 -33.979037
-10.452765 79.283043 -35.276064
-11.131476 79.480217 -34.324388
-7.517724 36.16853 46.114597
-8.434723 35.376058 45.832903
-7.682343 34.532881 46.688818
-6.529347 36.916621 46.432008
-7.281727 37.759798 45.576093
-7.517724 36.16853 46.114597
-3.63315 39.420223 47.09895
-4.578428 38.610996 46.891632
-2.617431 40.194763 47.350139
-3.39895 41.036068 46.51231
-3.63315 39.420223 47.09895
-1.85572 39.415662 48.151297
-1.62152 41.031508 47.564657
-2.617431 40.194763 47.350139
-6.435815 96.180542 -24.099545
-6.722065 95.691624 -25.283035
-7.559039 95.200779 -23.934303
-2.360494 99.369228 -24.571835
-3.732673 98.341103 -24.491891
-3.255822 98.914119 -23.258021
-1.087052 100.256256 -24.627922
-2.360494 99.369228 -24.571835
-0.533976 101.064625 -19.438209
-1.785143 100.184399 -19.519089
-1.319263 100.492378 -18.075613
-18.014605 65.149617 11.472865
-18.599756 64.054163 11.096583
-18.160146 63.784658 12.38663
-15.07077 74.169353 8.711937
-15.26653 72.816517 9.829229
-15.084876 84.140572 -6.011894
-15.420348 83.032696 -4.674618
-14.740704 85.22842 -7.421489
-15.562479 84.021694 -7.302834
-15.084876 84.140572 -6.011894
-13.318024 88.449649 -11.596063
-13.788239 87.449337 -10.14857
-12.876597 88.593308 -10.310517
-30.062983 38.309467 5.073092
-30.352041 38.189911 3.976488
-24.866262 46.845289 10.0049
-25.223797 46.918789 8.763572
-25.471466 45.716051 9.426894
-24.671821 44.386651 13.629325
-24.319616 44.208593 14.911417
-19.062691 41.612991 30.94043
-18.789985 43.036314 30.36856
-19.72582 40.560897 30.482462
-19.062691 41.612991 30.94043
-20.102293 41.065445 29.317475
-20.36238 39.596291 29.938311
-19.72582 40.560897 30.482462
-19.04919 52.852371 20.609825
-18.644334 52.601027 21.846747
-18.435755 53.922525 21.070987
-19.657058 51.725643 20.12394
-19.04919 52.852371 20.609825
-13.679329 67.644596 18.026347
-13.832797 66.203663 19.142664
-14.150408 67.973534 16.880579
-13.679329 67.644596 18.026347
-9.928389 60.326109 30.01629
-10.70103 59.373494 29.854871
-10.121827 58.828715 30.962849
4.977374 71.47155 34.031721
4.022872 70.321419 34.262741
1.217163 43.495571 48.136584
0.474194 44.392032 47.280293
-7.363919 77.877529 -39.072096
-8.103473 78.336257 -38.206854
-2.028828 79.764156 -43.194512
-0.952435 80.404056 -43.742405
-28.462746 43.555538 -1.814434
-28.383336 43.837078 -0.867344
-28.454804 43.25486 -2.696197
-28.855087 42.258388 -2.236515
-28.462746 43.555538 -1.814434
-19.929778 64.233427 7.538909
-19.513962 64.078936 8.783451
-21.260531 64.068903 3.983615
-20.84374 64.070086 5.184311
-20.717213 65.404572 4.254169
-21.623807 64.041855 2.869318
-21.750335 62.707369 3.799461
-21.260531 64.068903 3.983615
-23.376027 63.064459 -3.677294
-23.197032 64.117656 -4.467881
-21.327545 72.336681 -12.506395
-20.977801 73.854836 -12.809905
-20.998929 73.317631 -13.615177
-22.163007 69.444988 -9.367441
-21.892125 70.442193 -10.370165
-22.207842 68.979069 -10.301134
-23.970228 41.100586 19.655938
-24.273029 41.446234 18.422272
-23.310409 42.069847 20.340653
-23.970228 41.100586 19.655938
-23.636216 40.822445 20.895645
-14.528924 54.166641 28.725817
-15.278609 53.085229 28.423132
-14.273441 55.634367 27.895763
-14.528924 54.166641 28.725817
-13.815379 55.291277 28.918695
-11.797926 60.343937 27.635596
-12.344331 60.741413 26.506549
-12.579282 59.241924 27.434497
-0.936311 70.405797 30.456181
-1.205731 68.822746 31.530555
-0.936311 70.405797 30.456181
-0.004497 71.398064 30.367984
-30.32383 38.978441 1.414169
-30.890778 37.94252 0.821852
-30.766329 38.01486 1.851084
-11.92649 39.140158 41.463722
-11.287321 38.419531 42.35342
-11.705073 40.605398 40.935396
-11.92649 39.140158 41.463722
-10.456245 48.369766 37.772461
-10.603936 46.817978 38.542766
-9.759249 47.816963 38.718677
-10.199351 49.961939 37.033831
-10.456245 48.369766 37.772461
-10.199351 49.961939 37.033831
-9.288139 50.989365 37.233237
-8.725123 54.140234 35.731743
-9.374614 54.601055 34.806968
-7.842874 54.985658 35.949232
-8.725123 54.140234 35.731743
-8.082471 53.455402 36.73559
0.498781 63.935196 36.383623
-0.232696 64.584715 35.427029
1.50772 64.995415 36.376234
0.498781 63.935196 36.383623
-1.362979 90.442444 -39.26372
-1.574748 89.116967 -39.95085
-2.514328 89.68216 -38.88063
-1.362979 90.442444 -39.26372
-1.063214 91.704445 -38.614645
-25.601731 48.108984 5.947249
-26.194924 46.990834 5.329212
-25.859504 47.032542 6.477624
-25.390572 49.257881 5.315708
-25.601731 48.108984 5.947249
-25.720866 49.15538 4.205061
-25.390572 49.257881 5.315708
-17.618446 80.953484 -21.125982
-18.107937 80.317871 -19.959693
-17.554358 81.700134 -20.409416
-17.618446 80.953484 -21.125982
-17.069396 81.607193 -22.340237
-12.709999 81.938019 -31.449002
-13.395815 81.854821 -30.361192
-12.796656 83.038125 -30.913327
-12.016951 82.017353 -32.494385
-12.709999 81.938019 -31.449002
-11.215349 82.027916 -33.621659
-12.016951 82.017353 -32.494385
-11.309238 83.131886 -33.128411
-10.527779 81.827129 -34.613062
-11.235491 80.712596 -33.979037
-11.215349 82.027916 -33.621659
-14.712129 76.708969 6.462686
-14.907283 75.45913 7.588344
-15.240384 76.854229 5.196994
-14.712129 76.708969 6.462686
-14.488457 78.023754 5.28767
-15.281947 79.522683 1.505999
-15.535302 78.210644 2.797819
-14.763356 79.481053 2.730158
-15.013174 80.804158 0.247897
-15.785119 79.533749 0.315557
-15.281947 79.522683 1.505999
-11.886384 89.776386 -10.437068
-12.876597 88.593308 -10.310517
-7.911803 94.828751 -14.958215
-8.526797 94.011257 -13.608581
-8.36188 94.586869 -16.31254
-7.911803 94.828751 -14.958215
-7.192894 95.679916 -16.428437
-28.088768 39.119388 10.444873
-28.825101 38.133152 9.736273
-27.699697 40.301122 9.907591
-28.088768 39.119388 10.444873
-27.399355 40.184309 11.005463
-18.498828 44.480263 29.763983
-18.221519 45.899174 29.134363
-19.174576 43.474001 29.257049
-18.789985 43.036314 30.36856
-18.498828 44.480263 29.763983
-18.252071 55.276531 20.211874
-18.435755 53.922525 21.070987
-17.847214 55.025187 21.448797
-18.08444 56.645573 19.3256
-18.252071 55.276531 20.211874
-18.08444 56.645573 19.3256
-17.458745 57.755295 19.764365
-17.090753 60.55487 17.962536
-17.508544 60.870252 16.680992
-16.482562 61.765795 18.145845
-17.090753 60.55487 17.962536
-16.645768 60.342321 19.122355
-13.481728 64.570013 21.29371
-12.914245 64.361875 22.402112
-8.219741 62.322367 30.352766
-9.124405 61.254291 30.22111
-8.444522 60.849405 31.255924
-8.219741 62.322367 30.352766
-7.328586 63.427597 30.413164
5.789694 70.964867 35.02821
5.509956 69.239784 36.142854
-5.688786 79.631005 -40.390919
-6.585342 78.775337 -39.719439
-6.486873 80.139092 -39.536608
-4.834633 79.0313 -41.229776
-5.688786 79.631005 -40.390919
-4.736164 80.395054 -41.046945
-4.080048 78.377224 -41.981833
-4.834633 79.0313 -41.229776
-27.767722 45.228658 0.568729
-27.315388 46.446236 0.933886
-23.026468 65.258236 -5.420843
-23.197032 64.117656 -4.467881
-22.855153 65.618934 -4.468203
-22.450817 67.448387 -10.151769
-22.207842 68.979069 -10.301134
-22.715663 66.533493 -9.262533
-22.450817 67.448387 -10.151769
-4.212901 53.281318 39.780325
-4.938852 53.889963 38.918905
-5.118244 52.241704 39.747509
-3.261328 54.218621 39.888405
-4.212901 53.281318 39.780325
-3.440719 52.570362 40.717009
-2.304956 55.185147 39.969015
-3.261328 54.218621 39.888405
-1.403058 56.090065 40.046879
-2.304956 55.185147 39.969015
-1.587248 54.412582 40.902952
-0.416932 57.061249 40.12558
-1.403058 56.090065 40.046879
0.298293 56.364203 41.020632
-0.416932 57.061249 40.12558
1.067497 55.647463 41.918408
0.298293 56.364203 41.020632
0.083852 54.600762 41.878591
1.885824 54.882601 42.893091
1.067497 55.647463 41.918408
2.688652 54.162211 43.787515
1.885824 54.882601 42.893091
1.655885 53.163632 43.670791
3.40131 53.40163 44.667284
2.688652 54.162211 43.787515
4.129621 52.479648 45.60136
3.40131 53.40163 44.667284
3.187025 51.521259 45.499292
4.84214 51.693107 46.483705
4.129621 52.479648 45.60136
-2.474214 93.627736 -35.709474
-2.782904 92.47411 -36.53667
-3.771576 92.671234 -35.375784
-3.408829 98.826367 -16.725963
-3.868447 98.594867 -18.047649
-4.706847 97.809082 -16.617118
-2.147635 99.791816 -16.745337
-3.408829 98.826367 -16.725963
-1.319263 100.492378 -18.075613
-2.147635 99.791816 -16.745337
-14.871066 71.286041 12.21789
-14.331824 70.996467 13.528878
-4.706847 97.809082 -16.617118
-5.954641 96.749691 -16.506457
-25.308288 41.967003 14.802463
-25.687756 42.091444 13.526072
-24.631915 42.988757 15.465961
-25.308288 41.967003 14.802463
-24.961191 41.804071 16.028261
-23.972518 44.045662 16.137215
-24.319616 44.208593 14.911417
-24.631915 42.988757 15.465961
-23.964619 42.586906 17.896352
-24.593227 41.685152 17.217678
-24.273029 41.446234 18.422272
-23.647321 43.839537 17.348304
-23.964619 42.586906 17.896352
-23.327123 43.600618 18.552897
-23.972518 44.045662 16.137215
-23.647321 43.839537 17.348304
-17.69898 48.591066 27.827065
-17.969273 47.21859 28.493595
-17.418045 49.927428 27.189957
-18.097993 48.893143 26.733828
-17.69898 48.591066 27.827065
-17.13346 51.336676 26.480311
-17.418045 49.927428 27.189957
-16.734447 51.034599 27.573549
-15.718424 53.47679 27.283394
-16.010047 52.052288 28.003641
-15.278609 53.085229 28.423132
-13.331118 61.47538 24.336165
-13.60321 60.049297 25.164031
-12.853594 61.065483 25.477584
-13.11494 62.855053 23.454852
-13.864556 61.838867 23.141298
-13.331118 61.47538 24.336165
-12.914245 64.361875 22.402112
-13.11494 62.855053 23.454852
-1.612559 82.781669 -42.673862
-2.783523 82.019722 -42.112077
-2.53293 83.48693 -41.825079
-0.725423 81.991017 -43.459511
-1.612559 82.781669 -42.673862
-0.952435 80.404056 -43.742405
-0.725423 81.991017 -43.459511
-30.974469 37.777706 -0.097885
-30.890778 37.94252 0.821852
-30.974469 37.777706 -0.097885
-30.550371 38.594652 -0.53429
-30.178083 38.791069 -2.729694
-30.226244 39.107889 -1.885162
-29.679903 39.603881 -3.181529
-30.178083 38.791069 -2.729694
-20.646369 74.241413 -14.684123
-20.285732 75.676853 -15.072161
-20.282916 75.082481 -15.837598
-20.998929 73.317631 -13.615177
-20.646369 74.241413 -14.684123
-11.401048 42.134298 40.417015
-11.705073 40.605398 40.935396
-10.771021 41.477402 41.298269
-11.114546 43.630364 39.873835
-10.186968 44.635739 40.134435
-10.834519 45.2598 39.228382
-11.401048 42.134298 40.417015
-11.114546 43.630364 39.873835
-11.155123 56.304034 31.679769
-11.69592 56.852323 30.582948
-10.329512 57.253844 31.904511
-11.155123 56.304034 31.679769
-10.590167 55.681778 32.78285
-9.125041 56.151039 33.976488
-10.014129 55.081604 33.838071
-9.374614 54.601055 34.806968
-6.068932 62.31864 32.442163
-6.667573 62.942881 31.42691
-6.941219 61.293239 32.402834
-6.299333 55.279773 37.047699
-6.522208 53.575588 37.919584
-5.621319 54.554535 38.014204
-6.058479 56.883741 36.208813
-6.959369 55.904794 36.114193
-6.299333 55.279773 37.047699
-5.169275 57.832592 36.29603
-4.229516 58.804296 36.377096
-5.829311 58.457613 35.362524
-6.058479 56.883741 36.208813
-5.169275 57.832592 36.29603
-5.151286 63.313265 32.503495
-6.068932 62.31864 32.442163
-5.424932 61.663624 33.479418
-4.295185 64.25634 32.526508
-5.151286 63.313265 32.503495
-4.295185 64.25634 32.526508
-3.568267 63.664997 33.560869
-1.67351 65.741203 33.526525
-0.977696 65.145471 34.472571
-1.456904 67.347061 32.481601
-1.67351 65.741203 33.526525
-0.466597 68.286347 32.521015
-1.205731 68.822746 31.530555
-1.456904 67.347061 32.481601
1.49107 70.400432 32.33701
0.744219 70.86388 31.408518
0.531428 69.298584 32.498461
2.256162 69.828648 33.368494
1.49107 70.400432 32.33701
3.062043 69.295533 34.347712
2.256162 69.828648 33.368494
2.08416 68.302021 34.40617
3.850871 68.794792 35.300416
4.022872 70.321419 34.262741
3.062043 69.295533 34.347712
2.566625 66.035294 36.378439
1.831136 66.729027 35.383183
1.50772 64.995415 36.376234
3.620231 67.026573 36.428036
2.566625 66.035294 36.378439
4.58106 68.05246 36.343065
3.850871 68.794792 35.300416
3.620231 67.026573 36.428036
5.509956 69.239784 36.142854
4.58106 68.05246 36.343065
-8.883197 78.736942 -37.284664
-9.650243 79.069535 -36.301218
-8.163152 79.684109 -37.942938
-8.103473 78.336257 -38.206854
-8.883197 78.736942 -37.284664
-2.288575 84.858471 -41.509464
-2.53293 83.48693 -41.825079
-3.459538 84.096523 -40.947679
-2.288575 84.858471 -41.509464
-2.042631 86.259365 -41.089475
-0.646738 88.463959 -40.940413
-1.798088 87.703675 -40.557323
-1.574748 89.116967 -39.95085
-26.849637 46.699079 3.079343
-26.533713 46.829786 4.229739
-26.253075 47.936569 3.64844
-27.1004 46.574045 2.007719
-27.381039 45.467263 2.589017
-26.849637 46.699079 3.079343
-27.315388 46.446236 0.933886
-27.1004 46.574045 2.007719
-19.492408 76.648522 -18.002663
-19.905938 75.832794 -16.910283
-19.508749 77.333649 -17.318016
-18.633623 78.860298 -19.543328
-18.569533 79.606949 -18.82676
-18.107937 80.317871 -19.959693
-19.039851 77.451404 -19.12933
-18.633623 78.860298 -19.543328
-19.492408 76.648522 -18.002663
-19.039851 77.451404 -19.12933
-15.335093 83.027031 -25.922956
-15.930662 82.627765 -24.735428
-15.299119 83.899059 -25.261855
-15.366967 82.08638 -26.529772
-15.335093 83.027031 -25.922956
-14.735425 83.357674 -27.056199
-15.291419 81.153496 -27.121247
-15.366967 82.08638 -26.529772
-14.704511 81.337769 -28.196844
-14.124885 82.685975 -28.744266
-14.062098 81.60672 -29.278095
-15.291419 81.153496 -27.121247
-14.704511 81.337769 -28.196844
-9.828819 36.997535 44.140232
-10.569858 37.723675 43.242165
-9.143811 36.224995 44.972504
-8.434723 35.376058 45.832903
-8.955111 37.784248 44.426411
-9.828819 36.997535 44.140232
-9.143811 36.224995 44.972504
-5.517769 37.734177 46.707825
-6.529347 36.916621 46.432008
-5.35401 39.384709 46.077312
-5.517769 37.734177 46.707825
-4.578428 38.610996 46.891632
-1.427291 42.74501 46.9015
-1.200446 44.460768 46.238948
-2.156385 43.526365 46.100948
-1.427291 42.74501 46.9015
-1.62152 41.031508 47.564657
-7.054015 95.05616 -26.390121
-7.499706 94.280888 -27.368784
-8.29098 93.936588 -26.096456
-7.054015 95.05616 -26.390121
-6.722065 95.691624 -25.283035
-5.113421 97.27869 -24.313178
-6.435815 96.180542 -24.099545
-5.950395 96.787846 -22.964446
-5.113421 97.27869 -24.313178
-3.732673 98.341103 -24.491891
0.383701 101.663166 -20.747579
-0.533976 101.064625 -19.438209
-0.144711 101.213543 -22.154225
0.383701 101.663166 -20.747579
-0.586604 100.806343 -23.382365
-1.441749 100.349445 -22.109825
-0.144711 101.213543 -22.154225
-1.087052 100.256256 -24.627922
-0.586604 100.806343 -23.382365
-19.051364 64.054934 9.954091
-18.599756 64.054163 11.096583
-18.916812 65.443123 9.012177
-19.513962 64.078936 8.783451
-19.051364 64.054934 9.954091
-15.387795 71.406666 11.052738
-15.516831 70.019565 12.231365
-14.871066 71.286041 12.21789
-15.912295 71.550041 9.842704
-15.387795 71.406666 11.052738
-15.26653 72.816517 9.829229
-15.627543 74.249668 7.495602
-15.07077 74.169353 8.711937
-14.907283 75.45913 7.588344
-14.697795 82.035068 -1.010197
-15.013174 80.804158 0.247897
-15.225195 81.973385 -2.19927
-14.697795 82.035068 -1.010197
-15.737776 81.880139 -3.419364
-16.028927 80.721978 -2.162638
-15.225195 81.973385 -2.19927
-16.22408 81.781289 -4.637986
-15.737776 81.880139 -3.419364
-15.420348 83.032696 -4.674618
-14.282559 86.351269 -8.787727
-14.740704 85.22842 -7.421489
-14.723986 86.207611 -10.073272
-14.282559 86.351269 -8.787727
-13.788239 87.449337 -10.14857
-11.34607 90.768463 -11.868325
-11.886384 89.776386 -10.437068
-9.683273 92.839505 -13.41048
-8.526797 94.011257 -13.608581
-10.753782 91.727158 -13.258039
-9.683273 92.839505 -13.41048
-10.151298 92.623356 -14.689878
-11.814096 90.552314 -13.147724
-11.34607 90.768463 -11.868325
-10.753782 91.727158 -13.258039
-30.613345 38.072865 2.883722
-30.766329 38.01486 1.851084
-29.938077 39.167828 3.536168
-30.613345 38.072865 2.883722
-30.352041 38.189911 3.976488
-29.096057 38.30133 8.592757
-28.825101 38.133152 9.736273
-29.444817 38.344622 7.357085
-29.096057 38.30133 8.592757
-28.73787 39.279493 8.111329
-29.767911 38.328423 6.196454
-29.444817 38.344622 7.357085
-29.381701 39.303829 5.752296
-30.062983 38.309467 5.073092
-29.767911 38.328423 6.196454
-25.547656 46.970122 7.640613
-25.859504 47.032542 6.477624
-26.14085 45.851971 7.022576
-25.547656 46.970122 7.640613
-25.223797 46.918789 8.763572
-25.319225 43.308445 13.001901
-26.027969 42.248201 12.287812
-25.687756 42.091444 13.526072
-25.012034 44.543408 12.391064
-25.319225 43.308445 13.001901
-24.671821 44.386651 13.629325
-24.73928 45.632082 11.843355
-25.386684 44.553877 11.215932
-25.012034 44.543408 12.391064
-24.482727 46.829223 11.224804
-24.73928 45.632082 11.843355
-24.866262 46.845289 10.0049
-24.482727 46.829223 11.224804
-21.032187 38.744889 29.248019
-20.36238 39.596291 29.938311
-21.412826 39.132569 28.099196
-21.032187 38.744889 29.248019
-21.826874 39.395759 26.916446
-21.412826 39.132569 28.099196
-21.1529 40.364029 27.590574
-22.234106 39.704334 25.66402
-21.826874 39.395759 26.916446
-22.557545 40.061166 24.502319
-22.234106 39.704334 25.66402
-21.890387 40.984053 25.246124
-22.895919 40.363895 23.343993
-22.557545 40.061166 24.502319
-22.595112 41.566295 22.832391
-23.277204 40.589306 22.091962
-22.895919 40.363895 23.343993
-21.387443 46.89032 20.415091
-22.039552 45.75631 19.814427
-21.714085 45.498176 21.021276
-21.099666 48.196532 19.825906
-21.387443 46.89032 20.415091
-20.7742 47.938399 21.032756
-20.85147 49.455602 19.181195
-21.099666 48.196532 19.825906
-20.271385 50.582512 19.652933
-19.872096 50.387741 20.914578
-19.657058 51.725643 20.12394
-20.85147 49.455602 19.181195
-20.271385 50.582512 19.652933
-17.719494 63.566194 13.659884
-18.160146 63.784658 12.38663
-17.39577 62.11531 15.77144
-17.508544 60.870252 16.680992
-17.235465 63.538446 14.773737
-17.39577 62.11531 15.77144
-16.767242 63.401479 15.988322
-17.090966 64.852363 13.876766
-17.719494 63.566194 13.659884
-17.235465 63.538446 14.773737
-14.041885 64.806923 20.069845
-14.208535 63.45545 21.036119
-13.481728 64.570013 21.29371
-14.559605 65.0891 18.885073
-14.041885 64.806923 20.069845
-13.832797 66.203663 19.142664
-14.61366 68.281505 15.694705
-14.813769 66.793812 16.772018
-14.150408 67.973534 16.880579
-14.4752 69.680084 14.599892
-15.138561 68.500362 14.491331
-14.61366 68.281505 15.694705
-14.331824 70.996467 13.528878
-14.4752 69.680084 14.599892
-11.463672 58.360274 29.682488
-12.265124 57.336498 29.464005
-11.69592 56.852323 30.582948
-11.270235 59.857668 28.735928
-11.463672 58.360274 29.682488
-10.70103 59.373494 29.854871
-11.797926 60.343937 27.635596
-11.270235 59.857668 28.735928
-9.928389 60.326109 30.01629
-9.124405 61.254291 30.22111
4.977374 71.47155 34.031721
5.789694 70.964867 35.02821
-0.200864 45.379 46.40165
-0.929959 46.160355 45.601097
-1.200446 44.460768 46.238948
0.744682 46.09162 46.642441
-0.200864 45.379 46.40165
0.474194 44.392032 47.280293
2.180814 44.368946 48.330168
1.217163 43.495571 48.136584
2.398689 46.12328 47.648218
2.180814 44.368946 48.330168
2.638625 48.02318 46.88717
1.659676 47.004553 46.760036
2.398689 46.12328 47.648218
3.646488 48.870592 47.10436
2.907475 49.751865 46.216179
2.638625 48.02318 46.88717
4.647728 49.905628 47.247667
3.646488 48.870592 47.10436
4.84214 51.693107 46.483705
4.647728 49.905628 47.247667
-7.363919 77.877529 -39.072096
-6.585342 78.775337 -39.719439
-3.038257 79.004601 -42.656982
-2.872581 80.554905 -42.423332
-2.028828 79.764156 -43.194512
-4.080048 78.377224 -41.981833
-3.038257 79.004601 -42.656982
-6.703027 94.534142 -28.615681
-7.939992 93.41457 -28.322016
-7.499706 94.280888 -27.368784
-5.900735 94.724514 -29.816565
-6.703027 94.534142 -28.615681
-5.035329 94.834122 -31.059624
-6.277906 93.777432 -30.811972
-5.900735 94.724514 -29.816565
-4.131297 94.882602 -32.316175
-5.035329 94.834122 -31.059624
-3.156491 94.851513 -33.562954
-4.437693 93.85595 -33.30181
-4.131297 94.882602 -32.316175
-2.223104 94.737706 -34.757246
-3.156491 94.851513 -33.562954
-2.474214 93.627736 -35.709474
-2.223104 94.737706 -34.757246
-28.27407 44.074865 0.07733
-28.13815 44.188434 1.025995
-27.767722 45.228658 0.568729
-28.753763 42.796854 -0.410078
-28.27407 44.074865 0.07733
-28.383336 43.837078 -0.867344
-29.203463 40.616449 -3.582264
-29.679903 39.603881 -3.181529
-29.323586 40.945143 -2.717543
-28.417839 42.876144 -3.559425
-28.454804 43.25486 -2.696197
-28.726461 41.501717 -3.940691
-28.417839 42.876144 -3.559425
-29.203463 40.616449 -3.582264
-28.726461 41.501717 -3.940691
-20.390284 64.202742 6.345572
-19.929778 64.233427 7.538909
-19.839917 65.43644 6.648201
-20.390284 64.202742 6.345572
-20.84374 64.070086 5.184311
-22.247682 61.366301 3.546524
-21.750335 62.707369 3.799461
-22.573736 61.355917 2.426175
-22.247682 61.366301 3.546524
-22.895208 61.242172 1.37048
-22.573736 61.355917 2.426175
-22.435083 62.566576 1.629469
-23.176345 61.139539 0.309495
-22.895208 61.242172 1.37048
-23.469051 60.980467 -0.865424
-23.176345 61.139539 0.309495
-23.049261 62.293759 -0.601145
-23.710506 60.735152 -1.922781
-23.469051 60.980467 -0.865424
-23.534152 61.892624 -2.807705
-23.183842 63.30652 -2.645653
-23.376027 63.064459 -3.677294
-23.710506 60.735152 -1.922781
-23.534152 61.892624 -2.807705
-21.621688 71.42508 -11.502491
-21.327545 72.336681 -12.506395
-21.576853 71.890999 -10.568798
-21.621688 71.42508 -11.502491
-21.892125 70.442193 -10.370165
-23.15325 64.875511 -6.36866
-23.026468 65.258236 -5.420843
-22.811371 66.376789 -6.368982
-22.945378 65.539592 -8.271727
-22.70844 66.987965 -8.307605
-22.715663 66.533493 -9.262533
-23.19988 64.536226 -7.33157
-22.945378 65.539592 -8.271727
-23.15325 64.875511 -6.36866
-23.19988 64.536226 -7.33157
3 0 72 70
3 0 74 72
3 0 76 74
3 1 79 77
3 1 82 80
3 1 77 82
3 287 85 288
3 289 87 290
3 291 89 292
3 293 292 87
3 291 292 293
3 295 294 90
3 3 93 91
3 2 96 94
3 4 296 298
3 296 97 297
3 296 297 298
3 5 100 98
3 5 299 301
3 301 300 100
3 299 300 301
3 5 302 304
3 302 102 303
3 302 303 304
3 6 105 103
3 305 108 306
3 307 306 106
3 305 306 307
3 309 308 108
3 8 112 110
3 10 115 113
3 10 310 312
3 312 311 115
3 310 311 312
3 10 313 314
3 6 118 116
3 6 103 118
3 11 121 119
3 12 124 122
3 315 126 316
3 318 317 126
3 11 319 321
3 319 129 320
3 319 320 321
3 11 119 129
3 322 132 323
3 324 134 325
3 326 325 132
3 324 325 326
3 14 327 329
3 327 135 328
3 327 328 329
3 14 137 135
3 14 139 137
3 15 142 140
3 15 330 332
3 332 331 142
3 330 331 332
3 15 333 335
3 333 144 334
3 333 334 335
3 337 336 145
3 7 147 146
3 13 150 148
3 16 153 151
3 16 155 153
3 9 158 156
3 17 161 159
3 19 162 71
3 19 163 162
3 19 165 163
3 20 166 73
3 20 167 166
3 20 168 167
3 21 169 75
3 21 170 169
3 22 173 171
3 24 174 78
3 24 175 174
3 25 178 176
3 27 179 81
3 27 180 179
3 27 182 180
3 22 183 83
3 22 171 183
3 338 186 339
3 29 340 342
3 342 341 84
3 340 341 342
3 29 343 344
3 345 188 346
3 31 189 86
3 31 190 189
3 31 192 190
3 348 347 88
3 33 349 351
3 351 350 92
3 349 350 351
3 33 352 354
3 352 194 353
3 352 353 354
3 34 197 195
3 36 198 95
3 36 199 198
3 356 355 200
3 18 202 160
3 358 357 99
3 359 204 360
3 38 205 101
3 38 206 205
3 362 361 164
3 363 207 364
3 365 208 366
3 367 366 207
3 365 366 367
3 369 368 208
3 39 370 372
3 370 209 371
3 370 371 372
3 39 210 209
3 39 211 210
3 41 373 375
3 373 212 374
3 373 374 375
3 43 213 104
3 43 214 213
3 23 215 172
3 44 216 107
3 44 217 216
3 44 376 378
3 378 377 217
3 376 377 378
3 45 220 218
3 380 379 109
3 47 223 221
3 49 224 111
3 49 225 224
3 26 226 177
3 50 227 114
3 50 228 227
3 50 229 228
3 28 230 181
3 382 381 117
3 41 383 384
3 41 385 386
3 387 231 388
3 387 388 389
3 390 232 391
3 392 391 231
3 390 391 392
3 393 233 394
3 395 234 396
3 397 396 233
3 395 396 397
3 400 399 234
3 398 399 400
3 51 401 403
3 403 402 235
3 401 402 403
3 52 404 406
3 406 405 120
3 404 405 406
3 52 407 408
3 409 236 410
3 411 410 184
3 409 410 411
3 53 412 414
3 412 237 413
3 412 413 414
3 55 238 123
3 55 239 238
3 415 240 416
3 56 241 125
3 56 242 241
3 56 243 242
3 57 244 127
3 57 245 244
3 417 246 418
3 419 247 420
3 421 420 246
3 419 420 421
3 58 422 424
3 422 248 423
3 422 423 424
3 58 249 248
3 59 250 128
3 59 251 250
3 59 252 251
3 51 253 130
3 51 235 253
3 425 254 426
3 60 255 131
3 60 256 255
3 60 257 256
3 61 258 133
3 61 427 429
3 429 428 258
3 427 428 429
3 431 430 185
3 62 432 433
3 62 434 435
3 62 436 438
3 436 259 437
3 436 437 438
3 63 260 136
3 63 261 260
3 63 262 261
3 64 263 138
3 64 264 263
3 30 265 187
3 439 266 440
3 441 440 141
3 439 440 441
3 443 442 266
3 65 267 143
3 65 268 267
3 32 269 191
3 444 270 445
3 447 446 270
3 37 448 450
3 450 449 203
3 448 449 450
3 40 451 452
3 453 271 454
3 42 455 456
3 458 457 193
3 46 272 219
3 459 273 460
3 461 274 462
3 463 462 273
3 461 462 463
3 54 464 465
3 66 466 468
3 468 467 149
3 466 467 468
3 66 469 471
3 469 275 470
3 469 470 471
3 35 276 196
3 67 277 152
3 67 278 277
3 67 279 278
3 473 472 154
3 48 280 222
3 68 281 157
3 68 282 281
3 474 283 475
3 476 475 201
3 474 475 476
3 69 477 479
3 477 284 478
3 477 478 479
3 69 285 284
3 69 286 285
3 70 71 17
3 72 71 70
3 72 19 71
3 72 73 19
3 74 73 72
3 74 20 73
3 74 75 20
3 76 75 74
3 76 21 75
3 77 78 22
3 79 78 77
3 79 24 78
3 80 81 25
3 82 81 80
3 82 27 81
3 82 83 27
3 77 83 82
3 77 22 83
3 480 84 481
3 85 482 484
3 482 84 483
3 482 483 484
3 85 29 84
3 485 86 486
3 87 487 489
3 487 86 488
3 487 488 489
3 87 31 86
3 87 88 31
3 89 88 87
3 89 490 492
3 492 491 88
3 490 491 492
3 90 493 494
3 496 495 90
3 91 497 499
3 497 92 498
3 497 498 499
3 93 92 91
3 93 33 92
3 94 95 34
3 96 95 94
3 96 36 95
3 97 500 501
3 97 502 503
3 98 99 18
3 100 99 98
3 100 504 506
3 506 505 99
3 504 505 506
3 100 507 508
3 510 509 100
3 511 101 512
3 102 513 515
3 513 101 514
3 513 514 515
3 102 38 101
3 516 39 517
3 519 518 39
3 103 104 41
3 105 104 103
3 105 43 104
3 106 107 23
3 108 107 106
3 108 44 107
3 108 520 522
3 522 521 44
3 520 521 522
3 524 523 108
3 525 109 526
3 527 526 45
3 525 526 527
3 528 109 529
3 531 530 109
3 110 111 47
3 112 111 110
3 112 49 111
3 113 114 26
3 115 114 113
3 115 50 114
3 115 532 534
3 534 533 50
3 532 533 534
3 536 535 115
3 116 117 28
3 118 117 116
3 118 537 539
3 539 538 117
3 537 538 539
3 118 540 541
3 103 542 544
3 544 543 118
3 542 543 544
3 103 545 547
3 545 41 546
3 545 546 547
3 119 120 51
3 121 120 119
3 121 52 120
3 122 123 53
3 124 123 122
3 124 55 123
3 548 125 549
3 126 550 552
3 550 125 551
3 550 551 552
3 126 56 125
3 126 127 56
3 553 127 554
3 555 554 126
3 553 554 555
3 556 57 557
3 558 557 127
3 556 557 558
3 559 58 560
3 561 128 562
3 129 563 565
3 563 128 564
3 563 564 565
3 129 59 128
3 129 130 59
3 119 130 129
3 119 51 130
3 566 131 567
3 132 568 570
3 568 131 569
3 568 569 570
3 132 60 131
3 132 133 60
3 134 133 132
3 134 61 133
3 135 571 572
3 135 573 575
3 573 62 574
3 573 574 575
3 135 136 62
3 137 136 135
3 137 63 136
3 137 138 63
3 139 138 137
3 139 64 138
3 140 141 30
3 142 141 140
3 142 576 578
3 578 577 141
3 576 577 578
3 142 579 580
3 582 581 142
3 583 143 584
3 144 585 587
3 585 143 586
3 585 586 587
3 144 65 143
3 589 588 32
3 145 590 592
3 592 591 37
3 590 591 592
3 594 593 145
3 596 595 40
3 146 597 599
3 599 598 42
3 597 598 599
3 147 600 602
3 602 601 146
3 600 601 602
3 147 603 604
3 606 605 46
3 148 149 54
3 150 149 148
3 150 66 149
3 151 152 35
3 153 152 151
3 153 67 152
3 153 154 67
3 155 154 153
3 155 607 609
3 609 608 154
3 607 608 609
3 156 157 48
3 158 157 156
3 158 68 157
3 610 69 611
3 613 612 69
3 159 160 4
3 161 160 159
3 161 18 160
3 71 161 17
3 162 161 71
3 162 18 161
3 162 98 18
3 163 98 162
3 163 5 98
3 163 164 5
3 165 164 163
3 165 614 616
3 616 615 164
3 614 615 616
3 73 165 19
3 166 165 73
3 166 617 619
3 619 618 165
3 617 618 619
3 166 620 621
3 167 622 624
3 624 623 166
3 622 623 624
3 167 625 626
3 167 627 628
3 168 629 631
3 631 630 167
3 629 630 631
3 168 632 633
3 75 168 20
3 169 168 75
3 169 634 636
3 636 635 168
3 634 635 636
3 169 637 638
3 170 639 641
3 641 640 169
3 639 640 641
3 170 642 643
3 171 172 6
3 173 172 171
3 173 23 172
3 78 173 22
3 174 173 78
3 174 23 173
3 174 106 23
3 175 106 174
3 175 644 646
3 646 645 106
3 644 645 646
3 176 177 8
3 178 177 176
3 178 26 177
3 81 178 25
3 179 178 81
3 179 26 178
3 179 113 26
3 180 113 179
3 180 10 113
3 180 181 10
3 182 181 180
3 182 28 181
3 83 182 27
3 183 182 83
3 183 28 182
3 183 116 28
3 171 116 183
3 171 6 116
3 647 184 648
3 649 648 11
3 647 648 649
3 650 184 651
3 653 652 184
3 655 654 12
3 656 11 657
3 658 185 659
3 186 660 662
3 660 185 661
3 660 661 662
3 186 663 665
3 665 664 185
3 663 664 665
3 84 666 668
3 666 186 667
3 666 667 668
3 669 186 670
3 671 670 84
3 669 670 671
3 673 672 186
3 674 14 675
3 676 187 677
3 678 677 14
3 676 677 678
3 188 679 681
3 679 187 680
3 679 680 681
3 188 30 187
3 86 682 684
3 682 188 683
3 682 683 684
3 189 188 86
3 189 30 188
3 189 140 30
3 190 140 189
3 190 15 140
3 190 191 15
3 192 191 190
3 192 32 191
3 88 192 31
3 685 192 686
3 687 686 88
3 685 686 687
3 688 32 689
3 690 689 192
3 688 689 690
3 692 691 32
3 693 193 694
3 695 694 7
3 693 694 695
3 696 193 697
3 699 698 193
3 92 700 701
3 703 702 92
3 194 704 705
3 194 706 707
3 195 196 13
3 197 196 195
3 197 35 196
3 95 197 34
3 198 197 95
3 198 35 197
3 198 151 35
3 199 151 198
3 199 16 151
3 200 201 9
3 708 201 709
3 710 709 200
3 708 709 710
3 712 711 201
3 160 97 4
3 202 97 160
3 202 713 715
3 715 714 97
3 713 714 715
3 99 202 18
3 716 202 717
3 718 717 99
3 716 717 718
3 720 719 202
3 721 203 722
3 204 723 725
3 723 203 724
3 723 724 725
3 204 37 203
3 101 726 728
3 726 204 727
3 726 727 728
3 205 204 101
3 205 37 204
3 205 145 37
3 206 145 205
3 206 729 731
3 731 730 145
3 729 730 731
3 164 102 5
3 732 102 733
3 734 733 164
3 732 733 734
3 735 38 736
3 737 736 102
3 735 736 737
3 207 738 739
3 207 740 742
3 740 38 741
3 740 741 742
3 207 206 38
3 208 206 207
3 208 743 745
3 745 744 206
3 743 744 745
3 208 746 747
3 749 748 208
3 209 750 751
3 209 752 753
3 209 754 756
3 754 90 755
3 754 755 756
3 210 90 209
3 210 757 759
3 759 758 90
3 757 758 759
3 210 760 761
3 211 762 764
3 764 763 210
3 762 763 764
3 211 765 767
3 765 40 766
3 765 766 767
3 768 211 769
3 770 769 39
3 768 769 770
3 771 211 772
3 773 40 774
3 775 774 211
3 773 774 775
3 777 776 40
3 212 778 779
3 212 780 782
3 780 42 781
3 780 781 782
3 104 212 41
3 213 212 104
3 213 42 212
3 213 146 42
3 214 146 213
3 214 7 146
3 172 105 6
3 215 105 172
3 215 43 105
3 107 215 23
3 216 215 107
3 216 43 215
3 216 214 43
3 217 214 216
3 217 7 214
3 217 783 785
3 785 784 7
3 783 784 785
3 787 786 217
3 790 789 44
3 788 789 790
3 218 219 3
3 220 219 218
3 220 46 219
3 109 220 45
3 791 220 792
3 793 792 109
3 791 792 793
3 794 46 795
3 796 795 220
3 794 795 796
3 798 797 46
3 221 222 2
3 223 222 221
3 223 48 222
3 111 223 47
3 224 223 111
3 224 48 223
3 224 156 48
3 225 156 224
3 225 9 156
3 177 112 8
3 226 112 177
3 226 49 112
3 114 226 26
3 227 226 114
3 227 49 226
3 227 225 49
3 228 225 227
3 228 9 225
3 228 200 9
3 229 200 228
3 229 799 801
3 801 800 200
3 799 800 801
3 802 229 803
3 804 803 50
3 802 803 804
3 805 229 806
3 808 807 229
3 181 809 811
3 811 810 10
3 809 810 811
3 230 812 814
3 814 813 181
3 812 813 814
3 230 815 816
3 117 230 28
3 817 230 818
3 819 818 117
3 817 818 819
3 821 820 230
3 822 4 823
3 231 824 825
3 231 826 828
3 826 4 827
3 826 827 828
3 231 159 4
3 232 159 231
3 232 17 159
3 829 232 830
3 233 831 833
3 831 232 832
3 831 832 833
3 233 17 232
3 233 70 17
3 234 70 233
3 234 0 70
3 234 834 836
3 836 835 0
3 834 835 836
3 838 837 234
3 235 839 841
3 841 840 1
3 839 840 841
3 843 842 235
3 120 844 846
3 846 845 51
3 844 845 846
3 848 847 120
3 184 121 11
3 236 121 184
3 236 52 121
3 849 236 850
3 851 236 852
3 853 52 854
3 855 854 236
3 853 854 855
3 857 856 52
3 237 858 859
3 237 860 862
3 860 54 861
3 860 861 862
3 123 237 53
3 238 237 123
3 238 54 237
3 238 148 54
3 239 148 238
3 239 13 148
3 863 124 864
3 865 864 12
3 863 864 865
3 240 866 868
3 866 124 867
3 866 867 868
3 240 55 124
3 125 869 871
3 869 240 870
3 869 870 871
3 241 240 125
3 241 55 240
3 241 239 55
3 242 239 241
3 242 13 239
3 242 195 13
3 243 195 242
3 243 34 195
3 127 243 56
3 244 243 127
3 244 34 243
3 244 94 34
3 245 94 244
3 245 2 94
3 872 57 873
3 874 57 875
3 876 245 877
3 878 877 57
3 876 877 878
3 246 879 881
3 879 245 880
3 879 880 881
3 246 2 245
3 246 221 2
3 247 221 246
3 247 47 221
3 882 247 883
3 248 884 886
3 884 247 885
3 884 885 886
3 248 47 247
3 248 110 47
3 249 110 248
3 249 8 110
3 887 58 888
3 128 889 890
3 250 891 893
3 893 892 128
3 891 892 893
3 250 894 896
3 894 58 895
3 894 895 896
3 250 249 58
3 251 249 250
3 251 8 249
3 251 176 8
3 252 176 251
3 252 25 176
3 130 252 59
3 253 252 130
3 253 25 252
3 253 80 25
3 235 80 253
3 235 1 80
3 897 91 898
3 254 899 901
3 899 91 900
3 899 900 901
3 254 3 91
3 131 902 903
3 255 904 906
3 906 905 131
3 904 905 906
3 255 907 908
3 255 909 911
3 909 254 910
3 909 910 911
3 256 254 255
3 256 3 254
3 256 218 3
3 257 218 256
3 257 45 218
3 133 257 60
3 258 257 133
3 258 45 257
3 258 912 914
3 914 913 45
3 912 913 914
3 916 915 258
3 185 917 919
3 917 134 918
3 917 918 919
3 920 134 921
3 922 921 185
3 920 921 922
3 923 61 924
3 925 924 134
3 923 924 925
3 926 61 927
3 929 928 61
3 259 930 931
3 259 932 933
3 136 259 62
3 260 259 136
3 260 934 936
3 936 935 259
3 934 935 936
3 260 937 938
3 261 939 941
3 941 940 260
3 939 940 941
3 261 942 943
3 261 944 946
3 944 85 945
3 944 945 946
3 262 85 261
3 262 29 85
3 138 262 63
3 263 262 138
3 263 29 262
3 263 947 949
3 949 948 29
3 947 948 949
3 264 950 952
3 952 951 263
3 950 951 952
3 264 953 954
3 187 139 14
3 265 139 187
3 265 64 139
3 141 265 30
3 266 265 141
3 266 64 265
3 266 264 64
3 955 264 956
3 957 956 266
3 955 956 957
3 959 958 264
3 960 53 961
3 143 962 963
3 267 964 966
3 966 965 143
3 964 965 966
3 267 967 969
3 967 53 968
3 967 968 969
3 267 122 53
3 268 122 267
3 268 12 122
3 191 144 15
3 269 144 191
3 269 65 144
3 970 269 971
3 972 971 32
3 970 971 972
3 270 973 975
3 973 269 974
3 973 974 975
3 270 65 269
3 270 268 65
3 976 268 977
3 978 977 270
3 976 977 978
3 979 12 980
3 981 980 268
3 979 980 981
3 983 982 12
3 203 984 986
3 984 89 985
3 984 985 986
3 987 89 988
3 989 988 203
3 987 988 989
3 991 990 89
3 993 992 37
3 995 994 40
3 996 76 997
3 998 997 0
3 996 997 998
3 271 999 1001
3 999 76 1000
3 999 1000 1001
3 271 21 76
3 1002 271 1003
3 1004 271 1005
3 1006 21 1007
3 1008 1007 271
3 1006 1007 1008
3 1009 170 1010
3 1011 1010 21
3 1009 1010 1011
3 1012 170 1013
3 1015 1014 170
3 1017 1016 42
3 193 147 7
3 1018 147 1019
3 1020 1019 193
3 1018 1019 1020
3 1022 1021 147
3 1023 79 1024
3 1025 1024 1
3 1023 1024 1025
3 1026 79 1027
3 1028 24 1029
3 1030 1029 79
3 1028 1029 1030
3 1031 24 1032
3 1033 175 1034
3 1035 1034 24
3 1033 1034 1035
3 1036 175 1037
3 1039 1038 175
3 219 93 3
3 272 93 219
3 272 33 93
3 1040 272 1041
3 1042 1041 46
3 1040 1041 1042
3 273 1043 1045
3 1043 272 1044
3 1043 1044 1045
3 273 33 272
3 273 194 33
3 274 194 273
3 274 1046 1048
3 1048 1047 194
3 1046 1047 1048
3 1049 274 1050
3 1051 274 1052
3 1054 1053 274
3 149 1055 1057
3 1057 1056 54
3 1055 1056 1057
3 1059 1058 149
3 275 1060 1061
3 275 1062 1063
3 196 150 13
3 276 150 196
3 276 66 150
3 152 276 35
3 277 276 152
3 277 66 276
3 277 275 66
3 278 275 277
3 278 1064 1066
3 1066 1065 275
3 1064 1065 1066
3 278 1067 1068
3 279 1069 1071
3 1071 1070 278
3 1069 1070 1071
3 279 1072 1073
3 154 279 67
3 1074 279 1075
3 1076 1075 154
3 1074 1075 1076
3 1078 1077 279
3 222 96 2
3 280 96 222
3 280 36 96
3 157 280 48
3 281 280 157
3 281 36 280
3 281 199 36
3 282 199 281
3 282 16 199
3 201 158 9
3 283 158 201
3 283 68 158
3 1079 283 1080
3 284 1081 1083
3 1081 283 1082
3 1081 1082 1083
3 284 68 283
3 284 282 68
3 285 282 284
3 285 16 282
3 285 155 16
3 286 155 285
3 286 1084 1086
3 1086 1085 155
3 1084 1085 1086
3 1087 286 1088
3 1089 1088 69
3 1087 1088 1089
3 1090 286 1091
3 1093 1092 286
