ply
format ascii 1.0
element vertex 734
property float x
property float y
property float z
element face 828
property list uchar int vertex_index
end_header
5.290642 92.216187 13.272218
-1.238522 98.245697 -6.819683
-8.816068 78.96788 13.594213
1.703861 71.965729 31.247068
6.071878 88.000343 -44.613766
10.891241 91.560295 18.951277
2.545226 95.914993 4.384449
8.411523 103.935837 -5.295657
-1.356327 86.498276 13.510772
-5.845136 89.410683 3.454483
-5.795286 63.968281 31.46624
-1.485542 93.430611 -36.870361
-13.478993 80.568687 3.90679
-10.268914 90.251869 -6.762197
-10.644199 67.742203 22.725607
-3.82166 75.830513 22.946648
3.70708 83.655731 21.84166
7.819668 92.088432 15.740464
4.156519 94.127647 9.295656
6.596077 98.236145 5.362895
2.372161 89.791832 13.402618
0.439478 91.46373 8.83088
-3.058753 98.472717 -12.488165
-0.068096 101.372604 -17.994732
1.902848 101.947395 -12.238676
11.842654 106.533417 -9.919051
-12.183507 74.567581 13.566277
-14.350509 75.378815 8.80468
-11.219787 79.803566 8.980708
-3.719533 93.989616 -1.438025
-8.092038 90.160362 -1.751182
-5.889757 94.488991 -6.922797
-7.972806 94.286812 -12.374844
-11.562975 61.843426 26.707647
-2.196039 67.883461 31.491142
-4.846037 70.106804 27.308802
-1.046348 74.216331 27.071938
-0.078989 79.894012 22.405714
2.732856 78.019577 26.680838
6.66969 82.372482 25.617872
5.749183 76.443893 30.475183
5.247106 100.621185 -33.545586
0.738994 97.389542 -1.089141
3.489361 101.404915 -6.326842
5.32098 100.30748 -0.426163
9.585421 102.109344 1.176534
-5.136065 83.063683 13.382799
-7.492592 84.265625 8.705955
-3.648046 88.138855 8.493389
-1.742771 92.876678 3.718219
2.232996 91.40303 -41.03204
3.362089 103.244049 -23.393318
6.984588 104.742287 -11.446501
-9.794367 85.288223 3.641474
-12.149324 85.521606 -1.226156
-14.263101 85.347298 -6.130548
-13.008141 68.803352 18.094801
-9.818384 73.433289 18.320133
-8.427734 65.762634 27.330189
-7.43575 71.803856 22.992861
-6.451282 77.502815 18.296204
-2.625168 81.436203 18.206879
0.993602 85.150833 17.672796
4.716454 88.632858 17.153891
7.439555 87.762665 20.552694
10.442877 86.482727 24.33975
3.82324 96.562225 -37.766983
7.675148 93.81398 -41.953545
6.297473 93.782425 12.113779
6.416703 92.254768 14.279999
4.779557 93.114494 11.496208
5.875546 95.027107 9.840781
4.022714 91.217377 13.288063
3.169619 92.048309 11.227593
-2.125009 98.48909 -9.705277
-0.712253 100.206894 -12.430669
0.29399 100.197754 -9.470554
-10.543666 76.75531 13.688595
-11.771672 77.12442 11.354138
-10.037725 79.383888 11.344782
-2.516292 96.220543 -4.153698
-4.859214 94.26622 -4.154461
-3.596316 96.393684 -6.823238
-4.594728 96.513161 -9.66145
-1.6572 71.049561 29.342392
0.206429 73.034096 29.166
0.872917 76.226959 26.836254
2.229273 74.938248 29.100628
4.197884 77.33223 28.48649
3.739152 74.126709 30.965315
3.534416 86.81102 -44.062176
5.417623 84.93959 -45.557938
7.283359 82.55114 -46.939156
8.041951 85.97612 -46.078285
1.703526 96.785629 1.616633
3.112203 99.089844 -1.026867
3.752653 98.083168 2.011795
8.149196 100.191422 3.521379
-3.295361 84.898491 13.294837
-4.426321 85.598259 11.003052
-2.486033 87.403915 10.982794
1.423168 93.829361 6.421281
-0.594569 92.165184 6.446232
0.336539 94.423859 3.98792
-0.496335 95.22821 1.330866
-0.423398 89.877251 -40.333939
0.176132 92.401253 -39.035789
2.521458 103.016357 -17.794071
1.767259 102.569687 -20.613472
4.430274 104.092789 -20.553782
5.932065 102.777 -5.918616
5.15592 103.178726 -8.888484
7.515206 104.336975 -8.348886
-13.960202 77.878494 6.553362
-14.510001 80.793091 1.438338
-6.75682 86.838791 6.096199
-8.727987 84.715866 6.234512
-7.93691 87.244423 3.651928
-9.292903 90.098412 -4.08612
-10.224376 87.786148 -1.392698
-11.291151 87.947632 -4.019037
-13.192331 85.623749 -3.823788
-12.376511 87.809937 -6.44909
-13.346812 87.592995 -8.863025
-11.366384 89.959152 -9.116126
-6.742817 95.921799 -15.074112
-12.180111 65.505211 22.544239
-13.315077 65.921486 20.327436
-11.911006 68.263542 20.379326
-11.419845 71.166847 18.298239
-10.261418 70.570984 20.567446
-8.899623 62.727253 29.317951
-7.117313 64.937714 29.438747
-4.334876 72.937836 25.236031
-6.242941 70.790642 25.282528
-5.595914 73.882156 23.035753
-6.943255 74.671799 20.71924
-5.091351 76.834778 20.57946
-4.610355 79.566841 18.137978
-3.359385 78.697838 20.451443
1.88303 81.841339 22.154863
0.507114 82.591637 20.08956
2.35418 84.507408 19.710264
2.893601 86.984566 17.382212
4.119692 86.23568 19.386654
5.976477 88.17852 18.823112
5.495142 85.66082 21.22859
8.127953 81.573311 27.538622
8.490949 84.411446 24.991545
10.084864 83.681168 26.94165
7.298891 99.955025 -35.906097
4.478444 98.679283 -35.761742
6.528544 97.620369 -38.219666
5.666492 95.322441 -39.948814
8.566114 96.567184 -40.119774
9.318926 91.966774 17.172279
3.456579 95.14045 6.853616
4.661551 97.221985 4.814498
5.336663 96.201233 7.371848
7.265352 97.09684 8.060978
0.588178 88.360733 13.307867
-0.591574 88.973686 11.127234
1.375891 90.628204 11.160867
2.357841 93.040573 8.819763
-4.247229 98.040581 -15.295433
-1.724841 99.971481 -15.334179
0.942195 101.774918 -14.978737
3.573378 103.404945 -14.928534
10.707986 104.767288 -4.481716
10.091319 105.381149 -7.65489
-13.663547 72.093994 13.661237
-14.742029 72.673141 11.039263
-13.31117 74.947395 11.22308
-12.779871 77.798431 8.84324
-12.3066 80.43084 6.300754
-4.945193 91.700172 0.922323
-7.095622 89.640976 1.027769
-5.968351 92.065132 -1.545491
-7.100202 92.314774 -4.288916
-8.184419 92.319946 -6.741756
-9.305774 92.222504 -9.509598
-7.085246 94.338135 -9.583746
-5.553524 96.42305 -12.360616
-12.581502 62.491566 24.649719
-11.105243 64.863655 24.704405
-4.083085 65.854431 31.512266
-5.366555 67.100304 29.374292
-3.593812 68.959152 29.439651
-3.001915 72.11882 27.242079
-2.448711 75.123276 24.966482
-1.977335 77.93428 22.630943
-0.602549 77.086433 24.750261
1.305569 78.988403 24.551916
3.211356 80.824638 24.340796
5.212799 83.00473 23.796669
4.763595 80.24984 26.183411
6.277532 79.494972 28.100616
7.6658 78.524033 30.057125
4.208638 102.413971 -28.699276
3.397239 100.948097 -31.1707
-0.224565 97.895088 -3.886913
1.19871 99.909302 -6.478389
2.015805 99.449287 -3.687173
4.433203 101.009186 -3.502922
6.815951 102.234093 -2.881204
5.970698 99.287056 2.614665
7.440195 101.253609 0.399438
9.09626 103.161514 -2.021607
11.343106 103.901825 -1.145968
-6.924756 81.056648 13.606935
-8.217258 81.646675 11.14152
-6.303894 83.655212 11.145347
-5.670479 86.013107 8.814453
-4.801167 88.712227 6.087492
-1.537338 89.840431 8.742799
-2.656881 90.571968 6.186952
-3.810238 91.255196 3.461417
-2.805229 93.472557 1.078287
-1.566891 95.746933 -1.405931
-2.629249 64.671745 33.58099
3.234044 70.822159 33.310036
1.655059 88.654442 -42.267807
4.238458 89.870667 -42.945858
0.710434 101.670441 -23.426765
2.437822 102.215584 -26.092787
5.321473 103.714584 -26.216627
2.674007 101.760498 -9.2959
4.535974 103.495995 -11.90514
9.398023 105.727036 -10.643668
-9.450929 82.142036 8.704691
-10.582528 82.582207 6.307483
-11.649879 83.06958 3.745895
-9.048421 87.701782 1.001194
-10.918272 85.498833 1.289219
-12.778604 83.232353 1.328067
-13.879245 83.254913 -1.07785
-14.934045 83.131546 -3.455997
-10.285757 91.943306 -11.97864
-13.950298 69.461227 15.803266
-12.496518 71.837471 15.927655
-11.002992 73.985092 16.039635
-9.346306 76.220726 16.000473
-10.507592 60.870888 28.908312
-10.048685 63.775871 27.065456
-9.554054 66.795502 25.055542
-6.664702 67.872574 27.444187
-7.968083 68.73494 25.243261
-9.093558 69.804001 22.868698
-8.673429 72.723282 20.567078
-8.260613 75.390625 18.344248
-7.632069 78.2118 16.042938
-5.867499 80.24575 15.890703
-4.005965 82.185776 15.79767
-2.140708 83.986473 15.747905
-1.485879 80.644913 20.265039
-0.825469 83.368141 17.889206
-0.129666 85.91201 15.602899
1.666878 87.585075 15.443388
3.480835 89.197807 15.294015
4.975977 90.632568 14.979084
6.242092 90.421425 16.404991
7.607267 90.028549 18.075323
9.227858 89.604782 19.930048
7.032876 85.179665 23.029539
8.901155 87.141983 22.434937
10.83539 89.065567 21.822519
12.456595 88.554054 23.578854
5.143047 73.122421 32.847996
7.12847 75.269112 32.516979
-0.983322 95.650551 -34.965904
2.598469 99.2202 -33.460999
1.757009 97.197594 -35.541496
1.0037 95.031097 -37.347298
2.860618 93.976059 -39.542622
4.922545 92.819748 -41.498955
6.675768 91.000839 -43.347797
10.404963 94.89267 -42.03965
9.530905 91.943611 -43.728783
8.603617 89.106705 -44.950279
0.955145 72.499912 30.206534
-0.004497 71.398064 30.367984
0.744219 70.86388 31.408518
11.788615 92.576427 18.369476
10.942053 92.707241 17.55086
11.743585 91.373317 19.815908
11.788615 92.576427 18.369476
-1.894051 92.219124 -37.531931
-2.782904 92.47411 -36.53667
-0.654705 92.915932 -37.953075
-1.063214 91.704445 -38.614645
-1.894051 92.219124 -37.531931
4.855434 104.326027 -19.126464
3.475866 103.554573 -19.173927
3.901025 103.787811 -17.746609
5.713545 104.729111 -20.45898
4.855434 104.326027 -19.126464
-14.247852 79.368851 3.964384
-14.488457 78.023754 5.28767
-13.719597 79.223591 5.230076
-13.994497 80.680889 2.672564
-14.763356 79.481053 2.730158
-14.247852 79.368851 3.964384
-7.192894 95.679916 -16.428437
-5.954641 96.749691 -16.506457
-6.4563 64.452997 30.452493
-7.328586 63.427597 30.413164
-6.667573 62.942881 31.42691
9.857001 82.074367 28.326477
9.106409 82.62724 27.240136
8.878545 81.020439 28.624963
10.818772 83.196224 27.947772
9.857001 82.074367 28.326477
7.926672 98.259537 -38.172534
6.913718 98.787697 -37.062882
8.311846 99.426865 -37.015749
8.945457 97.732945 -39.122587
7.547329 97.093776 -39.16972
7.926672 98.259537 -38.172534
8.590574 93.101024 15.093538
7.79641 93.045124 14.467761
8.569297 92.027603 16.456371
9.340203 93.040196 15.809445
8.590574 93.101024 15.093538
7.416051 96.385815 9.331936
6.570449 96.061973 8.950879
6.721148 95.350948 10.221837
8.163415 97.364219 8.540853
7.416051 96.385815 9.331936
11.591801 105.415058 -5.604064
11.796197 105.000347 -3.881579
-12.072239 62.167496 25.678683
-12.853594 61.065483 25.477584
-12.344331 60.741413 26.506549
8.135536 81.242627 -47.509276
8.535617 82.97181 -47.156666
5.236406 102.371311 -29.998807
5.650721 103.104363 -28.661293
-2.896591 63.017397 34.536913
-3.568267 63.664997 33.560869
-0.533976 101.064625 -19.438209
-1.319263 100.492378 -18.075613
6.531709 104.741917 -13.011029
5.307403 104.118771 -13.240349
5.760281 104.119141 -11.675821
-15.07077 74.169353 8.711937
-15.26653 72.816517 9.829229
-14.546269 74.025978 9.921971
-15.084876 84.140572 -6.011894
-15.420348 83.032696 -4.674618
-14.598573 84.239422 -4.793273
-14.740704 85.22842 -7.421489
-15.084876 84.140572 -6.011894
-13.788239 87.449337 -10.14857
-12.876597 88.593308 -10.310517
-13.679329 67.644596 18.026347
-13.832797 66.203663 19.142664
-13.161609 67.362419 19.211118
-13.479219 69.132289 16.949033
-14.150408 67.973534 16.880579
-13.679329 67.644596 18.026347
-9.928389 60.326109 30.01629
-10.70103 59.373494 29.854871
4.977374 71.47155 34.031721
4.188546 71.97229 33.079016
4.022872 70.321419 34.262741
7.942544 74.769825 33.519863
6.948078 73.689084 33.678976
8.170636 76.313294 32.374887
7.942544 74.769825 33.519863
-0.517582 96.678264 -34.033566
-1.916708 95.764358 -33.771612
11.789198 95.181312 -42.107466
10.876306 96.078721 -41.202324
10.494522 90.81361 -44.54269
10.84619 92.315262 -43.803646
10.030878 89.395157 -45.153439
9.067261 90.525158 -44.339531
10.494522 90.81361 -44.54269
9.621592 87.879349 -45.71323
10.030878 89.395157 -45.153439
7.035312 93.892121 12.654419
6.932111 94.728607 11.358336
7.094927 93.128292 13.737529
7.035312 93.892121 12.654419
6.357088 93.018597 13.196889
7.118186 92.1716 15.010231
7.79641 93.045124 14.467761
7.094927 93.128292 13.737529
6.932111 94.728607 11.358336
6.721148 95.350948 10.221837
6.08651 94.404766 10.97728
-11.797926 60.343937 27.635596
-12.344331 60.741413 26.506549
-0.936311 70.405797 30.456181
-1.926619 69.466511 30.416767
-1.205731 68.822746 31.530555
-0.725386 72.041829 29.254196
-0.936311 70.405797 30.456181
-0.004497 71.398064 30.367984
3.207374 85.269954 -44.474564
2.31354 86.202373 -43.694696
4.148978 84.334239 -45.222445
3.207374 85.269954 -44.474564
4.476019 85.875305 -44.810057
5.027636 83.31158 -45.897513
4.148978 84.334239 -45.222445
6.350491 83.745365 -46.248547
5.960504 82.117356 -46.588121
5.027636 83.31158 -45.897513
8.914913 84.684299 -46.72623
8.535617 82.97181 -47.156666
7.662655 84.26363 -46.50872
8.342489 99.560982 4.911179
7.372637 99.213784 4.442137
7.565929 98.583343 5.831936
9.164926 100.536934 3.964808
8.342489 99.560982 4.911179
9.883039 101.495895 2.792385
8.867309 101.150383 2.348956
9.164926 100.536934 3.964808
10.64871 102.431667 1.61557
9.883039 101.495895 2.792385
-1.362979 90.442444 -39.26372
-1.574748 89.116967 -39.95085
-0.123633 91.139252 -39.684864
-1.362979 90.442444 -39.26372
-1.063214 91.704445 -38.614645
5.240248 104.363239 -21.93746
4.706155 103.93887 -23.357228
3.896181 103.668419 -21.97355
5.240248 104.363239 -21.93746
5.713545 104.729111 -20.45898
11.449113 106.641518 -11.561102
12.628792 106.950989 -11.252761
-14.712129 76.708969 6.462686
-14.907283 75.45913 7.588344
-14.155356 76.628655 7.679021
-14.712129 76.708969 6.462686
-14.488457 78.023754 5.28767
-15.281947 79.522683 1.505999
-14.763356 79.481053 2.730158
-15.013174 80.804158 0.247897
-15.281947 79.522683 1.505999
-11.886384 89.776386 -10.437068
-12.876597 88.593308 -10.310517
-12.356598 88.776073 -8.989576
-7.911803 94.828751 -14.958215
-8.526797 94.011257 -13.608581
-7.357812 95.104305 -13.724478
-7.911803 94.828751 -14.958215
-7.192894 95.679916 -16.428437
-12.747594 65.713348 21.435837
-13.481728 64.570013 21.29371
-12.914245 64.361875 22.402112
-8.219741 62.322367 30.352766
-9.124405 61.254291 30.22111
-8.008468 63.832483 29.378349
-8.219741 62.322367 30.352766
-7.328586 63.427597 30.413164
11.067752 84.722359 26.600017
11.246758 86.123138 25.299067
10.26387 85.081947 25.6407
11.067752 84.722359 26.600017
10.818772 83.196224 27.947772
10.155895 92.910481 16.661361
9.340203 93.040196 15.809445
10.105083 91.763534 18.061778
10.942053 92.707241 17.55086
10.155895 92.910481 16.661361
7.900567 98.013691 7.180978
7.565929 98.583343 5.831936
6.930715 97.666493 6.711937
7.900567 98.013691 7.180978
8.163415 97.364219 8.540853
-2.474214 93.627736 -35.709474
-2.782904 92.47411 -36.53667
-3.408829 98.826367 -16.725963
-4.706847 97.809082 -16.617118
-2.147635 99.791816 -16.745337
-3.408829 98.826367 -16.725963
-2.986035 99.006031 -15.314806
-0.896469 100.672043 -16.664455
-1.319263 100.492378 -18.075613
-2.147635 99.791816 -16.745337
4.426985 103.982105 -16.31384
3.901025 103.787811 -17.746609
3.047418 103.210651 -16.361303
11.283468 105.721988 -7.190651
10.399653 105.074219 -6.068303
11.591801 105.415058 -5.604064
12.159135 106.298123 -8.322732
10.966987 105.957283 -8.78697
11.283468 105.721988 -7.190651
12.976706 106.788113 -9.557114
12.159135 106.298123 -8.322732
12.628792 106.950989 -11.252761
12.976706 106.788113 -9.557114
-14.202788 72.383567 12.35025
-14.871066 71.286041 12.21789
-14.331824 70.996467 13.528878
-4.706847 97.809082 -16.617118
-5.954641 96.749691 -16.506457
-5.495023 96.98119 -15.184772
-13.331118 61.47538 24.336165
-12.853594 61.065483 25.477584
-13.11494 62.855053 23.454852
-13.331118 61.47538 24.336165
-12.380807 63.998389 23.596979
-12.914245 64.361875 22.402112
-13.11494 62.855053 23.454852
8.647469 79.4958 29.884214
8.878545 81.020439 28.624963
7.896876 80.048672 28.797874
6.862995 80.92112 -47.206243
5.960504 82.117356 -46.588121
6.862995 80.92112 -47.206243
8.135536 81.242627 -47.509276
3.802938 101.681034 -29.934988
2.420735 100.927826 -29.85644
2.826434 101.660763 -28.620728
4.830706 101.638374 -31.234519
3.802938 101.681034 -29.934988
5.236406 102.371311 -29.998807
5.75564 101.474918 -32.421962
4.322172 100.784641 -32.358143
4.830706 101.638374 -31.234519
6.736539 101.250061 -33.595847
5.75564 101.474918 -32.421962
7.762431 100.916981 -34.776102
6.272998 100.288105 -34.725842
6.736539 101.250061 -33.595847
8.757918 100.535164 -35.856463
7.762431 100.916981 -34.776102
8.311846 99.426865 -37.015749
8.757918 100.535164 -35.856463
12.113757 104.567616 -2.213706
11.796197 105.000347 -3.881579
11.025546 104.334556 -2.813842
11.527553 103.327908 0.454319
10.464264 103.005584 0.015283
10.64871 102.431667 1.61557
12.352362 104.057068 -0.518159
11.527553 103.327908 0.454319
12.113757 104.567616 -2.213706
12.352362 104.057068 -0.518159
-6.068932 62.31864 32.442163
-6.667573 62.942881 31.42691
-5.151286 63.313265 32.503495
-6.068932 62.31864 32.442163
-4.295185 64.25634 32.526508
-4.939185 64.911356 31.489253
-5.151286 63.313265 32.503495
-3.356167 65.263088 32.546628
-4.295185 64.25634 32.526508
-3.568267 63.664997 33.560869
-1.933436 64.076014 34.527035
-2.896591 63.017397 34.536913
-1.67351 65.741203 33.526525
-1.933436 64.076014 34.527035
-1.456904 67.347061 32.481601
-2.412644 66.277603 32.536066
-1.67351 65.741203 33.526525
-1.205731 68.822746 31.530555
-1.456904 67.347061 32.481601
1.49107 70.400432 32.33701
0.744219 70.86388 31.408518
2.256162 69.828648 33.368494
2.468952 71.393944 32.278552
1.49107 70.400432 32.33701
3.062043 69.295533 34.347712
2.256162 69.828648 33.368494
4.022872 70.321419 34.262741
3.062043 69.295533 34.347712
-0.646738 88.463959 -40.940413
-1.574748 89.116967 -39.95085
0.392491 87.852554 -41.907347
-0.646738 88.463959 -40.940413
0.615831 89.265847 -41.300873
1.373862 87.124085 -42.797512
0.392491 87.852554 -41.907347
2.594737 87.732731 -43.164991
2.31354 86.202373 -43.694696
1.373862 87.124085 -42.797512
0.383701 101.663166 -20.747579
-0.533976 101.064625 -19.438209
0.849581 101.971146 -19.304102
-0.144711 101.213543 -22.154225
0.383701 101.663166 -20.747579
1.238846 102.120064 -22.020119
-0.586604 100.806343 -23.382365
-0.144711 101.213543 -22.154225
0.209985 101.120354 -24.672322
-0.586604 100.806343 -23.382365
1.07368 101.392926 -26.005333
0.209985 101.120354 -24.672322
1.574128 101.943013 -24.759776
1.941026 101.56157 -27.317484
1.07368 101.392926 -26.005333
3.32323 102.314778 -27.396031
2.826434 101.660763 -28.620728
1.941026 101.56157 -27.317484
6.207138 103.754669 -27.419968
5.650721 103.104363 -28.661293
4.765055 103.064278 -27.457952
5.685847 104.174137 -24.768883
4.341781 103.479317 -24.804972
4.706155 103.93887 -23.357228
6.605486 104.337311 -25.987219
5.685847 104.174137 -24.768883
6.207138 103.754669 -27.419968
6.605486 104.337311 -25.987219
4.826104 104.073246 -14.752046
4.054676 103.45047 -13.416837
5.307403 104.118771 -13.240349
4.426985 103.982105 -16.31384
4.826104 104.073246 -14.752046
10.226797 106.238327 -11.92341
10.620338 106.130226 -10.28136
11.449113 106.641518 -11.561102
9.043527 105.823341 -12.3468
10.226797 106.238327 -11.92341
7.836809 105.330967 -12.748216
8.191306 105.234662 -11.045084
9.043527 105.823341 -12.3468
6.531709 104.741917 -13.011029
7.836809 105.330967 -12.748216
-15.387795 71.406666 11.052738
-14.871066 71.286041 12.21789
-15.387795 71.406666 11.052738
-15.26653 72.816517 9.829229
-15.07077 74.169353 8.711937
-14.907283 75.45913 7.588344
-14.697795 82.035068 -1.010197
-15.013174 80.804158 0.247897
-14.194623 82.024002 0.180244
-15.225195 81.973385 -2.19927
-14.697795 82.035068 -1.010197
-14.406645 83.19323 -2.266923
-15.737776 81.880139 -3.419364
-15.225195 81.973385 -2.19927
-15.737776 81.880139 -3.419364
-15.420348 83.032696 -4.674618
-14.282559 86.351269 -8.787727
-14.740704 85.22842 -7.421489
-13.804956 86.470146 -7.496787
-14.282559 86.351269 -8.787727
-13.788239 87.449337 -10.14857
-11.34607 90.768463 -11.868325
-11.886384 89.776386 -10.437068
-10.826071 90.951229 -10.547383
-9.683273 92.839505 -13.41048
-9.129282 93.115059 -12.176742
-8.526797 94.011257 -13.608581
-10.753782 91.727158 -13.258039
-9.683273 92.839505 -13.41048
-11.34607 90.768463 -11.868325
-10.753782 91.727158 -13.258039
-14.041885 64.806923 20.069845
-13.481728 64.570013 21.29371
-14.041885 64.806923 20.069845
-13.832797 66.203663 19.142664
-14.61366 68.281505 15.694705
-14.150408 67.973534 16.880579
-14.4752 69.680084 14.599892
-14.61366 68.281505 15.694705
-13.806922 70.77761 14.732252
-14.331824 70.996467 13.528878
-14.4752 69.680084 14.599892
-11.270235 59.857668 28.735928
-10.70103 59.373494 29.854871
-11.035284 61.357157 27.80798
-11.797926 60.343937 27.635596
-11.270235 59.857668 28.735928
-9.703608 61.79907 29.113132
-9.928389 60.326109 30.01629
-9.124405 61.254291 30.22111
11.71566 90.125954 21.25153
11.743585 91.373317 19.815908
10.863316 90.312931 20.386898
12.526262 89.870197 22.129697
11.71566 90.125954 21.25153
11.645993 88.80981 22.700686
13.375978 89.585804 23.02863
12.526262 89.870197 22.129697
12.253618 87.158802 24.918619
11.449736 87.51839 23.959302
11.246758 86.123138 25.299067
13.190703 88.174194 24.480154
12.253618 87.158802 24.918619
13.375978 89.585804 23.02863
13.190703 88.174194 24.480154
5.955367 72.615738 33.844485
4.977374 71.47155 34.031721
6.135758 74.195767 32.682488
5.955367 72.615738 33.844485
6.948078 73.689084 33.678976
8.439301 77.940754 31.14496
7.397135 76.896573 31.287052
8.170636 76.313294 32.374887
8.647469 79.4958 29.884214
8.439301 77.940754 31.14496
-2.223104 94.737706 -34.757246
-1.916708 95.764358 -33.771612
-1.234432 94.540581 -35.918132
-2.474214 93.627736 -35.709474
-2.223104 94.737706 -34.757246
2.062056 100.205219 -31.043336
2.420735 100.927826 -29.85644
1.662671 99.341271 -32.188485
2.062056 100.205219 -31.043336
2.997854 100.084148 -32.315849
1.273313 98.463089 -33.281113
1.662671 99.341271 -32.188485
0.852584 97.451786 -34.321362
1.273313 98.463089 -33.281113
2.177739 98.208897 -34.501248
0.386844 96.424072 -35.2537
-0.517582 96.678264 -34.033566
0.852584 97.451786 -34.321362
9.956882 96.915977 -40.242386
8.945457 97.732945 -39.122587
9.485539 95.729927 -41.079712
9.956882 96.915977 -40.242386
10.876306 96.078721 -41.202324
11.283219 93.789792 -42.95908
11.789198 95.181312 -42.107466
9.967934 93.41814 -42.884217
11.283219 93.789792 -42.95908
10.84619 92.315262 -43.803646
9.340759 86.314056 -46.277233
8.322784 87.541413 -45.514282
9.621592 87.879349 -45.71323
8.914913 84.684299 -46.72623
9.340759 86.314056 -46.277233
3 0 69 68
3 0 68 70
3 0 70 72
3 1 76 74
3 2 79 77
3 1 82 80
3 1 74 82
3 3 279 281
3 279 85 280
3 279 280 281
3 3 87 85
3 3 89 87
3 4 91 90
3 4 93 91
3 5 282 283
3 5 284 285
3 6 96 94
3 8 100 98
3 6 103 101
3 6 94 103
3 11 286 287
3 11 288 290
3 288 106 289
3 288 289 290
3 291 109 292
3 293 292 107
3 291 292 293
3 295 294 109
3 7 112 110
3 12 296 298
3 298 297 113
3 296 297 298
3 12 299 301
3 299 114 300
3 299 300 301
3 9 117 115
3 13 120 118
3 13 122 120
3 13 124 122
3 303 302 125
3 14 128 126
3 14 130 128
3 10 304 306
3 304 132 305
3 304 305 306
3 15 135 133
3 15 137 135
3 15 139 137
3 16 142 140
3 16 144 142
3 16 146 144
3 307 149 308
3 309 308 147
3 307 308 309
3 311 310 149
3 312 152 313
3 314 313 150
3 312 313 314
3 315 154 316
3 317 316 152
3 315 316 317
3 17 318 319
3 17 320 322
3 320 155 321
3 320 321 322
3 18 158 156
3 323 159 324
3 325 324 71
3 323 324 325
3 327 326 159
3 20 162 160
3 18 163 73
3 18 156 163
3 22 165 164
3 24 166 75
3 24 167 166
3 329 328 168
3 26 172 170
3 28 173 78
3 28 174 173
3 29 177 175
3 31 178 81
3 31 179 178
3 31 181 179
3 22 182 83
3 22 164 182
3 33 330 332
3 330 183 331
3 330 331 332
3 33 184 183
3 34 187 185
3 36 188 84
3 36 189 188
3 36 191 189
3 38 192 86
3 38 193 192
3 38 195 193
3 40 196 88
3 40 197 196
3 334 333 92
3 336 335 198
3 42 202 200
3 44 203 95
3 44 204 203
3 19 205 157
3 45 206 97
3 45 207 206
3 45 208 207
3 46 211 209
3 48 212 99
3 48 213 212
3 21 214 161
3 49 215 102
3 49 216 215
3 49 217 216
3 42 218 104
3 42 200 218
3 337 219 338
3 50 221 105
3 50 222 221
3 23 339 340
3 51 223 108
3 51 224 223
3 51 225 224
3 43 226 201
3 52 227 111
3 52 341 343
3 343 342 227
3 341 342 343
3 25 228 169
3 27 344 346
3 346 345 171
3 344 345 346
3 47 229 210
3 53 230 116
3 53 231 230
3 30 232 176
3 54 233 119
3 54 234 233
3 54 235 234
3 55 236 121
3 55 347 349
3 349 348 236
3 347 348 349
3 55 350 351
3 353 352 123
3 32 237 180
3 56 354 356
3 356 355 127
3 354 355 356
3 56 357 359
3 357 238 358
3 357 358 359
3 56 239 238
3 57 240 129
3 57 241 240
3 360 242 361
3 58 243 131
3 58 244 243
3 35 245 186
3 59 246 134
3 59 247 246
3 59 248 247
3 60 249 136
3 60 250 249
3 60 251 250
3 61 252 138
3 61 253 252
3 37 254 190
3 62 255 141
3 62 256 255
3 62 257 256
3 63 258 143
3 63 259 258
3 63 260 259
3 64 261 145
3 64 262 261
3 39 263 194
3 65 264 148
3 65 265 264
3 65 266 265
3 362 267 363
3 364 363 220
3 362 363 364
3 365 268 366
3 368 367 268
3 369 269 370
3 41 270 199
3 66 271 151
3 66 272 271
3 66 273 272
3 67 274 153
3 67 275 274
3 371 276 372
3 373 277 374
3 375 278 376
3 377 376 277
3 375 376 377
3 379 378 278
3 68 380 381
3 69 382 384
3 384 383 68
3 382 383 384
3 69 385 387
3 385 17 386
3 385 386 387
3 70 71 18
3 68 71 70
3 68 388 390
3 390 389 71
3 388 389 390
3 72 73 20
3 70 73 72
3 70 18 73
3 74 75 22
3 76 75 74
3 76 24 75
3 77 78 26
3 79 78 77
3 79 28 78
3 80 81 29
3 82 81 80
3 82 31 81
3 82 83 31
3 74 83 82
3 74 22 83
3 391 33 392
3 393 84 394
3 395 394 34
3 393 394 395
3 85 396 398
3 396 84 397
3 396 397 398
3 85 36 84
3 85 86 36
3 87 86 85
3 87 38 86
3 87 88 38
3 89 88 87
3 89 40 88
3 90 399 400
3 91 401 403
3 403 402 90
3 401 402 403
3 91 404 405
3 91 406 408
3 406 92 407
3 406 407 408
3 93 92 91
3 93 409 411
3 411 410 92
3 409 410 411
3 94 95 42
3 96 95 94
3 96 44 95
3 412 97 413
3 414 413 19
3 412 413 414
3 415 97 416
3 417 45 418
3 419 418 97
3 417 418 419
3 421 420 45
3 98 99 46
3 100 99 98
3 100 48 99
3 101 102 21
3 103 102 101
3 103 49 102
3 103 104 49
3 94 104 103
3 94 42 104
3 422 105 423
3 106 424 426
3 424 105 425
3 424 425 426
3 106 50 105
3 107 108 23
3 109 108 107
3 109 51 108
3 109 427 429
3 429 428 51
3 427 428 429
3 431 430 109
3 110 111 43
3 112 111 110
3 112 52 111
3 433 432 25
3 113 434 436
3 436 435 27
3 434 435 436
3 438 437 113
3 114 439 440
3 114 441 442
3 115 116 47
3 117 116 115
3 117 53 116
3 118 119 30
3 120 119 118
3 120 54 119
3 120 121 54
3 122 121 120
3 122 55 121
3 122 123 55
3 124 123 122
3 124 443 445
3 445 444 123
3 443 444 445
3 125 446 448
3 448 447 32
3 446 447 448
3 450 449 125
3 126 451 453
3 451 127 452
3 451 452 453
3 128 127 126
3 128 56 127
3 128 129 56
3 130 129 128
3 130 57 129
3 454 131 455
3 132 456 458
3 456 131 457
3 456 457 458
3 132 58 131
3 133 134 35
3 135 134 133
3 135 59 134
3 135 136 59
3 137 136 135
3 137 60 136
3 137 138 60
3 139 138 137
3 139 61 138
3 140 141 37
3 142 141 140
3 142 62 141
3 142 143 62
3 144 143 142
3 144 63 143
3 144 145 63
3 146 145 144
3 146 64 145
3 147 148 39
3 149 148 147
3 149 65 148
3 149 459 461
3 461 460 65
3 459 460 461
3 463 462 149
3 150 151 41
3 152 151 150
3 152 66 151
3 152 153 66
3 154 153 152
3 154 67 153
3 155 464 465
3 155 466 468
3 466 5 467
3 466 467 468
3 156 157 6
3 158 157 156
3 158 19 157
3 71 158 18
3 159 158 71
3 159 19 158
3 159 469 471
3 471 470 19
3 469 470 471
3 473 472 159
3 160 161 8
3 162 161 160
3 162 21 161
3 73 162 20
3 163 162 73
3 163 21 162
3 163 101 21
3 156 101 163
3 156 6 101
3 474 11 475
3 164 476 477
3 165 478 480
3 480 479 164
3 478 479 480
3 165 481 483
3 481 23 482
3 481 482 483
3 75 165 22
3 166 165 75
3 166 23 165
3 166 107 23
3 167 107 166
3 167 484 486
3 486 485 107
3 484 485 486
3 168 169 7
3 487 169 488
3 489 488 168
3 487 488 489
3 490 25 491
3 492 491 169
3 490 491 492
3 493 25 494
3 496 495 25
3 170 497 499
3 497 171 498
3 497 498 499
3 172 171 170
3 172 27 171
3 78 172 26
3 173 172 78
3 173 27 172
3 173 113 27
3 174 113 173
3 174 12 113
3 175 176 9
3 177 176 175
3 177 30 176
3 81 177 29
3 178 177 81
3 178 30 177
3 178 118 30
3 179 118 178
3 179 13 118
3 179 180 13
3 181 180 179
3 181 32 180
3 83 181 31
3 182 181 83
3 182 32 181
3 182 125 32
3 164 125 182
3 164 500 502
3 502 501 125
3 500 501 502
3 183 503 504
3 183 505 506
3 183 507 509
3 507 126 508
3 507 508 509
3 184 126 183
3 184 14 126
3 185 186 10
3 187 186 185
3 187 35 186
3 84 187 34
3 188 187 84
3 188 35 187
3 188 133 35
3 189 133 188
3 189 15 133
3 189 190 15
3 191 190 189
3 191 37 190
3 86 191 36
3 192 191 86
3 192 37 191
3 192 140 37
3 193 140 192
3 193 16 140
3 193 194 16
3 195 194 193
3 195 39 194
3 88 195 38
3 196 195 88
3 196 39 195
3 196 147 39
3 197 147 196
3 197 510 512
3 512 511 147
3 510 511 512
3 92 513 514
3 516 515 92
3 198 517 519
3 517 199 518
3 517 518 519
3 520 199 521
3 522 521 198
3 520 521 522
3 523 41 524
3 525 524 199
3 523 524 525
3 526 41 527
3 528 150 529
3 530 529 41
3 528 529 530
3 531 150 532
3 534 533 150
3 200 201 1
3 202 201 200
3 202 43 201
3 95 202 42
3 203 202 95
3 203 43 202
3 203 110 43
3 204 110 203
3 204 7 110
3 157 96 6
3 205 96 157
3 205 44 96
3 97 205 19
3 206 205 97
3 206 44 205
3 206 204 44
3 207 204 206
3 207 7 204
3 207 168 7
3 208 168 207
3 208 535 537
3 537 536 168
3 535 536 537
3 538 208 539
3 540 539 45
3 538 539 540
3 541 208 542
3 544 543 208
3 209 210 2
3 211 210 209
3 211 47 210
3 99 211 46
3 212 211 99
3 212 47 211
3 212 115 47
3 213 115 212
3 213 9 115
3 161 100 8
3 214 100 161
3 214 48 100
3 102 214 21
3 215 214 102
3 215 48 214
3 215 213 48
3 216 213 215
3 216 9 213
3 216 175 9
3 217 175 216
3 217 29 175
3 104 217 49
3 218 217 104
3 218 29 217
3 218 80 29
3 200 80 218
3 200 1 80
3 545 10 546
3 547 10 548
3 549 185 550
3 551 550 10
3 549 550 551
3 219 552 554
3 552 185 553
3 552 553 554
3 219 34 185
3 555 219 556
3 557 219 558
3 559 34 560
3 561 560 219
3 559 560 561
3 563 562 34
3 564 3 565
3 566 220 567
3 568 567 3
3 566 567 568
3 569 220 570
3 572 571 220
3 105 573 574
3 221 575 577
3 577 576 105
3 575 576 577
3 221 578 579
3 221 580 582
3 580 90 581
3 580 581 582
3 222 90 221
3 222 4 90
3 108 583 585
3 585 584 23
3 583 584 585
3 223 586 588
3 588 587 108
3 586 587 588
3 223 589 590
3 223 591 592
3 224 593 595
3 595 594 223
3 593 594 595
3 224 596 597
3 224 598 600
3 598 198 599
3 598 599 600
3 225 198 224
3 225 601 603
3 603 602 198
3 601 602 603
3 604 225 605
3 606 605 51
3 604 605 606
3 607 225 608
3 610 609 225
3 201 76 1
3 226 76 201
3 226 24 76
3 111 226 43
3 227 226 111
3 227 24 226
3 227 167 24
3 611 167 612
3 613 612 227
3 611 612 613
3 615 614 167
3 169 112 7
3 228 112 169
3 228 52 112
3 616 228 617
3 618 617 25
3 616 617 618
3 619 228 620
3 621 52 622
3 623 622 228
3 621 622 623
3 625 624 52
3 171 626 627
3 629 628 171
3 631 630 27
3 210 79 2
3 229 79 210
3 229 28 79
3 116 229 47
3 230 229 116
3 230 28 229
3 230 174 28
3 231 174 230
3 231 12 174
3 176 117 9
3 232 117 176
3 232 53 117
3 119 232 30
3 233 232 119
3 233 53 232
3 233 231 53
3 234 231 233
3 234 12 231
3 234 114 12
3 235 114 234
3 235 632 634
3 634 633 114
3 632 633 634
3 121 235 54
3 236 235 121
3 236 635 637
3 637 636 235
3 635 636 637
3 236 638 639
3 641 640 236
3 123 642 644
3 644 643 55
3 642 643 644
3 646 645 123
3 180 124 13
3 237 124 180
3 237 647 649
3 649 648 124
3 647 648 649
3 650 237 651
3 652 651 32
3 650 651 652
3 653 237 654
3 656 655 237
3 127 657 658
3 660 659 127
3 238 661 662
3 238 663 664
3 238 665 667
3 665 170 666
3 665 666 667
3 239 170 238
3 239 26 170
3 129 239 56
3 240 239 129
3 240 26 239
3 240 77 26
3 241 77 240
3 241 2 77
3 242 668 669
3 242 670 672
3 670 33 671
3 670 671 672
3 131 673 675
3 673 242 674
3 673 674 675
3 243 242 131
3 243 33 242
3 243 184 33
3 244 184 243
3 244 14 184
3 186 132 10
3 245 132 186
3 245 58 132
3 134 245 35
3 246 245 134
3 246 58 245
3 246 244 58
3 247 244 246
3 247 14 244
3 247 130 14
3 248 130 247
3 248 57 130
3 136 248 59
3 249 248 136
3 249 57 248
3 249 241 57
3 250 241 249
3 250 2 241
3 250 209 2
3 251 209 250
3 251 46 209
3 138 251 60
3 252 251 138
3 252 46 251
3 252 98 46
3 253 98 252
3 253 8 98
3 190 139 15
3 254 139 190
3 254 61 139
3 141 254 37
3 255 254 141
3 255 61 254
3 255 253 61
3 256 253 255
3 256 8 253
3 256 160 8
3 257 160 256
3 257 20 160
3 143 257 62
3 258 257 143
3 258 20 257
3 258 72 20
3 259 72 258
3 259 0 72
3 259 69 0
3 260 69 259
3 260 17 69
3 145 260 63
3 261 260 145
3 261 17 260
3 261 155 17
3 262 155 261
3 262 5 155
3 194 146 16
3 263 146 194
3 263 64 146
3 148 263 39
3 264 263 148
3 264 64 263
3 264 262 64
3 265 262 264
3 265 5 262
3 265 676 678
3 678 677 5
3 676 677 678
3 266 679 681
3 681 680 265
3 679 680 681
3 266 682 683
3 684 266 685
3 686 685 65
3 684 685 686
3 687 266 688
3 690 689 266
3 220 89 3
3 267 89 220
3 267 40 89
3 691 267 692
3 268 693 695
3 693 267 694
3 693 694 695
3 268 40 267
3 268 197 40
3 696 197 697
3 698 697 268
3 696 697 698
3 700 699 197
3 269 701 702
3 269 703 705
3 703 11 704
3 703 704 705
3 199 706 707
3 270 708 710
3 710 709 199
3 708 709 710
3 270 711 712
3 151 270 41
3 271 270 151
3 271 713 715
3 715 714 270
3 713 714 715
3 271 716 718
3 716 269 717
3 716 717 718
3 272 269 271
3 272 11 269
3 272 106 11
3 273 106 272
3 273 50 106
3 153 273 66
3 274 273 153
3 274 50 273
3 274 222 50
3 275 222 274
3 275 4 222
3 719 154 720
3 276 721 723
3 721 154 722
3 721 722 723
3 276 67 154
3 724 276 725
3 277 726 728
3 726 276 727
3 726 727 728
3 277 67 276
3 277 275 67
3 278 275 277
3 278 4 275
3 278 93 4
3 729 93 730
3 731 730 278
3 729 730 731
3 733 732 93
