ply
format ascii 1.0
element vertex 224
property float x
property float y
property float z
element face 180
property list uchar int vertex_index
end_header
13.67175 27.895699 -18.814072
14.912522 27.145908 -13.550119
17.993128 24.871023 -9.890773
14.030133 27.68243 -15.970418
17.843542 32.29187 -11.312805
19.956491 31.024811 -9.837499
20.195299 23.925512 -8.576906
16.233707 26.167818 -11.553545
13.898439 28.210323 -22.114229
21.158579 30.271452 -9.147262
13.992917 25.258516 -19.420515
14.413662 27.303732 -14.695873
14.315395 24.488134 -15.277479
17.892742 28.661987 -10.586285
16.917854 29.112263 -11.398066
17.047232 25.554241 -10.695632
21.493464 23.340128 -7.949327
13.702745 28.073009 -20.35244
13.793329 27.625618 -17.288006
13.821352 30.66926 -16.865604
14.228806 30.786993 -15.532023
14.744718 30.535023 -14.345993
18.894434 31.728544 -10.534172
18.920471 27.893948 -9.832981
19.040581 24.4172 -9.208545
20.140493 27.474514 -9.154814
21.340458 26.886616 -8.543849
22.615452 26.073952 -7.919016
15.355659 30.224279 -13.297274
16.836117 32.61171 -12.16998
16.025896 29.61937 -12.351117
15.517015 26.530586 -12.485919
24.020077 25.675276 -7.324283
25.395061 25.009134 -6.695793
13.827376 26.417088 -18.362839
13.98796 25.098496 -18.666061
13.832334 26.577108 -19.117294
14.804884 25.567313 -13.769588
14.555454 25.646225 -14.342465
14.663092 27.22482 -14.122996
15.042816 25.477832 -13.197716
14.804884 25.567313 -13.769588
17.622235 23.518189 -9.976714
17.149287 23.859799 -10.379143
17.52018 25.212632 -10.293202
18.076727 23.18891 -9.597517
17.622235 23.518189 -9.976714
21.598248 21.666064 -7.657502
22.167423 23.060278 -7.652973
13.687247 27.984354 -19.583256
13.57553 29.578883 -20.094479
13.560032 29.490228 -19.325294
13.765402 32.311631 -17.328448
13.696985 30.723185 -17.568716
14.431401 32.309995 -15.389632
14.155305 32.281844 -16.015373
14.689357 32.18401 -14.796616
14.486762 30.661008 -14.939008
14.431401 32.309995 -15.389632
19.425463 31.376677 -10.185835
19.446275 33.288684 -10.526179
19.977304 32.936818 -10.177843
21.903132 28.355221 -8.529491
21.249519 28.579034 -8.845555
21.812192 30.047639 -8.831198
22.540629 27.948889 -8.217075
21.977955 26.480284 -8.231433
21.903132 28.355221 -8.529491
14.066195 26.160199 -16.239429
13.947793 26.131793 -16.898223
13.911731 27.654024 -16.629212
14.416398 23.122584 -15.584152
14.519611 22.972086 -14.951942
15.680982 31.679032 -13.198871
15.317003 31.905585 -13.709526
17.33983 32.45179 -11.741392
17.324338 34.205815 -12.137429
17.82805 34.045895 -11.708842
16.000357 24.64859 -11.676683
15.642012 24.829974 -12.14287
15.875361 26.349202 -12.019732
19.696109 22.426831 -8.595136
19.118749 22.672675 -8.910956
19.61794 24.171356 -8.892726
24.538172 27.013646 -7.277384
23.901003 27.428774 -7.599789
25.522402 23.279593 -6.415782
26.110991 24.785915 -6.366238
26.238332 23.056374 -6.086227
24.780266 23.632023 -6.744764
25.522402 23.279593 -6.415782
13.791626 29.521164 -22.635663
13.592261 30.858852 -22.302582
13.699074 29.548011 -21.781148
14.068564 28.257216 -23.005403
13.961751 29.568056 -23.526837
13.791626 29.521164 -22.635663
14.196099 26.949548 -22.424397
14.068564 28.257216 -23.005403
20.528881 32.508968 -9.812807
19.977304 32.936818 -10.177843
21.129925 32.132289 -9.467688
20.557535 30.648131 -9.49238
20.528881 32.508968 -9.812807
21.723867 31.800599 -9.126799
21.129925 32.132289 -9.467688
21.812192 30.047639 -8.831198
21.723867 31.800599 -9.126799
14.186107 23.95004 -19.051786
14.236065 24.182315 -19.793791
14.186107 23.95004 -19.051786
13.98796 25.098496 -18.666061
14.506321 24.238426 -14.633268
14.364529 25.895933 -14.986676
14.555454 25.646225 -14.342465
14.519611 22.972086 -14.951942
14.506321 24.238426 -14.633268
16.73087 23.99731 -10.801738
16.324107 24.304098 -11.230695
16.64047 25.86103 -11.124588
16.73087 23.99731 -10.801738
17.149287 23.859799 -10.379143
20.94482 21.88585 -7.958706
20.295738 22.178542 -8.272495
20.844381 23.63282 -8.263116
20.94482 21.88585 -7.958706
21.598248 21.666064 -7.657502
13.601227 29.479354 -20.900254
13.57553 29.578883 -20.094479
13.800592 28.141666 -21.233335
13.699074 29.548011 -21.781148
13.601227 29.479354 -20.900254
13.930813 26.830964 -20.723554
14.028661 26.899621 -21.604449
13.800592 28.141666 -21.233335
14.0759 25.423718 -20.257592
13.930813 26.830964 -20.723554
13.847831 26.665762 -19.886478
14.236065 24.182315 -19.793791
14.0759 25.423718 -20.257592
13.682973 29.201365 -17.779917
13.732539 27.760658 -18.051039
13.622184 29.336405 -18.54295
13.80734 29.147439 -17.076805
13.682973 29.201365 -17.779917
13.696985 30.723185 -17.568716
13.951578 32.222977 -16.682163
13.765402 32.311631 -17.328448
14.025079 30.728127 -16.198813
13.951578 32.222977 -16.682163
14.155305 32.281844 -16.015373
18.345817 33.71499 -11.281147
17.82805 34.045895 -11.708842
18.871263 33.433328 -10.891831
19.446275 33.288684 -10.526179
18.368988 32.010207 -10.923489
18.345817 33.71499 -11.281147
18.871263 33.433328 -10.891831
22.728417 24.42719 -7.637817
22.167423 23.060278 -7.652973
22.054458 24.70704 -7.934171
13.622184 29.336405 -18.54295
13.560032 29.490228 -19.325294
13.888166 26.282047 -17.599806
13.827376 26.417088 -18.362839
13.732539 27.760658 -18.051039
13.888166 26.282047 -17.599806
13.947793 26.131793 -16.898223
14.208827 24.563051 -15.892959
14.066195 26.160199 -16.239429
14.172764 26.085282 -15.623949
14.208827 24.563051 -15.892959
14.416398 23.122584 -15.584152
15.011533 32.060957 -14.233885
14.689357 32.18401 -14.796616
15.050189 30.379651 -13.821634
15.011533 32.060957 -14.233885
15.317003 31.905585 -13.709526
16.834043 34.503689 -12.616328
17.324338 34.205815 -12.137429
16.421211 32.872748 -12.635224
16.834043 34.503689 -12.616328
16.016101 31.376578 -12.725793
16.421211 32.872748 -12.635224
16.431007 31.11554 -12.260549
15.690777 29.921824 -12.824196
15.680982 31.679032 -13.198871
16.016101 31.376578 -12.725793
15.345063 25.170172 -12.665616
15.042816 25.477832 -13.197716
15.214768 26.838247 -13.018019
15.345063 25.170172 -12.665616
15.642012 24.829974 -12.14287
16.000357 24.64859 -11.676683
16.324107 24.304098 -11.230695
18.600454 22.961999 -9.256403
18.076727 23.18891 -9.597517
18.516855 24.644112 -9.549659
18.600454 22.961999 -9.256403
19.118749 22.672675 -8.910956
19.696109 22.426831 -8.595136
20.295738 22.178542 -8.272495
23.198691 27.628112 -7.897156
22.540629 27.948889 -8.217075
23.317765 25.874614 -7.62165
23.198691 27.628112 -7.897156
23.901003 27.428774 -7.599789
23.43073 24.227852 -7.340451
22.728417 24.42719 -7.637817
23.317765 25.874614 -7.62165
25.928007 26.465143 -6.618286
26.110991 24.785915 -6.366238
25.225664 26.680575 -6.963138
25.928007 26.465143 -6.618286
24.707569 25.342205 -7.010038
24.538172 27.013646 -7.277384
25.225664 26.680575 -6.963138
24.092775 23.965094 -7.059009
24.707569 25.342205 -7.010038
24.780266 23.632023 -6.744764
23.43073 24.227852 -7.340451
24.092775 23.965094 -7.059009
14.196099 26.949548 -22.424397
14.028661 26.899621 -21.604449
3 0 34 36
3 36 35 10
3 34 35 36
3 1 37 39
3 39 38 11
3 37 38 39
3 1 40 41
3 2 15 13
3 2 42 44
3 44 43 15
3 42 43 44
3 2 45 46
3 48 47 16
3 0 49 51
3 49 17 50
3 49 50 51
3 0 10 17
3 52 19 53
3 54 20 55
3 56 21 57
3 58 57 20
3 56 57 58
3 5 59 61
3 59 22 60
3 59 60 61
3 5 23 22
3 5 25 23
3 62 26 63
3 64 63 9
3 62 63 64
3 65 27 66
3 67 66 26
3 65 66 67
3 3 68 70
3 70 69 18
3 68 69 70
3 72 71 12
3 73 28 74
3 4 75 77
3 75 29 76
3 75 76 77
3 7 30 14
3 7 31 30
3 7 78 80
3 80 79 31
3 78 79 80
3 6 81 83
3 83 82 24
3 81 82 83
3 84 32 85
3 86 33 87
3 86 87 88
3 90 89 33
3 8 91 93
3 91 92 93
3 8 94 96
3 94 95 96
3 8 97 98
3 99 5 100
3 101 9 102
3 103 102 5
3 101 102 103
3 104 9 105
3 107 106 9
3 10 108 109
3 111 110 10
3 11 12 3
3 112 12 113
3 114 113 11
3 112 113 114
3 116 115 12
3 13 14 4
3 15 14 13
3 15 7 14
3 15 117 119
3 119 118 7
3 117 118 119
3 121 120 15
3 16 122 124
3 124 123 6
3 122 123 124
3 126 125 16
3 17 127 128
3 17 129 131
3 129 8 130
3 129 130 131
3 17 132 134
3 134 133 8
3 132 133 134
3 10 135 137
3 137 136 17
3 135 136 137
3 10 138 139
3 140 18 141
3 142 141 0
3 140 141 142
3 19 143 145
3 143 18 144
3 143 144 145
3 19 3 18
3 146 19 147
3 20 148 150
3 148 19 149
3 148 149 150
3 20 3 19
3 20 11 3
3 21 11 20
3 21 1 11
3 151 4 152
3 22 153 154
3 22 155 157
3 155 4 156
3 155 156 157
3 22 13 4
3 23 13 22
3 23 2 13
3 23 24 2
3 25 24 23
3 25 6 24
3 9 25 5
3 26 25 9
3 26 6 25
3 26 16 6
3 27 16 26
3 27 158 160
3 160 159 16
3 158 159 160
3 161 0 162
3 18 163 165
3 165 164 0
3 163 164 165
3 167 166 18
3 12 168 170
3 170 169 3
3 168 169 170
3 172 171 12
3 173 21 174
3 28 175 177
3 175 21 176
3 175 176 177
3 28 1 21
3 29 178 179
3 29 180 181
3 14 29 4
3 30 29 14
3 30 182 184
3 184 183 29
3 182 183 184
3 30 185 187
3 185 28 186
3 185 186 187
3 31 28 30
3 31 1 28
3 31 188 190
3 190 189 1
3 188 189 190
3 192 191 31
3 194 193 7
3 24 195 197
3 197 196 2
3 195 196 197
3 199 198 24
3 201 200 6
3 202 27 203
3 32 204 206
3 204 27 205
3 204 205 206
3 32 207 209
3 209 208 27
3 207 208 209
3 33 210 211
3 33 212 213
3 33 214 216
3 214 32 215
3 214 215 216
3 217 32 218
3 219 218 33
3 217 218 219
3 221 220 32
3 223 222 8
