ply
format ascii 1.0
element vertex 393
property float x
property float y
property float z
element face 405
property list uchar int vertex_index
end_header
39.5797 -25.612141 -44.669739
32.113571 -17.100584 -59.008057
40.57975 -15.331176 -41.602608
39.807377 -10.033036 -50.493679
36.448921 -5.256531 -58.734932
37.065498 -21.950941 -52.438225
39.614655 -29.006926 -36.329639
33.300034 10.04835 -64.121323
30.48975 -1.073428 -65.342247
40.369629 -20.1752 -43.301807
40.489174 -12.539334 -45.982841
39.961639 -17.78157 -47.515701
38.83165 -15.906879 -51.750401
38.677418 -23.707695 -48.72784
38.877636 -30.865978 -32.059418
34.668114 -11.356591 -59.116707
33.698982 -3.117537 -62.362423
31.651331 -8.788216 -62.323772
40.186665 -5.362729 -48.366028
38.523846 -7.824811 -54.611595
37.040668 -13.404509 -55.751751
34.857605 -19.433697 -55.986134
40.273842 -22.326719 -39.102909
39.879856 -27.247772 -40.531132
37.698925 -36.770782 -28.98834
38.493286 -35.994282 -33.140953
38.932564 -34.645615 -37.337467
35.164154 2.61628 -61.630436
32.067852 4.689155 -65.258591
40.053471 -22.965076 -43.953007
40.21862 -19.304037 -45.34705
39.832397 -21.720409 -46.074406
39.455429 -20.599991 -48.132099
39.242729 -24.457029 -46.750683
33.450893 -14.005194 -59.239178
33.139454 -10.187976 -60.809769
31.909554 -12.976199 -60.70089
30.321888 -11.895532 -62.00779
30.490187 -16.137774 -60.317783
40.589794 -11.771838 -42.6842
40.231071 -11.348484 -48.219135
40.373772 -8.876259 -47.334679
40.053898 -7.703946 -49.586262
39.591213 -6.20205 -51.761349
38.945625 -4.879153 -53.966324
39.251904 -8.830779 -52.581474
38.081738 -18.644064 -52.233353
38.076599 -14.467805 -53.767605
37.185268 -17.595953 -54.069225
36.131088 -16.393431 -55.862682
36.025879 -20.738588 -54.26413
39.703388 -26.732069 -35.494648
40.069687 -23.28297 -37.052227
39.96899 -25.846775 -37.607906
40.117626 -24.989264 -39.663979
39.77721 -28.442705 -38.358952
36.93922 -39.81842 -27.2253
37.434498 -39.341778 -29.334248
38.175816 -36.259151 -31.187645
37.848801 -38.958408 -31.544409
38.936241 -33.967625 -39.420464
37.070042 -2.285953 -58.268261
35.913494 -1.369007 -60.166157
32.123539 -2.080468 -63.946957
32.986767 0.85626 -63.843174
31.275679 1.932207 -65.473106
30.365316 5.838687 -66.807907
29.580635 2.719475 -66.794373
28.747688 -0.374093 -66.522072
40.540104 -17.531734 -42.545219
40.596703 -13.961702 -43.747444
40.481293 -16.499594 -44.599625
40.300732 -15.228508 -46.740479
39.937626 -13.975526 -49.025154
39.416729 -12.860793 -51.182663
39.487328 -16.716003 -49.703609
38.892719 -19.802931 -50.077648
37.969826 -22.592335 -50.717686
39.278648 -30.052481 -34.146748
34.823158 8.801751 -62.072746
35.626282 -8.191032 -59.07132
35.144917 -3.974267 -60.664051
34.306477 -7.111215 -60.752548
32.881584 -6.204051 -62.254906
31.186708 -5.005483 -63.808205
29.487879 -3.963211 -65.106041
29.914116 -7.938358 -63.60688
40.55249 -10.401594 -45.000294
40.408131 -6.702262 -46.120953
37.570992 -6.553785 -56.727051
38.759483 -11.710772 -53.205364
37.861423 -10.712534 -55.261074
36.842754 -9.472034 -57.187603
35.953426 -12.198713 -57.512581
34.84108 -15.382644 -57.556198
33.515812 -18.572008 -57.452484
40.456757 -16.630407 -39.456928
40.307892 -20.002537 -38.306389
40.480789 -18.697985 -40.466923
40.385612 -21.163685 -41.207535
40.170311 -23.771093 -41.873409
39.791176 -26.537354 -42.595753
38.319302 -33.873909 -30.529297
38.765228 -33.238762 -32.703129
39.103188 -32.550079 -34.739811
38.764126 -35.395012 -35.188435
39.323315 -31.934965 -36.733391
39.466656 -30.962809 -38.920517
39.411461 -30.325216 -41.036995
39.275185 -29.318251 -43.065926
38.928562 -28.601706 -45.063248
38.473301 -27.510746 -47.085163
37.737972 -26.781799 -49.036591
36.922554 -25.849354 -50.821693
35.832661 -24.903648 -52.648933
34.667114 -23.722582 -54.364014
33.352913 -22.880184 -55.808857
34.295856 6.513942 -62.953407
34.534531 -0.110267 -62.090397
33.721233 3.792339 -63.505493
32.804859 7.304097 -64.745438
31.060152 8.423479 -66.498329
40.584772 -13.551507 -42.143404
40.554857 -12.455389 -41.635551
40.549835 -14.235057 -41.094755
37.272802 -40.591318 -29.573381
37.020842 -40.915858 -28.453912
37.479954 -40.399633 -30.678462
37.641649 -39.150093 -30.439329
37.272802 -40.591318 -29.573381
32.680004 11.823846 -64.687588
33.490765 11.292243 -63.680806
32.463189 10.531274 -65.054993
32.680004 11.823846 -64.687588
39.115906 -29.291154 -32.775851
38.909252 -29.736102 -31.771768
39.078142 -30.459229 -33.103083
39.316412 -28.884405 -33.819516
39.115906 -29.291154 -32.775851
35.434299 8.394736 -61.041948
34.937929 10.091015 -61.628281
28.749688 -13.013348 -62.312534
29.495579 -11.486028 -62.54306
29.575997 -13.422852 -61.777264
40.176559 -4.305929 -47.830576
40.287292 -4.975696 -46.708039
40.297398 -6.032495 -47.243491
40.017359 -3.513994 -49.022883
40.176559 -4.305929 -47.830576
38.313647 -5.852448 -55.363453
38.524536 -4.379618 -55.040818
38.734735 -6.351982 -54.28896
38.047419 -7.189298 -55.669323
37.83722 -5.216935 -56.421181
38.313647 -5.852448 -55.363453
40.358078 -17.236499 -38.465666
40.406385 -15.552941 -38.936025
37.440562 -37.017686 -27.943843
37.060709 -38.541505 -27.062323
37.319073 -38.294601 -28.10682
37.770561 -35.595998 -28.741978
37.440562 -37.017686 -27.943843
38.009113 -35.322345 -29.758819
38.080749 -34.147562 -29.512456
37.770561 -35.595998 -28.741978
38.848345 -35.020314 -36.262951
38.538647 -36.730644 -35.457718
38.622866 -36.355946 -36.532234
39.100229 -31.786891 -41.260519
39.173851 -32.14642 -40.22873
38.86262 -33.608095 -40.452253
39.032091 -31.283409 -42.274985
39.343323 -29.821734 -42.05146
39.100229 -31.786891 -41.260519
38.480201 -30.038187 -45.326898
38.724277 -30.452344 -44.302613
38.252571 -29.492708 -46.337856
38.700931 -28.056226 -46.074206
38.480201 -30.038187 -45.326898
37.125631 -28.322242 -49.188591
37.550199 -28.781473 -48.240929
36.717922 -27.856019 -50.081142
37.330263 -26.315576 -49.929142
37.125631 -28.322242 -49.188591
35.107432 -26.341441 -52.719969
35.675488 -26.913117 -51.863948
34.524658 -25.750908 -53.577509
35.249887 -24.313115 -53.506473
35.107432 -26.341441 -52.719969
32.546735 -24.401255 -55.701032
33.23835 -24.964581 -54.987744
32.64994 -22.186485 -56.576205
32.546735 -24.401255 -55.701032
35.42466 3.983435 -61.275412
35.814686 2.066032 -60.614361
34.730005 4.565111 -62.291922
34.99051 5.932266 -61.936897
35.42466 3.983435 -61.275412
29.735234 7.479857 -67.44878
29.458939 5.983956 -67.433468
28.563175 -3.590115 -65.657234
28.888253 -5.49709 -64.891697
38.645674 -31.191056 -31.001559
38.909252 -29.736102 -31.771768
29.660146 -15.543973 -60.93226
29.575997 -13.422852 -61.777264
30.406038 -14.016653 -61.162786
40.543928 -10.682214 -42.24699
40.554857 -12.455389 -41.635551
40.551824 -10.080168 -43.334013
40.543928 -10.682214 -42.24699
39.932285 -5.815569 -50.121595
39.998669 -4.64496 -49.511478
40.120281 -6.533338 -48.976145
39.700943 -5.064621 -51.209139
39.932285 -5.815569 -50.121595
39.822555 -6.952998 -50.673806
39.437826 -4.428581 -52.326935
39.700943 -5.064621 -51.209139
39.268419 -5.540601 -52.863837
39.115032 -3.767133 -53.429423
39.437826 -4.428581 -52.326935
39.886538 -25.00752 -36.273438
39.910052 -23.840908 -35.969429
39.726902 -25.565458 -35.19064
36.773202 -41.154179 -27.399438
36.536957 -41.237713 -26.35424
36.370939 -42.573471 -26.528378
37.186859 -39.580099 -28.279774
36.773202 -41.154179 -27.399438
37.020842 -40.915858 -28.453912
38.652037 -36.035252 -37.541591
38.622866 -36.355946 -36.532234
38.653875 -35.696257 -38.58309
38.934403 -34.30662 -38.378965
38.652037 -36.035252 -37.541591
38.571849 -35.491433 -39.630016
38.653875 -35.696257 -38.58309
38.86262 -33.608095 -40.452253
38.571849 -35.491433 -39.630016
36.76763 -0.385085 -58.933273
37.355135 -1.155835 -57.807203
36.189356 0.073388 -59.882221
36.76763 -0.385085 -58.933273
36.491768 -1.82748 -59.217209
35.538824 0.623637 -60.898297
35.814686 2.066032 -60.614361
36.189356 0.073388 -59.882221
29.066598 4.424349 -67.426701
29.458939 5.983956 -67.433468
29.972976 4.279081 -66.80114
28.596791 2.979253 -67.391633
29.066598 4.424349 -67.426701
28.180317 1.432469 -67.255482
28.596791 2.979253 -67.391633
29.164161 1.172691 -66.658222
27.755714 0.039344 -67.087422
28.180317 1.432469 -67.255482
39.528782 -27.224199 -34.493465
39.726902 -25.565458 -35.19064
39.491018 -28.392275 -34.820698
39.528782 -27.224199 -34.493465
39.316412 -28.884405 -33.819516
34.252327 10.668944 -62.656517
34.937929 10.091015 -61.628281
34.061596 9.42505 -63.097035
33.490765 11.292243 -63.680806
34.252327 10.668944 -62.656517
29.101372 -7.484664 -64.142117
28.888253 -5.49709 -64.891697
29.700997 -5.950785 -64.35646
29.291694 -9.507442 -63.342605
30.118002 -9.916945 -62.807335
29.495579 -11.486028 -62.54306
29.101372 -7.484664 -64.142117
29.291694 -9.507442 -63.342605
40.533172 -9.395046 -44.49206
40.551824 -10.080168 -43.334013
40.571142 -11.086716 -43.842247
40.460993 -7.545381 -45.05239
40.533172 -9.395046 -44.49206
40.480311 -8.551928 -45.560623
40.370939 -5.725858 -45.540717
40.460993 -7.545381 -45.05239
40.370939 -5.725858 -45.540717
40.287292 -4.975696 -46.708039
40.017359 -3.513994 -49.022883
39.998669 -4.64496 -49.511478
38.752372 -3.072446 -54.556204
39.115032 -3.767133 -53.429423
38.752372 -3.072446 -54.556204
38.524536 -4.379618 -55.040818
37.586745 -3.083019 -57.191786
37.355135 -1.155835 -57.807203
37.320517 -4.419869 -57.497656
37.586745 -3.083019 -57.191786
37.83722 -5.216935 -56.421181
40.488338 -14.884673 -40.021915
40.406385 -15.552941 -38.936025
40.518254 -15.980792 -40.529768
40.549835 -14.235057 -41.094755
40.488338 -14.884673 -40.021915
40.061048 -22.189826 -36.640415
39.910052 -23.840908 -35.969429
40.180151 -20.54961 -37.267496
40.061048 -22.189826 -36.640415
40.188789 -21.642753 -37.679308
40.283646 -18.922564 -37.890396
40.180151 -20.54961 -37.267496
40.382325 -18.316472 -38.881659
40.358078 -17.236499 -38.465666
40.283646 -18.922564 -37.890396
36.679328 -39.990488 -26.20115
36.277065 -41.40978 -25.33009
36.536957 -41.237713 -26.35424
36.679328 -39.990488 -26.20115
37.060709 -38.541505 -27.062323
38.366507 -32.695021 -30.236498
38.080749 -34.147562 -29.512456
38.598469 -32.369943 -31.294358
38.645674 -31.191056 -31.001559
38.366507 -32.695021 -30.236498
37.64242 -40.255741 -31.794149
37.479954 -40.399633 -30.678462
38.007421 -38.705376 -32.646253
37.64242 -40.255741 -31.794149
38.329664 -37.223312 -33.444524
38.171043 -37.476345 -32.342681
38.007421 -38.705376 -32.646253
38.465084 -36.923677 -34.468266
38.538647 -36.730644 -35.457718
38.628706 -35.694647 -34.164694
38.329664 -37.223312 -33.444524
38.465084 -36.923677 -34.468266
38.897589 -30.810617 -43.303951
39.032091 -31.283409 -42.274985
39.101873 -28.959978 -44.064587
38.897589 -30.810617 -43.303951
38.724277 -30.452344 -44.302613
37.917864 -29.145947 -47.265215
38.252571 -29.492708 -46.337856
38.105637 -27.146273 -48.060877
37.917864 -29.145947 -47.265215
37.550199 -28.781473 -48.240929
36.220434 -27.38597 -50.950328
36.717922 -27.856019 -50.081142
36.377607 -25.376501 -51.735313
36.220434 -27.38597 -50.950328
35.675488 -26.913117 -51.863948
33.89545 -25.385779 -54.265322
34.524658 -25.750908 -53.577509
34.010013 -23.301383 -55.086436
33.89545 -25.385779 -54.265322
33.23835 -24.964581 -54.987744
32.73139 -20.032397 -57.398018
33.434362 -20.726096 -56.630671
32.64994 -22.186485 -56.576205
32.03027 -19.296685 -58.175804
32.814691 -17.836296 -58.230271
32.73139 -20.032397 -57.398018
31.305812 -18.729249 -58.815767
32.03027 -19.296685 -58.175804
30.49412 -18.247844 -59.47063
31.301879 -16.619179 -59.66292
31.305812 -18.729249 -58.815767
29.692882 -17.691333 -60.065591
30.49412 -18.247844 -59.47063
29.696815 -19.801403 -59.218439
29.660146 -15.543973 -60.93226
29.692882 -17.691333 -60.065591
35.254161 7.076171 -61.496567
35.434299 8.394736 -61.041948
34.559507 7.657846 -62.513076
35.254161 7.076171 -61.496567
34.99051 5.932266 -61.936897
32.215601 9.159148 -65.367051
32.463189 10.531274 -65.054993
33.052447 8.676223 -64.43338
31.343247 9.718839 -66.243496
32.215601 9.159148 -65.367051
31.932505 7.863788 -65.621883
30.41444 10.218001 -67.097698
31.343247 9.718839 -66.243496
30.082652 8.772253 -67.293991
30.712734 7.131083 -66.653118
29.735234 7.479857 -67.44878
30.41444 10.218001 -67.097698
30.082652 8.772253 -67.293991
28.193079 -1.795556 -66.36525
29.117784 -2.168652 -65.814056
28.563175 -3.590115 -65.657234
27.755714 0.039344 -67.087422
28.193079 -1.795556 -66.36525
3 0 31 29
3 0 33 31
3 1 36 34
3 1 38 36
3 2 122 124
3 122 39 123
3 122 123 124
3 3 42 40
3 3 43 42
3 3 45 43
3 5 48 46
3 5 50 48
3 6 53 51
3 6 55 53
3 125 57 126
3 127 59 128
3 129 128 57
3 127 128 129
3 7 130 131
3 7 132 133
3 4 62 61
3 8 65 63
3 8 67 65
3 8 68 67
3 9 71 69
3 11 72 30
3 11 73 72
3 11 75 73
3 13 76 32
3 13 77 76
3 14 134 135
3 14 136 138
3 136 78 137
3 136 137 138
3 139 79 140
3 15 82 80
3 17 83 35
3 17 84 83
3 17 86 84
3 143 142 37
3 141 142 143
3 10 87 70
3 18 88 41
3 18 144 146
3 146 145 88
3 144 145 146
3 18 147 148
3 19 149 151
3 151 150 44
3 149 150 151
3 19 152 154
3 152 89 153
3 152 153 154
3 12 90 74
3 20 91 47
3 20 92 91
3 20 93 92
3 21 94 49
3 21 95 94
3 155 96 156
3 22 97 52
3 22 98 97
3 22 99 98
3 23 100 54
3 23 101 100
3 24 157 159
3 159 158 56
3 157 158 159
3 24 160 161
3 24 162 164
3 162 102 163
3 162 163 164
3 25 103 58
3 25 104 103
3 26 165 167
3 165 105 166
3 165 166 167
3 26 106 105
3 26 107 106
3 168 108 169
3 170 169 60
3 168 169 170
3 171 109 172
3 173 172 108
3 171 172 173
3 174 110 175
3 176 111 177
3 178 177 110
3 176 177 178
3 179 112 180
3 181 113 182
3 183 182 112
3 181 182 183
3 184 114 185
3 186 115 187
3 188 187 114
3 186 187 188
3 189 116 190
3 192 191 116
3 27 193 194
3 27 195 197
3 195 117 196
3 195 196 197
3 16 118 81
3 28 119 64
3 28 120 119
3 28 121 120
3 199 198 66
3 201 200 85
3 29 30 9
3 31 30 29
3 31 11 30
3 31 32 11
3 33 32 31
3 33 13 32
3 202 14 203
3 34 35 15
3 36 35 34
3 36 17 35
3 36 37 17
3 38 37 36
3 38 204 206
3 206 205 37
3 204 205 206
3 39 207 208
3 39 209 210
3 40 41 10
3 42 41 40
3 42 18 41
3 42 211 213
3 213 212 18
3 211 212 213
3 43 214 216
3 216 215 42
3 214 215 216
3 43 217 218
3 43 219 221
3 219 44 220
3 219 220 221
3 45 44 43
3 45 19 44
3 46 47 12
3 48 47 46
3 48 20 47
3 48 49 20
3 50 49 48
3 50 21 49
3 51 222 224
3 222 52 223
3 222 223 224
3 53 52 51
3 53 22 52
3 53 54 22
3 55 54 53
3 55 23 54
3 225 56 226
3 225 226 227
3 57 228 230
3 228 56 229
3 228 229 230
3 57 24 56
3 57 58 24
3 59 58 57
3 59 25 58
3 231 26 232
3 233 60 234
3 235 234 26
3 233 234 235
3 236 60 237
3 239 238 60
3 61 240 241
3 62 242 244
3 244 243 61
3 242 243 244
3 62 245 247
3 245 27 246
3 245 246 247
3 63 64 16
3 65 64 63
3 65 28 64
3 65 66 28
3 67 66 65
3 67 248 250
3 250 249 66
3 248 249 250
3 67 251 252
3 68 253 255
3 255 254 67
3 253 254 255
3 68 256 257
3 69 70 2
3 71 70 69
3 71 10 70
3 30 71 9
3 72 71 30
3 72 10 71
3 72 40 10
3 73 40 72
3 73 3 40
3 73 74 3
3 75 74 73
3 75 12 74
3 32 75 11
3 76 75 32
3 76 12 75
3 76 46 12
3 77 46 76
3 77 5 46
3 258 51 259
3 78 260 262
3 260 51 261
3 260 261 262
3 78 6 51
3 79 263 264
3 79 265 267
3 265 7 266
3 265 266 267
3 80 81 4
3 82 81 80
3 82 16 81
3 35 82 15
3 83 82 35
3 83 16 82
3 83 63 16
3 84 63 83
3 84 8 63
3 84 85 8
3 86 85 84
3 86 268 270
3 270 269 85
3 268 269 270
3 37 86 17
3 271 86 272
3 273 272 37
3 271 272 273
3 275 274 86
3 70 39 2
3 87 39 70
3 87 276 278
3 278 277 39
3 276 277 278
3 41 87 10
3 88 87 41
3 88 279 281
3 281 280 87
3 279 280 281
3 88 282 283
3 285 284 88
3 287 286 18
3 44 288 289
3 291 290 44
3 292 61 293
3 89 294 296
3 294 61 295
3 294 295 296
3 89 4 61
3 74 45 3
3 90 45 74
3 90 19 45
3 47 90 12
3 91 90 47
3 91 19 90
3 91 89 19
3 92 89 91
3 92 4 89
3 92 80 4
3 93 80 92
3 93 15 80
3 49 93 20
3 94 93 49
3 94 15 93
3 94 34 15
3 95 34 94
3 95 1 34
3 96 297 298
3 96 299 301
3 299 2 300
3 299 300 301
3 52 302 303
3 97 304 306
3 306 305 52
3 304 305 306
3 97 307 308
3 97 309 311
3 309 96 310
3 309 310 311
3 98 96 97
3 98 2 96
3 98 69 2
3 99 69 98
3 99 9 69
3 54 99 22
3 100 99 54
3 100 9 99
3 100 29 9
3 101 29 100
3 101 0 29
3 56 312 314
3 312 313 314
3 316 315 56
3 102 317 318
3 102 319 321
3 319 14 320
3 319 320 321
3 58 102 24
3 103 102 58
3 103 14 102
3 103 78 14
3 104 78 103
3 104 6 78
3 322 59 323
3 324 59 325
3 326 25 327
3 328 327 59
3 326 327 328
3 105 329 330
3 105 331 333
3 331 25 332
3 331 332 333
3 105 104 25
3 106 104 105
3 106 6 104
3 106 55 6
3 107 55 106
3 107 23 55
3 60 107 26
3 108 107 60
3 108 23 107
3 108 101 23
3 109 101 108
3 109 0 101
3 334 109 335
3 110 336 338
3 336 109 337
3 336 337 338
3 110 0 109
3 110 33 0
3 111 33 110
3 111 13 33
3 339 111 340
3 112 341 343
3 341 111 342
3 341 342 343
3 112 13 111
3 112 77 13
3 113 77 112
3 113 5 77
3 344 113 345
3 114 346 348
3 346 113 347
3 346 347 348
3 114 5 113
3 114 50 5
3 115 50 114
3 115 21 50
3 349 115 350
3 116 351 353
3 351 115 352
3 351 352 353
3 116 21 115
3 116 95 21
3 354 95 355
3 356 355 116
3 354 355 356
3 357 1 358
3 359 358 95
3 357 358 359
3 360 1 361
3 362 38 363
3 364 363 1
3 362 363 364
3 365 38 366
3 365 366 367
3 369 368 38
3 370 79 371
3 117 372 374
3 372 79 373
3 372 373 374
3 117 7 79
3 81 62 4
3 118 62 81
3 118 27 62
3 64 118 16
3 119 118 64
3 119 27 118
3 119 117 27
3 120 117 119
3 120 7 117
3 120 375 377
3 377 376 7
3 375 376 377
3 121 378 380
3 380 379 120
3 378 379 380
3 121 381 382
3 66 121 28
3 383 121 384
3 385 384 66
3 383 384 385
3 387 386 121
3 85 68 8
3 388 68 389
3 390 389 85
3 388 389 390
3 392 391 68
