ply
format ascii 1.0
element vertex 101
property float x
property float y
property float z
element face 75
property list uchar int vertex_index
end_header
5.876871 29.188263 -66.081619
4.33689 34.947739 -60.201073
3.503626 30.835701 -62.701019
2.84094 26.296265 -64.370979
3.887911 32.903316 -61.568604
5.53549 27.073992 -67.008179
3.967481 25.464836 -66.051239
7.115584 28.384626 -67.659943
4.640653 29.881056 -64.444366
3.054019 28.526157 -63.589901
4.580373 25.074119 -66.873752
4.751486 26.269414 -66.529709
5.364377 25.878698 -67.352222
3.861464 24.286 -66.307098
4.580373 25.074119 -66.873752
7.809527 27.973197 -68.403435
8.024628 28.925362 -67.920208
8.718571 28.513933 -68.6637
6.961625 27.298863 -68.120636
7.809527 27.973197 -68.403435
4.545135 35.919032 -59.421872
5.203873 35.398724 -60.201783
3.756755 35.624872 -59.341811
4.545135 35.919032 -59.421872
3.562136 34.513824 -60.03805
3.756755 35.624872 -59.341811
2.932993 31.357111 -61.833793
3.125135 32.390918 -61.267586
3.695768 31.869508 -62.134811
2.781668 30.27047 -62.294101
2.932993 31.357111 -61.833793
5.258762 29.53466 -65.262992
5.474881 30.535926 -64.689343
6.092989 30.189529 -65.507969
2.94748 27.411211 -63.98044
3.662009 28.114587 -64.479109
3.55547 26.99964 -64.869648
2.321152 26.769005 -63.541769
2.427691 27.883951 -63.15123
2.94748 27.411211 -63.98044
2.243874 25.471315 -63.88014
2.321152 26.769005 -63.541769
4.904013 34.468787 -60.987707
5.203873 35.398724 -60.201783
4.679523 33.446575 -61.671473
4.1124 33.925528 -60.884839
4.904013 34.468787 -60.987707
4.489086 32.446872 -62.421877
4.679523 33.446575 -61.671473
4.296944 31.413065 -62.988084
3.695768 31.869508 -62.134811
4.489086 32.446872 -62.421877
4.902745 27.388504 -66.188248
5.073436 28.445639 -65.724968
5.706181 28.131127 -66.544899
4.11874 26.583926 -65.709778
4.902745 27.388504 -66.188248
4.751486 26.269414 -66.529709
3.40421 25.88055 -65.211109
3.55547 26.99964 -64.869648
4.11874 26.583926 -65.709778
3.306526 24.613619 -65.509716
2.743255 25.029334 -64.669586
3.40421 25.88055 -65.211109
3.306526 24.613619 -65.509716
3.861464 24.286 -66.307098
6.706544 29.724448 -66.361519
6.092989 30.189529 -65.507969
7.3259 29.322629 -67.15068
8.024628 28.925362 -67.920208
6.496227 28.786445 -66.870781
6.706544 29.724448 -66.361519
7.3259 29.322629 -67.15068
6.171577 26.643546 -67.794754
6.325537 27.729309 -67.334061
6.961625 27.298863 -68.120636
5.364377 25.878698 -67.352222
6.171577 26.643546 -67.794754
3.337646 33.491613 -60.721816
3.562136 34.513824 -60.03805
4.1124 33.925528 -60.884839
3.337646 33.491613 -60.721816
3.125135 32.390918 -61.267586
4.865457 30.935742 -63.859758
5.474881 30.535926 -64.689343
4.07214 30.358379 -63.572693
4.296944 31.413065 -62.988084
4.865457 30.935742 -63.859758
4.455326 28.792036 -64.906341
5.258762 29.53466 -65.262992
5.073436 28.445639 -65.724968
3.847336 29.203606 -64.017133
4.455326 28.792036 -64.906341
3.662009 28.114587 -64.479109
2.556864 29.115698 -62.738542
2.781668 30.27047 -62.294101
3.278822 29.680929 -63.14546
2.556864 29.115698 -62.738542
2.427691 27.883951 -63.15123
2.243874 25.471315 -63.88014
2.743255 25.029334 -64.669586
3 10 6 11
3 12 11 5
3 10 11 12
3 14 13 6
3 15 7 16
3 15 16 17
3 19 18 7
3 1 20 21
3 1 22 23
3 1 24 25
3 2 26 28
3 28 27 4
3 26 27 28
3 2 29 30
3 0 31 33
3 31 8 32
3 31 32 33
3 3 34 36
3 34 9 35
3 34 35 36
3 3 37 39
3 39 38 9
3 37 38 39
3 3 40 41
3 42 1 43
3 44 4 45
3 46 45 1
3 44 45 46
3 47 4 48
3 49 2 50
3 51 50 4
3 49 50 51
3 5 52 54
3 54 53 0
3 52 53 54
3 6 55 57
3 57 56 5
3 55 56 57
3 6 58 60
3 58 3 59
3 58 59 60
3 6 61 63
3 63 62 3
3 61 62 63
3 65 64 6
3 66 0 67
3 7 68 69
3 7 70 72
3 70 0 71
3 70 71 72
3 7 5 0
3 73 5 74
3 75 74 7
3 73 74 75
3 77 76 5
3 4 78 80
3 80 79 1
3 78 79 80
3 82 81 4
3 8 83 84
3 8 85 87
3 85 2 86
3 85 86 87
3 88 8 89
3 90 89 0
3 88 89 90
3 9 91 93
3 91 8 92
3 91 92 93
3 9 2 8
3 9 94 96
3 96 95 2
3 94 95 96
3 98 97 9
3 100 99 3
