ply
format ascii 1.0
element vertex 126
property float x
property float y
property float z
element face 91
property list uchar int vertex_index
end_header
15.770384 19.823299 -21.647617
15.273171 23.466028 -23.47094
15.559017 18.467215 -19.05599
17.253422 14.378525 -18.777065
15.545788 21.310804 -22.408566
15.386925 28.252796 -27.951511
15.486334 17.929113 -17.674999
16.304306 16.377657 -18.777014
16.35218 15.413348 -17.360813
15.017047 25.7784 -24.618792
16.36735 14.660743 -15.927656
15.13402 21.136513 -20.925602
15.646318 19.228035 -20.527197
16.371529 17.289221 -20.292524
16.061087 19.725389 -22.259917
15.948788 20.469141 -22.640391
15.658086 20.567051 -22.028092
15.092428 28.171351 -26.907291
14.929557 29.493011 -27.49732
15.964509 16.249491 -16.806342
15.919257 16.671231 -17.517906
15.531586 17.507373 -16.963435
15.615353 23.502007 -24.408152
15.487291 24.658192 -24.982078
15.145109 24.622214 -24.044866
15.049785 20.890549 -20.217787
14.806617 22.121313 -20.546335
14.806617 22.121313 -20.546335
14.976819 22.133486 -21.32593
17.267048 14.913678 -19.532301
16.79249 15.913244 -19.532276
16.778864 15.378091 -18.77704
17.791719 14.01991 -19.537534
17.805345 14.555063 -20.29277
17.267048 14.913678 -19.532301
16.821351 13.973254 -16.567207
16.824345 13.492553 -15.746885
15.869305 21.35025 -23.242345
15.732997 22.427862 -23.773532
15.409479 22.388416 -22.939753
15.869305 21.35025 -23.242345
15.948788 20.469141 -22.640391
15.196091 29.497593 -28.551527
14.929557 29.493011 -27.49732
15.711903 28.331207 -29.001024
15.521069 29.576004 -29.60104
15.196091 29.497593 -28.551527
15.356261 25.806137 -25.631919
15.246703 26.96189 -26.254058
14.907489 26.934153 -25.240931
15.356261 25.806137 -25.631919
15.487291 24.658192 -24.982078
15.615353 23.502007 -24.408152
15.732997 22.427862 -23.773532
16.044824 15.482248 -15.380292
15.972094 15.873188 -16.089764
16.4356 14.207308 -15.197703
16.044824 15.482248 -15.380292
16.113075 15.028813 -14.650339
16.824345 13.492553 -15.746885
16.4356 14.207308 -15.197703
15.5412 27.043335 -27.298279
15.092428 28.171351 -26.907291
15.246703 26.96189 -26.254058
15.912475 27.110769 -28.322845
15.5412 27.043335 -27.298279
15.711903 28.331207 -29.001024
15.912475 27.110769 -28.322845
15.305934 19.93631 -20.018585
15.390169 20.182274 -20.726399
15.049785 20.890549 -20.217787
15.262284 19.5559 -19.282981
15.602668 18.847625 -19.791594
15.305934 19.93631 -20.018585
15.208113 19.374688 -18.576036
15.262284 19.5559 -19.282981
15.171771 19.105638 -17.88554
15.522676 18.198164 -18.365495
15.208113 19.374688 -18.576036
15.194973 18.804217 -17.211206
15.171771 19.105638 -17.88554
15.531586 17.507373 -16.963435
15.194973 18.804217 -17.211206
14.627868 27.041254 -24.257685
14.907489 26.934153 -25.240931
14.755403 25.733587 -23.676678
14.627868 27.041254 -24.257685
14.883465 24.577401 -23.102752
15.145109 24.622214 -24.044866
14.755403 25.733587 -23.676678
15.046394 23.298243 -22.598599
14.883465 24.577401 -23.102752
15.182703 22.220631 -22.067411
15.409479 22.388416 -22.939753
15.046394 23.298243 -22.598599
15.339904 21.223658 -21.667084
15.182703 22.220631 -22.067411
14.976819 22.133486 -21.32593
16.032713 18.768065 -21.103216
16.094746 19.065697 -21.663426
15.708351 19.525667 -21.087407
16.395318 17.798659 -20.985879
16.032713 18.768065 -21.103216
16.008924 18.258628 -20.409861
16.84833 16.968428 -21.068769
16.395318 17.798659 -20.985879
16.826102 16.369027 -20.290031
16.337917 16.833439 -19.534769
16.79249 15.913244 -19.532276
16.84833 16.968428 -21.068769
16.826102 16.369027 -20.290031
16.359765 15.037045 -16.644234
15.964509 16.249491 -16.806342
15.972094 15.873188 -16.089764
16.813766 14.349557 -17.283785
16.359765 15.037045 -16.644234
16.821351 13.973254 -16.567207
17.264387 13.832145 -17.991911
16.802801 14.895936 -18.068939
16.813766 14.349557 -17.283785
17.774544 13.412364 -18.711278
17.264387 13.832145 -17.991911
17.791719 14.01991 -19.537534
17.774544 13.412364 -18.711278
16.061087 19.725389 -22.259917
16.094746 19.065697 -21.663426
3 0 14 16
3 16 15 4
3 14 15 16
3 17 5 18
3 19 8 20
3 21 20 6
3 19 20 21
3 1 22 24
3 24 23 9
3 22 23 24
3 26 25 11
3 27 11 28
3 2 13 12
3 3 29 31
3 31 30 7
3 29 30 31
3 3 32 34
3 32 33 34
3 36 35 10
3 4 37 39
3 39 38 1
3 37 38 39
3 41 40 4
3 5 42 43
3 5 44 46
3 44 45 46
3 6 7 2
3 8 7 6
3 8 3 7
3 9 47 49
3 47 48 49
3 51 50 9
3 53 52 1
3 54 10 55
3 56 10 57
3 56 57 58
3 60 59 10
3 61 5 62
3 61 62 63
3 64 5 65
3 67 66 5
3 11 12 0
3 68 12 69
3 70 69 11
3 68 69 70
3 71 2 72
3 73 72 12
3 71 72 73
3 74 2 75
3 76 6 77
3 78 77 2
3 76 77 78
3 79 6 80
3 82 81 6
3 83 9 84
3 85 9 86
3 87 1 88
3 89 88 9
3 87 88 89
3 90 1 91
3 92 4 93
3 94 93 1
3 92 93 94
3 11 95 97
3 95 4 96
3 95 96 97
3 11 0 4
3 12 98 100
3 100 99 0
3 98 99 100
3 13 101 103
3 103 102 12
3 101 102 103
3 13 104 105
3 7 13 2
3 106 13 107
3 108 107 7
3 106 107 108
3 110 109 13
3 10 111 113
3 111 8 112
3 111 112 113
3 114 8 115
3 116 115 10
3 114 115 116
3 117 3 118
3 119 118 8
3 117 118 119
3 120 3 121
3 123 122 3
3 125 124 0
