ply
format ascii 1.0
element vertex 123
property float x
property float y
property float z
element face 103
property list uchar int vertex_index
end_header
-4.647708 70.937546 -42.396343
-7.347888 73.580124 -39.45919
-4.278085 76.959099 -42.077862
-1.131218 73.218102 -44.922554
1.968162 68.288681 -47.405254
-3.246153 69.01828 -43.819118
-5.787256 78.26725 -40.57375
-0.655558 76.240364 -44.781601
0.935283 74.258408 -46.022064
0.478861 70.934067 -46.230518
2.535097 71.862312 -47.198895
-5.951653 72.544525 -41.012646
-8.823518 77.389091 -37.54858
-7.344409 76.471634 -39.279064
-5.887982 75.267906 -40.863308
-4.326736 73.891098 -42.420341
-2.194504 78.213852 -43.428162
-2.635634 75.230797 -43.602776
-2.89034 72.054436 -43.798397
-1.451218 69.993248 -45.104664
-0.074422 67.779205 -46.302536
1.221365 65.096603 -47.43853
-4.690332 69.415543 -42.456446
-5.342842 70.288376 -41.71587
-3.94693 69.977913 -43.107731
-3.989554 68.45591 -43.167833
-4.690332 69.415543 -42.456446
2.134127 74.719383 -46.542122
1.241767 75.86055 -45.912987
2.934034 73.521335 -47.130538
1.73519 73.06036 -46.610479
2.134127 74.719383 -46.542122
3.716044 72.120082 -47.675427
2.934034 73.521335 -47.130538
-7.288769 72.266762 -39.540829
-7.931036 72.781982 -38.736415
-6.649771 73.062324 -40.235918
-6.590651 71.748963 -40.317556
-7.288769 72.266762 -39.540829
-7.363919 77.877529 -39.072096
-8.083963 76.930363 -38.413822
-8.103473 78.336257 -38.206854
-1.118111 78.853752 -43.976056
-2.028828 79.764156 -43.194512
-0.952435 80.404056 -43.742405
2.626527 66.982273 -47.901356
2.253129 65.386234 -47.917994
1.594764 66.692642 -47.421892
-8.040676 74.136097 -38.624657
-7.931036 72.781982 -38.736415
-3.348524 67.390087 -43.88553
-3.989554 68.45591 -43.167833
-2.603693 67.915173 -44.460253
-3.348524 67.390087 -43.88553
-5.688786 79.631005 -40.390919
-6.585342 78.775337 -39.719439
-4.834633 79.0313 -41.229776
-5.688786 79.631005 -40.390919
-4.080048 78.377224 -41.981833
-5.032671 77.613174 -41.325806
-4.834633 79.0313 -41.229776
0.446347 76.851528 -45.292755
-0.348638 77.867008 -44.652775
0.139863 75.249386 -45.401832
0.446347 76.851528 -45.292755
1.241767 75.86055 -45.912987
3.228727 70.483135 -47.706826
2.945259 68.69632 -47.810005
2.251629 70.075496 -47.302075
3.228727 70.483135 -47.706826
3.716044 72.120082 -47.675427
-5.994814 71.091865 -41.024022
-6.590651 71.748963 -40.317556
-5.299681 71.741035 -41.704494
-5.342842 70.288376 -41.71587
-5.994814 71.091865 -41.024022
-9.590564 77.721683 -36.565134
-9.440601 76.444988 -36.809282
-8.883197 78.736942 -37.284664
-9.590564 77.721683 -36.565134
-9.650243 79.069535 -36.301218
-8.103473 78.336257 -38.206854
-8.883197 78.736942 -37.284664
-8.778491 76.040581 -37.669352
-9.440601 76.444988 -36.809282
-8.038937 75.581852 -38.534593
-8.778491 76.040581 -37.669352
-8.083963 76.930363 -38.413822
-7.346148 75.025879 -39.369127
-8.040676 74.136097 -38.624657
-8.038937 75.581852 -38.534593
-6.565832 77.369442 -39.926407
-7.363919 77.877529 -39.072096
-6.585342 78.775337 -39.719439
-3.038257 79.004601 -42.656982
-2.028828 79.764156 -43.194512
-3.236294 77.586476 -42.753012
-4.080048 78.377224 -41.981833
-3.038257 79.004601 -42.656982
-1.425031 77.227108 -44.104882
-1.118111 78.853752 -43.976056
-0.348638 77.867008 -44.652775
-1.706226 68.402657 -45.103026
-2.603693 67.915173 -44.460253
-2.348686 69.505764 -44.461891
-1.017828 67.295635 -45.701962
-1.706226 68.402657 -45.103026
-0.76282 68.886226 -45.7036
-0.391614 66.181411 -46.302016
-1.017828 67.295635 -45.701962
0.25628 64.840111 -46.870013
-0.391614 66.181411 -46.302016
0.573472 66.437904 -46.870533
0.824794 63.587828 -47.42469
0.25628 64.840111 -46.870013
1.782438 63.789279 -47.923826
1.385867 62.280504 -47.909987
0.824794 63.587828 -47.42469
1.782438 63.789279 -47.923826
2.253129 65.386234 -47.917994
3.603625 67.389912 -48.306106
2.626527 66.982273 -47.901356
2.945259 68.69632 -47.810005
3 0 22 23
3 0 24 26
3 24 5 25
3 24 25 26
3 27 8 28
3 29 10 30
3 31 30 8
3 29 30 31
3 33 32 10
3 1 34 35
3 1 36 38
3 36 11 37
3 36 37 38
3 39 13 40
3 41 40 12
3 39 40 41
3 2 14 6
3 2 15 14
3 42 16 43
3 42 43 44
3 3 17 7
3 3 18 17
3 3 19 18
3 4 20 9
3 4 21 20
3 4 45 47
3 47 46 21
3 45 46 47
3 48 1 49
3 5 50 51
3 5 52 53
3 54 6 55
3 56 6 57
3 58 2 59
3 60 59 6
3 58 59 60
3 61 7 62
3 8 63 65
3 63 7 64
3 63 64 65
3 8 3 7
3 8 9 3
3 10 9 8
3 10 4 9
3 10 66 68
3 68 67 4
3 66 67 68
3 70 69 10
3 11 71 72
3 11 73 75
3 73 0 74
3 73 74 75
3 76 12 77
3 78 12 79
3 78 79 80
3 82 81 12
3 12 83 84
3 13 85 87
3 87 86 12
3 85 86 87
3 13 88 90
3 88 1 89
3 88 89 90
3 6 91 93
3 91 13 92
3 91 92 93
3 14 13 6
3 14 1 13
3 14 11 1
3 15 11 14
3 15 0 11
3 16 94 95
3 16 96 98
3 96 2 97
3 96 97 98
3 7 99 101
3 99 16 100
3 99 100 101
3 17 16 7
3 17 2 16
3 17 15 2
3 18 15 17
3 18 0 15
3 18 5 0
3 19 5 18
3 19 102 104
3 104 103 5
3 102 103 104
3 9 19 3
3 20 19 9
3 20 105 107
3 107 106 19
3 105 106 107
3 20 108 109
3 21 110 112
3 112 111 20
3 110 111 112
3 21 113 114
3 21 115 117
3 115 116 117
3 119 118 21
3 122 121 4
3 120 121 122
