ply
format ascii 1.0
element vertex 349
property float x
property float y
property float z
element face 321
property list uchar int vertex_index
end_header
-22.949369 -7.076767 -6.347281
-26.577215 -10.427498 -1.859916
-23.243307 -0.753532 -4.570301
-19.391895 2.872742 -8.127129
-18.007877 7.659054 -12.466965
-18.0562 13.802598 -18.963219
-25.102388 3.658598 -4.400133
-22.247456 5.174368 -5.956969
-18.463007 5.149936 -10.052222
-29.304708 -11.236243 0.609689
-31.386702 -15.47874 2.30196
-22.523855 -4.445214 -5.145306
-20.953787 -2.415253 -7.155027
-20.926704 0.954433 -6.367955
-19.945221 6.868007 -7.458177
-27.562456 -6.753108 -1.050967
-24.647291 -5.649778 -3.235133
-20.105057 -0.186176 -9.313561
-19.78841 2.471994 -11.942013
-17.879644 10.739916 -15.518682
-23.564173 -8.003903 -5.246374
-27.860304 -10.773549 -0.663524
-28.959278 -12.931924 0.128313
-22.656956 -2.595284 -4.861673
-21.646196 -1.750081 -5.769053
-21.969961 0.204934 -5.501103
-21.049541 5.966846 -6.679193
-24.649992 -1.140036 -3.692255
-25.286106 -3.876714 -2.918326
-23.879866 -3.153177 -3.921026
-23.513973 -5.140196 -4.1873
-20.098532 0.264577 -7.617939
-20.448156 -1.321406 -8.158638
-19.573792 1.341 -8.623466
-18.187748 6.366603 -11.236007
-18.939486 3.784047 -10.903828
-18.899349 4.935702 -12.30174
-19.823906 3.832954 -13.3978
-18.781252 6.472972 -13.627369
-18.021559 12.057032 -17.191223
-18.992441 9.394492 -16.877457
-19.099089 11.037191 -18.608725
-32.410866 -17.416765 3.106375
-24.003374 1.466783 -4.477865
-22.635307 2.116331 -5.296136
-23.613596 4.322773 -5.184362
-25.648254 1.064464 -3.589045
-18.82452 5.655047 -8.562175
-18.854284 3.98446 -9.093593
-18.213932 6.96517 -9.51785
-17.812361 7.961078 -10.502017
-17.461205 9.355723 -11.584221
-31.758404 -13.63683 2.888806
-30.348524 -13.492285 1.471506
-30.04224 -15.079229 0.813171
-22.55933 -5.830946 -5.68811
-21.896975 -4.791251 -6.665595
-21.626213 -3.407423 -6.155072
-20.792128 -0.896766 -6.705948
-20.067993 1.941562 -7.233884
-21.433611 2.929269 -6.100189
-20.403999 3.830991 -6.896597
-19.503363 4.728576 -7.736423
-29.88961 -9.218182 0.975712
-28.326319 -9.003892 -0.269947
-26.821987 -8.642361 -1.478315
-26.032995 -6.19749 -2.179746
-25.547182 -8.127142 -2.550659
-24.383558 -7.478839 -3.612376
-23.349073 -6.641452 -4.671977
-21.391771 -3.709436 -7.760344
-21.078905 -2.605996 -8.926779
-20.877304 -1.294034 -10.24443
-19.228737 2.400791 -9.719756
-19.854162 1.188882 -10.597087
-17.264912 10.547316 -12.837445
-17.053362 12.201303 -14.220966
-17.911816 9.189933 -13.990303
-18.882116 7.851509 -15.208751
-32.769588 -15.81768 3.863409
-33.688171 -17.626854 4.758682
-34.727791 -19.613762 5.824079
-22.705299 -6.526285 -6.895825
-23.311145 -7.627058 -6.745013
-23.542631 -8.168115 -6.156078
-23.850033 -8.631683 -5.605625
-23.256771 -7.540335 -5.796828
-23.311145 -7.627058 -6.745013
-23.542631 -8.168115 -6.156078
-27.132601 -11.422477 -1.500191
-27.774146 -11.595502 -0.901995
-27.218759 -10.600523 -1.26172
-18.03888 12.929815 -18.077221
-17.522146 13.528246 -17.257252
-17.539466 14.401029 -18.143249
-18.703339 13.196998 -19.758902
-19.224784 11.814295 -19.581656
-18.577644 12.419894 -18.785972
-25.375321 2.361531 -3.994589
-26.253952 2.230151 -3.580072
-25.981019 3.527219 -3.985616
-18.250962 7.946339 -9.296782
-18.519226 6.310109 -9.040012
-18.556255 7.291277 -8.818945
-17.521123 9.522567 -10.712371
-17.746646 8.988626 -10.242935
-17.345545 10.21989 -11.253473
-17.636783 8.6584 -11.043119
-17.521123 9.522567 -10.712371
-29.826616 -12.364264 1.040598
-30.551478 -12.493127 1.683578
-30.02957 -11.365106 1.25267
-29.413291 -14.758159 0.126943
-29.500759 -14.005577 0.470742
-28.87181 -13.684507 -0.215486
-30.062585 -15.79599 0.4961
-29.413291 -14.758159 0.126943
-19.482127 7.333139 -7.858101
-19.261198 6.263424 -7.997224
-19.724292 5.798292 -7.5973
-30.328806 -8.189575 1.14055
-30.721986 -9.332607 1.669382
-27.944388 -7.8785 -0.660457
-28.750363 -7.995401 -0.078038
-28.368432 -6.870008 -0.468548
-20.283735 1.328467 -11.811347
-20.316611 0.686911 -11.138884
-19.821286 1.830438 -11.26955
-20.340775 2.00841 -12.57723
-20.283735 1.328467 -11.811347
-20.363354 3.519456 -14.067429
-19.854944 4.655336 -14.218454
-16.904968 12.20896 -13.021034
-17.041812 11.563001 -12.438887
-17.466503 11.470609 -14.869824
-17.040999 12.879356 -14.997905
-17.45414 12.148663 -15.646763
-19.517584 8.254974 -16.834975
-19.651449 8.977818 -17.711428
-33.626182 -18.510199 4.415234
-33.049518 -17.52181 3.932529
-32.98753 -18.405155 3.589081
-34.145993 -19.503653 4.947933
-34.207981 -18.620308 5.291381
-33.626182 -18.510199 4.415234
-24.138326 -9.082587 -5.035892
-23.975108 -8.467068 -4.703283
-24.138326 -9.082587 -5.035892
-23.850033 -8.631683 -5.605625
-24.946179 5.168432 -4.789925
-25.766239 4.844851 -4.400262
-25.766239 4.844851 -4.400262
-25.981019 3.527219 -3.985616
-28.323633 -12.674689 -0.506077
-28.409791 -11.852736 -0.267605
-27.774146 -11.595502 -0.901995
-28.87181 -13.684507 -0.215486
-28.323633 -12.674689 -0.506077
-21.49828 7.108124 -6.633601
-21.648499 5.570607 -6.318081
-22.097238 6.711885 -6.272489
-20.863714 7.5008 -6.982185
-21.49828 7.108124 -6.633601
-20.311554 7.95138 -7.371677
-20.497381 6.417427 -7.068685
-20.863714 7.5008 -6.982185
-19.743834 8.401091 -7.744722
-20.311554 7.95138 -7.371677
-28.021097 -5.669187 -0.928808
-28.368432 -6.870008 -0.468548
-24.968049 -2.508375 -3.30529
-25.691171 -2.775971 -2.85733
-25.373114 -1.407632 -3.244294
-19.333616 5.975345 -14.333239
-19.854944 4.655336 -14.218454
-19.302579 5.152963 -13.512584
-17.525097 12.80722 -16.483033
-17.522146 13.528246 -17.257252
-17.950601 11.398474 -16.354952
-17.45414 12.148663 -15.646763
-17.525097 12.80722 -16.483033
-19.704773 9.799167 -18.577062
-19.651449 8.977818 -17.711428
-19.045765 10.215841 -17.743091
-19.791826 10.6671 -19.512101
-19.704773 9.799167 -18.577062
-19.791826 10.6671 -19.512101
-19.224784 11.814295 -19.581656
-31.83503 -17.281644 2.360367
-31.898784 -16.447752 2.704167
-31.322948 -16.312631 1.958159
-32.411236 -18.180416 2.775656
-31.83503 -17.281644 2.360367
-32.98753 -18.405155 3.589081
-32.411236 -18.180416 2.775656
-26.546445 -11.138203 -2.149226
-25.987861 -10.098039 -2.448056
-24.201783 5.50052 -5.18204
-24.357992 3.990685 -4.792248
-24.946179 5.168432 -4.789925
-23.457529 5.867072 -5.539166
-24.201783 5.50052 -5.18204
-22.774459 6.29287 -5.925469
-22.930526 4.74857 -5.570666
-23.457529 5.867072 -5.539166
-22.097238 6.711885 -6.272489
-22.774459 6.29287 -5.925469
-26.451083 0.818855 -3.137208
-26.253952 2.230151 -3.580072
-25.872245 -0.305382 -3.192689
-26.451083 0.818855 -3.137208
-25.149123 -0.037786 -3.64065
-25.373114 -1.407632 -3.244294
-25.872245 -0.305382 -3.192689
-17.947432 8.490672 -9.750851
-18.250962 7.946339 -9.296782
-18.013146 7.463124 -10.009933
-17.947432 8.490672 -9.750851
-17.746646 8.988626 -10.242935
-17.55649 15.165888 -19.000471
-17.539466 14.401029 -18.143249
-18.149752 14.526203 -19.893193
-17.55649 15.165888 -19.000471
-31.256417 -12.565399 2.392228
-32.015671 -12.6389 3.097449
-31.053464 -13.564557 2.180156
-31.256417 -12.565399 2.392228
-30.551478 -12.493127 1.683578
-30.650717 -16.112876 1.213765
-31.322948 -16.312631 1.958159
-30.714471 -15.278984 1.557565
-30.650717 -16.112876 1.213765
-30.062585 -15.79599 0.4961
-27.132601 -11.422477 -1.500191
-26.546445 -11.138203 -2.149226
-18.921776 6.726659 -8.4101
-19.163941 5.191812 -8.149299
-19.261198 6.263424 -7.997224
-18.556255 7.291277 -8.818945
-18.921776 6.726659 -8.4101
-19.482127 7.333139 -7.858101
-19.743834 8.401091 -7.744722
-30.322021 -10.356075 1.435681
-30.721986 -9.332607 1.669382
-29.597159 -10.227213 0.792701
-30.02957 -11.365106 1.25267
-30.322021 -10.356075 1.435681
-29.532009 -8.102545 0.544791
-30.328806 -8.189575 1.14055
-29.107965 -9.111037 0.352882
-29.532009 -8.102545 0.544791
-28.750363 -7.995401 -0.078038
-27.200873 -5.471478 -1.477476
-28.021097 -5.669187 -0.928808
-26.062697 -4.033281 -2.411156
-25.691171 -2.775971 -2.85733
-26.436142 -5.193669 -2.041866
-26.062697 -4.033281 -2.411156
-25.659551 -5.037102 -2.549036
-26.797725 -6.475299 -1.615357
-27.200873 -5.471478 -1.477476
-26.436142 -5.193669 -2.041866
-25.472844 -8.947861 -2.793427
-25.987861 -10.098039 -2.448056
-26.062199 -9.27732 -2.205287
-24.891032 -8.62371 -3.324286
-25.472844 -8.947861 -2.793427
-24.96537 -7.80299 -3.081517
-24.384801 -8.204536 -3.886284
-24.891032 -8.62371 -3.324286
-23.867559 -7.785842 -4.416085
-24.384801 -8.204536 -3.886284
-23.866315 -7.060145 -4.142176
-23.456623 -7.322677 -4.959176
-23.975108 -8.467068 -4.703283
-23.867559 -7.785842 -4.416085
-22.179102 -5.383527 -7.054982
-22.705299 -6.526285 -6.895825
-22.423172 -5.934009 -6.506438
-21.9265 -4.842619 -7.602356
-22.179102 -5.383527 -7.054982
-21.644373 -4.250343 -7.212969
-21.779622 -4.279841 -8.207896
-21.9265 -4.842619 -7.602356
-21.623189 -3.728121 -8.791113
-21.779622 -4.279841 -8.207896
-21.235338 -3.157716 -8.343561
-21.500736 -3.021849 -9.454636
-21.623189 -3.728121 -8.791113
-21.399935 -2.365868 -10.113462
-21.500736 -3.021849 -9.454636
-20.978105 -1.950015 -9.585604
-21.37941 -1.653617 -10.843798
-21.399935 -2.365868 -10.113462
-20.828182 -0.554547 -10.962556
-20.365733 -0.052576 -10.420758
-20.316611 0.686911 -11.138884
-21.37941 -1.653617 -10.843798
-20.828182 -0.554547 -10.962556
-20.358522 2.68889 -13.305124
-20.340775 2.00841 -12.57723
-19.806158 3.152474 -12.669906
-20.358522 2.68889 -13.305124
-20.363354 3.519456 -14.067429
-17.139958 10.967204 -11.812275
-17.345545 10.21989 -11.253473
-17.363059 9.951519 -12.210833
-17.139958 10.967204 -11.812275
-17.041812 11.563001 -12.438887
-16.699156 13.723128 -14.373752
-17.040999 12.879356 -14.997905
-16.799194 13.035953 -13.712795
-16.699156 13.723128 -14.373752
-17.159137 11.374309 -13.529205
-16.904968 12.20896 -13.021034
-16.799194 13.035953 -13.712795
-19.384048 6.664613 -15.123929
-19.333616 5.975345 -14.333239
-18.831684 7.162241 -14.41806
-19.462421 7.483483 -16.000622
-18.937278 8.623 -16.043104
-19.517584 8.254974 -16.834975
-19.384048 6.664613 -15.123929
-19.462421 7.483483 -16.000622
-18.703339 13.196998 -19.758902
-18.149752 14.526203 -19.893193
-32.410642 -13.700764 3.569569
-32.015671 -12.6389 3.097449
-32.916235 -14.791189 4.056871
-32.410642 -13.700764 3.569569
-32.263996 -14.727255 3.376107
-33.440643 -15.794545 4.670822
-32.916235 -14.791189 4.056871
-33.899935 -16.699133 5.118459
-33.440643 -15.794545 4.670822
-33.228879 -16.722267 4.311046
-34.307235 -17.727351 5.600194
-33.899935 -16.699133 5.118459
-34.827045 -18.720804 6.132893
-34.307235 -17.727351 5.600194
-34.207981 -18.620308 5.291381
-35.287911 -19.709989 6.71722
-34.827045 -18.720804 6.132893
-34.700541 -20.457042 5.455304
-34.145993 -19.503653 4.947933
-35.231053 -20.651081 6.368151
-34.700541 -20.457042 5.455304
-35.287911 -19.709989 6.71722
-35.231053 -20.651081 6.368151
3 0 82 83
3 0 84 86
3 86 85 20
3 84 85 86
3 0 87 88
3 1 89 91
3 91 90 21
3 89 90 91
3 2 25 23
3 2 29 27
3 2 23 29
3 3 33 31
3 4 36 34
3 4 38 36
3 5 92 94
3 92 39 93
3 92 93 94
3 5 41 39
3 5 95 97
3 97 96 41
3 95 96 97
3 6 45 43
3 6 98 100
3 98 46 99
3 98 99 100
3 6 43 46
3 101 49 102
3 103 102 47
3 101 102 103
3 104 50 105
3 106 51 107
3 108 107 50
3 106 107 108
3 9 109 111
3 109 53 110
3 109 110 111
3 112 54 113
3 114 113 22
3 112 113 114
3 116 115 54
3 11 57 55
3 13 58 24
3 13 59 58
3 7 60 44
3 14 61 26
3 14 62 61
3 14 117 119
3 119 118 62
3 117 118 119
3 120 63 121
3 15 122 124
3 122 64 123
3 122 123 124
3 15 65 64
3 16 66 28
3 16 67 66
3 16 68 67
3 11 69 30
3 11 55 69
3 12 70 56
3 17 71 32
3 17 72 71
3 8 73 48
3 18 74 35
3 18 125 127
3 127 126 74
3 125 126 127
3 18 128 129
3 131 130 37
3 132 75 133
3 19 134 136
3 134 76 135
3 134 135 136
3 19 77 76
3 19 78 77
3 138 137 40
3 10 79 52
3 139 80 140
3 141 140 42
3 139 140 141
3 142 81 143
3 144 143 80
3 142 143 144
3 20 145 146
3 148 147 20
3 150 149 6
3 151 6 152
3 21 22 9
3 153 22 154
3 155 154 21
3 153 154 155
3 157 156 22
3 23 24 11
3 25 24 23
3 25 13 24
3 158 26 159
3 160 159 7
3 158 159 160
3 161 26 162
3 163 14 164
3 165 164 26
3 163 164 165
3 167 166 14
3 168 15 169
3 27 170 172
3 170 28 171
3 170 171 172
3 29 28 27
3 29 16 28
3 29 30 16
3 23 30 29
3 23 11 30
3 31 32 12
3 33 32 31
3 33 17 32
3 34 35 8
3 36 35 34
3 36 18 35
3 36 37 18
3 38 37 36
3 38 173 175
3 175 174 37
3 173 174 175
3 39 176 177
3 39 178 180
3 178 19 179
3 178 179 180
3 39 40 19
3 41 40 39
3 41 181 183
3 183 182 40
3 181 182 183
3 41 184 185
3 187 186 41
3 188 42 189
3 190 189 10
3 188 189 190
3 191 42 192
3 194 193 42
3 196 195 1
3 43 44 2
3 45 44 43
3 45 7 44
3 197 45 198
3 199 198 6
3 197 198 199
3 200 45 201
3 202 7 203
3 204 203 45
3 202 203 204
3 206 205 7
3 46 207 208
3 46 209 210
3 46 211 213
3 211 27 212
3 211 212 213
3 43 27 46
3 43 2 27
3 47 48 3
3 49 48 47
3 49 8 48
3 214 49 215
3 50 216 218
3 216 49 217
3 216 217 218
3 50 8 49
3 50 34 8
3 51 34 50
3 51 4 34
3 219 5 220
3 222 221 5
3 223 52 224
3 53 225 227
3 225 52 226
3 225 226 227
3 53 10 52
3 22 53 9
3 54 53 22
3 54 10 53
3 54 228 230
3 230 229 10
3 228 229 230
3 232 231 54
3 234 233 1
3 55 56 0
3 57 56 55
3 57 12 56
3 24 57 11
3 58 57 24
3 58 12 57
3 58 31 12
3 59 31 58
3 59 3 31
3 44 25 2
3 60 25 44
3 60 13 25
3 26 60 7
3 61 60 26
3 61 13 60
3 61 59 13
3 62 59 61
3 62 3 59
3 62 47 3
3 235 47 236
3 237 236 62
3 235 236 237
3 239 238 47
3 241 240 14
3 63 242 243
3 63 244 246
3 244 9 245
3 244 245 246
3 247 63 248
3 64 249 251
3 249 63 250
3 249 250 251
3 64 9 63
3 64 21 9
3 65 21 64
3 65 1 21
3 252 15 253
3 28 254 255
3 66 256 258
3 258 257 28
3 256 257 258
3 66 259 261
3 259 15 260
3 259 260 261
3 66 65 15
3 67 65 66
3 67 1 65
3 67 262 264
3 264 263 1
3 262 263 264
3 68 265 267
3 267 266 67
3 265 266 267
3 68 268 269
3 30 68 16
3 69 68 30
3 69 270 272
3 272 271 68
3 270 271 272
3 69 273 275
3 273 20 274
3 273 274 275
3 55 20 69
3 55 0 20
3 56 276 278
3 278 277 0
3 276 277 278
3 70 279 281
3 281 280 56
3 279 280 281
3 70 282 283
3 32 70 12
3 71 70 32
3 71 284 286
3 286 285 70
3 284 285 286
3 71 287 288
3 72 289 291
3 291 290 71
3 289 290 291
3 72 292 293
3 48 33 3
3 73 33 48
3 73 17 33
3 35 73 8
3 74 73 35
3 74 17 73
3 74 72 17
3 294 72 295
3 296 295 74
3 294 295 296
3 298 297 72
3 37 299 301
3 301 300 18
3 299 300 301
3 303 302 37
3 304 51 305
3 75 306 308
3 306 51 307
3 306 307 308
3 75 4 51
3 76 309 310
3 76 311 312
3 76 313 315
3 313 75 314
3 313 314 315
3 77 75 76
3 77 4 75
3 77 38 4
3 78 38 77
3 78 316 318
3 318 317 38
3 316 317 318
3 40 78 19
3 319 78 320
3 321 320 40
3 319 320 321
3 323 322 78
3 325 324 5
3 52 326 327
3 79 328 330
3 330 329 52
3 328 329 330
3 79 331 332
3 42 79 10
3 80 79 42
3 80 333 335
3 335 334 79
3 333 334 335
3 80 336 337
3 81 338 340
3 340 339 80
3 338 339 340
3 81 341 342
3 343 81 344
3 345 81 346
3 348 347 81
