ply
format ascii 1.0
element vertex 138
property float x
property float y
property float z
element face 126
property list uchar int vertex_index
end_header
2.927184 78.868828 -42.734539
-0.035233 74.596062 -45.54747
1.459051 67.766273 -45.625999
4.116498 72.26107 -42.846466
6.106113 82.130722 -39.39415
9.868639 78.563698 -36.366791
6.900828 75.840775 -39.828461
0.714144 80.020401 -44.038616
-0.802972 77.830536 -45.443863
1.487339 76.815414 -44.156261
2.172731 73.369881 -44.231239
3.63671 75.616867 -42.758476
3.278093 66.772705 -44.358532
10.006016 75.526993 -36.492275
8.301946 77.455704 -38.210041
8.612201 74.189507 -38.189869
7.329795 72.656219 -39.71381
-2.277843 75.542801 -46.706951
-1.370771 72.234001 -46.742443
-0.511213 68.755745 -46.783844
0.777063 71.206596 -45.557487
2.792701 70.03476 -44.256187
4.612225 68.933914 -42.852779
2.332106 82.034286 -42.446957
0.347067 65.481926 -46.778484
3.966633 83.85537 -40.696625
4.391695 80.798378 -41.183262
8.135296 80.541512 -37.855385
6.520761 79.091919 -39.697483
4.971225 77.678856 -41.322891
5.511384 74.183655 -41.355709
5.995358 70.903351 -41.27161
3.641903 65.117771 -44.320617
4.133707 66.180958 -43.657448
9.987696 74.010177 -36.554672
10.673215 74.515716 -35.665382
9.290789 73.341435 -37.403469
9.309109 74.85825 -37.341072
9.987696 74.010177 -36.554672
8.683596 72.532689 -38.178324
9.290789 73.341435 -37.403469
1.943526 83.633137 -42.231896
1.171775 82.70129 -43.0387
5.036373 82.993046 -40.045388
4.739433 84.52686 -39.816101
5.809173 83.664535 -39.164864
10.634823 79.073051 -35.386618
11.403005 78.087639 -34.562989
10.636821 77.578285 -35.543161
9.742365 79.992813 -36.233015
10.634823 79.073051 -35.386618
9.001967 79.552605 -37.111088
8.875694 80.98172 -36.977312
9.742365 79.992813 -36.233015
6.717239 70.105828 -40.554743
6.662577 71.779785 -40.49271
7.384457 70.982261 -39.775842
6.073295 69.283188 -41.362758
6.717239 70.105828 -40.554743
-0.044414 78.925468 -44.741239
-1.188352 79.465553 -45.312494
-0.429794 80.560486 -44.609871
2.769804 65.631325 -44.97143
1.860283 66.128108 -45.605164
2.368572 67.269489 -44.992266
2.769804 65.631325 -44.97143
3.641903 65.117771 -44.320617
6.941545 82.78859 -38.418993
5.809173 83.664535 -39.164864
10.70551 76.059933 -35.605903
10.673215 74.515716 -35.665382
9.937328 77.045345 -36.429533
10.636821 77.578285 -35.543161
10.70551 76.059933 -35.605903
8.042393 71.766044 -38.940295
7.970998 73.422863 -38.95184
8.683596 72.532689 -38.178324
7.384457 70.982261 -39.775842
8.042393 71.766044 -38.940295
-1.970528 78.397369 -45.976793
-2.355908 80.032387 -45.845425
-1.188352 79.465553 -45.312494
-2.707963 77.253502 -46.608337
-1.970528 78.397369 -45.976793
-1.540407 76.686668 -46.075407
-3.407034 75.917141 -47.212343
-2.707963 77.253502 -46.608337
-2.973838 74.292889 -47.276745
-3.407034 75.917141 -47.212343
-2.520302 72.638488 -47.294491
-2.973838 74.292889 -47.276745
-1.824307 73.888401 -46.724697
-1.97968 70.912903 -47.287243
-2.520302 72.638488 -47.294491
-0.940992 70.494873 -46.763143
-1.549901 69.173775 -47.307944
-1.97968 70.912903 -47.287243
4.800773 67.261562 -42.904572
4.133707 66.180958 -43.657448
3.945159 67.853309 -43.605655
0.362794 81.694348 -43.83453
-0.429794 80.560486 -44.609871
1.523125 81.027344 -43.242786
0.362794 81.694348 -43.83453
1.171775 82.70129 -43.0387
-1.093421 67.394306 -47.345133
-1.549901 69.173775 -47.307944
-0.664281 65.757396 -47.342453
-1.093421 67.394306 -47.345133
-0.082073 67.118836 -46.781164
-0.274641 64.214426 -47.387865
-1.285989 64.489897 -47.951834
-0.664281 65.757396 -47.342453
1.304291 64.985935 -46.181406
0.903059 66.624099 -46.202241
1.860283 66.128108 -45.605164
0.686073 63.952743 -46.83601
1.304291 64.985935 -46.181406
-0.274641 64.214426 -47.387865
0.686073 63.952743 -46.83601
3.542821 85.33714 -40.472629
4.739433 84.52686 -39.816101
2.760789 84.543678 -41.35673
2.336977 86.025448 -41.132734
3.542821 85.33714 -40.472629
3.149369 82.944828 -41.571791
1.943526 83.633137 -42.231896
2.760789 84.543678 -41.35673
7.956136 81.993984 -37.64961
8.875694 80.98172 -36.977312
7.120705 81.336117 -38.624768
6.941545 82.78859 -38.418993
7.956136 81.993984 -37.64961
5.381728 68.29847 -42.153343
5.303791 69.918633 -42.062195
6.073295 69.283188 -41.362758
4.800773 67.261562 -42.904572
5.381728 68.29847 -42.153343
3 0 9 7
3 0 11 9
3 33 32 12
3 34 13 35
3 36 15 37
3 38 37 13
3 36 37 38
3 40 39 15
3 1 17 8
3 1 18 17
3 1 20 18
3 3 21 10
3 3 22 21
3 41 23 42
3 2 24 19
3 4 43 45
3 43 25 44
3 43 44 45
3 4 26 25
3 5 46 48
3 46 47 48
3 5 49 50
3 5 51 53
3 51 27 52
3 51 52 53
3 6 28 14
3 6 29 28
3 6 30 29
3 54 31 55
3 56 55 16
3 54 55 56
3 58 57 31
3 7 59 61
3 59 8 60
3 59 60 61
3 9 8 7
3 9 1 8
3 9 10 1
3 11 10 9
3 11 3 10
3 12 62 64
3 64 63 2
3 62 63 64
3 66 65 12
3 67 4 68
3 13 69 70
3 13 71 73
3 71 5 72
3 71 72 73
3 13 14 5
3 15 14 13
3 15 6 14
3 15 16 6
3 74 16 75
3 76 75 15
3 74 75 76
3 78 77 16
3 8 79 81
3 79 80 81
3 17 82 84
3 84 83 8
3 82 83 84
3 17 85 86
3 17 87 88
3 18 89 91
3 91 90 17
3 89 90 91
3 18 92 93
3 18 94 96
3 94 19 95
3 94 95 96
3 20 19 18
3 20 2 19
3 10 20 1
3 21 20 10
3 21 2 20
3 21 12 2
3 22 12 21
3 22 97 99
3 99 98 12
3 97 98 99
3 100 7 101
3 23 102 104
3 102 7 103
3 102 103 104
3 23 0 7
3 19 105 106
3 24 107 109
3 109 108 19
3 107 108 109
3 24 110 112
3 110 111 112
3 113 24 114
3 115 114 2
3 113 114 115
3 116 24 117
3 119 118 24
3 25 120 121
3 25 122 124
3 122 123 124
3 25 125 127
3 125 23 126
3 125 126 127
3 26 23 25
3 26 0 23
3 27 128 129
3 27 130 132
3 130 4 131
3 130 131 132
3 14 27 5
3 28 27 14
3 28 4 27
3 28 26 4
3 29 26 28
3 29 0 26
3 29 11 0
3 30 11 29
3 30 3 11
3 16 30 6
3 31 30 16
3 31 3 30
3 31 22 3
3 133 22 134
3 135 134 31
3 133 134 135
3 137 136 22
