ply
format ascii 1.0
element vertex 911
property float x
property float y
property float z
element face 1116
property list uchar int vertex_index
end_header
36.065392 -3.958213 -22.754787
15.157025 36.98386 -52.012749
23.752235 23.350485 -38.523067
38.660393 -21.086172 -20.764055
25.076122 7.595218 -22.21653
25.195616 -3.933396 -8.002165
36.380753 -16.852034 -6.507609
35.68412 13.021398 -40.643482
32.872856 -14.245028 -0.198012
37.520035 -20.652073 2.194935
38.870361 -24.007097 -4.993856
31.155298 2.423312 -22.598259
31.323774 10.515637 -31.216887
36.314487 4.436263 -31.36919
20.39777 31.158201 -45.793301
27.139935 26.753401 -49.446556
38.699265 -11.912525 -22.589125
39.06052 -4.407369 -30.761827
24.891895 1.17836 -14.593688
30.806204 -4.644537 -14.712835
31.179241 -10.439335 -7.2523
35.991665 -11.142068 -14.883523
38.590031 -18.491417 -14.244009
38.27319 -26.724535 -12.04682
25.133251 15.203015 -30.633701
30.172199 18.961533 -40.243797
35.709129 -33.89146 -15.439358
38.865883 -24.191956 3.531689
33.933887 -0.501202 -22.882032
34.022701 3.543026 -26.971903
36.272453 0.144758 -27.04652
22.353867 27.379463 -42.285053
23.535549 29.11179 -47.937122
25.628757 25.264891 -43.905144
38.979164 -16.440439 -21.809299
39.200912 -12.937631 -25.961899
22.024481 2.037099 -11.47241
24.794682 -1.468041 -11.107872
27.859087 -1.779743 -14.568269
27.882368 -4.733864 -10.970621
34.601757 -15.723945 -3.056746
31.869938 -12.611794 -3.758626
34.039494 -13.558611 -7.037203
33.759628 -10.97555 -10.860397
36.059704 -14.158927 -10.740893
37.644947 -14.679832 -14.687207
37.809105 -17.789799 -10.319066
38.840374 -27.604895 -3.958109
38.781376 -25.249872 -8.702762
38.142704 -29.332451 -7.420906
37.274574 -30.738085 -10.672098
22.09338 10.308691 -22.046072
22.196037 13.67132 -25.934597
25.190578 11.195137 -26.316114
33.764751 12.056868 -35.815296
31.003796 14.814538 -35.816219
33.186848 16.357342 -40.675858
32.081856 20.481802 -45.632496
34.809586 16.952263 -45.351124
37.868092 -25.734804 -19.164539
35.544403 -17.517063 0.938881
36.887379 -19.003666 -2.309286
38.041851 -20.273306 -5.96818
38.408882 -22.379908 -1.361261
39.100502 -26.059738 -0.022843
28.120338 4.992857 -22.296413
28.331184 8.843018 -26.606977
31.323446 6.359568 -26.798546
34.145264 7.819004 -31.529163
36.223347 8.682455 -35.931675
17.862413 34.577801 -49.20908
21.105536 32.249378 -51.638092
37.741196 -7.587218 -22.998518
37.891689 -3.79317 -26.985806
38.868446 -8.19951 -26.670033
22.067844 7.229806 -18.330969
22.02552 4.36117 -14.669696
25.033373 4.244755 -18.36076
27.960791 1.498735 -18.365065
30.99024 -1.366521 -18.518305
33.666615 -4.397654 -18.617477
30.083166 -11.06216 -1.414209
28.889065 -9.394645 -4.435842
28.183262 -7.255598 -7.658573
30.803797 -7.71546 -10.905394
33.587582 -7.826108 -14.707968
35.922901 -7.678783 -18.743267
37.612267 -11.309304 -18.784641
38.600147 -15.393791 -18.451145
38.840137 -19.530712 -17.806454
38.701488 -21.524841 -9.684702
38.772884 -22.542479 -13.309687
38.424934 -23.9746 -16.601873
37.535172 -28.265974 -15.061727
36.390568 -32.237465 -13.449734
21.974676 17.406845 -29.618822
24.695646 19.155222 -34.581291
28.282274 12.854434 -30.941963
27.865175 16.952135 -35.228767
27.11717 21.120329 -39.650032
28.991682 23.039219 -44.991119
38.032433 0.354752 -31.305647
37.960762 4.618433 -35.609089
35.048824 -2.153079 -22.819033
35.100693 -0.08709 -24.892624
36.156525 -1.968967 -24.820013
22.127918 24.477425 -37.709782
21.522276 26.53911 -39.544903
23.159948 25.330137 -40.40004
23.96979 26.28056 -43.111294
24.792486 24.195648 -41.06308
38.898949 -18.626755 -21.409594
39.015438 -17.069101 -23.441835
38.803974 -19.61915 -22.797113
23.863245 -2.184386 -8.344473
23.59919 -1.038158 -9.763303
25.054792 -2.841982 -9.5476
26.32527 -3.197081 -10.933547
26.535955 -4.550164 -9.331366
35.517715 -16.313976 -4.778018
34.207371 -14.636628 -5.00782
35.28548 -15.271496 -6.610488
35.118542 -13.979519 -8.746316
36.130333 -15.481776 -8.609755
36.991531 -15.927976 -10.468889
37.113861 -17.211685 -8.466282
38.533005 -28.482582 -5.750499
13.622409 37.866772 -53.434055
23.542295 8.99267 -22.197321
23.689213 10.612522 -24.189125
25.195612 9.322715 -24.258615
34.873283 12.644075 -38.348499
33.610828 14.195745 -38.303562
34.513691 14.686526 -40.58057
34.027916 16.761116 -42.916431
35.286999 15.029488 -42.971657
36.009415 -18.131071 2.953403
36.623131 -19.084919 1.413575
36.21851 -18.290365 -0.689253
37.236782 -19.971041 -0.11782
37.765392 -20.725082 -1.786217
38.029102 -21.631163 0.61812
39.028732 -25.065567 1.727086
39.191456 -26.940674 2.363399
29.693041 3.773641 -22.517412
29.784473 5.586611 -24.49283
31.249643 4.268987 -24.571432
35.238686 4.071806 -29.183372
33.994183 5.675642 -29.091719
35.248001 6.07329 -31.246416
35.224247 8.380394 -33.713692
36.25148 6.502391 -33.454865
19.180346 32.95718 -47.511467
19.520361 33.279083 -50.283253
20.826921 31.768414 -48.764004
25.335667 27.941116 -48.726913
24.018782 29.699642 -50.655056
38.283955 -9.759882 -22.708874
38.394009 -7.950801 -24.80813
38.767132 -9.963393 -24.696024
39.34132 -11.107085 -28.092665
20.717873 8.831404 -18.373735
20.591246 7.576759 -16.548811
23.405874 1.365841 -12.841656
22.040707 3.119056 -13.042845
23.363482 2.762305 -14.566969
23.367144 4.276382 -16.430588
24.812096 2.716088 -16.330843
26.383698 2.873666 -18.251097
26.451361 1.266361 -16.501534
29.373497 -3.200797 -14.666385
29.338476 -1.524053 -16.51383
30.805223 -3.023487 -16.528172
32.346436 -2.797054 -18.600826
32.232407 -4.465924 -16.673977
31.564018 -12.756776 -0.827969
31.508467 -11.596935 -5.538148
30.4086 -11.010021 -4.191706
29.923933 -9.922524 -5.790039
28.414881 -8.335271 -5.990682
29.6283 -8.854866 -7.348307
29.421282 -7.615558 -9.056066
30.975056 -9.175795 -9.036223
34.931061 -11.096721 -12.810285
33.571262 -9.379892 -12.751411
34.861557 -9.49787 -14.748445
34.797642 -7.803616 -16.625099
35.989265 -9.511005 -16.853666
36.876781 -9.482458 -18.823893
36.888897 -11.299736 -16.780018
38.222229 -16.536608 -14.573031
38.205067 -15.031516 -16.570059
38.588722 -16.931231 -16.467796
38.80941 -17.551416 -18.067526
38.781326 -19.13043 -15.930923
38.553699 -22.049608 -5.499816
38.456425 -20.946489 -7.781563
38.769421 -22.776157 -7.240995
38.566353 -25.949528 -10.518477
38.765919 -23.907677 -11.171582
38.597328 -24.572464 -12.883604
38.631142 -23.290468 -15.084424
38.321812 -25.481667 -14.314978
38.031174 -26.115572 -15.882854
37.917114 -27.474802 -13.631995
36.830078 -31.411486 -12.22933
35.825935 -34.060223 -12.433542
23.640038 14.344808 -28.217287
22.097754 15.480796 -27.749407
23.489656 16.203379 -30.049482
23.444567 18.113663 -32.052517
24.927778 17.060698 -32.470375
29.877695 9.597982 -28.822672
28.442745 10.880837 -28.912834
29.869276 11.8139 -31.2337
30.682852 16.92709 -38.10511
29.47027 15.974754 -35.637115
29.15543 17.941158 -37.736217
27.570478 19.007421 -37.418026
28.649492 20.049568 -39.948441
28.060644 22.197983 -42.322823
29.681162 21.013882 -42.633266
31.26717 22.414845 -47.969303
38.571499 -4.105939 -28.91596
37.963009 -1.703144 -29.136063
38.605675 -2.010624 -30.950518
38.659149 2.193056 -35.41048
37.849144 6.674798 -37.806622
38.301662 -22.387978 2.870424
32.538971 0.933119 -22.610739
32.722466 2.965865 -24.839523
33.901363 1.535102 -24.833057
35.18721 1.902536 -26.955925
36.269218 2.354233 -29.188488
20.641115 28.693207 -41.273342
21.372601 29.350899 -44.002613
21.952753 30.107162 -46.956348
23.091494 28.267294 -45.222
24.718578 27.21603 -46.022583
26.396519 26.119425 -46.656605
38.922375 -14.132987 -22.313416
38.994064 -12.331867 -24.251995
39.07917 -14.664902 -23.881716
39.152298 -15.451954 -25.394253
23.334837 0.252174 -11.221595
24.839849 -0.275582 -12.727106
26.389563 -0.293051 -14.619729
26.27965 -1.764397 -12.708573
27.749031 -3.256641 -12.6768
29.304518 -4.767179 -12.730738
33.676079 -15.017994 -1.527719
32.385506 -13.5397 -2.06269
33.315483 -14.221663 -3.342432
32.974293 -13.207182 -5.24352
32.648708 -12.046646 -7.03265
32.476601 -10.776908 -8.957334
33.82056 -12.356906 -8.801375
34.950165 -12.63171 -10.629207
36.002617 -12.730323 -12.777512
36.903255 -12.849313 -14.855183
36.952183 -14.516895 -12.631934
37.701874 -16.275755 -12.48885
38.247204 -18.078711 -12.216242
38.9445 -25.803345 -4.616295
38.879215 -24.543865 -6.995698
38.79533 -26.514103 -6.418101
38.543472 -27.234217 -8.210271
38.223141 -28.007998 -9.713978
37.821873 -28.757908 -11.375665
37.7635 -29.844587 -9.241343
37.185005 -31.836205 -8.473094
20.737499 11.751369 -21.96261
22.188324 11.844989 -23.914734
23.618986 12.468911 -26.167717
25.122061 13.186759 -28.426937
32.650681 11.256026 -33.478893
31.305401 12.680673 -33.620773
32.454174 13.596669 -35.990265
32.161419 15.727716 -38.318634
31.727131 17.739569 -40.512348
31.274662 19.729752 -42.881111
32.679634 18.43145 -43.070904
33.485889 18.743303 -45.362541
39.120331 -2.47509 -32.785381
22.698002 22.433542 -36.001812
38.298359 -23.489765 -20.050932
38.508873 -21.873497 -22.107817
33.598473 -14.994964 1.623011
34.816689 -16.51 2.268439
34.249893 -15.858527 0.266155
35.019402 -16.654537 -1.026852
35.773666 -17.280024 -2.687052
36.611908 -18.003956 -4.394805
37.300152 -18.482481 -6.367082
37.541229 -19.718456 -4.087935
38.21508 -21.376331 -3.752578
38.705925 -23.161985 -3.271034
38.658672 -23.387068 1.045421
38.878185 -24.229221 -0.833295
38.979553 -25.071718 -2.636971
39.026733 -26.886978 -1.98427
16.555622 35.835896 -53.410309
26.689072 6.252254 -22.3011
26.638733 8.186471 -24.367916
28.270779 6.897289 -24.46884
29.80393 7.603901 -26.628431
31.353216 8.351406 -28.916761
32.716305 5.039026 -26.92169
32.802326 7.153602 -29.19853
32.775536 9.145329 -31.287979
34.038021 9.959105 -33.737476
35.080387 10.547648 -36.014198
35.994194 10.819489 -38.185658
16.595188 35.844021 -50.612274
18.050156 34.703033 -52.04068
19.604113 33.615543 -53.083702
22.440695 30.727903 -49.877087
36.998775 -5.747737 -22.90127
37.076973 -3.905299 -24.830223
37.836491 -5.847726 -24.918547
38.456417 -5.997899 -26.805813
38.974255 -6.348927 -28.706306
39.113323 -10.54634 -26.389301
39.227375 -8.816063 -28.346569
39.319401 -6.840602 -30.329134
20.721228 10.285841 -20.187672
22.089954 8.756927 -20.207632
23.512123 7.274281 -20.174498
20.740295 6.164931 -14.92329
22.014275 5.853314 -16.552505
23.572025 5.627775 -18.305048
24.989634 6.010427 -20.336126
26.540987 4.523632 -20.254681
28.115641 3.211416 -20.381588
29.578751 1.85161 -20.393539
27.868387 -0.180769 -16.403662
29.518801 0.063115 -18.43416
31.132612 0.487781 -20.603096
32.485741 -0.986466 -20.625315
33.755901 -2.414797 -20.761011
34.950485 -4.157696 -20.711836
25.556522 -5.021492 -6.597411
30.904634 -11.92305 -2.469889
29.386044 -10.233929 -2.937976
27.9527 -8.562702 -3.430776
27.374329 -7.683801 -4.762673
27.064228 -6.834277 -6.236911
26.577856 -5.607552 -7.682651
27.896688 -6.002172 -9.213383
29.258173 -6.261288 -10.759839
30.753246 -6.234203 -12.756239
32.307041 -9.35221 -10.833715
32.244331 -7.85813 -12.732289
32.194767 -6.216066 -14.653023
33.528778 -6.137852 -16.554354
34.84148 -6.024108 -18.631809
36.013603 -5.887586 -20.767187
36.952774 -7.651976 -20.919136
37.652149 -9.509863 -20.831108
38.23177 -11.478628 -20.787504
37.664886 -13.156949 -16.769403
38.197777 -13.28347 -18.66684
38.628239 -13.674539 -20.47822
38.853249 -15.77449 -20.255489
38.897976 -18.032892 -19.79837
38.777336 -20.388376 -19.383179
37.897369 -19.031822 -8.195492
38.365135 -19.676401 -9.966309
38.621288 -19.999729 -11.913419
38.826336 -23.29183 -9.343863
38.791271 -21.965832 -11.579908
38.774078 -20.583303 -13.754495
38.791397 -21.232306 -15.551147
38.715446 -21.67263 -17.253586
38.53072 -22.578989 -18.67268
38.152603 -24.816299 -17.992172
37.689419 -27.004026 -17.164463
37.15218 -29.136955 -16.314533
37.394699 -29.52298 -12.895824
36.975624 -30.286966 -14.315654
36.594162 -31.123703 -15.45218
36.026207 -33.028038 -14.495897
23.047857 20.258156 -33.946384
24.226883 21.341768 -36.61134
26.886471 10.049119 -26.619652
26.734922 11.924504 -28.529984
26.71191 13.946425 -30.733755
29.745249 13.908037 -33.478275
28.19692 14.872567 -33.133556
26.560402 16.035738 -32.92276
26.268265 18.065527 -34.958107
25.893593 20.148279 -37.048664
25.44245 22.292202 -39.251328
26.443382 23.292225 -41.902256
27.3039 24.197001 -44.512939
28.077101 24.924236 -47.07983
30.59458 21.821684 -45.383121
29.767454 23.754198 -47.734127
28.678703 25.59798 -49.838909
37.16066 -1.762079 -27.041119
37.226337 0.374337 -29.223364
37.232185 2.406663 -31.238033
38.66357 0.13867 -33.247948
38.024361 2.519563 -33.472557
37.194698 4.598034 -33.430904
37.134815 6.796008 -35.798359
37.027355 8.87444 -38.171623
36.726265 11.040267 -40.449669
36.45153 12.931658 -42.768494
14.389717 37.425316 -52.723402
13.748326 38.050506 -52.079517
14.515634 37.60905 -51.368864
37.071583 -19.868496 1.804255
36.826266 -19.397965 2.571093
37.274718 -20.181542 2.961773
39.226616 -27.263097 3.679696
39.184666 -26.446404 3.307902
39.167759 -27.823912 2.816315
39.226616 -27.263097 3.679696
19.572225 31.880093 -45.306936
20.035822 30.964194 -44.404877
19.789058 32.05769 -46.652384
18.963513 32.779583 -46.16602
19.572225 31.880093 -45.306936
26.459615 27.647084 -50.423973
25.557481 28.240942 -50.064152
26.237801 27.347259 -49.086735
27.319815 27.067322 -50.824623
26.459615 27.647084 -50.423973
19.995752 7.851489 -15.765156
19.992186 8.454339 -16.617739
32.218437 -13.500902 -0.512991
31.910288 -13.076732 0.039446
32.564706 -13.820858 0.354425
35.84369 -33.461365 -16.290133
35.986551 -32.955685 -15.913227
39.06966 -16.674063 -25.123971
39.083868 -16.260528 -24.418044
39.00123 -17.482636 -24.147762
39.160623 -15.85026 -26.10073
39.06966 -16.674063 -25.123971
37.126218 -32.440109 -7.271631
37.421898 -31.49484 -7.637253
36.881811 -32.767704 -8.070408
37.126218 -32.440109 -7.271631
34.4571 17.966625 -46.595068
33.795251 18.862144 -46.600776
34.147738 17.847783 -45.356832
22.125954 21.958521 -34.692701
21.889165 23.027572 -35.549132
37.983891 -25.004646 -20.229911
38.199024 -23.882126 -20.673107
38.083225 -24.612285 -19.607736
33.934956 -15.252707 2.510697
33.285658 -14.44406 2.057754
16.524817 35.731036 -54.807035
17.365285 35.264381 -54.056399
17.129409 35.236437 -48.534325
17.752399 34.447122 -47.828886
17.2288 35.210911 -49.910677
16.495796 35.869547 -49.235922
17.129409 35.236437 -48.534325
21.204934 32.391357 -52.992811
20.454222 33.07444 -53.715616
20.354824 32.932461 -52.360897
23.368151 30.455762 -51.603615
24.231758 29.903533 -52.061313
39.350502 -9.031517 -29.254759
39.284348 -9.961574 -28.219617
39.407475 -10.177028 -29.127807
39.396515 -8.043786 -30.246042
39.273388 -7.828333 -29.337851
39.350502 -9.031517 -29.254759
39.455038 -7.197617 -31.221223
39.396515 -8.043786 -30.246042
38.614558 -21.08129 -23.180292
38.416981 -22.407781 -22.676917
20.071029 10.441552 -19.316924
20.088502 11.119104 -20.213639
21.442366 2.923364 -11.605353
21.482272 2.42635 -10.831206
21.402178 4.653479 -13.978576
21.409772 4.032421 -13.16515
22.033113 3.740113 -13.856271
21.382908 5.263051 -14.796493
20.759566 5.555359 -14.105373
21.402178 4.653479 -13.978576
25.784857 -5.512702 -5.889569
25.121656 -4.6201 -6.093865
29.729378 -10.497846 -1.032879
30.465992 -11.407615 -0.665818
29.345596 -10.180889 -1.710638
29.729378 -10.497846 -1.032879
35.653514 -34.41651 -12.999185
35.541851 -34.908579 -12.066909
21.492952 14.338216 -25.794422
21.522362 13.502347 -24.924484
21.317059 17.104699 -28.487327
21.378597 16.141675 -27.552619
22.036215 16.443821 -28.684114
21.239117 18.041806 -29.332196
21.317059 17.104699 -28.487327
21.883881 18.401463 -30.542678
21.239117 18.041806 -29.332196
30.038678 24.007188 -49.026823
30.517312 23.084522 -47.851715
30.788536 23.337511 -49.144411
29.494302 24.929079 -50.079214
29.223078 24.676089 -48.786518
30.038678 24.007188 -49.026823
28.899175 25.812602 -51.151201
29.494302 24.929079 -50.079214
38.915182 -0.15022 -34.136333
38.891951 -1.16821 -33.016665
39.143563 -1.4571 -33.90505
37.358148 8.779445 -39.144823
37.438249 7.774619 -37.989122
37.769043 7.679624 -38.962322
37.207603 9.862359 -40.283846
36.87681 9.957353 -39.310646
37.358148 8.779445 -39.144823
36.759977 12.807503 -43.879799
36.948463 11.83158 -42.697357
36.2278 13.951401 -44.02873
36.759977 12.807503 -43.879799
35.563953 -34.41382 -15.737132
35.456247 -34.714529 -14.934628
21.825097 25.508268 -38.627342
21.004047 26.266858 -38.279608
21.306868 25.236016 -37.362048
38.895498 -18.757661 -23.825401
39.00123 -17.482636 -24.147762
38.909706 -18.344126 -23.119474
23.731217 -1.611272 -9.053888
23.051293 -0.648475 -9.191783
23.183321 -1.221589 -8.482368
38.535216 -29.039792 -4.503812
38.686689 -28.043738 -4.854304
38.6889 -28.600949 -3.607617
38.3277 -29.457852 -5.369139
38.535216 -29.039792 -4.503812
38.132549 -29.882786 -6.204342
38.337855 -28.907516 -6.585703
38.3277 -29.457852 -5.369139
37.900748 -30.242963 -7.111159
38.132549 -29.882786 -6.204342
12.966645 38.531523 -52.711619
13.748326 38.050506 -52.079517
12.824435 38.193968 -53.961917
12.966645 38.531523 -52.711619
37.746392 -26.167088 -19.710127
37.617779 -26.830911 -18.706935
36.519407 -18.921042 3.341007
36.255844 -18.365606 4.024002
36.316273 -18.607995 2.183489
36.519407 -18.921042 3.341007
36.826266 -19.397965 2.571093
39.103304 -25.508851 2.989746
38.947307 -24.628762 2.629387
39.021879 -25.072046 3.892047
39.110094 -26.003121 2.045242
39.103304 -25.508851 2.989746
39.184666 -26.446404 3.307902
39.141035 -27.41161 1.427211
39.095558 -26.971142 0.234091
39.145979 -26.500206 1.170278
39.141035 -27.41161 1.427211
39.167759 -27.823912 2.816315
18.411366 33.636812 -46.98008
18.963513 32.779583 -46.16602
18.52138 33.767491 -48.360274
17.752399 34.447122 -47.828886
18.411366 33.636812 -46.98008
24.899039 29.120205 -51.028223
24.677225 28.820379 -49.690984
25.557481 28.240942 -50.064152
24.231758 29.903533 -52.061313
24.899039 29.120205 -51.028223
39.323633 -12.386124 -27.757143
39.271116 -12.022358 -27.027282
39.253429 -13.301397 -26.69176
39.40412 -11.497028 -28.790247
39.323633 -12.386124 -27.757143
39.407475 -10.177028 -29.127807
39.40412 -11.497028 -28.790247
20.055499 9.081661 -17.530202
20.069351 9.714333 -18.409955
20.65456 8.204081 -17.461273
20.055499 9.081661 -17.530202
19.992186 8.454339 -16.617739
31.206418 -12.254923 -0.372697
31.910288 -13.076732 0.039446
30.823592 -11.909468 -1.121089
30.465992 -11.407615 -0.665818
31.206418 -12.254923 -0.372697
36.753458 -32.018863 -11.097936
37.052326 -31.074786 -11.450714
36.975706 -31.682163 -10.31932
36.540108 -32.33891 -11.778494
36.753458 -32.018863 -11.097936
36.320352 -32.7519 -12.388696
36.610323 -31.824475 -12.839532
36.540108 -32.33891 -11.778494
36.038036 -33.663279 -11.8806
36.108252 -33.148844 -12.941638
36.320352 -32.7519 -12.388696
35.704678 -34.649792 -11.436845
36.038036 -33.663279 -11.8806
35.541851 -34.908579 -12.066909
35.704678 -34.649792 -11.436845
31.989161 21.620907 -47.967594
31.674513 21.448324 -46.800899
32.396504 20.654385 -46.799191
31.577582 22.53064 -49.227913
31.989161 21.620907 -47.967594
30.788536 23.337511 -49.144411
31.577582 22.53064 -49.227913
38.89358 1.923763 -36.283504
38.912971 0.876972 -35.217599
38.61121 3.242598 -36.465381
38.89358 1.923763 -36.283504
38.262017 4.455287 -36.564686
38.309956 3.405744 -35.509784
38.61121 3.242598 -36.465381
38.206208 5.483469 -37.663452
37.904953 5.646615 -36.707855
38.262017 4.455287 -36.564686
38.152499 6.464965 -38.799525
38.206208 5.483469 -37.663452
37.769043 7.679624 -38.962322
38.152499 6.464965 -38.799525
35.84369 -33.461365 -16.290133
35.563953 -34.41382 -15.737132
37.701535 -20.989979 3.3568
37.274718 -20.181542 2.961773
38.092348 -21.857931 3.694545
37.910849 -21.520026 2.532679
37.701535 -20.989979 3.3568
38.435844 -22.717402 4.046079
38.092348 -21.857931 3.694545
38.717954 -23.619391 4.376712
38.583772 -23.289967 3.201056
38.435844 -22.717402 4.046079
38.94437 -24.46745 4.726042
38.717954 -23.619391 4.376712
39.021879 -25.072046 3.892047
38.94437 -24.46745 4.726042
20.697848 27.274661 -39.086981
21.004047 26.266858 -38.279608
20.257267 28.351709 -39.9512
20.697848 27.274661 -39.086981
21.081696 27.616159 -40.409122
19.855046 29.422292 -40.779932
20.257267 28.351709 -39.9512
20.157494 29.731697 -42.144897
19.855046 29.422292 -40.779932
20.523238 30.060543 -43.509533
20.157494 29.731697 -42.144897
21.006858 29.022053 -42.637977
20.885185 30.25455 -44.897957
20.035822 30.964194 -44.404877
20.523238 30.060543 -43.509533
39.229122 -14.558559 -26.407937
39.253429 -13.301397 -26.69176
39.176605 -14.194793 -25.678076
39.229122 -14.558559 -26.407937
39.160623 -15.85026 -26.10073
22.104496 1.465852 -10.728982
21.482272 2.42635 -10.831206
22.891851 -0.071776 -9.874429
23.051293 -0.648475 -9.191783
22.759674 0.573389 -10.603575
22.891851 -0.071776 -9.874429
23.467014 -0.392992 -10.492449
22.679659 1.144637 -11.347003
22.104496 1.465852 -10.728982
22.759674 0.573389 -10.603575
37.711146 -30.499031 -8.021377
37.953102 -29.588519 -8.331124
37.900748 -30.242963 -7.111159
37.474252 -30.840396 -8.857219
37.711146 -30.499031 -8.021377
37.421898 -31.49484 -7.637253
36.930921 -32.231223 -9.219818
36.975706 -31.682163 -10.31932
37.229789 -31.287145 -9.572596
36.930921 -32.231223 -9.219818
36.881811 -32.767704 -8.070408
20.793093 12.542371 -22.938491
20.137263 12.545208 -21.99856
21.518506 12.589181 -23.914552
20.793093 12.542371 -22.938491
21.462912 11.798179 -22.938672
22.19218 12.758154 -24.924665
21.522362 13.502347 -24.924484
21.518506 12.589181 -23.914552
33.09852 19.785136 -46.664213
32.396504 20.654385 -46.799191
32.783873 19.612552 -45.497518
33.09852 19.785136 -46.664213
33.795251 18.862144 -46.600776
39.268381 -3.740992 -32.582068
39.090425 -3.441229 -31.773604
39.238475 -4.707132 -31.57029
39.31111 -2.768707 -33.710477
39.268381 -3.740992 -32.582068
39.143563 -1.4571 -33.90505
39.31111 -2.768707 -33.710477
21.604123 24.049514 -36.403116
21.306868 25.236016 -37.362048
22.41296 23.455483 -36.855797
21.604123 24.049514 -36.403116
21.889165 23.027572 -35.549132
38.304281 -23.073992 -21.701549
38.403616 -22.681631 -21.079375
38.199024 -23.882126 -20.673107
38.416981 -22.407781 -22.676917
38.304281 -23.073992 -21.701549
37.983891 -25.004646 -20.229911
37.746392 -26.167088 -19.710127
23.341922 -1.683606 -7.837331
23.183321 -1.221589 -8.482368
24.000551 -2.674325 -7.625876
23.341922 -1.683606 -7.837331
24.666736 -3.54883 -7.454722
24.529431 -3.058891 -8.173319
24.000551 -2.674325 -7.625876
32.927515 -14.195826 1.264936
33.285658 -14.44406 2.057754
33.235664 -14.619996 0.712499
32.564706 -13.820858 0.354425
32.927515 -14.195826 1.264936
35.717836 -17.587327 3.583255
36.255844 -18.365606 4.024002
35.121473 -16.776792 3.240773
35.717836 -17.587327 3.583255
35.413052 -17.320535 2.610921
34.544064 -16.010225 2.833411
35.121473 -16.776792 3.240773
34.207581 -15.752482 1.945725
33.934956 -15.252707 2.510697
34.544064 -16.010225 2.833411
39.058673 -27.384761 -0.746623
39.063617 -26.473358 -1.003556
39.095558 -26.971142 0.234091
38.947275 -27.826011 -1.68972
39.058673 -27.384761 -0.746623
38.854095 -28.18497 -2.676639
38.933554 -27.245936 -2.971189
38.947275 -27.826011 -1.68972
38.6889 -28.600949 -3.607617
38.854095 -28.18497 -2.676639
15.796138 36.280491 -54.002203
15.09684 36.854473 -53.303423
15.856324 36.409878 -52.711529
15.796138 36.280491 -54.002203
16.524817 35.731036 -54.807035
15.194365 37.054533 -50.678442
14.515634 37.60905 -51.368864
15.913447 36.484613 -49.978205
16.495796 35.869547 -49.235922
15.876107 36.41394 -51.312511
15.194365 37.054533 -50.678442
15.913447 36.484613 -49.978205
18.112552 34.69795 -53.371584
17.365285 35.264381 -54.056399
17.302889 35.269464 -52.725494
18.88953 34.154205 -53.893095
18.112552 34.69795 -53.371584
18.827134 34.159288 -52.562191
19.687742 33.636749 -54.504275
18.88953 34.154205 -53.893095
19.687742 33.636749 -54.504275
20.454222 33.07444 -53.715616
22.579107 30.969893 -51.21463
23.229739 30.213773 -50.266072
23.368151 30.455762 -51.603615
21.911528 31.73063 -52.095133
21.773116 31.488641 -50.75759
22.579107 30.969893 -51.21463
21.204934 32.391357 -52.992811
21.911528 31.73063 -52.095133
39.367916 -5.923748 -31.353944
39.238475 -4.707132 -31.57029
39.18996 -5.623985 -30.545481
39.367916 -5.923748 -31.353944
39.455038 -7.197617 -31.221223
38.762108 -19.954116 -23.52494
38.656424 -20.746324 -22.452465
38.614558 -21.08129 -23.180292
38.895498 -18.757661 -23.825401
38.762108 -19.954116 -23.52494
20.096637 11.851869 -21.101108
20.137263 12.545208 -21.99856
20.729363 11.018605 -21.075141
20.096637 11.851869 -21.101108
20.088502 11.119104 -20.213639
20.719551 9.558622 -19.280704
20.071029 10.441552 -19.316924
20.069351 9.714333 -18.409955
21.45048 3.464342 -12.39057
21.442366 2.923364 -11.605353
22.032594 2.578078 -12.257627
21.45048 3.464342 -12.39057
21.409772 4.032421 -13.16515
20.131158 6.560408 -14.201144
20.759566 5.555359 -14.105373
20.070276 7.145575 -14.952395
20.131158 6.560408 -14.201144
20.665771 6.870845 -15.736051
19.995752 7.851489 -15.765156
20.070276 7.145575 -14.952395
24.847189 -4.092878 -6.752345
25.121656 -4.6201 -6.093865
25.376069 -4.477444 -7.299788
24.666736 -3.54883 -7.454722
24.847189 -4.092878 -6.752345
28.997035 -9.766773 -2.472521
29.345596 -10.180889 -1.710638
29.734605 -10.648045 -2.176093
28.280363 -8.931159 -2.718921
28.997035 -9.766773 -2.472521
28.669372 -9.398315 -3.184376
27.632737 -8.08908 -2.963564
28.280363 -8.931159 -2.718921
27.285996 -7.733225 -3.620357
27.632737 -8.08908 -2.963564
26.996811 -7.293775 -4.286306
27.285996 -7.733225 -3.620357
27.663514 -8.123252 -4.096725
26.69376 -6.843856 -4.9722
26.996811 -7.293775 -4.286306
26.538709 -6.419094 -5.709319
26.69376 -6.843856 -4.9722
27.219279 -7.259039 -5.499792
26.310375 -5.927885 -6.417161
25.784857 -5.512702 -5.889569
26.538709 -6.419094 -5.709319
37.528442 -27.465522 -17.706897
37.617779 -26.830911 -18.706935
37.778756 -26.369415 -18.164501
37.259823 -28.531986 -17.281932
37.528442 -27.465522 -17.706897
37.4208 -28.07049 -16.739498
36.987438 -29.577078 -16.867638
37.259823 -28.531986 -17.281932
36.708429 -30.570453 -16.436462
36.987438 -29.577078 -16.867638
36.873171 -30.130329 -15.883357
36.429068 -31.571806 -15.919638
36.708429 -30.570453 -16.436462
36.14509 -32.523973 -15.441496
36.429068 -31.571806 -15.919638
36.310184 -32.075871 -14.974038
35.867668 -33.459749 -14.967627
35.986551 -32.955685 -15.913227
36.14509 -32.523973 -15.441496
35.75365 -33.900418 -14.030363
35.926071 -33.544131 -13.464719
35.653514 -34.41651 -12.999185
35.595112 -34.332128 -14.502094
35.867668 -33.459749 -14.967627
35.75365 -33.900418 -14.030363
35.456247 -34.714529 -14.934628
35.595112 -34.332128 -14.502094
14.329531 37.295929 -54.014076
14.389717 37.425316 -52.723402
15.09684 36.854473 -53.303423
13.522719 37.595247 -54.688659
14.329531 37.295929 -54.014076
12.824435 38.193968 -53.961917
13.522719 37.595247 -54.688659
21.44381 15.242953 -26.701827
21.492952 14.338216 -25.794422
22.146895 14.576058 -26.842002
21.44381 15.242953 -26.701827
21.378597 16.141675 -27.552619
22.618826 18.754872 -31.759526
21.883881 18.401463 -30.542678
22.709621 17.760254 -30.83567
22.420471 19.827118 -32.706459
22.618826 18.754872 -31.759526
23.246212 19.18591 -32.999451
22.300882 20.870828 -33.664988
22.420471 19.827118 -32.706459
22.872929 21.345849 -34.974098
22.125954 21.958521 -34.692701
22.300882 20.870828 -33.664988
28.089199 26.489612 -51.020799
27.319815 27.067322 -50.824623
27.909319 26.175691 -49.642733
28.089199 26.489612 -51.020799
28.899175 25.812602 -51.151201
38.66136 1.165863 -34.329214
38.915182 -0.15022 -34.136333
38.912971 0.876972 -35.217599
37.085831 10.885884 -41.537945
37.207603 9.862359 -40.283846
36.588898 11.985962 -41.609082
37.085831 10.885884 -41.537945
36.948463 11.83158 -42.697357
35.645534 15.000317 -44.130312
35.869264 13.980573 -42.870075
36.2278 13.951401 -44.02873
35.406828 15.961704 -45.320045
35.048293 15.990875 -44.16139
35.645534 15.000317 -44.130312
35.109591 16.942735 -46.573086
35.406828 15.961704 -45.320045
34.4571 17.966625 -46.595068
35.109591 16.942735 -46.573086
3 0 105 103
3 2 108 106
3 2 110 108
3 3 113 111
3 5 116 114
3 5 118 116
3 6 121 119
3 6 123 121
3 6 125 123
3 1 409 411
3 409 127 410
3 409 410 411
3 4 130 128
3 7 133 131
3 7 135 133
3 9 412 414
3 412 137 413
3 412 413 414
3 9 139 137
3 9 141 139
3 415 143 416
3 418 417 143
3 11 146 144
3 13 149 147
3 13 151 149
3 14 419 420
3 14 421 423
3 421 152 422
3 421 422 423
3 14 154 152
3 15 424 426
3 426 425 155
3 424 425 426
3 15 427 428
3 16 159 157
3 429 162 430
3 18 165 163
3 18 167 165
3 18 169 167
3 19 172 170
3 19 174 172
3 8 431 433
3 431 175 432
3 431 432 433
3 20 178 176
3 20 180 178
3 20 182 180
3 21 185 183
3 21 187 185
3 21 189 187
3 22 192 190
3 22 194 192
3 10 197 195
3 23 200 198
3 23 202 200
3 23 204 202
3 24 209 207
3 24 211 209
3 12 214 212
3 25 217 215
3 25 219 217
3 25 221 219
3 17 225 223
3 26 434 435
3 28 231 229
3 30 232 104
3 30 233 232
3 31 234 107
3 31 235 234
3 31 237 235
3 33 238 109
3 33 239 238
3 34 242 240
3 436 243 437
3 438 437 112
3 436 437 438
3 440 439 243
3 37 244 115
3 37 245 244
3 37 247 245
3 39 248 117
3 39 249 248
3 40 252 250
3 42 253 120
3 42 254 253
3 42 256 254
3 44 257 122
3 44 258 257
3 44 260 258
3 46 261 124
3 46 262 261
3 47 265 263
3 49 266 126
3 49 267 266
3 49 269 267
3 441 270 442
3 444 443 270
3 51 272 271
3 53 273 129
3 53 274 273
3 54 277 275
3 56 278 132
3 56 279 278
3 56 281 279
3 58 282 134
3 58 445 447
3 447 446 282
3 445 446 447
3 448 284 449
3 59 450 452
3 452 451 285
3 450 451 452
3 453 287 454
3 60 288 136
3 60 289 288
3 60 290 289
3 61 291 138
3 61 292 291
3 61 294 292
3 63 295 140
3 63 296 295
3 27 297 228
3 64 298 142
3 64 299 298
3 64 300 299
3 456 455 301
3 65 304 302
3 67 305 145
3 67 306 305
3 29 307 230
3 68 308 148
3 68 309 308
3 68 310 309
3 69 311 150
3 69 312 311
3 70 457 458
3 70 459 461
3 459 313 460
3 459 460 461
3 70 314 313
3 71 315 153
3 71 462 464
3 464 463 315
3 462 463 464
3 32 316 236
3 466 465 156
3 72 319 317
3 74 320 158
3 74 321 320
3 35 322 241
3 467 323 468
3 469 468 160
3 467 468 469
3 470 324 471
3 472 471 323
3 470 471 472
3 474 473 324
3 476 475 286
3 477 325 478
3 75 326 161
3 75 327 326
3 36 479 480
3 76 481 483
3 483 482 164
3 481 482 483
3 76 484 486
3 484 328 485
3 484 485 486
3 76 329 328
3 77 330 166
3 77 331 330
3 77 332 331
3 78 333 168
3 78 334 333
3 38 335 246
3 79 336 171
3 79 337 336
3 79 338 337
3 80 339 173
3 80 340 339
3 487 341 488
3 81 489 490
3 81 491 492
3 41 342 251
3 82 343 177
3 82 344 343
3 82 345 344
3 83 346 179
3 83 347 346
3 83 348 347
3 84 349 181
3 84 350 349
3 43 351 255
3 85 352 184
3 85 353 352
3 85 354 353
3 86 355 186
3 86 356 355
3 86 357 356
3 87 358 188
3 87 359 358
3 45 360 259
3 88 361 191
3 88 362 361
3 88 363 362
3 89 364 193
3 89 365 364
3 62 366 293
3 90 367 196
3 90 368 367
3 48 369 264
3 91 370 199
3 91 371 370
3 91 372 371
3 92 373 201
3 92 374 373
3 92 375 374
3 93 376 203
3 93 377 376
3 50 378 268
3 94 379 205
3 94 380 379
3 94 381 380
3 494 493 206
3 52 495 496
3 95 497 499
3 499 498 208
3 497 498 499
3 95 500 501
3 95 502 503
3 96 382 210
3 96 383 382
3 66 384 303
3 97 385 213
3 97 386 385
3 55 387 276
3 98 388 216
3 98 389 388
3 98 390 389
3 99 391 218
3 99 392 391
3 99 393 392
3 100 394 220
3 100 395 394
3 57 396 280
3 504 397 505
3 506 505 222
3 504 505 506
3 507 398 508
3 509 508 397
3 507 508 509
3 511 510 398
3 73 399 318
3 101 400 224
3 101 401 400
3 512 402 513
3 514 513 283
3 512 513 514
3 102 403 226
3 102 404 403
3 102 405 404
3 515 406 516
3 517 516 227
3 515 516 517
3 518 407 519
3 520 519 406
3 518 519 520
3 521 408 522
3 524 523 408
3 526 525 26
3 103 104 28
3 105 104 103
3 105 30 104
3 106 527 529
3 527 107 528
3 527 528 529
3 108 107 106
3 108 31 107
3 108 109 31
3 110 109 108
3 110 33 109
3 111 112 34
3 113 112 111
3 113 530 532
3 532 531 112
3 530 531 532
3 114 533 535
3 533 115 534
3 533 534 535
3 116 115 114
3 116 37 115
3 116 117 37
3 118 117 116
3 118 39 117
3 119 120 40
3 121 120 119
3 121 42 120
3 121 122 42
3 123 122 121
3 123 44 122
3 123 124 44
3 125 124 123
3 125 46 124
3 536 126 537
3 538 537 47
3 536 537 538
3 539 126 540
3 541 49 542
3 543 542 126
3 541 542 543
3 545 544 49
3 127 546 547
3 127 548 549
3 128 129 51
3 130 129 128
3 130 53 129
3 131 132 54
3 133 132 131
3 133 56 132
3 133 134 56
3 135 134 133
3 135 58 134
3 551 550 59
3 552 136 553
3 137 554 556
3 554 136 555
3 554 555 556
3 137 60 136
3 137 138 60
3 139 138 137
3 139 61 138
3 139 140 61
3 141 140 139
3 141 63 140
3 557 142 558
3 559 558 27
3 557 558 559
3 143 560 562
3 560 142 561
3 560 561 562
3 143 64 142
3 143 563 565
3 565 564 64
3 563 564 565
3 567 566 143
3 144 145 65
3 146 145 144
3 146 67 145
3 147 148 29
3 149 148 147
3 149 68 148
3 149 150 68
3 151 150 149
3 151 69 150
3 152 568 569
3 152 570 572
3 570 70 571
3 570 571 572
3 152 153 70
3 154 153 152
3 154 71 153
3 155 156 32
3 573 156 574
3 575 574 155
3 573 574 575
3 577 576 156
3 157 158 72
3 159 158 157
3 159 74 158
3 578 160 579
3 580 579 35
3 578 579 580
3 581 160 582
3 584 583 160
3 585 161 586
3 162 587 589
3 587 161 588
3 587 588 589
3 162 75 161
3 163 164 36
3 165 164 163
3 165 76 164
3 165 166 76
3 167 166 165
3 167 77 166
3 167 168 77
3 169 168 167
3 169 78 168
3 170 171 38
3 172 171 170
3 172 79 171
3 172 173 79
3 174 173 172
3 174 80 173
3 175 590 591
3 175 592 594
3 592 81 593
3 592 593 594
3 176 177 41
3 178 177 176
3 178 82 177
3 178 179 82
3 180 179 178
3 180 83 179
3 180 181 83
3 182 181 180
3 182 84 181
3 183 184 43
3 185 184 183
3 185 85 184
3 185 186 85
3 187 186 185
3 187 86 186
3 187 188 86
3 189 188 187
3 189 87 188
3 190 191 45
3 192 191 190
3 192 88 191
3 192 193 88
3 194 193 192
3 194 89 193
3 195 196 62
3 197 196 195
3 197 90 196
3 198 199 48
3 200 199 198
3 200 91 199
3 200 201 91
3 202 201 200
3 202 92 201
3 202 203 92
3 204 203 202
3 204 93 203
3 595 205 596
3 597 596 50
3 595 596 597
3 598 205 599
3 600 94 601
3 602 601 205
3 600 601 602
3 603 206 604
3 605 604 94
3 603 604 605
3 606 206 607
3 609 608 206
3 207 208 52
3 209 208 207
3 209 95 208
3 209 210 95
3 211 210 209
3 211 96 210
3 212 213 66
3 214 213 212
3 214 97 213
3 215 216 55
3 217 216 215
3 217 98 216
3 217 218 98
3 219 218 217
3 219 99 218
3 219 220 99
3 221 220 219
3 221 100 220
3 610 222 611
3 612 611 57
3 610 611 612
3 613 222 614
3 616 615 222
3 223 224 73
3 225 224 223
3 225 101 224
3 617 226 618
3 619 226 620
3 621 102 622
3 623 622 226
3 621 622 623
3 624 227 625
3 626 625 102
3 624 625 626
3 627 227 628
3 630 629 227
3 632 631 26
3 633 9 634
3 635 228 636
3 637 636 9
3 635 636 637
3 638 228 639
3 640 27 641
3 642 641 228
3 640 641 642
3 643 27 644
3 646 645 27
3 229 230 11
3 231 230 229
3 231 29 230
3 104 231 28
3 232 231 104
3 232 29 231
3 232 147 29
3 233 147 232
3 233 13 147
3 107 647 648
3 234 649 651
3 651 650 107
3 649 650 651
3 234 652 653
3 234 654 655
3 235 656 658
3 658 657 234
3 656 657 658
3 235 659 661
3 659 14 660
3 659 660 661
3 235 236 14
3 237 236 235
3 237 32 236
3 109 237 31
3 238 237 109
3 238 32 237
3 238 155 32
3 239 155 238
3 239 15 155
3 240 241 16
3 242 241 240
3 242 35 241
3 112 242 34
3 243 242 112
3 243 35 242
3 243 662 664
3 664 663 35
3 662 663 664
3 666 665 243
3 667 36 668
3 115 669 670
3 244 671 673
3 673 672 115
3 671 672 673
3 244 674 676
3 674 36 675
3 674 675 676
3 244 163 36
3 245 163 244
3 245 18 163
3 245 246 18
3 247 246 245
3 247 38 246
3 117 247 37
3 248 247 117
3 248 38 247
3 248 170 38
3 249 170 248
3 249 19 170
3 250 251 8
3 252 251 250
3 252 41 251
3 120 252 40
3 253 252 120
3 253 41 252
3 253 176 41
3 254 176 253
3 254 20 176
3 254 255 20
3 256 255 254
3 256 43 255
3 122 256 42
3 257 256 122
3 257 43 256
3 257 183 43
3 258 183 257
3 258 21 183
3 258 259 21
3 260 259 258
3 260 45 259
3 124 260 44
3 261 260 124
3 261 45 260
3 261 190 45
3 262 190 261
3 262 22 190
3 263 264 10
3 265 264 263
3 265 48 264
3 126 265 47
3 266 265 126
3 266 48 265
3 266 198 48
3 267 198 266
3 267 23 198
3 267 268 23
3 269 268 267
3 269 50 268
3 677 269 678
3 679 678 49
3 677 678 679
3 270 680 682
3 680 269 681
3 680 681 682
3 270 50 269
3 270 683 685
3 685 684 50
3 683 684 685
3 687 686 270
3 271 688 689
3 272 690 692
3 692 691 271
3 690 691 692
3 272 693 695
3 693 52 694
3 693 694 695
3 129 272 51
3 273 272 129
3 273 52 272
3 273 207 52
3 274 207 273
3 274 24 207
3 275 276 12
3 277 276 275
3 277 55 276
3 132 277 54
3 278 277 132
3 278 55 277
3 278 215 55
3 279 215 278
3 279 25 215
3 279 280 25
3 281 280 279
3 281 57 280
3 134 281 56
3 282 281 134
3 282 57 281
3 282 696 698
3 698 697 57
3 696 697 698
3 700 699 282
3 701 283 702
3 703 702 17
3 701 702 703
3 704 283 705
3 707 706 283
3 708 106 709
3 284 710 712
3 710 106 711
3 710 711 712
3 284 2 106
3 285 286 3
3 713 286 714
3 715 714 285
3 713 714 715
3 717 716 286
3 719 718 59
3 720 114 721
3 722 114 723
3 724 5 725
3 726 725 114
3 724 725 726
3 287 727 728
3 287 729 731
3 729 8 730
3 729 730 731
3 136 732 733
3 288 734 736
3 736 735 136
3 734 735 736
3 288 737 738
3 288 739 741
3 739 287 740
3 739 740 741
3 289 287 288
3 289 8 287
3 289 250 8
3 290 250 289
3 290 40 250
3 138 290 60
3 291 290 138
3 291 40 290
3 291 119 40
3 292 119 291
3 292 6 119
3 292 293 6
3 294 293 292
3 294 62 293
3 140 294 61
3 295 294 140
3 295 62 294
3 295 195 62
3 296 195 295
3 296 10 195
3 228 141 9
3 297 141 228
3 297 63 141
3 142 297 27
3 298 297 142
3 298 63 297
3 298 296 63
3 299 296 298
3 299 10 296
3 299 263 10
3 300 263 299
3 300 47 263
3 742 300 743
3 744 743 64
3 742 743 744
3 745 300 746
3 747 47 748
3 749 748 300
3 747 748 749
3 751 750 47
3 301 752 754
3 754 753 1
3 752 753 754
3 756 755 301
3 302 303 4
3 304 303 302
3 304 66 303
3 145 304 65
3 305 304 145
3 305 66 304
3 305 212 66
3 306 212 305
3 306 12 212
3 230 146 11
3 307 146 230
3 307 67 146
3 148 307 29
3 308 307 148
3 308 67 307
3 308 306 67
3 309 306 308
3 309 12 306
3 309 275 12
3 310 275 309
3 310 54 275
3 150 310 68
3 311 310 150
3 311 54 310
3 311 131 54
3 312 131 311
3 312 7 131
3 757 1 758
3 313 759 760
3 313 761 763
3 761 1 762
3 761 762 763
3 313 301 1
3 314 301 313
3 314 764 766
3 766 765 301
3 764 765 766
3 153 314 70
3 315 314 153
3 315 767 769
3 769 768 314
3 767 768 769
3 315 770 771
3 773 772 315
3 236 154 14
3 316 154 236
3 316 71 154
3 156 316 32
3 774 316 775
3 776 775 156
3 774 775 776
3 777 71 778
3 779 778 316
3 777 778 779
3 781 780 71
3 317 318 0
3 319 318 317
3 319 73 318
3 158 319 72
3 320 319 158
3 320 73 319
3 320 223 73
3 321 223 320
3 321 17 223
3 241 159 16
3 322 159 241
3 322 74 159
3 160 322 35
3 323 322 160
3 323 74 322
3 323 321 74
3 324 321 323
3 324 17 321
3 324 782 784
3 784 783 17
3 782 783 784
3 786 785 324
3 286 113 3
3 787 113 788
3 789 788 286
3 787 788 789
3 791 790 113
3 792 271 793
3 325 794 796
3 794 271 795
3 794 795 796
3 325 51 271
3 161 797 799
3 797 325 798
3 797 798 799
3 326 325 161
3 326 51 325
3 326 128 51
3 327 128 326
3 327 4 128
3 164 800 802
3 802 801 36
3 800 801 802
3 804 803 164
3 328 805 806
3 328 807 808
3 328 809 811
3 809 162 810
3 809 810 811
3 329 162 328
3 329 75 162
3 166 329 76
3 330 329 166
3 330 75 329
3 330 327 75
3 331 327 330
3 331 4 327
3 331 302 4
3 332 302 331
3 332 65 302
3 168 332 77
3 333 332 168
3 333 65 332
3 333 144 65
3 334 144 333
3 334 11 144
3 246 169 18
3 335 169 246
3 335 78 169
3 171 335 38
3 336 335 171
3 336 78 335
3 336 334 78
3 337 334 336
3 337 11 334
3 337 229 11
3 338 229 337
3 338 28 229
3 173 338 79
3 339 338 173
3 339 28 338
3 339 103 28
3 340 103 339
3 340 0 103
3 341 812 813
3 341 814 816
3 814 5 815
3 814 815 816
3 251 175 8
3 342 175 251
3 342 81 175
3 177 342 41
3 343 342 177
3 343 81 342
3 343 817 819
3 819 818 81
3 817 818 819
3 344 820 822
3 822 821 343
3 820 821 822
3 344 823 824
3 344 825 826
3 345 827 829
3 829 828 344
3 827 828 829
3 345 830 831
3 179 345 82
3 346 345 179
3 346 832 834
3 834 833 345
3 832 833 834
3 346 835 837
3 835 341 836
3 835 836 837
3 347 341 346
3 347 5 341
3 347 118 5
3 348 118 347
3 348 39 118
3 181 348 83
3 349 348 181
3 349 39 348
3 349 249 39
3 350 249 349
3 350 19 249
3 255 182 20
3 351 182 255
3 351 84 182
3 184 351 43
3 352 351 184
3 352 84 351
3 352 350 84
3 353 350 352
3 353 19 350
3 353 174 19
3 354 174 353
3 354 80 174
3 186 354 85
3 355 354 186
3 355 80 354
3 355 340 80
3 356 340 355
3 356 0 340
3 356 317 0
3 357 317 356
3 357 72 317
3 188 357 86
3 358 357 188
3 358 72 357
3 358 157 72
3 359 157 358
3 359 16 157
3 259 189 21
3 360 189 259
3 360 87 189
3 191 360 45
3 361 360 191
3 361 87 360
3 361 359 87
3 362 359 361
3 362 16 359
3 362 240 16
3 363 240 362
3 363 34 240
3 193 363 88
3 364 363 193
3 364 34 363
3 364 111 34
3 365 111 364
3 365 3 111
3 293 125 6
3 366 125 293
3 366 46 125
3 196 366 62
3 367 366 196
3 367 46 366
3 367 262 46
3 368 262 367
3 368 22 262
3 264 197 10
3 369 197 264
3 369 90 197
3 199 369 48
3 370 369 199
3 370 90 369
3 370 368 90
3 371 368 370
3 371 22 368
3 371 194 22
3 372 194 371
3 372 89 194
3 201 372 91
3 373 372 201
3 373 89 372
3 373 365 89
3 374 365 373
3 374 3 365
3 374 285 3
3 375 285 374
3 375 59 285
3 203 375 92
3 376 375 203
3 376 59 375
3 376 838 840
3 840 839 59
3 838 839 840
3 377 841 843
3 843 842 376
3 841 842 843
3 377 844 845
3 268 204 23
3 378 204 268
3 378 93 204
3 205 378 50
3 379 378 205
3 379 93 378
3 379 377 93
3 380 377 379
3 380 846 848
3 848 847 377
3 846 847 848
3 380 849 850
3 381 851 853
3 853 852 380
3 851 852 853
3 381 854 856
3 854 26 855
3 854 855 856
3 206 381 94
3 857 381 858
3 859 858 206
3 857 858 859
3 860 26 861
3 862 861 381
3 860 861 862
3 864 863 26
3 865 127 866
3 867 866 1
3 865 866 867
3 868 127 869
3 871 870 127
3 208 872 874
3 874 873 52
3 872 873 874
3 876 875 208
3 210 877 879
3 879 878 95
3 877 878 879
3 382 880 882
3 882 881 210
3 880 881 882
3 382 883 884
3 382 885 887
3 885 284 886
3 885 886 887
3 383 284 382
3 383 2 284
3 303 130 4
3 384 130 303
3 384 53 130
3 213 384 66
3 385 384 213
3 385 53 384
3 385 274 53
3 386 274 385
3 386 24 274
3 276 214 12
3 387 214 276
3 387 97 214
3 216 387 55
3 388 387 216
3 388 97 387
3 388 386 97
3 389 386 388
3 389 24 386
3 389 211 24
3 390 211 389
3 390 96 211
3 218 390 98
3 391 390 218
3 391 96 390
3 391 383 96
3 392 383 391
3 392 2 383
3 392 110 2
3 393 110 392
3 393 33 110
3 220 393 99
3 394 393 220
3 394 33 393
3 394 239 33
3 395 239 394
3 395 15 239
3 280 221 25
3 396 221 280
3 396 100 221
3 222 396 57
3 397 396 222
3 397 100 396
3 397 395 100
3 398 395 397
3 398 15 395
3 398 888 890
3 890 889 15
3 888 889 890
3 892 891 398
3 318 105 0
3 399 105 318
3 399 30 105
3 224 399 73
3 400 399 224
3 400 30 399
3 400 233 30
3 401 233 400
3 401 13 233
3 283 225 17
3 402 225 283
3 402 101 225
3 226 893 895
3 893 402 894
3 893 894 895
3 403 402 226
3 403 101 402
3 403 401 101
3 404 401 403
3 404 13 401
3 404 151 13
3 405 151 404
3 405 69 151
3 227 405 102
3 406 405 227
3 406 69 405
3 406 312 69
3 407 312 406
3 407 7 312
3 896 407 897
3 408 898 900
3 898 407 899
3 898 899 900
3 408 7 407
3 408 135 7
3 901 135 902
3 903 902 408
3 901 902 903
3 904 58 905
3 906 905 135
3 904 905 906
3 907 58 908
3 910 909 58
