ply
format ascii 1.0
element vertex 455
property float x
property float y
property float z
element face 469
property list uchar int vertex_index
end_header
-25.117765 44.905045 57.727505
-20.235434 97.243408 14.974918
-23.296074 74.984245 40.224277
-28.62418 51.70229 50.272301
-28.181475 67.190765 41.694912
-24.137274 60.443935 50.229977
-26.31517 92.600571 17.423901
-17.570679 103.996239 0.985038
-27.518299 81.100525 30.533821
-22.015411 87.391258 28.381477
-27.1014 48.4921 54.393776
-26.681585 56.775021 50.605042
-24.561554 52.949036 54.198463
-27.583929 40.6422 57.192924
-23.667976 95.50666 16.427826
-22.587797 99.792709 9.159239
-25.961615 71.790695 41.25528
-25.599848 78.741791 35.592503
-25.061377 84.866508 29.767
-22.789885 81.341934 34.6259
-28.32865 60.008324 46.232841
-26.30019 64.249832 46.402775
-23.710749 67.853714 45.56765
-28.290628 88.385963 18.324577
-16.418911 97.611443 13.603462
-18.975212 101.100204 7.838598
-14.935163 101.072395 6.671046
-13.343428 103.618004 0.006995
-26.954054 87.103912 24.362591
-24.36664 90.693718 23.159586
-21.170006 92.776619 21.707718
-21.428888 55.820866 53.225109
-20.939266 63.276302 48.893585
-20.464155 70.542465 43.878551
-17.487045 93.655273 19.957865
-21.498455 103.155251 1.836728
-26.132704 46.864983 56.139164
-25.868837 50.959438 54.410301
-24.886946 48.855915 56.05027
-25.552563 40.910393 59.15723
-26.766331 39.111568 58.847137
-26.444143 43.038006 57.542442
-27.350971 44.641693 55.818672
-22.037773 96.605072 15.634501
-23.160952 97.727402 12.869823
-21.508839 98.753998 11.987952
-24.743166 73.482681 40.828194
-25.807167 75.35833 38.453491
-24.5361 76.796822 38.145035
-24.29694 80.104942 35.238102
-23.065184 78.126999 37.567848
-29.216921 53.347965 47.871292
-28.484896 55.910938 48.323505
-25.530048 58.814377 50.44511
-26.498707 60.652107 48.512817
-25.25893 62.500114 48.385906
-25.102806 66.417961 45.898556
-23.909725 64.195724 47.973541
-28.775145 47.981556 51.736084
-27.366564 90.585281 18.04302
-28.034393 90.820053 15.124949
-27.078051 93.029572 14.588721
-14.322277 97.515305 12.667284
-15.70506 99.520065 10.000469
-13.582949 99.087555 9.543359
-27.665737 77.875107 33.590511
-27.966297 84.950737 24.69676
-27.214102 84.344292 27.387957
-23.695665 86.30262 29.076244
-24.800077 87.903244 26.410519
-23.294846 89.113266 25.921328
-22.889809 91.870911 22.494766
-21.692793 90.246597 24.990175
-20.659349 66.891327 46.50338
-18.124521 91.31414 23.282986
-16.125046 91.195518 22.622313
-15.594622 93.578407 19.236519
-18.367243 102.693863 4.326438
-20.299438 102.287285 4.939687
-19.559341 103.755791 1.43191
-27.877977 50.499527 52.325123
-27.758364 54.557911 50.413399
-26.911528 52.664066 52.56543
-25.671234 54.946949 52.510784
-24.306122 56.935173 52.185036
-28.301094 42.197575 55.333794
-28.109419 46.579292 53.781796
-25.086512 94.086479 17.165766
-25.978609 94.895706 14.034029
-24.700102 96.467995 13.438677
-24.16227 98.619514 9.813209
-27.175282 69.635773 41.538788
-26.950857 73.247452 38.957947
-26.818163 76.527824 36.270924
-26.612913 79.967392 33.261311
-26.371767 83.160797 30.209171
-25.377523 81.795547 32.795319
-23.977732 83.224854 32.285099
-22.372152 84.56517 31.437065
-27.573107 58.551838 48.436993
-27.402557 62.095745 46.501163
-27.298424 65.800766 44.169151
-26.237862 68.006371 43.858063
-24.847868 69.922089 43.533478
-23.463524 71.57486 42.904747
-29.030336 85.792618 18.947142
-28.875717 88.21048 15.654643
-23.729397 46.862137 57.421463
-18.373484 97.788116 13.92769
-19.706621 99.275574 11.402131
-17.652416 99.6082 10.559989
-17.030973 101.31292 7.094512
-16.418213 102.716278 3.870809
-12.86962 100.778778 5.919423
-14.288987 102.496696 3.315806
-15.463747 103.950287 0.459207
-28.529142 85.615395 21.711691
-27.695444 87.869141 21.342249
-26.673208 89.971275 20.86282
-26.081665 86.312302 26.92815
-25.763727 89.162468 23.664051
-25.414967 91.644897 20.590456
-23.997705 93.188118 19.877331
-22.474669 94.266647 19.212809
-20.85491 95.085617 18.384274
-23.425442 50.634335 55.722607
-23.088711 54.640274 53.765522
-22.823305 58.439835 51.733299
-21.236351 59.692127 51.065117
-22.666054 62.202888 49.53442
-22.30706 65.764351 47.293362
-22.105631 69.233093 44.899452
-22.015076 72.912125 42.129246
-21.637802 76.054886 39.58028
-21.370611 79.309593 36.713875
-19.80904 90.905495 24.178394
-19.411938 93.466484 20.711336
-18.961802 95.647209 17.464092
-17.056431 95.749474 16.779432
-14.965516 95.702293 15.867089
-20.869001 100.709381 8.295305
-22.178196 101.534439 5.500395
-28.990681 50.509586 49.875702
-29.066164 48.64922 50.607594
-28.699662 49.841923 51.004193
-28.92055 52.525127 49.071796
-29.287052 51.332424 48.675197
-28.990681 50.509586 49.875702
-12.87436 98.035362 10.796471
-13.952613 98.30143 11.105322
-13.244024 97.249237 12.358434
-28.498581 67.989971 40.350386
-28.574109 66.021507 41.61148
-27.958889 79.94566 30.710974
-28.032608 78.332951 32.239318
-27.592018 79.487816 32.062166
-27.840763 81.614128 29.136351
-27.958889 79.94566 30.710974
-27.3662 82.722409 28.960889
-27.688665 83.236011 27.56342
-27.840763 81.614128 29.136351
-15.42744 89.953979 23.750372
-16.400507 90.021377 24.176322
-15.162345 91.224129 22.059377
-15.42744 89.953979 23.750372
-27.743796 38.621353 57.763834
-27.334997 37.856037 58.59094
-27.17513 39.876884 58.02003
-28.059711 39.355114 56.875113
-27.743796 38.621353 57.763834
-27.942512 41.419888 56.263359
-28.418293 40.132801 55.945548
-28.059711 39.355114 56.875113
-23.205265 100.076836 7.705239
-23.992501 99.490238 8.032224
-23.375034 99.206111 9.486224
-28.667376 60.482865 45.134314
-28.714375 58.622772 46.137085
-28.284387 61.808096 45.157331
-28.667376 60.482865 45.134314
-28.349324 90.741398 13.636871
-27.910739 91.948124 13.442273
-26.393008 95.087521 12.463947
-25.770959 95.998024 12.244291
-11.751701 100.420749 5.693366
-12.18129 99.746418 7.280765
-13.816208 103.05735 1.6614
-13.182164 102.270832 3.006447
-12.709384 102.831486 1.352041
-14.061917 104.324776 -1.471493
-15.122077 104.490917 -1.245386
-14.403588 103.784145 0.233101
-28.647541 84.130497 23.324792
-28.877232 84.378334 21.843964
-22.785926 49.447828 56.367695
-23.577419 48.748236 56.572035
-22.937903 47.561729 57.217123
-22.2588 55.23057 53.495316
-22.472877 53.401398 54.445978
-21.642966 53.991693 54.175772
-21.087809 61.484215 49.979351
-20.372568 60.270598 50.591154
-20.224025 62.062685 49.505388
-20.801118 76.518711 39.115432
-20.961996 74.866803 40.510052
-20.667523 78.146064 37.68223
-21.504207 77.68224 38.147078
-20.801118 76.518711 39.115432
-19.157621 89.78172 25.410704
-20.080507 89.574269 25.82441
-14.320344 94.555831 17.109629
-15.280069 94.64035 17.551804
-14.634897 93.493888 18.794344
-13.892765 95.415565 15.611432
-14.320344 94.555831 17.109629
-22.358593 102.628869 2.201856
-22.698463 101.818463 4.03369
-21.838325 102.344845 3.668562
-26.159447 40.010981 59.002184
-26.378068 37.974417 59.655075
-25.771184 38.873829 59.810121
-29.158511 55.292593 46.95631
-29.467028 53.980593 46.659607
-28.792499 56.574079 47.182417
-29.158511 55.292593 46.95631
-28.850908 54.629452 48.097398
-28.406773 57.959631 47.278173
-28.714375 58.622772 46.137085
-28.792499 56.574079 47.182417
-29.099781 46.557242 51.462721
-28.834317 45.907367 52.521097
-29.099781 46.557242 51.462721
-29.066164 48.64922 50.607594
-29.504917 52.001375 47.539098
-29.287052 51.332424 48.675197
-29.467028 53.980593 46.659607
-29.504917 52.001375 47.539098
-27.432568 93.052884 13.174159
-27.910739 91.948124 13.442273
-27.556222 91.924813 14.856835
-12.243751 103.341893 -0.260327
-12.709384 102.831486 1.352041
-12.925375 104.123607 -1.725665
-12.243751 103.341893 -0.260327
-28.10678 76.665051 33.734359
-27.736939 76.218338 35.011902
-28.10678 76.665051 33.734359
-28.032608 78.332951 32.239318
-28.064762 83.539234 26.217821
-28.366118 83.798168 24.817327
-27.5902 84.647514 26.042358
-28.064762 83.539234 26.217821
-27.688665 83.236011 27.56342
-20.768995 54.607037 53.768597
-21.642966 53.991693 54.175772
-20.118254 63.896749 48.353578
-20.224025 62.062685 49.505388
-19.978296 65.704262 47.158476
-20.799307 65.083815 47.698482
-20.118254 63.896749 48.353578
-19.826459 67.453179 45.945074
-19.978296 65.704262 47.158476
-19.728862 69.278748 44.63266
-20.561752 68.716896 45.190966
-19.826459 67.453179 45.945074
-17.400244 90.080689 24.506659
-18.315362 89.986042 24.963
-17.124783 91.254829 22.952649
-17.400244 90.080689 24.506659
-16.400507 90.021377 24.176322
-14.897133 92.415573 20.36648
-15.859834 92.386963 20.929416
-15.162345 91.224129 22.059377
-14.634897 93.493888 18.794344
-14.897133 92.415573 20.36648
-26.990693 36.948513 59.442676
-26.602429 35.811362 60.250614
-26.378068 37.974417 59.655075
-26.990693 36.948513 59.442676
-27.334997 37.856037 58.59094
-28.685461 40.893028 54.974694
-28.418293 40.132801 55.945548
-28.597292 43.015377 54.319952
-28.685461 40.893028 54.974694
-28.501455 45.206236 53.543953
-28.597292 43.015377 54.319952
-28.205256 44.388434 54.557795
-28.442282 47.280424 52.75894
-28.834317 45.907367 52.521097
-28.501455 45.206236 53.543953
-25.131706 96.784168 11.946615
-25.770959 95.998024 12.244291
-25.339355 95.68185 13.736353
-24.862789 97.859928 10.133881
-25.131706 96.784168 11.946615
-24.431186 97.543755 11.625943
-24.667294 98.845523 8.270338
-24.862789 97.859928 10.133881
-24.667294 98.845523 8.270338
-23.992501 99.490238 8.032224
-27.570232 70.338669 40.340156
-28.073329 69.116165 40.418219
-27.678379 68.413269 41.61685
-27.45802 72.144509 39.049736
-27.570232 70.338669 40.340156
-27.063069 71.441612 40.248368
-27.379499 73.904511 37.695619
-27.45802 72.144509 39.049736
-27.313152 75.544697 36.352108
-27.379499 73.904511 37.695619
-26.88451 74.887638 37.614435
-27.24195 77.201465 34.930718
-27.736939 76.218338 35.011902
-27.313152 75.544697 36.352108
-18.21198 104.505093 -0.570609
-17.24688 104.59322 -0.80896
-28.2108 65.399316 42.888367
-28.574109 66.021507 41.61148
-27.821341 62.851807 45.291492
-28.284387 61.808096 45.157331
-27.865603 61.052035 46.367002
-27.769274 64.704317 44.125486
-27.821341 62.851807 45.291492
-27.35049 63.948256 45.335157
-27.73995 66.495766 42.932032
-28.2108 65.399316 42.888367
-27.769274 64.704317 44.125486
-29.271533 85.663643 17.590418
-29.342476 84.406803 19.147928
-29.194223 86.872574 15.944168
-29.271533 85.663643 17.590418
-28.953026 87.001549 17.300892
-29.120839 88.08511 14.226214
-29.194223 86.872574 15.944168
-28.769986 89.436611 13.901718
-28.455055 89.515266 15.389796
-28.349324 90.741398 13.636871
-29.120839 88.08511 14.226214
-28.769986 89.436611 13.901718
-26.942729 94.154454 12.741293
-26.52833 93.962639 14.311375
-26.393008 95.087521 12.463947
-27.432568 93.052884 13.174159
-26.942729 94.154454 12.741293
-23.909932 44.748566 58.292601
-24.423581 45.883591 57.574484
-24.604116 43.77002 58.445622
-23.166472 45.657905 58.060107
-23.909932 44.748566 58.292601
-22.937903 47.561729 57.217123
-23.166472 45.657905 58.060107
-25.06432 39.863459 59.844459
-25.771184 38.873829 59.810121
-24.821515 41.772694 59.160484
-25.06432 39.863459 59.844459
-24.604116 43.77002 58.445622
-25.335164 42.907719 58.442368
-24.821515 41.772694 59.160484
-12.537954 98.900806 9.092733
-12.87436 98.035362 10.796471
-13.226284 99.933166 7.731391
-12.537954 98.900806 9.092733
-12.18129 99.746418 7.280765
-12.47248 101.411873 4.308255
-11.751701 100.420749 5.693366
-13.579303 101.637737 4.617615
-12.47248 101.411873 4.308255
-13.182164 102.270832 3.006447
-16.193414 104.570244 -1.071875
-17.24688 104.59322 -0.80896
-16.517213 103.973263 0.722123
-16.193414 104.570244 -1.071875
-15.122077 104.490917 -1.245386
-14.061917 104.324776 -1.471493
-12.925375 104.123607 -1.725665
-28.498581 67.989971 40.350386
-28.073329 69.116165 40.418219
-29.127829 84.466946 20.461689
-29.342476 84.406803 19.147928
-28.779739 85.704007 20.329417
-29.127829 84.466946 20.461689
-28.877232 84.378334 21.843964
-28.24772 85.283066 23.204225
-28.647541 84.130497 23.324792
-28.366118 83.798168 24.817327
-22.641243 51.398428 55.42452
-22.785926 49.447828 56.367695
-23.257077 52.637304 54.744064
-22.641243 51.398428 55.42452
-22.472877 53.401398 54.445978
-20.593276 56.473042 52.749642
-20.768995 54.607037 53.768597
-20.497007 58.408672 51.669646
-20.372568 60.270598 50.591154
-21.332619 57.756496 52.145113
-20.593276 56.473042 52.749642
-20.497007 58.408672 51.669646
-19.579614 70.92136 43.396732
-19.728862 69.278748 44.63266
-20.375173 72.110592 42.659187
-19.579614 70.92136 43.396732
-21.150633 73.295422 41.784534
-21.239615 71.727295 43.003899
-20.375173 72.110592 42.659187
-21.826439 74.483506 40.854763
-21.150633 73.295422 41.784534
-20.961996 74.866803 40.510052
-20.560833 79.790993 36.190687
-20.667523 78.146064 37.68223
-21.23425 80.892548 35.203409
-20.560833 79.790993 36.190687
-21.943887 81.908718 34.159422
-22.080248 80.325763 35.669888
-21.23425 80.892548 35.203409
-21.73502 83.520336 32.565005
-22.581018 82.953552 33.031483
-21.943887 81.908718 34.159422
-21.517525 84.934383 31.101618
-21.73502 83.520336 32.565005
-21.339154 86.347427 29.573824
-22.193782 85.978214 29.909271
-21.517525 84.934383 31.101618
-21.183692 87.81715 27.925951
-21.339154 86.347427 29.573824
-21.022384 89.24482 26.2303
-21.854102 88.818928 26.685826
-21.183692 87.81715 27.925951
-20.750917 90.576046 24.584285
-21.022384 89.24482 26.2303
-20.080507 89.574269 25.82441
-18.96678 91.109817 23.73069
-19.157621 89.78172 25.410704
-18.315362 89.986042 24.963
-13.571146 96.322071 14.011529
-14.643897 96.608799 14.267187
-13.892765 95.415565 15.611432
-13.244024 97.249237 12.358434
-13.571146 96.322071 14.011529
-23.000464 100.9477 5.875816
-23.205265 100.076836 7.705239
-22.382996 100.663574 7.329817
-23.000464 100.9477 5.875816
-22.698463 101.818463 4.03369
-19.206311 104.384869 -0.347173
-18.56501 103.876015 1.208474
-18.21198 104.505093 -0.570609
-20.230469 104.109307 -0.117106
-19.206311 104.384869 -0.347173
-21.200026 103.809037 0.085303
-20.528898 103.455521 1.634319
-20.230469 104.109307 -0.117106
-22.061714 103.368629 0.367066
-21.200026 103.809037 0.085303
-22.358593 102.628869 2.201856
-22.061714 103.368629 0.367066
3 0 38 36
3 0 41 39
3 0 36 41
3 1 45 43
3 2 48 46
3 2 50 48
3 3 52 51
3 5 55 53
3 5 57 55
3 3 142 144
3 144 143 58
3 142 143 144
3 3 145 147
3 145 51 146
3 145 146 147
3 6 61 59
3 148 64 149
3 150 149 62
3 148 149 150
3 4 151 152
3 8 153 155
3 155 154 65
3 153 154 155
3 8 156 157
3 8 158 160
3 158 67 159
3 158 159 160
3 9 70 68
3 9 72 70
3 161 75 162
3 164 163 75
3 7 79 77
3 10 82 80
3 12 83 37
3 12 84 83
3 13 165 167
3 167 166 40
3 165 166 167
3 13 168 169
3 13 170 172
3 170 85 171
3 170 171 172
3 10 86 42
3 10 80 86
3 14 89 87
3 15 90 44
3 15 173 175
3 175 174 90
3 173 174 175
3 16 92 91
3 17 93 47
3 17 94 93
3 17 96 94
3 19 97 49
3 19 98 97
3 20 176 177
3 20 178 179
3 11 99 81
3 21 100 54
3 21 101 100
3 21 102 101
3 22 103 56
3 22 104 103
3 23 106 105
3 181 180 60
3 183 182 88
3 24 110 108
3 26 111 63
3 26 112 111
3 184 113 185
3 27 186 188
3 186 114 187
3 186 187 188
3 27 115 114
3 27 189 191
3 191 190 115
3 189 190 191
3 192 116 193
3 28 117 66
3 28 118 117
3 18 119 95
3 29 120 69
3 29 121 120
3 29 122 121
3 30 123 71
3 30 124 123
3 194 125 195
3 196 195 107
3 194 195 196
3 31 197 199
3 197 126 198
3 197 198 199
3 31 127 126
3 32 200 202
3 200 128 201
3 200 201 202
3 32 129 128
3 32 130 129
3 33 131 73
3 33 132 131
3 203 133 204
3 205 134 206
3 207 206 133
3 205 206 207
3 208 135 209
3 34 136 74
3 34 137 136
3 34 138 137
3 210 139 211
3 212 211 76
3 210 211 212
3 214 213 139
3 25 140 109
3 35 141 78
3 35 215 217
3 217 216 141
3 215 216 217
3 36 37 10
3 38 37 36
3 38 12 37
3 39 218 220
3 218 40 219
3 218 219 220
3 41 40 39
3 41 13 40
3 41 42 13
3 36 42 41
3 36 10 42
3 43 44 14
3 45 44 43
3 45 15 44
3 46 47 16
3 48 47 46
3 48 17 47
3 48 49 17
3 50 49 48
3 50 19 49
3 51 221 222
3 52 223 225
3 225 224 51
3 223 224 225
3 52 226 228
3 226 20 227
3 226 227 228
3 53 54 11
3 55 54 53
3 55 21 54
3 55 56 21
3 57 56 55
3 57 22 56
3 58 229 230
3 232 231 58
3 51 233 234
3 51 235 236
3 59 60 23
3 61 60 59
3 61 237 239
3 239 238 60
3 237 238 239
3 62 63 24
3 64 63 62
3 64 26 63
3 240 27 241
3 243 242 27
3 65 244 245
3 247 246 65
3 248 66 249
3 67 250 252
3 250 66 251
3 250 251 252
3 67 28 66
3 68 69 18
3 70 69 68
3 70 29 69
3 70 71 29
3 72 71 70
3 72 30 71
3 253 31 254
3 255 32 256
3 257 73 258
3 259 258 32
3 257 258 259
3 260 73 261
3 262 33 263
3 264 263 73
3 262 263 264
3 265 74 266
3 75 267 269
3 267 74 268
3 267 268 269
3 75 34 74
3 75 76 34
3 270 76 271
3 272 271 75
3 270 271 272
3 274 273 76
3 77 78 25
3 79 78 77
3 79 35 78
3 80 81 3
3 82 81 80
3 82 11 81
3 37 82 10
3 83 82 37
3 83 11 82
3 83 53 11
3 84 53 83
3 84 5 53
3 40 275 277
3 275 276 277
3 279 278 40
3 85 280 281
3 85 282 283
3 42 85 13
3 86 85 42
3 86 284 286
3 286 285 85
3 284 285 286
3 86 287 289
3 287 58 288
3 287 288 289
3 80 58 86
3 80 3 58
3 87 88 6
3 89 88 87
3 89 290 292
3 292 291 88
3 290 291 292
3 44 89 14
3 90 89 44
3 90 293 295
3 295 294 89
3 293 294 295
3 90 296 297
3 299 298 90
3 91 300 302
3 302 301 4
3 300 301 302
3 92 303 305
3 305 304 91
3 303 304 305
3 92 306 307
3 47 92 16
3 93 92 47
3 93 308 310
3 310 309 92
3 308 309 310
3 93 311 313
3 311 65 312
3 311 312 313
3 94 65 93
3 94 8 65
3 94 95 8
3 96 95 94
3 96 18 95
3 49 96 17
3 97 96 49
3 97 18 96
3 97 68 18
3 98 68 97
3 98 9 68
3 315 314 7
3 316 4 317
3 81 52 3
3 99 52 81
3 99 20 52
3 54 99 11
3 100 99 54
3 100 20 99
3 100 318 320
3 320 319 20
3 318 319 320
3 101 321 323
3 323 322 100
3 321 322 323
3 101 324 326
3 324 4 325
3 324 325 326
3 101 91 4
3 102 91 101
3 102 16 91
3 56 102 21
3 103 102 56
3 103 16 102
3 103 46 16
3 104 46 103
3 104 2 46
3 105 327 328
3 106 329 331
3 331 330 105
3 329 330 331
3 106 332 333
3 60 106 23
3 334 106 335
3 336 335 60
3 334 335 336
3 338 337 106
3 88 61 6
3 339 61 340
3 341 340 88
3 339 340 341
3 343 342 61
3 344 107 345
3 346 345 0
3 344 345 346
3 347 107 348
3 350 349 107
3 351 39 352
3 353 39 354
3 355 0 356
3 357 356 39
3 355 356 357
3 108 109 1
3 110 109 108
3 110 25 109
3 63 110 24
3 111 110 63
3 111 25 110
3 111 77 25
3 112 77 111
3 112 7 77
3 358 64 359
3 113 360 362
3 360 64 361
3 360 361 362
3 113 26 64
3 363 113 364
3 114 365 367
3 365 113 366
3 365 366 367
3 114 26 113
3 114 112 26
3 115 112 114
3 115 7 112
3 115 368 370
3 370 369 7
3 368 369 370
3 372 371 115
3 374 373 27
3 376 375 4
3 377 105 378
3 116 379 381
3 379 105 380
3 379 380 381
3 116 23 105
3 66 382 384
3 382 116 383
3 382 383 384
3 117 116 66
3 117 23 116
3 117 59 23
3 118 59 117
3 118 6 59
3 95 67 8
3 119 67 95
3 119 28 67
3 69 119 18
3 120 119 69
3 120 28 119
3 120 118 28
3 121 118 120
3 121 6 118
3 121 87 6
3 122 87 121
3 122 14 87
3 71 122 29
3 123 122 71
3 123 14 122
3 123 43 14
3 124 43 123
3 124 1 43
3 107 38 0
3 125 38 107
3 125 12 38
3 385 125 386
3 126 387 389
3 387 125 388
3 387 388 389
3 126 12 125
3 126 84 12
3 127 84 126
3 127 5 84
3 390 31 391
3 128 392 393
3 128 394 396
3 394 31 395
3 394 395 396
3 128 127 31
3 129 127 128
3 129 5 127
3 129 57 5
3 130 57 129
3 130 22 57
3 73 130 32
3 131 130 73
3 131 22 130
3 131 104 22
3 132 104 131
3 132 2 104
3 397 33 398
3 399 33 400
3 401 132 402
3 403 402 33
3 401 402 403
3 133 404 406
3 404 132 405
3 404 405 406
3 133 2 132
3 133 50 2
3 134 50 133
3 134 19 50
3 407 134 408
3 409 134 410
3 411 19 412
3 413 412 134
3 411 412 413
3 414 98 415
3 416 415 19
3 414 415 416
3 417 98 418
3 419 9 420
3 421 420 98
3 419 420 421
3 422 9 423
3 424 72 425
3 426 425 9
3 424 425 426
3 135 427 429
3 427 72 428
3 427 428 429
3 135 30 72
3 74 430 432
3 430 135 431
3 430 431 432
3 136 135 74
3 136 30 135
3 136 124 30
3 137 124 136
3 137 1 124
3 137 108 1
3 138 108 137
3 138 24 108
3 76 138 34
3 139 138 76
3 139 24 138
3 139 62 24
3 433 62 434
3 435 434 139
3 433 434 435
3 437 436 62
3 109 45 1
3 140 45 109
3 140 15 45
3 78 140 25
3 141 140 78
3 141 15 140
3 141 438 440
3 440 439 15
3 438 439 440
3 442 441 141
3 443 79 444
3 445 444 7
3 443 444 445
3 446 79 447
3 448 35 449
3 450 449 79
3 448 449 450
3 451 35 452
3 454 453 35
