ply
format ascii 1.0
element vertex 195
property float x
property float y
property float z
element face 181
property list uchar int vertex_index
end_header
17.190144 36.660641 60.863956
11.58322 45.422916 53.960278
18.800379 52.153141 54.454544
20.825638 39.075706 60.907578
18.020927 44.327724 57.94212
9.502278 56.702152 46.943981
20.177362 31.329996 63.715485
23.350101 33.619778 62.899651
12.349298 52.986034 50.809872
14.429952 41.210674 57.595078
15.156991 48.975937 54.454567
16.067297 56.692272 50.973591
21.00334 43.000813 59.264133
21.867369 32.323166 63.521313
10.424411 51.005096 50.545856
11.872036 49.322258 52.319
15.384819 34.985981 60.674305
13.945792 37.178848 59.015976
15.766531 38.850292 59.319027
18.368343 48.215153 56.261185
16.606318 46.909149 56.161499
17.120462 50.693062 54.571632
15.714282 53.00235 52.756325
17.443081 54.737278 52.638809
17.881754 58.588825 50.685654
19.152771 55.989571 52.533936
19.033253 37.863338 61.032494
17.501488 40.41291 59.455235
19.336258 41.526554 59.598175
19.721338 45.698059 57.835682
20.121695 49.630043 56.043522
11.559645 58.691505 47.188713
18.660667 34.156891 62.350437
20.443352 34.982578 62.454514
22.091743 36.218941 62.085846
9.114509 52.94619 48.689621
11.068623 54.992661 48.921001
12.888312 56.773376 49.128761
12.673644 39.632179 57.226124
12.951509 43.32011 55.783695
16.259041 42.946289 57.802197
14.830202 45.071285 56.100536
13.309015 47.102287 54.275158
13.754645 50.993275 52.680649
14.163237 54.826912 50.960136
14.713467 58.655216 49.15329
16.609615 60.702393 48.921551
18.521315 62.240051 48.73217
10.806598 46.293291 53.044779
10.571744 44.501865 53.712446
11.727628 47.372587 53.139639
10.951006 48.242962 52.22414
10.806598 46.293291 53.044779
20.613404 46.307995 57.67626
20.362339 44.349436 58.549908
21.254405 44.959372 58.390485
20.813582 48.273987 56.78018
19.921516 47.664051 56.939602
20.613404 46.307995 57.67626
20.945017 50.304495 55.790548
20.813582 48.273987 56.78018
9.830728 58.616041 46.062613
8.777413 57.538088 45.985245
10.530962 57.696828 47.066347
10.859411 59.610717 46.184978
9.830728 58.616041 46.062613
19.299208 30.832689 63.669533
20.10781 29.436807 64.319905
19.419014 32.743443 63.032961
18.54086 32.246136 62.987009
19.299208 30.832689 63.669533
23.524974 35.483787 62.154039
22.895795 36.783369 61.747137
22.720922 34.919359 62.492748
24.128128 33.894758 62.524895
23.524974 35.483787 62.154039
8.854893 51.037977 49.461683
8.169747 52.011204 48.527214
19.096339 61.018362 49.616232
18.201535 60.414438 49.708912
18.776558 59.192749 50.592974
19.346128 62.93813 48.485617
19.096339 61.018362 49.616232
21.727235 41.532015 59.898015
20.914489 41.038259 60.085856
21.638384 39.569462 60.719738
21.818117 43.560875 59.01465
21.727235 41.532015 59.898015
21.254405 44.959372 58.390485
21.818117 43.560875 59.01465
8.598982 55.75468 46.851673
8.777413 57.538088 45.985245
20.91074 29.953274 64.239937
20.10781 29.436807 64.319905
21.755744 30.44986 64.142851
21.022365 31.826581 63.618399
20.91074 29.953274 64.239937
22.566789 31.064425 63.877898
21.755744 30.44986 64.142851
23.308155 31.71273 63.567066
22.608735 32.971472 63.210482
22.566789 31.064425 63.877898
24.02807 32.012034 63.24041
23.308155 31.71273 63.567066
10.227193 49.084381 51.337568
9.509843 50.067431 50.389801
11.148224 50.163677 51.432428
10.227193 49.084381 51.337568
10.951006 48.242962 52.22414
14.665306 36.082414 59.84514
13.816012 35.331455 59.670212
14.535526 34.235022 60.499376
19.412067 57.893122 51.517115
18.776558 59.192749 50.592974
18.517263 57.289198 51.609795
11.323102 43.486698 54.661915
10.571744 44.501865 53.712446
20.312902 51.640618 55.053387
19.652245 52.902166 54.258898
19.461037 50.891592 55.249033
20.312902 51.640618 55.053387
20.945017 50.304495 55.790548
11.785998 60.552042 46.220092
10.859411 59.610717 46.184978
12.511888 59.688021 47.206608
11.785998 60.552042 46.220092
15.35584 33.137119 61.346418
14.535526 34.235022 60.499376
16.171107 33.939945 61.434175
15.35584 33.137119 61.346418
17.07377 34.777275 61.529001
16.287481 35.823311 60.769131
16.171107 33.939945 61.434175
17.809031 33.5254 62.272241
18.54086 32.246136 62.987009
17.925406 35.408766 61.607197
17.07377 34.777275 61.529001
17.809031 33.5254 62.272241
22.271437 38.141079 61.308872
21.638384 39.569462 60.719738
21.458691 37.647323 61.496712
22.271437 38.141079 61.308872
22.895795 36.783369 61.747137
24.128128 33.894758 62.524895
24.02807 32.012034 63.24041
8.405097 53.8767 47.724493
8.169747 52.011204 48.527214
9.308394 54.824171 47.816801
8.598982 55.75468 46.851673
8.405097 53.8767 47.724493
9.76946 51.975643 49.617739
8.854893 51.037977 49.461683
9.509843 50.067431 50.389801
13.176222 58.728956 48.176632
12.511888 59.688021 47.206608
12.223979 57.73244 48.158737
13.04799 36.465134 58.763267
13.816012 35.331455 59.670212
12.411916 37.691799 57.868341
13.04799 36.465134 58.763267
13.309718 38.405513 58.12105
11.723491 38.725122 57.004024
12.411916 37.691799 57.868341
11.868314 40.59133 56.294838
11.723491 38.725122 57.004024
12.007247 42.435295 55.573623
11.868314 40.59133 56.294838
12.812576 41.476145 56.504909
12.267364 44.371513 54.871987
11.323102 43.486698 54.661915
12.007247 42.435295 55.573623
14.0888 59.669876 48.188896
13.176222 58.728956 48.176632
13.80089 57.714296 49.141025
15.033562 60.631992 48.142044
14.0888 59.669876 48.188896
15.981636 61.65558 48.026174
15.033562 60.631992 48.142044
15.661541 59.678804 49.03742
16.92895 62.674366 47.827841
15.981636 61.65558 48.026174
17.8848 63.443195 47.733151
16.92895 62.674366 47.827841
17.565465 61.471222 48.826861
18.787134 64.205806 47.537983
17.8848 63.443195 47.733151
18.787134 64.205806 47.537983
19.346128 62.93813 48.485617
19.82844 54.820381 53.298593
18.976575 54.071356 53.49424
19.652245 52.902166 54.258898
20.043194 56.645124 52.325451
19.82844 54.820381 53.298593
19.412067 57.893122 51.517115
20.043194 56.645124 52.325451
3 1 48 49
3 1 50 52
3 50 15 51
3 50 51 52
3 0 18 16
3 2 21 19
3 2 23 21
3 2 25 23
3 3 28 26
3 53 29 54
3 55 54 12
3 53 54 55
3 56 30 57
3 58 57 29
3 56 57 58
3 60 59 30
3 5 61 62
3 5 63 65
3 63 31 64
3 63 64 65
3 6 66 67
3 6 68 70
3 68 32 69
3 68 69 70
3 6 33 32
3 7 34 13
3 7 71 73
3 73 72 34
3 71 72 73
3 7 74 75
3 76 35 77
3 8 36 14
3 8 37 36
3 9 38 17
3 9 39 38
3 4 40 27
3 10 41 20
3 10 42 41
3 10 43 42
3 11 44 22
3 11 45 44
3 11 46 45
3 78 47 79
3 80 79 24
3 78 79 80
3 82 81 47
3 83 12 84
3 85 84 3
3 83 84 85
3 86 12 87
3 89 88 12
3 90 5 91
3 92 6 93
3 94 13 95
3 96 95 6
3 94 95 96
3 97 13 98
3 99 7 100
3 101 100 13
3 99 100 101
3 103 102 7
3 104 14 105
3 15 106 108
3 106 14 107
3 106 107 108
3 15 8 14
3 16 109 111
3 109 17 110
3 109 110 111
3 18 17 16
3 18 9 17
3 19 20 4
3 21 20 19
3 21 10 20
3 21 22 10
3 23 22 21
3 23 11 22
3 23 24 11
3 25 24 23
3 25 112 114
3 114 113 24
3 112 113 114
3 115 1 116
3 26 27 0
3 28 27 26
3 28 4 27
3 12 28 3
3 29 28 12
3 29 4 28
3 29 19 4
3 30 19 29
3 30 2 19
3 30 117 119
3 119 118 2
3 117 118 119
3 121 120 30
3 31 122 123
3 31 124 125
3 126 16 127
3 128 16 129
3 130 0 131
3 132 131 16
3 130 131 132
3 32 133 134
3 32 135 137
3 135 0 136
3 135 136 137
3 32 26 0
3 33 26 32
3 33 3 26
3 13 33 6
3 34 33 13
3 34 3 33
3 34 138 140
3 140 139 3
3 138 139 140
3 142 141 34
3 144 143 7
3 35 145 146
3 35 147 149
3 147 5 148
3 147 148 149
3 14 150 152
3 150 35 151
3 150 151 152
3 36 35 14
3 36 5 35
3 36 31 5
3 37 31 36
3 37 153 155
3 155 154 31
3 153 154 155
3 17 156 157
3 38 158 160
3 160 159 17
3 158 159 160
3 38 161 162
3 38 163 164
3 39 165 167
3 167 166 38
3 165 166 167
3 39 168 170
3 168 1 169
3 168 169 170
3 27 18 0
3 40 18 27
3 40 9 18
3 20 40 4
3 41 40 20
3 41 9 40
3 41 39 9
3 42 39 41
3 42 1 39
3 42 15 1
3 43 15 42
3 43 8 15
3 22 43 10
3 44 43 22
3 44 8 43
3 44 37 8
3 45 37 44
3 45 171 173
3 173 172 37
3 171 172 173
3 45 174 175
3 46 176 178
3 178 177 45
3 176 177 178
3 46 179 180
3 24 46 11
3 47 46 24
3 47 181 183
3 183 182 46
3 181 182 183
3 47 184 185
3 187 186 47
3 188 25 189
3 190 189 2
3 188 189 190
3 191 25 192
3 194 193 25
