ply
format ascii 1.0
element vertex 602
property float x
property float y
property float z
element face 656
property list uchar int vertex_index
end_header
26.639883 70.671349 40.601261
28.180948 92.57077 12.471737
23.912971 41.333057 59.708942
10.599897 99.449577 7.455632
17.824593 98.703148 13.343709
27.726677 82.772102 27.465693
23.855566 101.607872 5.430252
23.766169 93.142593 20.609886
22.603289 81.540802 34.195953
20.756092 67.568146 45.687832
25.302156 56.435669 51.494339
28.528067 43.112137 54.152588
7.56675 95.674789 10.602893
11.019115 95.910431 13.368349
27.339041 77.199799 33.976131
28.132362 64.028877 42.967911
17.74247 93.887482 20.233046
21.036634 96.52179 16.984173
20.654341 91.345406 23.935469
23.233923 87.686874 27.64477
20.07905 85.626686 30.277863
21.50547 46.917931 57.516838
22.245171 54.575745 53.630432
24.603424 48.86882 55.966789
27.021833 49.838367 53.440254
26.522596 42.786217 57.421917
28.309875 96.03196 4.603518
29.931341 93.184647 0.159759
29.764082 90.300026 7.888847
13.714798 102.92942 3.439349
17.541553 102.484367 6.416369
14.27821 99.659882 10.040358
14.562564 95.625549 16.362837
26.194836 34.968636 60.987206
28.0429 87.978294 20.164181
29.601048 86.273933 15.777377
26.379438 97.563194 9.060271
21.023331 100.831024 9.643587
23.979219 97.781746 13.209804
26.238409 93.630493 16.586523
25.985991 88.520096 24.172861
25.474577 82.893356 31.138166
24.786049 76.540604 37.687458
21.76564 74.61866 40.395939
23.95067 69.768822 43.559746
19.671362 59.796673 50.500294
22.987696 62.325924 48.976692
26.002436 63.920647 46.21191
27.654219 57.169048 48.389713
28.852419 50.323898 49.709888
29.727634 43.25272 50.186577
28.149256 36.0574 58.006821
29.519718 36.241673 54.135689
7.773152 94.001816 13.195059
27.04418 73.959648 37.362019
27.787405 70.754005 38.647259
27.466974 67.584808 41.695854
17.544418 91.222351 23.437271
19.271191 92.897774 21.896442
18.922411 89.935532 25.373259
20.385666 88.464729 27.26717
22.45113 40.063217 60.531898
22.632895 44.120937 58.765167
23.087065 48.196697 56.79554
24.227844 44.998734 57.973442
25.611471 45.839302 56.816925
25.296021 41.849304 58.843903
28.294104 94.375656 8.452763
29.118237 93.275108 6.121077
29.004311 91.698639 10.022696
12.117036 101.259338 5.530342
14.217066 101.46244 6.789361
12.493215 99.66201 8.734569
10.992865 93.854187 16.150442
12.725959 95.773544 14.903667
12.685988 93.59256 17.787674
14.36972 93.19088 19.439243
12.595929 91.18634 20.68054
8.535782 98.930542 6.300978
10.180657 100.882446 4.408236
11.711999 102.75399 2.054606
27.907249 85.544609 23.742525
28.780554 84.945908 21.526844
28.605797 82.426186 25.228889
25.098886 101.36116 3.435683
26.343267 99.273842 5.197129
25.183867 99.748482 7.280786
17.751642 100.840256 9.650537
19.37429 101.783241 8.066544
19.407272 99.829994 11.7201
22.46739 95.072281 18.68054
22.465254 97.293976 15.293622
23.865425 95.636894 16.898134
25.139307 95.928841 14.851333
25.113838 93.497261 18.717726
26.179287 91.117432 20.430824
24.913403 90.888199 22.560463
22.980381 84.799828 30.849701
24.508057 85.561295 29.217396
24.086994 82.363457 32.788532
25.240976 79.823853 34.374916
23.79228 79.091759 36.02924
21.312105 71.271637 43.02919
22.964991 72.497551 41.866009
22.452126 68.685387 44.819233
23.866753 55.706459 52.665394
22.619844 58.374756 51.449707
24.154636 59.618816 50.256111
24.589478 63.218376 47.760178
25.61047 60.109272 49.040073
26.85129 60.610199 47.427322
26.536659 57.032387 50.027145
27.831722 46.569897 53.879097
27.997679 50.178318 51.739891
28.665092 46.919853 51.972179
29.321768 46.746326 50.109886
29.22546 43.132969 52.203281
27.162836 31.691349 61.194832
27.267792 35.474579 59.64122
28.054993 32.211483 59.669857
29.310791 96.755287 -5.465065
9.061477 97.631599 9.020728
10.844901 97.808792 10.382954
9.346096 96.005295 11.782881
9.36148 94.113617 14.446612
27.526613 79.999382 30.87081
17.799303 96.396461 16.839363
19.497269 97.753708 15.160838
19.420107 95.388763 18.628363
20.946259 94.088722 20.434729
22.304773 92.597343 22.115948
23.444134 90.510246 24.232214
21.971952 89.772896 25.673441
21.763588 86.704292 29.14444
21.328085 83.732597 32.254925
20.50411 53.651192 54.063251
21.768339 50.978947 55.537575
23.437906 51.84103 54.886623
24.937212 52.694706 53.816536
26.233408 53.155685 52.562576
25.897583 49.505184 54.798561
26.781363 46.351143 55.484398
27.641663 43.105534 55.848003
28.326242 97.46582 0.536774
29.197159 95.999825 -1.616287
29.152367 94.730598 2.407557
29.872583 91.827614 3.945793
15.781756 102.88018 4.891172
15.974777 101.152542 8.40045
16.162729 99.366463 11.60649
12.592032 97.796799 11.836019
14.394074 97.704124 13.246385
16.153561 97.279732 14.880915
16.100378 94.809967 18.328938
16.0604 92.371582 21.403152
23.699846 37.347797 61.408428
25.063761 38.023556 60.577934
24.906155 34.169739 62.150139
26.033314 30.902763 62.60022
28.179623 90.344444 16.211685
28.977121 89.636909 13.844454
28.876999 87.34729 17.861406
29.530214 83.981392 19.369381
27.413408 98.547676 2.693875
27.381765 97.004234 6.812072
27.37553 95.14917 10.775277
20.929718 102.626572 5.926332
22.5688 101.335854 7.676122
21.091383 98.702736 13.499908
22.509047 99.484375 11.446802
23.949528 99.806824 9.343621
25.226284 97.977135 10.958426
26.27285 95.796043 12.830091
27.254551 93.23661 14.651082
27.27747 90.804192 18.418861
27.08707 88.373764 22.274601
26.916876 85.727203 25.917362
24.673443 88.321503 25.969114
25.821466 85.850945 27.563906
26.707436 82.991058 29.360683
26.497929 80.118752 32.621994
26.162823 77.07267 35.90287
25.785217 73.899399 39.032486
21.021471 80.445648 35.400532
22.092371 78.162033 37.377861
23.325935 76.019279 38.907768
24.384912 73.278061 40.646492
25.350368 70.505447 42.103954
20.170942 63.636208 48.239063
20.933617 57.300678 52.116966
21.398298 61.148357 49.881302
21.835659 64.999123 47.429062
23.468096 65.928871 46.475498
25.000813 66.817024 45.058453
26.327169 67.399254 43.437016
27.113947 64.194191 44.683292
27.869452 60.754978 45.732193
28.485352 57.303082 46.627754
27.346399 53.720444 50.89418
28.314774 53.624565 49.205151
29.07741 53.748287 47.145393
29.522726 50.024632 47.669449
26.375641 38.902668 59.250195
27.430746 39.355934 57.825897
28.355286 39.426018 56.192577
28.819517 32.499043 57.888336
28.921576 36.180908 56.180981
29.040051 39.806496 54.307301
29.63509 39.664402 52.21233
30.074785 93.988083 -3.536972
29.654449 88.501251 11.895443
30.343645 87.098061 9.536273
18.082145 89.208355 25.901292
18.233415 90.578941 24.405265
17.393149 89.851765 24.933298
18.800172 88.484379 26.93925
18.082145 89.208355 25.901292
11.788615 92.576427 18.369476
11.839427 93.723374 16.969058
10.942053 92.707241 17.55086
11.743585 91.373317 19.815908
12.640958 92.38945 19.234107
11.788615 92.576427 18.369476
24.477226 101.484516 4.432968
24.404273 102.235153 2.530852
23.782613 102.358509 3.528137
21.034098 69.419892 44.358511
20.4544 70.642285 43.405342
20.176393 68.790539 44.734663
28.045932 30.226722 60.388903
27.608914 31.951416 60.432344
27.599854 29.966655 61.15139
28.85343 97.585667 -4.368785
28.847338 98.022834 -6.329828
8.590574 93.101024 15.093538
8.567316 94.057716 13.820836
7.79641 93.045124 14.467761
9.340203 93.040196 15.809445
8.590574 93.101024 15.093538
7.416051 96.385815 9.331936
6.721148 95.350948 10.221837
8.314113 96.653194 9.81181
8.163415 97.364219 8.540853
7.416051 96.385815 9.331936
27.816232 77.002987 33.050748
27.910018 78.402778 31.498088
27.432827 78.599591 32.423471
28.545333 63.976495 41.913162
28.255107 65.720531 41.444563
28.422691 62.349918 43.414257
28.545333 63.976495 41.913162
20.613404 46.307995 57.67626
21.254405 44.959372 58.390485
20.813582 48.273987 56.78018
20.613404 46.307995 57.67626
21.636904 48.948439 56.527206
20.945017 50.304495 55.790548
20.813582 48.273987 56.78018
30.116854 89.500275 6.777803
30.171105 90.264069 4.806276
29.818332 91.06382 5.91732
14.748277 102.9048 4.165261
15.564667 103.573734 3.17139
14.531188 103.598354 2.445479
15.177881 91.494568 21.940779
15.21506 92.781231 20.421197
14.332541 91.904217 20.958824
15.867065 90.953129 22.954355
15.177881 91.494568 21.940779
13.538208 103.570865 1.774499
12.536808 103.48315 1.082128
12.713399 102.841705 2.746977
14.531188 103.598354 2.445479
13.538208 103.570865 1.774499
23.524974 35.483787 62.154039
22.895795 36.783369 61.747137
24.128128 33.894758 62.524895
24.303 35.758768 61.779284
23.524974 35.483787 62.154039
25.938815 29.012764 63.302464
25.369677 30.653526 63.090694
26.543332 29.281112 62.658427
25.938815 29.012764 63.302464
29.443695 82.840565 21.21354
29.155384 84.46365 20.448113
29.068865 83.322823 22.292271
29.683499 81.17152 22.008843
29.770018 82.312348 20.164684
29.443695 82.840565 21.21354
26.841169 99.68909 1.89341
27.403475 99.188408 0.713775
18.352005 102.968777 5.447501
17.420125 103.266728 4.637109
20.156337 79.74424 35.919344
20.381172 81.458709 34.384732
21.137318 75.756553 39.450434
20.912676 74.121403 40.762054
21.929006 76.390346 38.8869
21.300683 77.52824 37.941395
21.137318 75.756553 39.450434
19.096339 61.018362 49.616232
18.776558 59.192749 50.592974
19.921152 61.716441 49.369678
19.346128 62.93813 48.485617
19.096339 61.018362 49.616232
29.800829 44.873806 49.053877
29.597895 46.620609 49.015532
29.524701 44.999523 50.148232
29.944717 42.935526 49.130674
29.800829 44.873806 49.053877
29.094574 30.778775 57.645474
28.788253 30.711781 58.614841
29.220647 36.211291 55.158335
29.161196 34.480772 56.067913
29.460267 34.511155 55.045267
30.607295 85.352184 10.367147
30.285417 86.218609 11.392077
30.652845 86.291191 8.510865
30.607295 85.352184 10.367147
7.035312 93.892121 12.654419
7.669951 94.838302 11.898976
6.932111 94.728607 11.358336
7.094927 93.128292 13.737529
7.035312 93.892121 12.654419
7.79641 93.045124 14.467761
7.094927 93.128292 13.737529
6.932111 94.728607 11.358336
6.721148 95.350948 10.221837
27.542789 73.883503 36.445
27.69022 75.503579 34.752056
27.191611 75.579724 35.669075
27.914402 72.280682 37.08762
27.542789 73.883503 36.445
27.415793 72.356827 38.004639
28.238419 70.592823 37.658726
27.914402 72.280682 37.08762
28.082628 69.083096 39.284237
28.238419 70.592823 37.658726
27.922413 67.498497 40.808534
28.082628 69.083096 39.284237
27.62719 69.169407 40.171556
27.799668 65.806842 42.331882
28.255107 65.720531 41.444563
27.922413 67.498497 40.808534
19.531799 87.748977 27.886206
19.654038 89.200131 26.320214
18.800172 88.484379 26.93925
19.378491 86.329956 29.391552
20.232358 87.045708 28.772517
19.531799 87.748977 27.886206
21.727235 41.532015 59.898015
21.638384 39.569462 60.719738
21.818117 43.560875 59.01465
21.727235 41.532015 59.898015
22.542012 42.092077 59.648533
22.069183 45.519434 58.141002
21.254405 44.959372 58.390485
21.818117 43.560875 59.01465
13.445645 90.901947 21.579473
14.332541 91.904217 20.958824
13.482824 92.18861 20.059891
8.342489 99.560982 4.911179
7.565929 98.583343 5.831936
9.164926 100.536934 3.964808
8.342489 99.560982 4.911179
9.35822 99.906494 5.354607
9.883039 101.495895 2.792385
9.164926 100.536934 3.964808
10.946328 101.818218 3.231421
10.64871 102.431667 1.61557
9.883039 101.495895 2.792385
28.981486 82.062962 24.143294
29.068865 83.322823 22.292271
28.693175 83.686047 23.377866
25.095325 102.001469 1.466698
24.404273 102.235153 2.530852
25.683908 101.095833 2.264315
25.095325 102.001469 1.466698
25.721077 100.317501 4.316406
26.306098 100.052174 3.145037
25.683908 101.095833 2.264315
20.685909 72.447891 42.07868
20.4544 70.642285 43.405342
21.538873 72.945149 41.712564
20.912676 74.121403 40.762054
20.685909 72.447891 42.07868
19.412067 57.893122 51.517115
18.776558 59.192749 50.592974
29.69352 34.366171 54.025253
29.460267 34.511155 55.045267
29.746372 36.048815 53.100096
29.69352 34.366171 54.025253
29.327068 97.111805 -7.457012
28.847338 98.022834 -6.329828
29.719476 95.835529 -6.509457
29.327068 97.111805 -7.457012
30.331125 92.111172 -0.783511
30.232843 91.679352 1.134689
29.914118 85.806545 14.512629
29.874236 84.664535 16.420791
10.155895 92.910481 16.661361
10.177173 93.983902 15.298527
9.340203 93.040196 15.809445
10.942053 92.707241 17.55086
10.155895 92.910481 16.661361
7.900567 98.013691 7.180978
7.565929 98.583343 5.831936
8.79863 98.28107 7.660853
7.900567 98.013691 7.180978
8.163415 97.364219 8.540853
27.984004 79.889881 29.781279
28.084036 81.276241 28.078721
27.626645 81.385742 29.168252
27.984004 79.889881 29.781279
27.910018 78.402778 31.498088
27.816232 77.002987 33.050748
27.69022 75.503579 34.752056
23.115502 102.295685 4.704879
23.782613 102.358509 3.528137
19.904522 66.869854 46.015814
20.176393 68.790539 44.734663
20.312902 51.640618 55.053387
19.652245 52.902166 54.258898
21.136225 52.315069 54.800413
20.312902 51.640618 55.053387
20.945017 50.304495 55.790548
28.7617 96.732822 -0.539756
28.796614 97.207935 -2.444396
28.361156 97.940933 -1.367866
30.203463 91.000835 3.027706
30.232843 91.679352 1.134689
29.901962 92.50613 2.052776
30.203463 91.000835 3.027706
30.171105 90.264069 4.806276
16.540226 103.464634 3.87451
15.564667 103.573734 3.17139
16.661655 102.682274 5.653771
17.420125 103.266728 4.637109
16.540226 103.464634 3.87451
16.609074 90.378513 23.971415
16.802409 91.796966 22.420212
15.867065 90.953129 22.954355
17.393149 89.851765 24.933298
16.609074 90.378513 23.971415
11.527553 103.327908 0.454319
10.64871 102.431667 1.61557
11.527553 103.327908 0.454319
12.536808 103.48315 1.082128
22.271437 38.141079 61.308872
21.638384 39.569462 60.719738
23.075488 38.705507 60.970163
22.271437 38.141079 61.308872
22.895795 36.783369 61.747137
24.806097 32.287014 62.865654
24.128128 33.894758 62.524895
24.02807 32.012034 63.24041
25.469735 32.536251 62.37518
24.806097 32.287014 62.865654
25.369677 30.653526 63.090694
27.108092 29.675404 61.955732
26.598075 31.297056 61.897526
26.543332 29.281112 62.658427
27.599854 29.966655 61.15139
27.108092 29.675404 61.955732
29.838819 83.518265 18.216793
29.874236 84.664535 16.420791
29.565631 85.127662 17.573379
29.838819 83.518265 18.216793
29.770018 82.312348 20.164684
28.523596 81.103283 26.960318
28.166237 82.599144 26.347291
28.084036 81.276241 28.078721
28.918761 80.751641 25.904593
28.523596 81.103283 26.960318
28.981486 82.062962 24.143294
28.918761 80.751641 25.904593
27.859893 98.64748 -0.364775
28.361156 97.940933 -1.367866
27.869825 98.006748 1.615324
27.859893 98.64748 -0.364775
27.403475 99.188408 0.713775
26.878338 98.910759 3.945502
26.841169 99.68909 1.89341
26.306098 100.052174 3.145037
19.268373 102.618213 6.272589
18.352005 102.968777 5.447501
18.457921 102.133804 7.241456
20.046087 103.039879 5.202483
19.268373 102.618213 6.272589
20.152004 102.204906 6.996438
20.844566 103.420345 3.993159
20.046087 103.039879 5.202483
21.652577 102.805035 4.952919
20.844566 103.420345 3.993159
22.472119 102.159676 5.827814
21.652577 102.805035 4.952919
21.749259 101.981213 6.801227
23.212183 101.471863 6.553187
23.115502 102.295685 4.704879
22.472119 102.159676 5.827814
11.71566 90.125954 21.25153
11.743585 91.373317 19.815908
12.526262 89.870197 22.129697
11.71566 90.125954 21.25153
13.445645 90.901947 21.579473
12.526262 89.870197 22.129697
19.201096 84.82056 30.884189
19.378491 86.329956 29.391552
19.909962 84.049228 31.823397
19.201096 84.82056 30.884189
20.534479 83.102184 32.811928
20.703567 84.679642 31.266394
19.909962 84.049228 31.823397
21.174778 82.089123 33.827728
20.534479 83.102184 32.811928
20.381172 81.458709 34.384732
20.765233 78.670048 36.952731
20.156337 79.74424 35.919344
21.556921 79.303841 36.389196
20.765233 78.670048 36.952731
21.300683 77.52824 37.941395
19.611947 64.903885 47.291429
19.346128 62.93813 48.485617
20.463517 65.602177 46.963448
19.904522 66.869854 46.015814
19.611947 64.903885 47.291429
19.82844 54.820381 53.298593
19.652245 52.902166 54.258898
20.043194 56.645124 52.325451
19.82844 54.820381 53.298593
20.718864 55.475935 53.090108
20.30249 58.548676 51.30863
19.412067 57.893122 51.517115
20.043194 56.645124 52.325451
28.291236 60.712969 44.796398
28.422691 62.349918 43.414257
28.000907 62.391927 44.350052
28.599186 58.98702 45.244179
28.291236 60.712969 44.796398
28.177402 59.02903 46.179974
28.866859 57.199019 45.578733
28.980694 58.882957 44.195158
28.599186 58.98702 45.244179
29.162889 55.421621 45.837553
28.866859 57.199019 45.578733
28.781381 55.525684 46.886573
29.38872 53.489502 46.135126
29.162889 55.421621 45.837553
29.611377 51.627674 46.397154
29.38872 53.489502 46.135126
29.300068 51.88646 47.407421
29.782797 49.887332 46.510059
29.611377 51.627674 46.397154
29.698374 48.259762 47.795313
29.422247 48.385479 48.889668
29.597895 46.620609 49.015532
29.782797 49.887332 46.510059
29.698374 48.259762 47.795313
28.405991 30.568001 59.505602
28.045932 30.226722 60.388903
28.437255 32.355263 58.779097
28.405991 30.568001 59.505602
28.788253 30.711781 58.614841
29.110166 32.63984 56.921591
29.094574 30.778775 57.645474
28.870547 34.339976 57.034659
29.110166 32.63984 56.921591
29.161196 34.480772 56.067913
29.804058 37.760179 52.138417
29.577404 37.953038 53.174009
29.746372 36.048815 53.100096
29.841618 39.525387 51.20405
29.804058 37.760179 52.138417
29.887889 41.319546 50.191174
29.681362 41.458561 51.199454
29.841618 39.525387 51.20405
29.944717 42.935526 49.130674
29.887889 41.319546 50.191174
29.253975 96.377556 -3.540676
28.85343 97.585667 -4.368785
28.796614 97.207935 -2.444396
30.101473 94.451927 -5.545411
29.719476 95.835529 -6.509457
29.692788 95.371685 -4.501018
30.402847 92.51289 -2.631876
30.003063 93.586365 -1.688606
30.331125 92.111172 -0.783511
30.437746 93.054767 -4.532589
30.402847 92.51289 -2.631876
30.101473 94.451927 -5.545411
30.437746 93.054767 -4.532589
29.940818 86.920204 12.571662
29.627748 87.387592 13.83641
29.914118 85.806545 14.512629
29.999047 87.799656 10.715858
29.940818 86.920204 12.571662
30.285417 86.218609 11.392077
30.406636 87.899292 7.601516
30.116854 89.500275 6.777803
30.053863 88.699044 8.71256
30.406636 87.899292 7.601516
30.652845 86.291191 8.510865
3 0 55 54
3 0 56 55
3 212 59 213
3 214 213 57
3 212 213 214
3 216 215 59
3 2 62 61
3 2 64 62
3 2 66 64
3 1 69 67
3 3 72 70
3 217 75 218
3 219 218 73
3 217 218 219
3 220 77 221
3 222 221 75
3 220 221 222
3 3 79 78
3 3 70 79
3 5 83 81
3 6 223 225
3 223 84 224
3 223 224 225
3 6 86 84
3 4 89 87
3 7 92 90
3 7 94 92
3 7 96 94
3 8 99 97
3 8 101 99
3 9 226 228
3 226 102 227
3 226 227 228
3 9 104 102
3 10 107 105
3 10 109 107
3 10 111 109
3 11 114 112
3 11 116 114
3 229 119 230
3 231 230 117
3 229 230 231
3 232 120 233
3 12 123 121
3 234 124 235
3 236 235 53
3 234 235 236
3 238 237 124
3 12 239 240
3 12 241 243
3 241 121 242
3 241 242 243
3 14 244 246
3 246 245 125
3 244 245 246
3 15 247 248
3 15 249 250
3 16 128 126
3 18 129 58
3 18 130 129
3 18 132 130
3 20 133 60
3 20 134 133
3 21 251 252
3 21 253 254
3 21 255 257
3 255 136 256
3 255 256 257
3 23 137 63
3 23 138 137
3 23 140 138
3 25 141 65
3 25 142 141
3 26 145 143
3 28 146 68
3 28 258 260
3 260 259 146
3 258 259 260
3 29 261 263
3 261 147 262
3 261 262 263
3 31 148 71
3 31 149 148
3 13 150 122
3 32 151 74
3 32 152 151
3 32 153 152
3 264 154 265
3 266 265 76
3 264 265 266
3 268 267 154
3 29 269 271
3 271 270 80
3 269 270 271
3 29 272 273
3 274 155 275
3 276 157 277
3 278 277 155
3 276 277 278
3 279 158 280
3 282 281 158
3 34 161 159
3 283 162 284
3 285 284 82
3 283 284 285
3 288 287 162
3 286 287 288
3 289 163 290
3 36 164 85
3 36 165 164
3 30 291 292
3 37 166 88
3 37 167 166
3 17 168 127
3 38 169 91
3 38 170 169
3 38 171 170
3 39 172 93
3 39 173 172
3 39 174 173
3 40 175 95
3 40 176 175
3 19 177 131
3 41 178 98
3 41 179 178
3 41 180 179
3 42 181 100
3 42 182 181
3 293 183 294
3 43 295 296
3 43 297 299
3 297 184 298
3 297 298 299
3 43 185 184
3 44 186 103
3 44 187 186
3 45 300 301
3 45 302 304
3 302 188 303
3 302 303 304
3 22 189 135
3 46 190 106
3 46 191 190
3 46 192 191
3 47 193 108
3 47 194 193
3 47 195 194
3 48 196 110
3 48 197 196
3 24 198 139
3 49 199 113
3 49 200 199
3 49 201 200
3 50 305 307
3 307 306 115
3 305 306 307
3 50 308 309
3 33 202 156
3 51 203 118
3 51 204 203
3 310 205 311
3 52 312 314
3 312 206 313
3 312 313 314
3 52 207 206
3 52 208 207
3 27 209 144
3 35 210 160
3 315 211 316
3 318 317 211
3 319 53 320
3 321 320 12
3 319 320 321
3 322 53 323
3 325 324 53
3 326 12 327
3 54 328 330
3 330 329 14
3 328 329 330
3 55 331 333
3 333 332 54
3 331 332 333
3 55 334 335
3 55 336 337
3 56 338 340
3 340 339 55
3 338 339 340
3 56 341 343
3 341 15 342
3 341 342 343
3 57 58 16
3 59 58 57
3 59 18 58
3 59 60 18
3 344 60 345
3 346 345 59
3 344 345 346
3 347 20 348
3 349 348 60
3 347 348 349
3 61 350 351
3 62 352 354
3 354 353 61
3 352 353 354
3 62 355 357
3 355 21 356
3 355 356 357
3 62 63 21
3 64 63 62
3 64 23 63
3 64 65 23
3 66 65 64
3 66 25 65
3 67 68 26
3 69 68 67
3 69 28 68
3 70 71 29
3 72 71 70
3 72 31 71
3 73 74 13
3 75 74 73
3 75 32 74
3 75 76 32
3 77 76 75
3 77 358 360
3 360 359 76
3 358 359 360
3 78 361 362
3 79 363 365
3 365 364 78
3 363 364 365
3 79 366 367
3 79 368 370
3 368 80 369
3 368 369 370
3 70 80 79
3 70 29 80
3 81 82 34
3 83 82 81
3 83 371 373
3 373 372 82
3 371 372 373
3 84 374 375
3 84 376 377
3 84 378 380
3 378 85 379
3 378 379 380
3 86 85 84
3 86 36 85
3 87 88 30
3 89 88 87
3 89 37 88
3 90 91 17
3 92 91 90
3 92 38 91
3 92 93 38
3 94 93 92
3 94 39 93
3 94 95 39
3 96 95 94
3 96 40 95
3 97 98 19
3 99 98 97
3 99 41 98
3 99 100 41
3 101 100 99
3 101 42 100
3 102 381 382
3 102 383 385
3 383 43 384
3 383 384 385
3 102 103 43
3 104 103 102
3 104 44 103
3 386 45 387
3 105 106 22
3 107 106 105
3 107 46 106
3 107 108 46
3 109 108 107
3 109 47 108
3 109 110 47
3 111 110 109
3 111 48 110
3 112 113 24
3 114 113 112
3 114 49 113
3 114 115 49
3 116 115 114
3 116 50 115
3 117 118 33
3 119 118 117
3 119 51 118
3 388 52 389
3 391 390 52
3 120 392 393
3 120 394 395
3 397 396 27
3 399 398 35
3 121 122 3
3 123 122 121
3 123 13 122
3 53 123 12
3 124 123 53
3 124 13 123
3 124 73 13
3 400 73 401
3 402 401 124
3 400 401 402
3 404 403 73
3 405 78 406
3 121 407 409
3 407 78 408
3 407 408 409
3 121 3 78
3 125 410 412
3 412 411 5
3 410 411 412
3 414 413 125
3 416 415 14
3 417 6 418
3 126 127 4
3 128 127 126
3 128 17 127
3 58 128 16
3 129 128 58
3 129 17 128
3 129 90 17
3 130 90 129
3 130 7 90
3 130 131 7
3 132 131 130
3 132 19 131
3 60 132 18
3 133 132 60
3 133 19 132
3 133 97 19
3 134 97 133
3 134 8 97
3 419 9 420
3 421 135 422
3 136 423 425
3 423 135 424
3 423 424 425
3 136 22 135
3 63 136 21
3 137 136 63
3 137 22 136
3 137 105 22
3 138 105 137
3 138 10 105
3 138 139 10
3 140 139 138
3 140 24 139
3 65 140 23
3 141 140 65
3 141 24 140
3 141 112 24
3 142 112 141
3 142 11 112
3 143 426 428
3 426 144 427
3 426 427 428
3 145 144 143
3 145 27 144
3 68 145 26
3 146 145 68
3 146 27 145
3 146 429 431
3 431 430 27
3 429 430 431
3 433 432 146
3 147 434 435
3 147 436 438
3 436 30 437
3 436 437 438
3 71 147 29
3 148 147 71
3 148 30 147
3 148 87 30
3 149 87 148
3 149 4 87
3 122 72 3
3 150 72 122
3 150 31 72
3 74 150 13
3 151 150 74
3 151 31 150
3 151 149 31
3 152 149 151
3 152 4 149
3 152 126 4
3 153 126 152
3 153 16 126
3 76 153 32
3 154 153 76
3 154 16 153
3 154 57 16
3 439 57 440
3 441 440 154
3 439 440 441
3 443 442 57
3 80 444 445
3 447 446 80
3 448 61 449
3 155 450 452
3 450 61 451
3 450 451 452
3 155 2 61
3 155 156 2
3 157 156 155
3 157 33 156
3 453 157 454
3 453 454 455
3 158 456 458
3 456 157 457
3 456 457 458
3 158 33 157
3 158 117 33
3 459 117 460
3 461 460 158
3 459 460 461
3 463 462 117
3 159 160 1
3 161 160 159
3 161 35 160
3 82 161 34
3 162 161 82
3 162 35 161
3 162 464 466
3 466 465 35
3 464 465 466
3 468 467 162
3 469 83 470
3 471 470 5
3 469 470 471
3 472 83 473
3 475 474 83
3 476 143 477
3 163 478 480
3 478 143 479
3 478 479 480
3 163 26 143
3 85 481 483
3 481 163 482
3 481 482 483
3 164 163 85
3 164 26 163
3 164 67 26
3 165 67 164
3 165 1 67
3 88 484 486
3 486 485 30
3 484 485 486
3 166 487 489
3 489 488 88
3 487 488 489
3 166 490 491
3 166 492 493
3 167 494 496
3 496 495 166
3 494 495 496
3 167 497 499
3 497 6 498
3 497 498 499
3 127 89 4
3 168 89 127
3 168 37 89
3 91 168 17
3 169 168 91
3 169 37 168
3 169 167 37
3 170 167 169
3 170 6 167
3 170 86 6
3 171 86 170
3 171 36 86
3 93 171 38
3 172 171 93
3 172 36 171
3 172 165 36
3 173 165 172
3 173 1 165
3 173 159 1
3 174 159 173
3 174 34 159
3 95 174 39
3 175 174 95
3 175 34 174
3 175 81 34
3 176 81 175
3 176 5 81
3 131 96 7
3 177 96 131
3 177 40 96
3 98 177 19
3 178 177 98
3 178 40 177
3 178 176 40
3 179 176 178
3 179 5 176
3 179 125 5
3 180 125 179
3 180 14 125
3 100 180 41
3 181 180 100
3 181 14 180
3 181 54 14
3 182 54 181
3 182 0 54
3 500 77 501
3 502 77 503
3 505 504 77
3 506 20 507
3 508 20 509
3 510 134 511
3 512 511 20
3 510 511 512
3 183 513 515
3 513 134 514
3 513 514 515
3 183 8 134
3 516 183 517
3 184 518 520
3 518 183 519
3 518 519 520
3 184 8 183
3 184 101 8
3 185 101 184
3 185 42 101
3 103 185 43
3 186 185 103
3 186 42 185
3 186 182 42
3 187 182 186
3 187 0 182
3 188 521 522
3 188 523 525
3 523 9 524
3 523 524 525
3 135 526 527
3 189 528 530
3 530 529 135
3 528 529 530
3 189 531 533
3 531 45 532
3 531 532 533
3 106 189 22
3 190 189 106
3 190 45 189
3 190 188 45
3 191 188 190
3 191 9 188
3 191 104 9
3 192 104 191
3 192 44 104
3 108 192 46
3 193 192 108
3 193 44 192
3 193 187 44
3 194 187 193
3 194 0 187
3 194 56 0
3 195 56 194
3 195 15 56
3 110 195 47
3 196 195 110
3 196 15 195
3 196 534 536
3 536 535 15
3 534 535 536
3 197 537 539
3 539 538 196
3 537 538 539
3 197 540 542
3 540 541 542
3 139 111 10
3 198 111 139
3 198 48 111
3 113 198 24
3 199 198 113
3 199 48 198
3 199 197 48
3 200 197 199
3 200 543 545
3 545 544 197
3 543 544 545
3 200 546 547
3 201 548 550
3 550 549 200
3 548 549 550
3 201 551 552
3 115 201 49
3 553 201 554
3 555 554 115
3 553 554 555
3 557 556 201
3 156 66 2
3 202 66 156
3 202 25 66
3 118 202 33
3 203 202 118
3 203 25 202
3 203 142 25
3 204 142 203
3 204 11 142
3 558 119 559
3 205 560 562
3 560 119 561
3 560 561 562
3 205 51 119
3 563 205 564
3 206 565 567
3 565 205 566
3 565 566 567
3 206 51 205
3 206 204 51
3 207 204 206
3 207 11 204
3 207 116 11
3 208 116 207
3 208 50 116
3 568 208 569
3 570 569 52
3 568 569 570
3 571 208 572
3 573 50 574
3 575 574 208
3 573 574 575
3 577 576 50
3 144 578 580
3 578 120 579
3 578 579 580
3 209 120 144
3 209 581 583
3 583 582 120
3 581 582 583
3 584 209 585
3 586 585 27
3 584 585 586
3 587 209 588
3 590 589 209
3 160 69 1
3 210 69 160
3 210 28 69
3 591 210 592
3 593 592 35
3 591 592 593
3 211 594 596
3 594 210 595
3 594 595 596
3 211 28 210
3 211 597 599
3 599 598 28
3 597 598 599
3 601 600 211
