ply
format ascii 1.0
element vertex 109
property float x
property float y
property float z
element face 92
property list uchar int vertex_index
end_header
-25.16872 -56.253098 26.075338
-30.96493 -50.367477 23.137405
-26.754641 -56.944942 21.809433
-28.17454 -53.396786 24.637085
-29.509544 -53.756241 20.24544
-24.450005 -58.264996 24.783661
-25.237003 -58.590904 22.687149
-25.962767 -56.752083 24.051783
-23.686008 -57.488506 26.804346
-28.005367 -50.767578 27.816273
-29.586998 -51.942795 23.874224
-28.873425 -53.701134 22.493481
-30.222784 -52.156998 21.75004
-31.652178 -50.392567 20.923384
-25.848656 -54.178249 27.318857
-26.739391 -54.741879 25.419029
-27.415785 -52.770145 26.675549
-28.824266 -51.546597 25.892311
-30.297014 -49.952011 25.234255
-27.394007 -55.235683 23.393894
-28.168886 -55.282738 21.141991
-24.427364 -56.870802 26.439842
-23.963583 -56.505016 27.381177
-24.704939 -55.887312 27.016673
-26.384954 -57.781282 21.10763
-25.626134 -58.604263 21.546488
-25.995822 -57.767923 22.248291
-27.066148 -56.982566 20.636258
-26.384954 -57.781282 21.10763
-26.964448 -52.468387 27.500703
-26.63222 -53.474197 26.997203
-26.180884 -53.172439 27.822357
-29.12247 -50.528681 26.511928
-28.414817 -51.157088 26.854292
-28.71302 -50.139172 27.473909
-29.858843 -49.731388 26.182901
-29.56064 -50.749304 25.563283
-29.12247 -50.528681 26.511928
-26.180884 -53.172439 27.822357
-25.350542 -53.78981 28.164689
-29.073874 -54.602118 19.500754
-28.403545 -55.365366 19.94903
-28.839215 -54.51949 20.693715
-31.241481 -51.238264 20.254684
-31.898722 -50.40168 19.749781
-24.843504 -58.42795 23.735405
-24.535066 -59.3927 22.967128
-24.141566 -59.229746 24.015384
-23.205991 -57.113588 27.662333
-23.963583 -56.505016 27.381177
-22.960683 -58.138945 27.068371
-23.205991 -57.113588 27.662333
-23.384003 -58.512169 26.129988
-22.960683 -58.138945 27.068371
-23.766002 -58.900413 25.119646
-23.384003 -58.512169 26.129988
-24.068007 -57.876751 25.794003
-24.141566 -59.229746 24.015384
-23.766002 -58.900413 25.119646
-27.519464 -50.378425 28.612007
-27.259239 -51.467104 28.071065
-28.298488 -49.736185 28.305181
-27.519464 -50.378425 28.612007
-28.71302 -50.139172 27.473909
-28.298488 -49.736185 28.305181
-24.907425 -59.494152 21.87013
-24.535066 -59.3927 22.967128
-24.907425 -59.494152 21.87013
-25.626134 -58.604263 21.546488
-31.963859 -49.562002 21.653328
-31.308554 -50.380022 22.030394
-31.620235 -49.549458 22.760339
-32.287971 -49.540275 20.525429
-31.963859 -49.562002 21.653328
-32.599651 -48.709711 21.255373
-31.898722 -50.40168 19.749781
-32.287971 -49.540275 20.525429
-27.710576 -51.768861 27.245911
-26.964448 -52.468387 27.500703
-27.259239 -51.467104 28.071065
-30.544965 -48.96295 25.90856
-29.858843 -49.731388 26.182901
-30.977652 -49.145181 24.900428
-30.544965 -48.96295 25.90856
-31.311611 -49.352914 23.852003
-30.630972 -50.159744 24.18583
-30.977652 -49.145181 24.900428
-31.620235 -49.549458 22.760339
-31.311611 -49.352914 23.852003
-25.044907 -54.849888 27.638433
-25.350542 -53.78981 28.164689
-25.508688 -55.215674 26.697097
-24.704939 -55.887312 27.016673
-25.044907 -54.849888 27.638433
-27.773271 -56.151465 20.302537
-27.066148 -56.982566 20.636258
-27.461763 -56.11384 21.475712
-27.773271 -56.151465 20.302537
-28.403545 -55.365366 19.94903
-30.526784 -52.12048 20.668012
-30.937481 -51.274783 21.336712
-31.241481 -51.238264 20.254684
-30.170164 -52.920101 19.915712
-29.866164 -52.95662 20.99774
-30.526784 -52.12048 20.668012
-29.787757 -53.699578 19.055785
-30.170164 -52.920101 19.915712
-29.073874 -54.602118 19.500754
-29.787757 -53.699578 19.055785
3 0 7 5
3 0 21 23
3 21 8 22
3 21 22 23
3 0 5 8
3 1 12 10
3 2 24 26
3 26 25 6
3 24 25 26
3 2 27 28
3 29 16 30
3 31 30 14
3 29 30 31
3 32 17 33
3 34 33 9
3 32 33 34
3 35 18 36
3 37 36 17
3 35 36 37
3 38 14 39
3 3 19 15
3 4 20 11
3 4 40 42
3 42 41 20
3 40 41 42
3 44 43 13
3 5 45 47
3 45 6 46
3 45 46 47
3 7 6 5
3 7 2 6
3 8 48 49
3 8 50 51
3 8 52 53
3 5 54 56
3 56 55 8
3 54 55 56
3 5 57 58
3 59 9 60
3 61 9 62
3 64 63 9
3 10 11 3
3 12 11 10
3 12 4 11
3 6 65 66
3 68 67 6
3 69 13 70
3 71 70 1
3 69 70 71
3 72 13 73
3 72 73 74
3 76 75 13
3 14 15 0
3 16 15 14
3 16 3 15
3 9 77 79
3 77 16 78
3 77 78 79
3 17 16 9
3 17 3 16
3 17 10 3
3 18 10 17
3 18 1 10
3 80 18 81
3 82 18 83
3 84 1 85
3 86 85 18
3 84 85 86
3 88 87 1
3 14 89 90
3 14 91 93
3 91 0 92
3 91 92 93
3 15 7 0
3 19 7 15
3 19 2 7
3 11 19 3
3 20 19 11
3 20 2 19
3 20 94 96
3 96 95 2
3 94 95 96
3 98 97 20
3 13 12 1
3 99 12 100
3 101 100 13
3 99 100 101
3 102 4 103
3 104 103 12
3 102 103 104
3 105 4 106
3 108 107 4
