ply
format ascii 1.0
element vertex 67
property float x
property float y
property float z
element face 51
property list uchar int vertex_index
end_header
37.864445 11.328607 -49.129837
38.674141 7.659093 -44.143322
37.068424 12.683347 -44.991104
38.599258 8.555174 -48.398968
39.002342 6.680133 -46.001133
38.319923 9.59756 -46.606171
37.94397 10.274027 -44.609318
37.517048 12.198298 -47.145767
38.043625 10.341326 -51.008358
37.180645 13.248306 -51.606926
37.385989 12.725509 -49.334858
37.21229 13.160354 -48.342823
37.690747 11.763452 -48.137802
38.140283 9.49959 -51.754299
38.410279 8.783069 -50.531698
37.702553 11.146052 -52.235265
38.140283 9.49959 -51.754299
38.973961 6.200811 -43.834661
39.138061 5.71133 -44.763567
38.838241 7.169613 -45.072227
38.782249 6.730986 -42.97064
38.973961 6.200811 -43.834661
38.450605 7.984739 -43.104836
38.782249 6.730986 -42.97064
37.25691 11.707425 -43.808662
37.694683 10.502765 -43.61777
37.506197 11.478687 -44.800211
36.759977 12.807503 -43.879799
37.25691 11.707425 -43.808662
36.536247 13.827246 -45.140035
36.759977 12.807503 -43.879799
36.688675 14.560711 -51.795683
36.785799 14.09976 -52.78976
38.8008 7.617653 -47.200051
39.122049 6.004318 -46.764084
38.920507 6.941838 -47.963002
37.021946 13.434346 -47.280884
36.797634 13.67687 -46.203552
37.292736 12.440822 -46.068435
37.021946 13.434346 -47.280884
37.21229 13.160354 -48.342823
38.688095 7.889993 -49.227003
38.920507 6.941838 -47.963002
38.321441 9.44825 -49.703663
38.688095 7.889993 -49.227003
38.410279 8.783069 -50.531698
37.271063 12.599543 -52.534549
37.612135 11.794816 -51.307642
37.702553 11.146052 -52.235265
36.785799 14.09976 -52.78976
37.271063 12.599543 -52.534549
39.27964 5.039326 -45.638041
39.122049 6.004318 -46.764084
39.27964 5.039326 -45.638041
39.138061 5.71133 -44.763567
38.08552 9.292206 -43.337834
38.450605 7.984739 -43.104836
38.309055 8.96656 -44.37632
38.08552 9.292206 -43.337834
37.694683 10.502765 -43.61777
36.536247 13.827246 -45.140035
36.797634 13.67687 -46.203552
37.044089 13.685358 -50.573403
37.385989 12.725509 -49.334858
37.522545 12.288456 -50.368381
37.044089 13.685358 -50.573403
36.688675 14.560711 -51.795683
3 0 5 3
3 0 7 5
3 0 10 12
3 12 11 7
3 10 11 12
3 13 8 14
3 16 15 8
3 1 17 19
3 19 18 4
3 17 18 19
3 1 20 21
3 1 22 23
3 2 24 26
3 26 25 6
3 24 25 26
3 2 27 28
3 2 29 30
3 32 31 9
3 3 33 35
3 33 4 34
3 33 34 35
3 5 4 3
3 5 1 4
3 5 6 1
3 7 6 5
3 7 2 6
3 7 36 38
3 38 37 2
3 36 37 38
3 40 39 7
3 41 3 42
3 8 43 45
3 43 3 44
3 43 44 45
3 8 0 3
3 8 9 0
3 46 9 47
3 48 47 8
3 46 47 48
3 50 49 9
3 4 51 52
3 54 53 4
3 6 55 57
3 57 56 1
3 55 56 57
3 59 58 6
3 61 60 2
3 9 62 64
3 64 63 0
3 62 63 64
3 66 65 9
