ply
format ascii 1.0
element vertex 154
property float x
property float y
property float z
element face 139
property list uchar int vertex_index
end_header
-29.654617 83.020988 19.348715
-30.152206 71.033386 31.008354
-30.297991 64.307915 36.096447
-27.80814 74.561569 36.433292
-29.930105 77.430077 25.290958
-29.377394 69.702316 36.439724
-29.146587 76.332321 30.960665
-28.76594 82.645599 24.937893
-30.147335 80.105476 19.728046
-30.018255 82.890335 16.563951
-30.488886 68.100166 30.966827
-30.413706 71.331909 28.375963
-30.328094 74.503304 25.553288
-30.044832 74.349907 28.191622
-28.966743 64.852249 41.528049
-29.497246 66.017265 38.948128
-28.815687 68.789177 39.005859
-28.547823 75.454994 33.878208
-28.399479 78.790794 30.888126
-28.912161 79.552109 28.270863
-28.163227 82.127731 27.738882
-30.255447 67.681755 33.497597
-27.965183 71.041565 39.141525
-29.51273 85.534668 16.233694
-30.253529 77.323967 22.658699
-29.792645 80.25016 22.475266
-30.017426 63.077469 38.794369
-29.916014 66.905106 36.361675
-29.816671 70.296638 33.90057
-28.646626 72.171593 36.640785
-29.220272 73.108398 33.942715
-29.706722 73.688217 31.114573
-29.550526 77.176758 28.080429
-29.407526 80.050323 25.279652
-29.225323 83.141273 21.976236
-28.498581 67.989971 40.350386
-28.891215 66.820713 40.266954
-28.574109 66.021507 41.61148
-27.958889 79.94566 30.710974
-28.032608 78.332951 32.239318
-27.840763 81.614128 29.136351
-28.281353 80.459262 29.313504
-27.958889 79.94566 30.710974
-27.688665 83.236011 27.56342
-27.840763 81.614128 29.136351
-30.429752 64.468616 34.782078
-30.462096 62.764934 35.875122
-30.276719 65.994835 34.797022
-30.408479 66.155536 33.482653
-30.429752 64.468616 34.782078
-29.802766 62.588877 40.097938
-30.050893 61.21558 39.884113
-28.647541 84.130497 23.324792
-28.877232 84.378334 21.843964
-28.995632 82.893436 23.457065
-29.715832 85.387104 14.784402
-29.439346 86.747204 14.515739
-30.347176 62.368195 37.192642
-30.462096 62.764934 35.875122
-30.511281 60.825214 36.971317
-30.298931 80.062282 18.29002
-30.334798 78.726566 19.808811
-30.234391 81.454712 16.707973
-30.298931 80.062282 18.29002
-30.082795 81.497906 18.145998
-30.205425 82.554608 15.286314
-30.234391 81.454712 16.707973
-30.578232 68.432163 29.604523
-30.613688 66.774822 30.793057
-30.540642 70.048034 28.309092
-30.578232 68.432163 29.604523
-30.451296 69.716037 29.671395
-30.523076 71.479363 27.007296
-30.540642 70.048034 28.309092
-30.3709 72.917607 26.964625
-30.48027 73.06506 25.595959
-30.523076 71.479363 27.007296
-29.231994 65.434757 40.238089
-29.542676 64.058775 40.174818
-29.277425 63.476267 41.464779
-28.10678 76.665051 33.734359
-28.177982 75.008282 35.15575
-27.736939 76.218338 35.011902
-28.473651 77.122894 32.383167
-28.10678 76.665051 33.734359
-28.032608 78.332951 32.239318
-28.064762 83.539234 26.217821
-28.366118 83.798168 24.817327
-28.464583 82.386665 26.338387
-28.064762 83.539234 26.217821
-27.688665 83.236011 27.56342
-30.525199 66.364742 32.217268
-30.613688 66.774822 30.793057
-30.372166 67.890961 32.232212
-30.525199 66.364742 32.217268
-30.408479 66.155536 33.482653
-27.570232 70.338669 40.340156
-28.073329 69.116165 40.418219
-27.45802 72.144509 39.049736
-27.570232 70.338669 40.340156
-27.379499 73.904511 37.695619
-27.886662 72.801567 37.787408
-27.45802 72.144509 39.049736
-27.313152 75.544697 36.352108
-27.379499 73.904511 37.695619
-27.736939 76.218338 35.011902
-27.313152 75.544697 36.352108
-28.986422 62.904827 42.781918
-29.277425 63.476267 41.464779
-28.603434 64.230058 42.804935
-28.986422 62.904827 42.781918
-28.2108 65.399316 42.888367
-28.574109 66.021507 41.61148
-28.603434 64.230058 42.804935
-29.271533 85.663643 17.590418
-29.583673 84.277828 17.791204
-29.342476 84.406803 19.147928
-29.194223 86.872574 15.944168
-29.271533 85.663643 17.590418
-29.439346 86.747204 14.515739
-29.194223 86.872574 15.944168
-30.457764 74.509743 24.182579
-30.48027 73.06506 25.595959
-30.420482 75.920074 22.735285
-30.457764 74.509743 24.182579
-30.290812 75.913635 24.105993
-30.387895 77.335812 21.274138
-30.420482 75.920074 22.735285
-30.200432 78.714721 21.193372
-30.334798 78.726566 19.808811
-30.387895 77.335812 21.274138
-30.206894 61.752972 38.541603
-30.050893 61.21558 39.884113
-30.157708 63.692692 37.445408
-30.347176 62.368195 37.192642
-30.206894 61.752972 38.541603
-29.757336 64.547367 38.871249
-29.802766 62.588877 40.097938
-29.542676 64.058775 40.174818
-28.390435 69.915371 39.073692
-28.498581 67.989971 40.350386
-28.073329 69.116165 40.418219
-29.127829 84.466946 20.461689
-29.342476 84.406803 19.147928
-29.43997 83.081131 20.662475
-29.127829 84.466946 20.461689
-28.877232 84.378334 21.843964
-28.647541 84.130497 23.324792
-28.366118 83.798168 24.817327
-29.968595 84.064937 14.949531
-29.765493 84.212502 16.398823
-29.715832 85.387104 14.784402
-30.205425 82.554608 15.286314
-29.968595 84.064937 14.949531
3 0 9 8
3 1 11 10
3 1 13 11
3 35 16 36
3 37 36 14
3 35 36 37
3 38 18 39
3 40 20 41
3 42 41 18
3 40 41 42
3 44 43 20
3 2 45 46
3 2 47 49
3 47 21 48
3 47 48 49
3 4 24 12
3 4 25 24
3 50 26 51
3 5 27 15
3 5 28 27
3 3 29 22
3 6 30 17
3 6 31 30
3 6 32 31
3 7 33 19
3 7 34 33
3 7 52 54
3 54 53 34
3 52 53 54
3 56 55 23
3 57 2 58
3 57 58 59
3 8 60 61
3 9 62 64
3 64 63 8
3 62 63 64
3 9 65 66
3 10 67 68
3 11 69 71
3 71 70 10
3 69 70 71
3 11 72 73
3 11 74 76
3 74 12 75
3 74 75 76
3 13 12 11
3 13 4 12
3 14 77 79
3 77 15 78
3 77 78 79
3 16 15 14
3 16 5 15
3 80 17 81
3 82 81 3
3 80 81 82
3 18 83 85
3 83 17 84
3 83 84 85
3 18 6 17
3 18 19 6
3 20 19 18
3 20 7 19
3 20 86 88
3 88 87 7
3 86 87 88
3 90 89 20
3 91 10 92
3 21 93 95
3 93 10 94
3 93 94 95
3 21 1 10
3 96 22 97
3 98 22 99
3 100 3 101
3 102 101 22
3 100 101 102
3 103 3 104
3 106 105 3
3 107 14 108
3 109 14 110
3 113 112 14
3 111 112 113
3 114 23 115
3 116 115 0
3 114 115 116
3 117 23 118
3 120 119 23
3 12 121 122
3 24 123 125
3 125 124 12
3 123 124 125
3 24 126 127
3 24 128 130
3 128 8 129
3 128 129 130
3 25 8 24
3 25 0 8
3 26 131 132
3 26 133 135
3 133 2 134
3 133 134 135
3 15 136 138
3 136 26 137
3 136 137 138
3 27 26 15
3 27 2 26
3 27 21 2
3 28 21 27
3 28 1 21
3 22 139 141
3 139 16 140
3 139 140 141
3 29 16 22
3 29 5 16
3 17 29 3
3 30 29 17
3 30 5 29
3 30 28 5
3 31 28 30
3 31 1 28
3 31 13 1
3 32 13 31
3 32 4 13
3 19 32 6
3 33 32 19
3 33 4 32
3 33 25 4
3 34 25 33
3 34 0 25
3 34 142 144
3 144 143 0
3 142 143 144
3 146 145 34
3 148 147 7
3 23 9 0
3 149 9 150
3 151 150 23
3 149 150 151
3 153 152 9
