ply
format ascii 1.0
element vertex 73
property float x
property float y
property float z
element face 58
property list uchar int vertex_index
end_header
-20.597038 56.571087 -52.50872
-18.617989 50.932861 -52.412769
-18.054266 57.040169 -52.658085
-21.11426 54.738537 -52.313644
-20.133144 51.60804 -52.252316
-19.71702 54.120792 -52.486156
-20.414408 48.658459 -51.917789
-18.854639 48.045109 -52.165565
-20.693769 59.257397 -52.546005
-19.528019 56.859062 -52.608227
-21.735699 57.949486 -52.357056
-18.354422 54.032494 -52.586632
-20.995802 50.381531 -51.950796
-21.225516 49.049941 -51.738968
-17.886497 49.347323 -52.393198
-18.004822 47.903447 -52.269596
-18.736314 49.488985 -52.289167
-20.040827 59.627673 -52.588527
-20.688309 60.874679 -52.527094
-20.688309 60.874679 -52.527094
-21.33263 60.273077 -52.445694
-22.40763 58.817284 -52.208323
-22.109259 56.92095 -52.206657
-20.623702 53.173288 -52.28298
-20.85517 51.856321 -52.11806
-21.345728 53.42157 -52.148724
-17.395207 55.626409 -52.645347
-17.258994 57.269731 -52.643822
-20.55852 46.984673 -51.683321
-21.225516 49.049941 -51.738968
-19.76174 46.814196 -51.867722
-20.55852 46.984673 -51.683321
-20.273776 50.13325 -52.085053
-20.995802 50.381531 -51.950796
-20.85517 51.856321 -52.11806
-18.981856 46.507521 -51.991609
-19.76174 46.814196 -51.867722
-19.634524 48.351784 -52.041677
-18.092251 46.312521 -52.145185
-18.981856 46.507521 -51.991609
-18.092251 46.312521 -52.145185
-18.004822 47.903447 -52.269596
-19.457952 58.428505 -52.619639
-20.110894 58.058229 -52.577116
-20.040827 59.627673 -52.588527
-18.721075 58.519058 -52.644568
-18.791142 56.949616 -52.633156
-19.457952 58.428505 -52.619639
-17.920482 58.732124 -52.642885
-18.721075 58.519058 -52.644568
-17.125211 58.961687 -52.628622
-17.258994 57.269731 -52.643822
-17.920482 58.732124 -52.642885
-21.853595 59.619121 -52.351219
-22.40763 58.817284 -52.208323
-21.214734 58.603442 -52.451531
-21.853595 59.619121 -52.351219
-21.33263 60.273077 -52.445694
-21.79854 55.315476 -52.184951
-21.345728 53.42157 -52.148724
-21.424979 56.344012 -52.33535
-21.79854 55.315476 -52.184951
-22.109259 56.92095 -52.206657
-17.545285 54.122572 -52.609621
-18.204344 55.536332 -52.622359
-17.395207 55.626409 -52.645347
-17.695203 52.556303 -52.565617
-17.545285 54.122572 -52.609621
-17.826987 51.006487 -52.478685
-18.486206 52.482678 -52.499701
-17.695203 52.556303 -52.565617
-17.886497 49.347323 -52.393198
-17.826987 51.006487 -52.478685
3 0 5 3
3 12 6 13
3 1 7 4
3 1 14 16
3 16 15 7
3 14 15 16
3 18 17 8
3 19 8 20
3 21 10 22
3 2 11 9
3 3 23 25
3 23 4 24
3 23 24 25
3 5 4 3
3 5 1 4
3 27 26 2
3 6 28 29
3 6 30 31
3 4 32 34
3 32 6 33
3 32 33 34
3 7 6 4
3 7 35 37
3 37 36 6
3 35 36 37
3 7 38 39
3 41 40 7
3 8 9 0
3 42 9 43
3 44 43 8
3 42 43 44
3 45 2 46
3 47 46 9
3 45 46 47
3 48 2 49
3 52 51 2
3 50 51 52
3 53 10 54
3 8 55 57
3 55 10 56
3 55 56 57
3 8 0 10
3 58 3 59
3 10 60 62
3 60 3 61
3 60 61 62
3 10 0 3
3 9 5 0
3 11 5 9
3 11 1 5
3 63 11 64
3 65 64 2
3 63 64 65
3 66 11 67
3 68 1 69
3 70 69 11
3 68 69 70
3 72 71 1
