ply
format ascii 1.0
element vertex 110
property float x
property float y
property float z
element face 82
property list uchar int vertex_index
end_header
30.994955 54.374344 -45.654152
28.110184 57.738396 -48.044163
24.915897 49.992142 -49.442528
28.023546 47.360214 -47.536873
29.563812 56.010357 -46.95565
28.142725 52.577671 -47.85471
29.599045 51.182896 -46.717831
26.644598 53.911701 -48.810814
32.315887 52.643478 -44.210903
30.956474 49.24614 -45.416641
32.318535 47.643089 -43.920433
21.546947 47.821487 -50.549229
29.402214 45.70153 -46.392567
27.528822 41.895893 -47.244884
29.4877 60.898407 -46.995319
30.873806 59.22863 -45.782345
27.377391 55.825049 -48.427488
26.556078 56.351368 -48.914297
27.288871 58.264716 -48.530971
27.277918 48.03013 -48.043997
27.337508 50.638859 -48.202916
28.083135 49.968942 -47.695791
27.109913 45.584303 -47.900904
27.277918 48.03013 -48.043997
32.911146 49.436346 -43.308703
32.317211 50.143284 -44.065668
32.909822 51.93654 -43.453938
24.105961 50.77363 -49.806176
24.971614 52.597571 -49.539032
21.346127 45.292854 -50.443842
22.332375 47.229654 -50.246565
20.615851 45.961744 -50.71241
21.346127 45.292854 -50.443842
30.108604 45.046558 -45.732687
30.179344 47.473835 -45.904604
30.885734 46.818863 -45.244724
27.395375 39.478342 -46.977758
28.302779 41.389128 -46.639602
26.643462 40.196078 -47.538887
27.395375 39.478342 -46.977758
30.049163 62.582695 -46.376085
29.308214 63.388062 -46.994333
30.742216 61.747806 -45.769598
30.180753 60.063519 -46.388832
30.049163 62.582695 -46.376085
24.016851 48.314982 -49.693214
24.79849 47.626888 -49.309643
25.835964 54.55735 -49.223175
26.556078 56.351368 -48.914297
25.780248 51.951921 -49.126671
24.971614 52.597571 -49.539032
25.835964 54.55735 -49.223175
26.588444 51.305874 -48.680968
27.393662 53.244686 -48.332762
27.337508 50.638859 -48.202916
25.724094 49.346094 -48.996825
25.780248 51.951921 -49.126671
26.588444 51.305874 -48.680968
24.79849 47.626888 -49.309643
25.724094 49.346094 -48.996825
31.566765 46.017337 -44.49662
30.885734 46.818863 -45.244724
31.637504 48.444615 -44.668537
32.91052 46.880396 -43.162455
32.911146 49.436346 -43.308703
32.195455 45.11706 -43.778395
32.91052 46.880396 -43.162455
31.566765 46.017337 -44.49662
32.195455 45.11706 -43.778395
24.105961 50.77363 -49.806176
24.016851 48.314982 -49.693214
22.421487 49.688303 -50.359526
22.332375 47.229654 -50.246565
21.540134 50.187731 -50.647983
22.421487 49.688303 -50.359526
20.68759 48.268547 -50.800451
21.540134 50.187731 -50.647983
20.68759 48.268547 -50.800451
20.615851 45.961744 -50.71241
29.239475 43.291946 -46.213444
30.108604 45.046558 -45.732687
28.465518 43.798711 -46.818725
29.239475 43.291946 -46.213444
28.302779 41.389128 -46.639602
26.862552 42.852142 -47.754909
27.109913 45.584303 -47.900904
27.776184 44.628054 -47.390878
26.862552 42.852142 -47.754909
26.643462 40.196078 -47.538887
27.981883 60.052926 -48.098593
27.288871 58.264716 -48.530971
28.670641 61.632931 -47.574171
29.308214 63.388062 -46.994333
28.798942 59.318402 -47.519741
27.981883 60.052926 -48.098593
28.670641 61.632931 -47.574171
31.387307 60.958021 -45.104298
30.742216 61.747806 -45.769598
31.501503 58.512563 -45.113554
31.387307 60.958021 -45.104298
31.562078 56.08542 -45.049458
30.93438 56.801487 -45.718249
31.501503 58.512563 -45.113554
32.222544 55.219988 -44.327833
31.655421 53.508911 -44.932528
31.562078 56.08542 -45.049458
32.83403 54.466484 -43.550615
32.222544 55.219988 -44.327833
32.909822 51.93654 -43.453938
32.83403 54.466484 -43.550615
3 0 6 4
3 1 16 18
3 16 7 17
3 16 17 18
3 3 19 21
3 21 20 5
3 19 20 21
3 3 22 23
3 24 10 25
3 26 25 8
3 24 25 26
3 2 27 28
3 29 11 30
3 32 31 11
3 33 12 34
3 35 34 9
3 33 34 35
3 36 13 37
3 39 38 13
3 40 14 41
3 42 15 43
3 44 43 14
3 42 43 44
3 4 5 1
3 6 5 4
3 6 3 5
3 46 45 2
3 7 47 48
3 7 49 51
3 49 2 50
3 49 50 51
3 5 7 1
3 52 7 53
3 54 53 5
3 52 53 54
3 55 2 56
3 57 56 7
3 55 56 57
3 59 58 2
3 8 9 0
3 10 9 8
3 10 60 62
3 62 61 9
3 60 61 62
3 63 10 64
3 65 10 66
3 68 67 10
3 70 69 2
3 11 71 72
3 11 73 74
3 11 75 76
3 78 77 11
3 9 6 0
3 12 6 9
3 12 3 6
3 79 12 80
3 13 81 83
3 81 12 82
3 81 82 83
3 13 3 12
3 13 84 86
3 86 85 3
3 84 85 86
3 88 87 13
3 89 1 90
3 14 91 92
3 14 93 95
3 93 1 94
3 93 94 95
3 14 4 1
3 15 4 14
3 15 0 4
3 96 15 97
3 98 15 99
3 100 0 101
3 102 101 15
3 100 101 102
3 103 8 104
3 105 104 0
3 103 104 105
3 106 8 107
3 109 108 8
