ply
format ascii 1.0
element vertex 192
property float x
property float y
property float z
element face 192
property list uchar int vertex_index
end_header
-8.547819 77.601624 32.101593
-10.292796 66.532463 41.814384
-16.448349 78.157173 36.446053
-14.729835 88.71244 24.878431
-9.453336 72.04657 37.310276
-13.404117 72.557343 39.447441
-12.570131 78.171402 34.268032
-15.539662 83.599342 30.855568
-11.745271 83.444313 28.71244
-14.050159 66.28183 44.345787
-17.009792 71.938385 41.805828
-19.964434 76.982536 38.650585
-19.323799 83.008385 32.937229
-18.506203 88.657944 26.643013
-9.051949 75.060852 34.632309
-10.916065 75.137802 35.816017
-10.585129 78.058876 33.086212
-12.050479 80.693756 31.619574
-10.127557 80.639618 30.387253
-10.575524 63.119625 44.181252
-12.441387 63.193832 45.348873
-12.079507 66.101028 43.26437
-14.900427 75.470863 37.961525
-15.224311 72.406708 40.589893
-16.702999 75.210152 39.076805
-18.524864 74.630219 40.255806
-18.288635 77.781883 37.52512
-19.751055 80.272392 35.6675
-17.912783 80.627991 34.81078
-15.097003 86.22863 27.871681
-17.027351 86.192513 28.869354
-16.675968 88.847237 25.730331
-9.879162 69.334015 39.606548
-11.883154 69.384666 40.878864
-11.52317 72.375633 38.420044
-12.988625 75.507721 36.823341
-14.557363 78.311493 35.329044
-16.048288 80.891548 33.754333
-14.113903 81.026894 32.578323
-13.645615 83.516899 29.85779
-13.099634 86.123627 26.784496
-8.412909 66.058571 40.865868
-7.947443 68.956055 38.570827
-7.570186 71.859108 36.167286
-7.049263 74.516426 33.693909
-15.764565 65.856819 45.556953
-13.68336 69.375931 41.989094
-15.525652 69.228111 43.114204
-17.20179 68.389 44.491291
-18.695072 71.300255 42.914913
-20.28619 73.678719 41.439823
-21.097889 82.475502 33.692944
-20.662897 85.303596 30.766171
-17.484648 83.526451 31.832615
-18.880552 85.982002 29.746181
-20.351974 88.243042 27.470425
-8.321016 78.890275 30.751308
-9.110885 80.409272 29.894137
-9.337688 79.120621 31.244423
-15.42744 89.953979 23.750372
-16.400507 90.021377 24.176322
-15.702901 88.779839 25.304381
-14.46474 89.98259 23.187436
-15.162345 91.224129 22.059377
-15.42744 89.953979 23.750372
-11.447214 84.68666 27.203269
-12.124395 86.026318 26.239297
-12.422453 84.78397 27.748468
-7.467631 66.013092 40.253479
-7.657022 64.501938 41.337666
-7.234897 67.461834 39.105958
-8.180176 67.507313 39.718348
-7.467631 66.013092 40.253479
-6.576633 71.629193 35.653874
-6.822128 70.363335 36.758442
-6.316172 72.957852 34.417185
-7.309724 73.187767 34.930597
-6.576633 71.629193 35.653874
-6.069625 74.248924 33.220802
-6.316172 72.957852 34.417185
-14.133659 64.550237 45.498075
-13.329273 63.006238 45.999618
-13.245773 64.737831 44.84733
-14.907362 66.069324 44.95137
-14.990862 64.337732 46.103659
-14.133659 64.550237 45.498075
-20.801118 76.518711 39.115432
-20.961996 74.866803 40.510052
-20.125312 75.330627 40.045204
-20.667523 78.146064 37.68223
-20.801118 76.518711 39.115432
-19.157621 89.78172 25.410704
-20.080507 89.574269 25.82441
-19.429088 88.450493 27.056719
-9.908263 81.874886 29.013896
-10.71712 83.277233 28.17649
-10.936414 82.041966 29.549847
-9.908263 81.874886 29.013896
-9.110885 80.409272 29.894137
-11.508456 63.156728 44.765062
-11.71677 61.563896 45.84198
-10.783838 61.526792 45.25817
-17.400244 90.080689 24.506659
-18.315362 89.986042 24.963
-17.591085 88.75259 26.186672
-17.400244 90.080689 24.506659
-16.400507 90.021377 24.176322
-12.910883 87.393524 25.235149
-13.725983 88.687931 24.282116
-13.914734 87.418034 25.831463
-12.910883 87.393524 25.235149
-12.124395 86.026318 26.239297
-11.447214 84.68666 27.203269
-10.71712 83.277233 28.17649
-9.853741 61.513928 44.641306
-10.783838 61.526792 45.25817
-10.062055 59.921095 45.718224
-9.711425 63.126947 43.596051
-9.853741 61.513928 44.641306
-9.570061 64.833367 42.412616
-10.43416 64.826044 42.997818
-9.711425 63.126947 43.596051
-8.630118 64.59642 41.938358
-7.657022 64.501938 41.337666
-9.352853 66.295517 41.340126
-9.570061 64.833367 42.412616
-8.630118 64.59642 41.938358
-7.010757 68.911808 37.960212
-7.234897 67.461834 39.105958
-7.758814 70.407582 37.369056
-7.010757 68.911808 37.960212
-6.822128 70.363335 36.758442
-6.790241 75.823879 32.391488
-7.539519 77.366478 31.59533
-7.798541 76.059025 32.897751
-5.810604 75.556377 31.918381
-6.790241 75.823879 32.391488
-6.069625 74.248924 33.220802
-12.591636 61.453599 46.468279
-11.71677 61.563896 45.84198
-12.591636 61.453599 46.468279
-13.329273 63.006238 45.999618
-15.910034 64.155676 46.704864
-14.990862 64.337732 46.103659
-16.690317 65.505878 46.200855
-15.910034 64.155676 46.704864
-17.40893 66.771969 45.668024
-16.690317 65.505878 46.200855
-16.483178 67.122909 45.024122
-18.097679 68.202015 44.93903
-17.40893 66.771969 45.668024
-18.84432 69.657643 44.150841
-18.097679 68.202015 44.93903
-17.948431 69.844628 43.703102
-19.579614 70.92136 43.396732
-19.728862 69.278748 44.63266
-18.84432 69.657643 44.150841
-20.375173 72.110592 42.659187
-19.579614 70.92136 43.396732
-19.490631 72.489487 42.177368
-21.150633 73.295422 41.784534
-20.375173 72.110592 42.659187
-21.150633 73.295422 41.784534
-20.961996 74.866803 40.510052
-20.560833 79.790993 36.190687
-20.667523 78.146064 37.68223
-19.857745 78.627464 37.159042
-21.23425 80.892548 35.203409
-20.560833 79.790993 36.190687
-20.424472 81.373947 34.680222
-21.943887 81.908718 34.159422
-21.23425 80.892548 35.203409
-21.73502 83.520336 32.565005
-21.943887 81.908718 34.159422
-21.517525 84.934383 31.101618
-21.73502 83.520336 32.565005
-20.880393 83.889549 32.229557
-21.339154 86.347427 29.573824
-21.517525 84.934383 31.101618
-21.183692 87.81715 27.925951
-21.339154 86.347427 29.573824
-20.507435 86.773319 29.118298
-21.022384 89.24482 26.2303
-21.183692 87.81715 27.925951
-21.022384 89.24482 26.2303
-20.080507 89.574269 25.82441
-19.157621 89.78172 25.410704
-18.315362 89.986042 24.963
-14.46474 89.98259 23.187436
-13.725983 88.687931 24.282116
-8.321016 78.890275 30.751308
-7.539519 77.366478 31.59533
3 0 16 14
3 0 18 16
3 0 56 58
3 58 57 18
3 56 57 58
3 1 21 19
3 2 24 22
3 2 26 24
3 2 28 26
3 3 31 29
3 3 59 61
3 61 60 31
3 59 60 61
3 3 62 64
3 62 63 64
3 4 34 32
3 6 35 15
3 6 36 35
3 6 38 36
3 8 39 17
3 8 40 39
3 8 65 67
3 67 66 40
3 65 66 67
3 68 41 69
3 70 42 71
3 72 71 41
3 70 71 72
3 73 43 74
3 75 44 76
3 77 76 43
3 75 76 77
3 79 78 44
3 9 80 82
3 82 81 20
3 80 81 82
3 9 83 85
3 83 45 84
3 83 84 85
3 5 46 33
3 10 47 23
3 10 48 47
3 10 49 48
3 11 50 25
3 11 86 88
3 88 87 50
3 86 87 88
3 11 89 90
3 12 51 27
3 12 52 51
3 7 53 37
3 13 54 30
3 13 55 54
3 13 91 93
3 93 92 55
3 91 92 93
3 14 15 4
3 16 15 14
3 16 6 15
3 16 17 6
3 18 17 16
3 18 8 17
3 18 94 96
3 96 95 8
3 94 95 96
3 98 97 18
3 19 99 101
3 99 20 100
3 99 100 101
3 21 20 19
3 21 9 20
3 22 23 5
3 24 23 22
3 24 10 23
3 24 25 10
3 26 25 24
3 26 11 25
3 26 27 11
3 28 27 26
3 28 12 27
3 29 30 7
3 31 30 29
3 31 13 30
3 31 102 104
3 104 103 13
3 102 103 104
3 106 105 31
3 32 33 1
3 34 33 32
3 34 5 33
3 15 34 4
3 35 34 15
3 35 5 34
3 35 22 5
3 36 22 35
3 36 2 22
3 36 37 2
3 38 37 36
3 38 7 37
3 17 38 6
3 39 38 17
3 39 7 38
3 39 29 7
3 40 29 39
3 40 3 29
3 40 107 109
3 109 108 3
3 107 108 109
3 111 110 40
3 113 112 8
3 114 19 115
3 114 115 116
3 117 19 118
3 119 1 120
3 121 120 19
3 119 120 121
3 41 122 123
3 41 124 126
3 124 1 125
3 124 125 126
3 41 32 1
3 42 32 41
3 42 4 32
3 127 42 128
3 43 129 131
3 129 42 130
3 129 130 131
3 43 4 42
3 43 14 4
3 44 14 43
3 44 0 14
3 44 132 134
3 134 133 0
3 132 133 134
3 137 136 44
3 135 136 137
3 20 138 139
3 141 140 20
3 45 142 143
3 45 144 145
3 33 21 1
3 46 21 33
3 46 9 21
3 23 46 5
3 47 46 23
3 47 9 46
3 47 45 9
3 48 45 47
3 48 146 148
3 148 147 45
3 146 147 148
3 48 149 150
3 49 151 153
3 153 152 48
3 151 152 153
3 49 154 156
3 154 155 156
3 25 49 10
3 50 49 25
3 50 157 159
3 159 158 49
3 157 158 159
3 50 160 161
3 163 162 50
3 27 164 166
3 166 165 11
3 164 165 166
3 51 167 169
3 169 168 27
3 167 168 169
3 51 170 171
3 51 172 173
3 52 174 176
3 176 175 51
3 174 175 176
3 52 177 178
3 37 28 2
3 53 28 37
3 53 12 28
3 30 53 7
3 54 53 30
3 54 12 53
3 54 52 12
3 55 52 54
3 55 179 181
3 181 180 52
3 179 180 181
3 55 182 183
3 185 184 55
3 187 186 13
3 189 188 3
3 191 190 0
