ply
format ascii 1.0
element vertex 759
property float x
property float y
property float z
element face 829
property list uchar int vertex_index
end_header
7.416237 -43.930866 43.725716
6.923867 -60.138287 38.706406
26.576248 -34.845402 32.674641
-5.722984 -67.227837 41.802414
36.076595 -20.651478 28.332035
11.419113 -46.172535 39.58622
7.362097 -51.047615 42.381096
9.940302 -38.491489 42.26395
15.312548 -39.999348 37.708939
6.004765 -69.209862 31.431572
25.560316 -25.642982 36.04958
20.050056 -32.966789 36.71167
2.334969 -55.050747 45.619778
0.92308 -63.87709 40.094517
-0.753906 -72.869904 31.516407
-12.71275 -70.515373 43.31123
31.713572 -27.685732 31.301487
9.097611 -45.009335 41.75301
9.478592 -48.924049 40.854919
7.435194 -47.048233 43.180077
8.482641 -41.487186 43.028713
10.678542 -42.116093 40.721413
9.691193 -58.002476 37.906235
9.627206 -62.503784 35.228645
9.194833 -67.049522 31.670744
6.61338 -64.649757 35.491127
16.863537 -32.222912 38.736675
16.189478 -44.456898 36.546989
18.421383 -41.052631 35.761421
-1.584526 -61.135429 44.642342
-2.450021 -65.509705 41.037338
0.086642 -68.3535 36.095123
-3.185448 -70.02317 36.593952
26.023397 -30.174618 34.413239
28.777117 -26.646996 33.825596
29.25705 -31.139803 32.079056
14.115878 -47.756031 37.448372
11.987921 -50.712719 38.511887
9.782799 -53.336872 39.627975
7.219264 -55.50864 40.969246
14.558175 -35.640137 39.182461
12.589693 -39.121738 39.735756
13.290184 -43.296585 38.542053
33.812996 -19.507479 31.507029
5.214088 -73.643051 26.792572
22.709677 -29.340834 36.427803
23.296684 -33.980328 34.77351
17.570978 -36.502602 37.111382
20.816473 -37.463379 35.190189
24.129965 -38.427402 33.163155
5.806861 -44.876945 45.588436
5.414934 -48.751781 45.065399
4.942325 -53.166389 44.013992
4.54333 -57.488674 42.202209
1.657303 -59.540157 43.228012
3.994291 -62.068062 39.428181
3.40382 -66.640945 35.686722
2.639288 -71.013939 31.46838
1.950998 -75.568932 26.445358
-9.239885 -68.9048 42.713127
-10.118249 -73.35791 38.042549
-6.62315 -71.690514 37.327232
-4.105926 -74.659256 31.812731
28.436214 -22.221415 35.294109
31.343056 -23.173695 32.949837
34.166634 -24.04501 30.001387
8.14518 -44.387238 42.820744
8.287594 -46.080273 42.423374
7.415576 -45.313759 43.490562
7.890086 -42.888191 43.383434
8.801885 -43.195335 42.324005
8.351529 -58.974449 38.37505
9.66398 -60.277466 36.683323
8.254362 -61.313698 36.990131
8.062086 -63.667274 35.372524
6.800669 -62.417236 37.187912
-5.339077 -65.069008 43.875973
-3.64112 -64.126526 43.45977
-4.069048 -66.328079 41.454247
-2.825884 -67.824974 38.810081
-4.499793 -68.605858 39.237713
35.965481 -18.372618 28.967901
26.381815 -32.54707 33.489372
27.674465 -30.73171 33.26828
27.986074 -33.145348 32.297108
12.706933 -46.948143 38.529045
13.112356 -49.375008 37.915161
11.733972 -48.348358 39.074963
8.48604 -49.979774 41.566994
9.616961 -51.02663 40.338139
8.457891 -52.243557 41.046352
8.603035 -54.568741 40.191971
7.342227 -53.281696 41.72052
12.158786 -37.188911 40.576298
11.187446 -38.742813 40.991024
11.043988 -44.143066 40.122669
11.894889 -42.65567 39.641972
12.355672 -44.717648 39.040077
13.821107 -45.415642 37.932823
32.514622 -19.030685 32.878071
7.671943 -68.222458 31.457672
8.983788 -69.34198 29.457436
7.34465 -70.459625 29.248812
5.645251 -71.449921 29.148561
19.622189 -30.808903 37.594891
21.03709 -29.016983 37.415638
21.322657 -31.084257 36.607861
23.036493 -31.608992 35.575108
21.699722 -33.40416 35.7472
14.88756 -37.792576 38.411522
16.029854 -36.084202 38.105038
16.421452 -38.24818 37.378483
20.100494 -41.53278 34.764194
19.528179 -39.281391 35.48513
21.23838 -39.812305 34.470901
22.473019 -38.090431 34.176815
4.809292 -45.609371 46.716171
5.58711 -46.781055 45.39587
4.444884 -47.564919 46.588322
2.594844 -52.797215 46.583237
3.969611 -51.827183 45.570477
3.683908 -54.187431 44.773617
4.713963 -55.409859 43.192135
3.364355 -56.390553 43.871948
-0.340647 -62.544109 42.325829
0.009629 -60.285374 44.02211
1.193756 -61.639957 41.910305
2.772054 -60.80946 41.348709
2.419766 -62.920177 39.862778
3.601749 -64.362419 37.733959
2.059565 -65.284721 37.921406
-0.219428 -70.686188 33.695244
1.399671 -69.70562 33.726032
0.980454 -71.899223 31.496222
2.272422 -73.250168 29.077726
0.574614 -74.217255 29.000742
-12.453207 -68.373131 45.671066
-11.040236 -69.785843 43.032719
-8.84486 -74.729744 35.396297
-8.335876 -72.651764 37.532784
-7.092287 -74.093018 34.818417
-5.297802 -73.13707 34.569084
-5.776534 -75.293129 32.326939
25.41136 -23.473927 36.791573
27.010477 -23.963711 35.707527
30.315571 -27.07534 32.622311
30.181332 -24.940992 33.356388
31.684958 -25.321306 32.065338
32.866901 -23.606684 31.489525
33.042255 -25.956345 30.618311
10.224835 -45.609562 40.639381
10.41571 -47.625725 40.228748
9.371638 -46.84391 41.254002
8.416291 -47.971916 42.007858
7.458697 -48.996296 42.779686
9.176635 -40.104614 42.614304
10.297718 -40.295639 41.426933
9.536134 -41.88908 41.824478
9.920724 -43.664169 41.160271
11.072743 -56.795357 37.441956
7.831411 -65.994194 33.523048
6.244715 -67.019264 33.532906
18.110441 -30.558849 38.546345
18.473246 -32.706196 37.632492
15.798532 -42.349709 37.057667
16.774635 -40.431671 36.776669
17.300055 -42.71262 36.132469
18.915991 -43.361507 35.116947
-3.163903 -61.96822 45.218433
-1.958954 -63.391449 42.819084
-0.773399 -64.702675 40.564842
0.476265 -65.991692 38.325935
-1.150059 -66.85099 38.608452
-1.460013 -69.14872 36.309372
-1.845142 -71.315514 34.110947
-14.521011 -71.288521 43.454159
25.772686 -27.971436 35.220383
27.183764 -26.171164 34.956284
27.462498 -28.455866 34.102104
29.099552 -28.89398 32.919868
30.555868 -29.496696 31.656706
13.48909 -51.601109 37.257095
12.287379 -53.010067 37.799633
10.704847 -49.642044 39.693504
10.866479 -52.002842 39.106026
11.084978 -54.435795 38.288635
9.788231 -55.753483 38.814461
8.395761 -56.789509 39.455986
7.091506 -57.773033 39.983097
14.254022 -33.641109 40.047352
13.218335 -35.418442 40.2519
13.472866 -37.387833 39.483521
13.881431 -39.583118 38.706791
11.543928 -40.611427 40.25988
12.870121 -41.186943 39.134205
14.338027 -41.670246 38.057693
14.726671 -43.777534 37.533619
15.221992 -46.077423 36.940407
-7.080192 -65.995308 44.305054
34.869747 -17.979706 30.548382
35.022251 -20.223906 29.939941
28.212925 -35.439899 31.375671
23.945528 -25.310078 37.053116
22.555292 -27.223562 37.191261
24.120596 -27.461843 36.273499
24.361128 -29.708494 35.453709
24.75946 -32.011108 34.558311
24.913034 -34.373871 33.795067
15.706707 -34.048843 38.884552
17.247265 -34.352947 37.847401
18.795759 -34.818424 36.86507
17.974737 -38.652821 36.431816
19.060722 -36.940807 36.214645
20.36759 -35.251957 35.941578
21.991611 -35.785641 34.979374
23.620903 -36.25211 34.001213
25.384773 -36.611649 32.891964
7.007197 -42.892204 44.475876
6.728937 -44.359047 44.503403
6.150561 -43.199638 45.553349
7.522605 -41.531528 44.172234
6.580737 -46.069378 44.344299
6.51518 -48.032063 44.002823
6.377672 -50.051888 43.641178
4.248085 -49.594437 46.133339
5.190829 -50.815708 44.658604
6.14792 -52.161018 43.220589
6.088645 -54.323086 42.450748
5.883303 -56.611298 41.56435
5.728906 -58.843376 40.427551
0.466159 -58.134438 45.320099
1.883126 -57.235317 44.676998
3.090118 -58.486454 42.787697
4.239886 -59.785362 40.963497
5.455985 -61.068516 39.132851
5.2382 -63.379551 37.478928
5.006135 -65.593483 35.672436
4.599673 -67.944458 33.609264
1.719597 -67.432678 35.975853
2.982263 -68.854599 33.652447
4.358786 -70.241287 31.291763
3.884053 -72.416794 29.078846
3.608317 -74.647499 26.544878
3.259083 -76.828781 24.01531
-8.818787 -66.785461 44.825813
-7.359666 -68.174019 42.059933
-9.579579 -71.111313 40.3573
-7.878522 -70.291695 39.993683
-6.055955 -69.44706 39.514614
-4.890086 -70.954628 36.825226
-3.549613 -72.252602 34.273819
-2.346673 -73.751511 31.595955
-4.474331 -76.885437 29.342562
-2.786724 -75.967239 29.212225
-1.049762 -75.205772 28.900768
0.213591 -76.562584 26.352076
29.820436 -20.32851 34.800541
28.634573 -24.366972 34.581944
29.964048 -22.694765 34.126045
31.24383 -20.810469 33.609779
32.642799 -21.340223 32.279995
33.986542 -21.831013 30.805513
35.17971 -22.442478 29.199425
29.450565 -33.50502 31.11664
30.714132 -31.858543 30.687845
32.008156 -29.9659 30.229122
33.166656 -28.051571 29.774673
34.319271 -26.365843 29.064978
35.238682 -24.645977 28.452801
36.49452 -19.817355 27.765556
36.438963 -18.677924 28.083489
36.021038 -19.512048 28.649968
36.542329 -20.956011 27.405926
36.49452 -19.817355 27.765556
10.563874 -38.617151 41.627487
11.033544 -37.81559 41.411951
10.409972 -37.689928 42.048414
31.859104 -18.742479 33.495582
32.444813 -17.83011 33.129261
21.45999 -40.997936 34.107641
20.669437 -40.672543 34.617548
20.891047 -41.858173 34.254288
22.051072 -40.055288 33.965626
21.45999 -40.997936 34.107641
4.032514 -46.898827 47.348524
4.627088 -46.587145 46.652247
4.214719 -45.921053 47.412449
-12.582978 -69.444252 44.491148
-13.342869 -68.795246 45.722849
-13.472641 -69.866367 44.542931
-8.172757 -75.525734 33.897045
-9.053211 -75.931087 34.061708
-7.29647 -75.207371 33.608105
-7.968573 -74.411381 35.107357
-8.172757 -75.525734 33.897045
-6.638594 -75.807426 32.362366
-6.434411 -74.693073 33.572678
-7.29647 -75.207371 33.608105
10.38718 -58.524382 37.144902
11.077955 -57.920822 36.912762
10.381968 -57.398916 37.674095
10.394473 -61.873591 35.138244
10.41286 -60.760431 35.865583
9.645593 -61.390625 35.955984
10.315876 -63.035786 34.37051
10.394473 -61.873591 35.138244
9.523777 -63.587143 34.451448
10.315876 -63.035786 34.37051
17.486989 -31.390881 38.64151
17.374139 -30.363998 39.093308
16.750687 -31.19603 39.188473
19.163091 -44.562492 34.769179
18.328439 -44.186405 35.331806
19.700962 -43.597401 34.622059
19.163091 -44.562492 34.769179
-4.00309 -62.399399 45.510421
-3.779734 -61.324816 46.363958
-15.462083 -71.542607 43.580559
-15.225158 -70.556873 44.682215
14.316831 -48.894972 37.143122
14.839654 -48.090143 36.923902
12.564407 -35.32984 40.843021
13.018006 -34.472205 40.761946
14.839654 -48.090143 36.923902
15.392711 -47.250839 36.66992
14.668935 -46.916727 37.194389
-7.725995 -65.292118 45.602383
-6.86804 -64.838228 45.381447
34.341371 -18.743592 31.027705
34.278576 -17.583877 31.284029
33.7502 -18.347763 31.763352
9.918258 -67.500118 30.748401
9.969959 -66.439591 31.732022
9.662972 -69.784458 28.512898
8.861794 -70.359524 28.386962
5.916298 -74.191372 25.666419
6.106132 -73.116982 26.883288
5.136804 -74.709812 25.50183
5.916298 -74.191372 25.666419
23.124981 -25.174648 37.562722
23.910204 -24.258571 37.411
24.940244 -38.685663 32.583527
25.567648 -37.777787 32.447931
24.757369 -37.519526 33.02756
6.373206 -42.364936 45.485855
6.578879 -43.045921 45.014612
6.801524 -42.211219 44.947119
7.059228 -41.530881 44.795298
7.316314 -40.773447 44.684697
6.801524 -42.211219 44.947119
7.264901 -42.211866 44.324055
7.059228 -41.530881 44.795298
3.602667 -50.117945 46.667332
3.775492 -49.014418 46.916332
-1.323974 -59.990784 45.391581
-2.134849 -60.461233 45.723132
-9.029336 -67.84513 43.76947
-9.746127 -67.248897 45.007505
-9.956676 -68.308567 43.951162
-11.003321 -73.742592 38.198955
-10.355698 -74.527519 36.769825
-10.785984 -72.662518 39.375225
-11.003321 -73.742592 38.198955
-9.848914 -72.234611 39.199925
-10.516649 -71.539219 40.532601
-10.785984 -72.662518 39.375225
-4.710406 -78.026962 28.084294
-5.346996 -77.314244 29.480459
-2.196937 -76.713501 27.851332
-3.035751 -77.116589 27.957785
-1.328456 -76.332767 27.695603
-1.918243 -75.586506 29.056497
-2.196937 -76.713501 27.851332
-0.696779 -77.011173 26.421257
-0.418086 -75.884178 27.626422
-1.328456 -76.332767 27.695603
28.395226 -21.05538 35.607824
27.699289 -21.945903 35.83492
29.128325 -21.274963 35.047325
29.087338 -20.108928 35.36104
28.395226 -21.05538 35.607824
29.620764 -34.650091 30.546449
28.831745 -34.472459 31.246156
29.001943 -35.617531 30.675964
31.463399 -32.01544 29.918095
30.854962 -32.933166 30.14178
32.110411 -31.069119 29.688734
31.361144 -30.912222 30.458483
31.463399 -32.01544 29.918095
33.765387 -28.356725 28.949239
33.239048 -29.21552 29.238177
34.341694 -27.513861 28.594392
33.742964 -27.208707 29.419826
33.765387 -28.356725 28.949239
35.768976 -24.880007 27.53212
35.346853 -25.729982 27.895375
35.728083 -23.769675 27.977176
35.768976 -24.880007 27.53212
16.101224 -32.077482 39.303897
16.750687 -31.19603 39.188473
16.965183 -44.7341 36.046827
16.420924 -45.617186 36.24843
-4.490099 -64.597767 43.667872
-4.241699 -63.478552 44.63109
-5.090677 -63.949793 44.839191
36.371622 -17.561733 28.399029
35.932817 -17.235032 29.176177
36.371622 -17.561733 28.399029
36.438963 -18.677924 28.083489
11.519214 -37.038639 41.204588
12.034633 -36.215075 41.005221
11.673116 -37.965862 40.783661
11.519214 -37.038639 41.204588
11.033544 -37.81559 41.411951
33.101014 -18.109366 32.448873
32.444813 -17.83011 33.129261
33.163809 -19.269082 32.19255
33.7502 -18.347763 31.763352
33.101014 -18.109366 32.448873
8.042225 -70.918346 28.28265
8.861794 -70.359524 28.386962
8.164219 -69.900802 29.353124
7.171412 -71.525269 28.111407
8.042225 -70.918346 28.28265
6.321713 -72.020417 28.061282
7.171412 -71.525269 28.111407
6.49495 -70.954773 29.198687
5.42967 -72.546486 27.970567
6.106132 -73.116982 26.883288
6.321713 -72.020417 28.061282
20.329639 -29.912943 37.505264
20.244535 -28.853656 37.917625
19.537085 -29.749616 38.007252
22.668391 -39.194351 33.818582
21.8557 -38.951368 34.323858
22.051072 -40.055288 33.965626
23.496865 -39.362837 33.311752
23.301492 -38.258916 33.669985
22.668391 -39.194351 33.818582
24.325854 -39.566202 32.75136
23.496865 -39.362837 33.311752
3.282228 -52.312199 46.076857
3.463431 -51.234318 46.3859
2.776047 -51.719334 46.89228
-13.071753 -67.701622 46.834877
-13.342869 -68.795246 45.722849
-12.207019 -67.274021 46.762213
-13.071753 -67.701622 46.834877
-11.563337 -68.042732 45.430132
-12.207019 -67.274021 46.762213
-10.856852 -68.749088 44.110958
-11.563337 -68.042732 45.430132
-11.746721 -69.079487 44.351893
-10.140061 -69.345321 42.872923
-9.956676 -68.308567 43.951162
-10.856852 -68.749088 44.110958
-9.719003 -75.213436 35.446699
-9.053211 -75.931087 34.061708
-9.481555 -74.043827 36.719423
-10.355698 -74.527519 36.769825
-9.719003 -75.213436 35.446699
26.186862 -22.572159 36.583652
25.384082 -22.448631 37.109936
26.986421 -22.817051 36.041629
26.186862 -22.572159 36.583652
26.210918 -23.718819 36.24955
27.723346 -23.092563 35.500818
27.699289 -21.945903 35.83492
26.986421 -22.817051 36.041629
11.74317 -57.278999 36.753067
11.762753 -56.108664 37.203255
11.74317 -57.278999 36.753067
11.077955 -57.920822 36.912762
10.373573 -59.661877 36.533445
10.38718 -58.524382 37.144902
9.677587 -59.139971 37.294779
10.373573 -59.661877 36.533445
10.41286 -60.760431 35.865583
9.30759 -65.860012 32.672498
9.969959 -66.439591 31.732022
8.741217 -64.168888 34.523388
9.523777 -63.587143 34.451448
8.844646 -63.085529 35.300584
8.625879 -65.332348 33.59865
8.741217 -64.168888 34.523388
7.946748 -64.830734 34.447786
8.513122 -66.521858 32.596896
9.30759 -65.860012 32.672498
8.625879 -65.332348 33.59865
18.05816 -29.469023 38.991661
17.374139 -30.363998 39.093308
18.781211 -29.624589 38.482979
18.05816 -29.469023 38.991661
18.866315 -30.683876 38.070618
19.537085 -29.749616 38.007252
18.781211 -29.624589 38.482979
17.520471 -43.861961 35.839567
16.744767 -43.584759 36.339729
16.965183 -44.7341 36.046827
18.108023 -43.037064 35.624708
17.520471 -43.861961 35.839567
18.328439 -44.186405 35.331806
20.293214 -42.683037 34.445683
19.508243 -42.447144 34.940571
19.700962 -43.597401 34.622059
20.891047 -41.858173 34.254288
20.293214 -42.683037 34.445683
2.06416 -52.047033 47.545086
2.776047 -51.719334 46.89228
1.915425 -53.222046 47.062796
2.06416 -52.047033 47.545086
1.785487 -54.348812 46.581066
2.464907 -53.923981 46.101507
1.915425 -53.222046 47.062796
-2.924538 -60.877629 46.011177
-3.779734 -61.324816 46.363958
-2.374214 -61.551825 44.930387
-2.134849 -60.461233 45.723132
-2.924538 -60.877629 46.011177
-3.402512 -63.047373 44.339101
-4.00309 -62.399399 45.510421
-4.241699 -63.478552 44.63109
-14.376771 -70.252941 44.614396
-15.225158 -70.556873 44.682215
-13.616881 -70.901947 43.382694
-13.472641 -69.866367 44.542931
-14.376771 -70.252941 44.614396
13.815069 -49.70446 37.376516
14.316831 -48.894972 37.143122
13.614117 -48.56552 37.681766
14.003436 -50.817511 37.047483
13.815069 -49.70446 37.376516
13.300723 -50.488059 37.586128
14.164676 -51.992763 36.701248
14.003436 -50.817511 37.047483
13.596812 -52.801163 36.888759
14.164676 -51.992763 36.701248
12.995957 -53.505642 37.160028
13.596812 -52.801163 36.888759
12.888234 -52.305588 37.528364
12.370071 -54.216019 37.382093
12.995957 -53.505642 37.160028
11.768871 -54.928883 37.626594
12.370071 -54.216019 37.382093
11.686179 -53.722931 38.044134
11.07886 -55.615576 37.865296
11.762753 -56.108664 37.203255
11.768871 -54.928883 37.626594
13.535849 -33.583538 40.659672
14.120542 -32.719651 40.514015
13.736179 -34.529775 40.149626
13.535849 -33.583538 40.659672
13.018006 -34.472205 40.761946
12.68856 -36.303676 40.414099
12.564407 -35.32984 40.843021
12.034633 -36.215075 41.005221
15.937181 -46.427448 36.445139
16.420924 -45.617186 36.24843
15.705735 -45.267161 36.743698
15.937181 -46.427448 36.445139
15.392711 -47.250839 36.66992
-5.997483 -64.375079 45.166906
-5.090677 -63.949793 44.839191
-6.209634 -65.532158 44.090514
-5.997483 -64.375079 45.166906
-6.86804 -64.838228 45.381447
34.831322 -16.788929 30.743595
34.278576 -17.583877 31.284029
35.384951 -17.038576 29.966417
34.831322 -16.788929 30.743595
35.417614 -18.176162 29.758142
35.932817 -17.235032 29.176177
35.384951 -17.038576 29.966417
27.626227 -36.287523 31.518991
27.394586 -35.142651 32.025156
26.807889 -35.990274 32.168475
28.418307 -36.531602 30.83007
27.626227 -36.287523 31.518991
29.001943 -35.617531 30.675964
28.418307 -36.531602 30.83007
9.812736 -68.646347 29.641748
9.918258 -67.500118 30.748401
9.08931 -68.195751 30.56409
9.812736 -68.646347 29.641748
9.662972 -69.784458 28.512898
24.64312 -23.340495 37.280228
25.384082 -22.448631 37.109936
24.678444 -24.392003 36.922345
24.64312 -23.340495 37.280228
23.910204 -24.258571 37.411
20.998542 -27.990638 37.792116
20.244535 -28.853656 37.917625
21.757643 -27.093928 37.679927
20.998542 -27.990638 37.792116
21.796191 -28.120272 37.303449
22.429863 -26.131391 37.631794
21.757643 -27.093928 37.679927
23.25041 -26.26682 37.122189
23.124981 -25.174648 37.562722
22.429863 -26.131391 37.631794
14.796467 -32.78658 39.959236
14.120542 -32.719651 40.514015
15.522809 -32.990447 39.377836
14.796467 -32.78658 39.959236
14.980365 -33.844976 39.465952
16.285122 -33.135877 38.810614
16.101224 -32.077482 39.303897
15.522809 -32.990447 39.377836
26.212151 -36.873398 32.277137
26.807889 -35.990274 32.168475
25.980511 -35.728526 32.783303
26.212151 -36.873398 32.277137
25.567648 -37.777787 32.447931
24.940244 -38.685663 32.583527
24.325854 -39.566202 32.75136
5.856513 -42.60182 46.155266
6.373206 -42.364936 45.485855
5.63622 -43.477415 46.196928
5.856513 -42.60182 46.155266
5.46437 -44.316069 46.214472
5.978711 -44.038291 45.570892
5.63622 -43.477415 46.196928
4.965585 -44.682282 46.77834
5.308077 -45.243158 46.152304
5.46437 -44.316069 46.214472
4.435156 -44.966149 47.443339
4.965585 -44.682282 46.77834
4.214719 -45.921053 47.412449
4.435156 -44.966149 47.443339
9.813825 -37.563349 42.722116
10.409972 -37.689928 42.048414
9.397686 -38.406256 42.897209
9.813825 -37.563349 42.722116
9.015852 -39.212818 43.072386
9.558469 -39.298051 42.439127
9.397686 -38.406256 42.897209
8.637569 -40.057458 43.256029
9.015852 -39.212818 43.072386
8.290571 -40.748745 43.463234
8.829638 -40.7959 42.821509
8.637569 -40.057458 43.256029
7.810554 -40.770916 44.034994
7.316314 -40.773447 44.684697
8.002623 -41.509357 43.600474
8.290571 -40.748745 43.463234
7.810554 -40.770916 44.034994
3.873892 -47.999659 47.143824
4.032514 -46.898827 47.348524
4.346484 -48.579678 46.36083
3.873892 -47.999659 47.143824
3.775492 -49.014418 46.916332
4.108848 -50.71081 45.851908
3.602667 -50.117945 46.667332
3.463431 -51.234318 46.3859
1.573533 -55.446884 46.111468
1.785487 -54.348812 46.581066
-0.526896 -59.565756 45.081465
-1.323974 -59.990784 45.391581
-0.787448 -60.710402 44.332226
-0.298632 -58.490288 45.730459
-0.526896 -59.565756 45.081465
0.237894 -59.209906 44.671104
-0.075981 -57.430599 46.339969
-0.298632 -58.490288 45.730459
0.639128 -56.98873 45.961628
-0.075981 -57.430599 46.339969
1.347611 -56.539169 45.640078
0.639128 -56.98873 45.961628
1.174643 -57.684877 44.998548
2.109047 -56.143032 45.148388
1.573533 -55.446884 46.111468
1.347611 -56.539169 45.640078
4.333919 -75.212036 25.377983
5.136804 -74.709812 25.50183
4.411202 -74.145275 26.668725
4.159301 -76.302677 24.113199
4.333919 -75.212036 25.377983
3.4337 -75.73814 25.280094
3.907965 -77.400406 22.849612
4.159301 -76.302677 24.113199
-9.525669 -66.157734 46.075512
-9.746127 -67.248897 45.007505
-8.595292 -65.687195 45.862763
-9.525669 -66.157734 46.075512
-7.94949 -66.390384 44.565433
-7.725995 -65.292118 45.602383
-8.595292 -65.687195 45.862763
-14.744768 -72.309666 42.310882
-15.462083 -71.542607 43.580559
-13.87531 -71.958153 42.264034
-14.744768 -72.309666 42.310882
-12.971179 -71.571579 42.19257
-13.616881 -70.901947 43.382694
-13.87531 -71.958153 42.264034
-12.083234 -71.241249 42.009566
-12.971179 -71.571579 42.19257
-11.246977 -70.876484 41.87031
-11.876493 -70.150608 43.171975
-12.083234 -71.241249 42.009566
-10.309908 -70.448578 41.695009
-11.246977 -70.876484 41.87031
-10.516649 -71.539219 40.532601
-5.998097 -76.51809 30.972647
-6.638594 -75.807426 32.362366
-5.125433 -76.089283 30.834751
-5.998097 -76.51809 30.972647
-5.346996 -77.314244 29.480459
-3.879555 -77.575688 28.022954
-4.710406 -78.026962 28.084294
-3.630528 -76.426338 29.277394
-3.879555 -77.575688 28.022954
-3.035751 -77.116589 27.957785
-0.026437 -77.699425 25.073047
-0.696779 -77.011173 26.421257
0.857151 -77.229008 25.075502
-0.026437 -77.699425 25.073047
1.725854 -76.732182 25.122143
1.082294 -76.065758 26.398717
0.857151 -77.229008 25.075502
2.379897 -77.362107 23.90712
2.60504 -76.198857 25.230334
1.725854 -76.732182 25.122143
2.985676 -77.945999 22.747276
2.379897 -77.362107 23.90712
3.907965 -77.400406 22.849612
2.985676 -77.945999 22.747276
29.75985 -19.221528 35.068363
29.087338 -20.108928 35.36104
30.512011 -19.391392 34.456817
29.75985 -19.221528 35.068363
31.223707 -19.632371 33.861436
30.512011 -19.391392 34.456817
30.532133 -20.56949 34.20516
31.879226 -19.920577 33.243925
31.859104 -18.742479 33.495582
31.223707 -19.632371 33.861436
30.223179 -33.756405 30.356178
29.620764 -34.650091 30.546449
30.082349 -32.681781 30.902242
30.223179 -33.756405 30.356178
30.854962 -32.933166 30.14178
32.659798 -30.172685 29.465401
32.110411 -31.069119 29.688734
32.587406 -29.008736 30.001897
32.659798 -30.172685 29.465401
33.239048 -29.21552 29.238177
34.887148 -26.589916 28.201463
34.341694 -27.513861 28.594392
34.778976 -25.50591 28.75889
34.887148 -26.589916 28.201463
35.346853 -25.729982 27.895375
35.698597 -22.667926 28.350488
35.209196 -23.544227 28.826113
35.728083 -23.769675 27.977176
36.147039 -21.772426 27.916793
35.628152 -21.546978 28.76573
35.698597 -22.667926 28.350488
36.542329 -20.956011 27.405926
36.147039 -21.772426 27.916793
3 0 68 66
3 0 66 69
3 1 73 71
3 1 75 73
3 3 78 76
3 3 80 78
3 4 269 271
3 271 270 81
3 269 270 271
3 4 272 273
3 2 84 82
3 5 87 85
3 6 90 88
3 6 92 90
3 7 274 276
3 274 94 275
3 274 275 276
3 5 97 95
3 5 85 97
3 277 99 278
3 9 102 100
3 9 103 102
3 11 106 104
3 11 108 106
3 8 111 109
3 279 114 280
3 281 280 112
3 279 280 281
3 283 282 114
3 284 118 285
3 286 285 116
3 284 285 286
3 12 121 119
3 12 123 121
3 13 126 124
3 13 128 126
3 13 130 128
3 14 133 131
3 14 135 133
3 15 287 289
3 287 136 288
3 287 288 289
3 15 137 136
3 290 138 291
3 292 140 293
3 294 293 138
3 292 293 294
3 295 142 296
3 297 296 140
3 295 296 297
3 10 144 143
3 16 147 145
3 16 149 147
3 17 152 150
3 19 153 67
3 19 154 153
3 20 157 155
3 17 158 70
3 17 150 158
3 22 298 300
3 300 299 159
3 298 299 300
3 23 301 303
3 303 302 72
3 301 302 303
3 23 304 305
3 23 306 307
3 25 160 74
3 25 161 160
3 26 308 310
3 308 162 309
3 308 309 310
3 26 163 162
3 27 166 164
3 311 167 312
3 314 313 167
3 315 168 316
3 30 169 77
3 30 170 169
3 30 172 170
3 32 173 79
3 32 174 173
3 317 175 318
3 33 178 176
3 35 179 83
3 35 180 179
3 36 319 320
3 37 181 86
3 37 182 181
3 18 183 151
3 38 184 89
3 38 185 184
3 38 186 185
3 39 187 91
3 39 188 187
3 321 190 322
3 41 191 93
3 41 192 191
3 21 193 156
3 42 194 96
3 42 195 194
3 42 196 195
3 36 197 98
3 36 323 325
3 325 324 197
3 323 324 325
3 326 198 327
3 43 328 330
3 328 199 329
3 328 329 330
3 43 200 199
3 24 331 332
3 334 333 101
3 44 335 336
3 44 337 338
3 339 202 340
3 45 203 105
3 45 204 203
3 45 205 204
3 46 206 107
3 46 207 206
3 40 208 189
3 47 209 110
3 47 210 209
3 28 211 165
3 48 212 113
3 48 213 212
3 48 214 213
3 49 215 115
3 49 216 215
3 49 341 343
3 343 342 216
3 341 342 343
3 344 219 345
3 346 345 217
3 344 345 346
3 347 220 348
3 349 217 350
3 351 350 220
3 349 350 351
3 50 221 218
3 51 222 117
3 51 223 222
3 352 224 353
3 52 225 120
3 52 226 225
3 52 227 226
3 53 228 122
3 53 229 228
3 29 354 355
3 54 230 125
3 54 231 230
3 54 232 231
3 55 233 127
3 55 234 233
3 55 235 234
3 56 236 129
3 56 237 236
3 31 238 171
3 57 239 132
3 57 240 239
3 57 241 240
3 58 242 134
3 58 243 242
3 59 356 358
3 356 244 357
3 356 357 358
3 59 245 244
3 60 359 360
3 60 361 362
3 60 363 365
3 363 246 364
3 363 364 365
3 61 247 139
3 61 248 247
3 61 249 248
3 62 250 141
3 62 251 250
3 366 252 367
3 368 253 369
3 370 254 371
3 372 371 253
3 370 371 372
3 373 255 374
3 375 374 254
3 373 374 375
3 63 376 377
3 63 378 380
3 378 256 379
3 378 379 380
3 34 257 177
3 64 258 146
3 64 259 258
3 64 260 259
3 65 261 148
3 65 262 261
3 381 263 382
3 383 382 201
3 381 382 383
3 384 264 385
3 386 265 387
3 388 387 264
3 386 387 388
3 389 266 390
3 391 267 392
3 393 392 266
3 391 392 393
3 394 268 395
3 397 396 268
3 66 67 17
3 68 67 66
3 68 19 67
3 69 70 20
3 66 70 69
3 66 17 70
3 71 72 22
3 73 72 71
3 73 23 72
3 73 74 23
3 75 74 73
3 75 25 74
3 398 26 399
3 401 400 27
3 76 402 404
3 402 77 403
3 402 403 404
3 78 77 76
3 78 30 77
3 78 79 30
3 80 79 78
3 80 32 79
3 81 405 406
3 408 407 81
3 82 83 33
3 84 83 82
3 84 35 83
3 85 86 36
3 87 86 85
3 87 37 86
3 88 89 18
3 90 89 88
3 90 38 89
3 90 91 38
3 92 91 90
3 92 39 91
3 409 93 410
3 94 411 413
3 411 93 412
3 411 412 413
3 94 41 93
3 95 96 21
3 97 96 95
3 97 42 96
3 97 98 42
3 85 98 97
3 85 36 98
3 99 414 415
3 99 416 418
3 416 43 417
3 416 417 418
3 100 101 24
3 102 101 100
3 102 419 421
3 421 420 101
3 419 420 421
3 102 422 423
3 103 424 426
3 426 425 102
3 424 425 426
3 103 427 429
3 427 44 428
3 427 428 429
3 104 430 432
3 430 105 431
3 430 431 432
3 106 105 104
3 106 45 105
3 106 107 45
3 108 107 106
3 108 46 107
3 109 110 40
3 111 110 109
3 111 47 110
3 112 113 28
3 114 113 112
3 114 48 113
3 114 115 48
3 433 115 434
3 435 434 114
3 433 434 435
3 436 49 437
3 438 437 115
3 436 437 438
3 440 439 49
3 116 117 50
3 118 117 116
3 118 51 117
3 119 441 443
3 441 120 442
3 441 442 443
3 121 120 119
3 121 52 120
3 121 122 52
3 123 122 121
3 123 53 122
3 124 125 29
3 126 125 124
3 126 54 125
3 126 127 54
3 128 127 126
3 128 55 127
3 128 129 55
3 130 129 128
3 130 56 129
3 131 132 31
3 133 132 131
3 133 57 132
3 133 134 57
3 135 134 133
3 135 58 134
3 136 444 445
3 136 446 447
3 136 448 449
3 137 450 452
3 452 451 136
3 450 451 452
3 137 453 455
3 453 59 454
3 453 454 455
3 138 456 457
3 138 458 460
3 458 60 459
3 458 459 460
3 138 139 60
3 140 139 138
3 140 61 139
3 140 141 61
3 142 141 140
3 142 62 141
3 143 461 462
3 144 463 465
3 465 464 143
3 463 464 465
3 144 466 468
3 466 63 467
3 466 467 468
3 145 146 34
3 147 146 145
3 147 64 146
3 147 148 64
3 149 148 147
3 149 65 148
3 150 151 5
3 152 151 150
3 152 18 151
3 67 152 17
3 153 152 67
3 153 18 152
3 153 88 18
3 154 88 153
3 154 6 88
3 155 156 7
3 157 156 155
3 157 21 156
3 70 157 20
3 158 157 70
3 158 21 157
3 158 95 21
3 150 95 158
3 150 5 95
3 159 469 470
3 472 471 159
3 72 473 475
3 475 474 22
3 473 474 475
3 477 476 72
3 478 24 479
3 74 480 482
3 482 481 23
3 480 481 482
3 160 483 485
3 485 484 74
3 483 484 485
3 160 486 488
3 486 24 487
3 486 487 488
3 160 100 24
3 161 100 160
3 161 9 100
3 162 489 490
3 162 491 492
3 162 493 495
3 493 104 494
3 493 494 495
3 163 104 162
3 163 11 104
3 164 165 8
3 166 165 164
3 166 28 165
3 496 166 497
3 498 497 27
3 496 497 498
3 167 499 501
3 499 166 500
3 499 500 501
3 167 28 166
3 167 112 28
3 502 112 503
3 504 503 167
3 502 503 504
3 506 505 112
3 507 119 508
3 509 119 510
3 511 12 512
3 513 512 119
3 511 512 513
3 168 514 515
3 168 516 518
3 516 29 517
3 516 517 518
3 77 519 521
3 519 168 520
3 519 520 521
3 169 168 77
3 169 29 168
3 169 124 29
3 170 124 169
3 170 13 124
3 170 171 13
3 172 171 170
3 172 31 171
3 79 172 30
3 173 172 79
3 173 31 172
3 173 131 31
3 174 131 173
3 174 14 131
3 175 522 523
3 175 524 526
3 524 15 525
3 524 525 526
3 176 177 10
3 178 177 176
3 178 34 177
3 83 178 33
3 179 178 83
3 179 34 178
3 179 145 34
3 180 145 179
3 180 16 145
3 86 527 529
3 529 528 36
3 527 528 529
3 181 530 532
3 532 531 86
3 530 531 532
3 181 533 534
3 181 535 536
3 182 537 539
3 539 538 181
3 537 538 539
3 182 540 541
3 151 87 5
3 183 87 151
3 183 37 87
3 89 183 18
3 184 183 89
3 184 37 183
3 184 182 37
3 185 182 184
3 185 542 544
3 544 543 182
3 542 543 544
3 185 545 547
3 545 159 546
3 545 546 547
3 186 159 185
3 186 22 159
3 91 186 38
3 187 186 91
3 187 22 186
3 187 71 22
3 188 71 187
3 188 1 71
3 548 189 549
3 190 550 552
3 550 189 551
3 550 551 552
3 190 40 189
3 93 553 555
3 553 190 554
3 553 554 555
3 191 190 93
3 191 40 190
3 191 109 40
3 192 109 191
3 192 8 109
3 156 94 7
3 193 94 156
3 193 41 94
3 96 193 21
3 194 193 96
3 194 41 193
3 194 192 41
3 195 192 194
3 195 8 192
3 195 164 8
3 196 164 195
3 196 27 164
3 98 196 42
3 197 196 98
3 197 27 196
3 197 556 558
3 558 557 27
3 556 557 558
3 560 559 197
3 561 76 562
3 198 563 565
3 563 76 564
3 563 564 565
3 198 3 76
3 199 566 567
3 199 568 569
3 199 570 572
3 570 81 571
3 570 571 572
3 200 81 199
3 200 4 81
3 573 201 574
3 575 574 2
3 573 574 575
3 576 201 577
3 579 578 201
3 101 580 582
3 582 581 24
3 580 581 582
3 584 583 101
3 585 143 586
3 202 587 589
3 587 143 588
3 587 588 589
3 202 10 143
3 105 590 591
3 203 592 594
3 594 593 105
3 592 593 594
3 203 595 596
3 203 597 599
3 597 202 598
3 597 598 599
3 204 202 203
3 204 10 202
3 204 176 10
3 205 176 204
3 205 33 176
3 107 205 45
3 206 205 107
3 206 33 205
3 206 82 33
3 207 82 206
3 207 2 82
3 189 600 601
3 208 602 604
3 604 603 189
3 602 603 604
3 208 605 607
3 605 26 606
3 605 606 607
3 110 208 40
3 209 208 110
3 209 26 208
3 209 163 26
3 210 163 209
3 210 11 163
3 165 111 8
3 211 111 165
3 211 47 111
3 113 211 28
3 212 211 113
3 212 47 211
3 212 210 47
3 213 210 212
3 213 11 210
3 213 108 11
3 214 108 213
3 214 46 108
3 115 214 48
3 215 214 115
3 215 46 214
3 215 207 46
3 216 207 215
3 216 2 207
3 216 608 610
3 610 609 2
3 608 609 610
3 612 611 216
3 614 613 49
3 217 218 0
3 219 218 217
3 219 50 218
3 615 219 616
3 617 219 618
3 619 50 620
3 621 620 219
3 619 620 621
3 622 116 623
3 624 623 50
3 622 623 624
3 625 116 626
3 628 627 116
3 629 7 630
3 631 7 632
3 633 155 634
3 635 634 7
3 633 634 635
3 636 155 637
3 638 20 639
3 640 639 155
3 638 639 640
3 220 641 642
3 220 643 645
3 643 20 644
3 643 644 645
3 220 69 20
3 217 69 220
3 217 0 69
3 218 68 0
3 221 68 218
3 221 19 68
3 117 221 50
3 222 221 117
3 222 19 221
3 222 154 19
3 223 154 222
3 223 6 154
3 646 118 647
3 224 648 650
3 648 118 649
3 648 649 650
3 224 51 118
3 120 651 653
3 651 224 652
3 651 652 653
3 225 224 120
3 225 51 224
3 225 223 51
3 226 223 225
3 226 6 223
3 226 92 6
3 227 92 226
3 227 39 92
3 122 227 52
3 228 227 122
3 228 39 227
3 228 188 39
3 229 188 228
3 229 1 188
3 654 12 655
3 125 656 658
3 658 657 29
3 656 657 658
3 230 659 661
3 661 660 125
3 659 660 661
3 230 662 663
3 230 664 665
3 231 666 668
3 668 667 230
3 666 667 668
3 231 669 671
3 669 12 670
3 669 670 671
3 231 123 12
3 232 123 231
3 232 53 123
3 127 232 54
3 233 232 127
3 233 53 232
3 233 229 53
3 234 229 233
3 234 1 229
3 234 75 1
3 235 75 234
3 235 25 75
3 129 235 55
3 236 235 129
3 236 25 235
3 236 161 25
3 237 161 236
3 237 9 161
3 171 130 13
3 238 130 171
3 238 56 130
3 132 238 31
3 239 238 132
3 239 56 238
3 239 237 56
3 240 237 239
3 240 9 237
3 240 103 9
3 241 103 240
3 241 44 103
3 134 241 57
3 242 241 134
3 242 44 241
3 242 672 674
3 674 673 44
3 672 673 674
3 243 675 677
3 677 676 242
3 675 676 677
3 243 678 679
3 244 680 681
3 244 682 683
3 244 684 686
3 684 198 685
3 684 685 686
3 245 198 244
3 245 3 198
3 687 175 688
3 689 175 690
3 691 15 692
3 693 692 175
3 691 692 693
3 694 15 695
3 696 137 697
3 698 697 15
3 696 697 698
3 246 699 701
3 699 137 700
3 699 700 701
3 246 59 137
3 139 246 60
3 247 246 139
3 247 59 246
3 247 245 59
3 248 245 247
3 248 3 245
3 248 80 3
3 249 80 248
3 249 32 80
3 141 249 61
3 250 249 141
3 250 32 249
3 250 174 32
3 251 174 250
3 251 14 174
3 702 142 703
3 252 704 706
3 704 142 705
3 704 705 706
3 252 62 142
3 707 252 708
3 253 709 711
3 709 252 710
3 709 710 711
3 253 62 252
3 253 251 62
3 254 251 253
3 254 14 251
3 254 135 14
3 255 135 254
3 255 58 135
3 712 255 713
3 714 255 715
3 716 58 717
3 718 717 255
3 716 717 718
3 719 243 720
3 721 720 58
3 719 720 721
3 722 243 723
3 725 724 243
3 256 726 727
3 256 728 729
3 177 144 10
3 257 144 177
3 257 63 144
3 146 257 34
3 258 257 146
3 258 63 257
3 258 256 63
3 259 256 258
3 259 730 732
3 732 731 256
3 730 731 732
3 259 733 735
3 733 99 734
3 733 734 735
3 260 99 259
3 260 43 99
3 148 260 64
3 261 260 148
3 261 43 260
3 261 200 43
3 262 200 261
3 262 4 200
3 201 84 2
3 263 84 201
3 263 35 84
3 736 263 737
3 264 738 740
3 738 263 739
3 738 739 740
3 264 35 263
3 264 180 35
3 265 180 264
3 265 16 180
3 741 265 742
3 266 743 745
3 743 265 744
3 743 744 745
3 266 16 265
3 266 149 16
3 267 149 266
3 267 65 149
3 746 267 747
3 268 748 750
3 748 267 749
3 748 749 750
3 268 65 267
3 268 262 65
3 751 262 752
3 753 752 268
3 751 752 753
3 754 4 755
3 756 755 262
3 754 755 756
3 758 757 4
