ply
format ascii 1.0
element vertex 66
property float x
property float y
property float z
element face 47
property list uchar int vertex_index
end_header
35.042782 40.333519 20.745323
33.841343 36.391468 25.709501
33.820042 28.320108 27.048565
33.282059 34.660492 27.905951
33.833714 32.442276 26.45751
34.437191 38.247711 23.323044
34.493984 34.154076 24.136148
33.25107 32.542851 28.272686
32.99604 33.647112 29.048495
35.443076 38.820966 19.993024
35.364357 40.925471 19.495183
34.138129 29.136848 26.038022
34.144965 31.197931 25.742494
33.826878 30.381192 26.753037
34.123058 26.915717 26.367605
34.138129 29.136848 26.038022
33.526898 31.433743 27.548465
33.557886 33.551384 27.181731
33.25107 32.542851 28.272686
33.520061 29.372659 27.843992
33.826878 30.381192 26.753037
33.526898 31.433743 27.548465
34.803114 37.069775 22.50936
35.10591 38.112679 21.2205
34.739987 39.290615 22.034183
34.831511 35.022957 22.915912
34.803114 37.069775 22.50936
34.465587 36.200894 23.729596
34.824703 32.880605 23.447046
34.831511 35.022957 22.915912
34.475099 32.053832 24.581813
34.163849 33.298176 25.296829
34.144965 31.197931 25.742494
34.824703 32.880605 23.447046
34.475099 32.053832 24.581813
35.506203 36.600126 20.468201
35.443076 38.820966 19.993024
35.10591 38.112679 21.2205
33.474389 27.352601 28.137296
33.520061 29.372659 27.843992
33.766556 26.207372 27.373955
33.474389 27.352601 28.137296
34.123058 26.915717 26.367605
33.766556 26.207372 27.373955
34.985231 42.337038 20.204687
35.364357 40.925471 19.495183
35.306807 42.92899 18.954547
34.679176 41.41362 21.597844
34.985231 42.337038 20.204687
34.376381 40.370716 22.886705
34.739987 39.290615 22.034183
34.679176 41.41362 21.597844
34.092422 39.409835 24.1813
34.376381 40.370716 22.886705
33.794499 38.481714 25.374529
34.139267 37.31959 24.516272
34.092422 39.409835 24.1813
33.52963 37.608134 26.556405
33.794499 38.481714 25.374529
33.249989 36.742645 27.65463
33.561701 35.52598 26.807726
33.52963 37.608134 26.556405
33.002096 35.63929 28.810986
33.249989 36.742645 27.65463
32.99604 33.647112 29.048495
33.002096 35.63929 28.810986
3 8 7 3
3 0 9 10
3 1 6 5
3 2 11 13
3 13 12 4
3 11 12 13
3 2 14 15
3 3 4 1
3 16 4 17
3 18 17 3
3 16 17 18
3 19 2 20
3 21 20 4
3 19 20 21
3 5 22 24
3 24 23 0
3 22 23 24
3 6 25 27
3 27 26 5
3 25 26 27
3 6 28 29
3 4 6 1
3 30 6 31
3 32 31 4
3 30 31 32
3 34 33 6
3 37 36 0
3 35 36 37
3 38 2 39
3 40 2 41
3 43 42 2
3 44 0 45
3 44 45 46
3 47 0 48
3 49 5 50
3 51 50 0
3 49 50 51
3 52 5 53
3 54 1 55
3 56 55 5
3 54 55 56
3 57 1 58
3 59 3 60
3 61 60 1
3 59 60 61
3 62 3 63
3 65 64 3
