ply
format ascii 1.0
element vertex 573
property float x
property float y
property float z
element face 630
property list uchar int vertex_index
end_header
-30.25631 -47.579952 43.311703
-28.25598 -55.553238 55.227112
-19.871721 -72.490143 43.486786
-29.181307 -27.797338 39.302681
-30.183189 -55.922695 40.520325
-30.144936 -51.654709 48.997383
-28.787457 -61.92807 45.882385
-30.513762 -25.0196 31.954317
-18.33329 -64.591072 52.649193
-24.778221 -64.926498 50.720867
-29.609426 -39.194122 41.523518
-30.132353 -37.680279 33.467941
-30.362463 -51.368496 42.145111
-30.319075 -52.294109 38.163376
-30.267128 -47.834332 40.105358
-30.304245 -49.540039 45.868557
-30.224943 -54.232349 44.906944
-26.124605 -56.774708 57.711155
-24.176773 -61.063473 55.37038
-26.823698 -60.400921 53.27544
-28.794918 -64.116425 41.209087
-27.365702 -66.726562 43.638107
-29.314665 -33.885502 40.290981
-29.766075 -38.396061 37.520943
-29.611273 -32.627914 36.429089
-19.139317 -68.671478 48.209095
-16.403156 -71.796692 43.706959
-29.602507 -60.966717 38.415878
-30.020645 -57.241795 35.973682
-29.526615 -54.010189 52.084591
-28.646709 -58.853306 50.731953
-29.709036 -56.876617 47.733742
-29.717545 -59.292084 43.195126
-29.664133 -26.236601 35.603863
-20.553358 -76.095184 38.432064
-20.918686 -61.014118 56.472649
-21.784885 -65.093491 52.151749
-22.548067 -68.917809 47.400333
-27.156559 -63.751041 48.706894
-25.262922 -68.29998 45.836895
-30.046663 -44.9575 45.943802
-29.979677 -43.939426 42.580624
-29.674246 -40.41692 45.23476
-29.285299 -35.064003 44.325485
-27.688938 -51.830311 59.389771
-29.175537 -50.609451 56.305775
-29.925571 -48.785744 52.870377
-30.120882 -46.823128 49.367805
-30.0249 -43.461861 38.873859
-30.237602 -31.53974 32.532894
-30.333302 -49.242241 42.779156
-30.335917 -49.628315 41.022503
-30.263813 -47.717602 41.96595
-30.290636 -48.414486 44.395828
-30.353584 -50.44109 43.97818
-27.288166 -56.193085 56.624622
-26.545219 -58.556793 55.55291
-27.616199 -57.938702 54.39603
-29.219557 -30.974016 39.845196
-29.421467 -33.23727 38.381706
-29.379889 -30.247162 37.831554
-19.401293 -70.689301 45.778355
-17.724972 -70.412354 45.842007
-18.133938 -72.344025 43.540707
-29.952072 -58.386257 39.558891
-29.863108 -59.047108 37.250355
-30.12254 -56.531944 38.196186
-29.910723 -52.904644 50.494785
-29.6222 -55.525887 50.018375
-29.985214 -54.358036 48.40509
-30.217972 -55.188141 42.665703
-30.037193 -56.653946 44.107307
-29.993259 -57.745651 41.890869
-29.687147 -60.161186 40.777538
-20.803604 -77.702332 35.964352
-19.252731 -77.791847 36.286945
-22.194834 -59.059177 58.107178
-24.567312 -62.997822 53.08112
-23.091639 -63.20327 53.75592
-23.404781 -65.031052 51.598312
-22.101427 -67.112885 49.768055
-23.633835 -67.010666 49.138748
-28.776846 -60.339012 48.348656
-27.970818 -61.348274 49.785313
-28.066473 -62.87923 47.437378
-26.443089 -67.481247 44.938541
-24.192715 -70.396027 44.19281
-29.945307 -43.562263 47.48959
-29.874851 -42.810604 45.597618
-29.760921 -41.144623 47.220753
-27.310057 -49.840157 61.39904
-28.930758 -48.765701 58.385632
-29.455669 -47.982487 56.636444
-29.637136 -49.682877 54.6353
-29.792673 -46.987293 54.852161
-30.018545 -45.212341 51.202271
-30.000925 -44.342651 49.385609
-30.103762 -45.906937 47.612614
-29.797785 -41.680805 42.015568
-29.991016 -43.690304 40.715023
-29.820967 -41.305984 40.167805
-29.923029 -38.02906 35.498386
-29.995195 -40.760483 36.157059
-30.135374 -40.402721 34.07312
-30.061857 -25.877007 33.684944
-29.938995 -29.128216 34.099121
-30.358683 -28.479147 32.176743
-30.316832 -53.533024 41.33992
-30.280542 -54.096565 39.200172
-30.347885 -51.804626 40.182812
-30.329823 -50.065395 39.161098
-30.275316 -48.068306 38.295181
-30.262135 -50.659782 47.408707
-30.197443 -53.161434 46.964973
-30.317732 -51.869362 45.419331
-30.329931 -52.821808 43.505791
-24.794453 -56.90321 58.806187
-23.744041 -59.092552 57.502575
-25.197397 -58.93708 56.666378
-25.585764 -60.924973 54.336464
-25.841846 -62.853233 51.9678
-28.821056 -63.13007 43.41647
-28.136206 -64.297234 44.93417
-28.156054 -65.537857 42.47316
-29.451815 -36.653717 40.828156
-29.664007 -38.818283 39.543297
-29.524313 -36.100918 38.916233
-29.665274 -35.538692 36.943779
-29.883945 -35.287708 34.9655
-30.834949 -27.863527 30.327185
-18.69577 -66.618393 50.509529
-17.345589 -68.355492 48.184452
-29.916178 -57.568901 33.64603
-30.226477 -54.57914 37.030453
-30.150579 -55.067974 34.952785
-29.006241 -54.751705 53.699509
-28.440769 -57.326859 53.037678
-29.117754 -56.578499 51.477676
-29.259174 -57.942425 49.251369
-29.307812 -59.367317 46.984295
-30.034285 -55.562275 46.252338
-29.736725 -58.10981 45.527504
-29.330214 -60.617458 44.633774
-29.326223 -61.637291 42.292782
-29.251083 -62.645981 39.910995
-29.195717 -24.408371 38.864079
-29.367214 -27.179495 37.516987
-29.776751 -23.196823 35.176216
-20.115114 -74.396591 40.921841
-18.581909 -74.215431 41.189804
-18.82251 -76.142403 38.608135
-19.626495 -62.927509 54.574474
-22.618921 -61.291172 55.879368
-21.419052 -63.193371 54.246979
-20.135925 -64.838882 52.603619
-20.473244 -66.877083 50.339535
-20.800903 -68.962494 47.852615
-21.151836 -70.73114 45.584869
-27.806604 -59.768177 52.067539
-26.976286 -62.121475 51.094059
-26.101 -64.454834 49.716686
-27.282763 -65.26255 46.273514
-26.320345 -66.004326 47.342014
-25.065826 -66.659531 48.287601
-23.944139 -68.828072 46.601543
-22.756718 -70.644844 45.044254
-21.45846 -72.572342 43.068378
-21.713186 -74.34481 40.461906
-22.043541 -75.89325 37.946022
-22.264828 -77.383438 35.387093
-30.16828 -46.456112 44.445995
-30.143206 -45.989388 42.939182
-30.010063 -44.453358 44.260212
-29.816442 -42.147861 43.815514
-29.613148 -39.70005 43.401485
-29.465492 -37.780785 44.82074
-29.421541 -37.089523 42.888443
-29.266308 -34.365482 42.19775
-29.141117 -31.438042 41.786777
-29.069838 -28.397903 41.241211
-29.049969 -25.440962 40.823196
-26.967955 -54.327328 58.684059
-27.955404 -53.865364 57.338066
-28.231993 -49.121754 60.114025
-28.532822 -51.183609 57.984734
-28.78303 -53.027946 55.900856
-29.398132 -52.249535 54.184704
-29.795996 -51.412022 52.51289
-30.042192 -50.27224 51.01025
-29.955311 -46.242455 53.130249
-30.070663 -47.704647 51.15448
-30.171989 -49.212856 49.350105
-30.215942 -48.195698 47.668877
-30.201982 -47.217491 46.004543
-30.145416 -45.847256 41.237717
-30.165064 -45.818546 39.348103
-30.182003 -45.60516 37.489235
-29.88401 -40.981415 38.230385
-30.078224 -43.18602 36.90226
-29.617123 -29.3908 35.942303
-29.8722 -32.14727 34.566132
-30.141809 -34.53545 33.084301
-30.627699 -31.088079 30.71287
-30.470179 -34.114651 31.162432
-30.370674 -37.202377 31.58396
-16.741077 -73.852409 41.245571
-20.304532 -78.560802 34.886311
-21.007055 -78.437145 34.713807
-22.749761 -58.052133 58.809072
-21.977234 -57.903583 59.150312
-29.802309 -41.469797 48.213488
-29.853114 -42.353443 47.355171
-29.894502 -42.678617 48.347907
-27.153922 -48.774841 62.296366
-26.739947 -50.020128 62.012525
-29.551367 -46.618448 56.718206
-29.370719 -46.966475 57.624056
-29.71987 -46.120852 55.826065
-29.624171 -47.48489 55.744303
-29.551367 -46.618448 56.718206
-29.922311 -43.068811 49.295916
-29.954364 -43.431207 50.238152
-29.894502 -42.678617 48.347907
-29.973116 -43.952457 48.4376
-29.922311 -43.068811 49.295916
-30.22332 -38.956435 32.746824
-30.22483 -40.317656 33.049413
-30.133863 -39.0415 33.770531
-17.422918 -64.328213 52.648184
-18.15832 -63.526941 53.703483
-16.16623 -70.810959 44.808615
-16.827139 -70.11879 45.876139
-17.064064 -71.104523 44.774483
-15.462083 -71.542607 43.580559
-16.16623 -70.810959 44.808615
-29.553894 -61.242267 37.281771
-29.383147 -62.183728 37.930709
-29.867611 -58.523159 35.389972
-29.788843 -59.425815 36.028309
-29.941876 -58.144452 36.612018
-29.968411 -57.405348 34.809856
-29.815377 -58.686712 34.226146
-29.867611 -58.523159 35.389972
-30.187146 -53.959231 34.436889
-30.21576 -53.775923 35.493689
-30.104242 -55.174525 33.77347
-30.187146 -53.959231 34.436889
-29.383147 -62.183728 37.930709
-29.207436 -63.023359 38.678268
-29.426795 -61.806349 39.163437
-29.316397 -24.093076 37.932095
-29.234518 -22.838131 38.656098
-29.851682 -21.432023 35.057663
-29.661324 -21.758404 35.945743
-30.056849 -20.960329 34.23362
-29.981918 -22.725129 34.352173
-29.851682 -21.432023 35.057663
-18.390175 -77.763363 36.299732
-18.659937 -78.66816 35.071854
-20.028561 -60.846907 56.596907
-20.723374 -59.931207 57.483803
-20.27259 -61.970814 55.523561
-19.382465 -61.803602 55.647819
-20.028561 -60.846907 56.596907
-22.819896 -71.536045 43.764247
-23.474716 -70.520436 44.618532
-23.537895 -71.411637 43.338526
-22.170767 -72.499794 42.776309
-22.107589 -71.608593 44.056316
-22.819896 -71.536045 43.764247
-22.29813 -73.386028 41.473073
-21.585823 -73.458576 41.765142
-22.170767 -72.499794 42.776309
-22.697918 -75.642849 37.668747
-22.617708 -74.886101 38.989668
-22.808562 -76.387943 36.389283
-22.154184 -76.638344 36.666557
-22.697918 -75.642849 37.668747
-29.375395 -36.422394 44.573113
-29.416494 -36.81245 45.566439
-29.326397 -35.454059 45.318811
-29.094083 -30.325004 42.524511
-29.1449 -31.872957 42.810098
-29.058444 -28.804935 42.251728
-29.105477 -29.917972 41.513994
-29.094083 -30.325004 42.524511
-29.032412 -24.128814 41.577051
-29.024315 -25.654515 41.844893
-29.070694 -23.713121 40.605114
-29.032412 -24.128814 41.577051
-27.328446 -53.07882 59.036915
-26.811969 -53.267537 59.69072
-27.17246 -52.019028 60.043576
-28.488757 -47.909687 60.177679
-28.102788 -48.163504 60.989977
-29.943677 -44.92997 53.063744
-29.90564 -45.287591 54.02161
-30.123059 -43.131701 35.846021
-30.03671 -41.973252 36.529659
-30.081544 -41.918932 35.473421
-30.149287 -44.397785 36.236452
-30.123059 -43.131701 35.846021
-30.846308 -30.975278 29.785982
-30.731324 -29.475803 30.520027
-30.949933 -29.363002 29.59314
-30.572486 -35.493672 30.362687
-30.658904 -33.931942 30.202528
-30.522734 -37.037534 30.573452
-30.420427 -35.658514 31.373196
-30.572486 -35.493672 30.362687
-30.442416 -38.51223 30.880254
-30.522734 -37.037534 30.573452
-16.913226 -74.820904 40.038145
-17.661493 -74.03392 41.217687
-17.833642 -75.002415 40.010261
-28.472639 -65.333413 40.61819
-28.752273 -64.6138 40.001371
-30.300008 -52.38899 37.098984
-30.316896 -51.253236 37.69982
-19.529096 -78.60556 35.047607
-20.028168 -77.74709 36.125648
-20.304532 -78.560802 34.886311
-18.659937 -78.66816 35.071854
-19.529096 -78.60556 35.047607
-21.361448 -58.953737 58.301068
-21.977234 -57.903583 59.150312
-21.55676 -60.036648 57.289913
-20.723374 -59.931207 57.483803
-21.361448 -58.953737 58.301068
-26.490497 -68.208103 43.611641
-26.904395 -67.103904 44.288324
-26.951803 -67.83076 42.961423
-25.966254 -68.624504 44.111204
-26.490497 -68.208103 43.611641
-25.376171 -69.033871 44.560381
-25.853006 -67.890614 45.387718
-25.966254 -68.624504 44.111204
-24.841068 -70.081894 43.738338
-24.727818 -69.348004 45.014853
-25.376171 -69.033871 44.560381
-24.241917 -71.148118 43.002468
-24.841068 -70.081894 43.738338
-23.537895 -71.411637 43.338526
-24.241917 -71.148118 43.002468
-29.250101 -34.014011 45.130171
-29.326397 -35.454059 45.318811
-29.216991 -33.685938 44.079453
-29.250101 -34.014011 45.130171
-26.98302 -51.023951 61.04821
-26.739947 -50.020128 62.012525
-27.499498 -50.835234 60.394406
-27.17246 -52.019028 60.043576
-26.98302 -51.023951 61.04821
-29.108264 -47.358081 58.49865
-28.838139 -47.731661 59.313482
-29.193213 -48.374094 57.511038
-29.108264 -47.358081 58.49865
-29.370719 -46.966475 57.624056
-29.963175 -43.866053 51.146483
-29.975294 -44.414913 52.099755
-30.009735 -44.777496 50.29394
-29.963175 -43.866053 51.146483
-29.954364 -43.431207 50.238152
-30.151634 -41.740051 34.431452
-30.081544 -41.918932 35.473421
-30.065284 -40.581602 35.115089
-30.204082 -41.566431 33.426441
-30.151634 -41.740051 34.431452
-30.204082 -41.566431 33.426441
-30.22483 -40.317656 33.049413
-30.32227 -50.13888 38.198681
-30.316896 -51.253236 37.69982
-30.324449 -51.179752 38.662237
-30.295016 -49.140335 37.765722
-30.32227 -50.13888 38.198681
-30.30257 -49.066851 38.728139
-30.275737 -48.031053 37.291527
-30.295016 -49.140335 37.765722
-24.269247 -57.997881 58.154381
-23.524364 -58.068821 58.506771
-24.049571 -56.97415 59.158577
-28.153207 -66.044128 41.250227
-28.475486 -64.827141 41.841123
-28.472639 -65.333413 40.61819
-27.786108 -66.729301 41.783459
-28.153207 -66.044128 41.250227
-27.390932 -67.323654 42.365932
-27.760878 -66.13221 43.055633
-27.786108 -66.729301 41.783459
-26.951803 -67.83076 42.961423
-27.390932 -67.323654 42.365932
-30.954399 -26.183109 30.190124
-30.674356 -26.441564 31.140751
-30.793805 -24.761145 31.00369
-31.086518 -27.768574 29.416156
-30.954399 -26.183109 30.190124
-30.949933 -29.363002 29.59314
-31.086518 -27.768574 29.416156
-17.816935 -66.34938 50.572647
-17.635696 -65.33572 51.642479
-18.51453 -65.604732 51.579361
-17.141845 -67.21793 49.410108
-17.816935 -66.34938 50.572647
-18.020679 -67.486942 49.346991
-16.4492 -67.981811 48.261397
-17.141845 -67.21793 49.410108
-16.637447 -69.090359 47.047362
-17.53528 -69.383923 47.01323
-16.827139 -70.11879 45.876139
-16.4492 -67.981811 48.261397
-16.637447 -69.090359 47.047362
-29.684194 -60.282463 36.699009
-29.553894 -61.242267 37.281771
-29.732807 -60.006912 37.833117
-29.684194 -60.282463 36.699009
-29.788843 -59.425815 36.028309
-29.746986 -58.881859 33.045496
-29.815377 -58.686712 34.226146
-29.845329 -57.781025 32.480622
-29.746986 -58.881859 33.045496
-30.253709 -53.531506 36.532522
-30.272776 -53.436625 37.596914
-30.300008 -52.38899 37.098984
-30.188528 -54.823557 35.991619
-30.253709 -53.531506 36.532522
-30.21576 -53.775923 35.493689
-29.987042 -56.424988 33.120092
-30.033378 -56.318438 34.299408
-30.104242 -55.174525 33.77347
-29.845329 -57.781025 32.480622
-29.987042 -56.424988 33.120092
-28.980355 -63.878579 39.352325
-28.752273 -64.6138 40.001371
-29.023001 -63.381203 40.560041
-28.980355 -63.878579 39.352325
-29.207436 -63.023359 38.678268
-29.402145 -25.478638 37.258549
-29.281465 -25.793933 38.190533
-29.316397 -24.093076 37.932095
-29.550605 -25.007191 36.301987
-29.515673 -26.708048 36.560425
-29.402145 -25.478638 37.258549
-29.606914 -23.487302 36.088163
-29.661324 -21.758404 35.945743
-29.720442 -24.716712 35.39004
-29.550605 -25.007191 36.301987
-29.606914 -23.487302 36.088163
-30.124471 -24.065221 33.606537
-29.919304 -24.536915 34.43058
-29.981918 -22.725129 34.352173
-30.350423 -23.636518 32.741223
-30.28781 -25.448304 32.819631
-30.124471 -24.065221 33.606537
-30.612032 -23.307361 31.853451
-30.350423 -23.636518 32.741223
-30.793805 -24.761145 31.00369
-30.612032 -23.307361 31.853451
-17.953943 -75.965901 38.719427
-17.833642 -75.002415 40.010261
-18.70221 -75.178917 39.898969
-18.175065 -76.938641 37.460327
-19.037621 -76.967125 37.44754
-18.390175 -77.763363 36.299732
-17.953943 -75.965901 38.719427
-18.175065 -76.938641 37.460327
-18.804922 -62.69516 54.666124
-19.382465 -61.803602 55.647819
-18.979892 -63.75929 53.611834
-18.15832 -63.526941 53.703483
-18.804922 -62.69516 54.666124
-22.969437 -59.075864 57.804876
-22.749761 -58.052133 58.809072
-23.524364 -58.068821 58.506771
-22.45253 -74.111881 40.24761
-22.29813 -73.386028 41.473073
-21.878363 -75.11903 39.203964
-22.45253 -74.111881 40.24761
-22.617708 -74.886101 38.989668
-21.737667 -78.277698 34.425177
-21.007055 -78.437145 34.713807
-21.534216 -77.542885 35.675722
-22.936608 -76.982608 35.153361
-22.808562 -76.387943 36.389283
-22.484229 -77.94849 34.176484
-22.936608 -76.982608 35.153361
-21.737667 -78.277698 34.425177
-22.484229 -77.94849 34.176484
-29.714283 -40.20932 47.968867
-29.802309 -41.469797 48.213488
-29.659082 -39.845135 46.993252
-29.714283 -40.20932 47.968867
-29.615744 -39.481284 46.000256
-29.717583 -40.780772 46.227756
-29.659082 -39.845135 46.993252
-29.511367 -38.163216 45.793245
-29.416494 -36.81245 45.566439
-29.569869 -39.098852 45.02775
-29.615744 -39.481284 46.000256
-29.511367 -38.163216 45.793245
-29.207495 -33.336678 43.015585
-29.275803 -34.714742 43.261617
-29.216991 -33.685938 44.079453
-29.203713 -32.901762 41.992263
-29.207495 -33.336678 43.015585
-29.1449 -31.872957 42.810098
-29.03425 -27.132986 42.0539
-29.058444 -28.804935 42.251728
-29.059904 -26.919432 41.032204
-29.03425 -27.132986 42.0539
-29.024315 -25.654515 41.844893
-29.143568 -23.196826 39.625555
-29.122843 -24.924667 39.843637
-29.070694 -23.713121 40.605114
-29.182369 -21.626586 39.417574
-29.234518 -22.838131 38.656098
-29.143568 -23.196826 39.625555
-24.601017 -55.879442 59.768219
-24.049571 -56.97415 59.158577
-25.296596 -55.780901 59.303297
-24.601017 -55.879442 59.768219
-25.961672 -55.71665 58.755781
-25.459529 -56.838959 58.258671
-25.296596 -55.780901 59.303297
-26.383347 -54.49296 59.242233
-26.811969 -53.267537 59.69072
-26.54628 -55.551018 58.197607
-25.961672 -55.71665 58.755781
-26.383347 -54.49296 59.242233
-27.64182 -48.522706 61.632485
-27.153922 -48.774841 62.296366
-27.771025 -49.480956 60.756532
-27.64182 -48.522706 61.632485
-28.102788 -48.163504 60.989977
-28.581376 -48.943728 59.249828
-28.488757 -47.909687 60.177679
-28.838139 -47.731661 59.313482
-29.824321 -45.66001 54.882566
-29.71987 -46.120852 55.826065
-29.873992 -46.614874 53.991205
-29.824321 -45.66001 54.882566
-29.90564 -45.287591 54.02161
-29.986928 -45.727398 52.16626
-29.943677 -44.92997 53.063744
-29.975294 -44.414913 52.099755
-30.229081 -46.799481 36.888554
-30.275737 -48.031053 37.291527
-30.228659 -46.836733 37.892208
-30.201177 -45.607355 36.529939
-30.130114 -44.39559 37.195747
-30.149287 -44.397785 36.236452
-30.229081 -46.799481 36.888554
-30.201177 -45.607355 36.529939
-30.737664 -32.418656 29.977747
-30.846308 -30.975278 29.785982
-30.548939 -32.601365 30.937651
-30.737664 -32.418656 29.977747
-30.658904 -33.931942 30.202528
-30.342481 -38.717484 31.804834
-30.22332 -38.956435 32.746824
-30.251514 -37.441328 32.525951
-30.342481 -38.717484 31.804834
-30.442416 -38.51223 30.880254
-17.422918 -64.328213 52.648184
-17.635696 -65.33572 51.642479
-16.074449 -74.678806 39.928927
-16.913226 -74.820904 40.038145
-15.854802 -73.59161 41.206588
-16.074449 -74.678806 39.928927
-15.685841 -72.563751 42.437282
-16.572116 -72.82455 42.476265
-15.854802 -73.59161 41.206588
-15.462083 -71.542607 43.580559
-15.685841 -72.563751 42.437282
3 0 52 50
3 0 50 53
3 1 57 55
3 3 60 58
3 2 63 61
3 4 66 64
3 5 69 67
3 4 72 70
3 4 64 72
3 207 206 74
3 208 76 209
3 9 79 77
3 9 81 79
3 6 84 82
3 210 89 211
3 212 211 87
3 210 211 212
3 213 90 214
3 215 92 216
3 217 94 218
3 219 218 92
3 217 218 219
3 220 96 221
3 222 87 223
3 224 223 96
3 222 223 224
3 10 100 98
3 11 103 101
3 11 225 227
3 227 226 103
3 225 226 227
3 7 106 104
3 8 228 229
3 12 109 107
3 14 110 51
3 14 111 110
3 15 114 112
3 12 115 54
3 12 107 115
3 17 118 116
3 19 119 56
3 19 120 119
3 20 123 121
3 22 126 124
3 24 127 59
3 24 128 127
3 25 131 130
3 26 230 232
3 232 231 62
3 230 231 232
3 26 233 234
3 27 235 236
3 28 237 239
3 239 238 65
3 237 238 239
3 28 240 242
3 240 132 241
3 240 241 242
3 13 133 108
3 243 134 244
3 246 245 134
3 29 137 135
3 31 138 68
3 31 139 138
3 16 140 113
3 32 141 71
3 32 142 141
3 32 143 142
3 27 144 73
3 27 247 249
3 249 248 144
3 247 248 249
3 251 250 145
3 252 147 253
3 256 255 147
3 254 255 256
3 34 150 148
3 258 257 75
3 35 259 260
3 35 261 263
3 261 151 262
3 261 262 263
3 18 152 117
3 36 153 78
3 36 154 153
3 36 155 154
3 37 156 80
3 37 157 156
3 30 158 136
3 38 159 83
3 38 160 159
3 21 161 122
3 39 162 85
3 39 163 162
3 39 164 163
3 264 165 265
3 266 265 86
3 264 265 266
3 267 166 268
3 269 268 165
3 267 268 269
3 270 167 271
3 272 271 166
3 270 271 272
3 273 168 274
3 275 169 276
3 277 276 168
3 275 276 277
3 40 172 170
3 42 173 88
3 42 174 173
3 43 278 280
3 278 175 279
3 278 279 280
3 43 176 175
3 43 177 176
3 281 178 282
3 283 179 284
3 285 284 178
3 283 284 285
3 286 180 287
3 289 288 180
3 44 290 292
3 290 181 291
3 290 291 292
3 44 182 181
3 293 183 294
3 45 184 91
3 45 185 184
3 45 186 185
3 46 187 93
3 46 188 187
3 295 189 296
3 47 190 95
3 47 191 190
3 47 192 191
3 40 193 97
3 40 170 193
3 41 194 171
3 48 195 99
3 48 196 195
3 23 197 125
3 297 198 298
3 299 298 102
3 297 298 299
3 301 300 198
3 33 199 146
3 49 200 105
3 49 201 200
3 302 202 303
3 304 303 129
3 302 303 304
3 305 203 306
3 307 204 308
3 309 308 203
3 307 308 309
3 311 310 204
3 312 205 313
3 314 313 149
3 312 313 314
3 50 51 12
3 52 51 50
3 52 14 51
3 53 54 15
3 50 54 53
3 50 12 54
3 55 56 17
3 57 56 55
3 57 19 56
3 316 315 20
3 58 59 22
3 60 59 58
3 60 24 59
3 61 62 25
3 63 62 61
3 63 26 62
3 64 65 27
3 66 65 64
3 66 28 65
3 318 317 13
3 67 68 29
3 69 68 67
3 69 31 68
3 70 71 16
3 72 71 70
3 72 32 71
3 72 73 32
3 64 73 72
3 64 27 73
3 74 75 34
3 319 75 320
3 321 320 74
3 319 320 321
3 323 322 75
3 76 324 325
3 76 326 328
3 326 35 327
3 326 327 328
3 77 78 18
3 79 78 77
3 79 36 78
3 79 80 36
3 81 80 79
3 81 37 80
3 82 83 30
3 84 83 82
3 84 38 83
3 329 85 330
3 331 330 21
3 329 330 331
3 332 85 333
3 334 39 335
3 336 335 85
3 334 335 336
3 337 86 338
3 339 338 39
3 337 338 339
3 340 86 341
3 343 342 86
3 87 88 40
3 89 88 87
3 89 42 88
3 344 43 345
3 347 346 43
3 90 348 349
3 90 350 352
3 350 44 351
3 350 351 352
3 353 91 354
3 92 355 357
3 355 91 356
3 355 356 357
3 92 45 91
3 92 93 45
3 94 93 92
3 94 46 93
3 358 95 359
3 96 360 362
3 360 95 361
3 360 361 362
3 96 47 95
3 96 97 47
3 87 97 96
3 87 40 97
3 98 99 41
3 100 99 98
3 100 48 99
3 101 102 23
3 103 102 101
3 103 363 365
3 365 364 102
3 363 364 365
3 103 366 367
3 369 368 103
3 104 105 33
3 106 105 104
3 106 49 105
3 107 108 4
3 109 108 107
3 109 13 108
3 51 109 12
3 110 109 51
3 110 13 109
3 110 370 372
3 372 371 13
3 370 371 372
3 111 373 375
3 375 374 110
3 373 374 375
3 111 376 377
3 112 113 5
3 114 113 112
3 114 16 113
3 54 114 15
3 115 114 54
3 115 16 114
3 115 70 16
3 107 70 115
3 107 4 70
3 116 378 380
3 378 117 379
3 378 379 380
3 118 117 116
3 118 18 117
3 56 118 17
3 119 118 56
3 119 18 118
3 119 77 18
3 120 77 119
3 120 9 77
3 121 122 6
3 123 122 121
3 123 21 122
3 381 123 382
3 383 382 20
3 381 382 383
3 384 123 385
3 386 21 387
3 388 387 123
3 386 387 388
3 390 389 21
3 124 125 10
3 126 125 124
3 126 23 125
3 59 126 22
3 127 126 59
3 127 23 126
3 127 101 23
3 128 101 127
3 128 11 101
3 391 129 392
3 393 392 7
3 391 392 393
3 394 129 395
3 397 396 129
3 130 398 400
3 400 399 8
3 398 399 400
3 131 401 403
3 403 402 130
3 401 402 403
3 131 404 405
3 62 131 25
3 406 131 407
3 408 407 62
3 406 407 408
3 410 409 131
3 65 411 413
3 413 412 27
3 411 412 413
3 415 414 65
3 132 416 417
3 132 418 419
3 108 66 4
3 133 66 108
3 133 28 66
3 420 133 421
3 422 421 13
3 420 421 422
3 134 423 425
3 423 133 424
3 423 424 425
3 134 28 133
3 134 132 28
3 426 132 427
3 428 427 134
3 426 427 428
3 430 429 132
3 135 136 1
3 137 136 135
3 137 30 136
3 68 137 29
3 138 137 68
3 138 30 137
3 138 82 30
3 139 82 138
3 139 6 82
3 113 69 5
3 140 69 113
3 140 31 69
3 71 140 16
3 141 140 71
3 141 31 140
3 141 139 31
3 142 139 141
3 142 6 139
3 142 121 6
3 143 121 142
3 143 20 121
3 73 143 32
3 144 143 73
3 144 20 143
3 144 431 433
3 433 432 20
3 431 432 433
3 435 434 144
3 145 146 3
3 436 146 437
3 438 437 145
3 436 437 438
3 439 33 440
3 441 440 146
3 439 440 441
3 147 442 443
3 147 444 446
3 444 33 445
3 444 445 446
3 147 104 33
3 447 104 448
3 449 448 147
3 447 448 449
3 450 7 451
3 452 451 104
3 450 451 452
3 453 7 454
3 456 455 7
3 148 149 2
3 150 149 148
3 150 457 459
3 459 458 149
3 457 458 459
3 75 150 34
3 460 150 461
3 462 461 75
3 460 461 462
3 464 463 150
3 151 465 466
3 151 467 469
3 467 8 468
3 467 468 469
3 117 470 472
3 470 76 471
3 470 471 472
3 152 76 117
3 152 35 76
3 78 152 18
3 153 152 78
3 153 35 152
3 153 151 35
3 154 151 153
3 154 8 151
3 154 130 8
3 155 130 154
3 155 25 130
3 80 155 36
3 156 155 80
3 156 25 155
3 156 61 25
3 157 61 156
3 157 2 61
3 136 57 1
3 158 57 136
3 158 19 57
3 83 158 30
3 159 158 83
3 159 19 158
3 159 120 19
3 160 120 159
3 160 9 120
3 122 84 6
3 161 84 122
3 161 38 84
3 85 161 21
3 162 161 85
3 162 38 161
3 162 160 38
3 163 160 162
3 163 9 160
3 163 81 9
3 164 81 163
3 164 37 81
3 86 164 39
3 165 164 86
3 165 37 164
3 165 157 37
3 166 157 165
3 166 2 157
3 166 148 2
3 167 148 166
3 167 34 148
3 473 167 474
3 168 475 477
3 475 167 476
3 475 476 477
3 168 34 167
3 168 74 34
3 169 74 168
3 169 478 480
3 480 479 74
3 478 479 480
3 481 169 482
3 483 169 484
3 486 485 169
3 170 171 0
3 172 171 170
3 172 41 171
3 88 172 40
3 173 172 88
3 173 41 172
3 173 98 41
3 174 98 173
3 174 10 98
3 487 89 488
3 489 89 490
3 491 42 492
3 493 492 89
3 491 492 493
3 175 494 495
3 175 496 498
3 496 42 497
3 496 497 498
3 175 174 42
3 176 174 175
3 176 10 174
3 176 124 10
3 177 124 176
3 177 22 124
3 499 177 500
3 501 500 43
3 499 500 501
3 178 502 504
3 502 177 503
3 502 503 504
3 178 22 177
3 178 58 22
3 179 58 178
3 179 3 58
3 505 179 506
3 180 507 509
3 507 179 508
3 507 508 509
3 180 3 179
3 180 145 3
3 510 145 511
3 512 511 180
3 510 511 512
3 515 514 145
3 513 514 515
3 516 116 517
3 518 116 519
3 520 17 521
3 522 521 116
3 520 521 522
3 181 523 524
3 181 525 527
3 525 17 526
3 525 526 527
3 181 55 17
3 182 55 181
3 182 1 55
3 528 90 529
3 183 530 532
3 530 90 531
3 530 531 532
3 183 44 90
3 91 533 535
3 533 183 534
3 533 534 535
3 184 183 91
3 184 44 183
3 184 182 44
3 185 182 184
3 185 1 182
3 185 135 1
3 186 135 185
3 186 29 135
3 93 186 45
3 187 186 93
3 187 29 186
3 187 67 29
3 188 67 187
3 188 5 67
3 536 94 537
3 189 538 540
3 538 94 539
3 538 539 540
3 189 46 94
3 95 541 543
3 541 189 542
3 541 542 543
3 190 189 95
3 190 46 189
3 190 188 46
3 191 188 190
3 191 5 188
3 191 112 5
3 192 112 191
3 192 15 112
3 97 192 47
3 193 192 97
3 193 15 192
3 193 53 15
3 170 53 193
3 170 0 53
3 171 52 0
3 194 52 171
3 194 14 52
3 99 194 41
3 195 194 99
3 195 14 194
3 195 111 14
3 196 111 195
3 196 544 546
3 546 545 111
3 544 545 546
3 125 100 10
3 197 100 125
3 197 48 100
3 102 197 23
3 198 197 102
3 198 48 197
3 198 196 48
3 547 196 548
3 549 548 198
3 547 548 549
3 551 550 196
3 146 60 3
3 199 60 146
3 199 24 60
3 105 199 33
3 200 199 105
3 200 24 199
3 200 128 24
3 201 128 200
3 201 11 128
3 129 106 7
3 202 106 129
3 202 49 106
3 552 202 553
3 203 554 556
3 554 202 555
3 554 555 556
3 203 49 202
3 203 201 49
3 204 201 203
3 204 11 201
3 204 557 559
3 559 558 11
3 557 558 559
3 561 560 204
3 563 562 8
3 149 63 2
3 205 63 149
3 205 26 63
3 564 205 565
3 566 205 567
3 568 26 569
3 570 569 205
3 568 569 570
3 572 571 26
