ply
format ascii 1.0
element vertex 379
property float x
property float y
property float z
element face 395
property list uchar int vertex_index
end_header
2.772925 53.295296 40.94252
15.545517 49.600792 29.705029
14.445807 75.427315 9.96898
4.639659 63.473644 33.201981
11.13856 60.794109 27.928234
9.640492 51.981979 36.104591
8.013113 41.775982 43.099159
12.715467 68.488533 19.161516
14.580656 40.85466 37.192436
3.585368 58.496078 37.335484
7.248049 57.525135 34.905457
6.282763 52.775482 38.682827
13.288664 55.283989 28.989338
13.818754 59.17453 24.915638
15.866565 53.824894 25.49358
11.28931 41.332458 40.54697
8.972822 66.391785 26.423014
7.969782 62.232349 30.847391
10.345449 56.417439 32.306252
12.647458 50.984779 33.203598
5.356935 47.466351 42.240967
13.65187 72.085953 14.476553
15.388117 66.703796 15.835566
11.901978 64.852631 23.516342
14.640801 62.874943 20.349319
8.900389 47.05732 39.706284
12.049823 46.320259 37.007191
15.046732 45.4566 33.668957
1.328945 56.392353 40.174896
1.814823 59.050095 38.275482
3.173221 55.901985 39.194542
4.986129 55.704956 37.978622
4.620506 53.005905 39.817142
14.377128 52.338749 29.535007
14.651973 54.405891 27.349312
15.72296 51.636135 27.663019
16.948404 50.991817 25.735163
16.830929 48.95187 27.795416
15.43375 72.796593 10.627869
5.047449 65.884651 31.082947
6.808168 65.169563 29.882969
6.423561 62.848652 32.007828
8.442872 54.737892 35.561707
8.884858 56.978691 33.606014
10.026667 54.071087 34.319233
11.446793 53.790157 32.794846
11.224832 51.502258 34.657021
11.809834 71.334511 18.1448
12.247072 73.091507 15.875098
13.202243 70.38752 16.723618
14.568734 69.374229 15.192149
14.044523 67.697006 17.528881
9.984353 63.749069 27.213377
10.465732 65.714195 24.971588
11.448722 62.919182 25.77997
15.14249 58.24839 23.187777
14.201027 61.118164 22.612343
15.511042 60.143635 20.872066
15.845042 62.066593 18.630064
6.761874 44.509434 42.714851
7.116526 47.248554 41.067535
8.363266 44.504532 41.498569
12.887854 41.260262 38.961357
11.678641 43.82394 38.848984
13.273825 43.508499 37.268364
13.547051 45.922371 35.448135
14.763262 43.361774 35.457031
17.675871 42.362255 31.547384
13.783451 79.510582 6.740267
13.508827 77.908142 9.069861
2.404748 61.529709 36.296314
4.088666 61.086746 35.288773
5.864047 60.633701 34.092121
5.433973 58.130749 36.117096
6.821411 55.186333 36.79314
8.058584 52.14901 37.539295
11.334292 69.536621 20.459448
12.161753 57.876724 28.707989
12.496318 59.90617 26.566629
13.55574 57.181293 27.015272
14.791891 56.509033 25.329725
16.125931 55.577118 23.445669
9.20853 38.912663 43.482811
9.620565 41.62191 41.893131
10.87817 38.855186 42.114273
8.536771 64.179085 28.712107
9.59185 61.50301 29.469809
7.558249 59.827915 33.026428
9.132602 59.296848 31.68132
10.640636 58.76812 30.187794
11.843157 55.789501 30.786556
13.041798 53.041462 31.122534
14.193273 50.222996 31.49765
2.277631 50.476902 42.741653
4.059948 50.45644 41.592628
3.619395 47.627762 43.309082
13.191929 76.185516 11.402054
12.743223 74.689827 13.593894
14.140377 73.564171 12.293097
15.070229 70.964607 12.928622
15.865228 68.421341 13.538893
10.826189 67.695328 22.803965
12.305777 66.623505 21.403866
12.851006 61.875103 24.38674
13.277419 63.751167 22.126251
13.72681 65.593605 19.827503
15.017192 64.788162 18.085503
5.78974 49.952286 40.635483
7.554616 49.82338 39.324047
9.30605 49.549759 37.92207
10.037165 44.112137 40.273758
10.529931 46.587906 38.451008
10.876238 49.154583 36.56461
12.429284 48.637321 35.095684
13.955415 48.126827 33.401493
15.308945 47.526524 31.754154
15.969618 40.533665 35.502396
16.2272 42.787987 33.67741
16.390676 44.97414 31.861778
16.600927 46.984833 29.912432
2.050935 54.843824 40.558708
1.134423 54.92106 41.110515
1.856413 53.372532 41.494327
15.111877 74.977002 9.151692
14.614706 76.245224 8.808497
14.939778 74.111954 10.298424
15.605848 73.661641 9.481136
15.111877 74.977002 9.151692
3.948087 65.007448 32.689757
3.726745 63.794004 33.7314
4.843554 64.679147 32.142464
4.151982 66.212952 31.63024
3.948087 65.007448 32.689757
15.958132 58.820643 21.044113
15.326766 59.196013 22.029922
15.773856 57.87302 22.201968
16.082549 59.78991 19.972382
15.958132 58.820643 21.044113
13.162769 79.784996 7.521907
13.251533 80.553947 6.405954
13.025457 78.983776 8.686704
13.646139 78.709362 7.905064
13.162769 79.784996 7.521907
10.621014 69.969479 21.114359
10.884556 70.836807 19.962705
16.49158 53.298765 24.632358
16.621263 54.174877 23.608402
15.996248 54.701006 24.469625
17.580359 50.603111 24.685444
17.511385 49.69239 25.693722
10.672679 37.544243 42.866867
10.04335 38.883925 42.798542
9.837859 37.572981 43.551136
2.017075 49.114485 43.566992
1.327988 50.647697 43.241505
2.687956 47.689915 43.850706
2.948513 49.052332 43.025368
2.017075 49.114485 43.566992
12.519453 76.675376 11.98207
12.686282 77.461151 10.895405
16.04258 66.138183 14.981197
16.281136 66.996956 13.83286
15.626672 67.562568 14.68723
9.15129 67.478546 25.288185
8.385793 67.781075 25.983409
16.045623 62.96607 17.504816
16.437612 61.578055 17.780498
16.683507 40.371206 34.507216
16.598869 39.198948 35.365032
17.312758 39.03649 34.369852
16.812298 41.498368 33.594723
16.098409 41.660826 34.589903
16.683507 40.371206 34.507216
17.06604 44.699028 30.846813
17.033273 43.668197 31.704581
17.708638 43.393085 30.689616
17.171166 45.704375 29.87214
16.495801 45.979487 30.887105
17.06604 44.699028 30.846813
17.24189 46.735771 28.853981
17.171166 45.704375 29.87214
0.482921 56.374128 40.7372
1.134423 54.92106 41.110515
0.686418 57.885885 39.735681
0.482921 56.374128 40.7372
1.571884 57.721224 39.225189
0.929357 59.214756 38.785974
0.686418 57.885885 39.735681
17.452648 48.672416 26.723848
17.511385 49.69239 25.693722
16.889667 49.971843 26.76529
16.076833 72.358918 9.75942
15.605848 73.661641 9.481136
15.902443 71.429294 10.912634
16.076833 72.358918 9.75942
4.4188 67.344547 30.533191
3.523333 67.672848 31.080483
4.151982 66.212952 31.63024
5.33148 67.00362 29.935997
4.4188 67.344547 30.533191
5.927809 65.527107 30.482958
6.21184 66.646076 29.336008
5.33148 67.00362 29.935997
12.028453 72.213009 17.009949
11.565949 73.50383 16.521556
11.34733 72.625332 17.656408
16.24955 60.751388 18.851381
15.678042 61.105114 19.751065
16.082549 59.78991 19.972382
16.437612 61.578055 17.780498
16.24955 60.751388 18.851381
18.269199 41.023184 31.437016
17.536634 41.285501 32.529709
18.287306 42.164978 30.539546
18.269199 41.023184 31.437016
17.708638 43.393085 30.689616
18.287306 42.164978 30.539546
13.889989 80.244866 5.595808
13.358071 81.288231 5.261496
13.251533 80.553947 6.405954
14.418293 79.062153 6.040605
13.889989 80.244866 5.595808
14.283528 78.286857 7.19414
14.418293 79.062153 6.040605
14.146216 77.485637 8.358937
14.283528 78.286857 7.19414
13.646139 78.709362 7.905064
13.977317 76.667728 9.51942
14.614706 76.245224 8.808497
14.146216 77.485637 8.358937
1.199511 60.502905 37.809679
0.929357 59.214756 38.785974
1.494474 61.742712 36.820095
1.199511 60.502905 37.809679
2.109786 60.289902 37.285898
1.691275 63.08421 35.799799
1.494474 61.742712 36.820095
2.60929 62.822037 35.278566
1.691275 63.08421 35.799799
3.451249 62.600555 34.774795
2.60929 62.822037 35.278566
3.246707 61.308228 35.792544
4.364162 62.280195 34.245377
3.726745 63.794004 33.7314
3.451249 62.600555 34.774795
11.122327 71.735752 18.80538
11.34733 72.625332 17.656408
11.572063 70.435566 19.302124
11.122327 71.735752 18.80538
10.884556 70.836807 19.962705
16.265577 56.537384 22.330914
15.773856 57.87302 22.201968
15.634211 56.912754 23.316723
16.721004 55.17103 22.505505
16.265577 56.537384 22.330914
16.721004 55.17103 22.505505
16.621263 54.174877 23.608402
17.032499 51.882227 24.753149
16.49158 53.298765 24.632358
16.407484 52.408355 25.614372
17.032499 51.882227 24.753149
17.580359 50.603111 24.685444
11.543355 37.487114 42.113914
10.672679 37.544243 42.866867
11.718981 38.804377 41.342199
11.543355 37.487114 42.113914
11.924551 40.043013 40.558548
11.08374 40.093822 41.330621
11.718981 38.804377 41.342199
12.723823 40.006914 39.765742
12.088582 41.29636 39.754164
11.924551 40.043013 40.558548
13.519618 39.859747 38.976524
12.723823 40.006914 39.765742
14.366018 39.656946 38.092064
13.734255 41.057461 38.076897
13.519618 39.859747 38.976524
8.198651 66.777897 27.032253
8.385793 67.781075 25.983409
7.116324 66.166786 28.762231
6.21184 66.646076 29.336008
7.980626 65.671547 28.1768
7.116324 66.166786 28.762231
7.67247 64.674324 29.297538
8.754797 65.285435 27.56756
8.198651 66.777897 27.032253
7.980626 65.671547 28.1768
1.608766 51.963335 42.393894
1.327988 50.647697 43.241505
2.525278 51.886099 41.842087
1.856413 53.372532 41.494327
1.608766 51.963335 42.393894
3.405543 46.233395 44.101911
2.687956 47.689915 43.850706
2.474104 46.295547 44.643535
4.295504 46.146292 43.587091
3.405543 46.233395 44.101911
5.164274 46.065587 43.053034
4.488165 47.547056 42.775025
4.295504 46.146292 43.587091
5.866744 44.587128 43.289976
6.059404 45.987893 42.477909
5.164274 46.065587 43.053034
6.490735 43.168349 43.535608
5.866744 44.587128 43.289976
7.116354 41.801623 43.727762
7.387493 43.142708 42.907005
6.490735 43.168349 43.535608
7.76185 40.38841 43.910956
7.116354 41.801623 43.727762
8.359558 38.956751 44.102781
8.610822 40.344323 43.290985
7.76185 40.38841 43.910956
8.981656 37.522028 44.255553
8.359558 38.956751 44.102781
9.610985 36.182346 44.323878
9.837859 37.572981 43.551136
8.981656 37.522028 44.255553
12.844731 78.322464 9.729309
13.025457 78.983776 8.686704
13.350378 77.046829 10.235957
12.844731 78.322464 9.729309
12.686282 77.461151 10.895405
11.797011 74.376537 15.344666
11.565949 73.50383 16.521556
12.045087 75.175697 14.204065
11.797011 74.376537 15.344666
12.495147 73.890667 14.734496
12.2951 75.927532 13.07799
12.045087 75.175697 14.204065
12.967576 75.437671 12.497974
12.519453 76.675376 11.98207
12.2951 75.927532 13.07799
15.720682 70.513301 12.06301
15.902443 71.429294 10.912634
15.25199 71.8806 11.778246
16.118182 69.241669 12.368146
15.720682 70.513301 12.06301
15.467728 69.692974 13.233757
16.464172 67.920071 12.742558
16.717126 68.740398 11.57181
16.118182 69.241669 12.368146
16.464172 67.920071 12.742558
16.281136 66.996956 13.83286
9.897745 67.139752 24.562472
9.15129 67.478546 25.288185
9.719277 66.05299 25.697301
10.077974 68.130318 23.478661
9.897745 67.139752 24.562472
10.64596 66.704762 23.887777
10.366962 69.048832 22.286617
10.077974 68.130318 23.478661
11.08024 68.615974 21.631706
10.621014 69.969479 21.114359
10.366962 69.048832 22.286617
15.631698 64.326854 17.232535
15.431117 63.427377 18.357784
16.045623 62.96607 17.504816
15.81716 65.284672 16.107567
15.202654 65.745979 16.960535
15.631698 64.326854 17.232535
16.04258 66.138183 14.981197
15.81716 65.284672 16.107567
15.152373 39.519676 37.186844
14.366018 39.656946 38.092064
14.937736 38.321962 38.086472
15.846854 39.359178 36.341824
16.598869 39.198948 35.365032
15.275137 40.694163 36.347416
15.152373 39.519676 37.186844
15.846854 39.359178 36.341824
16.951535 42.575121 32.612397
16.812298 41.498368 33.594723
17.536634 41.285501 32.529709
17.356891 47.71929 27.795473
16.715928 47.968351 28.853924
17.24189 46.735771 28.853981
17.452648 48.672416 26.723848
17.356891 47.71929 27.795473
3 0 120 122
3 120 28 121
3 120 121 122
3 0 30 28
3 0 32 30
3 1 35 33
3 1 37 35
3 2 123 124
3 2 125 127
3 125 38 126
3 125 126 127
3 3 128 129
3 3 130 132
3 130 39 131
3 130 131 132
3 3 41 39
3 5 44 42
3 5 46 44
3 7 49 47
3 7 51 49
3 4 54 52
3 133 57 134
3 135 134 55
3 133 134 135
3 137 136 57
3 6 61 59
3 8 64 62
3 8 66 64
3 138 68 139
3 140 69 141
3 142 141 68
3 140 141 142
3 9 70 29
3 9 71 70
3 9 73 71
3 11 74 31
3 11 75 74
3 143 76 144
3 12 79 77
3 14 80 34
3 14 81 80
3 14 145 147
3 147 146 81
3 145 146 147
3 149 148 36
3 150 84 151
3 152 151 82
3 150 151 152
3 17 85 40
3 17 86 85
3 10 87 72
3 18 88 43
3 18 89 88
3 18 90 89
3 19 91 45
3 19 92 91
3 153 93 154
3 155 95 156
3 157 156 93
3 155 156 157
3 158 96 159
3 21 97 48
3 21 98 97
3 21 99 98
3 22 100 50
3 22 160 162
3 162 161 100
3 160 161 162
3 16 163 164
3 23 101 53
3 23 102 101
3 13 103 78
3 24 104 56
3 24 105 104
3 24 106 105
3 166 165 58
3 20 107 94
3 25 108 60
3 25 109 108
3 15 110 83
3 26 111 63
3 26 112 111
3 26 113 112
3 27 114 65
3 27 115 114
3 167 116 168
3 167 168 169
3 170 117 171
3 172 171 116
3 170 171 172
3 173 118 174
3 175 174 67
3 173 174 175
3 176 119 177
3 178 177 118
3 176 177 178
3 180 179 119
3 28 181 182
3 28 183 184
3 28 185 187
3 185 29 186
3 185 186 187
3 30 29 28
3 30 9 29
3 30 31 9
3 32 31 30
3 32 11 31
3 33 34 12
3 35 34 33
3 35 14 34
3 35 36 14
3 37 36 35
3 37 188 190
3 190 189 36
3 188 189 190
3 38 191 192
3 38 193 194
3 39 195 197
3 195 196 197
3 39 198 199
3 39 200 202
3 200 40 201
3 200 201 202
3 41 40 39
3 41 17 40
3 42 43 10
3 44 43 42
3 44 18 43
3 44 45 18
3 46 45 44
3 46 19 45
3 47 203 205
3 203 48 204
3 203 204 205
3 49 48 47
3 49 21 48
3 49 50 21
3 51 50 49
3 51 22 50
3 52 53 16
3 54 53 52
3 54 23 53
3 55 56 13
3 57 56 55
3 57 24 56
3 57 58 24
3 206 58 207
3 208 207 57
3 206 207 208
3 210 209 58
3 59 60 20
3 61 60 59
3 61 25 60
3 62 63 15
3 64 63 62
3 64 26 63
3 64 65 26
3 66 65 64
3 66 27 65
3 211 67 212
3 213 67 214
3 216 215 67
3 68 217 219
3 217 218 219
3 68 220 221
3 68 222 223
3 69 224 226
3 226 225 68
3 224 225 226
3 69 227 229
3 227 2 228
3 227 228 229
3 29 230 231
3 70 232 234
3 234 233 29
3 232 233 234
3 70 235 236
3 70 237 238
3 71 239 241
3 241 240 70
3 239 240 241
3 71 242 244
3 242 3 243
3 242 243 244
3 71 72 3
3 73 72 71
3 73 10 72
3 31 73 9
3 74 73 31
3 74 10 73
3 74 42 10
3 75 42 74
3 75 5 42
3 245 47 246
3 76 247 249
3 247 47 248
3 247 248 249
3 76 7 47
3 77 78 4
3 79 78 77
3 79 13 78
3 34 79 12
3 80 79 34
3 80 13 79
3 80 55 13
3 81 55 80
3 81 250 252
3 252 251 55
3 250 251 252
3 81 253 254
3 256 255 81
3 36 257 259
3 259 258 14
3 257 258 259
3 261 260 36
3 82 83 6
3 84 83 82
3 84 15 83
3 262 84 263
3 264 84 265
3 266 15 267
3 268 267 84
3 266 267 268
3 269 62 270
3 271 270 15
3 269 270 271
3 272 62 273
3 274 8 275
3 276 275 62
3 274 275 276
3 277 16 278
3 40 279 280
3 85 281 283
3 283 282 40
3 281 282 283
3 85 284 286
3 284 16 285
3 284 285 286
3 85 52 16
3 86 52 85
3 86 4 52
3 72 41 3
3 87 41 72
3 87 17 41
3 43 87 10
3 88 87 43
3 88 17 87
3 88 86 17
3 89 86 88
3 89 4 86
3 89 77 4
3 90 77 89
3 90 12 77
3 45 90 18
3 91 90 45
3 91 12 90
3 91 33 12
3 92 33 91
3 92 1 33
3 93 287 288
3 93 289 291
3 289 0 290
3 289 290 291
3 93 94 0
3 95 94 93
3 95 20 94
3 292 95 293
3 292 293 294
3 295 95 296
3 297 20 298
3 299 298 95
3 297 298 299
3 300 59 301
3 302 301 20
3 300 301 302
3 303 59 304
3 305 6 306
3 307 306 59
3 305 306 307
3 308 6 309
3 310 82 311
3 312 311 6
3 310 311 312
3 313 82 314
3 317 316 82
3 315 316 317
3 318 69 319
3 96 320 322
3 320 69 321
3 320 321 322
3 96 2 69
3 48 323 324
3 97 325 327
3 327 326 48
3 325 326 327
3 97 328 329
3 97 330 332
3 330 96 331
3 330 331 332
3 98 96 97
3 98 2 96
3 98 38 2
3 99 38 98
3 99 333 335
3 335 334 38
3 333 334 335
3 50 99 21
3 100 99 50
3 100 336 338
3 338 337 99
3 336 337 338
3 100 339 341
3 339 340 341
3 343 342 100
3 53 344 346
3 346 345 16
3 344 345 346
3 101 347 349
3 349 348 53
3 347 348 349
3 101 350 351
3 101 352 354
3 352 76 353
3 352 353 354
3 102 76 101
3 102 7 76
3 78 54 4
3 103 54 78
3 103 23 54
3 56 103 13
3 104 103 56
3 104 23 103
3 104 102 23
3 105 102 104
3 105 7 102
3 105 51 7
3 106 51 105
3 106 22 51
3 58 106 24
3 355 106 356
3 357 356 58
3 355 356 357
3 358 22 359
3 360 359 106
3 358 359 360
3 362 361 22
3 94 32 0
3 107 32 94
3 107 11 32
3 60 107 20
3 108 107 60
3 108 11 107
3 108 75 11
3 109 75 108
3 109 5 75
3 83 61 6
3 110 61 83
3 110 25 61
3 63 110 15
3 111 110 63
3 111 25 110
3 111 109 25
3 112 109 111
3 112 5 109
3 112 46 5
3 113 46 112
3 113 19 46
3 65 113 26
3 114 113 65
3 114 19 113
3 114 92 19
3 115 92 114
3 115 1 92
3 363 8 364
3 363 364 365
3 116 366 367
3 116 368 370
3 368 8 369
3 368 369 370
3 116 66 8
3 117 66 116
3 117 27 66
3 67 371 373
3 371 117 372
3 371 372 373
3 118 117 67
3 118 27 117
3 118 115 27
3 119 115 118
3 119 1 115
3 119 37 1
3 374 37 375
3 376 375 119
3 374 375 376
3 378 377 37
