ply
format ascii 1.0
element vertex 216
property float x
property float y
property float z
element face 194
property list uchar int vertex_index
end_header
-15.463054 -105.253357 -7.340064
-22.689062 -102.222488 -7.022058
-10.867319 -99.412415 2.218378
-17.526117 -102.651947 -2.017383
-19.3589 -104.416779 -7.049994
-21.205214 -101.265007 -1.768029
-15.257839 -99.994003 2.843173
-13.256799 -102.783119 -2.590271
-25.044569 -98.726006 -7.184369
-8.451479 -95.627571 6.768939
-6.112347 -97.951721 1.358117
-8.719423 -101.740929 -3.17672
-18.421757 -101.107574 0.619922
-19.554323 -102.063538 -1.80112
-20.243376 -100.420372 0.829783
-16.107285 -98.432518 5.547693
-17.366598 -99.895325 3.032289
-16.463102 -101.422974 0.432492
-2.739499 -97.902901 -1.651915
-21.186342 -103.427094 -6.931154
-11.87146 -98.086983 4.893762
-9.472711 -97.581863 4.381485
-7.274163 -96.853302 4.039747
-8.460331 -98.782593 1.766624
-7.394283 -99.845047 -0.815919
-9.812329 -100.638283 -0.472933
-14.474858 -104.165871 -4.983667
-12.266256 -103.99295 -5.330165
-16.549519 -104.078293 -4.751107
-17.518013 -105.001137 -7.204816
-18.676989 -103.572578 -4.404124
-20.44521 -102.925484 -4.472763
-22.00038 -101.789894 -4.157516
-14.101925 -98.349197 5.331278
-13.101516 -99.784233 2.631133
-12.150612 -101.201057 -0.17686
-14.404581 -101.38829 0.272241
-15.442706 -102.791069 -2.124578
-22.765472 -99.998917 -1.706917
-23.446198 -100.485535 -4.494142
-24.014097 -100.597565 -7.077854
-24.351067 -100.60968 -9.838076
-7.189454 -93.464218 9.126081
-6.289961 -94.828957 6.445815
-4.997177 -95.910843 3.746554
-3.929815 -97.061111 0.947416
-4.987892 -98.976883 -1.352737
-10.999816 -102.451408 -2.995399
-19.748536 -99.904873 2.066619
-19.332566 -100.763973 0.724853
-18.837727 -100.248474 1.961688
-18.310147 -99.642349 3.167871
-17.717621 -98.985794 4.495932
-18.837727 -100.248474 1.961688
-17.894177 -100.50145 1.826105
-18.310147 -99.642349 3.167871
-2.160445 -96.829892 -0.393871
-1.587542 -97.211621 -1.683636
-15.832866 -105.676319 -8.540425
-14.804267 -105.694069 -8.500982
-22.187271 -103.013095 -8.316385
-21.435911 -103.615398 -8.270933
-21.937702 -102.824791 -6.976606
-22.914475 -102.306907 -8.422902
-22.187271 -103.013095 -8.316385
-14.304593 -105.219967 -7.444114
-13.810495 -104.676224 -6.265916
-14.968956 -104.709614 -6.161865
-14.804267 -105.694069 -8.500982
-14.304593 -105.219967 -7.444114
-18.747909 -105.069607 -8.421958
-17.827466 -105.361786 -8.499369
-18.438457 -104.708958 -7.127405
-23.38802 -99.229714 -1.684576
-23.020834 -99.005417 -0.327077
-23.728383 -99.473022 -3.078188
-23.105835 -100.242226 -3.100529
-23.38802 -99.229714 -1.684576
-24.845326 -98.697174 -5.845237
-25.258017 -97.783371 -5.960781
-24.529333 -99.661786 -7.131112
-24.33009 -99.632954 -5.79198
-24.845326 -98.697174 -5.845237
-8.930294 -94.92141 8.137683
-9.553005 -95.991897 6.886451
-7.820467 -94.545895 7.94751
-8.299281 -93.839733 9.316254
-8.930294 -94.92141 8.137683
-7.548893 -101.284916 -3.295605
-6.886323 -100.336975 -2.115204
-8.056853 -100.792988 -1.99632
-8.05735 -102.179939 -4.547618
-7.548893 -101.284916 -3.295605
-11.054776 -103.707778 -5.451742
-11.592092 -104.392623 -6.525902
-17.087965 -98.25439 5.753633
-16.45483 -97.56081 6.97002
-16.736942 -99.163922 4.289991
-17.087965 -98.25439 5.753633
-17.717621 -98.985794 4.495932
-2.110764 -98.193509 -2.891885
-1.587542 -97.211621 -1.683636
-3.324002 -98.876461 -2.822208
-2.110764 -98.193509 -2.891885
-20.590169 -104.17838 -8.290593
-19.676448 -104.673222 -8.350013
-20.272621 -103.921937 -6.990574
-20.590169 -104.17838 -8.290593
-21.435911 -103.615398 -8.270933
-25.413526 -97.677731 -7.213819
-25.258017 -97.783371 -5.960781
-25.164098 -98.642041 -8.531285
-25.413526 -97.677731 -7.213819
-11.262996 -97.221604 5.948863
-12.358596 -97.398594 6.206399
-10.063621 -96.969043 5.692724
-11.262996 -97.221604 5.948863
-10.672086 -97.834423 4.637624
-8.962095 -96.604717 5.575212
-9.553005 -95.991897 6.886451
-10.063621 -96.969043 5.692724
-12.706194 -104.589764 -6.439165
-13.370557 -104.07941 -5.156916
-13.810495 -104.676224 -6.265916
-11.592092 -104.392623 -6.525902
-12.706194 -104.589764 -6.439165
-15.47649 -97.588455 6.829219
-16.45483 -97.56081 6.97002
-14.47381 -97.546795 6.721011
-15.47649 -97.588455 6.829219
-15.104605 -98.390858 5.439485
-13.473828 -97.529701 6.425158
-14.47381 -97.546795 6.721011
-12.986693 -98.21809 5.11252
-12.358596 -97.398594 6.206399
-13.473828 -97.529701 6.425158
-16.860346 -105.550209 -8.472801
-15.832866 -105.676319 -8.540425
-16.490533 -105.127247 -7.27244
-16.860346 -105.550209 -8.472801
-17.827466 -105.361786 -8.499369
-18.747909 -105.069607 -8.421958
-19.676448 -104.673222 -8.350013
-20.586642 -99.477246 2.198813
-19.748536 -99.904873 2.066619
-21.068213 -99.920456 0.856086
-20.586642 -99.477246 2.198813
-21.549132 -100.342773 -0.44282
-20.724295 -100.84269 -0.469123
-21.068213 -99.920456 0.856086
-22.329261 -99.709729 -0.412264
-23.020834 -99.005417 -0.327077
-21.985343 -100.631962 -1.737473
-21.549132 -100.342773 -0.44282
-22.329261 -99.709729 -0.412264
-24.046141 -99.576939 -4.500123
-23.728383 -99.473022 -3.078188
-23.730148 -100.54155 -5.785998
-24.046141 -99.576939 -4.500123
-24.33009 -99.632954 -5.79198
-23.576992 -101.494446 -8.4508
-22.914475 -102.306907 -8.422902
-23.351579 -101.410027 -7.049956
-23.745477 -101.500504 -9.83091
-23.576992 -101.494446 -8.4508
-24.182582 -100.603623 -8.457965
-23.878982 -101.438572 -11.203429
-23.273392 -102.329396 -11.196264
-23.745477 -101.500504 -9.83091
-24.817347 -99.583877 -9.858138
-24.697818 -99.667843 -8.511222
-25.164098 -98.642041 -8.531285
-24.416398 -100.51403 -11.165949
-24.817347 -99.583877 -9.858138
-23.878982 -101.438572 -11.203429
-24.416398 -100.51403 -11.165949
-7.703408 -92.737674 10.534781
-8.299281 -93.839733 9.316254
-6.653114 -92.334739 10.368158
-7.703408 -92.737674 10.534781
-6.14261 -93.03521 8.983593
-6.653114 -92.334739 10.368158
-5.692864 -93.717579 7.64346
-6.14261 -93.03521 8.983593
-6.739707 -94.146588 7.785948
-5.143202 -94.31974 6.312905
-5.692864 -93.717579 7.64346
-4.49681 -94.860683 4.963274
-5.143202 -94.31974 6.312905
-5.643569 -95.3699 5.096184
-3.913549 -95.408733 3.60313
-4.49681 -94.860683 4.963274
-3.379868 -95.983868 2.203561
-3.913549 -95.408733 3.60313
-4.463496 -96.485977 2.346985
-2.755603 -96.408997 0.905795
-3.379868 -95.983868 2.203561
-3.334657 -97.482006 -0.352249
-2.160445 -96.829892 -0.393871
-2.755603 -96.408997 0.905795
-4.448199 -99.413452 -2.67262
-3.324002 -98.876461 -2.822208
-3.863696 -98.439892 -1.502326
-5.683127 -99.902893 -2.383613
-6.191088 -99.410965 -1.084328
-6.886323 -100.336975 -2.115204
-4.448199 -99.413452 -2.67262
-5.683127 -99.902893 -2.383613
-10.421556 -102.937007 -4.284359
-11.633036 -103.222179 -4.162782
-11.054776 -103.707778 -5.451742
-9.28136 -102.581768 -4.37502
-9.85962 -102.096169 -3.08606
-10.421556 -102.937007 -4.284359
-8.05735 -102.179939 -4.547618
-9.28136 -102.581768 -4.37502
3 48 14 49
3 50 49 12
3 48 49 50
3 51 16 52
3 53 12 54
3 55 54 16
3 53 54 55
3 56 18 57
3 0 58 59
3 1 60 62
3 62 61 19
3 60 61 62
3 1 63 64
3 2 21 20
3 2 23 21
3 2 25 23
3 0 65 67
3 67 66 26
3 65 66 67
3 0 68 69
3 3 30 28
3 5 31 13
3 5 32 31
3 6 33 15
3 6 34 33
3 6 36 34
3 3 37 17
3 3 28 37
3 4 70 72
3 72 71 29
3 70 71 72
3 73 38 74
3 75 39 76
3 77 76 38
3 75 76 77
3 8 78 79
3 8 80 82
3 80 40 81
3 80 81 82
3 8 41 40
3 9 83 84
3 9 85 87
3 85 42 86
3 85 86 87
3 9 43 42
3 10 44 22
3 10 45 44
3 10 46 45
3 11 88 90
3 90 89 24
3 88 89 90
3 11 91 92
3 7 47 35
3 94 93 27
3 12 13 3
3 14 13 12
3 14 5 13
3 95 15 96
3 16 97 99
3 97 15 98
3 97 98 99
3 16 6 15
3 16 17 6
3 12 17 16
3 12 3 17
3 18 100 101
3 18 102 103
3 19 104 106
3 106 105 4
3 104 105 106
3 108 107 19
3 109 8 110
3 112 111 8
3 20 113 114
3 21 115 117
3 117 116 20
3 115 116 117
3 21 118 120
3 118 9 119
3 118 119 120
3 21 22 9
3 23 22 21
3 23 10 22
3 23 24 10
3 25 24 23
3 25 11 24
3 26 27 7
3 121 27 122
3 123 122 26
3 121 122 123
3 125 124 27
3 28 29 0
3 30 29 28
3 30 4 29
3 13 30 3
3 31 30 13
3 31 4 30
3 31 19 4
3 32 19 31
3 32 1 19
3 15 126 127
3 33 128 130
3 130 129 15
3 128 129 130
3 33 131 132
3 33 133 135
3 133 20 134
3 133 134 135
3 34 20 33
3 34 2 20
3 34 35 2
3 36 35 34
3 36 7 35
3 17 36 6
3 37 36 17
3 37 7 36
3 37 26 7
3 28 26 37
3 28 0 26
3 29 136 138
3 138 137 0
3 136 137 138
3 140 139 29
3 142 141 4
3 143 14 144
3 145 14 146
3 147 5 148
3 149 148 14
3 147 148 149
3 38 150 151
3 38 152 154
3 152 5 153
3 152 153 154
3 38 32 5
3 39 32 38
3 39 1 32
3 155 39 156
3 40 157 159
3 157 39 158
3 157 158 159
3 40 1 39
3 40 160 162
3 162 161 1
3 160 161 162
3 41 163 165
3 165 164 40
3 163 164 165
3 41 166 168
3 166 167 168
3 169 41 170
3 171 170 8
3 169 170 171
3 172 41 173
3 175 174 41
3 42 176 177
3 42 178 179
3 42 180 181
3 43 182 184
3 184 183 42
3 182 183 184
3 43 185 186
3 22 43 9
3 44 43 22
3 44 187 189
3 189 188 43
3 187 188 189
3 44 190 191
3 45 192 194
3 194 193 44
3 192 193 194
3 45 195 196
3 45 197 199
3 197 18 198
3 197 198 199
3 46 18 45
3 46 200 202
3 202 201 18
3 200 201 202
3 24 46 10
3 203 46 204
3 205 204 24
3 203 204 205
3 207 206 46
3 35 25 2
3 47 25 35
3 47 11 25
3 27 47 7
3 208 47 209
3 210 209 27
3 208 209 210
3 211 11 212
3 213 212 47
3 211 212 213
3 215 214 11
