ply
format ascii 1.0
element vertex 210
property float x
property float y
property float z
element face 203
property list uchar int vertex_index
end_header
25.29129 43.441563 12.326591
29.871418 38.420071 3.787259
30.55789 33.826382 10.943452
25.3361 36.978184 19.961866
25.490911 46.317787 8.302843
27.613411 43.819984 4.249182
27.817257 41.100574 7.766978
30.257576 36.26186 7.253824
27.853693 38.504406 11.617403
27.439148 46.279339 0.972162
29.191891 40.838833 0.668763
22.66007 41.914227 20.999083
25.324266 40.386204 16.007477
28.024189 35.55518 15.30321
25.414719 44.83984 10.268475
26.59181 43.675014 8.145424
26.590441 42.342163 9.947253
27.756599 39.944672 9.751551
26.55802 41.011013 11.849094
26.635607 49.058334 1.014436
26.615812 47.76823 2.809225
28.701376 41.131886 4.055698
28.521675 42.351337 2.343
29.535343 39.652267 2.227862
30.432119 35.033619 9.133104
24.003695 37.589409 22.330412
22.68862 39.974968 22.935505
23.932426 39.516399 20.476406
24.000549 41.1427 18.502024
25.306509 38.686592 18.093269
26.628702 37.96558 15.689597
26.628475 36.387714 17.632967
25.541544 47.688591 6.624672
26.595728 46.453068 4.529945
26.637396 44.989647 6.256862
27.712917 42.465958 5.992639
28.843407 39.982605 5.710956
30.054192 37.441982 5.436491
29.010548 38.693619 7.476652
29.095125 37.476833 9.361247
29.154686 36.203232 11.302219
25.275505 35.239658 21.913715
26.637714 34.614929 19.62747
28.073044 44.601231 -0.691259
27.569986 44.956432 2.591153
28.338732 43.436836 0.719962
28.923843 41.594913 -0.906583
24.283264 47.46138 10.569777
24.138914 46.024681 12.534514
24.015907 44.518509 14.575269
22.745335 43.555611 19.014759
24.035954 42.777607 16.53027
25.297949 41.962509 14.13533
26.53105 39.580761 13.838868
27.904617 37.132904 13.463628
29.224674 34.834663 13.20492
27.963408 34.094341 17.269646
26.132317 48.42116 3.817138
26.186876 49.155293 2.87161
30.237344 37.688757 2.90034
30.069307 38.304855 2.120642
29.703381 39.036169 3.007561
30.419412 37.173654 3.738376
30.237344 37.688757 2.90034
31.176894 33.245558 9.868121
31.114009 33.849176 8.962947
30.495005 34.430001 10.038278
31.274349 32.59834 10.826985
31.176894 33.245558 9.868121
25.235295 34.320442 22.872681
24.587536 35.497112 23.12005
25.901766 34.092346 21.747205
25.235295 34.320442 22.872681
27.383803 46.838925 0.123603
26.982032 48.228422 0.14474
27.037377 47.668836 0.993299
27.756096 45.440285 0.140452
27.70075 45.999871 -0.708107
27.383803 46.838925 0.123603
29.465762 39.82317 -0.177965
29.331739 40.20121 -0.965639
29.057867 41.216873 -0.11891
30.812866 35.505572 6.222468
30.711174 36.095633 5.313801
30.155884 36.851921 6.345158
23.666913 47.97373 11.747225
23.793945 48.723562 10.672602
23.594738 47.255381 12.729594
24.211089 46.743031 11.552145
23.666913 47.97373 11.747225
23.417796 44.92327 15.727784
23.464893 45.739481 14.722838
22.060226 42.220709 22.150931
22.074501 41.25108 23.119142
22.674345 40.944598 21.967294
22.07256 43.1567 21.16737
22.060226 42.220709 22.150931
22.702703 42.734919 20.006921
22.115192 43.977393 20.175208
22.07256 43.1567 21.16737
27.913983 33.2393 18.336863
27.300561 34.354635 18.448558
27.251136 33.499594 19.515776
26.196773 49.800345 1.974215
26.239274 50.492266 1.091913
26.625709 48.413282 1.91183
26.196773 49.800345 1.974215
26.186876 49.155293 2.87161
29.860495 38.803892 1.35633
29.688768 39.397175 0.576781
29.363617 40.24555 1.448313
29.860495 38.803892 1.35633
30.069307 38.304855 2.120642
31.006483 34.421469 8.023267
30.919211 35.03559 7.083626
30.344848 35.64774 8.193464
31.006483 34.421469 8.023267
31.114009 33.849176 8.962947
23.346158 38.782189 22.632959
22.677956 39.038357 23.86596
23.335493 37.845578 23.563413
26.068636 47.07083 5.577309
26.122276 47.763579 4.677497
25.595183 48.38134 5.724861
23.951631 36.671988 23.328398
23.335493 37.845578 23.563413
24.6396 36.414534 22.122063
23.951631 36.671988 23.328398
24.587536 35.497112 23.12005
26.58287 33.779981 20.604082
25.956609 34.927293 20.770592
25.901766 34.092346 21.747205
27.251136 33.499594 19.515776
26.58287 33.779981 20.604082
26.599459 49.75992 0.179491
26.239274 50.492266 1.091913
26.945884 48.930008 -0.690204
26.599459 49.75992 0.179491
26.982032 48.228422 0.14474
27.902971 45.225269 -1.504802
27.70075 45.999871 -0.708107
28.245945 43.790804 -1.473912
27.902971 45.225269 -1.504802
26.60577 47.110649 3.669585
26.132317 48.42116 3.817138
26.122276 47.763579 4.677497
28.671345 42.287645 -1.581574
28.245945 43.790804 -1.473912
28.498444 43.098072 -0.798921
29.046858 40.707588 -1.678187
28.671345 42.287645 -1.581574
29.046858 40.707588 -1.678187
29.331739 40.20121 -0.965639
29.465762 39.82317 -0.177965
29.688768 39.397175 0.576781
30.5108 36.68461 4.562991
30.419412 37.173654 3.738376
29.962805 37.931027 4.611875
30.5108 36.68461 4.562991
30.711174 36.095633 5.313801
30.812866 35.505572 6.222468
30.919211 35.03559 7.083626
25.066523 49.026657 6.719778
25.595183 48.38134 5.724861
25.001809 48.285597 7.616158
25.066523 49.026657 6.719778
24.976492 47.600195 8.455243
25.516227 47.003189 7.463757
25.001809 48.285597 7.616158
24.372669 48.171992 9.588711
23.793945 48.723562 10.672602
24.887087 46.889584 9.43631
24.976492 47.600195 8.455243
24.372669 48.171992 9.588711
23.526397 46.492567 13.70246
23.594738 47.255381 12.729594
24.07741 45.271595 13.554892
23.526397 46.492567 13.70246
23.464893 45.739481 14.722838
22.042963 40.317671 24.096329
22.677956 39.038357 23.86596
22.042963 40.317671 24.096329
22.074501 41.25108 23.119142
22.207625 44.78639 19.092818
22.115192 43.977393 20.175208
22.78251 44.44182 17.947529
22.207625 44.78639 19.092818
23.427819 44.052819 16.705285
22.78251 44.44182 17.947529
23.390645 43.166609 17.772514
24.025931 43.648058 15.55277
23.417796 44.92327 15.727784
23.427819 44.052819 16.705285
28.589399 32.96286 17.206873
27.913983 33.2393 18.336863
28.671048 33.662621 16.154371
28.589399 32.96286 17.206873
28.701438 34.39304 15.171153
27.993799 34.82476 16.286428
28.671048 33.662621 16.154371
29.30168 34.032781 14.122008
28.624432 35.194921 14.254065
28.701438 34.39304 15.171153
29.946767 33.662242 12.995856
29.30168 34.032781 14.122008
30.613376 33.158102 11.865123
29.891282 34.330523 12.074186
29.946767 33.662242 12.995856
31.274349 32.59834 10.826985
30.613376 33.158102 11.865123
3 0 16 14
3 0 18 16
3 57 20 58
3 1 23 21
3 1 59 61
3 61 60 23
3 59 60 61
3 1 62 63
3 2 64 66
3 66 65 24
3 64 65 66
3 2 67 68
3 3 27 25
3 3 29 27
3 3 31 29
3 4 34 32
3 6 35 15
3 6 36 35
3 6 38 36
3 8 39 17
3 8 40 39
3 69 41 70
3 72 71 41
3 9 73 75
3 75 74 19
3 73 74 75
3 9 76 78
3 76 43 77
3 76 77 78
3 5 44 33
3 10 45 22
3 10 46 45
3 10 79 81
3 81 80 46
3 79 80 81
3 7 82 84
3 84 83 37
3 82 83 84
3 85 47 86
3 87 48 88
3 89 88 47
3 87 88 89
3 90 49 91
3 11 92 94
3 94 93 26
3 92 93 94
3 11 95 96
3 11 97 99
3 97 50 98
3 97 98 99
3 12 51 28
3 12 52 51
3 12 53 52
3 13 54 30
3 13 55 54
3 100 56 101
3 102 101 42
3 100 101 102
3 14 15 4
3 16 15 14
3 16 6 15
3 16 17 6
3 18 17 16
3 18 8 17
3 103 19 104
3 20 105 107
3 105 19 106
3 105 106 107
3 20 9 19
3 21 22 5
3 23 22 21
3 23 10 22
3 23 108 110
3 110 109 10
3 108 109 110
3 112 111 23
3 24 113 115
3 115 114 7
3 113 114 115
3 117 116 24
3 25 118 120
3 118 26 119
3 118 119 120
3 27 26 25
3 27 11 26
3 27 28 11
3 29 28 27
3 29 12 28
3 29 30 12
3 31 30 29
3 31 13 30
3 32 121 123
3 121 33 122
3 121 122 123
3 34 33 32
3 34 5 33
3 15 34 4
3 35 34 15
3 35 5 34
3 35 21 5
3 36 21 35
3 36 1 21
3 36 37 1
3 38 37 36
3 38 7 37
3 17 38 6
3 39 38 17
3 39 7 38
3 39 24 7
3 40 24 39
3 40 2 24
3 124 25 125
3 41 126 128
3 126 25 127
3 126 127 128
3 41 3 25
3 41 42 3
3 129 42 130
3 131 130 41
3 129 130 131
3 133 132 42
3 19 134 135
3 138 137 19
3 136 137 138
3 43 139 140
3 43 141 142
3 33 143 145
3 143 20 144
3 143 144 145
3 44 20 33
3 44 9 20
3 22 44 5
3 45 44 22
3 45 9 44
3 45 43 9
3 46 43 45
3 46 146 148
3 148 147 43
3 146 147 148
3 46 149 150
3 152 151 46
3 154 153 10
3 37 155 157
3 157 156 1
3 155 156 157
3 159 158 37
3 161 160 7
3 162 32 163
3 164 32 165
3 166 4 167
3 168 167 32
3 166 167 168
3 47 169 170
3 47 171 173
3 171 4 172
3 171 172 173
3 47 14 4
3 48 14 47
3 48 0 14
3 174 48 175
3 49 176 178
3 176 48 177
3 176 177 178
3 49 0 48
3 26 179 180
3 182 181 26
3 50 183 184
3 50 185 186
3 28 50 11
3 51 50 28
3 51 187 189
3 189 188 50
3 187 188 189
3 51 190 192
3 190 49 191
3 190 191 192
3 52 49 51
3 52 0 49
3 52 18 0
3 53 18 52
3 53 8 18
3 30 53 12
3 54 53 30
3 54 8 53
3 54 40 8
3 55 40 54
3 55 2 40
3 42 31 3
3 56 31 42
3 56 13 31
3 193 56 194
3 195 56 196
3 197 13 198
3 199 198 56
3 197 198 199
3 200 55 201
3 202 201 13
3 200 201 202
3 203 55 204
3 205 2 206
3 207 206 55
3 205 206 207
3 209 208 2
