ply
format ascii 1.0
element vertex 363
property float x
property float y
property float z
element face 363
property list uchar int vertex_index
end_header
-11.479445 -64.831635 -47.242298
-11.201054 -34.686432 -54.878345
-11.644792 -50.290253 -50.716774
-11.001259 -77.69043 -43.186172
-20.368896 -48.652779 -51.138393
-19.038015 -34.023529 -56.430283
-16.433535 -19.774059 -61.522663
-6.426416 -72.700928 -45.408051
-11.607743 -57.617226 -48.996864
-10.728344 -83.214699 -40.653412
-24.089113 -40.552235 -53.361557
-19.797119 -41.395226 -53.808765
-23.296955 -33.438408 -56.34388
-14.323195 -13.193902 -63.818836
-10.347265 -27.411209 -57.004536
-11.653677 -42.263355 -52.795467
-11.123042 -71.487617 -45.373695
-16.001539 -63.777351 -46.796658
-20.528307 -55.74474 -48.374836
-16.064484 -56.799313 -49.111538
-15.908419 -49.393059 -51.333698
-15.596308 -42.041618 -53.544415
-15.008171 -34.774292 -55.77737
-18.035213 -26.700003 -59.047825
-14.14992 -27.223017 -58.221031
-12.654007 -20.124052 -60.543137
-10.916285 -14.121056 -62.532845
-8.868196 -68.909569 -46.30875
-6.791616 -68.867119 -46.21933
-9.180356 -65.132454 -47.167278
-9.184661 -61.739174 -47.874416
-11.580535 -61.177593 -48.155846
-23.796566 -36.940258 -54.878551
-10.8951 -30.995068 -55.965652
-11.738124 -46.125443 -51.780319
-8.486318 -78.594826 -43.583405
-8.754559 -75.393188 -44.576591
-11.018495 -74.744629 -44.306595
-16.089151 -66.884857 -45.59623
-22.357233 -48.172939 -50.804646
-22.475016 -51.540051 -49.374207
-20.33695 -52.337257 -49.776516
-18.278963 -56.257652 -48.874928
-18.378965 -52.583817 -50.132149
-16.174675 -53.058712 -50.23698
-18.196682 -49.007175 -51.347927
-19.566303 -37.443657 -55.218647
-17.738365 -41.501339 -53.841896
-17.446541 -38.018055 -54.988239
-15.524817 -38.269047 -54.722
-17.038942 -34.176601 -56.257977
-18.368309 -19.190048 -61.985489
-19.199406 -22.948847 -60.569042
-17.333475 -23.007454 -60.383163
-16.086992 -26.858742 -58.740253
-15.351362 -23.562218 -59.850536
-13.380198 -23.822151 -59.296257
-14.506966 -20.124405 -61.016026
-12.573621 -13.600041 -63.237255
-9.481711 -57.739536 -48.713139
-11.67665 -53.977001 -49.841969
-10.759895 -80.605408 -41.999779
-22.236708 -44.503654 -52.280399
-20.173035 -44.924473 -52.51709
-22.027487 -40.735458 -53.766407
-21.557281 -37.356579 -55.103298
-21.181763 -33.683743 -56.500252
-15.353804 -16.356434 -62.709679
-9.90476 -23.840937 -58.158379
-11.411883 -38.582523 -53.771549
-6.333854 -75.93679 -44.650303
-8.734094 -72.284569 -45.465984
-11.303862 -68.182198 -46.338673
-13.015305 -84.052261 -38.391628
-13.297605 -81.798569 -39.779968
-13.215068 -79.517677 -41.229565
-13.465159 -76.723671 -42.534504
-13.412255 -74.007286 -43.773075
-13.564655 -70.854942 -44.958305
-13.637247 -67.76506 -46.036343
-13.858095 -64.278328 -47.124767
-18.277325 -59.673912 -47.617489
-16.049492 -60.083256 -48.06144
-13.781921 -60.974552 -48.12307
-13.899952 -57.245865 -49.145401
-13.990225 -53.549141 -50.131645
-13.831257 -49.823128 -51.120155
-17.983139 -45.441158 -52.535282
-15.914693 -45.547909 -52.492146
-13.752273 -45.930809 -52.181141
-13.604139 -42.133579 -53.239819
-13.447295 -38.471313 -54.301701
-13.110537 -34.467857 -55.482433
-22.71332 -29.5769 -57.914185
-20.63158 -29.917707 -57.92823
-19.984327 -26.262249 -59.315311
-18.547195 -30.458036 -57.693859
-16.494661 -30.525164 -57.469593
-14.590939 -30.857952 -57.025776
-12.691176 -30.773354 -56.596489
-12.194607 -27.286283 -57.670605
-11.64592 -23.797041 -58.792408
-10.89261 -20.702879 -59.752899
-13.522465 -16.667446 -62.186558
-11.803748 -17.151613 -61.511784
-10.193501 -17.575851 -60.797485
-10.254217 -34.745167 -54.535957
-10.351194 -36.638142 -54.025711
-11.048077 -32.84075 -55.421999
-10.10124 -32.899485 -55.079611
-10.254217 -34.745167 -54.535957
-10.637609 -50.120776 -50.549532
-10.558763 -52.102209 -50.104501
-11.691458 -48.207848 -51.248547
-10.684275 -48.03837 -51.081305
-10.637609 -50.120776 -50.549532
-9.743789 -78.142628 -43.384788
-8.383146 -80.064942 -43.058842
-9.640617 -79.612743 -42.860225
-5.252666 -72.733246 -45.296504
-5.130045 -74.4562 -44.96402
-5.600688 -69.070755 -46.013943
-6.786437 -67.11884 -46.539786
-9.468232 -83.708568 -41.012018
-9.459982 -84.936879 -40.360714
-10.74412 -81.910054 -41.326595
-9.484008 -82.403923 -41.685202
-9.468232 -83.708568 -41.012018
-24.186631 -42.3373 -52.598303
-25.153595 -40.311839 -53.104206
-23.162911 -42.527945 -52.820978
-23.260428 -44.313009 -52.057724
-24.186631 -42.3373 -52.598303
-9.504242 -27.526504 -56.63369
-9.695429 -29.373493 -56.087721
-10.126012 -25.626073 -57.581457
-9.282989 -25.741368 -57.210611
-9.504242 -27.526504 -56.63369
-10.635006 -42.290491 -52.504104
-10.655416 -44.169647 -52.042456
-11.53278 -40.422939 -53.283508
-10.514108 -40.450075 -52.992145
-10.635006 -42.290491 -52.504104
-6.168974 -77.596359 -44.212523
-5.014134 -77.674225 -44.233024
-14.233023 -82.316047 -38.561363
-14.025733 -83.523117 -37.763584
-14.374173 -81.189201 -39.255533
-13.156455 -82.925415 -39.085798
-14.233023 -82.316047 -38.561363
-14.418941 -77.631649 -41.49302
-14.461346 -78.776355 -40.772204
-14.543986 -76.234646 -42.145489
-13.340114 -78.120674 -41.882035
-14.418941 -77.631649 -41.49302
-14.724739 -71.941017 -44.077393
-14.609957 -73.395965 -43.470501
-14.800939 -70.364845 -44.670007
-13.488455 -72.431114 -44.36569
-14.724739 -71.941017 -44.077393
-21.591049 -55.307339 -48.106762
-22.564403 -53.204994 -48.606448
-21.501662 -53.642395 -48.874522
-20.531117 -57.406723 -47.675223
-21.591049 -55.307339 -48.106762
-19.402816 -57.709326 -47.996162
-19.405625 -59.37131 -47.296549
-20.531117 -57.406723 -47.675223
-22.357839 -27.820513 -58.623536
-23.386153 -27.584064 -58.60132
-21.316969 -27.990917 -58.630558
-21.67245 -29.747304 -57.921208
-22.357839 -27.820513 -58.623536
-10.156047 -14.338445 -62.169463
-9.794656 -16.065843 -61.301783
-10.554893 -15.848453 -61.665165
-7.980808 -65.251507 -47.01376
-6.786437 -67.11884 -46.539786
-7.985986 -66.999786 -46.693304
-9.182509 -63.435814 -47.520847
-7.98296 -63.554867 -47.367328
-7.980808 -65.251507 -47.01376
-10.716147 -84.300682 -39.986452
-9.459982 -84.936879 -40.360714
-24.9195 -38.550163 -53.93552
-25.153595 -40.311839 -53.104206
-24.773226 -36.744175 -54.694017
-23.942839 -38.746246 -54.120054
-24.9195 -38.550163 -53.93552
-24.632906 -34.817553 -55.526819
-24.773226 -36.744175 -54.694017
-24.3831 -33.066628 -56.259484
-23.54676 -35.189333 -55.611216
-24.632906 -34.817553 -55.526819
-9.969346 -31.165422 -55.568279
-10.10124 -32.899485 -55.079611
-10.621182 -29.203139 -56.485094
-9.695429 -29.373493 -56.087721
-9.969346 -31.165422 -55.568279
-10.697639 -46.100691 -51.534881
-10.684275 -48.03837 -51.081305
-11.695901 -44.194399 -52.287893
-10.655416 -44.169647 -52.042456
-10.697639 -46.100691 -51.534881
-7.216932 -80.372066 -43.224238
-8.383146 -80.064942 -43.058842
-7.245206 -78.925377 -43.679074
-7.216932 -80.372066 -43.224238
-8.620439 -76.994007 -44.079998
-7.379327 -77.324558 -44.175667
-7.245206 -78.925377 -43.679074
-17.176865 -66.491485 -45.280914
-16.063187 -68.379802 -44.98897
-17.237285 -64.802605 -45.981279
-17.176865 -66.491485 -45.280914
-17.193479 -63.248852 -46.581494
-16.045345 -65.331104 -46.196444
-17.237285 -64.802605 -45.981279
-22.416125 -49.856495 -50.089427
-23.467385 -49.516621 -49.845356
-23.408493 -47.833065 -50.560575
-18.783857 -21.069448 -61.277265
-19.734844 -21.004807 -61.343876
-19.319295 -19.125407 -62.052099
-12.890448 -11.928755 -64.033602
-13.448408 -13.396971 -63.528045
-13.765235 -11.725685 -64.324392
-12.008564 -12.232181 -63.67679
-12.890448 -11.928755 -64.033602
-11.179896 -12.492688 -63.324585
-11.744953 -13.860549 -62.88505
-12.008564 -12.232181 -63.67679
-10.39781 -12.761893 -62.959391
-11.179896 -12.492688 -63.324585
-5.435266 -70.816341 -45.702143
-5.252666 -72.733246 -45.296504
-6.609016 -70.784024 -45.81369
-5.435266 -70.816341 -45.702143
-5.600688 -69.070755 -46.013943
-8.127363 -61.697285 -47.711792
-7.98296 -63.554867 -47.367328
-8.275888 -59.697466 -48.131153
-8.127363 -61.697285 -47.711792
-9.333186 -59.739355 -48.293777
-8.346242 -57.787361 -48.474631
-8.275888 -59.697466 -48.131153
-9.477222 -55.82685 -49.102684
-8.346242 -57.787361 -48.474631
-10.574692 -53.945583 -49.667099
-9.477222 -55.82685 -49.102684
-10.57918 -55.858269 -49.277554
-11.660721 -52.133627 -50.279371
-10.558763 -52.102209 -50.104501
-10.574692 -53.945583 -49.667099
-9.519934 -81.070233 -42.267029
-9.484008 -82.403923 -41.685202
-10.880577 -79.147919 -42.592975
-9.640617 -79.612743 -42.860225
-9.519934 -81.070233 -42.267029
-23.320691 -46.147651 -51.319847
-23.408493 -47.833065 -50.560575
-22.296971 -46.338296 -51.542523
-23.320691 -46.147651 -51.319847
-23.260428 -44.313009 -52.057724
-18.903104 -17.317392 -62.754147
-19.319295 -19.125407 -62.052099
-17.831242 -17.449466 -62.623259
-18.903104 -17.317392 -62.754147
-16.863855 -17.741472 -62.391846
-17.400922 -19.482053 -61.754076
-17.831242 -17.449466 -62.623259
-16.323989 -16.03266 -62.985354
-15.893669 -18.065247 -62.116171
-16.863855 -17.741472 -62.391846
-15.729398 -14.46553 -63.545872
-16.323989 -16.03266 -62.985354
-15.214094 -12.884264 -64.10045
-14.8385 -14.775168 -63.264257
-15.729398 -14.46553 -63.545872
-14.639073 -11.411123 -64.62565
-15.214094 -12.884264 -64.10045
-13.765235 -11.725685 -64.324392
-14.639073 -11.411123 -64.62565
-9.093729 -23.924115 -57.792332
-9.282989 -25.741368 -57.210611
-9.562625 -22.256595 -58.646681
-9.093729 -23.924115 -57.792332
-10.456608 -38.586187 -53.472313
-10.514108 -40.450075 -52.992145
-11.306468 -36.634478 -54.324947
-10.351194 -36.638142 -54.025711
-10.456608 -38.586187 -53.472313
-5.083763 -76.074131 -44.585146
-5.014134 -77.674225 -44.233024
-6.380135 -74.318859 -45.029177
-5.130045 -74.4562 -44.96402
-5.083763 -76.074131 -44.585146
-7.544206 -75.664989 -44.613447
-6.168974 -77.596359 -44.212523
-7.379327 -77.324558 -44.175667
-12.936134 -85.105309 -37.567255
-14.025733 -83.523117 -37.763584
-11.773217 -85.805779 -38.123331
-12.936134 -85.105309 -37.567255
-11.859628 -84.719463 -38.85556
-11.773217 -85.805779 -38.123331
-12.000778 -83.592617 -39.54973
-11.859628 -84.719463 -38.85556
-13.156455 -82.925415 -39.085798
-12.012975 -82.506634 -40.21669
-10.716147 -84.300682 -39.986452
-12.000778 -83.592617 -39.54973
-14.502614 -79.916801 -40.047405
-14.374173 -81.189201 -39.255533
-13.256336 -80.658123 -40.504767
-14.502614 -79.916801 -40.047405
-14.461346 -78.776355 -40.772204
-14.636409 -74.754158 -42.851215
-14.543986 -76.234646 -42.145489
-13.438707 -75.365478 -43.15379
-14.636409 -74.754158 -42.851215
-14.609957 -73.395965 -43.470501
-14.826903 -68.8699 -45.277268
-14.800939 -70.364845 -44.670007
-16.063187 -68.379802 -44.98897
-23.51842 -51.218699 -49.047091
-23.467385 -49.516621 -49.845356
-23.51842 -51.218699 -49.047091
-22.564403 -53.204994 -48.606448
-18.331372 -61.197132 -46.991909
-19.405625 -59.37131 -47.296549
-17.139432 -61.725632 -47.207073
-17.193479 -63.248852 -46.581494
-18.331372 -61.197132 -46.991909
-24.047182 -31.33182 -57.032711
-24.3831 -33.066628 -56.259484
-23.755364 -29.401066 -57.817864
-23.386153 -27.584064 -58.60132
-23.005138 -31.507654 -57.129033
-24.047182 -31.33182 -57.032711
-23.755364 -29.401066 -57.817864
-20.198358 -22.7652 -60.648987
-19.734844 -21.004807 -61.343876
-20.590819 -24.421901 -60.022121
-20.198358 -22.7652 -60.648987
-19.591867 -24.605548 -59.942177
-20.993343 -26.163188 -59.324099
-20.590819 -24.421901 -60.022121
-20.307953 -28.089978 -58.62177
-21.316969 -27.990917 -58.630558
-20.993343 -26.163188 -59.324099
-10.056549 -20.687566 -59.443941
-9.562625 -22.256595 -58.646681
-10.398685 -22.271908 -58.955639
-9.706995 -19.124052 -59.966234
-10.056549 -20.687566 -59.443941
-10.543055 -19.139365 -60.275192
-9.401625 -17.565977 -60.486446
-9.706995 -19.124052 -59.966234
-9.401625 -17.565977 -60.486446
-9.794656 -16.065843 -61.301783
-10.156047 -14.338445 -62.169463
-10.39781 -12.761893 -62.959391
3 0 29 27
3 0 31 29
3 1 106 107
3 1 108 110
3 108 33 109
3 108 109 110
3 2 111 112
3 2 113 115
3 113 34 114
3 113 114 115
3 3 116 118
3 116 35 117
3 116 117 118
3 3 37 35
3 4 41 39
3 4 43 41
3 4 45 43
3 5 48 46
3 5 50 48
3 6 53 51
3 6 55 53
3 6 57 55
3 7 119 120
3 122 121 28
3 8 59 30
3 8 60 59
3 9 123 124
3 9 125 127
3 125 61 126
3 125 126 127
3 10 128 129
3 10 130 132
3 130 62 131
3 130 131 132
3 10 64 62
3 12 65 32
3 12 66 65
3 14 133 134
3 14 135 137
3 135 68 136
3 135 136 137
3 15 138 139
3 15 140 142
3 140 69 141
3 140 141 142
3 143 70 144
3 16 71 36
3 16 72 71
3 145 73 146
3 147 74 148
3 149 148 73
3 147 148 149
3 150 75 151
3 152 76 153
3 154 153 75
3 152 153 154
3 155 77 156
3 157 78 158
3 159 158 77
3 157 158 159
3 17 79 38
3 17 80 79
3 18 160 162
3 162 161 40
3 160 161 162
3 18 163 164
3 18 165 167
3 165 81 166
3 165 166 167
3 19 82 42
3 19 83 82
3 19 84 83
3 20 85 44
3 20 86 85
3 11 87 63
3 21 88 47
3 21 89 88
3 21 90 89
3 22 91 49
3 22 92 91
3 168 93 169
3 170 94 171
3 172 171 93
3 170 171 172
3 23 95 52
3 23 96 95
3 23 97 96
3 24 98 54
3 24 99 98
3 24 100 99
3 25 101 56
3 25 102 101
3 13 103 67
3 26 104 58
3 26 105 104
3 26 173 175
3 175 174 105
3 173 174 175
3 27 28 7
3 29 28 27
3 29 176 178
3 178 177 28
3 176 177 178
3 29 179 181
3 179 30 180
3 179 180 181
3 31 30 29
3 31 8 30
3 182 9 183
3 184 10 185
3 186 32 187
3 188 187 10
3 186 187 188
3 189 32 190
3 191 12 192
3 193 192 32
3 191 192 193
3 33 194 195
3 33 196 198
3 196 14 197
3 196 197 198
3 34 199 200
3 34 201 203
3 201 15 202
3 201 202 203
3 35 204 205
3 35 206 207
3 35 208 210
3 208 36 209
3 208 209 210
3 37 36 35
3 37 16 36
3 211 38 212
3 213 38 214
3 215 17 216
3 217 216 38
3 215 216 217
3 39 218 220
3 218 40 219
3 218 219 220
3 41 40 39
3 41 18 40
3 41 42 18
3 43 42 41
3 43 19 42
3 43 44 19
3 45 44 43
3 45 20 44
3 46 47 11
3 48 47 46
3 48 21 47
3 48 49 21
3 50 49 48
3 50 22 49
3 51 221 223
3 221 52 222
3 221 222 223
3 53 52 51
3 53 23 52
3 53 54 23
3 55 54 53
3 55 24 54
3 55 56 24
3 57 56 55
3 57 25 56
3 224 58 225
3 226 225 13
3 224 225 226
3 227 58 228
3 229 26 230
3 231 230 58
3 229 230 231
3 233 232 26
3 28 234 236
3 236 235 7
3 234 235 236
3 238 237 28
3 30 239 240
3 59 241 243
3 243 242 30
3 241 242 243
3 59 244 245
3 59 246 247
3 60 248 250
3 250 249 59
3 248 249 250
3 60 251 253
3 251 2 252
3 251 252 253
3 61 254 255
3 61 256 258
3 256 3 257
3 256 257 258
3 259 39 260
3 62 261 263
3 261 39 262
3 261 262 263
3 62 4 39
3 62 63 4
3 64 63 62
3 64 11 63
3 32 64 10
3 65 64 32
3 65 11 64
3 65 46 11
3 66 46 65
3 66 5 46
3 264 51 265
3 266 51 267
3 268 6 269
3 270 269 51
3 268 269 270
3 271 67 272
3 273 272 6
3 271 272 273
3 274 67 275
3 276 13 277
3 278 277 67
3 276 277 278
3 279 13 280
3 282 281 13
3 68 283 284
3 68 285 286
3 69 287 288
3 69 289 291
3 289 1 290
3 289 290 291
3 70 292 293
3 70 294 296
3 294 7 295
3 294 295 296
3 36 297 299
3 297 70 298
3 297 298 299
3 71 70 36
3 71 7 70
3 71 27 7
3 72 27 71
3 72 0 27
3 73 300 301
3 73 302 303
3 73 304 305
3 74 306 308
3 308 307 73
3 306 307 308
3 74 309 311
3 309 9 310
3 309 310 311
3 312 74 313
3 75 314 316
3 314 74 315
3 314 315 316
3 75 9 74
3 75 61 9
3 76 61 75
3 76 3 61
3 317 76 318
3 77 319 321
3 319 76 320
3 319 320 321
3 77 3 76
3 77 37 3
3 78 37 77
3 78 16 37
3 38 322 324
3 322 78 323
3 322 323 324
3 79 78 38
3 79 16 78
3 79 72 16
3 80 72 79
3 80 0 72
3 40 325 326
3 328 327 40
3 81 329 330
3 81 331 333
3 331 17 332
3 331 332 333
3 42 81 18
3 82 81 42
3 82 17 81
3 82 80 17
3 83 80 82
3 83 0 80
3 83 31 0
3 84 31 83
3 84 8 31
3 44 84 19
3 85 84 44
3 85 8 84
3 85 60 8
3 86 60 85
3 86 2 60
3 63 45 4
3 87 45 63
3 87 20 45
3 47 87 11
3 88 87 47
3 88 20 87
3 88 86 20
3 89 86 88
3 89 2 86
3 89 34 2
3 90 34 89
3 90 15 34
3 49 90 21
3 91 90 49
3 91 15 90
3 91 69 15
3 92 69 91
3 92 1 69
3 334 12 335
3 93 336 337
3 93 338 340
3 338 12 339
3 338 339 340
3 93 66 12
3 94 66 93
3 94 5 66
3 52 341 342
3 95 343 345
3 345 344 52
3 343 344 345
3 95 346 347
3 95 348 350
3 348 94 349
3 348 349 350
3 96 94 95
3 96 5 94
3 96 50 5
3 97 50 96
3 97 22 50
3 54 97 23
3 98 97 54
3 98 22 97
3 98 92 22
3 99 92 98
3 99 1 92
3 99 33 1
3 100 33 99
3 100 14 33
3 56 100 24
3 101 100 56
3 101 14 100
3 101 68 14
3 102 68 101
3 102 351 353
3 353 352 68
3 351 352 353
3 67 57 6
3 103 57 67
3 103 25 57
3 58 103 13
3 104 103 58
3 104 25 103
3 104 102 25
3 105 102 104
3 105 354 356
3 356 355 102
3 354 355 356
3 105 357 358
3 360 359 105
3 362 361 26
