ply
format ascii 1.0
element vertex 397
property float x
property float y
property float z
element face 424
property list uchar int vertex_index
end_header
-4.84901 20.338627 53.584236
10.067377 30.895485 59.100849
-5.587218 9.870329 55.928837
1.542392 13.556865 59.557205
16.347269 21.786613 65.487411
23.078144 25.951687 65.479103
2.514397 25.194952 56.47451
8.954453 17.128925 62.963459
19.882843 23.780363 66.014908
-8.489848 17.933165 51.772488
-4.299783 26.105581 52.034351
-0.634149 28.781446 53.23756
-1.2367 22.917229 55.013878
4.690907 9.64704 62.511787
5.131239 15.32574 61.223057
8.526821 11.201527 64.337936
12.331484 12.901729 65.975815
7.005913 34.673969 55.622032
-11.597188 10.474047 51.2416
-8.575659 12.7699 53.054028
-5.310946 14.860848 54.830627
-1.60626 17.100113 56.608215
-2.085869 11.592557 57.820107
13.129683 26.534208 62.48241
13.686233 33.484062 60.324448
16.819893 28.965656 63.497456
3.179906 31.598673 54.430809
6.345139 27.960848 57.829613
2.063878 19.193094 58.223732
5.70697 21.344217 59.735775
9.557348 23.719343 61.305977
12.701675 19.468105 64.399826
-6.692063 19.189861 52.693718
-8.206762 20.673477 51.199219
-6.473364 21.985044 52.005795
-6.222353 24.760918 51.275684
-4.645636 23.242298 52.796516
-2.723981 24.538723 53.55146
-3.018609 21.429667 54.408543
6.353403 7.617781 64.015182
6.647957 10.264968 63.500031
8.291989 8.303608 64.948593
10.167439 9.008098 65.808525
8.456666 32.664135 57.379272
10.356116 34.121422 58.028389
-8.592649 10.296899 53.661869
-7.001745 11.386422 54.551796
-7.001916 13.954224 53.897278
-5.363682 12.279234 55.468639
-3.631554 13.320566 56.358913
-3.92018 10.903235 56.797081
14.786394 24.250963 64.068481
15.030713 27.674999 63.106503
16.673733 25.301903 64.595306
21.54487 24.793581 65.908195
20.038258 27.543617 64.924324
21.644119 28.576553 64.764389
0.995665 27.062311 54.86824
1.314111 30.010387 53.920979
2.930827 28.227852 55.60004
4.719132 29.736618 56.129658
4.459897 26.520491 57.182194
-0.053431 15.397236 58.062397
0.246944 18.063341 57.467945
1.858381 16.222969 58.994831
7.091933 16.31937 62.102158
5.406367 18.31646 60.505096
7.392858 19.35927 61.378273
7.577421 22.414747 60.525356
9.272155 20.573002 62.127491
11.121367 21.632908 62.888435
10.84669 18.286652 63.716511
14.148255 13.869853 66.623169
17.909719 19.25798 66.741318
18.220839 22.746126 65.89238
19.696087 20.062704 66.990952
21.469074 21.180954 66.909958
23.051863 22.069683 66.589699
24.433846 22.967922 65.993248
-10.096434 16.672386 50.896961
-3.982207 29.115671 51.122269
-2.128729 30.453552 51.705112
-2.478567 27.385332 52.672256
-0.779496 25.847166 54.256134
0.672829 23.884741 55.831581
3.123879 11.43621 61.095955
3.409187 14.298143 60.481781
5.099632 12.458028 62.002502
6.88274 13.270123 62.833878
8.823576 14.020451 63.756672
10.673248 15.112896 64.504509
10.478308 11.883064 65.252014
-11.719533 12.911317 50.537693
-10.153267 11.727684 52.103527
-10.151103 14.271279 51.469681
-8.500658 15.37278 52.44558
-6.860767 16.643291 53.28759
-5.019484 17.600389 54.275173
-3.267278 18.58996 55.124386
-3.486056 15.93237 55.746822
-1.950447 14.386136 57.157684
-0.313032 12.670256 58.655922
-0.582868 9.939786 59.212593
1.207991 10.769943 60.108578
2.776941 8.836874 61.577934
11.484853 28.464895 60.86935
11.922412 31.941486 59.862724
13.470432 29.976007 61.494442
15.326862 31.288258 62.018532
16.957396 32.893909 62.194046
18.419146 26.366465 64.893539
18.421053 30.335381 63.623581
-0.169845 31.829023 52.31041
1.705021 33.446857 52.777569
5.165376 32.955929 55.134693
6.709293 31.268299 56.800236
8.296515 29.118692 58.640232
-1.469747 19.864492 55.861492
0.33388 20.879339 56.641369
2.232853 22.209249 57.346588
3.56471 17.323627 59.700146
3.87967 20.144201 59.01722
4.159291 23.251785 58.156475
6.038833 24.480921 58.885025
7.905153 25.763889 59.59906
9.813125 27.12184 60.316002
11.402688 24.978842 62.003124
12.959227 22.824266 63.557644
14.587009 20.503637 65.066559
12.609243 16.118982 65.275185
14.283528 17.127556 65.841286
16.122637 18.245213 66.360069
12.150188 35.751419 58.510559
8.071825 6.979095 65.151364
7.322696 7.960695 64.481887
7.102532 6.636182 64.684658
9.116446 7.30069 65.645389
8.071825 6.979095 65.151364
-6.294481 10.628376 55.240317
-7.025659 10.182977 54.837895
-6.318395 9.424931 55.526415
23.172176 27.878685 64.856792
22.455164 29.191118 64.499436
22.361131 27.26412 65.121746
23.804878 26.240476 65.191105
23.172176 27.878685 64.856792
19.653968 18.23187 67.447014
18.802903 19.660342 66.866135
18.760784 17.829508 67.322197
22.202296 19.714176 67.260758
21.360597 19.326462 67.383095
22.99369 20.158541 67.100628
22.260469 21.625318 66.749829
22.202296 19.714176 67.260758
23.756694 20.551869 66.816697
22.99369 20.158541 67.100628
-9.182759 18.639981 51.059138
-9.986052 18.009591 50.621374
-9.293141 17.302775 51.334725
-9.001904 21.388552 50.403277
-8.173255 22.061906 50.798941
-5.115766 26.853497 51.256628
-6.077051 26.181166 50.877294
-5.261068 25.43325 51.655017
-4.140995 27.610626 51.57831
-4.956978 28.358542 50.800587
-5.115766 26.853497 51.256628
11.181438 9.356993 66.255612
11.026299 7.973396 66.503456
7.167834 36.411537 54.997366
6.250332 35.571249 54.757398
-12.325245 11.107386 50.459877
-12.982655 10.565846 50.027656
-12.254599 9.932507 50.809379
-11.658361 11.692682 50.889646
-12.386417 12.326021 50.107923
-12.325245 11.107386 50.459877
0.196185 9.09804 59.919796
-0.689979 8.737414 59.456312
1.091615 9.513119 60.367789
0.312561 10.354864 59.660585
0.196185 9.09804 59.919796
1.87609 8.546584 61.102466
1.992466 9.803408 60.843256
1.091615 9.513119 60.367789
19.299208 30.832689 63.669533
19.229655 28.939499 64.273953
20.10781 29.436807 64.319905
18.54086 32.246136 62.987009
19.299208 30.832689 63.669533
25.731476 21.550397 65.72234
25.09266 23.19702 65.591599
25.072661 21.3213 66.123989
3.418387 33.259954 53.901503
2.680944 34.184045 53.074883
2.442463 32.522765 53.604189
4.172641 32.277301 54.782751
4.411122 33.938581 54.253445
3.418387 33.259954 53.901503
15.116459 15.935405 66.514027
14.215892 15.498704 66.232227
15.048822 14.306554 66.904968
16.036013 16.494234 66.773418
15.203083 17.686384 66.100677
15.116459 15.935405 66.514027
16.969903 16.961761 66.990146
16.036013 16.494234 66.773418
-7.306556 22.71769 51.202229
-8.173255 22.061906 50.798941
-7.340063 21.32926 51.602507
-6.347859 23.372981 51.640739
-7.181051 24.105627 50.837173
-7.306556 22.71769 51.202229
10.054171 7.652935 66.075356
9.229714 8.655853 65.378559
9.116446 7.30069 65.645389
11.026299 7.973396 66.503456
10.054171 7.652935 66.075356
8.69122 34.485319 56.791219
7.965844 35.490236 55.912599
7.731289 33.669052 56.500652
9.640945 35.213963 57.115778
8.69122 34.485319 56.791219
9.406391 33.392779 57.70383
10.564728 35.969744 57.405157
9.640945 35.213963 57.115778
-11.556006 9.38099 51.546186
-12.254599 9.932507 50.809379
-7.82111 9.638216 54.392931
-8.597558 9.185074 53.936665
-7.797197 10.84166 54.106833
-7.82111 9.638216 54.392931
-7.025659 10.182977 54.837895
20.91074 29.953274 64.239937
20.10781 29.436807 64.319905
20.841189 28.060085 64.844357
21.755744 30.44986 64.142851
20.91074 29.953274 64.239937
22.566789 31.064425 63.877898
21.755744 30.44986 64.142851
22.455164 29.191118 64.499436
14.09375 12.21331 67.005516
13.23987 13.385791 66.299492
13.185364 11.729248 66.681839
15.002684 12.649235 67.288178
14.09375 12.21331 67.005516
15.048822 14.306554 66.904968
15.002684 12.649235 67.288178
13.816012 35.331455 59.670212
14.535526 34.235022 60.499376
-5.615132 8.730498 56.197291
-6.318395 9.424931 55.526415
-4.817125 9.212691 56.620149
-5.615132 8.730498 56.197291
20.474104 18.767337 67.423592
19.653968 18.23187 67.447014
20.58258 20.621829 66.950455
20.474104 18.767337 67.423592
21.360597 19.326462 67.383095
24.447685 21.000988 66.518471
23.742854 22.518802 66.291473
23.756694 20.551869 66.816697
25.072661 21.3213 66.123989
24.447685 21.000988 66.518471
-10.83388 17.392181 50.117005
-10.861297 16.043976 50.443966
-10.83388 17.392181 50.117005
-9.986052 18.009591 50.621374
-9.041216 20.010137 50.772503
-9.182759 18.639981 51.059138
-8.348305 19.303321 51.485854
-9.041216 20.010137 50.772503
-9.001904 21.388552 50.403277
-6.995672 25.54316 50.494958
-7.181051 24.105627 50.837173
-6.995672 25.54316 50.494958
-6.077051 26.181166 50.877294
-4.786927 29.860075 50.352261
-4.956978 28.358542 50.800587
-3.83815 30.742978 50.577729
-4.642869 31.487382 49.807721
-4.786927 29.860075 50.352261
-3.055468 29.784611 51.413691
-2.91141 31.411918 50.86915
-3.83815 30.742978 50.577729
11.336872 10.794476 65.977356
10.322874 10.445581 65.53027
11.181438 9.356993 66.255612
12.26346 11.303808 66.339257
11.404896 12.392397 65.613914
11.336872 10.794476 65.977356
13.185364 11.729248 66.681839
12.26346 11.303808 66.339257
7.167834 36.411537 54.997366
7.965844 35.490236 55.912599
-12.400367 13.576539 49.787792
-12.386417 12.326021 50.107923
-11.672847 14.163442 50.264332
-12.400367 13.576539 49.787792
-10.868382 9.87109 51.984619
-11.556006 9.38099 51.546186
-9.366112 9.782516 53.194754
-8.597558 9.185074 53.936665
-10.146421 10.497909 52.415582
-9.366112 9.782516 53.194754
-9.372958 11.012291 52.882698
-10.875227 11.100866 51.672563
-10.868382 9.87109 51.984619
-10.146421 10.497909 52.415582
-10.888632 14.843423 50.730326
-11.672847 14.163442 50.264332
-10.935318 13.591298 51.003687
-10.123769 15.471832 51.183321
-10.861297 16.043976 50.443966
-10.888632 14.843423 50.730326
-3.983607 9.729143 57.054271
-4.753699 10.386782 56.362959
-4.817125 9.212691 56.620149
-3.137579 10.076059 57.525885
-3.983607 9.729143 57.054271
-2.220423 10.42072 58.037397
-3.003025 11.247896 57.308594
-3.137579 10.076059 57.525885
-1.468923 9.594334 58.73364
-0.689979 8.737414 59.456312
-1.334369 10.766171 58.51635
-2.220423 10.42072 58.037397
-1.468923 9.594334 58.73364
2.643876 7.642717 61.806146
1.87609 8.546584 61.102466
3.622249 7.918589 62.322508
2.643876 7.642717 61.806146
4.579232 8.323671 62.789434
3.733924 9.241957 62.04486
3.622249 7.918589 62.322508
5.41048 7.309042 63.541131
5.522155 8.632411 63.263484
4.579232 8.323671 62.789434
6.113362 6.350419 64.192142
5.41048 7.309042 63.541131
6.862491 5.36882 64.861618
7.102532 6.636182 64.684658
6.113362 6.350419 64.192142
15.35584 33.137119 61.346418
14.535526 34.235022 60.499376
14.506547 32.38616 61.17149
16.171107 33.939945 61.434175
15.35584 33.137119 61.346418
16.142129 32.091083 62.106289
17.07377 34.777275 61.529001
16.171107 33.939945 61.434175
17.809031 33.5254 62.272241
17.689225 31.614645 62.908814
18.54086 32.246136 62.987009
17.07377 34.777275 61.529001
17.809031 33.5254 62.272241
24.482729 24.748594 65.448177
23.804878 26.240476 65.191105
23.755995 24.459805 65.736176
24.482729 24.748594 65.448177
25.09266 23.19702 65.591599
-1.932729 32.073749 51.174183
-2.91141 31.411918 50.86915
-0.953288 32.761485 51.476832
-1.932729 32.073749 51.174183
-1.149287 31.141287 52.007761
-0.03232 33.436847 51.739368
-0.815763 34.369309 50.90579
-0.953288 32.761485 51.476832
0.905113 34.245764 51.972948
-0.03232 33.436847 51.739368
0.767588 32.63794 52.543989
1.92253 35.084762 52.231376
0.905113 34.245764 51.972948
1.92253 35.084762 52.231376
2.680944 34.184045 53.074883
5.330063 34.712229 54.513729
4.411122 33.938581 54.253445
6.085644 33.814949 55.378362
6.250332 35.571249 54.757398
5.330063 34.712229 54.513729
17.863444 17.468145 67.180771
17.016178 18.751596 66.550693
16.969903 16.961761 66.990146
18.760784 17.829508 67.322197
17.863444 17.468145 67.180771
11.461763 36.784743 57.646242
10.564728 35.969744 57.405157
11.253152 34.93642 58.269474
13.04799 36.465134 58.763267
12.918211 34.61774 59.417503
13.816012 35.331455 59.670212
12.411916 37.691799 57.868341
13.04799 36.465134 58.763267
11.723491 38.725122 57.004024
11.461763 36.784743 57.646242
12.411916 37.691799 57.868341
3 0 34 32
3 0 36 34
3 0 38 36
3 133 41 134
3 135 134 39
3 133 134 135
3 137 136 41
3 1 44 43
3 2 138 140
3 138 46 139
3 138 139 140
3 2 48 46
3 2 50 48
3 4 53 51
3 5 56 54
3 5 141 143
3 143 142 56
3 141 142 143
3 5 144 145
3 6 59 57
3 6 61 59
3 3 64 62
3 7 67 65
3 7 69 67
3 7 71 69
3 146 75 147
3 148 147 73
3 146 147 148
3 149 76 150
3 151 77 152
3 153 152 76
3 151 152 153
3 155 154 77
3 9 156 158
3 158 157 79
3 156 157 158
3 160 159 33
3 10 161 163
3 163 162 35
3 161 162 163
3 10 164 166
3 164 80 165
3 164 165 166
3 10 82 80
3 12 83 37
3 12 84 83
3 13 87 85
3 15 88 40
3 15 89 88
3 15 91 89
3 168 167 42
3 17 169 170
3 18 171 173
3 171 172 173
3 18 174 176
3 174 92 175
3 174 175 176
3 19 93 45
3 19 94 93
3 19 95 94
3 20 96 47
3 20 97 96
3 20 99 97
3 22 100 49
3 22 101 100
3 177 102 178
3 179 103 180
3 181 180 102
3 179 180 181
3 182 104 183
3 184 183 103
3 182 183 184
3 23 107 105
3 25 108 52
3 25 109 108
3 8 110 74
3 185 111 186
3 187 186 55
3 185 186 187
3 189 188 111
3 192 191 78
3 190 191 192
3 11 112 81
3 26 113 58
3 26 193 195
3 195 194 113
3 193 194 195
3 26 196 198
3 196 114 197
3 196 197 198
3 27 115 60
3 27 116 115
3 21 117 98
3 28 118 63
3 28 119 118
3 14 120 86
3 29 121 66
3 29 122 121
3 29 123 122
3 30 124 68
3 30 125 124
3 30 126 125
3 31 127 70
3 31 128 127
3 16 129 90
3 199 130 200
3 201 200 72
3 199 200 201
3 202 131 203
3 204 203 130
3 202 203 204
3 206 205 131
3 24 132 106
3 32 33 9
3 34 33 32
3 34 207 209
3 209 208 33
3 207 208 209
3 34 210 212
3 210 35 211
3 210 211 212
3 36 35 34
3 36 10 35
3 36 37 10
3 38 37 36
3 38 12 37
3 39 40 13
3 41 40 39
3 41 15 40
3 41 42 15
3 213 42 214
3 215 214 41
3 213 214 215
3 217 216 42
3 43 218 220
3 220 219 17
3 218 219 220
3 44 221 223
3 223 222 43
3 221 222 223
3 44 224 225
3 226 18 227
3 228 45 229
3 46 230 232
3 230 45 231
3 230 231 232
3 46 19 45
3 46 47 19
3 48 47 46
3 48 20 47
3 48 49 20
3 50 49 48
3 50 22 49
3 51 52 23
3 53 52 51
3 53 25 52
3 54 55 8
3 56 55 54
3 56 233 235
3 235 234 55
3 233 234 235
3 56 236 237
3 240 239 56
3 238 239 240
3 57 58 11
3 59 58 57
3 59 26 58
3 59 60 26
3 61 60 59
3 61 27 60
3 62 63 21
3 64 63 62
3 64 28 63
3 65 66 14
3 67 66 65
3 67 29 66
3 67 68 29
3 69 68 67
3 69 30 68
3 69 70 30
3 71 70 69
3 71 31 70
3 241 72 242
3 243 242 16
3 241 242 243
3 244 72 245
3 247 246 72
3 249 248 24
3 250 2 251
3 253 252 2
3 73 74 4
3 75 74 73
3 75 8 74
3 254 75 255
3 76 256 258
3 256 75 257
3 256 257 258
3 76 8 75
3 76 54 8
3 77 54 76
3 77 5 54
3 77 78 5
3 259 78 260
3 261 260 77
3 259 260 261
3 263 262 78
3 79 264 265
3 267 266 79
3 33 268 270
3 270 269 9
3 268 269 270
3 272 271 33
3 35 273 274
3 276 275 35
3 80 277 278
3 80 279 281
3 279 280 281
3 80 282 284
3 282 81 283
3 282 283 284
3 82 81 80
3 82 11 81
3 37 82 10
3 83 82 37
3 83 11 82
3 83 57 11
3 84 57 83
3 84 6 57
3 85 86 3
3 87 86 85
3 87 14 86
3 40 87 13
3 88 87 40
3 88 14 87
3 88 65 14
3 89 65 88
3 89 7 65
3 89 90 7
3 91 90 89
3 91 16 90
3 42 91 15
3 285 91 286
3 287 286 42
3 285 286 287
3 288 16 289
3 290 289 91
3 288 289 290
3 292 291 16
3 294 293 17
3 92 295 296
3 92 297 298
3 299 18 300
3 45 301 302
3 93 303 305
3 305 304 45
3 303 304 305
3 93 306 308
3 306 18 307
3 306 307 308
3 93 92 18
3 94 92 93
3 94 309 311
3 311 310 92
3 309 310 311
3 94 312 314
3 312 79 313
3 312 313 314
3 95 79 94
3 95 9 79
3 47 95 19
3 96 95 47
3 96 9 95
3 96 32 9
3 97 32 96
3 97 0 32
3 97 98 0
3 99 98 97
3 99 21 98
3 49 99 20
3 100 99 49
3 100 21 99
3 100 62 21
3 101 62 100
3 101 3 62
3 315 50 316
3 317 316 2
3 315 316 317
3 318 50 319
3 320 22 321
3 322 321 50
3 320 321 322
3 102 323 324
3 102 325 327
3 325 22 326
3 325 326 327
3 102 101 22
3 103 101 102
3 103 3 101
3 103 85 3
3 104 85 103
3 104 13 85
3 328 104 329
3 330 104 331
3 332 13 333
3 334 333 104
3 332 333 334
3 335 39 336
3 337 336 13
3 335 336 337
3 338 39 339
3 342 341 39
3 340 341 342
3 105 106 1
3 107 106 105
3 107 24 106
3 52 107 23
3 108 107 52
3 108 24 107
3 108 343 345
3 345 344 24
3 343 344 345
3 109 346 348
3 348 347 108
3 346 347 348
3 109 349 350
3 74 53 4
3 110 53 74
3 110 25 53
3 55 110 8
3 111 110 55
3 111 25 110
3 111 109 25
3 351 109 352
3 353 352 111
3 351 352 353
3 355 354 109
3 78 356 358
3 358 357 5
3 356 357 358
3 360 359 78
3 81 361 362
3 112 363 365
3 365 364 81
3 363 364 365
3 112 366 368
3 366 367 368
3 58 112 11
3 113 112 58
3 113 369 371
3 371 370 112
3 369 370 371
3 113 372 373
3 375 374 113
3 114 376 377
3 114 378 380
3 378 17 379
3 378 379 380
3 60 114 26
3 115 114 60
3 115 17 114
3 115 43 17
3 116 43 115
3 116 1 43
3 98 38 0
3 117 38 98
3 117 12 38
3 63 117 21
3 118 117 63
3 118 12 117
3 118 84 12
3 119 84 118
3 119 6 84
3 86 64 3
3 120 64 86
3 120 28 64
3 66 120 14
3 121 120 66
3 121 28 120
3 121 119 28
3 122 119 121
3 122 6 119
3 122 61 6
3 123 61 122
3 123 27 61
3 68 123 29
3 124 123 68
3 124 27 123
3 124 116 27
3 125 116 124
3 125 1 116
3 125 105 1
3 126 105 125
3 126 23 105
3 70 126 30
3 127 126 70
3 127 23 126
3 127 51 23
3 128 51 127
3 128 4 51
3 90 71 7
3 129 71 90
3 129 31 71
3 72 129 16
3 130 129 72
3 130 31 129
3 130 128 31
3 131 128 130
3 131 4 128
3 131 73 4
3 381 73 382
3 383 382 131
3 381 382 383
3 385 384 73
3 106 44 1
3 132 44 106
3 132 386 388
3 388 387 44
3 386 387 388
3 389 132 390
3 391 390 24
3 389 390 391
3 392 132 393
3 396 395 132
3 394 395 396
