ply
format ascii 1.0
element vertex 109
property float x
property float y
property float z
element face 93
property list uchar int vertex_index
end_header
12.588191 105.789536 -27.833925
5.280593 104.559265 -17.699146
7.092803 103.794754 -28.62331
8.792567 105.853737 -22.905666
10.54855 106.822289 -16.619987
13.905029 107.424782 -21.618961
9.803625 104.900963 -28.323803
6.050222 104.63369 -23.321138
6.996816 105.365433 -20.364178
11.055572 106.749619 -13.203153
12.842025 107.477516 -16.048254
12.287004 107.315025 -19.20952
14.787679 107.818268 -18.524023
15.130195 106.283897 -27.345306
7.8895 104.960037 -25.757811
10.675424 106.015945 -25.392666
6.078831 104.741547 -14.575558
8.68903 105.919647 -14.049932
7.895255 105.799881 -17.292286
9.812066 106.532898 -19.799406
11.427188 106.798454 -22.332752
13.227603 106.752792 -24.801723
12.22665 105.142941 -29.29849
10.834367 104.698655 -29.543429
11.195908 105.345249 -28.078864
4.855434 104.326027 -19.126464
3.901025 103.787811 -17.746609
6.138704 104.962349 -19.031662
5.713545 104.729111 -20.45898
4.855434 104.326027 -19.126464
13.988185 107.677105 -15.627527
13.128478 107.423038 -14.317362
14.961012 107.847481 -16.865411
13.814852 107.647892 -17.286138
13.988185 107.677105 -15.627527
15.879868 107.900742 -18.029732
14.961012 107.847481 -16.865411
6.678489 103.061702 -29.960824
5.650721 103.104363 -28.661293
16.08922 105.834323 -28.548609
16.37113 106.383132 -26.960477
6.531709 104.741917 -13.011029
5.307403 104.118771 -13.240349
14.837639 107.293201 -22.902878
14.498926 106.957206 -24.494259
13.566316 107.088787 -23.210342
9.437798 104.202393 -29.754636
8.082387 103.649288 -29.90439
8.448214 104.347859 -28.473557
9.437798 104.202393 -29.754636
10.834367 104.698655 -29.543429
5.240248 104.363239 -21.93746
4.706155 103.93887 -23.357228
6.523519 104.999561 -21.842658
5.240248 104.363239 -21.93746
5.713545 104.729111 -20.45898
12.235252 107.05909 -12.894812
11.449113 106.641518 -11.561102
11.948798 107.113567 -14.625704
12.235252 107.05909 -12.894812
13.128478 107.423038 -14.317362
15.588544 107.75594 -19.846428
15.147219 107.559196 -21.393897
14.346354 107.621525 -20.071492
15.588544 107.75594 -19.846428
15.879868 107.900742 -18.029732
4.426985 103.982105 -16.31384
3.901025 103.787811 -17.746609
6.678489 103.061702 -29.960824
8.082387 103.649288 -29.90439
14.849333 105.68449 -28.866534
13.578331 105.437309 -29.110844
13.859193 106.036716 -27.589616
14.849333 105.68449 -28.866534
16.08922 105.834323 -28.548609
6.207138 103.754669 -27.419968
5.650721 103.104363 -28.661293
5.685847 104.174137 -24.768883
4.706155 103.93887 -23.357228
6.605486 104.337311 -25.987219
5.685847 104.174137 -24.768883
6.969861 104.796864 -24.539475
7.491151 104.377396 -27.190561
6.207138 103.754669 -27.419968
6.605486 104.337311 -25.987219
4.826104 104.073246 -14.752046
5.307403 104.118771 -13.240349
5.679712 104.650406 -16.137352
4.426985 103.982105 -16.31384
4.826104 104.073246 -14.752046
10.226797 106.238327 -11.92341
11.449113 106.641518 -11.561102
9.043527 105.823341 -12.3468
10.226797 106.238327 -11.92341
9.872301 106.334633 -13.626542
7.836809 105.330967 -12.748216
9.043527 105.823341 -12.3468
7.38393 105.330597 -14.312745
6.531709 104.741917 -13.011029
7.836809 105.330967 -12.748216
15.450222 106.722759 -25.766051
14.178899 106.518344 -26.073515
14.498926 106.957206 -24.494259
16.37113 106.383132 -26.960477
15.450222 106.722759 -25.766051
14.837639 107.293201 -22.902878
15.147219 107.559196 -21.393897
12.22665 105.142941 -29.29849
13.578331 105.437309 -29.110844
3 0 22 24
3 24 23 6
3 22 23 24
3 1 25 26
3 1 27 29
3 27 8 28
3 27 28 29
3 30 10 31
3 32 12 33
3 34 33 10
3 32 33 34
3 36 35 12
3 2 37 38
3 40 39 13
3 3 14 7
3 3 15 14
3 41 16 42
3 4 17 9
3 4 18 17
3 4 19 18
3 5 20 11
3 5 21 20
3 5 43 45
3 45 44 21
3 43 44 45
3 6 46 48
3 48 47 2
3 46 47 48
3 50 49 6
3 51 7 52
3 8 53 55
3 53 7 54
3 53 54 55
3 8 3 7
3 56 9 57
3 10 58 60
3 58 9 59
3 58 59 60
3 10 4 9
3 10 11 4
3 12 11 10
3 12 5 11
3 12 61 63
3 63 62 5
3 61 62 63
3 65 64 12
3 66 1 67
3 69 68 2
3 13 70 72
3 72 71 0
3 70 71 72
3 74 73 13
3 75 2 76
3 7 77 78
3 14 79 81
3 81 80 7
3 79 80 81
3 14 82 84
3 82 2 83
3 82 83 84
3 14 6 2
3 15 6 14
3 15 0 6
3 16 85 86
3 16 87 89
3 87 1 88
3 87 88 89
3 9 90 91
3 17 92 94
3 94 93 9
3 92 93 94
3 17 95 96
3 17 97 99
3 97 16 98
3 97 98 99
3 18 16 17
3 18 1 16
3 18 8 1
3 19 8 18
3 19 3 8
3 11 19 4
3 20 19 11
3 20 3 19
3 20 15 3
3 21 15 20
3 21 0 15
3 21 13 0
3 100 13 101
3 102 101 21
3 100 101 102
3 104 103 13
3 106 105 5
3 108 107 0
