ply
format ascii 1.0
element vertex 76
property float x
property float y
property float z
element face 60
property list uchar int vertex_index
end_header
-17.198212 10.592589 45.956512
-19.94381 12.913456 42.33535
-17.446987 15.6266 44.439274
-14.545677 13.135626 47.974007
-18.584778 11.91135 44.136673
-18.698315 14.35682 43.389252
-17.302372 13.033263 45.246986
-20.028307 15.376603 41.582825
-18.805439 16.837313 42.617596
-15.680571 9.516026 47.761711
-15.918391 11.88544 46.950134
-16.077282 14.288371 46.199631
-17.764653 9.994419 45.501268
-17.027808 9.451109 46.416511
-17.891495 11.25197 45.046593
-18.457935 10.6538 44.591349
-17.764653 9.994419 45.501268
-19.986058 14.145029 41.959087
-20.636951 14.768843 41.013027
-20.594702 13.53727 41.38929
-17.437804 16.806638 44.140135
-18.11703 17.411994 43.229296
-18.126213 16.231957 43.528435
-20.544415 12.32554 41.782263
-19.844353 11.785064 42.742123
-20.594702 13.53727 41.38929
-20.544415 12.32554 41.782263
-15.049683 10.122351 48.221035
-14.916933 8.922751 48.636947
-14.916933 8.922751 48.636947
-15.539411 8.364411 48.185869
-14.775773 7.771136 49.061105
-19.164837 11.284011 43.642784
-18.457935 10.6538 44.591349
-19.264294 12.412403 43.236012
-19.844353 11.785064 42.742123
-19.164837 11.284011 43.642784
-14.573239 14.302358 47.660412
-13.813439 13.688694 48.505949
-20.679063 15.989586 40.614431
-20.636951 14.768843 41.013027
-20.049889 16.588957 41.2204
-20.700645 17.20194 40.252007
-20.679063 15.989586 40.614431
-19.438454 17.319312 41.737786
-20.049889 16.588957 41.2204
-19.416873 16.106958 42.100211
-18.824095 18.053024 42.258158
-19.438454 17.319312 41.737786
-18.824095 18.053024 42.258158
-18.11703 17.411994 43.229296
-15.168593 11.307058 47.815247
-15.799481 10.700733 47.355922
-15.049683 10.122351 48.221035
-14.482236 11.932151 48.327183
-15.232034 12.510533 47.46207
-15.168593 11.307058 47.815247
-13.799489 12.438175 48.826081
-14.482236 11.932151 48.327183
-13.813439 13.688694 48.505949
-13.799489 12.438175 48.826081
-16.268988 8.912827 47.319111
-15.539411 8.364411 48.185869
-16.439391 10.054308 46.859111
-17.027808 9.451109 46.416511
-16.268988 8.912827 47.319111
-15.339042 14.87873 46.773224
-15.31148 13.711998 47.086819
-14.573239 14.302358 47.660412
-16.058652 15.553272 45.900019
-15.339042 14.87873 46.773224
-16.743505 16.222386 45.019841
-16.762135 14.957486 45.319452
-16.058652 15.553272 45.900019
-17.437804 16.806638 44.140135
-16.743505 16.222386 45.019841
3 0 6 4
3 0 12 13
3 0 14 16
3 14 4 15
3 14 15 16
3 1 17 19
3 17 7 18
3 17 18 19
3 2 8 5
3 2 20 22
3 22 21 8
3 20 21 22
3 1 23 24
3 1 25 26
3 28 27 9
3 29 9 30
3 29 30 31
3 3 11 10
3 4 5 1
3 6 5 4
3 6 2 5
3 4 32 33
3 4 34 36
3 34 1 35
3 34 35 36
3 38 37 3
3 7 39 40
3 7 41 43
3 41 42 43
3 5 7 1
3 8 7 5
3 8 44 46
3 46 45 7
3 44 45 46
3 8 47 48
3 50 49 8
3 9 10 0
3 51 10 52
3 53 52 9
3 51 52 53
3 54 3 55
3 56 55 10
3 54 55 56
3 57 3 58
3 60 59 3
3 9 61 62
3 9 63 65
3 63 0 64
3 63 64 65
3 10 6 0
3 11 6 10
3 11 2 6
3 66 11 67
3 68 67 3
3 66 67 68
3 69 11 70
3 71 2 72
3 73 72 11
3 71 72 73
3 75 74 2
