ply
format ascii 1.0
element vertex 296
property float x
property float y
property float z
element face 292
property list uchar int vertex_index
end_header
17.241879 88.481178 26.429325
13.464132 60.684536 47.224503
-0.148513 58.804996 39.270344
7.788511 67.332054 39.135071
9.629138 80.467567 29.711304
15.572306 75.611443 37.837547
-4.03351 54.929577 38.951721
2.918591 55.88118 43.009815
10.646885 64.421936 43.072845
11.619124 71.370583 38.772312
14.463529 68.461357 42.717411
18.233772 71.834801 42.045895
17.248285 64.646339 46.734131
14.295361 90.617554 22.478405
-3.163933 61.363049 35.492836
3.699585 62.837261 39.344936
6.691823 59.850239 43.241848
13.534868 84.834038 28.199711
8.756617 74.270538 34.522747
12.811666 78.454735 33.74456
16.443193 82.217316 32.439625
19.291204 79.042831 36.438156
18.677933 87.033226 28.505241
12.012352 62.412579 45.251472
12.612301 66.321564 43.081066
13.984997 64.491982 45.148262
15.849061 66.467873 44.866364
15.353656 62.608768 47.130798
-2.120765 56.862629 39.112942
-3.518925 58.202129 37.304451
-1.721919 60.1581 37.33651
-1.237623 63.480282 35.47308
0.225331 62.181244 37.386269
2.243209 64.301682 37.37149
1.863674 60.897465 39.333
4.871537 57.918465 43.145168
12.05064 85.76355 26.258385
11.552681 82.711281 28.953894
6.208213 68.65889 37.070263
6.767687 72.109055 34.840973
8.197563 70.795898 36.872688
13.624142 73.407646 38.475132
12.21334 75.028351 36.26524
14.208841 77.063965 35.831284
14.63519 80.480385 33.067184
15.956764 79.049141 35.103279
17.9499 80.800789 34.43013
17.443676 77.458427 37.201378
19.596695 70.012932 43.781494
20.059713 73.624146 41.12817
1.281937 57.410904 41.060448
9.157479 65.620346 41.267078
9.681625 69.199081 39.096321
11.14467 67.852219 41.060005
12.991599 69.915848 40.761414
15.035342 71.937622 40.466705
16.873585 73.773094 39.987232
16.359945 69.961983 42.652847
17.783924 68.320442 44.455418
19.052952 66.171562 46.343796
15.673729 89.534676 24.505558
-5.398443 56.25872 37.142319
4.350421 66.284241 37.470684
5.737008 65.023788 39.303631
3.250825 59.182076 41.319706
5.168313 61.316643 41.315613
7.103216 63.581764 41.206841
8.647472 61.98283 43.279053
10.159177 60.52993 45.181244
13.924811 87.794334 25.381454
15.484394 86.726219 27.436607
9.212802 77.357475 32.232796
10.200458 72.700645 36.786869
10.767974 76.172661 34.343437
11.300366 79.525215 31.769608
13.2218 81.741074 31.01095
15.071468 83.695343 30.272118
16.950748 85.414459 29.535727
18.323143 84.014435 31.490515
19.740873 82.471771 33.368931
18.74777 75.427979 39.374954
20.508995 76.894447 38.504929
18.082145 89.208355 25.901292
17.393149 89.851765 24.933298
17.959906 87.757202 27.467283
18.800172 88.484379 26.93925
18.082145 89.208355 25.901292
9.857001 82.074367 28.326477
8.878545 81.020439 28.624963
10.590909 81.589424 29.332599
10.818772 83.196224 27.947772
9.857001 82.074367 28.326477
20.4544 70.642285 43.405342
20.176393 68.790539 44.734663
15.177881 91.494568 21.940779
14.332541 91.904217 20.958824
14.984545 90.076115 23.491982
15.867065 90.953129 22.954355
15.177881 91.494568 21.940779
-4.715977 55.594149 38.04702
-5.621319 54.554535 38.014204
-4.938852 53.889963 38.918905
-4.05202 60.384756 35.471288
-4.229516 58.804296 36.377096
-3.341429 59.782589 36.398643
-3.835609 62.010649 34.516792
-4.05202 60.384756 35.471288
-2.896591 63.017397 34.536913
-3.568267 63.664997 33.560869
-3.835609 62.010649 34.516792
-0.977696 65.145471 34.472571
-0.232696 64.584715 35.427029
9.830728 58.616041 46.062613
9.105862 59.451977 45.103876
8.777413 57.538088 45.985245
10.859411 59.610717 46.184978
9.830728 58.616041 46.062613
7.942544 74.769825 33.519863
6.948078 73.689084 33.678976
7.762152 73.189796 34.68186
8.98471 75.814007 33.377772
8.170636 76.313294 32.374887
7.942544 74.769825 33.519863
20.156337 79.74424 35.919344
20.381172 81.458709 34.384732
19.516039 80.757301 34.903543
21.137318 75.756553 39.450434
20.284354 75.259297 39.816549
20.912676 74.121403 40.762054
21.300683 77.52824 37.941395
21.137318 75.756553 39.450434
19.531799 87.748977 27.886206
18.800172 88.484379 26.93925
19.378491 86.329956 29.391552
19.531799 87.748977 27.886206
13.445645 90.901947 21.579473
14.332541 91.904217 20.958824
0.498781 63.935196 36.383623
-0.232696 64.584715 35.427029
-0.506146 62.830763 36.429675
1.23427 63.241463 37.378879
1.50772 64.995415 36.376234
0.498781 63.935196 36.383623
4.607722 56.139242 43.95726
3.895064 56.899822 43.077492
3.631248 55.1206 43.889584
5.565072 57.033299 44.106661
4.607722 56.139242 43.95726
6.475214 57.999185 44.155
5.78168 58.884352 43.193508
5.565072 57.033299 44.106661
7.372185 59.112131 44.134178
6.475214 57.999185 44.155
11.067752 84.722359 26.600017
11.246758 86.123138 25.299067
11.801661 84.237415 27.606139
11.067752 84.722359 26.600017
10.818772 83.196224 27.947772
6.48795 70.383972 35.955618
5.789694 70.964867 35.02821
5.509956 69.239784 36.142854
20.685909 72.447891 42.07868
19.828204 71.818539 42.454832
20.4544 70.642285 43.405342
20.912676 74.121403 40.762054
20.685909 72.447891 42.07868
-4.212901 53.281318 39.780325
-4.938852 53.889963 38.918905
-3.261328 54.218621 39.888405
-4.212901 53.281318 39.780325
-2.304956 55.185147 39.969015
-3.077138 55.896103 39.032331
-3.261328 54.218621 39.888405
-1.403058 56.090065 40.046879
-2.304956 55.185147 39.969015
-0.416932 57.061249 40.12558
-1.134639 57.833813 39.191643
-1.403058 56.090065 40.046879
0.298293 56.364203 41.020632
0.566712 58.10795 40.165396
-0.416932 57.061249 40.12558
1.067497 55.647463 41.918408
0.298293 56.364203 41.020632
1.885824 54.882601 42.893091
2.100264 56.646042 42.035132
1.067497 55.647463 41.918408
2.688652 54.162211 43.787515
1.885824 54.882601 42.893091
3.40131 53.40163 44.667284
3.631248 55.1206 43.889584
2.688652 54.162211 43.787515
8.647469 79.4958 29.884214
8.878545 81.020439 28.624963
19.904522 66.869854 46.015814
20.176393 68.790539 44.734663
19.324824 68.092247 45.062645
16.609074 90.378513 23.971415
15.867065 90.953129 22.954355
16.457804 89.007927 25.467441
17.393149 89.851765 24.933298
16.609074 90.378513 23.971415
-6.299333 55.279773 37.047699
-5.621319 54.554535 38.014204
-6.058479 56.883741 36.208813
-6.299333 55.279773 37.047699
-5.169275 57.832592 36.29603
-4.458684 57.230424 37.223385
-4.229516 58.804296 36.377096
-6.058479 56.883741 36.208813
-5.169275 57.832592 36.29603
-1.933436 64.076014 34.527035
-2.896591 63.017397 34.536913
-2.200778 62.421666 35.482958
-1.67351 65.741203 33.526525
-1.933436 64.076014 34.527035
-0.977696 65.145471 34.472571
2.566625 66.035294 36.378439
1.50772 64.995415 36.376234
3.620231 67.026573 36.428036
2.566625 66.035294 36.378439
3.296815 65.292961 37.421087
4.58106 68.05246 36.343065
3.620231 67.026573 36.428036
5.279317 67.471565 37.270473
5.509956 69.239784 36.142854
4.58106 68.05246 36.343065
8.35001 60.178427 44.15278
7.669647 60.916534 43.26045
7.372185 59.112131 44.134178
9.403325 61.25638 44.230148
8.35001 60.178427 44.15278
9.105862 59.451977 45.103876
11.785998 60.552042 46.220092
11.085764 61.471255 45.216358
10.859411 59.610717 46.184978
12.511888 59.688021 47.206608
12.738242 61.548558 46.237988
11.785998 60.552042 46.220092
13.375978 89.585804 23.02863
13.445645 90.901947 21.579473
12.526262 89.870197 22.129697
12.253618 87.158802 24.918619
11.246758 86.123138 25.299067
13.190703 88.174194 24.480154
12.253618 87.158802 24.918619
12.987725 86.778942 25.81992
14.110086 89.205944 23.92993
13.375978 89.585804 23.02863
13.190703 88.174194 24.480154
5.955367 72.615738 33.844485
4.977374 71.47155 34.031721
5.789694 70.964867 35.02821
5.955367 72.615738 33.844485
6.948078 73.689084 33.678976
8.439301 77.940754 31.14496
8.170636 76.313294 32.374887
9.42097 78.912521 30.97205
8.647469 79.4958 29.884214
8.439301 77.940754 31.14496
19.201096 84.82056 30.884189
19.378491 86.329956 29.391552
18.500538 85.523831 29.997878
19.909962 84.049228 31.823397
19.201096 84.82056 30.884189
19.032008 83.243103 32.429723
20.534479 83.102184 32.811928
19.909962 84.049228 31.823397
20.534479 83.102184 32.811928
20.381172 81.458709 34.384732
20.765233 78.670048 36.952731
20.156337 79.74424 35.919344
19.900099 77.968639 37.471542
20.765233 78.670048 36.952731
21.300683 77.52824 37.941395
13.176222 58.728956 48.176632
12.511888 59.688021 47.206608
14.0888 59.669876 48.188896
13.176222 58.728956 48.176632
15.033562 60.631992 48.142044
14.408894 61.646652 47.17765
14.0888 59.669876 48.188896
15.981636 61.65558 48.026174
15.033562 60.631992 48.142044
16.92895 62.674366 47.827841
16.30097 63.627553 46.932464
15.981636 61.65558 48.026174
17.8848 63.443195 47.733151
16.92895 62.674366 47.827841
18.787134 64.205806 47.537983
18.150619 65.408951 46.538963
17.8848 63.443195 47.733151
19.611947 64.903885 47.291429
18.787134 64.205806 47.537983
19.346128 62.93813 48.485617
19.904522 66.869854 46.015814
19.611947 64.903885 47.291429
3 0 82 83
3 0 84 86
3 84 22 85
3 84 85 86
3 1 25 23
3 1 27 25
3 2 30 28
3 2 32 30
3 2 34 32
3 4 87 88
3 4 89 91
3 89 37 90
3 89 90 91
3 3 40 38
3 5 43 41
3 5 45 43
3 5 47 45
3 93 92 48
3 8 53 51
3 10 54 24
3 10 55 54
3 10 57 55
3 12 58 26
3 12 59 58
3 13 94 95
3 13 96 98
3 96 60 97
3 96 97 98
3 6 99 101
3 99 61 100
3 99 100 101
3 14 102 104
3 104 103 29
3 102 103 104
3 14 105 106
3 14 107 109
3 107 108 109
3 111 110 31
3 15 62 33
3 15 63 62
3 7 64 50
3 16 65 35
3 16 66 65
3 16 67 66
3 112 68 113
3 112 113 114
3 116 115 68
3 17 69 36
3 17 70 69
3 18 117 119
3 119 118 39
3 117 118 119
3 18 120 122
3 120 71 121
3 120 121 122
3 9 72 52
3 19 73 42
3 19 74 73
3 19 75 74
3 20 76 44
3 20 77 76
3 20 78 77
3 21 79 46
3 21 123 125
3 125 124 79
3 123 124 125
3 11 80 56
3 126 81 127
3 128 127 49
3 126 127 128
3 130 129 81
3 22 131 132
3 22 133 134
3 23 24 8
3 25 24 23
3 25 10 24
3 25 26 10
3 27 26 25
3 27 12 26
3 135 13 136
3 28 29 6
3 30 29 28
3 30 14 29
3 30 31 14
3 32 31 30
3 32 137 139
3 139 138 31
3 137 138 139
3 32 140 142
3 140 33 141
3 140 141 142
3 34 33 32
3 34 15 33
3 143 35 144
3 145 144 7
3 143 144 145
3 146 35 147
3 148 16 149
3 150 149 35
3 148 149 150
3 152 151 16
3 153 36 154
3 37 155 157
3 155 36 156
3 155 156 157
3 37 17 36
3 38 158 160
3 158 39 159
3 158 159 160
3 40 39 38
3 40 18 39
3 41 42 9
3 43 42 41
3 43 19 42
3 43 44 19
3 45 44 43
3 45 20 44
3 45 46 20
3 47 46 45
3 47 21 46
3 48 49 11
3 161 49 162
3 163 162 48
3 161 162 163
3 165 164 49
3 166 6 167
3 168 6 169
3 170 28 171
3 172 171 6
3 170 171 172
3 173 28 174
3 175 2 176
3 177 176 28
3 175 176 177
3 178 50 179
3 180 179 2
3 178 179 180
3 181 50 182
3 183 7 184
3 185 184 50
3 183 184 185
3 186 7 187
3 190 189 7
3 188 189 190
3 191 4 192
3 51 52 3
3 53 52 51
3 53 9 52
3 24 53 8
3 54 53 24
3 54 9 53
3 54 41 9
3 55 41 54
3 55 5 41
3 55 56 5
3 57 56 55
3 57 11 56
3 26 57 10
3 58 57 26
3 58 11 57
3 58 48 11
3 59 48 58
3 59 193 195
3 195 194 48
3 193 194 195
3 60 196 197
3 60 198 200
3 198 0 199
3 198 199 200
3 61 201 202
3 61 203 204
3 29 61 6
3 205 61 206
3 207 206 29
3 205 206 207
3 209 208 61
3 31 210 212
3 212 211 14
3 210 211 212
3 215 214 31
3 213 214 215
3 33 216 217
3 62 218 220
3 220 219 33
3 218 219 220
3 62 221 222
3 62 223 225
3 223 38 224
3 223 224 225
3 63 38 62
3 63 3 38
3 50 34 2
3 64 34 50
3 64 15 34
3 35 64 7
3 65 64 35
3 65 15 64
3 65 63 15
3 66 63 65
3 66 3 63
3 66 51 3
3 67 51 66
3 67 8 51
3 226 67 227
3 228 227 16
3 226 227 228
3 68 229 231
3 229 67 230
3 229 230 231
3 68 8 67
3 68 23 8
3 232 23 233
3 234 233 68
3 232 233 234
3 235 1 236
3 237 236 23
3 235 236 237
3 238 13 239
3 238 239 240
3 36 241 242
3 69 243 245
3 245 244 36
3 243 244 245
3 69 246 248
3 246 13 247
3 246 247 248
3 69 60 13
3 70 60 69
3 70 0 60
3 39 249 251
3 249 250 251
3 253 252 39
3 71 254 255
3 71 256 258
3 256 4 257
3 256 257 258
3 52 40 3
3 72 40 52
3 72 18 40
3 42 72 9
3 73 72 42
3 73 18 72
3 73 71 18
3 74 71 73
3 74 4 71
3 74 37 4
3 75 37 74
3 75 17 37
3 44 75 19
3 76 75 44
3 76 17 75
3 76 70 17
3 77 70 76
3 77 0 70
3 77 22 0
3 78 22 77
3 78 259 261
3 261 260 22
3 259 260 261
3 46 78 20
3 79 78 46
3 79 262 264
3 264 263 78
3 262 263 264
3 79 265 266
3 268 267 79
3 56 47 5
3 80 47 56
3 80 21 47
3 49 80 11
3 81 80 49
3 81 21 80
3 81 269 271
3 271 270 21
3 269 270 271
3 273 272 81
3 274 1 275
3 276 1 277
3 278 27 279
3 280 279 1
3 278 279 280
3 281 27 282
3 283 12 284
3 285 284 27
3 283 284 285
3 286 12 287
3 288 59 289
3 290 289 12
3 288 289 290
3 291 59 292
3 291 292 293
3 295 294 59
