ply
format ascii 1.0
element vertex 311
property float x
property float y
property float z
element face 304
property list uchar int vertex_index
end_header
-10.136556 -96.101494 -24.153463
-0.580238 -100.491051 -8.514034
18.276472 -105.967598 -24.5306
-5.68495 -99.692657 -17.844793
23.142195 -104.366394 -12.520055
14.941969 -107.783859 -16.144697
4.244252 -105.710678 -17.944674
19.496836 -106.79863 -14.569916
4.32352 -102.894623 -8.231812
7.036388 -105.585159 -12.707526
1.81953 -103.564156 -13.525885
-0.806883 -103.152046 -18.142584
-3.097589 -100.586922 -13.451803
-8.186522 -97.99427 -21.458412
21.233299 -105.860313 -18.66185
16.937471 -107.568161 -20.446619
11.904139 -107.84864 -22.002497
12.322142 -106.703316 -11.825753
9.54961 -107.3647 -17.382526
6.333303 -106.778236 -22.660522
1.120807 -104.618324 -22.608416
-3.961634 -101.469757 -22.27006
1.855682 -101.842369 -8.539674
3.180239 -103.412788 -10.950101
0.598941 -102.107178 -11.020877
-0.601276 -102.201813 -13.483886
-1.835759 -100.679726 -11.090824
17.310493 -107.468399 -15.398019
18.415262 -107.327644 -17.437475
16.044741 -107.845985 -18.464344
14.37619 -107.895363 -21.248823
13.42686 -107.992859 -19.013405
13.304401 -105.862999 -8.799057
10.853 -105.660316 -9.516443
5.858966 -105.890373 -15.516201
8.3917 -106.643906 -15.077843
6.991976 -106.725319 -17.84549
8.121883 -107.274323 -20.124725
5.380045 -106.43074 -20.328308
3.783697 -105.853683 -22.919361
2.794988 -105.358154 -20.442392
-3.221379 -101.573692 -18.057228
-2.433289 -102.41774 -20.411291
-4.747998 -100.729584 -19.934029
-6.155303 -99.767136 -21.715399
-7.025052 -98.853783 -19.673719
21.422829 -105.772491 -13.576972
20.497671 -105.875801 -11.390107
18.386219 -106.750832 -12.320333
16.066742 -107.24939 -13.173309
6.890789 -103.826508 -7.948816
8.372651 -105.205933 -10.174886
5.748119 -104.38279 -10.520716
4.455441 -104.741379 -13.270732
3.188539 -104.795151 -15.656637
1.69587 -104.530365 -18.028126
0.637133 -103.530327 -15.823174
-2.010781 -101.93795 -15.832516
-4.424887 -100.215012 -15.650555
2.953958 -101.187462 -5.809784
0.473253 -99.960007 -5.892497
-4.105506 -99.071304 -10.883965
-6.584841 -98.44722 -15.408655
-7.928549 -97.71228 -17.48843
-10.047502 -96.143867 -21.125828
-9.255457 -97.035355 -22.988289
19.904066 -106.070992 -21.734905
20.569849 -106.426666 -16.545891
19.268938 -106.883797 -19.464859
17.777386 -106.945442 -22.409737
15.389393 -107.419662 -23.281807
12.84868 -107.548241 -24.030035
10.078869 -107.341171 -24.568773
14.698797 -106.734512 -11.087778
13.546637 -107.389473 -13.99631
9.763679 -106.339165 -12.437372
10.937304 -107.192818 -14.754261
12.207331 -107.740791 -16.830616
10.821257 -107.798737 -19.682859
9.196856 -107.49865 -22.277464
7.297889 -106.819359 -24.774437
0.077136 -103.959328 -20.456448
-1.572693 -103.079559 -22.597624
-2.99217 -102.08815 -24.481449
-5.428558 -100.34082 -23.980165
-7.476624 -98.672089 -23.432261
-10.141986 -95.98056 -24.867819
-9.464837 -96.740395 -24.445105
18.449886 -105.319603 -25.482778
19.354038 -105.475937 -24.005803
23.84185 -103.507122 -11.947847
23.438102 -103.777611 -10.903986
23.536724 -104.013664 -13.459671
23.84185 -103.507122 -11.947847
22.787731 -104.76984 -14.015419
23.536724 -104.013664 -13.459671
10.079429 -105.01015 -8.395633
11.361123 -105.215542 -8.091992
20.832813 -105.287994 -9.767581
21.390955 -105.259323 -10.832505
17.707245 -106.587845 -11.261688
18.836613 -106.246594 -10.789158
16.547507 -106.837124 -11.688175
17.226481 -107.000111 -12.746821
17.707245 -106.587845 -11.261688
2.22328 -100.205239 -4.552727
3.440571 -100.749806 -4.479297
0.982928 -99.591511 -4.594083
1.713606 -100.573735 -5.85114
2.22328 -100.205239 -4.552727
-4.646869 -98.197605 -9.555529
-3.56036 -99.027179 -9.718076
-7.154707 -97.6096 -14.092754
-6.050628 -98.555909 -14.182664
-8.913239 -96.728184 -17.301368
-8.378063 -97.039288 -16.295027
-8.485045 -97.336735 -18.420905
-8.913239 -96.728184 -17.301368
-10.938842 -95.145671 -20.978685
-10.542662 -95.493732 -20.05131
-10.483441 -95.711746 -21.924636
-10.938842 -95.145671 -20.978685
21.550117 -105.38192 -19.607184
22.119752 -105.173729 -18.054692
20.568683 -105.965653 -20.198377
20.8855 -105.487259 -21.143711
21.550117 -105.38192 -19.607184
5.417844 -106.364208 -23.823885
5.900137 -106.38477 -24.880843
6.815596 -106.798798 -23.717479
1.510671 -104.747658 -23.743404
2.842116 -105.365337 -23.898877
2.452252 -105.236004 -22.763889
0.263682 -104.097972 -23.651311
1.510671 -104.747658 -23.743404
21.833282 -105.5168 -17.086317
22.119752 -105.173729 -18.054692
12.586824 -105.316883 -7.733299
13.782197 -105.352916 -7.361436
12.078701 -105.761657 -9.15775
12.586824 -105.316883 -7.733299
11.361123 -105.215542 -8.091992
17.350794 -105.71825 -25.888562
17.152093 -106.265171 -24.972323
22.713217 -104.504619 -11.397479
23.438102 -103.777611 -10.903986
21.853534 -105.207668 -11.925937
22.282512 -105.069443 -13.048513
22.713217 -104.504619 -11.397479
20.96025 -105.824146 -12.483539
21.853534 -105.207668 -11.925937
21.390955 -105.259323 -10.832505
19.892339 -105.809078 -10.324046
20.832813 -105.287994 -9.767581
19.441945 -106.313316 -11.85522
19.892339 -105.809078 -10.324046
18.836613 -106.246594 -10.789158
7.63172 -104.516221 -9.061851
8.839255 -104.782959 -8.724854
8.098324 -104.093246 -7.611819
7.427573 -103.347893 -6.455602
8.098324 -104.093246 -7.611819
6.222265 -103.012055 -6.720478
7.427573 -103.347893 -6.455602
4.938631 -102.546112 -6.861976
5.607155 -103.360566 -8.090314
6.222265 -103.012055 -6.720478
4.25385 -101.692532 -5.650962
3.440571 -100.749806 -4.479297
3.638739 -102.041043 -7.020798
4.938631 -102.546112 -6.861976
4.25385 -101.692532 -5.650962
18.449886 -105.319603 -25.482778
17.350794 -105.71825 -25.888562
-10.81033 -95.319744 -24.233131
-10.527969 -95.69056 -23.438454
-0.124216 -99.019558 -4.629005
0.982928 -99.591511 -4.594083
-0.702582 -99.301083 -5.936591
-0.124216 -99.019558 -4.629005
-1.229328 -99.566605 -7.247359
-0.053493 -100.225529 -7.203266
-0.702582 -99.301083 -5.936591
-1.797726 -99.737053 -8.533111
-1.229328 -99.566605 -7.247359
-2.425486 -99.83139 -9.821506
-1.207998 -100.585388 -9.802429
-1.797726 -99.737053 -8.533111
-2.970632 -99.875515 -10.987395
-2.425486 -99.83139 -9.821506
-3.56036 -99.027179 -9.718076
-5.271812 -98.102203 -10.654454
-4.646869 -98.197605 -9.555529
-4.810961 -98.867951 -11.920319
-5.271812 -98.102203 -10.654454
-4.307002 -99.62576 -13.204238
-3.601548 -99.829113 -12.167884
-4.810961 -98.867951 -11.920319
-4.970651 -99.439805 -14.303615
-3.761238 -100.400967 -14.551179
-4.307002 -99.62576 -13.204238
-5.504864 -99.331116 -15.529605
-4.970651 -99.439805 -14.303615
-6.050628 -98.555909 -14.182664
-7.706209 -97.406757 -15.25514
-7.154707 -97.6096 -14.092754
-7.256695 -98.07975 -16.448543
-7.706209 -97.406757 -15.25514
-8.378063 -97.039288 -16.295027
-8.033296 -97.907486 -19.513549
-7.4768 -98.283032 -18.581074
-8.485045 -97.336735 -18.420905
-8.614031 -97.47773 -20.405896
-7.605787 -98.424026 -20.566066
-8.033296 -97.907486 -19.513549
-9.544521 -96.552528 -20.239604
-10.542662 -95.493732 -20.05131
-9.117012 -97.069069 -21.29212
-8.614031 -97.47773 -20.405896
-9.544521 -96.552528 -20.239604
-10.087419 -96.15749 -22.855867
-9.65148 -96.589611 -22.057059
-10.483441 -95.711746 -21.924636
-10.527969 -95.69056 -23.438454
-9.696006 -96.568424 -23.570876
-10.087419 -96.15749 -22.855867
20.167835 -105.527634 -22.607956
20.8855 -105.487259 -21.143711
19.090269 -106.019295 -23.132753
19.354038 -105.475937 -24.005803
20.167835 -105.527634 -22.607956
21.928047 -105.472889 -14.543878
22.787731 -104.76984 -14.015419
22.282512 -105.069443 -13.048513
21.501558 -105.799976 -16.028337
21.928047 -105.472889 -14.543878
20.996339 -106.099579 -15.061432
20.901574 -106.14349 -17.60387
21.833282 -105.5168 -17.086317
21.501558 -105.799976 -16.028337
16.90255 -106.754093 -23.911891
17.152093 -106.265171 -24.972323
18.026929 -106.45652 -23.470168
15.708554 -106.991203 -24.347926
16.90255 -106.754093 -23.911891
16.583389 -107.182552 -22.845772
14.458882 -107.179668 -24.601318
15.708554 -106.991203 -24.347926
13.188526 -107.243957 -24.975433
14.458882 -107.179668 -24.601318
14.119036 -107.483952 -23.655921
11.830929 -107.206372 -25.291815
13.188526 -107.243957 -24.975433
10.446023 -107.102836 -25.561184
11.830929 -107.206372 -25.291815
11.463774 -107.444706 -24.299404
9.073638 -106.918968 -25.715857
10.446023 -107.102836 -25.561184
14.487617 -105.830624 -8.461032
13.782197 -105.352916 -7.361436
15.184815 -106.26638 -9.605392
14.487617 -105.830624 -8.461032
14.001599 -106.298755 -9.943417
15.863534 -106.579685 -10.64541
15.184815 -106.26638 -9.605392
15.38277 -106.991951 -12.130543
16.547507 -106.837124 -11.688175
15.863534 -106.579685 -10.64541
9.612825 -105.433124 -9.845665
10.079429 -105.01015 -8.395633
8.839255 -104.782959 -8.724854
7.683148 -106.658062 -25.818689
9.073638 -106.918968 -25.715857
8.688379 -107.080265 -24.671605
6.239629 -106.273922 -25.942639
7.683148 -106.658062 -25.818689
6.239629 -106.273922 -25.942639
5.900137 -106.38477 -24.880843
4.143041 -105.901932 -23.953305
5.417844 -106.364208 -23.823885
5.0585 -106.31596 -22.789941
4.143041 -105.901932 -23.953305
2.842116 -105.365337 -23.898877
-1.083068 -103.32859 -23.645915
0.263682 -104.097972 -23.651311
-0.225943 -103.848941 -22.60302
-1.792807 -102.832886 -24.587828
-1.083068 -103.32859 -23.645915
-2.282431 -102.583855 -23.539537
-2.744995 -102.102554 -25.554482
-1.792807 -102.832886 -24.587828
-3.933508 -101.319176 -25.225732
-2.744995 -102.102554 -25.554482
-5.151702 -100.44551 -24.975091
-3.933508 -101.319176 -25.225732
-4.210364 -101.214485 -24.230807
-6.205112 -99.630898 -24.723834
-5.151702 -100.44551 -24.975091
-7.229145 -98.796532 -24.449882
-6.205112 -99.630898 -24.723834
-6.452591 -99.506454 -23.706213
-8.134871 -98.025692 -24.084505
-7.229145 -98.796532 -24.449882
-9.024287 -97.207325 -23.862519
-8.134871 -98.025692 -24.084505
-8.366041 -97.853722 -23.210275
-9.696006 -96.568424 -23.570876
-9.464837 -96.740395 -24.445105
-9.024287 -97.207325 -23.862519
-10.141986 -95.98056 -24.867819
-10.81033 -95.319744 -24.233131
3 0 86 87
3 1 24 22
3 1 26 24
3 2 88 89
3 4 90 91
3 4 92 93
3 4 94 95
3 5 29 27
3 5 31 29
3 96 33 97
3 6 36 34
3 6 38 36
3 6 40 38
3 3 43 41
3 3 45 43
3 98 47 99
3 100 48 101
3 102 49 103
3 104 103 48
3 102 103 104
3 8 52 50
3 10 53 23
3 10 54 53
3 10 56 54
3 12 57 25
3 12 58 57
3 105 59 106
3 107 60 108
3 109 108 59
3 107 108 109
3 110 61 111
3 112 62 113
3 114 63 115
3 117 116 63
3 118 64 119
3 121 120 64
3 14 122 123
3 14 124 126
3 124 66 125
3 124 125 126
3 7 67 46
3 15 68 28
3 15 69 68
3 15 70 69
3 16 71 30
3 16 72 71
3 17 73 32
3 17 74 73
3 9 75 51
3 18 76 35
3 18 77 76
3 18 78 77
3 19 79 37
3 19 80 79
3 19 127 129
3 129 128 80
3 127 128 129
3 20 130 132
3 132 131 39
3 130 131 132
3 20 133 134
3 11 81 55
3 21 82 42
3 21 83 82
3 21 84 83
3 13 85 44
3 13 65 85
3 22 23 8
3 24 23 22
3 24 10 23
3 24 25 10
3 26 25 24
3 26 12 25
3 135 14 136
3 27 28 7
3 29 28 27
3 29 15 28
3 29 30 15
3 31 30 29
3 31 16 30
3 137 32 138
3 33 139 141
3 139 32 140
3 139 140 141
3 33 17 32
3 34 35 9
3 36 35 34
3 36 18 35
3 36 37 18
3 38 37 36
3 38 19 37
3 38 39 19
3 40 39 38
3 40 20 39
3 41 42 11
3 43 42 41
3 43 21 42
3 43 44 21
3 45 44 43
3 45 13 44
3 143 142 2
3 144 4 145
3 146 46 147
3 148 147 4
3 146 147 148
3 47 149 151
3 149 46 150
3 149 150 151
3 47 7 46
3 152 47 153
3 48 154 156
3 154 47 155
3 154 155 156
3 48 7 47
3 48 27 7
3 49 27 48
3 49 5 27
3 50 157 159
3 157 51 158
3 157 158 159
3 52 51 50
3 52 9 51
3 23 52 8
3 53 52 23
3 53 9 52
3 53 34 9
3 54 34 53
3 54 6 34
3 54 55 6
3 56 55 54
3 56 11 55
3 25 56 10
3 57 56 25
3 57 11 56
3 57 41 11
3 58 41 57
3 58 3 41
3 160 50 161
3 162 50 163
3 164 8 165
3 166 165 50
3 164 165 166
3 59 167 168
3 59 169 171
3 169 8 170
3 169 170 171
3 59 22 8
3 60 22 59
3 60 1 22
3 173 172 2
3 175 174 0
3 176 60 177
3 178 60 179
3 180 1 181
3 182 181 60
3 180 181 182
3 183 1 184
3 185 26 186
3 187 186 1
3 185 186 187
3 61 188 190
3 188 26 189
3 188 189 190
3 61 12 26
3 191 61 192
3 193 61 194
3 195 12 196
3 197 196 61
3 195 196 197
3 198 58 199
3 200 199 12
3 198 199 200
3 62 201 203
3 201 58 202
3 201 202 203
3 62 3 58
3 204 62 205
3 63 206 208
3 206 62 207
3 206 207 208
3 63 3 62
3 63 45 3
3 209 45 210
3 211 210 63
3 209 210 211
3 212 13 213
3 214 213 45
3 212 213 214
3 64 215 216
3 64 217 219
3 217 13 218
3 217 218 219
3 64 65 13
3 220 65 221
3 222 221 64
3 220 221 222
3 223 0 224
3 225 224 65
3 223 224 225
3 66 226 227
3 66 228 230
3 228 2 229
3 228 229 230
3 46 231 233
3 233 232 4
3 231 232 233
3 67 234 236
3 236 235 46
3 234 235 236
3 67 237 239
3 237 14 238
3 237 238 239
3 28 67 7
3 68 67 28
3 68 14 67
3 68 66 14
3 69 66 68
3 69 2 66
3 69 240 242
3 242 241 2
3 240 241 242
3 70 243 245
3 245 244 69
3 243 244 245
3 70 246 247
3 30 70 15
3 71 70 30
3 71 248 250
3 250 249 70
3 248 249 250
3 71 251 252
3 72 253 255
3 255 254 71
3 253 254 255
3 72 256 257
3 32 258 259
3 73 260 262
3 262 261 32
3 260 261 262
3 73 263 264
3 73 265 267
3 265 49 266
3 265 266 267
3 74 49 73
3 74 5 49
3 51 268 270
3 268 33 269
3 268 269 270
3 75 33 51
3 75 17 33
3 35 75 9
3 76 75 35
3 76 17 75
3 76 74 17
3 77 74 76
3 77 5 74
3 77 31 5
3 78 31 77
3 78 16 31
3 37 78 18
3 79 78 37
3 79 16 78
3 79 72 16
3 80 72 79
3 80 271 273
3 273 272 72
3 271 272 273
3 80 274 275
3 277 276 80
3 39 278 280
3 280 279 19
3 278 279 280
3 282 281 39
3 55 40 6
3 81 40 55
3 81 20 40
3 42 81 11
3 82 81 42
3 82 20 81
3 82 283 285
3 285 284 20
3 283 284 285
3 83 286 288
3 288 287 82
3 286 287 288
3 83 289 290
3 83 291 292
3 84 293 295
3 295 294 83
3 293 294 295
3 84 296 297
3 44 84 21
3 85 84 44
3 85 298 300
3 300 299 84
3 298 299 300
3 85 301 302
3 65 303 305
3 305 304 85
3 303 304 305
3 65 306 308
3 306 0 307
3 306 307 308
3 310 309 0
