ply
format ascii 1.0
element vertex 227
property float x
property float y
property float z
element face 210
property list uchar int vertex_index
end_header
14.124074 88.363304 -10.148912
22.767174 72.122856 -12.965534
18.394268 83.40435 -17.151745
21.816061 75.393173 -10.253403
23.462406 69.560326 -8.521947
17.386803 83.456345 -8.476902
16.614473 86.074013 -13.649548
19.514141 81.003487 -11.951266
21.016438 77.757286 -14.842744
17.757425 80.725716 -24.139791
16.809195 85.016365 -21.952478
19.576817 79.729866 -19.680582
21.511778 74.213257 -17.329617
18.524494 82.273994 -10.189472
19.854074 79.58316 -9.387639
20.790897 78.144547 -11.067376
18.953854 77.947845 -22.767788
22.897411 70.22448 -14.117613
23.405365 69.321976 -12.02045
23.500755 68.439308 -6.245171
24.067451 66.672348 -7.703443
24.133745 65.414291 -5.550584
17.540815 84.905869 -15.497406
15.890975 87.378578 -16.28112
16.880049 85.89962 -18.150202
16.148685 86.643433 -20.610697
17.799801 84.035652 -19.556948
18.28647 82.355881 -20.995173
19.145468 81.550278 -18.429893
21.960911 74.993492 -13.96917
21.353374 76.092941 -16.272144
22.197481 73.247131 -15.193591
22.395309 73.851212 -11.662332
23.129881 71.150581 -10.704344
22.681805 72.537659 -9.158208
15.862462 85.96534 -9.413059
15.400556 87.336281 -11.998566
17.125265 84.764091 -11.147341
18.161793 83.596481 -12.926545
19.04764 82.251282 -14.56973
19.816008 80.613472 -15.984898
20.358522 79.484398 -13.442369
21.498108 76.600899 -12.574204
14.606377 86.805374 -7.383995
16.326876 83.333038 -25.507378
16.640347 80.905182 -26.352268
23.816147 68.023674 -9.889353
24.358086 64.941948 -9.179673
14.799804 88.590851 -14.470092
17.391016 82.957039 -23.186785
18.744974 80.217552 -21.98521
19.806021 77.70739 -20.722746
20.365807 78.875801 -17.189846
20.617676 77.024498 -18.556898
20.763542 74.760895 -19.377085
19.925204 78.845425 -8.055055
19.316863 80.182343 -8.451773
20.406167 78.273739 -9.016835
19.925204 78.845425 -8.055055
18.882493 76.829887 -23.164644
19.410019 76.70631 -22.088144
23.817422 66.157429 -4.810006
23.81725 66.9268 -5.897877
23.500927 67.669937 -5.1573
24.12742 64.651483 -4.510468
23.817422 66.157429 -4.810006
13.758522 89.136184 -11.46212
13.119514 89.570453 -10.482564
14.739685 86.054978 -6.043859
13.920744 87.172173 -6.325934
15.429879 85.590344 -7.055355
14.739685 86.054978 -6.043859
24.468122 64.389568 -8.142092
24.212768 65.807148 -8.441558
24.322804 65.254768 -7.403977
24.572121 63.454939 -8.854902
24.468122 64.389568 -8.142092
14.984876 88.562225 -16.801366
15.570557 87.799359 -17.64991
15.959238 86.238567 -22.548663
15.628982 87.052101 -21.877772
16.47894 85.829899 -21.281588
16.30827 85.278732 -23.174134
15.959238 86.238567 -22.548663
17.100105 83.986702 -22.569631
16.599181 84.249069 -23.791288
16.30827 85.278732 -23.174134
21.492732 73.066002 -17.735925
21.118614 73.339821 -18.759659
21.13766 74.487076 -18.353351
21.857231 74.838432 -9.029112
21.387161 76.178745 -9.449717
18.652073 81.52776 -8.85269
17.955649 82.86517 -9.333187
18.083227 82.118935 -7.996405
19.189284 80.928577 -9.788556
18.652073 81.52776 -8.85269
19.316863 80.182343 -8.451773
20.874578 77.554432 -9.856704
20.322485 78.863854 -10.227507
20.406167 78.273739 -9.016835
21.387161 76.178745 -9.449717
21.303479 76.76886 -10.66039
20.874578 77.554432 -9.856704
18.406519 78.147541 -23.849028
17.808304 79.536477 -24.53503
18.35564 79.336781 -23.453789
18.406519 78.147541 -23.849028
18.882493 76.829887 -23.164644
23.164525 68.760006 -13.610062
22.845298 69.19059 -14.568611
23.418502 68.308754 -12.56148
23.164525 68.760006 -13.610062
23.151388 69.773228 -13.069032
23.668409 67.824486 -11.6153
23.418502 68.308754 -12.56148
24.355951 64.62574 -6.327547
24.322804 65.254768 -7.403977
24.100598 66.043319 -6.627014
24.420185 63.86338 -5.278849
24.355951 64.62574 -6.327547
24.420185 63.86338 -5.278849
24.12742 64.651483 -4.510468
16.065095 87.059879 -18.584451
15.570557 87.799359 -17.64991
16.385512 86.639099 -17.215661
16.514367 86.271526 -19.380449
15.699413 87.431786 -19.814698
16.065095 87.059879 -18.584451
22.22646 72.222511 -15.64145
21.883608 72.705574 -16.709463
21.85463 73.730194 -16.261604
22.576425 70.711185 -15.103461
22.22646 72.222511 -15.64145
22.547446 71.735805 -14.655602
22.845298 69.19059 -14.568611
22.576425 70.711185 -15.103461
22.290103 73.410675 -8.481514
22.248933 73.965416 -9.705806
21.857231 74.838432 -9.029112
22.747343 71.881585 -8.071535
22.290103 73.410675 -8.481514
23.137644 70.392918 -7.753404
23.072105 71.048992 -8.840077
22.747343 71.881585 -8.071535
23.156818 69.832409 -6.615016
23.48158 68.999817 -7.383559
23.137644 70.392918 -7.753404
23.146909 69.08324 -5.398227
23.156818 69.832409 -6.615016
23.500927 67.669937 -5.1573
23.146909 69.08324 -5.398227
13.470254 88.75679 -9.140693
13.119514 89.570453 -10.482564
13.711405 87.977825 -7.758234
13.920744 87.172173 -6.325934
14.365226 87.584339 -8.766453
13.470254 88.75679 -9.140693
13.711405 87.977825 -7.758234
16.057921 85.170327 -8.069887
15.23442 86.385357 -8.398527
15.429879 85.590344 -7.055355
16.820092 83.915829 -7.601809
16.624633 84.710842 -8.94498
16.057921 85.170327 -8.069887
17.499942 82.696339 -7.170594
16.820092 83.915829 -7.601809
18.083227 82.118935 -7.996405
17.499942 82.696339 -7.170594
15.762505 83.338009 -26.623755
15.525953 84.549221 -26.12415
15.919241 82.12408 -27.0462
15.762505 83.338009 -26.623755
16.483611 82.11911 -25.929823
16.037 80.907356 -27.40661
15.919241 82.12408 -27.0462
17.249765 79.62621 -25.641268
17.198886 80.815449 -25.246029
17.808304 79.536477 -24.53503
16.652662 79.723629 -26.693995
17.249765 79.62621 -25.641268
16.037 80.907356 -27.40661
16.652662 79.723629 -26.693995
23.873801 67.175335 -10.549751
23.668409 67.824486 -11.6153
23.610756 68.672825 -10.954902
24.14477 65.634472 -10.194911
23.873801 67.175335 -10.549751
24.087117 66.482811 -9.534513
24.36777 64.082909 -9.777497
24.14477 65.634472 -10.194911
24.36777 64.082909 -9.777497
24.572121 63.454939 -8.854902
14.396763 88.622673 -12.386947
13.758522 89.136184 -11.46212
14.762315 87.849793 -11.073739
14.096387 89.249958 -13.622709
14.396763 88.622673 -12.386947
15.10018 87.963566 -13.234329
13.837047 89.777085 -14.95465
14.096387 89.249958 -13.622709
14.439291 89.168362 -15.895851
15.345389 87.984714 -15.375606
14.984876 88.562225 -16.801366
13.837047 89.777085 -14.95465
14.439291 89.168362 -15.895851
15.253629 87.842636 -21.128062
15.699413 87.431786 -19.814698
15.253629 87.842636 -21.128062
15.628982 87.052101 -21.877772
16.067111 84.437069 -24.951584
15.525953 84.549221 -26.12415
16.858946 83.145038 -24.347082
16.067111 84.437069 -24.951584
16.599181 84.249069 -23.791288
19.836103 76.586083 -21.065622
19.410019 76.70631 -22.088144
19.379938 77.827618 -21.745267
20.314863 75.112835 -20.392792
19.836103 76.586083 -21.065622
20.284782 76.234143 -20.049916
20.657675 73.739743 -19.796317
20.314863 75.112835 -20.392792
20.657675 73.739743 -19.796317
21.118614 73.339821 -18.759659
21.492732 73.066002 -17.735925
21.883608 72.705574 -16.709463
3 55 14 56
3 58 57 14
3 60 59 16
3 1 18 17
3 61 21 62
3 63 62 19
3 61 62 63
3 65 64 21
3 0 66 67
3 2 24 22
3 2 26 24
3 2 28 26
3 1 31 29
3 1 17 31
3 3 34 32
3 5 37 35
3 7 38 13
3 7 39 38
3 7 41 39
3 3 42 15
3 3 32 42
3 68 43 69
3 71 70 43
3 9 45 44
3 4 46 33
3 72 47 73
3 74 73 20
3 72 73 74
3 76 75 47
3 6 48 36
3 78 77 23
3 10 79 81
3 81 80 25
3 79 80 81
3 10 82 83
3 10 84 86
3 84 49 85
3 84 85 86
3 11 50 27
3 11 51 50
3 8 52 40
3 12 53 30
3 12 54 53
3 12 87 89
3 89 88 54
3 87 88 89
3 91 90 3
3 92 13 93
3 94 93 5
3 92 93 94
3 14 95 97
3 95 13 96
3 95 96 97
3 14 7 13
3 14 15 7
3 98 15 99
3 100 99 14
3 98 99 100
3 101 3 102
3 103 102 15
3 101 102 103
3 16 104 106
3 106 105 9
3 104 105 106
3 108 107 16
3 17 109 110
3 18 111 113
3 113 112 17
3 111 112 113
3 18 114 115
3 19 20 4
3 21 20 19
3 21 116 118
3 118 117 20
3 116 117 118
3 21 119 120
3 122 121 21
3 22 23 6
3 24 23 22
3 24 123 125
3 125 124 23
3 123 124 125
3 24 126 128
3 126 25 127
3 126 127 128
3 26 25 24
3 26 10 25
3 26 27 10
3 28 27 26
3 28 11 27
3 29 30 8
3 31 30 29
3 31 12 30
3 31 129 131
3 131 130 12
3 129 130 131
3 17 132 134
3 134 133 31
3 132 133 134
3 17 135 136
3 32 33 1
3 34 33 32
3 34 4 33
3 137 34 138
3 139 138 3
3 137 138 139
3 140 34 141
3 142 4 143
3 144 143 34
3 142 143 144
3 145 19 146
3 147 146 4
3 145 146 147
3 148 19 149
3 151 150 19
3 35 36 0
3 37 36 35
3 37 6 36
3 13 37 5
3 38 37 13
3 38 6 37
3 38 22 6
3 39 22 38
3 39 2 22
3 39 40 2
3 41 40 39
3 41 8 40
3 15 41 7
3 42 41 15
3 42 8 41
3 42 29 8
3 32 29 42
3 32 1 29
3 152 0 153
3 43 154 155
3 43 156 158
3 156 0 157
3 156 157 158
3 43 35 0
3 159 35 160
3 161 160 43
3 159 160 161
3 162 5 163
3 164 163 35
3 162 163 164
3 165 5 166
3 168 167 5
3 44 169 170
3 45 171 173
3 173 172 44
3 171 172 173
3 45 174 175
3 176 45 177
3 178 177 9
3 176 177 178
3 179 45 180
3 182 181 45
3 33 18 1
3 46 18 33
3 46 183 185
3 185 184 18
3 183 184 185
3 20 46 4
3 47 46 20
3 47 186 188
3 188 187 46
3 186 187 188
3 47 189 190
3 192 191 47
3 36 193 195
3 195 194 0
3 193 194 195
3 48 196 198
3 198 197 36
3 196 197 198
3 48 199 200
3 23 48 6
3 201 48 202
3 203 202 23
3 201 202 203
3 205 204 48
3 25 206 207
3 209 208 25
3 210 44 211
3 49 212 214
3 212 44 213
3 212 213 214
3 49 9 44
3 27 49 10
3 50 49 27
3 50 9 49
3 50 16 9
3 51 16 50
3 51 215 217
3 217 216 16
3 215 216 217
3 40 28 2
3 52 28 40
3 52 11 28
3 30 52 8
3 53 52 30
3 53 11 52
3 53 51 11
3 54 51 53
3 54 218 220
3 220 219 51
3 218 219 220
3 54 221 222
3 224 223 54
3 226 225 12
