ply
format ascii 1.0
element vertex 339
property float x
property float y
property float z
element face 336
property list uchar int vertex_index
end_header
4.556847 -77.972031 21.683914
25.181982 -63.198639 5.220664
14.680948 -81.398109 2.794076
11.375172 -73.164635 23.150158
16.645842 -74.304939 14.295378
10.018136 -81.161591 12.345955
20.574669 -72.51284 4.569932
8.074618 -75.570877 22.476036
10.867502 -77.118652 17.930565
7.208592 -79.92868 17.052505
15.774867 -77.841156 8.559192
18.786829 -73.720909 9.426918
17.872126 -76.952225 3.711059
19.874063 -75.303246 -1.072033
16.935904 -80.127853 -1.898264
14.716892 -70.278709 23.753273
17.436449 -70.695755 19.4037
14.086444 -74.201881 18.804699
13.479645 -77.841354 13.400393
12.38898 -81.725433 7.630514
8.7398 -71.377068 27.316488
19.646767 -70.402939 14.828549
21.462564 -69.389992 10.112025
23.079533 -67.797401 5.055546
6.376801 -76.826546 21.977724
7.649915 -77.72757 19.837341
5.867594 -79.006668 19.385729
26.798853 -59.791786 2.653439
25.858818 -62.158142 2.717435
24.841087 -64.551201 2.850424
15.134162 -79.716515 5.732095
16.80839 -77.529625 6.166628
16.237604 -79.242836 3.451164
17.418453 -78.508064 0.948471
15.861422 -80.771881 0.541736
13.038787 -71.823532 23.431623
14.487852 -72.275658 21.245779
12.805054 -73.792435 20.925533
10.358059 -79.157539 15.262044
12.136264 -77.695915 15.575212
11.702973 -79.594681 12.873517
12.881127 -79.893738 10.459873
11.095681 -81.724159 9.872513
10.529221 -83.613434 7.141009
9.323923 -83.195343 9.698796
6.998175 -72.590912 26.974003
17.033602 -72.463951 17.063234
18.547251 -70.711517 17.134916
18.149811 -72.400398 14.67508
19.739878 -73.127228 7.026736
20.160234 -71.594513 9.767733
21.04719 -70.952339 7.24958
22.25292 -68.731567 7.586898
21.846624 -70.173531 4.972294
22.696543 -69.189064 2.528476
21.562107 -71.407028 2.258693
9.790133 -74.391914 22.791718
11.176622 -75.129051 20.594982
9.407316 -76.468987 20.223345
9.017387 -78.544365 17.533432
8.640066 -80.664276 14.660139
8.105735 -82.806152 11.812702
6.786218 -82.110504 14.192109
28.526299 -55.198452 2.386975
27.675882 -57.469704 2.633521
16.281033 -75.985771 11.564218
17.801491 -74.123764 11.735315
17.310932 -75.760956 9.185135
18.25819 -75.442413 6.604081
19.323603 -74.641647 4.211111
20.296192 -73.780243 1.742148
18.950768 -76.044121 1.507584
18.524021 -77.574448 -1.316472
16.083405 -70.643021 21.581017
15.79212 -72.499069 19.142231
15.41383 -74.358978 16.569731
12.522875 -75.732986 18.301617
13.786672 -76.060036 16.124001
15.082728 -76.254753 13.609574
14.607987 -78.009796 10.975779
14.126018 -79.75872 8.232207
13.596472 -81.633461 5.188312
11.846119 -83.564766 4.789122
13.430239 -69.767906 25.668571
11.699898 -71.101517 25.522205
10.342155 -70.226936 27.568361
10.027597 -72.326851 25.286026
8.433814 -73.533684 24.882298
6.618507 -74.739693 24.540266
5.05952 -75.776573 24.211088
18.871689 -68.876892 19.71299
19.226166 -72.016983 12.329682
20.577124 -69.989502 12.528157
23.397835 -66.47834 7.74351
24.15626 -65.485542 5.336138
23.834297 -66.788391 2.822332
23.563042 -68.031914 0.163398
4.275781 -79.076237 20.401252
4.931155 -79.593556 19.25216
5.212221 -78.48935 20.534821
25.5204 -62.67839 3.96905
25.989337 -61.554863 3.975072
25.650919 -62.075111 5.226686
14.421726 -82.245369 1.377498
15.011963 -81.932254 0.251327
15.271185 -81.084995 1.667906
27.329213 -58.140501 3.90065
27.77638 -57.01811 3.748987
27.133819 -59.164101 1.521149
26.724007 -60.27553 1.476937
17.478224 -79.685875 -3.071938
18.272283 -78.409172 -2.781042
17.729962 -78.851151 -1.607368
16.696942 -80.926388 -3.355885
17.478224 -79.685875 -3.071938
15.400149 -70.460865 22.667145
16.170593 -69.655629 22.82089
15.487337 -69.473472 23.907018
10.2428 -84.596287 5.659995
9.644163 -84.432216 6.942982
7.776557 -83.837596 10.472995
7.15622 -83.531189 11.634746
12.686045 -69.375633 26.73295
13.486605 -68.730301 26.793101
11.820874 -70.042439 26.659767
12.565068 -70.434711 25.595388
12.686045 -69.375633 26.73295
9.540978 -70.802002 27.442425
9.662972 -69.784458 28.512898
8.861794 -70.359524 28.386962
5.916298 -74.191372 25.666419
6.808341 -73.665302 25.757134
6.106132 -73.116982 26.883288
5.136804 -74.709812 25.50183
5.839014 -75.258133 24.375677
5.916298 -74.191372 25.666419
28.796605 -54.650089 1.084635
28.402538 -55.755752 1.266871
18.154069 -69.786324 19.558345
18.25491 -68.84932 20.838815
17.537289 -69.758751 20.68417
19.765577 -69.626019 16.13328
19.21582 -69.780307 17.286463
19.097009 -70.557228 15.981732
20.305844 -69.373158 15.007214
19.765577 -69.626019 16.13328
21.67662 -68.598514 11.416508
21.233899 -68.898269 12.624575
21.019844 -69.689747 11.320091
22.056401 -68.301853 10.241267
21.67662 -68.598514 11.416508
22.985001 -69.265141 -0.087248
23.129793 -68.610489 1.345937
22.551752 -69.843716 1.095291
23.446686 -68.669159 -1.286428
22.985001 -69.265141 -0.087248
20.504074 -74.120259 -0.795661
20.715139 -73.358757 0.61143
20.085127 -74.541744 0.335058
5.655409 -80.071743 18.058187
6.325908 -80.532749 16.891575
6.538093 -79.467674 18.219117
5.655409 -80.071743 18.058187
4.931155 -79.593556 19.25216
26.459354 -60.371685 3.943074
26.890698 -59.301542 3.910609
26.328836 -60.974964 2.685437
26.459354 -60.371685 3.943074
25.989337 -61.554863 3.975072
26.25399 -61.458708 1.508935
26.724007 -60.27553 1.476937
26.328836 -60.974964 2.685437
25.749151 -62.722793 1.548023
26.25399 -61.458708 1.508935
25.240285 -63.919323 1.614518
25.749151 -62.722793 1.548023
25.349953 -63.354672 2.78393
24.751936 -65.091301 1.525936
25.240285 -63.919323 1.614518
15.599083 -81.635918 -0.966099
16.136324 -81.313904 -2.186099
16.398663 -80.449867 -0.678264
15.599083 -81.635918 -0.966099
15.011963 -81.932254 0.251327
9.041514 -84.223171 8.221875
9.644163 -84.432216 6.942982
9.926572 -83.404388 8.419902
8.042225 -70.918346 28.28265
8.861794 -70.359524 28.386962
7.171412 -71.525269 28.111407
7.868988 -71.98399 27.145246
8.042225 -70.918346 28.28265
6.321713 -72.020417 28.061282
7.171412 -71.525269 28.111407
6.106132 -73.116982 26.883288
6.321713 -72.020417 28.061282
21.984534 -70.952697 0.9604
22.551752 -69.843716 1.095291
22.129325 -70.298046 2.393585
20.361742 -74.766366 -2.170272
19.641675 -76.093639 -2.439633
6.496462 -83.183365 12.824449
7.15622 -83.531189 11.634746
7.445976 -82.458328 13.002406
6.114721 -81.623661 15.461377
6.997405 -81.019592 15.622307
6.325908 -80.532749 16.891575
5.884108 -82.71347 14.080729
6.114721 -81.623661 15.461377
6.496462 -83.183365 12.824449
5.884108 -82.71347 14.080729
28.201588 -55.882485 3.625714
28.642694 -54.756399 3.50212
28.101091 -56.334078 2.510248
28.201588 -55.882485 3.625714
27.77638 -57.01811 3.748987
27.977329 -56.891379 1.390144
28.402538 -55.755752 1.266871
28.101091 -56.334078 2.510248
27.237368 -58.630745 2.64348
27.329213 -58.140501 3.90065
26.890698 -59.301542 3.910609
27.572333 -58.003059 1.511189
27.237368 -58.630745 2.64348
27.133819 -59.164101 1.521149
27.977329 -56.891379 1.390144
27.572333 -58.003059 1.511189
18.966655 -77.229241 -2.561853
19.641675 -76.093639 -2.439633
19.199042 -76.438847 -1.194253
18.966655 -77.229241 -2.561853
18.272283 -78.409172 -2.781042
16.696942 -80.926388 -3.355885
16.136324 -81.313904 -2.186099
25.312987 -62.605343 6.521999
25.650919 -62.075111 5.226686
16.860768 -69.732384 21.772828
16.170593 -69.655629 22.82089
16.759927 -70.669388 20.492359
17.537289 -69.758751 20.68417
16.860768 -69.732384 21.772828
13.295324 -82.577068 3.70456
13.837561 -82.459393 2.507442
14.13871 -81.515785 3.991194
12.420147 -83.542721 3.504964
13.295324 -82.577068 3.70456
12.721296 -82.599114 4.988717
11.535746 -84.539467 3.287478
12.420147 -83.542721 3.504964
10.901249 -84.571953 4.484051
11.18767 -83.5891 5.965065
10.2428 -84.596287 5.659995
11.535746 -84.539467 3.287478
10.901249 -84.571953 4.484051
8.385651 -84.032192 9.416042
8.714829 -83.000747 10.755749
7.776557 -83.837596 10.472995
9.041514 -84.223171 8.221875
8.385651 -84.032192 9.416042
14.805859 -69.251999 24.925537
15.487337 -69.473472 23.907018
14.162533 -68.996597 25.883186
13.486605 -68.730301 26.793101
14.073566 -70.023308 24.710922
14.805859 -69.251999 24.925537
14.162533 -68.996597 25.883186
10.491919 -69.088825 28.69721
9.662972 -69.784458 28.512898
11.142003 -69.605148 27.682845
10.491919 -69.088825 28.69721
11.021026 -70.664226 26.545283
11.820874 -70.042439 26.659767
11.142003 -69.605148 27.682845
4.333919 -75.212036 25.377983
5.136804 -74.709812 25.50183
4.159301 -76.302677 24.113199
4.333919 -75.212036 25.377983
3.907965 -77.400406 22.849612
4.808184 -76.874302 22.947501
4.159301 -76.302677 24.113199
3.634558 -78.517624 21.581578
3.907965 -77.400406 22.849612
4.275781 -79.076237 20.401252
3.634558 -78.517624 21.581578
28.913686 -54.158331 2.239415
28.642694 -54.756399 3.50212
28.913686 -54.158331 2.239415
28.796605 -54.650089 1.084635
24.852958 -63.646099 6.5065
25.312987 -62.605343 6.521999
19.00882 -67.950894 20.885942
18.25491 -68.84932 20.838815
19.579921 -67.921642 19.787245
19.00882 -67.950894 20.885942
19.378039 -68.862995 18.575501
18.70947 -69.794205 18.423953
19.21582 -69.780307 17.286463
19.579921 -67.921642 19.787245
19.378039 -68.862995 18.575501
20.771022 -69.166439 13.857018
20.305844 -69.373158 15.007214
20.111946 -70.196221 13.678353
20.771022 -69.166439 13.857018
21.233899 -68.898269 12.624575
22.451579 -67.972641 8.978703
22.056401 -68.301853 10.241267
21.857742 -69.060779 8.849462
23.024037 -66.846027 9.057009
22.451579 -67.972641 8.978703
22.825378 -67.604953 7.665204
23.557665 -65.822121 9.010198
23.024037 -66.846027 9.057009
23.960885 -65.28595 7.767924
23.557665 -65.822121 9.010198
24.340097 -64.78955 6.564237
23.960885 -65.28595 7.767924
23.777048 -65.981941 6.539824
24.669121 -64.34209 5.278401
24.852958 -63.646099 6.5065
24.340097 -64.78955 6.564237
24.248541 -66.209896 1.51189
24.751936 -65.091301 1.525936
24.337692 -65.669796 2.836378
24.112913 -66.831658 0.182423
24.248541 -66.209896 1.51189
23.69867 -67.410153 1.492865
23.995933 -67.4519 -1.12195
24.112913 -66.831658 0.182423
23.995933 -67.4519 -1.12195
23.446686 -68.669159 -1.286428
21.348096 -72.172149 0.869702
20.92915 -72.593636 2.000421
20.715139 -73.358757 0.61143
21.984534 -70.952697 0.9604
21.348096 -72.172149 0.869702
20.504074 -74.120259 -0.795661
20.361742 -74.766366 -2.170272
14.421726 -82.245369 1.377498
13.837561 -82.459393 2.507442
3 0 26 24
3 0 97 99
3 99 98 26
3 97 98 99
3 1 100 102
3 100 28 101
3 100 101 102
3 1 29 28
3 2 32 30
3 2 34 32
3 2 103 105
3 105 104 34
3 103 104 105
3 3 37 35
3 5 40 38
3 5 42 40
3 5 44 42
3 4 48 46
3 6 51 49
3 6 53 51
3 6 55 53
3 7 58 56
3 9 59 25
3 9 60 59
3 9 62 60
3 106 64 107
3 109 108 27
3 10 67 65
3 12 68 31
3 12 69 68
3 12 71 69
3 14 72 33
3 14 110 112
3 112 111 72
3 110 111 112
3 14 113 114
3 15 115 117
3 115 73 116
3 115 116 117
3 17 74 36
3 17 75 74
3 8 76 57
3 18 77 39
3 18 78 77
3 18 79 78
3 19 80 41
3 19 81 80
3 19 82 81
3 119 118 43
3 121 120 61
3 122 83 123
3 124 84 125
3 126 125 83
3 124 125 126
3 20 127 129
3 127 85 128
3 127 128 129
3 20 86 85
3 20 87 86
3 130 88 131
3 132 131 45
3 130 131 132
3 133 89 134
3 135 134 88
3 133 134 135
3 137 136 63
3 16 138 140
3 138 90 139
3 138 139 140
3 21 141 143
3 143 142 47
3 141 142 143
3 21 144 145
3 11 91 66
3 22 92 50
3 22 146 148
3 148 147 92
3 146 147 148
3 22 149 150
3 23 93 52
3 23 94 93
3 23 95 94
3 151 96 152
3 153 152 54
3 151 152 153
3 155 154 96
3 13 156 158
3 158 157 70
3 156 157 158
3 24 25 7
3 26 25 24
3 26 9 25
3 26 159 161
3 161 160 9
3 159 160 161
3 163 162 26
3 164 27 165
3 28 166 168
3 166 27 167
3 166 167 168
3 28 169 171
3 171 170 27
3 169 170 171
3 28 172 173
3 29 174 176
3 176 175 28
3 174 175 176
3 29 177 178
3 30 31 10
3 32 31 30
3 32 12 31
3 32 33 12
3 34 33 32
3 34 14 33
3 34 179 181
3 181 180 14
3 179 180 181
3 183 182 34
3 35 36 15
3 37 36 35
3 37 17 36
3 38 39 8
3 40 39 38
3 40 18 39
3 40 41 18
3 42 41 40
3 42 19 41
3 42 43 19
3 44 43 42
3 44 184 186
3 186 185 43
3 184 185 186
3 187 20 188
3 189 45 190
3 191 190 20
3 189 190 191
3 192 45 193
3 195 194 45
3 46 47 16
3 48 47 46
3 48 21 47
3 49 50 11
3 51 50 49
3 51 22 50
3 51 52 22
3 53 52 51
3 53 23 52
3 53 54 23
3 55 54 53
3 55 196 198
3 198 197 54
3 196 197 198
3 200 199 13
3 56 57 3
3 58 57 56
3 58 8 57
3 25 58 7
3 59 58 25
3 59 8 58
3 59 38 8
3 60 38 59
3 60 5 38
3 60 61 5
3 62 61 60
3 62 201 203
3 203 202 61
3 201 202 203
3 204 62 205
3 206 205 9
3 204 205 206
3 207 62 208
3 210 209 62
3 211 63 212
3 64 213 215
3 213 63 214
3 213 214 215
3 64 216 218
3 218 217 63
3 216 217 218
3 27 219 221
3 219 64 220
3 219 220 221
3 222 64 223
3 224 223 27
3 222 223 224
3 226 225 64
3 65 66 4
3 67 66 65
3 67 11 66
3 31 67 10
3 68 67 31
3 68 11 67
3 68 49 11
3 69 49 68
3 69 6 49
3 69 70 6
3 71 70 69
3 71 13 70
3 33 71 12
3 72 71 33
3 72 13 71
3 72 227 229
3 229 228 13
3 227 228 229
3 231 230 72
3 233 232 14
3 234 1 235
3 73 236 237
3 73 238 240
3 238 16 239
3 238 239 240
3 36 73 15
3 74 73 36
3 74 16 73
3 74 46 16
3 75 46 74
3 75 4 46
3 57 37 3
3 76 37 57
3 76 17 37
3 39 76 8
3 77 76 39
3 77 17 76
3 77 75 17
3 78 75 77
3 78 4 75
3 78 65 4
3 79 65 78
3 79 10 65
3 41 79 18
3 80 79 41
3 80 10 79
3 80 30 10
3 81 30 80
3 81 2 30
3 81 241 243
3 243 242 2
3 241 242 243
3 82 244 246
3 246 245 81
3 244 245 246
3 82 247 248
3 43 82 19
3 249 82 250
3 251 250 43
3 249 250 251
3 253 252 82
3 61 44 5
3 254 44 255
3 256 255 61
3 254 255 256
3 258 257 44
3 259 15 260
3 83 261 262
3 83 263 265
3 263 15 264
3 263 264 265
3 83 35 15
3 84 35 83
3 84 3 35
3 85 266 267
3 85 268 269
3 85 270 272
3 270 84 271
3 270 271 272
3 86 84 85
3 86 3 84
3 86 56 3
3 87 56 86
3 87 7 56
3 45 87 20
3 88 87 45
3 88 7 87
3 88 24 7
3 89 24 88
3 89 0 24
3 273 89 274
3 275 89 276
3 277 0 278
3 279 278 89
3 277 278 279
3 280 0 281
3 283 282 0
3 63 284 285
3 287 286 63
3 288 1 289
3 90 290 291
3 90 292 293
3 47 90 16
3 294 90 295
3 296 295 47
3 294 295 296
3 298 297 90
3 66 48 4
3 91 48 66
3 91 21 48
3 50 91 11
3 92 91 50
3 92 21 91
3 92 299 301
3 301 300 21
3 299 300 301
3 303 302 92
3 52 304 306
3 306 305 22
3 304 305 306
3 93 307 309
3 309 308 52
3 307 308 309
3 93 310 311
3 93 312 313
3 94 314 316
3 316 315 93
3 314 315 316
3 94 317 319
3 317 1 318
3 317 318 319
3 94 29 1
3 95 29 94
3 95 320 322
3 322 321 29
3 320 321 322
3 54 95 23
3 96 95 54
3 96 323 325
3 325 324 95
3 323 324 325
3 96 326 327
3 329 328 96
3 70 55 6
3 330 55 331
3 332 331 70
3 330 331 332
3 334 333 55
3 336 335 13
3 338 337 2
