ply
format ascii 1.0
element vertex 247
property float x
property float y
property float z
element face 241
property list uchar int vertex_index
end_header
6.100946 -75.283157 -43.880764
-15.756681 -87.258865 -34.401756
-5.499354 -83.653511 -40.273411
-9.450857 -73.842491 -39.524006
-13.880604 -92.295906 -34.755791
-8.352298 -90.145943 -37.872581
-10.809888 -86.135124 -37.689796
-6.058072 -65.70858 -41.930836
-4.316864 -71.051247 -42.32341
-19.704453 -87.303192 -30.573189
3.606487 -82.558197 -41.735592
0.3017 -79.968269 -42.357159
-19.916735 -81.190826 -30.187141
-16.767408 -81.77935 -33.855625
-13.712633 -75.351883 -36.547565
-12.593347 -81.036415 -37.18689
-7.656379 -79.027176 -40.08329
-2.482189 -76.163712 -42.414017
3.291743 -71.915138 -44.489082
-17.147179 -90.014519 -32.883121
-14.826644 -89.755798 -34.718559
-12.475408 -89.266037 -36.257881
-13.451009 -86.817162 -36.082664
-6.952853 -86.832916 -39.161133
-1.296234 -83.68222 -41.225262
-2.658607 -81.706894 -41.42662
-18.58736 -78.567101 -31.772825
-18.54052 -81.857162 -31.987946
-17.160315 -78.94812 -33.435112
-9.975579 -70.915695 -39.321178
-11.570338 -74.66349 -38.146584
-13.214932 -78.23436 -36.884254
-11.003132 -77.717873 -38.388958
-10.13306 -80.154655 -38.731964
-8.51925 -76.390923 -39.88578
-1.767084 -69.530838 -43.500706
-3.341725 -73.530006 -42.455215
-0.726491 -71.994148 -43.539921
0.462739 -74.060356 -43.546906
-11.138363 -91.284439 -36.456924
-9.617765 -88.325668 -37.841232
-8.301153 -85.091637 -39.007317
-8.433457 -67.033607 -40.459522
-7.640601 -69.857513 -40.786942
-6.866558 -72.703033 -41.002407
-5.288561 -68.683594 -42.095444
-19.128727 -89.990479 -30.970417
-17.828505 -87.365814 -32.5947
6.502487 -80.271851 -42.19986
4.861599 -78.962578 -42.846264
1.809579 -81.559692 -42.088547
3.09022 -77.789627 -43.170517
-19.904095 -84.220032 -30.362686
-18.264381 -84.722946 -32.297852
-16.277 -84.561882 -34.204288
-15.713305 -75.570984 -34.790451
-15.413129 -78.752327 -35.115692
-14.735068 -81.560982 -35.619049
-14.189392 -84.224419 -35.864094
-11.957954 -83.700714 -37.365536
-9.356012 -82.695488 -38.878082
-6.725537 -81.515305 -40.183002
-5.963199 -75.064865 -41.228783
-5.112843 -77.574158 -41.313877
-4.047167 -80.028595 -41.348423
-1.057669 -78.030159 -42.496735
1.907869 -75.723915 -43.51627
4.644066 -73.825943 -44.235687
7.569672 -73.907826 -44.175176
6.962998 -75.905262 -43.607083
6.807935 -73.211155 -44.427633
7.569672 -73.907826 -44.175176
-4.826804 -84.564598 -40.261972
-5.553554 -86.154301 -39.705833
-6.226104 -85.243213 -39.717272
-4.078981 -82.680203 -40.850015
-3.406431 -83.59129 -40.838577
-4.826804 -84.564598 -40.261972
-17.920113 -77.070511 -32.469926
-18.623363 -77.005005 -31.579093
-17.20659 -77.261021 -33.301069
-17.873838 -78.75761 -32.603969
-17.920113 -77.070511 -32.469926
-0.006335 -69.893745 -44.048409
-1.246787 -70.762493 -43.520314
-0.526632 -68.662091 -44.028801
0.566137 -70.95892 -44.046606
-0.006335 -69.893745 -44.048409
-14.489384 -93.512264 -34.001663
-15.082311 -92.409347 -33.910582
-13.180796 -93.189472 -34.858517
-14.489384 -93.512264 -34.001663
-12.509483 -91.790173 -35.606358
-11.809675 -92.683739 -35.709084
-13.180796 -93.189472 -34.858517
-7.245764 -66.371094 -41.195179
-7.500278 -64.937967 -41.144888
-6.312585 -64.275453 -41.880545
-19.41659 -88.646835 -30.771803
-20.015014 -89.766773 -29.914248
-20.302876 -88.42313 -29.715635
5.054487 -81.415024 -41.967726
5.773376 -82.082814 -41.600119
4.325375 -83.225987 -41.367985
-7.561488 -90.989429 -37.826836
-9.000451 -91.70404 -37.154491
-20.50786 -80.862037 -29.21085
-19.905327 -79.606163 -30.041315
-20.529615 -82.421775 -29.347885
-20.50786 -80.862037 -29.21085
-19.910415 -82.705429 -30.274914
-20.523294 -83.936379 -29.435657
-20.529615 -82.421775 -29.347885
-13.915155 -73.863361 -36.356266
-12.93166 -73.52203 -37.160154
-14.712969 -75.461433 -35.669008
-14.915491 -73.972912 -35.477709
-13.915155 -73.863361 -36.356266
4.660799 -70.772216 -44.888858
5.33696 -71.727619 -44.762161
3.967904 -72.870541 -44.362385
-16.715599 -91.268654 -32.974247
-17.785077 -91.365292 -32.024269
-15.555332 -91.139294 -33.891965
-16.715599 -91.268654 -32.974247
-15.986912 -89.885159 -33.80084
-14.353624 -91.025852 -34.737175
-15.082311 -92.409347 -33.910582
-15.555332 -91.139294 -33.891965
-5.198115 -63.577911 -42.558846
-6.312585 -64.275453 -41.880545
-4.898183 -65.078151 -42.573357
-5.198115 -63.577911 -42.558846
-20.435474 -86.996738 -29.588513
-20.302876 -88.42313 -29.715635
2.914265 -84.367275 -41.106373
4.325375 -83.225987 -41.367985
-6.305169 -87.820461 -39.089321
-7.004892 -89.476975 -38.445045
-7.652575 -88.489429 -38.516857
-6.305169 -87.820461 -39.089321
-5.553554 -86.154301 -39.705833
-2.725245 -84.578952 -40.737898
-1.994708 -85.379173 -40.650177
-1.977421 -82.694557 -41.325941
-2.725245 -84.578952 -40.737898
-3.406431 -83.59129 -40.838577
-19.24064 -78.2943 -30.834157
-18.623363 -77.005005 -31.579093
-19.252047 -79.878963 -30.979983
-19.905327 -79.606163 -30.041315
-19.24064 -78.2943 -30.834157
-11.063133 -71.303936 -38.54696
-10.22779 -69.412785 -39.185381
-11.860512 -73.177833 -37.959663
-11.063133 -71.303936 -38.54696
-10.772958 -72.789592 -38.733881
-12.641485 -75.007687 -37.347074
-12.93166 -73.52203 -37.160154
-11.860512 -73.177833 -37.959663
1.160752 -71.992024 -44.050099
-0.131876 -73.027252 -43.543413
0.566137 -70.95892 -44.046606
2.575254 -70.919415 -44.521186
1.877241 -72.987747 -44.017994
1.160752 -71.992024 -44.050099
3.96739 -69.816277 -44.995642
2.575254 -70.919415 -44.521186
-10.393484 -92.273289 -36.446663
-11.809675 -92.683739 -35.709084
-9.74533 -90.715191 -37.164752
-9.000451 -91.70404 -37.154491
-10.393484 -92.273289 -36.446663
-8.530326 -65.404973 -40.462938
-7.500278 -64.937967 -41.144888
-9.456729 -67.471741 -39.754553
-8.530326 -65.404973 -40.462938
-9.204518 -68.974651 -39.89035
-10.22779 -69.412785 -39.185381
-9.456729 -67.471741 -39.754553
-4.513427 -66.565658 -42.655661
-5.673317 -67.196087 -42.01314
-4.898183 -65.078151 -42.573357
-4.013736 -67.854691 -42.746783
-4.513427 -66.565658 -42.655661
-3.527887 -69.038517 -42.860765
-4.802713 -69.867421 -42.209427
-4.013736 -67.854691 -42.746783
-2.252997 -68.278312 -43.449414
-3.041974 -70.291043 -42.912058
-3.527887 -69.038517 -42.860765
-0.99001 -67.374584 -44.04415
-2.252997 -68.278312 -43.449414
-0.526632 -68.662091 -44.028801
-0.99001 -67.374584 -44.04415
-19.693823 -91.053146 -30.131998
-20.015014 -89.766773 -29.914248
-18.775852 -91.353272 -31.067917
-19.340947 -92.415939 -30.229498
-19.693823 -91.053146 -30.131998
-18.137953 -90.002499 -31.926769
-17.785077 -91.365292 -32.024269
-18.775852 -91.353272 -31.067917
7.257892 -80.765839 -41.805647
6.52878 -82.576802 -41.205906
5.773376 -82.082814 -41.600119
7.930028 -78.951889 -42.393179
7.257892 -80.765839 -41.805647
7.163768 -78.399609 -42.766631
7.930028 -78.951889 -42.393179
6.343324 -77.744972 -43.089832
7.163768 -78.399609 -42.766631
5.682043 -79.617214 -42.523062
5.481273 -77.122867 -43.363514
6.962998 -75.905262 -43.607083
6.343324 -77.744972 -43.089832
-7.561488 -90.989429 -37.826836
-7.004892 -89.476975 -38.445045
2.033352 -83.797852 -41.351883
2.914265 -84.367275 -41.106373
-0.418009 -84.359863 -41.096718
-1.994708 -85.379173 -40.650177
1.134898 -83.298599 -41.52836
-0.418009 -84.359863 -41.096718
0.256672 -82.620956 -41.656904
2.708033 -82.058944 -41.91207
2.033352 -83.797852 -41.351883
1.134898 -83.298599 -41.52836
-20.535294 -85.455159 -29.483262
-20.523294 -83.936379 -29.435657
-19.804274 -85.761612 -30.467937
-20.435474 -86.996738 -29.588513
-20.535294 -85.455159 -29.483262
-15.727887 -73.971585 -34.698438
-14.915491 -73.972912 -35.477709
-16.483085 -75.572452 -33.978739
-15.727887 -73.971585 -34.698438
-16.43681 -77.259552 -34.112781
-17.20659 -77.261021 -33.301069
-16.483085 -75.572452 -33.978739
6.079495 -72.482548 -44.605095
6.807935 -73.211155 -44.427633
5.372506 -74.55455 -44.058225
6.079495 -72.482548 -44.605095
5.33696 -71.727619 -44.762161
4.660799 -70.772216 -44.888858
3.96739 -69.816277 -44.995642
3 0 68 69
3 0 70 71
3 1 20 19
3 1 22 20
3 2 72 74
3 74 73 23
3 72 73 74
3 2 75 77
3 75 25 76
3 75 76 77
3 78 26 79
3 80 28 81
3 82 81 26
3 80 81 82
3 3 30 29
3 3 32 30
3 3 34 32
3 83 37 84
3 85 84 35
3 83 84 85
3 87 86 37
3 4 88 89
3 4 90 91
3 4 92 94
3 92 39 93
3 92 93 94
3 6 40 21
3 6 41 40
3 7 95 97
3 95 42 96
3 95 96 97
3 7 43 42
3 7 45 43
3 9 98 100
3 98 46 99
3 98 99 100
3 9 47 46
3 10 101 103
3 101 48 102
3 101 102 103
3 10 49 48
3 5 104 105
3 11 50 24
3 11 51 50
3 12 106 107
3 12 108 109
3 12 110 112
3 110 52 111
3 110 111 112
3 13 53 27
3 13 54 53
3 14 113 114
3 14 115 117
3 115 55 116
3 115 116 117
3 14 56 55
3 15 57 31
3 15 58 57
3 15 59 58
3 16 60 33
3 16 61 60
3 8 62 44
3 17 63 36
3 17 64 63
3 17 65 64
3 18 66 38
3 18 67 66
3 18 118 120
3 120 119 67
3 118 119 120
3 19 121 122
3 20 123 125
3 125 124 19
3 123 124 125
3 20 126 128
3 126 4 127
3 126 127 128
3 20 21 4
3 22 21 20
3 22 6 21
3 129 7 130
3 132 131 7
3 133 9 134
3 135 10 136
3 23 137 139
3 139 138 5
3 137 138 139
3 141 140 23
3 142 24 143
3 25 144 146
3 144 24 145
3 144 145 146
3 25 11 24
3 26 147 148
3 26 149 151
3 149 12 150
3 149 150 151
3 26 27 12
3 28 27 26
3 28 13 27
3 29 152 153
3 30 154 156
3 156 155 29
3 154 155 156
3 30 157 159
3 157 14 158
3 157 158 159
3 30 31 14
3 32 31 30
3 32 15 31
3 32 33 15
3 34 33 32
3 34 16 33
3 35 36 8
3 37 36 35
3 37 17 36
3 37 38 17
3 160 38 161
3 162 161 37
3 160 161 162
3 163 18 164
3 165 164 38
3 163 164 165
3 167 166 18
3 39 168 169
3 39 170 172
3 170 5 171
3 170 171 172
3 21 39 4
3 40 39 21
3 40 5 39
3 40 23 5
3 41 23 40
3 41 2 23
3 42 173 174
3 42 175 176
3 42 177 179
3 177 29 178
3 177 178 179
3 43 29 42
3 43 3 29
3 43 44 3
3 45 44 43
3 45 8 44
3 180 45 181
3 182 181 7
3 180 181 182
3 183 45 184
3 185 8 186
3 187 186 45
3 185 186 187
3 188 35 189
3 190 189 8
3 188 189 190
3 191 35 192
3 194 193 35
3 46 195 196
3 46 197 199
3 197 198 199
3 46 200 202
3 200 19 201
3 200 201 202
3 47 19 46
3 47 1 19
3 48 203 205
3 203 204 205
3 48 206 207
3 48 208 209
3 49 210 212
3 212 211 48
3 210 211 212
3 49 213 215
3 213 0 214
3 213 214 215
3 217 216 5
3 218 10 219
3 24 220 221
3 50 222 224
3 224 223 24
3 222 223 224
3 50 225 227
3 225 10 226
3 225 226 227
3 50 49 10
3 51 49 50
3 51 0 49
3 52 228 229
3 52 230 232
3 230 9 231
3 230 231 232
3 27 52 12
3 53 52 27
3 53 9 52
3 53 47 9
3 54 47 53
3 54 1 47
3 55 233 234
3 55 235 236
3 55 237 239
3 237 28 238
3 237 238 239
3 56 28 55
3 56 13 28
3 31 56 14
3 57 56 31
3 57 13 56
3 57 54 13
3 58 54 57
3 58 1 54
3 58 22 1
3 59 22 58
3 59 6 22
3 33 59 15
3 60 59 33
3 60 6 59
3 60 41 6
3 61 41 60
3 61 2 41
3 44 34 3
3 62 34 44
3 62 16 34
3 36 62 8
3 63 62 36
3 63 16 62
3 63 61 16
3 64 61 63
3 64 2 61
3 64 25 2
3 65 25 64
3 65 11 25
3 38 65 17
3 66 65 38
3 66 11 65
3 66 51 11
3 67 51 66
3 67 0 51
3 67 240 242
3 242 241 0
3 240 241 242
3 244 243 67
3 246 245 18
