ply
format ascii 1.0
element vertex 93
property float x
property float y
property float z
element face 68
property list uchar int vertex_index
end_header
-20.58276 -32.253651 -25.323586
-17.874165 -32.401768 -28.316063
-14.977753 -32.65683 -31.406055
-16.463659 -32.561546 -29.816422
-15.778938 -30.377287 -30.95216
-22.110842 -34.174309 -22.954329
-20.958303 -34.464405 -24.288746
-19.722134 -34.63665 -25.726259
-19.216473 -32.488403 -26.811802
-17.22798 -34.889217 -28.574413
-15.925651 -34.923943 -30.059273
-16.182059 -29.118623 -30.827371
-16.502121 -30.296703 -30.218668
-22.572609 -33.10301 -22.720228
-22.621935 -34.109541 -22.327665
-20.770532 -33.359028 -24.806166
-21.386975 -33.321207 -24.098799
-21.199203 -32.21583 -24.616219
-18.545319 -32.445085 -27.563932
-18.981435 -31.389145 -27.3372
-18.310281 -31.345828 -28.08933
-18.161284 -33.596806 -27.750345
-18.832438 -33.640123 -26.998214
-18.545319 -32.445085 -27.563932
-17.551073 -33.645493 -28.445238
-17.838191 -34.84053 -27.87952
-18.161284 -33.596806 -27.750345
-14.816529 -33.924504 -31.448457
-15.290478 -35.05806 -30.775067
-15.451702 -33.790386 -30.732664
-21.075629 -31.051826 -25.110984
-21.199203 -32.21583 -24.616219
-17.549734 -31.308943 -28.900619
-18.310281 -31.345828 -28.08933
-16.844482 -31.388832 -29.650799
-17.168912 -32.481657 -29.066243
-17.549734 -31.308943 -28.900619
-16.121299 -31.469417 -30.384291
-16.844482 -31.388832 -29.650799
-16.502121 -30.296703 -30.218668
-22.22618 -35.033478 -22.545379
-22.621935 -34.109541 -22.327665
-21.721347 -35.225988 -23.144678
-22.22618 -35.033478 -22.545379
-21.963245 -33.176159 -23.43159
-22.572609 -33.10301 -22.720228
-21.534573 -34.319357 -23.621538
-21.963245 -33.176159 -23.43159
-21.386975 -33.321207 -24.098799
-21.145077 -35.371037 -23.811886
-21.721347 -35.225988 -23.144678
-21.534573 -34.319357 -23.621538
-20.605103 -35.552695 -24.45108
-21.145077 -35.371037 -23.811886
-19.987018 -35.638817 -25.169837
-20.605103 -35.552695 -24.45108
-20.340218 -34.550528 -25.007503
-19.373306 -35.816204 -25.897526
-19.987018 -35.638817 -25.169837
-20.367109 -31.180321 -25.860027
-21.075629 -31.051826 -25.110984
-19.683965 -31.297697 -26.604135
-18.981435 -31.389145 -27.3372
-19.899617 -32.371027 -26.067694
-20.367109 -31.180321 -25.860027
-19.683965 -31.297697 -26.604135
-19.085268 -34.714247 -26.455443
-19.469304 -33.562527 -26.26903
-18.832438 -33.640123 -26.998214
-19.373306 -35.816204 -25.897526
-19.085268 -34.714247 -26.455443
-17.53974 -36.082813 -28.022128
-17.838191 -34.84053 -27.87952
-16.960458 -36.190462 -28.722087
-17.53974 -36.082813 -28.022128
-16.309293 -36.207825 -29.464517
-16.960458 -36.190462 -28.722087
-16.576815 -34.90658 -29.316843
-15.759799 -36.275574 -30.133952
-16.309293 -36.207825 -29.464517
-15.759799 -36.275574 -30.133952
-15.290478 -35.05806 -30.775067
-15.410827 -29.175629 -31.580896
-16.182059 -29.118623 -30.827371
-15.019362 -30.277173 -31.753863
-15.410827 -29.175629 -31.580896
-14.61877 -31.416944 -31.98081
-15.378346 -31.517058 -31.179108
-15.019362 -30.277173 -31.753863
-14.347222 -32.708409 -32.088396
-14.61877 -31.416944 -31.98081
-14.816529 -33.924504 -31.448457
-14.347222 -32.708409 -32.088396
3 11 4 12
3 13 5 14
3 0 15 17
3 15 6 16
3 15 16 17
3 0 7 6
3 1 18 20
3 18 8 19
3 18 19 20
3 1 21 23
3 23 22 8
3 21 22 23
3 1 24 26
3 24 9 25
3 24 25 26
3 2 10 3
3 2 27 29
3 29 28 10
3 27 28 29
3 30 0 31
3 32 1 33
3 34 3 35
3 36 35 1
3 34 35 36
3 4 37 39
3 37 3 38
3 37 38 39
3 4 2 3
3 5 40 41
3 5 42 43
3 44 5 45
3 6 46 48
3 46 5 47
3 46 47 48
3 6 49 51
3 51 50 5
3 49 50 51
3 6 52 53
3 7 54 56
3 56 55 6
3 54 55 56
3 7 57 58
3 59 0 60
3 8 61 62
3 8 63 65
3 63 0 64
3 63 64 65
3 8 7 0
3 66 7 67
3 68 67 8
3 66 67 68
3 70 69 7
3 9 71 72
3 9 73 74
3 3 9 1
3 10 9 3
3 10 75 77
3 77 76 9
3 75 76 77
3 10 78 79
3 81 80 10
3 82 4 83
3 84 4 85
3 86 2 87
3 88 87 4
3 86 87 88
3 89 2 90
3 92 91 2
