ply
format ascii 1.0
element vertex 71
property float x
property float y
property float z
element face 53
property list uchar int vertex_index
end_header
-34.208519 38.426914 23.43647
-34.22905 30.090609 25.916723
-33.615372 33.347279 27.124163
-34.20145 34.277328 24.890013
-34.804298 39.583126 20.976297
-34.839672 35.465405 22.444736
-34.165836 26.089657 26.893724
-34.837669 31.294888 23.733042
-34.204985 36.352121 24.163241
-33.916887 35.87608 25.34085
-33.920422 37.950873 24.614078
-35.404848 38.854112 19.251487
-35.130293 38.130526 20.50083
-35.078854 40.306713 19.726954
-33.9133 29.692326 27.017656
-33.60646 31.320661 27.621376
-33.922211 31.718944 26.520443
-34.197443 28.090133 26.405223
-33.881692 27.69185 27.506156
-33.9133 29.692326 27.017656
-35.194599 31.833014 22.481802
-34.83867 33.380146 23.088889
-35.1956 33.918273 21.837649
-33.623848 35.411055 26.457925
-33.359555 34.737845 27.672345
-33.908411 33.812303 26.007088
-33.623848 35.411055 26.457925
-33.916887 35.87608 25.34085
-35.14798 36.071665 21.235049
-34.821985 37.524265 21.710516
-35.130293 38.130526 20.50083
-35.1956 33.918273 21.837649
-35.14798 36.071665 21.235049
-33.889719 39.862299 23.9958
-33.920422 37.950873 24.614078
-33.601622 39.386257 25.173409
-34.152989 40.4533 22.777721
-33.889719 39.862299 23.9958
-33.834189 41.888685 23.33705
-34.450878 41.031407 21.547634
-34.506409 39.00502 22.206384
-34.152989 40.4533 22.777721
-34.70965 41.514332 20.403945
-34.450878 41.031407 21.547634
-34.984206 42.237919 19.154603
-35.078854 40.306713 19.726954
-34.70965 41.514332 20.403945
-33.351067 32.590266 28.261989
-33.359555 34.737845 27.672345
-33.351067 32.590266 28.261989
-33.60646 31.320661 27.621376
-33.846424 25.575863 27.953998
-33.881692 27.69185 27.506156
-34.088287 23.965927 27.395114
-33.768875 23.452133 28.455388
-33.846424 25.575863 27.953998
-35.170302 29.773396 23.117447
-35.194599 31.833014 22.481802
-34.83046 29.227612 24.237974
-35.170302 29.773396 23.117447
-35.163092 27.70612 23.62238
-34.52615 28.625473 25.329815
-34.53336 30.692749 24.824883
-34.83046 29.227612 24.237974
-34.494543 26.624997 25.818315
-34.197443 28.090133 26.405223
-34.52615 28.625473 25.329815
-34.457935 24.494572 26.274596
-34.494543 26.624997 25.818315
-34.088287 23.965927 27.395114
-34.457935 24.494572 26.274596
3 0 8 10
3 8 3 9
3 8 9 10
3 13 12 4
3 11 12 13
3 1 14 16
3 16 15 2
3 14 15 16
3 1 17 19
3 17 6 18
3 17 18 19
3 20 7 21
3 22 21 5
3 20 21 22
3 23 2 24
3 3 25 27
3 25 2 26
3 25 26 27
3 3 1 2
3 4 5 0
3 28 5 29
3 30 29 4
3 28 29 30
3 32 31 5
3 33 0 34
3 33 34 35
3 36 0 37
3 36 37 38
3 39 4 40
3 41 40 0
3 39 40 41
3 42 4 43
3 46 45 4
3 44 45 46
3 2 47 48
3 50 49 2
3 6 51 52
3 6 53 55
3 53 54 55
3 5 3 0
3 7 3 5
3 7 1 3
3 56 7 57
3 58 7 59
3 58 59 60
3 61 1 62
3 63 62 7
3 61 62 63
3 64 6 65
3 66 65 1
3 64 65 66
3 67 6 68
3 70 69 6
