ply
format ascii 1.0
element vertex 66
property float x
property float y
property float z
element face 49
property list uchar int vertex_index
end_header
22.270069 43.819027 -10.88036
24.454746 42.271545 -9.008092
21.206051 48.044014 -12.649862
21.207581 44.649414 -11.825382
22.258392 47.512661 -11.642811
24.288727 45.724792 -9.540741
23.201443 50.218281 -11.319223
23.297346 46.77972 -10.604115
23.365755 43.119675 -9.959093
21.693238 49.399287 -12.553757
21.205461 49.765249 -13.119962
22.219409 49.13361 -12.050231
21.732222 47.778337 -12.146337
21.693238 49.399287 -12.553757
21.674035 42.496336 -11.018881
21.142791 42.91153 -11.491392
21.738825 44.23422 -11.352871
22.248024 42.023066 -10.56707
21.674035 42.496336 -11.018881
23.665275 49.618105 -10.719181
23.623819 51.307209 -11.003405
23.713227 47.898825 -10.361626
23.249395 48.499 -10.961669
23.665275 49.618105 -10.719181
23.951575 41.003984 -9.208057
23.40708 41.428049 -9.683558
23.910251 42.69561 -9.483593
20.664749 48.44 -13.220036
21.205461 49.765249 -13.119962
20.632207 46.65562 -12.743507
20.664749 48.44 -13.220036
21.206816 46.346714 -12.237622
20.632972 44.95832 -12.331267
20.632207 46.65562 -12.743507
24.661443 46.894132 -9.230402
24.208917 47.371361 -9.82994
24.748843 45.238455 -9.029107
24.661443 46.894132 -9.230402
24.831853 43.511831 -8.762783
24.371737 43.998169 -9.274417
24.748843 45.238455 -9.029107
20.627111 43.290024 -11.916021
20.632972 44.95832 -12.331267
20.627111 43.290024 -11.916021
21.142791 42.91153 -11.491392
23.153078 51.798944 -11.693431
23.623819 51.307209 -11.003405
22.690935 50.48642 -11.888437
23.153078 51.798944 -11.693431
22.729917 48.865471 -11.481017
22.219409 49.13361 -12.050231
22.690935 50.48642 -11.888437
23.793036 46.252256 -10.072428
23.713227 47.898825 -10.361626
24.208917 47.371361 -9.82994
22.795867 41.673389 -10.106437
22.248024 42.023066 -10.56707
22.817912 43.469351 -10.419726
22.795867 41.673389 -10.106437
23.40708 41.428049 -9.683558
24.963435 41.90773 -8.541559
24.831853 43.511831 -8.762783
24.511145 40.504602 -8.779222
24.963435 41.90773 -8.541559
23.951575 41.003984 -9.208057
24.511145 40.504602 -8.779222
3 9 2 10
3 11 4 12
3 13 12 2
3 11 12 13
3 0 14 16
3 16 15 3
3 14 15 16
3 0 17 18
3 19 6 20
3 21 7 22
3 23 22 6
3 21 22 23
3 1 8 5
3 1 24 26
3 26 25 8
3 24 25 26
3 2 27 28
3 2 29 30
3 2 31 33
3 31 3 32
3 31 32 33
3 4 3 2
3 4 0 3
3 34 5 35
3 36 5 37
3 38 1 39
3 40 39 5
3 38 39 40
3 3 41 42
3 44 43 3
3 6 45 46
3 6 47 48
3 6 49 51
3 49 4 50
3 49 50 51
3 7 4 6
3 7 0 4
3 5 52 54
3 52 7 53
3 52 53 54
3 8 7 5
3 8 0 7
3 8 55 57
3 57 56 0
3 55 56 57
3 59 58 8
3 60 1 61
3 62 1 63
3 65 64 1
