ply
format ascii 1.0
element vertex 114
property float x
property float y
property float z
element face 88
property list uchar int vertex_index
end_header
-6.843683 -10.74527 -62.383541
-6.76012 -0.361538 -66.780869
-6.850972 -5.937109 -64.513565
-8.077904 -1.498571 -66.986488
-8.072165 -4.611405 -65.690643
-6.858318 -3.296299 -65.641991
-9.879335 -11.402729 -63.385937
-5.706857 -2.09557 -65.432915
-5.750908 -4.875681 -64.297531
-6.86904 -8.702463 -63.309917
-5.995003 -10.341696 -62.063797
-7.703669 -10.111396 -63.095947
-9.39581 -14.555834 -61.80608
-8.528319 -12.065496 -62.57098
-7.328245 -12.475909 -61.840508
-7.419012 -0.930055 -66.883679
-8.054349 -0.012744 -67.55524
-7.395457 0.555773 -67.452431
-5.177324 -3.069483 -64.631863
-5.110069 -1.673557 -65.152332
-5.19935 -4.459539 -64.064171
-5.728883 -3.485626 -64.865223
-5.177324 -3.069483 -64.631863
-5.499161 -9.899277 -61.915346
-5.926319 -8.988374 -62.616995
-5.430477 -8.545955 -62.468544
-7.39127 -6.72975 -64.435791
-8.001867 -6.066897 -65.02433
-7.461569 -5.274257 -65.102104
-6.860006 -7.319786 -63.911741
-7.400304 -8.112426 -63.833967
-7.39127 -6.72975 -64.435791
-10.156047 -14.338445 -62.169463
-9.794656 -16.065843 -61.301783
-8.696313 -10.703606 -63.252724
-9.203827 -11.734113 -62.978459
-9.371821 -10.372222 -63.660202
-8.283988 -9.726556 -63.515207
-8.115994 -11.088446 -62.833464
-8.696313 -10.703606 -63.252724
-7.646636 -13.755559 -61.415245
-7.002641 -13.762895 -61.092612
-8.769843 -0.834111 -67.522724
-8.054349 -0.012744 -67.55524
-8.739677 -2.412558 -66.872646
-8.769843 -0.834111 -67.522724
-8.075035 -3.054988 -66.338565
-8.736808 -3.968975 -66.224723
-8.739677 -2.412558 -66.872646
-10.661421 -11.133525 -63.751131
-10.39781 -12.761893 -62.959391
-10.096076 -9.941126 -64.106547
-10.661421 -11.133525 -63.751131
-9.371821 -10.372222 -63.660202
-10.096076 -9.941126 -64.106547
-6.754966 1.115561 -67.335743
-7.395457 0.555773 -67.452431
-6.163612 0.246253 -66.641873
-6.754966 1.115561 -67.335743
-5.63698 -0.620763 -65.967895
-5.110069 -1.673557 -65.152332
-6.233488 -1.228554 -66.106892
-6.163612 0.246253 -66.641873
-5.63698 -0.620763 -65.967895
-5.274829 -5.779043 -63.558718
-5.19935 -4.459539 -64.064171
-4.72327 -5.362901 -63.325357
-5.804272 -6.255367 -63.733862
-5.274829 -5.779043 -63.558718
-5.328193 -7.158728 -62.995048
-6.354304 -6.786081 -63.841879
-6.30094 -5.406395 -64.405548
-5.804272 -6.255367 -63.733862
-6.363338 -8.168757 -63.240055
-6.860006 -7.319786 -63.911741
-6.354304 -6.786081 -63.841879
-6.432021 -9.52208 -62.686857
-6.363338 -8.168757 -63.240055
-5.926319 -8.988374 -62.616995
-8.633394 -5.570241 -65.499946
-8.736808 -3.968975 -66.224723
-8.633394 -5.570241 -65.499946
-8.001867 -6.066897 -65.02433
-7.817619 -8.816893 -63.726982
-8.283988 -9.726556 -63.515207
-7.286354 -9.40693 -63.202932
-7.817619 -8.816893 -63.726982
-7.400304 -8.112426 -63.833967
-9.00278 -16.055968 -60.990744
-9.401625 -17.565977 -60.486446
-9.794656 -16.065843 -61.301783
-8.680418 -14.795521 -61.398032
-9.00278 -16.055968 -60.990744
-9.637573 -12.979282 -62.596008
-10.156047 -14.338445 -62.169463
-10.39781 -12.761893 -62.959391
-8.246672 -13.550352 -61.780482
-8.680418 -14.795521 -61.398032
-8.962065 -13.310665 -62.18853
-7.928282 -12.270702 -62.205744
-7.646636 -13.755559 -61.415245
-8.246672 -13.550352 -61.780482
-6.780295 -12.477369 -61.543797
-7.002641 -13.762895 -61.092612
-7.085964 -11.610589 -62.112025
-6.538015 -11.612049 -61.815314
-6.780295 -12.477369 -61.543797
-5.594849 -11.273928 -61.380198
-5.499161 -9.899277 -61.915346
-6.113675 -11.410262 -61.655442
-5.594849 -11.273928 -61.380198
-6.538015 -11.612049 -61.815314
-6.419343 -10.543483 -62.223669
-6.113675 -11.410262 -61.655442
3 1 15 17
3 15 3 16
3 15 16 17
3 1 5 3
3 18 7 19
3 20 8 21
3 22 21 7
3 20 21 22
3 23 10 24
3 23 24 25
3 2 26 28
3 28 27 4
3 26 27 28
3 2 29 31
3 29 9 30
3 29 30 31
3 32 12 33
3 34 13 35
3 36 35 6
3 34 35 36
3 37 11 38
3 39 38 13
3 37 38 39
3 40 14 41
3 3 42 43
3 3 44 45
3 3 46 48
3 46 4 47
3 46 47 48
3 5 4 3
3 5 2 4
3 49 6 50
3 51 6 52
3 54 53 6
3 55 1 56
3 57 1 58
3 7 59 60
3 7 61 63
3 61 1 62
3 61 62 63
3 7 5 1
3 8 5 7
3 8 2 5
3 64 8 65
3 64 65 66
3 67 8 68
3 67 68 69
3 70 2 71
3 72 71 8
3 70 71 72
3 73 9 74
3 75 74 2
3 73 74 75
3 10 76 78
3 76 9 77
3 76 77 78
3 10 0 9
3 4 79 80
3 82 81 4
3 83 11 84
3 9 85 87
3 85 11 86
3 85 86 87
3 9 0 11
3 12 88 90
3 88 89 90
3 12 91 92
3 6 93 95
3 93 12 94
3 93 94 95
3 13 12 6
3 13 96 98
3 98 97 12
3 96 97 98
3 13 99 101
3 99 14 100
3 99 100 101
3 11 14 13
3 11 0 14
3 14 102 103
3 14 104 106
3 104 0 105
3 104 105 106
3 107 10 108
3 109 10 110
3 111 0 112
3 113 112 10
3 111 112 113
