ply
format ascii 1.0
element vertex 128
property float x
property float y
property float z
element face 110
property list uchar int vertex_index
end_header
-15.78131 102.652748 -36.086388
-21.332802 93.462311 -44.220913
-13.638537 99.088394 -40.331062
-20.71277 101.779076 -35.843704
-23.249777 96.923592 -40.110111
-18.676067 98.734833 -40.557354
-25.562683 90.640617 -43.494026
-18.270729 102.446083 -36.008266
-19.793867 100.508171 -38.156315
-17.27553 100.8964 -38.37886
-22.311386 95.365593 -42.255848
-24.555365 93.867325 -41.886459
-23.506897 92.304016 -43.93277
-14.703261 100.962479 -38.360954
-20.265886 91.250801 -45.978428
-22.430431 90.285347 -45.815041
-21.435217 88.13504 -47.318184
-21.983004 99.486519 -38.165245
-20.999273 98.112167 -40.357063
-20.145819 96.195175 -42.522987
-16.212727 99.074623 -40.524075
-17.751139 96.693954 -42.628643
-18.91604 94.121338 -44.429047
-26.362024 92.229599 -41.334232
-24.546358 88.903976 -45.449787
-26.350424 87.074554 -45.037495
-16.352552 103.370098 -34.800642
-15.12592 103.376728 -34.817861
-17.02602 102.549416 -36.047327
-17.597262 103.266765 -34.761581
-16.352552 103.370098 -34.800642
-20.272962 88.518616 -47.366962
-20.850552 89.69292 -46.648306
-19.688297 90.076496 -46.697085
-21.178813 102.330365 -34.465546
-20.04643 102.739895 -34.587413
-21.793389 101.245365 -35.722061
-21.178813 102.330365 -34.465546
-21.347887 100.632798 -37.004475
-22.428506 100.099087 -36.882831
-21.793389 101.245365 -35.722061
-17.102047 95.652359 -43.460831
-16.38526 96.912788 -42.464624
-17.684497 94.366051 -44.361033
-18.333589 95.407646 -43.528845
-17.102047 95.652359 -43.460831
-18.396402 92.927933 -45.244333
-17.684497 94.366051 -44.361033
-24.25293 96.146744 -39.900978
-23.693905 97.556923 -38.930592
-26.376055 89.820141 -43.173595
-26.775725 90.614632 -42.093699
-25.962353 91.435108 -42.414129
-24.034308 87.885468 -46.29208
-23.488394 89.594662 -45.632414
-22.976344 88.576153 -46.474707
-26.778258 85.187671 -45.584225
-25.893472 86.115688 -45.915977
-27.160861 86.166412 -44.642283
-26.778258 85.187671 -45.584225
-18.825409 103.073398 -34.669694
-17.597262 103.266765 -34.761581
-19.491749 102.11258 -35.925985
-20.04643 102.739895 -34.587413
-18.825409 103.073398 -34.669694
-14.328958 98.110008 -41.315834
-12.978617 98.066136 -41.152824
-14.539371 102.613129 -36.019299
-15.12592 103.376728 -34.817861
-14.000346 101.767994 -37.156582
-15.242285 101.807614 -37.223671
-14.539371 102.613129 -36.019299
-13.399914 100.898247 -38.202846
-14.000346 101.767994 -37.156582
-12.867551 99.961204 -39.1879
-14.170899 100.025436 -39.346008
-13.399914 100.898247 -38.202846
-12.230242 98.963562 -40.120422
-12.867551 99.961204 -39.1879
-12.978617 98.066136 -41.152824
-12.230242 98.963562 -40.120422
-22.478737 87.501 -47.226278
-22.976344 88.576153 -46.474707
-21.932824 89.210194 -46.566613
-20.765079 86.922733 -47.983973
-20.272962 88.518616 -47.366962
-21.838923 86.472473 -47.917242
-20.765079 86.922733 -47.983973
-22.478737 87.501 -47.226278
-21.838923 86.472473 -47.917242
-23.060519 98.838386 -37.958158
-22.428506 100.099087 -36.882831
-22.616391 98.205056 -39.137678
-23.693905 97.556923 -38.930592
-23.060519 98.838386 -37.958158
-15.616053 98.103122 -41.41234
-14.925632 99.081508 -40.427569
-14.328958 98.110008 -41.315834
-16.981933 97.884288 -41.576359
-15.616053 98.103122 -41.41234
-16.38526 96.912788 -42.464624
-19.071325 91.492664 -46.019024
-19.590963 92.68607 -45.203738
-18.396402 92.927933 -45.244333
-19.688297 90.076496 -46.697085
-19.071325 91.492664 -46.019024
-24.905724 94.61861 -40.789152
-24.25293 96.146744 -39.900978
-23.902571 95.395458 -40.998285
-25.809054 93.799747 -40.513039
-24.905724 94.61861 -40.789152
-25.458695 93.048462 -41.610346
-26.676583 92.873501 -40.227615
-25.809054 93.799747 -40.513039
-27.198137 91.242413 -40.936033
-26.676583 92.873501 -40.227615
-27.198137 91.242413 -40.936033
-26.775725 90.614632 -42.093699
-24.991439 87.030399 -46.122124
-24.034308 87.885468 -46.29208
-25.448391 87.989265 -45.243641
-24.991439 87.030399 -46.122124
-25.893472 86.115688 -45.915977
-26.769925 88.037109 -43.94533
-26.376055 89.820141 -43.173595
-25.956553 88.857585 -44.26576
-26.769925 88.037109 -43.94533
-27.160861 86.166412 -44.642283
3 0 26 27
3 0 28 30
3 28 7 29
3 28 29 30
3 0 9 7
3 1 12 10
3 31 16 32
3 33 32 14
3 31 32 33
3 3 34 35
3 3 36 37
3 3 38 40
3 38 17 39
3 38 39 40
3 5 18 8
3 5 19 18
3 2 20 13
3 41 21 42
3 43 22 44
3 45 44 21
3 43 44 45
3 47 46 22
3 4 48 49
3 6 23 11
3 6 50 52
3 52 51 23
3 50 51 52
3 53 24 54
3 55 54 15
3 53 54 55
3 56 25 57
3 59 58 25
3 7 60 61
3 7 62 64
3 62 3 63
3 62 63 64
3 7 8 3
3 9 8 7
3 9 5 8
3 66 65 2
3 10 11 4
3 12 11 10
3 12 6 11
3 67 0 68
3 69 13 70
3 71 70 0
3 69 70 71
3 72 13 73
3 74 2 75
3 76 75 13
3 74 75 76
3 77 2 78
3 80 79 2
3 14 15 1
3 16 15 14
3 16 81 83
3 83 82 15
3 81 82 83
3 84 16 85
3 86 16 87
3 89 88 16
3 17 90 91
3 17 92 94
3 92 4 93
3 92 93 94
3 8 17 3
3 18 17 8
3 18 4 17
3 18 10 4
3 19 10 18
3 19 1 10
3 13 9 0
3 20 9 13
3 20 5 9
3 95 20 96
3 97 96 2
3 95 96 97
3 21 98 100
3 98 20 99
3 98 99 100
3 21 5 20
3 21 19 5
3 22 19 21
3 22 1 19
3 22 14 1
3 101 14 102
3 103 102 22
3 101 102 103
3 105 104 14
3 11 106 108
3 108 107 4
3 106 107 108
3 23 109 111
3 111 110 11
3 109 110 111
3 23 112 113
3 23 114 115
3 117 116 23
3 15 12 1
3 24 12 15
3 24 6 12
3 118 24 119
3 25 120 122
3 120 24 121
3 120 121 122
3 25 6 24
3 25 123 125
3 125 124 6
3 123 124 125
3 127 126 25
