ply
format ascii 1.0
element vertex 573
property float x
property float y
property float z
element face 604
property list uchar int vertex_index
end_header
-28.66691 -40.43227 32.491753
-16.961929 -45.775288 35.702457
-12.766424 -65.522766 29.761169
-27.498064 -47.885513 30.29166
-32.757977 -42.375534 28.029186
-23.17733 -42.731667 34.121193
-21.196325 -52.287697 32.073872
-19.077785 -61.389969 28.371344
-32.090153 -34.016129 31.186029
-36.693016 -35.222507 24.837915
-6.386343 -68.748871 30.077887
-28.20936 -43.878731 31.664782
-30.291883 -45.397324 29.220285
-30.707226 -41.432194 30.731134
-26.182564 -41.504459 33.336746
-25.23004 -45.711269 32.558182
-33.551647 -46.972687 21.595568
-23.308544 -54.558453 29.548283
-20.126123 -56.923706 30.483059
-22.235357 -58.789383 27.332396
-34.111988 -30.241373 29.79229
-34.692616 -34.605007 28.39769
-36.447426 -30.660276 26.655968
-10.71738 -62.393917 32.723217
-7.653258 -63.786068 33.252838
-9.594017 -67.21064 30.020718
-26.513111 -52.16663 28.325857
-29.420673 -49.510765 27.131546
-32.107094 -46.42466 25.912924
-34.482925 -43.067539 24.457907
-20.038641 -44.424889 34.817749
-18.98872 -49.074036 34.110909
-22.141607 -47.530899 33.289116
-24.334984 -50.248634 31.220142
-14.971702 -68.144516 26.214178
-11.645136 -70.294083 26.473492
-13.911208 -60.684147 32.128437
-16.974771 -58.923752 31.387299
-15.850789 -63.71133 29.183262
-17.948921 -65.823151 25.600191
-27.495718 -37.57476 33.50983
-30.182961 -37.583218 32.08012
-32.690239 -38.19949 29.835768
-34.890442 -38.908554 26.624008
-36.413857 -39.539013 22.797838
-4.751873 -65.075455 33.74334
-3.40556 -69.967209 30.256083
-8.504879 -72.072227 26.316921
-5.237975 -73.543556 26.158257
-28.512203 -41.965977 32.153328
-29.551363 -42.691601 31.206131
-29.550619 -40.884499 31.817438
-27.623661 -40.877384 32.890831
-27.261431 -42.697975 32.576801
-24.241158 -55.521526 27.958008
-22.725975 -56.73867 28.520321
-23.081999 -59.535831 25.455631
-35.010761 -28.216078 29.0287
-35.34708 -30.422169 28.32653
-11.646009 -64.155281 31.235577
-10.160877 -64.987274 31.365606
-11.192869 -66.518967 29.828888
-27.03356 -49.989273 29.407742
-28.591608 -48.704792 28.79409
-31.536337 -43.92926 28.693848
-31.307096 -45.878563 27.65309
-32.557396 -44.376144 26.975971
-33.340916 -44.921761 25.066978
-33.727291 -42.717842 26.29192
-21.632652 -43.611324 34.446133
-20.992117 -46.030678 34.120323
-22.640551 -45.209213 33.729767
-26.411894 -46.923309 31.492367
-24.835108 -47.893116 31.958988
-25.871124 -49.148529 30.79014
-25.509115 -51.27594 29.864683
-14.39698 -70.350517 24.529099
-20.125067 -50.628571 33.180809
-19.489279 -53.124996 32.602512
-19.6595 -59.106167 29.499714
-18.536673 -57.80389 31.037886
-18.136675 -60.184608 29.939917
-16.514666 -61.275574 30.349148
-17.44417 -62.547665 28.86231
-16.962069 -64.755112 27.540197
-18.542589 -63.581551 27.079575
-31.149107 -35.887165 31.659674
-31.494761 -37.887096 31.036245
-32.451077 -36.114876 30.545197
-35.778927 -34.919861 26.710941
-34.840565 -36.803482 27.577749
-35.861469 -37.064003 25.74671
-35.790569 -39.068115 24.778715
-36.652409 -37.400921 23.788774
-7.133131 -66.330872 31.687731
-6.166759 -64.592056 33.393055
-5.616109 -66.861443 31.929186
-4.175564 -67.617767 31.970106
-4.948628 -69.363945 30.124567
-11.19171 -72.672401 24.432011
-10.133987 -71.288925 26.330309
-9.661907 -73.500916 24.40712
-6.320217 -75.286232 24.016361
-3.655777 -74.368179 25.947613
-27.931589 -45.814461 31.02319
-29.018129 -46.645287 29.724621
-29.307438 -44.638161 30.549328
-30.535831 -43.444454 30.03973
-31.688835 -42.029385 29.524349
-24.681227 -42.152477 33.737423
-24.138798 -44.408466 33.388691
-25.726215 -43.60017 32.989567
-26.746969 -44.800026 32.143242
-32.275539 -48.731438 22.383272
-22.351713 -53.551758 30.825649
-20.622156 -54.558571 31.392689
-21.692345 -55.779167 30.035757
-21.216099 -58.013325 28.9611
-20.655094 -60.201393 27.816689
-20.065685 -62.312122 26.599506
-21.571001 -60.981438 26.039742
-33.14333 -32.20948 30.499617
-33.437035 -34.321434 29.906834
-34.430595 -32.403721 29.144529
-35.61599 -32.623672 27.558664
-36.57827 -33.064228 25.841284
-8.267233 -61.299637 34.500771
-9.203177 -63.262222 32.890102
-8.57452 -65.675545 31.565491
-7.973225 -68.108208 29.981533
-30.001656 -47.347626 28.213957
-30.792917 -47.973888 26.582865
-31.658291 -48.338352 24.566601
-32.881954 -46.809315 23.819277
-34.057716 -45.097519 23.131559
-18.517654 -45.005085 35.248569
-17.882172 -47.51997 34.935513
-19.448923 -46.861607 34.48801
-20.555708 -48.316616 33.694904
-21.615477 -49.846867 32.780281
-23.751066 -46.606728 32.912914
-23.2271 -48.916718 32.366318
-22.739782 -51.215931 31.699047
-23.853319 -52.34296 30.465805
-24.852428 -53.401371 29.010521
-13.79548 -67.040131 28.015516
-12.313542 -67.893112 28.194624
-13.320715 -69.359253 26.311665
-12.786846 -71.564713 24.535429
-12.243814 -61.672867 32.417538
-13.249756 -63.14064 31.07889
-14.874017 -62.18961 30.776848
-14.334961 -64.634422 29.501068
-15.417838 -65.998817 27.744415
-16.513659 -67.019897 25.917078
-28.169903 -39.200916 32.969662
-29.382029 -39.189522 32.319241
-28.8575 -37.564793 32.86956
-29.781456 -35.768562 32.582504
-30.693499 -33.868919 32.232376
-31.691046 -31.904329 31.743084
-32.803215 -29.968494 31.053144
-33.746616 -27.867846 30.404148
-20.677168 -42.007469 35.090698
-22.165131 -41.186016 34.759903
-23.722992 -40.526821 34.380932
-25.277214 -39.965786 33.967037
-26.802185 -39.483566 33.498814
-30.574135 -39.51527 31.416849
-31.763634 -39.974598 30.245968
-32.874542 -40.253483 28.927032
-33.692806 -36.409054 29.199005
-33.852825 -38.48991 28.369801
-33.83519 -40.678631 27.419706
-34.778965 -40.954025 25.613325
-35.520947 -41.271748 23.662544
-37.410004 -35.347927 22.920059
-37.276829 -37.456566 21.859495
-6.811429 -62.11808 34.748039
-5.422227 -62.760532 35.083344
-3.939171 -63.379372 35.530163
-10.613407 -68.851868 28.261885
-9.002326 -69.678246 28.269226
-7.417346 -70.35936 28.304815
-7.950288 -74.4189 24.251728
-6.849127 -72.811592 26.268206
-5.860899 -71.142303 28.189568
-4.203575 -71.850159 28.169161
-16.698056 -46.981678 35.537468
-16.205876 -46.162917 35.953411
-23.963583 -56.505016 27.381177
-24.704939 -55.887312 27.016673
-35.622326 -28.327129 28.199348
-35.486231 -27.174597 28.533444
-10.194949 -74.233799 23.342512
-10.426808 -73.086658 24.419565
-10.95985 -73.819541 23.354957
-33.237705 -47.830336 20.861521
-32.599651 -48.709711 21.255373
-32.913593 -47.852063 21.98942
-22.725559 -60.563742 24.781706
-23.457563 -59.865164 24.351369
-9.960279 -62.828069 32.806659
-9.468547 -61.965812 33.510647
-10.225649 -61.53166 33.427204
-26.964448 -52.468387 27.500703
-26.180884 -53.172439 27.822357
-29.12247 -50.528681 26.511928
-28.71302 -50.139172 27.473909
-29.858843 -49.731388 26.182901
-29.12247 -50.528681 26.511928
-34.83675 -43.168506 23.385565
-34.624145 -44.183497 22.722391
-34.27032 -44.082529 23.794733
-26.180884 -53.172439 27.822357
-25.350542 -53.78981 28.164689
-25.682769 -52.784 28.668189
-13.370299 -72.056748 23.543703
-13.591913 -70.957615 24.532264
-14.175366 -71.449649 23.540538
-12.533414 -72.623291 23.595877
-13.370299 -72.056748 23.543703
-13.077511 -61.178507 32.272987
-12.514774 -60.426561 32.913418
-13.348471 -59.932202 32.768867
-18.202295 -49.528284 34.310274
-17.649021 -48.751251 34.722577
-18.435446 -48.297003 34.523211
-19.550516 -56.22431 31.183652
-19.798533 -55.041742 31.638467
-20.374139 -55.741139 30.937874
-17.235706 -57.672771 31.835484
-18.016657 -57.112841 31.660778
-17.755722 -58.363821 31.212592
-16.443926 -58.179212 32.022362
-17.235706 -57.672771 31.835484
-16.208544 -59.431698 31.552546
-16.443926 -58.179212 32.022362
-17.706285 -66.885807 24.758824
-16.988655 -67.48418 24.917268
-17.23129 -66.421524 25.758634
-19.778189 -63.385496 25.872228
-20.514185 -62.688809 25.601919
-29.501848 -34.86013 32.843739
-29.057172 -35.810907 32.966177
-29.95787 -33.910308 32.668675
-30.237477 -34.818741 32.40744
-29.501848 -34.86013 32.843739
-31.456117 -30.878982 32.011135
-30.942744 -31.899152 32.248263
-32.012202 -29.911064 31.666165
-32.24713 -30.936411 31.398114
-31.456117 -30.878982 32.011135
-33.544228 -26.795341 30.683341
-32.988247 -27.862602 31.061054
-34.251998 -26.849003 29.975124
-33.544228 -26.795341 30.683341
-20.991944 -40.80715 35.212885
-20.208542 -41.116422 35.428325
-21.735925 -40.396423 35.047488
-21.421149 -41.596743 34.925301
-20.991944 -40.80715 35.212885
-24.084529 -39.485042 34.442179
-23.303334 -39.713341 34.660448
-24.86164 -39.204525 34.235231
-24.500103 -40.246303 34.173985
-24.084529 -39.485042 34.442179
-27.148952 -38.529163 33.504322
-26.401537 -38.746189 33.765416
-26.748303 -37.791786 33.770924
-36.278693 -40.520708 22.150318
-35.832238 -41.387076 22.582671
-35.967402 -40.40538 23.230191
-37.68853 -35.44128 21.836717
-37.724894 -34.333303 22.431284
-37.621943 -36.4956 21.306435
-37.343417 -36.402247 22.389777
-37.68853 -35.44128 21.836717
-4.079025 -65.447098 33.819422
-3.672674 -64.599057 34.712834
-4.345522 -64.227413 34.636752
-3.022575 -69.093254 31.245326
-3.407576 -67.918533 32.102338
-3.790562 -68.792488 31.113095
-2.628322 -70.394451 30.238249
-3.022575 -69.093254 31.245326
-7.682104 -75.548394 23.180728
-8.532241 -75.145577 23.218635
-3.183888 -73.421573 27.07449
-2.865852 -74.635551 26.009309
-33.862749 -46.895744 20.473616
-34.152334 -46.009663 21.261933
-23.205991 -57.113588 27.662333
-23.483566 -56.130098 28.239165
-23.963583 -56.505016 27.381177
-22.960683 -58.138945 27.068371
-22.480666 -57.764026 27.926358
-23.205991 -57.113588 27.662333
-23.384003 -58.512169 26.129988
-22.658678 -59.162607 26.394013
-22.960683 -58.138945 27.068371
-23.766002 -58.900413 25.119646
-23.384003 -58.512169 26.129988
-23.457563 -59.865164 24.351369
-23.766002 -58.900413 25.119646
-35.790486 -29.430175 27.848263
-35.178921 -29.319123 28.677615
-35.622326 -28.327129 28.199348
-36.340659 -29.549228 27.012982
-35.897253 -30.541222 27.491249
-35.790486 -29.430175 27.848263
-27.519464 -50.378425 28.612007
-27.259239 -51.467104 28.071065
-26.773336 -51.077951 28.866799
-28.298488 -49.736185 28.305181
-27.519464 -50.378425 28.612007
-27.812584 -49.347032 29.100916
-29.006141 -49.107778 27.962818
-28.71302 -50.139172 27.473909
-28.298488 -49.736185 28.305181
-15.162166 -69.768364 24.421064
-14.684341 -69.247516 25.371638
-15.449527 -68.665363 25.263604
-14.986044 -70.745735 23.526015
-15.162166 -69.768364 24.421064
-14.175366 -71.449649 23.540538
-14.986044 -70.745735 23.526015
-14.112868 -59.515175 32.589658
-13.348471 -59.932202 32.768867
-19.285329 -51.099457 33.398178
-18.717156 -50.32219 33.863228
-19.556894 -49.851304 33.645859
-18.967435 -52.34767 33.109029
-19.285329 -51.099457 33.398178
-19.807173 -51.876784 32.891661
-18.689998 -53.586557 32.81719
-18.967435 -52.34767 33.109029
-27.914303 -36.714006 33.42984
-27.126464 -36.806587 33.763012
-27.126464 -36.806587 33.763012
-26.748303 -37.791786 33.770924
-5.999293 -76.483143 22.880799
-6.867069 -75.982059 23.063045
-5.47811 -75.578438 24.035317
-5.999293 -76.483143 22.880799
-4.936989 -74.7071 25.106265
-5.779096 -74.414894 25.087309
-5.47811 -75.578438 24.035317
-4.145891 -75.119411 25.000943
-4.446876 -73.955867 26.052935
-4.936989 -74.7071 25.106265
-3.35538 -75.569686 24.842771
-4.145891 -75.119411 25.000943
-2.865852 -74.635551 26.009309
-3.35538 -75.569686 24.842771
-31.963859 -49.562002 21.653328
-31.620235 -49.549458 22.760339
-31.963859 -49.562002 21.653328
-32.599651 -48.709711 21.255373
-33.237705 -47.830336 20.861521
-33.862749 -46.895744 20.473616
-21.266843 -62.023466 25.322037
-20.514185 -62.688809 25.601919
-20.818343 -61.64678 26.319624
-21.97006 -61.286545 25.073761
-22.3265 -60.258634 25.747687
-22.725559 -60.563742 24.781706
-21.266843 -62.023466 25.322037
-21.97006 -61.286545 25.073761
-9.000575 -60.98452 34.315981
-8.599317 -60.101948 34.978878
-8.735205 -62.280929 33.695436
-9.000575 -60.98452 34.315981
-9.468547 -61.965812 33.510647
-26.964448 -52.468387 27.500703
-27.259239 -51.467104 28.071065
-30.544965 -48.96295 25.90856
-29.858843 -49.731388 26.182901
-30.106795 -48.742327 26.857205
-30.977652 -49.145181 24.900428
-30.544965 -48.96295 25.90856
-31.225604 -48.15612 25.574733
-31.311611 -49.352914 23.852003
-30.977652 -49.145181 24.900428
-31.966915 -48.534895 23.474936
-31.620235 -49.549458 22.760339
-31.311611 -49.352914 23.852003
-34.405368 -45.072079 22.029929
-34.152334 -46.009663 21.261933
-33.804682 -46.035103 22.363563
-34.405368 -45.072079 22.029929
-34.624145 -44.183497 22.722391
-25.044907 -54.849888 27.638433
-24.546793 -54.461449 28.484265
-25.350542 -53.78981 28.164689
-24.704939 -55.887312 27.016673
-25.044907 -54.849888 27.638433
-11.735846 -73.177135 23.544168
-11.989278 -72.118557 24.48372
-12.533414 -72.623291 23.595877
-10.95985 -73.819541 23.354957
-11.735846 -73.177135 23.544168
-10.983031 -61.118036 33.276243
-10.225649 -61.53166 33.427204
-11.746249 -60.757511 33.123403
-12.514774 -60.426561 32.913418
-11.480597 -62.033392 32.570377
-10.983031 -61.118036 33.276243
-11.746249 -60.757511 33.123403
-17.158178 -47.854019 35.153996
-16.698056 -46.981678 35.537468
-17.422051 -46.647629 35.318985
-17.158178 -47.854019 35.153996
-17.649021 -48.751251 34.722577
-18.202295 -49.528284 34.310274
-18.717156 -50.32219 33.863228
-19.232094 -54.324955 32.243378
-20.055718 -53.841784 31.9976
-19.798533 -55.041742 31.638467
-18.689998 -53.586557 32.81719
-19.232094 -54.324955 32.243378
-18.755791 -56.664402 31.461066
-19.550516 -56.22431 31.183652
-19.331398 -57.363798 30.760472
-18.755791 -56.664402 31.461066
-18.016657 -57.112841 31.660778
-14.676762 -60.311896 31.923115
-14.112868 -59.515175 32.589658
-15.978491 -60.607609 31.03347
-16.208544 -59.431698 31.552546
-16.744718 -60.099663 30.868223
-15.158167 -61.064627 31.247321
-15.978491 -60.607609 31.03347
-15.694342 -61.732592 30.562998
-14.392613 -61.436879 31.452642
-14.676762 -60.311896 31.923115
-15.158167 -61.064627 31.247321
-16.220506 -68.103054 25.115054
-15.449527 -68.665363 25.263604
-15.742681 -67.582206 26.065628
-16.220506 -68.103054 25.115054
-16.988655 -67.48418 24.917268
-19.016641 -64.020211 26.112262
-19.304137 -62.946837 26.83954
-19.778189 -63.385496 25.872228
-18.719808 -65.14101 25.37257
-18.245755 -64.702351 26.339883
-19.016641 -64.020211 26.112262
-18.432866 -66.151837 24.624154
-18.719808 -65.14101 25.37257
-17.706285 -66.885807 24.758824
-18.432866 -66.151837 24.624154
-28.595194 -36.709023 33.109705
-28.176609 -37.569777 33.189695
-27.914303 -36.714006 33.42984
-29.319478 -36.666678 32.726032
-28.595194 -36.709023 33.109705
-29.057172 -35.810907 32.966177
-30.443971 -32.881446 32.492908
-29.95787 -33.910308 32.668675
-31.192273 -32.886624 31.98773
-30.443971 -32.881446 32.492908
-30.942744 -31.899152 32.248263
-32.516546 -28.912926 31.385552
-32.012202 -29.911064 31.666165
-33.274916 -28.91817 30.728646
-32.516546 -28.912926 31.385552
-32.988247 -27.862602 31.061054
-34.884071 -27.023119 29.287399
-34.378689 -28.041962 29.716424
-34.251998 -26.849003 29.975124
-35.486231 -27.174597 28.533444
-34.884071 -27.023119 29.287399
-16.502417 -44.975518 36.087147
-16.205876 -46.162917 35.953411
-17.255051 -44.534061 35.847955
-16.502417 -44.975518 36.087147
-18.032913 -44.14896 35.621012
-17.739792 -45.390186 35.475513
-17.255051 -44.534061 35.847955
-18.830956 -43.812041 35.377798
-18.032913 -44.14896 35.621012
-19.591449 -43.521943 35.162388
-19.278147 -44.714987 35.033159
-18.830956 -43.812041 35.377798
-19.910713 -42.313232 35.298862
-20.208542 -41.116422 35.428325
-20.357905 -43.216179 34.954223
-19.591449 -43.521943 35.162388
-19.910713 -42.313232 35.298862
-22.524403 -40.042938 34.849934
-21.735925 -40.396423 35.047488
-22.944062 -40.856419 34.570418
-22.524403 -40.042938 34.849934
-23.303334 -39.713341 34.660448
-25.639052 -38.987299 33.999527
-24.86164 -39.204525 34.235231
-26.0397 -39.724676 33.732926
-25.639052 -38.987299 33.999527
-26.401537 -38.746189 33.765416
-35.355761 -42.270611 22.987884
-34.83675 -43.168506 23.385565
-35.001936 -42.169643 24.060226
-35.355761 -42.270611 22.987884
-35.832238 -41.387076 22.582671
-36.844353 -29.601644 26.128622
-36.340659 -29.549228 27.012982
-36.878017 -30.807009 25.785027
-36.844353 -29.601644 26.128622
-36.943439 -32.008986 25.377685
-36.512848 -31.862252 26.248626
-36.878017 -30.807009 25.785027
-36.999203 -33.076693 24.898966
-36.943439 -32.008986 25.377685
-37.056576 -34.155832 24.397281
-36.635643 -34.143367 25.339599
-36.999203 -33.076693 24.898966
-37.41507 -34.218542 23.438353
-37.724894 -34.333303 22.431284
-37.05151 -35.285217 23.878987
-37.056576 -34.155832 24.397281
-37.41507 -34.218542 23.438353
-37.519101 -37.508509 20.767406
-37.621943 -36.4956 21.306435
-37.148613 -38.502275 21.248117
-37.519101 -37.508509 20.767406
-36.717127 -39.543499 21.717289
-36.845343 -38.497789 22.328666
-37.148613 -38.502275 21.248117
-36.278693 -40.520708 22.150318
-36.717127 -39.543499 21.717289
-7.883285 -60.45072 35.190838
-8.599317 -60.101948 34.978878
-7.155384 -60.859941 35.314472
-7.883285 -60.45072 35.190838
-7.539331 -61.708858 34.624405
-6.439919 -61.239834 35.519819
-7.155384 -60.859941 35.314472
-5.745318 -61.56106 35.687472
-6.439919 -61.239834 35.519819
-6.116828 -62.439306 34.915691
-5.03016 -61.844316 35.972979
-5.745318 -61.56106 35.687472
-4.288632 -62.153736 36.196388
-5.03016 -61.844316 35.972979
-4.680699 -63.069952 35.306753
-3.612936 -62.45422 36.477072
-4.288632 -62.153736 36.196388
-3.289723 -63.69019 35.724457
-3.612936 -62.45422 36.477072
-3.289723 -63.69019 35.724457
-3.672674 -64.599057 34.712834
-3.79087 -66.718254 32.932805
-4.079025 -65.447098 33.819422
-4.463718 -66.346611 32.856723
-3.79087 -66.718254 32.932805
-3.407576 -67.918533 32.102338
-9.388051 -74.686585 23.29633
-10.194949 -74.233799 23.342512
-8.806097 -73.959908 24.329424
-9.388051 -74.686585 23.29633
-8.532241 -75.145577 23.218635
-7.135252 -74.852566 24.134045
-7.682104 -75.548394 23.180728
-6.867069 -75.982059 23.063045
-3.457787 -72.162564 28.185264
-3.929676 -73.109169 27.058387
-3.183888 -73.421573 27.07449
-3.058779 -71.221089 29.228725
-3.804568 -70.908684 29.212622
-3.457787 -72.162564 28.185264
-2.628322 -70.394451 30.238249
-3.058779 -71.221089 29.228725
3 0 51 49
3 0 49 52
3 1 188 189
3 191 190 54
3 193 192 57
3 2 61 59
3 3 63 62
3 4 66 64
3 4 68 66
3 5 71 69
3 3 74 72
3 3 62 74
3 6 78 77
3 7 81 79
3 7 83 81
3 7 85 83
3 8 88 86
3 9 91 89
3 9 93 91
3 10 96 94
3 10 98 96
3 194 101 195
3 196 195 99
3 194 195 196
3 11 106 104
3 13 107 50
3 13 108 107
3 14 111 109
3 11 112 53
3 11 104 112
3 16 197 199
3 199 198 113
3 197 198 199
3 17 116 114
3 19 117 55
3 19 118 117
3 19 120 118
3 201 200 56
3 20 123 121
3 22 124 58
3 22 125 124
3 23 202 204
3 202 127 203
3 202 203 204
3 25 128 60
3 25 129 128
3 26 205 206
3 27 207 208
3 27 209 210
3 12 130 105
3 28 131 65
3 28 132 131
3 28 133 132
3 29 134 67
3 29 211 213
3 213 212 134
3 211 212 213
3 30 137 135
3 32 138 70
3 32 139 138
3 15 140 110
3 33 141 73
3 33 142 141
3 33 143 142
3 26 144 75
3 26 214 216
3 216 215 144
3 214 215 216
3 34 147 145
3 217 148 218
3 219 218 76
3 217 218 219
3 221 220 148
3 36 222 224
3 222 149 223
3 222 223 224
3 36 150 149
3 31 225 227
3 227 226 136
3 225 226 227
3 18 228 230
3 230 229 115
3 228 229 230
3 37 231 233
3 233 232 80
3 231 232 233
3 37 234 235
3 37 236 237
3 38 151 82
3 38 152 151
3 38 153 152
3 39 154 84
3 39 238 240
3 240 239 154
3 238 239 240
3 242 241 119
3 40 157 155
3 243 158 244
3 245 159 246
3 247 246 158
3 245 246 247
3 248 160 249
3 250 161 251
3 252 251 160
3 250 251 252
3 253 162 254
3 256 255 162
3 257 163 258
3 259 164 260
3 261 260 163
3 259 260 261
3 262 165 263
3 264 166 265
3 266 265 165
3 264 265 266
3 40 267 269
3 267 167 268
3 267 268 269
3 40 155 167
3 41 168 156
3 42 169 87
3 42 170 169
3 21 171 122
3 43 172 90
3 43 173 172
3 43 174 173
3 44 175 92
3 44 270 272
3 272 271 175
3 270 271 272
3 273 176 274
3 275 177 276
3 277 276 176
3 275 276 277
3 24 178 126
3 45 179 95
3 45 180 179
3 45 278 280
3 280 279 180
3 278 279 280
3 46 281 283
3 283 282 97
3 281 282 283
3 46 284 285
3 35 181 146
3 47 182 100
3 47 183 182
3 286 184 287
3 48 185 102
3 48 186 185
3 48 187 186
3 289 288 103
3 49 50 11
3 51 50 49
3 51 13 50
3 52 53 14
3 49 53 52
3 49 11 53
3 291 290 16
3 54 55 17
3 292 55 293
3 294 293 54
3 292 293 294
3 295 19 296
3 297 296 55
3 295 296 297
3 298 56 299
3 300 299 19
3 298 299 300
3 301 56 302
3 304 303 56
3 57 58 20
3 305 58 306
3 307 306 57
3 305 306 307
3 308 22 309
3 310 309 58
3 308 309 310
3 59 60 23
3 61 60 59
3 61 25 60
3 62 311 313
3 313 312 26
3 311 312 313
3 63 314 316
3 316 315 62
3 314 315 316
3 63 317 319
3 317 27 318
3 317 318 319
3 64 65 12
3 66 65 64
3 66 28 65
3 66 67 28
3 68 67 66
3 68 29 67
3 69 70 30
3 71 70 69
3 71 32 70
3 72 73 15
3 74 73 72
3 74 33 73
3 74 75 33
3 62 75 74
3 62 26 75
3 320 76 321
3 322 321 34
3 320 321 322
3 323 76 324
3 326 325 76
3 327 36 328
3 77 329 331
3 331 330 31
3 329 330 331
3 78 332 334
3 334 333 77
3 332 333 334
3 78 335 336
3 79 80 18
3 81 80 79
3 81 37 80
3 81 82 37
3 83 82 81
3 83 38 82
3 83 84 38
3 85 84 83
3 85 39 84
3 338 337 40
3 339 40 340
3 86 87 41
3 88 87 86
3 88 42 87
3 89 90 21
3 91 90 89
3 91 43 90
3 91 92 43
3 93 92 91
3 93 44 92
3 94 95 24
3 96 95 94
3 96 45 95
3 96 97 45
3 98 97 96
3 98 46 97
3 99 100 35
3 101 100 99
3 101 47 100
3 341 102 342
3 343 102 344
3 345 48 346
3 347 346 102
3 345 346 347
3 348 103 349
3 350 349 48
3 348 349 350
3 351 103 352
3 354 353 103
3 104 105 3
3 106 105 104
3 106 12 105
3 50 106 11
3 107 106 50
3 107 12 106
3 107 64 12
3 108 64 107
3 108 4 64
3 109 110 5
3 111 110 109
3 111 15 110
3 53 111 14
3 112 111 53
3 112 15 111
3 112 72 15
3 104 72 112
3 104 3 72
3 113 355 356
3 358 357 113
3 360 359 16
3 114 115 6
3 116 115 114
3 116 18 115
3 55 116 17
3 117 116 55
3 117 18 116
3 117 79 18
3 118 79 117
3 118 7 79
3 118 119 7
3 120 119 118
3 120 361 363
3 363 362 119
3 361 362 363
3 56 120 19
3 364 120 365
3 366 365 56
3 364 365 366
3 368 367 120
3 121 122 8
3 123 122 121
3 123 21 122
3 58 123 20
3 124 123 58
3 124 21 123
3 124 89 21
3 125 89 124
3 125 9 89
3 369 126 370
3 127 371 373
3 371 126 372
3 371 372 373
3 127 24 126
3 60 127 23
3 128 127 60
3 128 24 127
3 128 94 24
3 129 94 128
3 129 10 94
3 375 374 26
3 105 63 3
3 130 63 105
3 130 27 63
3 65 130 12
3 131 130 65
3 131 27 130
3 131 376 378
3 378 377 27
3 376 377 378
3 132 379 381
3 381 380 131
3 379 380 381
3 132 382 383
3 132 384 386
3 384 113 385
3 384 385 386
3 133 113 132
3 133 16 113
3 67 133 28
3 134 133 67
3 134 16 133
3 134 387 389
3 389 388 16
3 387 388 389
3 391 390 134
3 135 136 1
3 137 136 135
3 137 31 136
3 70 137 30
3 138 137 70
3 138 31 137
3 138 77 31
3 139 77 138
3 139 6 77
3 110 71 5
3 140 71 110
3 140 32 71
3 73 140 15
3 141 140 73
3 141 32 140
3 141 139 32
3 142 139 141
3 142 6 139
3 142 114 6
3 143 114 142
3 143 17 114
3 75 143 33
3 144 143 75
3 144 17 143
3 144 54 17
3 392 54 393
3 394 393 144
3 392 393 394
3 396 395 54
3 145 146 2
3 147 146 145
3 147 35 146
3 76 147 34
3 148 147 76
3 148 35 147
3 148 99 35
3 397 99 398
3 399 398 148
3 397 398 399
3 401 400 99
3 402 23 403
3 149 404 405
3 149 406 408
3 406 23 407
3 406 407 408
3 149 59 23
3 150 59 149
3 150 2 59
3 136 409 411
3 411 410 1
3 409 410 411
3 413 412 136
3 415 414 31
3 115 78 6
3 416 78 417
3 418 417 115
3 416 417 418
3 420 419 78
3 80 421 423
3 423 422 18
3 421 422 423
3 425 424 80
3 426 36 427
3 82 428 430
3 430 429 37
3 428 429 430
3 151 431 433
3 433 432 82
3 431 432 433
3 151 434 436
3 434 36 435
3 434 435 436
3 151 150 36
3 152 150 151
3 152 2 150
3 152 145 2
3 153 145 152
3 153 34 145
3 84 153 38
3 154 153 84
3 154 34 153
3 154 437 439
3 439 438 34
3 437 438 439
3 441 440 154
3 119 85 7
3 442 85 443
3 444 443 119
3 442 443 444
3 445 39 446
3 447 446 85
3 445 446 447
3 448 39 449
3 451 450 39
3 155 156 0
3 157 156 155
3 157 41 156
3 452 157 453
3 454 453 40
3 452 453 454
3 158 455 457
3 455 157 456
3 455 456 457
3 158 41 157
3 158 86 41
3 159 86 158
3 159 8 86
3 458 159 459
3 160 460 462
3 460 159 461
3 460 461 462
3 160 8 159
3 160 121 8
3 161 121 160
3 161 20 121
3 463 161 464
3 162 465 467
3 465 161 466
3 465 466 467
3 162 20 161
3 162 57 20
3 468 57 469
3 470 469 162
3 468 469 470
3 472 471 57
3 473 1 474
3 475 1 476
3 477 135 478
3 479 478 1
3 477 478 479
3 480 135 481
3 482 30 483
3 484 483 135
3 482 483 484
3 163 485 486
3 163 487 489
3 487 30 488
3 487 488 489
3 163 69 30
3 164 69 163
3 164 5 69
3 490 164 491
3 165 492 494
3 492 164 493
3 492 493 494
3 165 5 164
3 165 109 5
3 166 109 165
3 166 14 109
3 495 166 496
3 167 497 499
3 497 166 498
3 497 498 499
3 167 14 166
3 167 52 14
3 155 52 167
3 155 0 52
3 156 51 0
3 168 51 156
3 168 13 51
3 87 168 41
3 169 168 87
3 169 13 168
3 169 108 13
3 170 108 169
3 170 4 108
3 122 88 8
3 171 88 122
3 171 42 88
3 90 171 21
3 172 171 90
3 172 42 171
3 172 170 42
3 173 170 172
3 173 4 170
3 173 68 4
3 174 68 173
3 174 29 68
3 92 174 43
3 175 174 92
3 175 29 174
3 175 500 502
3 502 501 29
3 500 501 502
3 504 503 175
3 505 22 506
3 507 22 508
3 509 125 510
3 511 510 22
3 509 510 511
3 512 125 513
3 514 9 515
3 516 515 125
3 514 515 516
3 176 517 518
3 176 519 521
3 519 9 520
3 519 520 521
3 176 93 9
3 177 93 176
3 177 44 93
3 522 177 523
3 524 177 525
3 526 44 527
3 528 527 177
3 526 527 528
3 530 529 44
3 126 531 532
3 178 533 535
3 535 534 126
3 533 534 535
3 178 536 537
3 95 178 24
3 179 178 95
3 179 538 540
3 540 539 178
3 538 539 540
3 179 541 542
3 180 543 545
3 545 544 179
3 543 544 545
3 180 546 547
3 180 548 549
3 551 550 180
3 97 552 554
3 554 553 45
3 552 553 554
3 556 555 97
3 146 61 2
3 181 61 146
3 181 25 61
3 100 181 35
3 182 181 100
3 182 25 181
3 182 129 25
3 183 129 182
3 183 10 129
3 557 101 558
3 184 559 561
3 559 101 560
3 559 560 561
3 184 47 101
3 102 562 564
3 562 184 563
3 562 563 564
3 185 184 102
3 185 47 184
3 185 183 47
3 186 183 185
3 186 10 183
3 186 98 10
3 187 98 186
3 187 46 98
3 103 187 48
3 565 187 566
3 567 566 103
3 565 566 567
3 568 46 569
3 570 569 187
3 568 569 570
3 572 571 46
