ply
format ascii 1.0
element vertex 182
property float x
property float y
property float z
element face 160
property list uchar int vertex_index
end_header
4.670106 -58.680721 49.567585
-0.944098 -54.960773 45.379211
8.055037 -67.669212 43.143166
7.756983 -60.571022 51.49498
6.32924 -63.176182 46.669785
1.742105 -56.81662 47.408707
3.302722 -61.310558 44.841393
0.125352 -51.937462 49.657303
-2.530595 -50.206627 47.119007
6.249022 -59.585224 50.688816
7.020667 -61.802212 49.184559
5.474431 -60.95731 48.140423
0.332965 -55.727257 46.466721
1.117296 -58.229454 45.134766
1.615778 -52.943901 50.96701
-3.763589 -49.316944 45.985397
4.172067 -63.763878 43.177143
9.293464 -61.419674 52.339397
10.12611 -63.479935 50.888546
8.551419 -62.700169 50.018517
7.75123 -63.836823 47.671803
7.156419 -65.432716 44.935837
3.18239 -57.685677 48.557384
3.956151 -59.93346 47.234764
2.47939 -59.019939 46.189068
1.994005 -60.643177 43.838779
8.48388 -59.154308 53.855518
6.888089 -58.23254 52.933582
5.359908 -57.2393 52.008415
3.876505 -56.354721 50.897739
2.391811 -55.327087 49.8186
1.022139 -54.418518 48.699615
-0.368419 -53.430664 47.570625
-1.19268 -50.926388 48.543446
-1.683976 -52.503578 46.462429
-3.001752 -51.821289 45.148075
4.778052 -62.343323 45.623634
5.631723 -64.57196 44.077896
-0.578908 -56.20785 44.742647
0.059624 -56.591092 45.286402
-0.305566 -55.344015 45.922966
8.806397 -67.999755 43.577359
8.350355 -66.913951 44.485599
8.460204 -68.697116 42.248124
9.211565 -69.02766 42.682316
8.806397 -67.999755 43.577359
1.306215 -60.230448 43.378483
1.555651 -59.436315 44.486773
0.867861 -59.023586 44.026476
1.650734 -61.328619 42.695721
1.306215 -60.230448 43.378483
8.967242 -58.471412 55.044705
9.278875 -59.566128 54.276269
6.498563 -57.081463 53.606004
7.310866 -57.597651 54.067995
5.734472 -56.584843 53.143421
6.123998 -57.73592 52.470999
6.498563 -57.081463 53.606004
3.487461 -55.178045 51.509403
4.189647 -55.634842 52.041248
2.745114 -54.664228 50.969834
3.134158 -55.840904 50.35817
3.487461 -55.178045 51.509403
-1.861638 -50.566508 47.831226
-1.584715 -49.768151 48.910258
-2.253672 -49.40827 48.198038
-4.663607 -49.729536 44.404792
-4.056646 -50.103258 45.001796
-4.370551 -48.943222 45.388393
10.573057 -64.458264 50.162878
9.746835 -64.167279 49.6194
5.358433 -65.359203 42.769043
4.901895 -64.167919 43.62752
4.628605 -64.955162 42.318666
6.058652 -65.688118 43.218441
5.358433 -65.359203 42.769043
0.451789 -57.84219 44.620424
0.725131 -56.978355 45.800743
0.059624 -56.591092 45.286402
0.867861 -59.023586 44.026476
0.451789 -57.84219 44.620424
1.974243 -52.271887 52.105356
2.357098 -53.472635 51.544038
1.201588 -51.752796 51.427055
1.974243 -52.271887 52.105356
0.456375 -51.249577 50.772201
0.870565 -52.440681 50.312157
1.201588 -51.752796 51.427055
-2.879245 -49.009283 47.539713
-2.253672 -49.40827 48.198038
-3.495742 -48.564442 46.972908
-3.147092 -49.761786 46.552202
-2.879245 -49.009283 47.539713
-4.13389 -48.042877 46.384878
-3.495742 -48.564442 46.972908
-4.370551 -48.943222 45.388393
-4.13389 -48.042877 46.384878
3.471794 -63.393532 42.7185
3.737395 -62.537218 44.009268
3.037122 -62.166872 43.550625
3.902143 -64.567314 41.904965
3.471794 -63.393532 42.7185
4.628605 -64.955162 42.318666
3.902143 -64.567314 41.904965
-1.227014 -55.74855 44.321683
-1.611691 -54.565134 44.817131
9.709787 -62.449804 51.613971
10.50842 -62.74914 52.120167
10.092098 -61.719009 52.845592
8.959489 -63.777396 49.184386
9.746835 -64.167279 49.6194
9.338764 -63.090052 50.453531
8.559394 -64.345723 48.011028
8.959489 -63.777396 49.184386
8.151324 -63.268496 48.84516
8.198452 -64.997757 46.749918
8.559394 -64.345723 48.011028
7.901046 -65.795704 45.381935
8.198452 -64.997757 46.749918
7.453824 -64.63477 46.30382
7.605728 -66.550964 44.039502
8.350355 -66.913951 44.485599
7.901046 -65.795704 45.381935
2.382763 -61.833182 43.049318
3.037122 -62.166872 43.550625
2.648364 -60.976867 44.340086
2.382763 -61.833182 43.049318
1.650734 -61.328619 42.695721
-0.578908 -56.20785 44.742647
-1.227014 -55.74855 44.321683
9.683667 -60.698811 53.518209
10.092098 -61.719009 52.845592
8.888672 -60.286991 53.097458
9.683667 -60.698811 53.518209
9.278875 -59.566128 54.276269
8.108762 -58.058535 54.528963
8.967242 -58.471412 55.044705
7.685984 -58.693424 53.39455
8.108762 -58.058535 54.528963
7.310866 -57.597651 54.067995
4.931349 -56.077132 52.596586
5.734472 -56.584843 53.143421
4.618206 -56.79701 51.453077
4.931349 -56.077132 52.596586
4.189647 -55.634842 52.041248
2.003795 -54.135494 50.392805
2.745114 -54.664228 50.969834
2.357098 -53.472635 51.544038
-0.23086 -50.690279 50.203833
0.456375 -51.249577 50.772201
-0.889876 -50.184742 49.646904
-1.584715 -49.768151 48.910258
-0.533664 -51.431925 49.100375
-0.23086 -50.690279 50.203833
-0.889876 -50.184742 49.646904
-1.98163 -53.336536 45.35874
-1.611691 -54.565134 44.817131
-1.314037 -53.732175 45.92082
-2.640518 -52.995392 44.701563
-1.98163 -53.336536 45.35874
-2.342864 -52.162433 45.805252
-3.313592 -52.511112 44.2132
-2.640518 -52.995392 44.701563
-3.675727 -51.35543 44.583135
-3.382671 -50.569116 45.566736
-4.056646 -50.103258 45.001796
-3.313592 -52.511112 44.2132
-3.675727 -51.35543 44.583135
10.891343 -63.773308 51.326282
10.50842 -62.74914 52.120167
10.891343 -63.773308 51.326282
10.573057 -64.458264 50.162878
6.821 -66.118496 43.647412
6.394071 -65.002338 44.506867
6.058652 -65.688118 43.218441
7.270309 -67.236744 42.751076
7.605728 -66.550964 44.039502
6.821 -66.118496 43.647412
7.682293 -68.329189 41.838438
7.270309 -67.236744 42.751076
8.460204 -68.697116 42.248124
7.682293 -68.329189 41.838438
3 0 11 9
3 1 38 40
3 40 39 12
3 38 39 40
3 2 41 42
3 2 43 45
3 43 44 45
3 3 19 17
3 4 20 10
3 4 21 20
3 5 24 22
3 46 25 47
3 48 47 13
3 46 47 48
3 50 49 25
3 51 26 52
3 53 27 54
3 55 28 56
3 57 56 27
3 55 56 57
3 58 29 59
3 60 30 61
3 62 61 29
3 60 61 62
3 7 31 14
3 7 32 31
3 8 63 65
3 63 33 64
3 63 64 65
3 8 34 33
3 8 35 34
3 68 67 15
3 66 67 68
3 70 69 18
3 6 36 23
3 71 37 72
3 73 72 16
3 71 72 73
3 75 74 37
3 9 10 3
3 11 10 9
3 11 4 10
3 12 13 5
3 76 13 77
3 78 77 12
3 76 77 78
3 80 79 13
3 81 14 82
3 83 14 84
3 85 7 86
3 87 86 14
3 85 86 87
3 88 8 89
3 90 15 91
3 92 91 8
3 90 91 92
3 93 15 94
3 96 95 15
3 97 16 98
3 99 98 6
3 97 98 99
3 100 16 101
3 103 102 16
3 105 104 1
3 17 106 108
3 106 18 107
3 106 107 108
3 19 18 17
3 19 109 111
3 111 110 18
3 109 110 111
3 10 19 3
3 20 19 10
3 20 112 114
3 114 113 19
3 112 113 114
3 20 115 116
3 21 117 119
3 119 118 20
3 117 118 119
3 21 120 122
3 120 2 121
3 120 121 122
3 22 23 0
3 24 23 22
3 24 6 23
3 13 24 5
3 25 24 13
3 25 6 24
3 25 123 125
3 125 124 6
3 123 124 125
3 127 126 25
3 129 128 1
3 130 17 131
3 26 132 134
3 132 17 133
3 132 133 134
3 26 3 17
3 135 26 136
3 27 137 139
3 137 26 138
3 137 138 139
3 27 3 26
3 27 9 3
3 28 9 27
3 28 0 9
3 140 28 141
3 29 142 144
3 142 28 143
3 142 143 144
3 29 0 28
3 29 22 0
3 30 22 29
3 30 5 22
3 14 145 147
3 145 30 146
3 145 146 147
3 31 30 14
3 31 5 30
3 31 12 5
3 32 12 31
3 32 1 12
3 148 7 149
3 33 150 151
3 33 152 154
3 152 7 153
3 152 153 154
3 33 32 7
3 34 32 33
3 34 1 32
3 34 155 157
3 157 156 1
3 155 156 157
3 35 158 160
3 160 159 34
3 158 159 160
3 35 161 162
3 15 35 8
3 163 35 164
3 165 164 15
3 163 164 165
3 167 166 35
3 18 168 169
3 171 170 18
3 23 11 0
3 36 11 23
3 36 4 11
3 16 36 6
3 37 36 16
3 37 4 36
3 37 21 4
3 172 21 173
3 174 173 37
3 172 173 174
3 175 2 176
3 177 176 21
3 175 176 177
3 178 2 179
3 181 180 2
