ply
format ascii 1.0
element vertex 131
property float x
property float y
property float z
element face 102
property list uchar int vertex_index
end_header
7.079351 53.219219 -43.752502
12.51213 43.311134 -34.526249
8.445346 47.990509 -45.073193
10.754557 45.409679 -42.31078
6.41874 51.620022 -45.534763
10.025327 47.871605 -41.544857
11.017369 46.19891 -40.058113
9.34791 45.623825 -45.851059
7.931114 46.618904 -47.215084
11.909719 45.354458 -36.201923
11.863657 44.54018 -38.366383
8.337428 52.025585 -42.27478
7.8072 50.463821 -44.219887
8.971174 49.22678 -42.94849
9.695312 46.759819 -43.682739
11.755322 43.836269 -40.760864
7.114876 49.111855 -46.24007
6.618838 47.388573 -48.193325
6.055964 45.597881 -50.203308
6.749045 52.419621 -44.643632
6.063328 53.069769 -45.266886
6.393633 53.869368 -44.375755
11.106498 46.77148 -38.883741
10.713692 47.532017 -39.695683
9.149155 45.011444 -46.995115
9.81341 44.517542 -46.428671
12.559012 42.931387 -35.676928
12.257807 43.953049 -36.514764
12.210925 44.332796 -35.364086
9.213773 49.8724 -41.875725
8.654301 50.626182 -42.611635
8.8969 51.271803 -41.53887
10.671598 44.874265 -43.465599
10.141976 45.549335 -44.151579
10.224934 46.084749 -42.996759
12.225015 42.865127 -40.0389
11.809489 44.188225 -39.563623
12.279183 43.217083 -38.841659
7.063909 46.235718 -48.739221
7.274976 47.003738 -47.704205
7.720047 45.850884 -48.250101
6.782472 45.340372 -49.744213
6.337401 46.493227 -49.198317
7.063909 46.235718 -48.739221
5.709903 52.004441 -46.139579
6.063328 53.069769 -45.266886
6.048412 50.739991 -46.489214
5.709903 52.004441 -46.139579
12.867319 41.900072 -34.921053
12.782056 42.109859 -33.792574
10.217671 48.368364 -40.439054
9.74085 49.194813 -41.173908
10.521348 47.035258 -40.801485
10.217671 48.368364 -40.439054
10.713692 47.532017 -39.695683
8.440758 45.508983 -47.677128
8.639512 46.121364 -46.533071
9.149155 45.011444 -46.995115
7.720047 45.850884 -48.250101
8.440758 45.508983 -47.677128
11.886688 44.947319 -37.284153
11.529642 45.942115 -38.037876
11.552673 46.349255 -36.955647
12.234775 43.54591 -37.596995
11.886688 44.947319 -37.284153
12.257807 43.953049 -36.514764
12.279183 43.217083 -38.841659
12.234775 43.54591 -37.596995
12.559012 42.931387 -35.676928
12.867319 41.900072 -34.921053
9.498251 48.549193 -42.246673
9.213773 49.8724 -41.875725
9.74085 49.194813 -41.173908
9.968275 44.981338 -45.235739
9.521611 46.191822 -44.766899
10.141976 45.549335 -44.151579
9.81341 44.517542 -46.428671
9.968275 44.981338 -45.235739
11.440513 45.369545 -39.212248
11.106498 46.77148 -38.883741
11.529642 45.942115 -38.037876
12.217433 42.665756 -41.238796
12.225015 42.865127 -40.0389
11.722889 43.434099 -41.945479
12.217433 42.665756 -41.238796
11.222506 44.220804 -42.720437
11.254939 44.622974 -41.535822
11.722889 43.434099 -41.945479
10.671598 44.874265 -43.465599
11.222506 44.220804 -42.720437
6.800649 54.705944 -43.523037
6.393633 53.869368 -44.375755
7.429161 54.124987 -42.785244
6.800649 54.705944 -43.523037
8.0582 53.52817 -42.046383
7.708389 52.622402 -43.013641
7.429161 54.124987 -42.785244
8.621734 52.741287 -41.319107
8.0582 53.52817 -42.046383
8.8969 51.271803 -41.53887
8.621734 52.741287 -41.319107
11.662323 46.804653 -35.90353
11.552673 46.349255 -36.955647
11.960236 45.737026 -35.095343
11.662323 46.804653 -35.90353
12.261442 44.715364 -34.257506
12.210925 44.332796 -35.364086
11.960236 45.737026 -35.095343
12.52221 43.494243 -33.41184
12.261442 44.715364 -34.257506
12.782056 42.109859 -33.792574
12.52221 43.494243 -33.41184
6.396481 49.485907 -46.841868
6.048412 50.739991 -46.489214
6.766808 50.365938 -45.887417
6.148461 48.624266 -47.818495
6.396481 49.485907 -46.841868
6.866857 48.250214 -47.216698
5.863355 47.588131 -48.751188
6.148461 48.624266 -47.818495
5.581918 46.692785 -49.75618
5.863355 47.588131 -48.751188
6.337401 46.493227 -49.198317
5.290308 45.734151 -50.618637
5.581918 46.692785 -49.75618
6.514993 44.57828 -50.792956
6.782472 45.340372 -49.744213
5.730758 44.713359 -51.173086
6.514993 44.57828 -50.792956
5.290308 45.734151 -50.618637
5.730758 44.713359 -51.173086
3 0 19 21
3 19 4 20
3 19 20 21
3 22 6 23
3 25 24 7
3 1 26 28
3 28 27 9
3 26 27 28
3 29 13 30
3 31 30 11
3 29 30 31
3 3 14 5
3 3 32 34
3 34 33 14
3 32 33 34
3 35 15 36
3 37 36 10
3 35 36 37
3 2 16 12
3 38 17 39
3 40 39 8
3 38 39 40
3 41 18 42
3 43 42 17
3 41 42 43
3 4 44 45
3 4 46 47
3 49 48 1
3 50 5 51
3 6 52 54
3 52 5 53
3 52 53 54
3 6 3 5
3 7 8 2
3 55 8 56
3 57 56 7
3 55 56 57
3 59 58 8
3 9 60 62
3 60 10 61
3 60 61 62
3 63 10 64
3 65 64 9
3 63 64 65
3 67 66 10
3 69 68 1
3 11 12 0
3 13 12 11
3 13 2 12
3 5 70 72
3 70 13 71
3 70 71 72
3 14 13 5
3 14 2 13
3 14 7 2
3 73 7 74
3 75 74 14
3 73 74 75
3 77 76 7
3 10 78 80
3 78 6 79
3 78 79 80
3 15 6 10
3 15 3 6
3 81 15 82
3 83 15 84
3 85 3 86
3 87 86 15
3 85 86 87
3 89 88 3
3 90 0 91
3 92 0 93
3 94 11 95
3 96 95 0
3 94 95 96
3 97 11 98
3 100 99 11
3 101 9 102
3 103 9 104
3 105 1 106
3 107 106 9
3 105 106 107
3 108 1 109
3 111 110 1
3 12 4 0
3 16 4 12
3 16 112 114
3 114 113 4
3 112 113 114
3 8 16 2
3 17 16 8
3 17 115 117
3 117 116 16
3 115 116 117
3 17 118 119
3 18 120 122
3 122 121 17
3 120 121 122
3 18 123 124
3 125 18 126
3 127 18 128
3 130 129 18
