ply
format ascii 1.0
element vertex 117
property float x
property float y
property float z
element face 85
property list uchar int vertex_index
end_header
-16.190016 19.445681 -19.333155
-16.212175 22.463911 -23.036602
-16.167105 21.002132 -21.078781
-15.2485 25.413963 -23.072367
-17.022732 14.99946 -17.32328
-17.028635 13.557409 -15.774843
-15.140961 28.375967 -27.197815
-14.987549 29.965441 -29.308411
-16.110556 18.263489 -17.575699
-17.05678 16.529177 -19.037724
-17.180286 17.907843 -20.852716
-15.170922 26.961756 -25.035849
-17.522146 13.528246 -17.257252
-17.539466 14.401029 -18.143249
-14.571269 30.680327 -28.253683
-15.064255 29.170704 -28.253113
-14.647975 29.88559 -27.198384
-14.480685 31.378003 -29.215084
-14.571269 30.680327 -28.253683
-16.150286 18.854585 -18.454427
-15.745027 19.832504 -17.748534
-15.784757 20.4236 -18.627263
-16.719313 21.018609 -22.913642
-16.696777 20.28772 -21.934731
-16.18964 21.733021 -22.057691
-16.753868 21.843246 -23.960685
-16.719313 21.018609 -22.913642
-16.216905 23.224305 -24.036294
-16.753868 21.843246 -23.960685
-14.742397 27.935887 -24.167957
-15.209711 26.18786 -24.054108
-14.781186 27.161991 -23.186217
-14.718478 28.513029 -25.12049
-14.742397 27.935887 -24.167957
-17.040999 12.879356 -14.997905
-17.45414 12.148663 -15.646763
-15.734043 21.121972 -19.377088
-15.784757 20.4236 -18.627263
-15.722587 21.900198 -20.249901
-16.17856 20.223906 -20.205968
-15.734043 21.121972 -19.377088
-15.716264 22.540822 -21.147957
-15.722587 21.900198 -20.249901
-15.738799 23.271712 -22.126867
-16.18964 21.733021 -22.057691
-15.716264 22.540822 -21.147957
-15.256962 24.746738 -22.14475
-15.730337 23.938937 -23.054485
-15.738799 23.271712 -22.126867
-14.840295 26.47569 -22.323853
-15.256962 24.746738 -22.14475
-14.781186 27.161991 -23.186217
-14.840295 26.47569 -22.323853
-17.025683 14.278434 -16.549062
-16.629351 15.082821 -15.886554
-16.626399 15.803846 -16.660773
-17.525097 12.80722 -16.483033
-17.025683 14.278434 -16.549062
-17.522146 13.528246 -17.257252
-17.45414 12.148663 -15.646763
-17.525097 12.80722 -16.483033
-15.621697 27.763129 -28.200118
-15.660952 26.96098 -27.128702
-15.544991 28.557865 -29.255416
-15.621697 27.763129 -28.200118
-15.064255 29.170704 -28.253113
-15.49857 29.302201 -30.350274
-15.544991 28.557865 -29.255416
-14.907016 30.654522 -30.313315
-15.49857 29.302201 -30.350274
-14.400153 32.067084 -30.219988
-14.907016 30.654522 -30.313315
-14.480685 31.378003 -29.215084
-15.804075 19.130527 -16.939682
-15.745027 19.832504 -17.748534
-16.170311 17.435861 -16.786983
-15.804075 19.130527 -16.939682
-16.566644 16.631474 -17.449489
-16.626399 15.803846 -16.660773
-16.170311 17.435861 -16.786983
-17.55649 15.165888 -19.000471
-17.539466 14.401029 -18.143249
-17.039756 15.764318 -18.180502
-17.650042 15.889492 -19.930446
-18.149752 14.526203 -19.893193
-17.55649 15.165888 -19.000471
-17.711794 16.578825 -20.837942
-17.650042 15.889492 -19.930446
-17.118533 17.21851 -19.94522
-17.760016 17.418862 -21.795308
-17.711794 16.578825 -20.837942
-17.203368 18.740575 -21.821699
-16.673696 19.454988 -20.965749
-16.696777 20.28772 -21.934731
-17.760016 17.418862 -21.795308
-17.203368 18.740575 -21.821699
-15.735068 24.699331 -24.054177
-16.216905 23.224305 -24.036294
-15.730337 23.938937 -23.054485
-15.696279 25.473228 -25.035918
-15.735068 24.699331 -24.054177
-15.209711 26.18786 -24.054108
-15.675932 26.253874 -26.047719
-15.696279 25.473228 -25.035918
-15.155942 27.668861 -26.116832
-15.660952 26.96098 -27.128702
-15.675932 26.253874 -26.047719
-14.703498 29.220135 -26.201473
-15.155942 27.668861 -26.116832
-14.718478 28.513029 -25.12049
-14.647975 29.88559 -27.198384
-14.703498 29.220135 -26.201473
-16.686793 14.401181 -15.15069
-16.629351 15.082821 -15.886554
-16.699156 13.723128 -14.373752
-16.686793 14.401181 -15.15069
-17.040999 12.879356 -14.997905
3 13 12 4
3 14 7 15
3 16 15 6
3 14 15 16
3 18 17 7
3 0 19 21
3 19 8 20
3 19 20 21
3 0 9 8
3 0 10 9
3 1 22 24
3 24 23 2
3 22 23 24
3 1 25 26
3 1 27 28
3 29 11 30
3 31 30 3
3 29 30 31
3 33 32 11
3 35 34 5
3 36 0 37
3 38 2 39
3 40 39 0
3 38 39 40
3 41 2 42
3 43 1 44
3 45 44 2
3 43 44 45
3 46 3 47
3 48 47 1
3 46 47 48
3 49 3 50
3 52 51 3
3 4 53 55
3 53 5 54
3 53 54 55
3 56 5 57
3 58 57 4
3 56 57 58
3 60 59 5
3 6 61 62
3 7 63 65
3 65 64 6
3 63 64 65
3 7 66 67
3 7 68 69
3 72 71 7
3 70 71 72
3 8 73 74
3 8 75 76
3 8 77 79
3 77 4 78
3 77 78 79
3 9 4 8
3 9 80 82
3 82 81 4
3 80 81 82
3 9 83 85
3 83 84 85
3 10 86 88
3 88 87 9
3 86 87 88
3 10 89 90
3 2 10 0
3 91 10 92
3 93 92 2
3 91 92 93
3 95 94 10
3 3 96 98
3 98 97 1
3 96 97 98
3 11 99 101
3 101 100 3
3 99 100 101
3 11 102 103
3 11 104 106
3 104 6 105
3 104 105 106
3 107 6 108
3 109 108 11
3 107 108 109
3 111 110 6
3 5 112 113
3 116 115 5
3 114 115 116
