ply
format ascii 1.0
element vertex 380
property float x
property float y
property float z
element face 369
property list uchar int vertex_index
end_header
31.200109 -9.470311 2.799803
20.06815 4.045437 -9.326323
22.518356 0.688836 -5.017037
19.400257 8.12622 -14.9815
27.312773 -7.615458 -2.496353
20.652552 5.955794 -6.309343
22.810778 4.799997 -4.66835
17.28134 12.324363 -15.566113
17.489849 10.650105 -12.690426
22.503397 -0.258792 -8.620264
26.596697 -4.785892 -1.589813
29.097589 -8.859453 0.043888
18.187336 8.668803 -10.156691
19.156353 7.299252 -8.041495
21.065975 2.133911 -7.043036
23.337385 -2.154346 -6.094872
33.540459 -12.99951 4.96361
31.589365 -12.18079 1.587435
34.271439 -15.51045 3.398383
19.42083 10.597263 -18.446175
19.646107 5.857807 -11.942741
24.538118 -0.401967 -3.134582
24.645819 -3.610777 -3.826251
26.013191 -6.003912 -5.181726
16.666588 13.034801 -13.10327
16.922676 12.321252 -11.799616
30.042128 -7.529512 1.723456
28.852932 -7.266866 0.418169
30.049597 -9.160564 1.349257
18.379601 10.022124 -8.607068
21.536572 3.220647 -5.657043
20.681847 3.941954 -6.614969
21.684855 1.50374 -5.983401
22.117867 -0.007904 -6.548535
22.724457 -0.781831 -5.505849
34.597965 -14.53118 5.980788
33.775177 -14.327919 4.152181
34.995167 -15.913502 5.250151
18.302597 10.11979 -15.240389
18.244198 11.296176 -16.905071
19.393126 9.331918 -16.686668
19.078606 6.283673 -9.784349
18.775032 7.154504 -10.990305
19.871992 4.823431 -10.622087
26.78105 -6.240563 -1.963985
25.607763 -4.326816 -2.676103
25.948631 -5.71925 -3.201591
25.222698 -4.96742 -4.345128
26.619293 -6.903749 -3.809939
32.256557 -13.396688 0.906861
30.848818 -11.75307 0.082574
19.936834 8.781098 -6.913162
20.967751 8.007919 -6.110141
21.677273 5.260693 -5.460317
22.526503 2.595079 -4.761594
16.503851 13.753873 -14.467749
17.436422 11.269319 -14.102243
18.351774 9.137512 -13.672262
21.277113 1.729652 -8.921646
20.940063 2.815601 -10.190002
22.184511 0.894605 -9.985554
27.702845 -5.306517 -0.502575
27.789053 -6.859637 -0.784133
28.072483 -8.140725 -1.245636
17.313669 11.481401 -10.643981
17.792105 10.737965 -9.575804
18.596823 7.997897 -9.050905
19.477989 5.480424 -8.615496
19.875908 6.448666 -7.124324
20.026939 4.630994 -7.587741
20.53878 2.992309 -8.176007
21.661848 0.787009 -7.747064
22.820599 -1.182826 -7.330189
24.137857 -3.164264 -6.907279
32.382736 -11.299597 3.888986
31.366171 -11.063798 2.338961
32.570992 -12.70157 3.249016
32.972843 -13.893157 2.492497
35.426258 -17.043583 4.213107
31.364119 -7.722754 3.158725
32.435707 -9.658294 4.369891
33.452827 -11.48678 5.502007
34.431271 -13.109122 6.596252
18.330015 13.661294 -20.298004
17.275352 13.285766 -17.206757
18.295666 12.446203 -18.645491
19.455776 11.952368 -20.239605
17.794098 9.657481 -11.390041
18.552258 8.106492 -12.344067
19.522022 6.955884 -13.478999
20.860252 3.809629 -11.738295
20.778837 4.945787 -13.287456
24.073168 4.35317 -3.878107
23.630318 2.072315 -3.905163
23.426857 0.141065 -4.097725
25.522493 -2.700669 -2.370523
24.437016 -2.150417 -3.421965
23.503845 -1.553699 -4.483349
23.927114 -2.957685 -4.970535
24.68679 -4.218709 -5.590319
30.345932 -10.543356 0.849554
29.375591 -9.933532 -0.651549
28.608027 -9.299617 -2.007066
16.780286 13.257448 -11.44606
16.567515 13.654657 -12.029428
35.341925 -16.006542 6.20445
34.796566 -15.222341 5.615469
35.143324 -15.315382 6.569769
19.995752 7.851489 -15.765156
19.992186 8.454339 -16.617739
19.396691 8.729069 -15.834084
31.910288 -13.076732 0.039446
32.564706 -13.820858 0.354425
21.258937 9.18508 -6.066487
20.691598 9.575572 -6.423412
22.244025 5.030345 -5.064334
21.890949 6.45868 -5.426152
22.457701 6.228333 -5.030169
16.202432 14.729852 -14.007174
16.113075 15.028813 -14.650339
28.32575 -5.411217 0.095338
27.844386 -4.409434 -0.376101
17.791021 11.813745 -9.319409
17.477353 12.11743 -9.797676
33.934956 -15.252707 2.510697
33.285658 -14.44406 2.057754
33.622141 -14.701804 2.94544
35.964266 -17.821862 4.653854
35.73538 -17.228595 5.217547
31.510903 -6.733737 3.20686
30.815899 -6.714106 2.544261
33.02039 -9.709115 5.138804
32.51689 -8.750978 4.456454
33.528949 -10.623358 5.704862
32.944267 -10.572537 4.935949
33.02039 -9.709115 5.138804
34.937735 -13.151121 7.539636
34.457587 -12.314155 6.855847
34.943266 -13.92463 7.202651
34.937735 -13.151121 7.539636
17.791719 14.01991 -19.537534
17.805345 14.555063 -20.29277
17.278346 12.805065 -16.386435
16.821351 13.973254 -16.567207
16.824345 13.492553 -15.746885
20.071029 10.441552 -19.316924
20.088502 11.119104 -20.213639
19.438303 11.274815 -19.34289
21.442366 2.923364 -11.605353
20.900157 3.312615 -10.964149
21.482272 2.42635 -10.831206
21.402178 4.653479 -13.978576
21.409772 4.032421 -13.16515
20.759566 5.555359 -14.105373
21.402178 4.653479 -13.978576
24.780849 4.131248 -3.458156
24.445851 5.477901 -3.8723
24.084218 0.835174 -3.519872
24.250362 1.854833 -3.472831
24.704262 0.617692 -3.087541
26.059595 -3.743281 -1.980168
26.095751 -2.879492 -1.864868
26.632852 -3.922103 -1.474513
25.784857 -5.512702 -5.889569
25.121656 -4.6201 -6.093865
25.34999 -5.111311 -5.386023
29.729378 -10.497846 -1.032879
30.112205 -10.843301 -0.284488
30.465992 -11.407615 -0.665818
29.345596 -10.180889 -1.710638
28.991809 -9.616574 -1.329308
29.729378 -10.497846 -1.032879
23.094508 5.990476 -4.665749
22.457701 6.228333 -5.030169
16.43947 14.011432 -12.681255
16.283801 14.370316 -13.324934
16.794632 12.678026 -12.451443
16.43947 14.011432 -12.681255
16.567515 13.654657 -12.029428
23.051293 -0.648475 -9.191783
23.183321 -1.221589 -8.482368
29.44753 -7.398189 1.070813
28.900793 -6.391391 0.55571
29.495391 -6.522714 1.208353
18.451242 11.181366 -8.418939
18.08477 11.455824 -8.835041
18.732911 9.681583 -8.166336
18.451242 11.181366 -8.418939
19.121287 8.320147 -7.883549
18.767977 8.660688 -8.324281
18.732911 9.681583 -8.166336
20.055499 9.081661 -17.530202
20.069351 9.714333 -18.409955
19.406978 9.96459 -17.566422
20.055499 9.081661 -17.530202
19.992186 8.454339 -16.617739
25.145409 -0.616549 -2.66025
24.704262 0.617692 -3.087541
31.206418 -12.254923 -0.372697
31.552688 -12.574879 0.494718
31.910288 -13.076732 0.039446
30.465992 -11.407615 -0.665818
31.206418 -12.254923 -0.372697
20.176139 9.962162 -6.824922
19.670116 10.16953 -7.180841
20.452292 8.394509 -6.511651
20.176139 9.962162 -6.824922
20.691598 9.575572 -6.423412
21.536188 7.832293 -5.751065
21.258937 9.18508 -6.066487
21.322512 6.634306 -5.785229
21.536188 7.832293 -5.751065
21.890949 6.45868 -5.426152
16.4356 14.207308 -15.197703
16.113075 15.028813 -14.650339
16.892595 13.039118 -15.016931
16.824345 13.492553 -15.746885
16.4356 14.207308 -15.197703
16.58522 13.394337 -13.785509
16.202432 14.729852 -14.007174
16.283801 14.370316 -13.324934
22.104496 1.465852 -10.728982
21.482272 2.42635 -10.831206
21.562287 1.855103 -10.087778
22.891851 -0.071776 -9.874429
22.343954 0.317906 -9.302909
23.051293 -0.648475 -9.191783
22.759674 0.573389 -10.603575
22.891851 -0.071776 -9.874429
22.104496 1.465852 -10.728982
22.759674 0.573389 -10.603575
27.185927 -4.182416 -0.930894
27.844386 -4.409434 -0.376101
27.149771 -5.046204 -1.046194
26.632852 -3.922103 -1.474513
27.185927 -4.182416 -0.930894
28.277888 -6.286691 -0.042203
28.32575 -5.411217 0.095338
28.900793 -6.391391 0.55571
17.238135 12.489147 -10.331765
16.975783 12.837523 -10.868242
17.552887 11.109683 -10.109893
17.238135 12.489147 -10.331765
17.477353 12.11743 -9.797676
18.085853 10.380045 -9.091436
17.791021 11.813745 -9.319409
18.08477 11.455824 -8.835041
19.511527 9.06107 -7.319383
19.670116 10.16953 -7.180841
19.481064 7.894854 -7.424964
19.511527 9.06107 -7.319383
19.906371 7.614882 -7.018743
19.51613 6.873959 -7.582909
19.121287 8.320147 -7.883549
19.481064 7.894854 -7.424964
23.341922 -1.683606 -7.837331
23.183321 -1.221589 -8.482368
22.661998 -0.720809 -7.975226
24.000551 -2.674325 -7.625876
23.341922 -1.683606 -7.837331
23.479228 -2.173545 -7.118734
24.666736 -3.54883 -7.454722
24.000551 -2.674325 -7.625876
32.927515 -14.195826 1.264936
32.6147 -13.644922 1.699679
33.285658 -14.44406 2.057754
32.564706 -13.820858 0.354425
32.927515 -14.195826 1.264936
35.519835 -16.663555 5.736069
35.341925 -16.006542 6.20445
35.210712 -16.478542 4.731629
35.519835 -16.663555 5.736069
35.73538 -17.228595 5.217547
35.717836 -17.587327 3.583255
35.964266 -17.821862 4.653854
35.121473 -16.776792 3.240773
35.717836 -17.587327 3.583255
34.544064 -16.010225 2.833411
34.848849 -16.277017 3.805745
35.121473 -16.776792 3.240773
33.934956 -15.252707 2.510697
34.544064 -16.010225 2.833411
30.154904 -6.617485 1.826627
29.495391 -6.522714 1.208353
30.703124 -7.626133 2.441091
30.154904 -6.617485 1.826627
30.815899 -6.714106 2.544261
31.981096 -7.783208 3.850871
31.510903 -6.733737 3.20686
31.899913 -8.690524 3.764308
31.981096 -7.783208 3.850871
32.51689 -8.750978 4.456454
33.968364 -11.502983 6.308725
33.528949 -10.623358 5.704862
33.942049 -12.297951 6.049129
33.968364 -11.502983 6.308725
34.457587 -12.314155 6.855847
35.026613 -14.635659 6.894919
34.514618 -13.820151 6.28852
34.943266 -13.92463 7.202651
35.143324 -15.315382 6.569769
35.026613 -14.635659 6.894919
18.34241 14.299647 -21.091741
17.805345 14.555063 -20.29277
18.933521 13.50017 -21.166257
18.34241 14.299647 -21.091741
16.813766 14.349557 -17.283785
16.821351 13.973254 -16.567207
17.264387 13.832145 -17.991911
16.813766 14.349557 -17.283785
17.774544 13.412364 -18.711278
17.264387 13.832145 -17.991911
17.785509 12.865984 -17.926124
18.312841 13.053749 -19.471747
17.791719 14.01991 -19.537534
17.774544 13.412364 -18.711278
19.496401 12.645707 -21.137058
18.933521 13.50017 -21.166257
18.892896 12.806831 -20.268805
20.096637 11.851869 -21.101108
19.496401 12.645707 -21.137058
20.096637 11.851869 -21.101108
20.088502 11.119104 -20.213639
20.071029 10.441552 -19.316924
20.069351 9.714333 -18.409955
17.118173 11.901326 -11.221799
16.780286 13.257448 -11.44606
16.975783 12.837523 -10.868242
21.45048 3.464342 -12.39057
21.442366 2.923364 -11.605353
20.819544 4.377708 -12.512875
21.45048 3.464342 -12.39057
21.409772 4.032421 -13.16515
20.131158 6.560408 -14.201144
20.15043 5.950836 -13.383228
20.759566 5.555359 -14.105373
20.070276 7.145575 -14.952395
19.46114 7.541052 -14.230249
20.131158 6.560408 -14.201144
19.995752 7.851489 -15.765156
20.070276 7.145575 -14.952395
23.725704 5.767063 -4.270627
24.445851 5.477901 -3.8723
23.441973 4.576583 -4.273229
23.094508 5.990476 -4.665749
23.725704 5.767063 -4.270627
24.471787 2.99526 -3.459303
24.780849 4.131248 -3.458156
23.851743 3.212743 -3.891635
24.471787 2.99526 -3.459303
24.250362 1.854833 -3.472831
25.637597 -1.765899 -2.27822
26.095751 -2.879492 -1.864868
25.030306 -1.551318 -2.752553
25.145409 -0.616549 -2.66025
25.637597 -1.765899 -2.27822
24.847189 -4.092878 -6.752345
24.412323 -3.691486 -6.248799
25.121656 -4.6201 -6.093865
24.666736 -3.54883 -7.454722
24.847189 -4.092878 -6.752345
28.997035 -9.766773 -2.472521
29.345596 -10.180889 -1.710638
28.280363 -8.931159 -2.718921
28.997035 -9.766773 -2.472521
27.632737 -8.08908 -2.963564
27.9604 -8.457538 -2.25171
28.280363 -8.931159 -2.718921
27.285996 -7.733225 -3.620357
26.966033 -7.259604 -3.153146
27.632737 -8.08908 -2.963564
26.996811 -7.293775 -4.286306
27.285996 -7.733225 -3.620357
26.69376 -6.843856 -4.9722
26.316242 -6.453831 -4.495833
26.996811 -7.293775 -4.286306
26.538709 -6.419094 -5.709319
26.69376 -6.843856 -4.9722
25.784857 -5.512702 -5.889569
26.538709 -6.419094 -5.709319
3 103 25 104
3 0 28 26
3 2 32 30
3 2 34 32
3 105 37 106
3 107 106 35
3 105 106 107
3 3 40 38
3 3 108 110
3 110 109 40
3 108 109 110
3 1 43 41
3 4 46 44
3 4 48 46
3 112 111 49
3 113 52 114
3 6 115 117
3 115 53 116
3 115 116 117
3 6 54 53
3 118 55 119
3 8 56 24
3 8 57 56
3 9 60 58
3 120 61 121
3 11 62 27
3 11 63 62
3 122 65 123
3 13 66 29
3 13 67 66
3 5 68 51
3 14 69 31
3 14 70 69
3 14 71 70
3 15 72 33
3 15 73 72
3 16 76 74
3 18 77 36
3 18 124 126
3 126 125 77
3 124 125 126
3 127 78 128
3 129 79 130
3 131 80 132
3 133 81 134
3 135 134 80
3 133 134 135
3 136 82 137
3 139 138 82
3 140 83 141
3 7 142 144
3 142 84 143
3 142 143 144
3 19 85 39
3 19 86 85
3 19 145 147
3 147 146 86
3 145 146 147
3 12 87 64
3 20 88 42
3 20 89 88
3 148 90 149
3 150 149 59
3 148 149 150
3 151 91 152
3 154 153 91
3 155 92 156
3 21 157 159
3 157 93 158
3 157 158 159
3 21 94 93
3 10 160 162
3 160 95 161
3 160 161 162
3 22 96 45
3 22 97 96
3 22 98 97
3 23 99 47
3 23 163 165
3 165 164 99
3 163 164 165
3 17 100 75
3 166 101 167
3 168 167 50
3 166 167 168
3 169 102 170
3 171 170 101
3 169 170 171
3 172 6 173
3 174 24 175
3 25 176 178
3 176 24 177
3 176 177 178
3 25 8 24
3 180 179 9
3 26 181 183
3 181 27 182
3 181 182 183
3 28 27 26
3 28 11 27
3 184 29 185
3 186 29 187
3 188 13 189
3 190 189 29
3 188 189 190
3 30 31 5
3 32 31 30
3 32 14 31
3 32 33 14
3 34 33 32
3 34 15 33
3 35 36 16
3 37 36 35
3 37 18 36
3 38 39 7
3 40 39 38
3 40 19 39
3 40 191 193
3 193 192 19
3 191 192 193
3 195 194 40
3 41 42 12
3 43 42 41
3 43 20 42
3 196 21 197
3 44 45 10
3 46 45 44
3 46 22 45
3 46 47 22
3 48 47 46
3 48 23 47
3 49 50 17
3 198 50 199
3 200 199 49
3 198 199 200
3 202 201 50
3 203 51 204
3 52 205 207
3 205 51 206
3 205 206 207
3 52 5 51
3 208 52 209
3 53 210 212
3 210 52 211
3 210 211 212
3 53 5 52
3 53 30 5
3 54 30 53
3 54 2 30
3 55 213 214
3 55 215 217
3 215 7 216
3 215 216 217
3 24 218 220
3 218 55 219
3 218 219 220
3 56 55 24
3 56 7 55
3 56 38 7
3 57 38 56
3 57 3 38
3 58 59 1
3 60 59 58
3 60 221 223
3 223 222 59
3 221 222 223
3 224 60 225
3 226 225 9
3 224 225 226
3 227 60 228
3 230 229 60
3 61 231 232
3 61 233 235
3 233 10 234
3 233 234 235
3 27 236 238
3 236 61 237
3 236 237 238
3 62 61 27
3 62 10 61
3 62 44 10
3 63 44 62
3 63 4 44
3 239 64 240
3 65 241 243
3 241 64 242
3 241 242 243
3 65 12 64
3 29 244 246
3 244 65 245
3 244 245 246
3 66 65 29
3 66 12 65
3 66 41 12
3 67 41 66
3 67 1 41
3 51 247 248
3 68 249 251
3 251 250 51
3 249 250 251
3 68 252 254
3 252 13 253
3 252 253 254
3 31 68 5
3 69 68 31
3 69 13 68
3 69 67 13
3 70 67 69
3 70 1 67
3 70 58 1
3 71 58 70
3 71 9 58
3 33 71 14
3 72 71 33
3 72 9 71
3 72 255 257
3 257 256 9
3 255 256 257
3 73 258 260
3 260 259 72
3 258 259 260
3 73 261 262
3 74 75 0
3 76 75 74
3 76 17 75
3 36 76 16
3 77 76 36
3 77 17 76
3 77 49 17
3 263 49 264
3 265 264 77
3 263 264 265
3 267 266 49
3 268 37 269
3 78 270 272
3 270 37 271
3 270 271 272
3 78 18 37
3 273 78 274
3 275 78 276
3 277 18 278
3 279 278 78
3 277 278 279
3 281 280 18
3 282 26 283
3 79 284 286
3 284 26 285
3 284 285 286
3 79 0 26
3 287 79 288
3 80 289 291
3 289 79 290
3 289 290 291
3 80 0 79
3 80 74 0
3 81 74 80
3 81 16 74
3 292 81 293
3 82 294 296
3 294 81 295
3 294 295 296
3 82 16 81
3 82 35 16
3 297 35 298
3 299 298 82
3 297 298 299
3 301 300 35
3 83 302 303
3 83 304 305
3 84 306 307
3 84 308 309
3 39 84 7
3 85 84 39
3 85 310 312
3 312 311 84
3 310 311 312
3 85 313 315
3 313 83 314
3 313 314 315
3 86 83 85
3 86 316 318
3 318 317 83
3 316 317 318
3 86 319 320
3 322 321 86
3 324 323 19
3 64 325 327
3 325 25 326
3 325 326 327
3 87 25 64
3 87 8 25
3 42 87 12
3 88 87 42
3 88 8 87
3 88 57 8
3 89 57 88
3 89 3 57
3 59 43 1
3 90 43 59
3 90 20 43
3 328 90 329
3 91 330 332
3 330 90 331
3 330 331 332
3 91 20 90
3 91 89 20
3 333 89 334
3 335 334 91
3 333 334 335
3 336 3 337
3 338 337 89
3 336 337 338
3 340 339 3
3 92 341 342
3 92 343 345
3 343 6 344
3 343 344 345
3 346 92 347
3 93 348 350
3 348 92 349
3 348 349 350
3 93 6 92
3 93 54 6
3 94 54 93
3 94 2 54
3 95 351 352
3 95 353 355
3 353 21 354
3 353 354 355
3 45 95 10
3 96 95 45
3 96 21 95
3 96 94 21
3 97 94 96
3 97 2 94
3 97 34 2
3 98 34 97
3 98 15 34
3 47 98 22
3 99 98 47
3 99 15 98
3 99 73 15
3 356 73 357
3 358 357 99
3 356 357 358
3 360 359 73
3 75 28 0
3 100 28 75
3 100 11 28
3 50 100 17
3 101 100 50
3 101 11 100
3 101 63 11
3 102 63 101
3 102 4 63
3 361 102 362
3 363 102 364
3 365 4 366
3 367 366 102
3 365 366 367
3 368 48 369
3 370 369 4
3 368 369 370
3 371 48 372
3 373 23 374
3 375 374 48
3 373 374 375
3 376 23 377
3 379 378 23
