ply
format ascii 1.0
element vertex 1028
property float x
property float y
property float z
element face 1132
property list uchar int vertex_index
end_header
28.26264 27.20348 -59.803776
40.073246 -8.05216 -37.091099
37.902103 -32.411079 -27.921299
2.087947 37.675297 -57.051666
12.40216 29.470182 -69.584229
25.885391 12.901059 -70.331955
36.822697 -30.017202 -17.420744
38.071762 -25.470959 -25.247976
35.876553 -35.113304 -20.041637
21.461481 32.598507 -57.033588
14.160055 34.945221 -62.1563
20.862814 30.432262 -66.592545
19.218931 23.310106 -72.269218
27.592367 22.52809 -67.409126
40.061512 -1.192198 -46.077862
39.358784 -14.646382 -28.838461
39.600952 -20.553537 -33.065708
6.652677 33.162342 -63.365078
22.898739 1.457074 -69.116684
33.257011 20.920465 -50.398163
39.056801 3.654367 -39.396439
34.278999 17.908381 -58.964634
36.25494 -32.307251 -18.899992
35.18853 -36.0439 -16.566572
24.819929 30.307535 -58.82198
21.27195 32.068111 -62.404282
24.841261 29.23443 -63.631645
24.309872 26.913759 -67.612785
28.169298 25.463573 -64.078575
38.987022 -17.896172 -24.853689
37.984051 -28.551113 -26.680132
38.845093 -22.955181 -29.055315
38.937973 -26.42009 -30.739578
39.750416 -24.398846 -34.886631
12.026461 38.521164 -54.48978
13.170174 32.682095 -66.374016
10.324112 34.595055 -63.22625
9.363743 31.342848 -66.810081
11.487254 25.177601 -71.647552
22.542471 18.77574 -71.88781
18.293835 18.186838 -73.109123
21.403652 13.221372 -72.132568
24.37088 7.073595 -70.170547
39.689362 -5.626554 -34.194141
39.166794 -0.439111 -35.024719
39.80204 -1.97151 -38.386097
36.390953 14.951215 -53.972595
33.974552 14.739419 -62.05098
28.288628 -7.03097 -64.677353
38.325089 -22.942066 -23.246016
37.375072 -27.781973 -21.241798
37.036289 -30.51329 -22.662651
36.87178 -33.734352 -23.932892
18.174948 34.692867 -54.702488
14.703304 36.343483 -57.331875
17.871748 34.290966 -60.122261
17.311832 32.951874 -64.818291
16.473003 30.520536 -68.696678
15.732861 26.872883 -71.493164
20.002258 27.557709 -70.059341
23.614697 23.210972 -70.383331
26.940033 18.080448 -69.445061
40.392723 -11.104461 -39.528481
40.223408 -4.465482 -41.482506
40.513855 -8.388499 -43.983826
24.444733 30.107424 -53.467571
28.016815 27.499903 -54.807323
39.473629 -9.246971 -30.162949
39.733501 -11.464527 -32.766491
38.862869 -20.04495 -27.236816
39.449059 -17.191706 -31.242443
39.998653 -14.239048 -35.312897
40.259399 -17.84259 -37.474403
11.215096 36.88549 -59.112465
7.717324 36.479256 -59.964401
14.843111 22.177109 -73.008018
34.617058 -39.241421 -16.973299
35.477142 -38.756298 -20.649376
36.593346 -38.031059 -24.812756
30.309902 24.260178 -50.319519
31.108263 24.364326 -55.254452
37.688942 8.684451 -40.118023
39.71801 1.69249 -42.938225
35.771782 16.751451 -50.117832
34.063869 20.01952 -54.883167
31.532309 23.085693 -59.599281
31.221857 20.666122 -63.584019
30.748594 16.637402 -66.169365
29.768728 12.012524 -67.697067
28.552561 6.129224 -68.059029
26.763741 0.452781 -67.652771
24.713245 -5.416555 -66.441727
35.203365 -35.537598 -14.429897
35.418777 -34.93618 -16.034906
34.939312 -36.511223 -14.916026
26.644581 28.814739 -59.327736
24.930401 29.908401 -61.259338
26.590982 28.381725 -61.695366
26.612595 27.476673 -63.82317
28.368721 26.414793 -61.979412
37.933983 -30.532434 -27.30513
38.446148 -27.598207 -28.631744
38.465782 -29.497738 -29.425781
38.940868 -28.606226 -31.484118
38.413712 -31.516134 -29.943699
12.819632 31.105801 -68.210014
11.228525 32.109867 -66.763069
10.771897 30.406878 -68.312378
8.933672 29.466097 -68.180473
10.468771 28.553232 -69.601471
11.846415 27.431023 -70.758453
24.217447 15.891437 -71.25914
22.116257 16.039993 -72.122536
23.643719 13.232411 -71.392044
22.943487 10.353755 -71.266449
25.108635 10.102015 -70.419189
39.889389 -6.72265 -35.639751
39.772346 -3.799506 -36.357098
39.992733 -5.073241 -37.786774
37.367466 -27.927017 -18.249331
37.624691 -26.599373 -20.255714
37.09026 -28.874237 -19.35195
36.037521 -33.661015 -19.474178
36.621544 -31.409046 -20.743166
36.46199 -32.839878 -21.309097
36.938889 -32.050423 -23.290968
36.360657 -34.443771 -21.985744
19.77137 33.657955 -55.924847
17.993196 34.640892 -57.482471
19.690882 33.605919 -58.493752
21.069075 31.384092 -64.652138
19.264261 32.647991 -63.756256
18.905462 31.819551 -65.875343
16.874022 31.852654 -66.924843
18.68676 30.612694 -67.796036
18.232042 29.184244 -69.486504
20.444698 29.082575 -68.550247
26.055609 24.890894 -67.530785
23.965036 25.253073 -69.149048
25.630735 23.021351 -69.017525
25.255157 20.827904 -70.074203
27.287302 20.44384 -68.595917
40.51992 -13.138939 -40.586903
40.498062 -9.59259 -41.80978
25.779295 28.540768 -51.40139
26.261774 28.852722 -54.177841
27.499695 27.381243 -52.20269
39.305946 -13.665163 -27.421621
39.466919 -11.886971 -29.487829
39.628674 -10.184104 -31.598103
39.55019 -12.954573 -30.792892
38.155174 -24.218174 -24.248474
38.580772 -21.511299 -25.200821
38.502285 -22.720503 -26.261049
39.247101 -21.622242 -31.104263
39.188473 -20.093527 -30.249655
39.530563 -18.737577 -32.261539
39.737747 -15.768976 -33.293259
39.839252 -17.409052 -34.236614
40.132675 -15.986711 -36.373497
39.962532 -19.054478 -35.262077
14.374416 35.766014 -59.811626
12.931535 36.724903 -58.412979
12.612229 35.82621 -60.842857
8.468931 33.829262 -63.63483
8.966242 35.450104 -61.667107
7.280224 34.849251 -61.865929
6.070855 35.849709 -60.202492
5.471135 33.989834 -61.774342
5.090261 31.990429 -63.27515
17.401596 25.209332 -72.052246
15.163807 24.641239 -72.421852
16.943966 22.896322 -72.802017
17.706259 15.273244 -73.035255
21.689037 4.353676 -70.209328
34.549812 -42.952297 -19.265934
34.761391 -41.073116 -19.008463
35.319946 -40.655113 -21.045349
36.074314 -38.174141 -22.78797
35.828705 -40.487423 -22.969141
32.711151 20.826969 -47.965885
31.887993 22.646435 -50.486523
30.810888 24.408564 -52.798141
32.320835 22.635763 -52.855694
39.12801 1.654471 -37.156528
38.563271 4.292141 -37.520283
38.455853 6.255133 -39.792427
40.19698 -2.854779 -43.77578
40.021442 -1.352817 -42.249008
39.929806 0.289625 -44.534058
36.526844 14.670394 -47.416
36.907532 14.12241 -49.539879
35.376198 16.554075 -56.651966
35.298714 17.552578 -54.625507
34.21077 19.186487 -57.026764
32.836929 21.714661 -57.268963
32.935894 20.669828 -59.417801
31.485939 21.974819 -61.701477
32.871983 19.360552 -61.306713
33.681496 12.536137 -63.240288
32.385315 15.853809 -64.266541
32.059975 13.599341 -65.253853
30.389215 14.340158 -66.98735
31.626343 11.014199 -65.988663
27.612946 3.23903 -67.988892
27.116428 -9.888318 -64.104568
26.492752 -6.049039 -65.697884
36.263973 -32.019909 -16.387096
36.526966 -31.061703 -18.298977
35.978252 -33.031269 -17.140909
35.707726 -34.251732 -17.685534
35.463791 -35.684399 -18.156181
23.022448 31.584591 -58.010227
21.33886 32.537861 -59.713516
23.084446 31.337952 -60.619652
23.088844 30.774553 -63.002312
22.898943 29.957058 -65.220886
22.481474 28.788553 -67.371223
24.589342 28.294838 -65.711327
26.314247 26.347883 -65.898613
28.029886 24.004044 -65.861229
39.168949 -16.248566 -26.807207
38.002483 -26.91572 -25.905462
38.461452 -24.186743 -27.163952
38.441395 -25.822847 -27.894987
38.892147 -24.56588 -29.917152
39.301636 -23.519949 -31.90489
39.701309 -22.337303 -34.031418
39.360001 -25.541264 -32.776188
39.354176 -27.71633 -33.492283
13.635941 33.973907 -64.328018
12.138146 34.898861 -62.840172
11.663157 33.612778 -64.915573
9.751546 33.069759 -65.113197
7.942637 32.1633 -65.198753
6.309108 31.190796 -64.934319
7.536217 30.260632 -66.641418
20.931973 20.99007 -72.235733
18.692289 20.966219 -72.863876
20.370443 18.505741 -72.659012
19.890051 15.681136 -72.733261
19.264727 12.785802 -72.525658
20.890469 10.090434 -71.75795
22.346956 7.179839 -70.796684
23.69669 4.158694 -69.688644
34.104614 18.980986 -47.839012
39.416431 -5.006894 -32.378754
39.501888 -3.062325 -34.635574
39.526165 -1.126144 -36.718086
39.501915 0.905959 -38.929512
35.475624 15.001388 -58.216251
34.218517 16.407833 -60.573395
35.384357 13.236418 -59.736996
28.669271 -11.076525 -63.078331
38.099689 -24.274487 -21.295282
37.860794 -25.488867 -22.2701
37.698925 -26.667019 -23.226835
36.836147 -30.063553 -20.116169
37.173988 -29.088446 -21.972216
37.564995 -28.056934 -23.910715
37.532295 -29.371637 -24.722137
37.433105 -31.251705 -25.265486
37.395191 -33.107697 -25.958776
15.036654 36.725086 -54.594097
16.494011 35.626175 -56.203762
16.235331 35.303505 -58.841282
15.954402 34.798359 -61.178581
19.550989 33.254902 -61.233509
17.565735 33.771809 -62.558285
15.705811 33.961227 -63.605129
15.318619 32.929985 -65.763153
14.741143 31.732271 -67.576225
14.519094 30.069538 -69.330322
13.894685 28.234507 -70.684509
16.103783 28.797726 -70.270462
17.925014 27.342192 -70.909714
19.677979 25.5063 -71.343193
22.206472 27.277985 -69.023392
21.82028 25.535286 -70.382034
21.445377 23.458736 -71.435089
23.047222 21.228451 -71.287651
24.667879 18.631979 -70.854576
26.321981 15.765289 -70.104721
40.236485 -9.514305 -38.339874
40.171494 -6.213918 -39.209961
40.349998 -7.781084 -40.587917
40.385704 -6.229977 -42.73452
40.333748 -4.749454 -44.96048
21.304331 32.533337 -54.34753
22.71752 31.211882 -52.552174
23.000557 31.443354 -55.191277
24.69289 30.338682 -56.196888
26.424349 29.062464 -56.939674
28.154449 27.557304 -57.399586
39.590675 -7.554633 -32.113312
39.769859 -8.52382 -33.60651
39.923439 -9.634252 -35.009007
38.720242 -20.289082 -24.252766
38.937119 -18.775337 -26.243244
39.158726 -17.341446 -28.185211
38.852261 -21.295588 -28.264751
39.1623 -18.597694 -29.313904
39.409534 -15.68781 -30.211329
39.639648 -14.311999 -32.155441
39.869686 -12.600834 -34.179588
40.065716 -11.054496 -36.186119
40.213413 -12.742361 -37.295944
40.356014 -14.475475 -38.415123
40.05241 -21.096682 -36.228603
3.681157 38.36602 -57.033447
13.423029 37.323723 -55.943264
11.635878 37.799961 -56.795284
9.863041 37.986641 -57.495743
10.75631 35.847855 -61.213875
9.431326 36.819286 -59.613049
8.178365 37.905441 -58.015503
4.75338 36.890324 -58.64267
3.176619 36.302006 -58.482548
2.787381 34.07991 -59.875027
13.564878 26.313061 -71.6707
13.103064 23.788528 -72.47612
16.593758 20.325466 -73.208191
34.890781 -37.580521 -16.762087
35.247875 -37.25861 -18.556471
34.361252 -41.017754 -17.183666
35.026573 -38.991577 -18.824459
35.721539 -36.70295 -20.473467
36.185459 -36.318611 -22.300154
36.74234 -35.716465 -24.346094
37.287708 -35.142746 -26.383141
36.419437 -40.162556 -25.177
37.182198 -37.264591 -26.899345
37.842197 -34.421215 -28.495615
29.119646 26.027224 -52.463493
29.58095 26.042662 -55.046715
29.719604 25.937794 -57.551781
40.036255 -3.06129 -40.075802
39.796055 -0.178334 -40.525814
39.437416 2.803349 -41.245583
39.556938 3.39852 -45.274948
39.273781 4.742528 -43.526001
38.890358 5.802878 -41.797958
38.22707 8.310385 -42.066349
37.445396 10.731502 -42.626221
36.00407 14.971145 -45.288967
35.409595 16.933207 -47.795048
34.608498 18.852898 -50.088833
36.196705 15.873116 -51.98444
34.984837 18.440208 -52.485786
33.71003 20.643906 -52.675484
32.585804 22.397745 -55.141075
31.236412 24.066765 -57.584816
29.937199 25.286951 -59.772915
29.993853 24.360083 -61.82251
29.803097 23.275856 -63.741028
29.585808 21.555431 -65.528748
32.737717 17.741945 -62.833057
31.150503 18.72913 -64.895729
29.29332 19.730604 -66.832802
28.962889 17.553076 -67.833138
28.411558 15.165916 -68.65892
27.933945 12.350042 -69.080772
29.105152 9.121027 -68.089653
27.224487 9.583654 -69.312004
26.492895 6.721782 -69.242821
25.608347 3.969526 -69.017921
24.910152 1.056279 -68.475304
27.63847 -3.217019 -66.208427
25.775747 -2.512399 -67.115738
23.866495 -1.894935 -67.842773
34.867178 -36.684424 -14.282743
35.071338 -36.024411 -14.672961
34.999204 -36.197611 -14.039678
1.317903 37.307735 -56.955951
1.567961 38.548872 -56.370653
1.871242 36.515622 -57.685295
1.317903 37.307735 -56.955951
40.554857 -12.455389 -41.635551
40.549835 -14.235057 -41.094755
26.459615 27.647084 -50.423973
25.557481 28.240942 -50.064152
27.319815 27.067322 -50.824623
26.639495 27.961005 -51.80204
26.459615 27.647084 -50.423973
16.622128 14.970522 -73.037022
17.453623 13.782366 -72.842998
21.941283 1.435523 -69.27586
21.336433 2.883825 -69.822182
22.293888 2.905375 -69.663006
22.415408 -0.074094 -68.712459
21.941283 1.435523 -69.27586
35.188992 -41.792551 -21.155968
34.934879 -41.803705 -20.155642
34.803925 -42.941143 -20.26626
35.443371 -41.708706 -22.117863
35.574326 -40.571268 -22.007245
35.188992 -41.792551 -21.155968
37.385989 12.725509 -49.334858
37.21229 13.160354 -48.342823
32.680004 11.823846 -64.687588
32.870736 13.067739 -64.247071
33.490765 11.292243 -63.680806
32.463189 10.531274 -65.054993
31.843159 12.30677 -65.621258
32.680004 11.823846 -64.687588
26.21146 -9.502415 -64.518681
26.422049 -11.370937 -63.744125
35.84369 -33.461365 -16.290133
36.121112 -32.525589 -16.764003
35.986551 -32.955685 -15.913227
39.06966 -16.674063 -25.123971
39.00123 -17.482636 -24.147762
39.077985 -17.072369 -25.830448
39.160623 -15.85026 -26.10073
39.06966 -16.674063 -25.123971
39.115906 -29.291154 -32.775851
39.147522 -28.161278 -32.4882
38.909252 -29.736102 -31.771768
39.316412 -28.884405 -33.819516
39.115906 -29.291154 -32.775851
11.405504 39.218237 -53.687055
12.168671 38.858719 -53.239481
11.213334 38.754851 -54.868089
11.405504 39.218237 -53.687055
8.024628 28.925362 -67.920208
8.718571 28.513933 -68.6637
10.52966 24.630993 -71.431622
10.670134 25.832404 -71.052727
11.26325 23.97992 -71.908035
10.52966 24.630993 -71.431622
34.4571 17.966625 -46.595068
33.795251 18.862144 -46.600776
35.969795 13.546585 -57.800572
35.989189 14.310974 -56.98686
35.924161 12.6641 -58.560944
35.429991 14.118903 -58.976624
35.969795 13.546585 -57.800572
28.749688 -13.013348 -62.312534
29.495579 -11.486028 -62.54306
28.055525 -14.346964 -62.065807
27.975108 -12.410141 -62.831604
28.749688 -13.013348 -62.312534
37.983891 -25.004646 -20.229911
38.199024 -23.882126 -20.673107
17.33448 35.159521 -55.453125
16.524817 35.731036 -54.807035
17.365285 35.264381 -54.056399
21.204934 32.391357 -52.992811
20.454222 33.07444 -53.715616
23.581126 30.659653 -53.009873
23.368151 30.455762 -51.603615
24.231758 29.903533 -52.061313
39.350502 -9.031517 -29.254759
39.407475 -10.177028 -29.127807
39.396515 -8.043786 -30.246042
39.350502 -9.031517 -29.254759
39.532152 -8.400802 -31.138131
39.455038 -7.197617 -31.221223
39.396515 -8.043786 -30.246042
38.522666 -21.615574 -23.749391
38.614558 -21.08129 -23.180292
38.416981 -22.407781 -22.676917
40.358078 -17.236499 -38.465666
40.406385 -15.552941 -38.936025
40.307707 -16.159033 -37.944763
4.516366 38.569408 -56.979906
3.959853 39.258885 -56.320633
7.092581 37.026635 -59.165022
7.323102 37.739727 -58.190573
7.947844 37.192349 -58.989952
4.545135 35.919032 -59.421872
5.412117 36.370016 -59.422581
5.203873 35.398724 -60.201783
3.756755 35.624872 -59.341811
3.965 36.596165 -58.562609
4.545135 35.919032 -59.421872
3.562136 34.513824 -60.03805
2.982 35.190958 -59.178787
3.756755 35.624872 -59.341811
5.474881 30.535926 -64.689343
6.092989 30.189529 -65.507969
13.799585 21.732619 -72.940678
12.929562 22.538329 -72.674729
13.973088 22.982819 -72.742069
34.753919 -38.410971 -16.867693
34.607273 -38.490044 -16.040705
34.470411 -39.320494 -16.146311
34.200648 -42.043068 -17.195133
34.011423 -42.034759 -16.296026
36.277065 -41.40978 -25.33009
36.033943 -41.42799 -24.326431
37.440562 -37.017686 -27.943843
37.060709 -38.541505 -27.062323
37.770561 -35.595998 -28.741978
37.512197 -35.842903 -27.69748
37.440562 -37.017686 -27.943843
38.080749 -34.147562 -29.512456
37.770561 -35.595998 -28.741978
30.038678 24.007188 -49.026823
30.788536 23.337511 -49.144411
29.494302 24.929079 -50.079214
30.038678 24.007188 -49.026823
29.714774 25.143701 -51.391506
28.899175 25.812602 -51.151201
29.494302 24.929079 -50.079214
38.915182 -0.15022 -34.136333
39.143563 -1.4571 -33.90505
37.358148 8.779445 -39.144823
37.769043 7.679624 -38.962322
37.207603 9.862359 -40.283846
37.358148 8.779445 -39.144823
39.399347 4.363512 -46.400992
39.642391 2.683375 -46.038605
38.973961 6.200811 -43.834661
39.138061 5.71133 -44.763567
38.782249 6.730986 -42.97064
39.08207 5.272703 -42.66198
38.973961 6.200811 -43.834661
38.450605 7.984739 -43.104836
38.558714 7.056631 -41.932153
38.782249 6.730986 -42.97064
37.25691 11.707425 -43.808662
37.694683 10.502765 -43.61777
36.759977 12.807503 -43.879799
36.948463 11.83158 -42.697357
37.25691 11.707425 -43.808662
36.536247 13.827246 -45.140035
36.2278 13.951401 -44.02873
36.759977 12.807503 -43.879799
36.293829 15.412166 -52.978517
36.688675 14.560711 -51.795683
36.785799 14.09976 -52.78976
28.828857 7.625125 -68.074341
29.735234 7.479857 -67.44878
29.458939 5.983956 -67.433468
27.963549 -5.123995 -65.44289
28.563175 -3.590115 -65.657234
28.888253 -5.49709 -64.891697
23.791605 -5.135075 -66.734783
23.36823 -3.374265 -67.435306
24.28987 -3.655745 -67.14225
35.311071 -35.236889 -15.232401
35.563953 -34.41382 -15.737132
35.456247 -34.714529 -14.934628
38.895498 -18.757661 -23.825401
39.00123 -17.482636 -24.147762
38.645674 -31.191056 -31.001559
38.909252 -29.736102 -31.771768
38.67729 -30.06118 -30.713908
12.824435 38.193968 -53.961917
12.168671 38.858719 -53.239481
12.966645 38.531523 -52.711619
9.48612 28.0575 -69.374199
8.718571 28.513933 -68.6637
9.701221 29.009664 -68.890972
10.160893 27.52022 -70.029686
9.48612 28.0575 -69.374199
10.849715 26.959115 -70.608177
10.160893 27.52022 -70.029686
11.157593 27.992128 -70.179962
11.666835 26.304312 -71.203002
10.670134 25.832404 -71.052727
10.849715 26.959115 -70.608177
37.496078 -27.263195 -19.252523
37.746392 -26.167088 -19.710127
37.617779 -26.830911 -18.706935
40.543928 -10.682214 -42.24699
40.508991 -11.365765 -41.198341
40.554857 -12.455389 -41.635551
40.551824 -10.080168 -43.334013
40.505958 -8.990544 -42.896803
40.543928 -10.682214 -42.24699
24.899039 29.120205 -51.028223
25.557481 28.240942 -50.064152
25.112014 29.324096 -52.43448
24.231758 29.903533 -52.061313
24.899039 29.120205 -51.028223
39.323633 -12.386124 -27.757143
39.253429 -13.301397 -26.69176
39.40412 -11.497028 -28.790247
39.323633 -12.386124 -27.757143
39.386432 -12.776067 -28.454725
39.470274 -10.566971 -29.825389
39.407475 -10.177028 -29.127807
39.40412 -11.497028 -28.790247
39.910052 -23.840908 -35.969429
39.726902 -25.565458 -35.19064
4.904013 34.468787 -60.987707
5.203873 35.398724 -60.201783
5.770995 34.919771 -60.988417
4.679523 33.446575 -61.671473
4.904013 34.468787 -60.987707
4.489086 32.446872 -62.421877
4.679523 33.446575 -61.671473
5.280698 32.990132 -62.524746
4.296944 31.413065 -62.988084
4.489086 32.446872 -62.421877
16.89286 16.46905 -73.162628
17.186647 17.925847 -73.199562
18.000047 16.730041 -73.072189
15.808729 16.166328 -73.164395
16.89286 16.46905 -73.162628
16.622128 14.970522 -73.037022
20.700762 4.218228 -70.311813
21.006541 5.715416 -70.692067
20.700762 4.218228 -70.311813
21.336433 2.883825 -69.822182
34.30802 -40.195679 -16.186002
34.470411 -39.320494 -16.146311
34.655602 -42.012707 -19.137199
34.400717 -42.070749 -18.107532
34.294928 -43.01034 -18.236267
31.989161 21.620907 -47.967594
32.396504 20.654385 -46.799191
31.577582 22.53064 -49.227913
31.989161 21.620907 -47.967594
32.299572 21.736702 -49.226204
31.098948 23.453307 -50.403021
30.788536 23.337511 -49.144411
31.577582 22.53064 -49.227913
38.89358 1.923763 -36.283504
38.912971 0.876972 -35.217599
39.147402 0.60768 -36.090623
38.61121 3.242598 -36.465381
38.89358 1.923763 -36.283504
38.845641 2.973306 -37.338406
38.262017 4.455287 -36.564686
38.61121 3.242598 -36.465381
38.206208 5.483469 -37.663452
38.262017 4.455287 -36.564686
38.152499 6.464965 -38.799525
38.206208 5.483469 -37.663452
38.509562 5.273637 -38.656355
38.072397 7.469792 -39.955225
37.769043 7.679624 -38.962322
38.152499 6.464965 -38.799525
37.021946 13.434346 -47.280884
36.797634 13.67687 -46.203552
36.717188 14.396402 -48.477939
37.021946 13.434346 -47.280884
37.21229 13.160354 -48.342823
29.066598 4.424349 -67.426701
29.458939 5.983956 -67.433468
28.596791 2.979253 -67.391633
28.082754 4.684127 -68.023961
29.066598 4.424349 -67.426701
28.180317 1.432469 -67.255482
28.596791 2.979253 -67.391633
27.755714 0.039344 -67.087422
27.188344 1.845905 -67.820831
28.180317 1.432469 -67.255482
25.899622 -7.582776 -65.315338
26.80459 -7.968678 -64.901226
26.21146 -9.502415 -64.518681
25.009868 -7.266533 -65.68726
25.602998 -5.732797 -66.069806
25.899622 -7.582776 -65.315338
24.118592 -6.796563 -66.061287
25.009868 -7.266533 -65.68726
35.698515 -33.983725 -16.587908
35.84369 -33.461365 -16.290133
35.563953 -34.41382 -15.737132
39.229122 -14.558559 -26.407937
39.253429 -13.301397 -26.69176
39.237448 -14.956865 -27.114414
39.229122 -14.558559 -26.407937
39.160623 -15.85026 -26.10073
39.528782 -27.224199 -34.493465
39.726902 -25.565458 -35.19064
39.552296 -26.057588 -34.189457
39.528782 -27.224199 -34.493465
39.316412 -28.884405 -33.819516
6.706544 29.724448 -66.361519
6.092989 30.189529 -65.507969
6.922662 30.725714 -65.787869
7.3259 29.322629 -67.15068
8.234944 29.863365 -67.410945
8.024628 28.925362 -67.920208
6.706544 29.724448 -66.361519
7.3259 29.322629 -67.15068
18.232857 12.538645 -72.5882
17.453623 13.782366 -72.842998
18.485493 14.029523 -72.780457
19.062159 11.339127 -72.282223
18.232857 12.538645 -72.5882
19.875031 9.991443 -71.898369
19.062159 11.339127 -72.282223
20.077598 11.438118 -72.141804
20.607257 8.583794 -71.466377
19.875031 9.991443 -71.898369
21.335501 7.128497 -70.985745
20.607257 8.583794 -71.466377
21.618713 8.635136 -71.277317
22.017996 5.766758 -70.503006
21.006541 5.715416 -70.692067
21.335501 7.128497 -70.985745
34.139847 -44.076223 -18.307834
34.294928 -43.01034 -18.236267
34.375794 -44.139383 -19.312188
34.139847 -44.076223 -18.307834
33.965828 -45.26331 -18.354088
34.803925 -42.941143 -20.26626
34.375794 -44.139383 -19.312188
33.09852 19.785136 -46.664213
32.396504 20.654385 -46.799191
33.407882 19.903977 -47.902448
33.09852 19.785136 -46.664213
33.795251 18.862144 -46.600776
39.268381 -3.740992 -32.582068
39.238475 -4.707132 -31.57029
39.31111 -2.768707 -33.710477
39.268381 -3.740992 -32.582068
39.459159 -4.03461 -33.507164
39.334341 -1.750718 -34.830146
39.143563 -1.4571 -33.90505
39.31111 -2.768707 -33.710477
39.894678 0.388016 -46.440061
39.944737 -0.481033 -47.217405
36.876217 13.450997 -53.717384
36.785799 14.09976 -52.78976
36.446854 14.285887 -54.865032
36.876217 13.450997 -53.717384
35.939476 15.087318 -56.204718
35.883576 15.752645 -55.31228
36.446854 14.285887 -54.865032
35.425911 15.777732 -57.434109
35.939476 15.087318 -56.204718
35.989189 14.310974 -56.98686
35.860584 11.686568 -59.261252
35.924161 12.6641 -58.560944
35.218529 12.308349 -60.460406
35.860584 11.686568 -59.261252
34.513626 13.059849 -61.617398
34.679455 13.987918 -60.893988
35.218529 12.308349 -60.460406
34.367098 11.958208 -62.212052
33.828024 13.637778 -62.645634
34.513626 13.059849 -61.617398
34.252327 10.668944 -62.656517
34.367098 11.958208 -62.212052
33.490765 11.292243 -63.680806
34.252327 10.668944 -62.656517
29.101372 -7.484664 -64.142117
28.888253 -5.49709 -64.891697
29.291694 -9.507442 -63.342605
29.495579 -11.486028 -62.54306
28.478949 -9.053748 -63.877842
29.101372 -7.484664 -64.142117
29.291694 -9.507442 -63.342605
27.198687 -11.816037 -63.344723
27.892849 -10.482422 -63.591449
27.975108 -12.410141 -62.831604
26.422049 -11.370937 -63.744125
27.198687 -11.816037 -63.344723
38.304281 -23.073992 -21.701549
38.199024 -23.882126 -20.673107
38.212389 -23.608277 -22.270649
38.416981 -22.407781 -22.676917
38.304281 -23.073992 -21.701549
37.86219 -25.43693 -20.775498
37.983891 -25.004646 -20.229911
37.746392 -26.167088 -19.710127
2.358385 38.808887 -56.3547
1.567961 38.548872 -56.370653
15.796138 36.280491 -54.002203
15.09684 36.854473 -53.303423
15.765332 36.17563 -55.398929
15.796138 36.280491 -54.002203
16.524817 35.731036 -54.807035
40.533172 -9.395046 -44.49206
40.551824 -10.080168 -43.334013
40.460993 -7.545381 -45.05239
40.533172 -9.395046 -44.49206
40.370939 -5.725858 -45.540717
40.423801 -6.568976 -44.472153
40.460993 -7.545381 -45.05239
40.250101 -3.999291 -46.127802
40.370939 -5.725858 -45.540717
40.113983 -2.220664 -46.686493
40.19763 -2.970826 -45.519171
40.250101 -3.999291 -46.127802
39.944737 -0.481033 -47.217405
40.113983 -2.220664 -46.686493
18.112552 34.69795 -53.371584
17.365285 35.264381 -54.056399
18.88953 34.154205 -53.893095
18.112552 34.69795 -53.371584
19.687742 33.636749 -54.504275
18.973159 34.175411 -55.313668
18.88953 34.154205 -53.893095
20.537851 33.095646 -55.136189
19.687742 33.636749 -54.504275
20.454222 33.07444 -53.715616
22.579107 30.969893 -51.21463
23.368151 30.455762 -51.603615
21.911528 31.73063 -52.095133
22.579107 30.969893 -51.21463
22.010925 31.87261 -53.449852
21.204934 32.391357 -52.992811
21.911528 31.73063 -52.095133
39.367916 -5.923748 -31.353944
39.238475 -4.707132 -31.57029
39.503553 -6.280763 -32.246033
39.367916 -5.923748 -31.353944
39.455038 -7.197617 -31.221223
38.762108 -19.954116 -23.52494
38.614558 -21.08129 -23.180292
38.853632 -19.092627 -24.553227
38.895498 -18.757661 -23.825401
38.762108 -19.954116 -23.52494
40.488338 -14.884673 -40.021915
40.437967 -13.807207 -39.501013
40.406385 -15.552941 -38.936025
40.549835 -14.235057 -41.094755
40.488338 -14.884673 -40.021915
40.061048 -22.189826 -36.640415
39.901413 -22.747764 -35.557617
39.910052 -23.840908 -35.969429
40.180151 -20.54961 -37.267496
40.061048 -22.189826 -36.640415
40.283646 -18.922564 -37.890396
40.155905 -19.469636 -36.851503
40.180151 -20.54961 -37.267496
40.358078 -17.236499 -38.465666
40.283646 -18.922564 -37.890396
37.528442 -27.465522 -17.706897
37.617779 -26.830911 -18.706935
37.259823 -28.531986 -17.281932
37.528442 -27.465522 -17.706897
36.987438 -29.577078 -16.867638
37.095081 -28.97211 -17.835037
37.259823 -28.531986 -17.281932
36.708429 -30.570453 -16.436462
36.987438 -29.577078 -16.867638
36.429068 -31.571806 -15.919638
36.543335 -31.018555 -16.90392
36.708429 -30.570453 -16.436462
36.14509 -32.523973 -15.441496
36.429068 -31.571806 -15.919638
35.986551 -32.955685 -15.913227
36.14509 -32.523973 -15.441496
35.34223 -35.155197 -13.997363
35.456247 -34.714529 -14.934628
35.595112 -34.332128 -14.502094
35.087006 -35.946536 -13.64543
35.34223 -35.155197 -13.997363
34.999204 -36.197611 -14.039678
35.087006 -35.946536 -13.64543
3.15499 39.154249 -56.345591
3.959853 39.258885 -56.320633
2.884552 38.020658 -57.042557
2.358385 38.808887 -56.3547
3.15499 39.154249 -56.345591
14.329531 37.295929 -54.014076
15.09684 36.854473 -53.303423
13.522719 37.595247 -54.688659
14.329531 37.295929 -54.014076
14.229841 37.024405 -55.268681
12.724745 37.922443 -55.216522
12.824435 38.193968 -53.961917
13.522719 37.595247 -54.688659
11.018043 38.394249 -56.020842
11.213334 38.754851 -54.868089
11.831169 38.160562 -55.642532
10.131625 38.487589 -56.371071
11.018043 38.394249 -56.020842
10.74946 37.893301 -57.145513
9.292288 38.575762 -56.738401
10.131625 38.487589 -56.371071
8.449949 38.535162 -56.998282
9.292288 38.575762 -56.738401
9.020703 37.946041 -57.755623
7.607748 38.506382 -57.268608
8.449949 38.535162 -56.998282
7.607748 38.506382 -57.268608
7.323102 37.739727 -58.190573
6.269347 36.711861 -59.284067
7.092581 37.026635 -59.165022
6.894089 36.164482 -60.083447
5.610609 37.232169 -58.504157
6.269347 36.711861 -59.284067
5.412117 36.370016 -59.422581
5.052478 37.83156 -57.784517
5.610609 37.232169 -58.504157
4.217268 37.628172 -57.838059
4.516366 38.569408 -56.979906
5.052478 37.83156 -57.784517
2.415578 35.828976 -58.400736
1.871242 36.515622 -57.685295
2.632283 36.988652 -57.767107
2.220959 34.717928 -59.096975
2.415578 35.828976 -58.400736
2.982 35.190958 -59.178787
2.042314 33.522869 -59.657347
2.220959 34.717928 -59.096975
3.337646 33.491613 -60.721816
3.562136 34.513824 -60.03805
2.57487 32.979215 -60.420798
3.337646 33.491613 -60.721816
2.042314 33.522869 -59.657347
2.57487 32.979215 -60.420798
4.865457 30.935742 -63.859758
5.699685 31.590612 -64.104735
5.474881 30.535926 -64.689343
4.296944 31.413065 -62.988084
4.865457 30.935742 -63.859758
12.071155 23.285383 -72.322319
11.26325 23.97992 -71.908035
12.295159 24.483064 -72.061836
12.071155 23.285383 -72.322319
12.929562 22.538329 -72.674729
16.336609 18.995161 -73.249096
17.443797 19.256152 -73.158657
17.186647 17.925847 -73.199562
15.479304 20.011099 -73.217525
16.336609 18.995161 -73.249096
14.60398 20.93692 -73.117439
15.718435 21.251288 -73.108104
15.479304 20.011099 -73.217525
13.799585 21.732619 -72.940678
14.60398 20.93692 -73.117439
34.71735 -37.23113 -14.283099
34.867178 -36.684424 -14.282743
34.794131 -37.155501 -15.049302
34.71735 -37.23113 -14.283099
34.91874 -36.921839 -15.874576
35.063921 -36.277562 -15.741299
34.794131 -37.155501 -15.049302
34.769865 -37.69015 -15.972333
34.607273 -38.490044 -16.040705
35.039655 -36.81221 -16.66433
34.91874 -36.921839 -15.874576
34.769865 -37.69015 -15.972333
34.180116 -41.083845 -16.291185
34.011423 -42.034759 -16.296026
34.489155 -40.129587 -17.078482
34.30802 -40.195679 -16.186002
34.180116 -41.083845 -16.291185
34.561322 -41.045435 -18.096064
34.200648 -42.043068 -17.195133
34.400717 -42.070749 -18.107532
35.738577 -41.590423 -23.222501
35.443371 -41.708706 -22.117863
36.124071 -40.32499 -24.073071
35.738577 -41.590423 -23.222501
36.033943 -41.42799 -24.326431
36.679328 -39.990488 -26.20115
36.277065 -41.40978 -25.33009
36.800818 -38.713574 -26.038173
36.679328 -39.990488 -26.20115
37.060709 -38.541505 -27.062323
38.366507 -32.695021 -30.236498
38.127955 -32.968674 -29.219657
38.080749 -34.147562 -29.512456
38.645674 -31.191056 -31.001559
38.366507 -32.695021 -30.236498
28.089199 26.489612 -51.020799
27.319815 27.067322 -50.824623
28.30967 26.704234 -52.333091
28.089199 26.489612 -51.020799
28.899175 25.812602 -51.151201
38.915182 -0.15022 -34.136333
38.912971 0.876972 -35.217599
39.828825 1.128928 -45.66816
39.995659 -0.451287 -45.30596
39.894678 0.388016 -46.440061
39.743372 1.844073 -44.904503
39.828825 1.128928 -45.66816
39.642391 2.683375 -46.038605
39.27964 5.039326 -45.638041
39.399347 4.363512 -46.400992
39.41536 4.070524 -44.400475
39.27964 5.039326 -45.638041
39.138061 5.71133 -44.763567
38.08552 9.292206 -43.337834
38.450605 7.984739 -43.104836
37.836233 9.520944 -42.346285
38.08552 9.292206 -43.337834
37.694683 10.502765 -43.61777
37.085831 10.885884 -41.537945
37.207603 9.862359 -40.283846
37.567169 9.707977 -41.372122
37.085831 10.885884 -41.537945
36.948463 11.83158 -42.697357
35.645534 15.000317 -44.130312
36.2278 13.951401 -44.02873
35.406828 15.961704 -45.320045
35.645534 15.000317 -44.130312
36.265457 14.82077 -46.352483
36.536247 13.827246 -45.140035
36.797634 13.67687 -46.203552
35.109591 16.942735 -46.573086
35.406828 15.961704 -45.320045
35.706833 15.952176 -46.542007
34.757104 17.957096 -47.81703
34.4571 17.966625 -46.595068
35.109591 16.942735 -46.573086
37.044089 13.685358 -50.573403
37.385989 12.725509 -49.334858
36.552119 14.997763 -50.762159
37.044089 13.685358 -50.573403
36.688675 14.560711 -51.795683
32.215601 9.159148 -65.367051
32.463189 10.531274 -65.054993
31.343247 9.718839 -66.243496
32.215601 9.159148 -65.367051
30.41444 10.218001 -67.097698
30.697536 11.513362 -66.842865
31.343247 9.718839 -66.243496
30.082652 8.772253 -67.293991
29.735234 7.479857 -67.44878
29.43694 10.566776 -67.89336
30.41444 10.218001 -67.097698
30.082652 8.772253 -67.293991
28.193079 -1.795556 -66.36525
28.563175 -3.590115 -65.657234
27.201106 -1.382119 -66.930599
27.755714 0.039344 -67.087422
28.193079 -1.795556 -66.36525
22.899285 -1.750099 -68.075504
22.415408 -0.074094 -68.712459
23.382617 -0.218931 -68.479728
22.401021 -3.229429 -67.668037
22.899285 -1.750099 -68.075504
23.36823 -3.374265 -67.435306
23.196952 -6.515083 -66.354343
23.791605 -5.135075 -66.734783
24.118592 -6.796563 -66.061287
3 370 94 371
3 372 371 92
3 370 371 372
3 0 97 95
3 0 99 97
3 2 102 100
3 2 104 102
3 3 373 374
3 3 375 376
3 4 107 105
3 4 109 107
3 4 110 109
3 5 113 111
3 5 115 113
3 1 118 116
3 6 121 119
3 8 124 122
3 8 126 124
3 9 129 127
3 11 132 130
3 11 134 132
3 11 136 134
3 13 139 137
3 13 141 139
3 378 377 142
3 379 144 380
3 381 146 382
3 383 382 144
3 381 382 383
3 15 148 147
3 15 150 148
3 7 153 151
3 16 156 154
3 16 158 156
3 16 160 158
3 10 163 161
3 17 166 164
3 17 168 166
3 17 169 168
3 12 172 170
3 385 384 173
3 18 386 388
3 388 387 174
3 386 387 388
3 18 389 390
3 391 177 392
3 393 392 175
3 391 392 393
3 394 179 395
3 396 395 177
3 394 395 396
3 19 181 180
3 19 183 181
3 20 185 184
3 20 186 185
3 14 189 187
3 397 191 398
3 21 194 192
3 21 196 194
3 21 198 196
3 399 201 400
3 401 400 199
3 399 400 401
3 402 203 403
3 404 403 201
3 402 403 404
3 406 405 205
3 407 209 408
3 409 408 207
3 407 408 409
3 23 210 93
3 23 211 210
3 24 214 212
3 26 215 96
3 26 216 215
3 26 218 216
3 28 219 98
3 28 220 219
3 29 410 411
3 29 412 414
3 412 221 413
3 412 413 414
3 30 224 222
3 32 225 101
3 32 226 225
3 32 228 226
3 415 229 416
3 417 416 103
3 415 416 417
3 419 418 229
3 34 420 421
3 34 422 423
3 35 232 230
3 37 233 106
3 37 234 233
3 37 236 234
3 425 424 108
3 38 426 427
3 38 428 429
3 39 239 237
3 41 240 112
3 41 241 240
3 41 242 241
3 42 243 114
3 42 244 243
3 430 245 431
3 43 247 246
3 45 248 117
3 45 249 248
3 432 250 433
3 434 252 435
3 436 435 250
3 434 435 436
3 437 253 438
3 441 440 253
3 439 440 441
3 442 254 443
3 50 255 120
3 50 256 255
3 22 257 208
3 51 258 123
3 51 259 258
3 51 260 259
3 52 261 125
3 52 262 261
3 53 444 446
3 444 264 445
3 444 445 446
3 55 265 128
3 55 266 265
3 25 267 213
3 56 268 131
3 56 269 268
3 56 270 269
3 57 271 133
3 57 272 271
3 57 274 272
3 59 275 135
3 59 276 275
3 27 277 217
3 60 278 138
3 60 279 278
3 60 280 279
3 61 281 140
3 61 282 281
3 62 285 283
3 64 286 143
3 64 287 286
3 447 288 448
3 65 449 451
3 449 289 450
3 449 450 451
3 65 290 289
3 65 291 290
3 66 292 145
3 66 293 292
3 67 452 453
3 67 454 455
3 67 456 458
3 456 294 457
3 456 457 458
3 68 295 149
3 68 296 295
3 49 459 461
3 459 297 460
3 459 460 461
3 69 298 152
3 69 299 298
3 31 300 223
3 70 301 155
3 70 302 301
3 70 303 302
3 71 304 157
3 71 305 304
3 71 306 305
3 72 307 159
3 72 462 464
3 464 463 307
3 462 463 464
3 33 308 227
3 465 309 466
3 54 310 263
3 73 311 162
3 73 312 311
3 36 313 231
3 74 314 165
3 74 315 314
3 74 467 469
3 469 468 315
3 467 468 469
3 470 316 471
3 472 471 167
3 470 471 472
3 473 317 474
3 475 474 316
3 473 474 475
3 476 318 477
3 478 477 317
3 476 477 478
3 480 479 235
3 58 319 273
3 75 320 171
3 75 481 483
3 483 482 320
3 481 482 483
3 40 321 238
3 76 484 486
3 484 322 485
3 484 485 486
3 76 323 322
3 487 324 488
3 77 325 176
3 77 326 325
3 77 327 326
3 78 328 178
3 78 329 328
3 489 330 490
3 491 331 492
3 493 332 494
3 495 494 331
3 493 494 495
3 497 496 332
3 79 498 499
3 79 500 501
3 79 502 504
3 502 333 503
3 502 503 504
3 80 334 182
3 80 335 334
3 44 505 506
3 81 507 508
3 81 509 510
3 63 336 284
3 82 337 188
3 82 338 337
3 511 339 512
3 513 340 514
3 515 341 516
3 517 516 340
3 515 516 517
3 518 342 519
3 520 519 341
3 518 519 520
3 521 343 522
3 525 524 343
3 523 524 525
3 526 344 527
3 526 527 528
3 83 345 190
3 83 346 345
3 46 529 531
3 529 347 530
3 529 530 531
3 84 348 193
3 84 349 348
3 84 350 349
3 85 351 195
3 85 352 351
3 85 353 352
3 86 354 197
3 86 355 354
3 47 356 251
3 87 357 200
3 87 358 357
3 87 359 358
3 88 360 202
3 88 361 360
3 89 532 534
3 532 362 533
3 532 533 534
3 89 363 362
3 89 364 363
3 90 365 204
3 90 366 365
3 48 535 537
3 535 367 536
3 535 536 537
3 91 368 206
3 91 369 368
3 91 538 540
3 540 539 369
3 538 539 540
3 92 541 543
3 541 93 542
3 541 542 543
3 94 93 92
3 94 23 93
3 95 96 24
3 97 96 95
3 97 26 96
3 97 98 26
3 99 98 97
3 99 28 98
3 544 29 545
3 100 101 30
3 102 101 100
3 102 32 101
3 102 103 32
3 104 103 102
3 104 546 548
3 548 547 103
3 546 547 548
3 549 34 550
3 549 550 551
3 105 106 35
3 107 106 105
3 107 37 106
3 107 108 37
3 109 108 107
3 109 552 554
3 554 553 108
3 552 553 554
3 109 555 556
3 110 557 559
3 559 558 109
3 557 558 559
3 110 560 562
3 560 38 561
3 560 561 562
3 111 112 39
3 113 112 111
3 113 41 112
3 113 114 41
3 115 114 113
3 115 42 114
3 116 117 43
3 118 117 116
3 118 45 117
3 119 563 565
3 563 120 564
3 563 564 565
3 121 120 119
3 121 50 120
3 122 123 22
3 124 123 122
3 124 51 123
3 124 125 51
3 126 125 124
3 126 52 125
3 127 128 53
3 129 128 127
3 129 55 128
3 130 131 25
3 132 131 130
3 132 56 131
3 132 133 56
3 134 133 132
3 134 57 133
3 134 135 57
3 136 135 134
3 136 59 135
3 137 138 27
3 139 138 137
3 139 60 138
3 139 140 60
3 141 140 139
3 141 61 140
3 142 143 62
3 566 143 567
3 568 567 142
3 566 567 568
3 569 64 570
3 571 570 143
3 569 570 571
3 144 572 573
3 144 574 576
3 574 65 575
3 574 575 576
3 144 145 65
3 146 145 144
3 146 66 145
3 147 577 578
3 148 579 581
3 581 580 147
3 579 580 581
3 148 582 584
3 582 67 583
3 582 583 584
3 148 149 67
3 150 149 148
3 150 68 149
3 151 152 49
3 153 152 151
3 153 69 152
3 154 155 31
3 156 155 154
3 156 70 155
3 156 157 70
3 158 157 156
3 158 71 157
3 158 159 71
3 160 159 158
3 160 72 159
3 586 585 33
3 161 162 54
3 163 162 161
3 163 73 162
3 164 165 36
3 166 165 164
3 166 74 165
3 166 167 74
3 168 167 166
3 168 587 589
3 589 588 167
3 587 588 589
3 168 590 591
3 169 592 594
3 594 593 168
3 592 593 594
3 169 595 596
3 170 171 58
3 172 171 170
3 172 75 171
3 173 597 599
3 599 598 40
3 597 598 599
3 602 601 173
3 600 601 602
3 174 603 604
3 606 605 174
3 607 76 608
3 175 609 611
3 609 176 610
3 609 610 611
3 177 176 175
3 177 77 176
3 177 178 77
3 179 178 177
3 179 78 178
3 180 612 613
3 181 614 616
3 616 615 180
3 614 615 616
3 181 617 619
3 617 79 618
3 617 618 619
3 181 182 79
3 183 182 181
3 183 80 182
3 184 620 622
3 622 621 44
3 620 621 622
3 185 623 625
3 625 624 184
3 623 624 625
3 185 626 627
3 185 628 629
3 186 630 632
3 632 631 185
3 630 631 632
3 186 633 635
3 633 81 634
3 633 634 635
3 187 188 63
3 189 188 187
3 189 82 188
3 636 190 637
3 191 638 640
3 638 190 639
3 638 639 640
3 191 83 190
3 192 193 46
3 194 193 192
3 194 84 193
3 194 195 84
3 196 195 194
3 196 85 195
3 196 197 85
3 198 197 196
3 198 86 197
3 199 200 47
3 201 200 199
3 201 87 200
3 201 202 87
3 203 202 201
3 203 88 202
3 641 89 642
3 643 204 644
3 645 644 89
3 643 644 645
3 646 204 647
3 648 90 649
3 650 649 204
3 648 649 650
3 205 206 48
3 651 206 652
3 653 652 205
3 651 652 653
3 654 91 655
3 656 655 206
3 654 655 656
3 658 657 91
3 207 208 6
3 209 208 207
3 209 22 208
3 93 659 661
3 659 209 660
3 659 660 661
3 210 209 93
3 210 22 209
3 210 122 22
3 211 122 210
3 211 8 122
3 212 213 9
3 214 213 212
3 214 25 213
3 96 214 24
3 215 214 96
3 215 25 214
3 215 130 25
3 216 130 215
3 216 11 130
3 216 217 11
3 218 217 216
3 218 27 217
3 98 218 26
3 219 218 98
3 219 27 218
3 219 137 27
3 220 137 219
3 220 13 137
3 662 147 663
3 221 664 666
3 664 147 665
3 664 665 666
3 221 15 147
3 222 223 7
3 224 223 222
3 224 31 223
3 101 224 30
3 225 224 101
3 225 31 224
3 225 154 31
3 226 154 225
3 226 16 154
3 226 227 16
3 228 227 226
3 228 33 227
3 103 228 32
3 229 228 103
3 229 33 228
3 229 667 669
3 669 668 33
3 667 668 669
3 671 670 229
3 230 231 10
3 232 231 230
3 232 36 231
3 106 232 35
3 233 232 106
3 233 36 232
3 233 164 36
3 234 164 233
3 234 17 164
3 234 235 17
3 236 235 234
3 236 672 674
3 674 673 235
3 672 673 674
3 108 236 37
3 675 236 676
3 677 676 108
3 675 676 677
3 679 678 236
3 237 238 12
3 239 238 237
3 239 40 238
3 112 239 39
3 240 239 112
3 240 40 239
3 240 173 40
3 241 173 240
3 241 680 682
3 682 681 173
3 680 681 682
3 241 683 684
3 242 685 687
3 687 686 241
3 685 686 687
3 242 688 689
3 114 242 41
3 243 242 114
3 243 690 692
3 692 691 242
3 690 691 692
3 243 693 695
3 693 174 694
3 693 694 695
3 244 174 243
3 244 18 174
3 696 175 697
3 698 175 699
3 698 699 700
3 702 701 175
3 703 180 704
3 245 705 707
3 705 180 706
3 705 706 707
3 245 19 180
3 246 708 709
3 247 710 712
3 712 711 246
3 710 711 712
3 247 713 715
3 713 44 714
3 713 714 715
3 117 247 43
3 248 247 117
3 248 44 247
3 248 184 44
3 249 184 248
3 249 20 184
3 717 716 14
3 718 46 719
3 720 46 721
3 722 192 723
3 724 723 46
3 722 723 724
3 250 725 727
3 725 192 726
3 725 726 727
3 250 21 192
3 250 251 21
3 252 251 250
3 252 47 251
3 728 252 729
3 730 252 731
3 732 47 733
3 734 733 252
3 732 733 734
3 735 199 736
3 737 736 47
3 735 736 737
3 738 199 739
3 741 740 199
3 742 48 743
3 253 744 745
3 253 746 748
3 746 48 747
3 746 747 748
3 253 205 48
3 749 205 750
3 751 750 253
3 749 750 751
3 753 752 205
3 254 754 755
3 254 756 758
3 756 49 757
3 756 757 758
3 120 759 761
3 759 254 760
3 759 760 761
3 255 254 120
3 255 49 254
3 255 151 49
3 256 151 255
3 256 7 151
3 208 121 6
3 257 121 208
3 257 50 121
3 123 257 22
3 258 257 123
3 258 50 257
3 258 256 50
3 259 256 258
3 259 7 256
3 259 222 7
3 260 222 259
3 260 30 222
3 125 260 51
3 261 260 125
3 261 30 260
3 261 100 30
3 262 100 261
3 262 2 100
3 762 3 763
3 764 263 765
3 264 766 768
3 766 263 767
3 766 767 768
3 264 54 263
3 128 264 53
3 265 264 128
3 265 54 264
3 265 161 54
3 266 161 265
3 266 10 161
3 213 129 9
3 267 129 213
3 267 55 129
3 131 267 25
3 268 267 131
3 268 55 267
3 268 266 55
3 269 266 268
3 269 10 266
3 269 230 10
3 270 230 269
3 270 35 230
3 133 270 56
3 271 270 133
3 271 35 270
3 271 105 35
3 272 105 271
3 272 4 105
3 272 273 4
3 274 273 272
3 274 58 273
3 135 274 57
3 275 274 135
3 275 58 274
3 275 170 58
3 276 170 275
3 276 12 170
3 217 136 11
3 277 136 217
3 277 59 136
3 138 277 27
3 278 277 138
3 278 59 277
3 278 276 59
3 279 276 278
3 279 12 276
3 279 237 12
3 280 237 279
3 280 39 237
3 140 280 60
3 281 280 140
3 281 39 280
3 281 111 39
3 282 111 281
3 282 5 111
3 283 284 1
3 285 284 283
3 285 63 284
3 143 285 62
3 286 285 143
3 286 63 285
3 286 187 63
3 287 187 286
3 287 14 187
3 769 64 770
3 771 64 772
3 773 287 774
3 775 774 64
3 773 774 775
3 776 287 777
3 778 14 779
3 780 779 287
3 778 779 780
3 782 781 14
3 783 53 784
3 785 53 786
3 787 127 788
3 789 788 53
3 787 788 789
3 288 790 792
3 790 127 791
3 790 791 792
3 288 9 127
3 289 793 794
3 289 795 796
3 289 797 799
3 797 288 798
3 797 798 799
3 290 288 289
3 290 9 288
3 290 212 9
3 291 212 290
3 291 24 212
3 145 291 65
3 292 291 145
3 292 24 291
3 292 95 24
3 293 95 292
3 293 0 95
3 800 246 801
3 294 802 804
3 802 246 803
3 802 803 804
3 294 43 246
3 149 294 67
3 295 294 149
3 295 43 294
3 295 116 43
3 296 116 295
3 296 1 116
3 297 805 806
3 297 807 809
3 807 29 808
3 807 808 809
3 152 297 49
3 298 297 152
3 298 29 297
3 298 221 29
3 299 221 298
3 299 15 221
3 223 153 7
3 300 153 223
3 300 69 153
3 155 300 31
3 301 300 155
3 301 69 300
3 301 299 69
3 302 299 301
3 302 15 299
3 302 150 15
3 303 150 302
3 303 68 150
3 157 303 70
3 304 303 157
3 304 68 303
3 304 296 68
3 305 296 304
3 305 1 296
3 305 283 1
3 306 283 305
3 306 62 283
3 159 306 71
3 307 306 159
3 307 62 306
3 307 142 62
3 810 142 811
3 812 811 307
3 810 811 812
3 814 813 142
3 227 160 16
3 308 160 227
3 308 72 160
3 815 308 816
3 817 816 33
3 815 816 817
3 818 308 819
3 820 72 821
3 822 821 308
3 820 821 822
3 824 823 72
3 825 119 826
3 827 119 828
3 829 6 830
3 831 830 119
3 829 830 831
3 832 6 833
3 834 207 835
3 836 835 6
3 834 835 836
3 837 207 838
3 840 839 207
3 841 92 842
3 841 842 843
3 844 92 845
3 847 846 92
3 309 848 849
3 309 850 852
3 850 3 851
3 850 851 852
3 263 853 854
3 310 855 857
3 857 856 263
3 855 856 857
3 310 858 860
3 858 34 859
3 858 859 860
3 162 310 54
3 311 310 162
3 311 34 310
3 311 861 863
3 863 862 34
3 861 862 863
3 312 864 866
3 866 865 311
3 864 865 866
3 312 867 868
3 231 163 10
3 313 163 231
3 313 73 163
3 165 313 36
3 314 313 165
3 314 73 313
3 314 312 73
3 315 312 314
3 315 869 871
3 871 870 312
3 869 870 871
3 315 872 873
3 875 874 315
3 167 876 878
3 878 877 74
3 876 877 878
3 316 879 881
3 881 880 167
3 879 880 881
3 316 882 883
3 316 884 886
3 884 309 885
3 884 885 886
3 317 309 316
3 317 3 309
3 317 887 889
3 889 888 3
3 887 888 889
3 318 890 892
3 892 891 317
3 890 891 892
3 318 893 894
3 895 318 896
3 897 318 898
3 900 899 318
3 235 169 17
3 901 169 902
3 903 902 235
3 901 902 903
3 905 904 169
3 273 110 4
3 319 110 273
3 319 38 110
3 171 319 58
3 320 319 171
3 320 38 319
3 320 906 908
3 908 907 38
3 906 907 908
3 910 909 320
3 238 172 12
3 321 172 238
3 321 75 172
3 911 321 912
3 913 912 40
3 911 912 913
3 914 321 915
3 916 75 917
3 918 917 321
3 916 917 918
3 920 919 75
3 921 94 922
3 923 94 924
3 925 23 926
3 927 926 94
3 925 926 927
3 322 928 929
3 322 930 932
3 930 23 931
3 930 931 932
3 322 211 23
3 323 211 322
3 323 8 211
3 324 933 934
3 324 935 937
3 935 76 936
3 935 936 937
3 176 938 940
3 938 324 939
3 938 939 940
3 325 324 176
3 325 76 324
3 325 323 76
3 326 323 325
3 326 8 323
3 326 126 8
3 327 126 326
3 327 52 126
3 178 327 77
3 328 327 178
3 328 52 327
3 328 262 52
3 329 262 328
3 329 2 262
3 941 179 942
3 330 943 945
3 943 179 944
3 943 944 945
3 330 78 179
3 946 330 947
3 331 948 950
3 948 330 949
3 948 949 950
3 331 78 330
3 331 329 78
3 332 329 331
3 332 2 329
3 332 104 2
3 951 104 952
3 953 952 332
3 951 952 953
3 955 954 104
3 956 146 957
3 333 958 960
3 958 146 959
3 958 959 960
3 333 66 146
3 182 333 79
3 334 333 182
3 334 66 333
3 334 293 66
3 335 293 334
3 335 0 293
3 962 961 44
3 284 118 1
3 336 118 284
3 336 45 118
3 188 336 63
3 337 336 188
3 337 45 336
3 337 249 45
3 338 249 337
3 338 20 249
3 963 189 964
3 965 964 14
3 963 964 965
3 339 966 968
3 966 189 967
3 966 967 968
3 339 82 189
3 969 339 970
3 340 971 973
3 971 339 972
3 971 972 973
3 340 82 339
3 340 338 82
3 341 338 340
3 341 20 338
3 341 186 20
3 342 186 341
3 342 81 186
3 974 342 975
3 343 976 978
3 976 342 977
3 976 977 978
3 343 81 342
3 343 979 981
3 981 980 81
3 979 980 981
3 983 982 343
3 344 984 985
3 344 986 987
3 190 988 990
3 988 344 989
3 988 989 990
3 345 344 190
3 345 991 993
3 993 992 344
3 991 992 993
3 345 994 996
3 994 245 995
3 994 995 996
3 346 245 345
3 346 19 245
3 997 191 998
3 347 999 1001
3 999 191 1000
3 999 1000 1001
3 347 83 191
3 193 347 46
3 348 347 193
3 348 83 347
3 348 346 83
3 349 346 348
3 349 19 346
3 349 183 19
3 350 183 349
3 350 80 183
3 195 350 84
3 351 350 195
3 351 80 350
3 351 335 80
3 352 335 351
3 352 0 335
3 352 99 0
3 353 99 352
3 353 28 99
3 197 353 85
3 354 353 197
3 354 28 353
3 354 220 28
3 355 220 354
3 355 13 220
3 251 198 21
3 356 198 251
3 356 86 198
3 200 356 47
3 357 356 200
3 357 86 356
3 357 355 86
3 358 355 357
3 358 13 355
3 358 141 13
3 359 141 358
3 359 61 141
3 202 359 87
3 360 359 202
3 360 61 359
3 360 282 61
3 361 282 360
3 361 5 282
3 1002 203 1003
3 1004 203 1005
3 1006 88 1007
3 1008 1007 203
3 1006 1007 1008
3 362 1009 1010
3 362 1011 1013
3 1011 88 1012
3 1011 1012 1013
3 362 361 88
3 363 361 362
3 363 5 361
3 363 115 5
3 364 115 363
3 364 42 115
3 204 364 89
3 365 364 204
3 365 42 364
3 365 244 42
3 366 244 365
3 366 18 244
3 367 1014 1015
3 367 1016 1018
3 1016 90 1017
3 1016 1017 1018
3 206 367 48
3 368 367 206
3 368 90 367
3 368 366 90
3 369 366 368
3 369 18 366
3 369 1019 1021
3 1021 1020 18
3 1019 1020 1021
3 1024 1023 369
3 1022 1023 1024
3 1027 1026 91
3 1025 1026 1027
