ply
format ascii 1.0
element vertex 94
property float x
property float y
property float z
element face 76
property list uchar int vertex_index
end_header
-29.457264 -2.240732 -0.758959
-28.602093 2.854141 -2.622851
-26.096237 -1.675228 -2.796333
-26.85965 3.395839 -3.5711
-30.793257 -0.034166 -0.582904
-32.523613 -0.118598 0.568835
-31.104406 -2.539201 0.365637
-31.732555 -4.816129 1.452769
-30.073832 -4.869194 0.297282
-29.174408 -6.986909 0.11387
-28.479738 -4.585266 -0.806648
-30.356649 2.666224 -1.668957
-29.069523 0.331347 -1.677563
-27.80625 -1.987069 -1.781919
-27.253912 0.573247 -2.685371
-26.839289 -4.189847 -1.903986
-29.479371 2.760182 -2.145904
-30.163583 4.060201 -2.194373
-29.286304 4.154159 -2.67132
-26.253952 2.230151 -3.580072
-25.981019 3.527219 -3.985616
-33.339205 -0.12479 1.189005
-32.710053 -1.271465 1.087592
-32.070268 -6.023117 2.034325
-31.250279 -5.988549 1.379078
-28.750363 -7.995401 -0.078038
-28.368432 -6.870008 -0.468548
-28.410218 4.33174 -3.119337
-29.286304 4.154159 -2.67132
-27.538997 4.602589 -3.593462
-27.730871 3.12499 -3.096976
-28.410218 4.33174 -3.119337
-26.64487 4.713472 -3.985746
-27.538997 4.602589 -3.593462
-25.766239 4.844851 -4.400262
-25.981019 3.527219 -3.985616
-26.64487 4.713472 -3.985746
-31.658435 -0.076382 -0.007034
-32.274321 1.12084 -0.012767
-31.409143 1.163056 -0.588637
-32.000449 -2.481766 0.985993
-32.710053 -1.271465 1.087592
-31.814009 -1.328899 0.467236
-31.418481 -3.677665 0.909203
-32.314523 -3.62023 1.529559
-32.000449 -2.481766 0.985993
-30.420917 -6.015081 0.801335
-31.250279 -5.988549 1.379078
-30.903194 -4.842662 0.875026
-29.62412 -5.928052 0.205576
-29.971205 -7.073939 0.709628
-30.420917 -6.015081 0.801335
-28.021097 -5.669187 -0.928808
-28.368432 -6.870008 -0.468548
-28.827073 -5.786087 -0.346389
-25.691171 -2.775971 -2.85733
-25.373114 -1.407632 -3.244294
-31.050268 3.90229 -1.680087
-30.163583 4.060201 -2.194373
-31.190838 2.513251 -1.131663
-31.050268 3.90229 -1.680087
-30.574953 1.316029 -1.12593
-31.409143 1.163056 -0.588637
-31.190838 2.513251 -1.131663
-26.451083 0.818855 -3.137208
-27.056781 1.984543 -3.128235
-26.253952 2.230151 -3.580072
-25.872245 -0.305382 -3.192689
-26.675075 -0.55099 -2.740852
-26.451083 0.818855 -3.137208
-25.373114 -1.407632 -3.244294
-25.872245 -0.305382 -3.192689
-33.175246 1.11997 0.606332
-32.274321 1.12084 -0.012767
-33.175246 1.11997 0.606332
-33.339205 -0.12479 1.189005
-32.537106 -4.814514 2.08663
-32.314523 -3.62023 1.529559
-32.537106 -4.814514 2.08663
-32.070268 -6.023117 2.034325
-29.532009 -8.102545 0.544791
-29.971205 -7.073939 0.709628
-29.532009 -8.102545 0.544791
-28.750363 -7.995401 -0.078038
-27.200873 -5.471478 -1.477476
-28.021097 -5.669187 -0.928808
-27.659514 -4.387557 -1.355317
-26.062697 -4.033281 -2.411156
-26.467763 -2.932538 -2.35016
-25.691171 -2.775971 -2.85733
-26.436142 -5.193669 -2.041866
-26.062697 -4.033281 -2.411156
-27.200873 -5.471478 -1.477476
-26.436142 -5.193669 -2.041866
3 0 6 4
3 0 8 6
3 0 10 8
3 1 16 18
3 16 11 17
3 16 17 18
3 1 12 11
3 1 14 12
3 20 19 3
3 22 21 5
3 24 23 7
3 26 25 9
3 2 15 13
3 27 1 28
3 29 3 30
3 31 30 1
3 29 30 31
3 32 3 33
3 36 35 3
3 34 35 36
3 4 37 39
3 37 5 38
3 37 38 39
3 6 5 4
3 6 40 42
3 42 41 5
3 40 41 42
3 6 43 45
3 43 7 44
3 43 44 45
3 8 7 6
3 8 46 48
3 48 47 7
3 46 47 48
3 8 49 51
3 49 9 50
3 49 50 51
3 10 9 8
3 10 52 54
3 54 53 9
3 52 53 54
3 56 55 2
3 11 57 58
3 11 59 60
3 11 61 63
3 61 4 62
3 61 62 63
3 12 4 11
3 12 0 4
3 12 13 0
3 14 13 12
3 14 2 13
3 3 14 1
3 64 14 65
3 66 65 3
3 64 65 66
3 67 2 68
3 69 68 14
3 67 68 69
3 71 70 2
3 5 72 73
3 75 74 5
3 7 76 77
3 79 78 7
3 9 80 81
3 83 82 9
3 13 10 0
3 15 10 13
3 15 84 86
3 86 85 10
3 84 85 86
3 87 15 88
3 89 88 2
3 87 88 89
3 90 15 91
3 93 92 15
