ply
format ascii 1.0
element vertex 746
property float x
property float y
property float z
element face 811
property list uchar int vertex_index
end_header
28.248569 100.219185 -18.737417
17.062969 105.305801 -0.575343
35.251774 74.728706 -29.485252
35.545082 47.15015 -39.475239
32.001419 89.708946 -25.27212
34.891945 78.149864 -17.150377
31.732601 90.273857 -11.302322
21.892311 105.857269 -24.42738
27.416862 97.488976 -32.336323
31.607412 83.952881 -37.061638
23.283827 105.932404 -10.056607
28.396069 98.416046 -3.272506
15.134345 107.876694 -15.206799
17.9678 45.193554 -51.349934
24.343889 40.110817 -48.778278
29.439291 73.700485 -45.47966
34.398579 66.808807 -39.205219
30.228935 95.513245 -22.179127
31.906696 90.640808 -18.394314
30.183525 95.890556 -15.237527
25.4867 103.68412 -21.917694
24.796816 102.409302 -28.771519
27.942472 99.50061 -25.699099
30.144854 93.805298 -29.081833
20.35747 106.472404 -5.498381
23.743395 104.235001 -2.298258
20.759415 104.214119 2.059986
12.884407 105.233406 -3.281443
16.247776 107.174866 -7.996902
19.636169 107.620972 -12.664471
36.657757 66.092178 -30.737013
36.687061 69.010109 -25.347551
26.109947 75.874786 -47.629223
27.91448 81.965805 -44.419552
33.679958 79.489433 -33.351173
33.143242 75.788567 -38.430576
35.054012 71.127975 -34.803547
36.178795 62.327629 -35.637371
33.503757 51.229603 -42.696972
30.814995 44.391586 -45.072807
33.677296 82.797043 -27.553072
35.20657 76.87793 -23.473619
33.604973 84.124329 -21.292713
33.304699 84.646027 -14.40182
32.926422 84.017014 -7.198544
17.612066 106.482368 -26.575649
20.844637 103.924156 -31.065535
24.046295 99.690994 -34.920139
26.770506 94.077255 -37.928608
28.89535 87.369049 -40.32159
29.635279 91.400017 -35.05159
31.947773 87.476837 -31.479958
25.952084 103.790573 -14.453988
28.35741 99.90834 -11.292299
26.132389 102.92263 -6.951902
26.268929 100.830505 1.092946
18.616478 107.674088 -19.998938
22.608866 106.507919 -17.561827
21.145306 42.764221 -50.338455
30.128162 94.915771 -7.55385
31.446367 89.033737 -3.861928
27.460667 66.965721 -48.12368
30.610626 64.266983 -45.756851
30.816219 79.340439 -41.743805
32.144554 70.433952 -42.731743
33.12397 60.763588 -42.924797
35.225212 57.209541 -39.582165
36.937683 52.896965 -36.164242
29.286066 97.985069 -20.373152
30.236532 95.802338 -18.600912
29.251829 98.256767 -16.960073
26.999611 102.089188 -20.17392
26.769131 101.780296 -23.716232
28.136002 99.991768 -22.143522
29.208366 97.57756 -23.917368
18.659054 106.141281 -3.167251
20.425798 105.501152 -1.680492
18.972343 104.90979 0.746774
15.03947 105.404953 -1.896761
14.575011 106.348656 -5.514352
16.72995 106.406319 -4.367941
18.44463 107.002647 -6.776042
35.98859 70.364426 -30.241577
36.744541 67.438286 -28.197266
36.032642 71.723618 -27.423742
26.741947 85.835358 -43.793594
34.508133 77.079956 -31.546761
34.364853 75.477341 -34.20475
35.182793 73.091354 -32.31126
35.860332 68.717712 -32.906887
34.594498 49.269203 -41.078224
33.502506 46.117702 -42.404476
32.858891 86.352684 -26.534008
33.652386 83.651932 -24.466658
32.831413 87.102814 -23.143023
31.851446 90.502861 -14.825294
32.642452 87.72699 -16.465326
32.510002 87.56456 -12.73467
33.096695 84.549156 -10.716907
32.307915 87.420204 -9.251736
19.986107 106.284775 -25.660662
19.385883 105.353096 -28.921421
21.530464 104.929199 -28.01405
26.138294 100.158447 -30.621529
24.434822 101.152328 -32.085796
25.964705 98.600952 -33.705505
25.422731 97.017639 -36.621826
27.072218 95.980782 -35.28619
28.319014 92.876396 -36.50695
28.555101 94.684937 -33.664669
31.137665 91.921402 -27.051855
31.024529 90.875404 -30.391237
31.983112 88.796631 -28.485193
32.875526 85.102722 -29.745951
24.668535 105.059761 -12.358469
26.051603 103.483345 -10.672146
24.762329 104.61808 -8.481807
23.70966 103.109146 1.626022
25.091763 102.641777 -0.502287
13.414931 107.368561 -12.586471
16.389408 107.693611 -21.168833
16.972057 107.983215 -17.53544
21.545986 106.970299 -11.546319
21.138018 107.266403 -15.293294
22.970499 106.36834 -13.905667
24.399971 105.327797 -15.960693
24.681082 45.261635 -49.176758
23.117804 46.637821 -49.943901
22.737225 41.496101 -49.638958
29.076736 40.882362 -46.034321
35.079475 77.589317 -20.325422
35.910515 73.657623 -21.533669
28.383886 99.290382 -7.194592
29.343346 97.468323 -9.448958
30.534344 90.174057 2.109618
30.730909 91.037697 -1.726781
31.293562 88.030388 -0.094145
31.980791 85.879723 -1.952825
27.890471 74.709412 -46.661285
26.971066 71.59964 -47.885418
28.599699 70.30751 -46.901653
29.128727 65.877716 -46.993347
30.116743 69.338753 -45.632694
30.332991 85.720894 -38.848381
29.999653 83.387375 -41.024494
31.345325 81.679131 -39.418293
33.797474 71.264023 -38.982922
32.706898 73.172417 -40.78112
33.309353 68.588928 -41.114609
32.703964 65.683716 -42.885899
33.890446 63.688347 -41.172451
34.221581 59.052189 -41.300606
34.84066 61.943539 -39.546837
36.957729 59.846523 -33.8386
36.641998 57.445164 -35.928757
16.375538 46.352188 -51.689243
31.16045 92.698212 -23.636724
32.038017 90.117867 -21.732052
31.164885 93.06633 -20.233603
31.082207 93.308014 -16.599268
31.031107 93.117348 -13.216702
23.751261 104.949181 -23.39407
23.412491 104.284821 -26.715464
25.232637 103.196144 -25.220699
26.439049 101.196968 -27.25552
27.732773 98.619629 -29.131775
28.906076 95.802742 -30.661263
29.120729 96.780518 -27.375391
30.207085 94.818047 -25.759232
21.835703 106.403915 -7.751238
23.373016 105.318649 -6.126326
22.05892 105.491425 -3.620948
22.255428 104.426651 -0.028684
22.375437 102.983498 3.979505
12.475616 106.062828 -6.726413
14.110758 107.042809 -9.195177
15.750998 107.678322 -11.663932
17.473017 107.942818 -14.013098
17.938797 107.598602 -10.290941
20.053936 107.178444 -9.138577
26.53229 48.700047 -48.551121
26.196281 43.808392 -48.264935
37.252731 61.46109 -31.396265
37.386333 63.090336 -28.881775
27.003448 79.201065 -46.179169
28.680634 78.055885 -45.06205
32.681923 81.992996 -35.190109
32.458221 79.849731 -37.76992
33.453663 77.887779 -35.93898
34.126347 73.585579 -36.683132
34.817635 69.180954 -36.957321
35.321682 64.503387 -37.514629
35.674328 66.62825 -35.293503
36.500786 64.280174 -33.22192
16.092119 41.693829 -51.661697
15.347579 104.267288 1.451608
17.298697 104.049088 2.857849
13.361618 104.212311 0.10965
32.072376 42.59103 -43.636356
34.469872 78.879616 -28.709417
35.23978 76.041801 -26.611242
34.461525 79.910599 -25.738579
34.436264 80.480591 -22.52887
34.282665 81.144852 -19.357969
32.763779 87.517197 -19.810713
33.498737 84.420387 -17.987503
34.109486 81.456238 -15.903296
33.866589 81.679634 -12.388849
22.965105 103.283493 -30.077606
22.506435 102.021278 -33.040485
27.386852 88.497841 -41.633953
27.874163 90.942917 -39.172306
29.384119 89.351562 -37.857143
30.700495 87.737679 -36.142956
29.884928 92.844788 -32.168648
30.889334 89.540466 -33.299988
31.838337 85.816696 -34.387901
32.828926 83.655945 -32.527763
33.738804 81.160744 -30.611113
27.178047 102.112274 -16.659599
28.281137 100.266716 -15.050282
27.165588 102.116455 -13.037886
27.359795 101.473015 -9.1281
27.320368 100.877922 -5.133183
24.965971 103.758636 -4.540796
26.305901 101.902153 -2.938935
27.393543 99.82914 -1.266325
19.162457 103.453186 4.478634
15.770249 107.161621 -24.186796
18.224152 107.200233 -23.473938
20.257277 106.956154 -22.379871
19.103346 107.818481 -16.242113
20.690374 107.262383 -18.962648
22.379145 106.258278 -21.091949
24.173489 105.235748 -19.72444
25.7988 103.819031 -18.279556
19.684755 44.102001 -50.875591
35.945286 73.081223 -24.66501
29.296427 98.039162 -13.378419
30.166508 95.554428 -11.53451
30.912785 92.818428 -9.535384
30.800707 92.121452 -5.528205
31.528028 90.056534 -7.654775
32.121979 86.902679 -5.646619
27.853582 62.367455 -48.153023
28.479362 84.655067 -42.539288
29.434788 80.95491 -43.102791
30.230057 76.618881 -43.717335
32.069187 77.40097 -40.243378
31.593531 74.850716 -42.274044
30.921377 72.157349 -44.098663
31.411654 67.45533 -44.429688
31.900808 62.687412 -44.42625
32.1292 57.796497 -44.444763
33.352173 56.28949 -42.890327
34.42284 54.363033 -41.322582
35.463936 52.38184 -39.567337
35.780922 59.815563 -37.750633
36.156891 55.028019 -37.821484
36.325054 50.438694 -37.937187
14.540187 42.93829 -52.004429
26.18703 87.624439 -43.302759
25.76431 86.38675 -44.275993
35.018896 45.640871 -40.191979
34.543604 46.700397 -40.993471
35.06979 48.209677 -40.276731
24.404273 102.235153 2.530852
23.782613 102.358509 3.528137
13.988185 107.677105 -15.627527
13.128478 107.423038 -14.317362
14.274638 107.622627 -13.896635
14.961012 107.847481 -16.865411
13.988185 107.677105 -15.627527
16.053201 107.929955 -16.371119
15.879868 107.900742 -18.029732
14.961012 107.847481 -16.865411
23.270634 38.32465 -49.036512
22.467301 39.017292 -49.466852
23.540557 40.803459 -49.208618
35.292026 76.372448 -17.817887
35.385791 76.092174 -19.405409
34.98571 77.86959 -18.737899
28.85343 97.585667 -4.368785
28.847338 98.022834 -6.329828
28.389978 98.853214 -5.233549
31.223569 87.422612 1.731119
30.913953 89.102223 1.007737
30.84396 88.494446 2.833
31.562612 86.385601 0.734033
31.223569 87.422612 1.731119
37.185949 57.505418 -33.947449
37.344273 58.419029 -32.85966
17.171669 45.772871 -51.519588
17.268522 48.16008 -51.554678
18.064653 47.580763 -51.385024
12.680011 105.648117 -5.003928
11.591801 105.415058 -5.604064
11.796197 105.000347 -3.881579
27.277918 48.03013 -48.043997
27.337508 50.638859 -48.202916
27.109913 45.584303 -47.900904
26.364286 46.254219 -48.408028
27.277918 48.03013 -48.043997
37.027126 66.945053 -25.740904
37.055866 66.159142 -27.165762
36.715801 68.224198 -26.772408
37.011555 67.508461 -24.326636
37.027126 66.945053 -25.740904
27.458964 80.583435 -45.299361
26.500492 81.196003 -45.860756
26.956008 82.578373 -44.980947
15.564667 103.573734 3.17139
14.531188 103.598354 2.445479
13.538208 103.570865 1.774499
12.536808 103.48315 1.082128
14.531188 103.598354 2.445479
14.354598 104.2398 0.780629
13.538208 103.570865 1.774499
32.911146 49.436346 -43.308703
32.909822 51.93654 -43.453938
32.680027 41.805441 -42.858542
32.787441 44.354366 -43.020416
33.395092 43.568777 -42.242602
31.901551 39.987858 -43.403418
32.680027 41.805441 -42.858542
33.310467 82.66647 -8.139127
33.395603 82.932541 -9.898309
33.011558 84.283085 -8.957726
33.213169 82.301514 -6.305327
33.310467 82.66647 -8.139127
17.330156 105.933559 -28.163781
16.08922 105.834323 -28.548609
16.37113 106.383132 -26.960477
19.782536 104.015255 -31.527449
19.053159 104.729725 -30.455392
20.11526 104.638626 -29.993478
20.629475 103.190422 -32.519576
19.782536 104.015255 -31.527449
23.007815 99.959721 -35.521338
22.237885 101.124863 -34.58151
23.276365 100.856136 -33.980312
23.751888 98.804978 -36.304325
23.007815 99.959721 -35.521338
25.826463 94.639152 -38.522465
25.152575 96.109344 -37.869074
26.096618 95.547447 -37.275217
26.464696 93.05635 -39.217777
25.826463 94.639152 -38.522465
27.322335 92.510086 -38.550457
27.016524 91.489182 -39.839626
26.464696 93.05635 -39.217777
26.841169 99.68909 1.89341
27.403475 99.188408 0.713775
26.831236 100.329823 -0.086689
18.352005 102.968777 5.447501
18.230577 103.751137 3.668241
17.420125 103.266728 4.637109
14.837639 107.293201 -22.902878
14.498926 106.957206 -24.494259
21.346127 45.292854 -50.443842
22.332375 47.229654 -50.246565
22.131555 44.701021 -50.141178
20.415031 43.433111 -50.607023
20.615851 45.961744 -50.71241
21.346127 45.292854 -50.443842
20.188883 41.005093 -50.503414
19.458607 41.673983 -50.771982
20.415031 43.433111 -50.607023
30.108604 45.046558 -45.732687
30.885734 46.818863 -45.244724
28.302779 41.389128 -46.639602
28.169331 38.971576 -46.372476
36.26325 71.851619 -21.976585
36.2129 72.167 -20.474459
32.342492 84.644036 -2.800065
32.236596 84.166351 -0.979697
25.621066 74.293114 -48.165903
25.172494 76.219479 -48.015427
26.6238 67.687134 -48.524403
26.378999 70.004093 -48.405271
27.215867 69.28268 -48.004549
26.826926 65.271021 -48.592516
26.6238 67.687134 -48.524403
27.657125 64.666588 -48.138351
27.023383 62.971888 -48.607187
26.826926 65.271021 -48.592516
30.049163 62.582695 -46.376085
29.308214 63.388062 -46.994333
29.869677 65.07235 -46.375099
30.742216 61.747806 -45.769598
30.049163 62.582695 -46.376085
37.054833 50.66894 -36.156176
36.748518 49.439804 -37.042648
36.631369 51.667829 -37.050714
14.434981 40.69667 -52.006449
15.316153 42.31606 -51.833063
15.210947 40.07444 -51.835083
26.369741 84.513149 -44.667969
25.76431 86.38675 -44.275993
27.328214 83.900582 -44.106573
26.956008 82.578373 -44.980947
26.369741 84.513149 -44.667969
33.997608 45.124647 -41.656597
34.048502 47.693452 -41.74135
34.543604 46.700397 -40.993471
33.395092 43.568777 -42.242602
33.997608 45.124647 -41.656597
25.095325 102.001469 1.466698
24.400711 102.875462 0.561867
24.404273 102.235153 2.530852
25.683908 101.095833 2.264315
25.680346 101.736141 0.295329
25.095325 102.001469 1.466698
26.306098 100.052174 3.145037
25.683908 101.095833 2.264315
12.235252 107.05909 -12.894812
11.449113 106.641518 -11.561102
12.628792 106.950989 -11.252761
12.235252 107.05909 -12.894812
13.128478 107.423038 -14.317362
15.588544 107.75594 -19.846428
15.147219 107.559196 -21.393897
16.680732 107.838413 -19.352137
15.588544 107.75594 -19.846428
15.879868 107.900742 -18.029732
23.899443 45.949728 -49.560329
24.016851 48.314982 -49.693214
24.79849 47.626888 -49.309643
21.734797 39.748638 -49.841566
20.938837 40.382698 -50.191315
21.941266 42.130161 -49.988707
21.734797 39.748638 -49.841566
22.467301 39.017292 -49.466852
29.769445 40.063547 -45.350876
29.945866 42.636974 -45.553564
30.638575 41.818159 -44.870119
28.828609 38.135622 -45.770861
29.769445 40.063547 -45.350876
28.169331 38.971576 -46.372476
28.828609 38.135622 -45.770861
35.801311 74.126328 -20.009533
35.494995 75.62347 -20.929545
35.385791 76.092174 -19.405409
36.2129 72.167 -20.474459
35.801311 74.126328 -20.009533
29.327068 97.111805 -7.457012
28.863616 98.379352 -8.321775
28.847338 98.022834 -6.329828
29.719476 95.835529 -6.509457
29.735754 96.192047 -8.501404
29.327068 97.111805 -7.457012
30.632627 90.605877 0.191419
30.331125 92.111172 -0.783511
30.232843 91.679352 1.134689
31.906226 85.310269 -0.195307
31.637177 86.955056 -1.023485
31.562612 86.385601 0.734033
32.236596 84.166351 -0.979697
31.906226 85.310269 -0.195307
37.028084 56.304739 -34.992527
36.799864 58.645843 -34.883679
37.185949 57.505418 -33.947449
37.175926 54.030639 -35.11027
36.78984 55.171064 -36.046499
37.028084 56.304739 -34.992527
37.311394 51.804123 -35.284607
37.175926 54.030639 -35.11027
16.310201 48.573586 -51.695257
17.268522 48.16008 -51.554678
15.509291 46.762148 -51.816814
16.310201 48.573586 -51.695257
35.516298 44.800962 -39.365778
35.990515 46.40019 -38.641537
23.115502 102.295685 4.704879
23.782613 102.358509 3.528137
23.042549 103.046322 2.802764
11.283468 105.721988 -7.190651
11.591801 105.415058 -5.604064
12.159135 106.298123 -8.322732
11.283468 105.721988 -7.190651
12.976706 106.788113 -9.557114
12.159135 106.298123 -8.322732
13.293187 106.552819 -7.960795
13.762844 107.205685 -10.890824
12.628792 106.950989 -11.252761
12.976706 106.788113 -9.557114
26.588444 51.305874 -48.680968
27.337508 50.638859 -48.202916
25.724094 49.346094 -48.996825
26.588444 51.305874 -48.680968
25.606686 46.980841 -48.86394
24.79849 47.626888 -49.309643
25.724094 49.346094 -48.996825
37.607933 60.042518 -30.382948
37.491773 59.226312 -31.638492
37.674734 60.857141 -29.125703
37.607933 60.042518 -30.382948
37.319532 62.275713 -30.13902
37.700428 61.733139 -27.894317
37.674734 60.857141 -29.125703
37.376762 63.985167 -27.508017
37.065437 65.264311 -28.539521
37.055866 66.159142 -27.165762
37.700428 61.733139 -27.894317
37.376762 63.985167 -27.508017
35.203547 76.506996 -16.123985
34.775932 78.344887 -15.54943
28.796614 97.207935 -2.444396
28.361156 97.940933 -1.367866
30.203463 91.000835 3.027706
30.232843 91.679352 1.134689
30.501985 89.43729 3.888189
30.203463 91.000835 3.027706
30.171105 90.264069 4.806276
30.84396 88.494446 2.833
30.501985 89.43729 3.888189
25.628333 77.883308 -47.397465
25.172494 76.219479 -48.015427
26.075083 79.546447 -46.672438
25.572128 81.541385 -46.354025
26.500492 81.196003 -45.860756
26.556697 77.537926 -46.904196
25.628333 77.883308 -47.397465
26.075083 79.546447 -46.672438
37.491773 59.226312 -31.638492
37.344273 58.419029 -32.85966
37.10523 60.653807 -32.617432
16.894721 41.214037 -51.441011
17.02996 43.443691 -51.505815
17.832562 42.963899 -51.285129
15.970747 39.562764 -51.60655
16.894721 41.214037 -51.441011
15.210947 40.07444 -51.835083
15.970747 39.562764 -51.60655
16.540226 103.464634 3.87451
16.323138 104.158188 2.154729
15.564667 103.573734 3.17139
17.420125 103.266728 4.637109
16.540226 103.464634 3.87451
12.113757 104.567616 -2.213706
11.796197 105.000347 -3.881579
12.352362 104.057068 -0.518159
11.527553 103.327908 0.454319
12.536808 103.48315 1.082128
13.123012 104.722859 -1.585897
12.113757 104.567616 -2.213706
12.352362 104.057068 -0.518159
31.566765 46.017337 -44.49662
30.885734 46.818863 -45.244724
32.91052 46.880396 -43.162455
32.911146 49.436346 -43.308703
33.503131 48.673653 -42.550724
32.195455 45.11706 -43.778395
32.91052 46.880396 -43.162455
32.787441 44.354366 -43.020416
31.443686 43.491308 -44.354581
31.566765 46.017337 -44.49662
32.195455 45.11706 -43.778395
31.267265 40.917881 -44.151893
30.638575 41.818159 -44.870119
31.443686 43.491308 -44.354581
31.267265 40.917881 -44.151893
31.901551 39.987858 -43.403418
35.018896 45.640871 -40.191979
35.516298 44.800962 -39.365778
34.384703 79.998074 -14.92589
34.775932 78.344887 -15.54943
34.500715 79.803051 -16.526836
34.263255 80.109771 -13.168666
34.384703 79.998074 -14.92589
33.988037 81.567936 -14.146072
34.16699 80.015419 -11.486981
34.263255 80.109771 -13.168666
33.78055 81.49778 -10.734279
33.481642 83.114395 -11.552878
33.395603 82.932541 -9.898309
34.16699 80.015419 -11.486981
33.78055 81.49778 -10.734279
18.217064 105.368923 -29.336667
17.330156 105.933559 -28.163781
18.498974 105.917732 -27.748535
18.217064 105.368923 -29.336667
19.053159 104.729725 -30.455392
21.460375 102.238983 -33.507052
20.629475 103.190422 -32.519576
21.675536 102.972717 -32.05301
21.460375 102.238983 -33.507052
22.237885 101.124863 -34.58151
24.440106 97.4683 -37.155169
23.751888 98.804978 -36.304325
24.734513 98.354317 -35.770983
24.440106 97.4683 -37.155169
25.152575 96.109344 -37.869074
26.772869 90.266643 -41.07045
26.509483 88.955681 -42.222938
27.630508 89.720379 -40.403129
26.772869 90.266643 -41.07045
27.016524 91.489182 -39.839626
27.859893 98.64748 -0.364775
28.361156 97.940933 -1.367866
27.894806 99.122593 -2.269416
27.859893 98.64748 -0.364775
27.403475 99.188408 0.713775
26.841169 99.68909 1.89341
26.306098 100.052174 3.145037
19.268373 102.618213 6.272589
18.352005 102.968777 5.447501
20.046087 103.039879 5.202483
19.268373 102.618213 6.272589
20.844566 103.420345 3.993159
19.960936 103.833652 3.26931
20.046087 103.039879 5.202483
21.652577 102.805035 4.952919
21.567426 103.598808 3.019745
20.844566 103.420345 3.993159
22.472119 102.159676 5.827814
21.652577 102.805035 4.952919
23.115502 102.295685 4.704879
22.472119 102.159676 5.827814
15.450222 106.722759 -25.766051
14.498926 106.957206 -24.494259
16.691157 106.821994 -25.381222
16.37113 106.383132 -26.960477
15.450222 106.722759 -25.766051
16.079828 107.427616 -22.677815
14.837639 107.293201 -22.902878
15.147219 107.559196 -21.393897
18.898017 46.95458 -51.200804
18.064653 47.580763 -51.385024
18.99487 49.34179 -51.235894
23.206915 49.09647 -50.056862
24.105961 50.77363 -49.806176
24.016851 48.314982 -49.693214
22.421487 49.688303 -50.359526
23.206915 49.09647 -50.056862
22.332375 47.229654 -50.246565
19.756494 46.408804 -50.963633
20.68759 48.268547 -50.800451
20.615851 45.961744 -50.71241
18.826277 44.647778 -51.112763
18.898017 46.95458 -51.200804
19.756494 46.408804 -50.963633
18.691039 42.418123 -51.047958
17.832562 42.963899 -51.285129
18.826277 44.647778 -51.112763
18.691039 42.418123 -51.047958
19.458607 41.673983 -50.771982
20.188883 41.005093 -50.503414
20.938837 40.382698 -50.191315
29.239475 43.291946 -46.213444
30.108604 45.046558 -45.732687
29.945866 42.636974 -45.553564
29.239475 43.291946 -46.213444
28.302779 41.389128 -46.639602
26.862552 42.852142 -47.754909
27.109913 45.584303 -47.900904
25.977191 41.152327 -48.048913
26.862552 42.852142 -47.754909
25.050995 39.303539 -48.305584
25.270085 41.959604 -48.521607
25.977191 41.152327 -48.048913
23.995545 37.565922 -48.599243
25.050995 39.303539 -48.305584
23.270634 38.32465 -49.036512
23.995545 37.565922 -48.599243
36.280636 71.563419 -23.542255
35.9279 73.369423 -23.099339
36.26325 71.851619 -21.976585
36.651523 69.527862 -23.883525
36.316174 71.045666 -25.00628
36.280636 71.563419 -23.542255
37.011555 67.508461 -24.326636
36.651523 69.527862 -23.883525
35.292026 76.372448 -17.817887
35.203547 76.506996 -16.123985
28.85343 97.585667 -4.368785
28.796614 97.207935 -2.444396
30.101473 94.451927 -5.545411
29.719476 95.835529 -6.509457
30.402847 92.51289 -2.631876
30.331125 92.111172 -0.783511
30.437746 93.054767 -4.532589
30.402847 92.51289 -2.631876
30.765808 91.579575 -3.627493
30.464434 93.518612 -6.541028
30.101473 94.451927 -5.545411
30.437746 93.054767 -4.532589
32.413086 85.155514 -4.646962
32.051385 86.391201 -3.799722
32.342492 84.644036 -2.800065
32.815308 83.712681 -5.422924
32.524201 85.459846 -6.422581
32.413086 85.155514 -4.646962
33.213169 82.301514 -6.305327
32.815308 83.712681 -5.422924
26.051626 72.155541 -48.294
25.621066 74.293114 -48.165903
26.540506 73.737213 -47.757321
26.051626 72.155541 -48.294
26.378999 70.004093 -48.405271
27.16057 60.579245 -48.585402
27.023383 62.971888 -48.607187
27.981883 60.052926 -48.098593
27.288871 58.264716 -48.530971
27.16057 60.579245 -48.585402
28.670641 61.632931 -47.574171
28.491155 64.122585 -47.573185
29.308214 63.388062 -46.994333
27.981883 60.052926 -48.098593
28.670641 61.632931 -47.574171
27.0644 87.166599 -42.713774
26.18703 87.624439 -43.302759
26.509483 88.955681 -42.222938
31.387307 60.958021 -45.104298
30.742216 61.747806 -45.769598
31.255717 63.477198 -45.09155
31.501503 58.512563 -45.113554
31.387307 60.958021 -45.104298
32.015004 60.241955 -44.435507
31.562078 56.08542 -45.049458
31.501503 58.512563 -45.113554
32.222544 55.219988 -44.327833
31.562078 56.08542 -45.049458
32.83403 54.466484 -43.550615
32.222544 55.219988 -44.327833
32.740686 57.042994 -43.667545
33.427965 53.759546 -42.79365
32.909822 51.93654 -43.453938
32.83403 54.466484 -43.550615
36.3805 48.044462 -37.872511
35.990515 46.40019 -38.641537
35.935068 48.794422 -38.706213
36.3805 48.044462 -37.872511
36.748518 49.439804 -37.042648
37.054833 50.66894 -36.156176
37.311394 51.804123 -35.284607
14.591616 45.055199 -51.974407
15.509291 46.762148 -51.816814
15.457862 44.645239 -51.846836
13.704587 41.360888 -52.188698
14.434981 40.69667 -52.006449
13.737456 43.370627 -52.134539
13.704587 41.360888 -52.188698
13.788885 45.487535 -52.104517
14.591616 45.055199 -51.974407
13.737456 43.370627 -52.134539
3 0 70 68
3 0 73 71
3 0 68 73
3 1 77 75
3 1 80 78
3 1 75 80
3 2 84 82
3 261 85 262
3 2 88 86
3 2 82 88
3 3 263 265
3 265 264 90
3 263 264 265
3 4 94 92
3 6 97 95
3 6 99 97
3 7 102 100
3 8 105 103
3 8 107 105
3 8 109 107
3 4 112 110
3 4 92 112
3 10 116 114
3 267 266 117
3 12 268 270
3 270 269 119
3 268 269 270
3 12 271 272
3 12 273 275
3 273 121 274
3 273 274 275
3 10 124 122
3 10 114 124
3 14 128 126
3 14 276 278
3 278 277 128
3 276 277 278
3 5 279 281
3 281 280 130
3 279 280 281
3 11 282 284
3 284 283 132
3 282 283 284
3 285 136 286
3 287 286 134
3 285 286 287
3 289 288 136
3 15 140 138
3 15 142 140
3 9 145 143
3 16 148 146
3 16 150 148
3 16 152 150
3 291 290 153
3 13 292 294
3 292 155 293
3 292 293 294
3 17 158 156
3 19 159 69
3 19 160 159
3 20 163 161
3 22 164 72
3 22 165 164
3 22 167 165
3 17 168 74
3 17 156 168
3 24 171 169
3 26 172 76
3 26 173 172
3 27 295 297
3 295 174 296
3 295 296 297
3 28 175 79
3 28 176 175
3 28 178 176
3 24 179 81
3 24 169 179
3 298 180 299
3 300 181 301
3 302 301 180
3 300 301 302
3 30 183 182
3 31 303 305
3 305 304 83
3 303 304 305
3 31 306 307
3 33 308 310
3 308 184 309
3 308 309 310
3 33 185 184
3 34 188 186
3 36 189 87
3 36 190 189
3 36 192 190
3 30 193 89
3 30 182 193
3 312 311 195
3 313 197 314
3 315 195 316
3 317 316 197
3 315 316 317
3 38 318 319
3 320 198 321
3 322 321 91
3 320 321 322
3 324 323 198
3 40 201 199
3 42 202 93
3 42 203 202
3 18 204 157
3 43 205 96
3 43 206 205
3 43 207 206
3 44 325 327
3 327 326 98
3 325 326 327
3 44 328 329
3 45 330 332
3 330 331 332
3 46 333 335
3 335 334 101
3 333 334 335
3 46 336 337
3 21 208 162
3 47 209 104
3 47 338 340
3 340 339 209
3 338 339 340
3 47 341 342
3 48 343 345
3 345 344 106
3 343 344 345
3 48 346 347
3 48 348 350
3 348 211 349
3 348 349 350
3 50 212 108
3 50 213 212
3 23 214 166
3 51 215 111
3 51 216 215
3 51 217 216
3 40 218 113
3 40 199 218
3 52 221 219
3 54 222 115
3 54 223 222
3 25 224 170
3 55 225 118
3 55 226 225
3 55 351 353
3 353 352 226
3 351 352 353
3 354 227 355
3 356 355 196
3 354 355 356
3 357 228 358
3 56 229 120
3 56 230 229
3 29 231 177
3 57 232 123
3 57 233 232
3 57 234 233
3 52 235 125
3 52 219 235
3 58 359 361
3 361 360 127
3 359 360 361
3 58 362 364
3 362 236 363
3 362 363 364
3 58 365 367
3 367 366 236
3 365 366 367
3 39 368 369
3 371 370 129
3 41 237 200
3 373 372 131
3 53 238 220
3 59 239 133
3 59 240 239
3 60 241 135
3 60 242 241
3 60 243 242
3 375 374 137
3 32 376 377
3 61 378 380
3 380 379 139
3 378 379 380
3 61 381 382
3 61 383 385
3 383 244 384
3 383 384 385
3 62 386 388
3 388 387 141
3 386 387 388
3 62 389 390
3 49 245 210
3 63 246 144
3 63 247 246
3 35 248 187
3 64 249 147
3 64 250 249
3 64 251 250
3 65 252 149
3 65 253 252
3 65 254 253
3 66 255 151
3 66 256 255
3 37 257 191
3 67 258 154
3 67 259 258
3 67 391 393
3 393 392 259
3 391 392 393
3 394 260 395
3 396 395 194
3 394 395 396
3 68 69 17
3 70 69 68
3 70 19 69
3 71 72 20
3 73 72 71
3 73 22 72
3 73 74 22
3 68 74 73
3 68 17 74
3 75 76 24
3 77 76 75
3 77 26 76
3 78 79 27
3 80 79 78
3 80 28 79
3 80 81 28
3 75 81 80
3 75 24 81
3 82 83 30
3 84 83 82
3 84 31 83
3 85 397 398
3 85 399 401
3 399 33 400
3 399 400 401
3 86 87 34
3 88 87 86
3 88 36 87
3 88 89 36
3 82 89 88
3 82 30 89
3 90 91 38
3 402 91 403
3 404 403 90
3 402 403 404
3 406 405 91
3 92 93 40
3 94 93 92
3 94 42 93
3 95 96 18
3 97 96 95
3 97 43 96
3 97 98 43
3 99 98 97
3 99 44 98
3 100 101 45
3 102 101 100
3 102 46 101
3 103 104 21
3 105 104 103
3 105 47 104
3 105 106 47
3 107 106 105
3 107 48 106
3 107 108 48
3 109 108 107
3 109 50 108
3 110 111 23
3 112 111 110
3 112 51 111
3 112 113 51
3 92 113 112
3 92 40 113
3 114 115 52
3 116 115 114
3 116 54 115
3 117 118 25
3 407 118 408
3 409 408 117
3 407 408 409
3 410 55 411
3 412 411 118
3 410 411 412
3 414 413 55
3 119 415 417
3 415 416 417
3 419 418 119
3 420 120 421
3 121 422 424
3 422 120 423
3 422 423 424
3 121 56 120
3 122 123 29
3 124 123 122
3 124 57 123
3 124 125 57
3 114 125 124
3 114 52 125
3 126 425 427
3 425 127 426
3 425 426 427
3 128 127 126
3 128 58 127
3 128 428 430
3 430 429 58
3 428 429 430
3 432 431 128
3 433 129 434
3 435 434 39
3 433 434 435
3 436 129 437
3 439 438 129
3 130 131 41
3 440 131 441
3 442 441 130
3 440 441 442
3 444 443 131
3 132 133 53
3 445 133 446
3 447 446 132
3 445 446 447
3 448 59 449
3 450 449 133
3 448 449 450
3 134 451 453
3 451 135 452
3 451 452 453
3 136 135 134
3 136 60 135
3 136 137 60
3 454 137 455
3 456 455 136
3 454 455 456
3 458 457 137
3 138 139 32
3 140 139 138
3 140 61 139
3 140 141 61
3 142 141 140
3 142 62 141
3 143 144 49
3 145 144 143
3 145 63 144
3 146 147 35
3 148 147 146
3 148 64 147
3 148 149 64
3 150 149 148
3 150 65 149
3 150 151 65
3 152 151 150
3 152 66 151
3 153 154 37
3 459 154 460
3 461 460 153
3 459 460 461
3 462 67 463
3 464 463 154
3 462 463 464
3 466 465 67
3 155 467 468
3 155 469 470
3 472 471 3
3 156 157 4
3 158 157 156
3 158 18 157
3 69 158 17
3 159 158 69
3 159 18 158
3 159 95 18
3 160 95 159
3 160 6 95
3 161 162 7
3 163 162 161
3 163 21 162
3 72 163 20
3 164 163 72
3 164 21 163
3 164 103 21
3 165 103 164
3 165 8 103
3 165 166 8
3 167 166 165
3 167 23 166
3 74 167 22
3 168 167 74
3 168 23 167
3 168 110 23
3 156 110 168
3 156 4 110
3 169 170 10
3 171 170 169
3 171 25 170
3 76 171 24
3 172 171 76
3 172 25 171
3 172 117 25
3 173 117 172
3 173 473 475
3 475 474 117
3 473 474 475
3 174 476 477
3 174 478 479
3 79 174 27
3 175 174 79
3 175 480 482
3 482 481 174
3 480 481 482
3 175 483 485
3 483 119 484
3 483 484 485
3 176 119 175
3 176 12 119
3 176 177 12
3 178 177 176
3 178 29 177
3 81 178 28
3 179 178 81
3 179 29 178
3 179 122 29
3 169 122 179
3 169 10 122
3 180 486 487
3 180 488 489
3 180 490 492
3 490 126 491
3 490 491 492
3 181 126 180
3 181 14 126
3 182 493 494
3 183 495 497
3 497 496 182
3 495 496 497
3 183 498 499
3 83 183 30
3 500 183 501
3 502 501 83
3 500 501 502
3 504 503 183
3 506 505 5
3 508 507 11
3 509 134 510
3 511 134 512
3 511 512 513
3 515 514 134
3 516 32 517
3 184 518 520
3 518 519 520
3 184 521 523
3 521 32 522
3 521 522 523
3 184 138 32
3 185 138 184
3 185 15 138
3 186 187 9
3 188 187 186
3 188 35 187
3 87 188 34
3 189 188 87
3 189 35 188
3 189 146 35
3 190 146 189
3 190 16 146
3 190 191 16
3 192 191 190
3 192 37 191
3 89 192 36
3 193 192 89
3 193 37 192
3 193 153 37
3 182 153 193
3 182 524 526
3 526 525 153
3 524 525 526
3 527 194 528
3 529 528 13
3 527 528 529
3 530 194 531
3 533 532 194
3 195 196 1
3 534 196 535
3 536 535 195
3 534 535 536
3 538 537 196
3 539 27 540
3 197 541 543
3 541 542 543
3 197 544 546
3 544 27 545
3 544 545 546
3 197 78 27
3 195 78 197
3 195 1 78
3 547 39 548
3 91 549 551
3 551 550 38
3 549 550 551
3 198 552 554
3 554 553 91
3 552 553 554
3 198 555 557
3 555 39 556
3 555 556 557
3 198 558 560
3 560 559 39
3 558 559 560
3 562 561 198
3 564 563 3
3 199 200 2
3 201 200 199
3 201 41 200
3 93 201 40
3 202 201 93
3 202 41 201
3 202 130 41
3 203 130 202
3 203 5 130
3 157 94 4
3 204 94 157
3 204 42 94
3 96 204 18
3 205 204 96
3 205 42 204
3 205 203 42
3 206 203 205
3 206 5 203
3 206 565 567
3 567 566 5
3 565 566 567
3 207 568 570
3 570 569 206
3 568 569 570
3 207 571 572
3 98 207 43
3 573 207 574
3 575 574 98
3 573 574 575
3 577 576 207
3 101 578 580
3 580 579 45
3 578 579 580
3 582 581 101
3 162 102 7
3 208 102 162
3 208 46 102
3 104 208 21
3 209 208 104
3 209 46 208
3 209 583 585
3 585 584 46
3 583 584 585
3 587 586 209
3 106 588 590
3 590 589 47
3 588 589 590
3 592 591 106
3 593 210 594
3 211 595 597
3 595 210 596
3 595 596 597
3 211 49 210
3 108 211 48
3 212 211 108
3 212 49 211
3 212 143 49
3 213 143 212
3 213 9 143
3 166 109 8
3 214 109 166
3 214 50 109
3 111 214 23
3 215 214 111
3 215 50 214
3 215 213 50
3 216 213 215
3 216 9 213
3 216 186 9
3 217 186 216
3 217 34 186
3 113 217 51
3 218 217 113
3 218 34 217
3 218 86 34
3 199 86 218
3 199 2 86
3 219 220 0
3 221 220 219
3 221 53 220
3 115 221 52
3 222 221 115
3 222 53 221
3 222 132 53
3 223 132 222
3 223 11 132
3 170 116 10
3 224 116 170
3 224 54 116
3 118 224 25
3 225 224 118
3 225 54 224
3 225 223 54
3 226 223 225
3 226 11 223
3 226 598 600
3 600 599 11
3 598 599 600
3 602 601 226
3 604 603 55
3 196 77 1
3 227 77 196
3 227 26 77
3 605 227 606
3 607 227 608
3 609 26 610
3 611 610 227
3 609 610 611
3 612 173 613
3 614 613 26
3 612 613 614
3 615 173 616
3 618 617 173
3 228 619 620
3 228 621 623
3 621 45 622
3 621 622 623
3 120 624 626
3 624 228 625
3 624 625 626
3 229 228 120
3 229 45 228
3 229 100 45
3 230 100 229
3 230 7 100
3 177 121 12
3 231 121 177
3 231 56 121
3 123 231 29
3 232 231 123
3 232 56 231
3 232 230 56
3 233 230 232
3 233 7 230
3 233 161 7
3 234 161 233
3 234 20 161
3 125 234 57
3 235 234 125
3 235 20 234
3 235 71 20
3 219 71 235
3 219 0 71
3 627 13 628
3 627 628 629
3 127 630 632
3 630 631 632
3 635 634 127
3 633 634 635
3 236 636 638
3 636 637 638
3 236 639 641
3 639 13 640
3 639 640 641
3 236 642 644
3 644 643 13
3 642 643 644
3 646 645 236
3 648 647 58
3 129 649 651
3 651 650 39
3 649 650 651
3 653 652 129
3 654 181 655
3 656 181 657
3 658 14 659
3 660 659 181
3 658 659 660
3 661 14 662
3 664 663 14
3 200 84 2
3 237 84 200
3 237 31 84
3 131 237 41
3 665 237 666
3 667 666 131
3 665 666 667
3 668 31 669
3 670 669 237
3 668 669 670
3 672 671 31
3 674 673 5
3 220 70 0
3 238 70 220
3 238 19 70
3 133 238 53
3 239 238 133
3 239 19 238
3 239 160 19
3 240 160 239
3 240 6 160
3 676 675 11
3 677 59 678
3 135 679 680
3 241 681 683
3 683 682 135
3 681 682 683
3 241 684 686
3 684 59 685
3 684 685 686
3 241 240 59
3 242 240 241
3 242 6 240
3 242 99 6
3 243 99 242
3 243 44 99
3 137 243 60
3 687 243 688
3 689 688 137
3 687 688 689
3 690 44 691
3 692 691 243
3 690 691 692
3 694 693 44
3 139 695 697
3 697 696 32
3 695 696 697
3 699 698 139
3 244 700 701
3 244 702 704
3 702 703 704
3 141 244 61
3 705 244 706
3 707 706 141
3 705 706 707
3 709 708 244
3 210 710 712
3 710 85 711
3 710 711 712
3 245 85 210
3 245 33 85
3 144 245 49
3 246 245 144
3 246 33 245
3 246 185 33
3 247 185 246
3 247 15 185
3 187 145 9
3 248 145 187
3 248 63 145
3 147 248 35
3 249 248 147
3 249 63 248
3 249 247 63
3 250 247 249
3 250 15 247
3 250 142 15
3 251 142 250
3 251 62 142
3 149 251 64
3 252 251 149
3 252 62 251
3 252 713 715
3 715 714 62
3 713 714 715
3 253 716 718
3 718 717 252
3 716 717 718
3 253 719 720
3 253 721 722
3 254 723 725
3 725 724 253
3 723 724 725
3 254 726 728
3 726 38 727
3 726 727 728
3 151 254 65
3 255 254 151
3 255 38 254
3 255 90 38
3 256 90 255
3 256 3 90
3 191 152 16
3 257 152 191
3 257 66 152
3 154 257 37
3 258 257 154
3 258 66 257
3 258 256 66
3 259 256 258
3 259 3 256
3 259 729 731
3 731 730 3
3 729 730 731
3 733 732 259
3 735 734 67
3 194 155 13
3 260 155 194
3 260 736 738
3 738 737 155
3 736 737 738
3 739 260 740
3 741 260 742
3 745 744 260
3 743 744 745
