ply
format ascii 1.0
element vertex 227
property float x
property float y
property float z
element face 198
property list uchar int vertex_index
end_header
30.528389 28.022379 18.640472
27.864557 32.384258 19.404081
27.546375 29.142345 23.115299
29.964918 36.789482 -2.400556
31.180286 35.166187 0.414581
32.12756 33.379108 3.48278
32.858303 31.357233 6.942034
33.302227 29.14222 10.467776
30.642467 31.12365 14.780383
26.395304 31.212152 23.451984
30.676645 33.95483 -2.428037
29.832157 34.892223 -3.563532
30.185646 37.955517 0.484799
30.603271 36.957443 2.013422
31.69459 34.265141 1.931859
30.967407 35.927238 3.689492
31.580847 33.809319 6.913429
31.795898 32.664734 8.79279
33.162876 30.221233 8.640646
31.990807 31.370298 10.710517
29.213427 30.204437 18.953478
29.215391 31.831379 17.1441
30.586222 29.701946 16.678055
31.922529 28.927633 14.648003
31.956768 27.378263 16.48867
26.528027 32.945034 21.580694
27.757915 30.790161 21.229279
29.060081 28.648096 20.795425
29.739634 38.807507 -1.024694
30.599052 35.994801 -1.063262
31.432573 33.247475 -1.129291
32.100056 32.542568 0.270615
32.751022 31.640266 1.77333
33.354568 30.668737 3.371721
31.368156 34.749283 5.191111
32.576122 32.296741 5.109304
33.71627 29.985693 5.169672
34.119175 28.970583 6.831814
34.443295 27.863047 8.61166
34.503075 26.915628 10.575847
29.378687 33.2309 15.039097
30.668861 32.489822 12.786793
32.018734 30.1747 12.628874
33.279926 28.001469 12.523939
27.363726 27.242218 24.951536
30.586818 32.808522 -2.952667
31.075935 32.494543 -2.350842
30.237344 37.688757 2.90034
30.069307 38.304855 2.120642
30.419412 37.173654 3.738376
30.785339 36.442341 2.851457
30.237344 37.688757 2.90034
31.176894 33.245558 9.868121
31.114009 33.849176 8.962947
31.274349 32.59834 10.826985
31.893352 32.017516 9.751653
31.176894 33.245558 9.868121
25.861556 33.17313 22.70617
25.901766 34.092346 21.747205
25.235295 34.320442 22.872681
29.57804 37.251955 -3.047168
29.567395 38.304873 -2.425173
29.170825 33.964479 -4.649416
29.365987 35.177915 -4.154026
29.636995 33.678787 -4.058922
29.465762 39.82317 -0.177965
29.331739 40.20121 -0.965639
30.812866 35.505572 6.222468
30.711174 36.095633 5.313801
27.913983 33.2393 18.336863
27.251136 33.499594 19.515776
33.237302 27.39088 13.510387
32.601228 28.464551 13.585971
32.558604 27.853962 14.572419
33.924476 26.82905 12.557821
33.237302 27.39088 13.510387
27.185859 26.267555 25.919429
26.611991 27.318067 26.153635
26.434124 26.343404 27.121527
25.693024 31.37531 24.633993
25.795195 32.306689 23.641815
26.267929 30.257514 24.474266
25.693024 31.37531 24.633993
26.843465 29.222611 24.305923
26.97084 30.177248 23.283642
26.267929 30.257514 24.474266
30.164575 33.277219 -3.520415
30.254401 34.423527 -2.995785
30.586818 32.808522 -2.952667
29.636995 33.678787 -4.058922
30.164575 33.277219 -3.520415
29.860495 38.803892 1.35633
29.688768 39.397175 0.576781
30.394458 37.45648 1.249111
29.860495 38.803892 1.35633
30.069307 38.304855 2.120642
31.006483 34.421469 8.023267
30.919211 35.03559 7.083626
31.688372 33.237026 7.85311
31.006483 34.421469 8.023267
31.114009 33.849176 8.962947
32.575724 27.079277 15.492752
32.558604 27.853962 14.572419
31.939649 28.152948 15.568336
26.58287 33.779981 20.604082
25.901766 34.092346 21.747205
27.196292 32.664646 20.492387
27.251136 33.499594 19.515776
26.58287 33.779981 20.604082
26.461666 32.078593 22.516339
25.861556 33.17313 22.70617
25.795195 32.306689 23.641815
29.51166 36.303325 -3.628655
29.57804 37.251955 -3.047168
29.898537 35.840852 -2.982044
29.51166 36.303325 -3.628655
29.365987 35.177915 -4.154026
29.454753 39.313885 -1.737242
29.046858 40.707588 -1.678187
29.331739 40.20121 -0.965639
29.852276 37.798495 -1.712625
29.567395 38.304873 -2.425173
29.454753 39.313885 -1.737242
29.96264 38.381512 -0.269948
29.465762 39.82317 -0.177965
29.688768 39.397175 0.576781
31.453899 32.140866 -1.701469
31.075935 32.494543 -2.350842
31.054609 33.601152 -1.778664
31.898158 31.796491 -1.054688
31.453899 32.140866 -1.701469
32.231899 31.444038 -0.354735
31.898158 31.796491 -1.054688
31.766315 32.895021 -0.429338
32.635249 31.062944 0.320917
32.231899 31.444038 -0.354735
32.960731 30.611792 1.072275
32.635249 31.062944 0.320917
32.425539 32.091417 1.021972
33.293575 30.281402 1.774288
33.503284 29.252928 1.073233
32.960731 30.611792 1.072275
33.595348 29.795637 2.573484
33.293575 30.281402 1.774288
33.052795 31.154502 2.572526
33.911338 29.417549 3.399897
33.595348 29.795637 2.573484
30.5108 36.68461 4.562991
30.419412 37.173654 3.738376
31.167782 35.338261 4.440302
30.5108 36.68461 4.562991
30.711174 36.095633 5.313801
31.474501 34.279301 6.05227
30.812866 35.505572 6.222468
30.919211 35.03559 7.083626
34.09219 29.076027 4.298873
33.911338 29.417549 3.399897
33.535419 30.327215 4.270696
34.344984 28.67471 5.097316
34.09219 29.076027 4.298873
34.546436 28.167155 5.928387
34.344984 28.67471 5.097316
33.917722 29.478138 6.000743
34.71146 27.799045 6.86583
34.546436 28.167155 5.928387
34.87352 27.245278 7.755752
34.71146 27.799045 6.86583
34.281235 28.416815 7.721737
35.02067 26.732107 8.721294
34.87352 27.245278 7.755752
35.05056 26.258397 9.703387
35.02067 26.732107 8.721294
34.473185 27.389338 9.593754
35.109099 25.772078 10.632553
35.05056 26.258397 9.703387
28.589399 32.96286 17.206873
27.913983 33.2393 18.336863
28.539974 32.107819 18.27409
28.671048 33.662621 16.154371
28.589399 32.96286 17.206873
29.297039 32.531139 16.091598
28.701438 34.39304 15.171153
28.671048 33.662621 16.154371
29.30168 34.032781 14.122008
28.701438 34.39304 15.171153
29.946767 33.662242 12.995856
29.30168 34.032781 14.122008
30.023774 32.860361 13.912945
30.613376 33.158102 11.865123
29.946767 33.662242 12.995856
31.329834 31.93006 11.748655
31.274349 32.59834 10.826985
30.613376 33.158102 11.865123
34.536051 26.28613 11.583775
33.891501 27.458548 11.549893
33.924476 26.82905 12.557821
35.109099 25.772078 10.632553
34.536051 26.28613 11.583775
26.75214 28.272548 25.224042
26.611991 27.318067 26.153635
27.45505 28.192281 24.033417
26.843465 29.222611 24.305923
26.75214 28.272548 25.224042
27.898511 26.160255 24.867189
27.185859 26.267555 25.919429
28.070226 27.085496 23.877535
27.898511 26.160255 24.867189
28.161551 28.035559 22.959416
27.45505 28.192281 24.033417
28.070226 27.085496 23.877535
28.918404 27.788435 21.79948
28.303228 28.895221 21.955362
28.161551 28.035559 22.959416
29.666513 27.5229 20.734642
28.918404 27.788435 21.79948
30.400667 27.210041 19.657165
29.794235 28.335237 19.717948
29.666513 27.5229 20.734642
31.084333 27.025161 18.596948
30.400667 27.210041 19.657165
31.798523 26.703103 17.521048
31.242579 27.700321 17.564571
31.084333 27.025161 18.596948
32.546098 26.333864 16.460508
31.798523 26.703103 17.521048
32.575724 27.079277 15.492752
32.546098 26.333864 16.460508
3 46 45 10
3 47 13 48
3 49 15 50
3 51 50 13
3 49 50 51
3 52 17 53
3 54 19 55
3 56 55 17
3 54 55 56
3 0 22 20
3 0 24 22
3 57 25 58
3 57 58 59
3 2 26 9
3 2 27 26
3 3 60 61
3 64 63 11
3 62 63 64
3 65 28 66
3 4 29 12
3 4 30 29
3 4 31 30
3 5 32 14
3 5 33 32
3 67 34 68
3 6 35 16
3 6 36 35
3 6 37 36
3 7 38 18
3 7 39 38
3 1 69 70
3 8 40 21
3 8 41 40
3 8 42 41
3 71 43 72
3 73 72 23
3 71 72 73
3 75 74 43
3 76 44 77
3 76 77 78
3 79 9 80
3 81 9 82
3 83 2 84
3 85 84 9
3 83 84 85
3 10 11 3
3 86 11 87
3 88 87 10
3 86 87 88
3 90 89 11
3 91 12 92
3 13 93 95
3 93 12 94
3 93 94 95
3 13 4 12
3 13 14 4
3 15 14 13
3 15 5 14
3 96 16 97
3 17 98 100
3 98 16 99
3 98 99 100
3 17 6 16
3 17 18 6
3 19 18 17
3 19 7 18
3 20 21 1
3 22 21 20
3 22 8 21
3 22 23 8
3 24 23 22
3 24 101 103
3 103 102 23
3 101 102 103
3 25 104 105
3 25 106 108
3 106 1 107
3 106 107 108
3 9 109 111
3 109 25 110
3 109 110 111
3 26 25 9
3 26 1 25
3 26 20 1
3 27 20 26
3 27 0 20
3 11 112 114
3 114 113 3
3 112 113 114
3 116 115 11
3 28 117 119
3 117 118 119
3 28 120 122
3 120 3 121
3 120 121 122
3 12 123 125
3 123 28 124
3 123 124 125
3 29 28 12
3 29 3 28
3 29 10 3
3 30 10 29
3 30 126 128
3 128 127 10
3 126 127 128
3 30 129 130
3 31 131 133
3 133 132 30
3 131 132 133
3 31 134 135
3 14 31 4
3 32 31 14
3 32 136 138
3 138 137 31
3 136 137 138
3 32 139 141
3 139 140 141
3 33 142 144
3 144 143 32
3 142 143 144
3 33 145 146
3 147 15 148
3 34 149 151
3 149 15 150
3 149 150 151
3 34 5 15
3 16 152 154
3 152 34 153
3 152 153 154
3 35 34 16
3 35 5 34
3 35 33 5
3 36 33 35
3 36 155 157
3 157 156 33
3 155 156 157
3 36 158 159
3 37 160 162
3 162 161 36
3 160 161 162
3 37 163 164
3 18 37 6
3 38 37 18
3 38 165 167
3 167 166 37
3 165 166 167
3 38 168 169
3 39 170 172
3 172 171 38
3 170 171 172
3 39 173 174
3 21 175 177
3 177 176 1
3 175 176 177
3 40 178 180
3 180 179 21
3 178 179 180
3 40 181 182
3 40 183 184
3 41 185 187
3 187 186 40
3 185 186 187
3 41 188 189
3 41 190 192
3 190 19 191
3 190 191 192
3 42 19 41
3 42 7 19
3 23 42 8
3 43 42 23
3 43 7 42
3 43 39 7
3 193 39 194
3 195 194 43
3 193 194 195
3 197 196 39
3 44 198 199
3 44 200 202
3 200 2 201
3 200 201 202
3 203 44 204
3 205 44 206
3 207 2 208
3 209 208 44
3 207 208 209
3 210 27 211
3 212 211 2
3 210 211 212
3 213 27 214
3 215 0 216
3 217 216 27
3 215 216 217
3 218 0 219
3 220 24 221
3 222 221 0
3 220 221 222
3 223 24 224
3 226 225 24
