ply
format ascii 1.0
element vertex 207
property float x
property float y
property float z
element face 157
property list uchar int vertex_index
end_header
-2.571131 -2.880743 -62.286884
-1.171281 -7.482529 -58.61541
-9.549664 2.792621 -69.19696
-4.326312 1.641484 -65.827858
-4.647791 -4.043397 -63.830811
-12.505415 -0.959878 -68.54464
-9.40145 -3.326544 -66.758804
-8.864308 -9.341716 -63.934467
-3.156741 2.371137 -64.972229
-3.547963 -3.419249 -63.108742
-8.030794 1.473084 -68.123993
-9.461782 -0.169651 -68.05896
-10.312817 -8.479524 -64.827156
-2.32936 -0.133599 -63.094769
-1.656259 -2.40526 -61.332668
-1.852878 -5.151157 -60.478836
-11.118714 7.582562 -71.153954
-11.081817 4.42388 -70.18895
-6.749812 2.59266 -67.890617
-5.567104 0.854044 -66.502876
-3.37309 -0.467366 -64.125496
-4.51328 -1.251544 -64.87175
-5.857636 -7.635052 -63.170193
-10.994002 1.043265 -68.978058
-10.907389 -2.14277 -67.711525
-10.639251 -5.376387 -66.281097
-9.194623 -6.529078 -65.30925
-7.931568 -7.52239 -64.358017
-2.658078 2.494744 -64.43992
-3.052639 3.6348 -65.288475
-8.054349 -0.012744 -67.55524
-7.395457 0.555773 -67.452431
-11.119093 -8.053806 -65.243378
-10.878162 -9.671923 -64.471741
-1.211342 -2.176333 -60.775547
-1.554822 -1.022577 -61.733341
-1.51208 -6.316843 -59.547123
-1.410396 -4.89563 -59.96673
-1.069597 -6.061316 -59.035017
-1.583938 -7.717075 -59.064318
-1.924736 -6.55139 -59.996031
-1.51208 -6.316843 -59.547123
-10.309736 8.33164 -71.125077
-11.143605 9.033705 -71.512753
-10.283199 6.81928 -70.699299
-10.309736 8.33164 -71.125077
-6.648715 4.040414 -68.32008
-7.413508 3.48964 -68.535202
-4.831807 2.702854 -66.608933
-4.225826 3.07446 -66.240528
-4.946708 1.247764 -66.165367
-5.452203 2.309134 -66.946441
-4.831807 2.702854 -66.608933
-5.177324 -3.069483 -64.631863
-5.110069 -1.673557 -65.152332
-4.580535 -2.64747 -64.351281
-5.19935 -4.459539 -64.064171
-5.177324 -3.069483 -64.631863
-5.430477 -8.545955 -62.468544
-5.328193 -7.158728 -62.995048
-5.926319 -8.988374 -62.616995
-5.430477 -8.545955 -62.468544
-13.254976 -2.164001 -68.196106
-13.363086 -0.519659 -68.836849
-12.406464 -2.614742 -67.860138
-13.254976 -2.164001 -68.196106
-7.39127 -6.72975 -64.435791
-8.001867 -6.066897 -65.02433
-7.400304 -8.112426 -63.833967
-7.39127 -6.72975 -64.435791
-8.696313 -10.703606 -63.252724
-9.371821 -10.372222 -63.660202
-8.283988 -9.726556 -63.515207
-8.696313 -10.703606 -63.252724
-0.753758 -7.320881 -58.047753
-1.069597 -6.061316 -59.035017
-3.64104 3.439286 -65.812714
-3.052639 3.6348 -65.288475
-3.741526 2.006311 -65.400044
-4.225826 3.07446 -66.240528
-3.64104 3.439286 -65.812714
-3.136553 -4.49808 -62.227972
-3.059547 -3.149996 -62.697813
-2.648137 -4.228827 -61.817043
-3.620751 -4.768201 -62.608871
-3.136553 -4.49808 -62.227972
-4.170666 -5.080275 -62.969906
-4.097877 -3.731323 -63.469776
-3.620751 -4.768201 -62.608871
-4.72327 -5.362901 -63.325357
-4.170666 -5.080275 -62.969906
-12.566722 0.676787 -69.159947
-13.363086 -0.519659 -68.836849
-8.769843 -0.834111 -67.522724
-8.746288 0.651717 -68.091476
-8.054349 -0.012744 -67.55524
-8.739677 -2.412558 -66.872646
-9.431616 -1.748098 -67.408882
-8.769843 -0.834111 -67.522724
-8.736808 -3.968975 -66.224723
-8.739677 -2.412558 -66.872646
-10.096076 -9.941126 -64.106547
-10.878162 -9.671923 -64.471741
-9.588563 -8.91062 -64.380811
-9.371821 -10.372222 -63.660202
-10.096076 -9.941126 -64.106547
-1.891372 0.113253 -62.614391
-2.244387 1.242376 -63.50119
-1.992809 -1.269429 -62.213718
-1.891372 0.113253 -62.614391
-1.554822 -1.022577 -61.733341
-1.312086 -3.522682 -60.393646
-1.211342 -2.176333 -60.775547
-1.754568 -3.778209 -60.905752
-1.312086 -3.522682 -60.393646
-1.410396 -4.89563 -59.96673
-2.28901 -5.364034 -60.913019
-2.648137 -4.228827 -61.817043
-2.212004 -4.01595 -61.38286
-2.28901 -5.364034 -60.913019
-1.924736 -6.55139 -59.996031
-12.025696 8.163545 -71.459667
-11.143605 9.033705 -71.512753
-11.959996 6.643568 -71.033066
-12.025696 8.163545 -71.459667
-11.100265 6.003221 -70.671452
-11.941547 5.064227 -70.550564
-11.959996 6.643568 -71.033066
-10.26475 5.239938 -70.216797
-11.100265 6.003221 -70.671452
-10.283199 6.81928 -70.699299
-9.498673 4.424309 -69.720802
-10.315741 3.60825 -69.692955
-10.26475 5.239938 -70.216797
-8.813434 3.58962 -69.188374
-9.498673 4.424309 -69.720802
-8.053999 2.929851 -68.65189
-8.790229 2.132853 -68.660477
-8.813434 3.58962 -69.188374
-7.390303 2.032872 -68.007305
-8.053999 2.929851 -68.65189
-7.413508 3.48964 -68.535202
-6.754966 1.115561 -67.335743
-7.395457 0.555773 -67.452431
-7.390303 2.032872 -68.007305
-6.043557 3.178442 -67.640312
-6.648715 4.040414 -68.32008
-6.158458 1.723352 -67.196747
-6.043557 3.178442 -67.640312
-5.452203 2.309134 -66.946441
-6.163612 0.246253 -66.641873
-6.754966 1.115561 -67.335743
-6.158458 1.723352 -67.196747
-2.74305 1.118769 -64.033499
-2.658078 2.494744 -64.43992
-2.244387 1.242376 -63.50119
-5.63698 -0.620763 -65.967895
-5.040192 -0.19875 -65.687313
-5.110069 -1.673557 -65.152332
-6.163612 0.246253 -66.641873
-5.63698 -0.620763 -65.967895
-5.19935 -4.459539 -64.064171
-4.72327 -5.362901 -63.325357
-5.804272 -6.255367 -63.733862
-5.328193 -7.158728 -62.995048
-6.354304 -6.786081 -63.841879
-5.804272 -6.255367 -63.733862
-6.363338 -8.168757 -63.240055
-6.354304 -6.786081 -63.841879
-6.363338 -8.168757 -63.240055
-5.926319 -8.988374 -62.616995
-11.854923 3.368666 -69.982101
-11.941547 5.064227 -70.550564
-11.811015 1.678359 -69.376655
-11.854923 3.368666 -69.982101
-11.037909 2.733572 -69.583504
-11.749709 0.041694 -68.761349
-12.566722 0.676787 -69.159947
-11.811015 1.678359 -69.376655
-11.607451 -3.206188 -67.44358
-12.406464 -2.614742 -67.860138
-11.706402 -1.551324 -68.128083
-11.473382 -4.822996 -66.728366
-11.607451 -3.206188 -67.44358
-10.77332 -3.759578 -66.996311
-11.28231 -6.502237 -65.970348
-11.473382 -4.822996 -66.728366
-10.476034 -6.927955 -65.554126
-11.119093 -8.053806 -65.243378
-11.28231 -6.502237 -65.970348
-8.633394 -5.570241 -65.499946
-9.298037 -4.927811 -66.034027
-8.736808 -3.968975 -66.224723
-8.563095 -7.025734 -64.833634
-8.633394 -5.570241 -65.499946
-8.001867 -6.066897 -65.02433
-7.817619 -8.816893 -63.726982
-8.283988 -9.726556 -63.515207
-8.397938 -8.432053 -64.146242
-7.817619 -8.816893 -63.726982
-7.400304 -8.112426 -63.833967
-0.81757 -8.749512 -57.607183
-0.753758 -7.320881 -58.047753
-1.22651 -8.844484 -58.156343
-0.81757 -8.749512 -57.607183
-1.583938 -7.717075 -59.064318
-1.22651 -8.844484 -58.156343
3 28 8 29
3 31 30 10
3 32 12 33
3 34 14 35
3 1 36 38
3 36 15 37
3 36 37 38
3 1 39 41
3 41 40 15
3 39 40 41
3 42 16 43
3 45 44 16
3 46 18 47
3 3 48 49
3 3 50 52
3 50 19 51
3 50 51 52
3 0 20 13
3 4 21 9
3 4 53 55
3 55 54 21
3 53 54 55
3 4 56 57
3 58 22 59
3 61 60 22
3 5 62 63
3 5 64 65
3 2 23 17
3 6 24 11
3 6 25 24
3 6 26 25
3 66 27 67
3 69 68 27
3 7 70 71
3 7 72 73
3 74 1 75
3 8 76 77
3 8 78 80
3 78 3 79
3 78 79 80
3 81 9 82
3 83 82 0
3 81 82 83
3 84 9 85
3 86 4 87
3 88 87 9
3 86 87 88
3 90 89 4
3 91 5 92
3 10 11 2
3 93 11 94
3 95 94 10
3 93 94 95
3 96 6 97
3 98 97 11
3 96 97 98
3 100 99 6
3 12 101 102
3 12 103 105
3 103 7 104
3 103 104 105
3 106 13 107
3 14 108 110
3 108 13 109
3 108 109 110
3 14 0 13
3 111 14 112
3 15 113 115
3 113 14 114
3 113 114 115
3 15 0 14
3 15 116 118
3 118 117 0
3 116 117 118
3 120 119 15
3 16 121 122
3 16 123 124
3 16 125 127
3 125 17 126
3 125 126 127
3 128 17 129
3 130 129 16
3 128 129 130
3 131 2 132
3 133 132 17
3 131 132 133
3 134 2 135
3 136 10 137
3 138 137 2
3 136 137 138
3 18 139 141
3 139 10 140
3 139 140 141
3 18 142 144
3 144 143 10
3 142 143 144
3 145 18 146
3 19 147 149
3 147 18 148
3 147 148 149
3 19 150 152
3 152 151 18
3 150 151 152
3 13 153 155
3 153 8 154
3 153 154 155
3 20 8 13
3 20 3 8
3 9 20 0
3 21 20 9
3 21 3 20
3 21 19 3
3 156 19 157
3 158 157 21
3 156 157 158
3 160 159 19
3 162 161 4
3 22 163 164
3 22 165 166
3 22 167 168
3 170 169 22
3 17 171 172
3 23 173 175
3 175 174 17
3 173 174 175
3 23 176 178
3 176 5 177
3 176 177 178
3 11 23 2
3 24 23 11
3 24 5 23
3 24 179 181
3 181 180 5
3 179 180 181
3 25 182 184
3 184 183 24
3 182 183 184
3 25 185 186
3 25 187 189
3 187 12 188
3 187 188 189
3 26 12 25
3 26 7 12
3 190 26 191
3 192 191 6
3 190 191 192
3 27 193 195
3 193 26 194
3 193 194 195
3 27 7 26
3 27 196 198
3 198 197 7
3 196 197 198
3 200 199 27
3 201 1 202
3 203 1 204
3 206 205 1
