ply
format ascii 1.0
element vertex 376
property float x
property float y
property float z
element face 343
property list uchar int vertex_index
end_header
-30.491217 -46.420429 9.835872
-32.943993 -22.93224 24.612963
-29.774479 -57.993149 31.315214
-29.665609 -45.022064 0.893556
-29.183393 -57.954983 21.899961
-30.635908 -47.285416 18.872149
-32.956169 -34.974724 17.389816
-29.148973 -52.14209 10.88497
-30.165236 -45.762459 5.272201
-29.500776 -58.169167 26.656122
-29.784655 -52.946308 20.254616
-32.097111 -29.785362 25.104902
-33.21207 -28.946411 21.177011
-28.710236 -57.900925 17.149403
-29.49917 -52.713528 15.486745
-30.679102 -46.768402 14.420677
-31.670443 -41.552063 18.071678
-31.98892 -40.977417 13.571249
-29.81595 -49.258118 10.487147
-28.942884 -51.813686 8.667343
-29.615316 -48.98634 8.086806
-29.421925 -48.555153 5.77656
-30.403902 -45.936172 7.601927
-32.279133 -23.29682 26.514225
-31.901575 -26.879765 26.742411
-32.50341 -26.281773 24.918062
-32.637669 -29.472332 23.16316
-33.141235 -25.980898 22.893354
-29.44873 -44.238781 -1.357478
-29.577793 -60.194817 32.444962
-29.431812 -60.464771 30.14222
-29.353325 -58.096703 24.320105
-29.107189 -60.535385 25.339033
-28.889631 -60.596878 22.876955
-28.961426 -57.953453 19.538214
-30.165369 -50.241531 19.427572
-29.6658 -52.810631 17.867956
-30.09849 -50.175407 17.228275
-30.035139 -49.872124 14.922357
-30.633883 -47.24295 16.592897
-32.56155 -35.495132 19.4387
-32.298904 -38.327686 17.66518
-31.873751 -41.183186 15.821004
-32.563076 -38.006104 15.449482
-28.596312 -54.951279 11.621951
-29.100971 -48.363663 3.432726
-30.015837 -45.184879 3.124067
-29.932507 -55.676193 30.264874
-29.652269 -58.015366 28.983232
-29.835043 -55.613552 27.966753
-29.748341 -55.47213 25.809195
-29.598648 -55.657608 23.409246
-29.46841 -55.496616 21.106749
-29.883635 -52.993202 22.540712
-30.201477 -50.31797 21.73934
-31.559782 -30.409834 26.971987
-31.728361 -33.061836 25.321177
-32.188328 -32.63118 23.46032
-32.673912 -32.449375 21.348959
-33.130039 -32.09296 19.384472
-30.057905 -55.281075 32.594154
-32.68848 -19.647682 26.270332
-29.299442 -60.460529 27.902658
-28.429142 -57.756611 14.642009
-29.302137 -55.378773 18.76502
-29.085026 -55.301586 16.332142
-28.827875 -55.227039 13.889509
-29.333282 -52.429737 13.12332
-29.935953 -49.58049 12.663248
-30.588783 -46.69524 12.111073
-31.10754 -44.571426 18.478754
-31.251373 -44.145069 16.241928
-31.271137 -44.085789 13.96193
-31.283676 -43.799919 11.731889
-33.055962 -16.268673 26.111597
-33.404144 -19.460886 24.329313
-33.62463 -22.282011 22.766977
-33.797836 -25.277775 20.918295
-33.741425 -28.533949 19.220119
-32.063736 -40.670712 11.358313
-31.297733 -43.296104 9.458395
-31.21649 -42.962482 7.27678
-31.056915 -42.722347 5.16644
-30.931459 -42.103222 2.890738
-30.667322 -41.731903 0.648234
-29.092315 -46.181535 -0.096317
-29.260889 -46.443026 1.096134
-29.55717 -44.630423 -0.231961
-28.983875 -45.789894 -1.221834
-29.092315 -46.181535 -0.096317
-28.930104 -59.177065 21.177407
-28.783223 -60.498013 21.665904
-29.036512 -59.275931 22.388458
-29.072409 -57.954218 20.719088
-28.819121 -59.1763 19.996533
-28.930104 -59.177065 21.177407
-28.749395 -53.348111 10.063614
-28.473064 -54.752705 10.432104
-28.872643 -53.546684 11.25346
-28.501929 -53.00242 7.757748
-28.812704 -51.623795 7.447431
-29.957321 -54.392421 28.623414
-29.883775 -55.644872 29.115814
-30.006053 -54.423742 29.772475
-29.854279 -54.235372 25.278788
-29.890528 -54.213988 26.438278
-29.779432 -54.328112 24.078813
-29.673495 -55.564869 24.60922
-29.854279 -54.235372 25.278788
-29.921926 -52.995908 23.644546
-29.741142 -54.325405 22.974979
-29.779432 -54.328112 24.078813
-30.355705 -49.012918 22.498193
-30.20592 -50.379158 22.868514
-30.380555 -48.980494 21.39653
-30.355705 -49.012918 22.498193
-30.140809 -54.065781 33.257574
-30.104242 -55.174525 33.77347
-30.187146 -53.959231 34.436889
-30.104626 -54.186481 32.090816
-30.140809 -54.065781 33.257574
-32.50293 -18.180061 27.118458
-32.340389 -20.063215 27.154062
-28.983714 -61.67989 25.899569
-28.865353 -61.778698 24.63035
-28.398958 -59.108854 16.326351
-28.542491 -59.173912 17.523754
-28.569689 -57.828768 15.895706
-28.258411 -59.036698 15.072654
-28.398958 -59.108854 16.326351
-31.578585 -41.586715 19.136139
-31.827025 -40.095831 18.993032
-31.388991 -43.061745 18.275216
-31.297134 -43.096397 19.339677
-31.578585 -41.586715 19.136139
-33.430396 -15.83444 25.238003
-33.277602 -14.334504 25.991973
-33.604487 -17.430547 24.346861
-33.230053 -17.864779 25.220455
-33.430396 -15.83444 25.238003
-33.974921 -22.015165 21.757515
-33.889975 -20.355254 22.644877
-34.061523 -23.513047 20.833174
-33.711233 -23.779893 21.842636
-33.974921 -22.015165 21.757515
-33.988838 -28.418249 18.138587
-34.062269 -26.77404 19.039079
-33.661574 -30.07172 18.295462
-33.988838 -28.418249 18.138587
-32.083759 -40.459086 10.235693
-32.483825 -39.004576 11.225078
-31.700758 -41.771782 9.285734
-31.680734 -41.983408 10.408354
-32.083759 -40.459086 10.235693
-31.660137 -41.604971 8.194926
-31.257112 -43.129293 8.367587
-31.700758 -41.771782 9.285734
-31.516628 -41.127689 5.031816
-31.577421 -41.25815 6.08327
-31.4539 -40.818127 3.893965
-30.994187 -42.412785 4.028589
-31.516628 -41.127689 5.031816
-31.129606 -40.142319 0.422355
-31.245134 -40.404705 1.616647
-30.523311 -41.454612 -0.491163
-31.129606 -40.142319 0.422355
-29.14892 -50.210121 7.157163
-28.812704 -51.623795 7.447431
-29.2791 -50.400013 8.377074
-29.518621 -48.770747 6.931683
-29.052225 -49.994528 6.00204
-29.14892 -50.210121 7.157163
-32.090354 -25.088293 26.628318
-31.765032 -25.527559 27.526319
-31.953811 -23.736087 27.412226
-28.808826 -45.499794 -2.351096
-28.983875 -45.789894 -1.221834
-29.285859 -43.937799 -2.447977
-28.808826 -45.499794 -2.351096
-29.381683 -61.385405 31.851021
-29.458378 -61.195105 33.058586
-29.308692 -61.520382 30.69965
-29.381683 -61.385405 31.851021
-29.504803 -60.329794 31.293591
-29.233044 -61.606569 29.505857
-29.308692 -61.520382 30.69965
-28.756574 -61.809444 23.399311
-28.865353 -61.778698 24.63035
-28.99841 -60.566131 24.107994
-28.636952 -61.802976 22.16387
-28.756574 -61.809444 23.399311
-28.636952 -61.802976 22.16387
-28.783223 -60.498013 21.665904
-28.668086 -59.200176 18.71816
-28.819121 -59.1763 19.996533
-28.835831 -57.927189 18.343809
-28.542491 -59.173912 17.523754
-28.668086 -59.200176 18.71816
-32.272579 -37.067365 19.676543
-32.368864 -35.526826 20.549926
-32.141256 -38.483643 18.789783
-32.272579 -37.067365 19.676543
-32.430227 -36.911409 18.55194
-31.984673 -39.939875 17.868429
-31.827025 -40.095831 18.993032
-32.141256 -38.483643 18.789783
-28.210512 -56.149481 10.761988
-28.361294 -56.262539 11.907577
-28.210512 -56.149481 10.761988
-28.473064 -54.752705 10.432104
-28.646351 -53.183909 8.954801
-28.749395 -53.348111 10.063614
-29.045929 -51.977888 9.776156
-28.646351 -53.183909 8.954801
-28.501929 -53.00242 7.757748
-28.889579 -49.856125 4.8139
-29.052225 -49.994528 6.00204
-28.729102 -49.76038 3.641984
-28.889579 -49.856125 4.8139
-29.261448 -48.459408 4.604643
-28.564395 -49.545681 2.454642
-28.729102 -49.76038 3.641984
-28.97857 -48.113825 2.365719
-28.564395 -49.545681 2.454642
-29.436003 -46.524433 2.21139
-28.97857 -48.113825 2.365719
-29.558404 -46.774271 3.278397
-29.840723 -45.103471 2.008812
-29.260889 -46.443026 1.096134
-29.436003 -46.524433 2.21139
-29.933879 -54.284698 27.517057
-29.957321 -54.392421 28.623414
-29.791692 -55.542841 26.887974
-29.933879 -54.284698 27.517057
-29.890528 -54.213988 26.438278
-30.046999 -51.716774 23.2692
-29.921926 -52.995908 23.644546
-30.042556 -51.655586 22.140026
-30.046999 -51.716774 23.2692
-30.20592 -50.379158 22.868514
-30.362501 -48.942274 20.240646
-30.183423 -50.279751 20.583456
-30.380555 -48.980494 21.39653
-30.597771 -47.464216 19.962934
-30.400638 -48.763474 19.149861
-30.362501 -48.942274 20.240646
-31.619831 -27.276692 27.623769
-31.765032 -25.527559 27.526319
-31.448935 -29.041727 27.738557
-31.619831 -27.276692 27.623769
-31.730678 -28.644799 26.857199
-31.312349 -30.636155 27.915541
-31.448935 -29.041727 27.738557
-31.420913 -32.018005 27.069001
-31.312349 -30.636155 27.915541
-31.505203 -33.344006 26.243596
-31.420913 -32.018005 27.069001
-31.644071 -31.735835 26.146582
-31.542237 -34.753422 25.500978
-31.505203 -33.344006 26.243596
-31.742818 -34.465756 24.541075
-31.542237 -34.753422 25.500978
-31.972801 -34.250428 23.610647
-31.742818 -34.465756 24.541075
-31.958344 -32.846508 24.390749
-32.182253 -34.09485 22.560736
-31.972801 -34.250428 23.610647
-32.425045 -34.003948 21.505056
-32.182253 -34.09485 22.560736
-32.43112 -32.540278 22.40464
-32.617731 -33.972254 20.39383
-32.368864 -35.526826 20.549926
-32.425045 -34.003948 21.505056
-29.646185 -59.99967 33.625613
-29.458378 -61.195105 33.058586
-29.746986 -58.881859 33.045496
-29.646185 -59.99967 33.625613
-29.815377 -58.686712 34.226146
-29.845329 -57.781025 32.480622
-29.676136 -59.093983 31.880088
-29.746986 -58.881859 33.045496
-29.987042 -56.424988 33.120092
-30.104242 -55.174525 33.77347
-29.916192 -56.637112 31.954684
-29.845329 -57.781025 32.480622
-29.987042 -56.424988 33.120092
-30.041927 -54.38404 30.926175
-29.995206 -55.478634 31.429514
-30.104626 -54.186481 32.090816
-30.006053 -54.423742 29.772475
-30.041927 -54.38404 30.926175
-32.135716 -21.887784 27.276008
-31.953811 -23.736087 27.412226
-32.483807 -21.472251 26.392278
-32.135716 -21.887784 27.276008
-32.340389 -20.063215 27.154062
-29.166859 -61.604448 28.386075
-29.233044 -61.606569 29.505857
-29.365627 -60.46265 29.022439
-29.07984 -61.642461 27.181382
-29.203316 -60.497957 26.620846
-28.983714 -61.67989 25.899569
-29.166859 -61.604448 28.386075
-29.07984 -61.642461 27.181382
-28.113022 -58.870947 13.847405
-28.258411 -59.036698 15.072654
-28.277709 -57.665205 13.417606
-27.961589 -58.779541 12.623003
-28.113022 -58.870947 13.847405
-28.477075 -56.400419 13.041356
-28.277709 -57.665205 13.417606
-28.628508 -56.491825 14.265759
-28.712094 -55.089159 12.75573
-28.361294 -56.262539 11.907577
-28.477075 -56.400419 13.041356
-30.813943 -45.990938 19.79761
-30.597771 -47.464216 19.962934
-31.049759 -44.633944 19.600913
-31.297134 -43.096397 19.339677
-30.871724 -45.928421 18.675452
-30.813943 -45.990938 19.79761
-31.049759 -44.633944 19.600913
-32.895271 -14.745541 26.87211
-33.277602 -14.334504 25.991973
-32.686671 -16.490557 27.039091
-32.895271 -14.745541 26.87211
-32.872221 -17.958177 26.190964
-32.50293 -18.180061 27.118458
-32.686671 -16.490557 27.039091
-33.779731 -18.944691 23.426046
-33.604487 -17.430547 24.346861
-33.514387 -20.871448 23.548145
-33.779731 -18.944691 23.426046
-33.889975 -20.355254 22.644877
-34.090475 -25.145953 19.888168
-34.061523 -23.513047 20.833174
-33.76963 -26.905862 20.069207
-34.090475 -25.145953 19.888168
-34.062269 -26.77404 19.039079
-33.35588 -31.851225 18.377639
-33.435732 -30.313454 19.302295
-33.661574 -30.07172 18.295462
-33.268946 -33.292108 17.380311
-33.043104 -33.533842 18.387144
-33.35588 -31.851225 18.377639
-33.11096 -34.848152 16.330644
-33.268946 -33.292108 17.380311
-32.914414 -36.363843 15.360477
-32.759623 -36.490414 16.419649
-33.11096 -34.848152 16.330644
-32.663925 -37.84244 14.365406
-32.914414 -36.363843 15.360477
-32.376847 -39.328097 13.426289
-32.275998 -39.49176 14.510365
-32.663925 -37.84244 14.365406
-32.414255 -39.174744 12.319821
-32.483825 -39.004576 11.225078
-32.026328 -40.824065 12.464781
-32.376847 -39.328097 13.426289
-32.414255 -39.174744 12.319821
-31.657208 -41.378218 7.13844
-31.660137 -41.604971 8.194926
-31.136702 -42.842415 6.22161
-31.657208 -41.378218 7.13844
-31.577421 -41.25815 6.08327
-31.377203 -40.590364 2.737899
-31.4539 -40.818127 3.893965
-30.799391 -41.917563 1.769486
-31.377203 -40.590364 2.737899
-31.245134 -40.404705 1.616647
-29.914015 -42.708051 -1.494019
-30.058026 -42.985342 -0.354622
-30.523311 -41.454612 -0.491163
-29.751143 -42.40707 -2.584517
-29.285859 -43.937799 -2.447977
-29.914015 -42.708051 -1.494019
3 0 20 18
3 0 22 20
3 1 25 23
3 1 27 25
3 3 85 86
3 3 87 89
3 87 28 88
3 87 88 89
3 2 30 29
3 4 33 31
3 4 90 92
3 92 91 33
3 90 91 92
3 4 93 95
3 93 34 94
3 93 94 95
3 5 37 35
3 5 39 37
3 6 41 40
3 6 43 41
3 7 96 98
3 98 97 44
3 96 97 98
3 100 99 19
3 8 45 21
3 8 46 45
3 101 49 102
3 103 102 47
3 101 102 103
3 104 50 105
3 106 51 107
3 108 107 50
3 106 107 108
3 109 53 110
3 111 110 51
3 109 110 111
3 112 54 113
3 115 114 54
3 11 55 24
3 11 56 55
3 11 57 56
3 12 58 26
3 12 59 58
3 116 60 117
3 116 117 118
3 120 119 60
3 121 61 122
3 9 62 48
3 124 123 32
3 13 125 126
3 13 127 129
3 127 63 128
3 127 128 129
3 10 64 52
3 14 65 36
3 14 66 65
3 14 67 66
3 15 68 38
3 15 69 68
3 16 130 131
3 16 132 134
3 132 70 133
3 132 133 134
3 16 71 70
3 17 72 42
3 17 73 72
3 135 74 136
3 137 75 138
3 139 138 74
3 137 138 139
3 140 76 141
3 142 77 143
3 144 143 76
3 142 143 144
3 145 78 146
3 148 147 78
3 149 79 150
3 151 80 152
3 153 152 79
3 151 152 153
3 154 81 155
3 156 155 80
3 154 155 156
3 157 82 158
3 159 83 160
3 161 160 82
3 159 160 161
3 162 84 163
3 165 164 84
3 18 19 7
3 20 19 18
3 20 166 168
3 168 167 19
3 166 167 168
3 20 169 171
3 169 21 170
3 169 170 171
3 22 21 20
3 22 8 21
3 23 172 174
3 172 24 173
3 172 173 174
3 25 24 23
3 25 11 24
3 25 26 11
3 27 26 25
3 27 12 26
3 28 175 176
3 28 177 178
3 29 179 180
3 30 181 183
3 183 182 29
3 181 182 183
3 30 184 185
3 31 32 9
3 33 32 31
3 33 186 188
3 188 187 32
3 186 187 188
3 33 189 190
3 192 191 33
3 34 193 194
3 34 195 197
3 195 13 196
3 195 196 197
3 35 36 10
3 37 36 35
3 37 14 36
3 37 38 14
3 39 38 37
3 39 15 38
3 40 198 199
3 41 200 202
3 202 201 40
3 200 201 202
3 41 203 205
3 203 16 204
3 203 204 205
3 41 42 16
3 43 42 41
3 43 17 42
3 44 206 207
3 209 208 44
3 19 210 212
3 212 211 7
3 210 211 212
3 214 213 19
3 21 215 216
3 45 217 219
3 219 218 21
3 217 218 219
3 45 220 221
3 45 222 223
3 46 224 226
3 226 225 45
3 224 225 226
3 46 227 229
3 227 3 228
3 227 228 229
3 47 48 2
3 49 48 47
3 49 9 48
3 230 49 231
3 50 232 234
3 232 49 233
3 232 233 234
3 50 9 49
3 50 31 9
3 51 31 50
3 51 4 31
3 51 52 4
3 53 52 51
3 53 10 52
3 235 53 236
3 54 237 239
3 237 53 238
3 237 238 239
3 54 10 53
3 54 35 10
3 240 35 241
3 242 241 54
3 240 241 242
3 243 5 244
3 245 244 35
3 243 244 245
3 24 246 247
3 55 248 250
3 250 249 24
3 248 249 250
3 55 251 252
3 55 253 254
3 56 255 257
3 257 256 55
3 255 256 257
3 56 258 259
3 56 260 261
3 57 262 264
3 264 263 56
3 262 263 264
3 57 265 266
3 26 57 11
3 58 57 26
3 58 267 269
3 269 268 57
3 267 268 269
3 58 270 272
3 270 40 271
3 270 271 272
3 59 40 58
3 59 6 40
3 273 29 274
3 275 29 276
3 275 276 277
3 278 2 279
3 280 279 29
3 278 279 280
3 60 281 282
3 60 283 285
3 283 2 284
3 283 284 285
3 60 47 2
3 286 47 287
3 288 287 60
3 286 287 288
3 290 289 47
3 291 23 292
3 61 293 295
3 293 23 294
3 293 294 295
3 61 1 23
3 48 30 2
3 62 30 48
3 62 296 298
3 298 297 30
3 296 297 298
3 32 62 9
3 299 62 300
3 301 300 32
3 299 300 301
3 303 302 62
3 63 304 305
3 63 306 308
3 306 307 308
3 52 34 4
3 64 34 52
3 64 13 34
3 36 64 10
3 65 64 36
3 65 13 64
3 65 63 13
3 66 63 65
3 66 309 311
3 311 310 63
3 309 310 311
3 66 312 314
3 312 44 313
3 312 313 314
3 67 44 66
3 67 7 44
3 38 67 14
3 68 67 38
3 68 7 67
3 68 18 7
3 69 18 68
3 69 0 18
3 315 5 316
3 70 317 318
3 70 319 321
3 319 5 320
3 319 320 321
3 70 39 5
3 71 39 70
3 71 15 39
3 42 71 16
3 72 71 42
3 72 15 71
3 72 69 15
3 73 69 72
3 73 0 69
3 74 322 323
3 74 324 325
3 74 326 328
3 326 61 327
3 326 327 328
3 75 61 74
3 75 1 61
3 329 75 330
3 76 331 333
3 331 75 332
3 331 332 333
3 76 1 75
3 76 27 1
3 77 27 76
3 77 12 27
3 334 77 335
3 78 336 338
3 336 77 337
3 336 337 338
3 78 12 77
3 78 59 12
3 339 59 340
3 341 340 78
3 339 340 341
3 342 6 343
3 344 343 59
3 342 343 344
3 345 6 346
3 347 43 348
3 349 348 6
3 347 348 349
3 350 43 351
3 352 17 353
3 354 353 43
3 352 353 354
3 79 355 356
3 79 357 359
3 357 17 358
3 357 358 359
3 79 73 17
3 80 73 79
3 80 0 73
3 80 22 0
3 81 22 80
3 81 8 22
3 360 81 361
3 82 362 364
3 362 81 363
3 362 363 364
3 82 8 81
3 82 46 8
3 83 46 82
3 83 3 46
3 365 83 366
3 84 367 369
3 367 83 368
3 367 368 369
3 84 3 83
3 84 28 3
3 370 28 371
3 372 371 84
3 370 371 372
3 375 374 28
3 373 374 375
