ply
format ascii 1.0
element vertex 191
property float x
property float y
property float z
element face 157
property list uchar int vertex_index
end_header
28.759089 -54.314346 4.617265
34.409782 -42.123169 10.690858
37.215153 -36.01004 13.128543
31.328461 -48.207134 8.065269
30.450722 -50.07671 3.724384
29.533957 -52.160542 8.983748
35.478424 -39.654533 14.501404
32.485699 -45.825512 11.820914
36.212406 -38.504616 9.459366
30.919678 -49.050636 10.546816
30.408516 -50.207996 8.381431
31.891314 -47.061523 9.990712
29.599363 -52.189312 4.312162
38.184536 -33.683262 9.855011
34.937828 -41.000256 12.670247
35.942551 -39.023914 11.957237
35.337772 -40.29361 10.044924
37.553169 -35.429546 10.566282
31.65896 -47.36808 5.39098
30.859177 -49.16642 5.7988
29.9849 -51.200169 6.35598
29.117609 -53.254341 6.782555
28.618608 -54.229828 9.405051
35.90815 -38.243076 16.352638
34.547169 -41.387844 15.257518
34.04607 -42.697739 13.174391
33.068329 -44.535549 13.692926
33.442638 -43.988388 11.158081
32.872761 -45.092854 9.176329
32.21941 -46.317177 7.309988
36.374439 -37.839024 13.982924
36.759907 -37.297764 11.387457
30.447469 -50.045591 10.809182
30.696589 -49.411296 11.811554
30.696589 -49.411296 11.811554
31.208033 -48.392616 11.567167
29.030081 -53.716278 3.35456
29.450218 -52.653761 3.202008
29.179226 -53.251829 4.464714
38.264941 -33.392628 8.512176
37.980024 -34.247326 8.897424
37.572592 -35.078773 12.86637
37.399369 -35.274868 14.028413
37.384161 -35.719793 11.847413
37.7416 -34.788527 11.58524
37.572592 -35.078773 12.86637
28.145783 -55.314167 9.590061
28.353082 -54.678089 10.636496
28.430862 -54.793548 8.278992
28.145783 -55.314167 9.590061
34.071535 -42.269068 15.503435
34.296095 -41.518166 16.501174
33.820985 -42.924015 14.461872
34.296619 -42.042791 14.215954
34.071535 -42.269068 15.503435
32.777014 -45.180531 12.75692
32.558218 -45.471441 14.08865
32.266903 -46.116422 13.152645
30.635896 -49.591692 2.493009
30.840103 -49.132252 3.462124
36.619089 -37.600378 9.105346
36.89284 -36.996952 10.069392
36.486156 -37.90119 10.423412
37.008917 -36.199125 14.396204
37.399369 -35.274868 14.028413
30.191888 -50.624271 9.726489
30.664097 -49.629316 9.464123
30.447469 -50.045591 10.809182
29.754608 -51.600544 10.027648
29.971236 -51.184269 8.682589
30.191888 -50.624271 9.726489
31.991043 -46.780054 12.204216
32.266903 -46.116422 13.152645
31.69385 -47.39806 11.289115
32.188507 -46.443517 10.905813
31.991043 -46.780054 12.204216
31.405496 -48.056079 10.268764
31.69385 -47.39806 11.289115
31.208033 -48.392616 11.567167
29.833212 -51.630392 3.060625
30.258891 -50.574091 2.766736
30.025042 -51.133011 4.018273
29.833212 -51.630392 3.060625
29.450218 -52.653761 3.202008
38.4422 -32.806612 9.441536
38.340091 -33.060077 10.785981
38.522604 -32.515978 8.098702
38.4422 -32.806612 9.441536
38.264941 -33.392628 8.512176
28.642694 -54.756399 3.50212
28.317983 -55.440432 4.740859
38.057283 -33.915385 11.229604
38.340091 -33.060077 10.785981
37.868853 -34.556404 10.210646
38.057283 -33.915385 11.229604
37.7416 -34.788527 11.58524
37.664341 -35.120468 9.253059
37.980024 -34.247326 8.897424
37.868853 -34.556404 10.210646
34.540077 -41.818743 9.374482
34.116861 -42.666876 9.701166
31.444223 -47.777937 4.295421
31.84764 -46.841013 4.119603
31.044331 -48.677107 4.499332
31.444223 -47.777937 4.295421
31.259068 -48.26725 5.59489
30.65495 -49.621565 4.761592
30.840103 -49.132252 3.462124
31.044331 -48.677107 4.499332
29.291436 -52.60006 10.21855
29.754608 -51.600544 10.027648
28.833762 -53.634703 10.429202
28.353082 -54.678089 10.636496
29.076282 -53.195185 9.194399
29.291436 -52.60006 10.21855
28.833762 -53.634703 10.429202
28.680363 -54.305805 6.967744
28.868108 -53.742084 8.093803
28.430862 -54.793548 8.278992
28.501103 -54.835808 5.885099
28.938349 -53.784343 5.69991
28.680363 -54.305805 6.967744
28.317983 -55.440432 4.740859
28.501103 -54.835808 5.885099
35.65412 -38.282578 17.539491
36.084671 -37.440024 17.234324
35.452637 -39.114655 16.658136
35.65412 -38.282578 17.539491
35.237774 -39.820383 15.732519
35.693287 -38.948805 15.427021
35.452637 -39.114655 16.658136
34.772146 -40.687038 16.110575
34.296095 -41.518166 16.501174
35.012796 -40.521189 14.879461
35.237774 -39.820383 15.732519
34.772146 -40.687038 16.110575
32.805199 -44.797748 15.016162
32.558218 -45.471441 14.08865
33.332115 -43.84292 14.721139
32.805199 -44.797748 15.016162
33.557199 -43.616644 13.433658
33.820985 -42.924015 14.461872
33.332115 -43.84292 14.721139
33.633289 -43.599486 9.934777
34.116861 -42.666876 9.701166
33.92621 -43.055779 10.92447
33.34835 -44.151719 8.943901
33.633289 -43.599486 9.934777
33.157699 -44.540621 10.167205
33.038423 -44.691229 7.961175
33.34835 -44.151719 8.943901
32.711748 -45.30339 7.028004
33.038423 -44.691229 7.961175
32.546086 -45.705016 8.243158
32.391665 -45.856876 6.06308
32.711748 -45.30339 7.028004
32.11144 -46.382328 5.103576
32.391665 -45.856876 6.06308
31.939185 -46.842629 6.350484
31.84764 -46.841013 4.119603
32.11144 -46.382328 5.103576
30.635896 -49.591692 2.493009
30.258891 -50.574091 2.766736
28.913686 -54.158331 2.239415
29.030081 -53.716278 3.35456
28.642694 -54.756399 3.50212
36.355415 -37.315643 16.008252
36.084671 -37.440024 17.234324
36.58856 -37.113617 14.823395
36.355415 -37.315643 16.008252
36.141295 -38.04105 15.167781
36.794796 -36.924532 13.555734
37.008917 -36.199125 14.396204
36.58856 -37.113617 14.823395
37.289471 -36.062843 9.658804
37.156538 -36.363655 10.976869
36.89284 -36.996952 10.069392
37.664341 -35.120468 9.253059
37.289471 -36.062843 9.658804
35.004072 -40.903964 9.051516
34.873777 -41.208389 10.367891
34.540077 -41.818743 9.374482
35.476591 -39.937084 8.702565
35.004072 -40.903964 9.051516
35.913908 -39.042587 8.409786
35.775089 -39.399113 9.752145
35.476591 -39.937084 8.702565
36.332498 -38.144959 8.102206
35.913908 -39.042587 8.409786
36.619089 -37.600378 9.105346
36.332498 -38.144959 8.102206
3 33 32 9
3 34 9 35
3 0 36 38
3 38 37 12
3 36 37 38
3 40 39 13
3 1 16 14
3 2 41 42
3 2 43 45
3 43 17 44
3 43 44 45
3 3 19 18
3 5 20 10
3 5 21 20
3 46 22 47
3 49 48 22
3 50 24 51
3 52 25 53
3 54 53 24
3 52 53 54
3 7 55 57
3 55 26 56
3 55 56 57
3 7 27 26
3 7 28 27
3 3 29 11
3 3 18 29
3 4 58 59
3 6 30 23
3 8 31 15
3 8 60 62
3 62 61 31
3 60 61 62
3 63 2 64
3 9 10 3
3 65 10 66
3 67 66 9
3 65 66 67
3 68 5 69
3 70 69 10
3 68 69 70
3 71 7 72
3 73 11 74
3 75 74 7
3 73 74 75
3 9 76 78
3 76 11 77
3 76 77 78
3 9 3 11
3 12 79 81
3 81 80 4
3 79 80 81
3 83 82 12
3 13 84 85
3 88 87 13
3 86 87 88
3 14 15 6
3 16 15 14
3 16 8 15
3 90 89 0
3 91 13 92
3 17 93 95
3 93 13 94
3 93 94 95
3 17 96 98
3 98 97 13
3 96 97 98
3 100 99 1
3 18 101 102
3 19 103 105
3 105 104 18
3 103 104 105
3 19 106 108
3 106 4 107
3 106 107 108
3 10 19 3
3 20 19 10
3 20 4 19
3 20 12 4
3 21 12 20
3 21 0 12
3 109 5 110
3 22 111 112
3 22 113 115
3 113 5 114
3 113 114 115
3 22 21 5
3 116 21 117
3 118 117 22
3 116 117 118
3 119 0 120
3 121 120 21
3 119 120 121
3 123 122 0
3 124 23 125
3 126 23 127
3 128 6 129
3 130 129 23
3 128 129 130
3 24 131 132
3 24 133 135
3 133 6 134
3 133 134 135
3 24 14 6
3 25 14 24
3 25 1 14
3 26 136 137
3 26 138 139
3 26 140 142
3 140 25 141
3 140 141 142
3 27 25 26
3 27 1 25
3 27 143 145
3 145 144 1
3 143 144 145
3 28 146 148
3 148 147 27
3 146 147 148
3 28 149 150
3 11 28 7
3 29 28 11
3 29 151 153
3 153 152 28
3 151 152 153
3 29 154 155
3 18 156 158
3 158 157 29
3 156 157 158
3 18 159 160
3 162 161 4
3 165 164 0
3 163 164 165
3 23 166 167
3 30 168 170
3 170 169 23
3 168 169 170
3 30 171 173
3 171 2 172
3 171 172 173
3 15 30 6
3 31 30 15
3 31 2 30
3 31 17 2
3 174 17 175
3 176 175 31
3 174 175 176
3 178 177 17
3 179 16 180
3 181 180 1
3 179 180 181
3 182 16 183
3 184 8 185
3 186 185 16
3 184 185 186
3 187 8 188
3 190 189 8
