ply
format ascii 1.0
element vertex 234
property float x
property float y
property float z
element face 236
property list uchar int vertex_index
end_header
-16.513491 31.919823 40.171638
-12.497372 55.828548 30.364466
-14.665742 43.935627 36.078884
-22.285784 25.38735 35.231663
-20.608797 36.295681 31.915516
-19.45927 28.735476 37.837536
-21.513599 30.79443 33.737633
-18.643772 34.369404 36.273705
-13.578707 49.660172 33.608532
-16.728571 45.936859 31.820663
-15.570231 51.660728 29.143379
-13.242057 35.355911 42.051838
-15.640004 37.768421 38.424778
-12.3351 41.262295 40.054142
-11.300931 47.370781 37.59655
-10.263702 53.53162 34.668552
-19.991554 23.261507 39.244797
-17.13463 26.161623 41.68644
-17.792118 40.157444 34.162186
-18.057674 30.167896 39.05999
-19.084162 31.636562 37.031822
-17.599657 33.046658 38.353344
-13.049191 52.861027 31.938391
-14.550749 50.805798 31.443377
-14.070861 53.823551 29.748749
-11.499596 36.89056 42.89019
-12.777934 38.331814 41.110794
-10.787144 50.555126 36.119289
-8.96472 52.609978 36.518101
-18.638159 24.645802 40.454201
-21.077406 33.479263 32.899811
-15.116285 40.78178 37.411957
-16.709974 39.114819 36.354881
-16.211285 41.833809 35.400024
-17.55962 46.880398 29.616255
-18.114237 44.042576 30.875494
-20.898329 27.026131 36.552166
-21.844641 28.222618 34.565258
-20.487595 29.802042 35.876518
-20.140375 32.455135 35.044941
-19.656942 35.458336 34.103889
-14.12292 46.784561 34.905136
-15.800562 44.771656 34.057034
-15.263539 47.710091 32.746677
-16.130737 48.880867 30.503874
-17.019032 49.625351 28.283195
-14.917303 33.47612 41.239449
-16.031225 34.861897 39.404922
-14.454158 36.496365 40.355389
-13.96101 39.452309 39.403286
-13.563077 42.463844 38.189884
-11.762097 44.254425 38.967781
-13.025334 45.443451 37.01498
-12.459031 48.532131 35.687256
-11.981493 51.622692 34.139011
-11.415777 54.731968 32.558109
-21.124275 24.290159 37.359932
-19.786594 25.980738 38.516582
-18.320898 27.44956 39.825531
-16.754095 29.1273 41.033749
-15.613187 27.860338 42.726292
-15.165618 30.733646 42.110786
-13.523326 32.469231 43.009708
-11.754478 33.914539 43.958572
-17.16032 36.054554 37.433578
-18.18766 37.250668 35.341316
-19.157974 38.323917 33.135468
-17.236401 43.014862 33.119633
-18.659649 41.19593 32.019234
-19.985907 39.091743 31.103298
-13.028634 56.293775 29.226553
-13.815379 55.291277 28.918695
-13.284116 54.826049 30.056607
-12.265124 57.336498 29.464005
-13.028634 56.293775 29.226553
-11.287321 38.419531 42.35342
-10.569858 37.723675 43.242165
-8.377748 51.791851 37.5131
-9.288139 50.989365 37.233237
-8.082471 53.455402 36.73559
-8.377748 51.791851 37.5131
-22.745991 25.905333 34.270731
-22.929721 24.594674 34.614834
-21.258926 35.444172 31.27386
-21.49323 34.035963 31.766008
-20.843101 34.887472 32.407663
-20.96716 36.84231 30.819116
-21.258926 35.444172 31.27386
-18.221519 45.899174 29.134363
-17.969273 47.21859 28.493595
-16.010047 52.052288 28.003641
-16.734447 51.034599 27.573549
-16.294632 50.64304 28.713287
-11.531514 45.812603 38.282166
-10.834519 45.2598 39.228382
-10.603936 46.817978 38.542766
-10.014129 55.081604 33.838071
-10.590167 55.681778 32.78285
-10.83974 54.131794 33.613331
-20.623603 22.436943 38.704952
-20.033876 21.878767 39.647182
-20.557915 23.775833 38.302364
-21.189963 22.951269 37.76252
-20.623603 22.436943 38.704952
-14.732517 28.579334 43.323548
-14.875996 27.131849 43.694496
-14.508733 30.015988 43.015794
-15.389402 29.296992 42.418539
-14.732517 28.579334 43.323548
-13.687587 30.883781 43.465255
-14.344472 31.601439 42.560247
-14.508733 30.015988 43.015794
-11.102399 33.184477 44.766973
-11.964831 32.395728 44.38241
-10.885999 34.676411 44.322448
-11.102399 33.184477 44.766973
-22.15566 29.954714 33.129389
-22.321182 28.668808 33.543201
-21.67912 29.508524 34.151446
-19.062691 41.612991 30.94043
-18.386943 42.619253 31.447364
-18.789985 43.036314 30.36856
-19.72582 40.560897 30.482462
-19.322778 40.143836 31.561266
-19.062691 41.612991 30.94043
-20.36238 39.596291 29.938311
-19.72582 40.560897 30.482462
-14.528924 54.166641 28.725817
-15.278609 53.085229 28.423132
-14.820546 52.74214 29.446064
-14.528924 54.166641 28.725817
-13.815379 55.291277 28.918695
-11.92649 39.140158 41.463722
-12.138765 37.611187 42.000492
-11.287321 38.419531 42.35342
-11.705073 40.605398 40.935396
-12.556517 39.797055 40.582468
-11.92649 39.140158 41.463722
-10.456245 48.369766 37.772461
-10.603936 46.817978 38.542766
-10.199351 49.961939 37.033831
-11.044037 48.962953 36.85792
-10.456245 48.369766 37.772461
-9.875932 51.582552 36.318695
-10.199351 49.961939 37.033831
-9.288139 50.989365 37.233237
-8.725123 54.140234 35.731743
-9.374614 54.601055 34.806968
-9.614211 53.070799 35.593327
-8.725123 54.140234 35.731743
-8.082471 53.455402 36.73559
-19.376004 22.581246 40.227248
-20.033876 21.878767 39.647182
-18.699306 23.273393 40.83195
-19.314857 23.953654 39.849499
-19.376004 22.581246 40.227248
-17.964387 24.034372 41.435805
-18.699306 23.273393 40.83195
-17.212623 24.792283 42.051924
-17.886395 25.403712 41.07032
-17.964387 24.034372 41.435805
-21.728357 32.655 32.254562
-21.946453 31.312583 32.673473
-21.295502 32.136847 33.318722
-21.728357 32.655 32.254562
-21.49323 34.035963 31.766008
-18.498828 44.480263 29.763983
-17.836928 45.461487 30.245874
-18.221519 45.899174 29.134363
-18.789985 43.036314 30.36856
-18.498828 44.480263 29.763983
-17.69898 48.591066 27.827065
-17.969273 47.21859 28.493595
-17.289326 48.252875 28.949725
-17.418045 49.927428 27.189957
-17.69898 48.591066 27.827065
-17.418045 49.927428 27.189957
-16.734447 51.034599 27.573549
-16.010047 52.052288 28.003641
-15.278609 53.085229 28.423132
-11.401048 42.134298 40.417015
-11.705073 40.605398 40.935396
-11.114546 43.630364 39.873835
-10.834519 45.2598 39.228382
-12.048599 42.75836 39.510962
-11.401048 42.134298 40.417015
-11.114546 43.630364 39.873835
-11.155123 56.304034 31.679769
-11.69592 56.852323 30.582948
-11.956575 55.280258 31.461288
-11.155123 56.304034 31.679769
-10.590167 55.681778 32.78285
-10.014129 55.081604 33.838071
-9.374614 54.601055 34.806968
-22.325294 24.085552 35.720259
-22.929721 24.594674 34.614834
-21.74454 23.536956 36.784394
-21.189963 22.951269 37.76252
-21.70503 24.838755 36.295797
-22.325294 24.085552 35.720259
-21.74454 23.536956 36.784394
-16.434821 25.566448 42.631873
-17.212623 24.792283 42.051924
-15.6741 26.415805 43.151798
-14.875996 27.131849 43.694496
-16.373908 27.01098 42.206366
-16.434821 25.566448 42.631873
-15.6741 26.415805 43.151798
-12.849255 31.673074 43.907978
-13.687587 30.883781 43.465255
-12.638902 33.191885 43.48414
-12.849255 31.673074 43.907978
-11.964831 32.395728 44.38241
-10.758558 36.164421 43.788258
-11.627037 35.402549 43.424381
-10.885999 34.676411 44.322448
-9.828819 36.997535 44.140232
-10.569858 37.723675 43.242165
-10.758558 36.164421 43.788258
-22.525419 27.322966 33.937528
-22.745991 25.905333 34.270731
-22.065213 26.804984 34.89846
-22.525419 27.322966 33.937528
-22.321182 28.668808 33.543201
-22.15566 29.954714 33.129389
-21.946453 31.312583 32.673473
-20.655715 38.240341 30.413007
-20.96716 36.84231 30.819116
-20.297352 37.693712 31.509407
-21.032187 38.744889 29.248019
-20.655715 38.240341 30.413007
-20.36238 39.596291 29.938311
-12.265124 57.336498 29.464005
-11.69592 56.852323 30.582948
3 0 21 19
3 1 24 22
3 1 70 72
3 72 71 24
3 70 71 72
3 1 73 74
3 76 75 25
3 77 28 78
3 80 79 28
3 3 81 82
3 4 83 85
3 85 84 30
3 83 84 85
3 4 86 87
3 2 33 31
3 89 88 34
3 5 38 36
3 7 39 20
3 7 40 39
3 8 43 41
3 10 44 23
3 10 45 44
3 10 90 92
3 92 91 45
3 90 91 92
3 11 48 46
3 13 49 26
3 13 50 49
3 14 93 95
3 93 51 94
3 93 94 95
3 14 52 51
3 14 53 52
3 15 54 27
3 15 55 54
3 15 96 98
3 98 97 55
3 96 97 98
3 16 99 100
3 16 101 103
3 101 56 102
3 101 102 103
3 16 57 56
3 17 58 29
3 17 59 58
3 104 60 105
3 106 61 107
3 108 107 60
3 106 107 108
3 109 62 110
3 111 110 61
3 109 110 111
3 112 63 113
3 115 114 63
3 6 116 118
3 118 117 37
3 116 117 118
3 12 64 47
3 18 65 32
3 18 66 65
3 9 67 42
3 119 68 120
3 121 120 35
3 119 120 121
3 122 69 123
3 124 123 68
3 122 123 124
3 126 125 69
3 19 20 5
3 21 20 19
3 21 7 20
3 22 23 8
3 24 23 22
3 24 10 23
3 24 127 129
3 129 128 10
3 127 128 129
3 131 130 24
3 25 26 11
3 132 26 133
3 134 133 25
3 132 133 134
3 135 13 136
3 137 136 26
3 135 136 137
3 138 14 139
3 140 27 141
3 142 141 14
3 140 141 142
3 28 143 145
3 143 27 144
3 143 144 145
3 28 15 27
3 28 146 148
3 148 147 15
3 146 147 148
3 150 149 28
3 151 16 152
3 153 29 154
3 155 154 16
3 153 154 155
3 156 29 157
3 158 17 159
3 160 159 29
3 158 159 160
3 30 161 163
3 163 162 6
3 161 162 163
3 165 164 30
3 31 32 12
3 33 32 31
3 33 18 32
3 34 35 9
3 166 35 167
3 168 167 34
3 166 167 168
3 170 169 35
3 36 37 3
3 38 37 36
3 38 6 37
3 20 38 5
3 39 38 20
3 39 6 38
3 39 30 6
3 40 30 39
3 40 4 30
3 41 42 2
3 43 42 41
3 43 9 42
3 23 43 8
3 44 43 23
3 44 9 43
3 44 34 9
3 45 34 44
3 45 171 173
3 173 172 34
3 171 172 173
3 45 174 175
3 177 176 45
3 179 178 10
3 46 47 0
3 48 47 46
3 48 12 47
3 26 48 11
3 49 48 26
3 49 12 48
3 49 31 12
3 50 31 49
3 50 2 31
3 180 13 181
3 51 182 183
3 51 184 186
3 184 13 185
3 184 185 186
3 51 50 13
3 52 50 51
3 52 2 50
3 52 41 2
3 53 41 52
3 53 8 41
3 27 53 14
3 54 53 27
3 54 8 53
3 54 22 8
3 55 22 54
3 55 1 22
3 55 187 189
3 189 188 1
3 187 188 189
3 191 190 55
3 193 192 15
3 194 3 195
3 56 196 197
3 56 198 200
3 198 3 199
3 198 199 200
3 56 36 3
3 57 36 56
3 57 5 36
3 29 57 16
3 58 57 29
3 58 5 57
3 58 19 5
3 59 19 58
3 59 0 19
3 201 17 202
3 60 203 204
3 60 205 207
3 205 17 206
3 205 206 207
3 60 59 17
3 61 59 60
3 61 0 59
3 61 46 0
3 62 46 61
3 62 11 46
3 208 62 209
3 63 210 212
3 210 62 211
3 210 211 212
3 63 11 62
3 63 25 11
3 213 25 214
3 215 214 63
3 213 214 215
3 218 217 25
3 216 217 218
3 37 219 221
3 221 220 3
3 219 220 221
3 223 222 37
3 225 224 6
3 47 21 0
3 64 21 47
3 64 7 21
3 32 64 12
3 65 64 32
3 65 7 64
3 65 40 7
3 66 40 65
3 66 4 40
3 42 33 2
3 67 33 42
3 67 18 33
3 35 67 9
3 68 67 35
3 68 18 67
3 68 66 18
3 69 66 68
3 69 4 66
3 69 226 228
3 228 227 4
3 226 227 228
3 231 230 69
3 229 230 231
3 233 232 1
