ply
format ascii 1.0
element vertex 639
property float x
property float y
property float z
element face 664
property list uchar int vertex_index
end_header
14.57519 40.555191 -17.374008
22.26025 36.877525 -9.669761
31.475224 31.034256 -2.273648
13.616772 63.721127 -29.478897
18.19656 53.280712 -17.263811
17.85008 39.389153 -12.964732
22.180426 50.754559 -12.457651
17.848545 65.371368 -22.929783
14.636176 53.064007 -22.716206
11.195627 47.344051 -37.70937
27.097025 33.681446 -6.503922
10.028214 59.508213 -36.381958
12.320109 50.849705 -29.577995
13.085152 39.913818 -23.335815
20.23797 58.714775 -17.024744
20.22164 52.321171 -14.792441
18.133541 59.228004 -19.883966
13.709452 33.954002 -17.791292
14.633996 33.832996 -15.24724
19.938396 38.36356 -11.271214
22.465805 29.823826 -8.515133
29.441832 32.465351 -4.554312
27.885345 27.209789 -5.75702
30.521465 26.198639 -4.016378
32.962555 25.090183 -1.823469
11.725621 61.951031 -32.902924
11.44636 55.403679 -32.980465
12.78918 57.141319 -29.257292
14.6113 46.744373 -19.787746
13.519922 46.53767 -22.840754
13.568707 40.304974 -20.181709
13.306085 34.046883 -20.892105
16.216801 47.156544 -17.219398
16.022404 40.050598 -14.947287
17.969681 46.319054 -14.927681
20.058363 45.267227 -12.837152
33.170441 29.583319 0.37122
15.74374 64.860641 -26.065336
14.371665 58.862766 -26.065094
16.239489 59.5797 -22.878349
16.312969 53.503117 -19.834763
9.456373 50.518021 -40.802959
16.006306 33.133785 -13.100468
24.129107 49.017929 -10.119138
24.734915 35.230785 -8.099723
25.056267 28.352016 -7.230484
8.444037 56.622944 -40.077496
10.353768 53.217663 -36.809429
11.673503 49.071606 -33.52227
12.545908 44.287266 -30.171745
13.305892 52.13522 -25.936878
12.793027 45.591999 -26.41678
13.097261 39.026192 -27.194925
14.024439 37.177952 -17.568159
14.081804 33.776695 -16.498722
14.557769 37.016663 -16.251987
21.075941 37.710609 -10.471559
19.998117 34.848824 -10.518187
21.101271 33.993126 -9.788115
22.289156 33.329746 -9.106336
30.496992 31.662214 -3.477297
29.922716 29.357824 -4.388476
31.162056 28.606112 -3.270078
31.74761 25.602261 -3.006675
32.273247 27.990829 -2.074192
14.164993 66.81144 -29.455788
13.066776 66.201965 -31.202488
12.013418 65.333847 -32.907845
12.64622 63.140968 -31.237436
12.331841 59.79958 -31.124735
13.137113 60.561111 -29.457836
14.55934 43.637192 -18.582399
14.000788 43.633606 -19.9786
14.000315 40.540554 -18.764048
13.614765 37.237362 -19.005957
17.163034 50.274097 -17.262556
17.076397 46.846458 -16.039871
18.148699 49.876629 -15.999745
21.20487 51.486485 -13.590063
20.123447 48.835987 -13.790211
16.360886 67.88929 -26.195862
16.781414 65.304855 -24.55039
16.071316 62.239033 -24.396055
17.105888 62.588253 -22.8846
18.242468 56.297394 -18.46217
17.229429 56.566132 -19.915546
17.234175 53.539322 -18.546772
16.208885 50.32951 -18.556698
10.410015 48.865124 -39.333252
16.893179 39.708092 -13.898707
15.942882 36.462589 -13.99973
16.83197 36.395668 -13.062675
25.034159 48.063473 -8.920063
25.695454 38.120605 -7.692201
25.883461 34.538639 -7.352156
24.926086 31.752016 -7.653121
26.183228 31.098637 -6.942495
28.272305 24.051191 -5.301985
26.826921 24.562695 -6.036682
9.939366 62.668015 -36.457111
9.059925 61.293629 -38.092312
9.297739 57.983368 -38.091148
9.475037 55.008862 -38.461536
10.143378 56.411709 -36.50338
11.940031 53.053131 -31.266325
11.513338 52.152477 -33.057381
11.971468 49.855591 -31.454344
12.158311 46.828617 -31.764126
12.342095 47.666908 -29.722593
14.530756 56.009827 -24.395248
13.796035 55.35516 -25.859201
13.933605 52.487541 -24.181986
13.191743 43.185295 -23.10483
13.08612 46.094166 -24.625647
12.952221 42.782806 -24.904093
12.842831 42.257931 -26.730568
13.033535 39.306168 -25.194252
13.298717 36.382107 -25.751148
13.174754 36.724144 -23.8939
13.448314 31.084757 -19.836517
13.499709 30.885698 -21.448067
19.274225 55.957729 -17.104431
19.195576 52.60083 -15.918395
20.250637 55.406349 -15.817501
21.28142 54.877392 -14.525978
22.164471 54.113285 -13.334833
18.087669 62.308872 -21.302843
19.118572 62.019691 -19.743494
19.175457 59.066166 -18.465439
13.572618 30.777111 -18.271828
18.88308 39.078072 -12.118745
17.812559 35.799919 -12.104878
18.848093 35.138111 -11.249489
28.282009 33.133183 -5.593186
27.585581 30.469646 -6.09158
28.779995 29.75717 -5.275954
29.274269 26.623016 -4.899852
29.714304 23.465197 -4.468679
31.086224 23.111755 -3.56686
32.475849 22.755232 -2.481858
10.985349 64.161018 -34.621441
10.821195 60.839413 -34.704174
10.80908 57.405235 -34.716103
11.515157 58.637833 -32.950748
12.083695 56.507374 -31.136007
12.479255 54.114399 -29.418653
14.675196 50.075207 -21.179207
13.996055 49.674023 -22.688522
14.037299 46.763893 -21.237043
13.546597 43.51091 -21.481443
13.284135 40.110252 -21.601994
13.189446 36.950405 -22.125866
13.334272 37.024239 -20.501499
13.44189 33.943466 -19.247715
15.297237 43.942677 -17.320148
15.247519 40.469807 -16.144688
16.062157 43.697437 -16.119675
16.900276 43.126747 -14.943327
17.849234 42.844849 -13.937879
19.125355 49.364151 -14.855288
18.941742 45.75832 -13.874448
18.902458 42.333397 -12.931304
20.046642 41.930634 -12.006659
21.078001 41.173645 -11.157403
22.225979 40.227104 -10.253781
32.363743 30.345507 -0.980085
14.669551 64.575035 -27.821325
14.066859 61.309525 -27.727379
15.066796 61.957108 -26.045341
15.245916 59.124676 -24.425308
15.393492 56.284443 -22.760935
17.190121 59.602352 -21.389267
16.315296 56.561348 -21.286615
15.425617 53.316936 -21.234964
15.403001 50.227158 -19.809736
15.327348 46.926277 -18.480412
15.205111 37.062614 -15.140425
15.278348 33.586891 -14.121778
24.046196 52.396137 -10.687588
23.448404 39.736423 -9.408023
24.567543 38.737659 -8.550353
23.47188 36.136311 -8.90751
23.663521 32.660614 -8.366446
23.781929 29.182272 -7.875296
26.460953 27.921152 -6.540779
33.211548 27.579367 -0.81033
34.054726 24.666908 -0.527078
7.778971 55.030754 -41.817986
8.90604 53.456989 -40.363434
9.912557 51.878822 -38.724007
10.723694 50.148697 -37.169743
10.911545 54.373573 -34.748657
11.093639 51.336597 -35.036572
11.414926 48.254848 -35.605137
12.010753 46.119595 -33.988762
12.53229 43.677353 -32.297432
13.513748 57.972019 -27.653648
13.123526 54.824585 -27.536762
12.774565 51.494774 -27.685867
13.404604 49.231842 -24.400188
12.960763 48.701199 -26.068371
12.605118 48.210068 -27.880659
12.60769 45.030544 -28.322273
12.838402 41.797192 -28.66954
13.326328 33.840443 -22.609909
30.986108 31.348235 -2.875472
30.586818 32.808522 -2.952667
31.075935 32.494543 -2.350842
21.693238 49.399287 -12.553757
21.205461 49.765249 -13.119962
21.692648 51.120522 -13.023857
22.219409 49.13361 -12.050231
21.693238 49.399287 -12.553757
17.670902 66.620979 -23.670807
18.224049 66.772316 -22.87106
17.314979 65.338111 -23.740087
17.137336 66.587723 -24.48111
17.670902 66.620979 -23.670807
11.106498 46.77148 -38.883741
10.713692 47.532017 -39.695683
10.802821 48.104588 -38.521311
25.444907 47.577364 -8.324887
25.329408 49.287611 -8.454987
25.12156 46.407795 -8.718768
25.444907 47.577364 -8.324887
26.949812 35.349767 -6.637333
27.496744 35.061208 -6.13305
26.490243 34.110043 -6.928039
26.34303 35.778364 -7.06145
26.949812 35.349767 -6.637333
27.712049 22.564613 -5.384259
28.479411 22.434105 -5.023544
13.57553 29.578883 -20.094479
13.560032 29.490228 -19.325294
21.691188 56.238153 -14.442685
21.250951 56.511202 -15.077025
22.132714 55.8561 -13.847112
21.722946 54.495339 -13.930405
21.691188 56.238153 -14.442685
19.540599 63.436477 -19.684006
19.015121 63.590065 -20.508269
19.706713 58.890471 -17.745092
19.663691 60.398218 -18.351025
20.194947 60.222522 -17.630678
13.765402 32.311631 -17.328448
13.696985 30.723185 -17.568716
13.641035 32.365557 -18.03156
14.431401 32.309995 -15.389632
14.155305 32.281844 -16.015373
14.3579 33.804845 -15.872981
14.689357 32.18401 -14.796616
14.431401 32.309995 -15.389632
19.446275 33.288684 -10.526179
19.977304 32.936818 -10.177843
21.903132 28.355221 -8.529491
21.812192 30.047639 -8.831198
22.540629 27.948889 -8.217075
21.903132 28.355221 -8.529491
29.170825 33.964479 -4.649416
29.636995 33.678787 -4.058922
28.861921 32.799267 -5.073749
28.590913 34.298395 -5.168853
29.170825 33.964479 -4.649416
33.346495 23.634962 -1.574021
33.103141 22.467486 -1.903215
32.719202 23.922708 -2.152664
21.674035 42.496336 -11.018881
21.142791 42.91153 -11.491392
22.248024 42.023066 -10.56707
21.65199 40.700374 -10.705592
21.674035 42.496336 -11.018881
15.518363 66.247268 -26.945894
15.826936 67.761593 -27.011157
16.052313 66.374966 -26.130599
15.206646 64.717838 -26.943331
14.981269 66.104466 -27.823889
15.518363 66.247268 -26.945894
9.213773 49.8724 -41.875725
8.8969 51.271803 -41.53887
15.680982 31.679032 -13.198871
15.317003 31.905585 -13.709526
15.642327 33.360338 -13.611123
17.324338 34.205815 -12.137429
17.82805 34.045895 -11.708842
24.087651 50.707033 -10.403363
24.450079 51.809565 -10.029767
24.491535 50.120461 -9.745541
23.665275 49.618105 -10.719181
23.623819 51.307209 -11.003405
24.087651 50.707033 -10.403363
23.713227 47.898825 -10.361626
23.665275 49.618105 -10.719181
23.951575 41.003984 -9.208057
23.40708 41.428049 -9.683558
24.538172 27.013646 -7.277384
23.901003 27.428774 -7.599789
24.419098 28.767144 -7.55289
26.110991 24.785915 -6.366238
26.238332 23.056374 -6.086227
34.568325 24.300943 0.165259
34.098971 25.708284 -0.003948
34.457211 23.154964 -0.312613
34.568325 24.300943 0.165259
7.860455 57.41542 -40.826223
8.332583 58.166392 -39.909843
8.111504 55.826849 -40.947741
7.527922 56.619326 -41.696468
7.860455 57.41542 -40.826223
12.743567 42.746282 -30.488424
12.736758 42.441326 -31.551268
12.539099 43.982309 -31.234589
13.172482 38.937809 -28.252831
13.043052 40.323309 -28.990138
12.967831 40.411692 -27.932233
13.301309 37.671276 -27.473641
13.172482 38.937809 -28.252831
13.531142 35.009035 -26.080245
13.390918 35.031491 -25.072029
13.592261 30.858852 -22.302582
13.699074 29.548011 -21.781148
20.729226 58.429894 -16.326407
20.681517 59.95838 -16.880983
20.681517 59.95838 -16.880983
20.194947 60.222522 -17.630678
20.528881 32.508968 -9.812807
19.977304 32.936818 -10.177843
20.549694 34.420975 -10.153151
21.129925 32.132289 -9.467688
20.528881 32.508968 -9.812807
21.723867 31.800599 -9.126799
21.129925 32.132289 -9.467688
21.695214 33.661436 -9.447226
22.37748 31.576786 -8.810735
21.812192 30.047639 -8.831198
21.723867 31.800599 -9.126799
30.164575 33.277219 -3.520415
30.586818 32.808522 -2.952667
29.969412 32.063783 -4.015804
29.636995 33.678787 -4.058922
30.164575 33.277219 -3.520415
13.791513 68.053895 -30.383598
14.372277 68.433625 -29.552551
13.242404 67.749157 -31.256949
13.791513 68.053895 -30.383598
13.615884 66.506703 -30.329138
12.651769 67.247581 -32.11352
13.242404 67.749157 -31.256949
12.540097 65.767906 -32.055166
12.12509 66.813523 -32.966198
12.651769 67.247581 -32.11352
20.664749 48.44 -13.220036
20.664158 50.161236 -13.690137
21.205461 49.765249 -13.119962
20.632207 46.65562 -12.743507
20.090905 47.051607 -13.313681
20.664749 48.44 -13.220036
20.632972 44.95832 -12.331267
20.632207 46.65562 -12.743507
16.927073 67.87994 -25.303846
16.66763 69.302147 -26.139352
16.57115 66.597072 -25.373126
16.927073 67.87994 -25.303846
17.137336 66.587723 -24.48111
10.217671 48.368364 -40.439054
9.74085 49.194813 -41.173908
9.933194 49.691572 -40.068106
10.217671 48.368364 -40.439054
10.713692 47.532017 -39.695683
24.94406 49.643232 -9.146004
25.329408 49.287611 -8.454987
24.581633 48.540701 -9.5196
24.491535 50.120461 -9.745541
24.94406 49.643232 -9.146004
24.661443 46.894132 -9.230402
24.208917 47.371361 -9.82994
24.581633 48.540701 -9.5196
24.661443 46.894132 -9.230402
25.12156 46.407795 -8.718768
26.249026 37.569347 -7.231472
26.082219 39.339849 -7.385215
25.789458 36.329622 -7.522178
26.249026 37.569347 -7.231472
26.34303 35.778364 -7.06145
26.989357 22.820365 -5.751608
27.549613 24.306943 -5.669334
27.712049 22.564613 -5.384259
26.238332 23.056374 -6.086227
26.989357 22.820365 -5.751608
33.656828 28.166489 0.445201
33.503284 29.252928 1.073233
9.42202 63.629773 -37.292694
9.945501 64.293606 -36.470911
8.9823 62.94258 -38.110294
9.42202 63.629773 -37.292694
9.499645 61.980822 -37.274711
8.479423 62.151642 -38.923147
8.9823 62.94258 -38.110294
8.640526 60.501734 -38.917251
8.479423 62.151642 -38.923147
8.759434 58.846604 -38.916669
8.640526 60.501734 -38.917251
9.178832 59.638498 -38.09173
8.870888 57.303156 -39.084322
8.332583 58.166392 -39.909843
8.759434 58.846604 -38.916669
13.328936 35.202509 -24.143405
13.390918 35.031491 -25.072029
13.236735 36.553126 -24.822524
13.601227 29.479354 -20.900254
13.474011 30.985228 -20.642292
13.57553 29.578883 -20.094479
13.699074 29.548011 -21.781148
13.601227 29.479354 -20.900254
20.73556 56.77568 -15.722786
20.244304 57.060562 -16.421122
20.729226 58.429894 -16.326407
20.766029 55.14187 -15.17174
20.73556 56.77568 -15.722786
21.250951 56.511202 -15.077025
18.380108 65.265904 -22.101414
18.224049 66.772316 -22.87106
18.49967 63.734656 -21.287944
17.968107 63.84012 -22.116313
18.380108 65.265904 -22.101414
18.603121 62.164282 -20.523168
18.49967 63.734656 -21.287944
19.015121 63.590065 -20.508269
19.635248 61.87498 -18.990053
19.540599 63.436477 -19.684006
19.147015 60.542929 -19.104467
19.635248 61.87498 -18.990053
19.663691 60.398218 -18.351025
11.529642 45.942115 -38.037876
11.552673 46.349255 -36.955647
13.682973 29.201365 -17.779917
13.622184 29.336405 -18.54295
13.682973 29.201365 -17.779917
13.696985 30.723185 -17.568716
13.951578 32.222977 -16.682163
13.765402 32.311631 -17.328448
13.895628 33.865348 -17.145007
13.951578 32.222977 -16.682163
14.155305 32.281844 -16.015373
18.345817 33.71499 -11.281147
17.82805 34.045895 -11.708842
18.330326 35.469015 -11.677183
18.871263 33.433328 -10.891831
19.423105 34.993468 -10.883838
19.446275 33.288684 -10.526179
18.345817 33.71499 -11.281147
18.871263 33.433328 -10.891831
28.089236 34.787077 -5.677682
28.590913 34.298395 -5.168853
27.689517 33.407314 -6.048554
27.496744 35.061208 -6.13305
28.089236 34.787077 -5.677682
29.20041 22.141108 -4.606891
28.479411 22.434105 -5.023544
28.993305 23.758194 -4.885332
29.940935 21.854245 -4.190466
29.20041 22.141108 -4.606891
30.626895 21.677524 -3.739556
29.940935 21.854245 -4.190466
30.400264 23.288476 -4.017769
31.372442 21.539305 -3.27153
30.626895 21.677524 -3.739556
32.067254 21.361043 -2.729029
31.372442 21.539305 -3.27153
31.781036 22.933493 -3.024359
32.800216 21.230776 -2.183869
32.067254 21.361043 -2.729029
32.800216 21.230776 -2.183869
33.103141 22.467486 -1.903215
11.558346 66.353443 -33.823985
12.12509 66.813523 -32.966198
11.044312 65.767029 -34.680782
11.558346 66.353443 -33.823985
11.499384 64.747433 -33.764643
10.468493 65.040108 -35.553076
11.044312 65.767029 -34.680782
10.462357 63.414516 -35.539276
9.945501 64.293606 -36.470911
10.468493 65.040108 -35.553076
13.622184 29.336405 -18.54295
13.560032 29.490228 -19.325294
13.510466 30.930934 -19.054172
20.627111 43.290024 -11.916021
20.052502 43.59893 -12.421906
20.632972 44.95832 -12.331267
20.562321 41.552139 -11.582031
20.627111 43.290024 -11.916021
21.142791 42.91153 -11.491392
31.453899 32.140866 -1.701469
31.075935 32.494543 -2.350842
31.898158 31.796491 -1.054688
31.919483 30.689881 -1.626866
31.453899 32.140866 -1.701469
32.231899 31.444038 -0.354735
31.898158 31.796491 -1.054688
32.635249 31.062944 0.320917
32.767092 29.964413 -0.304432
32.231899 31.444038 -0.354735
32.960731 30.611792 1.072275
32.635249 31.062944 0.320917
33.503284 29.252928 1.073233
32.960731 30.611792 1.072275
16.077809 69.216648 -27.036959
16.66763 69.302147 -26.139352
16.077809 69.216648 -27.036959
15.826936 67.761593 -27.011157
14.72899 67.222668 -28.64112
14.372277 68.433625 -29.552551
14.417272 65.693238 -28.638556
14.72899 67.222668 -28.64112
14.981269 66.104466 -27.823889
9.213773 49.8724 -41.875725
9.74085 49.194813 -41.173908
11.106498 46.77148 -38.883741
11.529642 45.942115 -38.037876
15.011533 32.060957 -14.233885
14.689357 32.18401 -14.796616
14.956172 33.709944 -14.684509
15.011533 32.060957 -14.233885
15.317003 31.905585 -13.709526
16.834043 34.503689 -12.616328
17.322264 36.097794 -12.583776
17.324338 34.205815 -12.137429
16.421211 32.872748 -12.635224
16.419138 34.764727 -13.081571
16.834043 34.503689 -12.616328
16.016101 31.376578 -12.725793
16.421211 32.872748 -12.635224
15.680982 31.679032 -13.198871
16.016101 31.376578 -12.725793
22.570597 55.40435 -13.146033
22.132714 55.8561 -13.847112
22.634591 53.746446 -12.701237
22.570597 55.40435 -13.146033
22.642569 52.067083 -12.262646
22.172449 52.433922 -12.896242
22.634591 53.746446 -12.701237
24.344958 53.4431 -10.316813
24.450079 51.809565 -10.029767
23.947093 54.016642 -11.072198
24.344958 53.4431 -10.316813
23.575454 52.887873 -11.377614
23.947093 54.016642 -11.072198
23.575454 52.887873 -11.377614
23.623819 51.307209 -11.003405
22.690935 50.48642 -11.888437
22.642569 52.067083 -12.262646
22.219409 49.13361 -12.050231
22.690935 50.48642 -11.888437
23.713227 47.898825 -10.361626
24.208917 47.371361 -9.82994
22.795867 41.673389 -10.106437
22.248024 42.023066 -10.56707
22.837191 39.981763 -9.830902
22.795867 41.673389 -10.106437
23.40708 41.428049 -9.683558
25.583789 39.83226 -7.883614
26.082219 39.339849 -7.385215
25.019834 40.140787 -8.31269
25.583789 39.83226 -7.883614
25.131498 38.429132 -8.121277
24.511145 40.504602 -8.779222
25.019834 40.140787 -8.31269
24.007973 39.237041 -8.979188
23.951575 41.003984 -9.208057
24.511145 40.504602 -8.779222
23.198691 27.628112 -7.897156
22.540629 27.948889 -8.217075
23.123867 29.503049 -8.195215
23.198691 27.628112 -7.897156
23.901003 27.428774 -7.599789
25.928007 26.465143 -6.618286
26.643937 26.241923 -6.28873
26.110991 24.785915 -6.366238
25.225664 26.680575 -6.963138
25.75861 28.136584 -6.885631
25.928007 26.465143 -6.618286
24.538172 27.013646 -7.277384
25.225664 26.680575 -6.963138
33.677381 27.164513 -0.145574
33.190995 28.581343 -0.219555
33.656828 28.166489 0.445201
33.633137 26.123137 -0.668704
33.677381 27.164513 -0.145574
34.098971 25.708284 -0.003948
33.89258 23.423324 -0.925825
33.346495 23.634962 -1.574021
33.50864 24.878546 -1.175274
33.89258 23.423324 -0.925825
34.457211 23.154964 -0.312613
7.150459 55.611711 -42.555779
7.527922 56.619326 -41.696468
7.429161 54.124987 -42.785244
7.150459 55.611711 -42.555779
8.0582 53.52817 -42.046383
7.429161 54.124987 -42.785244
8.621734 52.741287 -41.319107
8.0582 53.52817 -42.046383
8.342506 54.243871 -41.09071
9.181207 51.987505 -40.583196
8.8969 51.271803 -41.53887
8.621734 52.741287 -41.319107
11.662323 46.804653 -35.90353
11.552673 46.349255 -36.955647
11.305276 47.79945 -36.657253
11.960236 45.737026 -35.095343
11.662323 46.804653 -35.90353
11.712839 47.187221 -34.796949
12.261442 44.715364 -34.257506
11.960236 45.737026 -35.095343
12.52221 43.494243 -33.41184
12.261442 44.715364 -34.257506
12.271521 44.898474 -33.143097
12.792136 42.292969 -32.678165
12.52221 43.494243 -33.41184
12.792136 42.292969 -32.678165
12.736758 42.441326 -31.551268
12.889814 41.501245 -29.737322
12.743567 42.746282 -30.488424
12.692155 43.042229 -29.420642
12.889814 41.501245 -29.737322
13.043052 40.323309 -28.990138
13.402037 36.349233 -26.751753
13.301309 37.671276 -27.473641
13.197989 37.704149 -26.473036
13.402037 36.349233 -26.751753
13.531142 35.009035 -26.080245
13.404723 33.760659 -23.50141
13.328936 35.202509 -24.143405
13.250541 35.282294 -23.251904
13.505571 32.336224 -22.883503
13.413018 32.36307 -22.028988
13.592261 30.858852 -22.302582
13.404723 33.760659 -23.50141
13.505571 32.336224 -22.883503
3 0 55 53
3 1 58 56
3 1 59 58
3 2 205 207
3 205 60 206
3 205 206 207
3 2 62 60
3 2 64 62
3 3 66 65
3 3 68 66
3 3 70 68
3 0 73 71
3 0 53 73
3 4 77 75
3 6 208 210
3 210 209 78
3 208 209 210
3 6 211 212
3 7 213 214
3 7 215 217
3 215 81 216
3 215 216 217
3 7 83 81
3 4 86 84
3 4 75 86
3 9 218 220
3 220 219 88
3 218 219 220
3 5 91 89
3 221 92 222
3 224 223 92
3 10 225 226
3 10 227 229
3 227 94 228
3 227 228 229
3 10 96 94
3 231 230 97
3 11 100 99
3 11 101 100
3 11 103 101
3 12 106 104
3 12 108 106
3 8 111 109
3 13 114 112
3 13 116 114
3 13 118 116
3 233 232 119
3 14 123 121
3 234 124 235
3 236 125 237
3 238 237 124
3 236 237 238
3 239 127 240
3 14 241 243
3 241 128 242
3 241 242 243
3 14 121 128
3 17 244 246
3 246 245 129
3 244 245 246
3 18 247 249
3 249 248 54
3 247 248 249
3 18 250 251
3 19 132 130
3 253 252 57
3 20 254 255
3 20 256 257
3 21 258 259
3 21 260 262
3 260 133 261
3 260 261 262
3 21 135 133
3 23 136 61
3 23 137 136
3 23 138 137
3 24 139 63
3 24 263 265
3 265 264 139
3 263 264 265
3 25 140 67
3 25 141 140
3 25 143 141
3 27 144 69
3 27 145 144
3 28 148 146
3 30 149 72
3 30 150 149
3 30 152 150
3 17 153 74
3 17 129 153
3 32 156 154
3 34 157 76
3 34 158 157
3 15 159 122
3 35 160 79
3 35 161 160
3 35 162 161
3 266 163 267
3 268 164 269
3 270 269 163
3 268 269 270
3 37 271 273
3 273 272 80
3 271 272 273
3 37 274 276
3 274 166 275
3 274 275 276
3 37 168 166
3 39 169 82
3 39 170 169
3 16 171 126
3 40 172 85
3 40 173 172
3 40 174 173
3 32 175 87
3 32 154 175
3 41 277 278
3 33 176 155
3 42 177 90
3 42 279 281
3 281 280 177
3 279 280 281
3 283 282 131
3 43 284 286
3 284 178 285
3 284 285 286
3 43 287 289
3 289 288 178
3 287 288 289
3 43 290 291
3 292 179 293
3 44 180 93
3 44 181 180
3 44 182 181
3 45 183 95
3 45 294 296
3 296 295 183
3 294 295 296
3 22 184 134
3 298 297 98
3 36 185 165
3 299 186 300
3 302 301 186
3 46 303 304
3 46 305 307
3 305 187 306
3 305 306 307
3 46 188 187
3 47 189 102
3 47 190 189
3 26 191 142
3 48 192 105
3 48 193 192
3 48 194 193
3 49 195 107
3 49 308 310
3 310 309 195
3 308 309 310
3 38 196 167
3 50 197 110
3 50 198 197
3 29 199 147
3 51 200 113
3 51 201 200
3 51 202 201
3 52 203 115
3 52 311 313
3 313 312 203
3 311 312 313
3 52 314 315
3 317 316 117
3 31 204 151
3 319 318 120
3 321 320 14
3 322 14 323
3 53 54 17
3 55 54 53
3 55 18 54
3 56 57 19
3 58 57 56
3 58 324 326
3 326 325 57
3 324 325 326
3 58 327 328
3 59 329 331
3 331 330 58
3 329 330 331
3 59 332 334
3 332 20 333
3 332 333 334
3 60 335 336
3 60 337 339
3 337 21 338
3 337 338 339
3 60 61 21
3 62 61 60
3 62 23 61
3 62 63 23
3 64 63 62
3 64 24 63
3 65 340 341
3 66 342 344
3 344 343 65
3 342 343 344
3 66 345 346
3 66 347 349
3 347 67 348
3 347 348 349
3 68 67 66
3 68 25 67
3 68 69 25
3 70 69 68
3 70 27 69
3 71 72 28
3 73 72 71
3 73 30 72
3 73 74 30
3 53 74 73
3 53 17 74
3 75 76 32
3 77 76 75
3 77 34 76
3 78 79 15
3 350 79 351
3 352 351 78
3 350 351 352
3 353 35 354
3 355 354 79
3 353 354 355
3 357 356 35
3 358 80 359
3 81 360 362
3 360 80 361
3 360 361 362
3 81 37 80
3 81 82 37
3 83 82 81
3 83 39 82
3 84 85 16
3 86 85 84
3 86 40 85
3 86 87 40
3 75 87 86
3 75 32 87
3 88 363 365
3 365 364 41
3 363 364 365
3 367 366 88
3 89 90 33
3 91 90 89
3 91 42 90
3 92 368 369
3 92 370 372
3 370 43 371
3 370 371 372
3 92 373 375
3 375 374 43
3 373 374 375
3 377 376 92
3 378 93 379
3 94 380 382
3 380 93 381
3 380 381 382
3 94 44 93
3 94 95 44
3 96 95 94
3 96 45 95
3 97 98 22
3 383 98 384
3 385 384 97
3 383 384 385
3 387 386 98
3 389 388 36
3 99 390 391
3 100 392 394
3 394 393 99
3 392 393 394
3 100 395 396
3 100 397 398
3 101 399 401
3 401 400 100
3 399 400 401
3 101 402 404
3 402 46 403
3 402 403 404
3 101 102 46
3 103 102 101
3 103 47 102
3 104 105 26
3 106 105 104
3 106 48 105
3 106 107 48
3 108 107 106
3 108 49 107
3 109 110 38
3 111 110 109
3 111 50 110
3 112 113 29
3 114 113 112
3 114 51 113
3 114 115 51
3 116 115 114
3 116 52 115
3 116 117 52
3 118 117 116
3 118 405 407
3 407 406 117
3 405 406 407
3 119 120 31
3 408 120 409
3 410 409 119
3 408 409 410
3 412 411 120
3 121 122 4
3 123 122 121
3 123 15 122
3 413 123 414
3 415 414 14
3 413 414 415
3 124 416 418
3 416 123 417
3 416 417 418
3 124 15 123
3 124 78 15
3 125 78 124
3 125 6 78
3 419 7 420
3 421 126 422
3 423 422 7
3 421 422 423
3 127 424 426
3 424 126 425
3 424 425 426
3 127 16 126
3 427 127 428
3 128 429 431
3 429 127 430
3 429 430 431
3 128 16 127
3 128 84 16
3 121 84 128
3 121 4 84
3 433 432 9
3 129 434 435
3 437 436 129
3 54 438 440
3 440 439 17
3 438 439 440
3 442 441 54
3 130 131 5
3 132 131 130
3 132 443 445
3 445 444 131
3 443 444 445
3 57 132 19
3 446 132 447
3 448 447 57
3 446 447 448
3 450 449 132
3 133 451 452
3 133 453 455
3 453 10 454
3 453 454 455
3 133 134 10
3 135 134 133
3 135 22 134
3 61 135 21
3 136 135 61
3 136 22 135
3 136 97 22
3 137 97 136
3 137 456 458
3 458 457 97
3 456 457 458
3 137 459 460
3 138 461 463
3 463 462 137
3 461 462 463
3 138 464 465
3 63 138 23
3 139 138 63
3 139 466 468
3 468 467 138
3 466 467 468
3 139 469 470
3 472 471 139
3 67 473 474
3 140 475 477
3 477 476 67
3 475 476 477
3 140 478 479
3 140 480 482
3 480 99 481
3 480 481 482
3 141 99 140
3 141 11 99
3 141 142 11
3 143 142 141
3 143 26 142
3 69 143 25
3 144 143 69
3 144 26 143
3 144 104 26
3 145 104 144
3 145 12 104
3 146 147 8
3 148 147 146
3 148 29 147
3 72 148 28
3 149 148 72
3 149 29 148
3 149 112 29
3 150 112 149
3 150 13 112
3 150 151 13
3 152 151 150
3 152 31 151
3 74 152 30
3 153 152 74
3 153 31 152
3 153 119 31
3 129 119 153
3 129 483 485
3 485 484 119
3 483 484 485
3 154 155 0
3 156 155 154
3 156 33 155
3 76 156 32
3 157 156 76
3 157 33 156
3 157 89 33
3 158 89 157
3 158 5 89
3 122 77 4
3 159 77 122
3 159 34 77
3 79 159 15
3 160 159 79
3 160 34 159
3 160 158 34
3 161 158 160
3 161 5 158
3 161 130 5
3 162 130 161
3 162 19 130
3 486 162 487
3 488 487 35
3 486 487 488
3 163 489 491
3 489 162 490
3 489 490 491
3 163 19 162
3 163 56 19
3 164 56 163
3 164 1 56
3 492 2 493
3 494 165 495
3 496 495 2
3 494 495 496
3 497 165 498
3 499 36 500
3 501 500 165
3 499 500 501
3 502 36 503
3 505 504 36
3 80 506 507
3 509 508 80
3 510 65 511
3 166 512 514
3 512 65 513
3 512 513 514
3 166 3 65
3 166 167 3
3 168 167 166
3 168 38 167
3 82 168 37
3 169 168 82
3 169 38 168
3 169 109 38
3 170 109 169
3 170 8 109
3 126 83 7
3 171 83 126
3 171 39 83
3 85 171 16
3 172 171 85
3 172 39 171
3 172 170 39
3 173 170 172
3 173 8 170
3 173 146 8
3 174 146 173
3 174 28 146
3 87 174 40
3 175 174 87
3 175 28 174
3 175 71 28
3 154 71 175
3 154 0 71
3 516 515 41
3 518 517 9
3 155 55 0
3 176 55 155
3 176 18 55
3 90 176 33
3 177 176 90
3 177 18 176
3 177 519 521
3 521 520 18
3 519 520 521
3 523 522 177
3 131 91 5
3 524 91 525
3 526 525 131
3 524 525 526
3 527 42 528
3 529 528 91
3 527 528 529
3 530 42 531
3 533 532 42
3 534 125 535
3 536 125 537
3 538 6 539
3 540 539 125
3 538 539 540
3 178 541 542
3 178 543 544
3 178 545 546
3 548 547 178
3 549 6 550
3 552 551 6
3 554 553 43
3 555 164 556
3 179 557 559
3 557 164 558
3 557 558 559
3 179 1 164
3 93 560 561
3 180 562 564
3 564 563 93
3 562 563 564
3 180 565 566
3 180 567 569
3 567 179 568
3 567 568 569
3 181 179 180
3 181 1 179
3 181 59 1
3 182 59 181
3 182 20 59
3 95 182 44
3 183 182 95
3 183 20 182
3 183 570 572
3 572 571 20
3 570 571 572
3 574 573 183
3 134 96 10
3 184 96 134
3 184 45 96
3 98 184 22
3 575 184 576
3 577 576 98
3 575 576 577
3 578 45 579
3 580 579 184
3 578 579 580
3 582 581 45
3 165 64 2
3 185 64 165
3 185 24 64
3 583 185 584
3 585 584 36
3 583 584 585
3 186 586 588
3 586 185 587
3 586 587 588
3 186 24 185
3 186 589 591
3 591 590 24
3 589 590 591
3 593 592 186
3 187 594 595
3 187 596 597
3 187 598 599
3 188 600 602
3 602 601 187
3 600 601 602
3 188 603 605
3 603 41 604
3 603 604 605
3 102 188 46
3 189 188 102
3 189 41 188
3 189 88 41
3 190 88 189
3 190 9 88
3 142 103 11
3 191 103 142
3 191 47 103
3 105 191 26
3 192 191 105
3 192 47 191
3 192 190 47
3 193 190 192
3 193 9 190
3 193 606 608
3 608 607 9
3 606 607 608
3 194 609 611
3 611 610 193
3 609 610 611
3 194 612 613
3 107 194 48
3 195 194 107
3 195 614 616
3 616 615 194
3 614 615 616
3 195 617 618
3 620 619 195
3 167 70 3
3 196 70 167
3 196 27 70
3 110 196 38
3 197 196 110
3 197 27 196
3 197 145 27
3 198 145 197
3 198 12 145
3 147 111 8
3 199 111 147
3 199 50 111
3 113 199 29
3 200 199 113
3 200 50 199
3 200 198 50
3 201 198 200
3 201 12 198
3 201 108 12
3 202 108 201
3 202 49 108
3 115 202 51
3 203 202 115
3 203 49 202
3 203 621 623
3 623 622 49
3 621 622 623
3 625 624 203
3 117 626 628
3 628 627 52
3 626 627 628
3 630 629 117
3 151 118 13
3 204 118 151
3 204 631 633
3 633 632 118
3 631 632 633
3 120 204 31
3 634 204 635
3 636 635 120
3 634 635 636
3 638 637 204
