ply
format ascii 1.0
element vertex 262
property float x
property float y
property float z
element face 262
property list uchar int vertex_index
end_header
-10.263027 -107.35881 -15.650969
-1.601586 -103.52253 -18.072569
-17.109613 -106.913513 -17.189896
-6.291302 -103.33226 -8.486573
3.267058 -97.277924 -8.975891
-6.48677 -106.161041 -16.973696
0.770129 -97.083694 -4.3232
-1.37715 -100.678131 -8.907367
-3.908505 -99.850021 -3.992502
-20.702953 -104.746986 -17.388226
3.377088 -99.730598 -18.349476
-12.734025 -106.810249 -11.964457
-13.454274 -107.674767 -16.489532
-16.800638 -106.678642 -12.253839
-20.550327 -105.068741 -12.124619
-10.917928 -104.792297 -7.721639
-8.58135 -105.929985 -12.431474
1.010076 -100.666069 -13.64746
-4.006949 -103.959503 -13.26213
-8.635518 -106.941956 -16.234592
-7.939332 -106.874275 -18.320955
-9.903821 -107.422165 -17.374952
-1.482029 -98.484116 -4.131856
0.939102 -101.700386 -18.149654
-14.145479 -106.134781 -9.6619
-14.842307 -106.869232 -11.964613
-16.202679 -106.099281 -9.740787
-19.993996 -104.929665 -9.650033
-21.68548 -103.803703 -9.610712
-22.033255 -103.89473 -12.468111
-23.139887 -102.391327 -9.823745
-13.146132 -105.186577 -7.548164
-12.050659 -105.940605 -9.810567
4.559561 -97.074951 -11.46461
3.534567 -98.731262 -14.05277
2.24718 -99.004364 -11.44257
-3.753938 -102.087128 -8.748746
-2.732686 -102.492996 -11.256813
-5.124846 -103.685898 -10.723489
-6.364041 -105.037994 -12.671062
-7.542655 -104.756729 -10.43964
-15.264047 -107.450958 -16.779325
-13.257844 -107.615868 -18.689604
-15.225049 -107.237526 -19.235786
-4.159854 -105.022659 -17.437407
0.967411 -99.038475 -8.906091
-0.193065 -98.847855 -6.584625
-2.720372 -100.418465 -6.468906
-5.136182 -101.659645 -6.212933
-18.988314 -106.001976 -17.321175
-17.102037 -106.518867 -19.665842
-18.874922 -105.499969 -19.830399
-11.415367 -107.23304 -14.056744
-11.701962 -107.611481 -15.990908
-13.240942 -107.420364 -14.217925
-15.140982 -107.328667 -14.343625
-17.056746 -106.950256 -14.702065
-18.136919 -105.722435 -9.793922
-18.689947 -106.093132 -12.332602
-18.928188 -106.19976 -14.818298
-20.645876 -105.116898 -14.834582
-6.378362 -100.828903 -3.414489
-7.395277 -102.61895 -5.918517
-9.843297 -103.422607 -5.57332
-8.711285 -104.226517 -8.096743
-9.772772 -105.48188 -10.130676
-10.686825 -106.50383 -12.158291
-9.515414 -106.814301 -14.224338
4.609113 -98.293709 -16.255331
2.190173 -100.341087 -16.080294
-0.219313 -102.160339 -15.879264
-0.290234 -100.891022 -11.357056
-1.577128 -102.527824 -13.608433
-2.615663 -103.763756 -15.685635
-5.199602 -105.168625 -15.191465
-7.478367 -106.143761 -14.640574
-11.54293 -107.660278 -18.011049
-0.996662 -103.195805 -19.179532
0.273682 -102.284733 -19.218075
-0.331242 -102.611458 -18.111111
-15.832866 -105.676319 -8.540425
-15.174079 -106.117031 -9.701344
-14.804267 -105.694069 -8.500982
-22.187271 -103.013095 -8.316385
-21.435911 -103.615398 -8.270933
-22.914475 -102.306907 -8.422902
-22.412683 -103.097515 -9.717229
-22.187271 -103.013095 -8.316385
-14.304593 -105.219967 -7.444114
-13.810495 -104.676224 -6.265916
-14.804267 -105.694069 -8.500982
-13.645805 -105.660679 -8.605032
-14.304593 -105.219967 -7.444114
4.461735 -96.269722 -9.0278
3.867072 -96.301922 -7.814964
3.91331 -97.176437 -10.220251
5.107987 -96.168236 -10.27216
4.461735 -96.269722 -9.0278
-6.005375 -106.023628 -18.04167
-4.841918 -105.454437 -18.273525
-5.323312 -105.59185 -17.205551
-7.530273 -106.699528 -19.385704
-8.752306 -107.085518 -18.893861
1.94033 -96.20869 -4.298137
1.337202 -96.037231 -3.077323
1.449148 -97.126285 -5.453233
1.94033 -96.20869 -4.298137
0.288532 -97.965774 -5.453912
0.967552 -98.008366 -6.583945
1.449148 -97.126285 -5.453233
3.999265 -99.279919 -19.519092
4.575628 -98.649174 -18.452127
-18.747909 -105.069607 -8.421958
-17.827466 -105.361786 -8.499369
-22.119681 -103.767865 -13.727237
-22.720076 -103.081097 -12.518446
-7.548893 -101.284916 -3.295605
-6.886323 -100.336975 -2.115204
-8.05735 -102.179939 -4.547618
-6.886819 -101.723927 -4.666503
-7.548893 -101.284916 -3.295605
-10.380612 -104.107452 -6.647479
-11.054776 -103.707778 -5.451742
-11.592092 -104.392623 -6.525902
5.19078 -97.489682 -15.083196
5.834229 -97.114132 -16.211058
-12.225187 -107.517525 -19.494609
-13.142257 -107.444862 -19.820189
-15.95047 -106.656013 -20.630547
-16.849086 -106.253689 -20.860123
-9.734551 -107.359463 -18.420859
-8.752306 -107.085518 -18.893861
-8.921577 -107.14822 -17.847954
0.167271 -96.802017 -3.019278
1.337202 -96.037231 -3.077323
-0.958808 -97.502228 -2.923606
-0.35595 -97.783905 -4.227528
0.167271 -96.802017 -3.019278
-2.110764 -98.193509 -2.891885
-0.958808 -97.502228 -2.923606
-3.324002 -98.876461 -2.822208
-2.695267 -99.167068 -4.062179
-2.110764 -98.193509 -2.891885
-20.523942 -104.502006 -18.713707
-21.331792 -104.039986 -17.591384
1.54705 -101.324192 -19.345273
2.766043 -100.339298 -19.445184
2.158095 -100.715492 -18.249565
1.54705 -101.324192 -19.345273
0.273682 -102.284733 -19.218075
-20.590169 -104.17838 -8.290593
-19.676448 -104.673222 -8.350013
-20.839738 -104.366684 -9.630373
-20.590169 -104.17838 -8.290593
-21.435911 -103.615398 -8.270933
-23.273392 -102.329396 -11.196264
-22.720076 -103.081097 -12.518446
-22.586571 -103.143028 -11.145928
-12.706194 -104.589764 -6.439165
-13.810495 -104.676224 -6.265916
-12.03203 -104.989437 -7.634901
-11.592092 -104.392623 -6.525902
-12.706194 -104.589764 -6.439165
5.734952 -95.986427 -11.463636
5.107987 -96.168236 -10.27216
5.166004 -96.880302 -12.687836
5.734952 -95.986427 -11.463636
4.047064 -97.903107 -12.75869
4.653507 -97.708458 -13.981916
5.166004 -96.880302 -12.687836
-14.12586 -107.255692 -20.09328
-13.142257 -107.444862 -19.820189
-14.241447 -107.426697 -18.962695
-3.63866 -104.821003 -18.598839
-2.359526 -104.070939 -18.91642
-2.88072 -104.272594 -17.754988
-3.63866 -104.821003 -18.598839
-4.841918 -105.454437 -18.273525
-6.731656 -106.380245 -18.7153
-6.005375 -106.023628 -18.04167
-7.213051 -106.517658 -17.647326
-6.731656 -106.380245 -18.7153
-7.530273 -106.699528 -19.385704
2.697613 -97.2234 -7.779578
3.867072 -96.301922 -7.814964
1.547789 -98.103676 -7.744678
2.117234 -98.158199 -8.940991
2.697613 -97.2234 -7.779578
0.387173 -98.943165 -7.745358
1.547789 -98.103676 -7.744678
0.967552 -98.008366 -6.583945
-17.735529 -105.744239 -20.942401
-16.849086 -106.253689 -20.860123
-17.98848 -106.009418 -19.74812
-19.609927 -104.878498 -19.934793
-19.788938 -105.123478 -18.609313
-20.523942 -104.502006 -18.713707
-18.613329 -105.174678 -21.077255
-19.609927 -104.878498 -19.934793
-17.735529 -105.744239 -20.942401
-18.613329 -105.174678 -21.077255
3.999265 -99.279919 -19.519092
2.766043 -100.339298 -19.445184
-0.996662 -103.195805 -19.179532
-2.359526 -104.070939 -18.91642
-16.860346 -105.550209 -8.472801
-15.832866 -105.676319 -8.540425
-17.169799 -105.910858 -9.767354
-16.860346 -105.550209 -8.472801
-17.827466 -105.361786 -8.499369
-19.065458 -105.32605 -9.721978
-18.747909 -105.069607 -8.421958
-19.676448 -104.673222 -8.350013
-21.425992 -104.378949 -14.910472
-21.339565 -104.505814 -13.651346
-22.119681 -103.767865 -13.727237
-21.454531 -104.193993 -16.187294
-20.674415 -104.931942 -16.111404
-21.425992 -104.378949 -14.910472
-21.331792 -104.039986 -17.591384
-21.454531 -104.193993 -16.187294
-23.576992 -101.494446 -8.4508
-22.914475 -102.306907 -8.422902
-23.745477 -101.500504 -9.83091
-23.576992 -101.494446 -8.4508
-23.273392 -102.329396 -11.196264
-23.745477 -101.500504 -9.83091
-4.448199 -99.413452 -2.67262
-3.324002 -98.876461 -2.822208
-5.683127 -99.902893 -2.383613
-6.886323 -100.336975 -2.115204
-5.143434 -100.339462 -3.703495
-4.448199 -99.413452 -2.67262
-5.683127 -99.902893 -2.383613
-10.421556 -102.937007 -4.284359
-11.054776 -103.707778 -5.451742
-9.28136 -102.581768 -4.37502
-10.421556 -102.937007 -4.284359
-8.619287 -103.020779 -5.745919
-8.05735 -102.179939 -4.547618
-9.28136 -102.581768 -4.37502
5.191641 -97.930729 -17.405055
5.834229 -97.114132 -16.211058
3.9931 -99.012154 -17.302404
4.575628 -98.649174 -18.452127
5.191641 -97.930729 -17.405055
4.07184 -98.512485 -15.154051
5.19078 -97.489682 -15.083196
4.653507 -97.708458 -13.981916
-10.554105 -107.47852 -18.738907
-9.734551 -107.359463 -18.420859
-10.723375 -107.541222 -17.693001
-11.36773 -107.53973 -19.155331
-12.400387 -107.638073 -18.350327
-12.225187 -107.517525 -19.494609
-10.554105 -107.47852 -18.738907
-11.36773 -107.53973 -19.155331
-15.011976 -107.015343 -20.41552
-16.163543 -106.878197 -19.450814
-15.95047 -106.656013 -20.630547
-14.12586 -107.255692 -20.09328
-15.011976 -107.015343 -20.41552
3 0 21 19
3 1 77 79
3 79 78 23
3 77 78 79
3 80 26 81
3 82 81 24
3 80 81 82
3 83 28 84
3 85 30 86
3 87 86 28
3 85 86 87
3 88 31 89
3 90 24 91
3 92 91 31
3 90 91 92
3 4 93 94
3 4 95 97
3 95 33 96
3 95 96 97
3 4 35 33
3 3 38 36
3 3 40 38
3 2 43 41
3 5 98 100
3 100 99 44
3 98 99 100
3 102 101 20
3 6 103 104
3 6 105 106
3 6 107 109
3 107 46 108
3 107 108 109
3 8 47 22
3 8 48 47
3 9 51 49
3 10 110 111
3 11 54 52
3 13 55 25
3 13 56 55
3 112 57 113
3 14 58 27
3 14 59 58
3 14 60 59
3 115 114 29
3 116 61 117
3 118 62 119
3 120 119 61
3 118 119 120
3 15 121 123
3 121 63 122
3 121 122 123
3 15 64 63
3 15 65 64
3 11 66 32
3 11 52 66
3 124 68 125
3 17 69 34
3 17 70 69
3 7 71 45
3 18 72 37
3 18 73 72
3 18 74 73
3 16 75 39
3 16 67 75
3 12 76 53
3 127 126 42
3 129 128 50
3 19 20 5
3 21 20 19
3 21 130 132
3 132 131 20
3 130 131 132
3 133 6 134
3 135 22 136
3 137 136 6
3 135 136 137
3 138 22 139
3 140 8 141
3 142 141 22
3 140 141 142
3 144 143 9
3 23 145 147
3 147 146 10
3 145 146 147
3 149 148 23
3 24 25 11
3 26 25 24
3 26 13 25
3 150 27 151
3 28 152 154
3 152 27 153
3 152 153 154
3 28 14 27
3 28 29 14
3 30 29 28
3 30 155 157
3 157 156 29
3 155 156 157
3 31 158 159
3 31 160 162
3 160 15 161
3 160 161 162
3 31 32 15
3 24 32 31
3 24 11 32
3 33 163 164
3 33 165 166
3 33 167 169
3 167 34 168
3 167 168 169
3 35 34 33
3 35 17 34
3 36 37 7
3 38 37 36
3 38 18 37
3 38 39 18
3 40 39 38
3 40 16 39
3 41 42 12
3 43 42 41
3 43 170 172
3 172 171 42
3 170 171 172
3 44 173 175
3 175 174 1
3 173 174 175
3 177 176 44
3 20 178 180
3 180 179 5
3 178 179 180
3 182 181 20
3 183 4 184
3 185 45 186
3 187 186 4
3 185 186 187
3 46 188 190
3 188 45 189
3 188 189 190
3 46 7 45
3 22 46 6
3 47 46 22
3 47 7 46
3 47 36 7
3 48 36 47
3 48 3 36
3 49 50 2
3 51 50 49
3 51 191 193
3 193 192 50
3 191 192 193
3 194 51 195
3 196 195 9
3 194 195 196
3 197 51 198
3 200 199 51
3 202 201 10
3 204 203 1
3 52 53 0
3 54 53 52
3 54 12 53
3 25 54 11
3 55 54 25
3 55 12 54
3 55 41 12
3 56 41 55
3 56 2 41
3 205 26 206
3 57 207 209
3 207 26 208
3 207 208 209
3 57 13 26
3 27 210 212
3 210 57 211
3 210 211 212
3 58 57 27
3 58 13 57
3 58 56 13
3 59 56 58
3 59 2 56
3 59 49 2
3 60 49 59
3 60 9 49
3 29 60 14
3 213 60 214
3 215 214 29
3 213 214 215
3 216 9 217
3 218 217 60
3 216 217 218
3 220 219 9
3 221 30 222
3 223 30 224
3 226 225 30
3 227 8 228
3 61 229 230
3 61 231 233
3 231 8 232
3 231 232 233
3 61 48 8
3 62 48 61
3 62 3 48
3 63 234 235
3 63 236 237
3 63 238 240
3 238 62 239
3 238 239 240
3 64 62 63
3 64 3 62
3 64 40 3
3 65 40 64
3 65 16 40
3 32 65 15
3 66 65 32
3 66 16 65
3 66 67 16
3 52 67 66
3 52 0 67
3 68 241 242
3 68 243 245
3 243 10 244
3 243 244 245
3 34 246 248
3 246 68 247
3 246 247 248
3 69 68 34
3 69 10 68
3 69 23 10
3 70 23 69
3 70 1 23
3 45 35 4
3 71 35 45
3 71 17 35
3 37 71 7
3 72 71 37
3 72 17 71
3 72 70 17
3 73 70 72
3 73 1 70
3 73 44 1
3 74 44 73
3 74 5 44
3 39 74 18
3 75 74 39
3 75 5 74
3 75 19 5
3 67 19 75
3 67 0 19
3 53 21 0
3 76 21 53
3 76 249 251
3 251 250 21
3 249 250 251
3 42 76 12
3 252 76 253
3 254 253 42
3 252 253 254
3 256 255 76
3 50 43 2
3 257 43 258
3 259 258 50
3 257 258 259
3 261 260 43
