ply
format ascii 1.0
element vertex 296
property float x
property float y
property float z
element face 299
property list uchar int vertex_index
end_header
-4.593953 53.987244 45.228649
-2.797316 65.352928 37.504208
-6.436675 41.475033 52.191711
0.758372 42.165726 47.515606
-0.995671 53.621956 43.1618
-3.645874 59.935993 41.414646
0.043891 59.379417 39.296467
0.977802 64.63871 35.303284
-3.874609 35.774654 52.950863
-2.765766 41.644817 49.801121
-8.236716 54.0354 47.612827
-7.409298 60.105587 43.823128
-6.522352 65.967613 39.64109
-5.583081 71.399277 35.140461
-1.681242 70.492157 33.056473
1.943679 69.417961 31.088472
-9.857556 40.758076 54.792248
-8.937229 47.310925 51.276867
-5.480139 47.849987 48.742054
-1.924144 47.765381 46.568802
1.756518 47.752068 44.39233
0.939901 53.449768 42.046135
-0.363103 56.355904 41.299503
-2.017225 35.894512 51.769825
-6.451888 53.997833 46.436001
-7.794909 57.109619 45.730103
-6.044431 57.096241 44.564266
-3.251546 62.785667 39.454231
-4.952628 62.923038 40.511269
-4.710239 65.965141 38.408573
-6.074071 68.867561 37.349598
-4.074984 68.573799 36.176128
-3.595396 71.095634 33.974743
-2.197493 67.973274 35.288067
2.813831 64.114365 34.260818
1.532218 67.017975 33.221889
3.256516 66.541252 32.177532
-6.761565 38.149467 53.821281
-8.584855 38.109184 55.056641
-8.098793 41.126495 53.445553
-9.362038 44.051788 53.021599
-7.580682 44.430119 51.655064
-7.210299 47.610138 49.9818
-5.837838 44.536915 50.461128
-1.043934 41.755119 48.73101
-2.355607 44.672344 48.226334
-0.610096 44.798622 47.136482
-0.01707 47.741539 45.446941
1.285083 44.978718 45.954868
-2.771922 54.036572 44.049236
-4.09962 56.99638 43.343479
-2.22358 56.749752 42.273209
-1.826321 59.516697 40.461002
-1.349187 62.263542 38.491196
-0.817108 64.84304 36.464054
0.584199 61.955715 37.343876
-5.065662 38.688053 52.495148
-4.54774 41.789856 50.841797
-3.283696 38.718636 51.365707
-1.529684 38.777988 50.287312
0.321558 38.994133 49.126522
1.183114 74.64106 27.347393
-10.006254 53.573627 49.036484
-11.297684 56.662231 48.321838
-9.562052 56.820423 47.079552
-9.131958 59.90823 45.10136
-8.847326 63.13427 43.010849
-5.468929 59.917549 42.627712
-6.901134 62.945305 41.809464
-5.089988 73.981422 32.747696
-3.162588 73.528503 31.724024
-1.2533 73.014755 30.720366
-0.338419 67.566696 34.238331
0.168724 69.937057 32.093739
0.66948 72.349106 29.762285
2.545964 71.634216 28.779043
-10.376077 37.50079 56.513069
-11.606582 40.428768 56.10128
-11.108847 43.774124 54.322388
-10.8181 47.27425 52.562962
-10.274248 50.410305 50.742561
-8.533491 50.833069 49.369755
-6.7265 50.777786 48.188751
-4.995103 50.846535 47.028606
-4.162342 44.769539 49.292774
-3.679669 47.639046 47.699631
-3.289096 50.944664 45.905888
-1.401097 50.728672 44.858109
0.378345 50.818493 43.741356
1.134423 54.92106 41.110515
1.856413 53.372532 41.494327
3.948087 65.007448 32.689757
3.035173 65.327809 33.219175
3.726745 63.794004 33.7314
4.151982 66.212952 31.63024
3.948087 65.007448 32.689757
1.672875 42.087522 47.02384
1.936231 43.494018 46.243471
1.021727 43.572222 46.735237
-4.707354 35.601488 53.550117
-4.063222 34.243949 53.687496
-4.470135 37.231353 52.723005
-5.30288 37.058188 53.32226
-4.707354 35.601488 53.550117
-0.855387 37.411566 50.460701
-1.773454 37.33625 51.028568
-1.099158 35.969828 51.201957
0.070234 37.519638 49.880306
-0.604063 38.88606 49.706917
-0.855387 37.411566 50.460701
0.935269 37.579698 49.362882
0.070234 37.519638 49.880306
1.47812 75.665516 26.129817
2.123893 74.236778 26.867888
-7.467631 66.013092 40.253479
-7.657022 64.501938 41.337666
-6.711743 64.456459 40.725277
-7.234897 67.461834 39.105958
-7.467631 66.013092 40.253479
-6.576633 71.629193 35.653874
-6.822128 70.363335 36.758442
-5.828576 70.133419 36.24503
-6.316172 72.957852 34.417185
-6.576633 71.629193 35.653874
-5.336534 72.690349 33.944079
-6.069625 74.248924 33.220802
-6.316172 72.957852 34.417185
2.017075 49.114485 43.566992
1.327988 50.647697 43.241505
1.067432 49.28528 44.066843
2.687956 47.689915 43.850706
2.017075 49.114485 43.566992
-12.019784 58.187799 47.954762
-11.144918 58.298096 47.328463
0.482921 56.374128 40.7372
0.288399 54.902836 41.672819
1.134423 54.92106 41.110515
0.686418 57.885885 39.735681
-0.159606 57.86766 40.297985
0.482921 56.374128 40.7372
0.929357 59.214756 38.785974
0.686418 57.885885 39.735681
-3.201949 34.404015 53.090433
-4.063222 34.243949 53.687496
-2.273257 34.463943 52.499914
-2.945917 35.834583 52.360344
-3.201949 34.404015 53.090433
-1.389174 34.561865 51.93511
-2.273257 34.463943 52.499914
-1.099158 35.969828 51.201957
-1.389174 34.561865 51.93511
3.523333 67.672848 31.080483
2.866915 69.111202 30.535953
2.600097 67.979607 31.633002
3.523333 67.672848 31.080483
4.151982 66.212952 31.63024
-7.67321 38.129326 54.438961
-7.938373 36.623386 55.236884
-7.026728 36.643528 54.619203
2.238386 44.908873 45.424805
2.474104 46.295547 44.643535
1.5208 46.365393 45.173599
2.238386 44.908873 45.424805
1.936231 43.494018 46.243471
1.199511 60.502905 37.809679
0.314045 60.667566 38.320172
0.929357 59.214756 38.785974
1.494474 61.742712 36.820095
1.199511 60.502905 37.809679
1.691275 63.08421 35.799799
0.781 63.297213 36.32358
1.494474 61.742712 36.820095
2.60929 62.822037 35.278566
1.895817 64.376538 34.782051
1.691275 63.08421 35.799799
3.451249 62.600555 34.774795
2.60929 62.822037 35.278566
3.726745 63.794004 33.7314
3.451249 62.600555 34.774795
-6.150832 36.788894 53.985326
-7.026728 36.643528 54.619203
-5.913614 38.41876 53.158214
-6.150832 36.788894 53.985326
-5.30288 37.058188 53.32226
1.195997 39.024002 48.616703
1.414404 40.609798 47.811245
0.539965 40.579929 48.321064
1.195997 39.024002 48.616703
0.935269 37.579698 49.362882
0.55011 76.105748 26.520488
0.28339 74.987377 27.7823
0.55011 76.105748 26.520488
1.47812 75.665516 26.129817
-10.651969 55.117929 48.679161
-11.532986 55.041023 49.300294
-10.88727 53.496721 49.657618
-10.277102 58.377191 46.707319
-11.144918 58.298096 47.328463
-10.429868 56.741327 47.700695
-10.062055 59.921095 45.718224
-10.277102 58.377191 46.707319
-9.347005 58.364327 46.090456
-9.853741 61.513928 44.641306
-10.062055 59.921095 45.718224
-9.711425 63.126947 43.596051
-9.853741 61.513928 44.641306
-8.989642 61.52125 44.056105
-9.570061 64.833367 42.412616
-9.711425 63.126947 43.596051
-8.630118 64.59642 41.938358
-7.87423 63.039788 42.410156
-7.657022 64.501938 41.337666
-9.570061 64.833367 42.412616
-8.630118 64.59642 41.938358
-7.010757 68.911808 37.960212
-7.234897 67.461834 39.105958
-6.298211 67.417587 38.495344
-7.010757 68.911808 37.960212
-6.822128 70.363335 36.758442
-5.810604 75.556377 31.918381
-6.069625 74.248924 33.220802
-4.869687 75.294262 31.464768
-5.810604 75.556377 31.918381
-3.905988 75.067802 30.952932
-4.869687 75.294262 31.464768
-4.126288 73.754963 32.23586
-2.853951 74.733597 30.45654
-3.905988 75.067802 30.952932
-1.899307 74.476722 29.954711
-2.853951 74.733597 30.45654
-2.207944 73.271629 31.222195
-0.934817 74.174224 29.468787
-1.899307 74.476722 29.954711
0.026573 73.8414 28.989746
-0.934817 74.174224 29.468787
-0.29191 72.68193 30.241325
0.926297 73.495083 28.554839
0.28339 74.987377 27.7823
0.026573 73.8414 28.989746
2.805318 72.733356 27.583714
2.123893 74.236778 26.867888
1.864539 73.137638 28.063218
3.168057 70.21933 29.381239
2.244822 70.526089 29.933757
2.866915 69.111202 30.535953
3.455858 71.295269 28.227131
3.168057 70.21933 29.381239
2.805318 72.733356 27.583714
3.455858 71.295269 28.227131
-8.839472 36.465503 55.90321
-7.938373 36.623386 55.236884
-9.735084 36.161307 56.631424
-8.839472 36.465503 55.90321
-9.480466 37.804987 55.784855
-10.630288 35.87253 57.340485
-9.735084 36.161307 56.631424
-11.255295 37.346085 57.151978
-10.630288 35.87253 57.340485
-11.870548 38.810074 56.946083
-11.255295 37.346085 57.151978
-10.991329 38.964779 56.307175
-12.520218 40.136791 56.80563
-11.870548 38.810074 56.946083
-12.264944 41.850605 55.91531
-12.520218 40.136791 56.80563
-12.016077 43.523283 55.025864
-12.264944 41.850605 55.91531
-11.357715 42.101446 55.211834
-11.829844 45.216203 54.153715
-12.016077 43.523283 55.025864
-11.68447 46.966267 53.274002
-11.829844 45.216203 54.153715
-10.963473 45.524187 53.442675
-11.425224 48.67524 52.314656
-11.68447 46.966267 53.274002
-11.153299 50.243267 51.404455
-11.425224 48.67524 52.314656
-10.546174 48.842278 51.652761
-11.021268 51.91506 50.510656
-11.153299 50.243267 51.404455
-10.140251 51.991966 49.889522
-10.88727 53.496721 49.657618
-11.021268 51.91506 50.510656
1.608766 51.963335 42.393894
0.659123 52.13413 42.893746
1.327988 50.647697 43.241505
1.856413 53.372532 41.494327
1.608766 51.963335 42.393894
2.687956 47.689915 43.850706
2.474104 46.295547 44.643535
1.672875 42.087522 47.02384
1.414404 40.609798 47.811245
-12.196345 56.451433 49.004825
-11.532986 55.041023 49.300294
-12.196345 56.451433 49.004825
-12.019784 58.187799 47.954762
3 90 89 21
3 0 26 24
3 1 29 27
3 1 31 29
3 1 33 31
3 91 36 92
3 93 92 34
3 91 92 93
3 95 94 36
3 2 39 37
3 2 41 39
3 2 43 41
3 3 46 44
3 3 48 46
3 3 96 98
3 98 97 48
3 96 97 98
3 4 51 49
3 6 52 22
3 6 53 52
3 6 55 53
3 8 99 100
3 8 101 103
3 101 56 102
3 101 102 103
3 8 58 56
3 104 59 105
3 106 105 23
3 104 105 106
3 107 60 108
3 109 108 59
3 107 108 109
3 111 110 60
3 113 112 61
3 10 64 62
3 11 65 25
3 11 66 65
3 5 67 50
3 12 68 28
3 12 114 116
3 116 115 68
3 114 115 116
3 12 117 118
3 13 119 121
3 121 120 30
3 119 120 121
3 13 122 123
3 13 124 126
3 124 69 125
3 124 125 126
3 14 70 32
3 14 71 70
3 7 72 54
3 15 73 35
3 15 74 73
3 15 75 74
3 16 76 38
3 16 77 76
3 16 78 77
3 17 79 40
3 17 80 79
3 17 81 80
3 18 82 42
3 18 83 82
3 9 84 57
3 19 85 45
3 19 86 85
3 19 87 86
3 20 88 47
3 20 127 129
3 129 128 88
3 127 128 129
3 20 130 131
3 133 132 63
3 21 22 4
3 134 22 135
3 136 135 21
3 134 135 136
3 137 6 138
3 139 138 22
3 137 138 139
3 141 140 6
3 142 8 143
3 144 23 145
3 146 145 8
3 144 145 146
3 147 23 148
3 150 149 23
3 24 25 10
3 26 25 24
3 26 11 25
3 27 28 5
3 29 28 27
3 29 12 28
3 29 30 12
3 31 30 29
3 31 13 30
3 31 32 13
3 33 32 31
3 33 14 32
3 34 35 7
3 36 35 34
3 36 15 35
3 36 151 153
3 153 152 15
3 151 152 153
3 155 154 36
3 37 156 158
3 156 38 157
3 156 157 158
3 39 38 37
3 39 16 38
3 39 40 16
3 41 40 39
3 41 17 40
3 41 42 17
3 43 42 41
3 43 18 42
3 44 45 9
3 46 45 44
3 46 19 45
3 46 47 19
3 48 47 46
3 48 20 47
3 48 159 161
3 161 160 20
3 159 160 161
3 163 162 48
3 49 50 0
3 51 50 49
3 51 5 50
3 22 51 4
3 52 51 22
3 52 5 51
3 52 27 5
3 53 27 52
3 53 1 27
3 53 54 1
3 55 54 53
3 55 7 54
3 164 55 165
3 166 165 6
3 164 165 166
3 167 55 168
3 169 7 170
3 171 170 55
3 169 170 171
3 172 34 173
3 174 173 7
3 172 173 174
3 175 34 176
3 178 177 34
3 179 37 180
3 56 181 183
3 181 37 182
3 181 182 183
3 56 2 37
3 56 57 2
3 58 57 56
3 58 9 57
3 23 58 8
3 59 58 23
3 59 9 58
3 59 44 9
3 60 44 59
3 60 3 44
3 60 184 186
3 186 185 3
3 184 185 186
3 188 187 60
3 61 189 190
3 192 191 61
3 62 193 195
3 193 63 194
3 193 194 195
3 64 63 62
3 64 196 198
3 198 197 63
3 196 197 198
3 25 64 10
3 65 64 25
3 65 199 201
3 201 200 64
3 199 200 201
3 65 202 203
3 66 204 206
3 206 205 65
3 204 205 206
3 66 207 208
3 50 26 0
3 67 26 50
3 67 11 26
3 28 67 5
3 68 67 28
3 68 11 67
3 68 66 11
3 209 66 210
3 211 210 68
3 209 210 211
3 213 212 66
3 30 214 216
3 216 215 12
3 214 215 216
3 218 217 30
3 69 219 220
3 69 221 222
3 32 69 13
3 70 69 32
3 70 223 225
3 225 224 69
3 223 224 225
3 70 226 227
3 71 228 230
3 230 229 70
3 228 229 230
3 71 231 232
3 54 33 1
3 72 33 54
3 72 14 33
3 35 72 7
3 73 72 35
3 73 14 72
3 73 71 14
3 74 71 73
3 74 233 235
3 235 234 71
3 233 234 235
3 74 236 238
3 236 61 237
3 236 237 238
3 75 61 74
3 75 239 241
3 241 240 61
3 239 240 241
3 242 75 243
3 244 243 15
3 242 243 244
3 245 75 246
3 248 247 75
3 38 249 250
3 76 251 253
3 253 252 38
3 251 252 253
3 76 254 255
3 76 256 257
3 77 258 260
3 260 259 76
3 258 259 260
3 77 261 262
3 77 263 264
3 78 265 267
3 267 266 77
3 265 266 267
3 78 268 269
3 40 78 16
3 79 78 40
3 79 270 272
3 272 271 78
3 270 271 272
3 79 273 274
3 80 275 277
3 277 276 79
3 275 276 277
3 80 278 279
3 80 280 282
3 280 62 281
3 280 281 282
3 81 62 80
3 81 10 62
3 42 81 17
3 82 81 42
3 82 10 81
3 82 24 10
3 83 24 82
3 83 0 24
3 57 43 2
3 84 43 57
3 84 18 43
3 45 84 9
3 85 84 45
3 85 18 84
3 85 83 18
3 86 83 85
3 86 0 83
3 86 49 0
3 87 49 86
3 87 4 49
3 47 87 19
3 88 87 47
3 88 4 87
3 88 21 4
3 283 21 284
3 285 284 88
3 283 284 285
3 287 286 21
3 289 288 20
3 291 290 3
3 63 292 293
3 295 294 63
