ply
format ascii 1.0
element vertex 250
property float x
property float y
property float z
element face 262
property list uchar int vertex_index
end_header
38.766216 -22.581221 11.36142
36.261192 -36.636971 18.116011
39.261776 -27.58552 4.995993
38.665218 -22.508972 20.44525
36.55138 -29.317961 24.142368
38.831509 -29.493685 15.213255
38.243729 -21.913918 6.814953
39.153309 -25.218908 8.34499
37.716724 -21.785332 24.606779
36.573269 -33.080791 21.424831
37.981461 -29.688328 19.782097
37.774391 -33.066753 16.775806
38.495647 -32.436893 11.716951
38.966675 -22.739258 15.835244
36.299271 -25.114038 26.611439
37.894089 -25.833654 22.541046
38.840721 -26.154871 17.988253
39.213024 -26.000933 13.293904
39.221519 -28.862436 10.248365
38.816212 -31.311802 6.494578
38.221169 -20.880171 10.302936
38.551796 -22.356474 9.077684
38.823254 -23.631927 7.634671
38.987946 -23.980759 9.978746
37.656384 -19.656946 25.326317
37.008064 -21.260544 26.479818
36.4566 -34.968548 19.812952
37.22451 -33.140007 19.222664
37.073284 -34.896317 17.38098
37.583584 -34.539696 14.928283
36.802681 -36.38821 15.663866
39.177876 -25.952135 4.252406
38.59956 -20.493134 21.290966
38.80085 -20.771013 19.119158
38.834789 -20.990992 16.989529
38.896198 -22.736053 18.166807
35.688225 -31.01285 24.90947
35.506172 -28.986784 26.295168
35.455025 -26.813988 27.337948
36.421822 -27.314631 25.447775
37.209911 -25.466599 24.588924
37.254601 -27.434322 23.534327
38.456173 -29.621235 17.638187
38.478157 -27.884886 19.022499
38.85812 -27.967747 16.645266
39.091763 -26.184994 15.589038
39.117748 -27.840607 14.212956
39.259785 -27.433975 11.877712
39.07383 -29.296629 12.74074
38.699863 -31.929962 9.028061
38.570026 -23.046827 5.221735
39.022858 -24.742945 5.920394
39.264973 -26.527399 6.85752
38.202347 -20.122744 23.439199
38.289436 -22.139477 22.543779
36.571941 -31.332287 22.816696
37.328995 -29.521881 22.082476
37.334839 -31.317919 20.688334
37.898643 -31.431118 18.416174
38.401703 -31.197266 15.939919
38.719219 -31.005802 13.544765
38.199341 -32.775982 14.34951
37.930031 -34.147507 12.604197
38.515617 -21.028788 12.47435
38.732365 -21.095919 14.680305
38.919876 -22.768435 13.571072
36.217484 -22.893373 27.501551
37.083801 -23.5455 25.62788
37.817379 -23.750904 23.666845
38.359333 -24.185495 21.553663
37.928101 -27.883123 21.282362
38.424709 -26.100407 20.374327
38.767464 -24.353785 19.24264
39.010155 -24.457762 16.879642
39.113941 -24.488958 14.565876
39.104168 -24.337484 12.191789
39.237129 -25.728518 10.853241
39.303204 -27.081749 9.319995
39.272995 -28.392757 7.638644
38.943501 -30.658352 10.92433
39.07988 -30.117117 8.400819
39.141144 -29.451008 5.845171
36.542329 -20.956011 27.405926
36.960254 -20.121887 26.839447
36.358896 -35.80276 18.964481
36.003799 -35.839962 20.203391
35.906095 -36.674174 19.35492
39.226616 -27.263097 3.679696
39.184666 -26.446404 3.307902
39.219826 -26.768828 4.624199
39.202919 -28.146335 4.132612
39.167759 -27.823912 2.816315
39.226616 -27.263097 3.679696
37.846592 -21.062775 6.380312
38.065618 -21.292426 7.492525
38.063382 -21.620901 5.666809
37.846592 -21.062775 6.380312
38.406878 -22.480373 6.018344
38.22653 -22.187356 4.8702
38.063382 -21.620901 5.666809
36.116993 -33.085176 22.527186
36.139273 -33.975324 21.759829
36.572605 -32.206539 22.120764
36.116329 -32.210924 23.223118
36.116993 -33.085176 22.527186
37.572592 -35.078773 12.86637
37.756808 -34.343601 13.76624
37.399369 -35.274868 14.028413
37.7416 -34.788527 11.58524
37.572592 -35.078773 12.86637
38.432834 -20.252998 13.049119
38.240718 -20.242818 11.923021
35.768976 -24.880007 27.53212
35.346853 -25.729982 27.895375
35.877148 -25.964013 26.974694
36.258377 -24.003706 27.056495
35.728083 -23.769675 27.977176
35.768976 -24.880007 27.53212
38.854769 -30.903556 5.200964
39.017235 -29.973159 4.87626
38.978678 -30.381405 6.169874
38.054339 -20.775553 9.236517
37.874708 -20.079009 9.810221
38.219652 -21.513704 8.623891
38.054339 -20.775553 9.236517
38.386482 -21.618322 9.69031
38.397762 -22.135196 7.946319
38.065618 -21.292426 7.492525
38.219652 -21.513704 8.623891
37.284414 -19.320089 26.262697
37.62139 -18.522778 25.643273
37.332224 -20.458745 25.903067
37.284414 -19.320089 26.262697
36.960254 -20.121887 26.839447
36.080938 -34.919203 20.953889
36.003799 -35.839962 20.203391
36.514935 -34.02467 20.618892
36.139273 -33.975324 21.759829
36.080938 -34.919203 20.953889
37.008917 -36.199125 14.396204
37.399369 -35.274868 14.028413
37.193133 -35.463953 15.296074
39.103304 -25.508851 2.989746
39.021879 -25.072046 3.892047
39.103304 -25.508851 2.989746
39.184666 -26.446404 3.307902
38.665901 -19.648611 20.654654
38.567192 -19.464939 21.703245
38.766546 -19.78755 19.568751
38.665901 -19.648611 20.654654
38.700205 -20.632074 20.205062
38.772856 -19.924462 18.522137
38.766546 -19.78755 19.568751
38.817819 -20.881003 18.054344
38.789825 -20.034451 17.457323
38.772856 -19.924462 18.522137
35.114523 -30.943601 25.893802
35.186493 -31.952613 25.244018
35.023497 -29.930568 26.586651
35.114523 -30.943601 25.893802
35.597199 -29.999817 25.602319
34.935144 -28.824331 27.209487
35.023497 -29.930568 26.586651
35.480598 -27.900386 26.816558
34.909571 -27.737933 27.730877
34.935144 -28.824331 27.209487
38.4422 -32.806612 9.441536
38.597755 -32.183428 10.372506
38.340091 -33.060077 10.785981
38.522604 -32.515978 8.098702
38.4422 -32.806612 9.441536
38.580779 -32.206898 6.83196
38.758038 -31.620882 7.761319
38.522604 -32.515978 8.098702
38.64135 -31.827223 5.54214
38.580779 -32.206898 6.83196
38.435844 -22.717402 4.046079
38.22653 -22.187356 4.8702
38.717954 -23.619391 4.376712
38.435844 -22.717402 4.046079
38.94437 -24.46745 4.726042
38.717954 -23.619391 4.376712
38.796442 -23.894886 5.571065
39.100367 -25.34754 5.0864
39.021879 -25.072046 3.892047
38.94437 -24.46745 4.726042
37.891394 -18.78408 24.767032
37.62139 -18.522778 25.643273
38.164376 -19.016979 23.823473
37.891394 -18.78408 24.767032
37.929366 -19.889845 24.382758
38.368586 -19.279744 22.777361
38.164376 -19.016979 23.823473
38.400953 -20.307939 22.365082
38.567192 -19.464939 21.703245
38.368586 -19.279744 22.777361
35.674471 -32.051206 24.269506
35.186493 -31.952613 25.244018
36.130083 -31.172569 23.863083
35.674471 -32.051206 24.269506
36.116329 -32.210924 23.223118
38.057283 -33.915385 11.229604
38.340091 -33.060077 10.785981
38.212839 -33.2922 12.160574
38.057283 -33.915385 11.229604
37.7416 -34.788527 11.58524
35.830641 -37.479525 18.421178
35.906095 -36.674174 19.35492
36.084671 -37.440024 17.234324
35.830641 -37.479525 18.421178
38.093495 -20.168509 10.837314
37.874708 -20.079009 9.810221
38.368393 -20.954479 11.388643
38.093495 -20.168509 10.837314
38.240718 -20.242818 11.923021
38.725988 -20.206432 16.383057
38.789825 -20.034451 17.457323
38.674777 -20.258895 15.228445
38.725988 -20.206432 16.383057
38.783577 -21.043456 15.834917
38.541208 -20.286564 14.152097
38.674777 -20.258895 15.228445
38.623991 -21.062354 13.577327
38.432834 -20.252998 13.049119
38.541208 -20.286564 14.152097
34.887148 -26.589916 28.201463
34.909571 -27.737933 27.730877
34.887148 -26.589916 28.201463
35.346853 -25.729982 27.895375
35.698597 -22.667926 28.350488
35.728083 -23.769675 27.977176
36.147039 -21.772426 27.916793
35.698597 -22.667926 28.350488
36.612774 -22.076958 26.990685
36.542329 -20.956011 27.405926
36.147039 -21.772426 27.916793
39.142603 -29.079079 4.557201
39.202919 -28.146335 4.132612
39.20146 -28.518264 5.420582
39.142603 -29.079079 4.557201
39.017235 -29.973159 4.87626
38.854769 -30.903556 5.200964
38.64135 -31.827223 5.54214
36.355415 -37.315643 16.008252
36.531937 -36.512591 16.889938
36.084671 -37.440024 17.234324
36.58856 -37.113617 14.823395
36.355415 -37.315643 16.008252
37.008917 -36.199125 14.396204
36.58856 -37.113617 14.823395
3 0 21 20
3 0 23 21
3 82 25 83
3 1 84 86
3 84 26 85
3 84 85 86
3 1 28 26
3 1 30 28
3 2 87 89
3 89 88 31
3 87 88 89
3 2 90 92
3 90 91 92
3 3 33 32
3 3 35 33
3 4 37 36
3 4 39 37
3 4 41 39
3 5 44 42
3 5 46 44
3 5 48 46
3 6 93 94
3 6 95 96
3 6 97 99
3 97 50 98
3 97 98 99
3 7 51 22
3 7 52 51
3 8 53 24
3 8 54 53
3 9 100 101
3 9 102 104
3 102 55 103
3 102 103 104
3 9 57 55
3 11 58 27
3 11 59 58
3 11 61 59
3 105 62 106
3 107 106 29
3 105 106 107
3 109 108 62
3 110 63 111
3 13 64 34
3 13 65 64
3 14 112 114
3 114 113 38
3 112 113 114
3 14 115 117
3 115 66 116
3 115 116 117
3 14 67 66
3 15 68 40
3 15 69 68
3 10 70 56
3 16 71 43
3 16 72 71
3 16 73 72
3 17 74 45
3 17 75 74
3 17 76 75
3 18 77 47
3 18 78 77
3 12 79 60
3 19 80 49
3 19 81 80
3 19 118 120
3 120 119 81
3 118 119 120
3 20 121 122
3 21 123 125
3 125 124 20
3 123 124 125
3 21 126 128
3 126 6 127
3 126 127 128
3 21 22 6
3 23 22 21
3 23 7 22
3 129 24 130
3 25 131 133
3 131 24 132
3 131 132 133
3 25 8 24
3 26 134 135
3 26 136 138
3 136 9 137
3 136 137 138
3 26 27 9
3 28 27 26
3 28 11 27
3 28 29 11
3 30 29 28
3 30 139 141
3 141 140 29
3 139 140 141
3 31 142 143
3 145 144 31
3 32 146 147
3 33 148 150
3 150 149 32
3 148 149 150
3 33 151 152
3 33 153 155
3 153 34 154
3 153 154 155
3 35 34 33
3 35 13 34
3 36 156 157
3 37 158 160
3 160 159 36
3 158 159 160
3 37 161 162
3 37 163 165
3 163 38 164
3 163 164 165
3 39 38 37
3 39 14 38
3 39 40 14
3 41 40 39
3 41 15 40
3 42 43 10
3 44 43 42
3 44 16 43
3 44 45 16
3 46 45 44
3 46 17 45
3 46 47 17
3 48 47 46
3 48 18 47
3 166 49 167
3 168 167 12
3 166 167 168
3 169 49 170
3 171 19 172
3 173 172 49
3 171 172 173
3 175 174 19
3 50 176 177
3 50 178 179
3 22 50 6
3 51 50 22
3 51 180 182
3 182 181 50
3 180 181 182
3 51 183 185
3 183 31 184
3 183 184 185
3 52 31 51
3 52 2 31
3 24 186 187
3 53 188 190
3 190 189 24
3 188 189 190
3 53 191 192
3 53 193 195
3 193 32 194
3 193 194 195
3 54 32 53
3 54 3 32
3 196 36 197
3 55 198 200
3 198 36 199
3 198 199 200
3 55 4 36
3 55 56 4
3 57 56 55
3 57 10 56
3 27 57 9
3 58 57 27
3 58 10 57
3 58 42 10
3 59 42 58
3 59 5 42
3 59 60 5
3 61 60 59
3 61 12 60
3 29 61 11
3 62 61 29
3 62 12 61
3 62 201 203
3 203 202 12
3 201 202 203
3 205 204 62
3 206 1 207
3 209 208 1
3 210 20 211
3 63 212 214
3 212 20 213
3 212 213 214
3 63 0 20
3 34 215 216
3 64 217 219
3 219 218 34
3 217 218 219
3 64 220 221
3 64 222 224
3 222 63 223
3 222 223 224
3 65 63 64
3 65 0 63
3 38 225 226
3 228 227 38
3 66 229 230
3 66 231 232
3 66 233 235
3 233 25 234
3 233 234 235
3 67 25 66
3 67 8 25
3 40 67 14
3 68 67 40
3 68 8 67
3 68 54 8
3 69 54 68
3 69 3 54
3 56 41 4
3 70 41 56
3 70 15 41
3 43 70 10
3 71 70 43
3 71 15 70
3 71 69 15
3 72 69 71
3 72 3 69
3 72 35 3
3 73 35 72
3 73 13 35
3 45 73 16
3 74 73 45
3 74 13 73
3 74 65 13
3 75 65 74
3 75 0 65
3 75 23 0
3 76 23 75
3 76 7 23
3 47 76 17
3 77 76 47
3 77 7 76
3 77 52 7
3 78 52 77
3 78 2 52
3 60 48 5
3 79 48 60
3 79 18 48
3 49 79 12
3 80 79 49
3 80 18 79
3 80 78 18
3 81 78 80
3 81 2 78
3 81 236 238
3 238 237 2
3 236 237 238
3 240 239 81
3 242 241 19
3 243 30 244
3 245 244 1
3 243 244 245
3 246 30 247
3 249 248 30
