ply
format ascii 1.0
element vertex 374
property float x
property float y
property float z
element face 327
property list uchar int vertex_index
end_header
-6.723172 41.9921 -50.233326
-18.317924 26.944101 -36.037628
-18.624992 20.254309 -27.019445
-0.807585 41.300247 -53.782513
-15.575725 31.472279 -35.687916
-17.646385 29.92767 -40.735001
-14.810169 34.042225 -40.267891
-11.662385 37.875607 -48.197468
-18.339746 16.929882 -22.7379
-16.180943 25.545992 -27.059589
-13.58235 36.124573 -44.329529
-21.097425 15.70366 -26.687
-21.372009 19.282064 -31.227205
-18.595924 23.715982 -31.446669
-16.009592 28.638962 -31.392138
-3.835075 41.994678 -52.429771
-14.432503 33.811165 -35.726913
-15.270519 32.762138 -37.992081
-14.087134 34.980064 -37.828056
-8.031091 41.745293 -48.788715
-9.16335 40.095531 -49.378063
-7.974351 40.239117 -50.975651
-6.601257 40.393776 -52.200508
2.579848 36.979401 -55.521023
-19.836557 24.808512 -36.152061
-20.991999 24.725302 -38.595474
-19.501728 26.630157 -38.708839
-17.035488 31.376993 -42.960323
-12.988426 37.199242 -41.910824
-12.313851 38.0256 -44.003769
-18.467791 18.599268 -24.796453
-19.697002 16.089666 -24.651888
-19.823999 17.91457 -26.830278
-21.35988 17.402937 -28.969261
-19.994446 19.657692 -29.157709
-19.993147 21.369558 -31.318888
-18.647655 21.963923 -29.179874
-16.102434 27.15029 -29.202421
-14.826483 31.343603 -31.318218
-2.282872 41.716785 -53.22506
-16.868378 29.212368 -35.895966
-18.031023 28.454054 -38.31374
-16.580814 30.560791 -38.049179
-16.182898 31.903732 -40.397114
-15.521549 33.326523 -42.682533
-11.384958 38.885056 -45.963177
-10.302217 39.628517 -47.728668
-18.243303 15.249807 -20.823168
-17.22645 19.573307 -22.790682
-17.295561 21.22258 -24.884769
-17.382967 22.796227 -27.066935
-16.221636 23.984699 -25.035986
0.750208 40.639877 -54.209366
1.105009 37.999638 -55.467045
-8.041819 43.408039 -46.659672
-6.907622 43.542763 -48.345188
-19.164497 28.100416 -41.052757
-13.557428 36.205601 -39.878819
-14.224134 35.185528 -42.27549
-14.936294 34.322075 -44.814251
-12.722005 37.019463 -46.477886
-14.05138 35.385147 -46.908142
-19.4585 14.378564 -22.489334
-20.883347 13.899217 -24.494442
-21.387362 21.147697 -33.714916
-19.946518 23.101559 -33.671989
-18.501385 25.371069 -33.7621
-17.315573 24.415728 -29.045631
-17.225269 26.036341 -31.201534
-17.097431 27.643225 -33.543755
-15.891695 29.970045 -33.542442
-14.70295 32.543152 -33.55238
-5.564865 43.915035 -49.570824
-5.369144 41.944572 -51.52702
-5.091911 40.360626 -53.25835
-13.701593 35.672006 -36.706483
-14.259819 34.395615 -36.777484
-13.874277 35.087557 -35.655912
-17.470962 31.191178 -44.361857
-16.69326 32.005683 -44.092053
-11.682668 39.085325 -43.866194
-12.032915 38.745069 -42.86862
-0.986663 42.502764 -53.062195
-0.196365 42.22776 -53.378781
-1.545228 41.508516 -53.503787
-1.724306 42.711033 -52.783468
-0.986663 42.502764 -53.062195
-1.397534 40.412886 -54.296326
-2.135178 40.621155 -54.0176
-1.545228 41.508516 -53.503787
-9.73847 40.531166 -47.40744
-10.225985 40.269558 -46.574831
-9.849573 39.266849 -49.663488
-9.242749 39.411947 -50.503122
-16.719313 21.018609 -22.913642
-16.696777 20.28772 -21.934731
-16.753868 21.843246 -23.960685
-17.261005 20.397944 -23.837725
-16.719313 21.018609 -22.913642
-16.216905 23.224305 -24.036294
-16.758598 22.603639 -24.960377
-16.753868 21.843246 -23.960685
1.583843 40.241993 -54.319546
1.426191 41.571298 -53.807906
1.761243 38.921874 -54.948386
0.927608 39.319757 -54.838206
1.583843 40.241993 -54.319546
1.921326 36.273032 -56.061933
2.648707 35.603319 -56.020048
-7.553159 44.366286 -46.519863
-8.090279 44.17501 -45.683718
-6.986061 44.433647 -47.362621
-7.474721 43.475401 -47.50243
-7.553159 44.366286 -46.519863
-21.66153 24.648271 -39.85116
-20.897101 25.499499 -39.916326
-12.972721 37.37049 -39.77817
-13.250082 36.807459 -38.754465
-14.289303 35.053942 -48.270229
-13.570849 35.785923 -47.974411
-14.8064 34.555329 -47.239863
-14.289303 35.053942 -48.270229
-21.802532 14.669082 -26.675165
-21.695493 13.76686 -25.578886
-20.990386 14.801438 -25.590721
-21.907074 15.576538 -27.788274
-21.802532 14.669082 -26.675165
-22.143687 18.305543 -31.277515
-22.137622 17.365979 -30.148542
-21.365944 18.3425 -30.098233
-22.150852 19.237976 -32.455926
-22.143687 18.305543 -31.277515
-21.379686 20.21488 -32.471061
-22.158528 20.170793 -33.699782
-22.150852 19.237976 -32.455926
-14.276315 33.262652 -32.479235
-14.764716 31.943378 -32.435299
-14.338082 32.662877 -31.362154
-14.16348 33.878176 -33.579473
-14.276315 33.262652 -32.479235
-5.104446 44.938204 -49.233647
-5.752096 44.834736 -48.605143
-4.022504 42.980234 -51.555601
-3.254426 42.928348 -52.044668
-4.60211 41.969625 -51.978396
-4.789538 42.955181 -51.104225
-4.022504 42.980234 -51.555601
-8.59722 40.920412 -49.083389
-9.169037 40.764673 -48.232138
-8.602907 41.589554 -47.937464
-8.64825 39.48374 -51.301916
-9.242749 39.411947 -50.503122
-8.56885 40.167324 -50.176857
-7.983128 39.56819 -51.977396
-8.64825 39.48374 -51.301916
-7.296581 39.64552 -52.589824
-7.983128 39.56819 -51.977396
-7.287804 40.316446 -51.588079
-6.498983 39.663136 -53.170336
-7.296581 39.64552 -52.589824
3.224622 38.001395 -54.999256
2.498663 38.411755 -54.975375
3.306385 36.472259 -55.445397
3.224622 38.001395 -54.999256
2.648707 35.603319 -56.020048
3.306385 36.472259 -55.445397
-20.414278 24.766907 -37.373767
-21.15313 23.85295 -37.447388
-20.575409 23.894555 -36.225681
-20.151965 26.451927 -39.973009
-20.897101 25.499499 -39.916326
-20.246863 25.677729 -38.652157
-17.847272 30.478947 -43.240521
-18.152721 29.754286 -42.127859
-17.340936 30.652331 -41.847662
-17.847272 30.478947 -43.240521
-17.470962 31.191178 -44.361857
-12.370202 38.331891 -41.822147
-12.68822 37.86731 -40.794173
-12.651139 37.612421 -42.957296
-12.370202 38.331891 -41.822147
-12.032915 38.745069 -42.86862
-12.376351 37.031153 -48.619074
-11.778144 37.405135 -49.451756
-15.621697 27.763129 -28.200118
-16.141689 26.348141 -28.131005
-15.660952 26.96098 -27.128702
-15.544991 28.557865 -29.255416
-15.621697 27.763129 -28.200118
-15.49857 29.302201 -30.350274
-16.056013 27.894626 -30.29728
-15.544991 28.557865 -29.255416
-14.907016 30.654522 -30.313315
-15.418038 29.991283 -31.355178
-15.49857 29.302201 -30.350274
-14.400153 32.067084 -30.219988
-14.907016 30.654522 -30.313315
-14.338082 32.662877 -31.362154
-14.400153 32.067084 -30.219988
-2.478324 42.789402 -52.442312
-1.724306 42.711033 -52.783468
-3.058973 41.855732 -52.827416
-3.254426 42.928348 -52.044668
-2.478324 42.789402 -52.442312
-2.921041 40.861326 -53.701021
-3.697143 41.000273 -53.303377
-3.058973 41.855732 -52.827416
-2.921041 40.861326 -53.701021
-2.135178 40.621155 -54.0176
-15.936291 32.980448 -43.953158
-16.69326 32.005683 -44.092053
-16.278519 32.351758 -42.821428
-10.767356 39.897827 -45.692086
-11.218221 39.515053 -44.845898
-10.843587 39.256787 -46.845923
-10.767356 39.897827 -45.692086
-10.225985 40.269558 -46.574831
-9.732784 39.862024 -48.553365
-9.73847 40.531166 -47.40744
-9.169037 40.764673 -48.232138
-10.419006 39.033343 -48.838791
-9.732784 39.862024 -48.553365
-9.849573 39.266849 -49.663488
-11.09909 38.156887 -49.073191
-10.982301 38.752062 -47.963068
-10.419006 39.033343 -48.838791
-11.778144 37.405135 -49.451756
-11.09909 38.156887 -49.073191
-17.650042 15.889492 -19.930446
-18.149752 14.526203 -19.893193
-17.711794 16.578825 -20.837942
-17.650042 15.889492 -19.930446
-17.760016 17.418862 -21.795308
-18.291525 16.089844 -21.780534
-17.711794 16.578825 -20.837942
-17.203368 18.740575 -21.821699
-16.696777 20.28772 -21.934731
-17.783098 18.251594 -22.764291
-17.760016 17.418862 -21.795308
-17.203368 18.740575 -21.821699
-15.735068 24.699331 -24.054177
-16.216905 23.224305 -24.036294
-15.696279 25.473228 -25.035918
-15.735068 24.699331 -24.054177
-15.675932 26.253874 -26.047719
-16.20129 24.765345 -26.047787
-15.696279 25.473228 -25.035918
-15.660952 26.96098 -27.128702
-15.675932 26.253874 -26.047719
0.582531 41.897575 -53.592207
1.426191 41.571298 -53.807906
-0.028689 40.970062 -53.99594
-0.196365 42.22776 -53.378781
0.582531 41.897575 -53.592207
0.16974 39.754009 -54.715117
-0.609156 40.084194 -54.50169
-0.028689 40.970062 -53.99594
0.34714 38.433889 -55.343956
0.16974 39.754009 -54.715117
0.927608 39.319757 -54.838206
0.435882 37.255932 -56.037758
0.34714 38.433889 -55.343956
1.842429 37.48952 -55.494034
1.761243 38.921874 -54.948386
2.498663 38.411755 -54.975375
1.183906 36.78315 -56.034944
1.842429 37.48952 -55.494034
1.921326 36.273032 -56.061933
0.435882 37.255932 -56.037758
1.183906 36.78315 -56.034944
-8.585277 43.132338 -45.817656
-8.090279 44.17501 -45.683718
-8.608271 42.420927 -46.872942
-9.151729 42.145226 -46.030926
-8.585277 43.132338 -45.817656
-8.036455 42.576666 -47.724193
-8.602907 41.589554 -47.937464
-8.608271 42.420927 -46.872942
-21.811165 23.839216 -38.672044
-21.15313 23.85295 -37.447388
-21.811165 23.839216 -38.672044
-21.66153 24.648271 -39.85116
-19.98335 27.187056 -41.144968
-20.151965 26.451927 -39.973009
-19.333112 27.365286 -39.880798
-18.911777 28.840659 -42.286738
-18.405441 29.014043 -40.893879
-18.152721 29.754286 -42.127859
-19.669375 28.007808 -42.286329
-18.911777 28.840659 -42.286738
-19.98335 27.187056 -41.144968
-19.669375 28.007808 -42.286329
-13.514935 36.194691 -37.729084
-13.701593 35.672006 -36.706483
-13.822281 35.592833 -38.853437
-13.514935 36.194691 -37.729084
-13.250082 36.807459 -38.754465
-13.272927 36.702421 -40.894821
-12.972721 37.37049 -39.77817
-12.68822 37.86731 -40.794173
-15.643663 33.478224 -45.019016
-15.936291 32.980448 -43.953158
-15.228922 33.824299 -43.748392
-11.849404 38.455328 -44.983473
-11.682668 39.085325 -43.866194
-11.218221 39.515053 -44.845898
-12.906161 36.603081 -47.759283
-12.192195 37.447535 -47.337677
-12.376351 37.031153 -48.619074
-13.386692 36.202305 -46.693014
-12.906161 36.603081 -47.759283
-13.570849 35.785923 -47.974411
-15.248857 34.023792 -46.192917
-14.493837 34.853611 -45.861196
-14.8064 34.555329 -47.239863
-15.643663 33.478224 -45.019016
-15.248857 34.023792 -46.192917
-18.796891 13.920603 -20.688877
-18.703339 13.196998 -19.758902
-18.149752 14.526203 -19.893193
-19.40449 13.484981 -21.52196
-18.796891 13.920603 -20.688877
-18.850901 14.814186 -21.656251
-20.057438 13.306833 -22.502641
-19.40449 13.484981 -21.52196
-20.769862 13.06716 -23.505195
-20.057438 13.306833 -22.502641
-20.170924 14.138891 -23.491888
-21.568514 12.864268 -24.504646
-20.769862 13.06716 -23.505195
-21.568514 12.864268 -24.504646
-21.695493 13.76686 -25.578886
-22.038301 16.426177 -28.929404
-21.907074 15.576538 -27.788274
-21.228653 16.553299 -27.828131
-22.038301 16.426177 -28.929404
-22.137622 17.365979 -30.148542
-22.085938 21.145453 -34.941153
-22.158528 20.170793 -33.699782
-21.350812 22.064148 -35.007109
-22.085938 21.145453 -34.941153
-20.63039 23.041079 -34.985645
-21.350812 22.064148 -35.007109
-20.66694 22.124628 -33.693453
-19.891537 23.955036 -34.912025
-20.575409 23.894555 -36.225681
-20.63039 23.041079 -34.985645
-14.028257 34.512183 -34.66674
-14.567726 33.177159 -34.639646
-14.16348 33.878176 -33.579473
-13.874277 35.087557 -35.655912
-14.028257 34.512183 -34.66674
-6.423474 44.6486 -47.992325
-6.986061 44.433647 -47.362621
-6.236244 43.728899 -48.958006
-6.423474 44.6486 -47.992325
-5.752096 44.834736 -48.605143
-4.887398 43.940413 -50.126128
-5.104446 44.938204 -49.233647
-5.467004 42.929804 -50.548922
-4.887398 43.940413 -50.126128
-4.789538 42.955181 -51.104225
-5.74431 39.646561 -53.699257
-6.498983 39.663136 -53.170336
-5.846584 40.377201 -52.729429
-4.325561 40.183247 -53.717666
-4.463493 41.177652 -52.84406
-3.697143 41.000273 -53.303377
-4.951197 39.484959 -54.211174
-4.325561 40.183247 -53.717666
-5.74431 39.646561 -53.699257
-4.951197 39.484959 -54.211174
-1.397534 40.412886 -54.296326
-0.609156 40.084194 -54.50169
3 75 18 76
3 77 76 16
3 75 76 77
3 0 21 19
3 0 22 21
3 1 26 24
3 79 78 27
3 80 29 81
3 2 32 30
3 2 34 32
3 2 36 34
3 3 82 83
3 3 84 86
3 84 39 85
3 84 85 86
3 3 87 89
3 89 88 39
3 87 88 89
3 4 42 40
3 6 43 17
3 6 44 43
3 90 46 91
3 93 92 20
3 94 48 95
3 96 49 97
3 98 97 48
3 96 97 98
3 99 51 100
3 101 100 49
3 99 100 101
3 102 52 103
3 104 53 105
3 106 105 52
3 104 105 106
3 108 107 23
3 109 54 110
3 111 55 112
3 113 112 54
3 111 112 113
3 115 114 25
3 5 56 41
3 116 57 117
3 10 58 28
3 10 59 58
3 7 60 45
3 118 61 119
3 121 120 61
3 8 62 47
3 11 63 31
3 11 122 124
3 124 123 63
3 122 123 124
3 11 125 126
3 12 127 129
3 129 128 33
3 127 128 129
3 12 130 131
3 12 132 134
3 132 64 133
3 132 133 134
3 13 65 35
3 13 66 65
3 9 67 50
3 14 68 37
3 14 69 68
3 14 70 69
3 135 71 136
3 137 136 38
3 135 136 137
3 139 138 71
3 140 72 141
3 15 142 143
3 15 144 146
3 144 73 145
3 144 145 146
3 15 74 73
3 16 17 4
3 18 17 16
3 18 6 17
3 19 147 149
3 147 20 148
3 147 148 149
3 21 20 19
3 21 150 152
3 152 151 20
3 150 151 152
3 21 153 154
3 22 155 157
3 157 156 21
3 155 156 157
3 22 158 159
3 160 23 161
3 162 23 163
3 165 164 23
3 24 166 168
3 166 25 167
3 166 167 168
3 26 25 24
3 26 169 171
3 171 170 25
3 169 170 171
3 27 172 174
3 174 173 5
3 172 173 174
3 176 175 27
3 177 28 178
3 29 179 181
3 179 28 180
3 179 180 181
3 29 10 28
3 183 182 7
3 30 31 8
3 32 31 30
3 32 11 31
3 32 33 11
3 34 33 32
3 34 12 33
3 34 35 12
3 36 35 34
3 36 13 35
3 184 37 185
3 186 185 9
3 184 185 186
3 187 37 188
3 189 14 190
3 191 190 37
3 189 190 191
3 192 38 193
3 194 193 14
3 192 193 194
3 195 38 196
3 198 197 38
3 39 199 200
3 39 201 203
3 201 15 202
3 201 202 203
3 39 204 206
3 206 205 15
3 204 205 206
3 208 207 39
3 40 41 1
3 42 41 40
3 42 5 41
3 17 42 4
3 43 42 17
3 43 5 42
3 43 27 5
3 44 27 43
3 44 209 211
3 211 210 27
3 209 210 211
3 212 45 213
3 46 214 216
3 214 45 215
3 214 215 216
3 46 7 45
3 20 217 219
3 217 46 218
3 217 218 219
3 220 46 221
3 222 221 20
3 220 221 222
3 223 7 224
3 225 224 46
3 223 224 225
3 227 226 7
3 228 47 229
3 230 47 231
3 232 8 233
3 234 233 47
3 232 233 234
3 48 235 236
3 48 237 239
3 237 8 238
3 237 238 239
3 48 30 8
3 49 30 48
3 49 2 30
3 49 50 2
3 51 50 49
3 51 9 50
3 240 51 241
3 242 51 243
3 244 9 245
3 246 245 51
3 244 245 246
3 248 247 9
3 52 249 250
3 52 251 253
3 251 3 252
3 251 252 253
3 52 254 256
3 256 255 3
3 254 255 256
3 53 257 259
3 259 258 52
3 257 258 259
3 53 260 261
3 23 262 264
3 262 53 263
3 262 263 264
3 265 53 266
3 267 266 23
3 265 266 267
3 269 268 53
3 54 270 271
3 54 272 274
3 272 273 274
3 54 275 277
3 275 19 276
3 275 276 277
3 55 19 54
3 55 0 19
3 25 278 279
3 281 280 25
3 41 26 1
3 56 26 41
3 56 282 284
3 284 283 26
3 282 283 284
3 285 56 286
3 287 286 5
3 285 286 287
3 288 56 289
3 291 290 56
3 292 18 293
3 57 294 296
3 294 18 295
3 294 295 296
3 57 6 18
3 28 297 299
3 297 57 298
3 297 298 299
3 58 57 28
3 58 6 57
3 58 44 6
3 59 44 58
3 59 300 302
3 302 301 44
3 300 301 302
3 45 303 305
3 303 29 304
3 303 304 305
3 60 29 45
3 60 10 29
3 306 60 307
3 308 307 7
3 306 307 308
3 61 309 311
3 309 60 310
3 309 310 311
3 61 10 60
3 61 59 10
3 312 59 313
3 314 313 61
3 312 313 314
3 316 315 59
3 47 317 319
3 317 318 319
3 62 320 322
3 322 321 47
3 320 321 322
3 62 323 324
3 31 62 8
3 63 62 31
3 63 325 327
3 327 326 62
3 325 326 327
3 63 328 329
3 331 330 63
3 33 332 334
3 334 333 11
3 332 333 334
3 336 335 33
3 64 337 338
3 64 339 340
3 35 64 12
3 65 64 35
3 65 341 343
3 343 342 64
3 341 342 343
3 65 344 346
3 344 24 345
3 344 345 346
3 66 24 65
3 66 1 24
3 50 36 2
3 67 36 50
3 67 13 36
3 37 67 9
3 68 67 37
3 68 13 67
3 68 66 13
3 69 66 68
3 69 1 66
3 69 40 1
3 70 40 69
3 70 4 40
3 38 70 14
3 71 70 38
3 71 4 70
3 71 16 4
3 347 16 348
3 349 348 71
3 347 348 349
3 351 350 16
3 352 55 353
3 72 354 356
3 354 55 355
3 354 355 356
3 72 0 55
3 357 72 358
3 73 359 361
3 359 72 360
3 359 360 361
3 73 0 72
3 73 22 0
3 74 22 73
3 74 362 364
3 364 363 22
3 362 363 364
3 365 74 366
3 367 366 15
3 365 366 367
3 368 74 369
3 371 370 74
3 373 372 3
