ply
format ascii 1.0
element vertex 277
property float x
property float y
property float z
element face 256
property list uchar int vertex_index
end_header
-29.365253 31.786678 17.046043
-26.061005 29.149607 26.539948
-33.538582 32.55286 -0.541717
-32.090881 33.221424 7.582677
-28.803818 25.975107 23.832312
-26.881182 24.32011 28.382261
-34.734608 29.40637 5.168791
-33.587845 29.172998 9.82352
-31.333277 36.978939 1.258767
-31.543783 35.944756 -2.372104
-32.325993 28.233009 14.439112
-30.544224 27.418818 19.195669
-27.658155 30.682455 21.98563
-35.185947 28.415365 -2.005435
-35.311867 29.162107 1.219398
-33.081791 33.203114 3.183797
-30.733528 32.828381 12.298356
-33.158684 31.258951 -3.653566
-35.078304 27.118294 8.510171
-34.46312 26.866724 10.803795
-32.063694 25.567303 17.954548
-31.189913 24.969246 20.227827
-27.462757 27.58983 25.071375
-28.266186 28.383053 22.853403
-26.860332 29.990061 24.268051
-33.49585 31.226406 6.381044
-33.847496 31.436037 4.247594
-32.668793 33.210686 5.364064
-31.807413 35.228062 4.348314
-31.253508 35.310627 6.534569
-30.83522 30.085495 15.659143
-31.549429 30.576517 13.315189
-29.985176 32.51125 14.663674
-34.404263 30.525883 -1.357182
-34.207214 29.817688 -2.881764
-33.393749 32.131889 -2.246023
-30.556141 37.649563 -3.14258
-31.331951 35.149422 -3.886758
-27.858595 25.182697 26.128887
-26.466944 26.876129 27.446764
-34.324924 29.139473 7.46236
-32.92255 31.17012 8.5424
-32.480419 34.740105 0.254423
-32.524837 34.292244 -1.533969
-31.500658 36.649311 -0.580706
-30.652462 38.283203 -1.453516
-33.79039 26.431965 13.170094
-32.979866 26.0676 15.494598
-31.454489 27.76638 16.934298
-29.968584 29.594343 18.157419
-29.698555 26.776861 21.472754
-29.109266 28.961029 20.616453
-28.507977 31.266634 19.560728
-34.425079 30.933638 0.395592
-34.279182 31.132429 2.214201
-33.365955 32.998016 1.300441
-32.23254 35.056702 2.161696
-31.027308 37.094948 3.324041
-33.077984 28.619501 12.073294
-32.238815 30.913389 11.013028
-31.469955 32.977577 9.998768
-29.909897 34.975117 11.400312
-30.684624 35.090366 8.894938
-32.417427 33.524883 -3.11821
-32.062054 32.588345 -4.453963
-34.789095 25.808625 11.384085
-35.102534 25.953346 10.273685
-31.442854 23.744179 20.789969
-31.912036 24.136978 19.598583
-25.777354 30.41467 26.078006
-26.177017 30.834897 24.942058
-26.460669 29.569834 25.403999
-30.405926 37.186322 -3.89504
-30.057961 38.462376 -3.594415
-27.369889 24.751404 27.255574
-28.029556 23.960107 26.635663
-27.540849 23.528813 27.76235
-30.174758 39.439552 -0.948218
-30.550371 38.594652 -0.53429
-30.226244 39.107889 -1.885162
-30.174758 39.439552 -0.948218
-33.258206 24.971195 16.06619
-33.717022 25.157583 14.858802
-29.251186 26.375984 22.652533
-29.979445 25.573113 21.962352
-29.532077 25.172235 23.142131
-27.374634 31.885471 21.39847
-27.799546 32.17756 20.186019
-28.083066 30.974545 20.773179
-35.329197 29.016544 0.391697
-35.749733 28.154762 0.79496
-34.868473 30.047872 0.807495
-34.885803 29.90231 -0.020206
-35.329197 29.016544 0.391697
-34.919522 29.363042 4.168817
-35.342059 28.356497 4.69708
-30.73825 37.214505 4.420646
-31.417361 36.161505 3.836177
-31.128303 36.281061 4.932782
-30.062983 38.309467 5.073092
-30.352041 38.189911 3.976488
-30.73825 37.214505 4.420646
-29.585494 36.002609 10.762929
-29.215058 35.871914 12.038773
-29.972857 36.060234 9.510242
-30.297261 35.032742 10.147625
-29.585494 36.002609 10.762929
-30.243814 36.228413 8.366725
-29.972857 36.060234 9.510242
-35.057138 27.941111 -2.652465
-35.498167 27.367644 -2.253108
-33.489937 30.071509 -3.865373
-34.014202 29.350877 -3.479471
-33.682949 30.53832 -3.267665
-32.911271 30.644796 -4.271034
-33.489937 30.071509 -3.865373
-31.451304 33.351669 -4.841929
-31.697003 33.868883 -4.170361
-31.086253 34.632208 -4.558326
-31.735855 32.039666 -5.024093
-31.451304 33.351669 -4.841929
-27.060416 23.033905 28.826321
-27.540849 23.528813 27.76235
-35.410126 26.07913 9.126873
-35.698026 26.150548 7.982461
-34.770712 26.992509 9.656983
-35.410126 26.07913 9.126873
-35.102534 25.953346 10.273685
-30.890778 37.94252 0.821852
-30.766329 38.01486 1.851084
-32.348926 24.436006 18.461944
-32.800119 24.721046 17.296166
-31.626804 25.268274 19.091188
-32.348926 24.436006 18.461944
-31.912036 24.136978 19.598583
-26.556224 31.280923 23.731434
-26.955136 31.62712 22.590224
-27.259244 30.336258 23.126841
-26.556224 31.280923 23.731434
-26.177017 30.834897 24.942058
-35.712429 28.268254 1.719836
-35.749733 28.154762 0.79496
-30.85135 36.322344 6.02591
-31.128303 36.281061 4.932782
-31.530461 35.269345 5.441441
-30.793831 35.936251 -4.267129
-30.944046 36.399493 -3.514669
-30.405926 37.186322 -3.89504
-31.086253 34.632208 -4.558326
-30.793831 35.936251 -4.267129
-29.050885 24.725144 24.32095
-29.532077 25.172235 23.142131
-28.578273 24.32894 25.469237
-28.029556 23.960107 26.635663
-28.331207 25.578902 24.9806
-29.050885 24.725144 24.32095
-28.578273 24.32894 25.469237
-35.147545 28.368382 5.709027
-35.342059 28.356497 4.69708
-35.319393 27.224345 7.379717
-35.698026 26.150548 7.982461
-34.942703 28.234934 6.855812
-35.319393 27.224345 7.379717
-34.701614 28.128884 7.986266
-34.529766 29.272921 6.315575
-35.147545 28.368382 5.709027
-34.942703 28.234934 6.855812
-28.929173 33.020517 16.596386
-28.58887 32.751257 17.748382
-30.974469 37.777706 -0.097885
-31.416967 36.814125 0.33903
-30.890778 37.94252 0.821852
-31.07656 37.466257 -1.017111
-30.974469 37.777706 -0.097885
-30.550371 38.594652 -0.53429
-30.178083 38.791069 -2.729694
-30.604301 37.966383 -2.298048
-30.226244 39.107889 -1.885162
-29.679903 39.603881 -3.181529
-30.057961 38.462376 -3.594415
-30.178083 38.791069 -2.729694
-34.122284 25.339765 13.696549
-34.45273 25.591245 12.567235
-33.385128 26.249783 14.332346
-34.122284 25.339765 13.696549
-33.717022 25.157583 14.858802
-32.52178 25.817451 16.724573
-33.258206 24.971195 16.06619
-32.800119 24.721046 17.296166
-30.725124 24.669305 21.339889
-31.442854 23.744179 20.789969
-30.444234 25.873053 20.85029
-30.725124 24.669305 21.339889
-29.979445 25.573113 21.962352
-28.160232 32.491235 19.005725
-28.58887 32.751257 17.748382
-28.936615 31.526656 18.303386
-28.160232 32.491235 19.005725
-27.799546 32.17756 20.186019
-26.671616 32.830135 22.003063
-27.374634 31.885471 21.39847
-26.955136 31.62712 22.590224
-35.638872 27.610413 -1.580574
-35.498167 27.367644 -2.253108
-35.951092 26.562691 -1.828248
-35.266237 28.643173 -1.220719
-35.638872 27.610413 -1.580574
-34.875395 29.698432 -0.896593
-34.795105 29.470624 -1.681309
-35.266237 28.643173 -1.220719
-34.414671 30.72976 -0.480795
-34.875395 29.698432 -0.896593
-34.885803 29.90231 -0.020206
-35.208151 29.24091 2.19412
-35.712429 28.268254 1.719836
-34.475966 30.377876 3.708219
-34.919522 29.363042 4.168817
-34.291052 30.421203 4.708193
-34.691809 30.226071 2.691522
-34.475966 30.377876 3.708219
-34.063339 31.284233 3.230898
-34.795524 30.147268 1.7168
-35.208151 29.24091 2.19412
-34.691809 30.226071 2.691522
-30.613345 38.072865 2.883722
-30.766329 38.01486 1.851084
-31.180293 37.036943 2.291404
-30.613345 38.072865 2.883722
-30.352041 38.189911 3.976488
-34.126755 26.649345 11.986944
-34.789095 25.808625 11.384085
-34.45273 25.591245 12.567235
-29.239134 33.382803 15.405202
-29.675214 32.148964 15.854859
-28.929173 33.020517 16.596386
-29.589857 33.584431 14.239719
-29.239134 33.382803 15.405202
-29.964033 33.742997 13.05706
-30.359352 32.669815 13.481015
-29.589857 33.584431 14.239719
-29.552218 34.816364 12.608038
-29.215058 35.871914 12.038773
-30.321713 33.901749 11.849334
-29.964033 33.742997 13.05706
-29.552218 34.816364 12.608038
-30.528256 36.338543 7.186541
-30.969066 35.200496 7.714754
-30.243814 36.228413 8.366725
-30.85135 36.322344 6.02591
-30.528256 36.338543 7.186541
-26.401886 23.796522 29.473225
-27.060416 23.033905 28.826321
-26.58112 22.510317 29.917285
-26.209097 25.114358 29.048486
-26.401886 23.796522 29.473225
-26.001978 26.392367 28.580738
-26.674063 25.598119 27.914513
-26.209097 25.114358 29.048486
-25.789939 27.659223 28.140931
-26.001978 26.392367 28.580738
-25.58697 28.795963 27.687523
-26.263975 28.012868 26.993356
-25.789939 27.659223 28.140931
-25.372308 30.062524 27.180981
-25.58697 28.795963 27.687523
-25.777354 30.41467 26.078006
-25.372308 30.062524 27.180981
-34.567771 28.642273 -3.090629
-35.057138 27.941111 -2.652465
-34.69658 29.116526 -2.443599
-34.567771 28.642273 -3.090629
-34.014202 29.350877 -3.479471
-32.362955 31.309492 -4.671233
-32.911271 30.644796 -4.271034
-32.610369 31.923648 -4.053764
-32.362955 31.309492 -4.671233
-31.735855 32.039666 -5.024093
3 65 19 66
3 67 21 68
3 1 24 22
3 1 69 71
3 71 70 24
3 69 70 71
3 3 27 25
3 3 29 27
3 0 32 30
3 2 35 33
3 73 72 36
3 5 74 76
3 74 38 75
3 74 75 76
3 5 39 38
3 7 40 18
3 7 41 40
3 8 44 42
3 77 45 78
3 80 79 45
3 81 47 82
3 11 48 20
3 11 49 48
3 4 83 85
3 83 50 84
3 83 84 85
3 12 51 23
3 12 52 51
3 12 86 88
3 88 87 52
3 86 87 88
3 14 89 90
3 14 91 93
3 91 53 92
3 91 92 93
3 6 94 95
3 15 54 26
3 15 55 54
3 15 56 55
3 96 57 97
3 98 97 28
3 96 97 98
3 101 100 57
3 99 100 101
3 10 58 46
3 16 59 31
3 16 60 59
3 102 61 103
3 104 62 105
3 106 105 61
3 104 105 106
3 108 107 62
3 13 109 110
3 17 111 113
3 113 112 34
3 111 112 113
3 17 114 115
3 9 63 43
3 116 64 117
3 118 117 37
3 116 117 118
3 120 119 64
3 121 5 122
3 123 18 124
3 19 125 127
3 125 18 126
3 125 126 127
3 19 7 18
3 129 128 8
3 130 20 131
3 21 132 134
3 132 20 133
3 132 133 134
3 21 11 20
3 22 23 4
3 24 23 22
3 24 12 23
3 24 135 137
3 137 136 12
3 135 136 137
3 139 138 24
3 140 14 141
3 25 26 6
3 27 26 25
3 27 15 26
3 27 28 15
3 29 28 27
3 29 142 144
3 144 143 28
3 142 143 144
3 30 31 10
3 32 31 30
3 32 16 31
3 33 34 13
3 35 34 33
3 35 17 34
3 36 37 9
3 145 37 146
3 147 146 36
3 145 146 147
3 149 148 37
3 150 4 151
3 38 152 153
3 38 154 156
3 154 4 155
3 154 155 156
3 38 22 4
3 39 22 38
3 39 1 22
3 157 6 158
3 18 159 160
3 40 161 163
3 163 162 18
3 161 162 163
3 40 164 166
3 164 6 165
3 164 165 166
3 40 25 6
3 41 25 40
3 41 3 25
3 168 167 0
3 42 43 2
3 44 43 42
3 44 9 43
3 169 44 170
3 171 170 8
3 169 170 171
3 45 172 174
3 172 44 173
3 172 173 174
3 45 9 44
3 45 36 9
3 175 36 176
3 177 176 45
3 175 176 177
3 180 179 36
3 178 179 180
3 181 46 182
3 47 183 185
3 183 46 184
3 183 184 185
3 47 10 46
3 20 186 188
3 186 47 187
3 186 187 188
3 48 47 20
3 48 10 47
3 48 30 10
3 49 30 48
3 49 0 30
3 189 21 190
3 50 191 193
3 191 21 192
3 191 192 193
3 50 11 21
3 23 50 4
3 51 50 23
3 51 11 50
3 51 49 11
3 52 49 51
3 52 0 49
3 52 194 196
3 196 195 0
3 194 195 196
3 198 197 52
3 201 200 12
3 199 200 201
3 202 13 203
3 202 203 204
3 205 13 206
3 207 33 208
3 209 208 13
3 207 208 209
3 53 210 212
3 210 33 211
3 210 211 212
3 53 2 33
3 213 14 214
3 26 215 217
3 217 216 6
3 215 216 217
3 54 218 220
3 220 219 26
3 218 219 220
3 54 221 223
3 221 14 222
3 221 222 223
3 54 53 14
3 55 53 54
3 55 2 53
3 55 42 2
3 56 42 55
3 56 8 42
3 28 56 15
3 57 56 28
3 57 8 56
3 57 224 226
3 226 225 8
3 224 225 226
3 228 227 57
3 46 229 231
3 229 19 230
3 229 230 231
3 58 19 46
3 58 7 19
3 31 58 10
3 59 58 31
3 59 7 58
3 59 41 7
3 60 41 59
3 60 3 41
3 232 32 233
3 234 233 0
3 232 233 234
3 235 32 236
3 237 16 238
3 239 238 32
3 237 238 239
3 61 240 241
3 61 242 244
3 242 16 243
3 242 243 244
3 61 60 16
3 62 60 61
3 62 3 60
3 62 29 3
3 245 29 246
3 247 246 62
3 245 246 247
3 249 248 29
3 250 5 251
3 250 251 252
3 253 5 254
3 255 39 256
3 257 256 5
3 255 256 257
3 258 39 259
3 260 1 261
3 262 261 39
3 260 261 262
3 263 1 264
3 266 265 1
3 34 267 269
3 269 268 13
3 267 268 269
3 271 270 34
3 43 35 2
3 63 35 43
3 63 17 35
3 37 63 9
3 64 63 37
3 64 17 63
3 64 272 274
3 274 273 17
3 272 273 274
3 276 275 64
