ply
format ascii 1.0
element vertex 488
property float x
property float y
property float z
element face 508
property list uchar int vertex_index
end_header
0.444677 -7.06246 -56.196083
1.06962 -31.75075 -48.935802
9.896015 -36.803749 -38.542763
4.474018 -28.330954 -45.362991
7.138631 -42.793209 -42.071037
-2.873408 -8.296381 -60.364635
-9.220489 -20.672253 -59.134983
-4.264316 -33.963917 -52.170731
-3.623931 -20.480474 -56.128201
0.303506 -18.365683 -52.774372
8.608932 -39.946793 -40.341503
-0.225295 3.019233 -61.22147
-0.766425 -1.947405 -60.218426
-7.051416 -27.35829 -55.643158
2.972758 -30.315971 -47.140476
2.176239 -23.441504 -49.057457
0.55762 -24.648371 -50.906559
-1.489678 -19.40382 -54.623848
-1.582843 -25.898825 -52.691551
14.369769 -37.285191 -33.409447
11.448619 -34.12759 -36.592968
8.582203 -30.703056 -39.91106
5.929104 -26.74507 -43.39579
7.130352 -33.014774 -41.797718
5.591346 -35.092548 -43.753754
3.943786 -37.333996 -45.444675
-5.003318 -9.456858 -61.766895
-7.965026 -15.035209 -60.989983
5.138675 -44.887985 -43.86578
1.780784 -39.488113 -47.077805
-0.895213 -40.709908 -48.668201
-1.398603 -33.27002 -50.595955
-4.035622 -26.768621 -54.203163
-6.255561 -20.72658 -57.71521
-5.532864 -14.918756 -59.731121
3.605855 -22.09244 -47.097912
1.748684 -17.30127 -50.84745
0.256323 -12.588025 -54.572708
-1.361066 -13.222135 -56.654175
-3.288549 -14.150818 -58.33934
0.082975 -1.91109 -58.832207
-0.147483 -4.460351 -58.221821
-0.967914 -4.640103 -59.454624
-0.336235 -7.159232 -57.480095
2.037019 -30.847561 -48.121201
1.652712 -27.496544 -49.081059
0.734063 -28.094727 -49.976421
-0.448227 -25.311844 -51.814434
-0.313894 -28.915182 -50.794243
15.851645 -38.415821 -31.778559
11.421333 -38.734562 -36.847416
12.06302 -37.118362 -35.980076
10.57549 -35.518318 -37.635612
9.976767 -32.418808 -38.255642
9.174673 -33.576511 -39.238201
7.774426 -31.62042 -40.932674
8.497135 -34.905781 -40.150379
7.885916 -41.199341 -41.234653
7.117887 -37.484047 -41.974739
6.379678 -38.88158 -42.845222
4.901145 -36.340462 -44.513298
5.505625 -40.126881 -43.747276
-2.725143 -5.576911 -61.347202
-3.69354 -6.117154 -62.109001
-4.79875 -6.682404 -62.819904
-3.956782 -8.742924 -61.220646
4.09701 -46.172024 -44.586105
3.485872 -42.429024 -45.397106
2.166007 -43.02977 -46.310101
-4.254978 -37.88015 -51.139179
-2.683875 -37.336884 -50.431309
-1.241956 -36.769386 -49.690746
-2.819561 -33.577686 -51.445652
-2.800595 -29.899485 -52.442337
-4.107867 -30.397272 -53.107018
-6.681116 -23.853331 -56.726383
-7.767795 -20.665674 -58.50082
-7.186303 -17.832533 -59.39785
-8.60975 -17.556103 -60.175407
5.148866 -27.300068 -44.465477
4.693485 -24.333055 -45.265633
4.01611 -25.224817 -46.199638
1.177889 -20.8957 -50.935265
1.932117 -20.310045 -49.948269
1.027333 -17.698555 -51.895523
1.019333 -14.790228 -52.668514
0.254368 -15.323114 -53.718365
-0.567769 -12.820652 -55.740295
-0.529652 -15.943672 -54.63063
-2.465732 -19.961924 -55.371304
-2.409589 -16.640142 -56.535023
-3.487518 -17.255354 -57.261753
-4.38977 -14.511329 -59.103313
-4.678249 -17.630632 -58.009796
10.793152 -40.314251 -37.755791
9.27484 -38.354111 -39.426334
10.1569 -41.87167 -38.666405
0.30153 0.726419 -59.478928
-0.544495 0.504323 -60.817207
-1.996595 -7.951622 -59.513226
-5.688683 -30.941902 -53.796352
3.730483 -29.231882 -46.298523
3.280348 -25.801311 -47.207577
2.56385 -26.783707 -48.062122
1.48949 -24.386539 -49.825985
0.407917 -21.546257 -51.812611
-0.519716 -18.871481 -53.700672
-0.564704 -21.956118 -52.847744
-1.554357 -22.694452 -53.626385
-2.640972 -23.050808 -54.454205
16.834236 -36.595184 -30.77832
13.617902 -38.886517 -34.284988
12.937631 -35.625832 -34.962631
7.221211 -28.751331 -41.634155
6.416376 -29.724216 -42.685398
5.749111 -30.73403 -43.574879
7.845899 -36.306568 -41.040562
6.371161 -34.150986 -42.792042
5.024193 -31.779104 -44.501469
4.260169 -32.648827 -45.416012
3.424856 -33.767197 -46.281246
2.475583 -34.816647 -47.12923
0.079628 5.555388 -61.575603
8.013909 -46.544407 -41.260216
6.955364 -47.733383 -42.227757
6.214614 -43.944897 -42.961224
4.506823 -41.14513 -44.642262
2.913307 -38.59074 -46.278206
1.326275 -35.482399 -48.061417
0.424161 -40.064941 -47.954445
0.189342 -36.320454 -48.798466
-0.097388 -32.614124 -49.770565
-1.494761 -29.625389 -51.589207
-2.762808 -26.368622 -53.473381
-3.836855 -23.56082 -55.161739
-5.473346 -27.277382 -54.871563
-5.161162 -23.751949 -55.936134
-4.852588 -20.710621 -56.893307
-5.879116 -17.862352 -58.678337
-6.677036 -15.049882 -60.344715
-6.232346 -12.478829 -61.247086
3.330577 -19.141735 -47.923927
2.936696 -22.747971 -48.047783
2.652445 -19.713293 -48.919056
2.46703 -17.009069 -49.716976
1.695849 -14.509713 -51.605099
0.932048 -12.001531 -53.636917
0.289281 -9.714567 -55.497681
-0.463858 -10.016495 -56.598957
-1.281738 -10.206438 -57.697277
-2.08922 -10.792953 -58.469547
-1.437495 -16.255955 -55.648624
-2.284882 -13.682994 -57.541992
-3.104773 -11.131582 -59.41021
-4.158901 -11.654835 -60.140816
-5.194695 -12.20616 -60.696598
0.148597 -5.761406 -57.208952
0.218068 -4.375015 -57.616964
0.514148 -5.67607 -56.604095
3.45009 -46.66248 -44.987227
4.417285 -48.160944 -44.206347
2.484589 -45.091352 -45.849225
3.131508 -44.600897 -45.448103
3.45009 -46.66248 -44.987227
-8.494142 -20.668964 -58.817901
-8.025247 -22.336484 -57.963552
-8.751594 -22.339773 -58.280634
11.270656 -42.09876 -37.362127
11.581055 -41.303162 -36.89999
10.95253 -42.87747 -37.817434
10.475026 -41.092961 -38.211098
11.270656 -42.09876 -37.362127
0.574757 -0.450664 -58.533015
0.69871 0.738756 -58.780358
-1.109905 -0.79365 -61.17622
-0.99894 0.432214 -61.475611
-0.65546 -0.721541 -60.517817
-1.211342 -2.176333 -60.775547
-1.109905 -0.79365 -61.17622
-1.410396 -4.89563 -59.96673
-1.069597 -6.061316 -59.035017
-1.583938 -7.717075 -59.064318
-1.924736 -6.55139 -59.996031
17.106945 -38.14689 -30.40525
17.596024 -37.241324 -29.895931
14.86137 -36.325375 -32.912142
15.602308 -36.89069 -32.096698
15.110707 -37.850506 -32.594003
14.09357 -35.690445 -33.738932
14.86137 -36.325375 -32.912142
13.269164 -39.652851 -34.741493
14.012183 -40.524146 -33.925697
11.844178 -33.4002 -36.180884
12.588684 -34.149321 -35.365715
12.193125 -34.876711 -35.7778
11.069337 -32.581942 -37.039358
11.844178 -33.4002 -36.180884
8.943482 -30.027698 -39.502012
9.640764 -30.885573 -38.674303
9.279485 -31.560932 -39.083351
8.284049 -29.204977 -40.311379
8.943482 -30.027698 -39.502012
7.901707 -29.727193 -40.772607
7.603553 -28.229115 -41.172926
8.284049 -29.204977 -40.311379
-0.072833 4.287311 -61.398536
0.368712 4.413421 -60.691303
0.216251 3.145344 -60.514236
-5.430477 -8.545955 -62.468544
-5.328193 -7.158728 -62.995048
-4.901034 -8.069631 -62.293399
-5.499161 -9.899277 -61.915346
-5.430477 -8.545955 -62.468544
8.379695 -48.419379 -40.956721
8.838757 -47.709755 -40.489193
6.04702 -46.310684 -43.046768
6.439348 -48.395083 -42.628933
5.531003 -46.972383 -43.447945
-0.733394 -42.669119 -48.22274
-1.653651 -41.051851 -49.025553
0.023639 -42.441659 -47.81384
-0.733394 -42.669119 -48.22274
-0.235526 -40.387424 -48.311323
0.683326 -42.119175 -47.456963
0.023639 -42.441659 -47.81384
-7.646636 -13.755559 -61.415245
-7.002641 -13.762895 -61.092612
-7.321031 -15.042545 -60.667349
5.680177 -25.17413 -43.833937
6.29382 -26.278847 -42.933881
3.958131 -21.744042 -46.600685
4.501946 -22.864349 -45.684545
4.14967 -23.212747 -46.181773
3.468216 -20.617088 -47.510919
3.820492 -20.268689 -47.013693
3.958131 -21.744042 -46.600685
0.333297 -3.100385 -57.922157
0.465479 -1.769419 -58.209654
-0.032254 -3.18572 -58.527014
0.333297 -3.100385 -57.922157
0.218068 -4.375015 -57.616964
-0.753758 -7.320881 -58.047753
-1.069597 -6.061316 -59.035017
-0.652075 -5.899667 -58.46736
16.199551 -40.077812 -31.38915
16.615649 -39.057209 -30.905369
15.509586 -39.400086 -32.176189
16.199551 -40.077812 -31.38915
14.768648 -38.83477 -32.991633
15.110707 -37.850506 -32.594003
15.509586 -39.400086 -32.176189
11.742176 -37.926462 -36.413746
12.491723 -38.768774 -35.589037
12.17088 -39.576874 -36.022707
-0.535871 4.259577 -62.129038
-0.703194 2.968045 -61.94935
-3.136553 -4.49808 -62.227972
-2.648137 -4.228827 -61.817043
-3.620751 -4.768201 -62.608871
-3.136553 -4.49808 -62.227972
-3.209341 -5.847033 -61.728102
-4.170666 -5.080275 -62.969906
-3.620751 -4.768201 -62.608871
-4.246145 -6.399779 -62.464453
-4.72327 -5.362901 -63.325357
-4.170666 -5.080275 -62.969906
5.010171 -47.614403 -43.808107
4.417285 -48.160944 -44.206347
4.617843 -45.530005 -44.225943
5.531003 -46.972383 -43.447945
5.010171 -47.614403 -43.808107
-3.333534 -39.636972 -50.261042
-4.187792 -39.810755 -50.651613
-2.547982 -39.365339 -49.907106
-3.333534 -39.636972 -50.261042
-3.469426 -37.608517 -50.785244
-1.789544 -39.023396 -49.549755
-1.653651 -41.051851 -49.025553
-2.547982 -39.365339 -49.907106
-7.481908 -23.930312 -57.076334
-6.866266 -25.605811 -56.18477
-7.667057 -25.682792 -56.534722
-7.224455 -22.259502 -57.613602
-7.481908 -23.930312 -57.076334
-8.025247 -22.336484 -57.963552
11.895145 -40.513317 -36.445802
12.17088 -39.576874 -36.022707
11.107242 -39.524406 -37.301603
11.895145 -40.513317 -36.445802
11.581055 -41.303162 -36.89999
10.64154 -43.720566 -38.268873
10.95253 -42.87747 -37.817434
9.882538 -42.77306 -39.056869
10.64154 -43.720566 -38.268873
9.108555 -41.810621 -39.894419
9.382916 -40.909232 -39.503954
9.882538 -42.77306 -39.056869
8.747046 -42.436895 -40.340993
8.247424 -40.573067 -40.788078
9.108555 -41.810621 -39.894419
8.293744 -43.023287 -40.872421
8.747046 -42.436895 -40.340993
7.920102 -43.820221 -41.290613
7.512274 -41.996275 -41.652845
8.293744 -43.023287 -40.872421
0.479663 1.998936 -59.642966
0.69871 0.738756 -58.780358
0.038118 1.872826 -60.350199
0.216251 3.145344 -60.514236
0.479663 1.998936 -59.642966
0.192252 -0.592335 -59.155568
0.574757 -0.450664 -58.533015
0.465479 -1.769419 -58.209654
-0.862794 1.71059 -61.747219
-0.703194 2.968045 -61.94935
-0.384895 1.761778 -61.019339
-0.862794 1.71059 -61.747219
-0.99894 0.432214 -61.475611
-1.312086 -3.522682 -60.393646
-1.211342 -2.176333 -60.775547
-0.86717 -3.293754 -59.836525
-1.312086 -3.522682 -60.393646
-1.410396 -4.89563 -59.96673
-2.28901 -5.364034 -60.913019
-2.648137 -4.228827 -61.817043
-2.360869 -6.764266 -60.430214
-2.28901 -5.364034 -60.913019
-1.924736 -6.55139 -59.996031
-5.127828 -37.977597 -51.527567
-4.187792 -39.810755 -50.651613
-5.03871 -36.132919 -51.989947
-5.127828 -37.977597 -51.527567
-5.043379 -34.174803 -52.505723
-4.259647 -35.922033 -51.654955
-5.03871 -36.132919 -51.989947
-5.755562 -32.663795 -53.318533
-4.9765 -32.45291 -52.983542
-5.043379 -34.174803 -52.505723
-6.526511 -30.984557 -54.181299
-5.755562 -32.663795 -53.318533
-7.207878 -29.192751 -55.104702
-6.37005 -29.150096 -54.719755
-6.526511 -30.984557 -54.181299
-7.856317 -27.500044 -55.953001
-7.207878 -29.192751 -55.104702
-7.667057 -25.682792 -56.534722
-7.856317 -27.500044 -55.953001
-9.562625 -22.256595 -58.646681
-8.751594 -22.339773 -58.280634
0.799631 -6.852882 -55.639822
0.514148 -5.67607 -56.604095
17.417977 -35.675493 -30.234368
17.596024 -37.241324 -29.895931
16.615187 -35.088516 -31.128247
17.417977 -35.675493 -30.234368
16.342941 -37.505503 -31.27844
17.106945 -38.14689 -30.40525
16.615649 -39.057209 -30.905369
16.093604 -35.980372 -31.596578
16.342941 -37.505503 -31.27844
15.602308 -36.89069 -32.096698
16.615187 -35.088516 -31.128247
16.093604 -35.980372 -31.596578
14.392714 -39.635433 -33.429403
14.012183 -40.524146 -33.925697
13.993835 -38.085854 -33.847217
14.768648 -38.83477 -32.991633
14.392714 -39.635433 -33.429403
12.840461 -38.002439 -35.132532
13.269164 -39.652851 -34.741493
12.491723 -38.768774 -35.589037
13.377501 -34.860765 -34.515524
14.09357 -35.690445 -33.738932
13.6537 -36.455512 -34.186039
13.377501 -34.860765 -34.515524
12.588684 -34.149321 -35.365715
10.333412 -31.727551 -37.870695
11.069337 -32.581942 -37.039358
10.712693 -33.273199 -37.424305
10.333412 -31.727551 -37.870695
9.640764 -30.885573 -38.674303
6.939874 -27.281977 -42.053064
7.603553 -28.229115 -41.172926
6.575157 -27.7482 -42.514972
6.29382 -26.278847 -42.933881
6.939874 -27.281977 -42.053064
0.523875 5.677445 -60.855678
0.368712 4.413421 -60.691303
0.235217 6.842406 -61.698753
0.523875 5.677445 -60.855678
-0.38341 5.527655 -62.306105
-0.072833 4.287311 -61.398536
-0.535871 4.259577 -62.129038
-0.230352 6.833597 -62.446413
-0.38341 5.527655 -62.306105
0.235217 6.842406 -61.698753
-0.230352 6.833597 -62.446413
-5.274829 -5.779043 -63.558718
-4.72327 -5.362901 -63.325357
-5.274829 -5.779043 -63.558718
-5.328193 -7.158728 -62.995048
-10.056549 -20.687566 -59.443941
-9.562625 -22.256595 -58.646681
-9.706995 -19.124052 -59.966234
-10.056549 -20.687566 -59.443941
-9.401625 -17.565977 -60.486446
-8.915119 -19.114178 -59.655195
-9.706995 -19.124052 -59.966234
-9.00278 -16.055968 -60.990744
-9.401625 -17.565977 -60.486446
-8.680418 -14.795521 -61.398032
-8.287388 -16.295656 -60.582695
-9.00278 -16.055968 -60.990744
-8.246672 -13.550352 -61.780482
-8.680418 -14.795521 -61.398032
-7.646636 -13.755559 -61.415245
-8.246672 -13.550352 -61.780482
8.357741 -45.69582 -40.885202
8.838757 -47.709755 -40.489193
7.57627 -44.668808 -41.665627
7.920102 -43.820221 -41.290613
8.357741 -45.69582 -40.885202
7.349277 -49.709173 -41.875153
6.439348 -48.395083 -42.628933
7.850423 -49.013867 -41.440491
7.349277 -49.709173 -41.875153
7.484637 -47.138895 -41.743986
8.379695 -48.419379 -40.956721
7.850423 -49.013867 -41.440491
1.55425 -43.60159 -46.634791
2.484589 -45.091352 -45.849225
1.295084 -41.547355 -47.132273
1.55425 -43.60159 -46.634791
0.683326 -42.119175 -47.456963
-6.780295 -12.477369 -61.543797
-6.454691 -13.764356 -60.795901
-7.002641 -13.762895 -61.092612
-6.538015 -11.612049 -61.815314
-6.780295 -12.477369 -61.543797
0.733936 -8.292402 -55.242937
0.799631 -6.852882 -55.639822
5.062368 -23.968123 -44.768858
5.680177 -25.17413 -43.833937
5.311294 -25.539062 -44.330711
5.062368 -23.968123 -44.768858
4.501946 -22.864349 -45.684545
3.69173 -18.960746 -47.401378
3.820492 -20.268689 -47.013693
3.242812 -17.798803 -48.317217
3.69173 -18.960746 -47.401378
2.811038 -16.73247 -49.213741
3.242812 -17.798803 -48.317217
2.898803 -18.075402 -48.820452
2.412431 -15.579249 -50.139042
2.811038 -16.73247 -49.213741
2.026841 -14.329571 -51.083103
2.412431 -15.579249 -50.139042
2.08144 -15.759391 -50.661038
1.682847 -13.098502 -52.023768
2.026841 -14.329571 -51.083103
1.300946 -11.844411 -53.039676
1.682847 -13.098502 -52.023768
1.313948 -13.255622 -52.621008
0.977622 -10.761937 -53.963354
1.300946 -11.844411 -53.039676
0.656238 -9.618455 -54.893736
0.977622 -10.761937 -53.963354
0.610664 -10.858049 -54.567299
0.366979 -8.388514 -55.846882
0.733936 -8.292402 -55.242937
0.656238 -9.618455 -54.893736
-0.81757 -8.749512 -57.607183
-0.753758 -7.320881 -58.047753
-0.400046 -8.587864 -57.039526
-1.22651 -8.844484 -58.156343
-0.81757 -8.749512 -57.607183
-0.872798 -10.111467 -57.148117
-1.639166 -9.07903 -58.605252
-1.583938 -7.717075 -59.064318
-1.22651 -8.844484 -58.156343
-5.594849 -11.273928 -61.380198
-5.499161 -9.899277 -61.915346
-5.099006 -10.831509 -61.231746
-6.113675 -11.410262 -61.655442
-5.594849 -11.273928 -61.380198
-5.71352 -12.342495 -60.971842
-6.538015 -11.612049 -61.815314
-6.113675 -11.410262 -61.655442
3 0 156 158
3 156 41 157
3 156 157 158
3 0 43 41
3 1 46 44
3 1 48 46
3 2 52 50
3 2 54 52
3 2 56 54
3 4 59 57
3 4 61 59
3 5 63 62
3 5 65 63
3 159 66 160
3 161 68 162
3 163 162 66
3 161 162 163
3 7 70 69
3 7 72 70
3 7 74 72
3 6 164 166
3 164 76 165
3 164 165 166
3 6 78 76
3 3 81 79
3 9 84 82
3 9 86 84
3 9 88 86
3 8 91 89
3 8 93 91
3 167 94 168
3 169 96 170
3 171 170 94
3 169 170 171
3 172 97 173
3 12 98 40
3 12 174 176
3 176 175 98
3 174 175 176
3 12 177 178
3 180 179 42
3 181 99 182
3 14 103 101
3 16 104 45
3 16 105 104
3 16 107 105
3 18 108 47
3 18 109 108
3 183 110 184
3 19 185 187
3 187 186 49
3 185 186 187
3 19 188 189
3 190 111 191
3 20 112 51
3 20 192 194
3 194 193 112
3 192 193 194
3 20 195 196
3 21 197 199
3 199 198 53
3 197 198 199
3 21 200 201
3 21 202 204
3 202 113 203
3 202 203 204
3 23 114 55
3 23 115 114
3 10 116 95
3 24 117 58
3 24 118 117
3 24 119 118
3 25 120 60
3 25 121 120
3 11 205 207
3 205 122 206
3 205 206 207
3 26 208 210
3 210 209 64
3 208 209 210
3 26 211 212
3 213 123 214
3 28 215 217
3 215 124 216
3 215 216 217
3 28 125 124
3 28 126 125
3 29 127 67
3 29 128 127
3 30 218 219
3 30 220 221
3 30 222 224
3 222 129 223
3 222 223 224
3 31 130 71
3 31 131 130
3 31 132 131
3 32 133 73
3 32 134 133
3 13 135 100
3 33 136 75
3 33 137 136
3 33 138 137
3 27 139 77
3 27 225 227
3 227 226 139
3 225 226 227
3 22 228 229
3 35 230 232
3 232 231 80
3 230 231 232
3 35 233 235
3 233 141 234
3 233 234 235
3 15 142 102
3 36 143 83
3 36 144 143
3 36 145 144
3 37 146 85
3 37 147 146
3 37 148 147
3 38 149 87
3 38 150 149
3 17 151 106
3 39 152 90
3 39 153 152
3 39 154 153
3 34 155 92
3 34 140 155
3 236 40 237
3 41 238 240
3 238 40 239
3 238 239 240
3 41 12 40
3 41 42 12
3 43 42 41
3 43 241 243
3 243 242 42
3 241 242 243
3 44 45 14
3 46 45 44
3 46 16 45
3 46 47 16
3 48 47 46
3 48 18 47
3 244 49 245
3 246 49 247
3 248 19 249
3 250 249 49
3 248 249 250
3 50 251 253
3 251 51 252
3 251 252 253
3 52 51 50
3 52 20 51
3 52 53 20
3 54 53 52
3 54 21 53
3 54 55 21
3 56 55 54
3 56 23 55
3 57 58 10
3 59 58 57
3 59 24 58
3 59 60 24
3 61 60 59
3 61 25 60
3 255 254 11
3 62 256 257
3 63 258 260
3 260 259 62
3 258 259 260
3 63 261 262
3 63 263 265
3 263 64 264
3 263 264 265
3 65 64 63
3 65 26 64
3 66 266 267
3 66 268 270
3 268 28 269
3 268 269 270
3 66 67 28
3 68 67 66
3 68 29 67
3 69 271 272
3 70 273 275
3 275 274 69
3 273 274 275
3 70 276 278
3 276 30 277
3 276 277 278
3 70 71 30
3 72 71 70
3 72 31 71
3 72 73 31
3 74 73 72
3 74 32 73
3 279 75 280
3 281 280 13
3 279 280 281
3 76 282 284
3 282 75 283
3 282 283 284
3 76 33 75
3 76 77 33
3 78 77 76
3 78 27 77
3 79 80 22
3 81 80 79
3 81 35 80
3 82 83 15
3 84 83 82
3 84 36 83
3 84 85 36
3 86 85 84
3 86 37 85
3 86 87 37
3 88 87 86
3 88 38 87
3 89 90 17
3 91 90 89
3 91 39 90
3 91 92 39
3 93 92 91
3 93 34 92
3 285 50 286
3 94 287 289
3 287 50 288
3 287 288 289
3 94 2 50
3 94 95 2
3 96 95 94
3 96 10 95
3 290 96 291
3 292 96 293
3 294 10 295
3 296 295 96
3 294 295 296
3 297 57 298
3 299 298 10
3 297 298 299
3 300 57 301
3 302 4 303
3 304 303 57
3 302 303 304
3 97 305 306
3 97 307 309
3 307 11 308
3 307 308 309
3 40 310 312
3 310 97 311
3 310 311 312
3 98 97 40
3 98 11 97
3 98 313 315
3 315 314 11
3 313 314 315
3 317 316 98
3 42 318 320
3 320 319 12
3 318 319 320
3 322 321 42
3 323 62 324
3 99 325 327
3 325 62 326
3 325 326 327
3 99 5 62
3 328 69 329
3 330 69 331
3 332 7 333
3 334 333 69
3 332 333 334
3 335 100 336
3 337 336 7
3 335 336 337
3 338 100 339
3 340 13 341
3 342 341 100
3 340 341 342
3 343 13 344
3 346 345 13
3 347 6 348
3 101 102 3
3 103 102 101
3 103 15 102
3 45 103 14
3 104 103 45
3 104 15 103
3 104 82 15
3 105 82 104
3 105 9 82
3 105 106 9
3 107 106 105
3 107 17 106
3 47 107 16
3 108 107 47
3 108 17 107
3 108 89 17
3 109 89 108
3 109 8 89
3 349 0 350
3 110 351 352
3 110 353 354
3 49 355 357
3 355 110 356
3 355 356 357
3 358 110 359
3 360 359 49
3 358 359 360
3 362 361 110
3 111 363 364
3 111 365 367
3 365 19 366
3 365 366 367
3 51 368 370
3 368 111 369
3 368 369 370
3 112 111 51
3 112 19 111
3 112 371 373
3 373 372 19
3 371 372 373
3 375 374 112
3 53 376 378
3 378 377 20
3 376 377 378
3 380 379 53
3 113 381 382
3 113 383 385
3 383 22 384
3 383 384 385
3 55 113 21
3 114 113 55
3 114 22 113
3 114 79 22
3 115 79 114
3 115 3 79
3 95 56 2
3 116 56 95
3 116 23 56
3 58 116 10
3 117 116 58
3 117 23 116
3 117 115 23
3 118 115 117
3 118 3 115
3 118 101 3
3 119 101 118
3 119 14 101
3 60 119 24
3 120 119 60
3 120 14 119
3 120 44 14
3 121 44 120
3 121 1 44
3 122 386 387
3 122 388 389
3 390 122 391
3 392 391 11
3 390 391 392
3 393 122 394
3 396 395 122
3 64 397 398
3 400 399 64
3 401 6 402
3 403 6 404
3 405 78 406
3 407 406 6
3 405 406 407
3 408 78 409
3 410 27 411
3 412 411 78
3 410 411 412
3 413 27 414
3 416 415 27
3 123 417 418
3 123 419 421
3 419 4 420
3 419 420 421
3 124 422 423
3 124 424 425
3 124 426 428
3 426 123 427
3 426 427 428
3 125 123 124
3 125 4 123
3 125 61 4
3 126 61 125
3 126 25 61
3 67 126 28
3 127 126 67
3 127 25 126
3 127 121 25
3 128 121 127
3 128 1 121
3 429 68 430
3 129 431 433
3 431 68 432
3 431 432 433
3 129 29 68
3 71 129 30
3 130 129 71
3 130 29 129
3 130 128 29
3 131 128 130
3 131 1 128
3 131 48 1
3 132 48 131
3 132 18 48
3 73 132 31
3 133 132 73
3 133 18 132
3 133 109 18
3 134 109 133
3 134 8 109
3 100 74 7
3 135 74 100
3 135 32 74
3 75 135 13
3 136 135 75
3 136 32 135
3 136 134 32
3 137 134 136
3 137 8 134
3 137 93 8
3 138 93 137
3 138 34 93
3 77 138 33
3 139 138 77
3 139 34 138
3 139 140 34
3 434 140 435
3 436 435 139
3 434 435 436
3 438 437 140
3 439 0 440
3 80 441 443
3 443 442 22
3 441 442 443
3 445 444 80
3 141 446 447
3 141 448 449
3 102 81 3
3 142 81 102
3 142 35 81
3 83 142 15
3 143 142 83
3 143 35 142
3 143 141 35
3 144 141 143
3 144 450 452
3 452 451 141
3 450 451 452
3 144 453 454
3 145 455 457
3 457 456 144
3 455 456 457
3 145 458 459
3 85 145 36
3 146 145 85
3 146 460 462
3 462 461 145
3 460 461 462
3 146 463 464
3 147 465 467
3 467 466 146
3 465 466 467
3 147 468 470
3 468 0 469
3 468 469 470
3 147 43 0
3 148 43 147
3 148 471 473
3 473 472 43
3 471 472 473
3 87 148 37
3 149 148 87
3 149 474 476
3 476 475 148
3 474 475 476
3 149 477 479
3 477 99 478
3 477 478 479
3 150 99 149
3 150 5 99
3 106 88 9
3 151 88 106
3 151 38 88
3 90 151 17
3 152 151 90
3 152 38 151
3 152 150 38
3 153 150 152
3 153 5 150
3 153 65 5
3 154 65 153
3 154 26 65
3 92 154 39
3 155 154 92
3 155 26 154
3 155 480 482
3 482 481 26
3 480 481 482
3 140 483 485
3 485 484 155
3 483 484 485
3 140 486 487
