ply
format ascii 1.0
element vertex 188
property float x
property float y
property float z
element face 172
property list uchar int vertex_index
end_header
25.632113 89.413521 -42.811924
19.729342 100.79081 -36.641636
9.3248 98.898705 -38.125401
11.170377 102.871704 -33.568802
22.829159 95.744423 -40.258305
18.371193 96.243958 -41.549103
21.477091 90.56929 -44.494705
16.391996 104.017227 -32.65955
14.928373 100.281105 -37.932785
9.071972 103.503822 -31.185469
11.865109 104.496346 -30.763054
24.421047 92.742065 -41.551613
22.199924 93.332428 -42.478287
23.632814 90.317558 -43.675503
22.809784 87.613541 -45.483536
24.786673 86.938141 -44.758392
25.997536 83.190941 -45.542343
17.952484 102.635765 -34.687275
15.484035 102.305481 -35.396034
17.440857 100.708763 -37.343697
17.525867 93.456894 -43.662441
15.826352 95.955452 -42.00098
6.264174 102.328651 -31.298338
8.225972 101.878937 -33.646107
10.216945 101.115303 -35.806828
21.329954 98.49604 -38.518932
19.211565 98.592033 -39.262142
20.720018 96.258957 -40.888069
19.911621 93.578156 -43.147858
20.551247 87.84404 -46.120361
14.568471 105.085083 -30.387762
17.048246 105.38475 -29.751913
18.720436 104.106354 -31.989363
20.414314 102.456688 -33.973618
21.969336 100.228447 -36.122536
23.457481 97.918961 -37.688511
24.88242 95.20105 -39.116322
26.158886 92.035446 -40.506947
13.799642 103.601845 -33.165607
12.985301 101.749649 -35.839367
12.10609 99.773903 -38.056664
16.660528 98.478241 -39.803806
14.063397 98.13575 -40.058891
11.347649 97.264771 -40.364998
12.22665 105.142941 -29.29849
10.834367 104.698655 -29.543429
26.18703 87.624439 -43.302759
25.76431 86.38675 -44.275993
25.209393 88.175831 -43.785158
7.926672 98.259537 -38.172534
8.311846 99.426865 -37.015749
8.945457 97.732945 -39.122587
7.926672 98.259537 -38.172534
16.251252 93.364182 -43.75016
17.030416 92.069794 -44.482645
6.678489 103.061702 -29.960824
5.236406 102.371311 -29.998807
5.650721 103.104363 -28.661293
20.257464 90.733467 -44.719273
19.474728 92.2379 -44.045849
20.694356 92.073723 -43.821281
21.014169 89.206665 -45.307533
19.794542 89.370842 -45.5321
20.257464 90.733467 -44.719273
22.382388 86.081204 -46.255905
23.442614 85.727249 -45.962277
26.500492 81.196003 -45.860756
26.956008 82.578373 -44.980947
17.330156 105.933559 -28.163781
16.08922 105.834323 -28.548609
19.782536 104.015255 -31.527449
19.053159 104.729725 -30.455392
20.629475 103.190422 -32.519576
19.567375 103.281521 -32.98149
19.782536 104.015255 -31.527449
23.007815 99.959721 -35.521338
22.237885 101.124863 -34.58151
23.751888 98.804978 -36.304325
22.713408 99.073704 -36.905524
23.007815 99.959721 -35.521338
25.826463 94.639152 -38.522465
25.152575 96.109344 -37.869074
26.464696 93.05635 -39.217777
25.520653 93.618248 -39.811634
25.826463 94.639152 -38.522465
27.016524 91.489182 -39.839626
26.464696 93.05635 -39.217777
13.618415 96.802853 -41.117086
14.944875 97.045601 -41.029936
14.499892 95.712704 -42.088131
12.260541 96.367363 -41.27014
12.705523 97.70026 -40.211945
13.618415 96.802853 -41.117086
11.789198 95.181312 -42.107466
10.876306 96.078721 -41.202324
12.260541 96.367363 -41.27014
9.437798 104.202393 -29.754636
8.082387 103.649288 -29.90439
10.46854 104.000084 -30.974262
9.437798 104.202393 -29.754636
10.834367 104.698655 -29.543429
24.431058 85.38955 -45.599705
23.442614 85.727249 -45.962277
23.798229 87.275841 -45.120964
25.392105 85.064541 -45.150368
25.03649 83.51595 -45.99168
24.431058 85.38955 -45.599705
26.369741 84.513149 -44.667969
25.392105 85.064541 -45.150368
25.76431 86.38675 -44.275993
26.956008 82.578373 -44.980947
26.369741 84.513149 -44.667969
15.401495 94.613461 -42.919429
16.67611 94.706173 -42.83171
16.251252 93.364182 -43.75016
14.499892 95.712704 -42.088131
15.401495 94.613461 -42.919429
4.830706 101.638374 -31.234519
5.236406 102.371311 -29.998807
5.75564 101.474918 -32.421962
4.830706 101.638374 -31.234519
7.668073 102.916236 -31.241903
6.678489 103.061702 -29.960824
8.082387 103.649288 -29.90439
6.736539 101.250061 -33.595847
5.75564 101.474918 -32.421962
7.245073 102.103794 -32.472223
7.762431 100.916981 -34.776102
6.736539 101.250061 -33.595847
8.757918 100.535164 -35.856463
7.762431 100.916981 -34.776102
9.221459 101.49712 -34.726467
9.770872 100.007004 -36.966115
8.311846 99.426865 -37.015749
8.757918 100.535164 -35.856463
18.281852 92.177269 -44.30314
18.718744 93.517525 -43.40515
19.474728 92.2379 -44.045849
17.030416 92.069794 -44.482645
18.281852 92.177269 -44.30314
19.435709 87.877552 -46.295276
19.794542 89.370842 -45.5321
20.10819 86.178875 -46.850842
19.435709 87.877552 -46.295276
21.25312 86.196453 -46.574318
21.680515 87.728791 -45.801949
22.382388 86.081204 -46.255905
20.10819 86.178875 -46.850842
21.25312 86.196453 -46.574318
25.572128 81.541385 -46.354025
25.03649 83.51595 -45.99168
25.572128 81.541385 -46.354025
26.500492 81.196003 -45.860756
14.849333 105.68449 -28.866534
13.578331 105.437309 -29.110844
15.808359 105.234916 -30.069837
14.849333 105.68449 -28.866534
16.08922 105.834323 -28.548609
18.217064 105.368923 -29.336667
17.330156 105.933559 -28.163781
17.884341 104.745552 -30.870638
18.217064 105.368923 -29.336667
19.053159 104.729725 -30.455392
21.460375 102.238983 -33.507052
20.629475 103.190422 -32.519576
21.191825 101.342568 -35.048077
21.460375 102.238983 -33.507052
22.237885 101.124863 -34.58151
24.440106 97.4683 -37.155169
23.751888 98.804978 -36.304325
24.16995 96.560005 -38.402417
24.440106 97.4683 -37.155169
25.152575 96.109344 -37.869074
26.772869 90.266643 -41.07045
26.509483 88.955681 -42.222938
25.895499 90.724483 -41.659436
26.772869 90.266643 -41.07045
27.016524 91.489182 -39.839626
13.21679 104.790715 -30.575408
12.22665 105.142941 -29.29849
13.578331 105.437309 -29.110844
9.956882 96.915977 -40.242386
8.945457 97.732945 -39.122587
10.336225 98.081738 -39.245199
9.956882 96.915977 -40.242386
10.876306 96.078721 -41.202324
26.18703 87.624439 -43.302759
26.509483 88.955681 -42.222938
3 44 10 45
3 0 13 11
3 0 15 13
3 0 46 48
3 48 47 15
3 46 47 48
3 2 49 50
3 2 51 52
3 1 19 17
3 54 53 20
3 55 22 56
3 55 56 57
3 3 23 9
3 3 24 23
3 4 27 25
3 6 28 12
3 6 58 60
3 60 59 28
3 58 59 60
3 6 61 63
3 61 29 62
3 61 62 63
3 65 64 14
3 67 66 16
3 68 31 69
3 70 32 71
3 72 33 73
3 74 73 32
3 72 73 74
3 75 34 76
3 77 35 78
3 79 78 34
3 77 78 79
3 80 36 81
3 82 37 83
3 84 83 36
3 82 83 84
3 86 85 37
3 7 38 30
3 8 39 18
3 8 40 39
3 5 41 26
3 87 42 88
3 89 88 21
3 87 88 89
3 90 43 91
3 92 91 42
3 90 91 92
3 95 94 43
3 93 94 95
3 96 9 97
3 10 98 100
3 98 9 99
3 98 99 100
3 10 3 9
3 11 12 4
3 13 12 11
3 13 6 12
3 13 14 6
3 15 14 13
3 15 101 103
3 103 102 14
3 101 102 103
3 15 104 106
3 104 16 105
3 104 105 106
3 107 16 108
3 109 108 15
3 107 108 109
3 111 110 16
3 17 18 7
3 19 18 17
3 19 8 18
3 20 21 5
3 112 21 113
3 114 113 20
3 112 113 114
3 116 115 21
3 22 117 118
3 22 119 120
3 9 121 123
3 121 22 122
3 121 122 123
3 23 22 9
3 23 124 126
3 126 125 22
3 124 125 126
3 23 127 128
3 24 129 131
3 131 130 23
3 129 130 131
3 24 132 134
3 132 2 133
3 132 133 134
3 25 26 1
3 27 26 25
3 27 5 26
3 12 27 4
3 28 27 12
3 28 5 27
3 28 20 5
3 135 20 136
3 137 136 28
3 135 136 137
3 139 138 20
3 29 140 141
3 29 142 143
3 14 29 6
3 144 29 145
3 146 145 14
3 144 145 146
3 148 147 29
3 16 149 150
3 152 151 16
3 153 30 154
3 31 155 157
3 155 30 156
3 155 156 157
3 31 7 30
3 158 31 159
3 32 160 162
3 160 31 161
3 160 161 162
3 32 7 31
3 32 17 7
3 33 17 32
3 33 1 17
3 163 33 164
3 34 165 167
3 165 33 166
3 165 166 167
3 34 1 33
3 34 25 1
3 35 25 34
3 35 4 25
3 168 35 169
3 36 170 172
3 170 35 171
3 170 171 172
3 36 4 35
3 36 11 4
3 37 11 36
3 37 0 11
3 37 173 175
3 175 174 0
3 173 174 175
3 177 176 37
3 30 178 180
3 178 10 179
3 178 179 180
3 38 10 30
3 38 3 10
3 18 38 7
3 39 38 18
3 39 3 38
3 39 24 3
3 40 24 39
3 40 2 24
3 26 19 1
3 41 19 26
3 41 8 19
3 21 41 5
3 42 41 21
3 42 8 41
3 42 40 8
3 43 40 42
3 43 2 40
3 43 181 183
3 183 182 2
3 181 182 183
3 185 184 43
3 187 186 0
