ply
format ascii 1.0
element vertex 184
property float x
property float y
property float z
element face 152
property list uchar int vertex_index
end_header
-10.017678 46.865871 -36.082592
-7.411442 48.961353 -42.78886
-11.489249 44.129005 -28.53546
-8.93571 47.995613 -39.415958
-7.887032 52.45731 -39.655338
-8.99013 44.558102 -43.012707
-7.0645 45.324532 -46.380054
-10.87678 45.556858 -32.174492
-4.644026 45.961372 -48.896469
-10.702951 44.231075 -35.751167
-10.256232 44.763855 -37.676701
-8.195582 48.569675 -41.183437
-8.936642 46.276489 -41.133022
-8.159945 46.693619 -42.878742
-8.138738 44.941982 -44.707764
-7.223319 47.072838 -44.588829
-11.444731 42.641838 -31.962002
-11.181571 44.964134 -30.371693
-9.540197 47.329403 -37.79604
-8.913242 49.895042 -38.0014
-8.340654 50.296677 -39.55389
-7.596584 50.856209 -41.176811
-9.621359 45.615093 -39.436447
-9.749341 43.958996 -41.310238
-9.955624 42.354092 -43.272144
-9.128735 42.856636 -44.975639
-10.468621 46.25811 -34.202938
-7.134723 53.262539 -41.090168
-6.790332 51.456131 -42.59586
-6.495904 49.493874 -44.213169
-6.167493 47.600155 -45.962772
-5.939326 45.754436 -47.639462
-11.740179 42.494326 -28.285922
-11.631075 43.682842 -27.657033
-11.609129 42.965941 -29.274138
-11.740179 42.494326 -28.285922
-11.33541 44.54657 -29.453577
-11.45529 43.383505 -30.192255
-11.609129 42.965941 -29.274138
-8.949112 50.778568 -37.372509
-9.183325 49.662035 -37.168541
-8.113843 51.376993 -39.604614
-8.398736 51.233927 -38.871044
-8.171925 52.314244 -38.921768
-7.553159 44.366286 -46.519863
-8.090279 44.17501 -45.683718
-7.601619 45.133257 -45.543909
-6.986061 44.433647 -47.362621
-7.553159 44.366286 -46.519863
-10.984797 44.56159 -32.984251
-11.268773 43.10408 -32.878006
-11.160756 44.099348 -32.068247
-10.672701 45.907484 -33.188715
-10.780718 44.912216 -33.998474
-10.984797 44.56159 -32.984251
-6.67758 53.60478 -41.835316
-6.930827 54.462 -41.112679
-6.505384 52.701576 -42.588161
-6.962528 52.359335 -41.843014
-6.67758 53.60478 -41.835316
-5.929632 49.748213 -44.924998
-6.152571 50.709948 -44.13526
-5.765426 48.801354 -45.799799
-6.331698 48.547015 -45.08797
-5.929632 49.748213 -44.924998
-5.291676 45.857904 -48.267966
-5.454656 46.87397 -47.448901
-4.807006 46.977438 -48.077404
-5.104446 44.938204 -49.233647
-5.752096 44.834736 -48.605143
-5.291676 45.857904 -48.267966
-7.986146 53.326155 -39.06897
-8.171925 52.314244 -38.921768
-10.879586 43.267461 -36.635511
-11.095283 42.88693 -35.624659
-10.656227 43.533851 -37.598278
-10.879586 43.267461 -36.635511
-10.479592 44.497465 -36.713934
-10.347787 43.986965 -38.575829
-10.656227 43.533851 -37.598278
-11.58687 42.222357 -30.987409
-11.802623 41.137283 -31.821814
-11.313151 43.802986 -31.166847
-11.58687 42.222357 -30.987409
-11.45529 43.383505 -30.192255
-4.151926 47.080511 -48.669849
-4.807006 46.977438 -48.077404
-9.496802 48.379216 -37.065861
-9.778937 47.097637 -36.939316
-9.735543 48.14745 -36.209137
-9.226719 48.612223 -37.89872
-9.496802 48.379216 -37.065861
-9.183325 49.662035 -37.168541
-8.68503 51.033109 -38.094799
-8.949112 50.778568 -37.372509
-8.626948 50.09586 -38.777645
-8.68503 51.033109 -38.094799
-8.398736 51.233927 -38.871044
-11.468073 45.416739 -27.89291
-11.631075 43.682842 -27.657033
-11.300241 45.678964 -28.805716
-11.468073 45.416739 -27.89291
-10.030351 44.412584 -39.455702
-10.347787 43.986965 -38.575829
-9.938796 45.189474 -38.556574
-10.094342 43.584536 -40.392598
-10.030351 44.412584 -39.455702
-9.68535 44.787045 -40.373342
-10.235178 42.803715 -41.373562
-10.094342 43.584536 -40.392598
-10.33832 42.001263 -42.354515
-10.235178 42.803715 -41.373562
-9.852483 43.156544 -42.291191
-10.503554 41.249571 -43.500382
-10.33832 42.001263 -42.354515
-10.052689 41.632345 -44.346569
-10.503554 41.249571 -43.500382
-9.639244 41.883617 -45.198317
-10.052689 41.632345 -44.346569
-9.542179 42.605364 -44.123891
-9.151729 42.145226 -46.030926
-9.639244 41.883617 -45.198317
-8.585277 43.132338 -45.817656
-8.633737 43.899309 -44.841701
-8.090279 44.17501 -45.683718
-9.151729 42.145226 -46.030926
-8.585277 43.132338 -45.817656
-11.651133 41.63023 -32.76539
-11.802623 41.137283 -31.821814
-11.651133 41.63023 -32.76539
-11.268773 43.10408 -32.878006
-10.897883 43.898698 -34.772588
-11.095283 42.88693 -35.624659
-10.585786 45.244592 -34.977052
-10.897883 43.898698 -34.772588
-10.780718 44.912216 -33.998474
-11.146402 46.096529 -29.723833
-11.33541 44.54657 -29.453577
-11.300241 45.678964 -28.805716
-10.95785 46.460222 -30.675057
-11.146402 46.096529 -29.723833
-10.805455 46.756584 -31.576456
-11.029176 45.260496 -31.273093
-10.95785 46.460222 -30.675057
-10.618339 46.956573 -32.518696
-10.805455 46.756584 -31.576456
-10.41426 47.307199 -33.532919
-10.672701 45.907484 -33.188715
-10.618339 46.956573 -32.518696
-10.197079 47.589222 -34.429949
-10.41426 47.307199 -33.532919
-9.971608 47.893102 -35.369776
-10.24315 46.561991 -35.142765
-10.197079 47.589222 -34.429949
-9.735543 48.14745 -36.209137
-9.971608 47.893102 -35.369776
-7.699218 53.632337 -39.695438
-7.986146 53.326155 -39.06897
-7.323064 54.034952 -40.412853
-6.930827 54.462 -41.112679
-7.510877 52.859924 -40.372753
-7.699218 53.632337 -39.695438
-7.323064 54.034952 -40.412853
-6.299785 51.691077 -43.326605
-6.505384 52.701576 -42.588161
-6.643118 50.475003 -43.404515
-6.299785 51.691077 -43.326605
-6.152571 50.709948 -44.13526
-5.568739 47.79683 -46.610556
-5.765426 48.801354 -45.799799
-6.05341 46.677295 -46.801117
-5.568739 47.79683 -46.610556
-5.454656 46.87397 -47.448901
-6.423474 44.6486 -47.992325
-6.986061 44.433647 -47.362621
-6.501913 45.539484 -47.009758
-6.423474 44.6486 -47.992325
-5.752096 44.834736 -48.605143
-3.908086 45.996452 -49.46365
-4.151926 47.080511 -48.669849
-4.426979 44.963581 -49.78895
-3.908086 45.996452 -49.46365
-5.104446 44.938204 -49.233647
-4.426979 44.963581 -49.78895
3 0 10 9
3 1 13 11
3 1 15 13
3 2 32 33
3 2 34 35
3 2 36 38
3 36 17 37
3 36 37 38
3 39 19 40
3 4 41 43
3 41 20 42
3 41 42 43
3 4 21 20
3 3 22 18
3 5 23 12
3 5 24 23
3 5 25 24
3 6 44 46
3 46 45 14
3 44 45 46
3 6 47 48
3 7 49 51
3 51 50 16
3 49 50 51
3 7 52 54
3 52 26 53
3 52 53 54
3 55 27 56
3 57 28 58
3 59 58 27
3 57 58 59
3 60 29 61
3 62 30 63
3 64 63 29
3 62 63 64
3 8 65 67
3 65 31 66
3 65 66 67
3 8 68 70
3 70 69 31
3 68 69 70
3 71 4 72
3 9 73 74
3 10 75 77
3 77 76 9
3 75 76 77
3 10 78 79
3 11 12 3
3 13 12 11
3 13 5 12
3 13 14 5
3 15 14 13
3 15 6 14
3 80 16 81
3 17 82 84
3 82 16 83
3 82 83 84
3 17 7 16
3 85 8 86
3 87 18 88
3 89 88 0
3 87 88 89
3 19 90 92
3 90 18 91
3 90 91 92
3 19 3 18
3 93 19 94
3 20 95 97
3 95 19 96
3 95 96 97
3 20 3 19
3 20 11 3
3 21 11 20
3 21 1 11
3 98 2 99
3 101 100 2
3 18 10 0
3 22 10 18
3 22 102 104
3 104 103 10
3 102 103 104
3 12 22 3
3 23 22 12
3 23 105 107
3 107 106 22
3 105 106 107
3 23 108 109
3 24 110 112
3 112 111 23
3 110 111 112
3 24 113 114
3 24 115 116
3 25 117 119
3 119 118 24
3 117 118 119
3 25 120 121
3 14 25 5
3 122 25 123
3 124 123 14
3 122 123 124
3 126 125 25
3 16 127 128
3 130 129 16
3 131 9 132
3 26 133 135
3 133 9 134
3 133 134 135
3 26 0 9
3 136 17 137
3 138 137 2
3 136 137 138
3 139 17 140
3 141 7 142
3 143 142 17
3 141 142 143
3 144 7 145
3 146 26 147
3 148 147 7
3 146 147 148
3 149 26 150
3 151 0 152
3 153 152 26
3 151 152 153
3 155 154 0
3 156 4 157
3 27 158 159
3 27 160 162
3 160 4 161
3 160 161 162
3 27 21 4
3 28 21 27
3 28 1 21
3 163 28 164
3 29 165 167
3 165 28 166
3 165 166 167
3 29 1 28
3 29 15 1
3 30 15 29
3 30 6 15
3 168 30 169
3 31 170 172
3 170 30 171
3 170 171 172
3 31 6 30
3 31 173 175
3 175 174 6
3 173 174 175
3 177 176 31
3 178 8 179
3 180 8 181
3 183 182 8
