ply
format ascii 1.0
element vertex 141
property float x
property float y
property float z
element face 122
property list uchar int vertex_index
end_header
5.383679 38.025261 -54.385822
3.89147 50.611832 -51.221378
11.230453 48.556496 -52.163887
4.939553 44.421417 -52.864002
7.560699 49.784714 -51.964203
8.307718 42.809219 -52.973595
11.307005 40.779366 -52.67683
5.247356 41.251007 -53.633911
3.869395 39.023388 -54.477489
4.032921 35.965118 -55.36977
10.875859 52.734257 -51.822826
9.011549 52.889877 -51.684776
9.463299 49.489925 -52.094902
8.000921 46.495533 -52.469219
9.63097 45.6231 -52.513123
12.868988 39.783485 -52.372967
9.819255 38.184532 -53.17836
4.494641 47.624859 -52.043613
3.32355 44.872189 -52.663437
5.717938 50.250023 -51.661701
6.188073 46.783661 -52.384338
6.662555 43.707813 -52.976051
6.819239 40.377064 -53.582733
12.978714 47.968597 -52.094391
12.934725 43.802963 -52.264648
11.303583 44.704418 -52.43927
9.806533 41.73098 -52.885117
8.253175 39.116982 -53.475948
6.882704 37.013161 -54.149601
3.027019 50.691164 -50.946624
3.566556 52.120764 -50.788282
7.312022 51.434095 -51.686514
8.037447 52.986677 -51.546801
8.286124 51.337295 -51.824489
6.639318 50.017369 -51.812952
6.390642 51.66675 -51.535263
7.312022 51.434095 -51.686514
13.81088 47.570352 -52.019389
13.792043 49.78466 -51.964379
8.267744 37.408181 -53.668624
9.036215 38.650757 -53.327154
9.050784 36.941955 -53.51983
7.582509 36.35627 -54.005451
7.56794 38.065072 -53.812775
8.267744 37.408181 -53.668624
4.473856 41.63949 -53.59477
4.319954 43.224695 -53.209816
5.093454 42.836212 -53.248956
3.784876 40.52568 -54.016559
4.473856 41.63949 -53.59477
4.558376 40.137197 -54.0557
3.143436 39.433749 -54.453608
3.784876 40.52568 -54.016559
3.224622 38.001395 -54.999256
3.143436 39.433749 -54.453608
3.306385 36.472259 -55.445397
3.224622 38.001395 -54.999256
3.951158 37.494253 -54.92363
3.375243 35.096178 -55.944422
3.306385 36.472259 -55.445397
9.943704 52.812067 -51.753801
9.580898 54.569508 -51.568573
10.513053 54.491698 -51.637598
12.745717 37.70314 -52.406405
13.599381 39.119268 -52.190718
12.054077 38.330656 -52.612498
12.745717 37.70314 -52.406405
11.273086 38.828597 -52.764429
12.087996 40.281425 -52.524899
12.054077 38.330656 -52.612498
10.529211 37.53118 -53.015194
10.56313 39.481949 -52.927595
11.273086 38.828597 -52.764429
9.748828 36.340964 -53.31152
10.529211 37.53118 -53.015194
9.050784 36.941955 -53.51983
9.748828 36.340964 -53.31152
11.532095 54.392523 -51.721633
10.513053 54.491698 -51.637598
11.777918 52.317847 -51.861343
11.532095 54.392523 -51.721633
11.955215 50.228966 -52.031874
11.053156 50.645376 -51.993357
11.777918 52.317847 -51.861343
3.6419 47.713037 -51.868834
3.340314 49.206524 -51.457716
4.193055 49.118346 -51.632496
3.056355 46.336703 -52.178746
3.6419 47.713037 -51.868834
3.909095 46.248524 -52.353525
2.496336 45.065491 -52.488214
3.056355 46.336703 -52.178746
3.511953 43.450081 -53.109533
4.131552 44.646803 -52.76372
4.319954 43.224695 -53.209816
2.712862 43.687455 -53.034941
3.511953 43.450081 -53.109533
2.496336 45.065491 -52.488214
2.712862 43.687455 -53.034941
4.560974 52.087006 -51.088836
3.566556 52.120764 -50.788282
8.628652 54.60248 -51.434642
9.580898 54.569508 -51.568573
8.628652 54.60248 -51.434642
8.037447 52.986677 -51.546801
5.474208 51.906101 -51.308998
6.390642 51.66675 -51.535263
4.804704 50.430927 -51.44154
4.560974 52.087006 -51.088836
5.474208 51.906101 -51.308998
3.027019 50.691164 -50.946624
3.340314 49.206524 -51.457716
12.829345 49.935017 -51.997125
13.792043 49.78466 -51.964379
12.104584 48.262546 -52.129139
11.955215 50.228966 -52.031874
12.829345 49.935017 -51.997125
13.704587 41.360888 -52.188698
13.599381 39.119268 -52.190718
13.737456 43.370627 -52.134539
13.704587 41.360888 -52.188698
12.901857 41.793224 -52.318808
13.788885 45.487535 -52.104517
13.737456 43.370627 -52.134539
12.95672 45.88578 -52.179519
13.81088 47.570352 -52.019389
13.788885 45.487535 -52.104517
6.802627 35.253411 -54.448303
7.582509 36.35627 -54.005451
6.177559 35.961267 -54.602958
6.802627 35.253411 -54.448303
5.428046 36.467318 -54.721069
6.133192 37.519211 -54.267711
6.177559 35.961267 -54.602958
4.752667 35.437246 -55.213043
4.7083 36.995189 -54.877796
5.428046 36.467318 -54.721069
4.073799 34.464963 -55.777695
4.752667 35.437246 -55.213043
3.375243 35.096178 -55.944422
4.073799 34.464963 -55.777695
3 0 8 7
3 0 9 8
3 2 12 10
3 2 14 12
3 1 29 30
3 3 18 17
3 4 31 33
3 33 32 11
3 31 32 33
3 4 34 36
3 34 19 35
3 34 35 36
3 4 20 19
3 5 21 13
3 5 22 21
3 37 23 38
3 6 24 15
3 6 25 24
3 6 26 25
3 39 27 40
3 41 40 16
3 39 40 41
3 42 28 43
3 44 43 27
3 42 43 44
3 7 45 47
3 47 46 3
3 45 46 47
3 8 48 50
3 50 49 7
3 48 49 50
3 8 51 52
3 8 53 54
3 9 55 57
3 57 56 8
3 55 56 57
3 9 58 59
3 10 60 62
3 60 11 61
3 60 61 62
3 12 11 10
3 12 4 11
3 12 13 4
3 14 13 12
3 14 5 13
3 63 15 64
3 65 15 66
3 67 6 68
3 69 68 15
3 67 68 69
3 70 16 71
3 72 71 6
3 70 71 72
3 73 16 74
3 76 75 16
3 77 10 78
3 79 10 80
3 81 2 82
3 83 82 10
3 81 82 83
3 17 84 86
3 86 85 1
3 84 85 86
3 18 87 89
3 89 88 17
3 87 88 89
3 18 90 91
3 92 18 93
3 94 93 3
3 92 93 94
3 95 18 96
3 98 97 18
3 99 1 100
3 11 101 102
3 104 103 11
3 19 105 106
3 19 107 109
3 107 1 108
3 107 108 109
3 19 17 1
3 20 17 19
3 20 3 17
3 13 20 4
3 21 20 13
3 21 3 20
3 21 7 3
3 22 7 21
3 22 0 7
3 111 110 1
3 23 112 113
3 23 114 116
3 114 2 115
3 114 115 116
3 15 117 118
3 24 119 121
3 121 120 15
3 119 120 121
3 24 122 123
3 24 124 126
3 124 23 125
3 124 125 126
3 25 23 24
3 25 2 23
3 25 14 2
3 26 14 25
3 26 5 14
3 16 26 6
3 27 26 16
3 27 5 26
3 27 22 5
3 28 22 27
3 28 0 22
3 127 28 128
3 129 28 130
3 131 0 132
3 133 132 28
3 131 132 133
3 134 9 135
3 136 135 0
3 134 135 136
3 137 9 138
3 140 139 9
