ply
format ascii 1.0
element vertex 250
property float x
property float y
property float z
element face 239
property list uchar int vertex_index
end_header
-2.884538 -57.549728 -44.318584
-4.579156 -45.625961 -44.407036
3.057129 -39.254333 -50.354649
0.713821 -67.793343 -44.556896
6.784005 -49.827591 -49.415119
-7.038153 -59.72694 -41.725544
-1.217598 -62.793388 -44.502861
3.956108 -58.907135 -46.86668
1.827839 -54.057178 -46.934647
7.097048 -35.729259 -53.045143
8.777035 -26.831591 -56.532738
-7.708489 -53.701511 -41.493649
-3.911883 -51.66251 -44.358181
0.247922 -48.342819 -47.145363
-0.910508 -42.824429 -47.39175
6.355738 -63.151051 -46.654583
4.75309 -44.73962 -49.840061
9.055471 -40.765041 -52.2798
-4.952558 -58.433407 -43.106968
-6.567098 -62.842327 -41.830254
-4.338158 -61.447243 -43.186855
-3.738294 -64.447723 -43.215878
-1.985681 -60.041 -44.487419
0.281168 -58.451004 -45.666817
-0.543482 -55.513336 -45.700871
-6.277355 -46.531689 -42.886848
-7.81196 -50.458946 -41.431019
-6.174724 -49.634254 -42.884407
-5.872509 -52.672245 -42.954582
-4.352693 -48.686481 -44.341534
-2.356387 -47.093464 -45.8587
1.858765 -69.923691 -44.553291
4.643038 -67.717415 -45.502201
3.480265 -65.586159 -45.637703
5.346334 -54.23542 -48.111568
6.537027 -56.510445 -47.976276
1.626958 -44.079948 -48.608829
2.568639 -46.480339 -48.576138
3.772247 -42.156319 -50.017494
8.989397 -33.63028 -54.349937
8.071516 -38.321777 -52.650246
-8.627194 -63.77634 -40.466354
-2.73891 -67.025787 -43.398121
-0.212936 -65.21833 -44.587593
2.329852 -63.322826 -45.686634
1.329421 -60.747746 -45.742386
2.913883 -56.455856 -46.951649
4.288744 -51.982033 -48.205414
4.989758 -37.714027 -51.639008
6.013562 -33.152027 -53.363853
7.829635 -31.351505 -54.661076
-7.503763 -56.722126 -41.554264
-5.520941 -55.718002 -42.979004
-3.252798 -54.292408 -44.473579
-1.245034 -52.795891 -45.727772
-1.860472 -49.915653 -45.785557
-0.379221 -45.598507 -47.266052
1.036837 -41.121704 -48.876022
5.006652 -61.259529 -46.732525
1.061433 -51.084671 -47.081593
3.364985 -49.24321 -48.377678
5.690564 -47.264706 -49.631397
5.99103 -40.263908 -51.386536
6.947749 -42.643188 -51.129894
8.008877 -45.365128 -50.787418
-3.677645 -44.892691 -45.170643
-3.564414 -46.42295 -45.137892
-4.465924 -47.156221 -44.374285
-0.006335 -69.893745 -44.048409
-0.526632 -68.662091 -44.028801
1.286293 -68.858517 -44.555093
0.566137 -70.95892 -44.046606
-0.006335 -69.893745 -44.048409
7.303995 -51.04191 -49.284486
6.585159 -53.245824 -48.632711
6.065169 -52.031505 -48.763343
7.966249 -48.668033 -49.984607
7.303995 -51.04191 -49.284486
9.514354 -34.878407 -54.124891
9.974601 -32.733605 -54.934343
-7.832674 -61.75164 -41.095949
-8.790535 -62.284508 -40.399765
-7.996014 -60.259808 -41.02936
-7.500278 -64.937967 -41.144888
-6.312585 -64.275453 -41.880545
5.555236 -31.865823 -53.531568
5.059342 -33.970844 -52.680445
8.303335 -29.091548 -55.596907
7.375006 -29.93862 -54.934954
7.848705 -27.678663 -55.870785
9.328287 -27.944135 -56.333861
8.854587 -30.204092 -55.398029
8.303335 -29.091548 -55.596907
9.715583 -25.798815 -57.218386
9.328287 -27.944135 -56.333861
-8.527294 -54.197546 -40.767601
-8.57903 -52.576263 -40.736286
-7.760224 -52.080229 -41.462334
-8.513986 -55.816361 -40.791834
-8.527294 -54.197546 -40.767601
-7.606126 -55.211819 -41.523956
-8.411623 -57.326668 -40.822142
-8.513986 -55.816361 -40.791834
6.852764 -64.302756 -46.48481
5.996415 -66.585938 -45.908619
5.499388 -65.434233 -46.078392
7.630122 -62.041012 -47.057225
6.852764 -64.302756 -46.48481
7.087956 -57.634165 -47.862844
7.811932 -55.439697 -48.457876
9.714953 -41.816892 -52.158318
9.191655 -44.116936 -51.412126
8.532174 -43.065084 -51.533609
-5.198115 -63.577911 -42.558846
-6.312585 -64.275453 -41.880545
-5.452628 -62.144785 -42.508555
-4.038226 -62.947483 -43.201366
-4.898183 -65.078151 -42.573357
-5.198115 -63.577911 -42.558846
8.22346 -25.571039 -56.760945
7.848705 -27.678663 -55.870785
8.530532 -23.415163 -57.659762
9.084108 -24.675714 -57.431555
8.22346 -25.571039 -56.760945
-7.044657 -48.495317 -42.158934
-7.801564 -48.928364 -41.416106
-7.034262 -46.964735 -42.14402
-2.56626 -45.626442 -45.896475
-3.35454 -47.889972 -45.100117
-3.564414 -46.42295 -45.137892
-1.843321 -43.491924 -46.663
-1.633447 -44.958946 -46.625225
-2.56626 -45.626442 -45.896475
1.160752 -71.992024 -44.050099
0.566137 -70.95892 -44.046606
2.575254 -70.919415 -44.521186
1.160752 -71.992024 -44.050099
3.250901 -68.820553 -45.027746
3.96739 -69.816277 -44.995642
2.575254 -70.919415 -44.521186
7.180506 -54.383337 -48.565065
5.941681 -55.372932 -48.043922
6.585159 -53.245824 -48.632711
7.811932 -55.439697 -48.457876
7.180506 -54.383337 -48.565065
9.055414 -37.224155 -53.275046
8.530456 -35.976028 -53.500091
9.514354 -34.878407 -54.124891
9.547391 -38.445787 -53.089822
8.563493 -39.543409 -52.465023
9.055414 -37.224155 -53.275046
10.132665 -39.627857 -52.882565
9.547391 -38.445787 -53.089822
-6.263676 -44.982267 -42.906433
-7.034262 -46.964735 -42.14402
-5.505769 -44.575175 -43.664057
-6.263676 -44.982267 -42.906433
-4.65667 -44.12231 -44.42415
-5.428256 -46.078825 -43.646942
-5.505769 -44.575175 -43.664057
-3.832511 -43.522041 -45.192829
-4.65667 -44.12231 -44.42415
-9.649207 -64.266256 -39.704441
-8.790535 -62.284508 -40.399765
-9.553597 -65.843107 -39.757969
-9.649207 -64.266256 -39.704441
-8.530326 -65.404973 -40.462938
-7.597146 -63.309333 -41.148304
-7.500278 -64.937967 -41.144888
-9.553597 -65.843107 -39.757969
-8.530326 -65.404973 -40.462938
-4.513427 -66.565658 -42.655661
-4.898183 -65.078151 -42.573357
-4.013736 -67.854691 -42.746783
-4.513427 -66.565658 -42.655661
-3.238602 -65.736755 -43.307
-3.527887 -69.038517 -42.860765
-4.013736 -67.854691 -42.746783
-2.252997 -68.278312 -43.449414
-3.527887 -69.038517 -42.860765
-0.99001 -67.374584 -44.04415
-2.252997 -68.278312 -43.449414
-1.475923 -66.122058 -43.992857
0.250443 -66.505836 -44.572244
-0.526632 -68.662091 -44.028801
-0.99001 -67.374584 -44.04415
4.547441 -36.251844 -51.818022
4.023443 -38.48418 -50.996828
3.581126 -37.021997 -51.175843
5.50166 -35.433027 -52.50143
4.547441 -36.251844 -51.818022
5.059342 -33.970844 -52.680445
6.466969 -30.83888 -54.286343
5.555236 -31.865823 -53.531568
6.921598 -32.251766 -54.012465
6.466969 -30.83888 -54.286343
7.375006 -29.93862 -54.934954
9.434468 -31.34348 -55.24246
8.409516 -32.490893 -54.505506
8.854587 -30.204092 -55.398029
9.974601 -32.733605 -54.934343
9.434468 -31.34348 -55.24246
10.022656 -23.642938 -58.117203
9.715583 -25.798815 -57.218386
9.084108 -24.675714 -57.431555
-8.572843 -50.874708 -40.684095
-7.801564 -48.928364 -41.416106
-8.572843 -50.874708 -40.684095
-8.57903 -52.576263 -40.736286
-8.22882 -58.757401 -40.94372
-8.411623 -57.326668 -40.822142
-7.270958 -58.224533 -41.639904
-7.996014 -60.259808 -41.02936
-8.22882 -58.757401 -40.94372
-3.677645 -44.892691 -45.170643
-3.832511 -43.522041 -45.192829
-1.11222 -41.375046 -47.471636
-1.843321 -43.491924 -46.663
-0.290134 -40.628493 -48.17449
-1.11222 -41.375046 -47.471636
0.683538 -39.77713 -48.916626
0.063165 -41.973067 -48.133886
-0.290134 -40.628493 -48.17449
1.628481 -38.934849 -49.679882
0.683538 -39.77713 -48.916626
2.638628 -38.001163 -50.419196
2.046983 -40.188018 -49.615336
1.628481 -38.934849 -49.679882
3.581126 -37.021997 -51.175843
2.638628 -38.001163 -50.419196
5.336447 -68.673355 -45.395418
4.660799 -70.772216 -44.888858
3.96739 -69.816277 -44.995642
5.336447 -68.673355 -45.395418
5.996415 -66.585938 -45.908619
6.322769 -60.008707 -47.240969
5.77184 -58.884987 -47.3544
7.087956 -57.634165 -47.862844
6.997312 -60.954468 -47.201998
5.681195 -62.20529 -46.693554
6.322769 -60.008707 -47.240969
7.630122 -62.041012 -47.057225
6.997312 -60.954468 -47.201998
8.578685 -46.436802 -50.670757
7.966249 -48.668033 -49.984607
7.396441 -47.596359 -50.101269
8.578685 -46.436802 -50.670757
9.191655 -44.116936 -51.412126
9.714953 -41.816892 -52.158318
10.132665 -39.627857 -52.882565
3 0 20 18
3 0 22 20
3 0 24 22
3 1 27 25
3 1 29 27
3 1 65 67
3 67 66 29
3 65 66 67
3 3 68 69
3 3 70 72
3 70 31 71
3 70 71 72
3 3 33 31
3 4 73 75
3 75 74 34
3 73 74 75
3 4 76 77
3 2 38 36
3 79 78 39
3 5 80 82
3 80 41 81
3 80 81 82
3 84 83 19
3 6 42 21
3 6 43 42
3 6 45 43
3 8 46 23
3 8 47 46
3 85 49 86
3 10 87 89
3 87 50 88
3 87 88 89
3 10 90 92
3 92 91 50
3 90 91 92
3 10 93 94
3 11 95 97
3 97 96 26
3 95 96 97
3 11 98 99
3 11 100 102
3 100 51 101
3 100 101 102
3 12 52 28
3 12 53 52
3 12 55 53
3 14 56 30
3 14 57 56
3 15 103 105
3 105 104 32
3 103 104 105
3 15 106 107
3 7 58 44
3 109 108 35
3 13 59 54
3 16 60 37
3 16 61 60
3 9 62 48
3 17 63 40
3 17 64 63
3 17 110 112
3 112 111 64
3 110 111 112
3 18 19 5
3 20 19 18
3 20 113 115
3 115 114 19
3 113 114 115
3 20 116 118
3 116 21 117
3 116 117 118
3 22 21 20
3 22 6 21
3 22 23 6
3 24 23 22
3 24 8 23
3 119 10 120
3 123 122 10
3 121 122 123
3 25 124 126
3 124 26 125
3 124 125 126
3 27 26 25
3 27 11 26
3 27 28 11
3 29 28 27
3 29 12 28
3 29 30 12
3 127 30 128
3 129 128 29
3 127 128 129
3 130 14 131
3 132 131 30
3 130 131 132
3 31 133 134
3 31 135 136
3 31 137 139
3 137 32 138
3 137 138 139
3 33 32 31
3 33 15 32
3 34 35 7
3 140 35 141
3 142 141 34
3 140 141 142
3 144 143 35
3 36 37 13
3 38 37 36
3 38 16 37
3 39 40 9
3 145 40 146
3 147 146 39
3 145 146 147
3 148 17 149
3 150 149 40
3 148 149 150
3 152 151 17
3 153 25 154
3 155 25 156
3 157 1 158
3 159 158 25
3 157 158 159
3 161 160 1
3 41 162 163
3 41 164 165
3 19 41 5
3 166 41 167
3 168 167 19
3 166 167 168
3 170 169 41
3 21 171 172
3 42 173 175
3 175 174 21
3 173 174 175
3 42 176 177
3 42 178 179
3 43 180 182
3 182 181 42
3 180 181 182
3 43 183 185
3 183 3 184
3 183 184 185
3 43 44 3
3 45 44 43
3 45 7 44
3 23 45 6
3 46 45 23
3 46 7 45
3 46 34 7
3 47 34 46
3 47 4 34
3 186 48 187
3 188 187 2
3 186 187 188
3 49 189 191
3 189 48 190
3 189 190 191
3 49 9 48
3 192 49 193
3 50 194 196
3 194 49 195
3 194 195 196
3 50 9 49
3 50 39 9
3 197 39 198
3 199 198 50
3 197 198 199
3 201 200 39
3 204 203 10
3 202 203 204
3 26 205 206
3 208 207 26
3 51 209 210
3 51 211 213
3 211 5 212
3 211 212 213
3 28 51 11
3 52 51 28
3 52 5 51
3 52 18 5
3 53 18 52
3 53 0 18
3 53 54 0
3 55 54 53
3 55 13 54
3 30 55 12
3 56 55 30
3 56 13 55
3 56 36 13
3 57 36 56
3 57 2 36
3 215 214 1
3 216 14 217
3 218 14 219
3 220 57 221
3 222 221 14
3 220 221 222
3 223 57 224
3 225 2 226
3 227 226 57
3 225 226 227
3 229 228 2
3 32 230 232
3 230 231 232
3 234 233 32
3 44 33 3
3 58 33 44
3 58 15 33
3 35 58 7
3 235 58 236
3 237 236 35
3 235 236 237
3 238 15 239
3 240 239 58
3 238 239 240
3 242 241 15
3 54 24 0
3 59 24 54
3 59 8 24
3 37 59 13
3 60 59 37
3 60 8 59
3 60 47 8
3 61 47 60
3 61 4 47
3 48 38 2
3 62 38 48
3 62 16 38
3 40 62 9
3 63 62 40
3 63 16 62
3 63 61 16
3 64 61 63
3 64 4 61
3 64 243 245
3 245 244 4
3 243 244 245
3 247 246 64
3 249 248 17
