ply
format ascii 1.0
element vertex 581
property float x
property float y
property float z
element face 608
property list uchar int vertex_index
end_header
24.940538 -52.997837 59.136059
28.944464 -53.290249 40.558277
28.945545 -28.682827 36.169899
20.49147 -68.245033 49.833622
18.380379 -75.978767 39.37735
20.732758 -60.03981 58.181152
25.263338 -62.508976 51.216633
28.179535 -31.650135 44.656727
22.234663 -80.497627 31.315216
28.407644 -43.19997 47.939796
27.834448 -53.673588 50.338791
27.722185 -63.710159 41.981747
18.26668 -66.259018 52.76046
17.45923 -69.539162 48.370213
18.413855 -62.53651 56.683956
20.879425 -64.223534 54.285172
26.365782 -48.805286 58.547928
27.56798 -48.878056 54.170975
26.675606 -53.468975 55.069038
24.913929 -67.165825 46.775677
26.739248 -63.246151 46.769405
26.33005 -68.156731 42.116184
28.442852 -23.637499 39.064934
29.175957 -21.833649 35.176369
29.838181 -27.1752 32.175602
28.732792 -48.110203 44.358139
28.699644 -42.503819 42.979282
29.047289 -47.425385 39.422401
22.479637 -70.25695 46.032742
21.540104 -74.38279 40.961971
19.529839 -72.156036 44.837795
16.365402 -72.94574 43.211971
23.130701 -56.867283 58.88142
25.266077 -57.632584 55.438908
23.352598 -61.472198 54.973217
23.075033 -65.933945 50.74984
28.418884 -30.278038 40.344433
28.945072 -58.312206 36.407356
29.228529 -52.733189 35.461353
20.451853 -78.329552 35.679592
28.305798 -48.627792 49.285706
28.522139 -53.71851 45.426003
26.859201 -58.316387 51.048435
27.921341 -58.594204 46.291359
28.561804 -58.557541 41.407265
28.33551 -37.792732 46.222034
28.555483 -36.726521 41.650471
28.928911 -35.113022 37.12141
17.264593 -65.134422 54.037521
16.93854 -66.6231 52.15398
18.419367 -64.451363 54.798214
25.706936 -50.839294 59.001602
26.529091 -51.052658 56.913658
25.85898 -53.222546 57.293301
24.619848 -69.472687 44.394302
25.682417 -67.605728 44.621712
28.665306 -26.157694 37.681774
28.739868 -22.847355 37.182095
29.033983 -25.249914 35.646721
29.508404 -24.508762 33.657639
29.360149 -27.902363 34.086304
28.873472 -50.678719 42.333374
28.902555 -47.878902 41.814308
29.037552 -50.547516 39.801132
21.499338 -69.273994 48.020172
21.068401 -71.452019 45.356308
20.093483 -70.175491 47.450195
16.92461 -71.166138 45.949745
21.966784 -58.542141 58.626263
23.217649 -59.22274 57.023659
22.072147 -60.767433 56.760094
20.724804 -66.310394 52.079693
21.982157 -65.084045 52.669312
21.855293 -67.177055 50.388916
22.942799 -68.058113 48.398029
28.225679 -27.831861 41.840538
28.276085 -31.095049 42.476536
20.007986 -75.383087 40.143154
21.050337 -76.41555 38.251579
19.411304 -77.254799 37.500988
27.691601 -51.300526 52.415611
27.98625 -48.833172 51.765785
28.116327 -51.116455 49.950459
28.437021 -51.091862 47.335972
28.23024 -53.651379 47.885414
25.290047 -60.084316 53.397079
26.130737 -58.063416 53.280041
26.147215 -60.467514 51.206535
27.31741 -63.403099 44.397038
27.384182 -61.020126 46.663071
27.857027 -61.14856 44.174286
28.27607 -58.772209 43.767483
28.204493 -61.189163 41.786865
28.485855 -61.071999 39.345081
28.069023 -63.679211 39.660591
30.692245 -22.613098 29.977278
30.990198 -18.834585 29.783884
28.388472 -40.568913 47.068855
28.833456 -41.952778 40.636475
28.641617 -39.609077 42.155006
28.778389 -38.881779 39.863182
28.720123 -35.885578 39.26778
28.970884 -38.459545 37.556717
19.390842 -67.320381 51.327785
18.946566 -69.052246 49.145981
18.015371 -67.901855 50.668999
19.560932 -61.464592 57.424484
20.854696 -62.185196 56.274212
19.637228 -63.53833 55.484417
19.628933 -65.452568 53.474083
16.623911 -76.289703 38.514732
17.624338 -77.770927 36.66296
27.431614 -46.549454 55.797222
27.058731 -48.77354 56.397602
27.183386 -51.332848 54.635117
27.340254 -53.767235 52.594093
25.136112 -64.995247 48.858097
26.044601 -62.837547 49.178532
25.925777 -65.232697 46.876442
26.5767 -65.673866 44.510601
27.1105 -65.857735 42.277912
28.884487 -19.307274 36.650948
29.352062 -18.170671 34.835308
30.036818 -23.640734 31.863588
30.405008 -26.233526 30.283609
28.582672 -45.71854 46.125069
28.562073 -42.928059 45.414673
28.745733 -45.367607 43.573475
28.891092 -44.886707 41.109688
23.402464 -71.019966 44.078362
22.068514 -72.326141 43.549217
20.639816 -73.387001 42.828854
19.025797 -74.057648 42.17675
18.578142 -70.755157 46.833214
17.944468 -72.61573 44.157188
17.364433 -74.536026 41.278133
24.008158 -54.960102 59.213253
25.139433 -55.258514 57.361847
24.282928 -57.302963 57.233517
24.319942 -59.612141 55.377415
24.333054 -62.077751 53.175335
22.10701 -62.89838 54.802792
23.212736 -63.726753 52.963909
24.282867 -64.320137 51.003143
24.086519 -66.501152 48.881466
23.839714 -68.788689 46.452255
28.232481 -24.694777 41.078548
28.418005 -27.277382 39.639145
28.657692 -29.644958 38.124798
28.979492 -55.790565 38.400108
29.099873 -53.171688 37.944069
29.119602 -55.598518 35.837345
21.314936 -79.518303 33.498306
18.804428 -79.036453 34.941174
19.790344 -80.33165 32.937149
28.236185 -43.563126 50.362915
27.865543 -46.493271 53.336388
28.173002 -46.269787 50.949505
28.391289 -45.913567 48.664898
28.541145 -48.365376 46.850014
28.682125 -50.824818 44.815487
28.753481 -53.50156 43.062057
26.053839 -55.729103 55.20673
26.820015 -55.906693 53.004513
27.420404 -56.132057 50.681976
26.850355 -60.667114 49.017159
27.415514 -58.489223 48.866985
27.894262 -56.205181 48.361614
28.269634 -56.289055 45.915871
28.556826 -56.223564 43.506905
28.800938 -55.918354 40.967556
28.775084 -58.513683 38.91497
28.698582 -61.082005 36.640793
24.75124 -50.542702 60.851288
23.853519 -52.606361 60.855217
22.829082 -54.565102 60.703091
28.256226 -34.778309 45.473717
28.508135 -40.033371 44.608753
28.438694 -37.264427 43.833488
28.346588 -34.193577 43.210648
28.478846 -33.530991 40.944912
28.667789 -32.72438 38.732731
28.934444 -32.059151 36.561703
29.164837 -50.142887 37.555386
29.198923 -34.652519 35.07864
29.263309 -31.221903 34.547543
29.692074 -30.719902 32.460117
16.655866 -65.237751 53.744991
16.848498 -64.654831 54.487775
16.848498 -64.654831 54.487775
17.294369 -64.344856 54.880046
25.00778 -69.717827 43.284905
24.453187 -70.540897 43.211599
28.148563 -30.119284 44.351457
28.124815 -30.531073 45.406525
28.22781 -31.372592 43.566631
28.196838 -29.841741 43.261362
28.148563 -30.119284 44.351457
22.714022 -80.795475 30.302537
22.928646 -79.71775 31.632781
22.080075 -81.486007 29.978918
22.714022 -80.795475 30.302537
31.045454 -22.1223 29.064363
30.85921 -24.06707 29.201156
28.398058 -41.884442 47.504326
28.320853 -40.715576 48.324326
28.330438 -42.031105 48.759796
28.88543 -40.252428 39.094946
28.805923 -40.417279 40.249828
28.912963 -41.787928 39.481592
28.981677 -40.041311 37.941713
28.874637 -38.670662 38.70995
28.88543 -40.252428 39.094946
16.723584 -67.379791 51.083061
16.253373 -66.65905 51.838445
16.310973 -77.158729 37.137754
15.771308 -76.304089 38.078199
26.712257 -48.789413 57.472765
26.960663 -47.649858 57.271939
26.614188 -47.665731 58.347102
26.601459 -68.255443 40.97077
26.991684 -67.105946 41.051634
26.720275 -67.007233 42.197048
28.490979 -21.895387 38.764519
28.364168 -22.47843 39.73116
29.414942 -21.381385 34.321051
29.502994 -19.549896 34.15052
29.26401 -20.00216 35.005838
29.043138 -46.025488 39.082445
28.96504 -44.756149 39.926088
28.96919 -46.156046 40.266044
16.004495 -73.825542 41.781788
16.50401 -74.620686 40.814869
16.864917 -73.740883 42.245052
28.164867 -25.078993 42.169741
28.180069 -23.371504 41.776714
22.004723 -74.822186 39.96903
22.271687 -73.727138 41.306676
21.194593 -77.888379 35.920086
21.493835 -76.931377 37.20608
20.751095 -77.372551 36.965586
20.883395 -78.923928 34.588949
21.626135 -78.482754 34.829443
21.194593 -77.888379 35.920086
17.98274 -79.326442 34.419802
18.214383 -78.40369 35.802067
17.392695 -78.69368 35.280695
19.577799 -81.368313 31.467234
19.005795 -80.716057 32.439491
20.305749 -80.97607 31.800863
19.577799 -81.368313 31.467234
28.120109 -43.719086 51.598242
28.1715 -42.400721 51.13311
28.518955 -62.395007 36.868189
28.592219 -61.077002 37.992937
28.412592 -62.390003 38.220333
28.629254 -62.32009 35.541792
28.518955 -62.395007 36.868189
24.604106 -49.364376 61.687614
25.131842 -49.527216 60.744032
23.186515 -52.415619 61.613018
23.713584 -51.442976 61.671534
22.674296 -53.394989 61.536955
23.3413 -53.585732 60.779154
23.186515 -52.415619 61.613018
31.15627 -17.01191 29.671979
31.359518 -18.3211 28.920326
28.262862 -36.547241 47.005085
28.287222 -37.933605 47.414179
28.295868 -36.285521 45.847876
28.22322 -35.04003 46.630927
28.262862 -36.547241 47.005085
29.376067 -34.285334 34.004748
29.338481 -35.879911 34.159142
29.40826 -32.570025 33.739199
29.231116 -32.937211 34.813091
29.376067 -34.285334 34.004748
29.622643 -32.319025 32.695486
29.477691 -30.970903 33.50383
29.40826 -32.570025 33.739199
16.492839 -65.98209 52.80322
17.101567 -65.878761 53.09575
16.655866 -65.237751 53.744991
16.253373 -66.65905 51.838445
16.492839 -65.98209 52.80322
17.871755 -64.003327 55.260393
18.416611 -63.493937 55.741085
17.869 -63.0459 56.203264
17.84198 -64.792892 54.417867
17.871755 -64.003327 55.260393
17.294369 -64.344856 54.880046
25.539065 -68.784347 43.39861
25.151133 -68.539208 44.508007
25.00778 -69.717827 43.284905
25.862881 -69.059849 42.145846
26.006234 -67.881229 43.368948
25.539065 -68.784347 43.39861
26.146838 -69.361622 40.960764
25.862881 -69.059849 42.145846
16.446568 -70.402161 46.832161
17.19192 -70.35265 47.159979
16.713878 -69.588673 48.042395
16.08746 -71.196655 45.522157
16.446568 -70.402161 46.832161
15.807856 -72.086456 44.15327
16.645006 -72.055939 44.580858
16.08746 -71.196655 45.522157
15.552932 -72.972077 42.73826
15.807856 -72.086456 44.15327
28.171634 -28.210147 42.943363
28.161465 -26.647535 42.550736
28.250882 -29.463455 42.158537
28.171634 -28.210147 42.943363
28.196838 -29.841741 43.261362
29.009366 -58.173267 35.151409
28.898646 -59.603933 35.305739
28.204176 -63.69361 38.378088
28.412592 -62.390003 38.220333
28.277439 -62.375605 39.502836
30.841221 -20.723841 29.880581
30.642705 -19.370944 30.675829
30.493728 -21.2602 30.772526
31.194431 -20.233044 28.967666
30.841221 -20.723841 29.880581
31.045454 -22.1223 29.064363
31.359518 -18.3211 28.920326
31.194431 -20.233044 28.967666
28.313703 -39.321696 47.837589
28.320853 -40.715576 48.324326
28.361991 -39.180823 46.645444
28.287222 -37.933605 47.414179
28.313703 -39.321696 47.837589
29.262265 -51.268496 35.229056
29.285058 -52.537053 34.204762
17.261999 -68.019169 50.34057
17.476955 -67.262477 51.41149
16.723584 -67.379791 51.083061
16.983929 -68.837822 49.191177
17.7373 -68.720508 49.519606
17.261999 -68.019169 50.34057
16.713878 -69.588673 48.042395
16.983929 -68.837822 49.191177
28.15368 -32.053117 45.81559
28.124815 -30.531073 45.406525
22.505859 -79.410954 32.676902
22.928646 -79.71775 31.632781
16.811187 -77.899341 36.211868
17.124125 -77.030315 37.588846
16.310973 -77.158729 37.137754
17.392695 -78.69368 35.280695
16.811187 -77.899341 36.211868
27.147104 -46.537815 56.971749
27.355306 -45.311611 56.662256
27.245173 -47.661497 56.097412
27.147104 -46.537815 56.971749
26.960663 -47.649858 57.271939
27.316777 -66.011261 41.040804
27.622619 -64.937473 40.892722
27.416342 -64.783947 42.129829
27.316777 -66.011261 41.040804
26.991684 -67.105946 41.051634
26.601459 -68.255443 40.97077
26.146838 -69.361622 40.960764
28.639487 -21.500315 37.823099
28.490979 -21.895387 38.764519
28.59136 -23.242427 38.123514
28.711796 -19.730275 37.557526
28.639487 -21.500315 37.823099
28.812178 -21.077314 36.916522
28.790192 -17.927251 37.305024
28.711796 -19.730275 37.557526
28.997858 -17.433733 36.382439
28.790192 -17.927251 37.305024
29.231645 -16.865432 35.474619
28.997858 -17.433733 36.382439
29.118274 -18.738972 35.743128
29.478238 -16.284043 34.651668
29.231645 -16.865432 35.474619
29.626877 -17.67511 33.979824
29.753052 -15.788483 33.796184
29.478238 -16.284043 34.651668
29.626877 -17.67511 33.979824
29.502994 -19.549896 34.15052
29.581165 -22.718941 33.561686
29.414942 -21.381385 34.321051
29.34218 -23.171205 34.417004
29.845372 -22.284927 32.66466
29.581165 -22.718941 33.561686
29.772611 -24.074748 32.760614
30.166015 -21.774018 31.715681
29.845372 -22.284927 32.66466
30.364531 -23.126916 30.920433
30.493728 -21.2602 30.772526
30.166015 -21.774018 31.715681
30.715592 -25.877284 29.354322
30.85921 -24.06707 29.201156
30.548626 -24.423312 30.130443
28.936222 -43.289185 39.689482
28.862274 -43.419742 40.873081
28.96504 -44.756149 39.926088
28.912963 -41.787928 39.481592
28.936222 -43.289185 39.689482
23.202866 -72.045727 42.864872
23.844495 -71.314537 43.053629
22.535891 -72.698814 42.600299
23.202866 -72.045727 42.864872
22.735489 -71.673054 43.813789
21.804309 -73.354466 42.255594
22.271687 -73.727138 41.306676
22.535891 -72.698814 42.600299
16.13375 -75.497524 39.433168
16.994172 -75.412865 39.896433
16.50401 -74.620686 40.814869
15.771308 -76.304089 38.078199
16.13375 -75.497524 39.433168
16.004495 -73.825542 41.781788
15.552932 -72.972077 42.73826
23.844495 -71.314537 43.053629
24.453187 -70.540897 43.211599
24.011156 -70.246326 44.236332
28.258983 -23.007069 40.737966
28.20657 -21.683796 41.436132
28.180069 -23.371504 41.776714
28.337666 -24.166138 40.071741
28.364168 -22.47843 39.73116
28.258983 -23.007069 40.737966
28.22908 -26.263319 41.459543
28.164867 -25.078993 42.169741
28.161465 -26.647535 42.550736
29.096631 -56.816423 34.866404
29.032337 -56.955362 36.12235
29.009366 -58.173267 35.151409
29.17542 -55.43251 34.596458
29.096631 -56.816423 34.866404
29.229883 -53.999846 34.408462
29.174066 -54.165853 35.649349
29.17542 -55.43251 34.596458
29.285058 -52.537053 34.204762
29.229883 -53.999846 34.408462
21.75984 -75.838566 38.613834
22.004723 -74.822186 39.96903
21.29522 -75.39917 39.606775
21.75984 -75.838566 38.613834
21.493835 -76.931377 37.20608
22.045995 -78.921291 33.768448
21.626135 -78.482754 34.829443
21.7748 -80.007965 32.406761
22.505859 -79.410954 32.676902
22.045995 -78.921291 33.768448
18.512836 -80.068458 33.441503
17.98274 -79.326442 34.419802
19.297386 -79.684051 33.939161
18.512836 -80.068458 33.441503
19.005795 -80.716057 32.439491
21.068045 -80.569397 32.081441
20.55264 -79.924976 33.217727
20.305749 -80.97607 31.800863
21.527909 -81.059059 30.989897
21.7748 -80.007965 32.406761
21.068045 -80.569397 32.081441
22.080075 -81.486007 29.978918
21.527909 -81.059059 30.989897
28.244709 -42.212683 49.971356
28.1715 -42.400721 51.13311
28.321914 -43.381548 49.151356
28.330438 -42.031105 48.759796
28.244709 -42.212683 49.971356
27.560499 -45.284756 55.52421
27.355306 -45.311611 56.662256
27.777463 -45.256664 54.293793
27.560499 -45.284756 55.52421
27.648578 -46.521362 54.566805
27.934787 -45.184158 53.084978
27.777463 -45.256664 54.293793
28.088517 -45.072417 51.891537
27.934787 -45.184158 53.084978
28.019272 -46.381529 52.142947
28.204594 -44.916456 50.65621
28.120109 -43.719086 51.598242
28.088517 -45.072417 51.891537
28.7754 -60.988833 35.422457
28.898646 -59.603933 35.305739
28.821827 -59.697106 36.524074
28.7754 -60.988833 35.422457
28.629254 -62.32009 35.541792
27.796039 -64.921999 39.732143
27.895604 -63.694685 40.821169
27.622619 -64.937473 40.892722
27.988657 -64.868597 38.494787
27.796039 -64.921999 39.732143
28.204176 -63.69361 38.378088
27.988657 -64.868597 38.494787
26.286693 -47.599344 59.351996
26.614188 -47.665731 58.347102
25.939113 -48.658508 59.592352
26.286693 -47.599344 59.351996
25.60969 -49.675512 59.819189
26.036359 -49.82229 58.774765
25.939113 -48.658508 59.592352
25.229088 -50.690998 59.926445
25.60969 -49.675512 59.819189
25.131842 -49.527216 60.744032
24.162445 -50.411147 61.669569
24.604106 -49.364376 61.687614
24.30238 -51.574531 60.853252
24.162445 -50.411147 61.669569
23.713584 -51.442976 61.671534
22.140816 -54.273159 61.381496
22.674296 -53.394989 61.536955
22.318718 -55.390358 60.5535
22.140816 -54.273159 61.381496
22.469528 -56.541449 59.642664
22.979892 -55.716193 59.792255
22.318718 -55.390358 60.5535
21.887569 -57.378878 59.515085
22.548742 -57.704712 58.753842
22.469528 -56.541449 59.642664
21.293447 -58.144631 59.307799
21.887569 -57.378878 59.515085
20.676434 -58.893465 59.085243
21.349771 -59.290976 58.403707
21.293447 -58.144631 59.307799
20.071244 -59.657967 58.721193
20.676434 -58.893465 59.085243
19.48533 -60.370357 58.342859
20.146845 -60.752201 57.802818
20.071244 -59.657967 58.721193
18.866418 -61.072161 57.872892
19.48533 -60.370357 58.342859
18.29288 -61.60812 57.502629
18.987394 -62.000551 57.05422
18.866418 -61.072161 57.872892
17.764547 -62.20544 56.973158
18.29288 -61.60812 57.502629
17.869 -63.0459 56.203264
17.764547 -62.20544 56.973158
30.782677 -17.472635 30.564728
30.642705 -19.370944 30.675829
30.782677 -17.472635 30.564728
31.15627 -17.01191 29.671979
28.192025 -33.617204 46.224085
28.22322 -35.04003 46.630927
28.21788 -33.214222 45.065222
28.15368 -32.053117 45.81559
28.192025 -33.617204 46.224085
29.230419 -49.973344 36.276072
29.196683 -51.438038 36.50837
29.262265 -51.268496 35.229056
29.180262 -48.747537 37.240057
29.230419 -49.973344 36.276072
29.121488 -47.388786 38.173564
29.106063 -48.784136 38.488894
29.180262 -48.747537 37.240057
29.043138 -46.025488 39.082445
29.121488 -47.388786 38.173564
29.073883 -39.665259 36.779229
28.981677 -40.041311 37.941713
29.082429 -38.103521 36.475172
29.073883 -39.665259 36.779229
29.061442 -36.43026 36.257519
28.949897 -36.786283 37.339063
29.082429 -38.103521 36.475172
29.196449 -36.200008 35.236134
29.338481 -35.879911 34.159142
29.063917 -34.88277 36.100025
29.061442 -36.43026 36.257519
29.196449 -36.200008 35.236134
29.838636 -31.894716 31.647613
29.622643 -32.319025 32.695486
29.928525 -30.190176 31.532759
29.838636 -31.894716 31.647613
30.001579 -28.417825 31.390502
29.765127 -28.947551 32.317859
29.928525 -30.190176 31.532759
30.284992 -27.946988 30.444505
30.121595 -26.704363 31.229605
30.001579 -28.417825 31.390502
30.563234 -27.662034 29.461915
30.284992 -27.946988 30.444505
30.715592 -25.877284 29.354322
30.563234 -27.662034 29.461915
3 188 187 48
3 189 48 190
3 0 53 51
3 192 191 54
3 2 58 56
3 2 60 58
3 1 63 61
3 3 66 64
3 5 70 68
3 3 73 71
3 3 64 73
3 7 193 194
3 7 195 197
3 195 76 196
3 195 196 197
3 8 198 199
3 8 200 201
3 4 79 77
3 10 82 80
3 10 84 82
3 6 87 85
3 11 90 88
3 11 92 90
3 11 94 92
3 203 202 95
3 9 204 206
3 204 97 205
3 204 205 206
3 207 100 208
3 209 208 98
3 207 208 209
3 210 102 211
3 212 211 100
3 210 211 212
3 12 105 103
3 214 213 49
3 14 108 106
3 12 109 50
3 12 103 109
3 216 215 110
3 16 217 219
3 217 113 218
3 217 218 219
3 18 114 52
3 18 115 114
3 19 118 116
3 21 119 55
3 21 120 119
3 21 220 222
3 222 221 120
3 220 221 222
3 22 223 224
3 23 121 57
3 23 122 121
3 23 225 227
3 227 226 122
3 225 226 227
3 24 123 59
3 24 124 123
3 25 127 125
3 27 128 62
3 27 228 230
3 230 229 128
3 228 229 230
3 28 130 129
3 30 131 65
3 30 132 131
3 13 133 104
3 31 134 67
3 31 135 134
3 31 231 233
3 233 232 135
3 231 232 233
3 32 138 136
3 34 139 69
3 34 140 139
3 15 141 107
3 35 142 72
3 35 143 142
3 35 144 143
3 28 145 74
3 28 129 145
3 234 146 235
3 36 147 75
3 36 148 147
3 37 151 149
3 29 236 237
3 39 238 240
3 240 239 78
3 238 239 240
3 39 241 243
3 241 152 242
3 241 242 243
3 244 153 245
3 246 245 111
3 244 245 246
3 247 154 248
3 250 249 154
3 251 155 252
3 17 156 112
3 40 157 81
3 40 158 157
3 40 159 158
3 41 160 83
3 41 161 160
3 33 162 137
3 42 163 86
3 42 164 163
3 20 165 117
3 43 166 89
3 43 167 166
3 43 168 167
3 44 169 91
3 44 170 169
3 44 171 170
3 253 172 254
3 255 254 93
3 253 254 255
3 257 256 172
3 258 173 259
3 260 174 261
3 262 175 263
3 264 263 174
3 262 263 264
3 266 265 96
3 45 267 268
3 45 269 271
3 269 176 270
3 269 270 271
3 26 177 126
3 46 178 99
3 46 179 178
3 46 180 179
3 47 181 101
3 47 182 181
3 38 183 150
3 272 184 273
3 274 185 275
3 276 275 184
3 274 275 276
3 277 186 278
3 279 278 185
3 277 278 279
3 48 49 12
3 280 49 281
3 282 281 48
3 280 281 282
3 284 283 49
3 285 50 286
3 287 286 14
3 285 286 287
3 48 288 290
3 288 50 289
3 288 289 290
3 48 12 50
3 51 52 16
3 53 52 51
3 53 18 52
3 54 55 19
3 291 55 292
3 293 292 54
3 291 292 293
3 294 21 295
3 296 295 55
3 294 295 296
3 298 297 21
3 56 57 22
3 58 57 56
3 58 23 57
3 58 59 23
3 60 59 58
3 60 24 59
3 61 62 25
3 63 62 61
3 63 27 62
3 64 65 28
3 66 65 64
3 66 30 65
3 299 67 300
3 301 300 13
3 299 300 301
3 302 67 303
3 304 31 305
3 306 305 67
3 304 305 306
3 308 307 31
3 68 69 32
3 70 69 68
3 70 34 69
3 71 72 15
3 73 72 71
3 73 35 72
3 73 74 35
3 64 74 73
3 64 28 74
3 309 75 310
3 76 311 313
3 311 75 312
3 311 312 313
3 76 36 75
3 315 314 37
3 77 78 29
3 79 78 77
3 79 39 78
3 80 81 17
3 82 81 80
3 82 40 81
3 82 83 40
3 84 83 82
3 84 41 83
3 85 86 33
3 87 86 85
3 87 42 86
3 88 89 20
3 90 89 88
3 90 43 89
3 90 91 43
3 92 91 90
3 92 44 91
3 92 93 44
3 94 93 92
3 94 316 318
3 318 317 93
3 316 317 318
3 95 319 321
3 319 96 320
3 319 320 321
3 322 96 323
3 324 323 95
3 322 323 324
3 326 325 96
3 97 327 328
3 97 329 331
3 329 45 330
3 329 330 331
3 98 99 26
3 100 99 98
3 100 46 99
3 100 101 46
3 102 101 100
3 102 47 101
3 333 332 38
3 103 104 3
3 105 104 103
3 105 13 104
3 49 105 12
3 334 105 335
3 336 335 49
3 334 335 336
3 337 13 338
3 339 338 105
3 337 338 339
3 341 340 13
3 106 107 5
3 108 107 106
3 108 15 107
3 50 108 14
3 109 108 50
3 109 15 108
3 109 71 15
3 103 71 109
3 103 3 71
3 342 7 343
3 344 8 345
3 110 111 4
3 346 111 347
3 348 347 110
3 346 347 348
3 350 349 111
3 351 112 352
3 113 353 355
3 353 112 354
3 353 354 355
3 113 17 112
3 52 113 16
3 114 113 52
3 114 17 113
3 114 80 17
3 115 80 114
3 115 10 80
3 116 117 6
3 118 117 116
3 118 20 117
3 55 118 19
3 119 118 55
3 119 20 118
3 119 88 20
3 120 88 119
3 120 11 88
3 120 356 358
3 358 357 11
3 356 357 358
3 360 359 120
3 362 361 21
3 57 363 365
3 365 364 22
3 363 364 365
3 121 366 368
3 368 367 57
3 366 367 368
3 121 369 370
3 121 371 372
3 122 373 375
3 375 374 121
3 373 374 375
3 122 376 377
3 122 378 380
3 378 379 380
3 382 381 122
3 59 383 385
3 385 384 23
3 383 384 385
3 123 386 388
3 388 387 59
3 386 387 388
3 123 389 390
3 123 391 393
3 391 95 392
3 391 392 393
3 124 95 123
3 124 394 396
3 396 395 95
3 394 395 396
3 125 126 9
3 127 126 125
3 127 26 126
3 62 127 25
3 128 127 62
3 128 26 127
3 128 98 26
3 397 98 398
3 399 398 128
3 397 398 399
3 401 400 98
3 129 402 403
3 130 404 406
3 406 405 129
3 404 405 406
3 130 407 409
3 407 29 408
3 407 408 409
3 65 130 28
3 131 130 65
3 131 29 130
3 131 77 29
3 132 77 131
3 132 4 77
3 104 66 3
3 133 66 104
3 133 30 66
3 67 133 13
3 134 133 67
3 134 30 133
3 134 132 30
3 135 132 134
3 135 4 132
3 135 110 4
3 410 110 411
3 412 411 135
3 410 411 412
3 414 413 110
3 416 415 31
3 136 137 0
3 138 137 136
3 138 33 137
3 69 138 32
3 139 138 69
3 139 33 138
3 139 85 33
3 140 85 139
3 140 6 85
3 107 70 5
3 141 70 107
3 141 34 70
3 72 141 15
3 142 141 72
3 142 34 141
3 142 140 34
3 143 140 142
3 143 6 140
3 143 116 6
3 144 116 143
3 144 19 116
3 74 144 35
3 145 144 74
3 145 19 144
3 145 54 19
3 129 54 145
3 129 417 419
3 419 418 54
3 417 418 419
3 146 420 422
3 420 421 422
3 146 423 425
3 423 22 424
3 423 424 425
3 75 426 428
3 426 146 427
3 426 427 428
3 147 146 75
3 147 22 146
3 147 56 22
3 148 56 147
3 148 2 56
3 149 150 1
3 151 150 149
3 151 38 150
3 429 151 430
3 431 430 37
3 429 430 431
3 432 151 433
3 434 38 435
3 436 435 151
3 434 435 436
3 438 437 38
3 78 439 441
3 441 440 29
3 439 440 441
3 443 442 78
3 152 444 445
3 152 446 448
3 446 8 447
3 446 447 448
3 111 79 4
3 153 79 111
3 153 39 79
3 449 153 450
3 154 451 453
3 451 153 452
3 451 452 453
3 154 39 153
3 154 152 39
3 454 152 455
3 456 455 154
3 454 455 456
3 457 8 458
3 459 458 152
3 457 458 459
3 461 460 8
3 155 462 463
3 155 464 466
3 464 9 465
3 464 465 466
3 112 467 468
3 156 469 471
3 471 470 112
3 469 470 471
3 156 472 473
3 81 156 17
3 157 156 81
3 157 474 476
3 476 475 156
3 474 475 476
3 157 477 479
3 477 155 478
3 477 478 479
3 158 155 157
3 158 9 155
3 158 125 9
3 159 125 158
3 159 25 125
3 83 159 40
3 160 159 83
3 160 25 159
3 160 61 25
3 161 61 160
3 161 1 61
3 137 53 0
3 162 53 137
3 162 18 53
3 86 162 33
3 163 162 86
3 163 18 162
3 163 115 18
3 164 115 163
3 164 10 115
3 117 87 6
3 165 87 117
3 165 42 87
3 89 165 20
3 166 165 89
3 166 42 165
3 166 164 42
3 167 164 166
3 167 10 164
3 167 84 10
3 168 84 167
3 168 41 84
3 91 168 43
3 169 168 91
3 169 41 168
3 169 161 41
3 170 161 169
3 170 1 161
3 170 149 1
3 171 149 170
3 171 37 149
3 93 171 44
3 172 171 93
3 172 37 171
3 172 480 482
3 482 481 37
3 480 481 482
3 484 483 172
3 485 94 486
3 487 486 11
3 485 486 487
3 488 94 489
3 491 490 94
3 492 16 493
3 494 16 495
3 496 51 497
3 498 497 16
3 496 497 498
3 173 499 501
3 499 51 500
3 499 500 501
3 173 0 51
3 502 173 503
3 174 504 506
3 504 173 505
3 504 505 506
3 174 0 173
3 174 136 0
3 175 136 174
3 175 32 136
3 507 175 508
3 509 175 510
3 511 32 512
3 513 512 175
3 511 512 513
3 514 68 515
3 516 515 32
3 514 515 516
3 517 68 518
3 519 5 520
3 521 520 68
3 519 520 521
3 522 5 523
3 524 106 525
3 526 525 5
3 524 525 526
3 527 106 528
3 529 14 530
3 531 530 106
3 529 530 531
3 532 14 533
3 535 534 14
3 96 536 537
3 539 538 96
3 176 540 541
3 176 542 544
3 542 7 543
3 542 543 544
3 126 97 9
3 177 97 126
3 177 45 97
3 99 177 26
3 178 177 99
3 178 45 177
3 178 176 45
3 179 176 178
3 179 7 176
3 179 76 7
3 180 76 179
3 180 36 76
3 101 180 46
3 181 180 101
3 181 36 180
3 181 148 36
3 182 148 181
3 182 2 148
3 150 63 1
3 183 63 150
3 183 27 63
3 545 183 546
3 547 546 38
3 545 546 547
3 548 183 549
3 550 27 551
3 552 551 183
3 550 551 552
3 554 553 27
3 555 102 556
3 557 102 558
3 559 47 560
3 561 560 102
3 559 560 561
3 184 562 563
3 184 564 566
3 564 47 565
3 564 565 566
3 184 182 47
3 185 182 184
3 185 2 182
3 185 60 2
3 186 60 185
3 186 24 60
3 567 186 568
3 569 186 570
3 571 24 572
3 573 572 186
3 571 572 573
3 574 124 575
3 576 575 24
3 574 575 576
3 577 124 578
3 580 579 124
