ply
format ascii 1.0
element vertex 480
property float x
property float y
property float z
element face 493
property list uchar int vertex_index
end_header
8.292495 -95.001648 -18.426027
-1.581392 -95.756882 0.864174
-14.572083 -79.125267 33.509022
7.131131 -89.426086 1.209792
2.171983 -86.858414 11.187823
-7.500654 -76.321724 32.397793
-2.567819 -81.996857 21.367582
-6.116774 -91.205261 11.610236
12.144599 -88.329781 -8.333129
6.206706 -84.256226 11.456789
3.678247 -82.327332 16.401276
-12.325427 -82.169365 28.294405
-11.126423 -77.789787 33.235561
-8.725245 -80.77961 27.671162
-4.946481 -79.168488 26.826027
-6.321572 -83.753929 21.935787
-4.124206 -86.63089 16.419106
13.489575 -84.932106 -2.903185
2.868836 -92.875671 0.793316
5.314561 -93.41188 -3.950365
-17.085375 -75.789398 38.830719
-18.067144 -79.544472 33.856762
11.225373 -85.514168 1.785833
8.759105 -85.250999 6.744955
4.663432 -88.502029 6.213496
0.323408 -91.455803 5.94943
-13.670806 -74.877716 38.531464
-1.60715 -77.459763 26.490438
0.942345 -80.180458 21.213133
-0.339501 -84.666565 16.190458
-1.902687 -89.26403 11.116406
-3.996443 -93.810524 6.179995
10.462972 -91.773712 -13.742796
9.702575 -89.333221 -3.701941
7.775513 -93.183891 -8.855747
5.772447 -96.685654 -13.911062
5.443224 -81.136818 16.730644
3.994716 -80.180443 19.118591
10.646975 -92.361099 -18.324572
11.883144 -91.046211 -20.493414
9.529012 -93.822456 -20.630737
-11.232192 -83.730957 25.513807
-10.492888 -81.550278 27.938648
-9.351431 -83.122681 25.052341
-7.468681 -82.233231 24.825682
-8.167554 -84.598885 22.202744
-7.101701 -86.105583 19.370054
15.336744 -82.499954 -2.473934
14.162504 -83.092628 -0.039081
0.672978 -94.439499 0.683679
1.904275 -94.990768 -1.831446
-0.435586 -96.52034 -1.715357
4.194274 -85.504692 11.42566
5.545912 -86.328865 8.834258
3.519807 -87.755188 8.623722
2.514675 -90.099663 5.913596
1.405023 -89.073021 8.591994
-15.798584 -77.48806 36.175701
-15.407821 -75.505203 38.612282
-14.190204 -76.982956 36.11969
-9.261563 -77.132431 32.727119
-10.593147 -75.697128 35.497101
-3.801688 -80.55378 24.172806
-3.284778 -78.265938 26.703346
-2.081217 -79.735886 23.934332
-0.266466 -78.836266 23.794018
-0.85991 -81.104668 21.27309
0.343334 -82.351128 18.774612
-1.435432 -83.385933 18.702372
-5.147994 -89.00647 13.965924
-3.149048 -88.120735 13.669392
-3.952642 -90.351257 11.19644
-2.932927 -91.685745 8.474055
-5.095767 -92.606201 8.841105
14.049194 -85.901939 -8.005527
13.372685 -87.54776 -10.795903
12.434216 -89.34037 -13.309693
11.238386 -90.161766 -10.948423
9.264301 -87.495499 1.454726
10.442208 -87.430748 -0.870598
8.435354 -89.46888 -1.217242
4.467087 -95.32592 -6.654036
6.599729 -93.380867 -6.45061
5.656413 -95.26152 -9.079709
6.910342 -94.897903 -11.462662
4.981998 -83.316437 13.969349
2.953136 -84.568016 13.823001
-13.327129 -80.679749 30.842916
-12.882489 -78.554131 33.372471
-11.544154 -79.984764 30.693941
-9.843955 -79.256058 30.459898
-8.052697 -78.673782 29.861231
-6.21966 -77.74305 29.618355
-6.826114 -80.000664 27.222263
-5.641798 -81.391731 24.50997
-4.40045 -82.852165 21.64559
-3.31744 -84.29068 18.924057
-5.291974 -85.114723 19.336012
-6.054072 -87.451057 16.761475
16.457981 -81.724922 -4.813506
14.702277 -84.21656 -5.227304
12.828459 -86.64225 -5.609871
5.09041 -91.228706 0.823478
6.372155 -91.411316 -1.56282
4.142495 -93.225838 -1.630421
3.110531 -95.333687 -4.273074
2.128168 -97.168877 -6.583265
-17.52762 -77.734879 36.312519
-16.317732 -79.253639 33.979866
-15.201579 -81.054123 31.184784
-14.075393 -82.622734 28.596853
12.994175 -83.520676 2.220807
9.95638 -85.57914 4.178981
8.003308 -87.409637 3.783667
7.44738 -84.869041 9.133288
6.777683 -86.971725 6.314181
6.009265 -89.001572 3.679561
3.934412 -90.640434 3.416719
1.644017 -92.241867 3.328893
-0.610599 -93.619659 3.416801
-14.968526 -73.330811 41.167606
-13.229609 -72.627785 41.07391
-12.359307 -76.351517 35.87159
-11.888392 -74.127274 38.355362
-11.453719 -71.967125 40.707901
1.50071 -77.895432 23.798929
2.712268 -79.063217 21.479242
2.320598 -81.236061 18.864798
1.674891 -83.472359 16.309813
0.945323 -85.707954 13.803818
-2.218762 -85.676018 16.252939
-1.047873 -86.846687 13.787071
0.089496 -88.047165 11.221143
-0.704974 -90.324348 8.599986
-1.724772 -92.642212 6.009581
-2.82992 -94.906624 3.459706
11.737912 -90.721001 -15.921367
9.45041 -93.414322 -16.171442
12.357418 -85.356544 -0.623937
11.619289 -87.201653 -3.338999
10.812886 -89.053009 -6.00852
7.606184 -91.434532 -3.979192
8.706798 -91.373131 -6.409156
9.941121 -90.888733 -8.619164
9.139917 -92.579643 -11.287433
8.192605 -94.243851 -13.736418
7.059344 -95.934555 -16.166784
4.275781 -79.076237 20.401252
4.931155 -79.593556 19.25216
-9.740316 -84.252899 23.790324
-10.291811 -83.426819 25.283074
-10.680696 -84.557038 24.021057
-9.148378 -84.991001 22.365526
-8.759493 -83.860783 23.627542
-9.740316 -84.252899 23.790324
-8.630876 -85.737968 20.978725
-9.148378 -84.991001 22.365526
14.421726 -82.245369 1.377498
15.011963 -81.932254 0.251327
-2.160445 -96.829892 -0.393871
-1.587542 -97.211621 -1.683636
-1.008489 -96.138611 -0.425592
-8.172757 -75.525734 33.897045
-9.053211 -75.931087 34.061708
-8.381108 -76.727078 32.562456
-7.29647 -75.207371 33.608105
-8.172757 -75.525734 33.897045
-6.638594 -75.807426 32.362366
-7.29647 -75.207371 33.608105
4.461735 -96.269722 -9.0278
5.06175 -95.29372 -7.866872
3.867072 -96.301922 -7.814964
5.107987 -96.168236 -10.27216
4.461735 -96.269722 -9.0278
12.504423 -90.273685 -21.545112
11.324527 -91.727188 -21.630429
-7.064745 -87.892155 16.891369
-6.577886 -86.77832 18.065765
-7.58856 -87.219417 18.195659
-6.570845 -88.607372 15.546876
-7.064745 -87.892155 16.891369
16.696942 -80.926388 -3.355885
17.239263 -80.484409 -4.529559
17.478224 -79.685875 -3.071938
1.94033 -96.20869 -4.298137
2.507403 -95.162228 -3.05226
1.337202 -96.037231 -3.077323
1.449148 -97.126285 -5.453233
2.61935 -96.251282 -5.42817
1.94033 -96.20869 -4.298137
0.967552 -98.008366 -6.583945
1.449148 -97.126285 -5.453233
-17.797382 -78.639676 35.084641
-18.390175 -77.763363 36.299732
-18.659937 -78.66816 35.071854
-15.48802 -82.006664 29.961844
-16.052169 -81.169365 31.251006
-14.924926 -82.79097 28.667878
-14.638486 -81.838428 29.890819
-15.48802 -82.006664 29.961844
9.357743 -85.415069 5.461968
10.2428 -84.596287 5.659995
9.644163 -84.432216 6.942982
6.827043 -84.562634 10.295039
7.776557 -83.837596 10.472995
7.15622 -83.531189 11.634746
-16.913226 -74.820904 40.038145
-17.833642 -75.002415 40.010261
-11.003321 -73.742592 38.198955
-11.240769 -74.912201 36.926232
-10.355698 -74.527519 36.769825
-10.785984 -72.662518 39.375225
-11.671055 -73.0472 39.531632
-11.003321 -73.742592 38.198955
-10.516649 -71.539219 40.532601
-10.785984 -72.662518 39.375225
-4.710406 -78.026962 28.084294
-5.346996 -77.314244 29.480459
-5.58307 -78.455769 28.222191
-2.196937 -76.713501 27.851332
-3.035751 -77.116589 27.957785
-2.445964 -77.862851 26.596892
-1.328456 -76.332767 27.695603
-2.196937 -76.713501 27.851332
-0.696779 -77.011173 26.421257
-1.328456 -76.332767 27.695603
5.19078 -97.489682 -15.083196
5.834229 -97.114132 -16.211058
6.415895 -96.310104 -15.038923
5.655409 -80.071743 18.058187
6.325908 -80.532749 16.891575
4.71897 -80.658631 17.924618
5.655409 -80.071743 18.058187
4.931155 -79.593556 19.25216
11.265059 -91.703655 -19.408993
12.384654 -90.321324 -19.234389
11.766569 -90.978768 -18.149968
10.147461 -93.11531 -21.699091
11.324527 -91.727188 -21.630429
10.706078 -92.434334 -20.562075
-8.09795 -86.491318 19.56238
-7.634628 -85.352234 20.786399
-8.630876 -85.737968 20.978725
-7.58856 -87.219417 18.195659
-8.09795 -86.491318 19.56238
15.599083 -81.635918 -0.966099
16.136324 -81.313904 -2.186099
14.749624 -82.796291 -1.256507
15.599083 -81.635918 -0.966099
15.011963 -81.932254 0.251327
0.167271 -96.802017 -3.019278
1.337202 -96.037231 -3.077323
0.734344 -95.755554 -1.773401
-0.958808 -97.502228 -2.923606
0.167271 -96.802017 -3.019278
-2.110764 -98.193509 -2.891885
-0.958808 -97.502228 -2.923606
-1.587542 -97.211621 -1.683636
-18.936302 -79.481873 33.832516
-18.659937 -78.66816 35.071854
9.041514 -84.223171 8.221875
9.644163 -84.432216 6.942982
-9.719003 -75.213436 35.446699
-9.927355 -76.41478 34.11211
-9.053211 -75.931087 34.061708
-10.355698 -74.527519 36.769825
-9.719003 -75.213436 35.446699
14.656565 -85.409046 -9.106452
14.945038 -84.662307 -7.82431
14.31831 -86.231956 -10.501639
14.656565 -85.409046 -9.106452
13.71094 -86.72485 -9.400715
13.938134 -87.073799 -11.852415
14.31831 -86.231956 -10.501639
12.90345 -88.444065 -12.052798
13.468899 -87.970104 -13.10931
13.938134 -87.073799 -11.852415
5.734952 -95.986427 -11.463636
6.283378 -95.079712 -10.271185
5.107987 -96.168236 -10.27216
5.166004 -96.880302 -12.687836
6.341394 -95.791778 -12.686862
5.734952 -95.986427 -11.463636
4.653507 -97.708458 -13.981916
5.166004 -96.880302 -12.687836
6.496462 -83.183365 12.824449
7.15622 -83.531189 11.634746
6.114721 -81.623661 15.461377
6.325908 -80.532749 16.891575
5.884108 -82.71347 14.080729
6.114721 -81.623661 15.461377
5.212611 -82.226628 15.349996
5.594352 -83.786331 12.713069
6.496462 -83.183365 12.824449
5.884108 -82.71347 14.080729
12.954736 -89.673565 -20.347124
12.384654 -90.321324 -19.234389
12.954736 -89.673565 -20.347124
12.504423 -90.273685 -21.545112
-6.117806 -89.385078 14.1491
-5.601033 -88.228763 15.363699
-6.570845 -88.607372 15.546876
-6.602196 -90.484474 12.971256
-5.632384 -90.105865 12.78808
-6.117806 -89.385078 14.1491
16.966473 -81.321461 -5.985746
17.239263 -80.484409 -4.529559
16.149431 -82.573799 -6.2283
16.966473 -81.321461 -5.985746
15.897362 -82.112438 -3.64372
16.696942 -80.926388 -3.355885
16.136324 -81.313904 -2.186099
15.27158 -83.819618 -6.435199
16.149431 -82.573799 -6.2283
15.580129 -82.970741 -5.020405
14.375736 -85.059249 -6.616416
14.945038 -84.662307 -7.82431
15.27158 -83.819618 -6.435199
2.697613 -97.2234 -7.779578
3.867072 -96.301922 -7.814964
3.297627 -96.247399 -6.61865
1.547789 -98.103676 -7.744678
2.697613 -97.2234 -7.779578
1.547789 -98.103676 -7.744678
0.967552 -98.008366 -6.583945
7.690086 -95.724034 -19.610646
7.033332 -96.284699 -18.490403
-17.953943 -75.965901 38.719427
-17.833642 -75.002415 40.010261
-18.175065 -76.938641 37.460327
-18.390175 -77.763363 36.299732
-17.306497 -76.762139 37.571619
-17.953943 -75.965901 38.719427
-18.175065 -76.938641 37.460327
-18.317158 -80.37133 32.66828
-18.936302 -79.481873 33.832516
-17.484951 -80.414539 32.586995
-18.317158 -80.37133 32.66828
-16.610245 -80.269123 32.648547
-17.192438 -79.399056 33.918314
-17.484951 -80.414539 32.586995
-15.759656 -80.153881 32.582325
-16.610245 -80.269123 32.648547
-16.052169 -81.169365 31.251006
-14.495244 -83.604786 27.39304
-14.924926 -82.79097 28.667878
-13.574835 -83.43378 27.236083
-14.495244 -83.604786 27.39304
-12.699852 -83.207096 27.084859
-13.20041 -82.39605 28.445629
-13.574835 -83.43378 27.236083
-12.153235 -83.987892 25.69456
-11.778809 -82.950161 26.904106
-12.699852 -83.207096 27.084859
-11.610758 -84.810825 24.251354
-12.153235 -83.987892 25.69456
-10.680696 -84.557038 24.021057
-11.610758 -84.810825 24.251354
13.295324 -82.577068 3.70456
13.837561 -82.459393 2.507442
12.420147 -83.542721 3.504964
13.295324 -82.577068 3.70456
11.535746 -84.539467 3.287478
12.109774 -84.517422 2.00332
12.420147 -83.542721 3.504964
10.901249 -84.571953 4.484051
10.2428 -84.596287 5.659995
10.590877 -85.546654 2.982407
11.535746 -84.539467 3.287478
10.901249 -84.571953 4.484051
8.385651 -84.032192 9.416042
7.776557 -83.837596 10.472995
8.103243 -85.06002 7.939122
9.041514 -84.223171 8.221875
8.385651 -84.032192 9.416042
8.308345 -95.134438 -20.713001
8.910754 -94.412052 -19.528382
7.690086 -95.724034 -19.610646
9.02049 -94.387886 -21.764947
8.308345 -95.134438 -20.713001
9.638939 -93.68074 -22.833301
10.147461 -93.11531 -21.699091
9.02049 -94.387886 -21.764947
-16.074449 -74.678806 39.928927
-16.913226 -74.820904 40.038145
-16.246598 -75.647301 38.721501
-15.854802 -73.59161 41.206588
-16.074449 -74.678806 39.928927
-15.188174 -74.418007 39.889944
-15.685841 -72.563751 42.437282
-15.854802 -73.59161 41.206588
-14.744768 -72.309666 42.310882
-15.462083 -71.542607 43.580559
-15.685841 -72.563751 42.437282
-13.87531 -71.958153 42.264034
-14.744768 -72.309666 42.310882
-14.099068 -72.979298 41.120758
-12.971179 -71.571579 42.19257
-13.87531 -71.958153 42.264034
-12.083234 -71.241249 42.009566
-12.971179 -71.571579 42.19257
-12.341664 -72.297455 40.890906
-11.246977 -70.876484 41.87031
-12.083234 -71.241249 42.009566
-11.246977 -70.876484 41.87031
-10.516649 -71.539219 40.532601
-5.998097 -76.51809 30.972647
-6.638594 -75.807426 32.362366
-6.860157 -77.032387 31.008074
-5.998097 -76.51809 30.972647
-5.346996 -77.314244 29.480459
-3.879555 -77.575688 28.022954
-4.710406 -78.026962 28.084294
-4.11563 -78.717213 26.764686
-3.879555 -77.575688 28.022954
-3.035751 -77.116589 27.957785
-0.026437 -77.699425 25.073047
-0.696779 -77.011173 26.421257
-0.936808 -78.148014 25.142228
0.857151 -77.229008 25.075502
-0.026437 -77.699425 25.073047
0.617122 -78.365849 23.796474
1.725854 -76.732182 25.122143
0.857151 -77.229008 25.075502
2.379897 -77.362107 23.90712
1.725854 -76.732182 25.122143
2.985676 -77.945999 22.747276
2.379897 -77.362107 23.90712
2.106489 -78.479324 22.639086
3.634558 -78.517624 21.581578
3.907965 -77.400406 22.849612
2.985676 -77.945999 22.747276
3.353492 -79.62183 20.298916
4.275781 -79.076237 20.401252
3.634558 -78.517624 21.581578
-7.167068 -91.608196 11.776858
-6.602196 -90.484474 12.971256
-6.653114 -92.334739 10.368158
-7.167068 -91.608196 11.776858
-6.14261 -93.03521 8.983593
-5.606271 -91.905731 10.22567
-6.653114 -92.334739 10.368158
-5.692864 -93.717579 7.64346
-6.14261 -93.03521 8.983593
-5.143202 -94.31974 6.312905
-4.546105 -93.208362 7.51055
-5.692864 -93.717579 7.64346
-4.49681 -94.860683 4.963274
-5.143202 -94.31974 6.312905
-3.913549 -95.408733 3.60313
-3.413182 -94.358574 4.819851
-4.49681 -94.860683 4.963274
-3.379868 -95.983868 2.203561
-3.913549 -95.408733 3.60313
-2.755603 -96.408997 0.905795
-2.205656 -95.331753 2.16194
-3.379868 -95.983868 2.203561
-2.160445 -96.829892 -0.393871
-2.755603 -96.408997 0.905795
13.114014 -88.702747 -14.41065
13.468899 -87.970104 -13.10931
12.765862 -89.393063 -15.716487
13.114014 -88.702747 -14.41065
12.086064 -90.030686 -14.61553
12.312038 -90.158718 -16.948366
12.765862 -89.393063 -15.716487
11.192443 -91.54105 -17.122969
11.766569 -90.978768 -18.149968
12.312038 -90.158718 -16.948366
13.57834 -83.306652 1.090863
14.421726 -82.245369 1.377498
13.837561 -82.459393 2.507442
6.416756 -96.751152 -17.360782
7.033332 -96.284699 -18.490403
7.67592 -95.468102 -17.296405
5.191641 -97.930729 -17.405055
6.416756 -96.751152 -17.360782
5.834229 -97.114132 -16.211058
5.19078 -97.489682 -15.083196
4.653507 -97.708458 -13.981916
3 147 37 148
3 0 40 38
3 149 43 150
3 151 150 41
3 149 150 151
3 152 45 153
3 154 153 43
3 152 153 154
3 156 155 45
3 157 48 158
3 1 51 49
3 1 159 161
3 161 160 51
3 159 160 161
3 4 54 52
3 4 56 54
3 2 59 57
3 5 162 164
3 164 163 60
3 162 163 164
3 5 165 166
3 5 167 168
3 6 64 62
3 6 66 64
3 6 68 66
3 7 71 69
3 7 73 71
3 8 75 74
3 8 77 75
3 3 80 78
3 169 83 170
3 171 170 81
3 169 170 171
3 173 172 83
3 10 85 36
3 10 86 85
3 175 174 39
3 11 89 87
3 13 90 42
3 13 91 90
3 13 93 91
3 15 94 44
3 15 95 94
3 15 97 95
3 176 98 177
3 178 177 46
3 176 177 178
3 180 179 98
3 181 99 182
3 181 182 183
3 17 100 47
3 17 101 100
3 18 104 102
3 184 105 185
3 186 185 50
3 184 185 186
3 187 106 188
3 189 188 105
3 187 188 189
3 191 190 106
3 21 192 194
3 192 107 193
3 192 193 194
3 21 108 107
3 195 109 196
3 197 110 198
3 199 198 109
3 197 198 199
3 23 200 202
3 200 112 201
3 200 201 202
3 23 113 112
3 9 203 205
3 203 114 204
3 203 204 205
3 24 115 53
3 24 116 115
3 24 117 116
3 25 118 55
3 25 119 118
3 20 206 207
3 26 120 58
3 26 121 120
3 12 122 88
3 208 123 209
3 210 209 61
3 208 209 210
3 211 124 212
3 213 212 123
3 211 212 213
3 215 214 124
3 14 216 218
3 218 217 92
3 216 217 218
3 27 219 221
3 221 220 63
3 219 220 221
3 27 222 223
3 27 224 225
3 28 125 65
3 28 126 125
3 28 127 126
3 29 128 67
3 29 129 128
3 16 130 96
3 30 131 70
3 30 132 131
3 30 133 132
3 31 134 72
3 31 135 134
3 32 136 76
3 32 137 136
3 22 138 111
3 33 139 79
3 33 140 139
3 19 141 103
3 34 142 82
3 34 143 142
3 34 144 143
3 35 145 84
3 35 146 145
3 35 226 228
3 228 227 146
3 226 227 228
3 229 36 230
3 37 231 233
3 231 36 232
3 231 232 233
3 37 10 36
3 38 234 236
3 234 39 235
3 234 235 236
3 40 39 38
3 40 237 239
3 239 238 39
3 237 238 239
3 41 42 11
3 43 42 41
3 43 13 42
3 43 44 13
3 45 44 43
3 45 15 44
3 45 46 15
3 240 46 241
3 242 241 45
3 240 241 242
3 244 243 46
3 245 47 246
3 48 247 249
3 247 47 248
3 247 248 249
3 48 17 47
3 49 50 18
3 51 50 49
3 51 250 252
3 252 251 50
3 250 251 252
3 51 253 254
3 257 256 51
3 255 256 257
3 258 21 259
3 260 23 261
3 52 53 9
3 54 53 52
3 54 24 53
3 54 55 24
3 56 55 54
3 56 25 55
3 57 58 20
3 59 58 57
3 59 26 58
3 60 61 12
3 262 61 263
3 264 263 60
3 262 263 264
3 266 265 61
3 62 63 14
3 64 63 62
3 64 27 63
3 64 65 27
3 66 65 64
3 66 28 65
3 66 67 28
3 68 67 66
3 68 29 67
3 69 70 16
3 71 70 69
3 71 30 70
3 71 72 30
3 73 72 71
3 73 31 72
3 74 267 268
3 75 269 271
3 271 270 74
3 269 270 271
3 75 272 273
3 75 274 276
3 274 76 275
3 274 275 276
3 77 76 75
3 77 32 76
3 78 79 22
3 80 79 78
3 80 33 79
3 81 82 19
3 83 82 81
3 83 34 82
3 83 84 34
3 277 84 278
3 279 278 83
3 277 278 279
3 280 35 281
3 282 281 84
3 280 281 282
3 284 283 35
3 285 9 286
3 36 287 288
3 85 289 291
3 291 290 36
3 289 290 291
3 85 292 294
3 292 9 293
3 292 293 294
3 85 52 9
3 86 52 85
3 86 4 52
3 39 295 296
3 298 297 39
3 87 88 2
3 89 88 87
3 89 12 88
3 42 89 11
3 90 89 42
3 90 12 89
3 90 60 12
3 91 60 90
3 91 5 60
3 91 92 5
3 93 92 91
3 93 14 92
3 44 93 13
3 94 93 44
3 94 14 93
3 94 62 14
3 95 62 94
3 95 6 62
3 95 96 6
3 97 96 95
3 97 16 96
3 46 97 15
3 98 97 46
3 98 16 97
3 98 69 16
3 299 69 300
3 301 300 98
3 299 300 301
3 302 7 303
3 304 303 69
3 302 303 304
3 99 305 306
3 99 307 308
3 47 309 311
3 309 99 310
3 309 310 311
3 100 99 47
3 100 312 314
3 314 313 99
3 312 313 314
3 100 315 317
3 315 74 316
3 315 316 317
3 101 74 100
3 101 8 74
3 102 103 3
3 104 103 102
3 104 19 103
3 50 104 18
3 105 104 50
3 105 19 104
3 105 81 19
3 106 81 105
3 106 318 320
3 320 319 81
3 318 319 320
3 106 321 322
3 324 323 106
3 326 325 0
3 327 20 328
3 107 329 330
3 107 331 333
3 331 20 332
3 331 332 333
3 107 57 20
3 108 57 107
3 108 2 57
3 334 21 335
3 336 21 337
3 338 108 339
3 340 339 21
3 338 339 340
3 109 341 343
3 341 108 342
3 341 342 343
3 109 2 108
3 109 87 2
3 110 87 109
3 110 11 87
3 344 110 345
3 346 110 347
3 348 11 349
3 350 349 110
3 348 349 350
3 351 41 352
3 353 352 11
3 351 352 353
3 354 41 355
3 357 356 41
3 358 111 359
3 360 111 361
3 362 22 363
3 364 363 111
3 362 363 364
3 112 365 366
3 112 367 369
3 367 22 368
3 367 368 369
3 112 78 22
3 113 78 112
3 113 3 78
3 114 370 371
3 114 372 374
3 372 23 373
3 372 373 374
3 53 114 9
3 115 114 53
3 115 23 114
3 115 113 23
3 116 113 115
3 116 3 113
3 116 102 3
3 117 102 116
3 117 18 102
3 55 117 24
3 118 117 55
3 118 18 117
3 118 49 18
3 119 49 118
3 119 1 49
3 375 40 376
3 377 376 0
3 375 376 377
3 378 40 379
3 382 381 40
3 380 381 382
3 58 383 385
3 385 384 20
3 383 384 385
3 120 386 388
3 388 387 58
3 386 387 388
3 120 389 390
3 120 391 393
3 391 392 393
3 121 394 396
3 396 395 120
3 394 395 396
3 121 397 398
3 88 59 2
3 122 59 88
3 122 26 59
3 61 122 12
3 123 122 61
3 123 26 122
3 123 121 26
3 124 121 123
3 124 399 401
3 401 400 121
3 399 400 401
3 124 402 403
3 405 404 124
3 92 406 408
3 408 407 5
3 406 407 408
3 410 409 92
3 63 411 413
3 413 412 14
3 411 412 413
3 415 414 63
3 65 416 418
3 418 417 27
3 416 417 418
3 125 419 421
3 421 420 65
3 419 420 421
3 125 422 423
3 125 424 425
3 126 426 428
3 428 427 125
3 426 427 428
3 126 429 431
3 429 430 431
3 126 432 434
3 432 37 433
3 432 433 434
3 127 37 126
3 127 10 37
3 67 127 28
3 128 127 67
3 128 10 127
3 128 86 10
3 129 86 128
3 129 4 86
3 96 68 6
3 130 68 96
3 130 29 68
3 70 130 16
3 131 130 70
3 131 29 130
3 131 129 29
3 132 129 131
3 132 4 129
3 132 56 4
3 133 56 132
3 133 25 56
3 72 133 30
3 134 133 72
3 134 25 133
3 134 119 25
3 135 119 134
3 135 1 119
3 435 7 436
3 437 7 438
3 439 73 440
3 441 440 7
3 439 440 441
3 442 73 443
3 444 31 445
3 446 445 73
3 444 445 446
3 447 31 448
3 449 135 450
3 451 450 31
3 449 450 451
3 452 135 453
3 454 1 455
3 456 455 135
3 454 455 456
3 458 457 1
3 76 459 460
3 136 461 463
3 463 462 76
3 461 462 463
3 136 464 465
3 136 466 468
3 466 38 467
3 466 467 468
3 137 38 136
3 137 0 38
3 111 469 471
3 469 48 470
3 469 470 471
3 138 48 111
3 138 17 48
3 79 138 22
3 139 138 79
3 139 17 138
3 139 101 17
3 140 101 139
3 140 8 101
3 103 80 3
3 141 80 103
3 141 33 80
3 82 141 19
3 142 141 82
3 142 33 141
3 142 140 33
3 143 140 142
3 143 8 140
3 143 77 8
3 144 77 143
3 144 32 77
3 84 144 34
3 145 144 84
3 145 32 144
3 145 137 32
3 146 137 145
3 146 0 137
3 146 472 474
3 474 473 0
3 472 473 474
3 477 476 146
3 475 476 477
3 479 478 35
