ply
format ascii 1.0
element vertex 71
property float x
property float y
property float z
element face 57
property list uchar int vertex_index
end_header
1.44423 100.907555 -28.542181
-3.750025 97.448509 -27.959652
-0.051842 97.705978 -33.101227
-1.110627 99.300171 -28.346409
-2.042501 97.695381 -30.528759
0.726873 99.462341 -30.915972
-6.262741 95.400459 -27.662449
-5.598841 96.671387 -25.448278
-2.837345 98.796211 -25.805704
-0.290463 100.570267 -25.917879
-4.658158 95.781204 -30.064217
-2.850095 95.878166 -32.57732
-6.435815 96.180542 -24.099545
-6.722065 95.691624 -25.283035
-2.360494 99.369228 -24.571835
-3.732673 98.341103 -24.491891
-1.087052 100.256256 -24.627922
-1.563904 99.683239 -25.861791
-2.360494 99.369228 -24.571835
-0.517582 96.678264 -34.033566
-1.916708 95.764358 -33.771612
-1.450969 96.792072 -32.839274
2.420735 100.927826 -29.85644
2.826434 101.660763 -28.620728
-7.054015 95.05616 -26.390121
-7.499706 94.280888 -27.368784
-5.930791 96.035923 -26.555363
-7.054015 95.05616 -26.390121
-6.722065 95.691624 -25.283035
-5.113421 97.27869 -24.313178
-6.435815 96.180542 -24.099545
-4.218093 97.733799 -25.626991
-5.113421 97.27869 -24.313178
-3.732673 98.341103 -24.491891
0.209985 101.120354 -24.672322
-1.087052 100.256256 -24.627922
-0.586604 100.806343 -23.382365
1.07368 101.392926 -26.005333
0.209985 101.120354 -24.672322
1.941026 101.56157 -27.317484
0.576883 100.738911 -27.23003
1.07368 101.392926 -26.005333
2.826434 101.660763 -28.620728
1.941026 101.56157 -27.317484
-6.703027 94.534142 -28.615681
-7.499706 94.280888 -27.368784
-5.900735 94.724514 -29.816565
-6.703027 94.534142 -28.615681
-5.46045 95.590832 -28.863333
-5.035329 94.834122 -31.059624
-5.900735 94.724514 -29.816565
-4.131297 94.882602 -32.316175
-5.035329 94.834122 -31.059624
-3.754126 95.829685 -31.320768
-3.156491 94.851513 -33.562954
-4.131297 94.882602 -32.316175
-2.223104 94.737706 -34.757246
-3.156491 94.851513 -33.562954
-1.916708 95.764358 -33.771612
2.062056 100.205219 -31.043336
1.085552 100.184948 -29.729076
2.420735 100.927826 -29.85644
1.662671 99.341271 -32.188485
2.062056 100.205219 -31.043336
1.273313 98.463089 -33.281113
0.337515 98.584159 -32.0086
1.662671 99.341271 -32.188485
0.852584 97.451786 -34.321362
1.273313 98.463089 -33.281113
-0.517582 96.678264 -34.033566
0.852584 97.451786 -34.321362
3 0 5 3
3 12 7 13
3 14 8 15
3 16 9 17
3 18 17 8
3 16 17 18
3 1 10 6
3 2 11 4
3 2 19 21
3 21 20 11
3 19 20 21
3 3 4 1
3 5 4 3
3 5 2 4
3 23 22 0
3 24 6 25
3 7 26 28
3 26 6 27
3 26 27 28
3 7 1 6
3 29 7 30
3 8 31 33
3 31 7 32
3 31 32 33
3 8 1 7
3 8 3 1
3 9 3 8
3 9 0 3
3 34 9 35
3 34 35 36
3 37 9 38
3 39 0 40
3 41 40 9
3 39 40 41
3 43 42 0
3 6 44 45
3 10 46 48
3 48 47 6
3 46 47 48
3 10 49 50
3 4 10 1
3 11 10 4
3 11 51 53
3 53 52 10
3 51 52 53
3 11 54 55
3 58 57 11
3 56 57 58
3 59 5 60
3 61 60 0
3 59 60 61
3 62 5 63
3 64 2 65
3 66 65 5
3 64 65 66
3 67 2 68
3 70 69 2
