ply
format ascii 1.0
element vertex 85
property float x
property float y
property float z
element face 64
property list uchar int vertex_index
end_header
-17.61607 65.154938 46.844757
-14.528745 59.451942 48.798306
-10.992153 59.93396 46.335087
-13.095005 56.240635 49.687813
-17.841499 61.596313 49.145638
-19.297243 64.517197 47.813572
-18.993568 68.01503 45.386768
-16.37664 58.775345 50.137188
-16.055504 62.454533 47.852776
-12.741884 59.713367 47.587685
-14.217159 62.818645 46.650364
-12.431646 54.830225 49.983282
-13.323554 54.582503 50.667713
-15.452692 59.113644 49.467747
-15.635685 57.491713 50.447365
-14.711738 57.830011 49.777924
-11.867019 59.823663 46.961386
-12.019784 58.187799 47.954762
-11.144918 58.298096 47.328463
-14.133659 64.550237 45.498075
-13.329273 63.006238 45.999618
-14.990862 64.337732 46.103659
-14.133659 64.550237 45.498075
-13.994868 56.224357 50.222678
-13.323554 54.582503 50.667713
-13.811875 57.846288 49.24306
-14.711738 57.830011 49.777924
-13.994868 56.224357 50.222678
-18.675142 61.22269 49.631414
-17.983618 59.866445 50.188321
-19.403014 62.683132 48.965381
-18.675142 61.22269 49.631414
-18.569371 63.056755 48.479605
-20.118254 63.896749 48.353578
-20.224025 62.062685 49.505388
-19.403014 62.683132 48.965381
-19.978296 65.704262 47.158476
-20.118254 63.896749 48.353578
-19.826459 67.453179 45.945074
-19.978296 65.704262 47.158476
-19.145406 66.266113 46.60017
-19.728862 69.278748 44.63266
-19.826459 67.453179 45.945074
-11.71677 61.563896 45.84198
-10.783838 61.526792 45.25817
-16.503981 57.074679 51.108711
-15.635685 57.491713 50.447365
-17.251188 58.455962 50.684095
-16.503981 57.074679 51.108711
-17.109069 60.185829 49.641413
-17.983618 59.866445 50.188321
-17.251188 58.455962 50.684095
-10.277102 58.377191 46.707319
-11.144918 58.298096 47.328463
-10.062055 59.921095 45.718224
-10.277102 58.377191 46.707319
-10.783838 61.526792 45.25817
-10.062055 59.921095 45.718224
-12.196345 56.451433 49.004825
-12.431646 54.830225 49.983282
-11.532986 55.041023 49.300294
-12.918444 57.977001 48.637749
-12.196345 56.451433 49.004825
-12.019784 58.187799 47.954762
-12.591636 61.453599 46.468279
-11.867019 59.823663 46.961386
-11.71677 61.563896 45.84198
-13.479522 61.266006 47.119025
-12.591636 61.453599 46.468279
-13.329273 63.006238 45.999618
-15.910034 64.155676 46.704864
-15.136332 62.636589 47.25157
-14.990862 64.337732 46.103659
-16.690317 65.505878 46.200855
-16.835787 63.804735 47.348766
-15.910034 64.155676 46.704864
-17.40893 66.771969 45.668024
-16.690317 65.505878 46.200855
-18.097679 68.202015 44.93903
-18.304819 66.584984 46.115763
-17.40893 66.771969 45.668024
-18.84432 69.657643 44.150841
-18.097679 68.202015 44.93903
-19.728862 69.278748 44.63266
-18.84432 69.657643 44.150841
3 11 3 12
3 0 5 4
3 0 6 5
3 1 13 15
3 13 7 14
3 13 14 15
3 1 8 7
3 2 16 18
3 16 9 17
3 16 17 18
3 19 10 20
3 22 21 10
3 3 23 24
3 3 25 27
3 25 1 26
3 25 26 27
3 4 28 29
3 5 30 32
3 32 31 4
3 30 31 32
3 5 33 35
3 33 34 35
3 5 36 37
3 6 38 40
3 40 39 5
3 38 39 40
3 6 41 42
3 44 43 2
3 7 45 46
3 7 47 48
3 7 49 51
3 49 4 50
3 49 50 51
3 8 4 7
3 8 0 4
3 52 2 53
3 54 2 55
3 57 56 2
3 58 3 59
3 58 59 60
3 9 61 63
3 61 3 62
3 61 62 63
3 9 1 3
3 64 9 65
3 66 65 2
3 64 65 66
3 10 67 69
3 67 9 68
3 67 68 69
3 10 1 9
3 10 8 1
3 70 8 71
3 72 71 10
3 70 71 72
3 73 0 74
3 75 74 8
3 73 74 75
3 76 0 77
3 78 6 79
3 80 79 0
3 78 79 80
3 81 6 82
3 84 83 6
