ply
format ascii 1.0
element vertex 76
property float x
property float y
property float z
element face 59
property list uchar int vertex_index
end_header
18.452728 16.502609 41.912357
20.002111 21.151148 38.775917
15.161995 16.227093 45.473431
14.29453 13.810588 46.846004
15.996037 14.121001 45.09412
17.658449 18.848171 42.211292
18.51251 21.060041 40.624077
19.239531 18.85811 40.386333
16.040092 18.69405 44.000706
16.856541 16.427034 43.678532
17.639158 14.303818 43.32756
13.838176 12.658714 47.513273
13.45186 13.667534 47.662094
12.995506 12.515661 48.329363
14.226239 11.640932 47.34644
14.682592 12.792806 46.67917
13.838176 12.658714 47.513273
19.594302 22.239242 38.935295
18.849501 22.193689 39.859375
19.25731 21.105594 39.699997
14.75546 17.348847 45.618563
14.342921 16.140335 46.285756
15.601043 17.460572 44.737068
15.194509 18.582325 44.8822
14.75546 17.348847 45.618563
17.15014 13.177248 44.088785
16.817597 14.212409 44.21084
16.328579 13.085839 44.972065
17.960695 13.325408 43.197719
17.15014 13.177248 44.088785
19.236127 16.66948 40.961775
18.845173 15.502218 41.711458
21.072639 22.331029 36.992086
20.316128 22.290067 37.981691
20.758622 21.19211 37.786312
13.909188 14.932082 46.972042
13.45186 13.667534 47.662094
14.728262 15.01884 46.159717
14.342921 16.140335 46.285756
13.909188 14.932082 46.972042
15.533345 12.948012 45.803229
15.145283 13.965794 45.970062
14.682592 12.792806 46.67917
16.328579 13.085839 44.972065
15.533345 12.948012 45.803229
18.085479 19.954106 41.417685
17.688734 21.07516 41.562697
17.261704 19.969225 42.356304
19.629528 17.847231 40.198763
18.846129 17.68036 41.149345
19.236127 16.66948 40.961775
20.063885 18.967641 39.347357
19.629528 17.847231 40.198763
20.445175 20.114159 38.542148
19.620821 20.004629 39.581125
20.063885 18.967641 39.347357
20.758622 21.19211 37.786312
20.445175 20.114159 38.542148
18.086696 22.205284 40.785349
17.688734 21.07516 41.562697
18.086696 22.205284 40.785349
18.849501 22.193689 39.859375
19.594302 22.239242 38.935295
20.316128 22.290067 37.981691
15.639174 19.767213 44.149189
15.194509 18.582325 44.8822
16.452525 19.892164 43.251011
15.639174 19.767213 44.149189
16.849271 18.77111 43.105999
17.261704 19.969225 42.356304
16.452525 19.892164 43.251011
18.438387 14.402823 42.41906
18.845173 15.502218 41.711458
18.045943 15.403213 42.619958
18.438387 14.402823 42.41906
17.960695 13.325408 43.197719
3 11 3 12
3 11 12 13
3 16 15 3
3 14 15 16
3 0 7 5
3 1 17 19
3 19 18 6
3 17 18 19
3 2 20 21
3 2 22 24
3 22 8 23
3 22 23 24
3 2 9 8
3 25 10 26
3 27 26 4
3 25 26 27
3 29 28 10
3 31 30 0
3 34 33 1
3 32 33 34
3 3 35 36
3 3 37 39
3 37 2 38
3 37 38 39
3 3 4 2
3 40 4 41
3 42 41 3
3 40 41 42
3 44 43 4
3 5 45 47
3 45 6 46
3 45 46 47
3 7 6 5
3 7 1 6
3 48 7 49
3 50 49 0
3 48 49 50
3 51 7 52
3 53 1 54
3 55 54 7
3 53 54 55
3 57 56 1
3 6 58 59
3 61 60 6
3 63 62 1
3 8 64 65
3 8 66 67
3 8 68 70
3 68 5 69
3 68 69 70
3 9 5 8
3 9 0 5
3 4 9 2
3 10 9 4
3 10 0 9
3 10 71 73
3 73 72 0
3 71 72 73
3 75 74 10
