ply
format ascii 1.0
element vertex 129
property float x
property float y
property float z
element face 105
property list uchar int vertex_index
end_header
30.94385 0.618132 33.173206
29.604414 -14.397416 34.468029
28.695898 -16.547228 37.959099
30.213106 -7.152472 33.838291
31.279842 4.621838 32.905293
31.671221 2.139767 31.537239
31.31938 -1.99023 31.764099
29.111229 -15.560193 36.11393
28.884506 -13.036872 37.620094
29.344366 -12.052407 35.790955
29.635033 -8.269409 35.473557
29.920622 -10.656656 34.082752
30.552004 -9.936952 32.401005
30.199993 -13.544256 32.781555
28.285484 -21.319361 40.397385
28.394527 -17.868427 39.837112
28.539106 -20.153276 38.464104
30.62731 3.040165 34.517227
30.287107 -0.819685 34.836479
29.954308 -4.429938 35.179295
30.578007 -3.20159 33.514999
30.891159 -5.903769 32.195198
28.490979 -21.895387 38.764519
28.412295 -20.736319 39.430745
28.364168 -22.47843 39.73116
30.506807 4.309753 35.184
30.798757 5.092748 34.36096
30.021397 -1.431893 35.636564
30.179777 0.355341 35.457183
28.625072 -15.3767 38.679817
28.474386 -16.037299 39.618824
28.545212 -17.207828 38.898105
28.821346 -11.959564 38.284979
29.023843 -11.245672 37.365034
30.917659 -9.149746 31.600132
30.746998 -11.160358 31.691381
31.639432 5.363181 32.085653
31.453314 6.640056 32.723402
31.835122 4.122145 31.401626
31.639432 5.363181 32.085653
31.475531 3.380803 32.221266
32.06391 2.728382 30.687655
31.835122 4.122145 31.401626
31.866689 0.747369 30.866343
32.06391 2.728382 30.687655
31.690768 -1.31763 30.979774
31.866689 0.747369 30.866343
31.4953 0.074769 31.650669
31.513495 -3.223851 31.094067
31.690768 -1.31763 30.979774
29.253774 -10.753439 36.450464
29.023843 -11.245672 37.365034
29.114436 -12.54464 36.705524
29.4897 -10.160908 35.632256
29.399107 -8.86194 36.291765
29.253774 -10.753439 36.450464
30.570992 -12.96401 31.881656
30.746998 -11.160358 31.691381
30.375999 -11.740604 32.59128
28.340006 -19.593894 40.117249
28.300005 -18.324514 40.842508
28.245483 -20.049981 41.122644
28.639487 -21.500315 37.823099
28.490979 -21.895387 38.764519
28.711796 -19.730275 37.557526
28.639487 -21.500315 37.823099
28.790192 -17.927251 37.305024
28.617502 -18.350252 38.211602
28.711796 -19.730275 37.557526
28.997858 -17.433733 36.382439
28.903564 -16.053711 37.036515
28.790192 -17.927251 37.305024
29.231645 -16.865432 35.474619
28.997858 -17.433733 36.382439
29.478238 -16.284043 34.651668
29.357822 -14.978804 35.29098
29.231645 -16.865432 35.474619
29.753052 -15.788483 33.796184
29.478238 -16.284043 34.651668
31.125023 5.883584 33.554993
31.453314 6.640056 32.723402
30.953576 3.831002 33.71126
31.125023 5.883584 33.554993
30.798757 5.092748 34.36096
28.20657 -21.683796 41.436132
28.245483 -20.049981 41.122644
28.258983 -23.007069 40.737966
28.20657 -21.683796 41.436132
28.364168 -22.47843 39.73116
28.258983 -23.007069 40.737966
30.349879 2.285267 35.297557
30.506807 4.309753 35.184
30.457209 1.11024 34.676853
30.349879 2.285267 35.297557
30.179777 0.355341 35.457183
28.367389 -16.589679 40.513652
28.300005 -18.324514 40.842508
28.367389 -16.589679 40.513652
28.474386 -16.037299 39.618824
28.719375 -13.621522 38.510315
28.625072 -15.3767 38.679817
28.790202 -14.79205 37.789597
28.719375 -13.621522 38.510315
28.821346 -11.959564 38.284979
29.537045 -6.991459 36.147863
29.399107 -8.86194 36.291765
29.696682 -5.071723 36.000732
29.537045 -6.991459 36.147863
29.794671 -6.349673 35.326426
29.854998 -3.237019 35.807972
29.696682 -5.071723 36.000732
30.120708 -2.624811 35.007887
30.021397 -1.431893 35.636564
29.854998 -3.237019 35.807972
31.299385 -5.18062 31.309616
31.513495 -3.223851 31.094067
31.105269 -3.946999 31.979648
31.087236 -7.133155 31.497228
30.721581 -7.92036 32.298102
30.917659 -9.149746 31.600132
31.299385 -5.18062 31.309616
31.087236 -7.133155 31.497228
30.050842 -15.361903 32.952947
29.902203 -13.970836 33.624792
29.753052 -15.788483 33.796184
30.387575 -14.827471 32.063564
30.050842 -15.361903 32.952947
30.570992 -12.96401 31.881656
30.387575 -14.827471 32.063564
3 0 5 4
3 0 6 5
3 1 9 7
3 1 11 9
3 1 13 11
3 22 16 23
3 24 23 14
3 22 23 24
3 25 17 26
3 27 18 28
3 2 29 31
3 31 30 15
3 29 30 31
3 33 32 8
3 3 19 10
3 3 20 19
3 3 21 20
3 35 34 12
3 4 36 37
3 5 38 40
3 40 39 4
3 38 39 40
3 5 41 42
3 5 43 44
3 6 45 47
3 47 46 5
3 45 46 47
3 6 48 49
3 7 8 2
3 9 8 7
3 9 50 52
3 52 51 8
3 50 51 52
3 9 53 55
3 53 10 54
3 53 54 55
3 11 10 9
3 11 3 10
3 11 12 3
3 13 12 11
3 13 56 58
3 58 57 12
3 56 57 58
3 14 59 61
3 59 15 60
3 59 60 61
3 16 15 14
3 16 2 15
3 62 16 63
3 64 16 65
3 66 2 67
3 68 67 16
3 66 67 68
3 69 7 70
3 71 70 2
3 69 70 71
3 72 7 73
3 74 1 75
3 76 75 7
3 74 75 76
3 78 77 1
3 79 4 80
3 17 81 83
3 81 4 82
3 81 82 83
3 17 0 4
3 84 14 85
3 86 14 87
3 89 88 14
3 90 17 91
3 18 92 94
3 92 17 93
3 92 93 94
3 18 0 17
3 15 95 96
3 98 97 15
3 8 99 101
3 101 100 2
3 99 100 101
3 103 102 8
3 10 104 105
3 19 106 108
3 108 107 10
3 106 107 108
3 19 109 110
3 19 111 113
3 111 18 112
3 111 112 113
3 20 18 19
3 20 0 18
3 20 6 0
3 21 6 20
3 21 114 116
3 116 115 6
3 114 115 116
3 12 21 3
3 117 21 118
3 119 118 12
3 117 118 119
3 121 120 21
3 122 13 123
3 124 123 1
3 122 123 124
3 125 13 126
3 128 127 13
