ply
format ascii 1.0
element vertex 304
property float x
property float y
property float z
element face 266
property list uchar int vertex_index
end_header
21.493032 61.556236 -26.877401
6.982426 51.358734 -35.054306
15.316761 50.134987 -32.290161
1.679049 45.329498 -34.090981
8.141315 58.196533 -34.319084
10.78145 51.227997 -34.149879
12.738132 57.546776 -32.395973
27.788845 59.200493 -24.671629
15.429079 63.52523 -29.645628
25.542118 66.476395 -24.103373
32.148571 63.563736 -22.366899
6.518005 44.444134 -34.396523
9.569941 44.743111 -34.426636
13.367311 43.953384 -33.640076
18.050085 56.042389 -29.78583
1.479836 53.990257 -34.787498
4.307619 41.744358 -33.690582
10.340996 58.025032 -33.485756
28.895721 65.069221 -23.146074
6.664667 47.884926 -34.875374
7.945538 44.801136 -34.501457
8.280073 48.133125 -34.794266
12.961613 50.748764 -33.316757
12.071104 47.60408 -33.92662
14.238256 47.07238 -33.149193
18.402897 62.607178 -28.228994
16.770187 59.789673 -29.720392
19.686726 58.857887 -28.337595
0.450562 55.846489 -34.208359
5.240414 47.108398 -34.752869
0.848274 42.304291 -33.340302
2.117462 40.801373 -33.32283
3.489079 39.262829 -33.09684
2.972023 43.566246 -33.971123
7.474808 54.807175 -34.87339
8.787592 51.471138 -34.73407
9.474504 54.777267 -34.292099
11.667387 54.418701 -33.437729
14.045723 53.839447 -32.357559
24.644741 60.413124 -25.678141
22.694147 57.84285 -27.057398
20.208138 65.28138 -26.725012
23.454456 64.10923 -25.460531
26.72547 62.835365 -24.37702
29.945631 61.47847 -23.489244
7.762884 41.540043 -33.933533
9.229492 41.500618 -34.023712
10.884567 41.210995 -33.967842
10.082851 47.995193 -34.482292
11.37953 44.420471 -34.142982
12.712152 40.785751 -33.728531
14.700785 40.314831 -33.29512
13.99194 60.590721 -31.102583
15.316752 56.859398 -31.127234
16.590883 53.129555 -31.136797
0.384417 51.499557 -34.240616
1.477219 49.730164 -34.596352
2.665207 51.897682 -35.019661
2.709816 47.780502 -34.634789
4.01066 45.683868 -34.448151
5.306242 43.476582 -34.126823
4.30208 34.860321 -32.086075
15.940687 48.309826 -32.249325
15.401435 46.778523 -32.67884
14.777508 48.603684 -32.719677
6.174127 51.063415 -35.090935
6.326703 52.877674 -35.114647
6.823546 49.62183 -34.96484
6.015247 49.326511 -35.001469
6.174127 51.063415 -35.090935
26.759318 57.985768 -25.307968
25.187266 58.592083 -25.811224
26.216793 59.806809 -25.174885
7.144878 58.077057 -34.589005
7.467581 59.811081 -34.249848
7.808062 56.501854 -34.596237
6.811625 56.382378 -34.866157
7.144878 58.077057 -34.589005
19.525675 67.103867 -26.631988
18.628497 65.799648 -27.415167
23.855131 67.123646 -24.675631
24.894785 68.249413 -23.951273
24.498287 65.292812 -24.781952
22.8113 65.940064 -25.35421
23.855131 67.123646 -24.675631
32.586176 61.807201 -22.562314
31.484706 60.764568 -23.123487
31.047101 62.521103 -22.928072
7.140444 42.992088 -34.165028
7.145846 41.351711 -33.831669
6.523407 42.803757 -34.063164
14.71051 62.057975 -30.374105
13.303787 62.419548 -31.058101
14.022357 63.886803 -30.329624
21.795898 56.496811 -27.769316
23.248491 56.029103 -27.177096
3.302676 50.746315 -35.000489
3.365482 52.672855 -35.117866
3.32498 48.687725 -34.808053
2.687512 49.839092 -34.827225
3.302676 50.746315 -35.000489
3.975402 47.639408 -34.714734
3.360238 46.732185 -34.54147
3.32498 48.687725 -34.808053
6.523407 42.803757 -34.063164
5.917525 42.319981 -33.928314
5.912123 43.960358 -34.261673
3.564319 35.509687 -32.223762
4.069548 33.140414 -31.686183
4.596875 39.755211 -33.239956
4.187605 38.514447 -32.943085
3.898349 40.503594 -33.393711
4.950093 40.850164 -33.524204
4.596875 39.755211 -33.239956
9.661376 59.763183 -33.451069
9.241156 58.110782 -33.90242
8.561536 59.848934 -33.867733
10.864116 59.607918 -32.926994
9.661376 59.763183 -33.451069
12.062684 59.36879 -32.382103
11.539564 57.785904 -32.940865
10.864116 59.607918 -32.926994
28.251041 57.427594 -24.839798
29.313859 58.565559 -24.256693
8.561536 59.848934 -33.867733
7.467581 59.811081 -34.249848
26.624922 67.540329 -23.443053
24.894785 68.249413 -23.951273
28.301724 66.836742 -22.964403
27.218919 65.772808 -23.624724
26.624922 67.540329 -23.443053
29.995701 66.064853 -22.542852
28.301724 66.836742 -22.964403
31.622125 65.312111 -22.153265
30.522146 64.316479 -22.756487
29.995701 66.064853 -22.542852
14.878735 45.253021 -33.045906
14.443262 43.693523 -33.291348
13.802784 45.512882 -33.394634
14.878735 45.253021 -33.045906
15.401435 46.778523 -32.67884
0.564199 57.930183 -34.020241
0.041777 56.647564 -33.718384
1.054968 56.972381 -34.422268
0.564199 57.930183 -34.020241
1.569605 56.044266 -34.711838
0.965199 54.918373 -34.497929
1.054968 56.972381 -34.422268
5.303121 48.938248 -34.940216
4.590279 48.351673 -34.867092
5.95254 47.496662 -34.814121
5.303121 48.938248 -34.940216
6.015247 49.326511 -35.001469
1.144305 39.897187 -32.920071
0.528108 40.553079 -32.857193
1.778899 39.145727 -32.911335
1.144305 39.897187 -32.920071
1.482868 41.552832 -33.331566
2.472011 38.480213 -32.84214
1.778899 39.145727 -32.911335
2.80327 40.032101 -33.209835
3.157819 37.710942 -32.729145
2.472011 38.480213 -32.84214
24.211969 57.306946 -26.500853
23.669444 59.127987 -26.36777
25.187266 58.592083 -25.811224
23.248491 56.029103 -27.177096
24.211969 57.306946 -26.500853
26.759318 57.985768 -25.307968
28.251041 57.427594 -24.839798
6.572894 54.601895 -35.024189
6.811625 56.382378 -34.866157
7.228617 53.082954 -34.963848
6.326703 52.877674 -35.114647
6.572894 54.601895 -35.024189
0.298397 43.014934 -33.188572
0.528108 40.553079 -32.857193
0.677532 44.642662 -33.640084
0.298397 43.014934 -33.188572
1.09292 46.155265 -34.015423
1.263661 43.816895 -33.715642
0.677532 44.642662 -33.640084
14.729422 65.345028 -29.572899
14.022357 63.886803 -30.329624
16.238967 64.921573 -28.875475
14.729422 65.345028 -29.572899
17.725876 64.462547 -28.167158
16.915988 63.066204 -28.937311
16.238967 64.921573 -28.875475
19.305518 63.944279 -27.477003
17.725876 64.462547 -28.167158
18.628497 65.799648 -27.415167
21.188141 66.526139 -25.986451
19.525675 67.103867 -26.631988
21.831297 64.695305 -26.092771
21.188141 66.526139 -25.986451
22.8113 65.940064 -25.35421
30.392252 59.704548 -23.665501
29.313859 58.565559 -24.256693
28.867238 60.339482 -24.080436
30.392252 59.704548 -23.665501
31.484706 60.764568 -23.123487
7.719948 40.000952 -33.572113
7.145846 41.351711 -33.831669
8.395154 39.92119 -33.645657
7.719948 40.000952 -33.572113
9.128458 39.901478 -33.690746
8.395154 39.92119 -33.645657
8.496188 41.520331 -33.978623
9.899712 39.742565 -33.737702
9.128458 39.901478 -33.690746
10.727249 39.597753 -33.709767
9.899712 39.742565 -33.737702
10.05703 41.355806 -33.995777
11.5778 39.390835 -33.698586
10.727249 39.597753 -33.709767
12.491592 39.178213 -33.57893
11.5778 39.390835 -33.698586
11.79836 40.998373 -33.848186
13.415961 38.957554 -33.487617
12.491592 39.178213 -33.57893
14.410277 38.722093 -33.270912
13.415961 38.957554 -33.487617
13.706468 40.550291 -33.511826
15.401098 38.516266 -33.093659
14.410277 38.722093 -33.270912
15.109999 41.874246 -33.11887
14.034048 42.134107 -33.467598
14.443262 43.693523 -33.291348
15.76434 40.088158 -32.992817
15.109999 41.874246 -33.11887
15.401098 38.516266 -33.093659
15.76434 40.088158 -32.992817
12.689588 60.890763 -31.735408
13.303787 62.419548 -31.058101
13.365036 59.068748 -31.749278
12.062684 59.36879 -32.382103
12.689588 60.890763 -31.735408
20.292187 57.004329 -28.409415
21.190437 58.350369 -27.697496
21.795898 56.496811 -27.769316
19.473866 55.596581 -29.133532
18.868406 57.450138 -29.061712
20.292187 57.004329 -28.409415
18.659658 54.197712 -29.832581
19.473866 55.596581 -29.133532
17.930056 52.741295 -30.508065
17.320484 54.585972 -30.461314
18.659658 54.197712 -29.832581
17.205585 51.295258 -31.146574
17.930056 52.741295 -30.508065
16.568523 49.797973 -31.723256
15.953822 51.632271 -31.713479
17.205585 51.295258 -31.146574
15.940687 48.309826 -32.249325
16.568523 49.797973 -31.723256
33.238977 64.482406 -21.804129
31.622125 65.312111 -22.153265
33.678297 62.767842 -22.0373
33.238977 64.482406 -21.804129
32.586176 61.807201 -22.562314
33.678297 62.767842 -22.0373
-0.02908 54.455711 -33.852044
0.041777 56.647564 -33.718384
-0.062152 52.282246 -33.868172
-0.02908 54.455711 -33.852044
0.41749 53.673023 -34.224488
-0.047933 49.993279 -33.833027
-0.062152 52.282246 -33.868172
0.445603 49.240295 -34.090241
-0.047933 49.993279 -33.833027
0.992004 48.355598 -34.268108
0.445603 49.240295 -34.090241
0.930818 50.614861 -34.418484
1.578134 47.529831 -34.343666
1.09292 46.155265 -34.015423
0.992004 48.355598 -34.268108
2.144856 54.945778 -34.931964
1.569605 56.044266 -34.711838
2.737542 53.89949 -35.048046
3.365482 52.672855 -35.117866
2.072522 52.94397 -34.903579
2.144856 54.945778 -34.931964
2.737542 53.89949 -35.048046
4.625537 46.396133 -34.60051
3.975402 47.639408 -34.714734
4.590279 48.351673 -34.867092
5.449404 41.716276 -33.742325
4.950093 40.850164 -33.524204
4.80693 42.61047 -33.908703
5.449404 41.716276 -33.742325
5.917525 42.319981 -33.928314
4.871587 32.604286 -31.548285
4.069548 33.140414 -31.686183
5.052922 34.266339 -31.946067
4.871587 32.604286 -31.548285
3.89558 37.061575 -32.591458
3.564319 35.509687 -32.223762
3.157819 37.710942 -32.729145
4.594105 36.313192 -32.437703
3.89558 37.061575 -32.591458
4.187605 38.514447 -32.943085
5.052922 34.266339 -31.946067
4.594105 36.313192 -32.437703
3 1 21 19
3 2 24 22
3 2 62 64
3 64 63 24
3 62 63 64
3 0 27 25
3 1 65 66
3 1 67 69
3 67 19 68
3 67 68 69
3 3 31 30
3 3 33 31
3 4 36 34
3 6 37 17
3 6 38 37
3 7 70 72
3 72 71 39
3 70 71 72
3 4 73 74
3 4 75 77
3 75 34 76
3 75 76 77
3 78 41 79
3 9 80 81
3 9 82 84
3 82 42 83
3 82 83 84
3 9 43 42
3 10 44 18
3 10 85 87
3 87 86 44
3 85 86 87
3 11 88 90
3 88 45 89
3 88 89 90
3 12 46 20
3 12 47 46
3 5 48 35
3 13 49 23
3 13 50 49
3 13 51 50
3 8 91 93
3 91 52 92
3 91 92 93
3 14 53 26
3 14 54 53
3 95 94 40
3 15 55 28
3 15 56 55
3 96 57 97
3 98 58 99
3 100 99 57
3 98 99 100
3 101 59 102
3 103 102 58
3 101 102 103
3 11 60 29
3 11 104 106
3 106 105 60
3 104 105 106
3 107 61 108
3 16 109 111
3 111 110 32
3 109 110 111
3 16 112 113
3 114 17 115
3 116 115 4
3 114 115 116
3 117 17 118
3 119 6 120
3 121 120 17
3 119 120 121
3 123 122 7
3 124 4 125
3 126 9 127
3 128 18 129
3 130 129 9
3 128 129 130
3 131 18 132
3 133 10 134
3 135 134 18
3 133 134 135
3 19 20 11
3 21 20 19
3 21 12 20
3 22 23 5
3 24 23 22
3 24 13 23
3 24 136 138
3 138 137 13
3 136 137 138
3 140 139 24
3 25 26 8
3 27 26 25
3 27 14 26
3 141 28 142
3 143 28 144
3 145 15 146
3 147 146 28
3 145 146 147
3 148 29 149
3 19 150 152
3 150 29 151
3 150 151 152
3 19 11 29
3 30 153 154
3 31 155 157
3 157 156 30
3 155 156 157
3 31 158 159
3 31 160 162
3 160 32 161
3 160 161 162
3 33 32 31
3 33 16 32
3 34 35 1
3 36 35 34
3 36 5 35
3 17 36 4
3 37 36 17
3 37 5 36
3 37 22 5
3 38 22 37
3 38 2 22
3 39 40 0
3 163 40 164
3 165 164 39
3 163 164 165
3 167 166 40
3 169 168 7
3 34 170 171
3 34 172 174
3 172 1 173
3 172 173 174
3 175 30 176
3 177 30 178
3 179 3 180
3 181 180 30
3 179 180 181
3 182 8 183
3 184 8 185
3 186 25 187
3 188 187 8
3 186 187 188
3 41 189 191
3 189 25 190
3 189 190 191
3 41 0 25
3 192 41 193
3 42 194 196
3 194 41 195
3 194 195 196
3 42 0 41
3 42 39 0
3 43 39 42
3 43 7 39
3 18 43 9
3 44 43 18
3 44 7 43
3 44 197 199
3 199 198 7
3 197 198 199
3 201 200 44
3 45 202 203
3 45 204 205
3 20 45 11
3 46 45 20
3 46 206 208
3 208 207 45
3 206 207 208
3 46 209 210
3 47 211 213
3 213 212 46
3 211 212 213
3 47 214 215
3 35 21 1
3 48 21 35
3 48 12 21
3 23 48 5
3 49 48 23
3 49 12 48
3 49 47 12
3 50 47 49
3 50 216 218
3 218 217 47
3 216 217 218
3 50 219 220
3 51 221 223
3 223 222 50
3 221 222 223
3 51 224 225
3 226 51 227
3 228 227 13
3 226 227 228
3 229 51 230
3 232 231 51
3 52 233 234
3 52 235 237
3 235 6 236
3 235 236 237
3 26 52 8
3 53 52 26
3 53 6 52
3 53 38 6
3 54 38 53
3 54 2 38
3 40 27 0
3 238 27 239
3 240 239 40
3 238 239 240
3 241 14 242
3 243 242 27
3 241 242 243
3 244 14 245
3 246 54 247
3 248 247 14
3 246 247 248
3 249 54 250
3 251 2 252
3 253 252 54
3 251 252 253
3 255 254 2
3 256 10 257
3 258 10 259
3 261 260 10
3 28 262 263
3 55 264 266
3 266 265 28
3 264 265 266
3 55 267 268
3 55 269 270
3 56 271 273
3 273 272 55
3 271 272 273
3 56 274 276
3 274 3 275
3 274 275 276
3 277 15 278
3 57 279 280
3 57 281 283
3 281 15 282
3 281 282 283
3 57 56 15
3 58 56 57
3 58 3 56
3 58 33 3
3 59 33 58
3 59 16 33
3 29 284 286
3 284 59 285
3 284 285 286
3 60 59 29
3 60 16 59
3 60 287 289
3 289 288 16
3 287 288 289
3 291 290 60
3 61 292 293
3 61 294 295
3 32 296 298
3 296 61 297
3 296 297 298
3 299 61 300
3 301 300 32
3 299 300 301
3 303 302 61
