ply
format ascii 1.0
element vertex 128
property float x
property float y
property float z
element face 103
property list uchar int vertex_index
end_header
-43.123726 27.043858 7.050142
-49.265808 20.708775 6.645533
-46.201008 23.815891 7.127885
-52.819889 23.917892 6.440952
-50.347218 27.259296 6.552577
-47.548584 30.698448 6.267757
-39.713223 26.278549 7.05985
-41.638947 28.664017 6.718205
-47.745705 22.24358 6.936859
-48.97736 28.968056 6.477311
-38.412224 27.771667 6.373225
-50.745182 19.209015 6.302751
-44.652603 25.420578 7.177182
-52.474686 20.889778 6.043376
-51.160477 22.456455 6.29357
-51.633415 25.576908 6.526761
-49.772057 24.050415 6.518895
-48.320694 25.677288 6.668891
-46.82618 27.336384 6.700732
-45.313137 29.018372 6.578804
-43.808556 30.70509 6.273532
-42.118376 25.893599 7.279008
-42.856457 25.119095 7.392578
-42.381337 27.853938 6.884174
-41.375986 26.703679 7.11304
-42.118376 25.893599 7.279008
-48.263592 19.688932 7.004854
-49.049723 18.970703 6.829172
-48.505757 21.476177 6.791196
-47.50354 20.456335 7.150517
-48.263592 19.688932 7.004854
-39.31807 29.012479 6.266032
-39.062724 27.025108 6.716537
-39.968569 28.265921 6.609344
-38.658693 29.775745 5.864936
-39.31807 29.012479 6.266032
-51.46039 18.473233 6.133421
-50.566166 17.519577 6.464759
-45.160471 22.735641 7.446711
-45.942549 21.979872 7.378792
-45.426806 24.618234 7.152534
-44.386268 23.537985 7.471359
-45.160471 22.735641 7.446711
-52.647288 22.403835 6.242164
-53.189492 21.582422 6.193885
-53.362093 23.096479 6.392672
-50.990316 26.418102 6.539669
-51.884915 27.079746 6.707422
-51.241816 27.92094 6.72033
-44.2207 32.433022 5.807965
-44.949294 31.570927 6.085228
-43.0747 31.53802 6.017079
-44.2207 32.433022 5.807965
-40.413124 25.510945 7.283862
-39.55192 24.188215 7.41683
-40.676085 27.471283 6.889028
-40.413124 25.510945 7.283862
-41.375986 26.703679 7.11304
-40.931431 29.458655 6.438522
-39.968569 28.265921 6.609344
-40.676085 27.471283 6.889028
-46.714897 21.193716 7.283279
-47.50354 20.456335 7.150517
-46.973357 23.029736 7.032372
-45.942549 21.979872 7.378792
-46.714897 21.193716 7.283279
-53.468142 24.509748 6.793172
-53.362093 23.096479 6.392672
-50.652639 28.80158 6.594297
-51.241816 27.92094 6.72033
-49.96771 29.65596 6.556664
-49.662289 28.113676 6.514944
-50.652639 28.80158 6.594297
-49.328363 30.544001 6.369274
-49.96771 29.65596 6.556664
-48.613975 31.409197 6.264497
-48.262972 29.833252 6.372534
-49.328363 30.544001 6.369274
-38.924994 24.904772 7.097237
-39.55192 24.188215 7.41683
-38.274495 25.651331 6.753924
-38.924994 24.904772 7.097237
-39.062724 27.025108 6.716537
-37.708586 26.341938 6.315262
-38.274495 25.651331 6.753924
-37.82251 28.481779 5.905809
-37.708586 26.341938 6.315262
-37.82251 28.481779 5.905809
-38.658693 29.775745 5.864936
-49.78941 18.220824 6.65778
-50.566166 17.519577 6.464759
-50.005495 19.958895 6.474142
-49.049723 18.970703 6.829172
-49.78941 18.220824 6.65778
-43.620896 24.307455 7.456098
-44.386268 23.537985 7.471359
-43.888165 26.232218 7.113662
-42.856457 25.119095 7.392578
-43.620896 24.307455 7.456098
-53.095269 20.116194 5.934159
-53.189492 21.582422 6.193885
-52.325142 19.313614 6.003734
-53.095269 20.116194 5.934159
-51.609934 20.049397 6.173063
-51.46039 18.473233 6.133421
-52.325142 19.313614 6.003734
-53.005932 25.377384 6.743226
-53.468142 24.509748 6.793172
-52.412695 26.206892 6.78613
-51.884915 27.079746 6.707422
-52.226652 24.7474 6.483856
-53.005932 25.377384 6.743226
-52.412695 26.206892 6.78613
-47.939667 32.300078 6.005167
-48.613975 31.409197 6.264497
-46.819308 31.567606 6.08234
-47.939667 32.300078 6.005167
-45.701584 30.727568 6.237863
-46.43086 29.85841 6.42328
-46.819308 31.567606 6.08234
-44.560846 29.861731 6.426168
-45.701584 30.727568 6.237863
-44.949294 31.570927 6.085228
-41.989895 30.517483 6.239415
-42.723752 29.684553 6.495869
-43.0747 31.53802 6.017079
-40.931431 29.458655 6.438522
-41.989895 30.517483 6.239415
3 0 21 22
3 0 23 25
3 23 7 24
3 23 24 25
3 1 26 27
3 1 28 30
3 28 8 29
3 28 29 30
3 31 10 32
3 33 32 6
3 31 32 33
3 35 34 10
3 36 11 37
3 2 38 39
3 2 40 42
3 40 12 41
3 40 41 42
3 3 43 45
3 43 13 44
3 43 44 45
3 3 14 13
3 4 46 48
3 46 15 47
3 46 47 48
3 4 16 15
3 4 17 16
3 5 18 9
3 5 19 18
3 49 20 50
3 52 51 20
3 53 6 54
3 7 55 57
3 55 6 56
3 55 56 57
3 7 58 60
3 60 59 6
3 58 59 60
3 8 61 62
3 8 63 65
3 63 2 64
3 63 64 65
3 66 3 67
3 68 4 69
3 70 9 71
3 72 71 4
3 70 71 72
3 73 9 74
3 75 5 76
3 77 76 9
3 75 76 77
3 6 78 79
3 10 80 82
3 82 81 6
3 80 81 82
3 10 83 84
3 10 85 86
3 88 87 10
3 11 89 90
3 11 91 93
3 91 1 92
3 91 92 93
3 12 94 95
3 12 96 98
3 96 0 97
3 96 97 98
3 13 99 100
3 13 101 102
3 13 103 105
3 103 11 104
3 103 104 105
3 14 11 13
3 14 1 11
3 106 3 107
3 15 108 109
3 15 110 112
3 110 3 111
3 110 111 112
3 15 14 3
3 16 14 15
3 16 1 14
3 16 8 1
3 17 8 16
3 17 2 8
3 9 17 4
3 18 17 9
3 18 2 17
3 18 12 2
3 19 12 18
3 19 0 12
3 113 5 114
3 115 5 116
3 117 19 118
3 119 118 5
3 117 118 119
3 20 120 122
3 120 19 121
3 120 121 122
3 20 0 19
3 20 7 0
3 123 7 124
3 125 124 20
3 123 124 125
3 127 126 7
