ply
format ascii 1.0
element vertex 400
property float x
property float y
property float z
element face 360
property list uchar int vertex_index
end_header
-0.290756 21.990761 63.268311
-0.890516 8.181854 79.688126
0.134115 36.959774 62.484024
0.598814 8.648355 71.229996
-0.755529 28.28548 43.049576
-1.349445 18.456566 53.21122
0.342068 1.111197 77.921944
0.369465 8.622175 75.87381
0.863297 1.312092 73.496506
-0.10317 32.921547 37.545689
-0.70488 27.773308 57.841564
-1.298092 25.73938 52.725452
-1.026016 20.431362 57.977146
-0.560238 14.672955 62.610374
-3.083195 7.193428 82.28566
-1.059973 0.650566 81.586273
-0.02375 29.428425 63.250408
0.180756 15.619873 67.837616
0.807287 25.362377 39.738136
-0.062035 20.814526 44.634251
-1.364536 30.804504 47.123985
-1.166405 23.450859 48.28093
0.754768 -2.465189 76.608429
0.718136 1.232023 75.775589
0.939571 -2.377747 74.342682
0.907507 -2.292021 72.009109
-0.509331 24.945789 60.636303
-0.883148 24.083019 57.966835
-0.66987 21.267265 60.582005
-0.814259 17.621349 60.394253
-0.422903 18.316212 63.014515
-5.713772 9.382927 82.448769
-4.241467 10.31221 82.016167
-4.417728 6.450333 83.044891
-2.039494 0.251753 82.995132
-0.047138 39.164261 56.718098
0.028297 36.224926 59.899014
-0.141132 32.423855 60.299236
0.083261 33.187271 62.960709
0.606667 8.68108 73.625504
0.368328 12.365236 74.510956
0.503937 12.341396 72.172646
0.366461 15.898632 70.410263
0.404577 12.199747 69.689095
0.121834 11.943815 67.134186
0.381807 8.527056 68.754028
1.341068 33.392544 33.189461
-0.462465 30.636669 40.331696
0.336805 29.161869 38.667736
-0.069937 26.898567 41.302917
0.355087 23.122383 42.22435
-0.423185 24.569054 43.866875
-1.343479 22.092247 53.004673
-1.351017 24.627422 50.406071
-1.287954 20.977318 50.788807
-0.988728 19.772572 48.775238
-0.212742 4.670099 78.970673
-0.130316 8.461107 77.912521
0.35393 4.85598 76.988068
0.67473 4.961983 74.805794
0.752403 5.003523 72.482132
0.606838 4.987202 70.078064
-1.026831 31.994434 42.18277
-1.057644 26.791241 55.216637
-1.187975 23.127865 55.407425
-1.276131 19.493439 55.507694
-1.147247 16.806267 57.883663
-1.88867 7.765524 81.157364
-3.183174 3.404594 83.220734
-2.015659 3.968563 82.131157
-1.011974 4.382544 80.700691
-0.25692 0.926945 79.877556
-0.329029 28.663227 60.544384
-0.155493 25.694931 63.351303
0.088596 26.301991 66.030029
0.024481 22.584965 65.965126
0.20249 19.319183 68.333023
-0.056484 18.885555 65.685455
-0.153305 15.210377 65.213112
-0.278822 11.570486 64.578033
0.80505 31.335583 35.962498
1.304501 27.512188 37.177979
-1.318937 33.284061 44.225471
-1.193993 29.574284 44.989414
-1.356884 28.292076 49.959179
-1.301085 27.118149 47.731277
-0.988871 25.886883 45.6996
-0.729023 22.190594 46.358528
0.968306 -4.201192 74.71785
0.84717 -2.421468 75.475555
0.875905 -4.244913 75.850724
0.962985 -4.156964 73.545609
0.968306 -4.201192 74.71785
-5.77142 7.455408 82.931157
-6.464647 8.826411 82.468525
-5.123399 5.989111 83.229218
-5.06575 7.91663 82.74683
-5.77142 7.455408 82.931157
0.081206 36.59235 61.191519
0.086591 38.138937 59.621944
0.139499 38.506361 60.91445
-0.806806 10.100505 79.085949
-1.285627 9.901859 79.851963
1.089132 35.289402 32.481493
1.643509 34.348326 31.770972
-1.273531 17.886195 52.160775
-1.242786 19.146571 50.949568
-1.3187 19.716942 52.000013
-1.34778 16.635034 53.280687
-1.273531 17.886195 52.160775
0.823301 1.338469 72.319657
0.767854 3.184185 71.812469
0.80785 3.157808 72.989319
0.787956 -2.244414 70.835342
0.840607 -4.051506 71.201752
-1.120916 33.860094 41.723102
-0.910327 33.180259 40.746598
-0.881262 27.282274 56.5291
-0.9663 28.646772 55.072464
-0.789918 29.137806 56.384928
-0.759748 14.33918 61.350421
-0.886758 15.813377 60.242361
-0.687248 16.147152 61.502313
-0.641163 12.871429 62.34572
-0.759748 14.33918 61.350421
-2.97809 9.124973 81.742905
-3.557227 10.684365 81.608159
-3.662331 8.752819 82.150914
-2.485933 7.479476 81.721512
-2.380828 9.411022 81.178757
-2.97809 9.124973 81.742905
-3.172226 1.554194 83.638596
-3.824454 3.038651 83.577736
-0.219886 38.641701 55.380056
-0.155216 37.238377 56.968918
0.14015 24.664932 67.308555
0.113632 26.518092 67.304329
0.108093 22.80642 67.276104
0.056538 24.443478 65.997578
0.14015 24.664932 67.308555
0.166556 10.442152 76.254002
-0.083334 10.361618 77.273357
0.119575 8.541641 76.893166
0.207526 14.197159 74.795231
0.353432 14.202061 73.680725
-0.135258 9.941024 65.420276
-0.078494 11.757151 65.85611
0.065071 10.127689 66.698353
-0.366832 9.778775 64.195648
-0.135258 9.941024 65.420276
0.441418 4.948274 68.865643
0.553995 3.189935 69.424065
0.35094 32.128565 36.754093
0.56696 33.225073 35.327309
0.11285 34.018055 36.118904
1.304158 24.4921 39.036804
1.552765 25.567005 37.756726
1.055894 26.437282 38.458057
1.04252 23.429914 40.24567
1.304158 24.4921 39.036804
0.358133 20.048008 43.862879
0.566694 21.201937 42.657928
0.146526 21.968454 43.4293
0.11447 18.905577 44.990351
0.358133 20.048008 43.862879
-1.341737 32.044283 45.674728
-1.330423 33.911279 45.340244
-1.353222 32.671501 46.789501
-1.327488 27.015728 51.342315
-1.27459 28.8568 51.163595
-1.245194 27.580452 52.546731
-0.718984 19.114336 47.870233
-0.896298 17.915264 48.994263
0.946953 -4.114102 72.378822
0.923539 -2.334884 73.175895
0.962985 -4.156964 73.545609
0.840607 -4.051506 71.201752
0.946953 -4.114102 72.378822
-6.378571 10.790576 81.943188
-6.464647 8.826411 82.468525
-5.59166 11.349169 81.881291
-6.378571 10.790576 81.943188
-4.977619 9.847569 82.232468
-4.855508 11.81381 81.664989
-5.59166 11.349169 81.881291
-1.996462 -1.562329 83.397541
-2.600386 -0.022227 83.525795
-1.528118 -1.372936 82.699489
-1.996462 -1.562329 83.397541
-1.038357 -1.17353 81.99506
-1.549733 0.451159 82.290703
-1.528118 -1.372936 82.699489
-0.649571 -1.04587 81.143249
-1.038357 -1.17353 81.99506
0.048873 39.608604 58.031486
0.036476 41.108425 56.402991
-0.009421 37.694594 58.308556
0.048873 39.608604 58.031486
0.086591 38.138937 59.621944
-0.117498 35.768709 58.559376
-0.155216 37.238377 56.968918
-0.009421 37.694594 58.308556
-0.056418 34.324391 60.099125
-0.202213 33.868173 58.759487
-0.117498 35.768709 58.559376
0.421236 14.190141 72.51157
0.353432 14.202061 73.680725
0.436132 12.353316 73.341801
0.435199 14.120014 71.291455
0.352498 15.968759 71.630379
0.421236 14.190141 72.51157
0.195057 8.419309 67.508274
0.065071 10.127689 66.698353
0.251821 10.235436 67.944107
1.90567 32.415487 32.518256
1.643509 34.348326 31.770972
1.598993 31.469463 33.867992
1.90567 32.415487 32.518256
-1.325951 31.401676 48.283952
-1.353222 32.671501 46.789501
-1.093173 18.544198 49.942784
-1.138341 20.374945 49.782022
-1.242786 19.146571 50.949568
-0.896298 17.915264 48.994263
-1.093173 18.544198 49.942784
0.114102 38.841664 62.154924
0.139499 38.506361 60.91445
0.695072 3.176025 70.610435
0.67962 4.995363 71.280098
0.767854 3.184185 71.812469
0.553995 3.189935 69.424065
0.695072 3.176025 70.610435
0.845406 -0.463587 71.575958
0.823301 1.338469 72.319657
0.885402 -0.489965 72.752807
0.845406 -0.463587 71.575958
0.787956 -2.244414 70.835342
-0.295557 34.794487 36.958487
0.11285 34.018055 36.118904
-0.448496 33.643816 38.428057
-0.295557 34.794487 36.958487
-0.628144 32.501377 39.821061
-0.282817 31.779108 38.938693
-0.448496 33.643816 38.428057
-0.744648 31.315551 41.257233
-0.628144 32.501377 39.821061
-0.910327 33.180259 40.746598
-1.12497 28.106383 53.792324
-0.9663 28.646772 55.072464
-1.177868 26.26531 53.971044
-1.245194 27.580452 52.546731
-1.12497 28.106383 53.792324
-1.310546 17.682499 55.516873
-1.347203 17.164062 54.368635
-1.312788 18.975002 54.359457
-1.246104 16.338913 56.704857
-1.310546 17.682499 55.516873
-1.211689 18.149853 56.695678
-1.208861 15.003946 57.791832
-1.246104 16.338913 56.704857
-1.053252 15.405836 58.987066
-0.980753 17.213808 59.138958
-0.886758 15.813377 60.242361
-1.208861 15.003946 57.791832
-1.053252 15.405836 58.987066
-4.097055 12.276324 81.410652
-4.855508 11.81381 81.664989
-4.097055 12.276324 81.410652
-3.557227 10.684365 81.608159
-1.784704 9.693694 80.586582
-2.380828 9.411022 81.178757
-1.389593 7.973689 80.422745
-1.285627 9.901859 79.851963
-1.784704 9.693694 80.586582
-4.441731 4.561521 83.489814
-5.123399 5.989111 83.229218
-3.800451 4.927463 83.132812
-4.441731 4.561521 83.489814
-3.824454 3.038651 83.577736
-2.611334 1.828173 83.107933
-3.172226 1.554194 83.638596
-2.600386 -0.022227 83.525795
-0.248045 -0.907681 80.288891
-0.658447 0.788755 80.731915
-0.649571 -1.04587 81.143249
0.050271 -0.824776 79.312752
-0.248045 -0.907681 80.288891
0.349765 -0.73265 78.334946
0.042574 1.019071 78.89975
0.050271 -0.824776 79.312752
0.556115 -2.520843 77.678189
0.548418 -0.676996 77.265186
0.349765 -0.73265 78.334946
0.779975 -4.281304 76.990783
0.556115 -2.520843 77.678189
0.875905 -4.244913 75.850724
0.779975 -4.281304 76.990783
-0.097043 40.594492 55.078615
0.036476 41.108425 56.402991
-0.097043 40.594492 55.078615
-0.219886 38.641701 55.380056
-0.598688 29.643805 57.717682
-0.789918 29.137806 56.384928
-0.316814 31.969078 58.946518
-0.202213 33.868173 58.759487
-0.410762 30.088764 59.069092
-0.316814 31.969078 58.946518
-0.235081 30.543541 60.42181
-0.516954 28.218267 59.192974
-0.598688 29.643805 57.717682
-0.410762 30.088764 59.069092
0.052952 37.210482 63.679672
0.114102 38.841664 62.154924
0.113119 35.357738 63.982666
0.052952 37.210482 63.679672
0.087692 33.471487 64.221008
0.108688 35.073523 62.722366
0.113119 35.357738 63.982666
0.101731 31.608376 64.414792
0.087692 33.471487 64.221008
0.048226 29.728952 64.559641
0.029756 31.307848 63.105559
0.101731 31.608376 64.414792
0.104399 28.165736 65.949452
0.113632 26.518092 67.304329
0.032423 27.865208 64.640219
0.048226 29.728952 64.559641
0.104399 28.165736 65.949452
-0.426706 10.240132 78.198147
-0.806806 10.100505 79.085949
-0.510416 8.32148 78.800323
-0.426706 10.240132 78.198147
-0.083334 10.361618 77.273357
0.165988 12.313682 75.572575
0.166556 10.442152 76.254002
0.368896 10.493706 75.192383
0.165988 12.313682 75.572575
0.207526 14.197159 74.795231
0.322172 17.750616 70.641304
0.352498 15.968759 71.630379
0.240187 19.460891 69.602684
0.322172 17.750616 70.641304
0.284475 17.608908 69.371643
0.197097 21.173528 68.460052
0.240187 19.460891 69.602684
0.113486 20.952074 67.149074
0.108093 22.80642 67.276104
0.197097 21.173528 68.460052
-0.500455 11.320194 63.329549
-0.641163 12.871429 62.34572
-0.41953 13.121721 63.594204
-0.500455 11.320194 63.329549
-0.366832 9.778775 64.195648
0.328903 6.718201 68.203625
0.494322 6.757129 69.416046
0.441418 4.948274 68.865643
0.195057 8.419309 67.508274
0.328903 6.718201 68.203625
0.834969 34.253553 33.940791
1.089132 35.289402 32.481493
1.073059 32.364064 34.57598
0.834969 34.253553 33.940791
0.56696 33.225073 35.327309
1.330984 30.440983 35.254511
1.598993 31.469463 33.867992
1.073059 32.364064 34.57598
1.580709 28.529286 35.862251
1.330984 30.440983 35.254511
1.054775 29.423885 36.570239
1.833713 26.571049 36.509984
1.580709 28.529286 35.862251
1.833713 26.571049 36.509984
1.552765 25.567005 37.756726
0.81642 22.309917 41.488777
1.04252 23.429914 40.24567
0.581187 24.24238 40.981243
0.81642 22.309917 41.488777
0.566694 21.201937 42.657928
-1.335571 35.163628 43.814422
-1.330423 33.911279 45.340244
-1.26697 34.504908 42.744453
-1.335571 35.163628 43.814422
-1.172884 32.639247 43.204121
-1.120916 33.860094 41.723102
-1.26697 34.504908 42.744453
-1.322125 30.145462 49.701549
-1.27459 28.8568 51.163595
-1.36071 29.54829 48.541582
-1.325951 31.401676 48.283952
-1.322125 30.145462 49.701549
-0.589131 20.323347 46.661879
-0.858876 20.981583 47.566883
-0.718984 19.114336 47.870233
-0.255637 19.635313 45.79974
-0.395529 21.50256 45.496389
-0.589131 20.323347 46.661879
0.11447 18.905577 44.990351
-0.255637 19.635313 45.79974
-1.34778 16.635034 53.280687
-1.347203 17.164062 54.368635
3 88 24 89
3 90 89 22
3 88 89 90
3 92 91 24
3 0 28 26
3 0 30 28
3 93 31 94
3 95 33 96
3 97 96 31
3 95 96 97
3 2 98 100
3 98 36 99
3 98 99 100
3 2 38 36
3 1 101 102
3 3 41 39
3 3 43 41
3 3 45 43
3 103 46 104
3 4 49 47
3 4 51 49
3 5 54 52
3 5 105 107
3 107 106 54
3 105 106 107
3 5 108 109
3 6 58 56
3 8 59 23
3 8 60 59
3 8 110 112
3 112 111 60
3 110 111 112
3 114 113 25
3 115 62 116
3 10 117 119
3 117 63 118
3 117 118 119
3 12 64 27
3 12 65 64
3 12 66 65
3 13 120 122
3 122 121 29
3 120 121 122
3 13 123 124
3 14 125 127
3 127 126 32
3 125 126 127
3 14 128 130
3 128 67 129
3 128 129 130
3 131 68 132
3 15 69 34
3 15 70 69
3 15 71 70
3 134 133 35
3 16 72 37
3 16 73 72
3 135 74 136
3 137 75 138
3 139 138 74
3 137 138 139
3 7 140 142
3 142 141 57
3 140 141 142
3 144 143 40
3 17 76 42
3 17 77 76
3 17 78 77
3 145 79 146
3 147 146 44
3 145 146 147
3 149 148 79
3 151 150 61
3 9 152 154
3 152 80 153
3 152 153 154
3 18 81 48
3 18 155 157
3 157 156 81
3 155 156 157
3 18 158 159
3 19 160 162
3 162 161 50
3 160 161 162
3 19 163 164
3 20 165 167
3 165 82 166
3 165 166 167
3 20 83 82
3 11 168 170
3 168 84 169
3 168 169 170
3 21 85 53
3 21 86 85
3 21 87 86
3 172 171 55
3 22 23 6
3 24 23 22
3 24 8 23
3 24 25 8
3 173 25 174
3 175 174 24
3 173 174 175
3 177 176 25
3 26 27 10
3 28 27 26
3 28 12 27
3 28 29 12
3 30 29 28
3 30 13 29
3 31 178 179
3 31 180 181
3 31 182 184
3 182 32 183
3 182 183 184
3 33 32 31
3 33 14 32
3 185 34 186
3 187 34 188
3 189 15 190
3 191 190 34
3 189 190 191
3 193 192 15
3 194 35 195
3 36 196 198
3 196 35 197
3 196 197 198
3 36 199 201
3 201 200 35
3 199 200 201
3 36 202 204
3 202 37 203
3 202 203 204
3 38 37 36
3 38 16 37
3 39 40 7
3 41 40 39
3 41 205 207
3 207 206 40
3 205 206 207
3 41 208 210
3 208 42 209
3 208 209 210
3 43 42 41
3 43 17 42
3 43 44 17
3 45 44 43
3 45 211 213
3 213 212 44
3 211 212 213
3 46 214 215
3 46 216 217
3 47 48 9
3 49 48 47
3 49 18 48
3 49 50 18
3 51 50 49
3 51 19 50
3 218 20 219
3 52 53 11
3 54 53 52
3 54 21 53
3 54 55 21
3 220 55 221
3 222 221 54
3 220 221 222
3 224 223 55
3 225 2 226
3 56 57 1
3 58 57 56
3 58 7 57
3 23 58 6
3 59 58 23
3 59 7 58
3 59 39 7
3 60 39 59
3 60 3 39
3 60 61 3
3 227 61 228
3 229 228 60
3 227 228 229
3 231 230 61
3 25 232 234
3 234 233 8
3 232 233 234
3 236 235 25
3 237 9 238
3 239 9 240
3 241 47 242
3 243 242 9
3 241 242 243
3 62 244 246
3 244 47 245
3 244 245 246
3 62 4 47
3 63 247 248
3 63 249 251
3 249 11 250
3 249 250 251
3 27 63 10
3 64 63 27
3 64 11 63
3 64 52 11
3 65 52 64
3 65 5 52
3 65 252 254
3 254 253 5
3 252 253 254
3 66 255 257
3 257 256 65
3 255 256 257
3 66 258 259
3 29 66 12
3 260 66 261
3 262 261 29
3 260 261 262
3 264 263 66
3 32 265 266
3 268 267 32
3 67 269 270
3 67 271 273
3 271 1 272
3 271 272 273
3 274 33 275
3 68 276 278
3 276 33 277
3 276 277 278
3 68 14 33
3 34 279 281
3 279 68 280
3 279 280 281
3 69 68 34
3 69 14 68
3 69 67 14
3 70 67 69
3 70 1 67
3 70 56 1
3 71 56 70
3 71 6 56
3 282 71 283
3 284 283 15
3 282 283 284
3 285 71 286
3 287 6 288
3 289 288 71
3 287 288 289
3 290 22 291
3 292 291 6
3 290 291 292
3 293 22 294
3 296 295 22
3 35 297 298
3 300 299 35
3 301 10 302
3 37 303 304
3 72 305 307
3 307 306 37
3 305 306 307
3 72 308 310
3 308 10 309
3 308 309 310
3 72 26 10
3 73 26 72
3 73 0 26
3 311 2 312
3 313 2 314
3 315 38 316
3 317 316 2
3 315 316 317
3 318 38 319
3 320 16 321
3 322 321 38
3 320 321 322
3 74 323 324
3 74 325 327
3 325 16 326
3 325 326 327
3 74 73 16
3 75 73 74
3 75 0 73
3 57 328 330
3 330 329 1
3 328 329 330
3 332 331 57
3 40 333 335
3 335 334 7
3 333 334 335
3 337 336 40
3 42 338 339
3 76 340 342
3 342 341 42
3 340 341 342
3 76 343 344
3 76 345 347
3 345 75 346
3 345 346 347
3 77 75 76
3 77 0 75
3 77 30 0
3 78 30 77
3 78 13 30
3 44 78 17
3 79 78 44
3 79 13 78
3 79 348 350
3 350 349 13
3 348 349 350
3 352 351 79
3 61 45 3
3 353 45 354
3 355 354 61
3 353 354 355
3 357 356 45
3 358 46 359
3 80 360 362
3 360 46 361
3 360 361 362
3 80 363 365
3 365 364 46
3 363 364 365
3 48 80 9
3 81 80 48
3 81 366 368
3 368 367 80
3 366 367 368
3 81 369 370
3 372 371 81
3 50 373 375
3 375 374 18
3 373 374 375
3 377 376 50
3 82 378 379
3 82 380 381
3 82 382 384
3 382 62 383
3 382 383 384
3 83 62 82
3 83 4 62
3 84 385 386
3 84 387 389
3 387 20 388
3 387 388 389
3 53 84 11
3 85 84 53
3 85 20 84
3 85 83 20
3 86 83 85
3 86 4 83
3 86 51 4
3 87 51 86
3 87 19 51
3 55 87 21
3 390 87 391
3 392 391 55
3 390 391 392
3 393 19 394
3 395 394 87
3 393 394 395
3 397 396 19
3 399 398 5
