ply
format ascii 1.0
element vertex 455
property float x
property float y
property float z
element face 469
property list uchar int vertex_index
end_header
4.267363 25.649288 76.407906
7.417719 79.815605 31.18121
4.48394 56.391495 58.548798
0.717403 32.140217 69.220367
0.490589 48.252434 60.469742
4.478069 41.241253 68.881798
1.856609 75.259636 34.371651
10.408382 86.19754 16.409613
0.762917 63.298347 48.56794
5.32987 69.680275 45.587452
2.066057 29.226871 73.437523
2.066851 37.229538 69.799721
4.476078 33.459206 72.987389
1.846334 21.203747 76.24247
3.988741 78.552467 33.009834
5.138762 82.71965 25.419914
1.943775 53.061653 60.15921
2.081549 60.551697 54.199158
2.451483 67.417542 47.580414
4.758841 63.371872 52.339233
0.593357 40.22374 65.272362
1.975941 45.21244 65.369888
4.429745 48.94046 64.077377
1.053059 70.282173 35.09396
11.655838 79.130829 29.269833
8.844297 83.519165 23.793076
13.21949 82.298882 22.242203
14.898492 84.368851 15.198197
1.203768 69.757935 41.682022
3.084658 73.449783 40.455139
6.224211 75.184128 38.480881
7.641748 36.491383 71.046577
7.648455 43.891064 66.587784
7.658613 51.11702 61.498322
10.252825 75.005882 36.175659
6.455675 85.944633 17.824297
3.07486 27.518036 75.077042
3.149996 31.479416 73.413376
4.406029 29.558472 74.784904
4.048298 21.725075 77.847656
2.713236 19.560364 77.807137
2.931725 23.547646 76.544922
1.988634 25.221066 74.948334
5.562454 79.441841 32.13105
4.536432 80.752289 29.223448
6.185541 81.532997 28.378626
3.089418 54.934952 59.515739
1.986582 56.86834 57.268776
3.1605 58.632256 56.549538
3.290291 62.193184 53.412384
4.588055 59.954422 55.522461
0.387266 33.353405 66.686768
0.662254 36.182495 67.356033
3.15164 39.391495 69.525299
2.023054 41.227489 67.682915
3.115299 43.336426 67.304329
3.080988 47.257599 64.896461
4.450037 45.109268 66.569313
0.740643 28.099209 70.859444
1.304993 72.945061 34.809544
1.358807 72.79924 31.466873
1.65387 75.401657 31.108147
13.861509 78.17115 28.380627
12.421621 80.843376 25.767639
14.633566 79.749878 24.980129
0.620619 59.753052 51.800987
0.741608 67.2864 41.976089
0.957079 66.641609 45.188755
3.753357 68.794189 46.696068
2.734077 70.546715 44.069736
4.094982 71.791504 43.161224
4.511806 74.568703 39.540691
5.73698 72.538101 42.067032
7.64278 47.536186 64.124657
9.639132 72.623512 39.577545
11.759247 72.055405 38.320633
12.414909 74.307068 35.049664
9.61599 84.994453 20.093561
7.578024 85.000557 20.851347
8.318127 86.356422 17.103746
1.275593 30.767635 71.481354
1.253292 34.796379 69.69503
2.087353 33.228546 71.719078
3.16984 35.437069 71.561592
4.493647 37.354443 71.019829
1.176409 22.702255 74.392761
1.253576 26.738327 73.050018
2.746731 77.1483 33.768036
2.261368 77.643051 30.61454
3.219259 79.445755 29.980709
3.744083 81.510155 26.167332
1.075321 50.814468 60.47287
1.093756 54.70211 57.670006
1.159807 58.481178 54.682663
1.278566 62.115013 51.522934
1.453241 65.569328 48.206039
2.23502 64.078056 50.963875
3.486149 65.5886 50.120918
5.004417 66.620178 49.019653
1.20307 38.825642 67.69709
1.144325 42.849472 65.491661
1.096266 46.853447 63.082169
1.944269 49.165863 62.861267
3.067148 51.133034 62.299896
4.435669 52.71051 61.403206
1.043821 67.357948 35.256653
1.316776 69.923416 31.716145
5.802938 27.481503 75.856758
9.478746 79.697662 30.21278
8.107254 81.788177 27.492956
10.217451 81.543205 26.611383
10.99551 83.139061 22.993919
11.802896 84.467331 19.373482
15.435945 81.069626 21.550179
14.045637 83.479141 18.710741
12.630701 85.510345 15.768923
0.784437 67.515022 38.64061
1.000433 70.24044 38.439743
1.503586 72.632301 38.068718
1.6861 68.81559 44.750183
1.978855 71.833466 41.176384
2.332449 74.611931 37.507706
3.50342 76.118874 36.76075
5.002302 77.119713 35.857311
6.786898 77.611862 34.847549
5.932035 31.314053 74.099373
5.994701 35.136841 72.186684
6.009651 38.950165 70.119102
7.655149 40.203815 68.89241
5.997448 42.747475 67.892151
5.979113 46.514709 65.498856
5.974955 50.231033 62.933182
6.003792 53.871338 60.193588
6.082407 57.409424 57.285454
6.225077 60.820129 54.221771
7.607536 72.80246 40.848877
8.162836 75.316193 37.337715
8.790159 77.617882 33.790085
10.929375 77.179619 32.739887
13.119814 76.351044 31.738008
6.86178 83.388702 24.614273
5.783968 84.45253 21.615334
0.581342 30.726141 68.812893
0.592963 28.705637 69.632431
0.729023 30.119713 70.039906
0.552334 32.746811 67.953567
0.416274 31.332735 67.546093
0.581342 30.726141 68.812893
15.330299 78.31784 26.268749
14.247537 78.960514 26.680378
14.94427 77.528476 27.968998
0.322738 48.830936 59.026493
0.334037 46.847943 60.323856
0.563042 61.986092 48.626781
0.491893 60.213444 50.243305
0.691768 61.5257 50.184463
0.645952 63.694763 46.982804
0.563042 61.986092 48.626781
0.859998 64.969978 46.878348
0.743032 65.366394 45.293211
0.645952 63.694763 46.982804
12.516352 70.451961 39.272423
11.463845 70.833233 39.939158
12.830062 71.607865 37.726372
12.516352 70.451961 39.272423
1.741137 19.184835 76.776749
2.174588 18.363144 77.559082
2.279785 20.382055 77.024803
1.442918 19.927042 75.871621
1.741137 19.184835 76.776749
1.511372 21.953001 75.317615
1.107955 20.676296 74.946766
1.442918 19.927042 75.871621
4.724771 83.032803 23.883435
4.027432 82.428055 24.257144
4.441422 82.114902 25.793623
0.41385 40.827042 63.919247
0.45194 38.809414 65.005291
0.561823 42.238644 64.123593
0.41385 40.827042 63.919247
1.487722 72.52174 29.787734
1.528396 73.936318 29.624308
2.152248 77.630852 28.986716
2.487281 78.716801 28.717565
16.516011 80.305431 21.236286
16.11432 79.704479 22.902584
14.472064 83.923996 16.954469
15.159524 82.797012 18.412924
15.585952 83.241867 16.656652
14.185167 85.311577 13.701246
13.051272 85.882324 13.986608
13.764596 84.939598 15.48356
0.669663 66.006954 40.363228
0.793027 66.028904 38.674874
6.701731 30.168617 74.514671
5.867487 29.397778 74.978065
6.637182 28.252342 75.393364
6.818224 35.814112 71.61663
6.790967 33.950247 72.622292
7.614491 34.627518 72.052238
7.651802 42.047439 67.740097
8.509988 40.655752 68.135158
8.50664 42.499376 66.982845
6.956117 57.700138 56.529384
6.89881 56.009484 57.99823
7.027451 59.40549 54.997543
6.153742 59.114777 55.753613
6.956117 57.700138 56.529384
8.354378 71.423553 41.896181
7.370281 71.44397 42.580608
13.848871 74.815976 32.867718
12.767361 75.329056 33.393836
13.496418 73.793988 34.523546
14.204552 75.772819 31.272773
13.848871 74.815976 32.867718
5.679854 85.44907 18.180156
5.344 84.703018 20.075674
6.119822 85.198581 19.719816
3.380767 20.642719 77.827396
3.227481 18.669168 78.450504
3.895012 19.751524 78.470764
0.348894 35.374246 65.712494
0.327039 33.888451 65.308526
0.486388 36.788792 66.047126
0.348894 35.374246 65.712494
0.52476 34.76795 67.0214
0.627806 38.203118 66.314198
0.45194 38.809414 65.005291
0.486388 36.788792 66.047126
0.60465 26.684715 70.373516
0.729604 26.077288 71.562694
0.60465 26.684715 70.373516
0.592963 28.705637 69.632431
0.367719 31.873316 66.210137
0.416274 31.332735 67.546093
0.327039 33.888451 65.308526
0.367719 31.873316 66.210137
1.675928 75.237526 29.444945
1.528396 73.936318 29.624308
1.506339 74.100448 31.28751
16.025702 83.621964 14.952412
15.585952 83.241867 16.656652
15.338679 84.664188 13.466162
16.025702 83.621964 14.952412
0.43291 58.408146 51.811939
0.575016 57.895801 53.336254
0.43291 58.408146 51.811939
0.491893 60.213444 50.243305
0.635297 65.688789 43.686878
0.648248 65.892643 42.030968
0.849344 66.964005 43.582422
0.635297 65.688789 43.686878
0.743032 65.366394 45.293211
8.471266 35.193169 71.373657
7.614491 34.627518 72.052238
8.508398 44.279618 65.798153
8.50664 42.499376 66.982845
8.50556 46.102179 64.566589
7.645618 45.713625 65.356221
8.508398 44.279618 65.798153
8.511782 47.855721 63.307632
8.50556 46.102179 64.566589
8.519699 49.646137 61.994465
7.650697 49.326603 62.81149
8.511782 47.855721 63.307632
10.403788 71.117287 40.567614
9.370176 71.33408 41.260515
10.699189 72.339459 38.949089
10.403788 71.117287 40.567614
11.463845 70.833233 39.939158
13.157893 72.733696 36.090888
12.087078 73.181236 36.685148
12.830062 71.607865 37.726372
13.496418 73.793988 34.523546
13.157893 72.733696 36.090888
2.564895 17.554146 78.331257
3.07914 16.662951 78.974625
3.227481 18.669168 78.450504
2.564895 17.554146 78.331257
2.174588 18.363144 77.559082
0.910352 21.351298 73.912185
1.107955 20.676296 74.946766
0.947487 23.378811 73.329353
0.910352 21.351298 73.912185
0.986071 25.396847 72.657982
0.947487 23.378811 73.329353
1.214993 24.720291 73.721389
0.99711 27.418768 71.954731
0.729604 26.077288 71.562694
0.986071 25.396847 72.657982
2.966227 79.618153 28.40065
2.487281 78.716801 28.717565
2.740314 78.544403 30.297625
3.228638 80.650352 26.493961
2.966227 79.618153 28.40065
3.481671 80.477955 28.07402
3.473534 81.61066 24.589219
3.228638 80.650352 26.493961
3.473534 81.61066 24.589219
4.027432 82.428055 24.257144
0.781415 51.503399 59.119049
0.489049 50.222381 59.117485
0.782955 49.533451 60.471306
0.790632 53.44722 57.717617
0.781415 51.503399 59.119049
1.084538 52.758289 59.071438
0.811584 55.37033 56.270764
0.790632 53.44722 57.717617
0.84461 57.259864 54.777092
0.811584 55.37033 56.270764
1.126781 56.591644 56.176334
0.890213 59.117115 53.241825
0.575016 57.895801 53.336254
0.84461 57.259864 54.777092
9.73643 86.819458 14.89832
10.808159 86.654899 14.584916
0.510439 46.252991 61.722282
0.334037 46.847943 60.323856
0.837307 43.55151 64.233242
0.561823 42.238644 64.123593
0.868841 41.536606 65.382012
0.813277 45.553498 63.028496
0.837307 43.55151 64.233242
1.120296 44.85146 64.286915
0.793427 47.552941 61.775955
0.510439 46.252991 61.722282
0.813277 45.553498 63.028496
1.250087 67.10923 33.575806
1.127338 65.80777 35.298807
1.386564 68.391964 31.805551
1.250087 67.10923 33.575806
1.180299 68.640682 33.486399
1.519906 69.571388 30.044972
1.386564 68.391964 31.805551
1.466706 71.083828 29.91237
1.337792 71.361328 31.591509
1.487722 72.52174 29.787734
1.519906 69.571388 30.044972
1.466706 71.083828 29.91237
1.848499 76.510154 29.233519
1.957619 76.522354 30.861344
2.152248 77.630852 28.986716
1.675928 75.237526 29.444945
1.848499 76.510154 29.233519
5.697337 25.557791 76.654808
5.035151 26.565396 76.132332
4.92955 24.641683 76.930382
6.539359 26.37402 76.258545
5.697337 25.557791 76.654808
6.637182 28.252342 75.393364
6.539359 26.37402 76.258545
4.667487 20.744725 78.362656
3.895012 19.751524 78.470764
4.820017 22.679577 77.650257
4.667487 20.744725 78.362656
4.92955 24.641683 76.930382
4.15783 23.687182 77.127781
4.820017 22.679577 77.650257
15.71313 79.044605 24.617559
15.330299 78.31784 26.268749
15.034755 80.409752 23.265154
15.71313 79.044605 24.617559
16.11432 79.704479 22.902584
15.854678 81.592254 19.832643
16.516011 80.305431 21.236286
14.740791 82.274383 20.13046
15.854678 81.592254 19.832643
15.159524 82.797012 18.412924
11.919319 86.311302 14.264571
10.808159 86.654899 14.584916
11.519541 85.853943 16.089268
11.919319 86.311302 14.264571
13.051272 85.882324 13.986608
14.185167 85.311577 13.701246
15.338679 84.664188 13.466162
0.322738 48.830936 59.026493
0.489049 50.222381 59.117485
0.922719 65.950367 36.982895
1.127338 65.80777 35.298807
0.914129 67.436485 36.948632
0.922719 65.950367 36.982895
0.793027 66.028904 38.674874
0.763023 67.400711 40.30835
0.669663 66.006954 40.363228
0.648248 65.892643 42.030968
6.759634 32.038853 73.578636
6.701731 30.168617 74.514671
5.963368 33.225447 73.143028
6.759634 32.038853 73.578636
6.790967 33.950247 72.622292
8.495508 37.001898 70.326133
8.471266 35.193169 71.373657
8.502209 38.858114 69.24905
8.509988 40.655752 68.135158
7.648448 38.347599 69.969493
8.495508 37.001898 70.326133
8.502209 38.858114 69.24905
8.540681 51.362125 60.660816
8.519699 49.646137 61.994465
7.686913 52.863281 60.104664
8.540681 51.362125 60.660816
6.859502 54.240441 59.452297
6.831202 52.494179 60.845955
7.686913 52.863281 60.104664
6.0431 55.640381 58.739521
6.859502 54.240441 59.452297
6.89881 56.009484 57.99823
7.121087 61.030369 53.462764
7.027451 59.40549 54.997543
6.33413 62.450714 52.622039
7.121087 61.030369 53.462764
5.601012 63.726585 51.680771
5.491959 62.096001 53.280502
6.33413 62.450714 52.622039
5.7238 65.350739 50.020981
4.881629 64.996025 50.679443
5.601012 63.726585 51.680771
5.874506 66.897389 48.365284
5.7238 65.350739 50.020981
6.037233 68.427437 46.649183
5.167143 68.150227 47.303552
5.874506 66.897389 48.365284
6.231448 69.882878 44.949896
6.037233 68.427437 46.649183
6.435003 71.311791 43.189686
5.533425 71.109188 43.827242
6.231448 69.882878 44.949896
6.672258 72.67028 41.457954
6.435003 71.311791 43.189686
7.370281 71.44397 42.580608
8.623334 72.712986 40.213211
8.354378 71.423553 41.896181
9.370176 71.33408 41.260515
14.575399 76.682873 29.594082
13.490661 77.261097 30.059317
14.204552 75.772819 31.272773
14.94427 77.528476 27.968998
14.575399 76.682873 29.594082
5.047374 83.899242 21.981145
4.724771 83.032803 23.883435
5.461365 83.58609 23.517624
5.047374 83.899242 21.981145
5.344 84.703018 20.075674
8.691302 86.898899 15.245387
9.363255 86.276981 16.75668
9.73643 86.819458 14.89832
7.72627 86.771076 15.582211
8.691302 86.898899 15.245387
6.795044 86.565181 15.942486
7.386901 86.150527 17.464022
7.72627 86.771076 15.582211
5.979971 86.136482 16.286411
6.795044 86.565181 15.942486
5.679854 85.44907 18.180156
5.979971 86.136482 16.286411
3 0 38 36
3 0 41 39
3 0 36 41
3 1 45 43
3 2 48 46
3 2 50 48
3 3 52 51
3 5 55 53
3 5 57 55
3 3 142 144
3 144 143 58
3 142 143 144
3 3 145 147
3 145 51 146
3 145 146 147
3 6 61 59
3 148 64 149
3 150 149 62
3 148 149 150
3 4 151 152
3 8 153 155
3 155 154 65
3 153 154 155
3 8 156 157
3 8 158 160
3 158 67 159
3 158 159 160
3 9 70 68
3 9 72 70
3 161 75 162
3 164 163 75
3 7 79 77
3 10 82 80
3 12 83 37
3 12 84 83
3 13 165 167
3 167 166 40
3 165 166 167
3 13 168 169
3 13 170 172
3 170 85 171
3 170 171 172
3 10 86 42
3 10 80 86
3 14 89 87
3 15 90 44
3 15 173 175
3 175 174 90
3 173 174 175
3 16 92 91
3 17 93 47
3 17 94 93
3 17 96 94
3 19 97 49
3 19 98 97
3 20 176 177
3 20 178 179
3 11 99 81
3 21 100 54
3 21 101 100
3 21 102 101
3 22 103 56
3 22 104 103
3 23 106 105
3 181 180 60
3 183 182 88
3 24 110 108
3 26 111 63
3 26 112 111
3 184 113 185
3 27 186 188
3 186 114 187
3 186 187 188
3 27 115 114
3 27 189 191
3 191 190 115
3 189 190 191
3 192 116 193
3 28 117 66
3 28 118 117
3 18 119 95
3 29 120 69
3 29 121 120
3 29 122 121
3 30 123 71
3 30 124 123
3 194 125 195
3 196 195 107
3 194 195 196
3 31 197 199
3 197 126 198
3 197 198 199
3 31 127 126
3 32 200 202
3 200 128 201
3 200 201 202
3 32 129 128
3 32 130 129
3 33 131 73
3 33 132 131
3 203 133 204
3 205 134 206
3 207 206 133
3 205 206 207
3 208 135 209
3 34 136 74
3 34 137 136
3 34 138 137
3 210 139 211
3 212 211 76
3 210 211 212
3 214 213 139
3 25 140 109
3 35 141 78
3 35 215 217
3 217 216 141
3 215 216 217
3 36 37 10
3 38 37 36
3 38 12 37
3 39 218 220
3 218 40 219
3 218 219 220
3 41 40 39
3 41 13 40
3 41 42 13
3 36 42 41
3 36 10 42
3 43 44 14
3 45 44 43
3 45 15 44
3 46 47 16
3 48 47 46
3 48 17 47
3 48 49 17
3 50 49 48
3 50 19 49
3 51 221 222
3 52 223 225
3 225 224 51
3 223 224 225
3 52 226 228
3 226 20 227
3 226 227 228
3 53 54 11
3 55 54 53
3 55 21 54
3 55 56 21
3 57 56 55
3 57 22 56
3 58 229 230
3 232 231 58
3 51 233 234
3 51 235 236
3 59 60 23
3 61 60 59
3 61 237 239
3 239 238 60
3 237 238 239
3 62 63 24
3 64 63 62
3 64 26 63
3 240 27 241
3 243 242 27
3 65 244 245
3 247 246 65
3 248 66 249
3 67 250 252
3 250 66 251
3 250 251 252
3 67 28 66
3 68 69 18
3 70 69 68
3 70 29 69
3 70 71 29
3 72 71 70
3 72 30 71
3 253 31 254
3 255 32 256
3 257 73 258
3 259 258 32
3 257 258 259
3 260 73 261
3 262 33 263
3 264 263 73
3 262 263 264
3 265 74 266
3 75 267 269
3 267 74 268
3 267 268 269
3 75 34 74
3 75 76 34
3 270 76 271
3 272 271 75
3 270 271 272
3 274 273 76
3 77 78 25
3 79 78 77
3 79 35 78
3 80 81 3
3 82 81 80
3 82 11 81
3 37 82 10
3 83 82 37
3 83 11 82
3 83 53 11
3 84 53 83
3 84 5 53
3 40 275 277
3 275 276 277
3 279 278 40
3 85 280 281
3 85 282 283
3 42 85 13
3 86 85 42
3 86 284 286
3 286 285 85
3 284 285 286
3 86 287 289
3 287 58 288
3 287 288 289
3 80 58 86
3 80 3 58
3 87 88 6
3 89 88 87
3 89 290 292
3 292 291 88
3 290 291 292
3 44 89 14
3 90 89 44
3 90 293 295
3 295 294 89
3 293 294 295
3 90 296 297
3 299 298 90
3 91 300 302
3 302 301 4
3 300 301 302
3 92 303 305
3 305 304 91
3 303 304 305
3 92 306 307
3 47 92 16
3 93 92 47
3 93 308 310
3 310 309 92
3 308 309 310
3 93 311 313
3 311 65 312
3 311 312 313
3 94 65 93
3 94 8 65
3 94 95 8
3 96 95 94
3 96 18 95
3 49 96 17
3 97 96 49
3 97 18 96
3 97 68 18
3 98 68 97
3 98 9 68
3 315 314 7
3 316 4 317
3 81 52 3
3 99 52 81
3 99 20 52
3 54 99 11
3 100 99 54
3 100 20 99
3 100 318 320
3 320 319 20
3 318 319 320
3 101 321 323
3 323 322 100
3 321 322 323
3 101 324 326
3 324 4 325
3 324 325 326
3 101 91 4
3 102 91 101
3 102 16 91
3 56 102 21
3 103 102 56
3 103 16 102
3 103 46 16
3 104 46 103
3 104 2 46
3 105 327 328
3 106 329 331
3 331 330 105
3 329 330 331
3 106 332 333
3 60 106 23
3 334 106 335
3 336 335 60
3 334 335 336
3 338 337 106
3 88 61 6
3 339 61 340
3 341 340 88
3 339 340 341
3 343 342 61
3 344 107 345
3 346 345 0
3 344 345 346
3 347 107 348
3 350 349 107
3 351 39 352
3 353 39 354
3 355 0 356
3 357 356 39
3 355 356 357
3 108 109 1
3 110 109 108
3 110 25 109
3 63 110 24
3 111 110 63
3 111 25 110
3 111 77 25
3 112 77 111
3 112 7 77
3 358 64 359
3 113 360 362
3 360 64 361
3 360 361 362
3 113 26 64
3 363 113 364
3 114 365 367
3 365 113 366
3 365 366 367
3 114 26 113
3 114 112 26
3 115 112 114
3 115 7 112
3 115 368 370
3 370 369 7
3 368 369 370
3 372 371 115
3 374 373 27
3 376 375 4
3 377 105 378
3 116 379 381
3 379 105 380
3 379 380 381
3 116 23 105
3 66 382 384
3 382 116 383
3 382 383 384
3 117 116 66
3 117 23 116
3 117 59 23
3 118 59 117
3 118 6 59
3 95 67 8
3 119 67 95
3 119 28 67
3 69 119 18
3 120 119 69
3 120 28 119
3 120 118 28
3 121 118 120
3 121 6 118
3 121 87 6
3 122 87 121
3 122 14 87
3 71 122 29
3 123 122 71
3 123 14 122
3 123 43 14
3 124 43 123
3 124 1 43
3 107 38 0
3 125 38 107
3 125 12 38
3 385 125 386
3 126 387 389
3 387 125 388
3 387 388 389
3 126 12 125
3 126 84 12
3 127 84 126
3 127 5 84
3 390 31 391
3 128 392 393
3 128 394 396
3 394 31 395
3 394 395 396
3 128 127 31
3 129 127 128
3 129 5 127
3 129 57 5
3 130 57 129
3 130 22 57
3 73 130 32
3 131 130 73
3 131 22 130
3 131 104 22
3 132 104 131
3 132 2 104
3 397 33 398
3 399 33 400
3 401 132 402
3 403 402 33
3 401 402 403
3 133 404 406
3 404 132 405
3 404 405 406
3 133 2 132
3 133 50 2
3 134 50 133
3 134 19 50
3 407 134 408
3 409 134 410
3 411 19 412
3 413 412 134
3 411 412 413
3 414 98 415
3 416 415 19
3 414 415 416
3 417 98 418
3 419 9 420
3 421 420 98
3 419 420 421
3 422 9 423
3 424 72 425
3 426 425 9
3 424 425 426
3 135 427 429
3 427 72 428
3 427 428 429
3 135 30 72
3 74 430 432
3 430 135 431
3 430 431 432
3 136 135 74
3 136 30 135
3 136 124 30
3 137 124 136
3 137 1 124
3 137 108 1
3 138 108 137
3 138 24 108
3 76 138 34
3 139 138 76
3 139 24 138
3 139 62 24
3 433 62 434
3 435 434 139
3 433 434 435
3 437 436 62
3 109 45 1
3 140 45 109
3 140 15 45
3 78 140 25
3 141 140 78
3 141 15 140
3 141 438 440
3 440 439 15
3 438 439 440
3 442 441 141
3 443 79 444
3 445 444 7
3 443 444 445
3 446 79 447
3 448 35 449
3 450 449 79
3 448 449 450
3 451 35 452
3 454 453 35
