ply
format ascii 1.0
element vertex 420
property float x
property float y
property float z
element face 463
property list uchar int vertex_index
end_header
-49.876518 -90.152222 -5.922316
-51.108788 -79.834709 8.989416
-48.178932 -89.137756 11.331538
-44.519089 -102.341888 -6.280317
-47.615685 -95.320602 2.672273
-51.707684 -84.79245 1.661913
-58.336761 -75.270706 -0.11709
-55.746391 -70.417358 6.047113
-46.25526 -96.898849 -13.468378
-45.204372 -100.524811 2.368681
-46.518623 -97.151764 7.213075
-49.334381 -84.417664 10.238631
-49.6991 -87.15918 6.33637
-51.773132 -82.400101 5.384897
-54.830479 -79.987373 0.842501
-54.535477 -77.813713 4.323772
-57.845207 -65.35498 4.348722
-59.583824 -67.957321 1.521924
-47.323154 -96.32222 -5.880501
-45.462242 -99.967056 -10.055141
-48.350227 -93.348907 -9.689226
-47.084053 -93.951767 11.988992
-47.616196 -86.164597 15.537721
-48.500832 -81.537582 14.096596
-53.010132 -84.349411 -6.372038
-51.393353 -86.96434 -9.78533
-40.910721 -107.611206 -6.901716
-43.283192 -104.045288 -2.430103
-46.358521 -98.722382 -1.80233
-48.630455 -92.985443 -1.733433
-48.225975 -92.147049 7.05451
-49.448532 -89.952896 2.345874
-51.011131 -87.314255 -2.133163
-54.22789 -82.062195 -2.785286
-50.029831 -76.956619 12.538469
-53.400764 -75.237106 7.615459
-57.368248 -73.080658 3.059527
-41.971733 -106.1828 -10.585917
-42.768929 -103.894913 -14.151756
-45.27766 -99.591248 6.994066
-45.879375 -97.952026 9.520179
-50.135761 -82.114281 9.62624
-50.464432 -83.453247 7.761547
-51.525616 -81.155685 7.200686
-53.096535 -80.102142 4.870922
-52.742165 -78.878281 6.613472
-48.573486 -93.217285 -5.843489
-47.824348 -94.898315 -7.831465
-49.168549 -91.70546 -7.806408
-47.990433 -83.84111 14.83821
-41.339542 -106.466522 -2.91692
-42.474018 -104.730347 -0.523075
-46.542336 -97.963455 2.610084
-45.823917 -99.688858 0.278242
-47.062576 -96.992722 0.443138
-47.545555 -95.878128 -1.698229
-48.112793 -94.222153 0.448888
-47.678932 -91.541428 11.739542
-47.657463 -93.084869 9.495378
-48.279331 -90.629501 9.204854
-50.635231 -86.025726 3.964509
-49.650322 -88.535294 4.35299
-50.475563 -87.327927 2.030297
-50.172607 -88.683121 0.077624
-51.424919 -86.021088 -0.232129
-52.500721 -84.630249 -2.439657
-52.913811 -83.46817 -0.584402
-56.5923 -77.646133 0.388523
-56.488853 -78.616745 -1.369684
-55.044937 -69.003448 7.557925
-53.875179 -71.424278 8.41255
-52.718739 -73.800919 9.235721
-54.594193 -72.862534 6.856526
-55.348064 -74.232193 5.305466
-56.576202 -71.797699 4.560619
-42.81221 -105.10405 -6.587679
-41.486614 -106.985565 -8.725439
-43.353588 -104.232086 -8.467518
-45.881119 -98.513519 -11.822699
-44.241844 -101.901001 -12.124834
-44.605633 -100.435608 -13.807232
-44.900166 -98.785141 -15.350063
-50.440536 -88.399063 -11.435965
-42.671326 -103.660828 3.956002
-43.538166 -102.989868 1.951518
-44.487144 -101.271988 4.465744
-45.950821 -98.815765 4.795035
-47.094402 -96.288071 4.928721
-48.699631 -86.759003 10.81653
-48.886787 -88.192307 8.78968
-49.591175 -85.796478 8.2969
-50.634186 -84.746201 5.875464
-51.831417 -83.598648 3.537428
-53.171989 -82.353424 1.263851
-53.240593 -81.246788 3.086679
-54.804977 -78.936722 2.60944
-56.425056 -76.617645 2.089804
-56.217155 -66.552551 6.692543
-56.83033 -67.907745 5.202038
-57.676689 -69.272491 3.758038
-58.629753 -66.670509 2.919054
-46.005699 -99.390366 -6.032263
-45.010887 -101.245804 -8.194599
-46.475204 -98.106216 -7.968508
-46.939354 -96.664551 -9.826029
-47.391869 -95.081818 -11.576647
-46.281319 -96.351471 12.033022
-47.104401 -92.400742 14.339523
-47.553459 -90.020172 13.960375
-47.947044 -87.654007 13.440247
-48.388138 -85.312759 12.830118
-48.954239 -83.00032 12.16889
-49.684605 -80.710754 11.478266
-51.335533 -87.186447 -6.104923
-50.616859 -88.596893 -7.899054
-42.156029 -105.827499 -4.732964
-43.956535 -103.264664 -4.350519
-44.305344 -102.272339 -0.048926
-44.957893 -101.45845 -2.050457
-45.512276 -100.506149 -4.05024
-46.844139 -97.601273 -3.861996
-48.036713 -94.61525 -3.800287
-49.211121 -91.621689 -3.862329
-46.895004 -95.53241 9.612835
-47.466576 -94.663605 7.225092
-48.005749 -93.706955 4.877131
-48.927711 -89.634216 6.742739
-48.811974 -91.108231 4.671189
-48.538292 -92.633621 2.573069
-49.104282 -91.432556 0.316277
-49.745987 -90.111237 -1.887989
-50.49044 -88.689026 -4.031534
-51.966599 -85.865494 -4.283957
-53.67746 -83.167633 -4.595659
-54.626171 -81.01368 -0.963623
-56.142948 -79.579453 -3.160078
-48.053104 -80.043404 16.028528
-49.180336 -79.246735 13.329049
-50.578674 -78.428383 10.763401
-51.027992 -74.65477 11.7212
-51.605312 -76.13179 10.018587
-52.217346 -77.552643 8.323195
-54.044472 -76.583313 5.986939
-55.992752 -75.487244 3.725367
-57.984978 -74.236343 1.507616
-58.581093 -70.570312 2.321259
-59.378029 -71.753204 0.848582
-59.93964 -72.808701 -0.693878
-43.823547 -103.168701 -10.3302
-42.398312 -105.155884 -12.415257
-49.804192 -90.097519 -9.672291
-48.877754 -91.688766 -11.437115
-47.808807 -93.3694 -13.205959
-45.531706 -98.340584 10.681321
-45.207371 -99.143669 9.361751
-42.00687 -105.050011 0.43015
-41.41505 -105.904182 -0.8199
-58.362122 -75.744362 -0.966287
-57.489891 -76.932075 -0.713481
-57.464531 -76.45842 0.135717
-59.264071 -74.513844 -1.218678
-58.362122 -75.744362 -0.966287
-44.08715 -101.625564 5.517608
-43.579235 -102.466408 4.210873
-43.179242 -102.819985 5.262738
-57.031181 -65.953766 5.520632
-56.807369 -65.322891 6.269006
-57.621395 -64.724106 5.097095
-43.179242 -102.819985 5.262738
-42.208308 -103.995071 4.962864
-47.044465 -91.635223 15.502185
-46.819057 -92.81968 15.664811
-47.268993 -90.444939 15.312611
-47.32893 -91.210457 14.149949
-47.044465 -91.635223 15.502185
-47.463881 -87.3368 15.850065
-47.304631 -86.582634 16.943831
-47.78162 -86.909302 14.488984
-47.629305 -88.081505 14.801328
-47.463881 -87.3368 15.850065
-52.628591 -84.982018 -7.236891
-51.791292 -86.400536 -7.103333
-52.172832 -85.767929 -6.23848
-54.913574 -81.319317 -3.867225
-54.638359 -81.872036 -4.772411
-53.952675 -82.614914 -3.690473
-57.144922 -78.353032 -3.363728
-56.3159 -79.098099 -2.264881
-57.317875 -77.871678 -2.468532
-56.898623 -78.81136 -4.248727
-57.144922 -78.353032 -3.363728
-47.884355 -79.297894 16.996545
-47.627504 -80.446125 17.441668
-49.605083 -78.101677 12.933759
-48.952488 -78.499283 14.258392
-49.377235 -77.354225 13.863102
-51.586357 -73.493984 11.29796
-50.828434 -73.92091 12.584107
-60.337074 -70.991344 -0.252036
-59.952151 -70.453384 0.480442
-60.61788 -71.519093 -1.023266
-59.658834 -72.280952 0.077352
-60.337074 -70.991344 -0.252036
-60.858675 -71.999069 -1.797398
-60.61788 -71.519093 -1.023266
-40.191624 -108.519851 -7.893775
-39.926887 -108.696717 -7.031376
-40.945069 -107.556526 -10.662182
-40.702509 -107.957909 -9.731943
-41.729174 -106.584182 -9.655678
-41.148705 -107.188987 -11.598436
-40.945069 -107.556526 -10.662182
-41.731449 -105.54351 -14.28504
-41.546141 -106.173996 -13.416791
-42.58362 -104.525398 -13.283507
-41.887909 -104.908173 -15.123805
-41.731449 -105.54351 -14.28504
-49.124508 -90.804482 -12.255706
-49.659145 -90.043914 -11.43654
-49.905899 -89.15963 -12.255131
-48.590035 -91.644799 -13.140128
-48.343281 -92.529083 -12.321537
-49.124508 -90.804482 -12.255706
-44.906513 -99.96328 8.098695
-44.482408 -100.785194 6.78177
-45.578518 -98.771637 8.257123
-44.906513 -99.96328 8.098695
-45.207371 -99.143669 9.361751
-58.328484 -64.071421 3.935189
-57.621395 -64.724106 5.097095
-58.646252 -64.688125 3.212877
-58.328484 -64.071421 3.935189
-47.42492 -85.414872 16.583505
-47.304631 -86.582634 16.943831
-47.612038 -84.253128 16.233749
-47.803314 -85.002854 15.187966
-47.42492 -85.414872 16.583505
-47.778572 -83.093815 15.842384
-47.612038 -84.253128 16.233749
-48.033772 -81.94205 15.471577
-48.245632 -82.689346 14.467403
-47.778572 -83.093815 15.842384
-53.548304 -83.557186 -7.385258
-53.956352 -82.991944 -6.537809
-40.847813 -106.77227 -2.016822
-40.263652 -107.600235 -3.203984
-41.90678 -105.598434 -1.719998
-40.847813 -106.77227 -2.016822
-41.41505 -105.904182 -0.8199
-57.438167 -77.417382 -1.592585
-56.540577 -78.131439 -0.49058
-57.489891 -76.932075 -0.713481
-57.317875 -77.871678 -2.468532
-57.438167 -77.417382 -1.592585
-49.80845 -76.211899 13.432845
-49.377235 -77.354225 13.863102
-54.199032 -69.497898 8.780796
-54.840603 -68.322486 8.340172
-53.614153 -70.708313 9.208109
-54.199032 -69.497898 8.780796
-54.460058 -70.213863 7.985238
-53.009951 -71.878738 9.643635
-53.614153 -70.708313 9.208109
-53.296959 -72.612598 8.824136
-52.431731 -73.067059 10.055221
-53.009951 -71.878738 9.643635
-60.055048 -68.555442 0.817114
-60.487484 -67.203712 0.418739
-43.838327 -101.422371 -14.778533
-42.919975 -103.152023 -14.950795
-43.687281 -102.165261 -13.979494
-43.985594 -100.597138 -15.549948
-43.838327 -101.422371 -14.778533
-44.752899 -99.610375 -14.578648
-44.095636 -99.748848 -16.268311
-43.985594 -100.597138 -15.549948
-51.29663 -86.823288 -11.511181
-50.916944 -87.681702 -10.610647
-51.773039 -86.105927 -10.685863
-50.736711 -87.499649 -12.272185
-51.29663 -86.823288 -11.511181
-49.905899 -89.15963 -12.255131
-50.736711 -87.499649 -12.272185
-43.104746 -103.325348 2.95376
-42.538944 -104.179772 1.667447
-42.105524 -104.515252 2.669688
-44.882402 -100.431618 5.729905
-44.08715 -101.625564 5.517608
-44.482408 -100.785194 6.78177
-56.102314 -65.924156 7.473177
-56.807369 -65.322891 6.269006
-55.426712 -67.097038 7.907481
-56.102314 -65.924156 7.473177
-55.631046 -67.777999 7.125234
-54.840603 -68.322486 8.340172
-55.426712 -67.097038 7.907481
-59.038525 -65.34589 2.498043
-58.23748 -66.012744 3.633888
-58.646252 -64.688125 3.212877
-59.49844 -65.967938 1.803899
-59.038525 -65.34589 2.498043
-59.975475 -66.611344 1.105335
-59.106789 -67.313915 2.220489
-59.49844 -65.967938 1.803899
-60.487484 -67.203712 0.418739
-59.975475 -66.611344 1.105335
-41.598925 -104.833496 3.630702
-42.208308 -103.995071 4.962864
-42.105524 -104.515252 2.669688
-41.598925 -104.833496 3.630702
-45.95279 -96.75322 13.25358
-45.732678 -97.540306 11.937743
-46.386565 -95.567184 13.278896
-45.95279 -96.75322 13.25358
-46.787931 -94.367333 13.25688
-46.682686 -95.151619 12.011007
-46.386565 -95.567184 13.278896
-46.798106 -93.59182 14.432146
-46.819057 -92.81968 15.664811
-47.094227 -93.176254 13.164257
-46.787931 -94.367333 13.25688
-46.798106 -93.59182 14.432146
-47.432512 -89.264588 15.061392
-47.268993 -90.444939 15.312611
-47.750251 -88.837089 13.700311
-47.432512 -89.264588 15.061392
-47.629305 -88.081505 14.801328
-51.431955 -87.105759 -8.000399
-50.976196 -87.89167 -7.001988
-51.791292 -86.400536 -7.103333
-51.820202 -86.289482 -8.943537
-51.005106 -87.780617 -8.842192
-51.431955 -87.105759 -8.000399
-52.628591 -84.982018 -7.236891
-53.548304 -83.557186 -7.385258
-52.281035 -85.466957 -9.904528
-51.820202 -86.289482 -8.943537
-51.773039 -86.105927 -10.685863
-52.281035 -85.466957 -9.904528
-40.538498 -107.885849 -6.032733
-39.926887 -108.696717 -7.031376
-40.752909 -107.313507 -4.040335
-40.263652 -107.600235 -3.203984
-41.161152 -106.993996 -4.948357
-40.752909 -107.313507 -4.040335
-41.747785 -106.14701 -3.824942
-41.533375 -106.719352 -5.81734
-40.538498 -107.885849 -6.032733
-41.161152 -106.993996 -4.948357
-43.006092 -103.860107 0.714222
-42.00687 -105.050011 0.43015
-42.538944 -104.179772 1.667447
-46.080347 -97.151748 10.776601
-45.531706 -98.340584 10.681321
-45.732678 -97.540306 11.937743
-54.290017 -82.401055 -5.649619
-53.956352 -82.991944 -6.537809
-53.343796 -83.758522 -5.483849
-54.290017 -82.401055 -5.649619
-54.638359 -81.872036 -4.772411
-55.871103 -80.077946 -4.054621
-54.913574 -81.319317 -3.867225
-55.185419 -80.820824 -2.972682
-55.871103 -80.077946 -4.054621
-56.898623 -78.81136 -4.248727
-47.809907 -81.194962 16.437543
-47.627504 -80.446125 17.441668
-48.276968 -80.790493 15.062562
-48.033772 -81.94205 15.471577
-47.809907 -81.194962 16.437543
-48.388872 -78.897617 15.608132
-47.884355 -79.297894 16.996545
-48.61672 -79.64507 14.678788
-48.388872 -78.897617 15.608132
-48.952488 -78.499283 14.258392
-50.307531 -75.060974 13.02421
-50.828434 -73.92091 12.584107
-50.528911 -75.805695 12.129834
-49.80845 -76.211899 13.432845
-50.307531 -75.060974 13.02421
-51.873365 -74.227845 10.478461
-51.586357 -73.493984 11.29796
-52.431731 -73.067059 10.055221
-59.553683 -69.861938 1.216781
-59.082459 -69.263816 1.921591
-60.055048 -68.555442 0.817114
-58.979561 -71.161758 1.58492
-59.553683 -69.861938 1.216781
-59.952151 -70.453384 0.480442
-60.06551 -73.282841 -1.507073
-59.264071 -74.513844 -1.218678
-59.1382 -74.039704 -0.405484
-60.06551 -73.282841 -1.507073
-60.858675 -71.999069 -1.797398
-40.479571 -108.207031 -8.805636
-40.191624 -108.519851 -7.893775
-41.198667 -107.298385 -7.813578
-40.479571 -108.207031 -8.805636
-40.702509 -107.957909 -9.731943
-41.361994 -106.67553 -12.513105
-41.148705 -107.188987 -11.598436
-42.185023 -105.669342 -11.500587
-41.361994 -106.67553 -12.513105
-41.546141 -106.173996 -13.416791
-41.887909 -104.908173 -15.123805
-42.919975 -103.152023 -14.950795
-47.98648 -92.448143 -13.962495
-48.590035 -91.644799 -13.140128
-47.186739 -94.250648 -14.09392
-47.98648 -92.448143 -13.962495
-46.409965 -96.015373 -14.22513
-47.032033 -95.134124 -13.337169
-47.186739 -94.250648 -14.09392
-45.732418 -96.958519 -15.165973
-45.577713 -97.841995 -14.40922
-46.409965 -96.015373 -14.22513
-45.006766 -97.871338 -16.049446
-45.732418 -96.958519 -15.165973
-44.095636 -99.748848 -16.268311
-45.006766 -97.871338 -16.049446
3 153 40 154
3 1 43 41
3 1 45 43
3 0 48 46
3 155 51 156
3 4 54 52
3 4 56 54
3 2 59 57
3 5 62 60
3 5 64 62
3 5 66 64
3 6 157 159
3 159 158 67
3 157 158 159
3 6 160 161
3 7 70 69
3 7 72 70
3 7 74 72
3 3 77 75
3 8 80 78
3 8 81 80
3 162 85 163
3 164 163 83
3 162 163 164
3 10 86 39
3 10 87 86
3 11 90 88
3 13 91 42
3 13 92 91
3 13 94 92
3 15 95 44
3 15 96 95
3 16 165 167
3 165 97 166
3 165 166 167
3 16 98 97
3 16 100 98
3 168 83 169
3 18 103 101
3 20 104 47
3 20 105 104
3 170 107 171
3 172 108 173
3 174 173 107
3 172 173 174
3 22 175 176
3 22 177 179
3 177 109 178
3 177 178 179
3 22 110 109
3 23 111 49
3 23 112 111
3 24 180 182
3 182 181 113
3 180 181 182
3 27 115 50
3 27 116 115
3 9 117 84
3 28 118 53
3 28 119 118
3 28 120 119
3 29 121 55
3 29 122 121
3 21 123 106
3 30 124 58
3 30 125 124
3 12 126 89
3 31 127 61
3 31 128 127
3 31 129 128
3 32 130 63
3 32 131 130
3 32 132 131
3 33 133 65
3 33 183 185
3 185 184 133
3 183 184 185
3 14 134 93
3 186 135 187
3 188 187 68
3 186 187 188
3 190 189 135
3 191 136 192
3 34 193 195
3 193 137 194
3 193 194 195
3 34 138 137
3 196 139 197
3 35 140 71
3 35 141 140
3 35 142 141
3 36 143 73
3 36 144 143
3 17 145 99
3 198 146 199
3 200 147 201
3 202 201 146
3 200 201 202
3 204 203 147
3 26 205 206
3 37 207 209
3 209 208 76
3 207 208 209
3 37 210 211
3 19 148 102
3 38 149 79
3 38 212 214
3 214 213 149
3 212 213 214
3 38 215 216
3 25 150 114
3 217 151 218
3 219 218 82
3 217 218 219
3 220 152 221
3 222 221 151
3 220 221 222
3 223 39 224
3 40 225 227
3 225 39 226
3 225 226 227
3 40 10 39
3 41 42 11
3 43 42 41
3 43 13 42
3 43 44 13
3 45 44 43
3 45 15 44
3 228 16 229
3 231 230 16
3 46 47 18
3 48 47 46
3 48 20 47
3 232 22 233
3 234 49 235
3 236 235 22
3 234 235 236
3 237 49 238
3 239 23 240
3 241 240 49
3 239 240 241
3 243 242 24
3 244 50 245
3 51 246 248
3 246 50 247
3 246 247 248
3 51 27 50
3 52 53 9
3 54 53 52
3 54 28 53
3 54 55 28
3 56 55 54
3 56 29 55
3 57 58 21
3 59 58 57
3 59 30 58
3 60 61 12
3 62 61 60
3 62 31 61
3 62 63 31
3 64 63 62
3 64 32 63
3 64 65 32
3 66 65 64
3 66 33 65
3 67 68 14
3 249 68 250
3 251 250 67
3 249 250 251
3 253 252 68
3 254 34 255
3 69 256 257
3 70 258 260
3 260 259 69
3 258 259 260
3 70 261 262
3 70 263 265
3 263 71 264
3 263 264 265
3 72 71 70
3 72 35 71
3 72 73 35
3 74 73 72
3 74 36 73
3 267 266 17
3 75 76 26
3 77 76 75
3 77 37 76
3 78 79 19
3 80 79 78
3 80 38 79
3 80 268 270
3 270 269 38
3 268 269 270
3 81 271 273
3 273 272 80
3 271 272 273
3 81 274 275
3 276 82 277
3 278 277 25
3 276 277 278
3 279 82 280
3 282 281 82
3 83 283 285
3 283 84 284
3 283 284 285
3 85 84 83
3 85 9 84
3 39 286 288
3 286 85 287
3 286 287 288
3 86 85 39
3 86 9 85
3 86 52 9
3 87 52 86
3 87 4 52
3 88 89 2
3 90 89 88
3 90 12 89
3 42 90 11
3 91 90 42
3 91 12 90
3 91 60 12
3 92 60 91
3 92 5 60
3 92 93 5
3 94 93 92
3 94 14 93
3 44 94 13
3 95 94 44
3 95 14 94
3 95 67 14
3 96 67 95
3 96 6 67
3 97 289 290
3 97 291 292
3 97 293 295
3 293 69 294
3 293 294 295
3 98 69 97
3 98 7 69
3 98 99 7
3 100 99 98
3 100 17 99
3 296 100 297
3 298 297 16
3 296 297 298
3 299 100 300
3 301 17 302
3 303 302 100
3 301 302 303
3 305 304 17
3 83 306 307
3 83 308 309
3 101 102 3
3 103 102 101
3 103 19 102
3 47 103 18
3 104 103 47
3 104 19 103
3 104 78 19
3 105 78 104
3 105 8 78
3 310 106 311
3 312 106 313
3 314 21 315
3 316 315 106
3 314 315 316
3 107 317 318
3 107 319 321
3 319 21 320
3 319 320 321
3 107 57 21
3 108 57 107
3 108 2 57
3 322 108 323
3 109 324 326
3 324 108 325
3 324 325 326
3 109 2 108
3 109 88 2
3 110 88 109
3 110 11 88
3 49 110 22
3 111 110 49
3 111 11 110
3 111 41 11
3 112 41 111
3 112 1 41
3 113 114 0
3 327 114 328
3 329 328 113
3 327 328 329
3 330 25 331
3 332 331 114
3 330 331 332
3 334 333 24
3 335 25 336
3 338 337 25
3 339 26 340
3 50 341 342
3 115 343 345
3 345 344 50
3 343 344 345
3 115 346 348
3 346 26 347
3 346 347 348
3 115 75 26
3 116 75 115
3 116 3 75
3 84 349 351
3 349 51 350
3 349 350 351
3 117 51 84
3 117 27 51
3 53 117 9
3 118 117 53
3 118 27 117
3 118 116 27
3 119 116 118
3 119 3 116
3 119 101 3
3 120 101 119
3 120 18 101
3 55 120 28
3 121 120 55
3 121 18 120
3 121 46 18
3 122 46 121
3 122 0 46
3 106 352 354
3 352 40 353
3 352 353 354
3 123 40 106
3 123 10 40
3 58 123 21
3 124 123 58
3 124 10 123
3 124 87 10
3 125 87 124
3 125 4 87
3 89 59 2
3 126 59 89
3 126 30 59
3 61 126 12
3 127 126 61
3 127 30 126
3 127 125 30
3 128 125 127
3 128 4 125
3 128 56 4
3 129 56 128
3 129 29 56
3 63 129 31
3 130 129 63
3 130 29 129
3 130 122 29
3 131 122 130
3 131 0 122
3 131 113 0
3 132 113 131
3 132 24 113
3 65 132 32
3 133 132 65
3 133 24 132
3 133 355 357
3 357 356 24
3 355 356 357
3 359 358 133
3 93 66 5
3 134 66 93
3 134 33 66
3 68 134 14
3 135 134 68
3 135 33 134
3 135 360 362
3 362 361 33
3 360 361 362
3 364 363 135
3 136 365 366
3 136 367 369
3 367 23 368
3 367 368 369
3 370 136 371
3 137 372 374
3 372 136 373
3 372 373 374
3 137 23 136
3 137 112 23
3 138 112 137
3 138 1 112
3 139 375 376
3 139 377 379
3 377 34 378
3 377 378 379
3 71 380 382
3 380 139 381
3 380 381 382
3 140 139 71
3 140 34 139
3 140 138 34
3 141 138 140
3 141 1 138
3 141 45 1
3 142 45 141
3 142 15 45
3 73 142 35
3 143 142 73
3 143 15 142
3 143 96 15
3 144 96 143
3 144 6 96
3 99 74 7
3 145 74 99
3 145 36 74
3 383 145 384
3 385 384 17
3 383 384 385
3 146 386 388
3 386 145 387
3 386 387 388
3 146 36 145
3 146 144 36
3 147 144 146
3 147 6 144
3 147 389 391
3 391 390 6
3 389 390 391
3 393 392 147
3 76 394 396
3 396 395 26
3 394 395 396
3 398 397 76
3 102 77 3
3 148 77 102
3 148 37 77
3 79 148 19
3 149 148 79
3 149 37 148
3 149 399 401
3 401 400 37
3 399 400 401
3 403 402 149
3 405 404 38
3 114 48 0
3 150 48 114
3 150 20 48
3 82 150 25
3 151 150 82
3 151 20 150
3 151 105 20
3 152 105 151
3 152 8 105
3 406 152 407
3 408 152 409
3 410 8 411
3 412 411 152
3 410 411 412
3 413 81 414
3 415 414 8
3 413 414 415
3 416 81 417
3 419 418 81
