ply
format ascii 1.0
element vertex 66
property float x
property float y
property float z
element face 49
property list uchar int vertex_index
end_header
51.693432 24.513195 6.878565
54.897209 22.433052 6.948667
49.985218 29.015495 6.39004
49.842209 25.53447 6.906108
51.821152 27.946323 6.583191
54.94352 25.76659 7.075564
53.613377 30.165581 6.636653
53.494179 26.863705 6.797951
53.39682 23.480061 6.875297
50.981943 30.147616 6.27727
50.078272 30.69603 6.052912
51.89991 29.613029 6.373845
50.903185 28.480909 6.486616
50.981943 30.147616 6.27727
50.714861 23.235521 7.124306
49.789249 23.746159 7.138077
50.76782 25.023832 6.892336
51.643816 22.756872 7.024439
50.714861 23.235521 7.124306
54.312144 29.600725 6.8999
54.34664 31.194748 6.855211
54.252544 27.949787 6.980549
53.553778 28.514643 6.717302
54.312144 29.600725 6.8999
54.110603 21.232301 6.974647
53.360408 21.755806 6.937962
54.147014 22.956556 6.911982
49.018507 29.537596 6.280467
50.078272 30.69603 6.052912
48.945093 27.776074 6.646141
49.018507 29.537596 6.280467
49.913714 27.274983 6.648074
48.873588 26.035561 6.904175
48.945093 27.776074 6.646141
55.530236 26.824402 7.420951
54.977215 27.40123 7.119356
55.532377 25.206915 7.263557
55.530236 26.824402 7.420951
55.509222 23.540146 7.200109
54.920364 24.099821 7.012116
55.532377 25.206915 7.263557
48.824734 24.216734 7.221102
48.873588 26.035561 6.904175
48.824734 24.216734 7.221102
49.789249 23.746159 7.138077
53.676414 31.766571 6.453373
54.34664 31.194748 6.855211
52.796022 30.722659 6.400576
53.676414 31.766571 6.453373
52.717264 29.055952 6.609922
51.89991 29.613029 6.373845
52.796022 30.722659 6.400576
54.21885 26.315148 6.936758
54.252544 27.949787 6.980549
54.977215 27.40123 7.119356
52.49551 22.240305 7.022806
51.643816 22.756872 7.024439
52.545126 23.996628 6.876931
52.49551 22.240305 7.022806
53.360408 21.755806 6.937962
55.525867 21.900161 7.047726
55.509222 23.540146 7.200109
54.887287 20.741518 6.936067
55.525867 21.900161 7.047726
54.110603 21.232301 6.974647
54.887287 20.741518 6.936067
3 9 2 10
3 11 4 12
3 13 12 2
3 11 12 13
3 0 14 16
3 16 15 3
3 14 15 16
3 0 17 18
3 19 6 20
3 21 7 22
3 23 22 6
3 21 22 23
3 1 8 5
3 1 24 26
3 26 25 8
3 24 25 26
3 2 27 28
3 2 29 30
3 2 31 33
3 31 3 32
3 31 32 33
3 4 3 2
3 4 0 3
3 34 5 35
3 36 5 37
3 38 1 39
3 40 39 5
3 38 39 40
3 3 41 42
3 44 43 3
3 6 45 46
3 6 47 48
3 6 49 51
3 49 4 50
3 49 50 51
3 7 4 6
3 7 0 4
3 5 52 54
3 52 7 53
3 52 53 54
3 8 7 5
3 8 0 7
3 8 55 57
3 57 56 0
3 55 56 57
3 59 58 8
3 60 1 61
3 62 1 63
3 65 64 1
