ply
format ascii 1.0
element vertex 627
property float x
property float y
property float z
element face 639
property list uchar int vertex_index
end_header
42.060555 9.645266 60.409027
45.925564 42.342335 30.133554
53.700081 8.191698 44.557236
46.669403 0.63056 58.843559
48.454414 9.121408 53.820717
50.027161 26.796013 21.242685
33.732109 8.571697 62.718834
39.580925 -0.440496 64.105003
52.351662 44.822216 13.438243
48.745644 38.519024 22.287096
44.106739 30.925568 29.654217
42.631516 35.200233 38.404007
42.493549 23.39209 37.610298
45.536674 16.442116 46.387421
41.517921 -4.283329 64.555595
47.012798 45.967979 25.613358
48.406494 44.047676 21.701973
46.884094 40.516239 26.13467
46.340649 34.813583 26.035645
44.948124 36.763996 30.142876
41.93494 29.293617 38.120834
41.900845 25.677834 42.492928
39.393333 14.976948 60.995399
42.703201 14.813931 58.527649
51.09248 8.523088 49.355904
47.420082 12.917963 50.42662
49.549088 11.872765 45.63213
47.253506 15.022583 41.450905
52.059422 11.319004 40.769127
44.778606 4.925016 59.755508
45.517693 9.593935 57.612015
48.181782 4.98295 56.521538
51.170963 4.804403 52.428291
53.893791 4.679495 47.771675
52.520584 30.276848 18.214123
38.061451 9.240513 62.049919
36.683426 3.726633 63.261955
40.911575 4.48584 61.977333
43.31918 0.265823 61.925606
53.86644 39.33181 14.882379
50.830978 41.86845 18.112537
51.68708 36.214241 18.695045
49.003517 32.695896 22.11702
46.440998 28.920731 25.421843
44.6675 25.12891 28.94096
44.263081 38.709877 34.284805
43.082855 32.981133 34.036331
42.666706 27.074474 33.463482
44.200832 21.528297 32.852707
44.225452 18.181366 51.252205
42.856529 22.017525 46.988487
43.617153 19.879238 42.003551
46.563881 44.16798 27.93615
47.054077 43.264755 25.951427
46.344368 41.441864 28.136124
45.945705 38.656303 28.17531
45.500362 39.588192 30.215439
40.687252 12.235186 60.729874
41.142475 14.971249 59.93045
42.462978 12.246794 59.563087
52.385651 8.304857 46.979923
50.470383 10.236261 47.567471
51.708023 9.951761 45.155411
50.740456 11.522957 43.199059
53.016884 9.796719 42.724068
55.055969 8.190758 42.112007
45.89003 2.744413 59.36924
46.538326 4.997442 58.259827
47.556931 2.820717 57.700775
50.593628 2.801825 53.727455
51.991016 2.769337 51.489021
52.554955 4.716606 50.149139
51.246685 28.554562 19.715551
36.704651 11.864759 62.117981
35.918209 8.921202 62.475563
37.587307 -0.89649 64.901535
36.075478 1.11665 64.246246
38.191406 1.573816 63.671021
38.830437 4.135094 62.720467
40.251476 1.986738 62.931618
42.231609 2.328522 61.982651
41.496048 -0.046785 63.123062
41.902702 -6.22199 64.330017
43.000832 -3.984468 62.98201
53.197411 42.113209 14.27739
48.634762 41.317398 22.081242
49.487617 42.996387 19.855288
49.849152 40.243969 20.264503
51.302597 39.084446 18.528675
50.115639 37.412338 20.46846
50.372292 34.499447 20.441961
48.831932 35.640728 22.30007
45.1637 32.878006 27.838999
46.241714 31.870934 25.780741
45.091576 29.927448 27.518105
45.417255 27.011429 27.138054
44.146236 27.986107 29.308762
43.398079 36.9384 36.327301
43.667107 35.885162 34.221466
42.849148 34.068951 36.237473
41.98217 26.302944 37.876671
42.183006 28.146427 35.782478
42.406937 25.209381 35.495293
43.143326 24.210255 33.149483
43.17099 22.404484 35.21022
47.040382 9.397299 55.82254
46.538521 14.70322 48.47187
45.697929 15.437927 50.864914
44.869659 17.303097 48.848297
43.99577 19.121784 46.709709
43.179752 20.914165 44.49868
44.525459 18.159893 44.216599
38.91291 -2.801016 65.511185
40.725513 -2.372656 64.445068
47.602875 45.034821 23.635769
47.712021 42.319275 23.984358
47.664051 39.548065 24.175926
47.55793 36.702671 24.199413
46.602646 37.701374 26.159897
45.500366 35.799255 28.068184
44.426762 33.868855 29.944267
42.208755 32.279522 38.309364
41.804947 30.504593 40.453178
41.773277 27.48304 40.275631
42.102604 24.490269 40.044384
41.453659 17.65897 58.876495
42.767342 17.312225 57.232986
49.793159 8.812092 51.6502
49.275185 10.623283 49.933594
48.456757 12.352701 48.051544
47.430187 14.024017 46.031944
46.308647 15.665207 43.912109
48.435295 13.458824 43.581261
49.599976 13.042786 41.141945
46.512276 46.854248 27.573023
46.100365 45.040459 29.879242
43.45863 7.213995 60.084526
43.861469 9.680798 59.150558
45.260551 7.271933 58.722862
46.933762 7.224375 57.101288
48.48975 7.090908 55.245544
49.120857 2.830334 55.810562
49.720158 4.906668 54.566101
49.949394 6.905991 53.190529
51.33868 6.714468 50.977112
52.684589 6.562977 48.648308
54.012024 6.488667 46.244659
55.342251 6.508017 43.799603
53.748253 31.934479 16.699427
54.250053 28.926613 16.18737
38.75795 12.09877 61.576454
40.120163 9.492043 61.373039
34.502979 3.293695 63.6633
35.170864 6.05575 62.944351
37.354927 6.440212 62.564438
39.485764 6.781269 61.99115
41.528957 7.046841 61.172867
42.900333 4.753893 60.994682
44.114368 2.582708 60.798241
45.043682 0.490168 60.498932
42.441826 -2.019705 63.178833
44.061508 -1.752045 61.69796
51.668999 43.392387 15.830882
52.342152 40.65073 16.463953
52.872635 37.826492 16.846054
52.063438 33.266865 18.587446
50.717403 31.530136 20.182882
49.370773 29.72604 21.753304
47.515602 33.785416 24.056511
47.664276 30.82642 23.761881
48.11718 27.883595 23.342209
47.044922 26.035748 24.990494
45.480705 43.2314 32.072979
44.706036 41.450798 34.18911
45.135303 40.515526 32.235664
44.580788 37.728836 32.228622
43.965302 34.865219 32.081818
43.463287 31.937126 31.832502
42.383976 31.123585 36.042267
42.692039 30.025478 33.770416
43.250546 28.983967 31.520128
43.478298 26.073994 31.181404
44.250248 23.296688 30.846075
44.073242 12.120636 58.089844
42.283432 23.861576 44.74411
42.520878 22.698425 42.262932
42.913288 21.618591 39.789413
45.213898 17.303249 41.732243
44.263325 18.961166 39.531525
43.557697 20.657177 37.34655
52.173731 1.766036 50.925979
51.510877 1.753811 52.091599
52.661158 2.767721 50.313637
52.173731 1.766036 50.925979
51.032062 26.217745 20.166201
51.641824 27.09702 19.402635
50.636923 27.675287 20.479118
34.150742 10.070929 62.562462
33.066307 9.914239 62.624874
34.825159 8.74645 62.597199
35.243792 10.245681 62.440827
34.150742 10.070929 62.562462
42.526497 -6.100007 63.394936
41.901241 -7.217982 64.031185
53.097542 44.151046 12.714947
52.611874 45.494913 12.203501
52.774536 43.467712 13.857817
53.520416 42.796543 13.134521
53.097542 44.151046 12.714947
42.830608 36.611515 38.384784
42.470253 35.780475 39.45459
43.014798 36.069316 37.365654
43.21389 37.480598 37.346431
42.830608 36.611515 38.384784
47.651989 10.30793 54.094937
46.944973 10.445875 55.095848
47.747398 9.259353 54.821629
38.574481 -3.955929 66.309254
37.962528 -3.041907 65.959545
39.42246 -3.732164 65.718799
38.574481 -3.955929 66.309254
47.307836 45.5014 24.624564
47.43819 46.378708 23.394024
47.143152 46.845287 24.382818
41.737125 31.128327 41.601219
41.922214 31.99238 40.497558
41.837061 26.580437 41.384279
41.718407 28.10355 41.470793
41.78219 27.200947 42.579442
39.657619 16.40423 60.589187
38.787611 16.40876 61.057945
51.505007 12.048703 39.745067
50.275284 12.910594 39.931477
50.829699 12.180895 40.955536
52.789007 11.280116 39.556782
51.505007 12.048703 39.745067
46.231549 47.276131 28.510111
46.329716 48.184944 27.31477
46.025593 46.369236 29.663221
46.30632 45.947353 28.726132
46.231549 47.276131 28.510111
49.386042 1.779168 55.360992
48.661373 1.766133 56.391681
54.55114 4.697169 46.553737
54.610256 5.601755 45.790229
53.952907 5.584081 47.008167
44.228506 -2.760011 61.452713
43.53117 -2.868257 62.339985
43.698168 -3.876222 62.094738
44.826008 -1.659892 60.850155
44.228506 -2.760011 61.452713
54.543447 38.617869 14.111293
54.243983 40.032844 13.847176
54.129078 37.896527 15.032201
54.543447 38.617869 14.111293
48.688999 44.87051 20.492411
48.202252 45.392872 21.44162
50.523317 43.225081 17.804026
49.851636 43.789049 18.675402
50.159298 42.432418 18.983913
51.249989 42.630419 16.971709
50.942328 43.987049 16.663199
50.523317 43.225081 17.804026
52.501694 35.564451 17.811959
53.094471 36.370576 16.887463
52.279858 37.020367 17.77055
51.875259 34.740553 18.641246
52.689872 34.090763 17.758159
52.501694 35.564451 17.811959
45.449517 24.671711 27.835286
45.824394 25.61297 26.933833
45.042378 26.070169 28.039507
45.203032 23.787325 28.758858
45.449517 24.671711 27.835286
45.175546 43.674156 32.989218
45.49754 44.560719 31.897318
44.484558 40.080337 34.236958
44.281929 40.58252 35.230474
44.060451 39.212059 35.278322
44.903423 21.136663 31.692843
44.928131 22.020858 30.689526
44.22554 22.412492 31.849391
46.902161 13.21227 51.570839
47.751796 11.99034 51.321304
44.53082 17.170345 52.207459
45.267059 15.798626 52.013813
44.961691 16.809646 51.05856
43.871418 18.593782 52.397926
44.53082 17.170345 52.207459
43.635637 19.647091 51.409508
43.871418 18.593782 52.397926
42.698986 22.571642 48.209789
43.195839 21.073446 48.082359
42.47296 23.536241 47.093304
42.698986 22.571642 48.209789
42.56998 22.93955 45.866298
42.186411 24.458267 45.971115
42.47296 23.536241 47.093304
44.72678 18.573309 38.31465
45.197789 17.775804 39.40466
44.373966 19.421315 37.222162
43.910511 19.809171 38.439037
44.72678 18.573309 38.31465
44.041016 20.241953 36.145966
44.373966 19.421315 37.222162
56.017357 6.558633 42.567938
55.930407 5.664868 43.336802
41.837103 26.296341 43.70974
41.78219 27.200947 42.579442
53.715645 9.781152 41.505358
53.236914 10.542295 40.527887
52.538153 10.557861 41.746598
54.735187 8.978172 41.199327
53.715645 9.781152 41.505358
54.036426 8.993738 42.418037
55.761051 8.233592 40.884016
54.735187 8.978172 41.199327
50.812184 1.770055 53.210815
50.122427 1.764913 54.319439
51.292322 2.785581 52.608238
50.812184 1.770055 53.210815
51.510877 1.753811 52.091599
52.943127 3.741355 49.643695
52.272986 3.742971 50.81908
52.661158 2.767721 50.313637
53.612545 3.722799 48.454964
53.224373 4.69805 48.960407
52.943127 3.741355 49.643695
54.26401 3.747676 47.245109
53.612545 3.722799 48.454964
52.194422 27.926617 18.666984
52.831372 28.78776 17.916269
51.883634 29.415705 18.964837
52.194422 27.926617 18.666984
51.641824 27.09702 19.402635
35.637012 11.71746 62.262035
36.069103 13.247565 62.116726
36.31143 10.392981 62.296772
35.637012 11.71746 62.262035
35.243792 10.245681 62.440827
36.831392 0.11008 64.573891
35.805453 -0.134342 64.903617
36.561367 -1.140912 65.231262
43.075562 -4.981246 62.720932
42.451767 -5.103229 63.656014
42.526497 -6.100007 63.394936
43.698168 -3.876222 62.094738
43.075562 -4.981246 62.720932
53.909468 41.423544 13.544681
53.520416 42.796543 13.134521
53.531925 40.72251 14.579885
54.243983 40.032844 13.847176
53.909468 41.423544 13.544681
43.62795 38.326321 36.29957
43.21389 37.480598 37.346431
43.83058 37.824139 35.306053
44.060451 39.212059 35.278322
43.62795 38.326321 36.29957
46.283382 10.629454 56.083076
45.522037 10.727772 56.977814
46.279038 9.495617 56.717277
46.283382 10.629454 56.083076
46.944973 10.445875 55.095848
44.202404 18.716233 49.012264
43.8803 19.155367 50.214218
44.547556 17.742232 50.050251
43.765459 19.625576 47.94297
44.202404 18.716233 49.012264
44.432715 18.21244 47.779003
43.42615 20.569654 46.849098
43.195839 21.073446 48.082359
43.765459 19.625576 47.94297
46.692879 15.806513 40.36435
47.835778 14.779833 40.23423
47.435646 0.666246 57.90818
46.854309 -0.411918 58.474014
50.53039 25.388799 20.93835
49.491639 25.915028 22.038271
32.640152 8.401791 62.799537
33.066307 9.914239 62.624874
37.299727 -2.089644 65.65472
36.561367 -1.140912 65.231262
38.250108 -1.848753 65.20636
37.299727 -2.089644 65.65472
37.962528 -3.041907 65.959545
40.328762 -3.517984 65.185741
39.819211 -2.586836 64.978127
39.42246 -3.732164 65.718799
40.724966 -4.473321 65.241005
41.121717 -3.327993 64.500332
40.328762 -3.517984 65.185741
41.039845 -5.413706 65.283794
40.724966 -4.473321 65.241005
41.232235 -6.383036 65.171005
41.710312 -5.25266 64.442806
41.039845 -5.413706 65.283794
41.343361 -7.352567 65.01073
41.232235 -6.383036 65.171005
41.901241 -7.217982 64.031185
41.343361 -7.352567 65.01073
51.838318 46.157507 12.945714
52.611874 45.494913 12.203501
47.800442 45.886444 22.408518
47.43819 46.378708 23.394024
48.004684 44.541249 22.668871
48.202252 45.392872 21.44162
47.800442 45.886444 22.408518
42.335499 34.3402 39.472973
42.470253 35.780475 39.45459
42.124118 32.879845 39.425652
42.420136 33.739877 38.356685
42.335499 34.3402 39.472973
42.006851 31.392057 39.381271
42.124118 32.879845 39.425652
41.922214 31.99238 40.497558
41.734241 29.614327 41.559567
41.737125 31.128327 41.601219
41.789112 28.993817 40.364404
41.734241 29.614327 41.559567
41.718407 28.10355 41.470793
40.53219 16.401381 60.056713
39.657619 16.40423 60.589187
40.267904 14.974099 60.462924
40.687782 17.745241 59.529736
40.53219 16.401381 60.056713
41.298067 16.315109 59.403472
40.88362 19.138207 58.969589
40.687782 17.745241 59.529736
41.531489 18.959551 58.197746
40.88362 19.138207 58.969589
42.18833 18.786178 57.375991
41.531489 18.959551 58.197746
42.110501 17.485598 58.05474
42.716565 18.513434 56.444744
42.18833 18.786178 57.375991
48.938335 9.937404 51.933094
48.268963 10.092063 53.018353
49.123787 8.96675 52.735459
48.679348 10.843 51.074791
48.938335 9.937404 51.933094
49.534172 9.717688 50.791897
48.347634 11.770623 50.180107
47.751796 11.99034 51.321304
48.679348 10.843 51.074791
49.009012 13.789935 40.07975
47.835778 14.779833 40.23423
48.426741 14.032684 41.296425
49.009012 13.789935 40.07975
50.275284 12.910594 39.931477
52.789007 11.280116 39.556782
53.236914 10.542295 40.527887
46.858017 47.308437 25.374186
47.143152 46.845287 24.382818
46.607756 47.751571 26.354019
46.329716 48.184944 27.31477
46.762537 46.411113 26.59319
46.858017 47.308437 25.374186
46.607756 47.751571 26.354019
47.87941 1.761324 57.336788
47.113167 1.725639 58.272167
47.435646 0.666246 57.90818
48.338894 2.825526 56.755668
47.87941 1.761324 57.336788
48.661373 1.766133 56.391681
49.857242 2.816079 54.769008
49.386042 1.779168 55.360992
50.122427 1.764913 54.319439
55.275369 5.611429 44.567701
54.677138 6.498342 45.022131
54.610256 5.601755 45.790229
55.930407 5.664868 43.336802
55.275369 5.611429 44.567701
54.55114 4.697169 46.553737
54.26401 3.747676 47.245109
54.502098 31.215063 15.732157
54.289467 32.720707 15.919466
54.752998 29.71113 15.476128
54.502098 31.215063 15.732157
53.999153 30.430546 16.443399
54.996069 28.198093 15.153083
54.752998 29.71113 15.476128
53.696106 28.112642 16.902893
53.385318 29.601731 17.200747
52.831372 28.78776 17.916269
54.572345 27.435633 15.825667
53.696106 28.112642 16.902893
54.996069 28.198093 15.153083
54.572345 27.435633 15.825667
51.032062 26.217745 20.166201
50.53039 25.388799 20.93835
38.435285 14.914406 61.354713
38.787611 16.40876 61.057945
37.090944 13.358311 61.916004
36.069103 13.247565 62.116726
38.117594 13.475317 61.64524
37.090944 13.358311 61.916004
37.731301 11.981765 61.847217
39.075642 13.537859 61.285927
38.435285 14.914406 61.354713
38.117594 13.475317 61.64524
33.352473 7.118535 62.964733
32.640152 8.401791 62.799537
35.004234 0.883358 64.48476
35.805453 -0.134342 64.903617
34.217985 1.971881 64.193287
35.004234 0.883358 64.48476
35.289229 2.205172 63.954773
33.414034 3.083808 63.836102
34.217985 1.971881 64.193287
33.737908 4.479534 63.436966
33.414034 3.083808 63.836102
34.07185 5.860561 63.077491
33.737908 4.479534 63.436966
34.836922 4.674722 63.303826
34.451487 7.313724 62.831592
33.352473 7.118535 62.964733
34.07185 5.860561 63.077491
45.317095 -0.538786 60.250641
44.552595 -0.630939 61.098446
44.826008 -1.659892 60.850155
46.129956 -0.468589 59.422955
45.856543 0.560364 59.671245
45.317095 -0.538786 60.250641
46.854309 -0.411918 58.474014
46.129956 -0.468589 59.422955
51.588287 45.449965 14.227999
51.838318 46.157507 12.945714
49.229561 44.344865 19.569069
48.688999 44.87051 20.492411
48.947056 43.522031 20.77863
49.229561 44.344865 19.569069
49.851636 43.789049 18.675402
51.246956 44.73505 15.424319
50.942328 43.987049 16.663199
52.01033 44.107301 14.634563
51.588287 45.449965 14.227999
51.246956 44.73505 15.424319
53.632176 37.143867 16.014038
54.129078 37.896527 15.032201
53.369537 38.579151 15.864216
53.632176 37.143867 16.014038
53.094471 36.370576 16.887463
53.53228 33.42457 16.81415
54.289467 32.720707 15.919466
52.905845 32.600672 17.643436
53.53228 33.42457 16.81415
52.689872 34.090763 17.758159
48.536648 26.458818 23.088033
49.491639 25.915028 22.038271
49.07217 27.339804 22.292447
48.000519 25.534895 23.912176
48.536648 26.458818 23.088033
47.581051 26.959671 24.166352
47.580086 24.668507 24.755127
48.000519 25.534895 23.912176
46.638227 25.12513 25.860053
46.231088 26.523589 26.064274
45.824394 25.61297 26.933833
47.580086 24.668507 24.755127
46.638227 25.12513 25.860053
45.807369 45.465249 30.800449
46.025593 46.369236 29.663221
45.790535 44.13593 30.97611
45.807369 45.465249 30.800449
45.49754 44.560719 31.897318
44.396532 41.92427 35.112766
44.281929 40.58252 35.230474
44.788212 42.783856 34.047283
44.396532 41.92427 35.112766
45.09337 42.341099 33.131045
45.175546 43.674156 32.989218
44.788212 42.783856 34.047283
44.994406 22.871214 29.711416
45.203032 23.787325 28.758858
44.458874 24.212799 29.893518
44.994406 22.871214 29.711416
44.928131 22.020858 30.689526
44.799812 11.991122 57.216729
44.795468 10.857285 57.850929
45.522037 10.727772 56.977814
44.075103 13.311332 57.456131
44.799812 11.991122 57.216729
43.390083 14.65798 57.675033
43.388222 13.467284 58.308746
44.075103 13.311332 57.456131
43.422154 15.907127 57.027702
42.735271 16.063078 57.880317
43.390083 14.65798 57.675033
43.323853 17.056883 56.26995
43.422154 15.907127 57.027702
42.716565 18.513434 56.444744
43.323853 17.056883 56.26995
47.651989 10.30793 54.094937
48.268963 10.092063 53.018353
46.041084 14.472252 51.789986
46.902161 13.21227 51.570839
46.559005 14.177945 50.645767
46.041084 14.472252 51.789986
45.267059 15.798626 52.013813
43.635637 19.647091 51.409508
43.8803 19.155367 50.214218
42.028396 25.388212 44.835331
42.186411 24.458267 45.971115
42.092138 24.769705 43.618519
41.837103 26.296341 43.70974
42.028396 25.388212 44.835331
45.673075 16.946846 40.505018
46.233702 16.162916 41.591574
46.692879 15.806513 40.36435
44.738612 18.132207 40.631884
45.673075 16.946846 40.505018
45.197789 17.775804 39.40466
43.847662 21.115606 35.0778
43.364344 21.530831 36.278385
44.041016 20.241953 36.145966
44.362583 20.677513 33.899044
43.685911 21.96639 34.031464
43.847662 21.115606 35.0778
45.023523 20.32208 32.718384
44.362583 20.677513 33.899044
44.903423 21.136663 31.692843
45.023523 20.32208 32.718384
55.874216 7.400004 41.72414
55.19911 7.349388 42.955805
56.017357 6.558633 42.567938
55.761051 8.233592 40.884016
55.874216 7.400004 41.72414
3 1 54 52
3 1 56 54
3 0 59 57
3 2 62 60
3 2 64 62
3 2 65 64
3 3 68 66
3 190 70 191
3 193 192 70
3 5 194 196
3 196 195 72
3 194 195 196
3 6 197 198
3 6 199 201
3 199 74 200
3 199 200 201
3 7 77 75
3 7 79 77
3 7 81 79
3 203 202 82
3 8 204 205
3 8 206 208
3 206 84 207
3 206 207 208
3 9 87 85
3 9 89 87
3 9 91 89
3 10 94 92
3 10 96 94
3 11 209 210
3 11 211 213
3 211 97 212
3 211 212 213
3 11 99 97
3 12 102 100
3 12 104 102
3 4 214 216
3 216 215 105
3 214 215 216
3 13 108 106
3 13 109 108
3 13 111 109
3 217 112 218
3 220 219 112
3 15 221 223
3 221 114 222
3 221 222 223
3 17 115 53
3 17 116 115
3 17 118 116
3 19 119 55
3 19 120 119
3 224 122 225
3 21 226 228
3 226 123 227
3 226 227 228
3 21 124 123
3 22 229 230
3 23 125 58
3 23 126 125
3 24 128 127
3 26 129 61
3 26 130 129
3 26 132 130
3 28 133 63
3 28 231 233
3 233 232 133
3 231 232 233
3 28 234 235
3 236 134 237
3 238 135 239
3 240 239 134
3 238 239 240
3 29 138 136
3 31 139 67
3 31 140 139
3 241 141 242
3 32 142 69
3 32 143 142
3 32 144 143
3 33 145 71
3 33 146 145
3 33 243 245
3 245 244 146
3 243 244 245
3 34 149 148
3 35 150 73
3 35 151 150
3 36 152 76
3 36 153 152
3 36 154 153
3 37 155 78
3 37 156 155
3 37 157 156
3 38 158 80
3 38 159 158
3 14 160 113
3 246 161 247
3 248 247 83
3 246 247 248
3 250 249 161
3 39 251 252
3 39 253 254
3 16 255 256
3 40 257 259
3 259 258 86
3 257 258 259
3 40 260 262
3 260 162 261
3 260 261 262
3 40 163 162
3 41 164 88
3 41 263 265
3 265 264 164
3 263 264 265
3 41 266 268
3 266 165 267
3 266 267 268
3 42 166 90
3 42 167 166
3 18 168 117
3 43 169 93
3 43 170 169
3 43 171 170
3 44 269 271
3 271 270 95
3 269 270 271
3 44 272 273
3 274 172 275
3 45 276 278
3 276 173 277
3 276 277 278
3 45 174 173
3 45 175 174
3 46 176 98
3 46 177 176
3 20 178 121
3 47 179 101
3 47 180 179
3 47 181 180
3 48 182 103
3 48 279 281
3 281 280 182
3 279 280 281
3 30 183 137
3 25 282 283
3 49 284 286
3 286 285 107
3 284 285 286
3 49 287 288
3 49 289 290
3 50 291 292
3 50 293 294
3 50 295 297
3 295 184 296
3 295 296 297
3 51 185 110
3 51 186 185
3 27 187 131
3 298 188 299
3 300 189 301
3 302 301 188
3 300 301 302
3 304 303 189
3 306 305 147
3 52 53 15
3 54 53 52
3 54 17 53
3 54 55 17
3 56 55 54
3 56 19 55
3 307 21 308
3 57 58 22
3 59 58 57
3 59 23 58
3 60 61 24
3 62 61 60
3 62 26 61
3 62 63 26
3 64 63 62
3 64 28 63
3 64 309 311
3 311 310 28
3 309 310 311
3 65 312 314
3 314 313 64
3 312 313 314
3 65 315 316
3 66 67 29
3 68 67 66
3 68 31 67
3 317 69 318
3 70 319 321
3 319 69 320
3 319 320 321
3 70 32 69
3 70 71 32
3 322 71 323
3 324 323 70
3 322 323 324
3 325 33 326
3 327 326 71
3 325 326 327
3 329 328 33
3 72 330 332
3 332 331 34
3 330 331 332
3 334 333 72
3 335 73 336
3 74 337 339
3 337 73 338
3 337 338 339
3 74 35 73
3 75 340 342
3 340 76 341
3 340 341 342
3 77 76 75
3 77 36 76
3 77 78 36
3 79 78 77
3 79 37 78
3 79 80 37
3 81 80 79
3 81 38 80
3 82 83 14
3 343 83 344
3 345 344 82
3 343 344 345
3 347 346 83
3 84 348 349
3 84 350 352
3 350 39 351
3 350 351 352
3 85 86 16
3 87 86 85
3 87 40 86
3 87 88 40
3 89 88 87
3 89 41 88
3 89 90 41
3 91 90 89
3 91 42 90
3 92 93 18
3 94 93 92
3 94 43 93
3 94 95 43
3 96 95 94
3 96 44 95
3 97 353 354
3 97 355 357
3 355 45 356
3 355 356 357
3 97 98 45
3 99 98 97
3 99 46 98
3 100 101 20
3 102 101 100
3 102 47 101
3 102 103 47
3 104 103 102
3 104 48 103
3 105 358 360
3 360 359 30
3 358 359 360
3 362 361 105
3 106 107 25
3 108 107 106
3 108 49 107
3 108 363 365
3 365 364 49
3 363 364 365
3 109 366 368
3 368 367 108
3 366 367 368
3 109 369 371
3 369 50 370
3 369 370 371
3 109 110 50
3 111 110 109
3 111 51 110
3 373 372 27
3 375 374 3
3 377 376 5
3 378 6 379
3 380 75 381
3 112 382 384
3 382 75 383
3 382 383 384
3 112 7 75
3 112 113 7
3 385 113 386
3 387 386 112
3 385 386 387
3 388 14 389
3 390 389 113
3 388 389 390
3 391 14 392
3 393 82 394
3 395 394 14
3 393 394 395
3 396 82 397
3 399 398 82
3 400 8 401
3 114 402 403
3 114 404 406
3 404 16 405
3 404 405 406
3 53 114 15
3 115 114 53
3 115 16 114
3 115 85 16
3 116 85 115
3 116 9 85
3 116 117 9
3 118 117 116
3 118 18 117
3 55 118 17
3 119 118 55
3 119 18 118
3 119 92 18
3 120 92 119
3 120 10 92
3 407 11 408
3 409 121 410
3 411 410 11
3 409 410 411
3 122 412 414
3 412 121 413
3 412 413 414
3 122 20 121
3 415 122 416
3 123 417 419
3 417 122 418
3 417 418 419
3 123 20 122
3 123 100 20
3 124 100 123
3 124 12 100
3 58 420 422
3 422 421 22
3 420 421 422
3 125 423 425
3 425 424 58
3 423 424 425
3 125 426 427
3 125 428 429
3 126 430 432
3 432 431 125
3 430 431 432
3 126 433 434
3 127 435 437
3 437 436 4
3 435 436 437
3 128 438 440
3 440 439 127
3 438 439 440
3 128 441 443
3 441 25 442
3 441 442 443
3 61 128 24
3 129 128 61
3 129 25 128
3 129 106 25
3 130 106 129
3 130 13 106
3 130 131 13
3 132 131 130
3 132 27 131
3 63 132 26
3 133 132 63
3 133 27 132
3 133 444 446
3 446 445 27
3 444 445 446
3 448 447 133
3 450 449 28
3 451 15 452
3 134 453 454
3 134 455 457
3 455 15 456
3 455 456 457
3 134 52 15
3 135 52 134
3 135 1 52
3 136 137 0
3 138 137 136
3 138 30 137
3 67 138 29
3 139 138 67
3 139 30 138
3 139 105 30
3 140 105 139
3 140 4 105
3 458 68 459
3 460 459 3
3 458 459 460
3 141 461 463
3 461 68 462
3 461 462 463
3 141 31 68
3 69 464 466
3 464 141 465
3 464 465 466
3 142 141 69
3 142 31 141
3 142 140 31
3 143 140 142
3 143 4 140
3 143 127 4
3 144 127 143
3 144 24 127
3 71 144 32
3 145 144 71
3 145 24 144
3 145 60 24
3 146 60 145
3 146 2 60
3 146 147 2
3 467 147 468
3 469 468 146
3 467 468 469
3 471 470 147
3 473 472 33
3 148 474 475
3 149 476 478
3 478 477 148
3 476 477 478
3 149 479 480
3 481 149 482
3 483 482 34
3 481 482 483
3 484 149 485
3 487 486 149
3 489 488 5
3 490 22 491
3 73 492 493
3 150 494 496
3 496 495 73
3 494 495 496
3 150 497 499
3 497 22 498
3 497 498 499
3 150 57 22
3 151 57 150
3 151 0 57
3 500 6 501
3 76 502 503
3 152 504 506
3 506 505 76
3 504 505 506
3 152 507 508
3 152 509 510
3 153 511 513
3 513 512 152
3 511 512 513
3 153 514 516
3 514 6 515
3 514 515 516
3 153 74 6
3 154 74 153
3 154 35 74
3 78 154 36
3 155 154 78
3 155 35 154
3 155 151 35
3 156 151 155
3 156 0 151
3 156 136 0
3 157 136 156
3 157 29 136
3 80 157 37
3 158 157 80
3 158 29 157
3 158 66 29
3 159 66 158
3 159 3 66
3 113 81 7
3 160 81 113
3 160 38 81
3 83 160 14
3 161 160 83
3 161 38 160
3 161 159 38
3 517 159 518
3 519 518 161
3 517 518 519
3 520 3 521
3 522 521 159
3 520 521 522
3 524 523 3
3 525 8 526
3 86 527 529
3 529 528 16
3 527 528 529
3 531 530 86
3 162 532 533
3 162 534 536
3 534 8 535
3 534 535 536
3 162 84 8
3 163 84 162
3 163 39 84
3 88 163 40
3 164 163 88
3 164 39 163
3 164 537 539
3 539 538 39
3 537 538 539
3 541 540 164
3 542 148 543
3 165 544 546
3 544 148 545
3 544 545 546
3 165 34 148
3 90 165 41
3 166 165 90
3 166 34 165
3 166 72 34
3 167 72 166
3 167 5 72
3 117 91 9
3 168 91 117
3 168 42 91
3 93 168 18
3 169 168 93
3 169 42 168
3 169 167 42
3 170 167 169
3 170 5 167
3 170 547 549
3 549 548 5
3 547 548 549
3 171 550 552
3 552 551 170
3 550 551 552
3 171 553 554
3 95 171 43
3 555 171 556
3 557 556 95
3 555 556 557
3 559 558 171
3 560 135 561
3 172 562 564
3 562 135 563
3 562 563 564
3 172 1 135
3 173 565 566
3 173 567 568
3 173 569 571
3 569 172 570
3 569 570 571
3 174 172 173
3 174 1 172
3 174 56 1
3 175 56 174
3 175 19 56
3 98 175 45
3 176 175 98
3 176 19 175
3 176 120 19
3 177 120 176
3 177 10 120
3 121 99 11
3 178 99 121
3 178 46 99
3 101 178 20
3 179 178 101
3 179 46 178
3 179 177 46
3 180 177 179
3 180 10 177
3 180 96 10
3 181 96 180
3 181 44 96
3 103 181 47
3 182 181 103
3 182 44 181
3 182 572 574
3 574 573 44
3 572 573 574
3 576 575 182
3 137 59 0
3 183 59 137
3 183 23 59
3 577 183 578
3 579 578 30
3 577 578 579
3 580 183 581
3 582 23 583
3 584 583 183
3 582 583 584
3 585 126 586
3 587 586 23
3 585 586 587
3 588 126 589
3 591 590 126
3 593 592 4
3 107 594 596
3 596 595 25
3 594 595 596
3 598 597 107
3 600 599 49
3 184 601 602
3 184 603 605
3 603 21 604
3 603 604 605
3 110 184 50
3 185 184 110
3 185 21 184
3 185 124 21
3 186 124 185
3 186 12 124
3 131 111 13
3 187 111 131
3 187 51 111
3 606 187 607
3 608 607 27
3 606 607 608
3 188 609 611
3 609 187 610
3 609 610 611
3 188 51 187
3 188 186 51
3 189 186 188
3 189 12 186
3 189 104 12
3 612 104 613
3 614 613 189
3 612 613 614
3 615 48 616
3 617 616 104
3 615 616 617
3 618 48 619
3 621 620 48
3 147 65 2
3 622 65 623
3 624 623 147
3 622 623 624
3 626 625 65
