ply
format ascii 1.0
element vertex 114
property float x
property float y
property float z
element face 88
property list uchar int vertex_index
end_header
-35.858448 -26.456223 -40.717564
-33.657696 -15.549621 -46.753582
-35.077045 -21.382637 -43.365688
-35.775192 -16.592915 -46.358681
-36.360493 -19.63728 -44.551407
-34.419594 -18.471901 -45.023014
-39.366699 -26.866619 -41.349922
-32.386112 -17.706635 -45.256191
-33.206879 -20.54871 -43.641304
-35.5751 -24.159723 -41.87302
-34.631226 -26.02676 -40.732574
-36.880219 -25.549503 -41.374252
-38.780701 -30.352577 -39.758457
-37.928497 -27.675282 -40.618126
-36.615051 -28.327284 -39.99313
-34.716444 -16.071268 -46.556131
-35.415619 -15.090843 -47.289721
-34.356871 -14.569195 -47.487171
-31.824932 -18.87064 -44.474702
-31.392351 -17.488132 -45.239486
-32.235315 -20.291677 -43.667259
-32.796495 -19.127672 -44.448747
-31.824932 -18.87064 -44.474702
-33.820208 -25.822592 -40.710243
-34.297478 -24.690539 -41.41861
-33.48646 -24.486371 -41.396278
-35.914526 -22.0195 -43.119185
-36.55625 -21.146822 -43.712044
-35.718769 -20.509958 -43.958547
-35.326072 -22.77118 -42.619354
-36.163553 -23.408043 -42.37285
-35.914526 -22.0195 -43.119185
-39.551287 -30.029853 -40.111971
-39.103465 -31.893067 -39.317242
-38.054599 -26.080152 -41.398499
-38.647598 -27.27095 -40.984024
-38.7737 -25.675821 -41.764397
-37.53046 -25.017263 -41.776561
-37.404358 -26.612392 -40.996189
-38.054599 -26.080152 -41.398499
-36.986156 -29.607994 -39.552139
-36.300552 -29.766386 -39.27191
-36.512591 -15.756278 -47.024423
-35.415619 -15.090843 -47.289721
-36.78235 -17.332271 -46.044727
-36.512591 -15.756278 -47.024423
-36.067842 -18.115098 -45.455044
-37.075001 -18.854453 -45.14109
-36.78235 -17.332271 -46.044727
-40.153684 -26.450258 -41.75288
-39.844286 -28.286874 -40.907703
-39.507591 -25.142807 -42.203952
-40.153684 -26.450258 -41.75288
-38.7737 -25.675821 -41.764397
-39.507591 -25.142807 -42.203952
-33.251903 -14.110938 -47.615524
-34.356871 -14.569195 -47.487171
-32.60369 -15.219385 -46.81336
-33.251903 -14.110938 -47.615524
-31.967898 -16.297891 -46.064664
-31.392351 -17.488132 -45.239486
-33.021904 -16.628128 -46.004886
-32.60369 -15.219385 -46.81336
-31.967898 -16.297891 -46.064664
-32.677853 -21.688423 -42.900793
-32.235315 -20.291677 -43.667259
-31.706289 -21.43139 -42.926748
-33.585304 -21.951515 -42.872974
-32.677853 -21.688423 -42.900793
-33.056278 -23.091227 -42.132464
-34.520387 -22.368478 -42.735166
-34.141962 -20.965674 -43.503496
-33.585304 -21.951515 -42.872974
-34.769415 -23.757021 -41.988833
-35.326072 -22.77118 -42.619354
-34.520387 -22.368478 -42.735166
-35.103163 -25.093241 -41.302797
-34.769415 -23.757021 -41.988833
-34.297478 -24.690539 -41.41861
-37.239178 -20.456531 -44.214903
-37.075001 -18.854453 -45.14109
-37.239178 -20.456531 -44.214903
-36.55625 -21.146822 -43.712044
-36.816113 -24.102933 -42.123466
-37.53046 -25.017263 -41.776561
-36.22766 -24.854613 -41.623636
-36.816113 -24.102933 -42.123466
-36.163553 -23.408043 -42.37285
-38.357687 -32.119461 -38.979154
-38.68045 -33.659951 -38.537939
-39.103465 -31.893067 -39.317242
-38.068981 -30.620641 -39.434803
-38.357687 -32.119461 -38.979154
-39.0737 -28.609598 -40.554189
-39.551287 -30.029853 -40.111971
-39.844286 -28.286874 -40.907703
-37.642879 -29.281993 -39.864638
-38.068981 -30.620641 -39.434803
-38.354599 -29.013929 -40.188291
-37.271774 -28.001283 -40.305628
-36.986156 -29.607994 -39.552139
-37.642879 -29.281993 -39.864638
-35.95862 -28.44175 -39.785951
-36.300552 -29.766386 -39.27191
-36.23675 -27.391754 -40.355347
-35.580319 -27.506219 -40.148168
-35.95862 -28.44175 -39.785951
-34.226616 -27.213909 -40.030345
-33.820208 -25.822592 -40.710243
-34.966707 -27.291488 -40.155673
-34.226616 -27.213909 -40.030345
-35.580319 -27.506219 -40.148168
-35.244837 -26.241492 -40.725069
-34.966707 -27.291488 -40.155673
3 1 15 17
3 15 3 16
3 15 16 17
3 1 5 3
3 18 7 19
3 20 8 21
3 22 21 7
3 20 21 22
3 23 10 24
3 23 24 25
3 2 26 28
3 28 27 4
3 26 27 28
3 2 29 31
3 29 9 30
3 29 30 31
3 32 12 33
3 34 13 35
3 36 35 6
3 34 35 36
3 37 11 38
3 39 38 13
3 37 38 39
3 40 14 41
3 3 42 43
3 3 44 45
3 3 46 48
3 46 4 47
3 46 47 48
3 5 4 3
3 5 2 4
3 49 6 50
3 51 6 52
3 54 53 6
3 55 1 56
3 57 1 58
3 7 59 60
3 7 61 63
3 61 1 62
3 61 62 63
3 7 5 1
3 8 5 7
3 8 2 5
3 64 8 65
3 64 65 66
3 67 8 68
3 67 68 69
3 70 2 71
3 72 71 8
3 70 71 72
3 73 9 74
3 75 74 2
3 73 74 75
3 10 76 78
3 76 9 77
3 76 77 78
3 10 0 9
3 4 79 80
3 82 81 4
3 83 11 84
3 9 85 87
3 85 11 86
3 85 86 87
3 9 0 11
3 12 88 90
3 88 89 90
3 12 91 92
3 6 93 95
3 93 12 94
3 93 94 95
3 13 12 6
3 13 96 98
3 98 97 12
3 96 97 98
3 13 99 101
3 99 14 100
3 99 100 101
3 11 14 13
3 11 0 14
3 14 102 103
3 14 104 106
3 104 0 105
3 104 105 106
3 107 10 108
3 109 10 110
3 111 0 112
3 113 112 10
3 111 112 113
