ply
format ascii 1.0
element vertex 250
property float x
property float y
property float z
element face 262
property list uchar int vertex_index
end_header
66.567352 -42.63744 30.611313
64.633827 -54.137817 35.451302
69.885635 -46.011452 21.698719
67.418236 -41.001617 40.831326
65.543945 -47.186951 43.843513
68.462013 -47.725018 33.028332
66.007637 -42.470764 25.234264
68.628181 -44.670998 26.266201
66.661713 -39.7187 45.150414
65.408424 -50.937737 39.73238
67.288925 -47.655273 38.712418
66.899506 -50.802261 34.203537
68.012352 -50.15097 28.486351
67.213112 -42.071178 35.866119
65.26059 -42.95974 46.944298
67.107109 -43.927689 42.664188
68.077927 -44.6866 37.457523
68.461357 -45.012093 31.885984
69.266617 -47.220284 27.287159
68.846275 -48.88987 22.920496
65.029541 -41.520329 29.86235
66.250504 -42.65593 27.932308
67.540665 -43.535835 25.764463
67.62439 -43.762642 28.523777
66.398087 -37.504284 45.678871
65.828697 -39.068138 46.912815
65.117126 -52.608929 37.57122
66.210106 -50.928032 37.025192
65.798538 -52.446804 34.820141
66.387009 -52.157909 32.002335
65.166565 -53.821903 32.699394
69.648674 -44.718597 21.187151
67.130577 -38.957787 41.869316
67.027351 -39.662712 39.665604
66.685371 -40.307762 37.330692
67.406731 -41.581264 38.402138
64.491226 -48.900688 44.206299
64.403229 -46.841713 45.982742
64.226929 -44.677998 47.458591
65.444351 -45.124802 45.57502
66.304138 -43.460434 44.960857
66.447281 -45.521988 43.333298
67.934532 -47.750687 35.901333
67.868835 -46.125244 38.119354
68.340134 -46.287766 35.313377
68.319954 -44.919678 34.691483
68.696579 -46.320518 32.460968
68.974548 -46.196892 29.603247
68.897636 -47.554882 30.145912
68.460678 -49.600471 25.674812
67.521362 -43.09848 23.009338
68.729019 -44.204559 23.479202
69.426788 -45.40509 23.957592
66.932777 -38.22908 43.892136
67.184837 -40.370056 43.101704
65.540413 -49.128246 41.857506
66.499725 -47.461445 41.389122
66.432076 -49.265511 39.247372
67.187332 -49.30228 36.469528
67.827431 -49.222767 33.606277
68.37233 -49.008438 30.721064
67.495384 -50.547775 31.339905
66.898918 -51.733585 29.177679
65.605309 -41.268764 32.408051
66.18338 -40.854805 34.902863
66.909363 -42.434044 33.260979
65.006577 -40.716835 47.874054
66.092789 -41.299271 46.173016
66.903015 -41.870934 44.135262
67.445335 -42.41954 41.830883
67.247917 -45.861477 40.818634
67.687706 -44.345234 40.136784
67.749092 -42.920345 39.334488
67.860657 -43.339684 36.712219
67.837036 -43.641197 34.015129
67.739113 -43.791267 31.278351
68.549881 -44.936024 29.071657
69.208435 -45.896118 26.764694
69.590721 -46.707703 24.469311
68.839859 -48.641777 27.856564
69.244919 -48.10968 25.036854
69.598099 -47.405785 22.271786
65.261421 -38.746299 47.624876
65.675869 -37.932867 47.046425
64.875476 -53.373373 36.511261
64.55981 -53.467055 37.841003
64.318161 -54.231499 36.781044
70.022152 -45.572356 20.337466
69.903672 -44.925928 20.081682
69.767155 -45.365025 21.442935
69.894913 -46.271372 20.630474
70.03143 -45.832276 19.26922
70.022152 -45.572356 20.337466
65.066391 -41.958839 24.946174
65.264209 -42.028425 26.25517
65.938622 -42.269577 23.8806
65.066391 -41.958839 24.946174
66.764499 -42.784622 24.121801
66.695484 -42.583435 22.768137
65.938622 -42.269577 23.8806
64.940399 -50.8891 40.984515
64.864414 -51.794405 39.954735
65.474418 -50.032991 40.794943
65.006394 -49.984354 42.047078
64.940399 -50.8891 40.984515
66.261089 -52.553753 29.548962
66.642964 -51.945747 30.590007
66.005134 -52.765914 30.961289
66.458622 -52.261656 28.168784
66.261089 -52.553753 29.548962
65.233265 -40.461946 33.109917
64.817242 -40.688949 31.925559
64.617916 -42.694832 47.744137
64.101086 -43.553961 48.001283
64.743759 -43.818869 47.201445
65.133583 -41.838287 47.409176
64.49091 -41.57338 48.209015
64.617916 -42.694832 47.744137
69.008328 -48.454716 21.573586
69.38424 -47.712674 21.24923
69.222187 -48.147828 22.596141
64.775161 -41.553207 28.569214
64.133938 -40.962255 29.440444
65.385643 -42.121008 27.604192
64.775161 -41.553207 28.569214
65.640023 -42.088129 28.897329
66.129071 -42.563347 26.583286
65.264209 -42.028425 26.25517
65.385643 -42.121008 27.604192
65.960564 -37.15094 46.429453
66.258645 -36.381352 45.714115
66.113392 -38.286211 46.295843
65.960564 -37.15094 46.429453
65.675869 -37.932867 47.046425
64.718765 -52.630001 38.874155
64.55981 -53.467055 37.841003
65.262775 -51.773333 38.6518
64.864414 -51.794405 39.954735
64.718765 -52.630001 38.874155
65.394913 -53.597911 31.309819
66.005134 -52.765914 30.961289
65.776787 -52.989906 32.350865
69.76503 -44.278359 19.82187
69.260246 -44.124975 20.95207
69.76503 -44.278359 19.82187
69.903672 -44.925928 20.081682
66.946514 -38.287686 41.160068
67.018711 -37.891648 42.14476
66.894901 -38.640148 40.058212
66.946514 -38.287686 41.160068
67.078964 -39.310249 40.76746
66.6731 -39.019802 39.001238
66.894901 -38.640148 40.058212
66.856361 -39.985237 38.498148
66.50211 -39.342327 37.833782
66.6731 -39.019802 39.001238
63.878788 -48.743605 45.204258
63.935097 -49.7706 44.325071
63.834789 -47.714117 46.092479
63.878788 -48.743605 45.204258
64.447227 -47.871201 45.094521
63.735138 -46.6346 46.853878
63.834789 -47.714117 46.092479
64.315079 -45.759856 46.720667
63.646988 -45.552742 47.591803
63.735138 -46.6346 46.853878
67.902439 -50.38301 26.030317
68.236515 -49.87572 27.080582
67.678276 -50.65826 27.436087
68.093727 -50.024479 24.661544
67.902439 -50.38301 26.030317
68.286526 -49.669178 23.284385
68.653477 -49.245171 24.297654
68.093727 -50.024479 24.661544
68.445736 -49.236123 21.946485
68.286526 -49.669178 23.284385
67.552394 -42.771114 21.638481
66.695484 -42.583435 22.768137
68.19659 -43.314917 21.863163
67.552394 -42.771114 21.638481
68.800419 -43.867956 22.098095
68.19659 -43.314917 21.863163
68.125191 -43.65152 23.24427
69.188846 -44.461578 22.333177
69.260246 -44.124975 20.95207
68.800419 -43.867956 22.098095
66.548374 -36.768179 44.93985
66.258645 -36.381352 45.714115
66.81572 -37.130577 44.046482
66.548374 -36.768179 44.93985
66.665432 -37.866682 44.785504
66.919811 -37.527294 43.15617
66.81572 -37.130577 44.046482
67.031677 -38.593434 42.880726
67.018711 -37.891648 42.14476
66.919811 -37.527294 43.15617
64.4818 -49.870575 43.221474
63.935097 -49.7706 44.325071
65.015819 -49.014467 43.031903
64.4818 -49.870575 43.221474
65.006394 -49.984354 42.047078
67.121559 -51.449568 27.781751
67.678276 -50.65826 27.436087
67.455635 -50.942278 28.832015
67.121559 -51.449568 27.781751
66.458622 -52.261656 28.168784
64.059333 -54.997742 35.771842
64.318161 -54.231499 36.781044
64.282486 -54.830564 34.434742
64.059333 -54.997742 35.771842
64.529358 -40.814732 30.652708
64.133938 -40.962255 29.440444
65.317425 -41.394546 31.1352
64.529358 -40.814732 30.652708
64.817242 -40.688949 31.925559
66.17004 -39.687694 36.722921
66.50211 -39.342327 37.833782
65.919044 -39.961216 35.509006
66.17004 -39.687694 36.722921
66.434376 -40.581283 36.116777
65.522301 -40.254966 34.357323
65.919044 -39.961216 35.509006
65.894345 -41.061785 33.655457
65.233265 -40.461946 33.109917
65.522301 -40.254966 34.357323
63.511475 -44.428957 48.188852
63.646988 -45.552742 47.591803
63.511475 -44.428957 48.188852
64.101086 -43.553961 48.001283
64.332958 -40.419548 48.531391
64.49091 -41.57338 48.209015
64.850361 -39.570648 48.105496
64.332958 -40.419548 48.531391
65.417637 -39.892487 47.393434
65.261421 -38.746299 47.624876
64.850361 -39.570648 48.105496
69.751145 -46.968539 20.917007
69.894913 -46.271372 20.630474
69.741867 -46.708619 21.985253
69.751145 -46.968539 20.917007
69.38424 -47.712674 21.24923
69.008328 -48.454716 21.573586
68.445736 -49.236123 21.946485
64.548855 -54.672607 33.058788
64.900196 -53.97986 34.075348
64.282486 -54.830564 34.434742
64.731167 -54.439504 31.697878
64.548855 -54.672607 33.058788
65.394913 -53.597911 31.309819
64.731167 -54.439504 31.697878
3 0 21 20
3 0 23 21
3 82 25 83
3 1 84 86
3 84 26 85
3 84 85 86
3 1 28 26
3 1 30 28
3 2 87 89
3 89 88 31
3 87 88 89
3 2 90 92
3 90 91 92
3 3 33 32
3 3 35 33
3 4 37 36
3 4 39 37
3 4 41 39
3 5 44 42
3 5 46 44
3 5 48 46
3 6 93 94
3 6 95 96
3 6 97 99
3 97 50 98
3 97 98 99
3 7 51 22
3 7 52 51
3 8 53 24
3 8 54 53
3 9 100 101
3 9 102 104
3 102 55 103
3 102 103 104
3 9 57 55
3 11 58 27
3 11 59 58
3 11 61 59
3 105 62 106
3 107 106 29
3 105 106 107
3 109 108 62
3 110 63 111
3 13 64 34
3 13 65 64
3 14 112 114
3 114 113 38
3 112 113 114
3 14 115 117
3 115 66 116
3 115 116 117
3 14 67 66
3 15 68 40
3 15 69 68
3 10 70 56
3 16 71 43
3 16 72 71
3 16 73 72
3 17 74 45
3 17 75 74
3 17 76 75
3 18 77 47
3 18 78 77
3 12 79 60
3 19 80 49
3 19 81 80
3 19 118 120
3 120 119 81
3 118 119 120
3 20 121 122
3 21 123 125
3 125 124 20
3 123 124 125
3 21 126 128
3 126 6 127
3 126 127 128
3 21 22 6
3 23 22 21
3 23 7 22
3 129 24 130
3 25 131 133
3 131 24 132
3 131 132 133
3 25 8 24
3 26 134 135
3 26 136 138
3 136 9 137
3 136 137 138
3 26 27 9
3 28 27 26
3 28 11 27
3 28 29 11
3 30 29 28
3 30 139 141
3 141 140 29
3 139 140 141
3 31 142 143
3 145 144 31
3 32 146 147
3 33 148 150
3 150 149 32
3 148 149 150
3 33 151 152
3 33 153 155
3 153 34 154
3 153 154 155
3 35 34 33
3 35 13 34
3 36 156 157
3 37 158 160
3 160 159 36
3 158 159 160
3 37 161 162
3 37 163 165
3 163 38 164
3 163 164 165
3 39 38 37
3 39 14 38
3 39 40 14
3 41 40 39
3 41 15 40
3 42 43 10
3 44 43 42
3 44 16 43
3 44 45 16
3 46 45 44
3 46 17 45
3 46 47 17
3 48 47 46
3 48 18 47
3 166 49 167
3 168 167 12
3 166 167 168
3 169 49 170
3 171 19 172
3 173 172 49
3 171 172 173
3 175 174 19
3 50 176 177
3 50 178 179
3 22 50 6
3 51 50 22
3 51 180 182
3 182 181 50
3 180 181 182
3 51 183 185
3 183 31 184
3 183 184 185
3 52 31 51
3 52 2 31
3 24 186 187
3 53 188 190
3 190 189 24
3 188 189 190
3 53 191 192
3 53 193 195
3 193 32 194
3 193 194 195
3 54 32 53
3 54 3 32
3 196 36 197
3 55 198 200
3 198 36 199
3 198 199 200
3 55 4 36
3 55 56 4
3 57 56 55
3 57 10 56
3 27 57 9
3 58 57 27
3 58 10 57
3 58 42 10
3 59 42 58
3 59 5 42
3 59 60 5
3 61 60 59
3 61 12 60
3 29 61 11
3 62 61 29
3 62 12 61
3 62 201 203
3 203 202 12
3 201 202 203
3 205 204 62
3 206 1 207
3 209 208 1
3 210 20 211
3 63 212 214
3 212 20 213
3 212 213 214
3 63 0 20
3 34 215 216
3 64 217 219
3 219 218 34
3 217 218 219
3 64 220 221
3 64 222 224
3 222 63 223
3 222 223 224
3 65 63 64
3 65 0 63
3 38 225 226
3 228 227 38
3 66 229 230
3 66 231 232
3 66 233 235
3 233 25 234
3 233 234 235
3 67 25 66
3 67 8 25
3 40 67 14
3 68 67 40
3 68 8 67
3 68 54 8
3 69 54 68
3 69 3 54
3 56 41 4
3 70 41 56
3 70 15 41
3 43 70 10
3 71 70 43
3 71 15 70
3 71 69 15
3 72 69 71
3 72 3 69
3 72 35 3
3 73 35 72
3 73 13 35
3 45 73 16
3 74 73 45
3 74 13 73
3 74 65 13
3 75 65 74
3 75 0 65
3 75 23 0
3 76 23 75
3 76 7 23
3 47 76 17
3 77 76 47
3 77 7 76
3 77 52 7
3 78 52 77
3 78 2 52
3 60 48 5
3 79 48 60
3 79 18 48
3 49 79 12
3 80 79 49
3 80 18 79
3 80 78 18
3 81 78 80
3 81 2 78
3 81 236 238
3 238 237 2
3 236 237 238
3 240 239 81
3 242 241 19
3 243 30 244
3 245 244 1
3 243 244 245
3 246 30 247
3 249 248 30
