ply
format ascii 1.0
element vertex 76
property float x
property float y
property float z
element face 59
property list uchar int vertex_index
end_header
46.999191 -3.534005 57.125214
49.651226 0.728001 54.911423
44.395504 -3.767977 61.207466
43.150291 -5.978024 62.459854
44.334953 -5.806241 60.419533
47.039215 -1.454397 58.104469
48.201889 0.701931 56.972801
48.420746 -1.391022 56.028175
45.590508 -1.567739 60.00235
45.721375 -3.624012 59.246643
45.488346 -5.691167 58.238075
42.525036 -7.095999 63.096103
42.526497 -6.100007 63.394936
41.901241 -7.217982 64.031185
42.42506 -8.112849 62.675594
43.050315 -6.994874 62.039344
42.525036 -7.095999 63.096103
49.386042 1.779168 55.360992
48.661373 1.766133 56.391681
48.926558 0.714966 55.942112
44.228506 -2.760011 61.452713
43.698168 -3.876222 62.094738
44.993006 -2.667858 60.604908
44.826008 -1.659892 60.850155
44.228506 -2.760011 61.452713
44.733923 -6.778317 58.810608
44.911649 -5.748704 59.328804
44.157227 -6.835854 59.901337
45.258051 -6.723974 57.651936
44.733923 -6.778317 58.810608
47.623993 -3.503722 56.001617
46.819281 -4.5723 56.539135
50.812184 1.770055 53.210815
50.122427 1.764913 54.319439
50.340982 0.733143 53.802799
43.075562 -4.981246 62.720932
42.526497 -6.100007 63.394936
43.772897 -4.873 61.83366
43.698168 -3.876222 62.094738
43.075562 -4.981246 62.720932
43.642646 -6.908982 61.019184
43.742622 -5.892132 61.439694
43.050315 -6.994874 62.039344
44.157227 -6.835854 59.901337
43.642646 -6.908982 61.019184
47.620552 -0.376233 57.538635
47.435646 0.666246 57.90818
46.854309 -0.411918 58.474014
48.334771 -2.43223 55.453098
47.709969 -2.462514 56.576695
47.623993 -3.503722 56.001617
49.085235 -1.37109 54.917694
48.334771 -2.43223 55.453098
49.700475 -0.311579 54.359318
49.035986 -0.33151 55.469799
49.085235 -1.37109 54.917694
50.340982 0.733143 53.802799
49.700475 -0.311579 54.359318
47.87941 1.761324 57.336788
47.435646 0.666246 57.90818
47.87941 1.761324 57.336788
48.661373 1.766133 56.391681
49.386042 1.779168 55.360992
50.122427 1.764913 54.319439
45.317095 -0.538786 60.250641
44.826008 -1.659892 60.850155
46.129956 -0.468589 59.422955
45.317095 -0.538786 60.250641
46.314861 -1.511068 59.05341
46.854309 -0.411918 58.474014
46.129956 -0.468589 59.422955
46.063858 -5.650882 57.095565
46.819281 -4.5723 56.539135
46.243769 -4.612586 57.681645
46.063858 -5.650882 57.095565
45.258051 -6.723974 57.651936
3 11 3 12
3 11 12 13
3 16 15 3
3 14 15 16
3 0 7 5
3 1 17 19
3 19 18 6
3 17 18 19
3 2 20 21
3 2 22 24
3 22 8 23
3 22 23 24
3 2 9 8
3 25 10 26
3 27 26 4
3 25 26 27
3 29 28 10
3 31 30 0
3 34 33 1
3 32 33 34
3 3 35 36
3 3 37 39
3 37 2 38
3 37 38 39
3 3 4 2
3 40 4 41
3 42 41 3
3 40 41 42
3 44 43 4
3 5 45 47
3 45 6 46
3 45 46 47
3 7 6 5
3 7 1 6
3 48 7 49
3 50 49 0
3 48 49 50
3 51 7 52
3 53 1 54
3 55 54 7
3 53 54 55
3 57 56 1
3 6 58 59
3 61 60 6
3 63 62 1
3 8 64 65
3 8 66 67
3 8 68 70
3 68 5 69
3 68 69 70
3 9 5 8
3 9 0 5
3 4 9 2
3 10 9 4
3 10 0 9
3 10 71 73
3 73 72 0
3 71 72 73
3 75 74 10
