ply
format ascii 1.0
element vertex 129
property float x
property float y
property float z
element face 105
property list uchar int vertex_index
end_header
-0.439129 -19.309406 48.04501
-2.414633 -34.195454 48.994167
-4.827387 -36.963051 51.581001
-1.458736 -26.949213 48.334381
0.020735 -15.355077 47.982456
0.855446 -17.648905 46.959763
0.412491 -21.599108 47.094185
-3.707394 -35.592415 50.216682
-4.527475 -33.503002 50.993446
-3.318356 -32.073078 49.743744
-2.845245 -28.457973 49.400368
-1.9594 -30.622105 48.613605
-0.564827 -29.17802 47.515533
-1.053261 -32.805359 47.83054
-5.72213 -41.546333 54.010941
-5.687668 -38.270332 53.152489
-4.981522 -40.316879 52.302219
-1.262051 -17.093056 49.054893
-1.782038 -20.960657 49.080658
-2.321314 -24.751783 49.185204
-0.941908 -23.176994 48.151501
-0.068657 -25.443434 47.272469
-4.976304 -41.936349 52.714657
-5.351826 -40.931606 53.15658
-5.346609 -42.551076 53.569018
-1.620852 -16.024064 49.615408
-1.027173 -15.126727 49.060781
-2.421154 -21.771873 49.613136
-2.143966 -19.878629 49.602482
-5.156373 -35.92102 52.009254
-5.586514 -36.574661 52.794999
-5.257528 -37.616692 52.366745
-4.833642 -32.444718 51.442134
-4.318444 -31.724705 50.77609
0.095465 -28.470993 46.942169
-0.147327 -30.313952 47.079639
0.629425 -14.479389 47.409952
0.216508 -13.341413 47.953224
1.046781 -15.626303 46.898606
0.629425 -14.479389 47.409952
0.43809 -16.501991 47.471109
1.433946 -16.824271 46.363228
1.046781 -15.626303 46.898606
1.248761 -18.843145 46.452446
1.433946 -16.824271 46.363228
1.027284 -20.818247 46.519657
1.248761 -18.843145 46.452446
0.633969 -19.624007 47.026974
0.815234 -22.779943 46.616476
1.027284 -20.818247 46.519657
-3.713884 -31.009743 50.15124
-4.318444 -31.724705 50.77609
-3.922916 -32.78804 50.368595
-3.0818 -30.265526 49.572056
-3.477329 -29.20219 49.979551
-3.713884 -31.009743 50.15124
-0.391544 -32.127622 47.237143
-0.147327 -30.313952 47.079639
-0.809044 -30.991689 47.673036
-5.704899 -39.908333 53.581715
-5.958734 -38.873779 54.059378
-5.975964 -40.51178 54.488604
-4.553231 -41.322895 51.89398
-4.976304 -41.936349 52.714657
-4.482636 -39.664501 51.553875
-4.553231 -41.322895 51.89398
-4.405569 -37.987587 51.193266
-4.904454 -38.639965 51.94161
-4.482636 -39.664501 51.553875
-3.845572 -37.302269 50.511106
-4.26739 -36.277733 50.898842
-4.405569 -37.987587 51.193266
-3.252567 -36.631951 49.84176
-3.845572 -37.302269 50.511106
-2.606187 -35.93347 49.230503
-3.061013 -34.893935 49.605424
-3.252567 -36.631951 49.84176
-1.963457 -35.264105 48.602706
-2.606187 -35.93347 49.230503
-0.38578 -14.257738 48.524563
0.216508 -13.341413 47.953224
-0.620658 -16.224066 48.518675
-0.38578 -14.257738 48.524563
-1.027173 -15.126727 49.060781
-5.943225 -42.105325 54.983141
-5.975964 -40.51178 54.488604
-5.6485 -43.120662 54.494406
-5.943225 -42.105325 54.983141
-5.346609 -42.551076 53.569018
-5.6485 -43.120662 54.494406
-1.883973 -17.944828 49.589599
-1.620852 -16.024064 49.615408
-1.522045 -19.026857 49.067775
-1.883973 -17.944828 49.589599
-2.143966 -19.878629 49.602482
-5.902821 -37.217941 53.637526
-5.958734 -38.873779 54.059378
-5.902821 -37.217941 53.637526
-5.586514 -36.574661 52.794999
-5.006417 -34.190996 51.715477
-5.156373 -35.92102 52.009254
-4.677431 -35.233027 51.287223
-5.006417 -34.190996 51.715477
-4.833642 -32.444718 51.442134
-3.226423 -27.380556 49.840496
-3.477329 -29.20219 49.979551
-2.964457 -25.527461 49.732914
-3.226423 -27.380556 49.840496
-2.583279 -26.604878 49.292786
-2.690792 -23.667435 49.665409
-2.964457 -25.527461 49.732914
-2.051676 -22.85622 49.132931
-2.421154 -21.771873 49.613136
-2.690792 -23.667435 49.665409
0.574661 -24.702106 46.705618
0.815234 -22.779943 46.616476
0.171917 -23.521271 47.183327
0.34355 -26.6037 46.820637
-0.316742 -27.310727 47.394001
0.095465 -28.470993 46.942169
0.574661 -24.702106 46.705618
0.34355 -26.6037 46.820637
-1.282771 -34.569057 48.020893
-1.733947 -33.500406 48.412353
-1.963457 -35.264105 48.602706
-0.638966 -33.91716 47.394842
-1.282771 -34.569057 48.020893
-0.391544 -32.127622 47.237143
-0.638966 -33.91716 47.394842
3 0 5 4
3 0 6 5
3 1 9 7
3 1 11 9
3 1 13 11
3 22 16 23
3 24 23 14
3 22 23 24
3 25 17 26
3 27 18 28
3 2 29 31
3 31 30 15
3 29 30 31
3 33 32 8
3 3 19 10
3 3 20 19
3 3 21 20
3 35 34 12
3 4 36 37
3 5 38 40
3 40 39 4
3 38 39 40
3 5 41 42
3 5 43 44
3 6 45 47
3 47 46 5
3 45 46 47
3 6 48 49
3 7 8 2
3 9 8 7
3 9 50 52
3 52 51 8
3 50 51 52
3 9 53 55
3 53 10 54
3 53 54 55
3 11 10 9
3 11 3 10
3 11 12 3
3 13 12 11
3 13 56 58
3 58 57 12
3 56 57 58
3 14 59 61
3 59 15 60
3 59 60 61
3 16 15 14
3 16 2 15
3 62 16 63
3 64 16 65
3 66 2 67
3 68 67 16
3 66 67 68
3 69 7 70
3 71 70 2
3 69 70 71
3 72 7 73
3 74 1 75
3 76 75 7
3 74 75 76
3 78 77 1
3 79 4 80
3 17 81 83
3 81 4 82
3 81 82 83
3 17 0 4
3 84 14 85
3 86 14 87
3 89 88 14
3 90 17 91
3 18 92 94
3 92 17 93
3 92 93 94
3 18 0 17
3 15 95 96
3 98 97 15
3 8 99 101
3 101 100 2
3 99 100 101
3 103 102 8
3 10 104 105
3 19 106 108
3 108 107 10
3 106 107 108
3 19 109 110
3 19 111 113
3 111 18 112
3 111 112 113
3 20 18 19
3 20 0 18
3 20 6 0
3 21 6 20
3 21 114 116
3 116 115 6
3 114 115 116
3 12 21 3
3 117 21 118
3 119 118 12
3 117 118 119
3 121 120 21
3 122 13 123
3 124 123 1
3 122 123 124
3 125 13 126
3 128 127 13
