ply
format ascii 1.0
element vertex 554
property float x
property float y
property float z
element face 556
property list uchar int vertex_index
end_header
-21.638996 -104.221436 24.208786
-15.531427 -89.399826 50.344109
-24.108671 -113.045563 15.184969
-13.397329 -99.353348 44.368782
-19.252331 -95.323669 36.48357
-41.539722 -105.369675 1.383375
-25.764318 -92.772156 33.340504
-30.017879 -102.797394 24.016659
-34.128521 -108.646484 16.748699
-37.577251 -108.005997 9.18726
-22.765997 -108.977631 19.365032
-12.3843 -91.706848 53.441971
-11.510908 -95.975174 50.435734
-14.551246 -94.416702 47.005424
-16.272814 -97.649872 40.310184
-17.517391 -91.955933 43.412331
-43.687157 -101.979141 6.569473
-32.149452 -106.588074 20.298494
-40.240597 -104.782043 14.953961
-41.97155 -103.409164 10.78643
-39.496723 -106.665894 5.251007
-13.64056 -87.413422 56.990429
-25.560204 -115.71434 11.184525
-17.269833 -101.473816 33.626919
-20.574678 -99.498322 29.95853
-39.187763 -108.733948 -3.491049
-16.880747 -84.933304 54.463627
-18.601566 -86.834641 47.534763
-20.534122 -89.611893 40.568939
-22.437347 -93.439713 33.943855
-24.180958 -98.139542 28.030033
-27.883621 -97.889725 28.287685
-25.845947 -103.172073 23.049791
-27.563839 -107.747177 18.92532
-29.291946 -111.054276 15.263133
-30.897758 -112.595612 11.599581
-35.873718 -108.930817 13.063439
-32.476871 -112.481888 7.722781
-34.377052 -111.380615 3.755682
-36.755291 -110.016495 -0.033364
-19.630177 -104.982773 25.563988
-20.405678 -109.676727 20.321377
-22.177822 -106.637161 21.679955
-13.971655 -90.646973 51.898777
-13.491507 -93.008743 50.265507
-15.02381 -91.870071 48.569256
-16.036079 -93.23822 45.171001
-16.535793 -90.58606 46.899124
-44.535366 -100.335312 9.203323
-42.931744 -101.834396 13.622867
-43.747299 -101.080994 11.416284
-42.837425 -102.686417 8.678363
-24.830465 -114.588974 13.192254
-12.559528 -97.622086 47.44429
-11.061829 -97.901932 49.032188
-13.973102 -101.175385 41.22131
-17.740904 -96.49791 38.296413
-16.861559 -99.490555 36.943687
-18.379108 -98.398666 34.910385
-18.879982 -100.465576 31.62842
-19.962708 -97.320312 33.144241
-40.356083 -107.078018 -1.116724
-19.55658 -88.095444 44.034004
-23.09338 -90.727921 36.440063
-24.095097 -92.931778 33.382942
-23.328394 -95.706589 30.878735
-25.076303 -95.341446 30.523958
-30.828121 -100.527359 27.09527
-29.677097 -98.09816 29.171328
-28.946684 -100.429199 26.063141
-26.996378 -100.442322 25.47765
-27.95899 -102.923569 23.287027
-26.695765 -105.570511 20.899437
-28.931341 -105.207809 21.282932
-33.168495 -107.852005 18.526405
-30.857635 -108.77919 17.629169
-31.769527 -109.921112 15.863333
-30.112507 -112.054901 13.453334
-32.628647 -110.595963 14.073153
-39.015316 -106.376053 12.025162
-38.152935 -106.910187 14.004572
-36.710651 -108.568237 11.143314
-34.247746 -110.68692 10.33458
-35.085224 -110.266937 8.394167
-33.365959 -112.003372 5.734012
-35.999966 -109.676666 6.435442
-40.526524 -106.006165 3.305403
-38.115551 -108.342178 2.571924
-39.254822 -107.697098 0.704986
-38.013878 -109.357346 -1.801178
-23.4132 -111.146271 17.220407
-11.928867 -93.882477 51.886669
-13.045954 -95.3647 48.796658
-14.035182 -96.945694 45.623894
-14.830657 -98.642227 42.382042
-15.495035 -95.959152 43.677605
-16.95462 -94.777115 41.733185
-18.433212 -93.5327 39.924149
-31.988752 -102.692947 25.14448
-31.091286 -104.881638 22.111246
-33.144577 -104.494278 23.282438
-34.271709 -105.860275 21.467161
-35.344215 -106.757324 19.657846
-42.090679 -102.566452 15.810397
-41.107559 -104.127029 12.882888
-39.89473 -105.717468 10.015421
-38.504368 -107.346069 7.21634
-40.807983 -105.018478 7.992207
-41.745289 -104.329315 5.969726
-11.30583 -90.468323 56.526344
-12.939974 -89.528824 55.139961
-14.551562 -88.35907 53.716221
-15.397791 -100.458206 39.098358
-15.739241 -102.389557 35.811897
-17.536484 -103.584641 30.41016
-19.279331 -102.673172 28.500217
-21.11903 -101.817566 26.970524
-38.107407 -110.245255 -5.639561
-38.943054 -109.782227 -7.161036
-40.166275 -108.160492 -5.16375
-15.274357 -86.198776 55.703171
-16.137642 -87.075943 52.323219
-17.071404 -88.088409 48.863087
-18.042414 -89.285843 45.356773
-19.012875 -90.704514 41.844856
-19.94693 -92.363876 38.374954
-22.081898 -88.783371 39.661129
-21.502432 -91.396713 37.189041
-20.818108 -94.264572 34.999184
-21.615801 -96.38739 31.769613
-22.34827 -98.693222 28.732674
-23.040075 -101.123657 25.922813
-27.413378 -92.932312 33.795052
-28.539501 -95.524719 31.399372
-26.824963 -95.298889 30.711666
-26.039547 -97.87793 27.886248
-25.012861 -100.659821 25.419666
-23.723759 -103.602539 23.356108
-24.428219 -106.038818 21.025089
-25.168327 -108.331818 18.897081
-25.94034 -110.37886 16.91802
-29.904264 -107.188843 19.416513
-28.436531 -109.601974 17.068075
-26.7258 -112.086197 15.022023
-27.503016 -113.381439 13.14455
-28.261562 -114.226059 11.235451
-29.013378 -114.623825 9.26825
-37.367413 -105.445053 20.904303
-36.344872 -107.193253 17.82173
-39.346966 -105.286804 16.986155
-37.274197 -107.216705 15.93907
-35.024746 -108.987015 14.932673
-33.444168 -110.828918 12.231961
-31.671173 -112.712692 9.686646
-29.794958 -114.621719 7.243314
-31.653969 -113.75975 3.131455
-37.014168 -109.012558 4.486639
-35.518021 -110.699707 1.823666
-35.511154 -111.628311 -2.546881
-39.472527 -109.428497 -8.885834
-20.814447 -105.781029 23.523999
-19.810038 -106.161698 24.2016
-20.634586 -104.602104 24.886387
-21.908409 -105.429299 22.94437
-21.083861 -106.988891 22.259583
-20.814447 -105.781029 23.523999
-45.531706 -98.340584 10.681321
-45.207371 -99.143669 9.361751
-44.859701 -99.532227 10.522893
-44.465667 -99.905068 11.629373
-44.095428 -100.294449 12.79267
-44.859701 -99.532227 10.522893
-44.141333 -100.708153 10.309803
-44.465667 -99.905068 11.629373
-23.11959 -114.361 14.399998
-22.79639 -113.491387 15.47548
-24.469568 -113.817268 14.188612
-23.480486 -115.132706 13.40364
-23.11959 -114.361 14.399998
-12.679466 -99.521133 45.256275
-12.260566 -98.655502 46.794029
-12.978428 -98.487717 45.906536
-12.986653 -100.446937 43.76899
-12.679466 -99.521133 45.256275
-13.685215 -100.264366 42.795046
-13.274539 -101.357956 42.195253
-12.986653 -100.446937 43.76899
-42.00687 -105.050011 0.43015
-41.41505 -105.904182 -0.8199
-40.947902 -106.223847 0.133325
-24.929707 -92.851967 33.361723
-24.398013 -91.670654 34.774379
-25.232623 -91.590844 34.75316
-21.834683 -110.442147 18.672839
-20.654524 -110.791695 19.151011
-21.585838 -109.327179 19.843204
-23.089599 -110.061951 18.29272
-22.158285 -111.526466 17.600527
-21.834683 -110.442147 18.672839
-12.156583 -92.794662 52.66432
-11.349508 -93.174652 53.388784
-11.577224 -92.086838 54.166436
-44.08715 -101.625564 5.517608
-43.179242 -102.819985 5.262738
-32.921157 -102.591705 25.844301
-32.304595 -101.652259 26.800031
-33.499069 -103.49237 24.91328
-32.566665 -103.593613 24.213459
-32.921157 -102.591705 25.844301
-35.263469 -105.393287 22.132248
-34.673296 -104.901138 23.067715
-35.799723 -105.841812 21.22759
-34.807962 -106.308799 20.562503
-35.263469 -105.393287 22.132248
-42.875387 -101.425881 16.148495
-42.456136 -101.79573 17.295749
-43.179242 -102.819985 5.262738
-42.208308 -103.995071 4.962864
-42.716223 -103.154228 6.269599
-10.817508 -89.854492 58.017632
-10.484267 -90.770035 57.16791
-13.290267 -88.471123 56.065195
-12.463511 -88.996643 56.708222
-12.813804 -87.938942 57.633455
-24.551033 -116.855683 10.231663
-23.181058 -117.52179 10.373147
-24.19023 -116.380448 11.32601
-25.92874 -116.054847 10.154679
-24.551033 -116.855683 10.231663
-10.730219 -96.072304 51.136204
-10.923996 -95.183434 51.889538
-10.305003 -97.817429 49.67361
-10.791574 -98.745339 48.322504
-16.58197 -102.950714 33.09743
-15.816674 -103.408584 34.189919
-16.504537 -101.931686 34.719408
-17.403158 -102.529229 32.01854
-16.715296 -104.006126 31.48905
-16.58197 -102.950714 33.09743
-16.077552 -85.56604 55.083399
-15.715151 -85.192184 56.757941
-16.518346 -84.559449 56.138169
-18.151302 -86.31569 49.279913
-18.923255 -85.731423 48.705768
-17.836485 -87.461525 48.198925
-17.386221 -86.942574 49.944075
-18.151302 -86.31569 49.279913
-22.863511 -88.534988 39.414633
-22.35029 -87.616119 40.990137
-28.215527 -93.130134 34.238326
-27.638213 -91.843673 35.393055
-37.881998 -105.492561 19.937212
-38.295065 -104.668022 21.522952
-37.370728 -106.366661 18.395925
-36.856143 -106.319153 19.363017
-37.881998 -105.492561 19.937212
-39.793782 -105.034424 15.970058
-40.277663 -104.250275 17.475978
-40.724478 -103.997894 16.459881
-31.567658 -113.391487 6.453642
-30.226702 -114.461402 6.213909
-31.135915 -113.551804 7.483047
-33.593229 -112.235748 2.443011
-32.231687 -113.425315 2.130898
-33.01551 -112.570183 3.443569
-35.43474 -111.191185 -0.403927
-34.816105 -111.532791 0.524588
-36.136656 -110.358101 0.895151
-36.133223 -110.822403 -1.290123
-34.812672 -111.997093 -1.660686
-35.43474 -111.191185 -0.403927
-38.041305 -109.819748 -3.827919
-37.454363 -110.131447 -2.982984
-38.60082 -109.045647 -2.646113
-38.647585 -109.489601 -4.565305
-37.501128 -110.575401 -4.902175
-38.041305 -109.819748 -3.827919
-40.191624 -108.519851 -7.893775
-39.207791 -109.605362 -8.023435
-39.926887 -108.696717 -7.031376
-18.764728 -106.532165 25.000696
-18.676502 -105.390999 26.450579
-18.764728 -106.532165 25.000696
-19.810038 -106.161698 24.2016
-20.197789 -108.508674 21.580295
-19.267601 -110.028366 21.020578
-21.29175 -108.156944 21.000666
-20.197789 -108.508674 21.580295
-21.083861 -106.988891 22.259583
-44.906513 -99.96328 8.098695
-44.482408 -100.785194 6.78177
-44.111261 -101.157227 7.886398
-44.906513 -99.96328 8.098695
-45.207371 -99.143669 9.361751
-43.687651 -100.67115 13.895961
-43.295919 -101.059853 15.05473
-43.339522 -101.457695 12.519575
-43.687651 -100.67115 13.895961
-44.095428 -100.294449 12.79267
-13.237385 -86.959664 58.565594
-12.813804 -87.938942 57.633455
-23.82536 -115.817764 12.329874
-23.480486 -115.132706 13.40364
-25.195335 -115.151657 12.188389
-24.19023 -116.380448 11.32601
-23.82536 -115.817764 12.329874
-11.511716 -98.795425 47.587978
-11.810678 -97.762009 48.238239
-12.260566 -98.655502 46.794029
-10.791574 -98.745339 48.322504
-11.511716 -98.795425 47.587978
-13.426533 -102.315423 40.669791
-13.274539 -101.357956 42.195253
-14.125894 -102.130471 39.62422
-13.426533 -102.315423 40.669791
-40.847813 -106.77227 -2.016822
-40.263652 -107.600235 -3.203984
-39.771923 -107.905983 -2.303886
-40.847813 -106.77227 -2.016822
-41.41505 -105.904182 -0.8199
-17.325981 -83.950623 55.57905
-16.518346 -84.559449 56.138169
-16.96358 -83.576767 57.253591
-19.364883 -86.291016 46.980074
-18.923255 -85.731423 48.705768
-19.842391 -86.921417 45.229695
-19.079073 -87.465043 45.784384
-19.364883 -86.291016 46.980074
-20.320087 -87.609611 43.51936
-19.842391 -86.921417 45.229695
-20.808858 -88.367836 41.786827
-20.045351 -88.853668 42.301472
-20.320087 -87.609611 43.51936
-23.897154 -90.568726 36.30294
-23.369252 -89.507263 37.8041
-23.594238 -91.829849 34.911502
-23.897154 -90.568726 36.30294
-24.398013 -91.670654 34.774379
-30.252609 -99.312759 28.133299
-30.53733 -98.240715 29.801928
-31.112842 -99.455315 28.7639
-19.431294 -111.151329 19.745412
-19.267601 -110.028366 21.020578
-19.431294 -111.151329 19.745412
-20.654524 -110.791695 19.151011
-22.448654 -112.541741 16.493199
-22.158285 -111.526466 17.600527
-23.760936 -112.095917 16.202688
-22.79639 -113.491387 15.47548
-22.448654 -112.541741 16.493199
-11.132976 -94.137085 52.615005
-11.349508 -93.174652 53.388784
-11.719888 -94.928825 51.161201
-10.923996 -95.183434 51.889538
-11.132976 -94.137085 52.615005
-42.538944 -104.179772 1.667447
-42.105524 -104.515252 2.669688
-44.08715 -101.625564 5.517608
-44.482408 -100.785194 6.78177
-26.031508 -91.605301 34.852194
-25.232623 -91.590844 34.75316
-31.72428 -100.569466 27.775426
-31.112842 -99.455315 28.7639
-31.408437 -101.610153 26.119875
-31.72428 -100.569466 27.775426
-32.304595 -101.652259 26.800031
-34.10973 -104.21814 23.975353
-33.499069 -103.49237 24.91328
-33.708143 -105.177277 22.3748
-34.10973 -104.21814 23.975353
-34.673296 -104.901138 23.067715
-41.649519 -102.890098 16.888099
-42.456136 -101.79573 17.295749
-41.165638 -103.674248 15.382179
-40.724478 -103.997894 16.459881
-41.649519 -102.890098 16.888099
-42.511212 -102.200424 14.716632
-42.875387 -101.425881 16.148495
-43.295919 -101.059853 15.05473
-41.598925 -104.833496 3.630702
-41.135907 -105.16774 4.637564
-42.208308 -103.995071 4.962864
-42.105524 -104.515252 2.669688
-41.033123 -105.68792 2.344389
-41.598925 -104.833496 3.630702
-11.03799 -91.467575 55.708622
-10.484267 -90.770035 57.16791
-11.845065 -91.087585 54.984158
-11.577224 -92.086838 54.166436
-11.03799 -91.467575 55.708622
-11.646439 -89.466392 57.401413
-10.817508 -89.854492 58.017632
-11.158118 -88.852562 58.892701
-12.122902 -89.998573 55.833152
-11.646439 -89.466392 57.401413
-12.463511 -88.996643 56.708222
-10.505679 -97.035683 50.434431
-10.730219 -96.072304 51.136204
-11.286369 -96.938553 49.733961
-10.505679 -97.035683 50.434431
-10.305003 -97.817429 49.67361
-14.838238 -101.771881 38.562744
-14.125894 -102.130471 39.62422
-14.685447 -100.816796 40.159834
-15.008964 -102.737556 36.919514
-14.838238 -101.771881 38.562744
-15.568516 -101.423881 37.455128
-15.044369 -103.733841 35.316574
-15.008964 -102.737556 36.919514
-15.044369 -103.733841 35.316574
-15.816674 -103.408584 34.189919
-16.733201 -105.072022 29.91037
-16.715296 -104.006126 31.48905
-17.629656 -104.691933 28.873665
-16.733201 -105.072022 29.91037
-18.501079 -104.236199 27.918693
-17.629656 -104.691933 28.873665
-18.407908 -103.128906 29.455188
-19.454754 -103.827972 27.032103
-18.676502 -105.390999 26.450579
-18.501079 -104.236199 27.918693
-38.52523 -110.013741 -6.400298
-38.094366 -110.594093 -7.232204
-37.676542 -110.825607 -6.471467
-40.538498 -107.885849 -6.032733
-39.926887 -108.696717 -7.031376
-39.554665 -108.97136 -6.162393
-40.752909 -107.313507 -4.040335
-39.677019 -108.44722 -4.3274
-40.263652 -107.600235 -3.203984
-41.161152 -106.993996 -4.948357
-40.752909 -107.313507 -4.040335
-40.538498 -107.885849 -6.032733
-41.161152 -106.993996 -4.948357
-42.00687 -105.050011 0.43015
-42.538944 -104.179772 1.667447
-14.073051 -86.406105 57.980871
-13.237385 -86.959664 58.565594
-14.889949 -85.798782 57.337242
-15.715151 -85.192184 56.757941
-14.457459 -86.806099 56.3468
-14.073051 -86.406105 57.980871
-14.889949 -85.798782 57.337242
-17.668299 -84.327195 53.888821
-17.325981 -83.950623 55.57905
-17.290892 -85.365021 52.744345
-17.668299 -84.327195 53.888821
-16.91934 -86.436341 51.674141
-16.509194 -86.004624 53.393423
-17.290892 -85.365021 52.744345
-16.604523 -87.582176 50.593153
-16.91934 -86.436341 51.674141
-17.386221 -86.942574 49.944075
-21.582746 -87.953575 41.332922
-22.35029 -87.616119 40.990137
-21.30801 -89.197632 40.115034
-20.808858 -88.367836 41.786827
-21.582746 -87.953575 41.332922
-22.587639 -89.755646 38.050596
-22.863511 -88.534988 39.414633
-23.369252 -89.507263 37.8041
-26.856038 -91.685379 35.079468
-27.638213 -91.843673 35.393055
-26.588848 -92.852234 33.567778
-26.031508 -91.605301 34.852194
-26.856038 -91.685379 35.079468
-29.936504 -97.005836 30.83611
-30.53733 -98.240715 29.801928
-29.367705 -95.719116 31.950132
-29.936504 -97.005836 30.83611
-29.108299 -96.81144 30.28535
-28.778588 -94.426338 33.040486
-29.606793 -94.620735 33.591246
-29.367705 -95.719116 31.950132
-27.97644 -94.228516 32.597212
-28.215527 -93.130134 34.238326
-28.778588 -94.426338 33.040486
-27.279419 -115.310707 10.180142
-25.92874 -116.054847 10.154679
-26.910883 -114.9702 11.209988
-27.655327 -115.50959 9.196542
-27.279419 -115.310707 10.180142
-28.63747 -114.424942 10.25185
-28.039782 -115.635872 8.136043
-27.655327 -115.50959 9.196542
-37.729219 -104.58802 22.530155
-38.295065 -104.668022 21.522952
-36.811321 -105.185676 21.850819
-37.729219 -104.58802 22.530155
-36.355814 -106.101189 20.281074
-35.799723 -105.841812 21.22759
-36.811321 -105.185676 21.850819
-39.803273 -104.487412 18.532206
-40.277663 -104.250275 17.475978
-38.871775 -105.413437 17.978138
-39.803273 -104.487412 18.532206
-37.835391 -106.378388 17.454595
-38.871775 -105.413437 17.978138
-38.310581 -106.251755 16.462612
-36.809534 -107.204979 16.8804
-37.370728 -106.366661 18.395925
-37.835391 -106.378388 17.454595
-28.430571 -115.634819 7.123575
-28.039782 -115.635872 8.136043
-29.404168 -114.622772 8.255782
-28.854095 -115.574333 6.041534
-28.430571 -115.634819 7.123575
-28.854095 -115.574333 6.041534
-30.226702 -114.461402 6.213909
-32.012202 -113.152229 5.459258
-31.567658 -113.391487 6.453642
-32.921415 -112.24263 6.728397
-31.156207 -114.030418 4.157979
-32.012202 -113.152229 5.459258
-32.509964 -112.881561 4.432733
-30.273372 -114.936882 2.901978
-31.156207 -114.030418 4.157979
-30.850903 -114.628868 1.843135
-30.273372 -114.936882 2.901978
-30.850903 -114.628868 1.843135
-32.231687 -113.425315 2.130898
-34.163714 -111.895294 1.477003
-33.593229 -112.235748 2.443011
-34.947536 -111.040161 2.789674
-34.163714 -111.895294 1.477003
-34.816105 -111.532791 0.524588
-34.202726 -112.784607 -2.927183
-34.812672 -111.997093 -1.660686
-34.995136 -112.35485 -3.747193
-34.202726 -112.784607 -2.927183
-36.203001 -111.26693 -3.355835
-36.762516 -110.492829 -2.17403
-37.454363 -110.131447 -2.982984
-34.995136 -112.35485 -3.747193
-36.203001 -111.26693 -3.355835
-37.060643 -111.224045 -5.980017
-37.501128 -110.575401 -4.902175
-37.676542 -110.825607 -6.471467
-37.060643 -111.224045 -5.980017
-38.199595 -110.625298 -7.995763
-37.350907 -111.437164 -8.066931
-38.094366 -110.594093 -7.232204
-38.464331 -110.448433 -8.858162
-38.199595 -110.625298 -7.995763
-39.207791 -109.605362 -8.023435
-38.605352 -110.385307 -9.784737
-38.464331 -110.448433 -8.858162
-40.479571 -108.207031 -8.805636
-40.191624 -108.519851 -7.893775
-39.695465 -109.179374 -9.81214
-40.479571 -108.207031 -8.805636
-40.702509 -107.957909 -9.731943
-38.605352 -110.385307 -9.784737
-39.695465 -109.179374 -9.81214
3 0 160 162
3 162 161 40
3 160 161 162
3 0 163 165
3 163 42 164
3 163 164 165
3 1 45 43
3 1 47 45
3 168 167 48
3 166 167 168
3 169 50 170
3 171 48 172
3 173 172 50
3 171 172 173
3 2 174 175
3 2 176 178
3 176 52 177
3 176 177 178
3 3 179 181
3 181 180 53
3 179 180 181
3 3 182 183
3 3 184 186
3 184 55 185
3 184 185 186
3 4 58 56
3 4 60 58
3 5 187 189
3 189 188 61
3 187 188 189
3 6 190 192
3 190 64 191
3 190 191 192
3 6 66 64
3 7 69 67
3 7 71 69
3 7 73 71
3 8 76 74
3 8 78 76
3 9 81 79
3 9 83 81
3 9 85 83
3 5 88 86
3 5 61 88
3 10 193 195
3 195 194 41
3 193 194 195
3 10 196 198
3 196 90 197
3 196 197 198
3 11 199 201
3 199 91 200
3 199 200 201
3 13 92 44
3 13 93 92
3 13 95 93
3 15 96 46
3 15 97 96
3 16 202 203
3 204 98 205
3 206 100 207
3 208 207 98
3 206 207 208
3 209 101 210
3 211 102 212
3 213 212 101
3 211 212 213
3 214 103 215
3 19 104 49
3 19 105 104
3 19 107 105
3 16 108 51
3 16 216 218
3 218 217 108
3 216 217 218
3 219 109 220
3 21 221 223
3 221 110 222
3 221 222 223
3 21 111 110
3 22 224 226
3 224 225 226
3 22 227 228
3 12 229 230
3 232 231 54
3 14 112 94
3 23 113 57
3 23 233 235
3 235 234 113
3 233 234 235
3 23 236 238
3 236 114 237
3 236 237 238
3 24 115 59
3 24 116 115
3 25 119 117
3 26 239 241
3 239 120 240
3 239 240 241
3 26 121 120
3 27 242 243
3 27 244 246
3 244 122 245
3 244 245 246
3 27 123 122
3 28 124 62
3 28 125 124
3 247 126 248
3 29 127 63
3 29 128 127
3 29 129 128
3 30 130 65
3 30 131 130
3 249 132 250
3 31 133 68
3 31 134 133
3 31 135 134
3 32 136 70
3 32 137 136
3 32 138 137
3 33 139 72
3 33 140 139
3 17 141 99
3 34 142 75
3 34 143 142
3 34 144 143
3 35 145 77
3 35 146 145
3 251 147 252
3 253 148 254
3 255 254 147
3 253 254 255
3 18 256 258
3 256 149 257
3 256 257 258
3 36 150 80
3 36 151 150
3 36 152 151
3 37 153 82
3 37 154 153
3 37 259 261
3 261 260 154
3 259 260 261
3 38 155 84
3 38 262 264
3 264 263 155
3 262 263 264
3 20 156 106
3 39 157 87
3 39 265 267
3 267 266 157
3 265 266 267
3 39 268 270
3 268 158 269
3 268 269 270
3 25 271 273
3 273 272 89
3 271 272 273
3 25 274 276
3 274 117 275
3 274 275 276
3 277 159 278
3 279 278 118
3 277 278 279
3 40 280 281
3 283 282 40
3 284 41 285
3 42 286 288
3 286 41 287
3 286 287 288
3 42 10 41
3 43 44 11
3 45 44 43
3 45 13 44
3 45 46 13
3 47 46 45
3 47 15 46
3 48 289 291
3 291 290 16
3 289 290 291
3 293 292 48
3 294 49 295
3 50 296 298
3 296 49 297
3 296 297 298
3 50 19 49
3 50 51 19
3 48 51 50
3 48 16 51
3 299 21 300
3 52 301 302
3 52 303 305
3 303 22 304
3 303 304 305
3 53 54 12
3 306 54 307
3 308 307 53
3 306 307 308
3 310 309 54
3 55 311 312
3 55 313 314
3 56 57 14
3 58 57 56
3 58 23 57
3 58 59 23
3 60 59 58
3 60 24 59
3 61 315 317
3 317 316 25
3 315 316 317
3 319 318 61
3 320 26 321
3 320 321 322
3 323 27 324
3 325 62 326
3 327 326 27
3 325 326 327
3 328 62 329
3 330 28 331
3 332 331 62
3 330 331 332
3 333 63 334
3 64 335 337
3 335 63 336
3 335 336 337
3 64 29 63
3 64 65 29
3 66 65 64
3 66 30 65
3 67 338 340
3 338 68 339
3 338 339 340
3 69 68 67
3 69 31 68
3 69 70 31
3 71 70 69
3 71 32 70
3 71 72 32
3 73 72 71
3 73 33 72
3 74 75 17
3 76 75 74
3 76 34 75
3 76 77 34
3 78 77 76
3 78 35 77
3 79 80 18
3 81 80 79
3 81 36 80
3 81 82 36
3 83 82 81
3 83 37 82
3 83 84 37
3 85 84 83
3 85 38 84
3 86 87 20
3 88 87 86
3 88 39 87
3 88 89 39
3 61 89 88
3 61 25 89
3 41 341 342
3 344 343 41
3 90 345 346
3 90 347 349
3 347 2 348
3 347 348 349
3 91 350 351
3 91 352 354
3 352 12 353
3 352 353 354
3 44 91 11
3 92 91 44
3 92 12 91
3 92 53 12
3 93 53 92
3 93 3 53
3 93 94 3
3 95 94 93
3 95 14 94
3 46 95 13
3 96 95 46
3 96 14 95
3 96 56 14
3 97 56 96
3 97 4 56
3 356 355 5
3 358 357 16
3 359 6 360
3 361 67 362
3 98 363 365
3 363 67 364
3 363 364 365
3 98 7 67
3 98 99 7
3 100 99 98
3 100 17 99
3 366 100 367
3 101 368 370
3 368 100 369
3 368 369 370
3 101 17 100
3 101 74 17
3 102 74 101
3 102 8 74
3 103 371 372
3 103 373 375
3 373 18 374
3 373 374 375
3 49 376 378
3 376 103 377
3 376 377 378
3 104 103 49
3 104 18 103
3 104 79 18
3 105 79 104
3 105 9 79
3 105 106 9
3 107 106 105
3 107 20 106
3 51 107 19
3 108 107 51
3 108 20 107
3 108 86 20
3 379 86 380
3 381 380 108
3 379 380 381
3 382 5 383
3 384 383 86
3 382 383 384
3 109 385 386
3 109 387 389
3 387 11 388
3 387 388 389
3 390 109 391
3 390 391 392
3 110 393 395
3 393 109 394
3 393 394 395
3 110 11 109
3 110 43 11
3 111 43 110
3 111 1 43
3 54 396 398
3 398 397 12
3 396 397 398
3 400 399 54
3 94 55 3
3 112 55 94
3 112 401 403
3 403 402 55
3 401 402 403
3 57 112 14
3 113 112 57
3 113 404 406
3 406 405 112
3 404 405 406
3 113 407 408
3 410 409 113
3 114 411 412
3 114 413 414
3 59 114 23
3 115 114 59
3 115 415 417
3 417 416 114
3 415 416 417
3 115 418 420
3 418 40 419
3 418 419 420
3 116 40 115
3 116 0 40
3 117 421 423
3 421 118 422
3 421 422 423
3 119 118 117
3 119 424 426
3 426 425 118
3 424 425 426
3 427 119 428
3 429 428 25
3 427 428 429
3 430 119 431
3 433 432 119
3 435 434 5
3 436 21 437
3 120 438 439
3 120 440 442
3 440 21 441
3 440 441 442
3 120 111 21
3 121 111 120
3 121 1 111
3 443 26 444
3 445 26 446
3 447 121 448
3 449 448 26
3 447 448 449
3 122 450 452
3 450 121 451
3 450 451 452
3 122 1 121
3 122 47 1
3 123 47 122
3 123 15 47
3 62 123 27
3 124 123 62
3 124 15 123
3 124 97 15
3 125 97 124
3 125 4 97
3 126 453 454
3 126 455 457
3 455 28 456
3 455 456 457
3 63 458 460
3 458 126 459
3 458 459 460
3 127 126 63
3 127 28 126
3 127 125 28
3 128 125 127
3 128 4 125
3 128 60 4
3 129 60 128
3 129 24 60
3 65 129 29
3 130 129 65
3 130 24 129
3 130 116 24
3 131 116 130
3 131 0 116
3 132 461 462
3 132 463 465
3 463 6 464
3 463 464 465
3 68 466 467
3 133 468 470
3 470 469 68
3 468 469 470
3 133 471 473
3 471 472 473
3 133 474 476
3 474 132 475
3 474 475 476
3 134 132 133
3 134 6 132
3 134 66 6
3 135 66 134
3 135 30 66
3 70 135 31
3 136 135 70
3 136 30 135
3 136 131 30
3 137 131 136
3 137 0 131
3 137 42 0
3 138 42 137
3 138 10 42
3 72 138 32
3 139 138 72
3 139 10 138
3 139 90 10
3 140 90 139
3 140 2 90
3 99 73 7
3 141 73 99
3 141 33 73
3 75 141 17
3 142 141 75
3 142 33 141
3 142 140 33
3 143 140 142
3 143 2 140
3 143 52 2
3 144 52 143
3 144 22 52
3 77 144 34
3 145 144 77
3 145 22 144
3 145 477 479
3 479 478 22
3 477 478 479
3 146 480 482
3 482 481 145
3 480 481 482
3 146 483 484
3 147 485 486
3 147 487 488
3 147 489 491
3 489 102 490
3 489 490 491
3 148 102 147
3 148 8 102
3 149 492 493
3 149 494 495
3 80 149 18
3 150 149 80
3 150 496 498
3 498 497 149
3 496 497 498
3 150 499 501
3 499 148 500
3 499 500 501
3 151 148 150
3 151 8 148
3 151 78 8
3 152 78 151
3 152 35 78
3 82 152 36
3 153 152 82
3 153 35 152
3 153 146 35
3 154 146 153
3 154 502 504
3 504 503 146
3 502 503 504
3 154 505 506
3 508 507 154
3 84 509 511
3 511 510 37
3 509 510 511
3 155 512 514
3 514 513 84
3 512 513 514
3 155 515 516
3 155 517 518
3 520 519 155
3 106 85 9
3 156 85 106
3 156 38 85
3 87 156 20
3 157 156 87
3 157 38 156
3 157 521 523
3 523 522 38
3 521 522 523
3 525 524 157
3 158 526 527
3 158 528 529
3 89 158 39
3 530 158 531
3 532 531 89
3 530 531 532
3 534 533 158
3 117 535 536
3 117 537 538
3 118 539 541
3 539 540 541
3 159 542 544
3 544 543 118
3 542 543 544
3 159 545 546
3 547 159 548
3 549 159 550
3 549 550 551
3 553 552 159
