ply
format ascii 1.0
element vertex 614
property float x
property float y
property float z
element face 557
property list uchar int vertex_index
end_header
-4.440439 -8.152911 39.76226
1.605129 -65.431305 43.021854
1.291449 -65.454193 51.818237
0.710146 -54.153938 41.44487
-3.417261 -25.581194 40.935364
-3.710997 -39.185684 33.964436
-3.097223 -52.56292 25.354908
1.065456 -70.693649 44.586395
1.069101 -70.704773 40.058567
1.105976 -65.343613 38.605598
-0.258049 -42.499619 44.505756
0.864542 -48.899479 44.773994
-0.562733 -53.739021 37.50243
-3.112738 -10.650192 43.297478
-2.641584 -19.264673 43.772079
-3.96501 -16.950161 40.509941
-3.570173 -46.063583 29.821758
0.780293 -70.456978 49.133568
1.635015 -65.511635 47.439072
0.801565 -37.216389 46.937435
-1.265234 -35.416206 44.301407
-4.807924 0.550394 38.467796
2.097246 -60.671848 50.301239
2.057783 -60.28117 46.145302
1.763109 -54.773075 45.271736
1.539738 -59.928661 41.972672
0.551226 -59.715103 37.770844
-2.042875 -27.61694 44.070415
-2.740652 -33.742268 41.171402
-4.411882 -23.799725 37.438225
-3.700369 -32.270897 37.673256
-2.885695 -40.126194 37.686981
-2.776777 -46.66972 33.712372
-2.516085 -53.107666 29.413691
-1.776377 -59.05938 25.085653
-1.818979 -58.3587 20.905294
-1.642012 -57.312771 16.778313
1.381931 -68.094353 43.744251
1.10146 -70.717773 42.319103
1.308193 -68.080978 41.499123
1.142544 -68.056152 39.259056
1.408503 -65.382401 40.812157
-3.808516 -9.358706 41.583546
-3.597582 -13.724793 41.934216
-4.212526 -12.553713 40.189331
0.805676 -67.699623 52.687187
0.561226 -70.202545 51.403053
1.038504 -67.901352 50.473732
1.231676 -68.023926 48.23716
1.495039 -65.507622 49.637848
0.402842 -33.586304 46.778717
-0.290754 -36.306381 45.675285
-0.712286 -32.585197 45.549526
-4.930464 4.818178 37.550484
2.126289 -60.479797 48.224014
2.220098 -57.852695 47.646271
0.754642 -51.482346 43.180992
1.368303 -51.890877 44.983131
1.280935 -54.438755 43.371338
1.665802 -57.303024 43.659531
1.209507 -57.081276 41.649094
1.089912 -59.80262 39.875385
0.654497 -56.907532 39.62159
-0.570852 -56.682137 35.518272
-3.100363 -22.370827 42.401672
-2.359831 -23.493073 43.933517
-2.809114 -26.573921 42.563805
-2.475637 -30.646301 42.694221
-3.102934 -29.737568 41.073292
-4.761045 -19.408924 37.211174
-4.132254 -31.618135 35.858734
-3.72658 -35.713852 35.874298
-3.315752 -36.286182 37.703545
-3.305017 -39.642006 35.834038
-2.847666 -43.390694 35.752083
-3.255217 -43.018089 33.852608
-3.399645 -49.38266 27.61327
-3.043707 -49.676773 29.603598
-2.821379 -52.868732 27.385078
-2.242239 -56.169052 27.227833
-2.441889 -55.907043 25.161243
-1.827829 -58.751198 22.98954
-2.594572 -55.56493 23.09882
0.735804 -65.315048 36.403809
0.646948 -43.203247 45.981155
0.305708 -45.776592 44.622566
0.080685 -53.922729 39.487957
-2.892809 -14.971167 43.568893
-3.36133 -18.074545 42.197952
-3.700991 -21.305866 40.751724
-3.66271 -42.64967 31.944872
0.955332 -70.613937 46.858925
1.353655 -68.081833 45.991615
1.679028 -65.480057 45.231987
2.265678 -41.499634 48.423782
1.203197 -40.665409 47.139412
0.166708 -39.845123 45.816383
-0.788853 -39.049698 44.40345
-4.806364 -11.477987 38.355461
-3.296556 -6.33359 42.924198
-3.989241 -5.007314 41.113564
-4.133055 -0.693779 40.491539
-4.641748 -3.777655 39.197952
-5.30739 -2.666523 37.188801
1.737194 -63.108349 51.026649
1.873943 -63.031616 48.888535
1.926817 -62.929344 46.740578
1.865068 -62.816128 44.586891
2.002384 -57.565151 45.656197
1.865965 -60.0919 44.062344
1.670429 -62.709644 42.429367
1.344601 -62.62421 40.269661
0.913118 -62.565651 38.109352
0.423016 -62.528881 35.949425
0.042803 -56.778934 37.577137
-0.022881 -59.656349 35.66
-1.758959 -20.497721 45.208038
-1.442705 -24.652151 45.323311
-1.095186 -28.692535 45.433952
-1.681429 -31.600367 44.191689
-4.523222 -15.910081 38.734341
-4.229055 -20.315002 39.013973
-3.925852 -24.653433 39.217365
-4.060537 -28.099115 37.587822
-3.607798 -28.886158 39.360458
-3.260542 -32.978535 39.452473
-2.863733 -36.90448 39.498852
-2.261221 -50.142929 33.573341
-3.173906 -46.377548 31.769855
-2.67544 -49.924328 31.589493
-2.153051 -53.294292 31.443256
-1.971064 -56.360851 29.299465
-1.759336 -57.879616 18.833906
-0.136921 -59.804134 14.711788
0.254677 -59.118122 12.708153
0.73568 -58.346729 10.758186
1.31666 -57.490803 8.878752
0.209595 -31.684747 46.718227
0.820099 -32.230308 47.277666
-0.347969 -31.184193 46.103632
-0.154722 -33.085751 46.164122
0.209595 -31.684747 46.718227
-4.966069 6.919287 36.992988
-4.607302 6.292314 38.121281
-5.29159 5.374963 36.434162
-4.966069 6.919287 36.992988
2.326804 -56.694438 48.346134
2.278023 -58.000776 48.643067
-3.718788 -37.449768 34.919367
-3.944439 -35.446316 34.949797
-3.936647 -37.182232 33.994866
0.964794 -71.989662 43.922073
0.899186 -71.956359 45.062179
1.011838 -71.995461 40.522878
1.028018 -72.00196 41.653146
1.085281 -70.711273 41.188835
1.044868 -71.970852 39.391702
1.011838 -71.995461 40.522878
1.029764 -70.685219 38.93215
1.044868 -71.970852 39.391702
1.010201 -66.684525 37.815762
1.028485 -68.040794 38.142491
1.12426 -66.699883 38.932327
0.92089 -65.32933 37.504704
0.825116 -66.670242 36.714867
1.010201 -66.684525 37.815762
-3.002773 -12.810679 43.433186
-2.595242 -13.485797 44.226452
-2.705206 -11.325309 44.090744
0.563432 -71.627598 49.63179
0.453898 -71.500382 50.766533
0.670759 -70.329762 50.26831
0.668924 -71.760639 48.481296
0.563432 -71.627598 49.63179
0.867812 -70.535458 47.996246
0.756443 -71.839119 47.343975
0.668924 -71.760639 48.481296
2.677306 -40.276478 48.882762
2.779144 -41.918369 49.080757
1.376902 -37.675795 47.536794
1.203219 -35.903862 47.429579
1.002381 -38.940899 47.038424
1.577719 -39.400305 47.637783
1.376902 -37.675795 47.536794
-1.443512 -36.852799 43.588293
-1.205322 -38.669545 43.639314
-1.027043 -37.232952 44.352429
-3.367185 -4.189486 42.668584
-2.984796 -4.904286 43.571169
-3.713528 -3.526348 41.763267
-3.642898 -5.670452 42.018881
-3.367185 -4.189486 42.668584
-4.470489 -0.071692 39.479668
-4.183163 1.43651 40.090843
-4.520598 2.058597 39.078972
2.049659 -60.76024 51.339012
2.235788 -59.556543 50.974152
1.91722 -61.890098 50.663944
1.869632 -61.978491 51.701717
2.049659 -60.76024 51.339012
1.213018 -49.166058 45.604648
0.994366 -47.646197 45.478115
1.839449 -53.558143 46.013952
1.642046 -52.117045 45.86965
1.565706 -53.331976 45.127433
1.954378 -54.95874 46.214596
1.839449 -53.558143 46.013952
1.882747 -56.169113 45.463966
2.074015 -56.354778 46.406826
1.954378 -54.95874 46.214596
-0.297399 -59.631922 34.602103
-0.296867 -58.169243 35.589136
-0.571384 -58.144815 34.531239
-0.044456 -61.077566 34.725027
-0.297399 -59.631922 34.602103
-2.200271 -19.881197 44.490059
-1.902014 -18.382786 45.139328
-2.343326 -17.766262 44.421349
-2.412506 -34.150003 41.984218
-2.279999 -32.60202 42.745628
-2.608144 -32.194285 41.932811
-2.525923 -35.657418 41.202209
-2.412506 -34.150003 41.984218
-4.81456 -15.438225 37.810866
-4.664793 -13.694034 38.544901
-4.956131 -13.222179 37.621426
-2.641491 -40.387738 38.596348
-2.63051 -38.776881 39.502283
-2.874714 -38.515337 38.592917
-2.638577 -41.954864 37.661207
-2.641491 -40.387738 38.596348
-2.557462 -46.814034 34.680394
-2.592907 -45.17452 35.700249
-2.812221 -45.030207 34.732228
-2.518999 -48.406324 33.642857
-2.299684 -48.550638 34.610878
-2.557462 -46.814034 34.680394
-1.70952 -59.173575 26.138999
-1.942451 -57.72841 27.210089
-2.009308 -57.614216 26.156743
-1.427574 -60.541804 25.130462
-1.70952 -59.173575 26.138999
-1.40555 -60.398898 24.063907
-1.427574 -60.541804 25.130462
-1.361785 -59.866115 20.915336
-1.36621 -60.062365 21.957459
-1.823404 -58.554949 21.947417
-1.263561 -59.644226 19.866845
-1.361785 -59.866115 20.915336
-1.700674 -57.596193 17.806109
-2.27315 -56.248452 18.906486
-2.214488 -55.965029 17.87869
-1.047832 -58.859934 16.766734
-1.106494 -59.143356 17.794531
-1.700674 -57.596193 17.806109
-0.889467 -58.558453 15.745051
-0.295287 -60.105615 15.733472
-1.047832 -58.859934 16.766734
-0.445652 -57.517832 12.728966
-0.595919 -57.888088 13.72702
-0.20515 -57.132136 11.753982
0.495178 -58.732426 11.733169
-0.445652 -57.517832 12.728966
0.589444 -55.850769 8.910346
0.300629 -56.294161 9.843502
1.65889 -57.024052 7.983053
0.589444 -55.850769 8.910346
-0.370966 -43.851971 43.748331
-0.671056 -42.16771 43.720502
0.683451 -68.951084 52.04512
0.444302 -70.01865 52.527698
0.566527 -68.767189 53.169765
1.003858 -34.088819 47.35022
0.820099 -32.230308 47.277666
0.602204 -35.401347 46.858076
1.203219 -35.903862 47.429579
1.003858 -34.088819 47.35022
-4.581867 4.192488 38.620316
-4.607302 6.292314 38.121281
-4.869194 2.684286 38.00914
-4.520598 2.058597 39.078972
-4.581867 4.192488 38.620316
-5.217524 3.241789 36.950085
-5.156254 1.107897 37.408741
-4.869194 2.684286 38.00914
-5.217524 3.241789 36.950085
-5.29159 5.374963 36.434162
2.216597 -59.410353 49.970551
2.235788 -59.556543 50.974152
2.231118 -59.314327 48.931938
2.111768 -60.575823 49.262626
2.216597 -59.410353 49.970551
2.173194 -59.166246 47.935142
2.231118 -59.314327 48.931938
2.278023 -58.000776 48.643067
-0.871198 -55.134829 35.506336
-0.566793 -55.210579 36.510351
-0.867139 -53.663271 36.498415
-0.851803 -56.639149 34.483677
-0.871198 -55.134829 35.506336
-0.571384 -58.144815 34.531239
-0.851803 -56.639149 34.483677
-5.058788 -19.000164 36.280648
-4.933471 -17.187647 37.049282
-4.853696 -21.215664 36.411434
-5.058788 -19.000164 36.280648
-4.679115 -23.411065 36.52496
-4.586464 -21.604324 37.3247
-4.853696 -21.215664 36.411434
-4.147276 -33.398457 34.942014
-4.377203 -31.315734 34.938202
-3.929417 -33.665993 35.866516
-4.147276 -33.398457 34.942014
-3.944439 -35.446316 34.949797
-2.217089 -55.65988 16.85154
-2.214488 -55.965029 17.87869
-1.544264 -56.985412 15.7621
-2.217089 -55.65988 16.85154
0.687745 -67.555168 53.768921
0.566527 -68.767189 53.169765
0.933167 -66.523212 53.323375
0.687745 -67.555168 53.768921
1.176054 -65.400498 52.888901
1.048563 -66.576908 52.252712
0.933167 -66.523212 53.323375
0.982796 -72.001724 42.788427
0.964794 -71.989662 43.922073
1.083458 -70.705711 43.452749
0.982796 -72.001724 42.788427
1.028018 -72.00196 41.653146
1.066485 -69.360908 38.532394
1.029764 -70.685219 38.93215
1.105822 -69.380462 39.658811
1.066485 -69.360908 38.532394
1.028485 -68.040794 38.142491
0.702302 -66.649674 35.602047
0.825116 -66.670242 36.714867
0.543684 -65.300781 35.305401
0.702302 -66.649674 35.602047
0.885568 -44.79808 46.081696
1.118673 -43.569992 46.686197
0.714948 -46.084753 45.402401
0.885568 -44.79808 46.081696
0.476328 -44.489919 45.301861
0.585125 -47.338036 44.69828
0.994366 -47.646197 45.478115
0.714948 -46.084753 45.402401
-0.089088 -45.490458 43.806736
0.02383 -44.138106 44.564161
-0.370966 -43.851971 43.748331
0.225847 -47.0944 43.843143
-0.089088 -45.490458 43.806736
0.505263 -48.655844 43.918858
0.585125 -47.338036 44.69828
0.225847 -47.0944 43.843143
0.450314 -49.947277 43.122357
0.809592 -50.190912 43.977493
0.505263 -48.655844 43.918858
0.425848 -51.304844 42.258339
0.450314 -49.947277 43.122357
0.4036 -52.64064 41.390278
0.732394 -52.818142 42.312931
0.425848 -51.304844 42.258339
0.08887 -52.525036 40.411822
0.395416 -54.038333 40.466414
0.4036 -52.64064 41.390278
-0.244389 -52.374944 39.466002
0.08887 -52.525036 40.411822
-0.566098 -52.283091 38.473238
-0.241024 -53.830875 38.495193
-0.244389 -52.374944 39.466002
-0.883541 -52.156498 37.507189
-0.566098 -52.283091 38.473238
-0.867139 -53.663271 36.498415
-0.883541 -52.156498 37.507189
-2.468939 -15.619509 44.319755
-2.595242 -13.485797 44.226452
-2.767196 -17.11792 43.670486
-2.343326 -17.766262 44.421349
-2.468939 -15.619509 44.319755
-3.934992 -38.964355 33.023066
-3.936647 -37.182232 33.994866
-3.910849 -40.696348 32.013284
-3.686853 -40.917677 32.954654
-3.934992 -38.964355 33.023066
-3.887991 -42.459024 30.98476
-3.910849 -40.696348 32.013284
-3.841723 -44.165981 29.923203
-3.616442 -44.356627 30.883315
-3.887991 -42.459024 30.98476
-3.783756 -45.887116 28.840986
-3.841723 -44.165981 29.923203
-3.698492 -47.546654 27.736742
-3.484909 -47.723122 28.717514
-3.783756 -45.887116 28.840986
-3.582758 -49.204851 26.611993
-3.698492 -47.546654 27.736742
-3.431547 -50.794981 25.482812
-3.248434 -50.97279 26.484089
-3.582758 -49.204851 26.611993
-3.228464 -52.371035 24.336335
-3.431547 -50.794981 25.482812
0.339709 -71.301541 51.919086
0.444302 -70.01865 52.527698
0.339709 -71.301541 51.919086
0.453898 -71.500382 50.766533
0.844124 -71.916504 46.198445
0.756443 -71.839119 47.343975
1.010394 -70.653793 45.72266
0.899186 -71.956359 45.062179
0.844124 -71.916504 46.198445
2.396275 -43.09385 48.605213
2.779144 -41.918369 49.080757
1.928038 -42.718186 47.907511
2.396275 -43.09385 48.605213
2.108959 -39.817418 48.279968
2.677306 -40.276478 48.882762
1.734437 -41.082521 47.781597
2.108959 -39.817418 48.279968
1.577719 -39.400305 47.637783
1.396798 -42.301073 47.265326
1.928038 -42.718186 47.907511
1.734437 -41.082521 47.781597
0.925072 -41.934328 46.560283
1.118673 -43.569992 46.686197
1.396798 -42.301073 47.265326
-0.936458 -40.442749 43.669349
-0.671056 -42.16771 43.720502
-0.523451 -40.774659 44.454603
-0.936458 -40.442749 43.669349
-1.205322 -38.669545 43.639314
-4.938734 -9.266028 38.102545
-4.623401 -9.815449 39.05886
-4.755771 -7.60349 38.805944
-5.122189 -10.994414 37.398983
-4.938734 -9.266028 38.102545
-4.956131 -13.222179 37.621426
-5.122189 -10.994414 37.398983
-2.811247 -9.189068 43.955215
-2.705206 -11.325309 44.090744
-2.903156 -7.030767 43.768575
-2.984796 -4.904286 43.571169
-3.204647 -8.491891 43.110838
-2.811247 -9.189068 43.955215
-2.903156 -7.030767 43.768575
-3.831835 0.752255 41.111365
-4.183163 1.43651 40.090843
-3.785435 -1.369581 41.452255
-3.831835 0.752255 41.111365
-4.061148 -2.850547 40.802551
-3.713528 -3.526348 41.763267
-3.785435 -1.369581 41.452255
-4.856426 -5.415862 38.52379
-4.755771 -7.60349 38.805944
-4.541093 -5.965283 39.480106
-5.189247 -4.860296 37.519215
-4.856426 -5.415862 38.52379
-4.974569 -3.222089 38.193376
-5.526563 -4.371341 36.519523
-5.189247 -4.860296 37.519215
-5.405987 -0.500561 36.769244
-5.057657 -1.058064 37.828299
-5.156254 1.107897 37.408741
-5.662059 -2.177273 36.137876
-5.405987 -0.500561 36.769244
-5.526563 -4.371341 36.519523
-5.662059 -2.177273 36.137876
1.421536 -64.304193 52.481258
1.176054 -65.400498 52.888901
1.644408 -63.131271 52.085464
1.869632 -61.978491 51.701717
1.514321 -64.281271 51.422443
1.421536 -64.304193 52.481258
1.644408 -63.131271 52.085464
1.464898 -50.661757 45.709217
1.213018 -49.166058 45.604648
1.116423 -50.395178 44.878563
1.464898 -50.661757 45.709217
1.642046 -52.117045 45.86965
2.182873 -56.49855 47.401863
2.326804 -56.694438 48.346134
2.111241 -57.708923 46.651234
2.182873 -56.49855 47.401863
2.074015 -56.354778 46.406826
0.38729 -63.907697 35.078209
0.543684 -65.300781 35.305401
0.57941 -63.921965 36.176617
0.178492 -62.513832 34.869739
0.200068 -61.092615 35.804712
-0.044456 -61.077566 34.725027
0.38729 -63.907697 35.078209
0.178492 -62.513832 34.869739
-1.397686 -19.043101 45.818171
-1.902014 -18.382786 45.139328
-1.232633 -21.123945 45.852882
-1.397686 -19.043101 45.818171
-1.074505 -23.201159 45.910518
-1.232633 -21.123945 45.852882
-1.600832 -22.574936 45.265675
-0.89839 -25.239815 45.945568
-1.074505 -23.201159 45.910518
-0.724631 -27.260008 46.000889
-0.89839 -25.239815 45.945568
-1.268946 -26.672343 45.378631
-0.539419 -29.237862 46.045845
-0.724631 -27.260008 46.000889
-0.903736 -30.638866 45.491739
-0.347969 -31.184193 46.103632
-0.539419 -29.237862 46.045845
-1.882895 -33.079053 43.494362
-2.078533 -31.123334 43.442955
-2.279999 -32.60202 42.745628
-1.674797 -34.986973 43.549221
-1.473332 -33.508286 44.246548
-1.882895 -33.079053 43.494362
-1.443512 -36.852799 43.588293
-1.674797 -34.986973 43.549221
-4.642133 -17.659502 37.972758
-4.81456 -15.438225 37.810866
-4.933471 -17.187647 37.049282
-4.474428 -25.588459 36.606898
-4.679115 -23.411065 36.52496
-4.334614 -29.497664 35.817152
-4.377203 -31.315734 34.938202
-4.298756 -27.738154 36.681696
-4.334614 -29.497664 35.817152
-4.096395 -29.858625 36.723278
-4.23621 -25.94942 37.513024
-4.474428 -25.588459 36.606898
-4.298756 -27.738154 36.681696
-2.587463 -37.238523 40.365934
-2.525923 -35.657418 41.202209
-2.802192 -35.323374 40.335127
-2.587463 -37.238523 40.365934
-2.63051 -38.776881 39.502283
-2.619562 -43.587114 36.693758
-2.638577 -41.954864 37.661207
-2.866681 -41.758444 36.719532
-2.619562 -43.587114 36.693758
-2.592907 -45.17452 35.700249
-2.017378 -50.247704 34.562077
-2.299684 -48.550638 34.610878
-1.984278 -51.794962 33.522686
-2.017378 -50.247704 34.562077
-1.930193 -53.370643 32.457644
-1.984278 -51.794962 33.522686
-2.207136 -51.71861 32.508299
-1.878694 -54.895544 31.408877
-1.930193 -53.370643 32.457644
-1.787701 -56.428824 30.336982
-1.878694 -54.895544 31.408877
-2.062057 -54.827571 30.371361
-1.686813 -57.902878 29.303179
-1.787701 -56.428824 30.336982
-1.806864 -57.82431 28.245905
-2.106651 -56.264951 28.263649
-1.942451 -57.72841 27.210089
-1.686813 -57.902878 29.303179
-1.806864 -57.82431 28.245905
-1.431276 -60.244807 23.01585
-1.40555 -60.398898 24.063907
-1.802103 -58.905289 24.037596
-1.431276 -60.244807 23.01585
-1.36621 -60.062365 21.957459
-2.977138 -53.87204 23.208291
-2.845897 -54.063925 24.226864
-3.228464 -52.371035 24.336335
-2.653389 -55.350601 22.068594
-2.977138 -53.87204 23.208291
-2.265592 -56.747486 20.971831
-2.206776 -56.961815 22.002057
-2.653389 -55.350601 22.068594
-2.235771 -56.507944 19.936137
-2.27315 -56.248452 18.906486
-1.789157 -58.119158 19.8696
-2.265592 -56.747486 20.971831
-2.235771 -56.507944 19.936137
-1.233739 -59.404684 18.831151
-1.263561 -59.644226 19.866845
-1.789157 -58.119158 19.8696
-1.233739 -59.404684 18.831151
-1.106494 -59.143356 17.794531
0.540987 -61.270632 14.770433
-0.295287 -60.105615 15.733472
0.792646 -60.960459 13.755801
0.540987 -61.270632 14.770433
-0.791718 -58.231094 14.728838
-0.889467 -58.558453 15.745051
-1.544264 -56.985412 15.7621
0.058878 -59.461128 13.709971
-0.791718 -58.231094 14.728838
-0.595919 -57.888088 13.72702
0.988445 -60.617452 12.753984
0.792646 -60.960459 13.755801
0.058878 -59.461128 13.709971
1.269729 -60.266437 11.7664
0.988445 -60.617452 12.753984
1.510231 -59.880741 10.791417
1.269729 -60.266437 11.7664
0.495178 -58.732426 11.733169
1.821943 -59.48377 9.837685
1.510231 -59.880741 10.791417
0.01014 -56.722124 10.783219
-0.20515 -57.132136 11.753982
1.02617 -57.918766 9.818469
0.01014 -56.722124 10.783219
0.300629 -56.294161 9.843502
2.112433 -59.055807 8.897968
1.821943 -59.48377 9.837685
1.02617 -57.918766 9.818469
2.452926 -58.609379 7.985397
2.112433 -59.055807 8.897968
2.452926 -58.609379 7.985397
1.65889 -57.024052 7.983053
3 1 39 37
3 1 41 39
3 0 44 42
3 2 47 45
3 2 49 47
3 137 50 138
3 139 52 140
3 141 140 50
3 139 140 141
3 142 53 143
3 145 144 53
3 146 55 147
3 3 58 56
3 3 60 58
3 3 62 60
3 4 66 64
3 4 68 66
3 5 148 150
3 148 71 149
3 148 149 150
3 5 73 71
3 5 75 73
3 6 78 76
3 6 80 78
3 6 82 80
3 7 151 152
3 8 153 155
3 155 154 38
3 153 154 155
3 8 156 157
3 8 158 159
3 9 160 162
3 162 161 40
3 160 161 162
3 9 163 165
3 163 83 164
3 163 164 165
3 10 85 84
3 13 166 168
3 166 87 167
3 166 167 168
3 15 88 43
3 15 89 88
3 17 169 171
3 171 170 46
3 169 170 171
3 17 172 173
3 17 174 176
3 174 91 175
3 174 175 176
3 18 92 48
3 18 93 92
3 177 94 178
3 19 179 180
3 19 181 183
3 181 95 182
3 181 182 183
3 19 96 95
3 20 97 51
3 20 184 186
3 186 185 97
3 184 185 186
3 187 99 188
3 189 100 190
3 191 190 99
3 189 190 191
3 21 192 194
3 192 101 193
3 192 193 194
3 21 102 101
3 21 103 102
3 22 195 196
3 22 197 199
3 197 104 198
3 197 198 199
3 22 105 104
3 23 106 54
3 23 107 106
3 11 200 201
3 24 202 204
3 204 203 57
3 202 203 204
3 24 205 206
3 24 207 209
3 207 108 208
3 207 208 209
3 25 109 59
3 25 110 109
3 25 111 110
3 26 112 61
3 26 113 112
3 12 114 86
3 210 115 211
3 212 211 63
3 210 211 212
3 214 213 115
3 14 215 217
3 215 116 216
3 215 216 217
3 27 117 65
3 27 118 117
3 27 119 118
3 28 218 220
3 220 219 67
3 218 219 220
3 28 221 222
3 223 120 224
3 225 224 98
3 223 224 225
3 29 121 69
3 29 122 121
3 30 123 70
3 30 124 123
3 30 125 124
3 31 126 72
3 31 226 228
3 228 227 126
3 226 227 228
3 31 229 230
3 32 231 233
3 233 232 74
3 231 232 233
3 32 234 236
3 234 127 235
3 234 235 236
3 16 128 90
3 33 129 77
3 33 130 129
3 33 131 130
3 34 237 239
3 239 238 79
3 237 238 239
3 34 240 241
3 34 242 243
3 35 244 246
3 246 245 81
3 244 245 246
3 35 247 248
3 36 249 251
3 249 132 250
3 249 250 251
3 36 252 254
3 254 253 132
3 252 253 254
3 36 255 257
3 255 133 256
3 255 256 257
3 258 134 259
3 260 135 261
3 262 261 134
3 260 261 262
3 263 136 264
3 266 265 136
3 37 38 7
3 39 38 37
3 39 8 38
3 39 40 8
3 41 40 39
3 41 9 40
3 268 267 10
3 42 43 13
3 44 43 42
3 44 15 43
3 45 269 271
3 269 46 270
3 269 270 271
3 47 46 45
3 47 17 46
3 47 48 17
3 49 48 47
3 49 18 48
3 50 272 273
3 50 274 276
3 274 19 275
3 274 275 276
3 50 51 19
3 52 51 50
3 52 20 51
3 53 277 278
3 53 279 281
3 279 21 280
3 279 280 281
3 53 282 284
3 284 283 21
3 282 283 284
3 286 285 53
3 287 22 288
3 289 54 290
3 291 290 22
3 289 290 291
3 55 292 294
3 292 54 293
3 292 293 294
3 55 23 54
3 56 57 11
3 58 57 56
3 58 24 57
3 58 59 24
3 60 59 58
3 60 25 59
3 60 61 25
3 62 61 60
3 62 26 61
3 295 63 296
3 297 296 12
3 295 296 297
3 298 63 299
3 301 300 63
3 64 65 14
3 66 65 64
3 66 27 65
3 66 67 27
3 68 67 66
3 68 28 67
3 302 69 303
3 304 69 305
3 306 29 307
3 308 307 69
3 306 307 308
3 309 70 310
3 71 311 313
3 311 70 312
3 311 312 313
3 71 30 70
3 71 72 30
3 73 72 71
3 73 31 72
3 73 74 31
3 75 74 73
3 75 32 74
3 76 77 16
3 78 77 76
3 78 33 77
3 78 79 33
3 80 79 78
3 80 34 79
3 80 81 34
3 82 81 80
3 82 35 81
3 314 36 315
3 317 316 36
3 318 45 319
3 320 45 321
3 322 2 323
3 324 323 45
3 322 323 324
3 38 325 327
3 327 326 7
3 325 326 327
3 329 328 38
3 40 330 332
3 332 331 8
3 330 331 332
3 334 333 40
3 83 335 336
3 83 337 338
3 84 339 340
3 85 341 343
3 343 342 84
3 341 342 343
3 85 344 346
3 344 11 345
3 344 345 346
3 347 85 348
3 349 348 10
3 347 348 349
3 350 85 351
3 352 11 353
3 354 353 85
3 352 353 354
3 355 56 356
3 357 356 11
3 355 356 357
3 358 56 359
3 360 3 361
3 362 361 56
3 360 361 362
3 363 86 364
3 365 364 3
3 363 364 365
3 366 86 367
3 368 12 369
3 370 369 86
3 368 369 370
3 371 12 372
3 374 373 12
3 87 375 376
3 87 377 379
3 377 14 378
3 377 378 379
3 43 87 13
3 88 87 43
3 88 14 87
3 88 64 14
3 89 64 88
3 89 4 64
3 380 5 381
3 382 90 383
3 384 383 5
3 382 383 384
3 385 90 386
3 387 16 388
3 389 388 90
3 387 388 389
3 390 16 391
3 392 76 393
3 394 393 16
3 392 393 394
3 395 76 396
3 397 6 398
3 399 398 76
3 397 398 399
3 401 400 6
3 46 402 403
3 405 404 46
3 91 406 407
3 91 408 410
3 408 7 409
3 408 409 410
3 48 91 17
3 92 91 48
3 92 7 91
3 92 37 7
3 93 37 92
3 93 1 37
3 94 411 412
3 94 413 414
3 415 94 416
3 95 417 419
3 417 94 418
3 417 418 419
3 95 420 422
3 422 421 94
3 420 421 422
3 95 423 425
3 423 84 424
3 423 424 425
3 96 84 95
3 96 10 84
3 51 96 19
3 97 96 51
3 97 10 96
3 97 426 428
3 428 427 10
3 426 427 428
3 430 429 97
3 431 98 432
3 433 432 0
3 431 432 433
3 434 98 435
3 437 436 98
3 438 13 439
3 99 440 441
3 99 442 444
3 442 13 443
3 442 443 444
3 99 42 13
3 100 42 99
3 100 0 42
3 101 445 446
3 101 447 448
3 101 449 451
3 449 100 450
3 449 450 451
3 102 100 101
3 102 0 100
3 102 452 454
3 454 453 0
3 452 453 454
3 103 455 457
3 457 456 102
3 455 456 457
3 103 458 459
3 460 103 461
3 462 461 21
3 460 461 462
3 463 103 464
3 466 465 103
3 467 2 468
3 104 469 470
3 104 471 473
3 471 2 472
3 471 472 473
3 104 49 2
3 105 49 104
3 105 18 49
3 54 105 22
3 106 105 54
3 106 18 105
3 106 93 18
3 107 93 106
3 107 1 93
3 57 474 476
3 476 475 11
3 474 475 476
3 478 477 57
3 479 55 480
3 108 481 483
3 481 55 482
3 481 482 483
3 108 23 55
3 59 108 24
3 109 108 59
3 109 23 108
3 109 107 23
3 110 107 109
3 110 1 107
3 110 41 1
3 111 41 110
3 111 9 41
3 61 111 25
3 112 111 61
3 112 9 111
3 112 83 9
3 113 83 112
3 113 484 486
3 486 485 83
3 484 485 486
3 86 62 3
3 114 62 86
3 114 26 62
3 63 114 12
3 115 114 63
3 115 26 114
3 115 113 26
3 487 113 488
3 489 488 115
3 487 488 489
3 491 490 113
3 116 492 493
3 116 494 495
3 65 116 14
3 117 116 65
3 117 496 498
3 498 497 116
3 496 497 498
3 117 499 500
3 118 501 503
3 503 502 117
3 501 502 503
3 118 504 505
3 118 506 508
3 506 52 507
3 506 507 508
3 119 52 118
3 119 20 52
3 67 119 27
3 509 119 510
3 511 510 67
3 509 510 511
3 512 20 513
3 514 513 119
3 512 513 514
3 516 515 20
3 98 44 0
3 120 44 98
3 120 15 44
3 69 517 519
3 517 120 518
3 517 518 519
3 121 120 69
3 121 15 120
3 121 89 15
3 122 89 121
3 122 4 89
3 520 29 521
3 70 522 523
3 123 524 526
3 526 525 70
3 524 525 526
3 123 527 529
3 527 29 528
3 527 528 529
3 123 122 29
3 124 122 123
3 124 4 122
3 124 68 4
3 125 68 124
3 125 28 68
3 72 125 30
3 126 125 72
3 126 28 125
3 126 530 532
3 532 531 28
3 530 531 532
3 534 533 126
3 74 535 537
3 537 536 31
3 535 536 537
3 539 538 74
3 127 540 541
3 127 542 543
3 90 75 5
3 128 75 90
3 128 32 75
3 77 128 16
3 129 128 77
3 129 32 128
3 129 127 32
3 130 127 129
3 130 544 546
3 546 545 127
3 544 545 546
3 130 547 548
3 131 549 551
3 551 550 130
3 549 550 551
3 131 552 553
3 79 131 33
3 554 131 555
3 556 555 79
3 554 555 556
3 558 557 131
3 81 559 561
3 561 560 34
3 559 560 561
3 563 562 81
3 564 82 565
3 566 565 6
3 564 565 566
3 567 82 568
3 569 35 570
3 571 570 82
3 569 570 571
3 132 572 573
3 132 574 576
3 574 35 575
3 574 575 576
3 132 577 579
3 579 578 35
3 577 578 579
3 581 580 132
3 133 582 583
3 133 584 585
3 586 133 587
3 588 587 36
3 586 587 588
3 134 589 591
3 589 133 590
3 589 590 591
3 134 592 594
3 594 593 133
3 592 593 594
3 134 595 596
3 135 597 599
3 599 598 134
3 597 598 599
3 135 600 601
3 602 135 603
3 136 604 606
3 604 135 605
3 604 605 606
3 136 607 609
3 609 608 135
3 607 608 609
3 136 610 611
3 613 612 136
