ply
format ascii 1.0
element vertex 363
property float x
property float y
property float z
element face 363
property list uchar int vertex_index
end_header
-40.031567 -81.838455 -26.799374
-38.808308 -51.995644 -33.808342
-39.614773 -67.098618 -30.230389
-39.472492 -94.853226 -23.750153
-48.015984 -63.967682 -30.39204
-47.339684 -49.824242 -35.877884
-45.519737 -35.388405 -40.111782
-35.159283 -90.920837 -25.160561
-39.99054 -74.552475 -28.485291
-39.325001 -100.139297 -22.292507
-51.869286 -56.133366 -32.957771
-47.807648 -56.89962 -33.286873
-51.591667 -49.122726 -36.217682
-43.805252 -28.423584 -42.05151
-38.653214 -44.428875 -35.555264
-39.132774 -59.580032 -32.019409
-39.771881 -88.699387 -25.209599
-44.033661 -79.662048 -26.066391
-47.922935 -70.975952 -27.338482
-44.161335 -72.63295 -28.443813
-43.959484 -65.409531 -30.794994
-43.489864 -58.176537 -33.026566
-42.934227 -50.916077 -35.078606
-46.61924 -42.645618 -38.11797
-42.367123 -43.577065 -36.940136
-41.616817 -36.332886 -38.695103
-40.321873 -29.707129 -40.465485
-37.712433 -86.438629 -25.983738
-35.375107 -87.406815 -25.598793
-37.822708 -82.866028 -26.624626
-37.84573 -79.192642 -27.301949
-40.058147 -78.229797 -27.633671
-51.771389 -52.636692 -34.635296
-38.723896 -48.196426 -34.68692
-39.367737 -63.346973 -31.121254
-37.1488 -96.213943 -24.285053
-37.338161 -93.142319 -24.817989
-39.60944 -91.878464 -24.465717
-43.895016 -83.001541 -24.909496
-49.942848 -63.450508 -29.94405
-49.869881 -66.919418 -28.261997
-48.006302 -67.492165 -28.873825
-46.08091 -71.749718 -27.989323
-46.096432 -68.201111 -29.353718
-44.103092 -69.028778 -29.629597
-46.029255 -64.628609 -30.694824
-47.603073 -53.368011 -34.626476
-45.677326 -57.488861 -33.242622
-45.423923 -53.921787 -34.424286
-43.213242 -54.555336 -34.077526
-45.136673 -50.339893 -35.534389
-47.599281 -35.004456 -40.838531
-48.268661 -38.645279 -39.762794
-46.130081 -39.012917 -39.133739
-44.457973 -43.094299 -37.550652
-44.03315 -39.450417 -38.483475
-42.035294 -39.918503 -37.822285
-43.509125 -35.844093 -39.39452
-41.999645 -29.041691 -41.227821
-37.777153 -75.450378 -28.015121
-39.834572 -70.836029 -29.351192
-39.379051 -97.608826 -23.039459
-49.943298 -59.952404 -31.593288
-47.948051 -60.432194 -31.869858
-49.869194 -56.445862 -33.184135
-49.721592 -52.935581 -34.69458
-49.499176 -49.412773 -36.108566
-44.755566 -31.831545 -41.078201
-38.540241 -40.742016 -36.422375
-38.941479 -55.795216 -32.917664
-34.90498 -94.272171 -24.772121
-37.538757 -89.875107 -25.381481
-39.925617 -85.341263 -25.988773
-41.487617 -100.659058 -20.062416
-41.525909 -98.459702 -21.066402
-41.555149 -96.039764 -21.981678
-41.608982 -93.395737 -22.860226
-41.705147 -90.528519 -23.744316
-41.838745 -87.448486 -24.659527
-41.984032 -84.177872 -25.613697
-42.103577 -80.750168 -26.601097
-45.991653 -75.237541 -26.621605
-44.132774 -76.191071 -27.250572
-42.160851 -77.206116 -27.609272
-42.131496 -73.587456 -28.625439
-42.009747 -69.929962 -29.640057
-41.808842 -66.257858 -30.647121
-45.884697 -61.055489 -31.995808
-43.746864 -61.791588 -31.930073
-41.556187 -62.581593 -31.642246
-41.285271 -58.899746 -32.620686
-41.026424 -55.204754 -33.576778
-40.798229 -51.490879 -34.50547
-51.317375 -45.579865 -37.693104
-49.194275 -45.862263 -37.41927
-48.791496 -42.272415 -38.631672
-47.01553 -46.252678 -37.038914
-44.818062 -46.73082 -36.573452
-42.656593 -47.253365 -36.030346
-40.600845 -47.762451 -35.405106
-40.412659 -44.040535 -36.279976
-40.191582 -40.366791 -37.140934
-39.881889 -36.803978 -38.002529
-42.844868 -32.344864 -40.305279
-41.061142 -32.897598 -39.574657
-39.426228 -33.433556 -38.876026
-37.924175 -52.181233 -33.396271
-37.926285 -54.124803 -32.956007
-38.766102 -50.096035 -34.247631
-37.881969 -50.281624 -33.83556
-37.924175 -52.181233 -33.396271
-38.531551 -67.47179 -29.892126
-38.62415 -69.380867 -29.497915
-39.491255 -65.222796 -30.675821
-38.408034 -65.595968 -30.337559
-38.531551 -67.47179 -29.892126
-38.310646 -95.533585 -24.017603
-37.073721 -97.643318 -24.022463
-38.235567 -96.96296 -23.755012
-33.922999 -91.348145 -24.873072
-33.75717 -93.067902 -24.756394
-34.176105 -87.791764 -25.242199
-35.448181 -85.583916 -25.844949
-38.110872 -100.924255 -22.747175
-38.078015 -102.128875 -22.423746
-39.352026 -98.874061 -22.665983
-38.137897 -99.659019 -23.120651
-38.110872 -100.924255 -22.747175
-51.880432 -57.874278 -32.081634
-52.845452 -56.035347 -32.78965
-50.906292 -58.042885 -32.27553
-50.917439 -59.783797 -31.399393
-51.880432 -57.874278 -32.081634
-37.887324 -44.560739 -35.154821
-37.868073 -46.46451 -34.711208
-38.596728 -42.585445 -35.98882
-37.830837 -42.71731 -35.588377
-37.887324 -44.560739 -35.154821
-38.126452 -59.858343 -31.625475
-38.198276 -61.791 -31.198788
-39.037126 -57.687624 -32.468536
-38.030804 -57.965935 -32.074602
-38.126452 -59.858343 -31.625475
-34.777691 -95.853546 -24.597412
-33.461413 -96.371147 -24.471947
-42.492216 -98.687005 -19.837372
-42.457542 -99.736687 -19.263689
-42.511362 -97.587326 -20.339365
-41.506763 -99.55938 -20.564409
-42.492216 -98.687005 -19.837372
-42.562677 -93.96135 -21.83918
-42.543467 -95.223679 -21.327292
-42.589594 -92.639336 -22.278454
-41.582065 -94.71775 -22.420952
-42.562677 -93.96135 -21.83918
-42.729513 -88.348953 -23.769611
-42.673132 -89.832016 -23.235971
-42.796312 -86.808937 -24.227217
-41.771946 -88.988503 -24.201922
-42.729513 -88.348953 -23.769611
-48.828651 -70.650292 -26.956657
-49.802124 -68.622024 -27.418415
-48.896408 -68.947685 -27.800239
-47.852539 -72.677048 -26.57499
-48.828651 -70.650292 -26.956657
-46.957294 -73.106746 -26.980044
-46.886898 -74.807842 -26.216551
-47.852539 -72.677048 -26.57499
-51.122757 -43.787945 -38.377291
-52.156525 -43.696636 -38.526668
-50.061207 -43.929144 -38.240374
-50.255825 -45.721064 -37.556187
-51.122757 -43.787945 -38.377291
-39.551287 -30.029853 -40.111971
-39.103465 -31.893067 -39.317242
-39.87405 -31.570343 -39.670755
-36.671982 -83.313523 -26.357866
-35.448181 -85.583916 -25.844949
-36.598907 -85.136421 -26.111709
-37.834219 -81.029335 -26.963287
-36.683492 -81.47683 -26.696528
-36.671982 -83.313523 -26.357866
-39.305582 -101.291199 -21.873895
-38.078015 -102.128875 -22.423746
-52.812502 -54.293232 -33.70253
-52.845452 -56.035347 -32.78965
-52.763554 -52.544895 -34.541292
-51.820338 -54.385029 -33.796533
-52.812502 -54.293232 -33.70253
-52.68968 -50.789465 -35.411407
-52.763554 -52.544895 -34.541292
-52.599819 -49.032482 -36.202601
-51.681528 -50.879709 -35.426489
-52.68968 -50.789465 -35.411407
-37.903414 -48.348286 -34.277037
-37.881969 -50.281624 -33.83556
-38.688555 -46.312651 -35.121092
-37.868073 -46.46451 -34.711208
-37.903414 -48.348286 -34.277037
-38.315758 -63.67447 -30.74971
-38.408034 -65.595968 -30.337559
-39.250255 -61.463503 -31.570332
-38.198276 -61.791 -31.198788
-38.315758 -63.67447 -30.74971
-35.789198 -98.302368 -24.186998
-37.073721 -97.643318 -24.022463
-35.899601 -96.824432 -24.353878
-35.789198 -98.302368 -24.186998
-37.243481 -94.678131 -24.551521
-35.994281 -95.28862 -24.620346
-35.899601 -96.824432 -24.353878
-44.79571 -82.427536 -24.437008
-43.824448 -84.585465 -24.352201
-44.873714 -80.810867 -25.091185
-44.79571 -82.427536 -24.437008
-44.943037 -79.14112 -25.669632
-43.964338 -81.331795 -25.487944
-44.873714 -80.810867 -25.091185
-49.906364 -65.184963 -29.103023
-50.855835 -64.994873 -28.832971
-50.892319 -63.260418 -29.673998
-47.933971 -36.824867 -40.300663
-48.983265 -36.679108 -40.65062
-48.648574 -34.858696 -41.188488
-42.320906 -27.150157 -42.131022
-42.902449 -28.732638 -41.639665
-43.223709 -26.841104 -42.542866
-41.470157 -27.537794 -41.691829
-42.320906 -27.150157 -42.131022
-40.631271 -27.870513 -41.310662
-41.160759 -29.37441 -40.846653
-41.470157 -27.537794 -41.691829
-39.844286 -28.286874 -40.907703
-40.631271 -27.870513 -41.310662
-34.030911 -89.591133 -25.092188
-33.922999 -91.348145 -24.873072
-35.267195 -89.163826 -25.379677
-34.030911 -89.591133 -25.092188
-34.176105 -87.791764 -25.242199
-36.714107 -79.603782 -26.971069
-36.683492 -81.47683 -26.696528
-36.679819 -77.732651 -27.327655
-36.714107 -79.603782 -26.971069
-37.811442 -77.32151 -27.658535
-36.670536 -75.823082 -27.63212
-36.679819 -77.732651 -27.327655
-37.70534 -73.556747 -28.390282
-36.670536 -75.823082 -27.63212
-38.734049 -71.249572 -29.058317
-37.70534 -73.556747 -28.390282
-38.805863 -73.143203 -28.683157
-39.724672 -68.967323 -29.79079
-38.62415 -69.380867 -29.497915
-38.734049 -71.249572 -29.058317
-38.188846 -98.340759 -23.399666
-38.137897 -99.659019 -23.120651
-39.425771 -96.231026 -23.394806
-38.235567 -96.96296 -23.755012
-38.188846 -98.340759 -23.399666
-50.917214 -61.532849 -30.574774
-50.892319 -63.260418 -29.673998
-49.943073 -61.701456 -30.768669
-50.917214 -61.532849 -30.574774
-50.917439 -59.783797 -31.399393
-48.200512 -33.035903 -41.768242
-48.648574 -34.858696 -41.188488
-47.177526 -33.201504 -41.362942
-48.200512 -33.035903 -41.768242
-46.137754 -33.393479 -40.999567
-46.559509 -35.19643 -40.475156
-47.177526 -33.201504 -41.362942
-45.755669 -31.615049 -41.482776
-45.137652 -33.609975 -40.594991
-46.137754 -33.393479 -40.999567
-45.234327 -29.865422 -42.005177
-45.755669 -31.615049 -41.482776
-44.75917 -28.161441 -42.491831
-44.280409 -30.127564 -41.564856
-45.234327 -29.865422 -42.005177
-44.128842 -26.508865 -43.016739
-44.75917 -28.161441 -42.491831
-43.223709 -26.841104 -42.542866
-44.128842 -26.508865 -43.016739
-37.813503 -40.868997 -36.039029
-37.830837 -42.71731 -35.588377
-38.429985 -38.971716 -36.861708
-37.813503 -40.868997 -36.039029
-37.992871 -56.02459 -32.510668
-38.030804 -57.965935 -32.074602
-38.874893 -53.89543 -33.363003
-37.926285 -54.124803 -32.956007
-37.992871 -56.02459 -32.510668
-33.630019 -94.743569 -24.562174
-33.461413 -96.371147 -24.471947
-35.032132 -92.596504 -24.966341
-33.75717 -93.067902 -24.756394
-33.630019 -94.743569 -24.562174
-36.121571 -93.707245 -24.795055
-34.777691 -95.853546 -24.597412
-35.994281 -95.28862 -24.620346
-41.445498 -101.649506 -19.49094
-42.457542 -99.736687 -19.263689
-40.357681 -102.588394 -20.26683
-41.445498 -101.649506 -19.49094
-40.38689 -101.551079 -20.75885
-40.357681 -102.588394 -20.26683
-40.406036 -100.451401 -21.260843
-40.38689 -101.551079 -20.75885
-41.506763 -99.55938 -20.564409
-40.425455 -99.299499 -21.679454
-39.305582 -101.291199 -21.873895
-40.406036 -100.451401 -21.260843
-42.528847 -96.433648 -20.869653
-42.511362 -97.587326 -20.339365
-41.540529 -97.249733 -21.52404
-42.528847 -96.433648 -20.869653
-42.543467 -95.223679 -21.327292
-42.62505 -91.265625 -22.793926
-42.589594 -92.639336 -22.278454
-41.657064 -91.962128 -23.302271
-42.62505 -91.265625 -22.793926
-42.673132 -89.832016 -23.235971
-42.866881 -85.225014 -24.784512
-42.796312 -86.808937 -24.227217
-43.824448 -84.585465 -24.352201
-50.797854 -66.695835 -27.921658
-50.855835 -64.994873 -28.832971
-50.797854 -66.695835 -27.921658
-49.802124 -68.622024 -27.418415
-45.922033 -76.928867 -25.947239
-46.886898 -74.807842 -26.216551
-45.012657 -77.449794 -26.343998
-44.943037 -79.14112 -25.669632
-45.922033 -76.928867 -25.947239
-52.477211 -47.260796 -37.02228
-52.599819 -49.032482 -36.202601
-52.340065 -45.489365 -37.759991
-52.156525 -43.696636 -38.526668
-51.454521 -47.351295 -36.955393
-52.477211 -47.260796 -37.02228
-52.340065 -45.489365 -37.759991
-49.333227 -38.506939 -40.049166
-48.983265 -36.679108 -40.65062
-49.594645 -40.320507 -39.483604
-49.333227 -38.506939 -40.049166
-48.530079 -40.458847 -39.197233
-49.859818 -42.13422 -38.846575
-49.594645 -40.320507 -39.483604
-48.992885 -44.067339 -38.025471
-50.061207 -43.929144 -38.240374
-49.859818 -42.13422 -38.846575
-39.100809 -37.002697 -37.651785
-38.429985 -38.971716 -36.861708
-39.211065 -38.772997 -37.212452
-38.872979 -35.317486 -38.088533
-39.100809 -37.002697 -37.651785
-39.654059 -35.118767 -38.439278
-38.68045 -33.659951 -38.537939
-38.872979 -35.317486 -38.088533
-38.68045 -33.659951 -38.537939
-39.103465 -31.893067 -39.317242
-39.551287 -30.029853 -40.111971
-39.844286 -28.286874 -40.907703
3 0 29 27
3 0 31 29
3 1 106 107
3 1 108 110
3 108 33 109
3 108 109 110
3 2 111 112
3 2 113 115
3 113 34 114
3 113 114 115
3 3 116 118
3 116 35 117
3 116 117 118
3 3 37 35
3 4 41 39
3 4 43 41
3 4 45 43
3 5 48 46
3 5 50 48
3 6 53 51
3 6 55 53
3 6 57 55
3 7 119 120
3 122 121 28
3 8 59 30
3 8 60 59
3 9 123 124
3 9 125 127
3 125 61 126
3 125 126 127
3 10 128 129
3 10 130 132
3 130 62 131
3 130 131 132
3 10 64 62
3 12 65 32
3 12 66 65
3 14 133 134
3 14 135 137
3 135 68 136
3 135 136 137
3 15 138 139
3 15 140 142
3 140 69 141
3 140 141 142
3 143 70 144
3 16 71 36
3 16 72 71
3 145 73 146
3 147 74 148
3 149 148 73
3 147 148 149
3 150 75 151
3 152 76 153
3 154 153 75
3 152 153 154
3 155 77 156
3 157 78 158
3 159 158 77
3 157 158 159
3 17 79 38
3 17 80 79
3 18 160 162
3 162 161 40
3 160 161 162
3 18 163 164
3 18 165 167
3 165 81 166
3 165 166 167
3 19 82 42
3 19 83 82
3 19 84 83
3 20 85 44
3 20 86 85
3 11 87 63
3 21 88 47
3 21 89 88
3 21 90 89
3 22 91 49
3 22 92 91
3 168 93 169
3 170 94 171
3 172 171 93
3 170 171 172
3 23 95 52
3 23 96 95
3 23 97 96
3 24 98 54
3 24 99 98
3 24 100 99
3 25 101 56
3 25 102 101
3 13 103 67
3 26 104 58
3 26 105 104
3 26 173 175
3 175 174 105
3 173 174 175
3 27 28 7
3 29 28 27
3 29 176 178
3 178 177 28
3 176 177 178
3 29 179 181
3 179 30 180
3 179 180 181
3 31 30 29
3 31 8 30
3 182 9 183
3 184 10 185
3 186 32 187
3 188 187 10
3 186 187 188
3 189 32 190
3 191 12 192
3 193 192 32
3 191 192 193
3 33 194 195
3 33 196 198
3 196 14 197
3 196 197 198
3 34 199 200
3 34 201 203
3 201 15 202
3 201 202 203
3 35 204 205
3 35 206 207
3 35 208 210
3 208 36 209
3 208 209 210
3 37 36 35
3 37 16 36
3 211 38 212
3 213 38 214
3 215 17 216
3 217 216 38
3 215 216 217
3 39 218 220
3 218 40 219
3 218 219 220
3 41 40 39
3 41 18 40
3 41 42 18
3 43 42 41
3 43 19 42
3 43 44 19
3 45 44 43
3 45 20 44
3 46 47 11
3 48 47 46
3 48 21 47
3 48 49 21
3 50 49 48
3 50 22 49
3 51 221 223
3 221 52 222
3 221 222 223
3 53 52 51
3 53 23 52
3 53 54 23
3 55 54 53
3 55 24 54
3 55 56 24
3 57 56 55
3 57 25 56
3 224 58 225
3 226 225 13
3 224 225 226
3 227 58 228
3 229 26 230
3 231 230 58
3 229 230 231
3 233 232 26
3 28 234 236
3 236 235 7
3 234 235 236
3 238 237 28
3 30 239 240
3 59 241 243
3 243 242 30
3 241 242 243
3 59 244 245
3 59 246 247
3 60 248 250
3 250 249 59
3 248 249 250
3 60 251 253
3 251 2 252
3 251 252 253
3 61 254 255
3 61 256 258
3 256 3 257
3 256 257 258
3 259 39 260
3 62 261 263
3 261 39 262
3 261 262 263
3 62 4 39
3 62 63 4
3 64 63 62
3 64 11 63
3 32 64 10
3 65 64 32
3 65 11 64
3 65 46 11
3 66 46 65
3 66 5 46
3 264 51 265
3 266 51 267
3 268 6 269
3 270 269 51
3 268 269 270
3 271 67 272
3 273 272 6
3 271 272 273
3 274 67 275
3 276 13 277
3 278 277 67
3 276 277 278
3 279 13 280
3 282 281 13
3 68 283 284
3 68 285 286
3 69 287 288
3 69 289 291
3 289 1 290
3 289 290 291
3 70 292 293
3 70 294 296
3 294 7 295
3 294 295 296
3 36 297 299
3 297 70 298
3 297 298 299
3 71 70 36
3 71 7 70
3 71 27 7
3 72 27 71
3 72 0 27
3 73 300 301
3 73 302 303
3 73 304 305
3 74 306 308
3 308 307 73
3 306 307 308
3 74 309 311
3 309 9 310
3 309 310 311
3 312 74 313
3 75 314 316
3 314 74 315
3 314 315 316
3 75 9 74
3 75 61 9
3 76 61 75
3 76 3 61
3 317 76 318
3 77 319 321
3 319 76 320
3 319 320 321
3 77 3 76
3 77 37 3
3 78 37 77
3 78 16 37
3 38 322 324
3 322 78 323
3 322 323 324
3 79 78 38
3 79 16 78
3 79 72 16
3 80 72 79
3 80 0 72
3 40 325 326
3 328 327 40
3 81 329 330
3 81 331 333
3 331 17 332
3 331 332 333
3 42 81 18
3 82 81 42
3 82 17 81
3 82 80 17
3 83 80 82
3 83 0 80
3 83 31 0
3 84 31 83
3 84 8 31
3 44 84 19
3 85 84 44
3 85 8 84
3 85 60 8
3 86 60 85
3 86 2 60
3 63 45 4
3 87 45 63
3 87 20 45
3 47 87 11
3 88 87 47
3 88 20 87
3 88 86 20
3 89 86 88
3 89 2 86
3 89 34 2
3 90 34 89
3 90 15 34
3 49 90 21
3 91 90 49
3 91 15 90
3 91 69 15
3 92 69 91
3 92 1 69
3 334 12 335
3 93 336 337
3 93 338 340
3 338 12 339
3 338 339 340
3 93 66 12
3 94 66 93
3 94 5 66
3 52 341 342
3 95 343 345
3 345 344 52
3 343 344 345
3 95 346 347
3 95 348 350
3 348 94 349
3 348 349 350
3 96 94 95
3 96 5 94
3 96 50 5
3 97 50 96
3 97 22 50
3 54 97 23
3 98 97 54
3 98 22 97
3 98 92 22
3 99 92 98
3 99 1 92
3 99 33 1
3 100 33 99
3 100 14 33
3 56 100 24
3 101 100 56
3 101 14 100
3 101 68 14
3 102 68 101
3 102 351 353
3 353 352 68
3 351 352 353
3 67 57 6
3 103 57 67
3 103 25 57
3 58 103 13
3 104 103 58
3 104 25 103
3 104 102 25
3 105 102 104
3 105 354 356
3 356 355 102
3 354 355 356
3 105 357 358
3 360 359 105
3 362 361 26
