ply
format ascii 1.0
element vertex 602
property float x
property float y
property float z
element face 656
property list uchar int vertex_index
end_header
-0.828814 51.55595 58.805096
-0.67337 73.865356 28.704189
-4.675161 21.324471 78.425797
-16.90601 77.95433 22.395084
-8.868567 79.878815 29.773804
-0.107111 64.158707 44.861046
-3.126583 84.128159 21.721268
-2.747868 75.387161 38.136295
-4.061335 62.844387 52.278313
-6.967007 48.065495 63.151062
-2.601538 37.127972 70.066666
-0.205475 23.360756 73.240486
-19.703953 72.649857 25.604919
-16.122744 74.371918 28.755516
-0.293903 58.124332 52.176723
-0.067562 44.443829 60.991795
-8.782251 74.703659 36.986538
-5.400738 78.5056 34.013683
-5.623676 72.875931 41.42654
-3.141357 69.493515 45.622978
-6.396465 66.394852 48.010128
-7.111702 27.108299 75.484428
-5.918295 35.220776 71.541183
-3.656832 29.337387 74.657967
-1.136738 30.453659 72.256348
-1.859529 22.81654 76.610054
-1.137438 77.178238 20.355938
-1.40007 73.164505 15.420255
-1.078142 70.518936 23.540787
-13.534794 82.908524 18.579262
-9.291468 83.924149 22.102465
-12.826008 79.62381 25.789242
-12.398691 75.140686 32.668327
-2.578178 14.970043 79.915504
-0.271091 69.474213 36.961067
-0.601698 66.801682 31.706646
-1.402348 79.798935 25.376778
-5.590485 83.094376 26.056248
-2.801867 80.320435 30.054379
-1.07128 75.685623 33.747368
-1.015438 70.526993 41.805161
-1.379 64.50708 49.251606
-2.185091 57.832737 55.908173
-5.414122 55.648174 58.076675
-3.319304 50.669048 61.777473
-8.473114 40.197601 67.637665
-4.612427 43.10981 66.965187
-1.629337 44.54953 64.761581
-0.521433 37.678719 66.979431
0.021446 30.424747 68.301376
0.191704 23.027874 68.587082
-0.53882 15.855846 77.029831
0.338535 16.038887 72.850494
-19.284784 71.001465 28.251692
-0.522032 54.898457 55.577621
-0.14472 51.36211 56.760437
-0.372078 48.073589 59.985092
-8.9161 71.745499 40.305943
-7.127401 73.974655 39.212761
-7.358772 70.908585 42.580765
-5.937212 69.728592 44.831066
-6.343391 20.23608 78.755959
-5.857664 24.297901 77.107025
-5.314407 28.352776 75.257645
-4.18063 25.345512 76.650787
-2.69627 26.142788 75.806877
-3.150236 22.188137 77.714264
-0.908812 75.663101 24.526058
-1.056816 73.953918 21.96604
-0.824482 72.334061 26.104898
-15.281776 80.529037 20.551085
-13.155857 81.422653 22.200096
-14.866383 78.94574 23.996666
-15.895461 72.155136 31.754795
-14.268623 74.893402 30.644562
-14.119094 72.444565 33.752563
-12.334942 72.490234 35.859917
-14.082095 69.735001 36.667557
-18.943928 76.709625 21.035124
-17.421532 79.32486 19.116306
-15.74425 81.810181 17.087513
-0.149803 66.919693 40.971992
-0.137121 65.915192 38.385651
0.013361 63.322193 42.332413
-2.326317 83.728989 19.386845
-1.612625 81.423187 21.16832
-2.123995 82.190598 23.583202
-9.049116 82.052979 25.969383
-7.346876 83.750626 24.048838
-7.162306 81.723709 28.004677
-3.960245 77.16861 36.113556
-3.969385 79.69519 32.143295
-2.728794 77.985291 34.148811
-1.806864 78.222549 31.954899
-1.74136 75.820847 36.055336
-0.998003 73.226669 37.835369
-1.768984 73.166214 40.042324
-3.537016 66.249771 49.06131
-2.17186 67.194702 47.521778
-2.56016 63.930782 50.960239
-1.731291 61.239727 52.682476
-3.063644 60.516178 54.183392
-6.182093 51.897724 60.694107
-4.330919 53.320644 60.015251
-5.040836 49.571224 62.657589
-4.141563 36.338036 70.999817
-5.271643 39.201405 69.32901
-3.546581 40.226154 68.613617
-2.964787 44.025745 66.066635
-2.099356 40.889591 67.49733
-0.998306 41.182541 65.972595
-1.380022 37.574467 68.72377
-0.612364 26.94619 72.915619
-0.384563 30.575928 70.454956
-0.077536 26.958481 70.901672
0.138668 26.734192 68.578629
0.135246 23.294624 71.041611
-1.680738 11.621864 80.0158
-1.422209 15.506302 78.651962
-0.723097 12.019156 78.483772
-1.510895 77.120865 9.771898
-18.383429 75.28775 24.086143
-16.464556 76.304749 25.622822
-17.935154 73.612503 27.050503
-17.626793 71.659119 29.900364
-0.154129 61.218296 48.601871
-8.77264 77.422012 33.462898
-7.048866 79.404663 31.884129
-7.030077 76.814392 35.63575
-5.449903 75.809799 37.810539
-4.061623 74.391281 39.938644
-2.880291 72.548264 41.97316
-4.292053 71.386841 43.578793
-4.662411 68.18132 47.006561
-5.172398 64.802368 50.210033
-7.825897 33.804474 71.721626
-6.537117 31.183224 73.596085
-4.736071 32.374043 73.218033
-3.124985 33.272285 72.458405
-1.796783 33.857948 71.293686
-2.239527 30.041473 73.661583
-1.489496 26.677261 74.560791
-0.868111 23.205845 75.112137
-1.340216 78.404663 16.218489
-1.411726 76.348602 13.781294
-1.257137 75.293442 17.851032
-1.265488 71.980515 19.462503
-11.371223 83.632156 20.264675
-11.064451 81.944199 24.020136
-10.811687 79.944794 27.728388
-14.522076 77.064514 27.377581
-12.567406 77.524536 29.296118
-10.635033 77.651886 31.33672
-10.554104 75.085083 34.79274
-10.586403 72.264832 38.053314
-5.114399 17.304592 79.978485
-3.578548 18.20948 79.378067
-3.952642 14.240437 80.805138
-2.872986 11.056519 81.20015
-0.453016 71.796707 32.860344
-0.578642 70.443451 30.241203
-0.34164 68.297119 34.345184
-0.35478 64.578369 35.738972
-1.374521 80.131302 18.697365
-1.154716 78.713882 22.882799
-0.932415 77.004517 27.084888
-5.780571 84.947006 21.992764
-4.225645 83.912903 23.953659
-5.455477 80.940796 30.079191
-4.066172 81.949646 28.074404
-2.942911 82.373322 25.898129
-1.942581 80.351212 27.783993
-1.21393 77.882187 29.581383
-0.729855 75.012299 31.27446
-0.570412 72.751709 35.416946
-0.476921 70.242126 39.474991
-0.469023 67.507111 43.411903
-1.908613 70.282166 43.875423
-1.139751 67.611572 45.62011
-0.560198 64.572937 47.195721
-0.755552 61.466328 50.802895
-1.051283 58.211765 54.22081
-1.436169 54.829037 57.447845
-5.808561 61.278034 53.192764
-4.69626 59.303059 55.278347
-3.662561 56.973454 57.196777
-2.721752 54.304707 58.935287
-1.894516 51.332058 60.49086
-7.738974 44.162281 65.462891
-7.176311 37.840908 69.671295
-6.48431 41.821987 67.47728
-5.766165 45.735371 65.141006
-3.956015 46.935009 64.450058
-2.409365 47.729282 63.3606
-1.202036 48.105274 61.864582
-0.659592 44.681236 63.056606
-0.271427 41.116482 64.063065
-0.028212 37.461189 64.87532
-0.811745 34.124302 69.719711
-0.188906 34.081375 67.762665
0.092123 33.755703 65.481308
0.120201 30.02948 65.868874
-2.230358 18.902145 78.393158
-1.143301 19.380806 77.024498
-0.361357 19.649582 75.286865
-0.036352 12.262129 76.634193
0.046724 16.029083 75.079506
0.105345 19.718555 73.216354
0.277884 19.6026 70.872345
-1.475834 74.067749 11.433212
-0.850554 68.788116 27.631165
-1.151218 66.927124 25.092869
-8.273958 69.739922 42.990652
-8.137436 71.327042 41.443354
-9.052622 70.158379 41.853241
-7.54721 69.275154 44.151916
-8.273958 69.739922 42.990652
-14.952493 71.054153 34.171551
-15.007278 72.29985 32.753679
-15.840677 70.909439 33.172667
-14.933994 69.699371 35.629047
-14.100594 71.089783 35.21006
-14.952493 71.054153 34.171551
-2.72645 83.928574 20.554057
-2.826818 84.651176 18.472003
-3.226952 84.850762 19.639215
-6.57455 49.981609 61.922584
-7.178623 50.987572 60.847834
-7.571079 49.071457 62.076311
-0.806806 10.100505 79.085949
-1.201917 11.82051 79.249786
-1.285627 9.901859 79.851963
-1.505987 78.231529 10.951836
-1.558579 78.55851 8.939232
-18.346678 70.352058 30.34754
-18.455788 71.330292 29.076028
-19.175673 70.023232 29.523204
-17.54372 70.537301 31.261663
-18.346678 70.352058 30.34754
-20.00065 73.355423 24.219067
-20.586792 72.069801 25.06053
-19.043691 73.968804 24.845531
-19.340388 74.67437 23.459679
-20.00065 73.355423 24.219067
-0.09992 57.867885 51.011324
-0.030033 59.414867 49.223897
-0.224016 59.671314 50.389297
0.052841 44.162497 59.815
0.007982 46.056293 59.384974
0.013264 42.583691 61.40881
0.052841 44.162497 59.815
-8.025631 26.369196 75.4235
-7.367778 25.063469 76.339702
-7.765019 28.418213 74.553196
-8.025631 26.369196 75.4235
-6.824409 29.145761 74.540256
-7.477726 30.455675 73.609025
-7.765019 28.418213 74.553196
-1.195631 69.517899 22.304428
-1.289304 70.248688 20.265286
-1.171815 71.249725 21.501645
-12.453008 83.27034 19.421968
-11.539987 84.313637 18.386281
-12.621772 83.95182 17.543574
-11.487945 70.929009 38.446568
-11.460673 72.377533 36.956615
-12.362214 71.041709 37.349869
-10.666984 70.738907 39.573028
-11.487945 70.929009 38.446568
-13.737531 83.491715 16.774355
-14.842258 82.942543 16.028481
-14.639522 82.359352 17.833388
-12.621772 83.95182 17.543574
-13.737531 83.491715 16.774355
-5.291974 15.310001 80.646149
-5.930538 16.749496 80.08855
-4.711095 13.777924 81.059475
-4.53352 15.772514 80.391812
-5.291974 15.310001 80.646149
-2.97809 9.124973 81.742905
-3.557227 10.684365 81.608159
-2.380828 9.411022 81.178757
-2.97809 9.124973 81.742905
-0.244198 63.359991 37.719744
-0.24595 65.24678 37.062311
-0.135369 64.028402 39.043084
-0.294795 61.423221 38.375782
-0.405377 62.641599 36.39501
-0.244198 63.359991 37.719744
-1.598008 81.439499 17.840525
-1.472924 80.692429 16.624071
-8.434586 84.695122 21.083704
-9.431473 84.699379 20.161628
-6.76015 60.281353 53.455373
-6.401695 62.090881 52.079786
-5.979543 56.641388 57.023615
-6.380422 54.771549 58.321278
-5.055191 57.475617 56.677511
-5.620612 58.46883 55.62445
-5.979543 56.641388 57.023615
-9.120148 41.229652 66.547196
-9.472729 39.240173 67.562455
-8.106044 42.179941 66.550278
-8.753078 43.211992 65.459809
-9.120148 41.229652 66.547196
0.14015 24.664932 67.308555
0.113632 26.518092 67.304329
0.165186 24.881033 68.582855
0.108093 22.80642 67.276104
0.14015 24.664932 67.308555
0.166556 10.442152 76.254002
-0.083334 10.361618 77.273357
0.192629 16.033985 73.965
0.207526 14.197159 74.795231
0.353432 14.202061 73.680725
-1.192913 65.076002 25.860985
-1.045851 66.004799 27.104222
-1.253965 65.935486 23.885086
-1.192913 65.076002 25.860985
-20.069069 70.603538 27.588726
-19.494369 71.825661 26.928306
-20.278654 71.427734 26.265339
-19.91648 69.815903 28.712931
-20.069069 70.603538 27.588726
-19.175673 70.023232 29.523204
-19.91648 69.815903 28.712931
-20.278654 71.427734 26.265339
-20.586792 72.069801 25.06053
-0.254378 54.721516 54.47933
-0.140313 56.334454 52.778881
-0.407968 56.511395 53.877172
-0.065721 52.953343 55.070738
-0.254378 54.721516 54.47933
-0.333376 53.130284 56.169029
0.015004 51.078991 55.593752
-0.065721 52.953343 55.070738
-0.030597 49.515434 57.269295
0.015004 51.078991 55.593752
-0.144277 47.871173 58.881622
-0.030597 49.515434 57.269295
-0.258399 49.717849 58.372765
-0.21982 46.258709 60.488444
0.007982 46.056293 59.384974
-0.144277 47.871173 58.881622
-6.836429 68.685158 45.277067
-6.647992 70.318589 43.705916
-7.54721 69.275154 44.151916
-7.066056 67.018288 46.866598
-6.166838 68.061722 46.420597
-6.836429 68.685158 45.277067
-6.983622 21.62736 77.975468
-7.198654 19.587137 78.736347
-6.740759 23.65827 77.151001
-6.983622 21.62736 77.975468
-6.100528 22.26699 77.931492
-6.484683 25.7031 76.295727
-7.367778 25.063469 76.339702
-6.740759 23.65827 77.151001
-13.235791 69.664093 37.753689
-12.362214 71.041709 37.349869
-13.208519 71.112617 36.263737
-19.261359 77.30149 19.487295
-19.974101 75.998131 20.501031
-18.50016 78.609108 18.527886
-19.261359 77.30149 19.487295
-18.18273 78.017243 20.075715
-17.702233 79.87262 17.472735
-18.50016 78.609108 18.527886
-16.582891 80.567521 18.10191
-16.863591 81.11528 16.458338
-17.702233 79.87262 17.472735
-0.060128 62.731903 41.016464
-0.135369 64.028402 39.043084
-0.06188 64.618693 40.359032
-2.425747 84.344544 17.303771
-2.826818 84.651176 18.472003
-2.073906 83.238343 18.185265
-2.425747 84.344544 17.303771
-1.969471 82.576088 20.277583
-1.71706 82.085442 19.076003
-2.073906 83.238343 18.185265
-6.764407 52.896324 59.629993
-7.178623 50.987572 60.847834
-5.798108 53.772949 59.385391
-6.380422 54.771549 58.321278
-6.764407 52.896324 59.629993
-8.811422 38.189491 68.65699
-9.472729 39.240173 67.562455
0.421236 14.190141 72.51157
0.353432 14.202061 73.680725
0.352498 15.968759 71.630379
0.421236 14.190141 72.51157
-1.52905 77.368752 7.801305
-1.558579 78.55851 8.939232
-1.501003 75.906479 8.643052
-1.52905 77.368752 7.801305
-1.424552 72.024544 14.265048
-1.406869 71.501618 16.243277
-0.771092 65.942078 30.41111
-0.651252 64.901266 32.408361
-16.678054 70.785309 32.188879
-16.761127 71.907128 30.827579
-17.54372 70.537301 31.261663
-15.840677 70.909439 33.172667
-16.678054 70.785309 32.188879
-19.620638 75.385307 21.934169
-19.974101 75.998131 20.501031
-18.663678 75.998688 22.560634
-19.620638 75.385307 21.934169
-19.340388 74.67437 23.459679
-0.030322 60.881764 47.380499
-0.006813 62.351969 45.510086
-0.13062 62.688502 46.731459
-0.030322 60.881764 47.380499
-0.030033 59.414867 49.223897
-0.09992 57.867885 51.011324
-0.140313 56.334454 52.778881
-3.774269 84.848503 20.771793
-3.226952 84.850762 19.639215
-7.979919 47.130817 63.223181
-7.571079 49.071457 62.076311
-8.122116 31.7663 72.671795
-8.789784 32.964781 71.647998
-7.181507 32.493849 72.658856
-8.122116 31.7663 72.671795
-7.477726 30.455675 73.609025
-1.375971 77.376632 14.999892
-1.456402 77.845398 12.956535
-1.420647 78.873429 14.175132
-1.339578 70.909622 18.264401
-1.406869 71.501618 16.243277
-1.332779 72.57251 17.441379
-1.339578 70.909622 18.264401
-1.289304 70.248688 20.265286
-10.47135 84.553382 19.242733
-11.539987 84.313637 18.386281
-10.331346 83.778153 21.18357
-9.431473 84.699379 20.161628
-10.47135 84.553382 19.242733
-9.831832 70.479241 40.699343
-9.751252 72.005166 39.179628
-10.666984 70.738907 39.573028
-9.052622 70.158379 41.853241
-9.831832 70.479241 40.699343
-15.987894 82.300553 15.36607
-16.863591 81.11528 16.458338
-15.987894 82.300553 15.36607
-14.842258 82.942543 16.028481
-6.545034 18.215241 79.477288
-7.198654 19.587137 78.736347
-5.728895 18.770336 79.367222
-6.545034 18.215241 79.477288
-5.930538 16.749496 80.08855
-4.097055 12.276324 81.410652
-4.711095 13.777924 81.059475
-4.855508 11.81381 81.664989
-3.412814 12.648478 81.002644
-4.097055 12.276324 81.410652
-3.557227 10.684365 81.608159
-1.784704 9.693694 80.586582
-2.276862 11.339192 80.607975
-2.380828 9.411022 81.178757
-1.285627 9.901859 79.851963
-1.784704 9.693694 80.586582
-0.527793 63.78961 34.424524
-0.651252 64.901266 32.408361
-0.478239 65.690025 33.722809
-0.527793 63.78961 34.424524
-0.405377 62.641599 36.39501
0.053423 61.933712 44.24577
-0.046875 63.74045 43.59673
-0.006813 62.351969 45.510086
0.027253 61.420276 42.949455
0.053423 61.933712 44.24577
-0.060128 62.731903 41.016464
0.027253 61.420276 42.949455
-1.455771 79.829109 15.384633
-1.420647 78.873429 14.175132
-1.357369 79.267983 17.457927
-1.455771 79.829109 15.384633
-1.472924 80.692429 16.624071
-1.493573 80.777244 19.932842
-1.598008 81.439499 17.840525
-1.71706 82.085442 19.076003
-7.46229 84.608361 22.056891
-8.434586 84.695122 21.083704
-8.319172 83.837388 23.075651
-6.679138 85.20655 21.028854
-7.46229 84.608361 22.056891
-6.563724 84.348816 23.020801
-5.890259 85.714698 19.961123
-6.679138 85.20655 21.028854
-5.101263 85.257927 20.907541
-5.890259 85.714698 19.961123
-4.3238 84.740876 21.887988
-5.101263 85.257927 20.907541
-5.003108 84.429955 22.973211
-3.676114 84.020531 22.837463
-3.774269 84.848503 20.771793
-4.3238 84.740876 21.887988
-14.937634 68.32631 36.955107
-14.933994 69.699371 35.629047
-14.124012 68.260491 38.020268
-14.937634 68.32631 36.955107
-13.235791 69.664093 37.753689
-14.124012 68.260491 38.020268
-7.327804 65.298813 48.326071
-7.066056 67.018288 46.866598
-6.695647 64.64929 49.488468
-7.327804 65.298813 48.326071
-6.083614 63.853048 50.58842
-5.784432 65.59861 49.110081
-6.695647 64.64929 49.488468
-5.49048 63.040201 51.701398
-6.083614 63.853048 50.58842
-6.401695 62.090881 52.079786
-6.176763 59.456318 54.581659
-6.76015 60.281353 53.455373
-5.25241 60.290546 54.235555
-6.176763 59.456318 54.581659
-5.620612 58.46883 55.62445
-8.365902 45.17921 64.379096
-8.753078 43.211992 65.459809
-7.35299 46.113888 64.306977
-7.979919 47.130817 63.223181
-8.365902 45.17921 64.379096
-8.487814 34.992928 70.698971
-8.789784 32.964781 71.647998
-8.163021 37.011145 69.673805
-8.487814 34.992928 70.698971
-7.501104 35.822691 70.696461
-7.824713 39.019255 68.65448
-8.811422 38.189491 68.65699
-8.163021 37.011145 69.673805
-0.088668 40.920018 62.944445
0.013264 42.583691 61.40881
-0.169494 42.780155 62.52743
0.032939 39.092371 63.350572
-0.088668 40.920018 62.944445
-0.149819 39.288835 64.469192
0.052952 37.210482 63.679672
0.114102 38.841664 62.154924
0.032939 39.092371 63.350572
0.113119 35.357738 63.982666
0.052952 37.210482 63.679672
0.031955 35.608446 65.178314
0.087692 33.471487 64.221008
0.113119 35.357738 63.982666
0.101731 31.608376 64.414792
0.087692 33.471487 64.221008
0.106162 31.892591 65.675091
0.048226 29.728952 64.559641
0.101731 31.608376 64.414792
0.104399 28.165736 65.949452
0.129435 28.381836 67.223752
0.113632 26.518092 67.304329
0.048226 29.728952 64.559641
0.104399 28.165736 65.949452
-0.426706 10.240132 78.198147
-0.806806 10.100505 79.085949
-0.379725 12.140643 77.558982
-0.426706 10.240132 78.198147
-0.083334 10.361618 77.273357
0.165988 12.313682 75.572575
0.166556 10.442152 76.254002
0.005186 14.145606 75.856849
0.165988 12.313682 75.572575
0.207526 14.197159 74.795231
0.322172 17.750616 70.641304
0.30821 17.820743 71.861419
0.352498 15.968759 71.630379
0.240187 19.460891 69.602684
0.322172 17.750616 70.641304
0.197097 21.173528 68.460052
0.234794 21.315237 69.729714
0.240187 19.460891 69.602684
0.108093 22.80642 67.276104
0.197097 21.173528 68.460052
-1.461311 76.734734 11.776596
-1.505987 78.231529 10.951836
-1.456402 77.845398 12.956535
-1.483473 74.379921 9.47371
-1.501003 75.906479 8.643052
-1.493365 75.594307 10.602555
-1.462434 72.476166 12.271527
-1.437952 73.616127 13.426733
-1.424552 72.024544 14.265048
-1.449241 72.85939 10.32472
-1.462434 72.476166 12.271527
-1.483473 74.379921 9.47371
-1.449241 72.85939 10.32472
-0.89552 66.935295 28.373369
-0.726126 67.794899 29.668906
-0.771092 65.942078 30.41111
-1.000886 67.85762 26.362017
-0.89552 66.935295 28.373369
-1.045851 66.004799 27.104222
-1.232169 67.721992 23.080469
-1.195631 69.517899 22.304428
-1.11468 68.72303 24.316828
-1.232169 67.721992 23.080469
-1.253965 65.935486 23.885086
3 0 55 54
3 0 56 55
3 212 59 213
3 214 213 57
3 212 213 214
3 216 215 59
3 2 62 61
3 2 64 62
3 2 66 64
3 1 69 67
3 3 72 70
3 217 75 218
3 219 218 73
3 217 218 219
3 220 77 221
3 222 221 75
3 220 221 222
3 3 79 78
3 3 70 79
3 5 83 81
3 6 223 225
3 223 84 224
3 223 224 225
3 6 86 84
3 4 89 87
3 7 92 90
3 7 94 92
3 7 96 94
3 8 99 97
3 8 101 99
3 9 226 228
3 226 102 227
3 226 227 228
3 9 104 102
3 10 107 105
3 10 109 107
3 10 111 109
3 11 114 112
3 11 116 114
3 229 119 230
3 231 230 117
3 229 230 231
3 232 120 233
3 12 123 121
3 234 124 235
3 236 235 53
3 234 235 236
3 238 237 124
3 12 239 240
3 12 241 243
3 241 121 242
3 241 242 243
3 14 244 246
3 246 245 125
3 244 245 246
3 15 247 248
3 15 249 250
3 16 128 126
3 18 129 58
3 18 130 129
3 18 132 130
3 20 133 60
3 20 134 133
3 21 251 252
3 21 253 254
3 21 255 257
3 255 136 256
3 255 256 257
3 23 137 63
3 23 138 137
3 23 140 138
3 25 141 65
3 25 142 141
3 26 145 143
3 28 146 68
3 28 258 260
3 260 259 146
3 258 259 260
3 29 261 263
3 261 147 262
3 261 262 263
3 31 148 71
3 31 149 148
3 13 150 122
3 32 151 74
3 32 152 151
3 32 153 152
3 264 154 265
3 266 265 76
3 264 265 266
3 268 267 154
3 29 269 271
3 271 270 80
3 269 270 271
3 29 272 273
3 274 155 275
3 276 157 277
3 278 277 155
3 276 277 278
3 279 158 280
3 282 281 158
3 34 161 159
3 283 162 284
3 285 284 82
3 283 284 285
3 288 287 162
3 286 287 288
3 289 163 290
3 36 164 85
3 36 165 164
3 30 291 292
3 37 166 88
3 37 167 166
3 17 168 127
3 38 169 91
3 38 170 169
3 38 171 170
3 39 172 93
3 39 173 172
3 39 174 173
3 40 175 95
3 40 176 175
3 19 177 131
3 41 178 98
3 41 179 178
3 41 180 179
3 42 181 100
3 42 182 181
3 293 183 294
3 43 295 296
3 43 297 299
3 297 184 298
3 297 298 299
3 43 185 184
3 44 186 103
3 44 187 186
3 45 300 301
3 45 302 304
3 302 188 303
3 302 303 304
3 22 189 135
3 46 190 106
3 46 191 190
3 46 192 191
3 47 193 108
3 47 194 193
3 47 195 194
3 48 196 110
3 48 197 196
3 24 198 139
3 49 199 113
3 49 200 199
3 49 201 200
3 50 305 307
3 307 306 115
3 305 306 307
3 50 308 309
3 33 202 156
3 51 203 118
3 51 204 203
3 310 205 311
3 52 312 314
3 312 206 313
3 312 313 314
3 52 207 206
3 52 208 207
3 27 209 144
3 35 210 160
3 315 211 316
3 318 317 211
3 319 53 320
3 321 320 12
3 319 320 321
3 322 53 323
3 325 324 53
3 326 12 327
3 54 328 330
3 330 329 14
3 328 329 330
3 55 331 333
3 333 332 54
3 331 332 333
3 55 334 335
3 55 336 337
3 56 338 340
3 340 339 55
3 338 339 340
3 56 341 343
3 341 15 342
3 341 342 343
3 57 58 16
3 59 58 57
3 59 18 58
3 59 60 18
3 344 60 345
3 346 345 59
3 344 345 346
3 347 20 348
3 349 348 60
3 347 348 349
3 61 350 351
3 62 352 354
3 354 353 61
3 352 353 354
3 62 355 357
3 355 21 356
3 355 356 357
3 62 63 21
3 64 63 62
3 64 23 63
3 64 65 23
3 66 65 64
3 66 25 65
3 67 68 26
3 69 68 67
3 69 28 68
3 70 71 29
3 72 71 70
3 72 31 71
3 73 74 13
3 75 74 73
3 75 32 74
3 75 76 32
3 77 76 75
3 77 358 360
3 360 359 76
3 358 359 360
3 78 361 362
3 79 363 365
3 365 364 78
3 363 364 365
3 79 366 367
3 79 368 370
3 368 80 369
3 368 369 370
3 70 80 79
3 70 29 80
3 81 82 34
3 83 82 81
3 83 371 373
3 373 372 82
3 371 372 373
3 84 374 375
3 84 376 377
3 84 378 380
3 378 85 379
3 378 379 380
3 86 85 84
3 86 36 85
3 87 88 30
3 89 88 87
3 89 37 88
3 90 91 17
3 92 91 90
3 92 38 91
3 92 93 38
3 94 93 92
3 94 39 93
3 94 95 39
3 96 95 94
3 96 40 95
3 97 98 19
3 99 98 97
3 99 41 98
3 99 100 41
3 101 100 99
3 101 42 100
3 102 381 382
3 102 383 385
3 383 43 384
3 383 384 385
3 102 103 43
3 104 103 102
3 104 44 103
3 386 45 387
3 105 106 22
3 107 106 105
3 107 46 106
3 107 108 46
3 109 108 107
3 109 47 108
3 109 110 47
3 111 110 109
3 111 48 110
3 112 113 24
3 114 113 112
3 114 49 113
3 114 115 49
3 116 115 114
3 116 50 115
3 117 118 33
3 119 118 117
3 119 51 118
3 388 52 389
3 391 390 52
3 120 392 393
3 120 394 395
3 397 396 27
3 399 398 35
3 121 122 3
3 123 122 121
3 123 13 122
3 53 123 12
3 124 123 53
3 124 13 123
3 124 73 13
3 400 73 401
3 402 401 124
3 400 401 402
3 404 403 73
3 405 78 406
3 121 407 409
3 407 78 408
3 407 408 409
3 121 3 78
3 125 410 412
3 412 411 5
3 410 411 412
3 414 413 125
3 416 415 14
3 417 6 418
3 126 127 4
3 128 127 126
3 128 17 127
3 58 128 16
3 129 128 58
3 129 17 128
3 129 90 17
3 130 90 129
3 130 7 90
3 130 131 7
3 132 131 130
3 132 19 131
3 60 132 18
3 133 132 60
3 133 19 132
3 133 97 19
3 134 97 133
3 134 8 97
3 419 9 420
3 421 135 422
3 136 423 425
3 423 135 424
3 423 424 425
3 136 22 135
3 63 136 21
3 137 136 63
3 137 22 136
3 137 105 22
3 138 105 137
3 138 10 105
3 138 139 10
3 140 139 138
3 140 24 139
3 65 140 23
3 141 140 65
3 141 24 140
3 141 112 24
3 142 112 141
3 142 11 112
3 143 426 428
3 426 144 427
3 426 427 428
3 145 144 143
3 145 27 144
3 68 145 26
3 146 145 68
3 146 27 145
3 146 429 431
3 431 430 27
3 429 430 431
3 433 432 146
3 147 434 435
3 147 436 438
3 436 30 437
3 436 437 438
3 71 147 29
3 148 147 71
3 148 30 147
3 148 87 30
3 149 87 148
3 149 4 87
3 122 72 3
3 150 72 122
3 150 31 72
3 74 150 13
3 151 150 74
3 151 31 150
3 151 149 31
3 152 149 151
3 152 4 149
3 152 126 4
3 153 126 152
3 153 16 126
3 76 153 32
3 154 153 76
3 154 16 153
3 154 57 16
3 439 57 440
3 441 440 154
3 439 440 441
3 443 442 57
3 80 444 445
3 447 446 80
3 448 61 449
3 155 450 452
3 450 61 451
3 450 451 452
3 155 2 61
3 155 156 2
3 157 156 155
3 157 33 156
3 453 157 454
3 453 454 455
3 158 456 458
3 456 157 457
3 456 457 458
3 158 33 157
3 158 117 33
3 459 117 460
3 461 460 158
3 459 460 461
3 463 462 117
3 159 160 1
3 161 160 159
3 161 35 160
3 82 161 34
3 162 161 82
3 162 35 161
3 162 464 466
3 466 465 35
3 464 465 466
3 468 467 162
3 469 83 470
3 471 470 5
3 469 470 471
3 472 83 473
3 475 474 83
3 476 143 477
3 163 478 480
3 478 143 479
3 478 479 480
3 163 26 143
3 85 481 483
3 481 163 482
3 481 482 483
3 164 163 85
3 164 26 163
3 164 67 26
3 165 67 164
3 165 1 67
3 88 484 486
3 486 485 30
3 484 485 486
3 166 487 489
3 489 488 88
3 487 488 489
3 166 490 491
3 166 492 493
3 167 494 496
3 496 495 166
3 494 495 496
3 167 497 499
3 497 6 498
3 497 498 499
3 127 89 4
3 168 89 127
3 168 37 89
3 91 168 17
3 169 168 91
3 169 37 168
3 169 167 37
3 170 167 169
3 170 6 167
3 170 86 6
3 171 86 170
3 171 36 86
3 93 171 38
3 172 171 93
3 172 36 171
3 172 165 36
3 173 165 172
3 173 1 165
3 173 159 1
3 174 159 173
3 174 34 159
3 95 174 39
3 175 174 95
3 175 34 174
3 175 81 34
3 176 81 175
3 176 5 81
3 131 96 7
3 177 96 131
3 177 40 96
3 98 177 19
3 178 177 98
3 178 40 177
3 178 176 40
3 179 176 178
3 179 5 176
3 179 125 5
3 180 125 179
3 180 14 125
3 100 180 41
3 181 180 100
3 181 14 180
3 181 54 14
3 182 54 181
3 182 0 54
3 500 77 501
3 502 77 503
3 505 504 77
3 506 20 507
3 508 20 509
3 510 134 511
3 512 511 20
3 510 511 512
3 183 513 515
3 513 134 514
3 513 514 515
3 183 8 134
3 516 183 517
3 184 518 520
3 518 183 519
3 518 519 520
3 184 8 183
3 184 101 8
3 185 101 184
3 185 42 101
3 103 185 43
3 186 185 103
3 186 42 185
3 186 182 42
3 187 182 186
3 187 0 182
3 188 521 522
3 188 523 525
3 523 9 524
3 523 524 525
3 135 526 527
3 189 528 530
3 530 529 135
3 528 529 530
3 189 531 533
3 531 45 532
3 531 532 533
3 106 189 22
3 190 189 106
3 190 45 189
3 190 188 45
3 191 188 190
3 191 9 188
3 191 104 9
3 192 104 191
3 192 44 104
3 108 192 46
3 193 192 108
3 193 44 192
3 193 187 44
3 194 187 193
3 194 0 187
3 194 56 0
3 195 56 194
3 195 15 56
3 110 195 47
3 196 195 110
3 196 15 195
3 196 534 536
3 536 535 15
3 534 535 536
3 197 537 539
3 539 538 196
3 537 538 539
3 197 540 542
3 540 541 542
3 139 111 10
3 198 111 139
3 198 48 111
3 113 198 24
3 199 198 113
3 199 48 198
3 199 197 48
3 200 197 199
3 200 543 545
3 545 544 197
3 543 544 545
3 200 546 547
3 201 548 550
3 550 549 200
3 548 549 550
3 201 551 552
3 115 201 49
3 553 201 554
3 555 554 115
3 553 554 555
3 557 556 201
3 156 66 2
3 202 66 156
3 202 25 66
3 118 202 33
3 203 202 118
3 203 25 202
3 203 142 25
3 204 142 203
3 204 11 142
3 558 119 559
3 205 560 562
3 560 119 561
3 560 561 562
3 205 51 119
3 563 205 564
3 206 565 567
3 565 205 566
3 565 566 567
3 206 51 205
3 206 204 51
3 207 204 206
3 207 11 204
3 207 116 11
3 208 116 207
3 208 50 116
3 568 208 569
3 570 569 52
3 568 569 570
3 571 208 572
3 573 50 574
3 575 574 208
3 573 574 575
3 577 576 50
3 144 578 580
3 578 120 579
3 578 579 580
3 209 120 144
3 209 581 583
3 583 582 120
3 581 582 583
3 584 209 585
3 586 585 27
3 584 585 586
3 587 209 588
3 590 589 209
3 160 69 1
3 210 69 160
3 210 28 69
3 591 210 592
3 593 592 35
3 591 592 593
3 211 594 596
3 594 210 595
3 594 595 596
3 211 28 210
3 211 597 599
3 599 598 28
3 597 598 599
3 601 600 211
