ply
format ascii 1.0
element vertex 350
property float x
property float y
property float z
element face 340
property list uchar int vertex_index
end_header
9.06921 -52.275688 -2.067638
2.908205 -60.620811 8.917184
2.860577 -74.592484 28.458313
8.735958 -81.36293 23.037193
5.815357 -72.919754 19.305347
9.198866 -71.454178 10.394329
5.887709 -56.510582 2.250235
10.740429 -56.459698 -2.904028
4.21475 -73.775299 23.895916
2.111483 -69.250732 22.185593
3.319933 -68.425476 17.775221
10.255133 -80.572342 18.037167
6.218931 -66.373032 9.390229
10.738132 -70.414017 6.338008
7.68952 -64.808426 5.612819
8.963499 -62.602951 2.223299
4.319586 -58.736343 5.363585
6.010986 -78.074486 25.932846
7.786041 -77.110931 21.148092
9.545931 -76.408653 16.37076
11.210724 -76.004349 11.750689
7.51008 -72.170807 14.760096
4.721724 -67.500122 13.476692
1.722212 -62.116783 12.799814
7.543495 -54.177197 -0.309404
9.951553 -59.751122 -0.679556
4.566645 -63.583813 9.083595
6.968016 -65.661247 7.457677
5.275217 -62.767124 7.210954
5.989471 -61.825188 5.429104
3.589193 -59.727955 7.092041
4.369364 -76.397163 27.216486
4.995184 -73.340508 21.601402
6.025917 -75.466576 22.555475
6.901375 -75.029121 20.209646
8.673855 -76.716248 18.750525
7.783739 -74.644501 17.867266
8.661585 -74.321655 15.545259
6.657803 -72.529419 17.019527
2.033276 -65.952461 17.241131
4.003477 -67.977356 15.606018
2.606108 -65.457458 15.125646
3.223114 -64.908615 13.05318
7.959454 -81.89019 25.556923
8.12248 -84.153305 26.579914
8.756145 -83.596909 23.988197
10.365566 -73.781815 11.044214
11.160528 -73.466599 8.903913
11.378366 -69.628883 4.449506
7.374716 -59.555229 2.186047
9.491554 -61.248383 0.701971
8.028233 -58.255756 0.753713
8.65485 -56.888252 -0.525295
6.708836 -55.334297 0.892603
3.495916 -74.20034 26.182232
2.570362 -71.95089 25.232277
3.177452 -71.561989 22.978251
3.860821 -71.150742 20.724167
4.59869 -70.734322 18.477625
2.683474 -68.851318 19.971926
9.502956 -80.910912 20.524166
7.789425 -68.992004 9.833341
10.000668 -71.003769 8.321571
8.57395 -68.405632 7.832114
9.308315 -67.673454 5.918331
9.963511 -66.756058 4.098805
10.515583 -65.627777 2.379565
8.360571 -63.792004 3.864721
6.693394 -60.752178 3.749848
5.088911 -57.656399 3.745294
7.5474 -79.704712 24.548801
5.174555 -75.932617 24.893108
6.892941 -77.574409 23.546156
8.409924 -79.209854 22.093418
9.261288 -78.791458 19.639898
10.092686 -78.477974 17.206129
10.897852 -78.274887 14.813752
10.394873 -76.182777 14.030046
9.526091 -74.046936 13.263981
8.361666 -71.825272 12.54561
5.373304 -70.322235 16.250191
6.171488 -69.910477 14.056471
6.981686 -69.47876 11.912421
5.464357 -66.974915 11.400454
3.878906 -64.290794 11.035105
2.284781 -61.414753 10.824647
2.00112 -56.557301 7.087353
2.785641 -55.56168 5.399714
3.662315 -54.529205 3.828325
4.62154 -53.495483 2.382312
5.652967 -52.507545 1.068084
8.365395 -53.110451 -1.325375
10.953352 -64.280991 0.769003
10.361128 -58.144783 -1.893421
9.252663 -55.494312 -1.619255
9.636973 -52.409952 -2.54801
9.432215 -53.186426 -2.272798
3.614971 -75.494823 27.8374
4.001145 -76.615051 28.370276
3.246752 -75.712711 28.99119
1.688781 -64.371384 16.013306
2.319692 -65.70496 16.183388
1.402365 -64.618885 17.071049
1.912501 -64.097294 14.977362
1.688781 -64.371384 16.013306
12.17491 -70.571796 3.752022
11.635274 -69.117267 3.554134
11.356102 -56.805653 -3.550666
11.243099 -57.791922 -3.067446
1.909627 -70.937485 25.933407
2.315668 -72.125141 26.357489
2.644468 -70.406361 22.581922
2.401692 -70.587242 23.693228
1.868707 -69.431613 23.296899
10.138183 -81.649956 18.451723
9.762094 -81.819241 19.695222
9.879044 -80.741627 19.280667
6.349394 -79.155601 26.462887
5.586273 -78.325203 27.117198
6.779193 -78.889599 25.240824
7.117601 -79.970714 25.770865
6.349394 -79.155601 26.462887
0.931674 -55.384018 8.014647
1.65889 -57.024052 7.983053
2.130869 -53.945099 5.453465
1.689612 -54.419834 6.284903
2.569206 -53.428861 4.66777
3.223978 -55.045443 4.61402
2.130869 -53.945099 5.453465
4.139123 -52.01477 2.458086
3.561289 -52.447403 3.171834
4.654837 -51.520802 1.800972
5.137253 -53.001514 1.725198
4.139123 -52.01477 2.458086
8.088044 -85.328797 27.108425
8.30781 -85.039803 25.773354
11.797581 -77.034096 10.996357
11.43918 -77.080345 12.118105
11.310237 -71.721779 6.596829
10.941505 -72.016655 7.58861
10.3694 -70.708893 7.32979
10.61775 -61.239241 -0.699156
10.38775 -61.987871 -0.008392
9.721554 -60.499752 0.011207
10.742759 -60.373297 -1.370626
10.61775 -61.239241 -0.699156
10.156341 -58.947952 -1.286488
10.947546 -59.570127 -1.977558
10.742759 -60.373297 -1.370626
10.92339 -55.575583 -3.290421
10.267824 -55.278431 -2.690993
1.403484 -68.20042 22.968388
1.868707 -69.431613 23.296899
1.585738 -68.026451 21.873801
1.403484 -68.20042 22.968388
10.453979 -81.5322 17.209167
10.621567 -80.46875 16.817709
4.765462 -77.486542 27.759018
4.001145 -76.615051 28.370276
5.190175 -77.235825 26.574666
5.586273 -78.325203 27.117198
4.765462 -77.486542 27.759018
2.221004 -63.822872 13.941128
2.914611 -65.183037 14.089413
1.912501 -64.097294 14.977362
1.470554 -62.426956 13.814445
2.472663 -63.512699 12.926497
2.221004 -63.822872 13.941128
8.040967 -83.021748 26.068418
7.652525 -83.300572 27.323776
7.571012 -82.169014 26.81228
8.624643 -84.761605 24.477496
8.30781 -85.039803 25.773354
8.439312 -83.875107 25.284056
11.170577 -74.796856 10.298386
11.593156 -75.908123 10.651623
10.788145 -74.893082 11.397451
11.568058 -74.639248 9.228235
11.170577 -74.796856 10.298386
10.763047 -73.624207 9.974063
11.911126 -74.495953 8.17697
11.568058 -74.639248 9.228235
11.937542 -71.013889 4.67757
11.617425 -71.406456 5.621821
11.058249 -70.02145 5.393757
11.937542 -71.013889 4.67757
12.17491 -70.571796 3.752022
11.356102 -56.805653 -3.550666
10.92339 -55.575583 -3.290421
2.778445 -73.249866 26.832466
3.178247 -74.396412 27.320273
2.460776 -73.445938 27.970506
3.033139 -73.075615 25.707254
2.778445 -73.249866 26.832466
2.315668 -72.125141 26.357489
2.098146 -70.781692 24.820241
1.909627 -70.937485 25.933407
2.873907 -71.756439 24.105264
2.098146 -70.781692 24.820241
2.401692 -70.587242 23.693228
1.871733 -67.826744 20.766968
2.397479 -69.051025 21.07876
1.585738 -68.026451 21.873801
2.098227 -67.62611 19.680716
1.871733 -67.826744 20.766968
2.416456 -67.413189 18.582364
3.001703 -68.638397 18.873573
2.098227 -67.62611 19.680716
1.773128 -66.176682 18.315319
2.676604 -67.188969 17.508176
2.416456 -67.413189 18.582364
1.206525 -64.859829 18.123821
1.773128 -66.176682 18.315319
1.402365 -64.618885 17.071049
1.206525 -64.859829 18.123821
9.445847 -82.008484 20.966912
9.062348 -82.234493 22.223425
9.119457 -81.136921 21.780679
9.445847 -82.008484 20.966912
9.762094 -81.819241 19.695222
10.138183 -81.649956 18.451723
10.453979 -81.5322 17.209167
10.927846 -67.680855 3.378784
11.635274 -69.117267 3.554134
10.670939 -68.19247 4.274155
10.239547 -66.191917 3.239185
11.203882 -67.116715 2.519164
10.927846 -67.680855 3.378784
7.323628 -81.063454 26.274926
7.571012 -82.169014 26.81228
7.753427 -80.797451 25.052862
7.323628 -81.063454 26.274926
7.117601 -79.970714 25.770865
10.540344 -79.421566 16.40219
10.621567 -80.46875 16.817709
10.17391 -79.525158 17.621648
10.942927 -79.320022 15.206002
10.540344 -79.421566 16.40219
10.495269 -78.37643 16.00994
11.295224 -79.275154 14.021854
10.942927 -79.320022 15.206002
11.282744 -78.215615 13.649636
11.295224 -79.275154 14.021854
11.031254 -77.169559 13.257784
11.282744 -78.215615 13.649636
10.646363 -77.228832 14.421899
10.802799 -76.093563 12.890367
11.43918 -77.080345 12.118105
11.031254 -77.169559 13.257784
2.592558 -74.763775 29.591858
3.246752 -75.712711 28.99119
2.262246 -73.593514 29.093808
2.592558 -74.763775 29.591858
2.460776 -73.445938 27.970506
2.262246 -73.593514 29.093808
9.109981 -51.481104 -2.135286
8.476373 -51.617435 -1.616206
0.792646 -60.960459 13.755801
1.470554 -62.426956 13.814445
0.988445 -60.617452 12.753984
0.792646 -60.960459 13.755801
1.269729 -60.266437 11.7664
2.003497 -61.765768 11.812231
0.988445 -60.617452 12.753984
1.510231 -59.880741 10.791417
1.269729 -60.266437 11.7664
1.821943 -59.48377 9.837685
2.596493 -61.017782 9.870916
1.510231 -59.880741 10.791417
2.112433 -59.055807 8.897968
1.821943 -59.48377 9.837685
2.452926 -58.609379 7.985397
3.248699 -60.174383 8.004613
2.112433 -59.055807 8.897968
2.795157 -58.142628 7.089697
2.452926 -58.609379 7.985397
1.65889 -57.024052 7.983053
1.297352 -54.917645 7.128722
0.931674 -55.384018 8.014647
2.393381 -56.059491 6.243533
1.297352 -54.917645 7.128722
1.689612 -54.419834 6.284903
3.081676 -52.964264 3.89484
2.569206 -53.428861 4.66777
4.141928 -54.012344 3.105319
3.081676 -52.964264 3.89484
3.561289 -52.447403 3.171834
5.291801 -51.145305 1.143527
4.654837 -51.520802 1.800972
6.198465 -52.068281 0.478488
5.291801 -51.145305 1.143527
7.143729 -52.903107 -0.210257
6.598231 -53.342371 0.37934
6.198465 -52.068281 0.478488
7.554679 -52.369734 -0.718242
7.954445 -53.643824 -0.817389
7.143729 -52.903107 -0.210257
8.124465 -52.034817 -1.245074
7.554679 -52.369734 -0.718242
8.476373 -51.617435 -1.616206
8.717302 -52.69307 -1.696506
8.124465 -52.034817 -1.245074
7.805621 -84.440064 27.872516
7.652525 -83.300572 27.323776
7.805621 -84.440064 27.872516
8.088044 -85.328797 27.108425
9.072441 -83.351483 22.698927
8.746052 -82.479919 23.512695
9.062348 -82.234493 22.223425
8.850564 -84.497028 23.151829
9.072441 -83.351483 22.698927
8.624643 -84.761605 24.477496
8.850564 -84.497028 23.151829
11.797581 -77.034096 10.996357
11.593156 -75.908123 10.651623
11.521434 -73.24807 7.879781
10.580598 -72.235184 8.612742
10.941505 -72.016655 7.58861
11.911126 -74.495953 8.17697
11.521434 -73.24807 7.879781
11.310237 -71.721779 6.596829
11.617425 -71.406456 5.621821
11.389392 -66.47454 1.674041
11.203882 -67.116715 2.519164
11.608277 -65.801147 0.86876
11.389392 -66.47454 1.674041
10.734468 -64.954384 1.574284
11.724381 -65.028183 0.077253
11.608277 -65.801147 0.86876
11.11865 -63.504176 0.025124
10.222453 -62.764687 0.735487
10.38775 -61.987871 -0.008392
11.724381 -65.028183 0.077253
11.11865 -63.504176 0.025124
11.053449 -58.634464 -2.562143
10.947546 -59.570127 -1.977558
10.550778 -57.30224 -2.398725
11.243099 -57.791922 -3.067446
11.053449 -58.634464 -2.562143
9.523941 -54.795738 -2.048606
10.267824 -55.278431 -2.690993
9.996546 -55.977005 -2.261642
9.080307 -53.603808 -1.901666
9.523941 -54.795738 -2.048606
8.809029 -54.302381 -1.472315
8.717302 -52.69307 -1.696506
9.432215 -53.186426 -2.272798
9.080307 -53.603808 -1.901666
9.636973 -52.409952 -2.54801
9.109981 -51.481104 -2.135286
3 0 95 96
3 1 28 26
3 1 30 28
3 2 97 99
3 97 31 98
3 97 98 99
3 4 34 32
3 4 36 34
3 4 38 36
3 100 41 101
3 102 101 39
3 100 101 102
3 104 103 41
3 3 45 43
3 5 47 46
3 106 105 48
3 6 51 49
3 6 53 51
3 7 107 108
3 109 55 110
3 9 111 113
3 111 56 112
3 111 112 113
3 9 57 56
3 9 59 57
3 11 114 116
3 116 115 60
3 114 115 116
3 12 63 61
3 14 64 27
3 14 65 64
3 14 67 65
3 16 68 29
3 16 69 68
3 17 117 118
3 17 119 121
3 119 70 120
3 119 120 121
3 8 71 54
3 18 72 33
3 18 73 72
3 18 74 73
3 19 75 35
3 19 76 75
3 19 77 76
3 21 78 37
3 21 79 78
3 10 80 58
3 22 81 40
3 22 82 81
3 22 83 82
3 23 84 42
3 23 85 84
3 122 86 123
3 124 87 125
3 126 88 127
3 128 127 87
3 126 127 128
3 129 89 130
3 131 90 132
3 133 132 89
3 131 132 133
3 135 134 44
3 20 136 137
3 13 138 140
3 140 139 62
3 138 139 140
3 15 92 66
3 25 141 143
3 143 142 50
3 141 142 143
3 25 144 145
3 25 146 148
3 146 93 147
3 146 147 148
3 24 94 52
3 24 91 94
3 150 149 7
3 151 9 152
3 154 153 9
3 156 155 11
3 26 27 12
3 28 27 26
3 28 14 27
3 28 29 14
3 30 29 28
3 30 16 29
3 31 157 158
3 31 159 161
3 159 17 160
3 159 160 161
3 32 33 8
3 34 33 32
3 34 18 33
3 34 35 18
3 36 35 34
3 36 19 35
3 36 37 19
3 38 37 36
3 38 21 37
3 39 40 10
3 41 40 39
3 41 22 40
3 41 42 22
3 162 42 163
3 164 163 41
3 162 163 164
3 165 23 166
3 167 166 42
3 165 166 167
3 43 168 170
3 168 44 169
3 168 169 170
3 45 44 43
3 45 171 173
3 173 172 44
3 171 172 173
3 46 174 176
3 176 175 20
3 174 175 176
3 47 177 179
3 179 178 46
3 177 178 179
3 47 180 181
3 48 182 184
3 184 183 13
3 182 183 184
3 186 185 48
3 49 50 15
3 51 50 49
3 51 25 50
3 51 52 25
3 53 52 51
3 53 24 52
3 188 187 7
3 189 54 190
3 191 190 2
3 189 190 191
3 55 192 194
3 192 54 193
3 192 193 194
3 55 8 54
3 195 55 196
3 56 197 199
3 197 55 198
3 197 198 199
3 56 8 55
3 56 32 8
3 57 32 56
3 57 4 32
3 57 58 4
3 59 58 57
3 59 10 58
3 200 59 201
3 202 201 9
3 200 201 202
3 203 59 204
3 205 10 206
3 207 206 59
3 205 206 207
3 208 39 209
3 210 209 10
3 208 209 210
3 211 39 212
3 214 213 39
3 60 215 217
3 217 216 3
3 215 216 217
3 219 218 60
3 221 220 11
3 61 62 5
3 63 62 61
3 63 13 62
3 27 63 12
3 64 63 27
3 64 13 63
3 64 48 13
3 65 48 64
3 65 222 224
3 224 223 48
3 222 223 224
3 65 225 227
3 225 66 226
3 225 226 227
3 67 66 65
3 67 15 66
3 29 67 14
3 68 67 29
3 68 15 67
3 68 49 15
3 69 49 68
3 69 6 49
3 228 43 229
3 70 230 232
3 230 43 231
3 230 231 232
3 70 3 43
3 54 31 2
3 71 31 54
3 71 17 31
3 33 71 8
3 72 71 33
3 72 17 71
3 72 70 17
3 73 70 72
3 73 3 70
3 73 60 3
3 74 60 73
3 74 11 60
3 35 74 18
3 75 74 35
3 75 11 74
3 75 233 235
3 235 234 11
3 233 234 235
3 76 236 238
3 238 237 75
3 236 237 238
3 76 239 240
3 76 241 242
3 77 243 245
3 245 244 76
3 243 244 245
3 77 246 248
3 246 20 247
3 246 247 248
3 37 77 19
3 78 77 37
3 78 20 77
3 78 46 20
3 79 46 78
3 79 5 46
3 58 38 4
3 80 38 58
3 80 21 38
3 40 80 10
3 81 80 40
3 81 21 80
3 81 79 21
3 82 79 81
3 82 5 79
3 82 61 5
3 83 61 82
3 83 12 61
3 42 83 22
3 84 83 42
3 84 12 83
3 84 26 12
3 85 26 84
3 85 1 26
3 249 2 250
3 251 2 252
3 254 253 2
3 256 255 0
3 257 23 258
3 259 23 260
3 261 85 262
3 263 262 23
3 261 262 263
3 264 85 265
3 266 1 267
3 268 267 85
3 266 267 268
3 269 1 270
3 271 30 272
3 273 272 1
3 271 272 273
3 86 274 276
3 274 30 275
3 274 275 276
3 86 16 30
3 277 86 278
3 87 279 281
3 279 86 280
3 279 280 281
3 87 16 86
3 87 69 16
3 88 69 87
3 88 6 69
3 282 88 283
3 89 284 286
3 284 88 285
3 284 285 286
3 89 6 88
3 89 53 6
3 90 53 89
3 90 24 53
3 287 90 288
3 289 90 290
3 291 24 292
3 293 292 90
3 291 292 293
3 294 91 295
3 296 295 24
3 294 295 296
3 297 91 298
3 299 0 300
3 301 300 91
3 299 300 301
3 44 302 303
3 305 304 44
3 306 45 307
3 308 307 3
3 306 307 308
3 309 45 310
3 312 311 45
3 314 313 20
3 62 47 5
3 315 47 316
3 317 316 62
3 315 316 317
3 319 318 47
3 321 320 13
3 66 322 323
3 92 324 326
3 326 325 66
3 324 325 326
3 92 327 328
3 50 92 15
3 329 92 330
3 331 330 50
3 329 330 331
3 333 332 92
3 93 334 335
3 93 336 338
3 336 7 337
3 336 337 338
3 52 93 25
3 94 93 52
3 94 7 93
3 94 339 341
3 341 340 7
3 339 340 341
3 91 342 344
3 344 343 94
3 342 343 344
3 91 345 347
3 345 0 346
3 345 346 347
3 349 348 0
