ply
format ascii 1.0
element vertex 78
property float x
property float y
property float z
element face 58
property list uchar int vertex_index
end_header
-0.439602 34.470009 33.39624
-1.688745 37.663418 27.963276
-1.170252 27.150761 36.993729
-1.503771 32.455616 32.570915
-1.064289 36.090977 30.718613
-0.832447 30.86134 35.202667
-1.875929 28.731049 34.415817
-0.560564 39.632614 28.908064
-1.452932 23.350945 38.713848
-2.182535 24.925373 36.203697
-0.636024 32.665674 34.299453
-0.328908 31.857773 35.598346
-0.132485 33.662107 34.695133
-2.265705 36.558453 27.533155
-1.931694 35.83153 28.916419
-1.998644 38.402226 26.550638
-2.265705 36.558453 27.533155
-0.03652 40.498636 29.438274
-0.278252 38.801021 30.27077
-0.819846 26.351017 38.248947
-0.669932 28.205601 37.379534
-1.311592 25.250853 37.853789
-0.961186 24.451109 39.109007
-0.819846 26.351017 38.248947
-2.392021 27.582972 34.019739
-2.22797 29.492615 33.093339
-1.839207 33.227628 31.220239
-2.041891 31.354898 32.170888
-1.619466 35.045309 30.294087
-1.839207 33.227628 31.220239
-1.28403 34.273297 31.644764
-1.376517 36.877198 29.340944
-1.931694 35.83153 28.916419
-1.619466 35.045309 30.294087
-0.501029 30.06089 36.484003
-0.328908 31.857773 35.598346
-1.00135 29.006051 36.098198
-0.669932 28.205601 37.379534
-0.501029 30.06089 36.484003
-2.041891 31.354898 32.170888
-2.22797 29.492615 33.093339
-1.68985 30.593332 33.493366
0.280799 37.141647 32.946381
-0.217772 36.219719 32.514858
0.058969 35.391937 33.827762
0.058969 35.391937 33.827762
-0.132485 33.662107 34.695133
-0.530115 37.030203 31.176045
-0.751946 35.280493 32.057426
-0.217772 36.219719 32.514858
-0.812426 37.861795 29.813339
-0.530115 37.030203 31.176045
-0.278252 38.801021 30.27077
-0.282037 41.357521 28.04527
-0.03652 40.498636 29.438274
-0.842526 40.435667 27.501136
-0.282037 41.357521 28.04527
-1.406616 39.451069 27.028742
-1.124654 38.648016 28.43567
-0.842526 40.435667 27.501136
-1.998644 38.402226 26.550638
-1.406616 39.451069 27.028742
-1.087749 22.549346 39.9328
-0.961186 24.451109 39.109007
-1.567319 21.412727 39.514131
-1.087749 22.549346 39.9328
-1.940136 22.198939 38.301157
-1.567319 21.412727 39.514131
-2.304938 22.986153 37.046081
-1.940136 22.198939 38.301157
-1.817734 24.138159 37.458772
-2.673571 23.736946 35.794799
-2.304938 22.986153 37.046081
-2.545324 25.680134 34.913679
-2.029232 26.828211 35.309757
-2.392021 27.582972 34.019739
-2.673571 23.736946 35.794799
-2.545324 25.680134 34.913679
3 0 4 3
3 0 10 12
3 10 5 11
3 10 11 12
3 0 3 5
3 1 13 14
3 1 15 16
3 17 7 18
3 2 19 20
3 2 21 23
3 21 8 22
3 21 22 23
3 2 9 8
3 25 24 6
3 3 26 27
3 4 28 30
3 30 29 3
3 28 29 30
3 4 31 33
3 31 1 32
3 31 32 33
3 5 34 35
3 5 36 38
3 36 2 37
3 36 37 38
3 5 6 2
3 3 6 5
3 3 39 41
3 41 40 6
3 39 40 41
3 44 43 0
3 42 43 44
3 45 0 46
3 47 4 48
3 49 48 0
3 47 48 49
3 7 50 52
3 50 4 51
3 50 51 52
3 7 1 4
3 53 7 54
3 55 7 56
3 57 1 58
3 59 58 7
3 57 58 59
3 61 60 1
3 8 62 63
3 8 64 65
3 8 66 67
3 9 68 70
3 70 69 8
3 68 69 70
3 9 71 72
3 6 9 2
3 73 9 74
3 75 74 6
3 73 74 75
3 77 76 9
