ply
format ascii 1.0
element vertex 207
property float x
property float y
property float z
element face 157
property list uchar int vertex_index
end_header
-27.84709 -19.727957 -43.046257
-26.832462 -25.024038 -39.1106
-36.555813 -11.851168 -49.677528
-29.599415 -14.558723 -46.689434
-31.263752 -20.034645 -43.693214
-40.97826 -15.530607 -48.179665
-37.789509 -18.071627 -45.730774
-38.180702 -24.485022 -42.178871
-27.974522 -14.512302 -46.189766
-29.415129 -19.774143 -43.501144
-35.056046 -13.58877 -48.22076
-37.249989 -14.919641 -47.690166
-39.648483 -23.418995 -43.057983
-27.250198 -17.177774 -44.284927
-26.735998 -19.86842 -42.319267
-27.256617 -22.379337 -41.114128
-37.337982 -7.345608 -53.073364
-38.136478 -10.358863 -51.115372
-32.846111 -12.672255 -48.477467
-31.549685 -14.889148 -46.873138
-28.62752 -17.106941 -44.902119
-30.39859 -17.26963 -45.222782
-33.96373 -23.354319 -42.104645
-38.820976 -13.472163 -49.033623
-39.336075 -16.695198 -46.93845
-39.627636 -20.019279 -44.925488
-38.117863 -21.275782 -43.878399
-36.752007 -22.656364 -42.872681
-27.404261 -14.609981 -45.782904
-27.725443 -13.253574 -46.758043
-35.415619 -15.090843 -47.289721
-34.356871 -14.569195 -47.487171
-40.449388 -22.924919 -43.532299
-40.294576 -24.726446 -42.60691
-26.474158 -20.018546 -41.820892
-26.576398 -18.657098 -42.846882
-27.044539 -23.701687 -40.112364
-26.835423 -22.462519 -40.704191
-26.623346 -23.784869 -39.702427
-27.397922 -25.009173 -39.445551
-27.61 -23.686822 -40.447315
-27.044539 -23.701687 -40.112364
-36.129459 -6.665515 -53.210869
-36.908603 -5.878236 -53.935924
-36.550157 -8.110587 -52.335136
-36.129459 -6.665515 -53.210869
-32.440031 -11.268586 -49.29743
-33.5526 -11.664677 -49.265406
-30.172145 -13.34399 -47.556511
-29.251078 -13.238119 -47.364939
-30.57455 -14.723935 -46.781286
-31.14728 -13.509203 -47.648363
-30.172145 -13.34399 -47.556511
-31.824932 -18.87064 -44.474702
-31.392351 -17.488132 -45.239486
-30.831171 -18.652138 -44.457998
-32.235315 -20.291677 -43.667259
-31.824932 -18.87064 -44.474702
-33.48646 -24.486371 -41.396278
-33.056278 -23.091227 -42.132464
-34.297478 -24.690539 -41.41861
-33.48646 -24.486371 -41.396278
-41.975937 -16.772263 -47.679907
-41.838757 -15.060313 -48.802307
-41.115724 -17.226391 -47.104264
-41.975937 -16.772263 -47.679907
-35.914526 -22.0195 -43.119185
-36.55625 -21.146822 -43.712044
-36.163553 -23.408043 -42.37285
-35.914526 -22.0195 -43.119185
-38.054599 -26.080152 -41.398499
-38.7737 -25.675821 -41.764397
-37.53046 -25.017263 -41.776561
-38.054599 -26.080152 -41.398499
-26.538086 -25.101641 -38.66617
-26.623346 -23.784869 -39.702427
-28.438631 -13.214908 -47.115105
-27.725443 -13.253574 -46.758043
-28.786969 -14.535512 -46.4396
-29.251078 -13.238119 -47.364939
-28.438631 -13.214908 -47.115105
-29.011088 -21.068348 -42.594942
-28.63111 -19.75105 -43.2737
-28.227069 -21.045255 -42.367498
-29.858073 -21.140631 -42.765653
-29.011088 -21.068348 -42.594942
-30.782385 -21.270882 -42.861688
-30.339441 -19.904394 -43.597179
-29.858073 -21.140631 -42.765653
-31.706289 -21.43139 -42.926748
-30.782385 -21.270882 -42.861688
-40.724604 -13.898191 -49.27565
-41.838757 -15.060313 -48.802307
-36.512591 -15.756278 -47.024423
-36.153018 -14.254206 -47.955463
-35.415619 -15.090843 -47.289721
-36.78235 -17.332271 -46.044727
-37.519749 -16.495634 -46.71047
-36.512591 -15.756278 -47.024423
-37.075001 -18.854453 -45.14109
-36.78235 -17.332271 -46.044727
-39.507591 -25.142807 -42.203952
-40.294576 -24.726446 -42.60691
-38.914592 -23.952008 -42.618427
-38.7737 -25.675821 -41.764397
-39.507591 -25.142807 -42.203952
-26.833498 -17.311775 -43.829712
-27.042099 -15.942718 -44.830484
-26.993098 -18.523097 -43.302097
-26.833498 -17.311775 -43.829712
-26.576398 -18.657098 -42.846882
-26.575114 -21.20706 -41.306761
-26.474158 -20.018546 -41.820892
-26.996308 -21.123879 -41.716698
-26.575114 -21.20706 -41.306761
-26.835423 -22.462519 -40.704191
-27.931832 -22.370945 -41.401434
-28.227069 -21.045255 -42.367498
-27.551853 -21.053647 -42.080192
-27.931832 -22.370945 -41.401434
-27.61 -23.686822 -40.447315
-38.157852 -6.705426 -53.74422
-36.908603 -5.878236 -53.935924
-38.561563 -8.232212 -52.781971
-38.157852 -6.705426 -53.74422
-37.73723 -8.852235 -52.094368
-38.960811 -9.738839 -51.802975
-38.561563 -8.232212 -52.781971
-36.949405 -9.617214 -51.35614
-37.73723 -8.852235 -52.094368
-36.550157 -8.110587 -52.335136
-36.159073 -10.363367 -50.637219
-37.346145 -11.105016 -50.39645
-36.949405 -9.617214 -51.35614
-35.407452 -11.254134 -49.865437
-36.159073 -10.363367 -50.637219
-34.657568 -12.122934 -49.137052
-35.80593 -12.719969 -48.949144
-35.407452 -11.254134 -49.865437
-33.951079 -13.130513 -48.349114
-34.657568 -12.122934 -49.137052
-33.5526 -11.664677 -49.265406
-33.251903 -14.110938 -47.615524
-34.356871 -14.569195 -47.487171
-33.951079 -13.130513 -48.349114
-31.795493 -12.400756 -48.450527
-32.440031 -11.268586 -49.29743
-32.197898 -13.780701 -47.675303
-31.795493 -12.400756 -48.450527
-31.14728 -13.509203 -47.648363
-32.60369 -15.219385 -46.81336
-33.251903 -14.110938 -47.615524
-32.197898 -13.780701 -47.675303
-27.61236 -15.845038 -45.237347
-27.404261 -14.609981 -45.782904
-27.042099 -15.942718 -44.830484
-31.967898 -16.297891 -46.064664
-30.974137 -16.079389 -46.04796
-31.392351 -17.488132 -45.239486
-32.60369 -15.219385 -46.81336
-31.967898 -16.297891 -46.064664
-32.235315 -20.291677 -43.667259
-31.706289 -21.43139 -42.926748
-33.585304 -21.951515 -42.872974
-33.056278 -23.091227 -42.132464
-34.520387 -22.368478 -42.735166
-33.585304 -21.951515 -42.872974
-34.769415 -23.757021 -41.988833
-34.520387 -22.368478 -42.735166
-34.769415 -23.757021 -41.988833
-34.297478 -24.690539 -41.41861
-39.303713 -11.31232 -50.743504
-38.960811 -9.738839 -51.802975
-39.645961 -12.86897 -49.702629
-39.303713 -11.31232 -50.743504
-38.478727 -11.915513 -50.074497
-39.899618 -14.501385 -48.606644
-40.724604 -13.898191 -49.27565
-39.645961 -12.86897 -49.702629
-40.294632 -17.808686 -46.483656
-41.115724 -17.226391 -47.104264
-40.157167 -16.112903 -47.559058
-40.440413 -19.470726 -45.477175
-40.294632 -17.808686 -46.483656
-39.481856 -18.357239 -45.931969
-40.438965 -21.225061 -44.466051
-40.440413 -19.470726 -45.477175
-39.638059 -21.719137 -43.991736
-40.449388 -22.924919 -43.532299
-40.438965 -21.225061 -44.466051
-37.239178 -20.456531 -44.214903
-37.953686 -19.673704 -44.804586
-37.075001 -18.854453 -45.14109
-37.434935 -21.966073 -43.37554
-37.239178 -20.456531 -44.214903
-36.55625 -21.146822 -43.712044
-36.816113 -24.102933 -42.123466
-37.53046 -25.017263 -41.776561
-37.466354 -23.570693 -42.525776
-36.816113 -24.102933 -42.123466
-36.163553 -23.408043 -42.37285
-26.68168 -26.327846 -38.081612
-26.538086 -25.101641 -38.66617
-27.143482 -26.327452 -38.449038
-26.68168 -26.327846 -38.081612
-27.397922 -25.009173 -39.445551
-27.143482 -26.327452 -38.449038
3 28 8 29
3 31 30 10
3 32 12 33
3 34 14 35
3 1 36 38
3 36 15 37
3 36 37 38
3 1 39 41
3 41 40 15
3 39 40 41
3 42 16 43
3 45 44 16
3 46 18 47
3 3 48 49
3 3 50 52
3 50 19 51
3 50 51 52
3 0 20 13
3 4 21 9
3 4 53 55
3 55 54 21
3 53 54 55
3 4 56 57
3 58 22 59
3 61 60 22
3 5 62 63
3 5 64 65
3 2 23 17
3 6 24 11
3 6 25 24
3 6 26 25
3 66 27 67
3 69 68 27
3 7 70 71
3 7 72 73
3 74 1 75
3 8 76 77
3 8 78 80
3 78 3 79
3 78 79 80
3 81 9 82
3 83 82 0
3 81 82 83
3 84 9 85
3 86 4 87
3 88 87 9
3 86 87 88
3 90 89 4
3 91 5 92
3 10 11 2
3 93 11 94
3 95 94 10
3 93 94 95
3 96 6 97
3 98 97 11
3 96 97 98
3 100 99 6
3 12 101 102
3 12 103 105
3 103 7 104
3 103 104 105
3 106 13 107
3 14 108 110
3 108 13 109
3 108 109 110
3 14 0 13
3 111 14 112
3 15 113 115
3 113 14 114
3 113 114 115
3 15 0 14
3 15 116 118
3 118 117 0
3 116 117 118
3 120 119 15
3 16 121 122
3 16 123 124
3 16 125 127
3 125 17 126
3 125 126 127
3 128 17 129
3 130 129 16
3 128 129 130
3 131 2 132
3 133 132 17
3 131 132 133
3 134 2 135
3 136 10 137
3 138 137 2
3 136 137 138
3 18 139 141
3 139 10 140
3 139 140 141
3 18 142 144
3 144 143 10
3 142 143 144
3 145 18 146
3 19 147 149
3 147 18 148
3 147 148 149
3 19 150 152
3 152 151 18
3 150 151 152
3 13 153 155
3 153 8 154
3 153 154 155
3 20 8 13
3 20 3 8
3 9 20 0
3 21 20 9
3 21 3 20
3 21 19 3
3 156 19 157
3 158 157 21
3 156 157 158
3 160 159 19
3 162 161 4
3 22 163 164
3 22 165 166
3 22 167 168
3 170 169 22
3 17 171 172
3 23 173 175
3 175 174 17
3 173 174 175
3 23 176 178
3 176 5 177
3 176 177 178
3 11 23 2
3 24 23 11
3 24 5 23
3 24 179 181
3 181 180 5
3 179 180 181
3 25 182 184
3 184 183 24
3 182 183 184
3 25 185 186
3 25 187 189
3 187 12 188
3 187 188 189
3 26 12 25
3 26 7 12
3 190 26 191
3 192 191 6
3 190 191 192
3 27 193 195
3 193 26 194
3 193 194 195
3 27 7 26
3 27 196 198
3 198 197 7
3 196 197 198
3 200 199 27
3 201 1 202
3 203 1 204
3 206 205 1
