ply
format ascii 1.0
element vertex 179
property float x
property float y
property float z
element face 170
property list uchar int vertex_index
end_header
-2.012274 -59.482075 53.710415
-1.474325 -56.770485 45.156799
0.85845 -54.307819 37.471218
-1.330219 -63.333359 45.421791
-1.010855 -62.306473 41.082718
-0.470379 -55.426956 41.251221
-0.141935 -61.278954 37.007317
-1.185314 -64.250427 50.043114
-1.951212 -58.189365 49.272476
-2.086756 -51.842548 48.631145
-0.803057 -50.015263 45.044632
0.719959 -48.458305 41.486748
-0.97164 -65.6362 41.122154
-0.765709 -65.167908 38.957695
-0.635967 -61.787304 39.014999
-0.68981 -67.159653 50.502331
-0.861824 -66.847504 48.054539
-1.506714 -60.087708 45.255581
-1.624712 -60.687084 47.409222
-1.777813 -57.483231 47.181866
-2.108521 -55.046669 48.943626
-1.730797 -54.218178 46.99474
-1.493866 -50.908955 46.822727
-1.228197 -53.406227 45.097424
0.177826 -54.834564 39.350342
0.074537 -51.94331 41.381676
0.791649 -51.329201 39.539322
-1.446901 -62.257851 54.33115
-0.993189 -66.485092 45.673096
-1.04142 -66.078438 43.361183
-1.242037 -62.826347 43.217468
-1.248846 -59.482521 43.166939
-1.033518 -56.077511 43.183594
-0.845577 -58.891407 41.137268
-0.316149 -58.330116 39.159927
0.297369 -57.808254 37.225235
0.425484 -60.787319 35.045929
-1.033453 -64.636978 52.462852
-1.555933 -61.787796 51.940002
-1.298637 -63.812584 47.696606
-1.628611 -61.259861 49.634811
-2.018482 -58.862911 51.443947
-2.36554 -55.859829 50.96817
-1.10605 -47.567238 46.641327
-0.258476 -46.608414 44.9683
-0.615067 -52.640282 43.231274
-0.04925 -49.191322 43.271133
-0.669094 -66.57174 37.895984
-0.751553 -66.800167 38.98711
-0.597064 -64.925087 37.911247
-0.669094 -66.57174 37.895984
-2.303114 -58.404532 54.521774
-1.989289 -59.756964 54.895811
-2.265783 -58.054984 53.40119
-2.303114 -58.404532 54.521774
-0.720085 -68.187821 47.034396
-0.630412 -68.317684 48.268652
1.170878 -52.555116 37.584474
1.137478 -51.065807 38.618527
0.825049 -52.81851 38.50527
1.18735 -54.077247 36.53644
1.170878 -52.555116 37.584474
-1.165033 -63.612637 54.643577
-1.392187 -62.460674 55.570797
-0.911712 -67.462765 42.31826
-0.88023 -67.646122 43.485408
-2.324894 -52.311777 49.566999
-2.335777 -53.913837 49.72324
-2.097638 -53.444609 48.787385
-2.344041 -50.736755 49.334829
-2.324894 -52.311777 49.566999
-1.993691 -50.214533 48.474514
-2.344041 -50.736755 49.334829
0.655649 -47.098116 42.37859
0.271044 -47.464624 43.270782
0.335354 -48.824814 42.37894
1.05528 -46.716106 41.510769
0.655649 -47.098116 42.37859
-0.854519 -67.034313 40.069339
-0.876822 -67.241646 41.198746
-0.868675 -65.402054 40.039924
-0.854519 -67.034313 40.069339
-0.751553 -66.800167 38.98711
-0.532193 -63.234785 37.939899
-0.700838 -63.477606 38.986347
-0.597064 -64.925087 37.911247
-0.285177 -62.98061 36.936058
-0.388951 -61.533129 38.011158
-0.532193 -63.234785 37.939899
-0.065075 -62.732616 35.920147
-0.285177 -62.98061 36.936058
-0.544405 -68.473759 49.492548
-0.455251 -68.576615 50.755592
-0.775817 -67.003579 49.278435
-0.544405 -68.473759 49.492548
-0.630412 -68.317684 48.268652
1.122474 -49.578201 39.612446
1.086629 -48.142753 40.586159
0.755804 -49.893753 40.513035
1.122474 -49.578201 39.612446
1.137478 -51.065807 38.618527
-1.706602 -61.144852 55.206179
-1.392187 -62.460674 55.570797
-1.729588 -60.869963 54.020782
-1.989289 -59.756964 54.895811
-1.706602 -61.144852 55.206179
-0.856115 -67.849449 44.641365
-0.785767 -68.006614 45.843674
-1.017305 -66.281765 44.517139
-0.856115 -67.849449 44.641365
-0.88023 -67.646122 43.485408
-1.00653 -65.857319 42.241669
-0.911712 -67.462765 42.31826
-0.876822 -67.241646 41.198746
0.618232 -57.5687 36.27194
0.898772 -55.818483 36.394931
0.57791 -56.058037 37.348226
0.682289 -59.058233 35.182287
0.618232 -57.5687 36.27194
0.361426 -59.297787 36.135582
0.717597 -60.550987 34.078052
0.682289 -59.058233 35.182287
0.218635 -62.486799 34.939453
0.141774 -61.033136 36.026623
-0.065075 -62.732616 35.920147
0.466936 -62.236269 33.944631
0.218635 -62.486799 34.939453
0.717597 -60.550987 34.078052
0.466936 -62.236269 33.944631
-0.604106 -67.289456 51.757845
-0.455251 -68.576615 50.755592
-0.775927 -66.028118 52.738106
-0.604106 -67.289456 51.757845
-0.861631 -65.898315 51.482591
-0.958309 -64.8022 53.709429
-0.775927 -66.028118 52.738106
-1.240177 -63.447415 53.397001
-1.165033 -63.612637 54.643577
-0.958309 -64.8022 53.709429
-0.927507 -66.666298 46.863817
-0.720085 -68.187821 47.034396
-0.785767 -68.006614 45.843674
-2.268886 -57.745401 52.267956
-2.265783 -58.054984 53.40119
-2.015378 -59.172493 52.577181
-2.442416 -56.24386 52.030068
-2.268886 -57.745401 52.267956
-2.192011 -57.36137 51.206058
-2.642313 -54.77422 51.720144
-2.442416 -56.24386 52.030068
-2.464286 -54.320417 50.735512
-2.237031 -55.453249 49.955898
-2.335777 -53.913837 49.72324
-2.642313 -54.77422 51.720144
-2.464286 -54.320417 50.735512
-1.697246 -49.747736 47.570305
-1.993691 -50.214533 48.474514
-1.790311 -51.375751 47.726936
-1.503338 -48.076878 47.479605
-1.697246 -49.747736 47.570305
-1.299958 -49.238096 46.732027
-1.344842 -46.42516 47.316578
-1.503338 -48.076878 47.479605
-0.863112 -45.881487 46.537166
-1.344842 -46.42516 47.316578
-0.439325 -45.402075 45.700653
-0.863112 -45.881487 46.537166
-0.682263 -47.087826 45.804813
0.040887 -44.896264 44.908224
-0.439325 -45.402075 45.700653
0.166431 -46.17317 44.119366
-0.153863 -47.899868 44.119716
0.271044 -47.464624 43.270782
0.040887 -44.896264 44.908224
0.166431 -46.17317 44.119366
1.05528 -46.716106 41.510769
1.086629 -48.142753 40.586159
1.18735 -54.077247 36.53644
0.898772 -55.818483 36.394931
3 47 13 48
3 50 49 13
3 0 51 52
3 0 53 54
3 55 16 56
3 1 19 17
3 1 21 19
3 1 23 21
3 2 26 24
3 2 57 59
3 59 58 26
3 57 58 59
3 2 60 61
3 62 27 63
3 64 29 65
3 4 30 12
3 4 31 30
3 4 33 31
3 6 34 14
3 6 35 34
3 6 36 35
3 7 37 15
3 7 38 37
3 3 39 28
3 8 40 18
3 8 41 40
3 8 42 41
3 9 66 68
3 68 67 20
3 66 67 68
3 9 69 70
3 9 71 72
3 10 43 22
3 10 44 43
3 5 45 32
3 11 46 25
3 11 73 75
3 75 74 46
3 73 74 75
3 11 76 77
3 78 12 79
3 13 80 82
3 80 12 81
3 80 81 82
3 13 4 12
3 13 14 4
3 83 14 84
3 85 84 13
3 83 84 85
3 86 6 87
3 88 87 14
3 86 87 88
3 90 89 6
3 91 15 92
3 16 93 95
3 93 15 94
3 93 94 95
3 16 7 15
3 17 18 3
3 19 18 17
3 19 8 18
3 19 20 8
3 21 20 19
3 21 9 20
3 21 22 9
3 23 22 21
3 23 10 22
3 24 25 5
3 26 25 24
3 26 11 25
3 26 96 98
3 98 97 11
3 96 97 98
3 100 99 26
3 27 101 102
3 27 103 105
3 103 0 104
3 103 104 105
3 106 28 107
3 29 108 110
3 108 28 109
3 108 109 110
3 29 3 28
3 12 111 113
3 111 29 112
3 111 112 113
3 30 29 12
3 30 3 29
3 30 17 3
3 31 17 30
3 31 1 17
3 31 32 1
3 33 32 31
3 33 5 32
3 14 33 4
3 34 33 14
3 34 5 33
3 34 24 5
3 35 24 34
3 35 2 24
3 35 114 116
3 116 115 2
3 114 115 116
3 36 117 119
3 119 118 35
3 117 118 119
3 36 120 121
3 122 36 123
3 124 123 6
3 122 123 124
3 125 36 126
3 128 127 36
3 15 129 130
3 37 131 133
3 133 132 15
3 131 132 133
3 37 134 135
3 37 136 138
3 136 27 137
3 136 137 138
3 38 27 37
3 38 0 27
3 28 139 141
3 139 16 140
3 139 140 141
3 39 16 28
3 39 7 16
3 18 39 3
3 40 39 18
3 40 7 39
3 40 38 7
3 41 38 40
3 41 0 38
3 41 142 144
3 144 143 0
3 142 143 144
3 42 145 147
3 147 146 41
3 145 146 147
3 42 148 149
3 20 42 8
3 150 42 151
3 152 151 20
3 150 151 152
3 154 153 42
3 22 155 157
3 157 156 9
3 155 156 157
3 43 158 160
3 160 159 22
3 158 159 160
3 43 161 162
3 43 163 164
3 44 165 167
3 167 166 43
3 165 166 167
3 44 168 169
3 32 23 1
3 45 23 32
3 45 10 23
3 25 45 5
3 46 45 25
3 46 10 45
3 46 44 10
3 170 44 171
3 172 171 46
3 170 171 172
3 174 173 44
3 176 175 11
3 178 177 2
