ply
format ascii 1.0
element vertex 84
property float x
property float y
property float z
element face 62
property list uchar int vertex_index
end_header
58.907463 -74.427849 -9.549021
58.400429 -74.825325 -13.80065
56.647728 -77.763428 -11.914331
56.335648 -78.128052 -14.041643
61.040337 -71.6996 -7.249268
60.98217 -71.612869 -9.3696
60.803337 -71.58786 -11.498672
58.696167 -74.599686 -11.681311
55.928833 -78.470024 -16.108477
58.01638 -75.077957 -15.87554
55.355471 -79.838371 -14.216213
55.526846 -79.602692 -13.142045
60.02908 -72.958466 -6.278659
60.996674 -71.750621 -6.195361
59.944817 -73.020359 -9.459311
60.0019 -72.961167 -8.395999
58.964546 -74.368657 -8.48571
59.462845 -73.235348 -13.711624
59.610714 -73.122528 -12.651955
58.548298 -74.712506 -12.74098
56.725622 -76.890773 -16.985905
55.663028 -78.606739 -17.087671
57.769396 -75.19474 -16.869436
56.972606 -76.77399 -15.992009
56.725622 -76.890773 -16.985905
57.967354 -75.759933 -8.583163
58.964546 -74.368657 -8.48571
55.682886 -79.42038 -12.078389
55.811718 -79.168877 -10.986497
56.491688 -77.94574 -12.977987
55.682886 -79.42038 -12.078389
55.526846 -79.602692 -13.142045
61.997014 -70.464309 -7.159863
61.95335 -70.515331 -6.105956
60.996674 -71.750621 -6.195361
62.016205 -70.323734 -8.220204
62.972881 -69.088443 -8.130798
61.997014 -70.464309 -7.159863
60.030983 -73.004532 -7.335833
60.02908 -72.958466 -6.278659
61.011254 -71.656235 -8.309434
60.030983 -73.004532 -7.335833
60.0019 -72.961167 -8.395999
61.987122 -70.280369 -9.280369
62.016205 -70.323734 -8.220204
61.011254 -71.656235 -8.309434
61.92971 -70.166672 -10.346919
61.987122 -70.280369 -9.280369
61.840294 -70.154167 -11.411455
61.92971 -70.166672 -10.346919
60.892753 -71.600365 -10.434136
61.720192 -70.088165 -12.479129
61.840294 -70.154167 -11.411455
57.893456 -75.9202 -9.656844
57.967354 -75.759933 -8.583163
56.763588 -77.58799 -10.839499
55.811718 -79.168877 -10.986497
57.787807 -76.006119 -10.722988
56.763588 -77.58799 -10.839499
57.671948 -76.181557 -11.797821
58.801815 -74.513768 -10.615166
57.893456 -75.9202 -9.656844
57.787807 -76.006119 -10.722988
60.664299 -71.616615 -12.560636
59.749752 -73.093773 -11.589992
59.610714 -73.122528 -12.651955
61.720192 -70.088165 -12.479129
60.664299 -71.616615 -12.560636
54.926731 -80.209751 -16.283272
55.663028 -78.606739 -17.087671
55.152063 -80.009357 -15.24963
54.926731 -80.209751 -16.283272
56.13224 -78.299038 -15.07506
55.355471 -79.838371 -14.216213
55.152063 -80.009357 -15.24963
58.850723 -73.507965 -16.808199
57.769396 -75.19474 -16.869436
59.086134 -73.426426 -15.795647
58.850723 -73.507965 -16.808199
59.278159 -73.30011 -14.758202
58.208405 -74.951641 -14.838095
59.086134 -73.426426 -15.795647
59.462845 -73.235348 -13.711624
59.278159 -73.30011 -14.758202
3 10 3 11
3 12 4 13
3 0 14 16
3 14 5 15
3 14 15 16
3 0 6 5
3 1 7 2
3 1 17 19
3 19 18 7
3 17 18 19
3 20 8 21
3 22 9 23
3 24 23 8
3 22 23 24
3 25 0 26
3 27 2 28
3 3 29 31
3 29 2 30
3 29 30 31
3 3 1 2
3 4 32 34
3 32 33 34
3 4 35 37
3 35 36 37
3 38 4 39
3 5 40 42
3 40 4 41
3 40 41 42
3 5 43 45
3 45 44 4
3 43 44 45
3 5 46 47
3 6 48 50
3 50 49 5
3 48 49 50
3 6 51 52
3 53 0 54
3 2 55 56
3 7 57 59
3 59 58 2
3 57 58 59
3 7 60 62
3 60 0 61
3 60 61 62
3 7 6 0
3 63 6 64
3 65 64 7
3 63 64 65
3 67 66 6
3 8 68 69
3 8 70 71
3 8 72 74
3 72 3 73
3 72 73 74
3 9 3 8
3 9 1 3
3 75 9 76
3 77 9 78
3 79 1 80
3 81 80 9
3 79 80 81
3 83 82 1
