ply
format ascii 1.0
element vertex 262
property float x
property float y
property float z
element face 262
property list uchar int vertex_index
end_header
17.104214 -126.378906 -0.016056
26.221745 -120.441315 -3.160427
10.066988 -126.653198 -1.48901
21.393114 -120.481041 7.494572
31.626381 -112.572151 6.000611
21.122803 -124.316162 -1.741852
29.286705 -112.625969 10.511135
26.51955 -116.876701 6.427307
24.151447 -116.118782 11.224169
6.871096 -124.336121 -1.787933
31.709152 -115.557007 -3.6723
14.337103 -125.752174 4.223652
13.784653 -127.246292 -0.828331
10.008675 -125.728996 4.325311
6.285885 -123.951195 4.253069
16.226284 -122.831688 8.669975
18.913204 -124.119774 3.476802
28.959915 -116.55072 1.367325
23.814484 -120.918808 2.241598
18.867472 -125.632195 -0.838724
19.682751 -125.605362 -3.399363
17.495409 -126.583015 -2.10803
26.740709 -114.430618 10.763525
28.933372 -118.079575 -3.543915
12.752546 -124.834091 6.821157
12.131428 -125.956444 4.318621
10.440817 -124.780952 7.018332
6.338854 -123.336464 7.196893
4.66674 -121.976105 7.219231
4.791172 -122.443161 4.216763
3.297352 -120.240067 7.213628
13.670547 -123.406677 9.151277
15.15543 -124.447044 6.509538
32.894295 -112.179016 3.66562
31.601065 -114.12896 1.231054
30.294926 -114.54554 3.679238
23.962736 -118.802216 6.911457
25.158211 -118.946266 4.343479
22.621475 -120.836449 4.897065
21.325127 -122.701927 2.861435
20.103518 -122.419106 5.499201
11.895288 -127.168289 -1.199242
14.034872 -127.433884 -3.636147
12.2043 -127.245407 -4.140402
23.604445 -122.552704 -2.544006
29.072285 -114.778053 6.107745
27.899025 -114.758087 8.476398
25.339699 -116.653267 8.865414
22.749918 -118.366211 9.406588
8.377954 -125.699051 -1.685291
10.442335 -126.608574 -4.486588
8.805931 -125.540565 -4.684271
15.853554 -126.264854 1.845835
15.608684 -126.935974 -0.407602
13.865156 -126.692421 1.794339
11.849552 -126.73938 1.640489
9.897465 -126.358772 1.474332
8.281036 -124.279602 7.13518
8.038897 -125.057495 4.294373
8.092859 -125.536072 1.334455
6.49234 -124.289772 1.237905
21.51569 -117.624382 11.836979
20.12487 -119.824799 10.034727
17.472771 -120.960167 10.684862
18.809998 -121.843132 8.103072
17.611393 -123.634895 6.060938
16.591015 -125.137413 3.957219
17.874174 -125.49424 1.545321
33.008347 -113.586334 -1.190639
30.287201 -116.115944 -1.178469
27.610416 -118.537842 -0.925226
27.71451 -116.823578 3.917495
26.362089 -118.840683 1.719473
25.000938 -120.773277 -0.455549
22.478207 -122.732605 0.179888
20.079773 -124.328201 0.895738
15.842052 -127.194878 -2.968597
26.865638 -120.19299 -4.491553
28.221452 -119.01212 -4.683296
27.577558 -119.260445 -3.352171
10.81503 -124.162261 8.275493
11.596681 -124.807522 6.919745
11.970894 -124.188831 8.176906
3.96931 -120.840565 8.716236
4.749523 -121.631039 8.686075
3.284617 -119.972546 8.713435
3.982046 -121.108086 7.21643
3.96931 -120.840565 8.716236
12.429895 -123.475124 9.341966
12.942134 -122.728912 10.503895
11.970894 -124.188831 8.176906
13.211547 -124.120384 7.986217
12.429895 -123.475124 9.341966
32.898289 -111.440064 6.065057
32.287372 -111.617687 7.174163
32.260338 -112.375584 4.833115
33.532246 -111.243496 4.897562
32.898289 -111.440064 6.065057
21.628062 -124.210594 -3.10115
22.868882 -123.328865 -3.502228
22.363624 -123.434433 -2.142929
20.114525 -125.483059 -4.762899
18.884615 -126.080704 -4.062275
30.538328 -111.689346 10.507986
29.973374 -111.566082 11.545757
29.861246 -112.685665 9.402099
30.538328 -111.689346 10.507986
28.592865 -113.692028 9.493766
29.167406 -113.751724 8.384731
29.861246 -112.685665 9.402099
32.460775 -115.217731 -4.872134
33.108329 -114.251205 -3.608303
7.492993 -123.376114 8.579553
8.562763 -123.755439 8.477569
4.958232 -122.552342 2.704015
4.182921 -121.512974 4.20594
20.176906 -118.248855 12.187796
20.898649 -117.112156 13.038018
19.481496 -119.349064 11.28667
20.82028 -118.724591 10.935853
20.176906 -118.248855 12.187796
16.849528 -121.895927 9.677419
16.146508 -121.337872 10.994305
15.523264 -122.273632 9.986861
33.635628 -112.613216 0.070301
34.36909 -112.296497 -1.075654
15.186915 -127.280971 -4.694233
14.274459 -127.3559 -5.083072
11.567423 -126.792828 -5.782672
10.690554 -126.417851 -5.951294
17.790944 -126.56953 -3.416608
18.884615 -126.080704 -4.062275
18.58908 -126.094189 -2.753697
28.717239 -112.396385 11.578978
29.973374 -111.566082 11.545757
27.44424 -113.29871 11.705172
28.013707 -113.528293 10.63733
28.717239 -112.396385 11.578978
26.159313 -114.1021 11.869853
27.44424 -113.29871 11.705172
24.864682 -114.946182 12.100175
25.446078 -115.2747 10.993847
26.159313 -114.1021 11.869853
7.098257 -124.209794 -3.268471
6.218457 -123.475525 -1.794944
29.637277 -117.780682 -4.815132
31.025168 -116.519398 -4.879325
30.321262 -116.818291 -3.608108
29.637277 -117.780682 -4.815132
28.221452 -119.01212 -4.683296
5.58558 -122.311218 8.674906
6.521902 -122.904545 8.610409
5.502797 -122.656284 7.208062
5.58558 -122.311218 8.674906
4.749523 -121.631039 8.686075
3.436012 -120.411427 5.704372
4.182921 -121.512974 4.20594
4.044262 -121.341614 5.715196
14.245396 -122.561127 10.227512
12.942134 -122.728912 10.503895
14.948415 -123.119182 8.910626
15.523264 -122.273632 9.986861
14.245396 -122.561127 10.227512
34.188952 -110.975178 3.776597
33.532246 -111.243496 4.897562
33.578602 -111.909558 2.49843
34.188952 -110.975178 3.776597
32.24768 -113.153988 2.448337
32.931987 -112.88453 1.281147
33.578602 -111.909558 2.49843
13.359173 -127.261662 -5.335199
14.274459 -127.3559 -5.083072
13.119586 -127.339646 -3.888274
24.182483 -122.368576 -3.910385
25.491133 -121.312882 -4.218596
24.913095 -121.49701 -2.852216
24.182483 -122.368576 -3.910385
22.868882 -123.328865 -3.502228
20.908036 -124.855194 -3.929906
21.628062 -124.210594 -3.10115
20.402777 -124.960762 -2.570607
20.908036 -124.855194 -3.929906
20.114525 -125.483059 -4.762899
31.031084 -112.658756 7.146838
32.287372 -111.617687 7.174163
29.754036 -113.761707 7.200404
30.349333 -113.675102 6.054178
31.031084 -112.658756 7.146838
28.485655 -114.76807 7.292072
29.754036 -113.761707 7.200404
29.167406 -113.751724 8.384731
9.872352 -125.883846 -6.050135
10.690554 -126.417851 -5.951294
9.624133 -126.074569 -4.58543
8.065675 -124.812016 -4.716641
7.838513 -124.938343 -3.236102
7.098257 -124.209794 -3.268471
9.04935 -125.300789 -6.125713
8.065675 -124.812016 -4.716641
9.872352 -125.883846 -6.050135
9.04935 -125.300789 -6.125713
32.460775 -115.217731 -4.872134
31.025168 -116.519398 -4.879325
26.865638 -120.19299 -4.491553
25.491133 -121.312882 -4.218596
9.642653 -124.006114 8.419145
10.81503 -124.162261 8.275493
9.360926 -124.530277 7.076756
9.642653 -124.006114 8.419145
8.562763 -123.755439 8.477569
7.309945 -123.808033 7.166037
7.492993 -123.376114 8.579553
6.521902 -122.904545 8.610409
5.808816 -123.475647 1.214586
5.641756 -123.366467 2.727334
4.958232 -122.552342 2.704015
5.998194 -123.498822 -0.298333
6.681718 -124.312947 -0.275014
5.808816 -123.475647 1.214586
6.218457 -123.475525 -1.794944
5.998194 -123.498822 -0.298333
2.674146 -119.008358 8.712613
3.284617 -119.972546 8.713435
2.771168 -119.211277 7.201941
2.674146 -119.008358 8.712613
3.436012 -120.411427 5.704372
2.771168 -119.211277 7.201941
23.552736 -115.696991 12.375276
24.864682 -114.946182 12.100175
22.234858 -116.449791 12.68168
20.898649 -117.112156 13.038018
22.833568 -116.871582 11.530574
23.552736 -115.696991 12.375276
22.234858 -116.449791 12.68168
16.805993 -120.377682 11.977081
16.146508 -121.337872 10.994305
18.155446 -119.916748 11.611737
16.805993 -120.377682 11.977081
18.798821 -120.392483 10.359794
19.481496 -119.349064 11.28667
18.155446 -119.916748 11.611737
33.757927 -113.265869 -2.367472
34.36909 -112.296497 -1.075654
32.35875 -114.57167 -2.431469
33.108329 -114.251205 -3.608303
33.757927 -113.265869 -2.367472
32.304706 -113.857647 0.020208
33.635628 -112.613216 0.070301
32.931987 -112.88453 1.281147
16.964265 -126.875462 -3.846892
17.790944 -126.56953 -3.416608
16.66873 -126.888947 -2.538314
16.090505 -127.161468 -4.360458
14.938462 -127.314381 -3.302372
15.186915 -127.280971 -4.694233
16.964265 -126.875462 -3.846892
16.090505 -127.161468 -4.360458
12.448405 -127.111244 -5.609579
11.323317 -126.926991 -4.313495
11.567423 -126.792828 -5.782672
13.359173 -127.261662 -5.335199
12.448405 -127.111244 -5.609579
3 0 21 19
3 1 77 79
3 79 78 23
3 77 78 79
3 80 26 81
3 82 81 24
3 80 81 82
3 83 28 84
3 85 30 86
3 87 86 28
3 85 86 87
3 88 31 89
3 90 24 91
3 92 91 31
3 90 91 92
3 4 93 94
3 4 95 97
3 95 33 96
3 95 96 97
3 4 35 33
3 3 38 36
3 3 40 38
3 2 43 41
3 5 98 100
3 100 99 44
3 98 99 100
3 102 101 20
3 6 103 104
3 6 105 106
3 6 107 109
3 107 46 108
3 107 108 109
3 8 47 22
3 8 48 47
3 9 51 49
3 10 110 111
3 11 54 52
3 13 55 25
3 13 56 55
3 112 57 113
3 14 58 27
3 14 59 58
3 14 60 59
3 115 114 29
3 116 61 117
3 118 62 119
3 120 119 61
3 118 119 120
3 15 121 123
3 121 63 122
3 121 122 123
3 15 64 63
3 15 65 64
3 11 66 32
3 11 52 66
3 124 68 125
3 17 69 34
3 17 70 69
3 7 71 45
3 18 72 37
3 18 73 72
3 18 74 73
3 16 75 39
3 16 67 75
3 12 76 53
3 127 126 42
3 129 128 50
3 19 20 5
3 21 20 19
3 21 130 132
3 132 131 20
3 130 131 132
3 133 6 134
3 135 22 136
3 137 136 6
3 135 136 137
3 138 22 139
3 140 8 141
3 142 141 22
3 140 141 142
3 144 143 9
3 23 145 147
3 147 146 10
3 145 146 147
3 149 148 23
3 24 25 11
3 26 25 24
3 26 13 25
3 150 27 151
3 28 152 154
3 152 27 153
3 152 153 154
3 28 14 27
3 28 29 14
3 30 29 28
3 30 155 157
3 157 156 29
3 155 156 157
3 31 158 159
3 31 160 162
3 160 15 161
3 160 161 162
3 31 32 15
3 24 32 31
3 24 11 32
3 33 163 164
3 33 165 166
3 33 167 169
3 167 34 168
3 167 168 169
3 35 34 33
3 35 17 34
3 36 37 7
3 38 37 36
3 38 18 37
3 38 39 18
3 40 39 38
3 40 16 39
3 41 42 12
3 43 42 41
3 43 170 172
3 172 171 42
3 170 171 172
3 44 173 175
3 175 174 1
3 173 174 175
3 177 176 44
3 20 178 180
3 180 179 5
3 178 179 180
3 182 181 20
3 183 4 184
3 185 45 186
3 187 186 4
3 185 186 187
3 46 188 190
3 188 45 189
3 188 189 190
3 46 7 45
3 22 46 6
3 47 46 22
3 47 7 46
3 47 36 7
3 48 36 47
3 48 3 36
3 49 50 2
3 51 50 49
3 51 191 193
3 193 192 50
3 191 192 193
3 194 51 195
3 196 195 9
3 194 195 196
3 197 51 198
3 200 199 51
3 202 201 10
3 204 203 1
3 52 53 0
3 54 53 52
3 54 12 53
3 25 54 11
3 55 54 25
3 55 12 54
3 55 41 12
3 56 41 55
3 56 2 41
3 205 26 206
3 57 207 209
3 207 26 208
3 207 208 209
3 57 13 26
3 27 210 212
3 210 57 211
3 210 211 212
3 58 57 27
3 58 13 57
3 58 56 13
3 59 56 58
3 59 2 56
3 59 49 2
3 60 49 59
3 60 9 49
3 29 60 14
3 213 60 214
3 215 214 29
3 213 214 215
3 216 9 217
3 218 217 60
3 216 217 218
3 220 219 9
3 221 30 222
3 223 30 224
3 226 225 30
3 227 8 228
3 61 229 230
3 61 231 233
3 231 8 232
3 231 232 233
3 61 48 8
3 62 48 61
3 62 3 48
3 63 234 235
3 63 236 237
3 63 238 240
3 238 62 239
3 238 239 240
3 64 62 63
3 64 3 62
3 64 40 3
3 65 40 64
3 65 16 40
3 32 65 15
3 66 65 32
3 66 16 65
3 66 67 16
3 52 67 66
3 52 0 67
3 68 241 242
3 68 243 245
3 243 10 244
3 243 244 245
3 34 246 248
3 246 68 247
3 246 247 248
3 69 68 34
3 69 10 68
3 69 23 10
3 70 23 69
3 70 1 23
3 45 35 4
3 71 35 45
3 71 17 35
3 37 71 7
3 72 71 37
3 72 17 71
3 72 70 17
3 73 70 72
3 73 1 70
3 73 44 1
3 74 44 73
3 74 5 44
3 39 74 18
3 75 74 39
3 75 5 74
3 75 19 5
3 67 19 75
3 67 0 19
3 53 21 0
3 76 21 53
3 76 249 251
3 251 250 21
3 249 250 251
3 42 76 12
3 252 76 253
3 254 253 42
3 252 253 254
3 256 255 76
3 50 43 2
3 257 43 258
3 259 258 50
3 257 258 259
3 261 260 43
