ply
format ascii 1.0
element vertex 862
property float x
property float y
property float z
element face 911
property list uchar int vertex_index
end_header
-1.347937 56.535416 -10.884073
13.597265 88.057419 2.25206
3.15085 78.846687 6.767364
2.329779 81.102547 -20.01346
-1.752775 50.997208 -31.126356
5.171001 26.621136 -30.179827
2.292236 73.244095 21.189398
3.716698 83.411324 19.204554
7.045027 88.504112 -9.574484
-4.670412 39.688534 -14.200459
-3.30654 35.183372 -24.032366
-1.974077 54.290039 -22.332415
2.870176 66.614578 9.640511
5.619522 87.96508 4.274446
2.806108 81.546692 -7.180216
0.62604 69.647438 -16.600058
-0.354288 67.907143 -27.704775
-0.623058 30.795406 -29.865072
5.803764 33.672356 -31.806059
8.688526 25.002655 -29.800325
2.713194 79.79055 26.820591
-3.287683 48.695206 -12.907389
-3.091448 46.993805 -18.492838
-1.650404 55.495735 -16.803247
-2.306288 49.692497 12.117985
2.820906 76.427002 13.947184
2.949896 70.295914 15.034483
3.150215 72.770821 8.033195
2.716845 68.331253 2.85067
3.035765 74.502922 1.118629
12.004593 87.726654 9.16751
7.800879 88.162239 10.338911
9.050196 89.272079 3.087247
4.359369 85.723862 -15.037514
4.080807 86.187019 -8.539371
2.389862 81.784668 -13.838078
1.777695 76.087173 -12.251261
1.061155 75.97847 -18.566946
-0.13155 69.136848 -22.504393
0.823519 75.040977 -24.304525
-2.560465 43.371758 -27.925692
-2.309774 32.997036 -27.667566
-1.617521 41.246269 -30.976141
0.207943 38.801868 -32.374084
-0.480284 48.487 -33.425438
4.910862 18.410606 -28.523306
8.852549 17.110886 -28.194517
1.723036 69.21936 28.373798
1.697985 75.073395 27.781744
2.442663 78.942581 20.326311
3.171421 81.981827 12.882952
10.251995 89.243301 -3.772657
8.220436 87.170906 -15.584801
-4.001661 37.406876 -19.421984
-2.917078 45.236748 -23.594309
-2.136072 52.867111 -27.261957
-1.053736 57.200272 -4.645496
1.600449 62.289001 5.209222
4.737778 86.151428 11.658086
3.720549 84.228256 5.55172
6.318277 88.767441 -2.855204
3.988241 85.654259 -1.612669
3.142159 80.549149 -0.28591
0.027876 63.014549 -14.09413
-0.693697 62.391083 -20.006182
-1.246965 61.434555 -25.449194
-1.256853 59.885239 -30.029173
0.322758 65.617195 -31.699526
-0.367008 57.448639 -33.228409
-3.007002 24.313438 -24.119432
-1.179867 22.074032 -26.988348
1.463388 20.089172 -28.380007
1.934399 28.621113 -30.515451
2.826559 36.159054 -32.36145
-2.333799 53.347878 -8.991837
-3.380766 49.473457 -9.963095
-2.365408 52.754906 -12.008228
-2.391176 52.086098 -14.934671
-1.494223 56.043968 -13.887289
3.021397 77.728706 10.344223
3.041321 74.712929 10.913624
3.137159 75.845383 7.377645
3.139925 73.724701 4.560883
3.14632 76.798729 3.869741
12.796946 88.037804 5.656244
10.519577 88.744446 6.119684
11.223671 88.951172 2.611775
3.266441 83.620285 -17.597952
3.155724 84.03569 -14.500984
2.285103 81.573143 -17.010775
1.696384 79.030411 -16.287409
1.528246 78.754982 -19.364958
0.854513 75.633018 -21.536043
1.524912 78.225441 -22.257833
-2.195841 47.287926 -29.646574
-2.187613 42.34906 -29.644011
-1.778677 46.225136 -31.198076
-1.13386 45.0373 -32.333244
-1.238134 49.82769 -32.490967
4.99799 22.607006 -29.340994
6.846203 17.70932 -28.35956
6.841379 21.823132 -29.12343
3.202986 81.711166 23.011105
2.464712 79.607582 23.584263
2.905563 81.37928 19.804443
2.818972 80.561951 16.595438
3.347801 82.940948 16.03624
10.82955 86.961922 -15.550562
9.095245 86.092499 -18.192392
6.666056 85.896584 -18.215521
-4.333261 38.545464 -16.874804
-2.466597 50.643791 -20.489424
-3.007318 46.120621 -21.115263
-2.504343 49.888649 -23.087442
-2.505037 49.094978 -25.520399
-2.096254 53.618279 -24.895773
-1.837442 54.06395 3.707608
-2.038343 54.213432 0.476505
-2.184031 54.122063 -2.731815
2.004894 71.343124 24.798304
2.18099 68.231155 25.127579
2.428106 70.162079 21.592678
3.043751 68.534088 12.226919
2.95223 67.179878 15.681427
2.388525 64.538101 7.296773
2.096403 65.852638 0.597277
6.645195 88.338264 7.293608
6.090696 87.460777 10.996878
5.203552 87.179245 7.94082
4.151199 85.437454 8.583551
4.474815 86.362206 4.916737
8.60372 89.128441 -6.708649
8.104055 89.342232 -3.372589
6.654255 88.770012 -6.280787
3.261049 84.1035 -7.884285
4.039101 86.038086 -5.11347
3.356777 83.797997 -4.446095
3.414629 83.286407 -0.952135
1.226915 72.97419 -14.530783
0.400034 66.326859 -15.424587
-0.335938 62.735641 -17.094378
-0.021202 66.119713 -18.432318
-0.336006 68.633591 -25.222879
-0.704277 65.390457 -24.111429
-0.868271 64.800583 -26.690733
-1.345919 60.754333 -27.880297
-0.844582 64.003342 -29.012159
1.044596 63.995964 -33.119133
-0.082632 61.633736 -32.624748
0.677835 60.013878 -33.832123
-3.766729 31.001934 -22.0208
-3.252947 29.825275 -24.085249
-1.572245 31.898277 -28.967123
-1.87068 27.569611 -27.344027
-0.910376 26.485435 -28.432474
0.032307 21.047626 -27.86989
0.267511 25.435139 -29.128588
1.663643 24.42902 -29.458555
0.550409 29.697701 -30.364332
1.440336 37.490082 -32.49984
5.441093 30.348251 -31.010496
6.917891 25.751896 -29.941626
4.31078 83.345955 22.346956
-4.065035 44.341743 -13.620892
-3.839441 43.345207 -16.381716
-3.185743 47.857452 -15.752819
-2.424189 51.376274 -17.76491
-1.815226 54.910583 -19.623938
-1.5837 53.659081 6.93989
2.570585 74.935028 17.5667
2.665804 71.879539 18.034163
2.877064 73.3936 14.469584
3.08049 71.63063 11.527806
3.086227 69.684608 8.774676
2.825958 67.574165 6.237513
3.061396 70.637543 5.336679
2.953825 71.403145 1.923176
2.754677 71.996422 -1.457346
11.207937 87.112259 12.760219
9.064478 87.441376 13.387027
9.80127 88.240845 9.718894
8.440533 88.86058 6.675055
7.158525 88.948746 3.652774
5.620672 87.364105 -12.356218
5.334152 87.678268 -9.115393
4.167082 86.087509 -11.861628
3.17457 84.188927 -11.24696
2.583572 81.767929 -10.548693
2.293577 78.95871 -9.791134
1.971336 79.08873 -13.082232
1.388035 76.118813 -15.456974
0.804859 72.900452 -17.643469
0.206802 69.461914 -19.613131
0.4569 72.671066 -20.648245
0.238018 72.249535 -23.497057
0.201633 71.591705 -26.128099
-2.913393 39.319237 -26.027655
-2.871218 34.090191 -26.002825
-2.531061 38.281796 -27.88542
-1.988356 37.206242 -29.396574
-1.241529 36.087681 -30.508471
-0.268059 34.930893 -31.202185
-0.820126 40.060825 -31.884516
-0.25148 43.725578 -33.036842
0.50679 46.981033 -33.939865
1.616636 72.24424 28.108595
1.936787 74.331482 24.455904
2.043129 77.618652 27.358891
2.063314 77.116768 24.061171
2.266186 76.198769 20.779419
2.588799 77.858986 17.098392
2.884417 79.322258 13.428679
3.130928 80.595078 9.782088
14.432953 87.812889 -1.018339
11.934889 88.873566 -0.780369
12.690836 88.536652 -4.028584
10.923134 88.832008 -6.988049
9.189787 88.653801 -9.880892
9.917555 87.930428 -12.844931
7.549059 87.971397 -12.693123
6.047853 86.774918 -15.409401
4.716311 85.076813 -18.010965
3.562578 82.914009 -20.47637
2.576153 80.336472 -22.781008
-4.225809 32.216736 -19.74299
-3.668577 36.286221 -21.820498
-3.622164 42.337559 -19.027052
-3.412584 41.333309 -21.540731
-3.189695 40.331188 -23.891062
-2.784983 44.327553 -25.885309
-2.420748 48.237213 -27.730474
-2.039141 52.003441 -29.363062
13.471842 86.254303 12.204294
14.323814 86.693764 8.706625
15.192981 86.837494 5.303944
-2.278788 53.819557 -5.894688
-1.204496 56.935249 -7.800114
2.778738 68.759903 18.540337
2.2691 65.299232 3.937647
1.426908 62.844482 1.889652
4.904032 84.953506 18.536015
7.134413 87.18573 14.060675
5.504267 86.328331 14.748526
4.235456 84.892654 15.416142
3.770126 84.294662 12.292664
3.478096 83.204544 9.199313
3.308237 81.680511 6.166583
9.643324 89.396255 -0.40379
7.636538 89.28405 0.090448
5.985365 88.497498 0.670559
5.127897 87.726761 -5.736496
4.943659 87.517441 -2.256392
4.735521 87.059151 1.299994
3.889191 85.047546 1.945683
3.403221 82.578568 2.587207
3.193176 79.785782 3.222733
3.058212 77.581024 0.395232
-0.550261 59.749519 -12.585344
-0.814926 59.368828 -15.583076
-1.089947 58.935516 -18.495291
-1.357798 58.45253 -21.307726
-0.404577 65.816994 -21.340498
-1.012171 61.967117 -22.804972
-1.587427 57.904907 -23.992167
-1.734461 57.263351 -26.502241
-1.745813 56.490891 -28.774614
-1.568903 55.550964 -30.737612
1.735237 77.400085 -24.89908
0.392078 70.652283 -28.474081
-0.143106 66.913567 -29.882856
-0.590561 62.957962 -31.008314
-0.937735 58.791481 -31.828566
-1.162792 54.414543 -32.3256
-0.508722 53.064934 -33.495728
-2.637571 28.682667 -25.879496
-2.183035 23.163105 -25.728605
3.100674 19.206982 -28.568167
3.254593 23.481022 -29.493666
3.491817 27.58696 -30.41308
0.927361 33.750301 -31.505449
2.312859 32.569187 -31.495176
3.837015 31.420506 -31.286291
4.886131 37.766064 -32.78933
9.638578 85.402752 -19.327393
10.519352 85.914139 -18.06992
11.062685 85.224392 -19.20492
8.299316 85.40017 -19.452417
9.638578 85.402752 -19.327393
-5.097353 37.849054 -13.096474
-4.835837 40.247473 -12.805078
-4.88443 37.215006 -14.453796
-5.097353 37.849054 -13.096474
-4.501836 39.116999 -15.537631
-4.715855 36.643471 -15.790969
-4.88443 37.215006 -14.453796
-1.367423 55.686439 1.143516
-1.937892 54.138691 2.092056
-1.266973 55.611699 2.759067
-1.462371 55.750244 -0.479511
-1.367423 55.686439 1.143516
2.86721 66.029991 11.344005
2.953997 66.989746 12.63721
2.956963 67.574333 10.933715
2.667593 65.087078 10.150882
2.86721 66.029991 11.344005
2.629351 65.576339 8.468642
2.426767 64.048839 8.979012
2.667593 65.087078 10.150882
2.905722 81.342003 -5.467797
3.181057 82.467656 -4.100736
3.081443 82.672344 -5.813155
2.707575 80.102989 -6.810107
2.905722 81.342003 -5.467797
0.85194 69.683716 -15.049923
1.152378 71.347092 -14.015286
0.926478 71.310814 -15.565421
0.513037 67.987148 -16.012322
0.738938 68.023426 -14.462188
0.85194 69.683716 -15.049923
1.519521 63.020378 -33.627994
1.758058 64.907776 -33.210537
1.33614 61.029335 -33.98449
0.861216 62.004921 -33.475628
1.519521 63.020378 -33.627994
1.168604 59.056076 -34.23415
1.33614 61.029335 -33.98449
6.439718 31.538155 -31.297701
6.258382 29.876103 -30.899919
5.622428 32.010303 -31.408278
4.724771 83.032803 23.883435
4.027432 82.428055 24.257144
-3.785183 46.995376 -11.829935
-3.831724 47.384502 -10.357788
-3.334224 49.084332 -11.435242
-3.676359 46.518474 -13.26414
-4.173858 44.818645 -12.186687
-3.785183 46.995376 -11.829935
-2.779022 47.9706 13.149711
-2.097809 49.219456 13.680269
-3.002329 48.346634 11.59507
-2.779022 47.9706 13.149711
-2.492144 50.046886 10.535587
-3.002329 48.346634 11.59507
-0.913955 54.919556 7.635383
-1.434082 53.328934 8.547605
-1.032849 55.226388 6.00607
-0.913955 54.919556 7.635383
5.916005 15.954046 -28.098436
4.900104 16.265968 -28.142227
8.94767 15.04638 -27.866604
7.944497 15.345597 -27.949126
7.849376 17.410103 -28.277038
10.025081 14.843905 -27.829666
8.94767 15.04638 -27.866604
8.710575 23.073025 -29.377405
7.825257 23.447645 -29.448055
7.803209 25.377275 -29.870976
1.65731 73.658817 27.945169
1.487722 72.52174 29.787734
1.528396 73.936318 29.624308
2.378162 78.704601 27.089741
2.152248 77.630852 28.986716
2.487281 78.716801 28.717565
14.017415 87.940014 -4.077644
13.561894 88.17477 -2.523462
14.888474 87.578133 -2.572521
11.31666 88.509117 -8.500047
12.231316 88.402584 -7.044413
10.449987 88.420014 -9.946468
10.056461 88.742905 -8.43447
11.31666 88.509117 -8.500047
5.000007 84.599335 -19.364288
5.691184 85.486699 -18.113243
5.97488 85.00922 -19.466566
4.42314 83.517933 -20.596991
4.139444 83.995411 -19.243668
5.000007 84.599335 -19.364288
3.823284 82.398884 -21.772627
4.42314 83.517933 -20.596991
-4.113735 34.811806 -19.582487
-4.445123 32.842239 -18.519374
-4.333049 35.437309 -18.358871
14.185167 85.311577 13.701246
13.051272 85.882324 13.986608
15.507811 85.974743 8.528061
15.05134 85.826645 10.220375
15.942394 86.046608 6.826721
14.758398 86.765629 7.005285
15.507811 85.974743 8.528061
1.829917 67.647628 28.496592
1.696575 66.468204 30.257171
1.589694 68.039936 30.134378
2.2822 66.643878 25.306534
2.383092 67.623547 23.578736
2.890804 66.399098 17.402905
2.88798 65.622341 16.063466
1.171374 60.776363 5.942374
1.673582 61.898483 6.872664
1.074036 61.064655 4.295803
1.171374 60.776363 5.942374
1.323527 63.016212 0.241238
1.761656 64.34856 1.243464
1.658275 64.520291 -0.40495
0.887907 61.514294 0.994746
1.323527 63.016212 0.241238
5.679854 85.44907 18.180156
5.344 84.703018 20.075674
1.977183 75.996216 -10.615008
2.235124 77.431984 -9.384944
2.035636 77.522942 -11.021197
0.201724 63.119243 -12.556041
0.425144 64.73272 -13.216665
-0.261192 61.382034 -13.339737
-0.087344 61.486728 -11.801648
0.201724 63.119243 -12.556041
2.397358 78.318184 -25.072357
2.155695 78.868279 -23.840044
2.817816 79.786377 -24.013321
0.92391 71.797138 -28.723984
0.7032 72.404984 -27.639525
0.579481 67.504615 -31.087019
1.186865 68.588192 -31.281362
0.930141 66.700772 -31.893868
0.089826 66.265381 -30.791191
0.346549 68.152802 -30.178684
0.579481 67.504615 -31.087019
-3.216234 22.122494 -23.285017
-3.350748 24.919965 -23.165211
-2.769532 21.521103 -24.156292
-3.216234 22.122494 -23.285017
-1.322326 19.846773 -26.298345
-1.82391 20.391309 -25.668474
-1.681451 22.618569 -26.358477
-0.686381 19.338282 -26.824312
-1.322326 19.846773 -26.298345
1.380537 17.883747 -27.860948
0.664996 18.362974 -27.60589
0.747847 20.568399 -28.124949
2.231984 17.469476 -28.032457
1.380537 17.883747 -27.860948
2.282031 19.648077 -28.474087
3.050627 17.028382 -28.126537
2.231984 17.469476 -28.032457
3.564319 35.509687 -32.223762
4.069548 33.140414 -31.686183
3.331787 33.78978 -31.82387
4.596875 39.755211 -33.239956
4.187605 38.514447 -32.943085
4.950093 40.850164 -33.524204
5.239349 38.861018 -33.073578
4.596875 39.755211 -33.239956
6.550312 33.186279 -31.720861
6.018566 35.064363 -32.16624
-2.857283 51.410668 -9.477466
-3.411112 49.809708 -8.445602
-2.887628 51.746918 -7.959974
-1.627909 50.893341 12.729112
-2.097809 49.219456 13.680269
-1.795376 51.345642 11.136653
-1.627909 50.893341 12.729112
9.658665 22.789479 -29.357572
9.572581 24.69212 -29.805878
1.675928 75.237526 29.444945
1.528396 73.936318 29.624308
11.386505 86.34885 -16.749004
12.313975 86.604657 -15.432265
9.962397 86.52721 -16.871477
11.386505 86.34885 -16.749004
10.519352 85.914139 -18.06992
7.084721 85.302212 -19.463981
7.88065 85.994541 -18.203957
8.299316 85.40017 -19.452417
5.97488 85.00922 -19.466566
7.084721 85.302212 -19.463981
-4.49885 36.006603 -17.085282
-4.715855 36.643471 -15.790969
-4.167461 37.97617 -18.148394
-4.333049 35.437309 -18.358871
-4.49885 36.006603 -17.085282
-2.530933 52.553997 3.129533
-2.413044 52.459401 4.733325
-2.631384 52.628738 1.513982
-2.530933 52.553997 3.129533
-1.937892 54.138691 2.092056
-2.707668 52.593155 -0.085999
-2.631384 52.628738 1.513982
-2.111187 54.167747 -1.127655
-2.780512 52.547471 -1.69016
-2.707668 52.593155 -0.085999
-1.535214 55.70456 -2.083671
-2.111187 54.167747 -1.127655
-1.462371 55.750244 -0.479511
-0.970067 57.243664 -3.040511
-1.618883 55.661167 -3.688655
-1.535214 55.70456 -2.083671
2.50665 68.589009 21.811286
2.383092 67.623547 23.578736
2.304548 69.196617 23.360129
2.908237 66.312641 14.364463
2.997991 67.856983 13.954173
2.953997 66.989746 12.63721
2.88798 65.622341 16.063466
2.908237 66.312641 14.364463
2.06762 63.023033 7.91644
2.426767 64.048839 8.979012
1.994487 63.413551 6.252997
1.673582 61.898483 6.872664
2.06762 63.023033 7.91644
2.314142 67.376197 0.044298
2.406624 67.091946 1.723974
2.624363 68.615505 1.170995
1.980055 66.034843 -1.05693
2.314142 67.376197 0.044298
1.658275 64.520291 -0.40495
1.980055 66.034843 -1.05693
3.209983 82.211861 -2.353756
3.385703 83.542202 -2.699115
3.181057 82.467656 -4.100736
3.073748 80.843232 -2.020644
3.278394 81.917778 -0.619023
3.209983 82.211861 -2.353756
3.008077 79.37442 -1.664183
3.073748 80.843232 -2.020644
1.44939 72.945401 -12.936398
1.724779 74.501892 -11.796637
1.502305 74.530682 -13.391022
1.44939 72.945401 -12.936398
1.152378 71.347092 -14.015286
0.611223 66.388875 -13.881893
0.738938 68.023426 -14.462188
0.213955 64.670704 -14.759359
0.425144 64.73272 -13.216665
0.611223 66.388875 -13.881893
1.29106 65.890156 -32.603672
1.758058 64.907776 -33.210537
0.683677 64.806579 -32.409329
0.930141 66.700772 -31.893868
1.29106 65.890156 -32.603672
0.564199 57.930183 -34.020241
0.041777 56.647564 -33.718384
0.155413 58.731258 -33.530266
1.054968 56.972381 -34.422268
0.564199 57.930183 -34.020241
1.168604 59.056076 -34.23415
-3.730612 28.264213 -22.115895
-4.029146 28.902672 -21.039907
-3.47372 27.675884 -23.148119
-3.730612 28.264213 -22.115895
-3.509838 30.413604 -23.053024
-3.129974 27.069357 -24.102341
-3.350748 24.919965 -23.165211
-3.47372 27.675884 -23.148119
1.144305 39.897187 -32.920071
0.82414 38.145975 -32.436962
0.528108 40.553079 -32.857193
1.778899 39.145727 -32.911335
1.144305 39.897187 -32.920071
2.472011 38.480213 -32.84214
2.133447 36.824568 -32.430645
1.778899 39.145727 -32.911335
3.157819 37.710942 -32.729145
2.472011 38.480213 -32.84214
6.996781 27.577925 -30.365485
6.179492 28.050073 -30.476061
6.258382 29.876103 -30.899919
7.882099 27.203305 -30.294834
7.803209 25.377275 -29.870976
6.996781 27.577925 -30.365485
6.439718 31.538155 -31.297701
6.550312 33.186279 -31.720861
8.702106 26.812919 -30.252678
7.882099 27.203305 -30.294834
9.58616 26.502384 -30.25823
9.572581 24.69212 -29.805878
8.702106 26.812919 -30.252678
2.966227 79.618153 28.40065
2.487281 78.716801 28.717565
3.228638 80.650352 26.493961
2.966227 79.618153 28.40065
3.473534 81.61066 24.589219
2.95809 80.750858 24.915848
3.228638 80.650352 26.493961
3.756883 82.52856 22.67903
3.473534 81.61066 24.589219
4.027432 82.428055 24.257144
-3.923342 47.817154 -8.873535
-3.411112 49.809708 -8.445602
-3.923342 47.817154 -8.873535
-3.831724 47.384502 -10.357788
-4.533148 42.574078 -12.515294
-4.173858 44.818645 -12.186687
-4.367724 42.015138 -13.910675
-4.835837 40.247473 -12.805078
-4.533148 42.574078 -12.515294
-2.492144 50.046886 10.535587
-1.795376 51.345642 11.136653
-2.13085 52.030179 7.946539
-1.434082 53.328934 8.547605
-2.286173 52.256966 6.349465
-2.13085 52.030179 7.946539
-1.710571 53.861515 5.323749
-2.413044 52.459401 4.733325
-2.286173 52.256966 6.349465
-1.15972 55.428822 4.389929
-1.710571 53.861515 5.323749
-1.032849 55.226388 6.00607
-1.266973 55.611699 2.759067
-1.15972 55.428822 4.389929
2.742853 70.151451 0.707248
2.624363 68.615505 1.170995
2.835335 69.867199 2.386923
2.643279 70.448089 -0.983013
2.742853 70.151451 0.707248
2.854251 71.699783 0.232915
2.510695 70.648243 -2.643947
2.643279 70.448089 -0.983013
10.136207 87.276817 13.073623
9.73643 86.819458 14.89832
10.808159 86.654899 14.584916
0.298397 43.014934 -33.188572
0.528108 40.553079 -32.857193
-0.021768 41.263723 -32.705463
0.677532 44.642662 -33.640084
0.298397 43.014934 -33.188572
0.127655 45.353305 -33.488354
1.09292 46.155265 -34.015423
0.677532 44.642662 -33.640084
6.883675 15.603403 -28.016563
5.916005 15.954046 -28.098436
5.878533 18.059963 -28.441433
6.883675 15.603403 -28.016563
7.944497 15.345597 -27.949126
7.787001 21.483263 -29.038957
6.879635 23.787514 -29.532528
7.825257 23.447645 -29.448055
8.792586 19.12714 -28.574501
7.846964 19.467009 -28.658974
7.787001 21.483263 -29.038957
8.710575 23.073025 -29.377405
9.658665 22.789479 -29.357572
9.865128 16.865792 -28.160248
8.792586 19.12714 -28.574501
10.025081 14.843905 -27.829666
9.865128 16.865792 -28.160248
1.519906 69.571388 30.044972
1.589694 68.039936 30.134378
1.386564 68.391964 31.805551
1.466706 71.083828 29.91237
1.487722 72.52174 29.787734
1.669836 70.7318 28.241197
1.519906 69.571388 30.044972
1.466706 71.083828 29.91237
1.848499 76.510154 29.233519
2.152248 77.630852 28.986716
1.870557 76.346024 27.570318
1.675928 75.237526 29.444945
1.848499 76.510154 29.233519
13.115167 88.254906 -5.56468
14.017415 87.940014 -4.077644
11.806985 88.68433 -5.508317
13.115167 88.254906 -5.56468
12.231316 88.402584 -7.044413
11.744677 87.143051 -14.176375
13.229102 86.785786 -14.058079
12.313975 86.604657 -15.432265
11.28868 87.627305 -12.82356
11.744677 87.143051 -14.176375
10.373552 87.446175 -14.197747
10.813871 88.058327 -11.428488
11.28868 87.627305 -12.82356
9.553671 88.292114 -11.362911
10.449987 88.420014 -9.946468
10.813871 88.058327 -11.428488
3.330071 81.110116 -22.924946
3.069365 81.62524 -21.628689
3.823284 82.398884 -21.772627
2.817816 79.786377 -24.013321
3.330071 81.110116 -22.924946
-4.531748 30.17847 -18.727619
-4.445123 32.842239 -18.519374
-4.258686 29.510073 -19.901002
-4.531748 30.17847 -18.727619
-3.996269 31.609335 -20.881895
-4.029146 28.902672 -21.039907
-4.258686 29.510073 -19.901002
11.919319 86.311302 14.264571
10.808159 86.654899 14.584916
12.339889 86.683281 12.482257
11.919319 86.311302 14.264571
13.051272 85.882324 13.986608
14.625353 85.606914 11.96921
14.185167 85.311577 13.701246
15.338679 84.664188 13.466162
13.897828 86.474033 10.455459
14.625353 85.606914 11.96921
15.05134 85.826645 10.220375
16.421394 86.0579 5.188816
15.942394 86.046608 6.826721
15.645423 86.774334 3.663757
16.421394 86.0579 5.188816
14.847565 87.384297 2.137815
14.395123 87.447457 3.778002
15.645423 86.774334 3.663757
15.26541 87.262032 0.502615
14.015109 87.935154 0.616861
14.847565 87.384297 2.137815
15.75094 87.084271 -1.06323
15.26541 87.262032 0.502615
16.206461 86.849514 -2.617412
14.888474 87.578133 -2.572521
15.75094 87.084271 -1.06323
-2.815126 52.391796 -3.274137
-2.780512 52.547471 -1.69016
-2.862505 52.240544 -4.855573
-2.815126 52.391796 -3.274137
-2.231409 53.97081 -4.313251
-2.860123 51.982758 -6.411399
-2.862505 52.240544 -4.855573
-2.306293 53.583718 -7.443263
-2.887628 51.746918 -7.959974
-2.860123 51.982758 -6.411399
2.058894 67.153526 26.873482
1.829917 67.647628 28.496592
1.952013 68.725257 26.750689
2.058894 67.153526 26.873482
2.2822 66.643878 25.306534
2.681966 67.887921 20.285115
2.50665 68.589009 21.811286
2.603422 69.460991 20.066508
2.804058 67.18911 18.832361
2.865484 67.96989 17.110882
2.890804 66.399098 17.402905
2.681966 67.887921 20.285115
2.804058 67.18911 18.832361
0.987266 61.342395 2.636018
1.074036 61.064655 4.295803
1.513679 62.566741 3.549437
0.987266 61.342395 2.636018
0.887907 61.514294 0.994746
-0.455205 58.756844 -3.899856
-0.970067 57.243664 -3.040511
-0.563176 58.729336 -5.503865
-0.455205 58.756844 -3.899856
-0.638556 58.596824 -7.081174
-1.129116 57.06776 -6.222805
-0.563176 58.729336 -5.503865
-0.753643 58.496231 -8.65477
-0.638556 58.596824 -7.081174
-0.825363 58.296314 -10.196749
-1.276216 56.735332 -9.342094
-0.753643 58.496231 -8.65477
5.047374 83.899242 21.981145
4.724771 83.032803 23.883435
4.607406 84.149731 20.441485
5.047374 83.899242 21.981145
5.344 84.703018 20.075674
8.691302 86.898899 15.245387
9.73643 86.819458 14.89832
7.72627 86.771076 15.582211
8.691302 86.898899 15.245387
8.099445 87.313553 13.723851
6.795044 86.565181 15.942486
7.72627 86.771076 15.582211
5.979971 86.136482 16.286411
6.795044 86.565181 15.942486
6.31934 86.757031 14.404601
5.204149 85.640918 16.64227
5.679854 85.44907 18.180156
5.979971 86.136482 16.286411
2.966104 77.890358 -1.323612
3.100186 79.065087 0.054661
3.008077 79.37442 -1.664183
2.945702 76.349545 -0.9464
2.966104 77.890358 -1.323612
2.934478 74.810494 -0.584701
3.046989 76.041973 0.756931
2.945702 76.349545 -0.9464
2.793934 73.557243 -1.872689
2.895221 73.249672 -0.169358
2.934478 74.810494 -0.584701
2.609688 72.215931 -3.127846
2.793934 73.557243 -1.872689
2.510695 70.648243 -2.643947
2.609688 72.215931 -3.127846
2.45131 78.808998 -8.115566
2.707575 80.102989 -6.810107
2.549843 80.252701 -8.485675
2.45131 78.808998 -8.115566
2.235124 77.431984 -9.384944
1.977183 75.996216 -10.615008
1.724779 74.501892 -11.796637
-0.426526 59.903366 -11.047385
-0.087344 61.486728 -11.801648
-0.949099 58.142467 -11.734708
-0.825363 58.296314 -10.196749
-0.426526 59.903366 -11.047385
1.962994 76.818928 -26.060795
2.397358 78.318184 -25.072357
1.374779 75.778885 -25.852024
1.962994 76.818928 -26.060795
0.918921 74.599331 -25.554747
1.279378 76.220531 -24.601803
1.374779 75.778885 -25.852024
0.607977 72.874695 -26.466533
0.512576 73.316341 -25.216312
0.918921 74.599331 -25.554747
0.296855 71.121994 -27.30109
0.607977 72.874695 -26.466533
0.7032 72.404984 -27.639525
0.614142 70.02216 -29.474297
0.92391 71.797138 -28.723984
0.124486 68.782925 -29.178469
0.614142 70.02216 -29.474297
0.346549 68.152802 -30.178684
-0.02908 54.455711 -33.852044
-0.437865 55.256787 -33.362068
0.041777 56.647564 -33.718384
-0.062152 52.282246 -33.868172
-0.02908 54.455711 -33.852044
-0.047933 49.993279 -33.833027
-0.494503 50.775967 -33.460583
-0.062152 52.282246 -33.868172
0.445603 49.240295 -34.090241
0.013253 47.734016 -33.682651
-0.047933 49.993279 -33.833027
0.992004 48.355598 -34.268108
0.445603 49.240295 -34.090241
1.09292 46.155265 -34.015423
0.992004 48.355598 -34.268108
-2.357548 20.945936 -24.960878
-2.769532 21.521103 -24.156292
-2.595019 23.738272 -24.924019
-2.357548 20.945936 -24.960878
-1.82391 20.391309 -25.668474
-0.080294 18.825079 -27.265083
-0.686381 19.338282 -26.824312
-0.57378 21.560829 -27.429119
-0.080294 18.825079 -27.265083
0.664996 18.362974 -27.60589
3.99501 16.664156 -28.164657
3.050627 17.028382 -28.126537
4.005768 18.808794 -28.545737
4.900104 16.265968 -28.142227
3.99501 16.664156 -28.164657
4.871587 32.604286 -31.548285
4.639054 30.884379 -31.148393
4.069548 33.140414 -31.686183
5.052922 34.266339 -31.946067
5.622428 32.010303 -31.408278
4.871587 32.604286 -31.548285
3.564319 35.509687 -32.223762
3.157819 37.710942 -32.729145
4.594105 36.313192 -32.437703
4.187605 38.514447 -32.943085
5.344947 35.71921 -32.297694
5.052922 34.266339 -31.946067
4.594105 36.313192 -32.437703
5.559749 37.111217 -32.657876
6.018566 35.064363 -32.16624
5.344947 35.71921 -32.297694
5.559749 37.111217 -32.657876
5.239349 38.861018 -33.073578
3 0 76 74
3 0 78 76
3 2 81 79
3 2 83 81
3 1 86 84
3 3 89 87
3 3 91 89
3 3 93 91
3 4 96 94
3 4 98 96
3 5 101 99
3 7 104 102
3 7 106 104
3 283 108 284
3 283 284 285
3 287 286 108
3 9 288 289
3 9 290 291
3 9 292 294
3 292 110 293
3 292 293 294
3 11 113 111
3 11 115 113
3 295 117 296
3 297 296 116
3 295 296 297
3 299 298 117
3 6 121 119
3 12 300 302
3 302 301 122
3 300 301 302
3 12 303 304
3 12 305 307
3 305 124 306
3 305 306 307
3 13 128 126
3 13 130 128
3 8 133 131
3 14 136 134
3 14 308 310
3 310 309 136
3 308 309 310
3 14 311 312
3 15 313 315
3 315 314 138
3 313 314 315
3 15 316 318
3 316 139 317
3 316 317 318
3 15 141 139
3 16 144 142
3 16 146 144
3 319 147 320
3 321 149 322
3 323 322 147
3 321 322 323
3 325 324 149
3 10 151 150
3 17 154 152
3 17 156 154
3 17 158 156
3 18 326 328
3 328 327 160
3 326 327 328
3 329 162 330
3 21 331 333
3 333 332 75
3 331 332 333
3 21 334 336
3 334 163 335
3 334 335 336
3 21 165 163
3 23 166 77
3 23 167 166
3 24 337 338
3 24 339 340
3 24 341 342
3 343 168 344
3 346 345 168
3 25 171 169
3 27 172 80
3 27 173 172
3 27 175 173
3 29 176 82
3 29 177 176
3 30 180 178
3 32 181 85
3 32 182 181
3 33 185 183
3 35 186 88
3 35 187 186
3 35 189 187
3 37 190 90
3 37 191 190
3 37 193 191
3 39 194 92
3 39 195 194
3 40 198 196
3 42 199 95
3 42 200 199
3 42 202 200
3 44 203 97
3 44 204 203
3 45 347 348
3 46 349 351
3 351 350 100
3 349 350 351
3 46 352 353
3 19 354 356
3 356 355 161
3 354 355 356
3 48 357 359
3 357 205 358
3 357 358 359
3 48 206 205
3 20 360 362
3 360 207 361
3 360 361 362
3 49 208 103
3 49 209 208
3 49 210 209
3 50 211 105
3 50 212 211
3 363 215 364
3 365 364 213
3 363 364 365
3 366 216 367
3 368 217 369
3 370 369 216
3 368 369 370
3 52 218 107
3 52 219 218
3 52 220 219
3 371 221 372
3 373 372 109
3 371 372 373
3 374 222 375
3 376 375 221
3 374 375 376
3 378 377 222
3 53 379 381
3 379 224 380
3 379 380 381
3 53 225 224
3 22 226 164
3 54 227 112
3 54 228 227
3 54 229 228
3 55 230 114
3 55 231 230
3 382 232 383
3 384 233 385
3 386 234 387
3 388 387 233
3 386 387 388
3 56 235 118
3 56 236 235
3 47 389 391
3 389 390 391
3 393 392 120
3 26 237 170
3 395 394 123
3 57 396 397
3 57 398 399
3 28 238 174
3 400 239 401
3 402 401 125
3 400 401 402
3 404 403 239
3 405 240 406
3 31 241 179
3 58 242 127
3 58 243 242
3 58 244 243
3 59 245 129
3 59 246 245
3 51 247 214
3 60 248 132
3 60 249 248
3 34 250 184
3 61 251 135
3 61 252 251
3 61 253 252
3 62 254 137
3 62 255 254
3 62 256 255
3 36 407 409
3 409 408 188
3 407 408 409
3 63 410 411
3 63 412 414
3 412 257 413
3 412 413 414
3 63 258 257
3 64 259 140
3 64 260 259
3 38 261 192
3 65 262 143
3 65 263 262
3 65 264 263
3 66 265 145
3 66 266 265
3 415 267 416
3 417 416 223
3 415 416 417
3 418 268 419
3 67 420 422
3 420 421 422
3 67 423 425
3 423 269 424
3 423 424 425
3 67 270 269
3 68 271 148
3 68 272 271
3 68 273 272
3 69 426 427
3 69 428 429
3 41 274 197
3 70 275 153
3 70 430 432
3 432 431 275
3 430 431 432
3 70 433 434
3 71 435 437
3 437 436 155
3 435 436 437
3 71 438 439
3 71 440 442
3 440 276 441
3 440 441 442
3 72 277 157
3 72 278 277
3 43 279 201
3 73 280 159
3 73 281 280
3 73 443 445
3 445 444 281
3 443 444 445
3 446 282 447
3 450 449 282
3 448 449 450
3 452 451 18
3 74 453 455
3 453 75 454
3 453 454 455
3 76 75 74
3 76 21 75
3 76 77 21
3 78 77 76
3 78 23 77
3 456 24 457
3 459 458 24
3 79 80 25
3 81 80 79
3 81 27 80
3 81 82 27
3 83 82 81
3 83 29 82
3 84 85 30
3 86 85 84
3 86 32 85
3 87 88 33
3 89 88 87
3 89 35 88
3 89 90 35
3 91 90 89
3 91 37 90
3 91 92 37
3 93 92 91
3 93 39 92
3 94 95 40
3 96 95 94
3 96 42 95
3 96 97 42
3 98 97 96
3 98 44 97
3 99 100 45
3 101 100 99
3 101 46 100
3 461 460 19
3 462 48 463
3 102 103 20
3 104 103 102
3 104 49 103
3 104 105 49
3 106 105 104
3 106 50 105
3 464 107 465
3 108 466 468
3 466 107 467
3 466 467 468
3 108 52 107
3 108 109 52
3 469 109 470
3 471 470 108
3 469 470 471
3 473 472 109
3 110 474 475
3 110 476 478
3 476 53 477
3 476 477 478
3 111 112 22
3 113 112 111
3 113 54 112
3 113 114 54
3 115 114 113
3 115 55 114
3 116 479 480
3 117 481 483
3 483 482 116
3 481 482 483
3 117 484 485
3 117 486 488
3 486 118 487
3 486 487 488
3 489 118 490
3 491 490 117
3 489 490 491
3 492 56 493
3 494 493 118
3 492 493 494
3 119 120 47
3 121 120 119
3 121 495 497
3 497 496 120
3 495 496 497
3 122 123 26
3 498 123 499
3 500 499 122
3 498 499 500
3 502 501 123
3 124 503 504
3 124 505 507
3 505 57 506
3 505 506 507
3 508 125 509
3 510 509 28
3 508 509 510
3 511 125 512
3 514 513 125
3 126 127 31
3 128 127 126
3 128 58 127
3 128 129 58
3 130 129 128
3 130 59 129
3 131 132 51
3 133 132 131
3 133 60 132
3 134 135 34
3 136 135 134
3 136 61 135
3 136 137 61
3 515 137 516
3 517 516 136
3 515 516 517
3 518 62 519
3 520 519 137
3 518 519 520
3 522 521 62
3 138 523 525
3 525 524 36
3 523 524 525
3 527 526 138
3 139 528 529
3 139 530 532
3 530 63 531
3 530 531 532
3 139 140 63
3 141 140 139
3 141 64 140
3 142 143 38
3 144 143 142
3 144 65 143
3 144 145 65
3 146 145 144
3 146 66 145
3 147 533 534
3 147 535 537
3 535 67 536
3 535 536 537
3 147 148 67
3 149 148 147
3 149 68 148
3 149 538 540
3 540 539 68
3 538 539 540
3 543 542 149
3 541 542 543
3 150 544 545
3 151 546 548
3 548 547 150
3 546 547 548
3 151 549 551
3 549 69 550
3 549 550 551
3 152 153 41
3 154 153 152
3 154 70 153
3 154 155 70
3 156 155 154
3 156 71 155
3 156 157 71
3 158 157 156
3 158 72 157
3 552 159 553
3 554 553 43
3 552 553 554
3 555 159 556
3 557 73 558
3 559 558 159
3 557 558 559
3 561 560 73
3 160 161 5
3 562 161 563
3 564 563 160
3 562 563 564
3 565 19 566
3 567 566 161
3 565 566 567
3 569 568 18
3 570 19 571
3 574 573 19
3 572 573 574
3 575 20 576
3 577 20 578
3 579 102 580
3 581 580 20
3 579 580 581
3 162 582 584
3 582 102 583
3 582 583 584
3 162 7 102
3 75 585 586
3 588 587 75
3 163 589 590
3 163 591 593
3 591 9 592
3 591 592 593
3 163 164 9
3 165 164 163
3 165 22 164
3 77 165 21
3 166 165 77
3 166 22 165
3 166 111 22
3 167 111 166
3 167 11 111
3 595 594 24
3 168 596 597
3 168 598 599
3 168 600 602
3 600 116 601
3 600 601 602
3 603 116 604
3 605 604 168
3 603 604 605
3 607 606 116
3 169 170 6
3 171 170 169
3 171 26 170
3 80 171 25
3 172 171 80
3 172 26 171
3 172 122 26
3 173 122 172
3 173 12 122
3 173 174 12
3 175 174 173
3 175 28 174
3 82 175 27
3 176 175 82
3 176 28 175
3 176 608 610
3 610 609 28
3 608 609 610
3 177 611 613
3 613 612 176
3 611 612 613
3 177 614 615
3 178 616 618
3 616 179 617
3 616 617 618
3 180 179 178
3 180 31 179
3 85 180 30
3 181 180 85
3 181 31 180
3 181 126 31
3 182 126 181
3 182 13 126
3 183 184 8
3 185 184 183
3 185 34 184
3 88 185 33
3 186 185 88
3 186 34 185
3 186 134 34
3 187 134 186
3 187 14 134
3 187 188 14
3 189 188 187
3 189 36 188
3 90 189 35
3 190 189 90
3 190 36 189
3 190 138 36
3 191 138 190
3 191 15 138
3 191 192 15
3 193 192 191
3 193 38 192
3 92 193 37
3 194 193 92
3 194 38 193
3 194 142 38
3 195 142 194
3 195 16 142
3 196 197 10
3 198 197 196
3 198 41 197
3 95 198 40
3 199 198 95
3 199 41 198
3 199 152 41
3 200 152 199
3 200 17 152
3 200 201 17
3 202 201 200
3 202 43 201
3 97 202 42
3 203 202 97
3 203 43 202
3 203 619 621
3 621 620 43
3 619 620 621
3 204 622 624
3 624 623 203
3 622 623 624
3 204 625 626
3 100 627 629
3 629 628 45
3 627 628 629
3 631 630 100
3 161 101 5
3 632 101 633
3 634 633 161
3 632 633 634
3 635 46 636
3 637 636 101
3 635 636 637
3 639 638 19
3 640 46 641
3 643 642 46
3 644 47 645
3 644 645 646
3 205 647 648
3 205 649 651
3 649 47 650
3 649 650 651
3 205 119 47
3 206 119 205
3 206 6 119
3 207 652 653
3 207 654 656
3 654 48 655
3 654 655 656
3 103 207 20
3 208 207 103
3 208 48 207
3 208 206 48
3 209 206 208
3 209 6 206
3 209 169 6
3 210 169 209
3 210 25 169
3 105 210 49
3 211 210 105
3 211 25 210
3 211 79 25
3 212 79 211
3 212 2 79
3 213 214 1
3 215 214 213
3 215 51 214
3 657 215 658
3 216 659 661
3 659 215 660
3 659 660 661
3 216 51 215
3 216 131 51
3 217 131 216
3 217 8 131
3 107 662 664
3 662 663 664
3 218 665 667
3 667 666 107
3 665 666 667
3 218 668 669
3 218 670 672
3 670 217 671
3 670 671 672
3 219 217 218
3 219 8 217
3 219 183 8
3 220 183 219
3 220 33 183
3 109 220 52
3 221 220 109
3 221 33 220
3 221 87 33
3 222 87 221
3 222 3 87
3 222 223 3
3 673 223 674
3 675 674 222
3 673 674 675
3 677 676 223
3 224 678 679
3 224 680 681
3 224 682 684
3 682 150 683
3 682 683 684
3 225 150 224
3 225 10 150
3 164 110 9
3 226 110 164
3 226 53 110
3 112 226 22
3 227 226 112
3 227 53 226
3 227 225 53
3 228 225 227
3 228 10 225
3 228 196 10
3 229 196 228
3 229 40 196
3 114 229 54
3 230 229 114
3 230 40 229
3 230 94 40
3 231 94 230
3 231 4 94
3 685 178 686
3 232 687 689
3 687 178 688
3 687 688 689
3 232 30 178
3 690 232 691
3 690 691 692
3 233 693 695
3 693 232 694
3 693 694 695
3 233 30 232
3 233 84 30
3 234 84 233
3 234 1 84
3 696 234 697
3 698 234 699
3 700 1 701
3 702 701 234
3 700 701 702
3 703 213 704
3 705 704 1
3 703 704 705
3 706 213 707
3 710 709 213
3 708 709 710
3 118 711 712
3 235 713 715
3 715 714 118
3 713 714 715
3 235 716 717
3 235 718 720
3 718 74 719
3 718 719 720
3 236 74 235
3 236 0 74
3 120 721 723
3 723 722 47
3 721 722 723
3 725 724 120
3 170 121 6
3 237 121 170
3 237 726 728
3 728 727 121
3 726 727 728
3 123 237 26
3 729 237 730
3 731 730 123
3 729 730 731
3 733 732 237
3 174 124 12
3 238 124 174
3 238 57 124
3 125 238 28
3 239 238 125
3 239 57 238
3 239 734 736
3 736 735 57
3 734 735 736
3 738 737 239
3 739 56 740
3 741 56 742
3 743 236 744
3 745 744 56
3 743 744 745
3 746 236 747
3 748 0 749
3 750 749 236
3 748 749 750
3 751 162 752
3 240 753 755
3 753 162 754
3 753 754 755
3 240 7 162
3 179 756 757
3 241 758 760
3 760 759 179
3 758 759 760
3 241 761 762
3 127 241 31
3 242 241 127
3 242 763 765
3 765 764 241
3 763 764 765
3 242 766 768
3 766 240 767
3 766 767 768
3 243 240 242
3 243 7 240
3 243 106 7
3 244 106 243
3 244 50 106
3 129 244 58
3 245 244 129
3 245 50 244
3 245 212 50
3 246 212 245
3 246 2 212
3 214 86 1
3 247 86 214
3 247 32 86
3 132 247 51
3 248 247 132
3 248 32 247
3 248 182 32
3 249 182 248
3 249 13 182
3 184 133 8
3 250 133 184
3 250 60 133
3 135 250 34
3 251 250 135
3 251 60 250
3 251 249 60
3 252 249 251
3 252 13 249
3 252 130 13
3 253 130 252
3 253 59 130
3 137 253 61
3 254 253 137
3 254 59 253
3 254 246 59
3 255 246 254
3 255 2 246
3 255 83 2
3 256 83 255
3 256 29 83
3 769 256 770
3 771 770 62
3 769 770 771
3 772 256 773
3 774 29 775
3 776 775 256
3 774 775 776
3 777 177 778
3 779 778 29
3 777 778 779
3 780 177 781
3 783 782 177
3 188 784 786
3 786 785 14
3 784 785 786
3 788 787 188
3 790 789 36
3 257 791 792
3 257 793 795
3 793 0 794
3 793 794 795
3 257 78 0
3 258 78 257
3 258 23 78
3 140 258 63
3 259 258 140
3 259 23 258
3 259 167 23
3 260 167 259
3 260 11 167
3 192 141 15
3 261 141 192
3 261 64 141
3 143 261 38
3 262 261 143
3 262 64 261
3 262 260 64
3 263 260 262
3 263 11 260
3 263 115 11
3 264 115 263
3 264 55 115
3 145 264 65
3 265 264 145
3 265 55 264
3 265 231 55
3 266 231 265
3 266 4 231
3 223 93 3
3 267 93 223
3 267 39 93
3 796 267 797
3 798 267 799
3 800 39 801
3 802 801 267
3 800 801 802
3 803 195 804
3 805 804 39
3 803 804 805
3 268 806 808
3 806 195 807
3 806 807 808
3 268 16 195
3 809 268 810
3 269 811 813
3 811 268 812
3 811 812 813
3 269 16 268
3 269 146 16
3 270 146 269
3 270 66 146
3 148 270 67
3 271 270 148
3 271 66 270
3 271 266 66
3 272 266 271
3 272 4 266
3 272 98 4
3 273 98 272
3 273 44 98
3 814 273 815
3 816 815 68
3 814 815 816
3 817 273 818
3 819 44 820
3 821 820 273
3 819 820 821
3 822 204 823
3 824 823 44
3 822 823 824
3 825 204 826
3 828 827 204
3 197 151 10
3 274 151 197
3 274 69 151
3 153 274 41
3 275 274 153
3 275 69 274
3 275 829 831
3 831 830 69
3 829 830 831
3 833 832 275
3 155 834 836
3 836 835 70
3 834 835 836
3 838 837 155
3 276 839 840
3 276 841 843
3 841 45 842
3 841 842 843
3 157 276 71
3 277 276 157
3 277 45 276
3 277 99 45
3 278 99 277
3 278 5 99
3 201 158 17
3 279 158 201
3 279 72 158
3 159 279 43
3 280 279 159
3 280 72 279
3 280 278 72
3 281 278 280
3 281 5 278
3 281 160 5
3 844 160 845
3 846 845 281
3 844 845 846
3 847 18 848
3 849 848 160
3 847 848 849
3 851 850 73
3 282 852 853
3 282 854 856
3 854 18 855
3 854 855 856
3 282 857 859
3 859 858 18
3 857 858 859
3 861 860 282
