ply
format ascii 1.0
element vertex 71
property float x
property float y
property float z
element face 53
property list uchar int vertex_index
end_header
-1.681707 19.47451 40.314415
-1.97555 11.531096 43.004288
-1.079834 13.92643 43.989868
-1.856695 15.531887 41.754982
-2.42734 21.046932 37.888466
-2.613718 17.102367 39.429798
-2.033697 7.478151 44.042152
-2.743223 13.096363 40.794876
-1.769201 17.503198 41.034698
-1.391976 16.699957 42.207405
-1.304482 18.671269 41.487122
-3.259949 20.573957 36.202511
-2.891316 19.823164 37.453793
-2.795973 21.797725 36.637184
-1.574667 10.732384 44.058905
-1.126809 11.930051 44.551695
-1.527692 12.728763 43.497078
-2.004624 9.504624 43.52322
-1.603741 8.705911 44.577837
-1.574667 10.732384 44.058905
-3.113996 13.842875 39.642589
-2.67847 15.099365 40.112337
-3.049244 15.845876 38.96005
-1.003546 15.897229 43.324848
-0.628792 15.096975 44.458355
-1.468265 14.729159 42.872425
-1.003546 15.897229 43.324848
-1.391976 16.699957 42.207405
-2.984504 17.850881 38.224458
-2.520529 19.074649 38.659132
-2.891316 19.823164 37.453793
-3.049244 15.845876 38.96005
-2.984504 17.850881 38.224458
-1.202137 20.611128 40.733083
-1.304482 18.671269 41.487122
-0.824912 19.807887 41.90579
-1.567319 21.412727 39.514131
-1.202137 20.611128 40.733083
-1.087749 22.549346 39.9328
-1.940136 22.198939 38.301157
-2.054524 20.260721 39.10144
-1.567319 21.412727 39.514131
-2.304938 22.986153 37.046081
-1.940136 22.198939 38.301157
-2.673571 23.736946 35.794799
-2.795973 21.797725 36.637184
-2.304938 22.986153 37.046081
-0.68767 13.127052 45.063392
-0.628792 15.096975 44.458355
-0.68767 13.127052 45.063392
-1.126809 11.930051 44.551695
-1.617254 6.687687 45.028324
-1.603741 8.705911 44.577837
-2.029856 5.427886 44.451988
-1.613412 4.637422 45.43816
-1.617254 6.687687 45.028324
-3.149625 11.807593 40.284474
-3.113996 13.842875 39.642589
-2.779268 11.064315 41.377662
-3.149625 11.807593 40.284474
-3.185671 9.775544 40.86726
-2.395431 10.281681 42.482368
-2.359386 12.31373 41.899582
-2.779268 11.064315 41.377662
-2.424505 8.255209 43.0013
-2.004624 9.504624 43.52322
-2.395431 10.281681 42.482368
-2.43095 6.195555 43.478708
-2.424505 8.255209 43.0013
-2.029856 5.427886 44.451988
-2.43095 6.195555 43.478708
3 0 8 10
3 8 3 9
3 8 9 10
3 13 12 4
3 11 12 13
3 1 14 16
3 16 15 2
3 14 15 16
3 1 17 19
3 17 6 18
3 17 18 19
3 20 7 21
3 22 21 5
3 20 21 22
3 23 2 24
3 3 25 27
3 25 2 26
3 25 26 27
3 3 1 2
3 4 5 0
3 28 5 29
3 30 29 4
3 28 29 30
3 32 31 5
3 33 0 34
3 33 34 35
3 36 0 37
3 36 37 38
3 39 4 40
3 41 40 0
3 39 40 41
3 42 4 43
3 46 45 4
3 44 45 46
3 2 47 48
3 50 49 2
3 6 51 52
3 6 53 55
3 53 54 55
3 5 3 0
3 7 3 5
3 7 1 3
3 56 7 57
3 58 7 59
3 58 59 60
3 61 1 62
3 63 62 7
3 61 62 63
3 64 6 65
3 66 65 1
3 64 65 66
3 67 6 68
3 70 69 6
