ply
format ascii 1.0
element vertex 546
property float x
property float y
property float z
element face 597
property list uchar int vertex_index
end_header
-64.724747 -68.124832 -9.054024
-62.315884 -17.907198 -43.59761
-67.995499 -45.98307 -27.300617
-55.546261 -48.833969 -35.993275
-61.124302 -71.402557 -15.592134
-66.460739 -32.053951 -35.222004
-62.551167 -48.075054 -33.13303
-60.754177 -33.761993 -41.249744
-53.77689 -34.384087 -42.585415
-55.949074 -19.200155 -49.091866
-67.567581 -58.221107 -18.424923
-68.88221 -44.673256 -20.708767
-62.763969 -61.039906 -24.499348
-63.432701 -69.710548 -12.451773
-64.794144 -24.935043 -39.32069
-63.724998 -32.987045 -38.596527
-61.947899 -25.780165 -42.775066
-58.885803 -26.436653 -45.227673
-59.246765 -18.644455 -46.99704
-68.285942 -50.636299 -16.375706
-68.009338 -52.381031 -23.018612
-65.598206 -59.66415 -21.702339
-65.823883 -53.67062 -26.214813
-59.194416 -48.616104 -35.007824
-59.436462 -55.506958 -30.879799
-51.841789 -63.070328 -29.403946
-49.697868 -34.712936 -41.538445
-67.497253 -39.13784 -31.28994
-65.573318 -47.107933 -30.464642
-64.875778 -40.14679 -34.528336
-61.876205 -41.009869 -37.223728
-58.611336 -41.487835 -38.931076
-54.971722 -41.698032 -39.471813
-57.486267 -34.17865 -42.624947
-55.480385 -26.780914 -46.111626
-66.884918 -62.116474 -10.371033
-66.558853 -63.482475 -13.70623
-68.241028 -57.011356 -15.042976
-68.954857 -51.332954 -19.65324
-69.270325 -45.10334 -23.97683
-69.238052 -38.167152 -24.669392
-69.184593 -38.390358 -27.931095
-68.539368 -31.378479 -31.695808
-67.185852 -24.298685 -35.559074
-61.912693 -72.064476 -4.536953
-61.29612 -70.229485 -1.352654
-64.583862 -66.56311 -5.799797
-64.851982 -65.016159 -17.053249
-62.207565 -66.588379 -20.007538
-62.86396 -54.816353 -28.905182
-50.928139 -41.996025 -39.061478
-63.081665 -70.987282 -8.483915
-62.409184 -71.806213 -10.197062
-64.234406 -68.902107 -10.758574
-63.669533 -21.404732 -41.445774
-63.399677 -25.360207 -41.126595
-62.227036 -21.806192 -43.265285
-60.729713 -22.195446 -44.891438
-60.808609 -18.283867 -45.412994
-68.059517 -49.247879 -25.203838
-67.039612 -53.016624 -24.659386
-67.023621 -49.842628 -26.830135
-57.407654 -48.744308 -35.607712
-55.680145 -52.341297 -34.119442
-53.755718 -52.453098 -34.447289
-53.607971 -48.942238 -36.187519
-67.050034 -35.611565 -33.245628
-66.258598 -39.635277 -32.947021
-65.76207 -36.089733 -34.940334
-62.265129 -33.414818 -40.053448
-62.900295 -37.031746 -38.009438
-61.38575 -37.40242 -39.2421
-60.283035 -41.298248 -38.221371
-59.805737 -37.674152 -40.187428
-58.13689 -37.852982 -40.806309
-59.169823 -34.013508 -42.119335
-57.563541 -22.792486 -47.182373
-57.234978 -26.64143 -45.88171
-55.859795 -22.981903 -47.705406
-54.062893 -23.123137 -47.784992
-54.190369 -19.391045 -49.474899
-67.31897 -59.049507 -11.098278
-67.664764 -59.638866 -12.701382
-67.977341 -56.496422 -13.410839
-68.614212 -47.728287 -18.58186
-68.827301 -50.94923 -17.995041
-69.099747 -47.960823 -20.206783
-69.156708 -48.2854 -21.861935
-69.298996 -44.833313 -22.329811
-69.445908 -38.20911 -26.28389
-69.343361 -34.756706 -28.1478
-68.942574 -34.906933 -29.818211
-69.083092 -31.249731 -29.982094
-63.050102 -68.499359 -3.564051
-67.148705 -60.925056 -16.066963
-65.849167 -64.228729 -15.40362
-66.360168 -61.654049 -17.755939
-64.268097 -60.385826 -23.180737
-64.011703 -63.18771 -20.894501
-62.545212 -63.90451 -22.253593
-60.633919 -67.293304 -21.247421
-60.927292 -64.531143 -23.44009
-64.113373 -47.635124 -31.882534
-64.319191 -51.019459 -29.788776
-62.7551 -51.497841 -31.041149
-54.47049 -38.061256 -41.069733
-52.995674 -41.813408 -39.360233
-52.47575 -38.181641 -40.794598
-61.477928 -72.658173 -11.864937
-62.379295 -70.550125 -14.078815
-65.715759 -28.489033 -37.243832
-65.134918 -32.515965 -36.959446
-64.357422 -28.934271 -39.020771
-62.932907 -29.382092 -40.672089
-61.462959 -29.782089 -42.109268
-59.936562 -30.101109 -43.246548
-60.448685 -26.148155 -44.171329
-59.18071 -22.53112 -46.225918
-57.631149 -18.954325 -48.250664
-67.847694 -55.373024 -20.751789
-66.715256 -58.926411 -20.100979
-66.937759 -56.04673 -22.410854
-65.771774 -56.745396 -23.987484
-64.402054 -57.415466 -25.436234
-60.908936 -48.401947 -34.181652
-61.093872 -51.858028 -32.10397
-59.35397 -52.097824 -32.966389
-51.891579 -59.615189 -31.205498
-52.856117 -30.689104 -44.036793
-51.77005 -34.513279 -42.147884
-67.810364 -42.60463 -29.320229
-66.88855 -46.538994 -28.922295
-66.633484 -43.127602 -30.951824
-65.278305 -43.664085 -32.507996
-63.808147 -44.160187 -33.938015
-64.363007 -36.580837 -36.55146
-63.406612 -40.618935 -35.974564
-62.258949 -44.572403 -35.190235
-60.642063 -44.877285 -36.220016
-58.95293 -45.076893 -36.997589
-57.181263 -45.198429 -37.513611
-55.318748 -45.287857 -37.780186
-56.84407 -41.606255 -39.342186
-56.360458 -37.967506 -41.091591
-55.688187 -34.287754 -42.767319
-58.327759 -30.328979 -44.017784
-56.613678 -30.479191 -44.391743
-54.786327 -30.584595 -44.380386
-53.623383 -26.891144 -45.942581
-52.183365 -23.255947 -47.460331
-66.011551 -65.156693 -9.684584
-65.76104 -65.886154 -11.364401
-66.919754 -62.784107 -12.014193
-67.601059 -60.254936 -14.367363
-68.094681 -57.58028 -16.724407
-68.46489 -53.794949 -15.719429
-68.657967 -54.241875 -17.370483
-68.44043 -54.765278 -19.057796
-68.668442 -51.810764 -21.336975
-68.793602 -48.717651 -23.535892
-68.815804 -45.491936 -25.641048
-69.095535 -41.480446 -22.738434
-69.421234 -41.57663 -24.353039
-69.286209 -41.798256 -25.99461
-68.724625 -42.147911 -27.656925
-68.505592 -38.708336 -29.6063
-68.144653 -35.201714 -31.524818
-67.629425 -31.657995 -33.451454
-66.947464 -28.104343 -35.418308
-66.083984 -24.562185 -37.442955
-65.021072 -21.046198 -39.525173
-61.697243 -72.898926 -6.240202
-63.437462 -70.186829 -6.779066
-61.77771 -71.189438 -2.900919
-63.430828 -69.371735 -5.129217
-64.849892 -67.357529 -7.38891
-65.864265 -64.430267 -8.068256
-66.445381 -61.444672 -8.803204
-62.226852 -14.124495 -43.779556
-60.714714 -14.45048 -45.742836
-59.125786 -14.806419 -47.53545
-57.484421 -15.147505 -49.058182
-55.792717 -15.446543 -50.213882
-65.150818 -66.646927 -13.066628
-64.239944 -67.446564 -14.738503
-63.087463 -68.270279 -16.325552
-65.296661 -62.421612 -19.382095
-63.623859 -65.816299 -18.602051
-61.73996 -69.087494 -17.782539
-65.75679 -50.451698 -28.372711
-64.417709 -54.287403 -27.641644
-62.86898 -58.004768 -26.722214
-61.194916 -55.224838 -29.985394
-61.204731 -58.476665 -27.828053
-61.116699 -61.58662 -25.640789
-53.362755 -45.398865 -37.826878
-50.397793 -38.368599 -40.335537
-60.079664 -72.916245 -15.238137
-60.732325 -72.470508 -14.515328
-60.41387 -71.821831 -16.276993
-60.079664 -72.916245 -15.238137
-67.649925 -56.247494 -12.625819
-67.648156 -57.772965 -12.254558
-67.32074 -57.524036 -11.469539
-69.259842 -33.020498 -28.232866
-69.31057 -34.757568 -27.333212
-69.129707 -31.26701 -29.150013
-69.213226 -33.003219 -29.064947
-69.259842 -33.020498 -28.232866
-51.880432 -57.874278 -32.081634
-52.856598 -57.776258 -31.913514
-50.917439 -59.783797 -31.399393
-51.880432 -57.874278 -32.081634
-51.852631 -30.763442 -43.740433
-52.269624 -28.853355 -44.739409
-52.270542 -21.406083 -48.431654
-53.123129 -23.189542 -47.622661
-53.210306 -21.339678 -48.593985
-51.326096 -21.497695 -48.1947
-52.270542 -21.406083 -48.431654
-68.375416 -52.215624 -16.047567
-68.167351 -53.594344 -14.918991
-68.077877 -52.015018 -15.247129
-68.903274 -38.20565 -23.874052
-68.985733 -36.531904 -24.795227
-69.166793 -39.823799 -23.703913
-68.832016 -39.862297 -22.908573
-68.903274 -38.20565 -23.874052
-67.572071 -26.066484 -34.580082
-67.591015 -24.244254 -34.6348
-67.066658 -26.201514 -35.488691
-67.452877 -27.969313 -34.509698
-67.572071 -26.066484 -34.580082
-65.020793 -19.180929 -39.584219
-65.61562 -20.917628 -38.551071
-64.380634 -19.305703 -40.58645
-65.020793 -19.180929 -39.584219
-61.804968 -72.481701 -5.388578
-60.905346 -73.76928 -5.130427
-61.013071 -73.352055 -4.278803
-60.337074 -70.991344 -0.252036
-60.911196 -69.691524 -0.620175
-60.61788 -71.519093 -1.023266
-60.337074 -70.991344 -0.252036
-61.536915 -70.709462 -2.126787
-60.858675 -71.999069 -1.797398
-60.61788 -71.519093 -1.023266
-66.047619 -61.086231 -8.059259
-65.885402 -62.555984 -7.670097
-66.520694 -59.945471 -9.185496
-66.047619 -61.086231 -8.059259
-62.099971 -12.309345 -43.789692
-62.917881 -14.003901 -42.755037
-59.78796 -12.747319 -46.790914
-60.595237 -12.589629 -45.811208
-58.993496 -12.925289 -47.687221
-59.92025 -14.62845 -46.639143
-59.78796 -12.747319 -46.790914
-56.466831 -13.438277 -50.04533
-57.331162 -13.268871 -49.323952
-55.62098 -13.587796 -50.62318
-56.638569 -15.297024 -49.636032
-56.466831 -13.438277 -50.04533
-61.218952 -68.226135 -19.545528
-60.98515 -69.475693 -18.433029
-61.973763 -67.837937 -18.895038
-59.609562 -68.934089 -20.738028
-59.782225 -67.600223 -21.786474
-60.280558 -60.243265 -27.219532
-60.321774 -58.648533 -28.292523
-60.236542 -61.798243 -26.125901
-61.160715 -60.031643 -26.734421
-60.280558 -60.243265 -27.219532
-60.151834 -63.316698 -25.050371
-60.236542 -61.798243 -26.125901
-51.783807 -64.77129 -28.492632
-52.789337 -62.931652 -29.104866
-51.122757 -43.787945 -38.377291
-52.156525 -43.696636 -38.526668
-51.961906 -41.904717 -39.210856
-50.061207 -43.929144 -38.240374
-51.122757 -43.787945 -38.377291
-62.745424 -71.396748 -9.340488
-61.787994 -72.770618 -9.083804
-62.124235 -72.361153 -8.22723
-57.477356 -50.493589 -34.620283
-58.370737 -50.429487 -34.320339
-58.301035 -48.680206 -35.307768
-56.613602 -52.292084 -33.876148
-57.477356 -50.493589 -34.620283
-56.5439 -50.542802 -34.863577
-55.707867 -54.075048 -33.147002
-56.613602 -52.292084 -33.876148
-54.750881 -54.139313 -33.370486
-55.707867 -54.075048 -33.147002
-53.788668 -54.195213 -33.534409
-54.750881 -54.139313 -33.370486
-54.717932 -52.397197 -34.283366
-52.812502 -54.293232 -33.70253
-53.788668 -54.195213 -33.534409
-52.763554 -52.544895 -34.541292
-52.812502 -54.293232 -33.70253
-52.68968 -50.789465 -35.411407
-52.763554 -52.544895 -34.541292
-53.681844 -50.697668 -35.317404
-52.599819 -49.032482 -36.202601
-52.68968 -50.789465 -35.411407
-53.274044 -19.473632 -49.438938
-53.210306 -21.339678 -48.593985
-54.126631 -21.257091 -48.629946
-69.257915 -36.462791 -25.594008
-68.985733 -36.531904 -24.795227
-69.361843 -36.48377 -26.401257
-69.34198 -38.188131 -25.476641
-69.257915 -36.462791 -25.594008
-69.394634 -36.482908 -27.215845
-69.361843 -36.48377 -26.401257
-69.31057 -34.757568 -27.333212
-67.16373 -22.491036 -35.604528
-67.591015 -24.244254 -34.6348
-66.698009 -22.543871 -36.568022
-67.16373 -22.491036 -35.604528
-61.052036 -72.910729 -3.42861
-61.013071 -73.352055 -4.278803
-61.816305 -68.880616 -1.720865
-60.911196 -69.691524 -0.620175
-62.693297 -68.015552 -2.826564
-62.173111 -69.364422 -2.458353
-61.816305 -68.880616 -1.720865
-63.500111 -67.100116 -3.932608
-62.693297 -68.015552 -2.826564
-64.26699 -66.131992 -5.050481
-63.816982 -67.531234 -4.681924
-63.500111 -67.100116 -3.932608
-64.954643 -65.115203 -6.168394
-64.26699 -66.131992 -5.050481
-59.928911 -66.219143 -22.882809
-59.782225 -67.600223 -21.786474
-60.780606 -65.912224 -22.343756
-59.437639 -57.163679 -29.818396
-58.518715 -57.28087 -30.205074
-50.855835 -64.994873 -28.832971
-50.892319 -63.260418 -29.673998
-48.983265 -36.679108 -40.65062
-48.648574 -34.858696 -41.188488
-61.392209 -73.203484 -9.937444
-61.787994 -72.770618 -9.083804
-60.926581 -73.629463 -10.771382
-61.392209 -73.203484 -9.937444
-61.943556 -72.232193 -11.031
-60.426868 -74.081696 -11.589036
-60.926581 -73.629463 -10.771382
-60.909137 -73.098317 -12.65173
-60.426868 -74.081696 -11.589036
-61.359821 -72.044292 -13.758669
-60.909137 -73.098317 -12.65173
-61.928612 -71.604149 -12.971876
-61.751798 -70.976341 -14.835475
-60.732325 -72.470508 -14.515328
-61.359821 -72.044292 -13.758669
-67.837154 -50.494263 -15.584612
-68.077877 -52.015018 -15.247129
-68.01714 -49.093498 -16.680208
-67.837154 -50.494263 -15.584612
-68.181275 -47.639492 -17.783285
-68.450077 -49.182293 -17.478783
-68.01714 -49.093498 -16.680208
-68.336006 -46.160035 -18.845571
-68.181275 -47.639492 -17.783285
-68.470005 -44.632519 -19.909025
-68.748211 -46.200772 -19.645314
-68.336006 -46.160035 -18.845571
-58.450514 -52.170347 -33.299622
-59.274193 -50.356964 -33.987106
-58.370737 -50.429487 -34.320339
-58.482355 -53.891817 -32.284111
-58.450514 -52.170347 -33.299622
-58.523601 -55.596384 -31.240816
-59.395216 -53.802391 -31.923094
-58.482355 -53.891817 -32.284111
-58.518715 -57.28087 -30.205074
-58.523601 -55.596384 -31.240816
-52.827777 -61.230217 -30.068167
-52.789337 -62.931652 -29.104866
-52.852672 -59.502648 -30.968943
-52.856598 -57.776258 -31.913514
-51.866684 -61.342759 -30.304722
-52.827777 -61.230217 -30.068167
-52.852672 -59.502648 -30.968943
-50.917214 -61.532849 -30.574774
-50.892319 -63.260418 -29.673998
-51.866684 -61.342759 -30.304722
-50.917214 -61.532849 -30.574774
-50.917439 -59.783797 -31.399393
-51.309597 -32.675529 -42.795979
-52.313083 -32.601191 -43.092338
-51.852631 -30.763442 -43.740433
-50.273506 -32.775358 -42.491259
-50.733959 -34.613107 -41.843165
-51.309597 -32.675529 -42.795979
-49.249806 -32.890143 -42.118199
-50.273506 -32.775358 -42.491259
-48.648574 -34.858696 -41.188488
-49.249806 -32.890143 -42.118199
-52.653257 -26.954375 -45.692302
-52.269624 -28.853355 -44.739409
-53.23975 -28.790124 -44.989687
-51.933249 -25.136776 -46.451178
-52.653257 -26.954375 -45.692302
-52.903374 -25.073546 -46.701456
-51.215165 -23.342058 -47.136297
-51.933249 -25.136776 -46.451178
-51.215165 -23.342058 -47.136297
-51.326096 -21.497695 -48.1947
-67.923576 -54.94508 -13.764696
-67.649925 -56.247494 -12.625819
-68.221115 -55.145685 -14.565134
-67.923576 -54.94508 -13.764696
-68.167351 -53.594344 -14.918991
-68.607937 -43.078651 -20.92635
-68.470005 -44.632519 -19.909025
-68.714599 -41.482247 -21.941183
-68.832016 -39.862297 -22.908573
-68.988872 -43.076851 -21.723601
-68.607937 -43.078651 -20.92635
-68.714599 -41.482247 -21.941183
-68.990643 -29.512707 -30.0438
-69.129707 -31.26701 -29.150013
-68.861484 -29.484164 -30.904083
-68.990643 -29.512707 -30.0438
-68.589622 -29.548538 -31.760941
-68.81123 -31.314105 -30.838951
-68.861484 -29.484164 -30.904083
-68.248829 -29.606381 -32.648449
-68.589622 -29.548538 -31.760941
-67.793858 -29.746139 -33.526272
-68.084396 -31.518237 -32.573631
-68.248829 -29.606381 -32.648449
-67.288444 -29.881169 -34.434881
-67.793858 -29.746139 -33.526272
-67.452877 -27.969313 -34.509698
-66.147075 -22.675621 -37.509962
-66.634918 -24.430435 -36.501014
-66.698009 -22.543871 -36.568022
-65.552528 -22.804192 -38.484064
-66.147075 -22.675621 -37.509962
-65.61562 -20.917628 -38.551071
-63.704864 -19.48497 -41.546751
-64.345303 -21.225465 -40.485473
-64.380634 -19.305703 -40.58645
-63.02804 -17.736203 -42.622669
-62.992708 -19.655965 -42.521692
-63.704864 -19.48497 -41.546751
-60.713257 -74.201603 -6.00209
-60.905346 -73.76928 -5.130427
-61.432024 -73.316975 -7.105374
-60.713257 -74.201603 -6.00209
-62.389454 -71.943104 -7.362058
-62.124235 -72.361153 -8.22723
-61.432024 -73.316975 -7.105374
-60.984545 -72.473209 -2.610593
-60.858675 -71.999069 -1.797398
-61.845202 -71.626957 -3.718936
-61.052036 -72.910729 -3.42861
-60.984545 -72.473209 -2.610593
-65.594844 -64.048782 -7.302624
-65.224063 -65.496689 -6.934026
-64.954643 -65.115203 -6.168394
-66.154823 -62.937469 -8.43573
-65.594844 -64.048782 -7.302624
-65.885402 -62.555984 -7.670097
-66.957489 -58.747889 -10.333033
-66.882175 -60.24709 -9.950741
-66.520694 -59.945471 -9.185496
-67.32074 -57.524036 -11.469539
-66.957489 -58.747889 -10.333033
-62.983524 -15.844851 -42.713642
-62.917881 -14.003901 -42.755037
-62.271368 -16.015847 -43.688583
-63.02804 -17.736203 -42.622669
-62.983524 -15.844851 -42.713642
-61.351306 -12.426637 -44.829569
-62.099971 -12.309345 -43.789692
-61.470783 -14.287488 -44.761196
-61.351306 -12.426637 -44.829569
-60.595237 -12.589629 -45.811208
-58.151844 -13.098327 -48.562586
-58.993496 -12.925289 -47.687221
-58.305104 -14.976962 -48.296816
-58.151844 -13.098327 -48.562586
-57.331162 -13.268871 -49.323952
-54.736832 -13.743692 -51.144348
-55.62098 -13.587796 -50.62318
-54.918469 -15.572077 -50.570766
-54.736832 -13.743692 -51.144348
-54.996647 -17.448884 -50.009758
-55.870896 -17.323349 -49.652874
-54.918469 -15.572077 -50.570766
-54.117294 -17.544328 -50.201274
-55.069721 -19.2956 -49.283383
-54.996647 -17.448884 -50.009758
-53.213859 -17.65368 -50.320179
-54.117294 -17.544328 -50.201274
-53.274044 -19.473632 -49.438938
-53.213859 -17.65368 -50.320179
-60.721699 -70.664299 -17.372196
-60.41387 -71.821831 -16.276993
-61.432131 -70.245025 -16.687337
-60.721699 -70.664299 -17.372196
-60.98515 -69.475693 -18.433029
-60.432129 -68.578598 -20.16547
-61.218952 -68.226135 -19.545528
-61.420742 -66.940842 -20.627479
-60.432129 -68.578598 -20.16547
-59.609562 -68.934089 -20.738028
-60.316866 -57.022619 -29.371193
-60.315689 -55.365898 -30.432596
-59.437639 -57.163679 -29.818396
-61.199824 -56.850752 -28.906723
-60.316866 -57.022619 -29.371193
-60.321774 -58.648533 -28.292523
-60.057131 -64.78896 -23.950021
-61.021996 -63.058881 -24.54044
-60.151834 -63.316698 -25.050371
-59.928911 -66.219143 -22.882809
-60.057131 -64.78896 -23.950021
-51.783807 -64.77129 -28.492632
-50.855835 -64.994873 -28.832971
-52.477211 -47.260796 -37.02228
-52.599819 -49.032482 -36.202601
-53.485363 -47.170552 -37.007199
-52.340065 -45.489365 -37.759991
-53.179215 -43.606137 -38.593556
-52.156525 -43.696636 -38.526668
-52.477211 -47.260796 -37.02228
-52.340065 -45.489365 -37.759991
-49.333227 -38.506939 -40.049166
-50.047831 -36.540768 -40.936991
-48.983265 -36.679108 -40.65062
-49.594645 -40.320507 -39.483604
-49.333227 -38.506939 -40.049166
-49.859818 -42.13422 -38.846575
-50.662966 -40.182312 -39.698508
-49.594645 -40.320507 -39.483604
-50.061207 -43.929144 -38.240374
-49.859818 -42.13422 -38.846575
3 0 53 51
3 1 56 54
3 1 58 56
3 2 61 59
3 3 63 62
3 3 64 63
3 3 65 64
3 4 197 198
3 4 199 200
3 5 68 66
3 7 71 69
3 7 73 71
3 7 75 73
3 9 78 76
3 9 80 78
3 201 83 202
3 203 202 81
3 201 202 203
3 11 86 84
3 11 88 86
3 204 90 205
3 206 92 207
3 208 207 90
3 206 207 208
3 10 96 94
3 12 99 97
3 12 101 99
3 6 104 102
3 8 107 105
3 13 108 52
3 13 109 108
3 14 112 110
3 16 113 55
3 16 114 113
3 16 116 114
3 18 117 57
3 18 118 117
3 20 121 119
3 22 122 60
3 22 123 122
3 23 126 124
3 209 127 210
3 212 211 127
3 214 213 128
3 27 132 130
3 29 133 67
3 29 134 133
3 15 135 111
3 30 136 70
3 30 137 136
3 30 138 137
3 31 139 72
3 31 140 139
3 31 142 140
3 33 143 74
3 33 144 143
3 17 145 115
3 34 146 77
3 34 147 146
3 34 148 147
3 215 149 216
3 217 216 79
3 215 216 217
3 219 218 149
3 35 152 150
3 37 153 82
3 37 154 153
3 19 220 222
3 220 155 221
3 220 221 222
3 38 156 85
3 38 157 156
3 38 158 157
3 39 159 87
3 39 160 159
3 40 223 224
3 40 225 227
3 225 161 226
3 225 226 227
3 40 162 161
3 41 163 89
3 41 164 163
3 41 165 164
3 42 166 91
3 42 167 166
3 43 228 229
3 43 230 232
3 230 168 231
3 230 231 232
3 43 169 168
3 233 170 234
3 236 235 170
3 44 237 239
3 237 171 238
3 237 238 239
3 44 172 171
3 45 240 241
3 45 242 243
3 45 244 246
3 244 173 245
3 244 245 246
3 46 174 93
3 46 175 174
3 46 176 175
3 247 177 248
3 250 249 177
3 251 178 252
3 253 179 254
3 255 180 256
3 257 256 179
3 255 256 257
3 258 181 259
3 260 182 261
3 262 261 181
3 260 261 262
3 36 183 151
3 47 184 95
3 47 185 184
3 21 186 120
3 48 187 98
3 48 188 187
3 48 263 265
3 265 264 188
3 263 264 265
3 267 266 100
3 28 189 131
3 49 190 103
3 49 191 190
3 24 192 125
3 268 193 269
3 270 194 271
3 272 271 193
3 270 271 272
3 274 273 194
3 25 275 276
3 32 195 141
3 50 277 279
3 279 278 106
3 277 278 279
3 50 280 281
3 26 196 129
3 51 282 284
3 282 52 283
3 282 283 284
3 53 52 51
3 53 13 52
3 54 55 14
3 56 55 54
3 56 16 55
3 56 57 16
3 58 57 56
3 58 18 57
3 59 60 20
3 61 60 59
3 61 22 60
3 62 285 287
3 287 286 23
3 285 286 287
3 63 288 290
3 290 289 62
3 288 289 290
3 63 291 292
3 63 293 294
3 64 295 297
3 297 296 63
3 295 296 297
3 64 298 299
3 64 300 301
3 65 302 304
3 304 303 64
3 302 303 304
3 65 305 306
3 66 67 27
3 68 67 66
3 68 29 67
3 69 70 15
3 71 70 69
3 71 30 70
3 71 72 30
3 73 72 71
3 73 31 72
3 73 74 31
3 75 74 73
3 75 33 74
3 76 77 17
3 78 77 76
3 78 34 77
3 78 79 34
3 80 79 78
3 80 307 309
3 309 308 79
3 307 308 309
3 81 82 35
3 83 82 81
3 83 37 82
3 84 85 19
3 86 85 84
3 86 38 85
3 86 87 38
3 88 87 86
3 88 39 87
3 310 40 311
3 312 89 313
3 314 313 40
3 312 313 314
3 90 315 317
3 315 89 316
3 315 316 317
3 90 41 89
3 90 91 41
3 92 91 90
3 92 42 91
3 318 43 319
3 321 320 43
3 322 44 323
3 324 45 325
3 326 93 327
3 328 327 45
3 326 327 328
3 329 93 330
3 331 46 332
3 333 332 93
3 331 332 333
3 335 334 46
3 94 95 36
3 96 95 94
3 96 47 95
3 97 98 21
3 99 98 97
3 99 48 98
3 99 100 48
3 101 100 99
3 101 336 338
3 338 337 100
3 336 337 338
3 102 103 28
3 104 103 102
3 104 49 103
3 340 339 24
3 342 341 25
3 105 106 32
3 107 106 105
3 107 50 106
3 344 343 26
3 52 345 346
3 108 347 349
3 349 348 52
3 347 348 349
3 108 350 351
3 108 352 353
3 109 354 356
3 356 355 108
3 354 355 356
3 109 357 359
3 357 4 358
3 357 358 359
3 110 111 5
3 112 111 110
3 112 15 111
3 55 112 14
3 113 112 55
3 113 15 112
3 113 69 15
3 114 69 113
3 114 7 69
3 114 115 7
3 116 115 114
3 116 17 115
3 57 116 16
3 117 116 57
3 117 17 116
3 117 76 17
3 118 76 117
3 118 9 76
3 360 19 361
3 362 19 363
3 364 84 365
3 366 365 19
3 364 365 366
3 367 84 368
3 369 11 370
3 371 370 84
3 369 370 371
3 119 120 10
3 121 120 119
3 121 21 120
3 60 121 20
3 122 121 60
3 122 21 121
3 122 97 21
3 123 97 122
3 123 12 97
3 124 125 6
3 126 125 124
3 126 24 125
3 372 126 373
3 374 373 23
3 372 373 374
3 375 126 376
3 377 24 378
3 379 378 126
3 377 378 379
3 381 380 24
3 382 25 383
3 127 384 385
3 127 386 388
3 386 25 387
3 386 387 388
3 127 389 391
3 391 390 25
3 389 390 391
3 393 392 127
3 128 129 8
3 394 129 395
3 396 395 128
3 394 395 396
3 397 26 398
3 399 398 129
3 397 398 399
3 400 26 401
3 403 402 26
3 130 131 2
3 132 131 130
3 132 28 131
3 67 132 27
3 133 132 67
3 133 28 132
3 133 102 28
3 134 102 133
3 134 6 102
3 111 68 5
3 135 68 111
3 135 29 68
3 70 135 15
3 136 135 70
3 136 29 135
3 136 134 29
3 137 134 136
3 137 6 134
3 137 124 6
3 138 124 137
3 138 23 124
3 72 138 30
3 139 138 72
3 139 23 138
3 139 62 23
3 140 62 139
3 140 3 62
3 140 141 3
3 142 141 140
3 142 32 141
3 74 142 31
3 143 142 74
3 143 32 142
3 143 105 32
3 144 105 143
3 144 8 105
3 115 75 7
3 145 75 115
3 145 33 75
3 77 145 17
3 146 145 77
3 146 33 145
3 146 144 33
3 147 144 146
3 147 8 144
3 147 128 8
3 148 128 147
3 148 404 406
3 406 405 128
3 404 405 406
3 79 148 34
3 149 148 79
3 149 407 409
3 409 408 148
3 407 408 409
3 149 410 411
3 413 412 149
3 150 151 0
3 152 151 150
3 152 36 151
3 82 152 35
3 153 152 82
3 153 36 152
3 153 94 36
3 154 94 153
3 154 10 94
3 414 83 415
3 155 416 418
3 416 83 417
3 416 417 418
3 155 37 83
3 85 155 19
3 156 155 85
3 156 37 155
3 156 154 37
3 157 154 156
3 157 10 154
3 157 119 10
3 158 119 157
3 158 20 119
3 87 158 38
3 159 158 87
3 159 20 158
3 159 59 20
3 160 59 159
3 160 2 59
3 419 11 420
3 161 421 422
3 161 423 425
3 423 11 424
3 423 424 425
3 161 88 11
3 162 88 161
3 162 39 88
3 89 162 40
3 163 162 89
3 163 39 162
3 163 160 39
3 164 160 163
3 164 2 160
3 164 130 2
3 165 130 164
3 165 27 130
3 91 165 41
3 166 165 91
3 166 27 165
3 166 66 27
3 167 66 166
3 167 5 66
3 426 92 427
3 428 92 429
3 430 42 431
3 432 431 92
3 430 431 432
3 433 42 434
3 435 167 436
3 437 436 42
3 435 436 437
3 168 438 440
3 438 167 439
3 438 439 440
3 168 5 167
3 168 110 5
3 169 110 168
3 169 14 110
3 441 169 442
3 443 442 43
3 441 442 443
3 170 444 446
3 444 169 445
3 444 445 446
3 170 14 169
3 170 54 14
3 447 54 448
3 449 448 170
3 447 448 449
3 450 1 451
3 452 451 54
3 450 451 452
3 171 453 454
3 171 455 456
3 171 457 459
3 457 51 458
3 457 458 459
3 172 51 171
3 172 0 51
3 173 460 461
3 173 462 464
3 462 44 463
3 462 463 464
3 93 173 45
3 174 173 93
3 174 44 173
3 174 172 44
3 175 172 174
3 175 0 172
3 175 150 0
3 176 150 175
3 176 35 150
3 465 176 466
3 467 466 46
3 465 466 467
3 177 468 470
3 468 176 469
3 468 469 470
3 177 35 176
3 177 81 35
3 471 81 472
3 473 472 177
3 471 472 473
3 475 474 81
3 178 476 477
3 178 478 480
3 478 1 479
3 478 479 480
3 481 178 482
3 179 483 485
3 483 178 484
3 483 484 485
3 179 1 178
3 179 58 1
3 180 58 179
3 180 18 58
3 486 180 487
3 181 488 490
3 488 180 489
3 488 489 490
3 181 18 180
3 181 118 18
3 182 118 181
3 182 9 118
3 491 182 492
3 493 182 494
3 495 9 496
3 497 496 182
3 495 496 497
3 498 80 499
3 500 499 9
3 498 499 500
3 501 80 502
3 504 503 80
3 151 53 0
3 183 53 151
3 183 13 53
3 95 183 36
3 184 183 95
3 184 13 183
3 184 109 13
3 185 109 184
3 185 4 109
3 120 96 10
3 186 96 120
3 186 47 96
3 98 186 21
3 187 186 98
3 187 47 186
3 187 185 47
3 188 185 187
3 188 4 185
3 188 505 507
3 507 506 4
3 505 506 507
3 509 508 188
3 100 510 512
3 512 511 48
3 510 511 512
3 514 513 100
3 131 61 2
3 189 61 131
3 189 22 61
3 103 189 28
3 190 189 103
3 190 22 189
3 190 123 22
3 191 123 190
3 191 12 123
3 125 104 6
3 192 104 125
3 192 49 104
3 515 192 516
3 517 516 24
3 515 516 517
3 193 518 520
3 518 192 519
3 518 519 520
3 193 49 192
3 193 191 49
3 194 191 193
3 194 12 191
3 194 101 12
3 521 101 522
3 523 522 194
3 521 522 523
3 525 524 101
3 527 526 25
3 141 65 3
3 195 65 141
3 195 528 530
3 530 529 65
3 528 529 530
3 106 195 32
3 531 195 532
3 533 532 106
3 531 532 533
3 535 534 195
3 129 107 8
3 196 107 129
3 196 50 107
3 536 196 537
3 538 537 26
3 536 537 538
3 539 196 540
3 541 50 542
3 543 542 196
3 541 542 543
3 545 544 50
