ply
format ascii 1.0
element vertex 541
property float x
property float y
property float z
element face 590
property list uchar int vertex_index
end_header
23.75021 80.80838 -17.770109
34.284664 75.107491 4.032663
46.587601 64.070152 -11.347015
9.998684 64.695969 -32.218971
15.905793 75.587906 -25.743494
29.884037 70.431129 -21.443853
30.293816 79.457817 -7.564821
37.203312 73.832993 -14.605633
40.755836 71.730392 -4.651949
41.794807 62.963242 -18.702749
1.994446 62.044792 -34.136856
19.773472 79.108261 -21.978067
22.845596 73.367645 -23.393942
27.030661 76.370193 -20.047514
20.432968 83.814522 -14.342196
13.798399 86.247391 -15.313969
16.599089 83.338814 -19.35116
32.56348 77.493805 -1.820795
36.016434 75.967834 -6.1068
37.493473 73.980278 -0.463465
29.275816 78.189423 2.916615
26.913677 80.713203 -3.028765
42.484344 69.252289 -13.130596
39.980633 68.870346 -17.06378
44.71077 64.217583 -15.493031
7.216644 70.983757 -31.282473
3.086376 69.406929 -32.155785
5.466129 64.404495 -33.815689
4.368822 57.214745 -35.105469
38.517868 71.498489 5.273478
12.584885 70.618546 -29.207952
18.843212 68.926353 -26.538965
47.92038 59.370064 -13.140818
9.683651 76.644913 -27.864344
27.349192 80.753609 -12.954399
30.832235 77.638504 -16.12137
33.848232 77.333839 -11.426394
39.425827 73.270241 -9.917042
43.937813 68.348541 -8.37896
41.460205 69.547951 0.870136
44.584251 66.566444 -3.174877
21.035484 84.124634 -3.852858
23.954252 82.73069 -8.853134
33.953346 72.959206 -18.428919
36.409904 66.929779 -20.031752
45.483276 58.799431 -16.684042
3.940144 49.594948 -34.981316
21.78117 80.194481 -19.942919
23.403234 77.829636 -20.988062
25.425289 78.788597 -19.041159
22.063915 82.462341 -16.207434
18.531044 83.806358 -16.910891
20.135534 82.173149 -18.591345
18.171263 81.411118 -20.837416
33.480927 76.353691 1.104715
35.144638 75.821228 -1.146095
35.880104 74.678276 1.751211
32.713364 75.279884 6.37823
30.270363 76.762787 5.87231
31.850872 76.661568 3.443318
30.88826 77.927887 0.490812
8.981756 61.501335 -33.416382
11.387236 61.190804 -32.368233
44.680553 66.71032 -12.304174
43.739349 66.826241 -14.438482
45.773697 64.303749 -13.523983
8.595028 67.984352 -31.880869
6.256516 67.785316 -32.683479
7.607719 64.777328 -33.17112
6.793848 61.425629 -34.180611
14.158823 73.252342 -27.514059
15.629454 69.89743 -27.894617
17.403851 72.392441 -26.240114
26.390392 71.974266 -22.345781
24.247452 70.02243 -23.799173
27.707726 68.604263 -22.782732
31.09568 67.060486 -21.939631
11.943459 85.735779 -17.947447
14.380997 78.441849 -24.969427
11.196547 78.986122 -25.922251
12.66604 76.301247 -26.880774
11.121744 73.801521 -28.68799
28.90942 80.220543 -10.320295
30.688951 79.099556 -12.19418
32.071434 78.540215 -9.580206
38.515862 73.969048 -5.37463
37.742599 74.784042 -8.076014
40.186836 72.595657 -7.333649
41.80806 70.911186 -9.163982
42.375633 70.173134 -6.588022
40.288101 69.30368 5.886543
39.966209 70.666252 3.042406
41.67717 68.25676 3.674017
22.571205 82.891624 -0.847057
28.561878 80.160759 -5.380657
25.510965 81.803032 -5.969933
27.167192 81.096123 -8.244808
25.611229 81.844398 -11.020781
34.137535 75.827347 -15.345377
32.460945 75.498146 -17.374105
35.703808 73.599464 -16.633005
41.03437 65.985764 -17.993704
38.313961 68.096893 -18.658953
39.283657 64.992149 -19.403395
37.319633 63.63855 -20.617296
39.974327 61.795662 -19.966043
46.806335 59.250786 -15.017939
2.471519 65.819588 -33.301941
1.537525 67.784348 -32.088211
1.659374 58.098274 -34.636177
5.67098 54.396614 -35.174988
4.065756 53.448029 -35.216072
5.365828 50.768097 -35.127563
17.793999 77.559502 -23.90288
19.325161 74.587433 -24.550306
21.346134 76.418159 -22.810884
24.950443 75.075882 -21.769686
28.52487 73.565216 -20.831259
17.032631 85.155281 -14.899389
15.122677 84.933472 -17.506601
13.245926 84.220955 -19.993479
14.695663 82.37571 -21.664057
16.232819 80.160736 -22.958174
31.507425 78.534103 -4.720491
33.263443 77.772858 -6.843147
34.280815 76.855499 -4.020182
36.828007 75.03653 -3.307901
39.121368 73.000427 -2.602858
26.625414 79.783554 2.483613
25.37429 81.153404 -0.511421
28.164421 79.503685 -0.057846
29.798344 79.095047 -2.45895
39.991467 71.638611 -13.880539
38.687298 71.514198 -15.929674
41.37339 69.24659 -15.218395
42.526276 66.595421 -16.342276
43.383354 63.77552 -17.221487
4.209927 67.078972 -33.159874
3.59141 63.507164 -34.135635
3.123047 59.775795 -34.781418
4.837427 60.873352 -34.634338
6.148441 57.957581 -34.858925
35.006794 73.736298 6.945076
36.518108 73.417274 4.651553
37.09663 72.022316 7.539865
38.958893 70.057175 8.138597
11.197897 67.748833 -30.793974
12.615635 64.248375 -31.01362
14.029764 67.164825 -29.50017
17.048855 66.317917 -28.105322
20.78949 71.296936 -24.971518
22.168144 67.770897 -25.247889
47.472328 61.739021 -12.417162
8.356434 73.955803 -29.661715
9.764191 71.008995 -30.368395
25.620995 80.975502 -15.441811
27.345013 79.293198 -16.935369
29.110023 79.37616 -14.652563
32.449871 77.654388 -13.867785
35.574879 75.775703 -13.102478
35.031242 76.749565 -8.826321
36.77108 75.405586 -10.666632
38.440037 73.703178 -12.356117
41.024174 71.418411 -11.611252
43.329369 68.934578 -10.834568
45.373108 66.295563 -9.982391
38.044209 72.803375 2.402258
39.592216 71.897942 0.209101
41.167694 70.708458 -1.909262
43.006256 68.170631 -1.213892
42.762627 69.24942 -3.927542
44.344269 67.545631 -5.812847
45.848022 65.634361 -7.523504
47.17762 63.564949 -9.009121
23.974247 82.395111 -3.501226
22.421871 83.479271 -6.459515
22.253586 83.42865 -11.651333
23.902388 82.32798 -13.681353
29.012093 77.222939 -18.176916
30.572315 74.747337 -19.192026
31.992044 71.897446 -20.015638
37.108006 70.999115 -17.735979
35.278362 70.073387 -19.307768
33.250103 68.747559 -20.686472
34.329384 65.401077 -21.241358
46.512215 61.791801 -14.4433
45.316364 61.514122 -16.252768
43.877098 60.884232 -17.826136
43.950439 58.010071 -18.133043
42.207336 59.906502 -19.173231
2.809877 55.901299 -35.076431
10.519352 85.914139 -18.06992
11.062685 85.224392 -19.20492
41.773342 67.548451 5.08556
40.982636 68.78022 4.78028
41.078807 68.071911 6.191822
23.262874 82.189517 0.660178
21.934618 83.084621 0.567338
1.519521 63.020378 -33.627994
1.758058 64.907776 -33.210537
2.232982 63.93219 -33.719398
1.33614 61.029335 -33.98449
1.519521 63.020378 -33.627994
1.82691 60.071533 -34.386516
1.168604 59.056076 -34.23415
1.33614 61.029335 -33.98449
6.174127 51.063415 -35.090935
5.518404 52.582355 -35.151275
6.326703 52.877674 -35.114647
6.015247 49.326511 -35.001469
6.174127 51.063415 -35.090935
18.732799 84.484902 -14.620793
17.975423 85.046089 -13.539496
19.675591 84.375709 -13.2609
28.509969 78.240109 4.188239
29.007243 77.526791 5.666087
29.773089 77.476105 4.394462
27.950615 78.986489 2.700114
27.184768 79.037174 3.971738
28.509969 78.240109 4.188239
6.099253 70.725448 -31.585037
6.567153 72.309726 -30.819989
7.144878 58.077057 -34.589005
6.471144 59.691605 -34.519768
7.467581 59.811081 -34.249848
6.811625 56.382378 -34.866157
7.144878 58.077057 -34.589005
36.391458 72.121731 8.682983
36.051712 72.879307 7.24247
35.346541 72.978722 8.385589
39.186287 69.268109 9.561497
38.308823 70.269925 9.27001
39.78344 68.933979 8.436048
39.186287 69.268109 9.561497
35.346541 72.978722 8.385589
34.258817 73.748394 8.111853
19.525675 67.103867 -26.631988
18.628497 65.799648 -27.415167
17.946033 67.622135 -27.322144
23.855131 67.123646 -24.675631
23.207798 68.896664 -24.523531
24.894785 68.249413 -23.951273
22.8113 65.940064 -25.35421
23.855131 67.123646 -24.675631
13.229102 86.785786 -14.058079
14.744439 86.263024 -13.943542
9.004942 77.87463 -27.270344
9.76139 79.045234 -26.299298
10.440099 77.815517 -26.893297
8.356478 76.589924 -28.236591
9.004942 77.87463 -27.270344
9.020042 75.300358 -28.76303
7.69287 75.245369 -29.135277
8.356478 76.589924 -28.236591
43.795254 67.368538 -2.194384
43.850758 66.805107 -0.851109
44.639755 66.003014 -1.831601
46.709598 64.235996 -7.040343
45.992795 65.204063 -6.247704
47.374398 63.20129 -7.783152
46.512821 64.599655 -8.266312
46.709598 64.235996 -7.040343
47.968868 62.186798 -8.443041
47.374398 63.20129 -7.783152
19.589563 84.971867 -3.95928
18.968315 85.241592 -2.557476
20.414236 84.39436 -2.451054
20.196064 84.634274 -5.338603
19.589563 84.971867 -3.95928
22.341107 83.540947 -9.106623
21.574917 83.915237 -7.909813
23.188061 83.10498 -7.656325
23.103919 83.07967 -10.252233
21.490774 83.889927 -10.505722
22.341107 83.540947 -9.106623
13.303787 62.419548 -31.058101
14.022357 63.886803 -30.329624
36.263828 62.805249 -21.162498
37.646125 61.975243 -20.844181
43.088762 57.456643 -18.761345
43.761704 56.613484 -18.13262
42.217211 58.404858 -19.281439
43.078888 58.958286 -18.653137
43.088762 57.456643 -18.761345
41.274295 59.258881 -19.755531
42.217211 58.404858 -19.281439
2.619967 70.385044 -31.460109
3.465331 71.093872 -31.442495
1.186865 68.588192 -31.281362
0.930141 66.700772 -31.893868
3.302676 50.746315 -35.000489
3.365482 52.672855 -35.117866
4.00295 51.521489 -35.098694
3.32498 48.687725 -34.808053
3.302676 50.746315 -35.000489
3.975402 47.639408 -34.714734
3.32498 48.687725 -34.808053
31.491864 76.021335 6.12527
30.72512 75.983475 7.331622
31.946621 75.242023 7.584582
9.661376 59.763183 -33.451069
8.561536 59.848934 -33.867733
10.864116 59.607918 -32.926994
9.661376 59.763183 -33.451069
10.184496 61.346069 -32.892308
12.062684 59.36879 -32.382103
10.864116 59.607918 -32.926994
8.561536 59.848934 -33.867733
7.467581 59.811081 -34.249848
7.887802 61.463482 -33.798496
26.624922 67.540329 -23.443053
24.894785 68.249413 -23.951273
25.977589 69.313346 -23.290952
28.301724 66.836742 -22.964403
26.624922 67.540329 -23.443053
29.995701 66.064853 -22.542852
28.301724 66.836742 -22.964403
29.401703 67.832375 -22.361182
31.622125 65.312111 -22.153265
29.995701 66.064853 -22.542852
11.386505 86.34885 -16.749004
12.313975 86.604657 -15.432265
12.870929 85.991585 -16.630708
11.386505 86.34885 -16.749004
10.519352 85.914139 -18.06992
12.788772 78.713986 -25.445839
12.037519 79.950214 -24.88792
13.629744 79.678078 -24.411509
45.42917 65.158626 -2.766382
44.639755 66.003014 -1.831601
45.36091 65.670105 -4.073391
45.42917 65.158626 -2.766382
21.182097 83.777854 -0.948153
21.934618 83.084621 0.567338
21.803345 83.508129 -2.349957
20.414236 84.39436 -2.451054
21.182097 83.777854 -0.948153
38.973472 61.053798 -20.518555
37.646125 61.975243 -20.844181
38.64698 62.717106 -20.291669
47.32759 58.135818 -14.249028
47.363357 59.310425 -14.079379
47.884613 58.195458 -13.310468
46.699569 57.996868 -15.11903
47.32759 58.135818 -14.249028
46.03804 57.771191 -15.952082
46.144805 59.025109 -15.850991
46.699569 57.996868 -15.11903
1.29106 65.890156 -32.603672
2.004522 66.801968 -32.695076
1.758058 64.907776 -33.210537
0.930141 66.700772 -31.893868
1.29106 65.890156 -32.603672
1.054968 56.972381 -34.422268
1.168604 59.056076 -34.23415
1.569605 56.044266 -34.711838
1.054968 56.972381 -34.422268
5.303121 48.938248 -34.940216
4.590279 48.351673 -34.867092
4.652986 50.181522 -35.05444
5.303121 48.938248 -34.940216
6.015247 49.326511 -35.001469
16.361555 85.716969 -13.736251
17.975423 85.046089 -13.539496
15.415515 85.701336 -15.106679
14.744439 86.263024 -13.943542
16.361555 85.716969 -13.736251
11.713919 84.46698 -20.227936
11.062685 85.224392 -19.20492
12.594693 84.978367 -18.970463
12.352265 83.60973 -21.174322
11.713919 84.46698 -20.227936
13.077133 82.687107 -22.009611
12.352265 83.60973 -21.174322
13.970795 83.298333 -20.828768
13.787076 81.645008 -22.758823
13.077133 82.687107 -22.009611
14.555654 80.537521 -23.405882
13.787076 81.645008 -22.758823
15.464241 81.268223 -22.311115
15.306908 79.301293 -23.9638
13.629744 79.678078 -24.411509
14.555654 80.537521 -23.405882
29.514469 76.713414 7.134683
30.72512 75.983475 7.331622
29.514469 76.713414 7.134683
29.007243 77.526791 5.666087
25.909195 79.857769 3.824416
27.184768 79.037174 3.971738
25.289979 80.635482 2.325513
25.909195 79.857769 3.824416
25.999852 80.468479 0.986096
24.664417 81.320407 0.827996
25.289979 80.635482 2.325513
4.03412 69.937035 -32.021693
3.465331 71.093872 -31.442495
5.61919 69.126228 -32.28554
6.099253 70.725448 -31.585037
6.73658 69.384536 -31.982976
4.595895 68.773056 -32.523738
5.61919 69.126228 -32.28554
5.233222 67.432144 -32.921677
3.648151 68.242951 -32.65783
4.03412 69.937035 -32.021693
4.595895 68.773056 -32.523738
6.572894 54.601895 -35.024189
5.909711 56.177098 -35.016956
6.811625 56.382378 -34.866157
6.326703 52.877674 -35.114647
6.572894 54.601895 -35.024189
37.377691 71.252495 8.970644
36.391458 72.121731 8.682983
38.027761 71.039746 7.839231
37.377691 71.252495 8.970644
38.308823 70.269925 9.27001
40.448043 68.557232 7.310021
39.623497 69.680428 7.01257
39.78344 68.933979 8.436048
41.23875 67.325462 7.6153
41.078807 68.071911 6.191822
40.448043 68.557232 7.310021
33.112102 74.520187 7.82843
31.946621 75.242023 7.584582
33.860079 74.508091 6.661653
33.112102 74.520187 7.82843
34.258817 73.748394 8.111853
14.729422 65.345028 -29.572899
14.022357 63.886803 -30.329624
13.322699 65.7066 -30.256895
16.238967 64.921573 -28.875475
14.729422 65.345028 -29.572899
15.539309 66.741371 -28.802746
17.725876 64.462547 -28.167158
16.238967 64.921573 -28.875475
17.725876 64.462547 -28.167158
18.628497 65.799648 -27.415167
21.188141 66.526139 -25.986451
19.525675 67.103867 -26.631988
20.505678 68.348625 -25.893427
21.188141 66.526139 -25.986451
22.8113 65.940064 -25.35421
47.843441 61.56718 -11.315262
47.029964 62.904586 -11.882089
47.401077 62.732746 -10.780189
48.15424 60.46217 -11.748797
47.843441 61.56718 -11.315262
48.378265 59.277691 -12.110625
47.696354 60.554542 -12.77899
48.15424 60.46217 -11.748797
48.429856 58.178581 -12.352843
48.378265 59.277691 -12.110625
48.887741 58.086208 -11.32265
47.884613 58.195458 -13.310468
48.429856 58.178581 -12.352843
13.229102 86.785786 -14.058079
12.313975 86.604657 -15.432265
10.502231 80.132405 -25.254194
12.037519 79.950214 -24.88792
10.502231 80.132405 -25.254194
9.76139 79.045234 -26.299298
7.137048 73.795749 -30.009609
7.69287 75.245369 -29.135277
7.786539 72.46978 -30.472094
6.567153 72.309726 -30.819989
7.137048 73.795749 -30.009609
42.4566 66.9361 3.995522
41.773342 67.548451 5.08556
42.412527 67.606018 2.605091
42.4566 66.9361 3.995522
42.304045 68.251613 1.203151
41.568687 68.902355 2.272076
42.412527 67.606018 2.605091
43.07707 67.562953 0.161137
43.850758 66.805107 -0.851109
42.233231 68.859291 -0.171878
42.304045 68.251613 1.203151
43.07707 67.562953 0.161137
45.240919 66.159698 -5.392376
44.46426 67.056038 -4.493862
45.36091 65.670105 -4.073391
45.096145 66.589996 -6.668176
45.240919 66.159698 -5.392376
45.992795 65.204063 -6.247704
47.696087 62.480144 -9.611242
47.401077 62.732746 -10.780189
46.88261 63.81755 -10.178068
47.696087 62.480144 -9.611242
47.968868 62.186798 -8.443041
23.972747 82.022514 -0.679239
23.262874 82.189517 0.660178
24.664417 81.320407 0.827996
20.889257 84.311592 -6.641932
20.196064 84.634274 -5.338603
21.728677 83.801952 -5.156186
20.889257 84.311592 -6.641932
21.574917 83.915237 -7.909813
20.585901 84.182773 -11.915468
21.490774 83.889927 -10.505722
21.343277 83.621586 -12.996764
19.675591 84.375709 -13.2609
20.585901 84.182773 -11.915468
12.689588 60.890763 -31.735408
12.001435 62.719589 -31.690926
13.303787 62.419548 -31.058101
12.062684 59.36879 -32.382103
12.689588 60.890763 -31.735408
33.238977 64.482406 -21.804129
31.622125 65.312111 -22.153265
32.712532 66.230782 -21.590494
34.768704 63.686512 -21.47453
35.824509 64.519813 -20.929327
36.263828 62.805249 -21.162498
33.238977 64.482406 -21.804129
34.768704 63.686512 -21.47453
45.324493 57.468899 -16.726364
46.03804 57.771191 -15.952082
44.558075 57.074219 -17.450865
43.761704 56.613484 -18.13262
44.716858 58.404751 -17.408543
45.324493 57.468899 -16.726364
44.558075 57.074219 -17.450865
40.157791 60.20346 -20.151937
41.090832 60.851082 -19.569637
41.274295 59.258881 -19.755531
38.973472 61.053798 -20.518555
40.157791 60.20346 -20.151937
1.845541 69.573753 -31.426322
2.619967 70.385044 -31.460109
2.311951 68.595639 -32.121998
1.845541 69.573753 -31.426322
1.186865 68.588192 -31.281362
2.144856 54.945778 -34.931964
1.569605 56.044266 -34.711838
2.234625 56.999786 -34.856304
2.737542 53.89949 -35.048046
3.437817 54.674664 -35.146251
3.365482 52.672855 -35.117866
2.144856 54.945778 -34.931964
2.737542 53.89949 -35.048046
3.975402 47.639408 -34.714734
4.590279 48.351673 -34.867092
3 0 49 47
3 0 52 50
3 0 47 52
3 1 56 54
3 1 59 57
3 1 54 59
3 3 62 61
3 2 65 63
3 3 68 66
3 3 61 68
3 4 72 70
3 5 75 73
3 5 76 75
3 192 191 77
3 4 80 78
3 4 70 80
3 6 84 82
3 8 87 85
3 8 89 87
3 193 92 194
3 195 194 90
3 193 194 195
3 196 93 197
3 6 96 94
3 6 82 96
3 7 100 98
3 9 103 101
3 9 105 103
3 10 198 200
3 200 199 107
3 198 199 200
3 10 201 202
3 10 203 205
3 203 109 204
3 203 204 205
3 206 112 207
3 208 207 110
3 206 207 208
3 210 209 112
3 11 115 113
3 13 116 48
3 13 117 116
3 14 211 213
3 211 118 212
3 211 212 213
3 16 119 51
3 16 120 119
3 16 121 120
3 11 122 53
3 11 113 122
3 17 125 123
3 19 126 55
3 19 127 126
3 20 214 216
3 216 215 58
3 214 215 216
3 20 217 219
3 217 128 218
3 217 218 219
3 20 130 128
3 17 131 60
3 17 123 131
3 22 134 132
3 24 135 64
3 24 136 135
3 25 220 221
3 27 137 67
3 27 138 137
3 27 140 138
3 222 141 223
3 224 223 69
3 222 223 224
3 226 225 141
3 227 144 228
3 229 228 142
3 227 228 229
3 230 145 231
3 233 232 145
3 234 142 235
3 30 148 146
3 31 149 71
3 31 236 238
3 238 237 149
3 236 237 238
3 12 150 114
3 239 151 240
3 241 240 74
3 239 240 241
3 243 242 151
3 15 244 245
3 33 246 248
3 248 247 79
3 246 247 248
3 33 249 250
3 33 251 253
3 251 153 252
3 251 252 253
3 30 154 81
3 30 146 154
3 34 157 155
3 36 158 83
3 36 159 158
3 18 160 124
3 37 161 86
3 37 162 161
3 37 163 162
3 38 164 88
3 38 165 164
3 29 166 143
3 39 167 91
3 39 168 167
3 40 254 256
3 254 169 255
3 254 255 256
3 40 170 169
3 40 171 170
3 257 172 258
3 259 173 260
3 261 260 172
3 259 260 261
3 263 262 173
3 41 264 266
3 264 265 266
3 41 267 268
3 21 174 129
3 42 175 95
3 42 269 271
3 271 270 175
3 269 270 271
3 42 272 274
3 272 176 273
3 272 273 274
3 34 177 97
3 34 155 177
3 276 275 147
3 35 178 156
3 43 179 99
3 43 180 179
3 23 181 133
3 44 182 102
3 44 183 182
3 44 184 183
3 278 277 104
3 32 185 152
3 45 186 106
3 45 187 186
3 279 188 280
3 281 189 282
3 283 282 188
3 281 282 283
3 285 284 189
3 26 286 287
3 289 288 108
3 28 190 139
3 46 290 292
3 292 291 111
3 290 291 292
3 46 293 294
3 46 295 296
3 47 48 11
3 49 48 47
3 49 13 48
3 50 51 14
3 52 51 50
3 52 16 51
3 52 53 16
3 47 53 52
3 47 11 53
3 54 55 17
3 56 55 54
3 56 19 55
3 57 297 299
3 297 58 298
3 297 298 299
3 59 58 57
3 59 20 58
3 59 60 20
3 54 60 59
3 54 17 60
3 61 300 301
3 62 302 304
3 304 303 61
3 302 303 304
3 62 305 306
3 63 64 22
3 65 64 63
3 65 24 64
3 66 67 25
3 68 67 66
3 68 27 67
3 68 69 27
3 61 69 68
3 61 307 309
3 309 308 69
3 307 308 309
3 70 71 30
3 72 71 70
3 72 31 71
3 73 74 12
3 75 74 73
3 75 310 312
3 312 311 74
3 310 311 312
3 75 313 314
3 76 315 317
3 317 316 75
3 315 316 317
3 76 318 319
3 77 320 322
3 322 321 15
3 320 321 322
3 324 323 77
3 78 325 327
3 325 79 326
3 325 326 327
3 80 79 78
3 80 33 79
3 80 81 33
3 70 81 80
3 70 30 81
3 82 83 34
3 84 83 82
3 84 36 83
3 85 86 18
3 87 86 85
3 87 37 86
3 87 88 37
3 89 88 87
3 89 38 88
3 90 91 29
3 92 91 90
3 92 39 91
3 328 40 329
3 331 330 40
3 93 332 333
3 93 334 336
3 334 41 335
3 334 335 336
3 94 95 21
3 96 95 94
3 96 42 95
3 96 97 42
3 82 97 96
3 82 34 97
3 98 99 35
3 100 99 98
3 100 43 99
3 101 102 23
3 103 102 101
3 103 44 102
3 103 104 44
3 105 104 103
3 105 337 339
3 339 338 104
3 337 338 339
3 340 106 341
3 342 341 32
3 340 341 342
3 343 106 344
3 345 45 346
3 347 346 106
3 345 346 347
3 107 108 26
3 348 108 349
3 350 349 107
3 348 349 350
3 352 351 108
3 109 353 354
3 109 355 356
3 110 111 28
3 112 111 110
3 112 46 111
3 112 357 359
3 359 358 46
3 357 358 359
3 361 360 112
3 113 114 4
3 115 114 113
3 115 12 114
3 48 115 11
3 116 115 48
3 116 12 115
3 116 73 12
3 117 73 116
3 117 5 73
3 118 362 363
3 118 364 366
3 364 15 365
3 364 365 366
3 51 118 14
3 119 118 51
3 119 15 118
3 119 77 15
3 120 77 119
3 120 367 369
3 369 368 77
3 367 368 369
3 120 370 371
3 121 372 374
3 374 373 120
3 372 373 374
3 121 375 376
3 53 121 16
3 122 121 53
3 122 377 379
3 379 378 121
3 377 378 379
3 122 380 382
3 380 78 381
3 380 381 382
3 113 78 122
3 113 4 78
3 123 124 6
3 125 124 123
3 125 18 124
3 55 125 17
3 126 125 55
3 126 18 125
3 126 85 18
3 127 85 126
3 127 8 85
3 58 383 384
3 386 385 58
3 128 387 388
3 128 389 390
3 128 391 393
3 391 129 392
3 391 392 393
3 130 129 128
3 130 21 129
3 60 130 20
3 131 130 60
3 131 21 130
3 131 94 21
3 123 94 131
3 123 6 94
3 132 133 7
3 134 133 132
3 134 23 133
3 64 134 22
3 135 134 64
3 135 23 134
3 135 101 23
3 136 101 135
3 136 9 101
3 394 26 395
3 67 396 398
3 398 397 25
3 396 397 398
3 137 399 401
3 401 400 67
3 399 400 401
3 137 402 404
3 402 26 403
3 402 403 404
3 137 107 26
3 138 107 137
3 138 10 107
3 138 139 10
3 140 139 138
3 140 28 139
3 69 140 27
3 141 140 69
3 141 28 140
3 141 110 28
3 405 110 406
3 407 406 141
3 405 406 407
3 409 408 110
3 142 143 1
3 144 143 142
3 144 29 143
3 410 144 411
3 145 412 414
3 412 144 413
3 412 413 414
3 145 29 144
3 145 90 29
3 415 90 416
3 417 416 145
3 415 416 417
3 420 419 90
3 418 419 420
3 421 57 422
3 142 423 425
3 423 57 424
3 423 424 425
3 142 1 57
3 146 147 3
3 148 147 146
3 148 426 428
3 428 427 147
3 426 427 428
3 71 148 30
3 149 148 71
3 149 429 431
3 431 430 148
3 429 430 431
3 149 432 433
3 435 434 149
3 114 72 4
3 150 72 114
3 150 31 72
3 74 150 12
3 151 150 74
3 151 31 150
3 151 436 438
3 438 437 31
3 436 437 438
3 440 439 151
3 441 152 442
3 443 442 2
3 441 442 443
3 444 152 445
3 446 32 447
3 448 447 152
3 446 447 448
3 449 32 450
3 449 450 451
3 453 452 32
3 455 454 15
3 79 456 457
3 459 458 79
3 153 460 461
3 153 462 464
3 462 25 463
3 462 463 464
3 81 153 33
3 154 153 81
3 154 25 153
3 154 66 25
3 146 66 154
3 146 3 66
3 155 156 0
3 157 156 155
3 157 35 156
3 83 157 34
3 158 157 83
3 158 35 157
3 158 98 35
3 159 98 158
3 159 7 98
3 124 84 6
3 160 84 124
3 160 36 84
3 86 160 18
3 161 160 86
3 161 36 160
3 161 159 36
3 162 159 161
3 162 7 159
3 162 132 7
3 163 132 162
3 163 22 132
3 88 163 37
3 164 163 88
3 164 22 163
3 164 63 22
3 165 63 164
3 165 2 63
3 143 56 1
3 166 56 143
3 166 19 56
3 91 166 29
3 167 166 91
3 167 19 166
3 167 127 19
3 168 127 167
3 168 8 127
3 465 92 466
3 467 92 468
3 469 39 470
3 471 470 92
3 469 470 471
3 169 472 473
3 169 474 476
3 474 39 475
3 474 475 476
3 169 168 39
3 170 168 169
3 170 8 168
3 170 89 8
3 171 89 170
3 171 38 89
3 477 171 478
3 479 478 40
3 477 478 479
3 172 480 482
3 480 171 481
3 480 481 482
3 172 38 171
3 172 165 38
3 173 165 172
3 173 2 165
3 173 483 485
3 485 484 2
3 483 484 485
3 487 486 173
3 129 488 490
3 488 93 489
3 488 489 490
3 174 93 129
3 174 41 93
3 95 174 21
3 175 174 95
3 175 41 174
3 175 491 493
3 493 492 41
3 491 492 493
3 495 494 175
3 176 496 497
3 176 498 500
3 498 14 499
3 498 499 500
3 97 176 42
3 177 176 97
3 177 14 176
3 177 50 14
3 155 50 177
3 155 0 50
3 147 62 3
3 501 62 502
3 503 502 147
3 501 502 503
3 505 504 62
3 156 49 0
3 178 49 156
3 178 13 49
3 99 178 35
3 179 178 99
3 179 13 178
3 179 117 13
3 180 117 179
3 180 5 117
3 133 100 7
3 181 100 133
3 181 43 100
3 102 181 23
3 182 181 102
3 182 43 181
3 182 180 43
3 183 180 182
3 183 5 180
3 183 76 5
3 184 76 183
3 184 506 508
3 508 507 76
3 506 507 508
3 104 184 44
3 509 184 510
3 511 510 104
3 509 510 511
3 513 512 184
3 152 65 2
3 185 65 152
3 185 24 65
3 106 185 32
3 186 185 106
3 186 24 185
3 186 136 24
3 187 136 186
3 187 9 136
3 514 45 515
3 188 516 517
3 188 518 520
3 518 45 519
3 518 519 520
3 188 187 45
3 189 187 188
3 189 9 187
3 189 105 9
3 521 105 522
3 523 522 189
3 521 522 523
3 525 524 105
3 108 526 528
3 528 527 26
3 526 527 528
3 530 529 108
3 139 109 10
3 190 109 139
3 190 531 533
3 533 532 109
3 531 532 533
3 111 190 28
3 534 190 535
3 536 535 111
3 534 535 536
3 538 537 190
3 540 539 46
