ply
format ascii 1.0
element vertex 191
property float x
property float y
property float z
element face 157
property list uchar int vertex_index
end_header
53.809883 -70.530518 21.792034
60.539753 -58.92271 27.865288
65.62326 -53.37392 29.920244
56.016014 -64.614273 25.531586
54.739258 -66.6996 21.348103
54.747211 -68.446083 26.373795
62.997566 -56.770466 31.486479
58.254681 -62.512909 29.38158
63.343346 -55.432106 26.163612
56.232986 -65.444656 28.06024
55.334465 -66.524918 25.994328
57.057922 -63.569672 27.492411
54.2883 -68.626015 21.599566
67.3442 -51.16555 26.385822
61.849388 -57.894516 29.645191
63.190163 -56.163696 28.813499
61.886055 -57.164085 27.029018
66.018326 -52.789726 27.159889
55.876839 -63.726181 23.041771
55.225006 -65.658585 23.48447
54.680107 -67.588196 23.838589
54.179298 -69.511757 24.118641
54.197273 -70.378441 26.684336
63.931145 -55.523312 33.418182
61.774719 -58.504444 32.273666
60.612404 -59.646751 30.453098
59.488003 -61.41851 31.222923
59.327988 -60.705807 28.653856
58.02813 -61.718166 26.840061
56.837921 -62.717518 24.977966
64.295769 -55.057106 30.696362
64.601471 -54.459419 27.977226
55.878801 -66.393539 28.302119
56.35757 -65.825088 29.341047
56.35757 -65.825088 29.341047
56.772291 -64.894959 29.049834
53.972894 -70.078194 20.542191
54.212103 -69.125943 20.445957
54.049092 -69.578266 21.6958
67.535488 -50.807018 25.017049
66.851024 -51.615972 25.415886
66.261089 -52.553753 29.548962
66.005134 -52.765914 30.961289
65.820793 -53.081823 28.540067
66.458622 -52.261656 28.168784
66.261089 -52.553753 29.548962
53.910313 -71.353596 26.815033
54.240267 -70.795349 27.988612
53.926963 -70.906246 25.514581
53.910313 -71.353596 26.815033
61.208625 -59.378986 32.659465
61.701473 -58.745209 33.575515
60.627468 -59.95014 31.749181
61.193562 -59.075598 31.363382
61.208625 -59.378986 32.659465
58.871342 -61.96571 30.302252
58.979342 -62.314947 31.583349
58.36268 -62.862147 30.662678
54.845353 -66.239277 20.127251
54.986679 -65.72483 21.182966
64.10215 -54.58143 25.728467
64.731212 -54.095087 26.635274
63.972409 -54.945763 27.070419
65.394913 -53.597911 31.309819
66.005134 -52.765914 30.961289
55.429541 -66.93367 27.269163
55.783726 -65.984787 27.027284
55.878801 -66.393539 28.302119
55.135914 -67.894252 27.458897
55.040838 -67.485501 26.184061
55.429541 -66.93367 27.269163
57.783138 -63.429085 29.710504
58.36268 -62.862147 30.662678
57.184759 -63.957466 28.76592
57.656301 -63.041291 28.436996
57.783138 -63.429085 29.710504
56.645454 -64.507164 27.776325
57.184759 -63.957466 28.76592
56.772291 -64.894959 29.049834
54.426104 -68.174679 20.365481
54.651583 -67.211472 20.239749
54.513779 -67.662807 21.473834
54.426104 -68.174679 20.365481
54.212103 -69.125943 20.445957
67.902439 -50.38301 26.030317
67.678276 -50.65826 27.436087
68.093727 -50.024479 24.661544
67.902439 -50.38301 26.030317
67.535488 -50.807018 25.017049
53.706058 -71.013576 20.60207
53.526519 -71.478554 21.870382
67.121559 -51.449568 27.781751
67.678276 -50.65826 27.436087
66.681263 -51.977638 26.772855
67.121559 -51.449568 27.781751
66.458622 -52.261656 28.168784
66.188087 -52.428061 25.80292
66.851024 -51.615972 25.415886
66.681263 -51.977638 26.772855
60.498785 -58.507295 26.58535
59.850034 -59.407167 26.986576
55.55547 -64.238121 22.0298
55.859679 -63.255903 21.81821
55.229553 -65.204323 22.251149
55.55547 -64.238121 22.0298
55.550922 -64.692383 23.26312
54.982132 -66.179092 22.416286
54.986679 -65.72483 21.182966
55.229553 -65.204323 22.251149
54.819574 -68.854946 27.662086
55.135914 -67.894252 27.458897
54.544605 -69.821125 27.817356
54.240267 -70.795349 27.988612
54.472242 -69.412262 26.529066
54.819574 -68.854946 27.662086
54.544605 -69.821125 27.817356
53.917976 -70.472904 24.231734
54.188286 -69.945099 25.401488
53.926963 -70.906246 25.514581
53.733269 -70.982285 23.06843
53.994591 -70.021138 22.955337
53.917976 -70.472904 24.231734
53.526519 -71.478554 21.870382
53.733269 -70.982285 23.06843
63.707993 -55.690489 34.755282
64.282486 -54.830564 34.434742
63.337044 -56.385673 33.782532
63.707993 -55.690489 34.755282
62.870255 -57.009251 32.81668
63.464355 -56.146889 32.452331
63.337044 -56.385673 33.782532
62.258831 -57.876239 33.210273
61.701473 -58.745209 33.575515
62.386142 -57.637455 31.880072
62.870255 -57.009251 32.81668
62.258831 -57.876239 33.210273
59.542231 -61.717807 32.507269
58.979342 -62.314947 31.583349
60.065268 -60.836019 32.134094
59.542231 -61.717807 32.507269
60.050203 -60.53263 30.838011
60.627468 -59.95014 31.749181
60.065268 -60.836019 32.134094
59.244152 -60.298716 27.38086
59.850034 -59.407167 26.986576
59.93387 -59.814259 28.259572
58.594223 -60.804895 26.473962
59.244152 -60.298716 27.38086
58.678059 -61.211986 27.746958
57.930211 -61.279072 25.586086
58.594223 -60.804895 26.473962
57.335106 -61.778747 24.655038
57.930211 -61.279072 25.586086
57.433025 -62.217842 25.909014
56.762626 -62.258373 23.740236
57.335106 -61.778747 24.655038
56.282085 -62.762705 22.772139
56.762626 -62.258373 23.740236
56.35738 -63.221849 24.009868
55.859679 -63.255903 21.81821
56.282085 -62.762705 22.772139
54.845353 -66.239277 20.127251
54.651583 -67.211472 20.239749
53.86907 -70.561252 19.352227
53.972894 -70.078194 20.542191
53.706058 -71.013576 20.60207
64.548855 -54.672607 33.058788
64.282486 -54.830564 34.434742
64.731167 -54.439504 31.697878
64.548855 -54.672607 33.058788
64.113457 -55.290209 32.057272
64.959515 -54.215513 30.308303
65.394913 -53.597911 31.309819
64.731167 -54.439504 31.697878
65.43964 -53.260241 26.226605
65.309899 -53.624572 27.568558
64.731212 -54.095087 26.635274
66.188087 -52.428061 25.80292
65.43964 -53.260241 26.226605
61.171936 -57.627983 26.167215
61.212904 -58.043397 27.447153
60.498785 -58.507295 26.58535
61.896181 -56.742428 25.738525
61.171936 -57.627983 26.167215
62.624826 -55.876438 25.305822
62.6147 -56.298096 26.596315
61.896181 -56.742428 25.738525
63.40564 -55.006176 24.860618
62.624826 -55.876438 25.305822
64.10215 -54.58143 25.728467
63.40564 -55.006176 24.860618
3 33 32 9
3 34 9 35
3 0 36 38
3 38 37 12
3 36 37 38
3 40 39 13
3 1 16 14
3 2 41 42
3 2 43 45
3 43 17 44
3 43 44 45
3 3 19 18
3 5 20 10
3 5 21 20
3 46 22 47
3 49 48 22
3 50 24 51
3 52 25 53
3 54 53 24
3 52 53 54
3 7 55 57
3 55 26 56
3 55 56 57
3 7 27 26
3 7 28 27
3 3 29 11
3 3 18 29
3 4 58 59
3 6 30 23
3 8 31 15
3 8 60 62
3 62 61 31
3 60 61 62
3 63 2 64
3 9 10 3
3 65 10 66
3 67 66 9
3 65 66 67
3 68 5 69
3 70 69 10
3 68 69 70
3 71 7 72
3 73 11 74
3 75 74 7
3 73 74 75
3 9 76 78
3 76 11 77
3 76 77 78
3 9 3 11
3 12 79 81
3 81 80 4
3 79 80 81
3 83 82 12
3 13 84 85
3 88 87 13
3 86 87 88
3 14 15 6
3 16 15 14
3 16 8 15
3 90 89 0
3 91 13 92
3 17 93 95
3 93 13 94
3 93 94 95
3 17 96 98
3 98 97 13
3 96 97 98
3 100 99 1
3 18 101 102
3 19 103 105
3 105 104 18
3 103 104 105
3 19 106 108
3 106 4 107
3 106 107 108
3 10 19 3
3 20 19 10
3 20 4 19
3 20 12 4
3 21 12 20
3 21 0 12
3 109 5 110
3 22 111 112
3 22 113 115
3 113 5 114
3 113 114 115
3 22 21 5
3 116 21 117
3 118 117 22
3 116 117 118
3 119 0 120
3 121 120 21
3 119 120 121
3 123 122 0
3 124 23 125
3 126 23 127
3 128 6 129
3 130 129 23
3 128 129 130
3 24 131 132
3 24 133 135
3 133 6 134
3 133 134 135
3 24 14 6
3 25 14 24
3 25 1 14
3 26 136 137
3 26 138 139
3 26 140 142
3 140 25 141
3 140 141 142
3 27 25 26
3 27 1 25
3 27 143 145
3 145 144 1
3 143 144 145
3 28 146 148
3 148 147 27
3 146 147 148
3 28 149 150
3 11 28 7
3 29 28 11
3 29 151 153
3 153 152 28
3 151 152 153
3 29 154 155
3 18 156 158
3 158 157 29
3 156 157 158
3 18 159 160
3 162 161 4
3 165 164 0
3 163 164 165
3 23 166 167
3 30 168 170
3 170 169 23
3 168 169 170
3 30 171 173
3 171 2 172
3 171 172 173
3 15 30 6
3 31 30 15
3 31 2 30
3 31 17 2
3 174 17 175
3 176 175 31
3 174 175 176
3 178 177 17
3 179 16 180
3 181 180 1
3 179 180 181
3 182 16 183
3 184 8 185
3 186 185 16
3 184 185 186
3 187 8 188
3 190 189 8
