ply
format ascii 1.0
element vertex 227
property float x
property float y
property float z
element face 198
property list uchar int vertex_index
end_header
59.462536 8.458462 34.711159
55.114471 11.235775 35.914516
56.466133 8.276426 39.656025
59.102226 16.017471 11.120312
59.643238 14.261608 14.193982
60.37886 12.883457 17.87055
61.3325 11.685726 21.880909
62.236992 10.235237 25.926136
58.622139 11.110453 30.974552
54.414406 9.765585 40.286648
60.232849 13.376389 10.816487
59.665089 14.199757 9.562768
57.986755 16.572514 14.667928
58.046917 15.626274 16.40387
59.977913 13.530869 15.972904
58.218216 14.777145 18.273645
58.922745 13.282055 22.292553
59.417591 12.547087 24.368576
61.817131 11.023197 23.91824
59.948051 11.741779 26.435162
57.488129 9.883509 35.384319
56.827503 11.222994 33.462395
59.141457 9.87401 32.899769
60.83609 9.696993 30.38866
61.033249 8.387081 32.218483
53.518593 11.241228 38.344437
55.906624 9.817892 37.843136
57.935928 8.392038 37.190369
58.004154 17.614777 13.089809
59.362171 15.091103 12.566467
60.775543 12.648895 12.278263
61.322605 12.020235 13.913683
61.885544 11.477396 15.686755
62.457188 10.989893 17.562124
58.513084 14.007885 20.247999
60.838966 12.285326 19.852179
63.013237 10.510889 19.505102
63.515205 9.981684 21.4809
63.914543 9.339758 23.454758
64.157913 8.5291 25.394115
56.064392 12.423723 31.446346
58.001728 12.185295 28.95764
60.447151 10.807039 28.452972
62.527618 9.269588 27.870754
56.692463 6.609249 41.336273
60.389398 12.396711 10.190243
60.803082 12.076135 10.808651
57.068905 16.198652 17.586635
57.122492 16.736244 16.687202
57.154555 15.774088 18.521522
58.132566 15.201709 17.338757
57.068905 16.198652 17.586635
58.396206 12.841815 25.624737
58.119896 13.282008 24.575896
58.661436 12.439161 26.65803
59.682821 12.144433 25.401869
58.396206 12.841815 25.624737
52.789007 11.280116 39.556782
52.234593 12.009815 38.532722
51.505007 12.048703 39.745067
58.957826 16.521275 10.500483
58.573915 17.377351 11.404078
59.345061 13.627275 8.552473
59.346871 14.651594 9.054129
59.663279 13.175438 9.061112
57.224289 18.314763 14.200962
57.389853 18.937677 13.447228
57.45845 14.445994 21.47717
57.334503 14.898815 20.469127
54.661839 11.889173 34.903814
53.803413 11.934309 36.112691
62.575384 8.681623 28.798656
61.681854 9.483291 29.129707
61.72962 8.895326 30.057609
63.360382 8.389861 27.571506
62.575384 8.681623 28.798656
56.605513 5.715485 42.105137
56.017357 6.558633 42.567938
55.930407 5.664868 43.336802
53.715645 9.781152 41.505358
53.236914 10.542295 40.527887
54.735187 8.978172 41.199327
53.715645 9.781152 41.505358
55.761051 8.233592 40.884016
55.440269 9.021006 39.971336
54.735187 8.978172 41.199327
60.105519 12.808395 9.563384
59.948969 13.788073 10.189628
60.389398 12.396711 10.190243
59.663279 13.175438 9.061112
60.105519 12.808395 9.563384
57.092411 17.209364 15.81923
57.21559 17.793631 14.990022
58.016836 16.099394 15.535899
57.092411 17.209364 15.81923
57.122492 16.736244 16.687202
57.872473 13.649493 23.537884
57.66328 14.083078 22.499447
59.170168 12.914571 23.330565
57.872473 13.649493 23.537884
58.119896 13.282008 24.575896
61.828199 8.240369 30.97252
61.72962 8.895326 30.057609
60.934669 9.042037 31.303572
53.005474 11.937036 37.327652
52.234593 12.009815 38.532722
54.316532 11.238501 37.129476
53.803413 11.934309 36.112691
53.005474 11.937036 37.327652
53.966499 10.503407 39.315542
52.789007 11.280116 39.556782
53.236914 10.542295 40.527887
59.239258 15.612417 9.721711
58.957826 16.521275 10.500483
59.383657 15.108614 10.34154
59.239258 15.612417 9.721711
59.346871 14.651594 9.054129
58.024879 18.176004 12.388827
57.410578 19.498905 12.746245
57.389853 18.937677 13.447228
58.55319 16.816124 12.105061
58.573915 17.377351 11.404078
58.024879 18.176004 12.388827
57.995455 17.093646 13.878868
57.224289 18.314763 14.200962
57.21559 17.793631 14.990022
61.074428 11.712388 11.53954
60.803082 12.076135 10.808651
60.504196 13.012642 11.547375
61.471801 11.44048 12.256525
61.074428 11.712388 11.53954
61.745333 11.12615 13.074234
61.471801 11.44048 12.256525
61.049074 12.334565 13.095973
62.130907 10.897883 13.870997
61.745333 11.12615 13.074234
62.412377 10.626464 14.757533
62.130907 10.897883 13.870997
61.604075 11.748815 14.800219
62.781887 10.428793 15.616314
63.308719 9.577861 14.687092
62.412377 10.626464 14.757533
63.067709 10.185042 16.553998
62.781887 10.428793 15.616314
62.171366 11.233645 16.62444
63.408751 9.997207 17.458697
63.067709 10.185042 16.553998
57.187069 15.283445 19.481949
57.154555 15.774088 18.521522
58.36565 14.392515 19.260822
57.187069 15.283445 19.481949
57.334503 14.898815 20.469127
58.717914 13.64497 21.270276
57.45845 14.445994 21.47717
57.66328 14.083078 22.499447
63.686775 9.757704 18.430186
63.408751 9.997207 17.458697
62.735213 10.750391 18.533613
63.980553 9.552917 19.365739
63.686775 9.757704 18.430186
64.231537 9.288315 20.353638
63.980553 9.552917 19.365739
63.264221 10.246287 20.493001
64.455417 9.036835 21.305218
64.231537 9.288315 20.353638
64.655086 8.715872 22.292147
64.455417 9.036835 21.305218
63.714874 9.660721 22.467829
64.78561 8.389415 23.245162
64.655086 8.715872 22.292147
64.907295 7.984086 24.214841
64.78561 8.389415 23.245162
64.036228 8.934429 24.424436
64.923545 7.560722 25.156128
64.907295 7.984086 24.214841
55.518355 11.882782 33.677754
54.661839 11.889173 34.903814
55.970987 11.229385 34.688456
55.136799 12.483147 32.669729
55.518355 11.882782 33.677754
56.445948 11.823359 32.45437
54.688699 13.093464 31.627215
55.136799 12.483147 32.669729
55.686454 12.969918 30.406341
54.688699 13.093464 31.627215
56.655123 12.850704 29.161988
55.686454 12.969918 30.406341
57.03306 12.304509 30.201993
57.688274 12.660919 27.919269
56.655123 12.850704 29.161988
58.97489 11.963537 27.696401
58.661436 12.439161 26.65803
57.688274 12.660919 27.919269
64.175529 8.019617 26.333187
63.342765 8.899344 26.632435
63.360382 8.389861 27.571506
64.923545 7.560722 25.156128
64.175529 8.019617 26.333187
55.874216 7.400004 41.72414
56.017357 6.558633 42.567938
56.579298 7.442838 40.496149
55.761051 8.233592 40.884016
55.874216 7.400004 41.72414
57.267109 5.791045 40.87278
56.605513 5.715485 42.105137
57.384056 6.680027 40.101699
57.267109 5.791045 40.87278
57.270891 7.513616 39.261575
56.579298 7.442838 40.496149
57.384056 6.680027 40.101699
58.005788 7.571421 38.028747
57.201031 8.334232 38.423197
57.270891 7.513616 39.261575
58.717888 7.629342 36.79377
58.005788 7.571421 38.028747
59.481192 7.662554 35.554165
58.699232 8.42525 35.950764
58.717888 7.629342 36.79377
60.214367 7.667637 34.320875
59.481192 7.662554 35.554165
60.999724 7.631946 33.074537
60.247892 8.422771 33.464821
60.214367 7.667637 34.320875
61.749624 7.54376 31.849016
60.999724 7.631946 33.074537
61.828199 8.240369 30.97252
61.749624 7.54376 31.849016
3 46 45 10
3 47 13 48
3 49 15 50
3 51 50 13
3 49 50 51
3 52 17 53
3 54 19 55
3 56 55 17
3 54 55 56
3 0 22 20
3 0 24 22
3 57 25 58
3 57 58 59
3 2 26 9
3 2 27 26
3 3 60 61
3 64 63 11
3 62 63 64
3 65 28 66
3 4 29 12
3 4 30 29
3 4 31 30
3 5 32 14
3 5 33 32
3 67 34 68
3 6 35 16
3 6 36 35
3 6 37 36
3 7 38 18
3 7 39 38
3 1 69 70
3 8 40 21
3 8 41 40
3 8 42 41
3 71 43 72
3 73 72 23
3 71 72 73
3 75 74 43
3 76 44 77
3 76 77 78
3 79 9 80
3 81 9 82
3 83 2 84
3 85 84 9
3 83 84 85
3 10 11 3
3 86 11 87
3 88 87 10
3 86 87 88
3 90 89 11
3 91 12 92
3 13 93 95
3 93 12 94
3 93 94 95
3 13 4 12
3 13 14 4
3 15 14 13
3 15 5 14
3 96 16 97
3 17 98 100
3 98 16 99
3 98 99 100
3 17 6 16
3 17 18 6
3 19 18 17
3 19 7 18
3 20 21 1
3 22 21 20
3 22 8 21
3 22 23 8
3 24 23 22
3 24 101 103
3 103 102 23
3 101 102 103
3 25 104 105
3 25 106 108
3 106 1 107
3 106 107 108
3 9 109 111
3 109 25 110
3 109 110 111
3 26 25 9
3 26 1 25
3 26 20 1
3 27 20 26
3 27 0 20
3 11 112 114
3 114 113 3
3 112 113 114
3 116 115 11
3 28 117 119
3 117 118 119
3 28 120 122
3 120 3 121
3 120 121 122
3 12 123 125
3 123 28 124
3 123 124 125
3 29 28 12
3 29 3 28
3 29 10 3
3 30 10 29
3 30 126 128
3 128 127 10
3 126 127 128
3 30 129 130
3 31 131 133
3 133 132 30
3 131 132 133
3 31 134 135
3 14 31 4
3 32 31 14
3 32 136 138
3 138 137 31
3 136 137 138
3 32 139 141
3 139 140 141
3 33 142 144
3 144 143 32
3 142 143 144
3 33 145 146
3 147 15 148
3 34 149 151
3 149 15 150
3 149 150 151
3 34 5 15
3 16 152 154
3 152 34 153
3 152 153 154
3 35 34 16
3 35 5 34
3 35 33 5
3 36 33 35
3 36 155 157
3 157 156 33
3 155 156 157
3 36 158 159
3 37 160 162
3 162 161 36
3 160 161 162
3 37 163 164
3 18 37 6
3 38 37 18
3 38 165 167
3 167 166 37
3 165 166 167
3 38 168 169
3 39 170 172
3 172 171 38
3 170 171 172
3 39 173 174
3 21 175 177
3 177 176 1
3 175 176 177
3 40 178 180
3 180 179 21
3 178 179 180
3 40 181 182
3 40 183 184
3 41 185 187
3 187 186 40
3 185 186 187
3 41 188 189
3 41 190 192
3 190 19 191
3 190 191 192
3 42 19 41
3 42 7 19
3 23 42 8
3 43 42 23
3 43 7 42
3 43 39 7
3 193 39 194
3 195 194 43
3 193 194 195
3 197 196 39
3 44 198 199
3 44 200 202
3 200 2 201
3 200 201 202
3 203 44 204
3 205 44 206
3 207 2 208
3 209 208 44
3 207 208 209
3 210 27 211
3 212 211 2
3 210 211 212
3 213 27 214
3 215 0 216
3 217 216 27
3 215 216 217
3 218 0 219
3 220 24 221
3 222 221 0
3 220 221 222
3 223 24 224
3 226 225 24
