ply
format ascii 1.0
element vertex 195
property float x
property float y
property float z
element face 181
property list uchar int vertex_index
end_header
-11.259075 15.798031 77.578339
-16.339737 23.700584 68.508224
-9.753672 32.125088 71.574371
-8.053917 18.938194 78.716736
-10.700993 23.948143 74.913849
-18.313547 33.818649 60.953278
-8.594629 10.898981 81.176552
-5.469549 13.315411 81.313812
-15.874088 31.387791 65.689285
-13.801874 20.117889 73.150116
-13.327515 28.149254 70.435669
-12.397173 36.132339 67.072052
-7.623854 23.018639 77.194977
-7.043369 12.198225 81.437607
-17.450085 28.94339 64.883789
-16.173943 27.550526 67.192566
-12.660854 14.014408 76.526474
-13.90015 16.11256 74.258522
-12.539967 18.040829 75.428406
-10.273539 28.042198 73.323662
-12.020723 26.163353 72.729568
-11.607494 30.224201 71.132721
-12.922161 32.150352 68.830841
-11.089653 34.267361 69.382034
-10.472343 38.282745 67.487244
-9.149731 36.181381 69.676315
-9.714399 17.450382 78.318909
-11.030367 19.86026 76.334366
-9.375845 21.53046 76.931786
-8.93956 25.630093 75.362572
-8.418335 29.728127 73.621964
-16.606293 36.416103 61.551064
-9.945345 13.411674 79.519417
-8.382582 14.890739 80.042938
-6.746677 16.194401 80.198616
-18.727467 30.182343 62.641491
-17.105663 32.676941 63.303822
-15.428228 35.217247 64.011841
-15.135817 18.058704 71.933708
-15.062918 22.008125 70.8209
-12.329811 22.097076 74.163445
-13.616894 24.135193 71.876984
-14.896956 25.954521 69.536682
-14.614008 29.889355 68.077042
-14.199728 33.810005 66.448448
-13.651785 37.716816 64.664703
-11.758228 40.09074 65.171082
-9.767183 42.261703 65.456726
-16.991641 24.452331 67.386585
-17.02421 22.575737 67.972705
-16.25684 25.625555 67.850395
-16.908744 26.377302 66.728756
-16.991641 24.452331 67.386585
-8.025631 26.369196 75.4235
-8.281707 24.324366 76.278774
-7.367778 25.063469 76.339702
-7.765019 28.418213 74.553196
-8.678947 27.67911 74.492268
-8.025631 26.369196 75.4235
-7.477726 30.455675 73.609025
-7.765019 28.418213 74.553196
-18.029637 35.648367 60.029393
-18.912011 34.357695 59.813757
-17.45992 35.117376 61.252171
-17.176011 36.947094 60.328285
-18.029637 35.648367 60.029393
-9.329981 10.167927 80.85915
-8.639444 8.941606 81.656273
-9.269987 12.155327 80.347984
-10.005339 11.424274 80.030583
-9.329981 10.167927 80.85915
-5.291974 15.310001 80.646149
-5.930538 16.749496 80.08855
-6.108113 14.754906 80.756214
-4.711095 13.777924 81.059475
-5.291974 15.310001 80.646149
-18.853241 28.368109 63.384627
-19.536522 28.997172 62.379832
-9.120148 41.229652 66.547196
-10.119763 40.272224 66.471985
-9.472729 39.240173 67.562455
-8.753078 43.211992 65.459809
-9.120148 41.229652 66.547196
-6.983622 21.62736 77.975468
-7.838885 20.978417 77.955856
-7.198654 19.587137 78.736347
-6.740759 23.65827 77.151001
-6.983622 21.62736 77.975468
-7.367778 25.063469 76.339702
-6.740759 23.65827 77.151001
-19.161769 32.580413 60.722597
-18.912011 34.357695 59.813757
-7.905076 9.584438 81.832416
-8.639444 8.941606 81.656273
-7.129446 10.234061 81.962944
-7.818999 11.548603 81.30708
-7.905076 9.584438 81.832416
-6.378571 10.790576 81.943188
-7.129446 10.234061 81.962944
-5.59166 11.349169 81.881291
-6.256459 12.756818 81.375709
-6.378571 10.790576 81.943188
-4.855508 11.81381 81.664989
-5.59166 11.349169 81.881291
-17.546815 27.073735 65.574367
-18.21455 27.748632 64.505775
-16.812014 28.246958 66.038177
-17.546815 27.073735 65.574367
-16.908744 26.377302 66.728756
-13.280502 15.063484 75.392498
-13.917151 14.127077 74.738514
-13.297504 13.078001 75.87249
-8.811422 38.189491 68.65699
-9.472729 39.240173 67.562455
-9.811037 37.232063 68.58178
-16.368645 21.769451 69.07233
-17.02421 22.575737 67.972705
-8.122116 31.7663 72.671795
-8.789784 32.964781 71.647998
-9.086004 30.926607 72.598168
-8.122116 31.7663 72.671795
-7.477726 30.455675 73.609025
-16.286631 38.293243 60.605621
-17.176011 36.947094 60.328285
-15.723399 37.730526 61.866936
-16.286631 38.293243 60.605621
-12.684084 12.028602 77.000068
-13.297504 13.078001 75.87249
-12.025024 12.899 77.58759
-12.684084 12.028602 77.000068
-11.324134 13.790812 78.113522
-11.959964 14.906219 77.052406
-12.025024 12.899 77.58759
-10.667269 12.597633 79.084061
-10.005339 11.424274 80.030583
-10.60221 14.604852 78.548878
-11.324134 13.790812 78.113522
-10.667269 12.597633 79.084061
-6.545034 18.215241 79.477288
-7.198654 19.587137 78.736347
-7.400297 17.566297 79.457676
-6.545034 18.215241 79.477288
-5.930538 16.749496 80.08855
-4.711095 13.777924 81.059475
-4.855508 11.81381 81.664989
-19.368729 30.762261 61.566704
-19.536522 28.997172 62.379832
-18.520507 32.000496 61.797384
-19.161769 32.580413 60.722597
-19.368729 30.762261 61.566704
-18.088776 29.562866 63.76264
-18.853241 28.368109 63.384627
-18.21455 27.748632 64.505775
-15.134366 37.131098 63.097324
-15.723399 37.730526 61.866936
-16.01726 35.816675 62.781453
-14.523125 15.117956 73.575798
-13.917151 14.127077 74.738514
-15.140958 16.091028 72.413391
-14.523125 15.117956 73.575798
-14.517983 17.085632 73.096115
-15.759821 17.015898 71.264202
-15.140958 16.091028 72.413391
-15.766685 18.948511 70.785072
-15.759821 17.015898 71.264202
-15.730235 20.923222 70.228668
-15.766685 18.948511 70.785072
-15.099367 20.033414 71.377304
-15.701327 22.854354 69.664562
-16.368645 21.769451 69.07233
-15.730235 20.923222 70.228668
-14.246144 38.380882 63.423755
-15.134366 37.131098 63.097324
-14.540007 36.467032 64.338272
-13.316358 39.663517 63.703958
-14.246144 38.380882 63.423755
-12.36958 40.850479 63.957148
-13.316358 39.663517 63.703958
-12.705006 38.903778 64.917892
-11.389605 42.055904 64.155159
-12.36958 40.850479 63.957148
-10.394082 43.141386 64.297981
-11.389605 42.055904 64.155159
-10.762705 41.176221 65.313904
-9.380007 44.228921 64.376013
-10.394082 43.141386 64.297981
-9.380007 44.228921 64.376013
-8.753078 43.211992 65.459809
-8.487814 34.992928 70.698971
-9.451701 34.153234 70.625343
-8.789784 32.964781 71.647998
-8.163021 37.011145 69.673805
-8.487814 34.992928 70.698971
-8.811422 38.189491 68.65699
-8.163021 37.011145 69.673805
3 1 48 49
3 1 50 52
3 50 15 51
3 50 51 52
3 0 18 16
3 2 21 19
3 2 23 21
3 2 25 23
3 3 28 26
3 53 29 54
3 55 54 12
3 53 54 55
3 56 30 57
3 58 57 29
3 56 57 58
3 60 59 30
3 5 61 62
3 5 63 65
3 63 31 64
3 63 64 65
3 6 66 67
3 6 68 70
3 68 32 69
3 68 69 70
3 6 33 32
3 7 34 13
3 7 71 73
3 73 72 34
3 71 72 73
3 7 74 75
3 76 35 77
3 8 36 14
3 8 37 36
3 9 38 17
3 9 39 38
3 4 40 27
3 10 41 20
3 10 42 41
3 10 43 42
3 11 44 22
3 11 45 44
3 11 46 45
3 78 47 79
3 80 79 24
3 78 79 80
3 82 81 47
3 83 12 84
3 85 84 3
3 83 84 85
3 86 12 87
3 89 88 12
3 90 5 91
3 92 6 93
3 94 13 95
3 96 95 6
3 94 95 96
3 97 13 98
3 99 7 100
3 101 100 13
3 99 100 101
3 103 102 7
3 104 14 105
3 15 106 108
3 106 14 107
3 106 107 108
3 15 8 14
3 16 109 111
3 109 17 110
3 109 110 111
3 18 17 16
3 18 9 17
3 19 20 4
3 21 20 19
3 21 10 20
3 21 22 10
3 23 22 21
3 23 11 22
3 23 24 11
3 25 24 23
3 25 112 114
3 114 113 24
3 112 113 114
3 115 1 116
3 26 27 0
3 28 27 26
3 28 4 27
3 12 28 3
3 29 28 12
3 29 4 28
3 29 19 4
3 30 19 29
3 30 2 19
3 30 117 119
3 119 118 2
3 117 118 119
3 121 120 30
3 31 122 123
3 31 124 125
3 126 16 127
3 128 16 129
3 130 0 131
3 132 131 16
3 130 131 132
3 32 133 134
3 32 135 137
3 135 0 136
3 135 136 137
3 32 26 0
3 33 26 32
3 33 3 26
3 13 33 6
3 34 33 13
3 34 3 33
3 34 138 140
3 140 139 3
3 138 139 140
3 142 141 34
3 144 143 7
3 35 145 146
3 35 147 149
3 147 5 148
3 147 148 149
3 14 150 152
3 150 35 151
3 150 151 152
3 36 35 14
3 36 5 35
3 36 31 5
3 37 31 36
3 37 153 155
3 155 154 31
3 153 154 155
3 17 156 157
3 38 158 160
3 160 159 17
3 158 159 160
3 38 161 162
3 38 163 164
3 39 165 167
3 167 166 38
3 165 166 167
3 39 168 170
3 168 1 169
3 168 169 170
3 27 18 0
3 40 18 27
3 40 9 18
3 20 40 4
3 41 40 20
3 41 9 40
3 41 39 9
3 42 39 41
3 42 1 39
3 42 15 1
3 43 15 42
3 43 8 15
3 22 43 10
3 44 43 22
3 44 8 43
3 44 37 8
3 45 37 44
3 45 171 173
3 173 172 37
3 171 172 173
3 45 174 175
3 46 176 178
3 178 177 45
3 176 177 178
3 46 179 180
3 24 46 11
3 47 46 24
3 47 181 183
3 183 182 46
3 181 182 183
3 47 184 185
3 187 186 47
3 188 25 189
3 190 189 2
3 188 189 190
3 191 25 192
3 194 193 25
