ply
format ascii 1.0
element vertex 1094
property float x
property float y
property float z
element face 1053
property list uchar int vertex_index
end_header
-29.321566 22.250866 61.233482
-38.54821 71.942123 -11.548656
-43.842224 58.408619 10.793076
-52.671986 18.7906 19.331789
-37.317734 17.287151 61.040794
-35.969055 30.431618 56.545963
-42.32148 63.32159 -17.993347
-34.201569 59.648289 -22.735653
-42.081482 66.680679 -0.805864
-48.354313 55.360508 1.322517
-46.535316 61.398525 -9.498486
-33.563477 75.587555 -2.007519
-43.675068 48.884548 30.237331
-45.284904 48.864391 20.920286
-42.705303 26.018341 43.736404
-43.106026 38.031288 37.622181
-49.409645 47.099209 11.920856
-33.360901 19.755928 61.645329
-36.744835 23.881615 59.571518
-32.860847 26.33979 59.376591
-28.711063 28.771687 58.154007
-25.398594 25.21637 60.467705
-40.797188 68.115814 -15.321835
-37.350784 67.937393 -18.795151
-35.311974 72.851852 -15.909534
-40.72319 69.78949 -6.426493
-44.53743 64.397614 -5.60647
-43.122337 66.837387 -10.842707
-44.874058 63.018421 -14.22234
-43.366798 20.822346 35.900383
-42.60865 32.113388 40.830444
-42.265541 37.358135 42.732079
-42.395859 42.874851 38.968651
-55.267059 19.087677 14.437245
-44.717354 53.704258 16.180542
-46.963615 48.112423 16.336512
-46.557487 52.717724 11.311935
-37.757141 39.69265 48.43119
-34.891243 36.659576 52.40229
-25.991259 41.688114 49.360577
-21.684612 45.413319 48.316948
-42.693184 58.167004 -19.444038
-39.131241 56.232433 -21.791656
-38.710472 62.148563 -20.700077
-32.874382 66.21431 -21.405327
-48.776989 22.648693 22.346451
-52.091297 23.047775 17.849596
-42.99609 62.817432 5.027771
-45.976616 57.108318 5.771371
-45.373203 61.07983 0.033335
-47.604897 58.761654 -4.198996
-36.021164 74.418793 -6.996656
-30.323353 78.181503 -7.552744
-44.296768 43.948593 29.401875
-45.105293 43.849968 24.90641
-44.424103 49.165791 25.56423
-43.726788 54.20525 21.102509
-42.50499 59.135349 15.97814
-39.863743 68.061081 4.446878
-38.267921 71.621796 -1.413443
-49.909851 18.123791 24.063698
-45.876781 22.049164 26.679264
-43.828434 20.087105 46.356758
-43.487549 20.452229 41.017708
-42.456795 26.347042 38.4487
-43.630066 43.60321 34.104023
-46.769764 43.33984 20.593939
-49.362938 42.577019 16.402872
-48.967476 51.404285 6.790529
-51.607143 45.887249 7.933305
-31.33914 20.975025 61.538815
-33.162079 23.053028 60.72876
-31.135815 24.256042 60.398788
-30.799919 27.519089 58.840645
-29.092922 25.518604 59.883163
-27.064882 26.916313 59.309376
-27.333807 23.644558 60.835228
-39.734207 70.182816 -13.555666
-38.211216 70.55574 -15.637451
-37.070419 72.572708 -13.835468
-39.757004 71.001083 -9.06834
-41.962147 68.444626 -8.736225
-40.976273 69.465378 -11.244835
-42.09148 67.642181 -13.198317
-44.569653 18.420578 34.637428
-44.403778 18.129902 37.11277
-42.209023 34.449898 44.496407
-41.585991 36.826221 45.313145
-41.534687 39.643547 43.403191
-40.551506 38.946415 45.890015
-26.765606 46.361721 45.610672
-54.791878 17.120392 17.725037
-55.931351 17.249828 15.226385
-54.042759 18.999424 16.891369
-44.288399 56.079258 13.553459
-45.523376 53.259029 13.724196
-45.175259 55.568981 11.037495
-38.846142 19.199337 59.906338
-36.394814 27.182709 58.238445
-38.154091 25.791367 57.998787
-37.773003 29.060085 56.503418
-36.8634 35.342144 52.683201
-35.463631 33.597157 54.570705
-42.673378 60.751553 -18.868195
-40.985607 60.125309 -20.20549
-40.646946 62.917507 -19.466927
-34.316795 70.1465 -19.09388
-35.220409 67.261765 -20.179741
-32.0028 69.347244 -20.530083
-48.858284 25.095448 21.554733
-42.568233 64.831818 2.101405
-44.14299 62.031765 2.46485
-43.769424 63.927128 -0.432486
-45.649216 62.968334 -7.696527
-46.166763 61.576664 -4.991886
-47.12574 60.189526 -6.896166
-43.725697 63.350964 -16.244505
-45.299747 60.923901 -15.404842
-44.107491 61.018787 -17.27243
-34.768089 75.149292 -4.53927
-33.289139 76.389587 -7.273792
-32.043655 76.96907 -4.826382
-44.140717 46.492428 29.871544
-44.46521 46.58913 27.553211
-44.091034 49.098606 27.897488
-43.377388 54.209415 23.526958
-42.765476 56.732998 21.107021
-43.151634 56.68697 18.618406
-37.13203 72.119888 1.199094
-36.040054 73.722137 -1.70706
-37.245827 73.121902 -4.254301
-51.137257 16.133621 25.049072
-48.693436 17.706017 26.373852
-47.72422 19.947319 25.409561
-46.541939 19.557091 27.647196
-43.122982 23.009895 45.081306
-43.667656 20.294842 43.674423
-42.966537 23.197048 42.388062
-42.796932 23.343662 39.74498
-42.586319 26.199898 41.058758
-42.817841 35.110741 39.264626
-42.640793 32.308594 38.239441
-42.945824 35.316662 36.731476
-43.705513 41.083115 33.48296
-43.399887 40.861446 35.902725
-35.80233 41.145813 48.253143
-36.912483 57.909519 -22.32906
-34.612331 56.404118 -23.277287
-45.303925 46.388462 23.006201
-45.804459 43.637611 22.731026
-46.008068 46.113033 20.77494
-48.134834 47.630627 14.096
-48.151932 45.329601 16.395622
-49.47261 44.862797 14.260845
-50.766968 42.137928 14.351104
-50.778351 44.355816 12.18976
-47.203468 56.283733 3.446522
-47.483055 54.237087 6.248605
-48.672924 53.438511 4.079845
-35.361168 18.540398 61.485733
-37.040768 20.568508 60.502598
-35.139828 21.841431 60.778637
-34.854805 25.14994 59.64447
-34.474846 28.429298 58.102753
-33.988728 31.650486 56.221523
-32.434544 29.591599 57.636509
-30.31991 30.753471 56.935623
-28.176508 32.012226 56.133369
-26.631508 30.18541 57.458237
-25.079533 28.519463 58.812557
-23.532209 27.013699 60.244957
-41.67878 65.803131 -16.809044
-40.044003 65.645996 -18.46484
-39.217503 68.221634 -17.187225
-36.400024 70.54985 -17.478226
-33.281708 72.746246 -17.772385
-41.483261 68.340652 -3.660088
-43.31414 65.644989 -3.289547
-42.727375 67.160019 -6.070473
-43.924171 65.742966 -8.296576
-44.981026 64.125046 -10.278494
-45.797718 62.354534 -11.957859
-44.121693 65.009979 -12.688688
-43.031921 65.582214 -14.878357
-30.85643 77.28392 -2.297367
-45.615448 19.156197 29.915371
-44.961792 18.768959 32.240192
-42.549988 29.068642 42.320366
-42.485737 31.845783 43.482742
-42.588127 34.835632 41.861771
-42.767029 37.744431 40.157635
-42.961201 40.560135 38.376575
-42.343304 40.165226 40.885994
-31.751593 58.003315 -23.711224
-56.236404 19.016609 12.046827
-45.071522 51.298946 18.642851
-46.001198 48.531445 18.616665
-45.819725 50.910992 16.260502
-46.807297 50.434177 13.90764
-47.982002 49.888538 11.613685
-49.260635 54.355213 -0.538904
-49.664848 52.563602 2.140283
-38.502579 22.48896 59.138565
-39.424923 38.020638 48.299404
-38.187569 36.824196 50.580021
-36.343853 38.307854 50.510246
-34.276031 39.609505 50.12421
-32.752411 37.85001 51.822315
-32.063313 40.812542 49.485558
-27.485455 43.34074 47.866856
-25.232464 44.873943 47.126823
-23.795561 43.391975 48.716702
-41.024807 57.348637 -20.702858
-39.054424 59.164715 -21.333714
-36.544205 61.04472 -21.76067
-38.131653 65.104141 -19.863037
-35.970768 64.193253 -21.056404
-33.613468 62.947124 -22.124115
-50.637775 20.617325 20.891125
-52.190765 20.860348 18.554768
-50.442024 22.88271 20.130978
-43.411339 60.665577 7.937777
-44.822136 57.821033 8.238251
-44.482124 59.986118 5.367416
-45.684635 59.161755 2.907829
-46.907845 58.207714 0.615873
-45.00547 62.833981 -2.816698
-46.573528 59.980846 -2.208452
-48.005085 57.143452 -1.447851
-48.818954 55.994152 -3.221558
-46.279663 60.485126 -13.285465
-35.563797 15.286449 61.809612
-33.500587 16.480373 62.139717
-31.446449 17.695625 62.24369
-29.423723 18.97411 62.161777
-37.29435 73.356567 -9.346811
-29.109858 78.655212 -5.094921
-44.630844 43.956905 27.128368
-44.81728 46.552967 25.265099
-44.785912 49.083706 23.237831
-43.832207 51.66605 25.787817
-44.168556 51.699535 23.417686
-44.545696 51.570858 21.03335
-44.139118 54.028973 18.648224
-43.628643 56.460552 16.091957
-43.077435 58.854069 13.387161
-42.530552 61.185421 10.566566
-42.003021 63.422787 7.668139
-41.478409 65.533157 4.730352
-40.916641 67.488083 1.789378
-39.125095 69.931793 1.497
-40.266155 69.265823 -1.121225
-39.474831 70.84935 -3.969131
-38.496658 72.220978 -6.721823
-53.557083 16.875591 20.209593
-52.314064 16.540558 22.651073
-51.262207 18.491333 21.723028
-49.115013 20.306595 23.168797
-47.222061 22.365585 24.516792
-44.686279 17.528641 44.919975
-44.528351 17.714497 42.273582
-44.411263 17.900677 39.662632
-43.362015 20.616367 38.419674
-42.692841 23.49844 37.178299
-42.400375 26.497818 35.927216
-42.496456 29.254459 39.679001
-42.431122 29.407047 37.115845
-43.997681 43.827271 31.728033
-43.736717 46.270679 32.219566
-43.111984 43.286037 36.522301
-43.167004 45.93771 34.593643
-25.55426 21.910995 61.784245
-53.654755 21.010342 16.16464
-54.904404 21.033447 13.765247
-55.822624 20.888298 11.446453
-47.605972 40.567741 20.353998
-46.966095 45.751842 18.570513
-47.983536 42.980125 18.486105
-49.047726 40.234367 18.322632
-50.55574 39.865948 16.300865
-46.269348 54.950336 8.586231
-47.749825 52.096714 8.984447
-49.224644 49.284016 9.417517
-50.036903 50.644154 4.786724
-50.367386 48.621967 7.368483
-50.628868 46.520084 9.849302
-51.886627 43.801987 10.222967
-45.106579 16.886063 37.728561
-45.183411 17.050247 36.47609
-41.160939 36.45915 46.585093
-41.622509 35.361591 46.22183
-40.643696 37.519247 46.873527
-41.068748 37.886318 45.60158
-41.160939 36.45915 46.585093
-26.440251 47.830349 44.505314
-25.64986 47.183018 45.282723
-38.081938 18.243244 60.473566
-39.031121 17.58303 60.120896
-38.266917 16.626938 60.688124
-36.656185 31.342714 55.626322
-37.558159 30.656948 55.605049
-36.871029 29.745852 56.524691
-35.716343 32.014387 55.558334
-36.403473 32.925484 54.638692
-36.656185 31.342714 55.626322
-31.507666 70.792678 -19.9906
-33.159797 69.746872 -19.811982
-32.664663 71.192307 -19.272499
-30.281636 70.33812 -20.762917
-31.507666 70.792678 -19.9906
-47.145664 60.055946 -8.984378
-47.440876 59.451447 -7.683218
-46.830528 60.794026 -8.197326
-46.810448 60.56697 -10.227565
-47.145664 60.055946 -8.984378
-42.186838 57.922783 21.06517
-42.560396 56.657189 22.324461
-42.407899 57.980606 19.819329
-42.186838 57.922783 21.06517
-34.801766 74.654846 -1.857289
-35.46935 73.88739 -0.410135
-34.231062 74.820099 -0.560365
-48.181469 17.481485 27.528033
-49.389296 16.688686 26.897056
-47.105721 18.407023 28.164704
-47.617688 18.631554 27.010524
-48.181469 17.481485 27.528033
-42.914142 24.514118 44.408855
-42.932917 24.377085 45.765296
-42.724077 25.881307 45.092845
-43.217422 38.138933 36.385143
-43.137321 36.78162 35.939791
-43.025925 36.673975 37.176828
-43.252956 39.446367 36.762453
-43.364353 39.554012 35.525415
-43.217422 38.138933 36.385143
-35.529857 42.503021 47.104602
-34.724443 41.795406 48.02646
-45.634045 17.565614 32.819101
-45.916294 17.784435 31.628351
-43.470163 20.951926 34.685208
-44.07159 19.751041 34.05373
-43.968226 19.621462 35.268906
-43.052038 22.254748 35.302143
-43.470163 20.951926 34.685208
-42.353869 31.649044 44.823652
-42.502644 30.324024 44.248303
-41.503339 40.997347 42.41152
-40.948648 40.66078 43.622862
-56.074298 18.158544 13.608529
-56.406444 17.23962 14.0031
-55.599205 18.168753 14.831815
-55.751732 19.052143 13.242036
-56.558971 18.12301 12.413321
-56.074298 18.158544 13.608529
-49.773658 52.989609 -0.023479
-49.512522 53.821762 -1.308188
-38.941189 25.006573 57.695366
-38.757038 26.640062 57.038681
-38.39345 35.323778 51.596175
-38.960812 35.96331 50.444962
-33.697329 33.222368 55.158414
-32.936494 32.221536 55.909424
-31.634362 38.430965 51.430071
-31.992432 36.892156 52.593462
-31.289813 39.912232 50.261692
-32.407862 39.331276 50.653937
-31.634362 38.430965 51.430071
-30.921166 41.416204 49.089323
-31.289813 39.912232 50.261692
-26.738357 42.514427 48.613716
-27.865296 41.798334 49.019911
-27.118198 40.972021 49.766772
-41.858996 57.75782 -20.073448
-41.690148 56.488308 -20.223896
-42.524336 56.897492 -19.594486
-31.627538 65.522476 -21.979357
-31.997082 63.888883 -22.338751
-33.243925 64.580717 -21.764721
-49.737545 25.165171 20.47493
-49.063755 26.341124 21.145164
-45.825602 59.745644 -14.816992
-45.31806 59.85395 -15.810731
-43.223709 57.235352 -18.879641
-43.409883 58.409306 -18.700738
-42.524336 56.897492 -19.594486
-43.223709 57.235352 -18.879641
-34.600178 14.274217 62.052341
-35.679701 13.701844 61.834167
-34.716082 12.689612 62.076897
-33.568573 14.87118 62.217394
-34.532192 15.883411 61.974665
-34.600178 14.274217 62.052341
-30.448287 16.699907 62.465704
-31.479944 16.070612 62.404449
-29.436924 17.339149 62.424747
-30.435086 18.334868 62.202734
-30.448287 16.699907 62.465704
-28.458391 16.38957 62.702028
-28.445189 18.02453 62.439058
-29.436924 17.339149 62.424747
-35.293873 74.953804 -8.305426
-35.930466 74.422691 -9.480503
-36.657757 73.88768 -8.171734
-30.955223 77.79876 -8.722416
-32.438116 76.902802 -8.58294
-31.806246 77.285545 -7.413268
-29.36053 78.685288 -8.864688
-30.955223 77.79876 -8.722416
-28.540816 78.77903 -3.816871
-29.983144 77.969566 -3.696144
-29.414102 78.093383 -2.418093
-44.463806 43.952749 28.265121
-44.443291 42.61495 27.987243
-44.276252 42.610794 29.123997
-43.402632 52.847904 25.850558
-43.62644 51.565929 26.964371
-41.856943 62.510128 10.451542
-42.18499 61.356842 11.886535
-41.593177 63.628811 9.002329
-42.266786 62.304104 9.117352
-41.856943 62.510128 10.451542
-40.671076 66.797119 4.588615
-41.006462 65.777588 6.067495
-40.199129 67.04155 5.925758
-54.182254 16.000909 20.699872
-54.722853 16.132169 19.440299
-45.77614 23.364165 26.215646
-46.44878 23.522375 25.13441
-46.549421 22.207375 25.598028
-45.211149 20.436043 29.394298
-44.82835 20.271009 30.522825
-43.864704 19.922741 47.686159
-43.512461 21.401621 47.070583
-44.321854 18.683836 46.958883
-43.864704 19.922741 47.686159
-44.257357 18.807873 45.638367
-44.750776 17.404604 46.240492
-44.321854 18.683836 46.958883
-42.543438 30.936594 36.423538
-42.535958 30.85782 37.677643
-42.648274 32.387367 36.985337
-42.436756 29.479799 35.882012
-42.543438 30.936594 36.423538
-42.713862 47.006821 34.762087
-42.773802 45.720627 35.789062
-43.125462 47.237736 33.588371
-42.713862 47.006821 34.762087
-38.433134 40.249897 47.312992
-39.267025 39.413891 47.247099
-38.591032 38.856644 48.365297
-21.330438 47.118088 47.280769
-22.370386 46.052093 47.442913
-25.566243 20.252708 62.258069
-26.503957 21.1371 61.879021
-39.022778 54.821762 -21.942577
-39.935376 55.441067 -21.388296
-31.986307 56.345104 -23.982309
-30.511357 57.074581 -24.231631
-54.844599 22.042556 13.472295
-54.244622 22.074821 14.639527
-55.303709 21.969982 12.312898
-55.363514 20.960873 12.60585
-54.844599 22.042556 13.472295
-45.249073 42.465981 24.699666
-44.905493 42.53756 25.771184
-46.566418 42.098114 21.499367
-46.083765 42.247 22.56791
-46.287112 43.488726 21.662482
-47.187868 41.95379 20.473968
-46.984521 40.712064 21.379396
-46.566418 42.098114 21.499367
-51.361526 40.798701 14.323901
-51.392025 41.89774 13.35366
-50.406757 50.23198 3.910861
-49.850876 51.603878 3.463504
-50.22073 51.191704 2.587641
-50.987265 47.254608 7.650894
-50.795997 48.260883 6.44701
-51.415876 46.893524 6.729421
-45.266348 17.195585 35.238419
-45.437975 17.391424 34.017719
-44.486716 18.27524 35.875099
-45.266348 17.195585 35.238419
-45.183411 17.050247 36.47609
-41.934025 34.173429 45.813462
-42.215512 32.951102 45.330484
-41.897507 35.638059 44.904776
-41.934025 34.173429 45.813462
-41.622509 35.361591 46.22183
-40.457058 40.312214 44.866274
-40.948648 40.66078 43.622862
-41.043097 39.294981 44.646603
-27.579206 47.075669 44.850384
-27.913311 45.655548 45.992244
-27.579206 47.075669 44.850384
-26.440251 47.830349 44.505314
-55.361615 17.18511 16.475711
-56.418949 16.394363 15.68292
-55.849213 16.329645 16.932246
-39.699591 18.4573 59.47163
-39.031121 17.58303 60.120896
-39.481757 20.073939 59.141184
-39.699591 18.4573 59.47163
-38.566494 28.274422 56.290997
-38.757038 26.640062 57.038681
-37.963547 27.425726 57.251103
-38.380833 29.881312 55.485153
-38.566494 28.274422 56.290997
-38.380833 29.881312 55.485153
-37.558159 30.656948 55.605049
-37.103358 33.797978 53.694941
-37.731365 34.582752 52.647764
-36.163516 34.469651 53.626953
-37.103358 33.797978 53.694941
-36.403473 32.925484 54.638692
-26.380102 40.080444 50.502249
-27.118198 40.972021 49.766772
-25.283195 40.880428 50.143709
-26.380102 40.080444 50.502249
-30.762076 68.760147 -21.192284
-31.197868 67.19368 -21.629906
-32.438591 67.780777 -20.967705
-30.762076 68.760147 -21.192284
-30.281636 70.33812 -20.762917
-48.014168 25.00053 22.607889
-48.817636 23.87207 21.950592
-47.97352 23.777153 23.003748
-48.177067 26.299082 22.172613
-48.014168 25.00053 22.607889
-49.063755 26.341124 21.145164
-48.177067 26.299082 22.172613
-47.725189 58.822651 -6.386722
-47.964768 58.108715 -5.038137
-47.365319 59.47559 -5.547581
-47.725189 58.822651 -6.386722
-47.440876 59.451447 -7.683218
-44.721931 59.901393 -16.744526
-45.31806 59.85395 -15.810731
-44.703619 60.971344 -16.338636
-44.117037 59.835198 -17.614935
-44.721931 59.901393 -16.744526
-43.39998 59.701581 -18.412817
-44.117037 59.835198 -17.614935
-43.390434 60.88517 -18.070312
-42.683281 59.459278 -19.156116
-43.409883 58.409306 -18.700738
-43.39998 59.701581 -18.412817
-42.866352 55.395397 23.53443
-43.175223 54.119586 24.720128
-43.071432 55.471207 22.316989
-42.866352 55.395397 23.53443
-42.560396 56.657189 22.324461
-42.600978 57.957592 18.575021
-42.958555 56.709984 19.862713
-42.407899 57.980606 19.819329
-42.277656 59.181781 17.254888
-42.828312 57.911159 17.298273
-42.600978 57.957592 18.575021
-39.397442 68.230004 5.784752
-40.199129 67.04155 5.925758
-36.015338 73.086265 1.042941
-36.603519 72.242035 2.516471
-36.586042 72.921013 -0.253983
-36.015338 73.086265 1.042941
-35.46935 73.88739 -0.410135
-50.611206 15.902489 26.234666
-51.924891 15.234573 25.582332
-49.915346 16.919819 25.711462
-50.611206 15.902489 26.234666
-49.389296 16.688686 26.897056
-43.159734 22.863016 46.432857
-42.932917 24.377085 45.765296
-43.475708 21.5485 45.719032
-43.512461 21.401621 47.070583
-43.159734 22.863016 46.432857
-42.800789 33.891402 36.231354
-42.648274 32.387367 36.985337
-42.793309 33.812628 37.485459
-42.996555 35.395781 35.505916
-42.800789 33.891402 36.231354
-42.996555 35.395781 35.505916
-43.137321 36.78162 35.939791
-43.517166 39.664846 34.315533
-43.608948 39.741171 33.116636
-43.5527 40.97228 34.692842
-43.517166 39.664846 34.315533
-43.364353 39.554012 35.525415
-42.38823 44.189197 37.976567
-41.881382 43.919834 39.171409
-36.55896 41.78776 47.233147
-37.536366 41.061178 47.32217
-36.779736 40.419231 48.342167
-36.55896 41.78776 47.233147
-35.529857 42.503021 47.104602
-20.675673 46.582771 48.249168
-21.050721 44.816201 49.28367
-36.978182 56.385891 -22.557724
-38.087561 55.547348 -22.289022
-38.021862 57.070976 -22.060358
-35.828105 55.63319 -23.031838
-36.978182 56.385891 -22.557724
-35.762407 57.156818 -22.803173
-34.712935 54.841385 -23.519991
-35.828105 55.63319 -23.031838
-52.838068 23.081986 16.681701
-52.194321 24.175715 17.507773
-51.397717 43.006683 12.272988
-51.392025 41.89774 13.35366
-50.77266 43.246872 13.270432
-51.887655 45.539589 7.084794
-51.415876 46.893524 6.729421
-52.111361 44.537771 8.175931
-51.887655 45.539589 7.084794
-32.159402 31.192093 56.616917
-32.936494 32.221536 55.909424
-33.211636 30.621043 56.929016
-31.102085 31.773029 56.266474
-32.159402 31.192093 56.616917
-31.377227 30.172535 57.286066
-30.014693 32.354483 55.860853
-31.102085 31.773029 56.266474
-28.942992 32.98386 55.459726
-30.014693 32.354483 55.860853
-29.248209 31.382849 56.534496
-27.845591 33.628754 55.031042
-28.942992 32.98386 55.459726
-27.111244 32.737735 55.754978
-27.845591 33.628754 55.031042
-26.338743 31.824328 56.417412
-27.111244 32.737735 55.754978
-27.404008 31.098818 56.795803
-25.612409 31.010781 57.174597
-26.338743 31.824328 56.417412
-24.836422 30.177807 57.851757
-25.612409 31.010781 57.174597
-25.855521 29.352436 58.135397
-24.118257 29.448936 58.65945
-24.836422 30.177807 57.851757
-23.344595 28.696054 59.37565
-24.118257 29.448936 58.65945
-24.305871 27.766581 59.528757
-22.635963 28.036386 60.244947
-23.344595 28.696054 59.37565
-32.14712 72.492179 -18.611752
-32.664663 71.192307 -19.272499
-33.799251 71.446373 -18.433132
-31.63973 76.531746 -0.861965
-32.209953 76.435737 -2.152443
-32.993254 75.683563 -0.717041
-30.299226 77.336135 -1.001513
-31.63973 76.531746 -0.861965
-29.414102 78.093383 -2.418093
-30.299226 77.336135 -1.001513
-43.547871 50.175179 29.189129
-43.254649 49.997078 30.357322
-32.993254 75.683563 -0.717041
-34.231062 74.820099 -0.560365
-46.243122 17.978054 30.465941
-46.642475 18.206575 29.298792
-45.28862 18.962578 31.077782
-46.243122 17.978054 30.465941
-45.916294 17.784435 31.628351
-44.501522 20.07739 31.685236
-44.82835 20.271009 30.522825
-45.28862 18.962578 31.077782
-44.765723 18.594769 33.43881
-45.634045 17.565614 32.819101
-45.437975 17.391424 34.017719
-44.26766 19.925232 32.855112
-44.765723 18.594769 33.43881
-44.07159 19.751041 34.05373
-44.501522 20.07739 31.685236
-44.26766 19.925232 32.855112
-42.612426 27.410303 44.375134
-42.724077 25.881307 45.092845
-42.534769 28.935454 43.667114
-42.627645 27.543492 43.028385
-42.612426 27.410303 44.375134
-42.517862 30.457213 42.901554
-42.534769 28.935454 43.667114
-42.502644 30.324024 44.248303
-42.34738 33.147841 43.989575
-42.353869 31.649044 44.823652
-42.215512 32.951102 45.330484
-41.907648 41.258186 41.152921
-41.938996 39.904387 42.144593
-41.503339 40.997347 42.41152
-41.933926 42.612999 40.19425
-42.369582 41.520038 39.927323
-41.907648 41.258186 41.152921
-41.881382 43.919834 39.171409
-41.933926 42.612999 40.19425
-31.440546 59.706238 -23.432862
-32.976581 58.825802 -23.223439
-32.665534 60.528725 -22.945076
-30.17483 58.812767 -23.967648
-31.440546 59.706238 -23.432862
-30.511357 57.074581 -24.231631
-30.17483 58.812767 -23.967648
-56.858101 16.398947 14.439392
-56.418949 16.394363 15.68292
-56.858101 16.398947 14.439392
-56.406444 17.23962 14.0031
-56.89344 18.016678 11.268429
-56.558971 18.12301 12.413321
-56.545158 18.879221 10.942268
-56.89344 18.016678 11.268429
-49.975765 52.093803 1.316115
-49.462741 53.459407 0.80069
-49.773658 52.989609 -0.023479
-50.22073 51.191704 2.587641
-49.975765 52.093803 1.316115
-39.309975 21.71875 58.757297
-39.481757 20.073939 59.141184
-38.67436 20.844148 59.522452
-39.115433 23.35537 58.265255
-38.328335 24.140163 58.568676
-38.941189 25.006573 57.695366
-39.309975 21.71875 58.757297
-39.115433 23.35537 58.265255
-39.579489 36.561532 49.304653
-40.080405 37.056359 48.078222
-38.806246 37.422417 49.439712
-39.579489 36.561532 49.304653
-38.960812 35.96331 50.444962
-37.525485 36.08317 51.631611
-38.39345 35.323778 51.596175
-37.731365 34.582752 52.647764
-33.961294 41.027253 48.961994
-34.724443 41.795406 48.02646
-35.039181 40.377659 49.188676
-34.434781 34.195704 54.333005
-34.72618 32.623822 55.396114
-33.697329 33.222368 55.158414
-34.148587 35.726913 53.248798
-35.177437 35.128366 53.486497
-34.434781 34.195704 54.333005
-33.079171 36.32213 52.95881
-31.992432 36.892156 52.593462
-33.821827 37.254793 52.112302
-34.148587 35.726913 53.248798
-33.079171 36.32213 52.95881
-32.854935 41.628771 48.642668
-33.961294 41.027253 48.961994
-33.169672 40.211023 49.804884
-31.719023 42.245528 48.313107
-32.854935 41.628771 48.642668
-31.719023 42.245528 48.313107
-30.921166 41.416204 49.089323
-28.632237 42.680303 48.279972
-27.865296 41.798334 49.019911
-28.273235 44.145058 47.120337
-28.632237 42.680303 48.279972
-27.12553 44.85123 46.738764
-27.913311 45.655548 45.992244
-28.273235 44.145058 47.120337
-24.88329 46.439128 46.040798
-25.64986 47.183018 45.282723
-25.999035 45.617832 46.368747
-24.144312 45.782405 46.84785
-24.88329 46.439128 46.040798
-23.42586 45.041421 47.64279
-24.144312 45.782405 46.84785
-24.514012 44.132959 47.921762
-22.740087 44.402647 48.516825
-22.370386 46.052093 47.442913
-23.42586 45.041421 47.64279
-24.185346 41.732359 49.821772
-24.89341 42.540045 49.03864
-25.283195 40.880428 50.143709
-23.124142 42.687629 49.582163
-24.185346 41.732359 49.821772
-22.068668 43.698301 49.382286
-22.740087 44.402647 48.516825
-23.124142 42.687629 49.582163
-21.050721 44.816201 49.28367
-22.068668 43.698301 49.382286
-40.882159 55.999168 -20.843897
-41.690148 56.488308 -20.223896
-40.078024 56.790535 -21.247257
-39.935376 55.441067 -21.388296
-40.882159 55.999168 -20.843897
-32.371483 62.178142 -22.639307
-32.665534 60.528725 -22.945076
-33.907518 61.297707 -22.429884
-32.371483 62.178142 -22.639307
-31.997082 63.888883 -22.338751
-29.951024 66.501846 -22.203936
-31.627538 65.522476 -21.979357
-31.197868 67.19368 -21.629906
-50.529415 24.058802 19.763052
-49.650154 23.989079 20.842855
-49.737545 25.165171 20.47493
-51.354051 24.141334 18.622361
-51.266661 22.965243 18.990287
-50.529415 24.058802 19.763052
-52.194321 24.175715 17.507773
-51.354051 24.141334 18.622361
-49.291681 54.641232 -2.649514
-49.512522 53.821762 -1.308188
-49.039794 55.174683 -1.880231
-48.571796 56.724964 -4.549418
-48.211925 57.377903 -3.710277
-47.964768 58.108715 -5.038137
-49.013759 55.391289 -3.934661
-48.571796 56.724964 -4.549418
-49.291681 54.641232 -2.649514
-49.013759 55.391289 -3.934661
-46.441648 61.044975 -11.457251
-46.810448 60.56697 -10.227565
-46.166517 61.87653 -10.728172
-46.682621 60.110271 -12.121054
-46.441648 61.044975 -11.457251
-46.038691 61.41983 -12.621662
-46.745002 59.254669 -12.657295
-46.682621 60.110271 -12.121054
-46.315559 59.526257 -13.757303
-45.789705 60.704514 -14.345154
-45.825602 59.745644 -14.816992
-46.745002 59.254669 -12.657295
-46.315559 59.526257 -13.757303
-37.466331 15.682827 61.147991
-38.266917 16.626938 60.688124
-36.589363 14.682476 61.5324
-35.679701 13.701844 61.834167
-36.440765 16.2868 61.425203
-37.466331 15.682827 61.147991
-36.589363 14.682476 61.5324
-32.507013 15.462986 62.352463
-33.568573 14.87118 62.217394
-32.473518 17.087999 62.191704
-32.507013 15.462986 62.352463
-31.479944 16.070612 62.404449
-28.438689 19.668658 62.067787
-28.387611 21.307035 61.603639
-29.372644 20.612488 61.69763
-28.438689 19.668658 62.067787
-28.445189 18.02453 62.439058
-36.567543 73.789535 -10.580632
-37.194473 73.082313 -11.681555
-37.92128 72.649345 -10.447734
-36.567543 73.789535 -10.580632
-35.930466 74.422691 -9.480503
-33.92786 75.939201 -8.443994
-35.293873 74.953804 -8.305426
-34.655152 75.40419 -7.135224
-33.92786 75.939201 -8.443994
-32.438116 76.902802 -8.58294
-27.571555 79.47393 -5.200112
-28.540816 78.77903 -3.816871
-28.143999 79.261177 -6.452312
-27.571555 79.47393 -5.200112
-28.750747 79.024323 -7.681223
-29.716606 78.418358 -6.323832
-28.143999 79.261177 -6.452312
-29.36053 78.685288 -8.864688
-28.750747 79.024323 -7.681223
-44.668268 42.591028 26.882163
-44.443291 42.61495 27.987243
-44.868069 43.903436 26.017389
-44.905493 42.53756 25.771184
-44.668268 42.591028 26.882163
-43.755854 50.282207 28.019207
-43.883051 48.991577 29.06741
-43.547871 50.175179 29.189129
-43.96162 50.382328 26.842652
-43.755854 50.282207 28.019207
-43.62644 51.565929 26.964371
-43.604798 52.937732 24.657387
-43.402632 52.847904 25.850558
-43.175223 54.119586 24.720128
-41.89509 60.404529 15.897471
-42.277656 59.181781 17.254888
-42.172209 60.331806 14.592322
-41.89509 60.404529 15.897471
-42.458432 60.191166 13.296833
-42.791213 58.994709 14.682651
-42.172209 60.331806 14.592322
-42.803994 60.019745 11.976864
-42.458432 60.191166 13.296833
-42.18499 61.356842 11.886535
-41.268768 64.722403 7.536389
-41.593177 63.628811 9.002329
-41.740715 64.477972 6.199245
-41.268768 64.722403 7.536389
-41.006462 65.777588 6.067495
-38.972347 69.203018 4.299497
-39.397442 68.230004 5.784752
-37.606491 71.232422 2.675605
-36.603519 72.242035 2.516471
-38.603024 70.138374 2.824558
-37.606491 71.232422 2.675605
-38.128563 71.025841 1.348047
-39.494419 68.996437 2.971939
-38.972347 69.203018 4.299497
-38.603024 70.138374 2.824558
-55.34025 16.25457 18.198021
-55.849213 16.329645 16.932246
-54.174481 16.997991 18.967315
-55.34025 16.25457 18.198021
-54.722853 16.132169 19.440299
-52.433718 15.45204 24.360571
-51.924891 15.234573 25.582332
-53.022121 15.655508 23.161572
-52.433718 15.45204 24.360571
-51.725661 16.33709 23.850072
-53.560745 15.833393 21.920612
-53.022121 15.655508 23.161572
-52.935574 16.708075 21.430333
-54.182254 16.000909 20.699872
-53.560745 15.833393 21.920612
-47.196056 23.635599 24.088918
-47.97352 23.777153 23.003748
-47.999525 22.507139 23.431621
-47.196056 23.635599 24.088918
-46.44878 23.522375 25.13441
-46.078693 19.356644 28.781284
-47.105721 18.407023 28.164704
-46.642475 18.206575 29.298792
-45.674394 20.63649 28.260211
-46.078693 19.356644 28.781284
-45.211149 20.436043 29.394298
-45.341815 21.882527 27.776245
-46.20936 20.803128 27.16323
-45.674394 20.63649 28.260211
-45.169077 23.238623 27.275263
-45.341815 21.882527 27.776245
-45.77614 23.364165 26.215646
-45.169077 23.238623 27.275263
-45.331963 16.220236 45.518955
-44.750776 17.404604 46.240492
-45.281246 16.33884 44.214281
-45.331963 16.220236 45.518955
-45.202282 16.431769 42.891084
-45.281246 16.33884 44.214281
-44.607315 17.621569 43.596778
-45.163773 16.545502 41.590134
-45.202282 16.431769 42.891084
-45.105228 16.638592 40.284659
-45.163773 16.545502 41.590134
-44.469807 17.807587 40.968107
-45.110321 16.77145 39.003493
-45.105228 16.638592 40.284659
-44.407521 18.01529 38.387701
-45.106579 16.886063 37.728561
-45.110321 16.77145 39.003493
-42.71506 23.592795 35.941101
-43.052038 22.254748 35.302143
-43.02982 22.160393 36.539341
-42.568827 25.092484 35.315559
-42.71506 23.592795 35.941101
-42.546608 24.998129 36.552757
-42.453643 26.582882 34.717276
-42.568827 25.092484 35.315559
-42.421382 28.025185 35.287697
-42.415748 27.952433 36.52153
-42.436756 29.479799 35.882012
-42.453643 26.582882 34.717276
-42.421382 28.025185 35.287697
-44.126959 42.585968 30.265307
-44.276252 42.610794 29.123997
-43.831332 41.153229 32.305849
-43.608948 39.741171 33.116636
-43.977415 42.525307 31.428385
-43.831332 41.153229 32.305849
-43.851597 42.455193 32.605497
-44.147225 43.887932 30.564954
-44.126959 42.585968 30.265307
-43.977415 42.525307 31.428385
-42.746292 44.39479 36.753391
-42.753922 43.080444 37.745476
-42.38823 44.189197 37.976567
-43.139494 44.611874 35.557972
-42.746292 44.39479 36.753391
-42.773802 45.720627 35.789062
-43.410319 47.404221 32.401332
-43.45186 46.104195 33.406605
-43.125462 47.237736 33.588371
-43.379494 48.711155 31.410215
-43.705893 47.577613 31.228448
-43.410319 47.404221 32.401332
-43.254649 49.997078 30.357322
-43.379494 48.711155 31.410215
-39.988214 38.483526 47.09471
-40.643696 37.519247 46.873527
-40.080405 37.056359 48.078222
-39.830317 39.876779 46.042405
-39.988214 38.483526 47.09471
-39.267025 39.413891 47.247099
-40.457058 40.312214 44.866274
-39.830317 39.876779 46.042405
-38.433134 40.249897 47.312992
-37.536366 41.061178 47.32217
-21.330438 47.118088 47.280769
-20.675673 46.582771 48.249168
-27.393731 22.003881 61.404512
-28.327686 22.947712 61.034355
-28.387611 21.307035 61.603639
-26.444033 22.777777 61.309736
-27.393731 22.003881 61.404512
-26.503957 21.1371 61.879021
-24.673853 21.102386 62.304172
-25.566243 20.252708 62.258069
-24.64591 22.784388 61.741487
-24.673853 21.102386 62.304172
-24.568077 24.437075 61.083218
-25.476427 23.563682 61.125975
-24.64591 22.784388 61.741487
-23.634884 25.335739 60.971843
-24.465401 26.115035 60.356331
-24.568077 24.437075 61.083218
-22.768881 26.31986 61.021536
-23.634884 25.335739 60.971843
-22.635963 28.036386 60.244947
-22.768881 26.31986 61.021536
-39.022778 54.821762 -21.942577
-38.087561 55.547348 -22.289022
-33.416675 55.545505 -23.765341
-33.181962 57.203716 -23.494256
-31.986307 56.345104 -23.982309
-34.712935 54.841385 -23.519991
-33.416675 55.545505 -23.765341
-36.455578 73.397606 -12.82496
-37.809314 72.257416 -12.692062
-37.194473 73.082313 -11.681555
-35.595921 73.675018 -13.96932
-36.455578 73.397606 -12.82496
-34.716698 73.81459 -15.006353
-36.191197 72.71228 -14.872501
-35.595921 73.675018 -13.96932
-33.725597 73.915054 -16.057634
-34.716698 73.81459 -15.006353
-32.710465 73.862251 -16.989059
-34.296841 72.799049 -16.84096
-33.725597 73.915054 -16.057634
-31.600082 73.768142 -17.953345
-32.710465 73.862251 -16.989059
-32.14712 72.492179 -18.611752
-31.600082 73.768142 -17.953345
-53.619797 22.063269 15.839223
-52.873026 22.029059 17.007118
-52.838068 23.081986 16.681701
-54.279579 21.021895 14.964944
-53.619797 22.063269 15.839223
-54.244622 22.074821 14.639527
-56.338268 19.815065 10.642081
-56.545158 18.879221 10.942268
-56.029514 19.952453 11.74664
-55.698043 21.850128 11.19754
-55.303709 21.969982 12.312898
-56.06929 20.709329 10.392031
-55.698043 21.850128 11.19754
-56.338268 19.815065 10.642081
-56.06929 20.709329 10.392031
-45.598656 42.359802 23.611974
-45.249073 42.465981 24.699666
-45.454876 43.743789 23.818718
-45.598656 42.359802 23.611974
-46.083765 42.247 22.56791
-47.320831 39.321126 21.177318
-46.984521 40.712064 21.379396
-48.067221 39.194696 20.182164
-47.320831 39.321126 21.177318
-48.788097 39.028009 19.166481
-48.067221 39.194696 20.182164
-48.326849 40.401054 19.338315
-49.590216 38.883417 18.17071
-48.788097 39.028009 19.166481
-50.344223 38.699207 17.159827
-49.590216 38.883417 18.17071
-49.801733 40.050157 17.311749
-51.118122 38.535978 16.158717
-50.344223 38.699207 17.159827
-51.255913 39.662711 15.298781
-50.661354 41.001938 15.325985
-51.361526 40.798701 14.323901
-51.118122 38.535978 16.158717
-51.255913 39.662711 15.298781
-50.630756 49.271977 5.15613
-50.406757 50.23198 3.910861
-50.202145 49.63306 6.077604
-50.630756 49.271977 5.15613
-50.795997 48.260883 6.44701
-51.951854 42.729769 11.289592
-51.397717 43.006683 12.272988
-51.332489 44.078902 11.206364
-52.251103 43.49514 9.320762
-51.746885 44.844618 9.078136
-52.111361 44.537771 8.175931
-52.407295 42.461492 10.344565
-52.251103 43.49514 9.320762
-51.951854 42.729769 11.289592
-52.407295 42.461492 10.344565
3 0 72 70
3 0 74 72
3 0 76 74
3 1 79 77
3 1 82 80
3 1 77 82
3 287 85 288
3 289 87 290
3 291 89 292
3 293 292 87
3 291 292 293
3 295 294 90
3 3 93 91
3 2 96 94
3 4 296 298
3 296 97 297
3 296 297 298
3 5 100 98
3 5 299 301
3 301 300 100
3 299 300 301
3 5 302 304
3 302 102 303
3 302 303 304
3 6 105 103
3 305 108 306
3 307 306 106
3 305 306 307
3 309 308 108
3 8 112 110
3 10 115 113
3 10 310 312
3 312 311 115
3 310 311 312
3 10 313 314
3 6 118 116
3 6 103 118
3 11 121 119
3 12 124 122
3 315 126 316
3 318 317 126
3 11 319 321
3 319 129 320
3 319 320 321
3 11 119 129
3 322 132 323
3 324 134 325
3 326 325 132
3 324 325 326
3 14 327 329
3 327 135 328
3 327 328 329
3 14 137 135
3 14 139 137
3 15 142 140
3 15 330 332
3 332 331 142
3 330 331 332
3 15 333 335
3 333 144 334
3 333 334 335
3 337 336 145
3 7 147 146
3 13 150 148
3 16 153 151
3 16 155 153
3 9 158 156
3 17 161 159
3 19 162 71
3 19 163 162
3 19 165 163
3 20 166 73
3 20 167 166
3 20 168 167
3 21 169 75
3 21 170 169
3 22 173 171
3 24 174 78
3 24 175 174
3 25 178 176
3 27 179 81
3 27 180 179
3 27 182 180
3 22 183 83
3 22 171 183
3 338 186 339
3 29 340 342
3 342 341 84
3 340 341 342
3 29 343 344
3 345 188 346
3 31 189 86
3 31 190 189
3 31 192 190
3 348 347 88
3 33 349 351
3 351 350 92
3 349 350 351
3 33 352 354
3 352 194 353
3 352 353 354
3 34 197 195
3 36 198 95
3 36 199 198
3 356 355 200
3 18 202 160
3 358 357 99
3 359 204 360
3 38 205 101
3 38 206 205
3 362 361 164
3 363 207 364
3 365 208 366
3 367 366 207
3 365 366 367
3 369 368 208
3 39 370 372
3 370 209 371
3 370 371 372
3 39 210 209
3 39 211 210
3 41 373 375
3 373 212 374
3 373 374 375
3 43 213 104
3 43 214 213
3 23 215 172
3 44 216 107
3 44 217 216
3 44 376 378
3 378 377 217
3 376 377 378
3 45 220 218
3 380 379 109
3 47 223 221
3 49 224 111
3 49 225 224
3 26 226 177
3 50 227 114
3 50 228 227
3 50 229 228
3 28 230 181
3 382 381 117
3 41 383 384
3 41 385 386
3 387 231 388
3 387 388 389
3 390 232 391
3 392 391 231
3 390 391 392
3 393 233 394
3 395 234 396
3 397 396 233
3 395 396 397
3 400 399 234
3 398 399 400
3 51 401 403
3 403 402 235
3 401 402 403
3 52 404 406
3 406 405 120
3 404 405 406
3 52 407 408
3 409 236 410
3 411 410 184
3 409 410 411
3 53 412 414
3 412 237 413
3 412 413 414
3 55 238 123
3 55 239 238
3 415 240 416
3 56 241 125
3 56 242 241
3 56 243 242
3 57 244 127
3 57 245 244
3 417 246 418
3 419 247 420
3 421 420 246
3 419 420 421
3 58 422 424
3 422 248 423
3 422 423 424
3 58 249 248
3 59 250 128
3 59 251 250
3 59 252 251
3 51 253 130
3 51 235 253
3 425 254 426
3 60 255 131
3 60 256 255
3 60 257 256
3 61 258 133
3 61 427 429
3 429 428 258
3 427 428 429
3 431 430 185
3 62 432 433
3 62 434 435
3 62 436 438
3 436 259 437
3 436 437 438
3 63 260 136
3 63 261 260
3 63 262 261
3 64 263 138
3 64 264 263
3 30 265 187
3 439 266 440
3 441 440 141
3 439 440 441
3 443 442 266
3 65 267 143
3 65 268 267
3 32 269 191
3 444 270 445
3 447 446 270
3 37 448 450
3 450 449 203
3 448 449 450
3 40 451 452
3 453 271 454
3 42 455 456
3 458 457 193
3 46 272 219
3 459 273 460
3 461 274 462
3 463 462 273
3 461 462 463
3 54 464 465
3 66 466 468
3 468 467 149
3 466 467 468
3 66 469 471
3 469 275 470
3 469 470 471
3 35 276 196
3 67 277 152
3 67 278 277
3 67 279 278
3 473 472 154
3 48 280 222
3 68 281 157
3 68 282 281
3 474 283 475
3 476 475 201
3 474 475 476
3 69 477 479
3 477 284 478
3 477 478 479
3 69 285 284
3 69 286 285
3 70 71 17
3 72 71 70
3 72 19 71
3 72 73 19
3 74 73 72
3 74 20 73
3 74 75 20
3 76 75 74
3 76 21 75
3 77 78 22
3 79 78 77
3 79 24 78
3 80 81 25
3 82 81 80
3 82 27 81
3 82 83 27
3 77 83 82
3 77 22 83
3 480 84 481
3 85 482 484
3 482 84 483
3 482 483 484
3 85 29 84
3 485 86 486
3 87 487 489
3 487 86 488
3 487 488 489
3 87 31 86
3 87 88 31
3 89 88 87
3 89 490 492
3 492 491 88
3 490 491 492
3 90 493 494
3 496 495 90
3 91 497 499
3 497 92 498
3 497 498 499
3 93 92 91
3 93 33 92
3 94 95 34
3 96 95 94
3 96 36 95
3 97 500 501
3 97 502 503
3 98 99 18
3 100 99 98
3 100 504 506
3 506 505 99
3 504 505 506
3 100 507 508
3 510 509 100
3 511 101 512
3 102 513 515
3 513 101 514
3 513 514 515
3 102 38 101
3 516 39 517
3 519 518 39
3 103 104 41
3 105 104 103
3 105 43 104
3 106 107 23
3 108 107 106
3 108 44 107
3 108 520 522
3 522 521 44
3 520 521 522
3 524 523 108
3 525 109 526
3 527 526 45
3 525 526 527
3 528 109 529
3 531 530 109
3 110 111 47
3 112 111 110
3 112 49 111
3 113 114 26
3 115 114 113
3 115 50 114
3 115 532 534
3 534 533 50
3 532 533 534
3 536 535 115
3 116 117 28
3 118 117 116
3 118 537 539
3 539 538 117
3 537 538 539
3 118 540 541
3 103 542 544
3 544 543 118
3 542 543 544
3 103 545 547
3 545 41 546
3 545 546 547
3 119 120 51
3 121 120 119
3 121 52 120
3 122 123 53
3 124 123 122
3 124 55 123
3 548 125 549
3 126 550 552
3 550 125 551
3 550 551 552
3 126 56 125
3 126 127 56
3 553 127 554
3 555 554 126
3 553 554 555
3 556 57 557
3 558 557 127
3 556 557 558
3 559 58 560
3 561 128 562
3 129 563 565
3 563 128 564
3 563 564 565
3 129 59 128
3 129 130 59
3 119 130 129
3 119 51 130
3 566 131 567
3 132 568 570
3 568 131 569
3 568 569 570
3 132 60 131
3 132 133 60
3 134 133 132
3 134 61 133
3 135 571 572
3 135 573 575
3 573 62 574
3 573 574 575
3 135 136 62
3 137 136 135
3 137 63 136
3 137 138 63
3 139 138 137
3 139 64 138
3 140 141 30
3 142 141 140
3 142 576 578
3 578 577 141
3 576 577 578
3 142 579 580
3 582 581 142
3 583 143 584
3 144 585 587
3 585 143 586
3 585 586 587
3 144 65 143
3 589 588 32
3 145 590 592
3 592 591 37
3 590 591 592
3 594 593 145
3 596 595 40
3 146 597 599
3 599 598 42
3 597 598 599
3 147 600 602
3 602 601 146
3 600 601 602
3 147 603 604
3 606 605 46
3 148 149 54
3 150 149 148
3 150 66 149
3 151 152 35
3 153 152 151
3 153 67 152
3 153 154 67
3 155 154 153
3 155 607 609
3 609 608 154
3 607 608 609
3 156 157 48
3 158 157 156
3 158 68 157
3 610 69 611
3 613 612 69
3 159 160 4
3 161 160 159
3 161 18 160
3 71 161 17
3 162 161 71
3 162 18 161
3 162 98 18
3 163 98 162
3 163 5 98
3 163 164 5
3 165 164 163
3 165 614 616
3 616 615 164
3 614 615 616
3 73 165 19
3 166 165 73
3 166 617 619
3 619 618 165
3 617 618 619
3 166 620 621
3 167 622 624
3 624 623 166
3 622 623 624
3 167 625 626
3 167 627 628
3 168 629 631
3 631 630 167
3 629 630 631
3 168 632 633
3 75 168 20
3 169 168 75
3 169 634 636
3 636 635 168
3 634 635 636
3 169 637 638
3 170 639 641
3 641 640 169
3 639 640 641
3 170 642 643
3 171 172 6
3 173 172 171
3 173 23 172
3 78 173 22
3 174 173 78
3 174 23 173
3 174 106 23
3 175 106 174
3 175 644 646
3 646 645 106
3 644 645 646
3 176 177 8
3 178 177 176
3 178 26 177
3 81 178 25
3 179 178 81
3 179 26 178
3 179 113 26
3 180 113 179
3 180 10 113
3 180 181 10
3 182 181 180
3 182 28 181
3 83 182 27
3 183 182 83
3 183 28 182
3 183 116 28
3 171 116 183
3 171 6 116
3 647 184 648
3 649 648 11
3 647 648 649
3 650 184 651
3 653 652 184
3 655 654 12
3 656 11 657
3 658 185 659
3 186 660 662
3 660 185 661
3 660 661 662
3 186 663 665
3 665 664 185
3 663 664 665
3 84 666 668
3 666 186 667
3 666 667 668
3 669 186 670
3 671 670 84
3 669 670 671
3 673 672 186
3 674 14 675
3 676 187 677
3 678 677 14
3 676 677 678
3 188 679 681
3 679 187 680
3 679 680 681
3 188 30 187
3 86 682 684
3 682 188 683
3 682 683 684
3 189 188 86
3 189 30 188
3 189 140 30
3 190 140 189
3 190 15 140
3 190 191 15
3 192 191 190
3 192 32 191
3 88 192 31
3 685 192 686
3 687 686 88
3 685 686 687
3 688 32 689
3 690 689 192
3 688 689 690
3 692 691 32
3 693 193 694
3 695 694 7
3 693 694 695
3 696 193 697
3 699 698 193
3 92 700 701
3 703 702 92
3 194 704 705
3 194 706 707
3 195 196 13
3 197 196 195
3 197 35 196
3 95 197 34
3 198 197 95
3 198 35 197
3 198 151 35
3 199 151 198
3 199 16 151
3 200 201 9
3 708 201 709
3 710 709 200
3 708 709 710
3 712 711 201
3 160 97 4
3 202 97 160
3 202 713 715
3 715 714 97
3 713 714 715
3 99 202 18
3 716 202 717
3 718 717 99
3 716 717 718
3 720 719 202
3 721 203 722
3 204 723 725
3 723 203 724
3 723 724 725
3 204 37 203
3 101 726 728
3 726 204 727
3 726 727 728
3 205 204 101
3 205 37 204
3 205 145 37
3 206 145 205
3 206 729 731
3 731 730 145
3 729 730 731
3 164 102 5
3 732 102 733
3 734 733 164
3 732 733 734
3 735 38 736
3 737 736 102
3 735 736 737
3 207 738 739
3 207 740 742
3 740 38 741
3 740 741 742
3 207 206 38
3 208 206 207
3 208 743 745
3 745 744 206
3 743 744 745
3 208 746 747
3 749 748 208
3 209 750 751
3 209 752 753
3 209 754 756
3 754 90 755
3 754 755 756
3 210 90 209
3 210 757 759
3 759 758 90
3 757 758 759
3 210 760 761
3 211 762 764
3 764 763 210
3 762 763 764
3 211 765 767
3 765 40 766
3 765 766 767
3 768 211 769
3 770 769 39
3 768 769 770
3 771 211 772
3 773 40 774
3 775 774 211
3 773 774 775
3 777 776 40
3 212 778 779
3 212 780 782
3 780 42 781
3 780 781 782
3 104 212 41
3 213 212 104
3 213 42 212
3 213 146 42
3 214 146 213
3 214 7 146
3 172 105 6
3 215 105 172
3 215 43 105
3 107 215 23
3 216 215 107
3 216 43 215
3 216 214 43
3 217 214 216
3 217 7 214
3 217 783 785
3 785 784 7
3 783 784 785
3 787 786 217
3 790 789 44
3 788 789 790
3 218 219 3
3 220 219 218
3 220 46 219
3 109 220 45
3 791 220 792
3 793 792 109
3 791 792 793
3 794 46 795
3 796 795 220
3 794 795 796
3 798 797 46
3 221 222 2
3 223 222 221
3 223 48 222
3 111 223 47
3 224 223 111
3 224 48 223
3 224 156 48
3 225 156 224
3 225 9 156
3 177 112 8
3 226 112 177
3 226 49 112
3 114 226 26
3 227 226 114
3 227 49 226
3 227 225 49
3 228 225 227
3 228 9 225
3 228 200 9
3 229 200 228
3 229 799 801
3 801 800 200
3 799 800 801
3 802 229 803
3 804 803 50
3 802 803 804
3 805 229 806
3 808 807 229
3 181 809 811
3 811 810 10
3 809 810 811
3 230 812 814
3 814 813 181
3 812 813 814
3 230 815 816
3 117 230 28
3 817 230 818
3 819 818 117
3 817 818 819
3 821 820 230
3 822 4 823
3 231 824 825
3 231 826 828
3 826 4 827
3 826 827 828
3 231 159 4
3 232 159 231
3 232 17 159
3 829 232 830
3 233 831 833
3 831 232 832
3 831 832 833
3 233 17 232
3 233 70 17
3 234 70 233
3 234 0 70
3 234 834 836
3 836 835 0
3 834 835 836
3 838 837 234
3 235 839 841
3 841 840 1
3 839 840 841
3 843 842 235
3 120 844 846
3 846 845 51
3 844 845 846
3 848 847 120
3 184 121 11
3 236 121 184
3 236 52 121
3 849 236 850
3 851 236 852
3 853 52 854
3 855 854 236
3 853 854 855
3 857 856 52
3 237 858 859
3 237 860 862
3 860 54 861
3 860 861 862
3 123 237 53
3 238 237 123
3 238 54 237
3 238 148 54
3 239 148 238
3 239 13 148
3 863 124 864
3 865 864 12
3 863 864 865
3 240 866 868
3 866 124 867
3 866 867 868
3 240 55 124
3 125 869 871
3 869 240 870
3 869 870 871
3 241 240 125
3 241 55 240
3 241 239 55
3 242 239 241
3 242 13 239
3 242 195 13
3 243 195 242
3 243 34 195
3 127 243 56
3 244 243 127
3 244 34 243
3 244 94 34
3 245 94 244
3 245 2 94
3 872 57 873
3 874 57 875
3 876 245 877
3 878 877 57
3 876 877 878
3 246 879 881
3 879 245 880
3 879 880 881
3 246 2 245
3 246 221 2
3 247 221 246
3 247 47 221
3 882 247 883
3 248 884 886
3 884 247 885
3 884 885 886
3 248 47 247
3 248 110 47
3 249 110 248
3 249 8 110
3 887 58 888
3 128 889 890
3 250 891 893
3 893 892 128
3 891 892 893
3 250 894 896
3 894 58 895
3 894 895 896
3 250 249 58
3 251 249 250
3 251 8 249
3 251 176 8
3 252 176 251
3 252 25 176
3 130 252 59
3 253 252 130
3 253 25 252
3 253 80 25
3 235 80 253
3 235 1 80
3 897 91 898
3 254 899 901
3 899 91 900
3 899 900 901
3 254 3 91
3 131 902 903
3 255 904 906
3 906 905 131
3 904 905 906
3 255 907 908
3 255 909 911
3 909 254 910
3 909 910 911
3 256 254 255
3 256 3 254
3 256 218 3
3 257 218 256
3 257 45 218
3 133 257 60
3 258 257 133
3 258 45 257
3 258 912 914
3 914 913 45
3 912 913 914
3 916 915 258
3 185 917 919
3 917 134 918
3 917 918 919
3 920 134 921
3 922 921 185
3 920 921 922
3 923 61 924
3 925 924 134
3 923 924 925
3 926 61 927
3 929 928 61
3 259 930 931
3 259 932 933
3 136 259 62
3 260 259 136
3 260 934 936
3 936 935 259
3 934 935 936
3 260 937 938
3 261 939 941
3 941 940 260
3 939 940 941
3 261 942 943
3 261 944 946
3 944 85 945
3 944 945 946
3 262 85 261
3 262 29 85
3 138 262 63
3 263 262 138
3 263 29 262
3 263 947 949
3 949 948 29
3 947 948 949
3 264 950 952
3 952 951 263
3 950 951 952
3 264 953 954
3 187 139 14
3 265 139 187
3 265 64 139
3 141 265 30
3 266 265 141
3 266 64 265
3 266 264 64
3 955 264 956
3 957 956 266
3 955 956 957
3 959 958 264
3 960 53 961
3 143 962 963
3 267 964 966
3 966 965 143
3 964 965 966
3 267 967 969
3 967 53 968
3 967 968 969
3 267 122 53
3 268 122 267
3 268 12 122
3 191 144 15
3 269 144 191
3 269 65 144
3 970 269 971
3 972 971 32
3 970 971 972
3 270 973 975
3 973 269 974
3 973 974 975
3 270 65 269
3 270 268 65
3 976 268 977
3 978 977 270
3 976 977 978
3 979 12 980
3 981 980 268
3 979 980 981
3 983 982 12
3 203 984 986
3 984 89 985
3 984 985 986
3 987 89 988
3 989 988 203
3 987 988 989
3 991 990 89
3 993 992 37
3 995 994 40
3 996 76 997
3 998 997 0
3 996 997 998
3 271 999 1001
3 999 76 1000
3 999 1000 1001
3 271 21 76
3 1002 271 1003
3 1004 271 1005
3 1006 21 1007
3 1008 1007 271
3 1006 1007 1008
3 1009 170 1010
3 1011 1010 21
3 1009 1010 1011
3 1012 170 1013
3 1015 1014 170
3 1017 1016 42
3 193 147 7
3 1018 147 1019
3 1020 1019 193
3 1018 1019 1020
3 1022 1021 147
3 1023 79 1024
3 1025 1024 1
3 1023 1024 1025
3 1026 79 1027
3 1028 24 1029
3 1030 1029 79
3 1028 1029 1030
3 1031 24 1032
3 1033 175 1034
3 1035 1034 24
3 1033 1034 1035
3 1036 175 1037
3 1039 1038 175
3 219 93 3
3 272 93 219
3 272 33 93
3 1040 272 1041
3 1042 1041 46
3 1040 1041 1042
3 273 1043 1045
3 1043 272 1044
3 1043 1044 1045
3 273 33 272
3 273 194 33
3 274 194 273
3 274 1046 1048
3 1048 1047 194
3 1046 1047 1048
3 1049 274 1050
3 1051 274 1052
3 1054 1053 274
3 149 1055 1057
3 1057 1056 54
3 1055 1056 1057
3 1059 1058 149
3 275 1060 1061
3 275 1062 1063
3 196 150 13
3 276 150 196
3 276 66 150
3 152 276 35
3 277 276 152
3 277 66 276
3 277 275 66
3 278 275 277
3 278 1064 1066
3 1066 1065 275
3 1064 1065 1066
3 278 1067 1068
3 279 1069 1071
3 1071 1070 278
3 1069 1070 1071
3 279 1072 1073
3 154 279 67
3 1074 279 1075
3 1076 1075 154
3 1074 1075 1076
3 1078 1077 279
3 222 96 2
3 280 96 222
3 280 36 96
3 157 280 48
3 281 280 157
3 281 36 280
3 281 199 36
3 282 199 281
3 282 16 199
3 201 158 9
3 283 158 201
3 283 68 158
3 1079 283 1080
3 284 1081 1083
3 1081 283 1082
3 1081 1082 1083
3 284 68 283
3 284 282 68
3 285 282 284
3 285 16 282
3 285 155 16
3 286 155 285
3 286 1084 1086
3 1086 1085 155
3 1084 1085 1086
3 1087 286 1088
3 1089 1088 69
3 1087 1088 1089
3 1090 286 1091
3 1093 1092 286
