ply
format ascii 1.0
element vertex 307
property float x
property float y
property float z
element face 321
property list uchar int vertex_index
end_header
-3.30929 -89.332047 39.680367
-3.242828 -89.619781 58.933296
-5.059523 -86.424789 29.708662
0.06814 -80.667374 47.98737
-1.030396 -79.537888 37.905888
-2.147373 -77.115189 28.699833
-2.636934 -90.613846 49.752094
-4.091846 -88.044296 34.619877
-4.811018 -92.920624 35.313354
-1.268017 -85.322357 43.870934
-0.379501 -80.261703 42.860802
-1.981215 -84.504852 38.810139
-2.896481 -83.331879 33.906906
-2.753765 -90.456375 54.506634
-4.972383 -94.861435 50.042152
-5.352936 -93.97287 54.246788
-0.860985 -85.893478 54.061806
-4.609783 -80.214409 24.703579
-6.059046 -84.645294 25.009418
-1.676306 -78.472351 33.18808
-3.821381 -81.851456 29.212795
-2.81909 -90.208206 44.769264
-4.617689 -94.199997 40.457996
-4.710571 -94.892456 45.417953
0.185539 -80.802513 53.192806
-0.881781 -85.788162 48.991886
-3.668541 -88.736023 37.138145
-4.528849 -90.4534 34.963966
-4.218355 -91.162079 37.522018
-2.264269 -87.397751 41.792667
-1.589149 -84.958221 41.326401
-2.625132 -86.917908 39.254997
-3.052805 -86.344315 36.743172
-2.942324 -90.128937 56.765598
-3.979553 -92.382034 54.486046
-4.205259 -91.853195 56.598022
-2.137705 -87.74704 59.035107
-1.865816 -88.082977 56.733391
-5.563433 -85.539673 27.331499
-5.800114 -87.851288 27.496227
-0.691685 -79.942223 40.35672
-1.367268 -79.046913 35.515526
-4.030437 -84.938461 31.844267
-3.369612 -82.623322 31.533464
-4.533892 -84.131271 29.470724
-5.019342 -83.283508 27.148577
-2.690859 -90.474548 47.281937
-3.737942 -92.589981 45.137295
-3.714357 -92.793701 47.591465
-6.287443 -96.613831 49.895851
-6.008638 -96.957962 47.791943
-1.645456 -88.32048 51.907467
-0.824793 -85.888306 51.540653
-1.672222 -88.249069 49.413933
-1.784491 -88.066818 46.887047
-4.562325 -87.268082 32.139931
-5.335358 -88.774078 29.936138
-4.905991 -89.650681 32.429626
-5.03311 -92.105347 32.731487
-0.465113 -83.079407 45.931103
-0.119673 -80.501266 45.408108
-0.721607 -82.823143 43.371117
-1.051258 -82.48455 40.84156
-1.434681 -82.05954 38.353905
-1.846888 -81.546265 35.917576
-2.42506 -83.961807 36.333977
-3.528858 -85.681442 34.269875
-2.656284 -90.612961 52.16489
-3.746492 -92.838043 49.975765
-3.832481 -92.706268 52.277142
-5.144321 -94.531113 52.198608
-6.557877 -96.016281 51.87677
-0.338638 -83.338089 56.214539
-0.995537 -85.794312 56.538559
-1.707058 -88.269699 54.352455
-3.302698 -78.752365 26.716671
-2.308006 -76.369392 26.513813
-4.535723 -91.11647 58.615009
-1.93882 -77.823265 30.919638
-2.260706 -80.947083 33.538239
-2.651312 -80.27037 31.216211
-3.000906 -79.531448 28.945847
-4.236174 -81.038979 26.939068
-5.475224 -82.425476 24.873444
-3.024818 -89.82489 42.229828
-3.983177 -91.762146 40.083855
-3.824722 -92.241882 42.628834
-4.635307 -94.627914 42.971832
-5.450071 -96.939194 43.222191
-4.826958 -94.976273 47.779144
-5.723959 -97.060638 45.564846
-5.621164 -93.183136 56.19342
-6.834221 -95.162506 53.744846
0.171825 -80.766281 50.586636
-0.228144 -83.389008 53.666298
-0.214233 -83.360931 51.092331
-0.294022 -83.257721 48.509174
-1.03021 -85.598831 46.430626
-1.982204 -87.78154 44.341671
-4.673058 -93.625275 37.897255
-2.690266 -88.683411 58.984201
-2.341174 -87.500008 60.139414
-2.893736 -88.436378 60.088509
0.131391 -79.340256 47.718789
0.197802 -79.391869 49.017458
-0.777222 -78.415199 38.902784
-0.607866 -78.617367 40.128201
-0.861041 -79.740055 39.131304
-0.906897 -78.216454 37.701242
-0.777222 -78.415199 38.902784
-1.198832 -79.2924 36.710707
-1.075333 -77.970967 36.506062
-0.906897 -78.216454 37.701242
-6.766666 -97.639557 48.729544
-6.976694 -97.318863 49.685516
-1.731841 -75.835587 28.607368
-1.709532 -76.174233 29.691073
-4.884483 -93.775368 34.185497
-4.995529 -93.367729 32.894564
-4.922064 -92.512985 34.02242
-1.117636 -85.686737 57.745455
-0.774203 -84.497517 57.628042
-4.08658 -79.087193 24.609963
-3.433038 -78.35617 25.616509
-3.95624 -79.483387 25.710125
-6.420362 -85.329658 23.906781
-6.299667 -84.2118 23.875118
-5.51768 -89.510292 28.802023
-5.334266 -89.988808 30.056059
-0.192901 -79.053997 43.873368
-0.062988 -79.173778 45.14702
-0.249587 -80.381484 44.134455
-1.423391 -77.165283 33.040394
-1.340833 -77.443894 34.174698
-1.807563 -78.147808 32.053859
-1.554647 -76.84074 31.906173
-1.423391 -77.165283 33.040394
-6.299667 -84.2118 23.875118
-6.007756 -83.10189 23.807131
-5.767135 -83.535385 24.941431
-6.250953 -98.042427 45.538491
-5.866299 -97.0093 46.678395
-6.393293 -97.991089 46.652039
-6.003182 -98.086593 44.442309
-6.250953 -98.042427 45.538491
-5.801188 -92.677384 57.123877
-5.078444 -92.149803 57.404215
-5.258467 -91.644051 58.334671
-7.607132 -95.532295 53.345329
-6.990157 -94.612892 54.633173
-7.435746 -96.130531 52.502863
-7.607132 -95.532295 53.345329
0.282588 -79.482845 52.929487
0.265092 -79.480801 54.24254
0.178682 -80.784397 51.889721
0.275731 -79.464729 51.626402
0.282588 -79.482845 52.929487
-1.816669 -75.107776 26.442679
-2.374156 -75.990048 25.429988
-1.874575 -86.491928 60.159262
-2.341174 -87.500008 60.139414
-1.68872 -86.663101 58.993729
-1.874575 -86.491928 60.159262
-2.001761 -87.915008 57.884249
-1.552776 -86.83107 57.842871
-1.68872 -86.663101 58.993729
-4.780706 -79.811405 23.600912
-5.255752 -80.902523 23.671761
-5.924348 -86.22873 26.224579
-6.172154 -85.78154 25.063538
-5.81124 -85.092484 26.170459
-6.042688 -87.384537 26.306943
-5.924348 -86.22873 26.224579
-5.681774 -86.695481 27.413863
-5.96071 -88.562348 26.359841
-6.042688 -87.384537 26.306943
-0.473318 -78.775234 41.361191
-0.317225 -78.934974 42.613232
-0.535593 -80.101963 41.608761
-0.473318 -78.775234 41.361191
-0.607866 -78.617367 40.128201
-1.186314 -77.731175 35.338421
-1.075333 -77.970967 36.506062
-1.521787 -78.759632 34.351803
-1.340833 -77.443894 34.174698
-1.186314 -77.731175 35.338421
-6.627264 -97.811622 47.67759
-6.148041 -96.785897 48.843897
-6.766666 -97.639557 48.729544
-6.393293 -97.991089 46.652039
-6.627264 -97.811622 47.67759
0.145908 -80.790039 54.491632
0.265092 -79.480801 54.24254
-4.827562 -95.152382 39.354873
-4.914961 -95.406761 40.617965
-5.119582 -90.427109 31.302803
-5.334266 -89.988808 30.056059
-5.120674 -89.212379 31.182882
-5.183142 -91.654442 31.453733
-5.119582 -90.427109 31.302803
-4.969551 -90.878014 32.580557
-5.052126 -92.911964 31.590684
-5.183142 -91.654442 31.453733
-5.052126 -92.911964 31.590684
-4.995529 -93.367729 32.894564
-7.111911 -97.020088 50.675976
-6.976694 -97.318863 49.685516
-6.42266 -96.315056 50.886311
-0.445753 -83.269406 57.466032
-0.20455 -82.013607 57.287611
-0.667088 -84.566201 56.376549
-0.445753 -83.269406 57.466032
-0.774203 -84.497517 57.628042
-1.430676 -86.938645 56.635975
-1.117636 -85.686737 57.745455
-1.552776 -86.83107 57.842871
-2.935691 -77.164684 25.515079
-2.805352 -77.560879 26.615242
-3.433038 -78.35617 25.616509
-2.374156 -75.990048 25.429988
-2.935691 -77.164684 25.515079
-4.08658 -79.087193 24.609963
-4.780706 -79.811405 23.600912
-4.108398 -90.021744 59.810127
-3.889276 -90.368126 58.774152
-3.461951 -89.273399 59.969271
-4.768299 -90.649132 59.580105
-4.108398 -90.021744 59.810127
-5.258467 -91.644051 58.334671
-4.768299 -90.649132 59.580105
-3.461951 -89.273399 59.969271
-2.893736 -88.436378 60.088509
-6.420362 -85.329658 23.906781
-6.172154 -85.78154 25.063538
-5.750058 -89.048897 27.582068
-5.567736 -88.312683 28.716183
-5.51768 -89.510292 28.802023
-5.96071 -88.562348 26.359841
-5.750058 -89.048897 27.582068
0.037485 -79.257202 46.429158
0.131391 -79.340256 47.718789
-0.025766 -80.58432 46.697739
0.037485 -79.257202 46.429158
-0.062988 -79.173778 45.14702
-0.192901 -79.053997 43.873368
-0.317225 -78.934974 42.613232
-1.605256 -76.528271 30.800975
-1.554647 -76.84074 31.906173
-2.043096 -77.469227 29.809736
-1.709532 -76.174233 29.691073
-1.605256 -76.528271 30.800975
-5.688472 -82.008057 23.756693
-5.255752 -80.902523 23.671761
-5.042504 -81.319942 24.788511
-5.688472 -82.008057 23.756693
-6.007756 -83.10189 23.807131
-4.92377 -95.62072 41.874883
-4.914961 -95.406761 40.617965
-4.626498 -94.413956 41.714914
-5.331152 -96.776359 42.000063
-4.92377 -95.62072 41.874883
-5.042689 -95.783554 43.097012
-5.621633 -97.944198 42.10764
-5.331152 -96.776359 42.000063
-5.866238 -98.025871 43.270981
-5.587015 -96.999916 44.393518
-6.003182 -98.086593 44.442309
-5.621633 -97.944198 42.10764
-5.866238 -98.025871 43.270981
-6.383629 -93.623207 55.85746
-5.801188 -92.677384 57.123877
-6.227692 -94.172821 54.969133
-6.383629 -93.623207 55.85746
-6.990157 -94.612892 54.633173
-7.297574 -96.557419 51.568825
-6.696049 -95.589393 52.810808
-7.435746 -96.130531 52.502863
-7.111911 -97.020088 50.675976
-7.297574 -96.557419 51.568825
0.249644 -79.441323 50.317091
0.275731 -79.464729 51.626402
0.119983 -80.716827 49.287003
0.197802 -79.391869 49.017458
0.249644 -79.441323 50.317091
-0.11618 -82.057827 56.002499
-0.20455 -82.013607 57.287611
-0.060934 -82.083286 54.728378
-0.11618 -82.057827 56.002499
-0.283391 -83.363549 54.940418
-0.021303 -82.095761 53.429552
0.145908 -80.790039 54.491632
-0.060934 -82.083286 54.728378
-4.855247 -94.865021 38.074503
-4.645373 -93.912636 39.177626
-4.827562 -95.152382 39.354873
-4.810572 -94.530296 36.78293
-4.855247 -94.865021 38.074503
-4.879552 -94.177971 35.49098
-4.742038 -93.27295 36.605305
-4.810572 -94.530296 36.78293
-4.884483 -93.775368 34.185497
-4.879552 -94.177971 35.49098
-1.812157 -75.462688 27.514359
-1.731841 -75.835587 28.607368
-2.227689 -76.74229 27.606823
-1.812157 -75.462688 27.514359
-1.816669 -75.107776 26.442679
3 0 28 26
3 0 31 29
3 0 26 31
3 1 35 33
3 1 100 102
3 100 36 101
3 100 101 102
3 1 33 36
3 2 39 38
3 3 103 104
3 4 105 107
3 107 106 40
3 105 106 107
3 4 108 109
3 4 110 112
3 110 41 111
3 110 111 112
3 2 44 42
3 2 38 44
3 6 48 46
3 114 113 49
3 6 53 51
3 6 46 53
3 5 115 116
3 7 57 55
3 8 58 27
3 8 117 119
3 119 118 58
3 117 118 119
3 9 61 59
3 11 62 30
3 11 63 62
3 11 65 63
3 7 66 32
3 7 55 66
3 13 69 67
3 15 70 34
3 15 71 70
3 120 73 121
3 13 74 37
3 13 67 74
3 17 122 124
3 124 123 75
3 122 123 124
3 18 125 126
3 128 127 56
3 10 129 131
3 131 130 60
3 129 130 131
3 19 132 133
3 19 134 136
3 134 78 135
3 134 135 136
3 12 79 64
3 20 80 43
3 20 81 80
3 20 82 81
3 18 83 45
3 18 137 139
3 139 138 83
3 137 138 139
3 21 86 84
3 23 87 47
3 23 88 87
3 14 89 68
3 140 90 141
3 142 141 50
3 140 141 142
3 144 143 90
3 145 91 146
3 147 146 77
3 145 146 147
3 148 92 149
3 151 150 92
3 24 152 153
3 24 154 156
3 154 93 155
3 154 155 156
3 16 94 72
3 25 95 52
3 25 96 95
3 25 97 96
3 21 98 54
3 21 84 98
3 22 99 85
3 158 157 76
3 26 27 7
3 28 27 26
3 28 8 27
3 29 30 9
3 31 30 29
3 31 11 30
3 31 32 11
3 26 32 31
3 26 7 32
3 33 34 13
3 35 34 33
3 35 15 34
3 36 159 160
3 36 161 162
3 36 163 165
3 163 37 164
3 163 164 165
3 33 37 36
3 33 13 37
3 167 166 17
3 38 168 170
3 170 169 18
3 168 169 170
3 39 171 173
3 173 172 38
3 171 172 173
3 39 174 175
3 40 176 178
3 178 177 10
3 176 177 178
3 180 179 40
3 41 181 182
3 41 183 185
3 183 19 184
3 183 184 185
3 42 43 12
3 44 43 42
3 44 20 43
3 44 45 20
3 38 45 44
3 38 18 45
3 46 47 21
3 48 47 46
3 48 23 47
3 49 50 14
3 186 50 187
3 188 187 49
3 186 187 188
3 190 189 50
3 191 24 192
3 51 52 16
3 53 52 51
3 53 25 52
3 53 54 25
3 46 54 53
3 46 21 54
3 194 193 22
3 55 56 2
3 57 56 55
3 57 195 197
3 197 196 56
3 195 196 197
3 27 57 7
3 58 57 27
3 58 198 200
3 200 199 57
3 198 199 200
3 58 201 202
3 204 203 58
3 59 60 3
3 61 60 59
3 61 10 60
3 30 61 9
3 62 61 30
3 62 10 61
3 62 40 10
3 63 40 62
3 63 4 40
3 63 64 4
3 65 64 63
3 65 12 64
3 32 65 11
3 66 65 32
3 66 12 65
3 66 42 12
3 55 42 66
3 55 2 42
3 67 68 6
3 69 68 67
3 69 14 68
3 34 69 13
3 70 69 34
3 70 14 69
3 70 49 14
3 71 49 70
3 71 205 207
3 207 206 49
3 205 206 207
3 208 72 209
3 73 210 212
3 210 72 211
3 210 211 212
3 73 16 72
3 37 213 215
3 213 73 214
3 213 214 215
3 74 73 37
3 74 16 73
3 74 51 16
3 67 51 74
3 67 6 51
3 75 76 5
3 216 76 217
3 218 217 75
3 216 217 218
3 220 219 76
3 222 221 17
3 223 77 224
3 225 224 1
3 223 224 225
3 226 77 227
3 229 228 77
3 230 1 231
3 233 232 18
3 56 39 2
3 234 39 235
3 236 235 56
3 234 235 236
3 238 237 39
3 60 239 241
3 241 240 3
3 239 240 241
3 243 242 60
3 245 244 10
3 78 246 247
3 78 248 250
3 248 5 249
3 248 249 250
3 64 41 4
3 79 41 64
3 79 19 41
3 43 79 12
3 80 79 43
3 80 19 79
3 80 78 19
3 81 78 80
3 81 5 78
3 81 75 5
3 82 75 81
3 82 17 75
3 45 82 20
3 83 82 45
3 83 17 82
3 83 251 253
3 253 252 17
3 251 252 253
3 255 254 83
3 84 85 0
3 86 85 84
3 86 22 85
3 47 86 21
3 87 86 47
3 87 22 86
3 87 256 258
3 258 257 22
3 256 257 258
3 88 259 261
3 261 260 87
3 259 260 261
3 88 262 263
3 68 48 6
3 89 48 68
3 89 23 48
3 50 89 14
3 90 89 50
3 90 23 89
3 90 88 23
3 264 88 265
3 266 265 90
3 264 265 266
3 268 267 88
3 77 35 1
3 91 35 77
3 91 15 35
3 269 91 270
3 92 271 273
3 271 91 272
3 271 272 273
3 92 15 91
3 92 71 15
3 274 71 275
3 276 275 92
3 274 275 276
3 278 277 71
3 93 279 280
3 93 281 283
3 281 3 282
3 281 282 283
3 72 284 285
3 94 286 288
3 288 287 72
3 286 287 288
3 94 289 291
3 289 24 290
3 289 290 291
3 52 94 16
3 95 94 52
3 95 24 94
3 95 93 24
3 96 93 95
3 96 3 93
3 96 59 3
3 97 59 96
3 97 9 59
3 54 97 25
3 98 97 54
3 98 9 97
3 98 29 9
3 84 29 98
3 84 0 29
3 85 28 0
3 99 28 85
3 99 8 28
3 292 99 293
3 294 293 22
3 292 293 294
3 295 99 296
3 297 8 298
3 299 298 99
3 297 298 299
3 301 300 8
3 76 302 304
3 304 303 5
3 302 303 304
3 306 305 76
