ply
format ascii 1.0
element vertex 349
property float x
property float y
property float z
element face 321
property list uchar int vertex_index
end_header
-41.798634 -31.329998 13.8415
-46.807205 -32.965546 18.749395
-44.756683 -22.579742 18.124792
-39.664848 -20.809399 14.168738
-39.208244 -17.659943 6.829954
-41.352806 -13.170429 -2.149315
-48.986599 -16.887413 17.301851
-45.030689 -16.202385 16.810495
-38.944008 -19.37776 10.828504
-51.179359 -32.650898 20.429878
-53.203564 -36.853935 21.227669
-42.06226 -27.699593 16.923021
-40.213482 -26.59182 14.318583
-41.590038 -21.90959 16.620552
-41.981724 -15.196495 15.608088
-49.724144 -28.001244 19.833874
-45.326813 -28.153057 18.694958
-39.782921 -24.946905 10.924019
-40.50581 -22.907892 6.925001
-40.12888 -15.616653 2.434668
-42.483212 -32.061962 15.289163
-48.882099 -32.878696 19.634195
-49.886223 -35.034977 19.791252
-43.155708 -25.266495 17.785664
-41.702026 -24.922798 16.862364
-43.024281 -22.30377 17.484381
-43.384705 -15.73524 16.316578
-46.758492 -22.735498 18.578247
-46.978359 -25.529217 19.028362
-44.926704 -25.467014 18.495619
-43.529541 -28.009785 17.906446
-39.817978 -23.83798 14.319148
-39.832504 -25.826151 12.710169
-39.381557 -23.12796 12.713543
-38.971882 -18.555414 8.894548
-39.392601 -21.444553 8.955249
-39.758186 -20.482676 6.865612
-41.17466 -21.757935 4.765804
-40.299843 -19.43639 4.677371
-40.723278 -14.448427 0.156204
-41.711281 -17.046587 0.111597
-42.488029 -15.677099 -2.22296
-54.374107 -38.834183 21.855862
-46.741974 -19.754559 17.946259
-44.801491 -19.489067 17.564081
-46.905571 -16.588326 17.122948
-48.90266 -19.91922 18.190369
-39.717228 -17.506657 13.888338
-39.16412 -20.130053 12.597511
-39.14146 -16.830109 12.390396
-38.818962 -16.094051 10.696119
-38.72216 -15.296715 8.837772
-54.521935 -34.458893 21.70425
-52.131721 -34.799564 20.768034
-51.040421 -37.075165 20.048561
-41.584404 -29.757563 15.579191
-40.871815 -29.082378 14.156003
-40.953476 -27.22286 15.727286
-40.587627 -24.441957 15.70703
-40.469601 -21.406923 15.515164
-43.113129 -19.122866 16.993176
-41.697811 -18.66292 16.198502
-40.565891 -18.120367 15.163157
-52.845329 -30.092628 20.73307
-50.369415 -30.390173 20.14362
-48.04998 -30.58691 19.502865
-47.410423 -28.14225 19.321884
-45.957397 -30.64764 18.760242
-44.152153 -30.541162 17.875061
-42.683067 -30.246643 16.819256
-40.538868 -28.241394 12.562476
-40.558388 -27.260359 10.817497
-40.887318 -26.163616 8.942005
-39.252159 -22.327009 10.91534
-40.023869 -23.971035 8.986475
-38.817013 -14.432506 6.848727
-39.064972 -13.493931 4.760151
-39.609135 -16.68372 4.667158
-40.967144 -18.29538 2.418175
-55.506256 -36.521893 22.367867
-56.55843 -38.527313 23.208424
-57.661674 -40.493271 24.226547
-41.652912 -30.865476 13.051949
-42.2661 -31.833763 12.835975
-42.393908 -32.345061 13.627751
-42.736197 -32.711043 14.351583
-42.140923 -31.69598 14.565331
-42.2661 -31.833763 12.835975
-42.393908 -32.345061 13.627751
-47.3326 -34.045105 18.742902
-48.370047 -34.00168 19.185302
-47.844652 -32.922121 19.191795
-41.038042 -13.809428 -0.996556
-40.291865 -12.906757 0.271869
-40.606628 -12.267758 -0.880891
-42.306549 -13.673619 -3.359723
-42.874161 -14.926954 -3.396546
-41.920417 -14.423764 -2.186138
-48.944629 -18.403316 17.74611
-50.071664 -18.509352 17.798271
-50.113634 -16.993448 17.354011
-39.532778 -15.386996 12.944838
-39.429344 -17.168383 13.139367
-39.820661 -15.72527 13.69381
-38.821528 -14.292193 10.616668
-39.040011 -14.668037 11.405058
-38.773127 -13.893525 9.687494
-38.770561 -15.695383 9.766945
-38.821528 -14.292193 10.616668
-51.65554 -33.725231 20.598956
-52.879289 -33.560255 20.97432
-52.403109 -32.485922 20.805242
-50.064694 -37.110287 19.424104
-50.463322 -36.055071 19.919906
-49.487595 -36.090193 19.295449
-50.7599 -38.063197 19.526983
-50.064694 -37.110287 19.424104
-41.405045 -14.896574 15.138455
-40.697128 -16.35851 14.91599
-41.273808 -16.658431 15.385623
-53.805523 -28.76982 20.738125
-54.121807 -29.909557 21.030473
-50.046779 -29.195709 19.988747
-51.285308 -29.074994 20.215398
-50.962673 -27.88053 20.060525
-40.988928 -23.938409 6.940743
-40.747957 -24.469981 7.97148
-40.264839 -23.439464 7.955738
-41.379711 -23.296168 5.90223
-40.988928 -23.938409 6.940743
-42.173466 -22.033009 3.746437
-41.575037 -21.135725 3.649155
-38.67533 -12.626093 6.887877
-38.704029 -13.058615 7.823457
-39.596926 -14.555292 3.597409
-39.245342 -12.983708 3.679597
-39.777297 -14.04507 2.516856
-42.283247 -18.103913 0.178686
-42.738615 -17.365984 -0.982485
-56.092106 -39.644798 22.936904
-55.466268 -38.680748 22.532143
-54.999944 -39.798233 22.260623
-56.643728 -40.627777 23.445965
-57.110052 -39.510292 23.717486
-56.092106 -39.644798 22.936904
-43.062836 -33.109472 15.099909
-43.023026 -32.319948 15.940133
-43.062836 -33.109472 15.099909
-42.736197 -32.711043 14.351583
-49.099097 -15.287768 16.766263
-50.179586 -15.468547 16.792288
-50.179586 -15.468547 16.792288
-50.113634 -16.993448 17.354011
-48.872108 -35.07982 19.26383
-49.384161 -33.956836 19.712723
-48.370047 -34.00168 19.185302
-49.487595 -36.090193 19.295449
-48.872108 -35.07982 19.26383
-44.392996 -14.236231 16.09518
-44.207697 -15.968812 16.563536
-45.215988 -14.469804 16.342139
-43.587147 -13.948815 15.892983
-44.392996 -14.236231 16.09518
-42.885656 -13.679443 15.538738
-42.683214 -15.465867 15.962333
-43.587147 -13.948815 15.892983
-42.18458 -13.365406 15.237782
-42.885656 -13.679443 15.538738
-50.718935 -26.654736 19.804088
-50.962673 -27.88053 20.060525
-46.868426 -24.132357 18.803305
-47.983415 -24.153744 18.962465
-47.873482 -22.756884 18.737407
-41.137629 -19.974953 3.604939
-41.575037 -21.135725 3.649155
-40.737251 -20.597162 4.721588
-40.074495 -13.460956 1.377623
-40.291865 -12.906757 0.271869
-40.426079 -15.03254 1.295436
-39.777297 -14.04507 2.516856
-40.074495 -13.460956 1.377623
-43.126989 -16.68124 -2.149763
-42.738615 -17.365984 -0.982485
-42.099655 -16.361843 -1.055681
-43.577247 -15.874364 -3.321199
-43.126989 -16.68124 -2.149763
-43.577247 -15.874364 -3.321199
-42.874161 -14.926954 -3.396546
-53.349058 -38.927822 21.159458
-53.788836 -37.844059 21.541765
-52.763786 -37.937698 20.845362
-54.04612 -39.86652 21.458068
-53.349058 -38.927822 21.159458
-54.999944 -39.798233 22.260623
-54.04612 -39.86652 21.458068
-46.458034 -33.996865 18.163555
-45.912075 -32.920069 18.2457
-48.058582 -15.138225 16.676811
-47.946085 -16.737869 17.2124
-49.099097 -15.287768 16.766263
-47.059548 -14.918549 16.617758
-48.058582 -15.138225 16.676811
-46.122107 -14.725579 16.461531
-45.96813 -16.395356 16.966721
-47.059548 -14.918549 16.617758
-45.215988 -14.469804 16.342139
-46.122107 -14.725579 16.461531
-50.071344 -19.954597 18.274374
-50.071664 -18.509352 17.798271
-48.945566 -21.348745 18.543468
-50.071344 -19.954597 18.274374
-47.830576 -21.327359 18.384308
-47.873482 -22.756884 18.737407
-48.945566 -21.348745 18.543468
-39.20126 -15.036066 12.252197
-39.532778 -15.386996 12.944838
-38.980211 -16.46208 11.543257
-39.20126 -15.036066 12.252197
-39.040011 -14.668037 11.405058
-40.844009 -11.667647 -2.003115
-40.606628 -12.267758 -0.880891
-41.669043 -12.473783 -3.30836
-40.844009 -11.667647 -2.003115
-54.074396 -33.38992 21.442428
-55.332217 -33.190814 21.821083
-53.326828 -34.629228 21.236142
-54.074396 -33.38992 21.442428
-52.879289 -33.560255 20.97432
-51.682215 -38.048313 20.255808
-52.763786 -37.937698 20.845362
-52.121993 -36.96455 20.638115
-51.682215 -38.048313 20.255808
-50.7599 -38.063197 19.526983
-47.3326 -34.045105 18.742902
-46.458034 -33.996865 18.163555
-40.272796 -16.051655 14.278581
-40.141559 -17.813512 14.525747
-40.697128 -16.35851 14.91599
-39.820661 -15.72527 13.69381
-40.272796 -16.051655 14.278581
-41.405045 -14.896574 15.138455
-42.18458 -13.365406 15.237782
-53.236093 -31.206787 20.956838
-54.121807 -29.909557 21.030473
-52.012344 -31.371763 20.581474
-52.403109 -32.485922 20.805242
-53.236093 -31.206787 20.956838
-52.523266 -28.926222 20.510123
-53.805523 -28.76982 20.738125
-51.607372 -30.241401 20.438345
-52.523266 -28.926222 20.510123
-51.285308 -29.074994 20.215398
-49.492586 -26.734965 19.634146
-50.718935 -26.654736 19.804088
-48.119693 -25.498951 19.23139
-47.983415 -24.153744 18.962465
-48.335726 -26.805467 19.378151
-48.119693 -25.498951 19.23139
-47.194391 -26.835733 19.175123
-48.567284 -28.071747 19.577879
-49.492586 -26.734965 19.634146
-48.335726 -26.805467 19.378151
-45.487171 -31.761116 18.251123
-45.912075 -32.920069 18.2457
-46.382301 -31.806593 18.754818
-44.584549 -31.707877 17.808532
-45.487171 -31.761116 18.251123
-45.054775 -30.594401 18.317652
-43.857496 -31.559548 17.233082
-44.584549 -31.707877 17.808532
-43.122954 -31.412288 16.705179
-43.857496 -31.559548 17.233082
-43.41761 -30.393902 17.347158
-42.58314 -31.154303 16.054209
-43.023026 -32.319948 15.940133
-43.122954 -31.412288 16.705179
-41.189503 -29.741667 13.209201
-41.652912 -30.865476 13.051949
-41.335224 -30.206188 13.998752
-41.023029 -29.321174 12.412437
-41.189503 -29.741667 13.209201
-40.705342 -28.661886 13.35924
-41.061617 -28.772359 11.565787
-41.023029 -29.321174 12.412437
-41.071377 -28.281841 10.693298
-41.061617 -28.772359 11.565787
-40.548628 -27.750877 11.689986
-41.272741 -27.664003 9.797622
-41.071377 -28.281841 10.693298
-41.437207 -27.115631 8.859876
-41.272741 -27.664003 9.797622
-40.722853 -26.711987 9.879751
-41.77328 -26.441819 7.921663
-41.437207 -27.115631 8.859876
-41.179682 -25.566271 7.949245
-40.455593 -25.067326 8.96424
-40.747957 -24.469981 7.97148
-41.77328 -26.441819 7.921663
-41.179682 -25.566271 7.949245
-41.714137 -22.72119 4.822631
-41.379711 -23.296168 5.90223
-40.840235 -22.332914 5.845403
-41.714137 -22.72119 4.822631
-42.173466 -22.033009 3.746437
-38.656603 -13.490719 8.817979
-38.773127 -13.893525 9.687494
-38.769587 -14.864611 7.843249
-38.656603 -13.490719 8.817979
-38.704029 -13.058615 7.823457
-38.842115 -11.692027 4.8559
-39.245342 -12.983708 3.679597
-38.799309 -12.156806 5.843589
-38.842115 -11.692027 4.8559
-38.940993 -13.963218 5.804439
-38.67533 -12.626093 6.887877
-38.799309 -12.156806 5.843589
-41.471279 -19.404448 2.475341
-41.137629 -19.974953 3.604939
-40.633494 -18.865885 3.547773
-41.911178 -18.72831 1.331975
-41.339213 -17.670983 1.264886
-42.283247 -18.103913 0.178686
-41.471279 -19.404448 2.475341
-41.911178 -18.72831 1.331975
-42.306549 -13.673619 -3.359723
-41.669043 -12.473783 -3.30836
-55.747273 -34.253023 22.17514
-55.332217 -33.190814 21.821083
-56.239433 -35.284523 22.506949
-55.747273 -34.253023 22.17514
-55.014095 -35.490393 22.036058
-56.684365 -36.317039 22.938728
-56.239433 -35.284523 22.506949
-57.210452 -37.31975 23.359007
-56.684365 -36.317039 22.938728
-56.032343 -37.524603 22.788145
-57.674021 -38.329548 23.881878
-57.210452 -37.31975 23.359007
-58.225643 -39.312527 24.39094
-57.674021 -38.329548 23.881878
-57.110052 -39.510292 23.717486
-58.699687 -40.306557 24.999541
-58.225643 -39.312527 24.39094
-57.302492 -41.576359 23.92953
-56.643728 -40.627777 23.445965
-58.232489 -41.46454 24.806988
-57.302492 -41.576359 23.92953
-58.699687 -40.306557 24.999541
-58.232489 -41.46454 24.806988
3 0 82 83
3 0 84 86
3 86 85 20
3 84 85 86
3 0 87 88
3 1 89 91
3 91 90 21
3 89 90 91
3 2 25 23
3 2 29 27
3 2 23 29
3 3 33 31
3 4 36 34
3 4 38 36
3 5 92 94
3 92 39 93
3 92 93 94
3 5 41 39
3 5 95 97
3 97 96 41
3 95 96 97
3 6 45 43
3 6 98 100
3 98 46 99
3 98 99 100
3 6 43 46
3 101 49 102
3 103 102 47
3 101 102 103
3 104 50 105
3 106 51 107
3 108 107 50
3 106 107 108
3 9 109 111
3 109 53 110
3 109 110 111
3 112 54 113
3 114 113 22
3 112 113 114
3 116 115 54
3 11 57 55
3 13 58 24
3 13 59 58
3 7 60 44
3 14 61 26
3 14 62 61
3 14 117 119
3 119 118 62
3 117 118 119
3 120 63 121
3 15 122 124
3 122 64 123
3 122 123 124
3 15 65 64
3 16 66 28
3 16 67 66
3 16 68 67
3 11 69 30
3 11 55 69
3 12 70 56
3 17 71 32
3 17 72 71
3 8 73 48
3 18 74 35
3 18 125 127
3 127 126 74
3 125 126 127
3 18 128 129
3 131 130 37
3 132 75 133
3 19 134 136
3 134 76 135
3 134 135 136
3 19 77 76
3 19 78 77
3 138 137 40
3 10 79 52
3 139 80 140
3 141 140 42
3 139 140 141
3 142 81 143
3 144 143 80
3 142 143 144
3 20 145 146
3 148 147 20
3 150 149 6
3 151 6 152
3 21 22 9
3 153 22 154
3 155 154 21
3 153 154 155
3 157 156 22
3 23 24 11
3 25 24 23
3 25 13 24
3 158 26 159
3 160 159 7
3 158 159 160
3 161 26 162
3 163 14 164
3 165 164 26
3 163 164 165
3 167 166 14
3 168 15 169
3 27 170 172
3 170 28 171
3 170 171 172
3 29 28 27
3 29 16 28
3 29 30 16
3 23 30 29
3 23 11 30
3 31 32 12
3 33 32 31
3 33 17 32
3 34 35 8
3 36 35 34
3 36 18 35
3 36 37 18
3 38 37 36
3 38 173 175
3 175 174 37
3 173 174 175
3 39 176 177
3 39 178 180
3 178 19 179
3 178 179 180
3 39 40 19
3 41 40 39
3 41 181 183
3 183 182 40
3 181 182 183
3 41 184 185
3 187 186 41
3 188 42 189
3 190 189 10
3 188 189 190
3 191 42 192
3 194 193 42
3 196 195 1
3 43 44 2
3 45 44 43
3 45 7 44
3 197 45 198
3 199 198 6
3 197 198 199
3 200 45 201
3 202 7 203
3 204 203 45
3 202 203 204
3 206 205 7
3 46 207 208
3 46 209 210
3 46 211 213
3 211 27 212
3 211 212 213
3 43 27 46
3 43 2 27
3 47 48 3
3 49 48 47
3 49 8 48
3 214 49 215
3 50 216 218
3 216 49 217
3 216 217 218
3 50 8 49
3 50 34 8
3 51 34 50
3 51 4 34
3 219 5 220
3 222 221 5
3 223 52 224
3 53 225 227
3 225 52 226
3 225 226 227
3 53 10 52
3 22 53 9
3 54 53 22
3 54 10 53
3 54 228 230
3 230 229 10
3 228 229 230
3 232 231 54
3 234 233 1
3 55 56 0
3 57 56 55
3 57 12 56
3 24 57 11
3 58 57 24
3 58 12 57
3 58 31 12
3 59 31 58
3 59 3 31
3 44 25 2
3 60 25 44
3 60 13 25
3 26 60 7
3 61 60 26
3 61 13 60
3 61 59 13
3 62 59 61
3 62 3 59
3 62 47 3
3 235 47 236
3 237 236 62
3 235 236 237
3 239 238 47
3 241 240 14
3 63 242 243
3 63 244 246
3 244 9 245
3 244 245 246
3 247 63 248
3 64 249 251
3 249 63 250
3 249 250 251
3 64 9 63
3 64 21 9
3 65 21 64
3 65 1 21
3 252 15 253
3 28 254 255
3 66 256 258
3 258 257 28
3 256 257 258
3 66 259 261
3 259 15 260
3 259 260 261
3 66 65 15
3 67 65 66
3 67 1 65
3 67 262 264
3 264 263 1
3 262 263 264
3 68 265 267
3 267 266 67
3 265 266 267
3 68 268 269
3 30 68 16
3 69 68 30
3 69 270 272
3 272 271 68
3 270 271 272
3 69 273 275
3 273 20 274
3 273 274 275
3 55 20 69
3 55 0 20
3 56 276 278
3 278 277 0
3 276 277 278
3 70 279 281
3 281 280 56
3 279 280 281
3 70 282 283
3 32 70 12
3 71 70 32
3 71 284 286
3 286 285 70
3 284 285 286
3 71 287 288
3 72 289 291
3 291 290 71
3 289 290 291
3 72 292 293
3 48 33 3
3 73 33 48
3 73 17 33
3 35 73 8
3 74 73 35
3 74 17 73
3 74 72 17
3 294 72 295
3 296 295 74
3 294 295 296
3 298 297 72
3 37 299 301
3 301 300 18
3 299 300 301
3 303 302 37
3 304 51 305
3 75 306 308
3 306 51 307
3 306 307 308
3 75 4 51
3 76 309 310
3 76 311 312
3 76 313 315
3 313 75 314
3 313 314 315
3 77 75 76
3 77 4 75
3 77 38 4
3 78 38 77
3 78 316 318
3 318 317 38
3 316 317 318
3 40 78 19
3 319 78 320
3 321 320 40
3 319 320 321
3 323 322 78
3 325 324 5
3 52 326 327
3 79 328 330
3 330 329 52
3 328 329 330
3 79 331 332
3 42 79 10
3 80 79 42
3 80 333 335
3 335 334 79
3 333 334 335
3 80 336 337
3 81 338 340
3 340 339 80
3 338 339 340
3 81 341 342
3 343 81 344
3 345 81 346
3 348 347 81
