ply
format ascii 1.0
element vertex 247
property float x
property float y
property float z
element face 241
property list uchar int vertex_index
end_header
34.883873 -93.958 -23.873701
9.300985 -108.816353 -16.79817
21.810196 -104.282059 -20.782812
18.041145 -95.172699 -18.384069
11.819756 -113.41214 -18.053396
18.169403 -111.133888 -20.073053
15.189245 -107.39949 -19.115465
22.866024 -86.820457 -19.456625
23.739681 -92.205353 -20.586348
4.878407 -108.418213 -13.251961
32.076988 -101.92276 -22.843378
28.519815 -99.698875 -22.370321
3.995409 -102.026299 -11.117901
7.853437 -103.101562 -14.985306
12.37595 -96.567963 -16.021334
13.253731 -102.538567 -17.74132
19.399494 -100.288544 -19.728331
25.662737 -96.488091 -21.596987
31.714642 -91.389351 -23.570326
7.855177 -111.489265 -15.997972
10.429506 -111.255753 -17.495035
13.359812 -110.554832 -18.682795
12.106983 -108.331833 -18.083845
19.924885 -107.833725 -20.4522
26.834398 -103.558495 -21.938547
25.186104 -102.156288 -21.571585
5.480019 -99.362823 -12.098253
5.683571 -102.755028 -13.18186
7.521385 -99.858101 -13.952452
17.748615 -92.202904 -17.667299
15.170965 -96.070877 -17.262022
12.688587 -99.685547 -16.90291
15.594797 -98.983086 -18.05266
16.279518 -101.618919 -18.787848
18.587086 -97.87133 -19.085161
26.508459 -90.177406 -21.764605
24.573399 -94.485001 -21.118666
27.500038 -92.263741 -22.201952
28.725964 -94.080887 -22.583418
14.869333 -112.496147 -19.169016
16.556129 -109.405075 -19.637976
18.452896 -106.040398 -19.984968
20.318726 -88.089989 -18.203932
20.493074 -91.116234 -18.826925
20.912064 -93.87899 -19.469767
23.17234 -89.647881 -20.020521
5.713406 -111.250885 -14.153496
6.864637 -108.843048 -15.192995
35.348866 -98.883781 -23.363348
33.508774 -98.028572 -23.320772
30.229445 -100.92923 -22.655752
31.76395 -96.950562 -23.154833
4.306446 -105.334198 -12.218699
6.142004 -105.925468 -14.239613
8.443047 -106.094955 -15.953634
9.75655 -96.670006 -14.592075
9.961521 -99.974312 -15.553358
10.411259 -103.033707 -16.497019
11.123529 -105.82386 -17.353491
14.086077 -105.111557 -18.485628
17.233332 -103.970924 -19.434153
20.477665 -102.423485 -20.293955
21.594948 -96.364487 -20.086443
22.543594 -98.568932 -20.647371
23.747129 -100.496513 -21.141756
26.987041 -98.222336 -22.014597
30.157776 -95.638931 -22.903116
33.23135 -92.790649 -23.761354
36.371542 -92.366146 -24.173639
35.758988 -94.431739 -23.878262
35.536869 -91.843235 -24.201563
36.371542 -92.366146 -24.173639
22.59373 -105.077523 -20.993567
21.651075 -106.853355 -20.82826
20.867541 -106.057892 -20.617506
23.49815 -103.219174 -21.177198
24.281684 -104.014637 -21.387953
22.59373 -105.077523 -20.993567
6.455067 -97.880234 -12.5199
5.499532 -97.575974 -11.593122
7.47575 -98.127872 -13.447
6.500702 -99.610462 -13.025353
6.455067 -97.880234 -12.5199
28.36157 -90.047428 -22.596314
27.004248 -91.220574 -21.983278
27.865781 -89.004261 -22.37764
28.93382 -91.001923 -22.756653
28.36157 -90.047428 -22.596314
11.213679 -114.679523 -17.605055
10.464116 -113.634568 -17.349728
12.635892 -114.350403 -18.275724
11.213679 -114.679523 -17.605055
13.344544 -112.954143 -18.611206
14.16068 -113.892406 -18.833534
12.635892 -114.350403 -18.275724
21.592375 -87.455223 -18.830278
21.556063 -85.915729 -18.571853
22.829712 -85.280964 -19.1982
5.295907 -109.834549 -13.702728
4.885467 -110.902687 -13.065247
4.467968 -109.486351 -12.61448
33.712927 -100.40327 -23.103363
34.68101 -100.784412 -23.122341
33.045071 -102.303901 -22.862356
19.085462 -111.861351 -20.252583
17.390798 -112.646557 -19.818781
3.428956 -101.496456 -9.996552
3.968013 -100.279843 -10.580533
3.498296 -103.193176 -10.535274
3.428956 -101.496456 -9.996552
4.150927 -103.680249 -11.6683
3.653815 -104.847126 -11.085674
3.498296 -103.193176 -10.535274
12.333115 -94.889889 -15.595467
13.681317 -94.734044 -16.247351
11.06625 -96.618985 -15.306704
11.023415 -94.940911 -14.880838
12.333115 -94.889889 -15.595467
33.166038 -89.925961 -24.033608
33.924392 -90.62661 -24.129122
32.472996 -92.09 -23.66584
8.481827 -112.67313 -16.322015
7.331764 -112.653648 -15.446837
9.768992 -112.556374 -17.070547
8.481827 -112.67313 -16.322015
9.142342 -111.372509 -16.746504
11.124631 -112.333946 -17.774216
10.464116 -113.634568 -17.349728
9.768992 -112.556374 -17.070547
23.980798 -84.558605 -19.890177
22.829712 -85.280964 -19.1982
24.086131 -86.003174 -20.125
23.980798 -84.558605 -19.890177
4.139259 -107.992981 -12.132787
4.467968 -109.486351 -12.61448
31.345634 -103.770699 -22.622961
33.045071 -102.303901 -22.862356
20.775844 -108.59565 -20.650679
19.898103 -110.245731 -20.461105
19.047144 -109.483807 -20.262627
20.775844 -108.59565 -20.650679
21.651075 -106.853355 -20.82826
25.105831 -104.71574 -21.571434
25.992629 -105.381043 -21.748979
26.010251 -102.857392 -21.755066
25.105831 -104.71574 -21.571434
24.281684 -104.014637 -21.387953
4.710318 -98.948104 -11.070709
5.499532 -97.575974 -11.593122
4.737714 -100.694561 -11.608077
3.968013 -100.279843 -10.580533
4.710318 -98.948104 -11.070709
16.36765 -92.551514 -17.070334
17.71426 -90.592693 -17.33007
15.078825 -94.485501 -16.867695
16.36765 -92.551514 -17.070334
16.45979 -94.13689 -17.464661
13.773457 -96.31942 -16.641678
13.681317 -94.734044 -16.247351
15.078825 -94.485501 -16.867695
29.546784 -91.910496 -22.947386
28.113001 -93.172314 -22.392685
28.93382 -91.001923 -22.756653
31.041123 -90.564728 -23.44084
30.220303 -92.735119 -23.076872
29.546784 -91.910496 -22.947386
32.445033 -89.175373 -23.979891
31.041123 -90.564728 -23.44084
15.740763 -113.327686 -19.366762
14.16068 -113.892406 -18.833534
16.519368 -111.815017 -19.621035
17.390798 -112.646557 -19.818781
15.740763 -113.327686 -19.366762
20.333922 -86.457352 -17.929172
21.556063 -85.915729 -18.571853
18.999316 -88.536236 -17.598387
20.333922 -86.457352 -17.929172
19.03367 -90.146446 -17.935615
17.71426 -90.592693 -17.33007
18.999316 -88.536236 -17.598387
24.239289 -87.416886 -20.406948
23.019182 -88.234169 -19.738573
24.086131 -86.003174 -20.125
24.473065 -88.732495 -20.653286
24.239289 -87.416886 -20.406948
24.756736 -90.011231 -20.9362
23.45601 -90.926617 -20.303435
24.473065 -88.732495 -20.653286
26.141125 -88.997257 -21.525328
25.12407 -91.19138 -21.175477
24.756736 -90.011231 -20.9362
27.410461 -87.916287 -22.191872
26.141125 -88.997257 -21.525328
27.865781 -89.004261 -22.37764
27.410461 -87.916287 -22.191872
5.341324 -112.274299 -13.47463
4.885467 -110.902687 -13.065247
6.260878 -112.534458 -14.524599
5.888796 -113.557873 -13.845733
5.341324 -112.274299 -13.47463
6.784292 -111.370075 -15.075734
7.331764 -112.653648 -15.446837
6.260878 -112.534458 -14.524599
36.289614 -99.203678 -23.293988
35.621758 -101.104309 -23.052981
34.68101 -100.784412 -23.122341
36.892139 -97.264526 -23.554479
36.289614 -99.203678 -23.293988
35.991484 -96.89463 -23.623085
36.892139 -97.264526 -23.554479
35.071438 -96.467026 -23.601797
35.991484 -96.89463 -23.623085
34.42882 -98.456176 -23.34206
34.196324 -95.993286 -23.597237
35.758988 -94.431739 -23.878262
35.071438 -96.467026 -23.601797
19.085462 -111.861351 -20.252583
19.898103 -110.245731 -20.461105
30.367676 -103.317039 -22.536095
31.345634 -103.770699 -22.622961
27.746381 -104.134907 -22.083679
25.992629 -105.381043 -21.748979
29.443904 -102.820275 -22.442281
27.746381 -104.134907 -22.083679
28.531921 -102.243863 -22.297149
31.153216 -101.425995 -22.749565
30.367676 -103.317039 -22.536095
29.443904 -102.820275 -22.442281
3.853278 -106.450974 -11.616156
3.653815 -104.847126 -11.085674
4.592427 -106.876205 -12.73533
4.139259 -107.992981 -12.132787
3.853278 -106.450974 -11.616156
9.763827 -94.912278 -14.145988
11.023415 -94.940911 -14.880838
8.593333 -96.533825 -13.766811
9.763827 -94.912278 -14.145988
8.638967 -98.264054 -14.272263
7.47575 -98.127872 -13.447
8.593333 -96.533825 -13.766811
34.710607 -91.259559 -24.14539
35.536869 -91.843235 -24.201563
34.057612 -93.374325 -23.817528
34.710607 -91.259559 -24.14539
33.924392 -90.62661 -24.129122
33.166038 -89.925961 -24.033608
32.445033 -89.175373 -23.979891
3 0 68 69
3 0 70 71
3 1 20 19
3 1 22 20
3 2 72 74
3 74 73 23
3 72 73 74
3 2 75 77
3 75 25 76
3 75 76 77
3 78 26 79
3 80 28 81
3 82 81 26
3 80 81 82
3 3 30 29
3 3 32 30
3 3 34 32
3 83 37 84
3 85 84 35
3 83 84 85
3 87 86 37
3 4 88 89
3 4 90 91
3 4 92 94
3 92 39 93
3 92 93 94
3 6 40 21
3 6 41 40
3 7 95 97
3 95 42 96
3 95 96 97
3 7 43 42
3 7 45 43
3 9 98 100
3 98 46 99
3 98 99 100
3 9 47 46
3 10 101 103
3 101 48 102
3 101 102 103
3 10 49 48
3 5 104 105
3 11 50 24
3 11 51 50
3 12 106 107
3 12 108 109
3 12 110 112
3 110 52 111
3 110 111 112
3 13 53 27
3 13 54 53
3 14 113 114
3 14 115 117
3 115 55 116
3 115 116 117
3 14 56 55
3 15 57 31
3 15 58 57
3 15 59 58
3 16 60 33
3 16 61 60
3 8 62 44
3 17 63 36
3 17 64 63
3 17 65 64
3 18 66 38
3 18 67 66
3 18 118 120
3 120 119 67
3 118 119 120
3 19 121 122
3 20 123 125
3 125 124 19
3 123 124 125
3 20 126 128
3 126 4 127
3 126 127 128
3 20 21 4
3 22 21 20
3 22 6 21
3 129 7 130
3 132 131 7
3 133 9 134
3 135 10 136
3 23 137 139
3 139 138 5
3 137 138 139
3 141 140 23
3 142 24 143
3 25 144 146
3 144 24 145
3 144 145 146
3 25 11 24
3 26 147 148
3 26 149 151
3 149 12 150
3 149 150 151
3 26 27 12
3 28 27 26
3 28 13 27
3 29 152 153
3 30 154 156
3 156 155 29
3 154 155 156
3 30 157 159
3 157 14 158
3 157 158 159
3 30 31 14
3 32 31 30
3 32 15 31
3 32 33 15
3 34 33 32
3 34 16 33
3 35 36 8
3 37 36 35
3 37 17 36
3 37 38 17
3 160 38 161
3 162 161 37
3 160 161 162
3 163 18 164
3 165 164 38
3 163 164 165
3 167 166 18
3 39 168 169
3 39 170 172
3 170 5 171
3 170 171 172
3 21 39 4
3 40 39 21
3 40 5 39
3 40 23 5
3 41 23 40
3 41 2 23
3 42 173 174
3 42 175 176
3 42 177 179
3 177 29 178
3 177 178 179
3 43 29 42
3 43 3 29
3 43 44 3
3 45 44 43
3 45 8 44
3 180 45 181
3 182 181 7
3 180 181 182
3 183 45 184
3 185 8 186
3 187 186 45
3 185 186 187
3 188 35 189
3 190 189 8
3 188 189 190
3 191 35 192
3 194 193 35
3 46 195 196
3 46 197 199
3 197 198 199
3 46 200 202
3 200 19 201
3 200 201 202
3 47 19 46
3 47 1 19
3 48 203 205
3 203 204 205
3 48 206 207
3 48 208 209
3 49 210 212
3 212 211 48
3 210 211 212
3 49 213 215
3 213 0 214
3 213 214 215
3 217 216 5
3 218 10 219
3 24 220 221
3 50 222 224
3 224 223 24
3 222 223 224
3 50 225 227
3 225 10 226
3 225 226 227
3 50 49 10
3 51 49 50
3 51 0 49
3 52 228 229
3 52 230 232
3 230 9 231
3 230 231 232
3 27 52 12
3 53 52 27
3 53 9 52
3 53 47 9
3 54 47 53
3 54 1 47
3 55 233 234
3 55 235 236
3 55 237 239
3 237 28 238
3 237 238 239
3 56 28 55
3 56 13 28
3 31 56 14
3 57 56 31
3 57 13 56
3 57 54 13
3 58 54 57
3 58 1 54
3 58 22 1
3 59 22 58
3 59 6 22
3 33 59 15
3 60 59 33
3 60 6 59
3 60 41 6
3 61 41 60
3 61 2 41
3 44 34 3
3 62 34 44
3 62 16 34
3 36 62 8
3 63 62 36
3 63 16 62
3 63 61 16
3 64 61 63
3 64 2 61
3 64 25 2
3 65 25 64
3 65 11 25
3 38 65 17
3 66 65 38
3 66 11 65
3 66 51 11
3 67 51 66
3 67 0 51
3 67 240 242
3 242 241 0
3 240 241 242
3 244 243 67
3 246 245 18
