ply
format ascii 1.0
element vertex 359
property float x
property float y
property float z
element face 320
property list uchar int vertex_index
end_header
-45.80938 15.642223 38.344353
-40.317791 -4.66053 64.306519
-46.682701 0.527075 58.645046
-38.841068 5.182144 61.323772
-48.75684 -2.412584 56.196465
-39.76709 0.000277 62.275642
-35.015308 1.628941 62.763058
-34.10717 7.138123 62.205624
-41.428703 -11.482846 64.165771
-49.334461 11.249023 40.793789
-53.223793 1.502495 48.769699
-51.24387 -0.37328 52.71106
-43.582825 -1.994761 61.350338
-43.234386 3.065159 60.228954
-42.203144 8.572918 59.754978
-37.963593 10.976219 61.269012
-51.974918 6.064852 47.689659
-49.092793 10.469025 45.829998
-45.876213 15.14904 43.508587
-51.466614 9.78027 39.455772
-51.159618 9.251759 41.933613
-47.901646 -0.905598 57.544605
-49.210823 0.18136 55.973801
-48.030216 1.703678 57.223236
-46.533501 3.154596 58.270065
-41.830788 -5.624036 63.741417
-43.375687 -4.398436 62.101311
-41.943733 -3.311235 62.770561
-39.322247 2.514891 61.648499
-41.545975 1.553225 61.236565
-41.118256 4.165165 60.814346
-42.76836 5.75901 59.926296
-40.619545 6.915457 60.615829
-40.110592 9.80497 60.557072
-38.376278 8.005236 61.23901
-31.779814 8.171505 62.591892
-33.824345 10.13666 62.256306
-52.163975 3.022606 50.467167
-52.866383 3.822861 48.3386
-51.493439 5.395241 49.928669
-48.973675 10.053118 48.287571
-47.451378 12.431936 47.250237
-47.441952 12.746099 44.704849
-45.977646 14.911831 46.117935
-46.46109 -2.038544 59.050713
-40.11665 -2.379883 63.190464
-37.969158 -1.577709 63.434891
-37.45874 0.835835 62.539513
-36.945641 3.411493 61.998108
-36.480556 6.157261 61.783978
-34.506153 4.295441 62.326359
-32.083633 5.221262 62.66066
-42.239223 -9.111679 63.582893
-41.498901 -7.913506 64.696785
-47.496517 13.359543 39.581795
-52.292534 0.586546 50.801571
-51.33868 2.15366 52.454903
-50.063873 -1.375813 54.501621
-50.35907 1.205557 54.287788
-44.934986 -3.204438 60.551201
-45.182247 -0.712069 59.997086
-41.83876 -0.931046 61.903584
-43.525822 0.48514 60.706982
-45.111732 1.855011 59.523678
-44.760685 4.509016 59.155861
-37.614929 14.078503 61.255188
-36.094994 9.065392 61.79092
-35.795605 12.117239 61.858723
-54.064476 2.382086 46.629211
-53.486557 4.576317 46.09832
-52.392204 6.685724 45.348289
-50.379143 7.724983 49.192879
-50.663132 8.262409 46.840553
-50.905972 8.756189 44.405937
-49.194752 10.851099 43.317719
-47.437584 13.03849 42.135895
-45.799194 15.376507 40.906685
-45.886212 15.806407 37.091881
-46.739102 14.690136 37.704967
-45.106579 16.886063 37.728561
-45.886212 15.806407 37.091881
-51.976465 8.273604 42.440052
-52.188911 8.586984 41.225817
-31.692138 9.715052 62.60792
-30.662054 8.734936 62.77109
-51.195137 5.01791 50.975872
-51.828707 4.208924 50.197918
-51.530405 3.831593 51.245121
-46.744168 13.516109 47.968393
-47.426609 12.232446 48.484428
-46.007301 14.756056 47.402242
-46.714512 13.671883 46.684086
-46.744168 13.516109 47.968393
-46.166657 -3.293745 59.258625
-46.903816 -2.755637 58.44306
-37.090237 -2.375614 64.107888
-38.192841 -2.7172 64.030102
-36.237024 1.232388 62.651286
-36.530277 -0.00994 63.063534
-35.308561 0.386613 63.175307
-31.093087 4.274347 62.979826
-32.309297 3.830698 62.831272
-30.913156 5.729614 62.841149
-31.093087 4.274347 62.979826
-41.833963 -10.297263 63.874332
-42.427856 -9.779865 62.882174
-42.022596 -10.965449 63.173613
-40.823717 -8.514696 65.645038
-41.237186 -9.066419 65.111999
-40.916172 -7.401426 65.093205
-40.823717 -8.514696 65.645038
-41.522514 -12.167136 63.378267
-40.997511 -12.680802 64.385139
-42.022596 -10.965449 63.173613
-41.522514 -12.167136 63.378267
-49.445988 11.471508 39.540102
-50.512064 10.737132 38.871094
-50.400537 10.514646 40.12478
-48.415489 12.304283 40.187792
-48.527015 12.526768 38.934105
-49.445988 11.471508 39.540102
-51.768202 0.106633 51.756315
-52.076962 -0.661256 50.878784
-51.55263 -1.141169 51.833528
-49.410356 -1.894198 55.349043
-49.672016 -2.664438 54.556793
-49.018499 -3.182824 55.404215
-49.773056 1.999631 54.978445
-49.784947 0.693458 55.130795
-49.198932 1.487533 55.821452
-50.248986 2.490738 54.114199
-49.773056 1.999631 54.978445
-43.203028 7.91511 59.317667
-43.485636 6.508157 59.403326
-42.485752 7.165964 59.840637
-42.866753 9.33918 59.200002
-43.203028 7.91511 59.317667
-41.907751 10.040476 59.690275
-42.866753 9.33918 59.200002
-38.799791 11.9016 60.889873
-39.873291 11.315976 60.533903
-39.037092 10.390595 60.913042
-37.789261 12.527361 61.2621
-38.625459 13.452742 60.882961
-38.799791 11.9016 60.889873
-34.716082 12.689612 62.076897
-34.809975 11.126949 62.057514
-33.730452 11.699323 62.275689
-35.679701 13.701844 61.834167
-34.716082 12.689612 62.076897
-53.644134 1.94229 47.699455
-54.067884 1.232725 46.787914
-53.647543 0.792929 47.858158
-49.577534 8.635329 49.914234
-50.187801 7.41013 50.302321
-34.069349 0.738865 63.245778
-35.308561 0.386613 63.175307
-33.775135 2.034537 62.882471
-34.069349 0.738865 63.245778
-41.202087 -10.851089 64.846493
-40.86894 -12.02318 65.164024
-40.86894 -12.02318 65.164024
-40.997511 -12.680802 64.385139
-52.342409 8.85124 39.986897
-52.581413 9.178716 38.77006
-51.313116 9.516015 40.694693
-52.342409 8.85124 39.986897
-52.188911 8.586984 41.225817
-50.930532 -1.650634 52.766383
-51.55263 -1.141169 51.833528
-48.608629 2.248692 56.446169
-49.198932 1.487533 55.821452
-48.62052 0.942519 56.598518
-47.886721 3.028252 57.046915
-48.608629 2.248692 56.446169
-47.138363 3.753711 57.570329
-47.886721 3.028252 57.046915
-47.281858 2.429137 57.746651
-46.299654 4.501476 58.099004
-47.138363 3.753711 57.570329
-42.603237 -5.011236 62.921364
-43.144177 -5.578702 62.487812
-42.371727 -6.191502 63.307865
-32.714404 10.69763 62.440127
-32.802079 9.154082 62.424099
-31.692138 9.715052 62.60792
-33.730452 11.699323 62.275689
-32.714404 10.69763 62.440127
-48.187758 11.043036 49.003096
-48.8748 9.799397 49.46158
-48.212526 11.242527 47.768904
-48.187758 11.043036 49.003096
-47.426609 12.232446 48.484428
-48.313715 -3.694619 56.27706
-49.018499 -3.182824 55.404215
-48.051691 -2.942657 57.015936
-48.313715 -3.694619 56.27706
-47.624094 -2.189164 57.690006
-48.329243 -1.659091 56.870535
-48.051691 -2.942657 57.015936
-47.181368 -1.472071 58.297659
-47.624094 -2.189164 57.690006
-46.903816 -2.755637 58.44306
-39.266587 -3.118287 63.907888
-40.21722 -3.520206 63.748492
-39.367157 -4.25861 64.465916
-39.042904 -1.978796 63.312677
-39.266587 -3.118287 63.907888
-38.192841 -2.7172 64.030102
-36.785486 -1.216712 63.511223
-37.090237 -2.375614 64.107888
-37.713949 -0.370937 62.987202
-36.785486 -1.216712 63.511223
-36.530277 -0.00994 63.063534
-33.520557 3.367788 62.664121
-34.76073 2.962191 62.544708
-33.775135 2.034537 62.882471
-33.294893 4.758351 62.49351
-33.520557 3.367788 62.664121
-32.309297 3.830698 62.831272
-30.761246 7.204735 62.806764
-31.931723 6.696383 62.626276
-30.913156 5.729614 62.841149
-30.662054 8.734936 62.77109
-30.761246 7.204735 62.806764
-42.907375 -8.580068 62.63775
-42.427856 -9.779865 62.882174
-42.575945 -7.935323 63.228603
-42.907375 -8.580068 62.63775
-41.607347 -9.665506 64.555053
-41.833963 -10.297263 63.874332
-41.202087 -10.851089 64.846493
-41.869062 -8.512593 64.139839
-41.607347 -9.665506 64.555053
-41.237186 -9.066419 65.111999
-42.205783 -7.336237 63.785549
-42.575945 -7.935323 63.228603
-41.869062 -8.512593 64.139839
-41.664845 -6.768771 64.219101
-42.371727 -6.191502 63.307865
-42.205783 -7.336237 63.785549
-41.082116 -6.256692 64.615521
-41.664845 -6.768771 64.219101
-40.916172 -7.401426 65.093205
-40.325617 -5.774938 64.898072
-41.074289 -5.142283 64.023968
-41.082116 -6.256692 64.615521
-39.529763 -5.353576 65.144165
-40.325617 -5.774938 64.898072
-39.367157 -4.25861 64.465916
-39.529763 -5.353576 65.144165
-51.662489 10.066199 38.223103
-52.581413 9.178716 38.77006
-51.662489 10.066199 38.223103
-50.512064 10.737132 38.871094
-47.58267 13.548796 38.323689
-48.527015 12.526768 38.934105
-46.652948 14.500883 38.963074
-46.739102 14.690136 37.704967
-47.58267 13.548796 38.323689
-53.116451 0.299299 48.883839
-53.647543 0.792929 47.858158
-52.650822 -0.158675 49.899775
-52.076962 -0.661256 50.878784
-52.758164 1.04452 49.785635
-53.116451 0.299299 48.883839
-52.650822 -0.158675 49.899775
-51.117757 3.397119 52.238989
-51.530405 3.831593 51.245121
-51.751328 2.588133 51.461035
-50.340534 -2.1519 53.661663
-49.672016 -2.664438 54.556793
-50.653872 -0.874547 53.606341
-50.930532 -1.650634 52.766383
-50.340534 -2.1519 53.661663
-50.73879 2.96479 53.197756
-50.848875 1.679609 53.371346
-50.248986 2.490738 54.114199
-51.117757 3.397119 52.238989
-50.73879 2.96479 53.197756
-43.877896 -5.020019 61.618294
-43.144177 -5.578702 62.487812
-44.657545 -4.42302 60.843239
-43.877896 -5.020019 61.618294
-44.155337 -3.801437 61.326256
-45.403605 -3.876692 60.008869
-44.657545 -4.42302 60.843239
-45.698038 -2.621491 59.800957
-46.166657 -3.293745 59.258625
-45.403605 -3.876692 60.008869
-45.413246 5.178686 58.541902
-46.299654 4.501476 58.099004
-45.647093 3.831806 58.712963
-44.481798 5.883159 59.018108
-43.764522 5.134013 59.541078
-43.485636 6.508157 59.403326
-45.413246 5.178686 58.541902
-44.481798 5.883159 59.018108
-40.861475 10.656502 60.091322
-41.907751 10.040476 59.690275
-41.156868 9.188944 60.156025
-40.861475 10.656502 60.091322
-39.873291 11.315976 60.533903
-38.415514 15.022613 60.795321
-38.625459 13.452742 60.882961
-37.466331 15.682827 61.147991
-38.415514 15.022613 60.795321
-36.589363 14.682476 61.5324
-36.705267 13.097871 61.556956
-35.679701 13.701844 61.834167
-37.466331 15.682827 61.147991
-36.589363 14.682476 61.5324
-54.566292 1.717361 45.721474
-54.067884 1.232725 46.787914
-54.455738 2.810298 45.516834
-54.566292 1.717361 45.721474
-54.166778 3.907414 45.251389
-54.455738 2.810298 45.516834
-53.775516 3.479202 46.363765
-53.776421 4.942882 44.939789
-54.166778 3.907414 45.251389
-53.229244 5.997585 44.564774
-53.776421 4.942882 44.939789
-52.93938 5.63102 45.723304
-52.592758 6.990586 44.14739
-53.229244 5.997585 44.564774
-50.74495 6.245259 50.670215
-51.195137 5.01791 50.975872
-50.936291 6.560112 49.560774
-50.74495 6.245259 50.670215
-50.187801 7.41013 50.302321
-49.676409 8.88905 48.740225
-49.577534 8.635329 49.914234
-48.8748 9.799397 49.46158
-51.849642 8.025818 43.676214
-52.592758 6.990586 44.14739
-51.649088 7.720956 44.877113
-51.032795 9.003974 43.169775
-51.976465 8.273604 42.440052
-51.849642 8.025818 43.676214
-45.396459 16.096199 46.839472
-46.007301 14.756056 47.402242
-45.331963 16.220236 45.518955
-45.396459 16.096199 46.839472
-45.281246 16.33884 44.214281
-45.926929 15.030435 44.813261
-45.331963 16.220236 45.518955
-45.202282 16.431769 42.891084
-45.281246 16.33884 44.214281
-45.163773 16.545502 41.590134
-45.837704 15.262773 42.207636
-45.202282 16.431769 42.891084
-45.105228 16.638592 40.284659
-45.163773 16.545502 41.590134
-45.110321 16.77145 39.003493
-45.804287 15.509365 39.625519
-45.105228 16.638592 40.284659
-45.106579 16.886063 37.728561
-45.110321 16.77145 39.003493
3 0 77 78
3 0 79 80
3 81 20 82
3 2 23 21
3 2 24 23
3 1 27 25
3 3 30 28
3 3 32 30
3 3 34 32
3 84 83 35
3 85 39 86
3 87 86 37
3 85 86 87
3 88 41 89
3 90 43 91
3 92 91 41
3 90 91 92
3 93 44 94
3 95 46 96
3 6 97 99
3 97 47 98
3 97 98 99
3 6 48 47
3 6 50 48
3 100 51 101
3 103 102 51
3 8 104 106
3 104 52 105
3 104 105 106
3 107 53 108
3 110 109 53
3 8 111 112
3 8 113 114
3 9 115 117
3 117 116 19
3 115 116 117
3 9 118 120
3 118 54 119
3 118 119 120
3 11 121 123
3 121 55 122
3 121 122 123
3 11 56 55
3 4 124 126
3 124 57 125
3 124 125 126
3 127 58 128
3 129 128 22
3 127 128 129
3 131 130 58
3 12 59 26
3 12 60 59
3 5 61 45
3 13 62 29
3 13 63 62
3 13 64 63
3 14 132 134
3 134 133 31
3 132 133 134
3 14 135 136
3 14 137 138
3 15 139 141
3 141 140 33
3 139 140 141
3 15 142 144
3 142 65 143
3 142 143 144
3 7 66 49
3 145 67 146
3 147 146 36
3 145 146 147
3 149 148 67
3 10 150 152
3 150 68 151
3 150 151 152
3 16 69 38
3 16 70 69
3 153 71 154
3 17 72 40
3 17 73 72
3 17 74 73
3 18 75 42
3 18 76 75
3 155 6 156
3 158 157 6
3 160 159 8
3 161 8 162
3 163 19 164
3 20 165 167
3 165 19 166
3 165 166 167
3 20 9 19
3 168 11 169
3 21 22 4
3 23 22 21
3 23 170 172
3 172 171 22
3 170 171 172
3 23 173 174
3 24 175 177
3 177 176 23
3 175 176 177
3 24 178 179
3 25 180 182
3 180 26 181
3 180 181 182
3 27 26 25
3 27 12 26
3 28 29 5
3 30 29 28
3 30 13 29
3 30 31 13
3 32 31 30
3 32 14 31
3 32 33 14
3 34 33 32
3 34 15 33
3 35 36 7
3 183 36 184
3 185 184 35
3 183 184 185
3 187 186 36
3 37 38 10
3 39 38 37
3 39 16 38
3 188 40 189
3 41 190 192
3 190 40 191
3 190 191 192
3 41 17 40
3 41 42 17
3 43 42 41
3 43 18 42
3 193 4 194
3 195 4 196
3 197 21 198
3 199 198 4
3 197 198 199
3 44 200 202
3 200 21 201
3 200 201 202
3 44 2 21
3 203 45 204
3 205 204 1
3 203 204 205
3 46 206 208
3 206 45 207
3 206 207 208
3 46 5 45
3 209 46 210
3 47 211 213
3 211 46 212
3 211 212 213
3 47 5 46
3 47 28 5
3 48 28 47
3 48 3 28
3 48 49 3
3 50 49 48
3 50 7 49
3 214 50 215
3 216 215 6
3 214 215 216
3 51 217 219
3 217 50 218
3 217 218 219
3 51 7 50
3 51 35 7
3 220 35 221
3 222 221 51
3 220 221 222
3 224 223 35
3 52 225 226
3 52 227 228
3 229 52 230
3 231 230 8
3 229 230 231
3 53 232 234
3 232 52 233
3 232 233 234
3 53 235 237
3 237 236 52
3 235 236 237
3 53 238 240
3 238 25 239
3 238 239 240
3 241 25 242
3 243 242 53
3 241 242 243
3 244 1 245
3 246 245 25
3 244 245 246
3 247 1 248
3 250 249 1
3 19 251 252
3 254 253 19
3 54 255 256
3 54 257 259
3 257 0 258
3 257 258 259
3 260 10 261
3 55 262 263
3 55 264 266
3 264 10 265
3 264 265 266
3 55 37 10
3 56 37 55
3 56 267 269
3 269 268 37
3 267 268 269
3 57 270 271
3 57 272 274
3 272 11 273
3 272 273 274
3 22 57 4
3 58 57 22
3 58 11 57
3 58 56 11
3 275 56 276
3 277 276 58
3 275 276 277
3 279 278 56
3 26 280 281
3 59 282 284
3 284 283 26
3 282 283 284
3 59 285 286
3 59 287 289
3 287 44 288
3 287 288 289
3 60 44 59
3 60 2 44
3 45 27 1
3 61 27 45
3 61 12 27
3 29 61 5
3 62 61 29
3 62 12 61
3 62 60 12
3 63 60 62
3 63 2 60
3 63 24 2
3 64 24 63
3 64 290 292
3 292 291 24
3 290 291 292
3 31 64 13
3 293 64 294
3 295 294 31
3 293 294 295
3 297 296 64
3 33 298 300
3 300 299 14
3 298 299 300
3 302 301 33
3 65 303 304
3 65 305 306
3 49 34 3
3 66 34 49
3 66 15 34
3 36 66 7
3 67 66 36
3 67 15 66
3 67 65 15
3 307 65 308
3 309 308 67
3 307 308 309
3 311 310 65
3 68 312 313
3 68 314 315
3 38 68 10
3 69 68 38
3 69 316 318
3 318 317 68
3 316 317 318
3 69 319 320
3 70 321 323
3 323 322 69
3 321 322 323
3 70 324 325
3 326 39 327
3 71 328 330
3 328 39 329
3 328 329 330
3 71 16 39
3 40 331 333
3 331 71 332
3 331 332 333
3 72 71 40
3 72 16 71
3 72 70 16
3 73 70 72
3 73 334 336
3 336 335 70
3 334 335 336
3 73 337 339
3 337 20 338
3 337 338 339
3 74 20 73
3 74 9 20
3 42 74 17
3 75 74 42
3 75 9 74
3 75 54 9
3 76 54 75
3 76 0 54
3 340 43 341
3 342 43 343
3 344 18 345
3 346 345 43
3 344 345 346
3 347 18 348
3 349 76 350
3 351 350 18
3 349 350 351
3 352 76 353
3 354 0 355
3 356 355 76
3 354 355 356
3 358 357 0
