ply
format ascii 1.0
element vertex 911
property float x
property float y
property float z
element face 1116
property list uchar int vertex_index
end_header
67.789528 -19.42757 -4.882795
43.911751 15.802189 -35.057663
53.305443 2.402288 -22.084528
63.376541 -36.916237 -3.588648
52.955032 -15.226645 -4.944427
46.569439 -28.34927 10.645838
66.71154 -36.576942 9.539516
63.965462 -0.755936 -21.70075
56.434311 -37.580948 18.12295
65.849052 -41.438831 19.823408
70.77404 -41.502659 11.127046
61.9795 -15.159016 -4.201662
62.7286 -5.35404 -12.15044
66.240753 -10.14474 -12.23649
49.58984 10.340231 -29.492975
56.666946 13.048172 -31.578508
67.711342 -27.481136 -5.194647
64.499222 -20.014164 -12.483673
49.326271 -22.358913 3.234107
59.249348 -24.607212 2.368083
56.657482 -32.843224 9.430211
67.842949 -28.599941 1.464077
70.333076 -34.907848 1.982778
66.102036 -42.444275 4.71163
54.600922 -6.747833 -13.698616
60.919006 4.468479 -21.606199
57.796104 -50.355148 2.256149
68.871819 -43.531353 20.716988
65.541794 -16.67967 -4.462595
65.636208 -11.783588 -7.978813
67.167519 -14.792255 -8.300333
51.709564 6.614716 -25.945211
53.37825 12.041252 -30.935751
55.764919 8.287928 -26.542128
65.824829 -32.156998 -4.684864
64.064117 -28.919245 -8.293213
43.828804 -23.174189 7.405369
47.620766 -25.530552 7.016611
54.129723 -23.398014 2.918958
52.422123 -27.342125 6.372011
61.49139 -37.645569 13.924191
56.16375 -35.781105 13.623843
62.081169 -34.661461 9.287701
63.007133 -30.776077 5.254786
67.353683 -32.869049 5.161615
70.039818 -31.504375 1.472455
70.094284 -35.409908 5.490618
69.707367 -44.55489 12.474018
69.556877 -41.709824 7.597552
66.831978 -45.224129 9.326433
62.837784 -46.31781 6.685756
48.617195 -15.240624 -5.6171
49.653946 -11.649286 -9.99984
54.136971 -11.163432 -9.306379
64.345375 -1.95623 -16.558691
62.132408 -0.389553 -16.743315
63.079865 2.904829 -21.509916
61.415085 7.588531 -26.707346
62.676083 3.919903 -26.954645
60.957932 -41.597584 -1.947159
61.423553 -39.558739 18.934561
66.134224 -39.473938 14.5128
69.771263 -38.826637 10.154495
69.289101 -41.568695 15.302434
70.407242 -44.080833 16.302322
57.587776 -14.854855 -4.353504
58.661263 -10.309181 -8.437851
62.673309 -10.292927 -7.950308
65.219803 -6.870772 -12.010786
65.141502 -5.465304 -16.737249
46.97802 13.45784 -32.594734
50.417259 15.066658 -34.987717
68.486488 -23.136843 -5.201164
67.1968 -18.93733 -8.604527
65.996208 -23.76646 -8.655993
47.067467 -18.281122 -1.138767
45.328381 -20.887037 3.246264
51.243683 -18.93449 -0.745335
55.980228 -19.212391 -0.596561
60.760117 -19.944214 -0.833588
64.966499 -21.542572 -1.301065
51.656757 -35.140442 17.564596
50.960258 -33.52092 13.706636
51.261585 -30.827135 9.94408
57.771152 -29.001961 5.702564
64.048943 -26.302395 1.814469
68.016365 -24.053947 -1.754248
69.492043 -27.348701 -1.979799
69.25943 -31.216129 -1.774969
67.54557 -35.398148 -0.987095
70.812065 -38.395672 6.296448
68.846283 -38.614288 3.078235
64.883797 -39.664177 0.405643
61.948898 -43.885288 2.268446
59.361328 -48.021133 4.32212
50.014893 -7.500249 -14.09271
54.302692 -2.136023 -17.985441
59.03157 -5.572071 -12.81311
58.646488 -0.743353 -17.366465
57.537445 3.960196 -21.978415
59.106735 9.019344 -26.601233
65.864632 -14.713287 -12.482151
64.710243 -10.394635 -16.921347
66.851677 -17.913645 -4.670265
66.778801 -15.516396 -6.339413
67.524063 -17.110308 -6.536837
51.052647 1.790031 -21.785975
50.375923 3.967873 -23.543276
52.576557 4.561346 -24.048204
53.796394 7.450359 -26.358332
54.720745 5.389084 -24.260263
64.632828 -34.538555 -4.2103
63.783997 -33.042126 -6.066315
62.631016 -35.541653 -5.510807
44.635418 -26.863194 10.970401
44.995636 -25.704298 9.145765
46.987526 -26.996532 8.848829
49.9188 -26.476198 6.714985
49.255531 -28.135283 8.499973
64.211571 -37.187157 11.713831
61.73175 -36.281559 11.540928
64.548012 -35.589523 9.366362
64.933479 -33.773308 7.176618
67.039024 -34.811123 7.264485
68.960464 -34.080284 5.269596
68.740936 -35.947411 7.454334
68.496323 -44.850979 10.821667
42.245567 16.617836 -35.981476
50.7206 -15.351308 -5.304764
51.369476 -13.502932 -7.517155
53.627434 -13.242355 -7.112202
64.322556 -1.086798 -19.059416
63.759285 0.48698 -18.993235
63.672356 1.308258 -21.586927
62.959152 3.678213 -24.183455
63.344711 1.593655 -24.302916
61.629662 -40.116516 21.486858
63.76049 -40.489212 19.377647
63.793449 -39.643665 16.756836
65.942543 -40.5751 17.14303
67.941086 -40.474449 14.884407
67.727646 -41.568874 17.552629
69.881386 -43.83812 18.456589
70.158669 -45.133259 18.976212
59.850899 -14.874396 -4.215815
60.387146 -12.522587 -6.121214
62.401962 -12.735678 -6.020411
66.303566 -10.715299 -10.040644
65.489853 -9.328835 -9.926815
65.918221 -8.310637 -12.099409
65.451591 -5.902764 -14.297066
65.704758 -7.809825 -14.420038
48.344269 11.983711 -31.110487
48.725395 14.162834 -33.943161
50.188568 12.747189 -32.211601
55.104267 12.75095 -31.316702
53.645164 14.420033 -33.591286
68.266129 -25.249479 -5.251139
67.503021 -23.269215 -6.924158
66.850639 -25.622429 -6.896166
63.317764 -27.283476 -10.161755
45.297348 -17.514452 -1.308029
44.507465 -18.687408 0.956843
46.334236 -23.121124 5.290779
44.51981 -22.065834 5.360881
47.20435 -21.723892 3.270929
48.131699 -20.258343 1.194618
50.286186 -20.677963 1.271772
53.570419 -19.060637 -0.623219
52.615971 -21.000502 1.272275
56.687393 -23.955269 2.659515
57.557266 -21.741594 1.006392
60.022224 -22.296909 0.770197
62.973816 -20.625988 -1.05422
62.376446 -23.026134 0.504094
53.977921 -36.440571 17.801458
56.321548 -34.444744 11.474128
53.500969 -34.721561 13.615512
53.599297 -33.428284 11.592176
50.990356 -32.294369 11.803787
53.908958 -31.877621 9.647736
54.408218 -30.110271 7.792613
57.150265 -31.013964 7.506876
65.74234 -29.625259 3.309509
63.528442 -28.591806 3.472594
66.112991 -27.373184 1.603743
66.428452 -25.051901 0.002359
67.976463 -26.346193 -0.182716
68.967422 -25.615007 -1.908077
69.123596 -27.815626 -0.29372
70.427704 -33.154926 1.657136
70.074455 -31.206337 -0.202698
69.868149 -33.076073 0.041975
68.560074 -33.283966 -1.458982
69.245407 -35.021793 0.438055
70.542892 -40.111801 10.595083
70.67466 -38.548645 8.14841
70.847008 -40.006798 8.657257
68.032722 -41.998871 6.083841
69.277237 -40.184631 5.284491
67.587715 -40.521553 3.836453
67.002052 -39.02927 1.687129
65.546326 -41.050011 2.516439
63.408585 -41.783966 1.292516
63.989853 -43.067692 3.449984
60.930687 -47.087608 5.477626
58.350346 -50.042835 5.29633
52.166183 -9.452844 -11.889381
49.922184 -9.637642 -12.09156
52.289337 -7.272428 -14.008064
52.228622 -5.021706 -16.062201
54.544903 -4.450856 -15.861704
60.97477 -7.720786 -10.230671
58.940083 -7.961446 -10.595308
61.004745 -5.276271 -12.422831
61.600677 2.064314 -19.149469
60.52803 -0.360233 -17.015284
60.029289 2.066389 -19.384005
58.178715 1.640268 -19.671869
59.364311 4.434208 -21.780344
58.537544 6.713205 -24.188868
60.088486 6.796 -24.096148
60.39679 9.806341 -29.346277
65.965813 -19.307405 -10.533207
66.520668 -16.832792 -10.473677
65.270477 -17.303551 -12.524118
64.176399 -13.188217 -16.912546
64.239838 -8.183664 -19.327829
67.583427 -42.443748 20.267624
63.899109 -15.756655 -4.294352
64.178322 -13.301428 -6.04356
65.653488 -14.234179 -6.162401
66.594116 -13.11694 -8.12319
66.734161 -12.47135 -10.196491
49.575939 6.058319 -25.221121
50.712421 8.545662 -27.764975
51.524837 11.14497 -30.353426
52.729065 9.374224 -28.395132
54.645935 10.246292 -28.769384
56.406933 10.895393 -28.97611
66.875641 -29.794851 -5.010763
65.966568 -28.057095 -6.753082
64.919998 -30.539711 -6.479525
63.002968 -31.536882 -7.923498
45.57914 -24.450779 7.250484
48.418854 -23.978849 5.14687
51.653358 -22.888351 3.116664
50.73592 -24.718641 4.925393
53.231979 -25.410133 4.640667
55.840572 -26.108141 4.320829
58.815865 -37.815907 16.09338
56.198467 -36.828617 15.85162
58.860283 -36.740524 13.730452
59.066147 -35.381737 11.457982
59.415459 -33.758636 9.308353
59.885941 -31.904291 7.301451
62.515171 -32.813572 7.189537
65.340561 -31.772053 5.159175
67.629234 -30.786053 3.233824
69.169029 -29.980267 1.414013
69.110046 -32.079781 3.259053
70.124687 -33.503624 3.398748
70.638611 -35.046135 3.665154
70.479477 -42.98838 11.753277
70.503677 -41.553307 9.275522
69.694908 -43.172794 10.000082
68.333542 -43.447784 8.417397
66.53273 -43.840118 6.985398
64.486305 -44.376381 5.674238
64.877953 -45.703674 7.959088
63.170959 -47.590279 8.966499
46.689804 -14.768611 -5.811869
49.214024 -13.518174 -7.833792
51.857162 -11.535187 -9.719418
54.464645 -8.993748 -11.508141
63.848625 -3.392674 -14.251102
62.510147 -2.868872 -14.404774
63.414574 -0.913193 -16.589777
62.851837 1.546427 -19.015841
62.163631 3.967701 -21.510717
61.348427 6.328239 -24.055254
62.302711 5.279408 -24.088236
62.165215 6.003992 -26.826975
63.93615 -18.086754 -14.583599
51.596176 -0.454086 -19.95273
62.129898 -39.273033 -2.828999
61.527847 -38.020947 -4.816271
56.875027 -38.049114 20.403616
59.263672 -39.118607 20.940622
58.947033 -38.604767 18.508879
61.382256 -38.738426 16.401751
63.951393 -38.542561 14.189697
66.400032 -38.137772 11.966278
68.477715 -37.650398 9.80288
68.200745 -39.164993 12.290337
69.534805 -40.290241 12.68263
70.348495 -41.523849 13.144729
69.06147 -42.651421 17.987179
70.119965 -42.770004 15.77177
70.619125 -42.865906 13.681895
70.3582 -44.307907 14.300835
45.454914 16.341133 -36.897537
55.265434 -15.013061 -4.60784
55.927917 -12.89196 -6.700787
58.204773 -12.607283 -6.354372
60.766479 -10.137935 -8.126987
62.783417 -7.83133 -9.995237
64.315491 -10.835822 -7.90876
64.305115 -8.360764 -9.899748
64.14782 -5.878158 -12.016562
64.834976 -4.411613 -14.225552
64.916565 -3.493326 -16.622702
64.561172 -3.11234 -19.171206
45.496502 14.739616 -33.919701
47.14307 15.369572 -35.51683
48.739494 16.253601 -36.810799
51.966629 13.65469 -33.01799
68.334389 -21.182558 -5.069456
67.880577 -18.967167 -6.719448
67.86264 -21.03619 -6.857355
66.722565 -21.291771 -8.673384
65.197556 -21.902071 -10.510778
65.085922 -26.320164 -8.534065
64.289925 -24.572262 -10.390926
63.628685 -22.796854 -12.348471
46.03952 -16.215124 -3.574673
47.889511 -16.823658 -3.376789
49.938416 -17.085333 -3.104012
43.721313 -19.754219 3.19295
46.1964 -19.629995 1.074847
49.060303 -18.716381 -0.933147
52.148125 -17.120865 -2.818729
54.467804 -17.066906 -2.581409
56.835308 -17.055187 -2.436579
59.179459 -17.194983 -2.404467
55.062813 -21.328012 1.181532
58.402489 -19.485048 -0.67164
61.423637 -17.562651 -2.480434
63.490692 -18.199697 -2.641127
65.308044 -19.117655 -2.853916
66.812561 -20.306616 -3.085075
46.407455 -29.553778 12.405173
53.625977 -35.72921 15.695124
51.182426 -34.474773 15.63486
48.938202 -33.030384 15.668342
48.616501 -32.145935 13.884108
48.572323 -31.011305 12.086658
48.793945 -29.660686 10.289846
51.750534 -29.161432 8.134933
55.065479 -28.17231 6.022783
58.484482 -26.852865 3.999685
60.450592 -29.860888 5.44001
61.077789 -27.673416 3.708695
61.73217 -25.383686 2.076906
64.538086 -23.943586 0.239126
66.667427 -22.689857 -1.543482
67.95475 -21.743752 -3.303665
68.701607 -23.399883 -3.481974
69.038185 -25.242332 -3.592636
68.971481 -27.236591 -3.608341
69.829178 -29.443314 -0.307957
69.583382 -29.226542 -1.943039
68.528976 -29.347027 -3.504616
67.756927 -31.538198 -3.261705
66.718079 -33.77681 -2.867571
65.487312 -36.034073 -2.319555
69.967789 -37.192982 7.748111
70.714935 -36.852634 5.831476
70.646049 -36.688778 4.067082
70.408455 -40.020699 6.886709
70.173943 -38.408745 4.608231
69.787071 -36.736122 2.4569
68.264488 -37.014267 0.988708
66.291809 -37.53154 -0.361473
64.145782 -38.287643 -1.624479
62.77425 -40.52243 -0.797897
61.446796 -42.729561 0.136585
60.226074 -44.903427 1.147603
62.423214 -45.079933 4.451824
60.578705 -45.965652 3.294165
59.161049 -47.036522 2.195846
58.287987 -49.1129 3.233012
51.993095 -2.736271 -18.044611
53.885159 0.160019 -20.061689
56.427933 -10.699355 -8.851456
56.746574 -8.437491 -11.045645
56.873394 -6.117764 -13.266447
60.854904 -2.816315 -14.689608
58.932846 -3.15773 -15.075405
56.805748 -3.761523 -15.497112
56.547417 -1.39851 -17.723024
56.106674 0.936762 -19.932207
55.494133 3.209583 -22.11455
56.730579 6.185114 -24.273138
57.551487 8.87528 -26.593397
57.968323 11.11195 -29.102327
60.398598 8.602703 -26.629995
59.301567 10.764294 -29.214808
58.042664 12.785213 -31.788546
67.359924 -16.752205 -8.471382
66.794823 -14.532999 -10.352463
66.208519 -12.303688 -12.376837
64.667221 -15.267439 -14.652569
65.254837 -12.56971 -14.63393
65.622726 -10.058689 -14.546272
65.054779 -7.793775 -16.851885
64.514702 -5.50726 -19.27677
64.002098 -3.201441 -21.799074
63.503464 -0.884224 -24.394846
43.078659 16.210013 -35.51957
42.28149 16.215908 -34.483395
43.114582 15.808084 -34.021488
64.804771 -40.964022 19.600527
63.814728 -40.787728 20.698638
64.859009 -41.262537 20.921518
70.022152 -45.572356 20.337466
69.903672 -44.925928 20.081682
70.03143 -45.832276 19.26922
70.022152 -45.572356 20.337466
48.606571 10.127119 -28.899662
49.123949 9.192731 -28.152719
48.967055 11.161971 -30.301731
47.983785 10.948859 -29.708418
48.606571 10.127119 -28.899662
55.932621 13.925161 -32.792244
55.151281 13.77655 -32.661341
55.885607 12.899561 -31.447605
56.638023 13.842205 -32.95329
55.932621 13.925161 -32.792244
43.447738 -18.467806 2.051912
43.791403 -18.017752 0.919685
55.206116 -37.010759 17.962204
54.2659 -36.652354 18.85306
55.494095 -37.222542 19.013807
57.958637 -50.032562 1.26593
58.057798 -49.320764 1.716209
62.486653 -32.844487 -7.671538
63.393483 -32.289504 -6.994907
62.877167 -33.597109 -6.742946
62.229271 -32.134812 -8.632964
62.486653 -32.844487 -7.671538
63.291488 -48.233674 10.128125
64.163429 -47.312106 9.63125
62.340723 -48.547162 9.465075
63.291488 -48.233674 10.128125
62.300123 5.059762 -28.294207
62.04469 6.101807 -28.230372
62.420649 4.961947 -26.89081
50.649262 -1.715204 -18.877405
50.460293 -0.561125 -19.733989
60.744158 -41.0325 -2.96913
61.330141 -39.870224 -3.410049
61.543915 -40.435308 -2.388079
57.197215 -38.153525 21.534496
56.110456 -37.537089 21.192037
45.260365 17.09148 -38.376091
46.201505 16.76471 -37.672562
46.08784 13.342381 -31.767934
46.724085 12.552985 -31.141513
46.237261 14.098728 -33.257218
45.347081 13.983269 -32.430417
46.08784 13.342381 -31.767934
50.349152 16.084587 -36.404629
49.510269 16.678058 -37.31617
49.578377 15.66013 -35.899258
52.839756 15.149677 -34.681221
53.603909 15.383296 -34.97408
63.512306 -25.093853 -11.25057
63.803844 -25.927869 -10.27634
63.026226 -26.44946 -11.135984
63.181686 -24.206149 -12.229342
63.959305 -23.684558 -11.369699
63.512306 -25.093853 -11.25057
62.992096 -23.346441 -13.249657
63.181686 -24.206149 -12.229342
61.276796 -37.384844 -5.798237
60.871952 -38.667784 -5.411905
44.903359 -16.273414 -2.484827
45.226637 -15.695104 -3.611753
43.107399 -22.404897 7.445988
42.889857 -22.822319 8.452825
44.161646 -20.809791 4.311545
43.757361 -21.39919 5.368853
44.924095 -21.476436 4.303572
44.524847 -20.320628 3.219607
43.358112 -20.243382 4.284887
44.161646 -20.809791 4.311545
46.468547 -30.063121 13.262199
45.575338 -29.169099 13.387883
51.025383 -34.564165 18.344729
52.015495 -35.331341 18.518237
50.596029 -34.392536 17.492846
51.025383 -34.564165 18.344729
57.992812 -50.571973 4.746736
57.971629 -51.031416 5.723759
48.620451 -11.507043 -10.032808
48.433701 -12.40267 -8.992911
48.906846 -8.44736 -13.060953
48.860491 -9.516056 -12.060378
49.968539 -8.568945 -13.092135
48.932011 -7.381232 -13.980134
48.906846 -8.44736 -13.060953
49.976239 -6.383634 -15.044403
48.932011 -7.381232 -13.980134
59.262592 11.334081 -30.599291
59.849179 10.285317 -29.280543
59.810204 10.855104 -30.665025
58.633141 12.344541 -31.88616
58.672116 11.774753 -30.501677
59.262592 11.334081 -30.599291
57.957543 13.317256 -33.19312
58.633141 12.344541 -31.88616
64.098545 -15.686566 -15.729592
64.301685 -16.677096 -14.618084
63.733009 -17.096224 -15.695107
64.177346 -5.722105 -20.554011
64.37727 -6.845462 -19.3023
64.039914 -7.060307 -20.57954
63.921044 -4.569195 -21.815162
64.2584 -4.35435 -20.537922
64.177346 -5.722105 -20.554011
63.332477 -1.126948 -25.713108
63.497815 -2.272559 -24.401001
63.24691 0.272643 -25.717548
63.332477 -1.126948 -25.713108
57.841484 -51.061916 1.8591
57.625568 -51.300835 2.761327
50.714285 2.878952 -22.664625
49.597317 2.794872 -22.342129
49.935679 1.70595 -21.463479
62.300677 -34.846873 -6.465192
62.877167 -33.597109 -6.742946
63.207507 -34.291889 -5.788561
44.815527 -26.283746 10.058083
44.00884 -25.437289 10.186798
43.828732 -26.016737 11.099115
68.514924 -45.519417 12.052516
69.101845 -44.702934 11.647842
69.120446 -45.371372 12.878691
67.749566 -45.713949 11.272321
68.514924 -45.519417 12.052516
66.917393 -45.900525 10.524704
67.664151 -45.037554 10.07405
67.749566 -45.713949 11.272321
65.993939 -46.12903 9.811217
66.917393 -45.900525 10.524704
41.49493 16.69169 -34.861492
42.28149 16.215908 -34.483395
41.388179 16.89018 -36.324589
41.49493 16.69169 -34.861492
60.318432 -42.234634 -2.497841
60.434906 -42.739729 -1.456244
62.749313 -40.60138 21.753243
61.81839 -40.272899 22.75856
62.695076 -40.302864 20.432253
62.749313 -40.60138 21.753243
63.814728 -40.787728 20.698638
69.76503 -44.278359 19.82187
69.376603 -43.684736 19.586789
69.260246 -44.124975 20.95207
70.020027 -44.48569 18.7164
69.76503 -44.278359 19.82187
69.903672 -44.925928 20.081682
70.159775 -45.313776 17.940871
70.284062 -44.787563 16.603926
70.282955 -44.607046 17.639267
70.159775 -45.313776 17.940871
70.03143 -45.832276 19.26922
47.407209 11.815921 -30.399389
47.983785 10.948859 -29.708418
47.661144 12.720775 -31.852611
46.724085 12.552985 -31.141513
47.407209 11.815921 -30.399389
54.42173 14.611092 -33.798633
54.374716 13.585491 -32.453994
55.151281 13.77655 -32.661341
53.603909 15.383296 -34.97408
54.42173 14.611092 -33.798633
62.83485 -28.646703 -9.98805
63.69094 -28.10136 -9.227484
63.208027 -29.464588 -9.05378
62.601863 -27.863948 -10.962217
62.83485 -28.646703 -9.98805
63.026226 -26.44946 -11.135984
62.601863 -27.863948 -10.962217
44.186344 -17.431273 -0.212752
44.532273 -16.923077 -1.351505
44.902406 -18.10093 -0.175593
44.186344 -17.431273 -0.212752
43.791403 -18.017752 0.919685
53.176077 -35.981405 18.636668
54.2659 -36.652354 18.85306
52.817339 -35.790506 17.683027
52.015495 -35.331341 18.518237
53.176077 -35.981405 18.636668
61.089912 -47.679794 6.58904
61.884236 -46.702709 6.081691
62.043461 -47.294895 7.193105
60.2593 -48.089645 5.977
61.089912 -47.679794 6.58904
59.474621 -48.556407 5.399247
60.146007 -47.554371 4.899873
60.2593 -48.089645 5.977
58.96913 -49.567258 5.886352
58.855837 -49.031984 4.809225
59.474621 -48.556407 5.399247
58.405598 -50.567789 6.344848
58.96913 -49.567258 5.886352
57.971629 -51.031416 5.723759
58.405598 -50.567789 6.344848
60.829739 9.033744 -29.421049
60.905938 8.697436 -28.026812
61.338887 7.924839 -28.101584
60.307057 10.113319 -30.757566
60.829739 9.033744 -29.421049
59.810204 10.855104 -30.665025
60.307057 10.113319 -30.757566
63.731041 -13.62463 -18.025654
63.853134 -14.646956 -16.859581
63.990879 -12.123462 -18.100493
63.731041 -13.62463 -18.025654
64.257801 -10.726671 -18.104893
64.443321 -11.791426 -16.916947
63.990879 -12.123462 -18.100493
64.022599 -9.621185 -19.308134
64.475041 -9.28915 -18.124588
64.257801 -10.726671 -18.104893
63.893033 -8.530406 -20.5432
64.022599 -9.621185 -19.308134
64.039914 -7.060307 -20.57954
63.893033 -8.530406 -20.5432
57.958637 -50.032562 1.26593
57.841484 -51.061916 1.8591
65.859329 -41.753611 21.175172
64.859009 -41.262537 20.921518
66.726517 -42.256069 21.39728
66.71624 -41.941289 20.045516
65.859329 -41.753611 21.175172
67.552394 -42.771114 21.638481
66.726517 -42.256069 21.39728
68.19659 -43.314917 21.863163
68.227623 -42.98755 20.492306
67.552394 -42.771114 21.638481
68.800419 -43.867956 22.098095
68.19659 -43.314917 21.863163
69.260246 -44.124975 20.95207
68.800419 -43.867956 22.098095
49.286441 3.916596 -23.11313
49.597317 2.794872 -22.342129
48.886449 4.961819 -23.952053
49.286441 3.916596 -23.11313
49.975931 5.013096 -24.382199
48.520798 6.049314 -24.681435
48.886449 4.961819 -23.952053
49.116998 7.051775 -26.016793
48.520798 6.049314 -24.681435
49.685239 8.295447 -27.288719
49.116998 7.051775 -26.016793
50.14418 7.301991 -26.493048
50.151131 9.442946 -28.628975
49.123949 9.192731 -28.152719
49.685239 8.295447 -27.288719
62.677452 -30.773406 -8.868922
63.208027 -29.464588 -9.05378
63.533542 -30.228063 -8.108356
62.677452 -30.773406 -8.868922
62.229271 -32.134812 -8.632964
43.570492 -23.693115 8.385687
42.889857 -22.822319 8.452825
44.153908 -24.95817 9.255885
44.00884 -25.437289 10.186798
44.44566 -24.331411 8.308244
44.153908 -24.95817 9.255885
45.287388 -25.077539 8.198125
44.703972 -23.812484 7.327927
43.570492 -23.693115 8.385687
44.44566 -24.331411 8.308244
65.016926 -46.368803 9.127545
65.854966 -45.463901 8.64276
65.993939 -46.12903 9.811217
64.024456 -46.646977 8.462794
65.016926 -46.368803 9.127545
64.163429 -47.312106 9.63125
62.210048 -47.931129 8.333476
62.043461 -47.294895 7.193105
63.004372 -46.954045 7.826128
62.210048 -47.931129 8.333476
62.340723 -48.547162 9.465075
46.95163 -13.962332 -6.898925
45.831185 -14.309708 -5.82464
48.21374 -13.337114 -7.909886
46.95163 -13.962332 -6.898925
47.951914 -14.143393 -6.822831
49.433985 -12.58373 -8.916816
48.433701 -12.40267 -8.992911
48.21374 -13.337114 -7.909886
61.713952 7.132569 -28.161398
61.338887 7.924839 -28.101584
61.79015 6.796261 -26.767161
61.713952 7.132569 -28.161398
62.04469 6.101807 -28.230372
63.538395 -19.531242 -14.500638
64.217686 -19.050459 -13.533636
63.819931 -20.494947 -13.450675
63.392117 -18.589456 -15.590182
63.538395 -19.531242 -14.500638
63.733009 -17.096224 -15.695107
63.392117 -18.589456 -15.590182
50.188528 0.560934 -20.650612
49.935679 1.70595 -21.463479
51.324411 0.667972 -20.869352
50.188528 0.560934 -20.650612
50.460293 -0.561125 -19.733989
61.029116 -39.244181 -4.403685
61.828873 -38.64699 -3.822635
61.330141 -39.870224 -3.410049
60.871952 -38.667784 -5.411905
61.029116 -39.244181 -4.403685
60.744158 -41.0325 -2.96913
60.318432 -42.234634 -2.497841
43.818771 -26.447143 11.972641
43.828732 -26.016737 11.099115
44.588347 -27.381821 11.843035
43.818771 -26.447143 11.972641
45.555357 -28.124859 11.680754
45.602429 -27.606232 10.80812
44.588347 -27.381821 11.843035
55.714453 -37.456625 20.154139
56.110456 -37.537089 21.192037
56.654669 -37.815031 19.263283
55.494095 -37.222542 19.013807
55.714453 -37.456625 20.154139
60.69969 -39.748008 22.422897
61.81839 -40.272899 22.75856
59.516695 -39.249054 22.149779
60.69969 -39.748008 22.422897
60.446667 -39.617561 21.21374
58.391537 -38.688271 21.802999
59.516695 -39.249054 22.149779
58.06935 -38.583861 20.672119
57.197215 -38.153525 21.534496
58.391537 -38.688271 21.802999
70.25954 -44.9011 15.603182
70.382721 -44.19437 15.301578
70.284062 -44.787563 16.603926
69.985519 -45.072097 14.65342
70.25954 -44.9011 15.603182
69.660103 -45.195589 13.740011
70.032783 -44.431399 13.387427
69.985519 -45.072097 14.65342
69.120446 -45.371372 12.878691
69.660103 -45.195589 13.740011
44.568918 16.695463 -37.473122
43.797337 16.425991 -36.553185
44.683333 16.071661 -35.9776
44.568918 16.695463 -37.473122
45.260365 17.09148 -38.376091
43.860594 15.21361 -33.551979
43.114582 15.808084 -34.021488
44.652969 14.682323 -32.982998
45.347081 13.983269 -32.430417
44.704127 15.270903 -34.488682
43.860594 15.21361 -33.551979
44.652969 14.682323 -32.982998
47.045583 16.278929 -36.982208
46.201505 16.76471 -37.672562
46.298992 15.855352 -36.207183
47.843795 16.720944 -37.629193
47.045583 16.278929 -36.982208
47.941282 15.811587 -36.163815
48.570023 17.156847 -38.255909
47.843795 16.720944 -37.629193
48.570023 17.156847 -38.255909
49.510269 16.678058 -37.31617
52.000489 14.767006 -34.394573
52.805897 14.037361 -33.304638
52.839756 15.149677 -34.681221
51.225803 15.47299 -35.379436
51.191944 14.360674 -34.002854
52.000489 14.767006 -34.394573
50.349152 16.084587 -36.404629
51.225803 15.47299 -35.379436
63.384662 -21.886291 -13.383074
63.819931 -20.494947 -13.450675
64.063953 -21.405509 -12.416072
63.384662 -21.886291 -13.383074
62.992096 -23.346441 -13.249657
61.828381 -36.145197 -6.145505
62.079431 -36.7813 -5.163539
61.276796 -37.384844 -5.798237
62.300677 -34.846873 -6.465192
61.828381 -36.145197 -6.145505
45.551779 -14.971847 -4.730351
45.831185 -14.309708 -5.82464
46.364662 -15.491867 -4.693271
45.551779 -14.971847 -4.730351
45.226637 -15.695104 -3.611753
45.668434 -16.864788 -2.441351
44.903359 -16.273414 -2.484827
44.532273 -16.923077 -1.351505
43.452902 -21.85072 6.423744
43.107399 -22.404897 7.445988
44.174307 -22.620011 6.383125
43.452902 -21.85072 6.423744
43.757361 -21.39919 5.368853
42.740603 -19.403345 4.279675
43.358112 -20.243382 4.284887
43.054663 -19.001211 3.169966
42.740603 -19.403345 4.279675
44.114389 -19.220813 2.074896
43.447738 -18.467806 2.051912
43.054663 -19.001211 3.169966
45.474365 -28.727113 12.560422
45.575338 -29.169099 13.387883
46.488447 -28.951524 11.525505
45.555357 -28.124859 11.680754
45.474365 -28.727113 12.560422
50.358863 -34.059702 16.527978
50.596029 -34.392536 17.492846
51.419591 -34.807608 16.599728
49.236751 -33.337507 16.544719
50.358863 -34.059702 16.527978
50.060314 -33.752578 15.651601
48.300993 -32.478933 16.515633
49.236751 -33.337507 16.544719
47.943699 -32.200914 15.722335
48.300993 -32.478933 16.515633
47.782849 -31.75869 14.830219
47.943699 -32.200914 15.722335
48.777351 -32.58816 14.776225
47.573071 -31.3592 14.001666
47.782849 -31.75869 14.830219
47.550981 -30.791885 13.102941
47.573071 -31.3592 14.001666
48.594412 -31.57862 12.985383
47.489889 -30.282542 12.245915
46.468547 -30.063121 13.262199
47.550981 -30.791885 13.102941
60.679338 -43.305718 -0.414373
60.434906 -42.739729 -1.456244
61.202364 -42.163573 -0.905287
60.068977 -44.392651 0.091136
60.679338 -43.305718 -0.414373
60.836435 -43.816494 0.642094
59.626228 -45.510216 0.617663
60.068977 -44.392651 0.091136
59.093716 -46.576763 1.141784
59.626228 -45.510216 0.617663
59.693562 -45.969974 1.671724
58.74027 -47.661451 1.686057
59.093716 -46.576763 1.141784
58.303739 -48.699641 2.20464
58.74027 -47.661451 1.686057
58.724518 -48.074711 2.714429
58.042046 -49.734024 2.744581
58.057798 -49.320764 1.716209
58.303739 -48.699641 2.20464
57.961632 -50.107006 3.715077
58.319167 -49.577867 4.264671
57.992812 -50.571973 4.746736
57.715691 -50.72813 3.226646
58.042046 -49.734024 2.744581
57.961632 -50.107006 3.715077
57.625568 -51.300835 2.761327
57.715691 -50.72813 3.226646
42.964244 16.833815 -37.015091
43.078659 16.210013 -35.51957
43.797337 16.425991 -36.553185
42.052719 17.044275 -37.45861
42.964244 16.833815 -37.015091
41.388179 16.89018 -36.324589
42.052719 17.044275 -37.45861
48.75457 -10.50122 -11.078667
48.620451 -11.507043 -10.032808
49.788065 -10.643464 -11.0457
48.75457 -10.50122 -11.078667
48.860491 -9.516056 -12.060378
51.083103 -5.144362 -16.029149
49.976239 -6.383634 -15.044403
51.121758 -6.260978 -15.077456
50.965339 -4.001645 -17.020353
51.083103 -5.144362 -16.029149
52.110858 -3.878989 -17.053406
50.847721 -2.856297 -17.923345
50.965339 -4.001645 -17.020353
51.794635 -1.595178 -18.99867
50.649262 -1.715204 -18.877405
50.847721 -2.856297 -17.923345
57.325882 13.710726 -33.058309
56.638023 13.842205 -32.95329
57.354805 12.916692 -31.683527
57.325882 13.710726 -33.058309
57.957543 13.317256 -33.19312
64.42181 -14.227828 -15.782557
64.098545 -15.686566 -15.729592
63.853134 -14.646956 -16.859581
63.747132 -3.431167 -23.103115
63.921044 -4.569195 -21.815162
63.752781 -2.042832 -23.09696
63.747132 -3.431167 -23.103115
63.497815 -2.272559 -24.401001
63.167533 1.511583 -25.671584
63.424087 0.354716 -24.348881
63.24691 0.272643 -25.717548
62.833219 2.674707 -26.997448
63.010397 2.756779 -25.62878
63.167533 1.511583 -25.671584
62.547956 3.818554 -28.333754
62.833219 2.674707 -26.997448
62.300123 5.059762 -28.294207
62.547956 3.818554 -28.333754
3 0 105 103
3 2 108 106
3 2 110 108
3 3 113 111
3 5 116 114
3 5 118 116
3 6 121 119
3 6 123 121
3 6 125 123
3 1 409 411
3 409 127 410
3 409 410 411
3 4 130 128
3 7 133 131
3 7 135 133
3 9 412 414
3 412 137 413
3 412 413 414
3 9 139 137
3 9 141 139
3 415 143 416
3 418 417 143
3 11 146 144
3 13 149 147
3 13 151 149
3 14 419 420
3 14 421 423
3 421 152 422
3 421 422 423
3 14 154 152
3 15 424 426
3 426 425 155
3 424 425 426
3 15 427 428
3 16 159 157
3 429 162 430
3 18 165 163
3 18 167 165
3 18 169 167
3 19 172 170
3 19 174 172
3 8 431 433
3 431 175 432
3 431 432 433
3 20 178 176
3 20 180 178
3 20 182 180
3 21 185 183
3 21 187 185
3 21 189 187
3 22 192 190
3 22 194 192
3 10 197 195
3 23 200 198
3 23 202 200
3 23 204 202
3 24 209 207
3 24 211 209
3 12 214 212
3 25 217 215
3 25 219 217
3 25 221 219
3 17 225 223
3 26 434 435
3 28 231 229
3 30 232 104
3 30 233 232
3 31 234 107
3 31 235 234
3 31 237 235
3 33 238 109
3 33 239 238
3 34 242 240
3 436 243 437
3 438 437 112
3 436 437 438
3 440 439 243
3 37 244 115
3 37 245 244
3 37 247 245
3 39 248 117
3 39 249 248
3 40 252 250
3 42 253 120
3 42 254 253
3 42 256 254
3 44 257 122
3 44 258 257
3 44 260 258
3 46 261 124
3 46 262 261
3 47 265 263
3 49 266 126
3 49 267 266
3 49 269 267
3 441 270 442
3 444 443 270
3 51 272 271
3 53 273 129
3 53 274 273
3 54 277 275
3 56 278 132
3 56 279 278
3 56 281 279
3 58 282 134
3 58 445 447
3 447 446 282
3 445 446 447
3 448 284 449
3 59 450 452
3 452 451 285
3 450 451 452
3 453 287 454
3 60 288 136
3 60 289 288
3 60 290 289
3 61 291 138
3 61 292 291
3 61 294 292
3 63 295 140
3 63 296 295
3 27 297 228
3 64 298 142
3 64 299 298
3 64 300 299
3 456 455 301
3 65 304 302
3 67 305 145
3 67 306 305
3 29 307 230
3 68 308 148
3 68 309 308
3 68 310 309
3 69 311 150
3 69 312 311
3 70 457 458
3 70 459 461
3 459 313 460
3 459 460 461
3 70 314 313
3 71 315 153
3 71 462 464
3 464 463 315
3 462 463 464
3 32 316 236
3 466 465 156
3 72 319 317
3 74 320 158
3 74 321 320
3 35 322 241
3 467 323 468
3 469 468 160
3 467 468 469
3 470 324 471
3 472 471 323
3 470 471 472
3 474 473 324
3 476 475 286
3 477 325 478
3 75 326 161
3 75 327 326
3 36 479 480
3 76 481 483
3 483 482 164
3 481 482 483
3 76 484 486
3 484 328 485
3 484 485 486
3 76 329 328
3 77 330 166
3 77 331 330
3 77 332 331
3 78 333 168
3 78 334 333
3 38 335 246
3 79 336 171
3 79 337 336
3 79 338 337
3 80 339 173
3 80 340 339
3 487 341 488
3 81 489 490
3 81 491 492
3 41 342 251
3 82 343 177
3 82 344 343
3 82 345 344
3 83 346 179
3 83 347 346
3 83 348 347
3 84 349 181
3 84 350 349
3 43 351 255
3 85 352 184
3 85 353 352
3 85 354 353
3 86 355 186
3 86 356 355
3 86 357 356
3 87 358 188
3 87 359 358
3 45 360 259
3 88 361 191
3 88 362 361
3 88 363 362
3 89 364 193
3 89 365 364
3 62 366 293
3 90 367 196
3 90 368 367
3 48 369 264
3 91 370 199
3 91 371 370
3 91 372 371
3 92 373 201
3 92 374 373
3 92 375 374
3 93 376 203
3 93 377 376
3 50 378 268
3 94 379 205
3 94 380 379
3 94 381 380
3 494 493 206
3 52 495 496
3 95 497 499
3 499 498 208
3 497 498 499
3 95 500 501
3 95 502 503
3 96 382 210
3 96 383 382
3 66 384 303
3 97 385 213
3 97 386 385
3 55 387 276
3 98 388 216
3 98 389 388
3 98 390 389
3 99 391 218
3 99 392 391
3 99 393 392
3 100 394 220
3 100 395 394
3 57 396 280
3 504 397 505
3 506 505 222
3 504 505 506
3 507 398 508
3 509 508 397
3 507 508 509
3 511 510 398
3 73 399 318
3 101 400 224
3 101 401 400
3 512 402 513
3 514 513 283
3 512 513 514
3 102 403 226
3 102 404 403
3 102 405 404
3 515 406 516
3 517 516 227
3 515 516 517
3 518 407 519
3 520 519 406
3 518 519 520
3 521 408 522
3 524 523 408
3 526 525 26
3 103 104 28
3 105 104 103
3 105 30 104
3 106 527 529
3 527 107 528
3 527 528 529
3 108 107 106
3 108 31 107
3 108 109 31
3 110 109 108
3 110 33 109
3 111 112 34
3 113 112 111
3 113 530 532
3 532 531 112
3 530 531 532
3 114 533 535
3 533 115 534
3 533 534 535
3 116 115 114
3 116 37 115
3 116 117 37
3 118 117 116
3 118 39 117
3 119 120 40
3 121 120 119
3 121 42 120
3 121 122 42
3 123 122 121
3 123 44 122
3 123 124 44
3 125 124 123
3 125 46 124
3 536 126 537
3 538 537 47
3 536 537 538
3 539 126 540
3 541 49 542
3 543 542 126
3 541 542 543
3 545 544 49
3 127 546 547
3 127 548 549
3 128 129 51
3 130 129 128
3 130 53 129
3 131 132 54
3 133 132 131
3 133 56 132
3 133 134 56
3 135 134 133
3 135 58 134
3 551 550 59
3 552 136 553
3 137 554 556
3 554 136 555
3 554 555 556
3 137 60 136
3 137 138 60
3 139 138 137
3 139 61 138
3 139 140 61
3 141 140 139
3 141 63 140
3 557 142 558
3 559 558 27
3 557 558 559
3 143 560 562
3 560 142 561
3 560 561 562
3 143 64 142
3 143 563 565
3 565 564 64
3 563 564 565
3 567 566 143
3 144 145 65
3 146 145 144
3 146 67 145
3 147 148 29
3 149 148 147
3 149 68 148
3 149 150 68
3 151 150 149
3 151 69 150
3 152 568 569
3 152 570 572
3 570 70 571
3 570 571 572
3 152 153 70
3 154 153 152
3 154 71 153
3 155 156 32
3 573 156 574
3 575 574 155
3 573 574 575
3 577 576 156
3 157 158 72
3 159 158 157
3 159 74 158
3 578 160 579
3 580 579 35
3 578 579 580
3 581 160 582
3 584 583 160
3 585 161 586
3 162 587 589
3 587 161 588
3 587 588 589
3 162 75 161
3 163 164 36
3 165 164 163
3 165 76 164
3 165 166 76
3 167 166 165
3 167 77 166
3 167 168 77
3 169 168 167
3 169 78 168
3 170 171 38
3 172 171 170
3 172 79 171
3 172 173 79
3 174 173 172
3 174 80 173
3 175 590 591
3 175 592 594
3 592 81 593
3 592 593 594
3 176 177 41
3 178 177 176
3 178 82 177
3 178 179 82
3 180 179 178
3 180 83 179
3 180 181 83
3 182 181 180
3 182 84 181
3 183 184 43
3 185 184 183
3 185 85 184
3 185 186 85
3 187 186 185
3 187 86 186
3 187 188 86
3 189 188 187
3 189 87 188
3 190 191 45
3 192 191 190
3 192 88 191
3 192 193 88
3 194 193 192
3 194 89 193
3 195 196 62
3 197 196 195
3 197 90 196
3 198 199 48
3 200 199 198
3 200 91 199
3 200 201 91
3 202 201 200
3 202 92 201
3 202 203 92
3 204 203 202
3 204 93 203
3 595 205 596
3 597 596 50
3 595 596 597
3 598 205 599
3 600 94 601
3 602 601 205
3 600 601 602
3 603 206 604
3 605 604 94
3 603 604 605
3 606 206 607
3 609 608 206
3 207 208 52
3 209 208 207
3 209 95 208
3 209 210 95
3 211 210 209
3 211 96 210
3 212 213 66
3 214 213 212
3 214 97 213
3 215 216 55
3 217 216 215
3 217 98 216
3 217 218 98
3 219 218 217
3 219 99 218
3 219 220 99
3 221 220 219
3 221 100 220
3 610 222 611
3 612 611 57
3 610 611 612
3 613 222 614
3 616 615 222
3 223 224 73
3 225 224 223
3 225 101 224
3 617 226 618
3 619 226 620
3 621 102 622
3 623 622 226
3 621 622 623
3 624 227 625
3 626 625 102
3 624 625 626
3 627 227 628
3 630 629 227
3 632 631 26
3 633 9 634
3 635 228 636
3 637 636 9
3 635 636 637
3 638 228 639
3 640 27 641
3 642 641 228
3 640 641 642
3 643 27 644
3 646 645 27
3 229 230 11
3 231 230 229
3 231 29 230
3 104 231 28
3 232 231 104
3 232 29 231
3 232 147 29
3 233 147 232
3 233 13 147
3 107 647 648
3 234 649 651
3 651 650 107
3 649 650 651
3 234 652 653
3 234 654 655
3 235 656 658
3 658 657 234
3 656 657 658
3 235 659 661
3 659 14 660
3 659 660 661
3 235 236 14
3 237 236 235
3 237 32 236
3 109 237 31
3 238 237 109
3 238 32 237
3 238 155 32
3 239 155 238
3 239 15 155
3 240 241 16
3 242 241 240
3 242 35 241
3 112 242 34
3 243 242 112
3 243 35 242
3 243 662 664
3 664 663 35
3 662 663 664
3 666 665 243
3 667 36 668
3 115 669 670
3 244 671 673
3 673 672 115
3 671 672 673
3 244 674 676
3 674 36 675
3 674 675 676
3 244 163 36
3 245 163 244
3 245 18 163
3 245 246 18
3 247 246 245
3 247 38 246
3 117 247 37
3 248 247 117
3 248 38 247
3 248 170 38
3 249 170 248
3 249 19 170
3 250 251 8
3 252 251 250
3 252 41 251
3 120 252 40
3 253 252 120
3 253 41 252
3 253 176 41
3 254 176 253
3 254 20 176
3 254 255 20
3 256 255 254
3 256 43 255
3 122 256 42
3 257 256 122
3 257 43 256
3 257 183 43
3 258 183 257
3 258 21 183
3 258 259 21
3 260 259 258
3 260 45 259
3 124 260 44
3 261 260 124
3 261 45 260
3 261 190 45
3 262 190 261
3 262 22 190
3 263 264 10
3 265 264 263
3 265 48 264
3 126 265 47
3 266 265 126
3 266 48 265
3 266 198 48
3 267 198 266
3 267 23 198
3 267 268 23
3 269 268 267
3 269 50 268
3 677 269 678
3 679 678 49
3 677 678 679
3 270 680 682
3 680 269 681
3 680 681 682
3 270 50 269
3 270 683 685
3 685 684 50
3 683 684 685
3 687 686 270
3 271 688 689
3 272 690 692
3 692 691 271
3 690 691 692
3 272 693 695
3 693 52 694
3 693 694 695
3 129 272 51
3 273 272 129
3 273 52 272
3 273 207 52
3 274 207 273
3 274 24 207
3 275 276 12
3 277 276 275
3 277 55 276
3 132 277 54
3 278 277 132
3 278 55 277
3 278 215 55
3 279 215 278
3 279 25 215
3 279 280 25
3 281 280 279
3 281 57 280
3 134 281 56
3 282 281 134
3 282 57 281
3 282 696 698
3 698 697 57
3 696 697 698
3 700 699 282
3 701 283 702
3 703 702 17
3 701 702 703
3 704 283 705
3 707 706 283
3 708 106 709
3 284 710 712
3 710 106 711
3 710 711 712
3 284 2 106
3 285 286 3
3 713 286 714
3 715 714 285
3 713 714 715
3 717 716 286
3 719 718 59
3 720 114 721
3 722 114 723
3 724 5 725
3 726 725 114
3 724 725 726
3 287 727 728
3 287 729 731
3 729 8 730
3 729 730 731
3 136 732 733
3 288 734 736
3 736 735 136
3 734 735 736
3 288 737 738
3 288 739 741
3 739 287 740
3 739 740 741
3 289 287 288
3 289 8 287
3 289 250 8
3 290 250 289
3 290 40 250
3 138 290 60
3 291 290 138
3 291 40 290
3 291 119 40
3 292 119 291
3 292 6 119
3 292 293 6
3 294 293 292
3 294 62 293
3 140 294 61
3 295 294 140
3 295 62 294
3 295 195 62
3 296 195 295
3 296 10 195
3 228 141 9
3 297 141 228
3 297 63 141
3 142 297 27
3 298 297 142
3 298 63 297
3 298 296 63
3 299 296 298
3 299 10 296
3 299 263 10
3 300 263 299
3 300 47 263
3 742 300 743
3 744 743 64
3 742 743 744
3 745 300 746
3 747 47 748
3 749 748 300
3 747 748 749
3 751 750 47
3 301 752 754
3 754 753 1
3 752 753 754
3 756 755 301
3 302 303 4
3 304 303 302
3 304 66 303
3 145 304 65
3 305 304 145
3 305 66 304
3 305 212 66
3 306 212 305
3 306 12 212
3 230 146 11
3 307 146 230
3 307 67 146
3 148 307 29
3 308 307 148
3 308 67 307
3 308 306 67
3 309 306 308
3 309 12 306
3 309 275 12
3 310 275 309
3 310 54 275
3 150 310 68
3 311 310 150
3 311 54 310
3 311 131 54
3 312 131 311
3 312 7 131
3 757 1 758
3 313 759 760
3 313 761 763
3 761 1 762
3 761 762 763
3 313 301 1
3 314 301 313
3 314 764 766
3 766 765 301
3 764 765 766
3 153 314 70
3 315 314 153
3 315 767 769
3 769 768 314
3 767 768 769
3 315 770 771
3 773 772 315
3 236 154 14
3 316 154 236
3 316 71 154
3 156 316 32
3 774 316 775
3 776 775 156
3 774 775 776
3 777 71 778
3 779 778 316
3 777 778 779
3 781 780 71
3 317 318 0
3 319 318 317
3 319 73 318
3 158 319 72
3 320 319 158
3 320 73 319
3 320 223 73
3 321 223 320
3 321 17 223
3 241 159 16
3 322 159 241
3 322 74 159
3 160 322 35
3 323 322 160
3 323 74 322
3 323 321 74
3 324 321 323
3 324 17 321
3 324 782 784
3 784 783 17
3 782 783 784
3 786 785 324
3 286 113 3
3 787 113 788
3 789 788 286
3 787 788 789
3 791 790 113
3 792 271 793
3 325 794 796
3 794 271 795
3 794 795 796
3 325 51 271
3 161 797 799
3 797 325 798
3 797 798 799
3 326 325 161
3 326 51 325
3 326 128 51
3 327 128 326
3 327 4 128
3 164 800 802
3 802 801 36
3 800 801 802
3 804 803 164
3 328 805 806
3 328 807 808
3 328 809 811
3 809 162 810
3 809 810 811
3 329 162 328
3 329 75 162
3 166 329 76
3 330 329 166
3 330 75 329
3 330 327 75
3 331 327 330
3 331 4 327
3 331 302 4
3 332 302 331
3 332 65 302
3 168 332 77
3 333 332 168
3 333 65 332
3 333 144 65
3 334 144 333
3 334 11 144
3 246 169 18
3 335 169 246
3 335 78 169
3 171 335 38
3 336 335 171
3 336 78 335
3 336 334 78
3 337 334 336
3 337 11 334
3 337 229 11
3 338 229 337
3 338 28 229
3 173 338 79
3 339 338 173
3 339 28 338
3 339 103 28
3 340 103 339
3 340 0 103
3 341 812 813
3 341 814 816
3 814 5 815
3 814 815 816
3 251 175 8
3 342 175 251
3 342 81 175
3 177 342 41
3 343 342 177
3 343 81 342
3 343 817 819
3 819 818 81
3 817 818 819
3 344 820 822
3 822 821 343
3 820 821 822
3 344 823 824
3 344 825 826
3 345 827 829
3 829 828 344
3 827 828 829
3 345 830 831
3 179 345 82
3 346 345 179
3 346 832 834
3 834 833 345
3 832 833 834
3 346 835 837
3 835 341 836
3 835 836 837
3 347 341 346
3 347 5 341
3 347 118 5
3 348 118 347
3 348 39 118
3 181 348 83
3 349 348 181
3 349 39 348
3 349 249 39
3 350 249 349
3 350 19 249
3 255 182 20
3 351 182 255
3 351 84 182
3 184 351 43
3 352 351 184
3 352 84 351
3 352 350 84
3 353 350 352
3 353 19 350
3 353 174 19
3 354 174 353
3 354 80 174
3 186 354 85
3 355 354 186
3 355 80 354
3 355 340 80
3 356 340 355
3 356 0 340
3 356 317 0
3 357 317 356
3 357 72 317
3 188 357 86
3 358 357 188
3 358 72 357
3 358 157 72
3 359 157 358
3 359 16 157
3 259 189 21
3 360 189 259
3 360 87 189
3 191 360 45
3 361 360 191
3 361 87 360
3 361 359 87
3 362 359 361
3 362 16 359
3 362 240 16
3 363 240 362
3 363 34 240
3 193 363 88
3 364 363 193
3 364 34 363
3 364 111 34
3 365 111 364
3 365 3 111
3 293 125 6
3 366 125 293
3 366 46 125
3 196 366 62
3 367 366 196
3 367 46 366
3 367 262 46
3 368 262 367
3 368 22 262
3 264 197 10
3 369 197 264
3 369 90 197
3 199 369 48
3 370 369 199
3 370 90 369
3 370 368 90
3 371 368 370
3 371 22 368
3 371 194 22
3 372 194 371
3 372 89 194
3 201 372 91
3 373 372 201
3 373 89 372
3 373 365 89
3 374 365 373
3 374 3 365
3 374 285 3
3 375 285 374
3 375 59 285
3 203 375 92
3 376 375 203
3 376 59 375
3 376 838 840
3 840 839 59
3 838 839 840
3 377 841 843
3 843 842 376
3 841 842 843
3 377 844 845
3 268 204 23
3 378 204 268
3 378 93 204
3 205 378 50
3 379 378 205
3 379 93 378
3 379 377 93
3 380 377 379
3 380 846 848
3 848 847 377
3 846 847 848
3 380 849 850
3 381 851 853
3 853 852 380
3 851 852 853
3 381 854 856
3 854 26 855
3 854 855 856
3 206 381 94
3 857 381 858
3 859 858 206
3 857 858 859
3 860 26 861
3 862 861 381
3 860 861 862
3 864 863 26
3 865 127 866
3 867 866 1
3 865 866 867
3 868 127 869
3 871 870 127
3 208 872 874
3 874 873 52
3 872 873 874
3 876 875 208
3 210 877 879
3 879 878 95
3 877 878 879
3 382 880 882
3 882 881 210
3 880 881 882
3 382 883 884
3 382 885 887
3 885 284 886
3 885 886 887
3 383 284 382
3 383 2 284
3 303 130 4
3 384 130 303
3 384 53 130
3 213 384 66
3 385 384 213
3 385 53 384
3 385 274 53
3 386 274 385
3 386 24 274
3 276 214 12
3 387 214 276
3 387 97 214
3 216 387 55
3 388 387 216
3 388 97 387
3 388 386 97
3 389 386 388
3 389 24 386
3 389 211 24
3 390 211 389
3 390 96 211
3 218 390 98
3 391 390 218
3 391 96 390
3 391 383 96
3 392 383 391
3 392 2 383
3 392 110 2
3 393 110 392
3 393 33 110
3 220 393 99
3 394 393 220
3 394 33 393
3 394 239 33
3 395 239 394
3 395 15 239
3 280 221 25
3 396 221 280
3 396 100 221
3 222 396 57
3 397 396 222
3 397 100 396
3 397 395 100
3 398 395 397
3 398 15 395
3 398 888 890
3 890 889 15
3 888 889 890
3 892 891 398
3 318 105 0
3 399 105 318
3 399 30 105
3 224 399 73
3 400 399 224
3 400 30 399
3 400 233 30
3 401 233 400
3 401 13 233
3 283 225 17
3 402 225 283
3 402 101 225
3 226 893 895
3 893 402 894
3 893 894 895
3 403 402 226
3 403 101 402
3 403 401 101
3 404 401 403
3 404 13 401
3 404 151 13
3 405 151 404
3 405 69 151
3 227 405 102
3 406 405 227
3 406 69 405
3 406 312 69
3 407 312 406
3 407 7 312
3 896 407 897
3 408 898 900
3 898 407 899
3 898 899 900
3 408 7 407
3 408 135 7
3 901 135 902
3 903 902 408
3 901 902 903
3 904 58 905
3 906 905 135
3 904 905 906
3 907 58 908
3 910 909 58
