ply
format ascii 1.0
element vertex 192
property float x
property float y
property float z
element face 174
property list uchar int vertex_index
end_header
-6.040543 -122.448044 13.817093
-15.990278 -122.60614 8.701454
-18.897633 -114.736343 16.749163
-5.652065 -118.42868 20.666584
-2.35158 -119.455505 16.788845
-0.244686 -119.219437 12.249696
-3.236179 -123.370926 9.52528
-7.38973 -125.646332 6.793852
-9.794542 -119.950836 17.263462
-10.708435 -123.485428 10.962181
-14.709544 -119.756241 14.219709
-20.073219 -118.195206 12.083235
-5.720364 -120.498703 17.267633
-3.875111 -119.126114 18.841908
-4.051567 -121.182724 15.325992
-2.656389 -121.501587 13.18915
-4.493393 -123.093277 11.74914
-5.18672 -124.768066 8.126537
-6.60046 -124.191452 10.323257
-11.876167 -118.084686 18.601965
-12.17543 -120.052277 15.65732
-14.276582 -117.888535 16.956785
-21.484108 -113.93721 15.765991
-19.44348 -116.621262 14.406096
-22.130508 -115.676437 13.615027
-22.820255 -117.046555 11.467495
-0.831512 -121.225586 8.597958
0.300217 -118.76387 9.900546
-13.296169 -123.268295 9.735656
-20.90337 -111.906662 17.980646
-1.130816 -119.468018 14.568202
-1.57679 -121.499832 10.923687
-2.298992 -123.31871 7.214334
-7.606588 -119.414246 18.962738
-7.827702 -121.405975 15.668017
-8.274389 -123.218063 12.340301
-10.153381 -121.836792 14.125523
-12.654169 -121.806335 12.710018
-15.285964 -121.352295 11.477978
-16.811749 -117.378845 15.536228
-17.356071 -119.11705 13.012241
-18.004539 -120.527435 10.474068
-20.768358 -119.390381 9.732809
-8.934401 -124.768295 8.977233
-12.940727 -116.958199 19.164601
-11.822515 -117.035034 20.085903
-14.140934 -116.860123 18.342011
-13.076375 -117.986611 17.779375
-12.940727 -116.958199 19.164601
-23.11959 -114.361 14.399998
-21.807308 -114.806824 14.690509
-22.79639 -113.491387 15.47548
-23.480486 -115.132706 13.40364
-23.11959 -114.361 14.399998
-1.044455 -121.852142 5.577832
-0.619354 -120.975632 7.435854
-1.256614 -122.102097 6.739937
-15.041872 -123.490478 7.71122
-13.694817 -123.821556 8.228321
-14.643224 -122.937218 9.218555
-21.834683 -110.442147 18.672839
-20.654524 -110.791695 19.151011
-22.158285 -111.526466 17.600527
-21.834683 -110.442147 18.672839
-4.813409 -117.717796 21.471986
-5.746269 -117.370621 22.333855
-2.344828 -118.390228 18.544936
-3.106593 -118.225532 19.571468
-3.113345 -119.290809 17.815376
-1.668665 -118.389076 17.455797
-2.344828 -118.390228 18.544936
-1.741198 -119.461761 15.678523
-1.058283 -118.395332 16.345475
-1.668665 -118.389076 17.455797
-3.6543 -124.170944 7.671389
-3.185706 -124.144836 6.515916
-2.767586 -123.344818 8.369807
-6.754803 -125.88575 5.634088
-5.653298 -125.446617 6.300431
-6.288225 -125.207199 7.460195
-7.896587 -126.195458 5.018787
-6.754803 -125.88575 5.634088
-8.700565 -119.682541 18.1131
-8.626269 -118.66185 19.676431
-9.720246 -118.930145 18.826794
-17.854691 -116.057594 16.142695
-16.601976 -116.384918 16.813928
-17.644918 -115.063667 17.420396
-23.181058 -117.52179 10.373147
-24.19023 -116.380448 11.32601
0.239748 -117.913948 12.842058
-0.10137 -118.141175 14.029896
0.683033 -117.389648 10.48105
0.414837 -118.456108 8.740004
-10.761059 -117.99707 19.496045
-11.822515 -117.035034 20.085903
-10.835355 -119.017761 17.932713
-9.720246 -118.930145 18.826794
-10.761059 -117.99707 19.496045
-23.82536 -115.817764 12.329874
-22.475381 -116.361496 12.541261
-23.480486 -115.132706 13.40364
-24.19023 -116.380448 11.32601
-23.82536 -115.817764 12.329874
-0.053489 -119.744774 8.087148
-0.265648 -119.994728 9.249252
-0.619354 -120.975632 7.435854
0.414837 -118.456108 8.740004
-0.053489 -119.744774 8.087148
-12.372353 -124.045066 8.749555
-11.078487 -124.153633 9.362818
-12.002302 -123.376861 10.348918
-12.372353 -124.045066 8.749555
-13.694817 -123.821556 8.228321
-18.677271 -113.681137 17.959305
-17.644918 -115.063667 17.420396
-19.680139 -112.266296 18.575046
-20.654524 -110.791695 19.151011
-19.900501 -113.321503 17.364905
-18.677271 -113.681137 17.959305
-19.680139 -112.266296 18.575046
-22.448654 -112.541741 16.493199
-21.193739 -112.921936 16.873318
-22.158285 -111.526466 17.600527
-22.79639 -113.491387 15.47548
-22.448654 -112.541741 16.493199
-3.924932 -118.066513 20.559648
-4.813409 -117.717796 21.471986
-4.763588 -118.777397 19.754246
-3.924932 -118.066513 20.559648
-3.106593 -118.225532 19.571468
-0.544436 -118.265465 15.189149
-1.058283 -118.395332 16.345475
-0.687751 -119.343727 13.408949
-0.10137 -118.141175 14.029896
-0.544436 -118.265465 15.189149
-1.990354 -123.148658 6.048125
-1.256614 -122.102097 6.739937
-1.565252 -122.272148 7.906146
-2.784518 -124.075561 5.339962
-1.990354 -123.148658 6.048125
-2.784518 -124.075561 5.339962
-3.185706 -124.144836 6.515916
-4.62957 -124.869515 6.972017
-3.6543 -124.170944 7.671389
-4.21145 -124.069496 8.825909
-4.62957 -124.869515 6.972017
-5.653298 -125.446617 6.300431
-16.405633 -123.0382 7.289818
-17.368282 -122.07943 8.296177
-6.636637 -117.876075 21.445951
-5.746269 -117.370621 22.333855
-7.613899 -118.368859 20.594029
-8.626269 -118.66185 19.676431
-6.629327 -118.921463 19.814661
-6.636637 -117.876075 21.445951
-7.613899 -118.368859 20.594029
-15.334393 -116.639763 17.524207
-14.140934 -116.860123 18.342011
-15.544165 -117.63369 16.246506
-15.334393 -116.639763 17.524207
-16.601976 -116.384918 16.813928
-18.375413 -121.040077 9.182484
-17.368282 -122.07943 8.296177
-16.997408 -121.566788 9.587761
-19.757322 -120.47155 8.811854
-18.375413 -121.040077 9.182484
-19.386449 -119.958908 10.103438
-21.147742 -119.779412 8.530439
-19.757322 -120.47155 8.811854
-22.15511 -118.693703 9.505804
-21.794306 -118.218468 10.600152
-23.181058 -117.52179 10.373147
-21.147742 -119.779412 8.530439
-22.15511 -118.693703 9.505804
0.5122 -117.686164 11.667483
0.239748 -117.913948 12.842058
0.027766 -118.991653 11.075121
0.5122 -117.686164 11.667483
0.683033 -117.389648 10.48105
-10.19147 -124.795066 8.370344
-9.821418 -124.126861 9.969707
-11.078487 -124.153633 9.362818
-9.367902 -125.376663 7.279648
-10.19147 -124.795066 8.370344
-8.595567 -125.815682 6.187957
-8.162066 -125.207313 7.885542
-9.367902 -125.376663 7.279648
-7.896587 -126.195458 5.018787
-8.595567 -125.815682 6.187957
-15.041872 -123.490478 7.71122
-16.405633 -123.0382 7.289818
3 0 14 12
3 0 16 14
3 0 18 16
3 44 19 45
3 46 21 47
3 48 47 19
3 46 47 48
3 49 24 50
3 51 50 22
3 49 50 51
3 53 52 24
3 56 55 26
3 54 55 56
3 1 57 59
3 59 58 28
3 57 58 59
3 60 29 61
3 63 62 29
3 3 64 65
3 4 66 68
3 68 67 13
3 66 67 68
3 4 69 70
3 4 71 73
3 71 30 72
3 71 72 73
3 6 31 15
3 6 32 31
3 6 74 76
3 76 75 32
3 74 75 76
3 7 77 79
3 79 78 17
3 77 78 79
3 7 80 81
3 8 82 84
3 82 33 83
3 82 83 84
3 8 34 33
3 8 36 34
3 10 37 20
3 10 38 37
3 2 85 87
3 85 39 86
3 85 86 87
3 11 40 23
3 11 41 40
3 11 42 41
3 89 88 25
3 5 90 91
3 93 92 27
3 9 43 35
3 12 13 3
3 14 13 12
3 14 4 13
3 14 15 4
3 16 15 14
3 16 6 15
3 16 17 6
3 18 17 16
3 18 7 17
3 19 94 95
3 19 96 98
3 96 8 97
3 96 97 98
3 19 20 8
3 21 20 19
3 21 10 20
3 22 23 2
3 24 23 22
3 24 11 23
3 24 25 11
3 99 25 100
3 101 100 24
3 99 100 101
3 103 102 25
3 26 27 5
3 104 27 105
3 106 105 26
3 104 105 106
3 108 107 27
3 28 109 111
3 111 110 9
3 109 110 111
3 113 112 28
3 114 2 115
3 29 116 117
3 29 118 120
3 118 2 119
3 118 119 120
3 29 22 2
3 121 22 122
3 123 122 29
3 121 122 123
3 125 124 22
3 13 126 128
3 128 127 3
3 126 127 128
3 130 129 13
3 30 131 132
3 30 133 135
3 133 5 134
3 133 134 135
3 15 30 4
3 31 30 15
3 31 5 30
3 31 26 5
3 32 26 31
3 32 136 138
3 138 137 26
3 136 137 138
3 32 139 140
3 142 141 32
3 17 143 145
3 145 144 6
3 143 144 145
3 147 146 17
3 149 148 1
3 150 3 151
3 33 152 153
3 33 154 156
3 154 3 155
3 154 155 156
3 33 12 3
3 34 12 33
3 34 0 12
3 34 35 0
3 36 35 34
3 36 9 35
3 20 36 8
3 37 36 20
3 37 9 36
3 37 28 9
3 38 28 37
3 38 1 28
3 157 21 158
3 39 159 161
3 159 21 160
3 159 160 161
3 39 10 21
3 23 39 2
3 40 39 23
3 40 10 39
3 40 38 10
3 41 38 40
3 41 1 38
3 41 162 164
3 164 163 1
3 162 163 164
3 42 165 167
3 167 166 41
3 165 166 167
3 42 168 169
3 25 42 11
3 170 42 171
3 172 171 25
3 170 171 172
3 174 173 42
3 27 175 177
3 177 176 5
3 175 176 177
3 179 178 27
3 35 18 0
3 43 18 35
3 43 7 18
3 180 43 181
3 182 181 9
3 180 181 182
3 183 43 184
3 185 7 186
3 187 186 43
3 185 186 187
3 189 188 7
3 191 190 1
