ply
format ascii 1.0
element vertex 190
property float x
property float y
property float z
element face 178
property list uchar int vertex_index
end_header
17.160183 32.22541 64.171776
9.709633 16.84161 79.149872
10.917162 31.189419 72.118217
16.067013 19.669823 71.992294
3.741726 17.777973 79.093872
13.149437 18.766926 76.050735
14.159674 32.169388 68.338509
11.058367 38.202988 67.907478
6.984262 21.486843 78.240837
7.471426 29.023182 74.92997
10.520714 24.085377 75.881096
13.80698 25.541355 72.366737
16.693771 26.00853 68.168762
15.674749 32.285667 66.252327
14.268665 35.444378 66.2034
8.377481 19.219791 78.7994
8.755178 22.930168 77.227242
10.176163 20.485134 77.583374
14.672411 19.334606 74.109657
13.526888 22.17709 74.257065
15.018457 22.628967 72.246696
15.288854 25.879482 70.310974
16.406435 22.8587 70.1036
7.877481 15.469208 80.218018
6.584539 17.676311 79.660164
9.198818 30.260571 73.669716
7.587233 32.763653 73.057899
9.300785 33.894955 71.700737
9.364826 41.107689 67.377907
10.933588 14.358925 79.307739
11.486448 17.940186 77.746994
12.653589 15.302578 77.73188
14.229349 15.987453 75.884239
12.577547 31.817806 70.321358
11.009604 34.706966 70.069969
12.670568 35.213135 68.215256
5.591736 23.634079 77.452858
7.27578 25.266537 76.660332
9.023312 26.607719 75.513756
10.761009 27.650688 74.05619
11.908432 21.468868 76.054703
12.216898 24.952026 74.24501
12.432884 28.398884 72.331329
14.011433 28.869453 70.392166
15.502565 29.095924 68.312317
16.942024 29.128677 66.192612
5.286676 19.764374 78.877655
9.349268 37.512413 69.60569
16.489194 33.838058 64.1488
15.746477 33.868186 65.189076
16.417466 32.255539 65.212052
8.793557 16.155409 79.683945
8.493377 14.309122 80.393494
9.409453 14.995323 79.859421
3.07914 16.662951 78.974625
3.54327 15.7894 79.616558
12.338996 13.541284 78.509807
11.793589 14.830751 78.51981
11.478995 13.069457 79.297737
14.69422 14.564711 75.730732
13.949723 14.284854 76.719497
14.943549 16.210149 74.853233
14.69422 14.564711 75.730732
11.478995 13.069457 79.297737
10.587336 12.540669 80.018001
13.499592 37.013593 66.105232
14.311543 37.067644 65.091526
6.701731 30.168617 74.514671
6.637182 28.252342 75.393364
6.790967 33.950247 72.622292
7.614491 34.627518 72.052238
8.509988 40.655752 68.135158
8.50664 42.499376 66.982845
3.227481 18.669168 78.450504
3.895012 19.751524 78.470764
15.043435 35.447542 65.164612
14.971707 33.865022 66.227863
15.746477 33.868186 65.189076
14.311543 37.067644 65.091526
15.043435 35.447542 65.164612
7.563404 13.571538 80.846565
8.493377 14.309122 80.393494
6.973372 14.648834 80.563202
7.563404 13.571538 80.846565
7.23101 16.57276 79.939091
6.326901 15.752386 80.284275
6.973372 14.648834 80.563202
8.471266 35.193169 71.373657
7.614491 34.627518 72.052238
8.444009 33.329304 72.379318
10.224103 41.388804 66.500217
10.211597 39.655338 67.642692
11.070874 39.936453 66.765003
9.366583 42.88793 66.193214
10.224103 41.388804 66.500217
8.50664 42.499376 66.982845
9.366583 42.88793 66.193214
3.07914 16.662951 78.974625
3.227481 18.669168 78.450504
13.161843 13.942416 77.643318
12.338996 13.541284 78.509807
13.441469 15.645015 76.808059
13.161843 13.942416 77.643318
13.949723 14.284854 76.719497
15.16508 17.883726 73.965942
14.45088 17.66103 74.996948
14.943549 16.210149 74.853233
15.862381 18.051335 72.907261
15.369712 19.502215 73.050975
15.16508 17.883726 73.965942
10.021431 13.753981 79.938355
10.587336 12.540669 80.018001
10.321611 15.600267 79.228805
9.409453 14.995323 79.859421
10.021431 13.753981 79.938355
12.700543 36.897972 67.11116
13.469617 35.328756 67.209328
13.499592 37.013593 66.105232
11.894443 38.392899 66.957271
11.864467 36.708061 68.061367
12.700543 36.897972 67.11116
11.070874 39.936453 66.765003
11.894443 38.392899 66.957271
17.25819 33.762264 63.134735
17.913891 32.142761 63.198097
5.697337 25.557791 76.654808
4.92955 24.641683 76.930382
6.539359 26.37402 76.258545
5.697337 25.557791 76.654808
6.433758 24.450308 77.056595
7.373603 27.144859 75.795151
6.637182 28.252342 75.393364
6.539359 26.37402 76.258545
16.519846 18.170679 71.810425
15.862381 18.051335 72.907261
16.722751 19.741585 70.893825
16.519846 18.170679 71.810425
16.892462 21.336023 69.949478
16.236724 21.264261 71.047947
16.722751 19.741585 70.893825
17.074769 22.886879 69.020176
16.892462 21.336023 69.949478
17.218437 24.461794 68.052757
16.550103 24.433615 69.136181
17.074769 22.886879 69.020176
17.3853 25.996878 67.113666
17.218437 24.461794 68.052757
17.509427 27.556952 66.125591
16.817898 27.568604 67.180687
17.3853 25.996878 67.113666
17.663183 29.080385 65.17519
17.509427 27.556952 66.125591
17.772263 30.628751 64.164772
17.051103 30.677043 65.182194
17.663183 29.080385 65.17519
17.913891 32.142761 63.198097
17.772263 30.628751 64.164772
4.311058 16.821445 79.607323
3.54327 15.7894 79.616558
5.732465 16.770615 79.890468
6.326901 15.752386 80.284275
5.083533 17.814646 79.499214
5.732465 16.770615 79.890468
5.935607 18.720343 79.26891
4.514201 18.771173 78.985764
4.311058 16.821445 79.607323
5.083533 17.814646 79.499214
4.667487 20.744725 78.362656
3.895012 19.751524 78.470764
4.514201 18.771173 78.985764
4.820017 22.679577 77.650257
4.667487 20.744725 78.362656
5.439206 21.699227 78.165256
4.92955 24.641683 76.930382
4.820017 22.679577 77.650257
6.759634 32.038853 73.578636
6.701731 30.168617 74.514671
7.52933 30.893417 73.993934
6.759634 32.038853 73.578636
6.790967 33.950247 72.622292
8.495508 37.001898 70.326133
8.471266 35.193169 71.373657
9.325026 35.703684 70.653213
8.502209 38.858114 69.24905
9.357047 39.310051 68.491798
8.509988 40.655752 68.135158
8.495508 37.001898 70.326133
8.502209 38.858114 69.24905
16.489194 33.838058 64.1488
17.25819 33.762264 63.134735
3 0 48 50
3 50 49 13
3 48 49 50
3 1 17 15
3 3 20 18
3 3 22 20
3 1 51 53
3 51 23 52
3 51 52 53
3 1 15 23
3 2 27 25
3 4 54 55
3 56 31 57
3 58 57 29
3 56 57 58
3 59 32 60
3 62 61 32
3 63 29 64
3 6 35 33
3 66 65 14
3 8 37 36
3 10 38 16
3 10 39 38
3 5 40 30
3 11 41 19
3 11 42 41
3 11 43 42
3 12 44 21
3 12 45 44
3 8 46 24
3 8 36 46
3 9 67 68
3 70 69 26
3 7 47 34
3 72 71 28
3 74 73 4
3 13 14 6
3 75 14 76
3 77 76 13
3 75 76 77
3 79 78 14
3 15 16 8
3 17 16 15
3 17 10 16
3 18 19 5
3 20 19 18
3 20 11 19
3 20 21 11
3 22 21 20
3 22 12 21
3 23 80 81
3 23 82 83
3 23 84 86
3 84 24 85
3 84 85 86
3 15 24 23
3 15 8 24
3 25 26 9
3 27 26 25
3 27 87 89
3 89 88 26
3 87 88 89
3 90 28 91
3 92 91 7
3 90 91 92
3 93 28 94
3 96 95 28
3 98 97 4
3 29 30 1
3 31 30 29
3 31 5 30
3 99 31 100
3 32 101 103
3 101 31 102
3 101 102 103
3 32 5 31
3 32 18 5
3 104 18 105
3 106 105 32
3 104 105 106
3 107 3 108
3 109 108 18
3 107 108 109
3 29 110 111
3 29 112 114
3 112 1 113
3 112 113 114
3 33 34 2
3 35 34 33
3 35 7 34
3 14 35 6
3 115 35 116
3 117 116 14
3 115 116 117
3 118 7 119
3 120 119 35
3 118 119 120
3 122 121 7
3 124 123 0
3 36 125 126
3 37 127 129
3 129 128 36
3 127 128 129
3 37 130 132
3 130 9 131
3 130 131 132
3 16 37 8
3 38 37 16
3 38 9 37
3 38 25 9
3 39 25 38
3 39 2 25
3 30 17 1
3 40 17 30
3 40 10 17
3 19 40 5
3 41 40 19
3 41 10 40
3 41 39 10
3 42 39 41
3 42 2 39
3 42 33 2
3 43 33 42
3 43 6 33
3 21 43 11
3 44 43 21
3 44 6 43
3 44 13 6
3 45 13 44
3 45 0 13
3 133 3 134
3 135 3 136
3 137 22 138
3 139 138 3
3 137 138 139
3 140 22 141
3 142 12 143
3 144 143 22
3 142 143 144
3 145 12 146
3 147 45 148
3 149 148 12
3 147 148 149
3 150 45 151
3 152 0 153
3 154 153 45
3 152 153 154
3 156 155 0
3 157 4 158
3 24 159 160
3 46 161 163
3 163 162 24
3 161 162 163
3 46 164 166
3 164 4 165
3 164 165 166
3 46 167 169
3 169 168 4
3 167 168 169
3 36 170 172
3 172 171 46
3 170 171 172
3 36 173 174
3 26 175 177
3 177 176 9
3 175 176 177
3 179 178 26
3 34 27 2
3 47 27 34
3 47 180 182
3 182 181 27
3 180 181 182
3 28 47 7
3 183 47 184
3 185 184 28
3 183 184 185
3 187 186 47
3 189 188 0
