ply
format ascii 1.0
element vertex 109
property float x
property float y
property float z
element face 92
property list uchar int vertex_index
end_header
-52.850601 -74.458397 43.839745
-57.831512 -67.949242 39.924309
-52.998028 -74.415344 39.276321
-55.342194 -71.262466 41.778847
-55.622501 -70.994362 36.892731
-51.720222 -76.202194 42.85355
-51.731163 -76.129845 40.536346
-53.005394 -74.577698 41.679478
-51.516293 -75.958817 44.866886
-55.755054 -69.112747 45.106812
-56.569221 -69.607544 40.811756
-55.526726 -71.231201 39.403114
-56.827232 -69.554962 38.367485
-58.186913 -67.909225 37.433823
-53.800045 -72.584854 44.8018
-54.115517 -72.88736 42.798927
-55.03051 -71.059296 43.934654
-56.222733 -69.468765 43.088394
-57.418739 -67.83799 42.290352
-54.263664 -72.913811 40.517456
-54.28611 -72.696236 38.050583
-52.183447 -75.208607 44.353316
-52.004548 -74.992542 45.263517
-52.671701 -74.242333 44.749947
-52.297411 -75.098442 38.643569
-51.663978 -75.955692 39.273582
-52.364596 -75.272594 39.906334
-52.937618 -74.212883 37.997119
-52.297411 -75.098442 38.643569
-54.793255 -70.826546 44.855229
-54.415278 -71.822075 44.368227
-54.178022 -71.589325 45.288802
-56.57251 -68.512718 43.768802
-55.988894 -69.290756 44.097603
-56.33867 -68.334709 44.778011
-57.170513 -67.69733 43.369782
-56.820736 -68.653378 42.689373
-56.57251 -68.512718 43.768802
-54.178022 -71.589325 45.288802
-53.541424 -72.28294 45.617085
-54.925491 -71.631923 36.183895
-54.257295 -72.482861 36.762822
-54.954306 -71.845299 37.471657
-57.607655 -68.620834 36.631996
-58.347271 -67.818642 36.157668
-51.725693 -76.16602 41.694948
-51.095894 -76.976315 41.164803
-51.090423 -77.012489 42.323404
-51.299593 -75.66571 45.673807
-52.004548 -74.992542 45.263517
-50.805399 -76.669438 45.356417
-51.299593 -75.66571 45.673807
-50.950468 -76.86633 44.434404
-50.805399 -76.669438 45.356417
-51.052433 -76.988018 43.427736
-50.950468 -76.86633 44.434404
-51.618257 -76.080506 43.860218
-51.090423 -77.012489 42.323404
-51.052433 -76.988018 43.427736
-55.445375 -68.812454 45.94117
-55.155527 -69.853272 45.441308
-56.034814 -68.096046 45.708061
-55.445375 -68.812454 45.94117
-56.33867 -68.334709 44.778011
-56.034814 -68.096046 45.708061
-51.048268 -76.847095 39.927841
-51.095894 -76.976315 41.164803
-51.048268 -76.847095 39.927841
-51.663978 -75.955692 39.273582
-58.666737 -67.110039 38.283752
-58.009212 -67.929234 38.679066
-58.489036 -67.130047 39.528996
-58.895308 -67.109932 37.024186
-58.666737 -67.110039 38.283752
-59.375132 -66.310745 37.874115
-58.347271 -67.818642 36.157668
-58.895308 -67.109932 37.024186
-55.392782 -70.086022 44.520733
-54.793255 -70.826546 44.855229
-55.155527 -69.853272 45.441308
-57.758503 -66.892872 43.057225
-57.170513 -67.69733 43.369782
-58.034759 -67.015171 41.925736
-57.758503 -66.892872 43.057225
-58.241146 -67.070797 40.742714
-57.625125 -67.893616 41.107331
-58.034759 -67.015171 41.925736
-58.489036 -67.130047 39.528996
-58.241146 -67.070797 40.742714
-53.146423 -73.305561 45.230975
-53.541424 -72.28294 45.617085
-53.325323 -73.521625 44.320773
-52.671701 -74.242333 44.749947
-53.146423 -73.305561 45.230975
-53.58166 -73.353329 37.384251
-52.937618 -74.212883 37.997119
-53.642069 -73.55579 38.663452
-53.58166 -73.353329 37.384251
-54.257295 -72.482861 36.762822
-56.927814 -69.443703 37.098827
-57.507072 -68.732094 37.900654
-57.607655 -68.620834 36.631996
-56.325449 -70.163402 36.361451
-56.224867 -70.274662 37.630108
-56.927814 -69.443703 37.098827
-55.645392 -70.786602 35.602265
-56.325449 -70.163402 36.361451
-54.925491 -71.631923 36.183895
-55.645392 -70.786602 35.602265
3 0 7 5
3 0 21 23
3 21 8 22
3 21 22 23
3 0 5 8
3 1 12 10
3 2 24 26
3 26 25 6
3 24 25 26
3 2 27 28
3 29 16 30
3 31 30 14
3 29 30 31
3 32 17 33
3 34 33 9
3 32 33 34
3 35 18 36
3 37 36 17
3 35 36 37
3 38 14 39
3 3 19 15
3 4 20 11
3 4 40 42
3 42 41 20
3 40 41 42
3 44 43 13
3 5 45 47
3 45 6 46
3 45 46 47
3 7 6 5
3 7 2 6
3 8 48 49
3 8 50 51
3 8 52 53
3 5 54 56
3 56 55 8
3 54 55 56
3 5 57 58
3 59 9 60
3 61 9 62
3 64 63 9
3 10 11 3
3 12 11 10
3 12 4 11
3 6 65 66
3 68 67 6
3 69 13 70
3 71 70 1
3 69 70 71
3 72 13 73
3 72 73 74
3 76 75 13
3 14 15 0
3 16 15 14
3 16 3 15
3 9 77 79
3 77 16 78
3 77 78 79
3 17 16 9
3 17 3 16
3 17 10 3
3 18 10 17
3 18 1 10
3 80 18 81
3 82 18 83
3 84 1 85
3 86 85 18
3 84 85 86
3 88 87 1
3 14 89 90
3 14 91 93
3 91 0 92
3 91 92 93
3 15 7 0
3 19 7 15
3 19 2 7
3 11 19 3
3 20 19 11
3 20 2 19
3 20 94 96
3 96 95 2
3 94 95 96
3 98 97 20
3 13 12 1
3 99 12 100
3 101 100 13
3 99 100 101
3 102 4 103
3 104 103 12
3 102 103 104
3 105 4 106
3 108 107 4
