ply
format ascii 1.0
element vertex 76
property float x
property float y
property float z
element face 60
property list uchar int vertex_index
end_header
-43.890938 -9.451494 60.235973
-46.669216 -7.498188 56.492294
-45.872223 -4.548947 59.466537
-42.912666 -6.758967 62.874313
-45.249325 -8.475169 58.341103
-46.42292 -5.995783 58.097134
-44.9785 -7.015429 59.866913
-47.87059 -4.976654 56.357655
-47.346542 -3.47273 57.835407
-42.616489 -10.448052 62.181454
-43.575527 -8.048458 61.692608
-44.380104 -5.641602 61.135277
-43.936932 -10.181165 59.415537
-43.319435 -10.658641 60.407635
-44.570132 -8.963331 59.288538
-44.616125 -9.693002 58.468102
-43.936932 -10.181165 59.415537
-47.269903 -6.237421 56.424975
-47.993074 -5.740246 55.513941
-47.392387 -7.001014 55.58126
-46.166657 -3.293745 59.258625
-46.903816 -2.755637 58.44306
-46.609382 -4.010839 58.650972
-46.704405 -8.250655 55.619892
-45.994826 -8.731468 56.571872
-47.392387 -7.001014 55.58126
-46.704405 -8.250655 55.619892
-42.427856 -9.779865 62.882174
-42.022596 -10.965449 63.173613
-42.022596 -10.965449 63.173613
-42.116407 -11.649739 62.386109
-41.522514 -12.167136 63.378267
-45.28488 -9.219959 57.496277
-44.616125 -9.693002 58.468102
-45.959271 -7.986679 57.416698
-45.994826 -8.731468 56.571872
-45.28488 -9.219959 57.496277
-43.144177 -5.578702 62.487812
-42.371727 -6.191502 63.307865
-48.575374 -4.464859 55.48481
-47.993074 -5.740246 55.513941
-48.313715 -3.694619 56.27706
-49.018499 -3.182824 55.404215
-48.575374 -4.464859 55.48481
-48.051691 -2.942657 57.015936
-48.313715 -3.694619 56.27706
-47.608566 -4.224692 57.096531
-47.624094 -2.189164 57.690006
-48.051691 -2.942657 57.015936
-47.624094 -2.189164 57.690006
-46.903816 -2.755637 58.44306
-42.907375 -8.580068 62.63775
-43.096008 -9.248255 61.937031
-42.427856 -9.779865 62.882174
-42.575945 -7.935323 63.228603
-43.244096 -7.403713 62.283461
-42.907375 -8.580068 62.63775
-42.205783 -7.336237 63.785549
-42.575945 -7.935323 63.228603
-42.371727 -6.191502 63.307865
-42.205783 -7.336237 63.785549
-42.68221 -11.156921 61.380375
-42.116407 -11.649739 62.386109
-43.253714 -9.949773 61.208714
-43.319435 -10.658641 60.407635
-42.68221 -11.156921 61.380375
-43.877896 -5.020019 61.618294
-43.646385 -6.200285 62.004795
-43.144177 -5.578702 62.487812
-44.657545 -4.42302 60.843239
-43.877896 -5.020019 61.618294
-45.403605 -3.876692 60.008869
-45.126164 -5.095275 60.300907
-44.657545 -4.42302 60.843239
-46.166657 -3.293745 59.258625
-45.403605 -3.876692 60.008869
3 0 6 4
3 0 12 13
3 0 14 16
3 14 4 15
3 14 15 16
3 1 17 19
3 17 7 18
3 17 18 19
3 2 8 5
3 2 20 22
3 22 21 8
3 20 21 22
3 1 23 24
3 1 25 26
3 28 27 9
3 29 9 30
3 29 30 31
3 3 11 10
3 4 5 1
3 6 5 4
3 6 2 5
3 4 32 33
3 4 34 36
3 34 1 35
3 34 35 36
3 38 37 3
3 7 39 40
3 7 41 43
3 41 42 43
3 5 7 1
3 8 7 5
3 8 44 46
3 46 45 7
3 44 45 46
3 8 47 48
3 50 49 8
3 9 10 0
3 51 10 52
3 53 52 9
3 51 52 53
3 54 3 55
3 56 55 10
3 54 55 56
3 57 3 58
3 60 59 3
3 9 61 62
3 9 63 65
3 63 0 64
3 63 64 65
3 10 6 0
3 11 6 10
3 11 2 6
3 66 11 67
3 68 67 3
3 66 67 68
3 69 11 70
3 71 2 72
3 73 72 11
3 71 72 73
3 75 74 2
