ply
format ascii 1.0
element vertex 320
property float x
property float y
property float z
element face 305
property list uchar int vertex_index
end_header
-7.012196 -82.973381 20.524376
-8.017303 -70.113129 4.636198
-7.204556 -55.622253 -2.746944
-9.163219 -80.607254 12.313556
-4.517588 -71.774597 11.751742
-10.239424 -75.039536 5.499653
-4.916077 -57.096714 0.354098
-7.996157 -81.633194 16.261808
-5.284277 -78.648438 20.319653
-6.052387 -77.329361 16.070841
-1.931242 -66.817047 11.53966
-5.352266 -64.487366 4.040823
-7.077211 -63.194149 0.656917
-9.504717 -69.308578 1.373949
-8.438137 -61.728798 -2.493168
-10.491348 -79.628021 8.881107
-3.372252 -72.864807 15.780493
-7.148821 -76.267342 12.099067
-8.605165 -75.423981 8.595432
-3.516859 -65.675293 7.662637
-6.169491 -70.868896 8.05946
-3.79657 -57.835354 2.013212
-7.490238 -82.255569 18.362106
-8.372475 -83.817657 16.275677
-7.814356 -84.443375 18.37953
-5.90172 -81.590637 22.639942
-4.95163 -79.408401 22.498245
-6.311924 -80.809776 20.445192
-6.729755 -80.104393 18.292196
-6.711256 -67.359131 4.299847
-7.567223 -66.839043 2.609109
-8.842218 -69.73381 2.987334
-8.875345 -65.649101 -0.630276
-7.80743 -62.486889 -0.946453
-9.823429 -80.131233 10.515786
-3.005045 -73.481979 17.889343
-7.70142 -78.931221 14.164153
-6.550791 -76.771194 14.037382
-8.293793 -78.432648 12.234839
-8.952969 -77.963326 10.434298
-2.177269 -62.89238 7.560797
-1.386892 -63.531651 9.516066
-3.200033 -69.362534 11.613988
-3.977255 -68.843826 9.68573
-5.292229 -71.298187 9.863708
-7.432306 -73.227585 8.329041
-6.595566 -73.611145 10.076262
-9.212864 -72.694366 5.041702
-6.056721 -56.360298 -1.227999
-8.550533 -81.094063 14.238337
-9.633005 -82.821671 12.333979
-8.976858 -83.289551 14.255445
-3.563377 -77.959976 24.516346
-3.80335 -77.18222 22.334908
-4.054247 -76.44339 20.169189
-4.353689 -75.759766 18.025833
-5.639685 -77.953278 18.172453
-7.184326 -79.481339 16.192024
-4.001715 -61.545902 3.861216
-4.967661 -60.842754 2.121093
-6.25021 -63.85812 2.319322
-8.299751 -66.27475 0.965056
-6.540287 -83.778305 22.740818
-7.288706 -85.179306 20.557373
-6.781679 -86.014023 22.804144
-5.922642 -60.120296 0.454003
-6.842569 -59.376099 -1.143776
-7.720751 -58.605671 -2.679832
-3.874166 -72.296738 13.727604
-4.738047 -75.137413 15.921577
-5.234676 -74.573929 13.880189
-5.855732 -74.06456 11.926208
-7.840992 -75.812424 10.280883
-9.646317 -77.519623 8.793617
-10.329185 -77.153549 7.335767
-3.059376 -62.229729 5.674938
-4.425089 -65.090454 5.821389
-5.786175 -67.854553 6.038215
-2.673273 -66.248787 9.567846
-4.855007 -68.344368 7.830195
-7.100527 -70.480774 6.323037
-8.326427 -72.927032 6.66153
-9.417482 -75.156067 7.020934
-3.261151 -58.205124 2.885957
-2.693303 -56.720286 2.869992
-7.062137 -54.212688 -2.737099
-6.350856 -54.545443 -1.984196
-7.783482 -55.248455 -3.483148
-7.062137 -54.212688 -2.737099
-9.082802 -65.299163 -1.40279
-9.533701 -66.930496 -1.180297
-9.746037 -81.482429 11.42297
-10.076142 -81.244419 10.524085
-9.493324 -80.369243 11.414671
-2.87776 -73.815956 18.959993
-2.243771 -72.607628 18.917245
-0.45523 -62.451723 10.555065
-0.754214 -62.124485 9.518674
-10.612181 -75.026112 4.742071
-10.098901 -73.853527 4.513095
-9.726144 -73.866951 5.270677
-4.516966 -55.625807 0.34873
-3.860081 -55.982284 1.170701
-5.486399 -56.728506 -0.436951
-5.087288 -55.257599 -0.442318
-4.516966 -55.625807 0.34873
-8.637853 -84.677139 15.251565
-8.309531 -84.938194 16.261623
-4.08658 -79.087193 24.609963
-3.433038 -78.35617 25.616509
-9.731447 -69.058403 0.586841
-9.128964 -67.541489 0.382394
-8.902234 -67.791664 1.169503
-6.420362 -85.329658 23.906781
-6.660983 -84.896164 22.772481
-6.299667 -84.2118 23.875118
-6.299667 -84.2118 23.875118
-6.007756 -83.10189 23.807131
-11.071216 -80.404453 8.1466
-10.791055 -79.356346 8.172985
-10.001071 -83.736809 11.419321
-9.624254 -83.95559 12.321576
-7.467326 -85.937531 19.459543
-7.191905 -86.318641 20.561152
-2.713671 -71.671943 15.733393
-2.537303 -71.975902 16.791831
-3.623209 -72.580772 14.754048
-2.964628 -71.387909 14.706948
-2.713671 -71.671943 15.733393
-10.791055 -79.356346 8.172985
-10.368539 -78.302147 8.12924
-10.068832 -78.573822 8.837362
-1.960754 -61.128221 6.59624
-2.398312 -60.769262 5.634581
-2.302258 -66.532917 10.553753
-1.691918 -65.197887 10.552133
-1.320903 -65.482017 11.53804
-10.978777 -76.14053 5.045454
-10.634778 -76.051285 5.739636
-3.300327 -56.351605 2.000258
-2.693303 -56.720286 2.869992
-4.356324 -57.466034 1.183655
-3.860081 -55.982284 1.170701
-3.300327 -56.351605 2.000258
-8.030471 -85.251053 17.313549
-8.309531 -84.938194 16.261623
-8.093415 -84.130516 17.327604
-5.426675 -80.499519 22.569094
-4.780706 -79.811405 23.600912
-5.255752 -80.902523 23.671761
-8.548845 -63.718058 -1.560879
-8.341387 -64.067995 -0.788364
-9.082802 -65.299163 -1.40279
-8.864199 -63.339012 -2.334236
-8.122784 -62.107844 -1.71981
-8.548845 -63.718058 -1.560879
-10.42467 -80.981701 9.697274
-10.75863 -80.730095 8.879935
-10.157388 -79.879627 9.698446
-10.42467 -80.981701 9.697274
-10.076142 -81.244419 10.524085
-2.353699 -72.284488 17.846256
-2.243771 -72.607628 18.917245
-3.188649 -73.173393 16.834918
-2.537303 -71.975902 16.791831
-2.353699 -72.284488 17.846256
-1.149402 -61.80485 8.54104
-1.519701 -61.459547 7.539169
-1.78208 -63.212015 8.538431
-1.149402 -61.80485 8.54104
-0.754214 -62.124485 9.518674
-9.608332 -72.588104 4.244944
-9.010551 -71.297485 4.042193
-8.615084 -71.403748 4.83895
-9.608332 -72.588104 4.244944
-10.098901 -73.853527 4.513095
-10.612181 -75.026112 4.742071
-10.978777 -76.14053 5.045454
-5.776938 -54.914465 -1.224724
-5.087288 -55.257599 -0.442318
-6.630638 -55.991276 -1.987472
-6.350856 -54.545443 -1.984196
-5.776938 -54.914465 -1.224724
-9.296181 -84.189529 13.28231
-9.624254 -83.95559 12.321576
-9.304932 -83.055611 13.294712
-8.940044 -84.413086 14.241449
-8.674667 -83.553604 15.265561
-8.637853 -84.677139 15.251565
-9.296181 -84.189529 13.28231
-8.940044 -84.413086 14.241449
-2.935691 -77.164684 25.515079
-3.433038 -78.35617 25.616509
-3.001842 -76.785339 24.431255
-2.935691 -77.164684 25.515079
-4.257504 -78.684189 23.507295
-4.08658 -79.087193 24.609963
-4.780706 -79.811405 23.600912
-3.121828 -76.396462 23.340536
-3.001842 -76.785339 24.431255
-3.683364 -77.571098 23.425627
-3.189265 -76.023083 22.260376
-3.121828 -76.396462 23.340536
-3.314713 -75.653667 21.177516
-3.189265 -76.023083 22.260376
-3.928799 -76.812805 21.252049
-3.402361 -75.296661 20.099916
-3.314713 -75.653667 21.177516
-4.203968 -76.101578 19.097511
-3.552082 -74.954849 19.028238
-3.402361 -75.296661 20.099916
-1.046161 -65.779122 12.577056
-1.320903 -65.482017 11.53804
-1.623711 -67.101673 12.557971
-1.046161 -65.779122 12.577056
-2.258106 -68.374416 12.595135
-2.565637 -68.08979 11.576824
-1.623711 -67.101673 12.557971
-2.877183 -69.634277 12.615541
-2.258106 -68.374416 12.595135
-3.53596 -70.840309 12.684418
-3.85881 -70.568566 11.682865
-2.877183 -69.634277 12.615541
-4.484688 -61.194328 2.991155
-3.846697 -59.708824 2.939897
-3.363724 -60.060398 3.809959
-9.41676 -67.228665 -0.415272
-8.587548 -65.961926 0.16739
-9.128964 -67.541489 0.382394
-9.533701 -66.930496 -1.180297
-9.41676 -67.228665 -0.415272
-9.423009 -71.107826 3.21776
-8.429761 -69.92347 3.811766
-9.010551 -71.297485 4.042193
-9.726437 -70.983421 2.432078
-9.423009 -71.107826 3.21776
-10.057686 -70.770805 1.625386
-9.173468 -69.521194 2.180642
-9.726437 -70.983421 2.432078
-10.23695 -70.604774 0.854093
-10.057686 -70.770805 1.625386
-9.731447 -69.058403 0.586841
-10.23695 -70.604774 0.854093
-6.938391 -86.736 21.684538
-7.191905 -86.318641 20.561152
-7.035192 -85.596665 21.680758
-6.533471 -86.465904 23.960901
-6.420362 -85.329658 23.906781
-6.684659 -87.171524 22.828856
-6.533471 -86.465904 23.960901
-6.938391 -86.736 21.684538
-6.684659 -87.171524 22.828856
-5.688472 -82.008057 23.756693
-5.255752 -80.902523 23.671761
-6.221004 -82.684471 22.69038
-5.688472 -82.008057 23.756693
-6.007756 -83.10189 23.807131
-4.382115 -59.339054 2.067152
-3.261151 -58.205124 2.885957
-3.846697 -59.708824 2.939897
-9.005985 -62.948246 -3.082559
-8.864199 -63.339012 -2.334236
-8.715322 -61.321529 -3.241287
-9.005985 -62.948246 -3.082559
-8.35663 -59.759966 -3.33462
-8.079444 -60.167234 -2.5865
-8.715322 -61.321529 -3.241287
-8.145822 -58.204504 -3.422637
-8.35663 -59.759966 -3.33462
-7.887724 -56.712795 -3.456193
-7.462654 -57.113962 -2.713388
-8.145822 -58.204504 -3.422637
-7.783482 -55.248455 -3.483148
-7.887724 -56.712795 -3.456193
-11.071216 -80.404453 8.1466
-10.75863 -80.730095 8.879935
-9.98093 -82.589638 11.433182
-9.746037 -81.482429 11.42297
-9.398112 -81.714462 12.323767
-9.98093 -82.589638 11.433182
-10.001071 -83.736809 11.419321
-7.730151 -85.569565 18.370621
-7.551531 -84.811341 19.468452
-7.467326 -85.937531 19.459543
-8.030471 -85.251053 17.313549
-7.730151 -85.569565 18.370621
-3.21425 -71.10138 13.672349
-2.964628 -71.387909 14.706948
-4.195877 -72.035668 12.739673
-3.53596 -70.840309 12.684418
-3.21425 -71.10138 13.672349
-3.679367 -74.620872 17.957588
-2.87776 -73.815956 18.959993
-3.552082 -74.954849 19.028238
-10.709973 -78.11911 7.400315
-9.987751 -77.336586 8.064692
-10.368539 -78.302147 8.12924
-10.908735 -77.860161 6.872631
-10.709973 -78.11911 7.400315
-2.869481 -60.427349 4.72772
-3.363724 -60.060398 3.809959
-3.530545 -61.887816 4.768077
-2.869481 -60.427349 4.72772
-2.398312 -60.769262 5.634581
-2.618322 -62.561054 6.617868
-1.960754 -61.128221 6.59624
-1.519701 -61.459547 7.539169
-1.048728 -63.839319 10.526243
-0.45523 -62.451723 10.555065
-2.030082 -64.890219 9.541956
-1.048728 -63.839319 10.526243
-1.691918 -65.197887 10.552133
-10.223807 -76.10955 6.500277
-10.634778 -76.051285 5.739636
-9.828453 -75.097802 6.260293
-10.679659 -77.108292 6.657693
-10.223807 -76.10955 6.500277
-9.873334 -76.154808 7.17835
-10.908735 -77.860161 6.872631
-10.679659 -77.108292 6.657693
3 83 21 84
3 0 24 22
3 0 27 25
3 0 22 27
3 1 31 29
3 2 85 86
3 2 87 88
3 90 89 32
3 3 91 93
3 93 92 34
3 91 92 93
3 94 35 95
3 3 38 36
3 3 34 38
3 96 41 97
3 4 44 42
3 4 46 44
3 5 98 100
3 100 99 47
3 98 99 100
3 6 101 102
3 6 103 105
3 103 48 104
3 103 104 105
3 7 51 49
3 107 106 23
3 108 52 109
3 8 53 26
3 8 54 53
3 8 56 54
3 7 57 28
3 7 49 57
3 11 60 58
3 13 61 30
3 13 110 112
3 112 111 61
3 110 111 112
3 113 64 114
3 115 114 62
3 113 114 115
3 116 62 117
3 12 65 59
3 14 66 33
3 14 67 66
3 15 118 119
3 121 120 50
3 123 122 63
3 16 124 125
3 16 126 128
3 126 68 127
3 126 127 128
3 9 69 55
3 17 70 37
3 17 71 70
3 17 72 71
3 15 73 39
3 15 129 131
3 131 130 73
3 129 130 131
3 132 75 133
3 19 76 40
3 19 77 76
3 10 134 136
3 134 78 135
3 134 135 136
3 20 79 43
3 20 80 79
3 20 81 80
3 18 82 45
3 18 74 82
3 138 137 5
3 21 139 140
3 21 141 143
3 141 6 142
3 141 142 143
3 22 23 7
3 24 23 22
3 24 144 146
3 146 145 23
3 144 145 146
3 25 147 149
3 147 26 148
3 147 148 149
3 27 26 25
3 27 8 26
3 27 28 8
3 22 28 27
3 22 7 28
3 29 30 11
3 31 30 29
3 31 13 30
3 32 33 12
3 150 33 151
3 152 151 32
3 150 151 152
3 153 14 154
3 155 154 33
3 153 154 155
3 34 156 158
3 158 157 15
3 156 157 158
3 160 159 34
3 35 161 162
3 35 163 165
3 163 16 164
3 163 164 165
3 36 37 9
3 38 37 36
3 38 17 37
3 38 39 17
3 34 39 38
3 34 15 39
3 166 40 167
3 41 168 170
3 168 40 169
3 168 169 170
3 41 19 40
3 42 43 10
3 44 43 42
3 44 20 43
3 44 45 20
3 46 45 44
3 46 18 45
3 47 171 173
3 173 172 1
3 171 172 173
3 175 174 47
3 177 176 5
3 48 178 179
3 48 180 182
3 180 2 181
3 180 181 182
3 49 50 3
3 51 50 49
3 51 183 185
3 185 184 50
3 183 184 185
3 23 51 7
3 186 51 187
3 188 187 23
3 186 187 188
3 190 189 51
3 52 191 192
3 52 193 194
3 26 195 197
3 195 52 196
3 195 196 197
3 53 52 26
3 53 198 200
3 200 199 52
3 198 199 200
3 53 201 202
3 54 203 205
3 205 204 53
3 203 204 205
3 54 206 207
3 54 208 210
3 208 55 209
3 208 209 210
3 56 55 54
3 56 9 55
3 28 56 8
3 57 56 28
3 57 9 56
3 57 36 9
3 49 36 57
3 49 3 36
3 211 10 212
3 213 10 214
3 215 42 216
3 217 216 10
3 215 216 217
3 218 42 219
3 220 4 221
3 222 221 42
3 220 221 222
3 58 223 225
3 223 59 224
3 223 224 225
3 60 59 58
3 60 12 59
3 30 60 11
3 61 60 30
3 61 12 60
3 61 32 12
3 226 32 227
3 228 227 61
3 226 227 228
3 230 229 32
3 231 31 232
3 233 232 1
3 231 232 233
3 234 31 235
3 236 13 237
3 238 237 31
3 236 237 238
3 239 13 240
3 242 241 13
3 62 63 0
3 64 63 62
3 64 243 245
3 245 244 63
3 243 244 245
3 246 64 247
3 248 64 249
3 251 250 64
3 252 25 253
3 62 254 256
3 254 25 255
3 254 255 256
3 62 0 25
3 59 257 259
3 257 21 258
3 257 258 259
3 65 21 59
3 65 6 21
3 33 65 12
3 66 65 33
3 66 6 65
3 66 48 6
3 67 48 66
3 67 2 48
3 260 14 261
3 262 14 263
3 264 67 265
3 266 265 14
3 264 265 266
3 267 67 268
3 269 2 270
3 271 270 67
3 269 270 271
3 273 272 2
3 275 274 15
3 50 276 278
3 278 277 3
3 276 277 278
3 280 279 50
3 63 24 0
3 281 24 282
3 283 282 63
3 281 282 283
3 285 284 24
3 68 286 287
3 68 288 290
3 288 4 289
3 288 289 290
3 55 291 293
3 291 35 292
3 291 292 293
3 69 35 55
3 69 16 35
3 37 69 9
3 70 69 37
3 70 16 69
3 70 68 16
3 71 68 70
3 71 4 68
3 71 46 4
3 72 46 71
3 72 18 46
3 39 72 17
3 73 72 39
3 73 18 72
3 73 74 18
3 294 74 295
3 296 295 73
3 294 295 296
3 298 297 74
3 299 58 300
3 75 301 303
3 301 58 302
3 301 302 303
3 75 11 58
3 40 304 306
3 304 75 305
3 304 305 306
3 76 75 40
3 76 11 75
3 76 29 11
3 77 29 76
3 77 1 29
3 307 41 308
3 78 309 311
3 309 41 310
3 309 310 311
3 78 19 41
3 43 78 10
3 79 78 43
3 79 19 78
3 79 77 19
3 80 77 79
3 80 1 77
3 80 47 1
3 81 47 80
3 81 5 47
3 45 81 20
3 82 81 45
3 82 5 81
3 82 312 314
3 314 313 5
3 312 313 314
3 74 315 317
3 317 316 82
3 315 316 317
3 74 318 319
