ply
format ascii 1.0
element vertex 224
property float x
property float y
property float z
element face 180
property list uchar int vertex_index
end_header
37.802086 6.137817 2.243454
39.055138 6.370296 9.106703
43.844425 4.926525 11.826288
37.982822 6.559826 6.145959
43.99543 12.89282 10.015154
47.583496 11.578362 9.707941
47.239311 3.955757 11.766649
41.042648 5.765482 10.999386
38.432858 5.043913 -2.411694
49.4524 10.882769 9.358572
38.36076 2.128016 0.556534
38.4035 6.530293 7.754488
38.268669 2.54846 6.604351
43.953304 8.898647 10.897243
42.392361 9.415472 10.695009
42.353149 5.367002 11.539721
49.069649 3.438725 11.521382
38.019833 5.667048 -0.001287
37.786098 6.434547 4.300817
37.661697 10.598312 5.546992
38.134773 10.647579 7.147713
38.855347 10.522938 8.467462
45.749035 12.251793 9.947502
45.650436 8.34219 10.875944
45.485111 4.453873 11.887527
47.44352 7.757051 10.678284
49.290661 7.150736 10.364773
51.152042 6.530769 10.006739
39.81675 10.254745 9.496529
42.367043 13.484283 9.860328
41.003502 9.875572 10.235382
39.937668 6.106876 10.189887
52.994072 5.907806 9.680573
54.792694 5.297176 9.459251
37.976852 4.271244 2.487242
38.256189 2.266344 1.643783
38.081423 4.132917 1.399994
38.839485 4.409942 8.676856
38.513666 4.489941 8.000749
38.729319 6.450295 8.430595
39.125484 4.317499 9.383585
38.839485 4.409942 8.676856
43.042263 3.15164 12.105228
42.296625 3.371879 11.961945
43.098787 5.146764 11.683004
43.753399 2.967805 12.303778
43.042263 3.15164 12.105228
48.931663 1.605474 12.147005
50.005276 3.175332 11.370959
37.91096 5.902432 1.121083
37.730969 7.784677 0.791478
37.622095 8.020062 1.913849
37.490679 12.605144 5.170496
37.547836 10.475496 4.615504
38.373095 12.658396 7.438404
37.983935 12.697363 6.779295
38.733382 12.596075 8.098278
38.49506 10.585259 7.807588
38.373095 12.658396 7.438404
46.666265 11.915077 9.827721
46.711384 13.822473 9.411416
47.628614 13.485758 9.291635
50.300717 8.661264 9.668029
49.37153 9.016752 9.861673
50.381586 10.527281 9.164929
51.231407 8.351281 9.489012
50.221351 6.840753 10.185756
50.300717 8.661264 9.668029
38.049768 4.549897 5.451118
37.951406 4.487257 4.528548
37.88446 6.497186 5.223388
38.34888 0.634651 5.832897
38.394413 0.584978 6.77089
40.360508 12.127617 9.470327
39.729637 12.331394 9.117783
43.181236 13.188551 9.937741
43.179406 15.179626 9.520091
43.993599 14.883895 9.597504
40.517181 3.889757 10.913185
39.964691 4.060454 10.508436
40.490158 5.936179 10.594637
46.244693 2.28574 12.358322
45.367593 2.534798 12.418761
46.362211 4.204815 11.827088
53.922477 7.322723 9.035359
53.056885 7.680354 9.15196
54.744058 3.591846 10.099612
55.663715 5.007699 9.431138
55.61508 3.302369 10.071499
53.808058 3.842967 10.198247
54.744058 3.591846 10.099612
38.270873 6.754479 -2.809387
37.89052 8.862354 -1.965102
38.052506 7.151788 -1.567408
38.736041 4.685636 -3.689286
38.574055 6.396201 -4.08698
38.270873 6.754479 -2.809387
38.873335 3.104826 -3.298106
38.736041 4.685636 -3.689286
48.574566 13.094152 9.120786
47.628614 13.485758 9.291635
49.509018 12.746356 8.946101
48.517948 11.230566 9.533257
48.574566 13.094152 9.120786
50.438412 12.346955 8.75776
49.509018 12.746356 8.946101
50.381586 10.527281 9.164929
50.438412 12.346955 8.75776
38.535769 0.404769 0.742536
38.709324 0.317094 -0.349898
38.535769 0.404769 0.742536
38.256189 2.266344 1.643783
38.446251 2.499024 7.425681
38.336084 4.539377 7.179419
38.513666 4.489941 8.000749
38.394413 0.584978 6.77089
38.446251 2.499024 7.425681
41.681595 3.540578 11.637704
41.026344 3.739818 11.367537
41.697899 5.566242 11.269554
41.681595 3.540578 11.637704
42.296625 3.371879 11.961945
48.020634 1.819935 12.225271
47.105465 2.078451 12.347905
48.15448 3.697241 11.644015
48.020634 1.819935 12.225271
48.931663 1.605474 12.147005
37.845993 7.463356 -0.362205
37.730969 7.784677 0.791478
38.226346 5.355481 -1.20649
38.052506 7.151788 -1.567408
37.845993 7.463356 -0.362205
38.381712 3.686462 -0.875409
38.588225 3.374894 -2.080612
38.226346 5.355481 -1.20649
38.552176 1.916946 -0.596499
38.381712 3.686462 -0.875409
38.190297 3.897532 0.277623
38.709324 0.317094 -0.349898
38.552176 1.916946 -0.596499
37.610036 8.393614 3.992417
37.794092 6.286182 3.272136
37.618031 8.245248 2.963735
37.723897 8.51643 4.923905
37.610036 8.393614 3.992417
37.547836 10.475496 4.615504
37.747396 12.672729 5.978934
37.490679 12.605144 5.170496
37.898235 10.622946 6.347353
37.747396 12.672729 5.978934
37.983935 12.697363 6.779295
44.897167 14.522979 9.563369
43.993599 14.883895 9.597504
45.773969 14.202465 9.529543
46.711384 13.822473 9.411416
44.872232 12.572306 9.981328
44.897167 14.522979 9.563369
45.773969 14.202465 9.529543
51.046473 4.721355 10.613637
50.005276 3.175332 11.370959
50.110845 4.984747 10.76406
37.618031 8.245248 2.963735
37.622095 8.020062 1.913849
37.968858 4.419609 3.515924
37.976852 4.271244 2.487242
37.794092 6.286182 3.272136
37.968858 4.419609 3.515924
37.951406 4.487257 4.528548
38.192692 2.544213 5.680314
38.049768 4.549897 5.451118
38.125746 4.554143 6.375155
38.192692 2.544213 5.680314
38.34888 0.634651 5.832897
39.248936 12.46549 8.60325
38.733382 12.596075 8.098278
39.336049 10.388841 8.981996
39.248936 12.46549 8.60325
39.729637 12.331394 9.117783
42.333832 15.509058 9.443624
43.179406 15.179626 9.520091
41.635655 13.742386 9.652226
42.333832 15.509058 9.443624
40.953884 11.93803 9.839753
41.635655 13.742386 9.652226
41.685272 11.679927 10.047855
40.410126 10.065158 9.865956
40.360508 12.127617 9.470327
40.953884 11.93803 9.839753
39.56675 4.185789 9.925177
39.125484 4.317499 9.383585
39.496403 6.238586 9.648295
39.56675 4.185789 9.925177
39.964691 4.060454 10.508436
40.517181 3.889757 10.913185
41.026344 3.739818 11.367537
44.573742 2.731479 12.334398
43.753399 2.967805 12.303778
44.664768 4.690199 11.856908
44.573742 2.731479 12.334398
45.367593 2.534798 12.418761
46.244693 2.28574 12.358322
47.105465 2.078451 12.347905
52.13587 7.991836 9.315043
51.231407 8.351281 9.489012
52.073057 6.219288 9.843656
52.13587 7.991836 9.315043
53.056885 7.680354 9.15196
51.967488 4.409873 10.450554
51.046473 4.721355 10.613637
52.073057 6.219288 9.843656
55.641082 6.670055 8.897788
55.663715 5.007699 9.431138
54.821788 7.017408 8.924698
55.641082 6.670055 8.897788
53.893383 5.602491 9.569912
53.922477 7.322723 9.035359
54.821788 7.017408 8.924698
52.908747 4.148282 10.308908
53.893383 5.602491 9.569912
53.808058 3.842967 10.198247
51.967488 4.409873 10.450554
52.908747 4.148282 10.308908
38.873335 3.104826 -3.298106
38.588225 3.374894 -2.080612
3 0 34 36
3 36 35 10
3 34 35 36
3 1 37 39
3 39 38 11
3 37 38 39
3 1 40 41
3 2 15 13
3 2 42 44
3 44 43 15
3 42 43 44
3 2 45 46
3 48 47 16
3 0 49 51
3 49 17 50
3 49 50 51
3 0 10 17
3 52 19 53
3 54 20 55
3 56 21 57
3 58 57 20
3 56 57 58
3 5 59 61
3 59 22 60
3 59 60 61
3 5 23 22
3 5 25 23
3 62 26 63
3 64 63 9
3 62 63 64
3 65 27 66
3 67 66 26
3 65 66 67
3 3 68 70
3 70 69 18
3 68 69 70
3 72 71 12
3 73 28 74
3 4 75 77
3 75 29 76
3 75 76 77
3 7 30 14
3 7 31 30
3 7 78 80
3 80 79 31
3 78 79 80
3 6 81 83
3 83 82 24
3 81 82 83
3 84 32 85
3 86 33 87
3 86 87 88
3 90 89 33
3 8 91 93
3 91 92 93
3 8 94 96
3 94 95 96
3 8 97 98
3 99 5 100
3 101 9 102
3 103 102 5
3 101 102 103
3 104 9 105
3 107 106 9
3 10 108 109
3 111 110 10
3 11 12 3
3 112 12 113
3 114 113 11
3 112 113 114
3 116 115 12
3 13 14 4
3 15 14 13
3 15 7 14
3 15 117 119
3 119 118 7
3 117 118 119
3 121 120 15
3 16 122 124
3 124 123 6
3 122 123 124
3 126 125 16
3 17 127 128
3 17 129 131
3 129 8 130
3 129 130 131
3 17 132 134
3 134 133 8
3 132 133 134
3 10 135 137
3 137 136 17
3 135 136 137
3 10 138 139
3 140 18 141
3 142 141 0
3 140 141 142
3 19 143 145
3 143 18 144
3 143 144 145
3 19 3 18
3 146 19 147
3 20 148 150
3 148 19 149
3 148 149 150
3 20 3 19
3 20 11 3
3 21 11 20
3 21 1 11
3 151 4 152
3 22 153 154
3 22 155 157
3 155 4 156
3 155 156 157
3 22 13 4
3 23 13 22
3 23 2 13
3 23 24 2
3 25 24 23
3 25 6 24
3 9 25 5
3 26 25 9
3 26 6 25
3 26 16 6
3 27 16 26
3 27 158 160
3 160 159 16
3 158 159 160
3 161 0 162
3 18 163 165
3 165 164 0
3 163 164 165
3 167 166 18
3 12 168 170
3 170 169 3
3 168 169 170
3 172 171 12
3 173 21 174
3 28 175 177
3 175 21 176
3 175 176 177
3 28 1 21
3 29 178 179
3 29 180 181
3 14 29 4
3 30 29 14
3 30 182 184
3 184 183 29
3 182 183 184
3 30 185 187
3 185 28 186
3 185 186 187
3 31 28 30
3 31 1 28
3 31 188 190
3 190 189 1
3 188 189 190
3 192 191 31
3 194 193 7
3 24 195 197
3 197 196 2
3 195 196 197
3 199 198 24
3 201 200 6
3 202 27 203
3 32 204 206
3 204 27 205
3 204 205 206
3 32 207 209
3 209 208 27
3 207 208 209
3 33 210 211
3 33 212 213
3 33 214 216
3 214 32 215
3 214 215 216
3 217 32 218
3 219 218 33
3 217 218 219
3 221 220 32
3 223 222 8
