ply
format ascii 1.0
element vertex 210
property float x
property float y
property float z
element face 203
property list uchar int vertex_index
end_header
47.362888 20.020355 28.231661
56.090893 16.77103 18.7694
57.374821 13.136543 26.880898
49.82391 14.198208 36.610695
48.11525 23.301266 24.51976
52.407539 21.35136 19.984167
51.627907 18.565186 23.573189
56.403816 14.884102 22.706341
51.962898 16.098511 27.592045
53.990852 24.39526 16.874199
56.444424 19.014748 15.312115
45.190235 18.185452 37.097775
48.011047 17.02673 32.337894
53.313007 13.763206 31.808084
47.569473 21.624592 26.318253
49.659309 20.795052 24.039885
49.404587 19.310081 25.920404
51.651665 17.298092 25.539959
49.477898 17.904465 27.907692
53.142159 27.298672 17.618416
52.036964 25.639477 19.089718
54.118267 18.947491 19.348179
54.533234 20.248672 17.644424
56.198067 17.846214 16.970533
56.822201 14.01693 24.783215
48.418049 14.537083 39.017555
46.132252 16.590443 39.277794
47.325489 16.031429 36.860027
46.438263 17.550316 34.703964
48.807678 15.604836 34.471245
50.560726 15.26178 32.091419
51.466057 13.963013 34.215347
48.956116 25.034042 22.833857
51.033619 23.981586 20.634014
50.218239 22.357689 22.278572
51.889194 19.916534 21.717022
53.903976 17.735302 21.181456
56.155922 15.789745 20.690254
53.921436 16.612503 23.129665
54.178017 15.560921 25.167294
54.655525 14.544777 27.259621
50.950592 12.778402 38.721008
52.492355 12.632843 36.310867
55.731445 23.04248 14.631434
53.132004 22.853348 18.374012
55.095535 21.62265 16.073971
56.775551 20.260578 13.804646
46.231533 24.214512 26.729612
45.738564 22.44574 28.576756
45.606014 20.745029 30.532978
44.524334 19.826729 34.945381
45.846214 19.115864 32.584061
47.514076 18.491348 30.246822
49.875149 16.564098 29.976181
52.535545 14.934158 29.694618
55.308517 13.516113 29.366337
54.209206 12.54257 33.893112
51.032062 26.217745 20.166201
51.641824 27.09702 19.402635
57.068905 16.198652 17.586635
57.122492 16.736244 16.687202
56.14448 17.308622 17.869967
57.154555 15.774088 18.521522
57.068905 16.198652 17.586635
58.396206 12.841815 25.624737
58.119896 13.282008 24.575896
57.098511 13.576736 25.832057
58.661436 12.439161 26.65803
58.396206 12.841815 25.624737
51.505007 12.048703 39.745067
50.275284 12.910594 39.931477
52.234593 12.009815 38.532722
51.505007 12.048703 39.745067
54.442745 25.169956 16.169081
54.018399 26.621662 16.54119
53.566505 25.846966 17.246308
54.861148 23.71887 15.752817
55.313041 24.493567 15.047698
54.442745 25.169956 16.169081
57.224289 18.314763 14.200962
57.389853 18.937677 13.447228
56.609988 19.637663 14.558381
57.45845 14.445994 21.47717
57.334503 14.898815 20.469127
56.279869 15.336924 21.698297
45.449517 24.671711 27.835286
45.824394 25.61297 26.933833
45.203032 23.787325 28.758858
45.985048 23.330126 27.653184
45.449517 24.671711 27.835286
44.903423 21.136663 31.692843
44.928131 22.020858 30.689526
44.72678 18.573309 38.31465
45.197789 17.775804 39.40466
45.661243 17.387948 38.187784
44.373966 19.421315 37.222162
44.72678 18.573309 38.31465
44.857285 19.00609 36.021578
44.041016 20.241953 36.145966
44.373966 19.421315 37.222162
54.661839 11.889173 34.903814
53.35078 12.587706 35.10199
53.803413 11.934309 36.112691
52.194422 27.926617 18.666984
52.831372 28.78776 17.916269
52.589562 26.469074 18.354067
52.194422 27.926617 18.666984
51.641824 27.09702 19.402635
57.092411 17.209364 15.81923
57.21559 17.793631 14.990022
56.321246 18.430481 16.141324
57.092411 17.209364 15.81923
57.122492 16.736244 16.687202
57.872473 13.649493 23.537884
57.66328 14.083078 22.499447
56.613008 14.450516 23.744778
57.872473 13.649493 23.537884
58.119896 13.282008 24.575896
47.275151 15.563763 39.147675
46.692879 15.806513 40.36435
47.835778 14.779833 40.23423
49.994867 24.507814 21.733936
50.53039 25.388799 20.93835
49.491639 25.915028 22.038271
49.009012 13.789935 40.07975
47.835778 14.779833 40.23423
49.68432 13.657743 38.869281
49.009012 13.789935 40.07975
50.275284 12.910594 39.931477
53.005474 11.937036 37.327652
51.721474 12.705623 37.515937
52.234593 12.009815 38.532722
53.803413 11.934309 36.112691
53.005474 11.937036 37.327652
53.696106 28.112642 16.902893
52.831372 28.78776 17.916269
54.572345 27.435633 15.825667
53.696106 28.112642 16.902893
54.018399 26.621662 16.54119
56.041168 23.759417 13.968141
55.313041 24.493567 15.047698
56.424767 22.299921 13.541458
56.041168 23.759417 13.968141
51.535291 24.810531 19.861866
51.032062 26.217745 20.166201
50.53039 25.388799 20.93835
56.94682 20.90897 13.128064
56.424767 22.299921 13.541458
56.253498 21.651529 14.21804
57.410578 19.498905 12.746245
56.94682 20.90897 13.128064
57.410578 19.498905 12.746245
57.389853 18.937677 13.447228
57.224289 18.314763 14.200962
57.21559 17.793631 14.990022
57.187069 15.283445 19.481949
57.154555 15.774088 18.521522
56.123407 16.280387 19.729827
57.187069 15.283445 19.481949
57.334503 14.898815 20.469127
57.45845 14.445994 21.47717
57.66328 14.083078 22.499447
48.536648 26.458818 23.088033
49.491639 25.915028 22.038271
48.000519 25.534895 23.912176
48.536648 26.458818 23.088033
47.580086 24.668507 24.755127
48.535683 24.167654 23.676808
48.000519 25.534895 23.912176
46.638227 25.12513 25.860053
45.824394 25.61297 26.933833
47.173392 23.757889 25.624686
47.580086 24.668507 24.755127
46.638227 25.12513 25.860053
44.994406 22.871214 29.711416
45.203032 23.787325 28.758858
45.672289 21.595385 29.554867
44.994406 22.871214 29.711416
44.928131 22.020858 30.689526
45.673075 16.946846 40.505018
46.692879 15.806513 40.36435
45.673075 16.946846 40.505018
45.197789 17.775804 39.40466
43.847662 21.115606 35.0778
44.041016 20.241953 36.145966
44.362583 20.677513 33.899044
43.847662 21.115606 35.0778
45.023523 20.32208 32.718384
44.362583 20.677513 33.899044
45.185274 19.471297 33.764721
45.726114 19.930446 31.558519
44.903423 21.136663 31.692843
45.023523 20.32208 32.718384
55.518355 11.882782 33.677754
54.661839 11.889173 34.903814
55.136799 12.483147 32.669729
55.518355 11.882782 33.677754
54.688699 13.093464 31.627215
53.761106 13.152888 32.850598
55.136799 12.483147 32.669729
55.686454 12.969918 30.406341
54.310762 13.63966 30.587211
54.688699 13.093464 31.627215
56.655123 12.850704 29.161988
55.686454 12.969918 30.406341
57.688274 12.660919 27.919269
56.341669 13.326328 28.123618
56.655123 12.850704 29.161988
58.661436 12.439161 26.65803
57.688274 12.660919 27.919269
3 0 16 14
3 0 18 16
3 57 20 58
3 1 23 21
3 1 59 61
3 61 60 23
3 59 60 61
3 1 62 63
3 2 64 66
3 66 65 24
3 64 65 66
3 2 67 68
3 3 27 25
3 3 29 27
3 3 31 29
3 4 34 32
3 6 35 15
3 6 36 35
3 6 38 36
3 8 39 17
3 8 40 39
3 69 41 70
3 72 71 41
3 9 73 75
3 75 74 19
3 73 74 75
3 9 76 78
3 76 43 77
3 76 77 78
3 5 44 33
3 10 45 22
3 10 46 45
3 10 79 81
3 81 80 46
3 79 80 81
3 7 82 84
3 84 83 37
3 82 83 84
3 85 47 86
3 87 48 88
3 89 88 47
3 87 88 89
3 90 49 91
3 11 92 94
3 94 93 26
3 92 93 94
3 11 95 96
3 11 97 99
3 97 50 98
3 97 98 99
3 12 51 28
3 12 52 51
3 12 53 52
3 13 54 30
3 13 55 54
3 100 56 101
3 102 101 42
3 100 101 102
3 14 15 4
3 16 15 14
3 16 6 15
3 16 17 6
3 18 17 16
3 18 8 17
3 103 19 104
3 20 105 107
3 105 19 106
3 105 106 107
3 20 9 19
3 21 22 5
3 23 22 21
3 23 10 22
3 23 108 110
3 110 109 10
3 108 109 110
3 112 111 23
3 24 113 115
3 115 114 7
3 113 114 115
3 117 116 24
3 25 118 120
3 118 26 119
3 118 119 120
3 27 26 25
3 27 11 26
3 27 28 11
3 29 28 27
3 29 12 28
3 29 30 12
3 31 30 29
3 31 13 30
3 32 121 123
3 121 33 122
3 121 122 123
3 34 33 32
3 34 5 33
3 15 34 4
3 35 34 15
3 35 5 34
3 35 21 5
3 36 21 35
3 36 1 21
3 36 37 1
3 38 37 36
3 38 7 37
3 17 38 6
3 39 38 17
3 39 7 38
3 39 24 7
3 40 24 39
3 40 2 24
3 124 25 125
3 41 126 128
3 126 25 127
3 126 127 128
3 41 3 25
3 41 42 3
3 129 42 130
3 131 130 41
3 129 130 131
3 133 132 42
3 19 134 135
3 138 137 19
3 136 137 138
3 43 139 140
3 43 141 142
3 33 143 145
3 143 20 144
3 143 144 145
3 44 20 33
3 44 9 20
3 22 44 5
3 45 44 22
3 45 9 44
3 45 43 9
3 46 43 45
3 46 146 148
3 148 147 43
3 146 147 148
3 46 149 150
3 152 151 46
3 154 153 10
3 37 155 157
3 157 156 1
3 155 156 157
3 159 158 37
3 161 160 7
3 162 32 163
3 164 32 165
3 166 4 167
3 168 167 32
3 166 167 168
3 47 169 170
3 47 171 173
3 171 4 172
3 171 172 173
3 47 14 4
3 48 14 47
3 48 0 14
3 174 48 175
3 49 176 178
3 176 48 177
3 176 177 178
3 49 0 48
3 26 179 180
3 182 181 26
3 50 183 184
3 50 185 186
3 28 50 11
3 51 50 28
3 51 187 189
3 189 188 50
3 187 188 189
3 51 190 192
3 190 49 191
3 190 191 192
3 52 49 51
3 52 0 49
3 52 18 0
3 53 18 52
3 53 8 18
3 30 53 12
3 54 53 30
3 54 8 53
3 54 40 8
3 55 40 54
3 55 2 40
3 42 31 3
3 56 31 42
3 56 13 31
3 193 56 194
3 195 56 196
3 197 13 198
3 199 198 56
3 197 198 199
3 200 55 201
3 202 201 13
3 200 201 202
3 203 55 204
3 205 2 206
3 207 206 55
3 205 206 207
3 209 208 2
