ply
format ascii 1.0
element vertex 77
property float x
property float y
property float z
element face 56
property list uchar int vertex_index
end_header
-11.530058 34.588413 -31.715847
-11.540688 26.172657 -30.203587
-11.96545 38.434944 -32.10778
-9.882551 38.553581 -32.292091
-7.804365 29.541306 -30.694897
-9.562061 30.127251 -30.875393
-13.550266 34.544235 -31.667477
-13.276266 30.684155 -31.17944
-11.387587 30.494656 -31.045212
-9.098499 40.541708 -32.584885
-10.166355 40.463051 -32.424526
-8.810078 27.546813 -30.311011
-7.974675 27.129145 -30.184885
-12.42774 26.390017 -30.34103
-12.35119 28.551016 -30.761843
-11.464137 28.333657 -30.624399
-11.207804 40.403732 -32.33237
-12.328694 40.234121 -32.127338
-10.924001 38.494263 -32.199935
-11.207804 40.403732 -32.33237
-10.166355 40.463051 -32.424526
-8.683213 29.834278 -30.785145
-8.642602 32.133001 -31.258869
-7.763754 31.840029 -31.168621
-9.688925 27.839785 -30.401258
-8.683213 29.834278 -30.785145
-8.810078 27.546813 -30.311011
-10.678239 25.862488 -30.065355
-10.551374 28.149954 -30.53949
-9.688925 27.839785 -30.401258
-13.050505 38.30436 -31.977476
-12.328694 40.234121 -32.127338
-13.842913 36.359005 -31.757325
-13.050505 38.30436 -31.977476
-12.757858 36.48959 -31.887628
-14.594611 34.468071 -31.605828
-13.842913 36.359005 -31.757325
-14.387093 32.644419 -31.459626
-15.431438 32.568255 -31.397976
-14.594611 34.468071 -31.605828
-14.250093 30.714379 -31.215607
-14.387093 32.644419 -31.459626
-13.413266 32.614195 -31.423459
-14.206021 28.790464 -30.94862
-14.250093 30.714379 -31.215607
-6.878156 31.549164 -31.12205
-7.763754 31.840029 -31.168621
-6.964804 29.126366 -30.604439
-6.878156 31.549164 -31.12205
-7.974675 27.129145 -30.184885
-6.964804 29.126366 -30.604439
-8.888289 38.512983 -32.347555
-9.098499 40.541708 -32.584885
-9.734253 36.511816 -31.996847
-8.888289 38.512983 -32.347555
-10.558007 34.529232 -31.708725
-10.706304 36.570997 -32.003969
-9.734253 36.511816 -31.996847
-9.574008 32.298651 -31.288498
-8.642602 32.133001 -31.258869
-10.486771 32.482354 -31.373407
-9.574008 32.298651 -31.288498
-10.474824 30.310954 -30.960302
-11.458823 32.541534 -31.38053
-10.558007 34.529232 -31.708725
-10.486771 32.482354 -31.373407
-13.29553 28.645765 -30.828957
-12.331926 30.589405 -31.112326
-12.35119 28.551016 -30.761843
-14.206021 28.790464 -30.94862
-13.29553 28.645765 -30.828957
-11.766692 23.918394 -29.759123
-10.678239 25.862488 -30.065355
-12.602974 24.259762 -29.94496
-11.766692 23.918394 -29.759123
-12.42774 26.390017 -30.34103
-12.602974 24.259762 -29.94496
3 9 3 10
3 12 11 4
3 0 6 2
3 0 7 6
3 1 8 5
3 1 13 15
3 15 14 8
3 13 14 15
3 16 2 17
3 3 18 20
3 18 2 19
3 18 19 20
3 3 0 2
3 4 21 23
3 21 5 22
3 21 22 23
3 24 5 25
3 26 25 4
3 24 25 26
3 27 1 28
3 29 28 5
3 27 28 29
3 2 30 31
3 6 32 34
3 34 33 2
3 32 33 34
3 6 35 36
3 6 37 39
3 37 38 39
3 7 40 42
3 42 41 6
3 40 41 42
3 7 43 44
3 45 4 46
3 47 4 48
3 50 49 4
3 51 3 52
3 53 3 54
3 55 0 56
3 57 56 3
3 55 56 57
3 5 58 59
3 8 60 62
3 62 61 5
3 60 61 62
3 8 63 65
3 63 0 64
3 63 64 65
3 8 7 0
3 66 7 67
3 68 67 8
3 66 67 68
3 70 69 7
3 71 1 72
3 73 1 74
3 76 75 1
