ply
format ascii 1.0
element vertex 123
property float x
property float y
property float z
element face 103
property list uchar int vertex_index
end_header
-34.486629 47.515354 -24.480568
-38.392075 50.735859 -22.246456
-34.813538 53.278652 -23.762695
-30.193712 49.567722 -25.854469
-25.85248 45.148991 -28.102486
-32.430172 45.65205 -25.597641
-37.04388 54.862263 -22.786388
-29.813055 52.782749 -25.303387
-27.463316 50.701321 -26.432938
-27.952572 47.450703 -26.979473
-25.24119 48.440304 -27.605656
-36.49654 49.211246 -23.368511
-40.73951 54.6497 -20.984936
-38.914314 53.411091 -22.093498
-36.909748 51.954311 -23.137897
-34.775749 50.311176 -24.176857
-32.22102 54.686893 -24.253395
-32.505638 51.509762 -24.777378
-32.577816 48.497555 -25.245644
-30.390518 46.513737 -26.347424
-28.290354 44.349869 -27.452522
-26.349333 41.9935 -28.505161
-34.226789 46.197342 -24.552489
-35.153583 47.073712 -23.965454
-33.4584 46.583702 -25.039105
-33.19856 45.26569 -25.111025
-34.226789 46.197342 -24.552489
-25.991461 51.285339 -26.762567
-27.150155 52.399845 -26.158986
-24.880398 50.154831 -27.348926
-26.352253 49.570813 -27.019297
-25.991461 51.285339 -26.762567
-23.810018 48.948677 -27.959782
-24.880398 50.154831 -27.348926
-37.986226 49.475758 -22.246878
-38.791788 50.178959 -21.620753
-37.444308 49.973552 -22.807484
-37.038458 48.713451 -22.807905
-37.986226 49.475758 -22.246878
-39.022778 54.821762 -21.942577
-39.826912 54.030395 -21.539217
-39.935376 55.441067 -21.388296
-30.746071 55.41637 -24.502716
-31.986307 56.345104 -23.982309
-30.511357 57.074581 -24.231631
-24.903782 43.900385 -28.625706
-25.152209 42.322639 -28.827044
-26.100907 43.571246 -28.303824
-39.25705 51.402382 -21.661058
-38.791788 50.178959 -21.620753
-32.260748 44.302096 -25.683802
-33.19856 45.26569 -25.111025
-31.417286 44.632567 -26.152477
-32.260748 44.302096 -25.683802
-36.978182 56.385891 -22.557724
-38.087561 55.547348 -22.289022
-35.828105 55.63319 -23.031838
-36.978182 56.385891 -22.557724
-34.712935 54.841385 -23.519991
-35.928709 54.070458 -23.274541
-35.828105 55.63319 -23.031838
-28.325024 53.44056 -25.59421
-29.542088 54.464298 -25.027712
-28.638185 51.742035 -25.868163
-28.325024 53.44056 -25.59421
-27.150155 52.399845 -26.158986
-24.223999 47.21574 -28.178202
-24.529644 45.570084 -28.426617
-25.546835 46.794647 -27.854071
-24.223999 47.21574 -28.178202
-23.810018 48.948677 -27.959782
-36.158539 47.921658 -23.409426
-37.038458 48.713451 -22.807905
-35.491585 48.3633 -23.92454
-35.153583 47.073712 -23.965454
-36.158539 47.921658 -23.409426
-41.547499 55.13884 -20.364935
-41.198101 53.912468 -20.394434
-40.882159 55.999168 -20.843897
-41.547499 55.13884 -20.364935
-41.690148 56.488308 -20.223896
-39.935376 55.441067 -21.388296
-40.882159 55.999168 -20.843897
-40.430768 53.359302 -21.030299
-41.198101 53.912468 -20.394434
-39.518169 52.739998 -21.58458
-40.430768 53.359302 -21.030299
-39.826912 54.030395 -21.539217
-38.653194 52.073475 -22.169977
-39.25705 51.402382 -21.661058
-39.518169 52.739998 -21.58458
-37.979097 54.136677 -22.439943
-39.022778 54.821762 -21.942577
-38.087561 55.547348 -22.289022
-33.416675 55.545505 -23.765341
-31.986307 56.345104 -23.982309
-33.517279 53.982772 -24.008045
-34.712935 54.841385 -23.519991
-33.416675 55.545505 -23.765341
-31.017038 53.734821 -24.778391
-30.746071 55.41637 -24.502716
-29.542088 54.464298 -25.027712
-30.397459 45.06341 -26.527369
-31.417286 44.632567 -26.152477
-31.410345 46.082893 -25.972532
-29.347377 43.981476 -27.079918
-30.397459 45.06341 -26.527369
-29.340436 45.431803 -26.899973
-28.389126 42.867712 -27.612627
-29.347377 43.981476 -27.079918
-27.418616 41.689527 -28.138947
-28.389126 42.867712 -27.612627
-27.319844 43.171684 -27.978842
-26.551305 40.476551 -28.623222
-27.418616 41.689527 -28.138947
-25.48977 40.71483 -28.970461
-25.691742 39.197881 -29.088521
-26.551305 40.476551 -28.623222
-25.48977 40.71483 -28.970461
-25.152209 42.322639 -28.827044
-23.580946 44.321478 -28.949837
-24.903782 43.900385 -28.625706
-24.529644 45.570084 -28.426617
3 0 22 23
3 0 24 26
3 24 5 25
3 24 25 26
3 27 8 28
3 29 10 30
3 31 30 8
3 29 30 31
3 33 32 10
3 1 34 35
3 1 36 38
3 36 11 37
3 36 37 38
3 39 13 40
3 41 40 12
3 39 40 41
3 2 14 6
3 2 15 14
3 42 16 43
3 42 43 44
3 3 17 7
3 3 18 17
3 3 19 18
3 4 20 9
3 4 21 20
3 4 45 47
3 47 46 21
3 45 46 47
3 48 1 49
3 5 50 51
3 5 52 53
3 54 6 55
3 56 6 57
3 58 2 59
3 60 59 6
3 58 59 60
3 61 7 62
3 8 63 65
3 63 7 64
3 63 64 65
3 8 3 7
3 8 9 3
3 10 9 8
3 10 4 9
3 10 66 68
3 68 67 4
3 66 67 68
3 70 69 10
3 11 71 72
3 11 73 75
3 73 0 74
3 73 74 75
3 76 12 77
3 78 12 79
3 78 79 80
3 82 81 12
3 12 83 84
3 13 85 87
3 87 86 12
3 85 86 87
3 13 88 90
3 88 1 89
3 88 89 90
3 6 91 93
3 91 13 92
3 91 92 93
3 14 13 6
3 14 1 13
3 14 11 1
3 15 11 14
3 15 0 11
3 16 94 95
3 16 96 98
3 96 2 97
3 96 97 98
3 7 99 101
3 99 16 100
3 99 100 101
3 17 16 7
3 17 2 16
3 17 15 2
3 18 15 17
3 18 0 15
3 18 5 0
3 19 5 18
3 19 102 104
3 104 103 5
3 102 103 104
3 9 19 3
3 20 19 9
3 20 105 107
3 107 106 19
3 105 106 107
3 20 108 109
3 21 110 112
3 112 111 20
3 110 111 112
3 21 113 114
3 21 115 117
3 115 116 117
3 119 118 21
3 122 121 4
3 120 121 122
