ply
format ascii 1.0
element vertex 117
property float x
property float y
property float z
element face 87
property list uchar int vertex_index
end_header
-30.56118 -4.485447 -52.852089
-32.033951 -9.864916 -50.117393
-28.33201 -9.354585 -49.227516
-33.434475 -7.807158 -51.768433
-31.26162 -7.135673 -51.598984
-28.90274 -11.917515 -48.040443
-36.479225 -4.410864 -54.798485
-35.762333 -8.875566 -51.596909
-34.25909 -10.657099 -50.053345
-29.959309 -1.916124 -53.812462
-28.205223 0.437967 -53.079124
-28.45656 -1.885111 -52.745232
-28.849682 -4.314667 -52.061165
-29.37196 -6.836364 -51.076019
-30.009853 -9.442724 -49.844398
-30.744875 -12.129257 -48.423588
-31.593292 -4.760472 -53.066349
-31.215469 -3.41071 -53.682125
-30.9114 -5.81056 -52.225537
-31.943512 -6.085585 -52.439796
-31.593292 -4.760472 -53.066349
-35.700081 -5.198142 -54.073429
-35.278954 -3.788436 -54.818424
-36.129459 -6.665515 -53.210869
-36.908603 -5.878236 -53.935924
-35.700081 -5.198142 -54.073429
-35.341635 -7.430493 -52.472641
-36.550157 -8.110587 -52.335136
-36.129459 -6.665515 -53.210869
-32.440031 -11.268586 -49.29743
-33.5526 -11.664677 -49.265406
-33.146521 -10.261007 -50.085369
-29.720332 -0.676581 -54.118358
-30.581428 -0.812433 -54.6049
-27.819249 0.207749 -52.23114
-28.157409 1.53464 -53.05178
-28.030967 -3.185822 -51.832287
-27.953748 -2.041174 -52.036183
-28.227528 -4.4006 -51.490254
-28.653121 -3.099889 -52.403199
-28.030967 -3.185822 -51.832287
-28.115312 -8.115056 -49.715416
-27.73505 -9.456253 -48.751331
-28.851985 -8.095474 -50.151768
-28.635286 -6.855945 -50.639668
-28.115312 -8.115056 -49.715416
-30.172145 -13.34399 -47.556511
-29.823808 -12.023386 -48.232016
-29.251078 -13.238119 -47.364939
-31.14728 -13.509203 -47.648363
-30.172145 -13.34399 -47.556511
-33.029939 -6.421328 -52.524521
-34.177706 -6.896289 -52.558403
-32.348047 -7.471415 -51.683709
-33.029939 -6.421328 -52.524521
-31.943512 -6.085585 -52.439796
-27.904187 -10.674716 -48.276919
-27.73505 -9.456253 -48.751331
-28.189552 -11.956181 -47.683382
-28.617375 -10.63605 -48.63398
-27.904187 -10.674716 -48.276919
-28.438631 -13.214908 -47.115105
-28.189552 -11.956181 -47.683382
-29.251078 -13.238119 -47.364939
-28.438631 -13.214908 -47.115105
-36.045849 -2.971319 -55.496994
-35.278954 -3.788436 -54.818424
-37.292738 -3.742392 -55.41626
-36.045849 -2.971319 -55.496994
-37.728473 -5.238054 -54.606781
-37.292738 -3.742392 -55.41626
-37.728473 -5.238054 -54.606781
-36.908603 -5.878236 -53.935924
-36.949405 -9.617214 -51.35614
-36.550157 -8.110587 -52.335136
-36.159073 -10.363367 -50.637219
-36.949405 -9.617214 -51.35614
-34.598404 -8.341362 -51.682671
-35.341635 -7.430493 -52.472641
-34.177706 -6.896289 -52.558403
-35.407452 -11.254134 -49.865437
-36.159073 -10.363367 -50.637219
-35.010711 -9.766333 -50.825127
-34.657568 -12.122934 -49.137052
-35.407452 -11.254134 -49.865437
-34.657568 -12.122934 -49.137052
-33.5526 -11.664677 -49.265406
-30.914534 -2.126049 -54.162312
-30.581428 -0.812433 -54.6049
-30.260244 -3.200785 -53.332275
-31.215469 -3.41071 -53.682125
-30.914534 -2.126049 -54.162312
-28.679811 1.684278 -53.861335
-28.157409 1.53464 -53.05178
-28.843288 0.500465 -53.751689
-28.679811 1.684278 -53.861335
-27.82808 -0.879635 -52.203129
-27.819249 0.207749 -52.23114
-28.330891 -0.723572 -52.912178
-27.82808 -0.879635 -52.203129
-27.953748 -2.041174 -52.036183
-28.968957 -0.661074 -53.584744
-28.843288 0.500465 -53.751689
-28.330891 -0.723572 -52.912178
-29.207935 -1.900618 -53.278847
-29.720332 -0.676581 -54.118358
-28.968957 -0.661074 -53.584744
-28.374147 -5.595097 -51.132241
-28.227528 -4.4006 -51.490254
-29.110821 -5.575515 -51.568592
-28.374147 -5.595097 -51.132241
-28.635286 -6.855945 -50.639668
-31.795493 -12.400756 -48.450527
-32.440031 -11.268586 -49.29743
-31.389413 -10.997086 -49.270491
-31.795493 -12.400756 -48.450527
-31.14728 -13.509203 -47.648363
3 0 16 17
3 0 18 20
3 18 4 19
3 18 19 20
3 21 6 22
3 25 24 6
3 23 24 25
3 26 7 27
3 26 27 28
3 1 8 3
3 1 29 31
3 31 30 8
3 29 30 31
3 32 9 33
3 34 10 35
3 36 11 37
3 38 12 39
3 40 39 11
3 38 39 40
3 2 41 42
3 2 43 45
3 43 13 44
3 43 44 45
3 2 14 13
3 46 15 47
3 48 47 5
3 46 47 48
3 50 49 15
3 51 3 52
3 4 53 55
3 53 3 54
3 53 54 55
3 4 1 3
3 56 2 57
3 58 5 59
3 60 59 2
3 58 59 60
3 61 5 62
3 64 63 5
3 6 65 66
3 6 67 68
3 6 69 70
3 72 71 6
3 7 73 74
3 7 75 76
3 3 77 79
3 77 7 78
3 77 78 79
3 8 7 3
3 8 80 82
3 82 81 7
3 80 81 82
3 8 83 84
3 86 85 8
3 9 87 88
3 9 89 91
3 89 0 90
3 89 90 91
3 10 92 93
3 10 94 95
3 96 10 97
3 11 98 100
3 98 10 99
3 98 99 100
3 11 101 103
3 103 102 10
3 101 102 103
3 11 104 106
3 104 9 105
3 104 105 106
3 12 9 11
3 12 0 9
3 107 12 108
3 13 109 111
3 109 12 110
3 109 110 111
3 13 0 12
3 13 4 0
3 14 4 13
3 14 1 4
3 5 14 2
3 15 14 5
3 15 1 14
3 15 112 114
3 114 113 1
3 112 113 114
3 116 115 15
