ply
format ascii 1.0
element vertex 376
property float x
property float y
property float z
element face 343
property list uchar int vertex_index
end_header
-0.337963 -64.811325 25.460627
-1.801088 -41.218307 41.263767
0.458405 -75.656837 46.590927
0.771454 -63.285309 16.900967
1.290443 -75.620026 37.501953
0.351564 -65.286514 34.206993
-1.707335 -53.446995 33.472031
1.248892 -69.92408 26.634537
0.05171 -64.183975 21.138783
0.874199 -75.793427 42.027157
0.901463 -70.602036 35.560913
-0.563812 -47.978203 41.290283
-1.826376 -47.261848 37.56789
1.892233 -75.220306 32.986343
0.866407 -70.368996 31.091217
-0.234661 -65.1567 29.825073
-0.571917 -59.607494 33.544205
-1.402563 -59.444904 29.306894
0.44276 -67.437096 25.951017
1.625931 -69.612495 24.408205
0.695484 -67.150108 23.751184
1.059992 -66.80217 21.56201
-0.19537 -64.533165 23.291962
-1.084064 -41.8358 42.935249
-0.483883 -45.204323 42.990906
-1.211306 -44.682259 41.275887
-1.230803 -47.597294 39.454338
-1.850447 -44.210556 39.484344
1.218895 -62.737129 14.829077
0.300014 -77.991043 47.739632
0.592733 -78.168823 45.440865
1.072758 -75.737335 39.761925
1.208994 -78.163231 40.897305
1.555893 -78.026382 38.634735
1.554489 -75.447769 35.244267
0.6688 -67.984299 34.800285
0.845942 -70.507019 33.323357
0.457764 -67.920105 32.581299
0.329735 -67.816513 30.36734
0.011366 -65.240448 32.014336
-1.171545 -53.587521 35.4944
-1.132753 -56.596161 33.449081
-1.042896 -59.544888 31.425478
-1.604338 -56.496796 31.374498
2.060974 -72.299393 27.4827
1.51298 -66.400902 19.389507
0.379774 -63.767197 19.006512
0.732916 -73.21907 45.537964
0.673428 -75.773766 44.301781
0.864132 -73.285675 43.257751
0.954575 -73.286148 40.98719
1.020634 -73.236931 38.724838
1.09037 -73.146042 36.469513
0.990427 -70.665665 37.805733
0.914427 -68.025436 37.025925
0.145985 -48.412209 43.063721
0.097054 -51.127342 41.335686
-0.569462 -50.82716 39.444046
-1.204348 -50.573975 37.511948
-1.773535 -50.352478 35.550812
0.557554 -73.064301 47.829025
-1.62179 -38.289391 42.875179
0.893076 -78.217651 43.163269
2.324539 -74.935066 30.725403
1.198858 -73.012947 34.219902
1.381027 -72.831467 31.974072
1.663914 -72.594543 29.729303
0.995306 -70.176743 28.862186
0.319569 -67.658607 28.157169
-0.354374 -65.017578 27.6397
-0.066032 -62.498783 33.790054
-0.494862 -62.453979 31.631279
-0.818026 -62.371841 29.473999
-1.012476 -62.233047 27.320698
-2.08436 -34.557739 42.797035
-2.311193 -37.572567 41.233017
-2.397287 -40.649281 39.505714
-2.391459 -43.783535 37.635433
-2.338148 -46.958347 35.648415
-1.642664 -59.287769 27.192345
-1.078772 -62.024227 25.17527
-1.034723 -61.738415 23.04216
-0.904591 -61.373531 20.925377
-0.708143 -60.929752 18.828396
-0.453653 -60.407097 16.755156
1.688781 -64.371384 16.013306
1.402365 -64.618885 17.071049
0.995175 -63.011219 15.865022
1.912501 -64.097294 14.977362
1.688781 -64.371384 16.013306
1.622299 -76.720192 36.935799
1.755024 -77.92337 37.50219
1.423168 -76.823204 38.068344
1.422466 -75.533897 36.37311
1.754322 -76.634063 35.806956
1.622299 -76.720192 36.935799
1.909627 -70.937485 25.933407
2.315668 -72.125141 26.357489
1.654933 -71.111737 27.058619
2.401692 -70.587242 23.693228
1.868707 -69.431613 23.296899
0.964794 -71.989662 43.922073
0.798524 -73.252373 44.397858
0.899186 -71.956359 45.062179
1.011838 -71.995461 40.522878
1.028018 -72.00196 41.653146
1.044868 -71.970852 39.391702
0.987604 -73.261539 39.856014
1.011838 -71.995461 40.522878
1.029764 -70.685219 38.93215
1.00553 -71.951298 38.265285
1.044868 -71.970852 39.391702
1.010201 -66.684525 37.815762
1.028485 -68.040794 38.142491
0.825116 -66.670242 36.714867
1.010201 -66.684525 37.815762
0.668924 -71.760639 48.481296
0.452063 -72.93126 48.979519
0.563432 -71.627598 49.63179
0.756443 -71.839119 47.343975
0.668924 -71.760639 48.481296
-1.443512 -36.852799 43.588293
-1.205322 -38.669545 43.639314
1.340854 -79.336712 41.506348
1.567822 -79.265141 40.372939
2.437302 -76.220592 32.40173
2.158375 -76.38573 33.542209
2.108386 -75.077686 31.855873
2.653455 -76.077973 31.271259
2.437302 -76.220592 32.40173
-0.297399 -59.631922 34.602103
-0.571384 -58.144815 34.531239
-0.318974 -61.053139 33.66713
-0.044456 -61.077566 34.725027
-0.297399 -59.631922 34.602103
-2.412506 -34.150003 41.984218
-2.279999 -32.60202 42.745628
-2.525923 -35.657418 41.202209
-2.197776 -36.065153 42.015026
-2.412506 -34.150003 41.984218
-2.641491 -40.387738 38.596348
-2.63051 -38.776881 39.502283
-2.638577 -41.954864 37.661207
-2.394373 -42.216408 38.570573
-2.641491 -40.387738 38.596348
-2.557462 -46.814034 34.680394
-2.592907 -45.17452 35.700249
-2.299684 -48.550638 34.610878
-2.557462 -46.814034 34.680394
-1.70952 -59.173575 26.138999
-1.942451 -57.72841 27.210089
-1.427574 -60.541804 25.130462
-1.360718 -60.655998 26.183808
-1.70952 -59.173575 26.138999
-1.40555 -60.398898 24.063907
-1.056748 -61.881321 24.108715
-1.427574 -60.541804 25.130462
-1.361785 -59.866115 20.915336
-1.36621 -60.062365 21.957459
-1.263561 -59.644226 19.866845
-0.806367 -61.151641 19.876887
-1.361785 -59.866115 20.915336
-1.047832 -58.859934 16.766734
-1.106494 -59.143356 17.794531
-0.295287 -60.105615 15.733472
-1.047832 -58.859934 16.766734
1.403484 -68.20042 22.968388
1.868707 -69.431613 23.296899
1.160708 -68.381302 24.079694
0.877738 -66.976139 22.656597
1.585738 -68.026451 21.873801
1.403484 -68.20042 22.968388
-0.783973 -43.520061 42.963077
-0.370966 -43.851971 43.748331
-0.671056 -42.16771 43.720502
2.221004 -63.822872 13.941128
1.912501 -64.097294 14.977362
1.470554 -62.426956 13.814445
2.221004 -63.822872 13.941128
0.481025 -79.223716 47.203366
0.296495 -79.097923 48.359265
0.627385 -79.312607 46.053982
0.481025 -79.223716 47.203366
0.446373 -78.079933 46.590249
0.823514 -79.358772 44.912396
0.627385 -79.312607 46.053982
1.741272 -79.196716 39.241653
1.567822 -79.265141 40.372939
1.382443 -78.094807 39.76602
1.993066 -79.082806 38.104183
1.741272 -79.196716 39.241653
1.993066 -79.082806 38.104183
1.755024 -77.92337 37.50219
1.989503 -76.499462 34.671171
1.754322 -76.634063 35.806956
1.723361 -75.334037 34.115305
2.158375 -76.38573 33.542209
1.989503 -76.499462 34.671171
-0.871198 -55.134829 35.506336
-0.867139 -53.663271 36.498415
-0.851803 -56.639149 34.483677
-0.871198 -55.134829 35.506336
-1.152149 -55.091841 34.47174
-0.852335 -58.101827 33.496643
-0.571384 -58.144815 34.531239
-0.851803 -56.639149 34.483677
2.778445 -73.249866 26.832466
2.460776 -73.445938 27.970506
2.778445 -73.249866 26.832466
2.315668 -72.125141 26.357489
2.098146 -70.781692 24.820241
1.909627 -70.937485 25.933407
1.437412 -69.768287 25.521371
2.098146 -70.781692 24.820241
2.401692 -70.587242 23.693228
1.871733 -67.826744 20.766968
1.585738 -68.026451 21.873801
2.098227 -67.62611 19.680716
1.871733 -67.826744 20.766968
1.286486 -66.601536 20.475758
2.416456 -67.413189 18.582364
2.098227 -67.62611 19.680716
1.773128 -66.176682 18.315319
2.416456 -67.413189 18.582364
1.206525 -64.859829 18.123821
1.773128 -66.176682 18.315319
0.946377 -65.08405 19.198009
0.575614 -63.526253 17.95374
1.402365 -64.618885 17.071049
1.206525 -64.859829 18.123821
0.982796 -72.001724 42.788427
0.964794 -71.989662 43.922073
0.909353 -73.285911 42.12247
0.982796 -72.001724 42.788427
1.028018 -72.00196 41.653146
1.066485 -69.360908 38.532394
1.029764 -70.685219 38.93215
0.952427 -69.345551 37.415829
1.066485 -69.360908 38.532394
1.028485 -68.040794 38.142491
0.702302 -66.649674 35.602047
0.791613 -68.004867 35.913105
0.825116 -66.670242 36.714867
0.543684 -65.300781 35.305401
0.510182 -66.635406 34.503639
0.702302 -66.649674 35.602047
-0.089088 -45.490458 43.806736
-0.370966 -43.851971 43.748331
0.225847 -47.0944 43.843143
-0.089088 -45.490458 43.806736
-0.168949 -46.808266 43.027314
0.505263 -48.655844 43.918858
0.225847 -47.0944 43.843143
0.450314 -49.947277 43.122357
0.505263 -48.655844 43.918858
0.425848 -51.304844 42.258339
0.450314 -49.947277 43.122357
0.12152 -49.769775 42.199703
0.4036 -52.64064 41.390278
0.425848 -51.304844 42.258339
0.08887 -52.525036 40.411822
0.4036 -52.64064 41.390278
-0.244389 -52.374944 39.466002
0.08887 -52.525036 40.411822
-0.236204 -50.977251 40.389866
-0.566098 -52.283091 38.473238
-0.244389 -52.374944 39.466002
-0.883541 -52.156498 37.507189
-0.566098 -52.283091 38.473238
-0.886905 -50.700567 38.477997
-1.187947 -52.080748 36.503174
-0.867139 -53.663271 36.498415
-0.883541 -52.156498 37.507189
0.157487 -77.824711 48.903874
0.296495 -79.097923 48.359265
0.263648 -76.704483 48.319512
0.157487 -77.824711 48.903874
0.121121 -76.538151 49.483753
0.342844 -75.53738 47.745159
0.379209 -76.82394 47.165279
0.263648 -76.704483 48.319512
0.392418 -74.241112 48.364208
0.452063 -72.93126 48.979519
0.50798 -74.360569 47.209976
0.342844 -75.53738 47.745159
0.392418 -74.241112 48.364208
0.844124 -71.916504 46.198445
0.645235 -73.141685 46.683495
0.756443 -71.839119 47.343975
0.899186 -71.956359 45.062179
0.844124 -71.916504 46.198445
-0.936458 -40.442749 43.669349
-0.671056 -42.16771 43.720502
-1.352927 -40.062596 42.905214
-0.936458 -40.442749 43.669349
-1.205322 -38.669545 43.639314
0.973685 -79.383186 43.773598
0.823514 -79.358772 44.912396
0.742904 -78.193237 44.302067
1.182895 -79.363922 42.63933
1.051035 -78.190441 42.030287
1.340854 -79.336712 41.506348
0.973685 -79.383186 43.773598
1.182895 -79.363922 42.63933
2.978733 -75.884003 30.124735
2.653455 -76.077973 31.271259
2.592558 -74.763775 29.591858
3.246752 -75.712711 28.99119
2.978733 -75.884003 30.124735
2.262246 -73.593514 29.093808
2.592558 -74.763775 29.591858
1.994226 -73.764804 30.227353
1.862444 -72.446968 28.606002
2.460776 -73.445938 27.970506
2.262246 -73.593514 29.093808
0.38729 -63.907697 35.078209
0.543684 -65.300781 35.305401
0.178492 -62.513832 34.869739
-0.044456 -61.077566 34.725027
0.142766 -63.892648 33.998523
0.38729 -63.907697 35.078209
0.178492 -62.513832 34.869739
-1.882895 -33.079053 43.494362
-2.279999 -32.60202 42.745628
-1.674797 -34.986973 43.549221
-1.882895 -33.079053 43.494362
-1.853075 -36.423565 42.836107
-1.443512 -36.852799 43.588293
-1.674797 -34.986973 43.549221
-2.587463 -37.238523 40.365934
-2.525923 -35.657418 41.202209
-2.35424 -39.110924 40.369366
-2.587463 -37.238523 40.365934
-2.63051 -38.776881 39.502283
-2.619562 -43.587114 36.693758
-2.638577 -41.954864 37.661207
-2.364803 -45.370941 36.641924
-2.619562 -43.587114 36.693758
-2.592907 -45.17452 35.700249
-2.017378 -50.247704 34.562077
-2.055842 -48.655412 35.599614
-2.299684 -48.550638 34.610878
-1.984278 -51.794962 33.522686
-1.740435 -51.899737 34.511421
-2.017378 -50.247704 34.562077
-1.930193 -53.370643 32.457644
-1.984278 -51.794962 33.522686
-1.878694 -54.895544 31.408877
-1.655836 -54.971896 32.423265
-1.930193 -53.370643 32.457644
-1.787701 -56.428824 30.336982
-1.878694 -54.895544 31.408877
-1.686813 -57.902878 29.303179
-1.503451 -57.97085 30.340696
-1.787701 -56.428824 30.336982
-1.806864 -57.82431 28.245905
-1.942451 -57.72841 27.210089
-1.522613 -59.366337 28.24962
-1.686813 -57.902878 29.303179
-1.806864 -57.82431 28.245905
-1.431276 -60.244807 23.01585
-1.40555 -60.398898 24.063907
-0.969657 -61.555973 21.983769
-1.431276 -60.244807 23.01585
-1.36621 -60.062365 21.957459
-1.233739 -59.404684 18.831151
-1.263561 -59.644226 19.866845
-0.580898 -60.668425 17.791776
-1.233739 -59.404684 18.831151
-1.106494 -59.143356 17.794531
0.540987 -61.270632 14.770433
0.382621 -61.572113 15.792116
-0.295287 -60.105615 15.733472
0.792646 -60.960459 13.755801
1.470554 -62.426956 13.814445
0.540987 -61.270632 14.770433
3 0 20 18
3 0 22 20
3 1 25 23
3 1 27 25
3 3 85 86
3 3 87 89
3 87 28 88
3 87 88 89
3 2 30 29
3 4 33 31
3 4 90 92
3 92 91 33
3 90 91 92
3 4 93 95
3 93 34 94
3 93 94 95
3 5 37 35
3 5 39 37
3 6 41 40
3 6 43 41
3 7 96 98
3 98 97 44
3 96 97 98
3 100 99 19
3 8 45 21
3 8 46 45
3 101 49 102
3 103 102 47
3 101 102 103
3 104 50 105
3 106 51 107
3 108 107 50
3 106 107 108
3 109 53 110
3 111 110 51
3 109 110 111
3 112 54 113
3 115 114 54
3 11 55 24
3 11 56 55
3 11 57 56
3 12 58 26
3 12 59 58
3 116 60 117
3 116 117 118
3 120 119 60
3 121 61 122
3 9 62 48
3 124 123 32
3 13 125 126
3 13 127 129
3 127 63 128
3 127 128 129
3 10 64 52
3 14 65 36
3 14 66 65
3 14 67 66
3 15 68 38
3 15 69 68
3 16 130 131
3 16 132 134
3 132 70 133
3 132 133 134
3 16 71 70
3 17 72 42
3 17 73 72
3 135 74 136
3 137 75 138
3 139 138 74
3 137 138 139
3 140 76 141
3 142 77 143
3 144 143 76
3 142 143 144
3 145 78 146
3 148 147 78
3 149 79 150
3 151 80 152
3 153 152 79
3 151 152 153
3 154 81 155
3 156 155 80
3 154 155 156
3 157 82 158
3 159 83 160
3 161 160 82
3 159 160 161
3 162 84 163
3 165 164 84
3 18 19 7
3 20 19 18
3 20 166 168
3 168 167 19
3 166 167 168
3 20 169 171
3 169 21 170
3 169 170 171
3 22 21 20
3 22 8 21
3 23 172 174
3 172 24 173
3 172 173 174
3 25 24 23
3 25 11 24
3 25 26 11
3 27 26 25
3 27 12 26
3 28 175 176
3 28 177 178
3 29 179 180
3 30 181 183
3 183 182 29
3 181 182 183
3 30 184 185
3 31 32 9
3 33 32 31
3 33 186 188
3 188 187 32
3 186 187 188
3 33 189 190
3 192 191 33
3 34 193 194
3 34 195 197
3 195 13 196
3 195 196 197
3 35 36 10
3 37 36 35
3 37 14 36
3 37 38 14
3 39 38 37
3 39 15 38
3 40 198 199
3 41 200 202
3 202 201 40
3 200 201 202
3 41 203 205
3 203 16 204
3 203 204 205
3 41 42 16
3 43 42 41
3 43 17 42
3 44 206 207
3 209 208 44
3 19 210 212
3 212 211 7
3 210 211 212
3 214 213 19
3 21 215 216
3 45 217 219
3 219 218 21
3 217 218 219
3 45 220 221
3 45 222 223
3 46 224 226
3 226 225 45
3 224 225 226
3 46 227 229
3 227 3 228
3 227 228 229
3 47 48 2
3 49 48 47
3 49 9 48
3 230 49 231
3 50 232 234
3 232 49 233
3 232 233 234
3 50 9 49
3 50 31 9
3 51 31 50
3 51 4 31
3 51 52 4
3 53 52 51
3 53 10 52
3 235 53 236
3 54 237 239
3 237 53 238
3 237 238 239
3 54 10 53
3 54 35 10
3 240 35 241
3 242 241 54
3 240 241 242
3 243 5 244
3 245 244 35
3 243 244 245
3 24 246 247
3 55 248 250
3 250 249 24
3 248 249 250
3 55 251 252
3 55 253 254
3 56 255 257
3 257 256 55
3 255 256 257
3 56 258 259
3 56 260 261
3 57 262 264
3 264 263 56
3 262 263 264
3 57 265 266
3 26 57 11
3 58 57 26
3 58 267 269
3 269 268 57
3 267 268 269
3 58 270 272
3 270 40 271
3 270 271 272
3 59 40 58
3 59 6 40
3 273 29 274
3 275 29 276
3 275 276 277
3 278 2 279
3 280 279 29
3 278 279 280
3 60 281 282
3 60 283 285
3 283 2 284
3 283 284 285
3 60 47 2
3 286 47 287
3 288 287 60
3 286 287 288
3 290 289 47
3 291 23 292
3 61 293 295
3 293 23 294
3 293 294 295
3 61 1 23
3 48 30 2
3 62 30 48
3 62 296 298
3 298 297 30
3 296 297 298
3 32 62 9
3 299 62 300
3 301 300 32
3 299 300 301
3 303 302 62
3 63 304 305
3 63 306 308
3 306 307 308
3 52 34 4
3 64 34 52
3 64 13 34
3 36 64 10
3 65 64 36
3 65 13 64
3 65 63 13
3 66 63 65
3 66 309 311
3 311 310 63
3 309 310 311
3 66 312 314
3 312 44 313
3 312 313 314
3 67 44 66
3 67 7 44
3 38 67 14
3 68 67 38
3 68 7 67
3 68 18 7
3 69 18 68
3 69 0 18
3 315 5 316
3 70 317 318
3 70 319 321
3 319 5 320
3 319 320 321
3 70 39 5
3 71 39 70
3 71 15 39
3 42 71 16
3 72 71 42
3 72 15 71
3 72 69 15
3 73 69 72
3 73 0 69
3 74 322 323
3 74 324 325
3 74 326 328
3 326 61 327
3 326 327 328
3 75 61 74
3 75 1 61
3 329 75 330
3 76 331 333
3 331 75 332
3 331 332 333
3 76 1 75
3 76 27 1
3 77 27 76
3 77 12 27
3 334 77 335
3 78 336 338
3 336 77 337
3 336 337 338
3 78 12 77
3 78 59 12
3 339 59 340
3 341 340 78
3 339 340 341
3 342 6 343
3 344 343 59
3 342 343 344
3 345 6 346
3 347 43 348
3 349 348 6
3 347 348 349
3 350 43 351
3 352 17 353
3 354 353 43
3 352 353 354
3 79 355 356
3 79 357 359
3 357 17 358
3 357 358 359
3 79 73 17
3 80 73 79
3 80 0 73
3 80 22 0
3 81 22 80
3 81 8 22
3 360 81 361
3 82 362 364
3 362 81 363
3 362 363 364
3 82 8 81
3 82 46 8
3 83 46 82
3 83 3 46
3 365 83 366
3 84 367 369
3 367 83 368
3 367 368 369
3 84 3 83
3 84 28 3
3 370 28 371
3 372 371 84
3 370 371 372
3 375 374 28
3 373 374 375
