ply
format ascii 1.0
element vertex 118
property float x
property float y
property float z
element face 103
property list uchar int vertex_index
end_header
50.03035 -22.791098 19.90122
59.016785 -21.578825 21.532215
58.821213 -16.59837 18.902336
51.089848 -27.731915 21.274376
49.692501 -17.132931 18.41165
54.167183 -16.954111 18.592485
54.45755 -22.276241 20.626911
58.902031 -19.159214 20.187729
56.589851 -19.441004 19.855314
56.74865 -21.942295 21.030144
54.769104 -24.698454 21.677103
56.995972 -24.288401 22.277428
49.781246 -20.043715 19.19943
47.721107 -20.119446 18.901949
47.996582 -22.932144 19.464258
61.087227 -16.374071 19.238014
50.460579 -25.358465 20.573868
48.483795 -25.557131 19.965101
51.884506 -17.069969 18.514376
51.977711 -19.896433 19.418297
56.495834 -16.793972 18.703644
54.263733 -19.690794 19.61731
52.200584 -22.565691 20.269691
52.572647 -25.063198 21.126793
53.113945 -27.378124 22.042564
62.158833 -16.249026 19.495587
62.131085 -14.984907 18.755185
61.113629 -17.613461 19.950689
62.158833 -16.249026 19.495587
50.145102 -27.855111 20.868241
49.830467 -26.668385 20.517988
50.775214 -26.54519 20.924122
53.025845 -17.01204 18.55343
53.017719 -15.575007 18.007054
54.159058 -15.517078 18.046109
57.658524 -16.696171 18.80299
57.625233 -15.350484 18.16706
58.787922 -15.252683 18.266406
54.16819 -27.163978 22.427952
53.941524 -26.038289 21.859834
54.995769 -25.824143 22.245222
53.479042 -28.442094 22.547767
54.16819 -27.163978 22.427952
48.663019 -17.134868 18.318807
48.686822 -15.605994 17.860011
49.716304 -15.604057 17.952854
46.781601 -20.116906 18.686564
46.933979 -21.545621 18.904038
47.587347 -25.595651 19.60845
47.988456 -26.820949 19.764144
50.623686 -28.958331 21.140344
51.511378 -28.81776 21.661019
55.30839 -15.48379 18.058082
54.159058 -15.517078 18.046109
56.109203 -25.619116 22.545385
54.995769 -25.824143 22.245222
55.882538 -24.493428 21.977266
47.071716 -22.95197 19.185193
46.933979 -21.545621 18.904038
47.858845 -21.525795 19.183104
59.918616 -15.18232 18.384283
58.787922 -15.252683 18.266406
61.051623 -15.07017 18.552122
62.131085 -14.984907 18.755185
59.95422 -16.486221 19.070175
59.918616 -15.18232 18.384283
61.051623 -15.07017 18.552122
60.021031 -19.006033 20.425547
59.994629 -17.766642 19.712871
61.113629 -17.613461 19.950689
60.078407 -20.215838 21.09779
58.959408 -20.36902 20.859972
60.021031 -19.006033 20.425547
48.842075 -26.767719 20.213604
49.472187 -25.457798 20.269485
49.830467 -26.668385 20.517988
47.988456 -26.820949 19.764144
48.842075 -26.767719 20.213604
50.145102 -27.855111 20.868241
50.623686 -28.958331 21.140344
50.79701 -15.617268 17.959865
49.716304 -15.604057 17.952854
51.893013 -15.585787 18.011228
53.017719 -15.575007 18.007054
50.788504 -17.10145 18.463013
50.79701 -15.617268 17.959865
51.893013 -15.585787 18.011228
56.472715 -15.40372 18.113662
57.625233 -15.350484 18.16706
55.331508 -16.874042 18.648065
55.30839 -15.48379 18.058082
56.472715 -15.40372 18.113662
52.523426 -28.640865 22.045113
51.511378 -28.81776 21.661019
52.101897 -27.55502 21.65847
52.523426 -28.640865 22.045113
53.479042 -28.442094 22.547767
60.108019 -21.386114 21.854822
60.078407 -20.215838 21.09779
59.105671 -22.71441 22.253452
60.108019 -21.386114 21.854822
58.095264 -24.069198 22.626058
58.006378 -22.933613 21.904822
59.105671 -22.71441 22.253452
57.178662 -25.381463 22.954712
58.095264 -24.069198 22.626058
56.109203 -25.619116 22.545385
57.178662 -25.381463 22.954712
47.677322 -18.628125 18.563957
48.663019 -17.134868 18.318807
48.706804 -18.626188 18.656799
47.677322 -18.628125 18.563957
46.781601 -20.116906 18.686564
47.34374 -24.283158 19.358028
48.240189 -24.244637 19.71468
47.587347 -25.595651 19.60845
47.071716 -22.95197 19.185193
47.34374 -24.283158 19.358028
3 1 9 7
3 1 11 9
3 0 14 12
3 25 15 26
3 28 27 15
3 3 29 31
3 31 30 16
3 29 30 31
3 5 32 34
3 32 18 33
3 32 33 34
3 5 19 18
3 2 35 37
3 35 20 36
3 35 36 37
3 6 21 8
3 6 22 21
3 6 23 22
3 38 24 39
3 40 39 10
3 38 39 40
3 42 41 24
3 4 43 45
3 43 44 45
3 47 46 13
3 49 48 17
3 51 50 3
3 52 5 53
3 7 8 2
3 9 8 7
3 9 6 8
3 9 10 6
3 11 10 9
3 11 54 56
3 56 55 10
3 54 55 56
3 12 13 4
3 14 13 12
3 14 57 59
3 59 58 13
3 57 58 59
3 60 2 61
3 15 62 63
3 15 64 66
3 64 2 65
3 64 65 66
3 15 7 2
3 67 7 68
3 69 68 15
3 67 68 69
3 70 1 71
3 72 71 7
3 70 71 72
3 16 17 0
3 73 17 74
3 75 74 16
3 73 74 75
3 77 76 17
3 79 78 3
3 80 4 81
3 18 82 83
3 18 84 86
3 84 4 85
3 84 85 86
3 18 12 4
3 19 12 18
3 19 0 12
3 20 87 88
3 20 89 91
3 89 5 90
3 89 90 91
3 8 20 2
3 21 20 8
3 21 5 20
3 21 19 5
3 22 19 21
3 22 0 19
3 22 16 0
3 23 16 22
3 23 3 16
3 10 23 6
3 24 23 10
3 24 3 23
3 24 92 94
3 94 93 3
3 92 93 94
3 96 95 24
3 97 1 98
3 99 1 100
3 101 11 102
3 103 102 1
3 101 102 103
3 104 11 105
3 107 106 11
3 13 108 110
3 110 109 4
3 108 109 110
3 112 111 13
3 17 14 0
3 113 14 114
3 115 114 17
3 113 114 115
3 117 116 14
