ply
format ascii 1.0
element vertex 235
property float x
property float y
property float z
element face 224
property list uchar int vertex_index
end_header
23.890114 -73.690582 65.587814
16.263102 -77.91658 68.73114
31.816669 -62.977169 63.453949
18.118122 -74.079468 72.32991
13.824551 -76.328262 73.273376
30.21489 -64.533173 67.389336
30.750826 -67.009285 62.602043
28.577517 -68.52755 65.900208
22.656092 -76.910553 61.637169
25.721542 -70.113159 68.667404
22.17765 -71.945511 70.803185
20.238491 -75.563591 67.352608
18.984585 -78.90831 63.108101
27.057814 -72.270531 63.477654
15.174329 -81.556099 64.410378
14.885235 -74.163788 74.806717
12.689457 -75.161591 75.090073
29.118774 -65.339386 69.163696
29.418915 -66.551941 66.772881
28.195768 -67.352432 68.397484
23.323984 -69.99427 72.184006
21.353567 -70.989975 73.077042
17.104164 -76.035416 70.632332
19.155704 -74.877441 69.972412
18.27758 -76.692337 68.096687
19.521156 -77.256035 65.32206
17.585556 -78.447075 66.031647
24.742823 -71.950562 67.240349
26.334272 -71.165375 66.080986
25.539715 -72.937996 64.576408
16.769228 -81.92395 61.422356
19.26239 -72.035583 73.803596
17.091507 -73.10611 74.377449
15.980522 -75.210815 72.875999
15.012408 -77.232704 71.154953
31.103306 -63.745743 65.467911
31.309052 -64.982826 63.13118
30.448204 -65.76561 65.002708
29.741198 -67.771194 64.303604
29.054605 -69.738861 63.395889
23.193165 -75.33812 63.719521
24.888702 -74.614471 62.851097
26.767551 -68.182693 69.847984
25.137928 -69.059296 71.110527
24.028244 -70.990158 69.814377
23.003052 -72.823334 68.274582
20.196484 -72.980392 71.639694
21.132282 -73.799538 69.185196
22.117306 -74.560715 66.513763
21.398067 -76.214699 64.545647
20.849072 -77.810959 62.378716
27.239977 -69.299896 67.360611
27.770117 -70.439461 64.797195
28.446579 -71.645782 62.290001
26.474796 -74.009262 61.93911
11.692638 -77.376114 73.509499
12.917717 -78.413162 71.523651
14.226574 -79.184624 69.234055
13.645191 -81.087494 67.138756
15.617564 -79.745834 66.64827
17.085121 -80.175583 63.797791
12.144245 -74.441162 75.869259
13.245323 -74.013943 75.768593
27.996808 -66.761688 69.574944
28.657271 -66.345909 68.78059
28.458311 -65.755165 69.95805
20.913221 -70.444992 74.055249
21.955187 -69.947441 73.668476
31.927134 -63.588503 62.336479
32.107826 -62.606459 62.436211
16.569185 -72.510994 75.24437
17.689312 -72.010025 75.010578
23.521368 -76.556477 61.267941
23.789904 -75.77026 62.309117
22.924629 -76.124336 62.678345
24.816694 -68.503761 72.205005
25.694825 -68.048496 71.621811
19.72167 -79.149833 61.565865
20.653914 -78.601158 61.201172
19.916829 -78.359634 62.743409
31.193527 -66.618023 61.722222
31.472639 -65.604793 61.98679
31.029939 -65.996056 62.866612
26.251511 -74.831146 61.052414
25.681749 -74.311867 62.395104
25.458464 -75.13375 61.508408
10.660065 -77.83561 73.537556
11.121353 -76.712044 74.362606
12.559603 -79.420997 70.55085
11.888307 -78.962261 71.620064
13.214032 -79.806728 69.406052
13.572145 -78.798893 70.378853
12.559603 -79.420997 70.55085
14.40976 -81.321797 65.774567
13.460576 -82.028786 66.02034
14.225145 -82.263089 64.656151
17.694391 -81.245224 61.076088
17.588809 -82.107098 59.820202
14.343212 -73.515041 75.626915
15.46605 -73.039833 75.459003
13.787346 -74.662689 74.948395
14.343212 -73.515041 75.626915
13.245323 -74.013943 75.768593
23.337802 -77.317726 60.173954
22.460822 -77.676143 60.489769
22.940396 -69.449589 73.221958
23.909723 -68.971249 72.741745
22.338776 -70.492122 72.630524
22.940396 -69.449589 73.221958
21.955187 -69.947441 73.668476
30.996267 -67.64893 61.462757
30.477149 -68.020024 62.248184
15.05103 -82.472779 63.231347
14.225145 -82.263089 64.656151
14.101846 -83.179768 63.47712
15.848479 -82.656704 61.737336
15.971778 -81.740025 62.916367
15.05103 -82.472779 63.231347
16.695105 -82.835831 60.183243
15.848479 -82.656704 61.737336
17.588809 -82.107098 59.820202
16.695105 -82.835831 60.183243
18.774753 -71.474761 74.723652
19.867632 -70.967796 74.418526
18.176949 -72.570847 74.090522
18.774753 -71.474761 74.723652
17.689312 -72.010025 75.010578
15.988371 -73.634949 74.592083
16.569185 -72.510994 75.24437
15.46605 -73.039833 75.459003
29.972335 -68.400978 63.098965
30.477149 -68.020024 62.248184
30.246012 -67.39024 63.452824
29.629039 -69.384811 62.645107
29.972335 -68.400978 63.098965
29.397901 -68.755027 63.849747
29.386688 -70.379177 62.206535
29.629039 -69.384811 62.645107
24.637673 -75.408435 61.874904
24.040934 -74.976295 63.285309
23.789904 -75.77026 62.309117
25.458464 -75.13375 61.508408
24.637673 -75.408435 61.874904
23.521368 -76.556477 61.267941
23.337802 -77.317726 60.173954
26.509636 -67.610195 70.990539
27.282699 -67.176818 70.300194
25.952739 -68.620994 70.479255
26.509636 -67.610195 70.990539
25.694825 -68.048496 71.621811
24.230956 -69.526783 71.647267
24.816694 -68.503761 72.205005
23.909723 -68.971249 72.741745
20.307979 -71.512779 73.440319
20.913221 -70.444992 74.055249
19.867632 -70.967796 74.418526
21.557313 -78.126346 60.860542
22.460822 -77.676143 60.489769
21.752582 -77.360756 62.007942
21.557313 -78.126346 60.860542
20.653914 -78.601158 61.201172
32.017593 -61.99396 63.495365
32.107826 -62.606459 62.436211
32.30875 -61.623249 62.477626
31.726622 -62.354868 64.562325
32.017593 -61.99396 63.495365
31.36994 -62.739155 65.569305
31.459988 -63.361456 64.46093
31.726622 -62.354868 64.562325
30.993682 -63.119182 66.595024
31.36994 -62.739155 65.569305
30.549474 -63.512898 67.555736
30.659098 -64.139458 66.428624
30.993682 -63.119182 66.595024
30.067264 -63.907038 68.509998
30.549474 -63.512898 67.555736
29.519206 -64.310145 69.397178
29.666832 -64.93628 68.276516
30.067264 -63.907038 68.509998
28.918746 -64.717461 70.257046
29.519206 -64.310145 69.397178
28.458311 -65.755165 69.95805
28.918746 -64.717461 70.257046
31.673325 -64.591331 62.175095
31.927134 -63.588503 62.336479
31.56286 -63.979998 63.292564
31.673325 -64.591331 62.175095
31.472639 -65.604793 61.98679
31.193527 -66.618023 61.722222
30.996267 -67.64893 61.462757
27.481659 -67.767562 69.122734
27.996808 -66.761688 69.574944
27.282699 -67.176818 70.300194
29.082675 -71.332638 61.653591
29.386688 -70.379177 62.206535
28.750592 -70.692321 62.842945
27.026133 -74.608375 60.684112
26.251511 -74.831146 61.052414
27.213066 -73.741024 61.457814
27.026133 -74.608375 60.684112
27.504575 -72.871658 62.227086
26.766305 -73.139897 62.708382
27.213066 -73.741024 61.457814
28.198957 -72.559284 61.633259
27.752197 -71.958157 62.883827
27.504575 -72.871658 62.227086
28.887529 -72.297607 61.122734
28.198957 -72.559284 61.633259
29.082675 -71.332638 61.653591
28.887529 -72.297607 61.122734
11.619763 -75.604782 75.152894
12.144245 -74.441162 75.869259
12.191047 -76.268853 74.299786
11.619763 -75.604782 75.152894
11.121353 -76.712044 74.362606
11.275768 -78.443737 72.612988
10.660065 -77.83561 73.537556
12.305177 -77.894638 72.516575
11.275768 -78.443737 72.612988
11.888307 -78.962261 71.620064
12.671409 -81.7397 67.302441
13.460576 -82.028786 66.02034
12.923341 -80.758163 68.358402
12.671409 -81.7397 67.302441
13.935882 -80.136059 68.186406
13.214032 -79.806728 69.406052
12.923341 -80.758163 68.358402
17.852338 -80.37104 62.263805
16.927174 -81.049767 62.610073
17.694391 -81.245224 61.076088
18.80207 -79.737404 61.91896
18.034853 -79.541946 63.452946
17.852338 -80.37104 62.263805
19.72167 -79.149833 61.565865
18.80207 -79.737404 61.91896
3 61 16 62
3 63 19 64
3 65 64 17
3 63 64 65
3 66 21 67
3 1 24 22
3 1 26 24
3 2 68 69
3 0 29 27
3 70 32 71
3 4 33 15
3 4 34 33
3 5 37 35
3 7 38 18
3 7 39 38
3 8 72 74
3 74 73 40
3 72 73 74
3 75 43 76
3 10 44 20
3 10 45 44
3 3 46 31
3 11 47 23
3 11 48 47
3 11 49 48
3 12 50 25
3 12 77 79
3 79 78 50
3 77 78 79
3 6 80 82
3 82 81 36
3 80 81 82
3 9 51 42
3 13 52 28
3 13 53 52
3 83 54 84
3 85 84 41
3 83 84 85
3 86 55 87
3 88 56 89
3 90 57 91
3 92 91 56
3 90 91 92
3 14 93 95
3 93 58 94
3 93 94 95
3 14 59 58
3 14 60 59
3 97 96 30
3 98 15 99
3 16 100 102
3 100 15 101
3 100 101 102
3 16 4 15
3 17 18 5
3 19 18 17
3 19 7 18
3 104 103 8
3 105 20 106
3 21 107 109
3 107 20 108
3 107 108 109
3 21 10 20
3 22 23 3
3 24 23 22
3 24 11 23
3 24 25 11
3 26 25 24
3 26 12 25
3 111 110 6
3 27 28 9
3 29 28 27
3 29 13 28
3 112 14 113
3 112 113 114
3 115 30 116
3 117 116 14
3 115 116 117
3 118 30 119
3 121 120 30
3 122 31 123
3 32 124 126
3 124 31 125
3 124 125 126
3 32 3 31
3 15 127 129
3 127 32 128
3 127 128 129
3 33 32 15
3 33 3 32
3 33 22 3
3 34 22 33
3 34 1 22
3 35 36 2
3 37 36 35
3 37 6 36
3 18 37 5
3 38 37 18
3 38 6 37
3 38 130 132
3 132 131 6
3 130 131 132
3 39 133 135
3 135 134 38
3 133 134 135
3 39 136 137
3 40 41 0
3 138 41 139
3 140 139 40
3 138 139 140
3 142 141 41
3 144 143 8
3 145 42 146
3 43 147 149
3 147 42 148
3 147 148 149
3 43 9 42
3 20 150 152
3 150 43 151
3 150 151 152
3 44 43 20
3 44 9 43
3 44 27 9
3 45 27 44
3 45 0 27
3 31 153 155
3 153 21 154
3 153 154 155
3 46 21 31
3 46 10 21
3 23 46 3
3 47 46 23
3 47 10 46
3 47 45 10
3 48 45 47
3 48 0 45
3 48 40 0
3 49 40 48
3 49 8 40
3 25 49 11
3 50 49 25
3 50 8 49
3 50 156 158
3 158 157 8
3 156 157 158
3 160 159 50
3 161 2 162
3 161 162 163
3 164 2 165
3 166 35 167
3 168 167 2
3 166 167 168
3 169 35 170
3 171 5 172
3 173 172 35
3 171 172 173
3 174 5 175
3 176 17 177
3 178 177 5
3 176 177 178
3 179 17 180
3 182 181 17
3 36 183 185
3 185 184 2
3 183 184 185
3 187 186 36
3 189 188 6
3 42 190 192
3 190 19 191
3 190 191 192
3 51 19 42
3 51 7 19
3 28 51 9
3 52 51 28
3 52 7 51
3 52 39 7
3 53 39 52
3 53 193 195
3 195 194 39
3 193 194 195
3 41 29 0
3 54 29 41
3 54 13 29
3 196 54 197
3 198 54 199
3 200 13 201
3 202 201 54
3 200 201 202
3 203 53 204
3 205 204 13
3 203 204 205
3 206 53 207
3 209 208 53
3 210 16 211
3 55 212 214
3 212 16 213
3 212 213 214
3 55 4 16
3 215 55 216
3 56 217 219
3 217 55 218
3 217 218 219
3 56 4 55
3 56 34 4
3 57 34 56
3 57 1 34
3 58 220 221
3 58 222 223
3 58 224 226
3 224 57 225
3 224 225 226
3 59 57 58
3 59 1 57
3 59 26 1
3 60 26 59
3 60 12 26
3 30 60 14
3 227 60 228
3 229 228 30
3 227 228 229
3 230 12 231
3 232 231 60
3 230 231 232
3 234 233 12
