ply
format ascii 1.0
element vertex 191
property float x
property float y
property float z
element face 185
property list uchar int vertex_index
end_header
47.481964 55.660614 9.429482
43.255672 60.191452 17.780977
47.382755 49.420944 20.558455
44.220554 56.571342 23.120121
50.140705 50.16684 11.410587
44.979881 58.199158 13.505424
47.392868 52.646004 15.071603
45.585632 54.836746 19.165779
46.113552 51.32003 24.539944
45.950821 47.698013 29.447199
42.386566 63.672859 12.174652
49.430107 47.257195 16.74044
49.033916 54.270821 7.620022
50.424339 51.525711 8.702747
48.842583 52.882248 10.385209
46.10173 58.496719 8.569998
44.051758 59.285179 15.655032
45.254967 56.539124 16.355444
44.472519 57.545998 18.461472
44.539112 54.739525 25.651318
45.269714 53.973038 23.857384
45.474571 52.15197 26.406628
46.147156 49.51564 27.056517
41.937489 62.696487 17.135395
42.779198 61.959511 14.998921
43.708401 60.979111 12.813101
47.400711 51.061012 17.853722
48.479141 49.934349 15.912949
48.273987 48.370178 18.598305
42.497871 60.875114 19.803398
43.763401 58.390656 20.494297
43.019272 59.047432 22.365921
51.72039 48.835655 9.842256
51.324974 47.492798 12.453185
47.273506 47.722595 23.152279
47.998009 46.738068 21.181267
46.115215 56.978485 11.408318
47.411415 54.179344 12.251036
46.213799 55.405891 14.260533
46.381416 53.785728 17.094807
46.568295 52.119667 19.874372
44.907078 55.773071 21.203627
45.900391 53.096077 21.903383
46.701454 50.406883 22.563757
46.703236 48.648895 25.135014
43.469826 62.611221 9.963493
44.800854 59.808296 10.647892
48.6591 51.436806 13.161805
49.812008 48.745773 14.103502
50.824913 46.077713 15.017756
48.971504 45.693344 19.28285
50.215656 44.581711 17.495516
47.540711 56.372231 8.033112
46.850594 57.790283 7.603371
46.791847 57.078666 8.99974
48.25794 54.965717 8.524752
48.316687 55.677334 7.128382
47.540711 56.372231 8.033112
45.06176 52.526268 27.247986
45.006842 53.445747 26.028973
44.594031 53.820045 26.870331
45.465862 51.236767 27.625641
45.06176 52.526268 27.247986
42.361131 60.178002 22.004884
42.758572 59.961273 21.08466
42.100431 61.091842 20.723623
42.100431 61.091842 20.723623
41.804298 62.009201 19.480682
47.43819 46.378708 23.394024
47.143152 46.845287 24.382818
46.231549 47.276131 28.510111
46.329716 48.184944 27.31477
46.048989 48.606826 28.251858
46.025593 46.369236 29.663221
46.231549 47.276131 28.510111
41.679992 64.934818 11.873132
41.901371 64.077419 13.27804
42.238704 64.489918 10.754459
41.532131 65.751877 10.452939
41.679992 64.934818 11.873132
42.928196 63.14204 11.069073
42.780334 63.959099 9.648879
42.238704 64.489918 10.754459
48.688999 44.87051 20.492411
48.484757 46.215706 20.232059
48.202252 45.392872 21.44162
50.523317 43.225081 17.804026
49.851636 43.789049 18.675402
50.942328 43.987049 16.663199
50.523317 43.225081 17.804026
49.729128 52.898266 8.161385
50.538773 52.174488 7.35943
49.843561 53.547043 6.818067
46.128895 59.222721 7.168845
45.41132 59.924926 8.189309
46.128895 59.222721 7.168845
46.850594 57.790283 7.603371
49.124048 54.934048 6.256883
48.316687 55.677334 7.128382
49.843561 53.547043 6.818067
49.124048 54.934048 6.256883
45.802155 49.918602 27.950585
45.810863 50.833805 26.731572
45.465862 51.236767 27.625641
45.703987 49.009788 29.145927
46.048989 48.606826 28.251858
45.802155 49.918602 27.950585
41.676833 63.589233 15.758412
41.215412 63.840419 16.831764
42.097687 63.220745 14.690175
41.676833 63.589233 15.758412
42.358344 62.327999 16.067158
42.582882 62.816185 13.586786
41.901371 64.077419 13.27804
42.097687 63.220745 14.690175
42.588787 59.28349 23.175677
42.361131 60.178002 22.004884
43.213915 58.136226 23.596417
42.588787 59.28349 23.175677
43.814556 56.898181 23.973517
43.619913 57.809387 22.743021
43.213915 58.136226 23.596417
43.973835 55.982273 25.239115
44.379833 55.655434 24.38572
43.814556 56.898181 23.973517
44.066255 55.070687 26.429856
43.973835 55.982273 25.239115
44.594031 53.820045 26.870331
44.066255 55.070687 26.429856
41.524107 62.919888 18.14668
41.215412 63.840419 16.831764
42.21768 61.785801 18.469397
41.524107 62.919888 18.14668
41.804298 62.009201 19.480682
51.215197 50.819119 7.964779
50.538773 52.174488 7.35943
51.863222 49.474091 8.534533
51.215197 50.819119 7.964779
51.072365 50.180683 9.272502
52.471878 48.137073 9.153668
51.863222 49.474091 8.534533
52.296238 47.501632 10.405508
52.471878 48.137073 9.153668
52.09853 46.830204 11.710973
52.296238 47.501632 10.405508
51.522682 48.164226 11.147721
51.838318 46.157507 12.945714
52.611874 45.494913 12.203501
52.09853 46.830204 11.710973
47.800442 45.886444 22.408518
47.635757 47.230331 22.166773
47.43819 46.378708 23.394024
48.202252 45.392872 21.44162
47.800442 45.886444 22.408518
46.858017 47.308437 25.374186
47.143152 46.845287 24.382818
46.988371 48.185745 24.143647
46.607756 47.751571 26.354019
46.425196 49.082268 26.095765
46.329716 48.184944 27.31477
46.858017 47.308437 25.374186
46.607756 47.751571 26.354019
43.397646 63.386913 8.545486
42.780334 63.959099 9.648879
44.095367 61.982177 8.886057
43.397646 63.386913 8.545486
44.760881 60.580715 9.228256
44.095367 61.982177 8.886057
44.13534 61.209758 10.305692
45.451292 59.152507 9.608945
45.41132 59.924926 8.189309
44.760881 60.580715 9.228256
51.588287 45.449965 14.227999
51.838318 46.157507 12.945714
51.074944 46.785256 13.73547
49.229561 44.344865 19.569069
48.688999 44.87051 20.492411
49.59358 45.137528 18.389183
49.229561 44.344865 19.569069
49.851636 43.789049 18.675402
51.246956 44.73505 15.424319
50.520285 45.329712 16.256636
50.942328 43.987049 16.663199
51.588287 45.449965 14.227999
51.246956 44.73505 15.424319
45.569862 48.100205 30.311338
45.703987 49.009788 29.145927
45.732597 46.794026 30.584428
45.569862 48.100205 30.311338
46.025593 46.369236 29.663221
45.732597 46.794026 30.584428
3 0 14 12
3 0 52 54
3 54 53 15
3 52 53 54
3 0 55 57
3 55 12 56
3 55 56 57
3 1 18 16
3 58 21 59
3 60 59 19
3 58 59 60
3 62 61 21
3 1 24 23
3 1 16 24
3 2 28 26
3 63 31 64
3 65 64 29
3 63 64 65
3 66 29 67
3 4 32 13
3 4 33 32
3 69 68 34
3 5 38 36
3 7 39 17
3 7 40 39
3 3 41 30
3 8 42 20
3 8 43 42
3 8 44 43
3 9 70 72
3 72 71 22
3 70 71 72
3 9 73 74
3 10 75 76
3 10 77 79
3 77 78 79
3 10 80 82
3 80 45 81
3 80 81 82
3 5 46 25
3 5 36 46
3 6 47 37
3 11 48 27
3 11 49 48
3 83 50 84
3 85 84 35
3 83 84 85
3 86 51 87
3 89 88 51
3 12 90 92
3 90 13 91
3 90 91 92
3 14 13 12
3 14 4 13
3 15 93 94
3 96 95 15
3 12 97 98
3 12 99 100
3 16 17 5
3 18 17 16
3 18 7 17
3 19 20 3
3 21 20 19
3 21 8 20
3 21 22 8
3 101 22 102
3 103 102 21
3 101 102 103
3 104 9 105
3 106 105 22
3 104 105 106
3 23 107 108
3 24 109 111
3 111 110 23
3 109 110 111
3 24 112 114
3 112 10 113
3 112 113 114
3 24 25 10
3 16 25 24
3 16 5 25
3 26 27 6
3 28 27 26
3 28 11 27
3 29 30 1
3 31 30 29
3 31 3 30
3 115 31 116
3 117 31 118
3 119 3 120
3 121 120 31
3 119 120 121
3 122 19 123
3 124 123 3
3 122 123 124
3 125 19 126
3 128 127 19
3 129 23 130
3 29 131 133
3 131 23 132
3 131 132 133
3 29 1 23
3 13 134 135
3 32 136 138
3 138 137 13
3 136 137 138
3 32 139 140
3 32 141 142
3 33 143 145
3 145 144 32
3 143 144 145
3 33 146 148
3 146 147 148
3 34 35 2
3 149 35 150
3 151 150 34
3 149 150 151
3 153 152 35
3 36 37 0
3 38 37 36
3 38 6 37
3 17 38 5
3 39 38 17
3 39 6 38
3 39 26 6
3 40 26 39
3 40 2 26
3 30 18 1
3 41 18 30
3 41 7 18
3 20 41 3
3 42 41 20
3 42 7 41
3 42 40 7
3 43 40 42
3 43 2 40
3 43 34 2
3 44 34 43
3 44 154 156
3 156 155 34
3 154 155 156
3 22 44 8
3 157 44 158
3 159 158 22
3 157 158 159
3 161 160 44
3 45 162 163
3 45 164 165
3 25 45 10
3 46 45 25
3 46 166 168
3 168 167 45
3 166 167 168
3 46 169 171
3 169 15 170
3 169 170 171
3 36 15 46
3 36 0 15
3 37 14 0
3 47 14 37
3 47 4 14
3 27 47 6
3 48 47 27
3 48 4 47
3 48 33 4
3 49 33 48
3 49 172 174
3 174 173 33
3 172 173 174
3 35 28 2
3 50 28 35
3 50 11 28
3 175 50 176
3 51 177 179
3 177 50 178
3 177 178 179
3 51 11 50
3 51 49 11
3 180 49 181
3 182 181 51
3 180 181 182
3 184 183 49
3 185 9 186
3 187 9 188
3 190 189 9
