ply
format ascii 1.0
element vertex 480
property float x
property float y
property float z
element face 493
property list uchar int vertex_index
end_header
37.262806 -110.290932 -3.178179
27.005423 -111.361488 14.723881
15.413905 -94.26059 50.21991
36.562416 -105.41407 15.936792
31.964926 -101.650589 23.236652
21.589182 -87.750664 45.79546
27.143505 -93.828293 32.426712
22.781719 -105.773209 23.776035
41.213184 -103.326988 7.766876
35.942253 -100.499229 25.438274
33.465862 -97.13353 29.040127
17.934649 -96.652657 43.517605
18.388275 -91.030136 47.953091
21.105633 -93.266029 40.674858
24.518368 -90.31485 38.706383
23.351521 -96.228897 33.652622
25.393726 -99.70887 27.541561
42.553886 -100.504829 13.651274
31.983717 -108.416977 14.748684
34.237617 -108.834908 10.756348
12.084143 -92.243988 55.966751
12.649738 -96.386902 51.708763
40.467678 -102.025345 17.869013
38.285667 -102.192688 21.814672
34.304031 -104.369843 19.627928
29.72348 -106.458405 18.532627
15.110473 -89.483322 54.750351
28.055502 -88.756668 38.333809
30.862095 -92.892319 33.180683
29.584484 -97.851234 27.321144
27.492861 -103.321075 22.594767
24.764872 -108.889572 18.944492
39.414719 -106.599182 2.197042
38.812634 -104.848732 11.938157
36.664639 -108.012459 6.490664
34.262909 -111.640099 1.331241
35.22464 -96.966492 30.438332
33.936932 -95.013985 32.271141
39.88496 -107.611404 -2.610809
41.349384 -106.69072 -4.629206
38.806976 -109.463684 -5.301939
18.896004 -98.011253 39.969994
19.489307 -94.983658 42.048622
20.553833 -96.334084 38.432003
22.273075 -94.665688 37.08469
21.505394 -97.811714 34.892914
22.394405 -99.393707 31.521128
43.976376 -98.142105 14.531085
43.040241 -99.198128 16.735254
29.532814 -109.889183 14.581644
30.660044 -110.506195 12.580379
28.147772 -112.166801 12.64682
34.027908 -101.060127 24.185587
35.219418 -102.415504 22.415213
33.14278 -103.194298 21.412516
32.07505 -105.384811 18.905083
30.925457 -104.028442 20.747658
13.835661 -93.221848 53.233643
13.571228 -90.989014 55.467651
15.300529 -91.808144 52.423523
19.958694 -89.322853 46.804642
18.379498 -88.491257 50.419464
25.86307 -91.972542 35.431343
26.285748 -89.331841 38.296299
27.68885 -91.164024 35.280602
29.489594 -90.754921 35.615143
29.030418 -93.178589 32.556572
30.322813 -95.287415 30.128166
28.377766 -95.816093 29.724365
24.18169 -102.761597 25.534859
26.42588 -101.530922 24.928257
25.150631 -104.47094 22.969202
26.186476 -106.12014 20.660402
23.727209 -107.372871 21.247553
43.092697 -100.900238 8.564299
42.470467 -102.419975 5.693609
41.72303 -104.053062 2.88314
40.364281 -104.901131 4.950818
38.619785 -103.79425 16.848749
39.715157 -103.410713 14.835273
37.677807 -105.299889 13.973609
32.948364 -110.663223 8.347715
35.41428 -108.538094 8.645756
34.170197 -110.307976 6.129504
35.483608 -109.771339 3.887574
34.718151 -98.985527 27.209696
32.813896 -99.347351 26.009335
16.782043 -95.39991 46.961128
16.87513 -92.724541 49.130325
18.270992 -93.778381 45.645721
19.817368 -92.051781 44.330288
21.426094 -90.375778 43.140701
23.095963 -88.900314 42.189312
22.784691 -91.661201 39.524914
24.048321 -93.167145 36.052376
25.239117 -94.862816 32.804176
26.383965 -96.70163 29.836853
24.379112 -97.923737 30.455002
23.27211 -101.054344 28.387703
44.889687 -96.985649 12.326362
43.590107 -99.482498 11.508229
41.94606 -101.869553 10.662745
34.337227 -106.937439 15.214439
35.456924 -107.08876 13.271723
33.104393 -108.815193 12.793259
31.789951 -110.752724 10.504837
30.435787 -112.745361 8.293064
12.423058 -94.319839 53.792618
14.003334 -95.512787 51.110641
15.34709 -96.775604 48.14838
16.4389 -98.119804 44.943214
42.073086 -100.068901 18.91329
39.395294 -102.323311 19.885946
37.513924 -103.790817 18.781422
37.133663 -101.584656 23.656759
36.382378 -103.336845 20.629721
35.442867 -105.115242 17.816792
33.213463 -106.369843 17.08098
30.857067 -107.621712 16.644438
28.401276 -108.912842 16.54809
13.310713 -88.85186 57.79538
14.938558 -87.314087 57.16613
16.814388 -90.187286 51.451683
16.698231 -87.843201 53.896896
16.61211 -85.704727 56.415108
31.231588 -90.683243 36.400642
32.6096 -92.875465 34.235844
32.183441 -95.059914 31.006607
31.580267 -97.383263 27.965126
30.778048 -99.832954 25.179884
27.509592 -98.621849 27.174711
28.636835 -100.54612 24.806402
29.776005 -102.382248 22.68737
28.596104 -104.994881 20.48815
27.277836 -107.629967 18.546864
25.868759 -110.246384 16.797438
40.858181 -105.792564 0.118237
38.378696 -108.407516 -0.510221
41.515678 -101.384789 15.781417
40.819458 -102.734955 12.763008
39.988655 -104.159271 9.85811
36.596504 -106.872894 11.248533
37.78479 -106.374481 9.164728
39.041504 -105.69001 7.053786
38.002678 -107.345581 4.329333
36.894535 -109.125305 1.663024
35.729832 -111.00666 -0.96067
34.098732 -93.9981 33.944374
34.757742 -95.002926 33.034388
20.133924 -97.89595 37.421808
19.724919 -97.172669 39.200998
19.30501 -98.734535 38.190804
20.609705 -98.634766 35.652264
21.029613 -97.072899 36.662458
20.133924 -97.89595 37.421808
20.978157 -99.392646 33.915552
20.609705 -98.634766 35.652264
43.232218 -98.554314 18.319697
43.660049 -98.022614 17.181226
26.29167 -112.567535 13.850031
26.862845 -112.970191 12.811501
27.576597 -111.764145 13.685351
20.79404 -87.305973 47.612425
19.978796 -88.092067 48.117016
20.773938 -88.536758 46.300051
21.629754 -86.589996 47.18553
20.79404 -87.305973 47.612425
22.43139 -87.096764 45.407881
21.629754 -86.589996 47.18553
32.898289 -111.440064 6.065057
33.55928 -110.4856 7.23861
32.287372 -111.617687 7.174163
33.532246 -111.243496 4.897562
32.898289 -111.440064 6.065057
42.03203 -106.133114 -5.595977
40.824984 -107.577667 -5.975878
22.222175 -101.798573 29.011957
22.833258 -100.224026 29.954415
21.783323 -100.968254 30.57867
22.603912 -102.602291 27.479315
22.222175 -101.798573 29.011957
44.989069 -96.317131 13.832575
45.377711 -95.685326 12.692803
45.477092 -95.016807 14.199016
30.538328 -111.689346 10.507986
31.224998 -110.629459 11.542608
29.973374 -111.566082 11.545757
29.861246 -112.685665 9.402099
31.112869 -111.749043 9.39895
30.538328 -111.689346 10.507986
29.167406 -113.751724 8.384731
29.861246 -112.685665 9.402099
12.536398 -95.353371 52.75069
11.747813 -94.672752 53.913029
11.861154 -95.706284 52.871101
15.176144 -98.016873 47.168974
14.658561 -97.284927 48.61915
15.722049 -98.688973 45.566391
15.892995 -97.447704 46.545797
15.176144 -98.016873 47.168974
38.84048 -102.258 20.850309
39.696156 -101.587189 21.481394
39.141342 -101.521878 22.445757
36.537958 -101.041943 24.547517
37.415836 -100.710895 25.265193
36.820131 -100.168182 26.15595
11.909848 -91.222283 57.098267
11.154137 -91.752769 57.187752
17.516119 -87.021313 53.44688
17.538865 -88.167229 52.15818
18.356752 -87.345341 51.708164
17.473059 -85.952076 54.705986
16.655171 -86.773964 55.156002
17.516119 -87.021313 53.44688
17.468845 -84.925785 56.017406
17.473059 -85.952076 54.705986
24.666233 -89.0304 40.135806
23.95503 -88.323131 41.87727
23.807165 -89.607582 40.447848
27.305587 -87.869763 39.830151
26.42071 -88.157349 39.811396
27.170625 -89.044254 38.315054
28.17176 -87.686741 39.913563
27.305587 -87.869763 39.830151
28.923991 -88.659367 38.573719
28.17176 -87.686741 39.913563
33.635628 -112.613216 0.070301
34.36909 -112.296497 -1.075654
34.99637 -111.32338 0.185285
35.401596 -95.97918 32.117983
36.041283 -96.845653 31.231513
34.580786 -95.990239 31.354737
35.401596 -95.97918 32.117983
34.757742 -95.002926 33.034388
40.617172 -107.151062 -3.620007
41.810778 -105.795468 -3.26223
41.078565 -106.255809 -2.253032
39.55378 -108.964149 -6.312245
40.824984 -107.577667 -5.975878
40.07818 -108.077202 -4.965573
21.422663 -100.183643 32.229659
21.9499 -98.602711 33.207021
20.978157 -99.392646 33.915552
21.783323 -100.968254 30.57867
21.422663 -100.183643 32.229659
44.128117 -97.494602 16.079141
44.532414 -96.895359 14.934936
43.508308 -98.670117 15.63317
44.128117 -97.494602 16.079141
43.660049 -98.022614 17.181226
28.717239 -112.396385 11.578978
29.973374 -111.566082 11.545757
29.403908 -111.336498 12.613599
27.44424 -113.29871 11.705172
28.717239 -112.396385 11.578978
26.159313 -114.1021 11.869853
27.44424 -113.29871 11.705172
26.862845 -112.970191 12.811501
12.007751 -96.605987 51.829059
11.861154 -95.706284 52.871101
38.579802 -101.391475 23.417983
39.141342 -101.521878 22.445757
19.189198 -87.67627 49.924427
19.169096 -88.907055 48.612053
19.978796 -88.092067 48.117016
18.356752 -87.345341 51.708164
19.189198 -87.67627 49.924427
43.665177 -100.388771 7.527026
43.855934 -99.644249 8.970399
43.354062 -101.14864 6.091681
43.665177 -100.388771 7.527026
42.781582 -101.660106 7.128954
43.096299 -101.942024 4.67548
43.354062 -101.14864 6.091681
42.096749 -103.236518 4.288374
42.72258 -102.758567 3.270245
43.096299 -101.942024 4.67548
34.188952 -110.975178 3.776597
34.826903 -110.039658 5.008539
33.532246 -111.243496 4.897562
33.578602 -111.909558 2.49843
34.873258 -110.705719 2.609407
34.188952 -110.975178 3.776597
32.931987 -112.88453 1.281147
33.578602 -111.909558 2.49843
36.210567 -99.553627 27.050193
36.820131 -100.168182 26.15595
35.851761 -97.787259 29.550223
36.041283 -96.845653 31.231513
35.598517 -98.796776 27.935904
35.851761 -97.787259 29.550223
34.971395 -97.97601 28.824014
35.330202 -99.742378 26.323985
36.210567 -99.553627 27.050193
35.598517 -98.796776 27.935904
42.472797 -105.276848 -4.234957
41.810778 -105.795468 -3.26223
42.472797 -105.276848 -4.234957
42.03203 -106.133114 -5.595977
23.058702 -103.455917 26.052893
23.7269 -101.907971 26.961281
22.603912 -102.602291 27.479315
22.358717 -104.961724 25.173481
23.481704 -104.267403 24.655447
23.058702 -103.455917 26.052893
45.335165 -96.384002 11.23291
45.377711 -95.685326 12.692803
44.754429 -97.686954 10.85143
45.335165 -96.384002 11.23291
44.433031 -97.563877 13.428724
44.989069 -96.317131 13.832575
44.532414 -96.895359 14.934936
44.104639 -98.935379 10.442364
44.754429 -97.686954 10.85143
44.239897 -98.234073 11.917295
43.341402 -100.191368 10.036264
43.855934 -99.644249 8.970399
44.104639 -98.935379 10.442364
31.031084 -112.658756 7.146838
32.287372 -111.617687 7.174163
31.692076 -111.704292 8.32039
29.754036 -113.761707 7.200404
31.031084 -112.658756 7.146838
29.754036 -113.761707 7.200404
29.167406 -113.751724 8.384731
36.662454 -111.242905 -4.488606
35.885156 -111.618168 -3.361243
11.371295 -92.700966 56.074639
11.154137 -91.752769 57.187752
11.540752 -93.738891 54.987572
11.747813 -94.672752 53.913029
12.2536 -93.281914 54.879684
11.371295 -92.700966 56.074639
11.540752 -93.738891 54.987572
12.656489 -97.384251 50.700443
12.007751 -96.605987 51.829059
13.309885 -97.090576 50.399341
12.656489 -97.384251 50.700443
13.986683 -96.653519 50.10028
13.326536 -95.949845 51.409702
13.309885 -97.090576 50.399341
14.675212 -96.144195 49.629511
13.986683 -96.653519 50.10028
14.658561 -97.284927 48.61915
16.104847 -99.443153 43.994712
15.722049 -98.688973 45.566391
16.869575 -98.827671 43.250124
16.104847 -99.443153 43.994712
17.61745 -98.094098 42.53732
17.186774 -97.386231 44.23041
16.869575 -98.827671 43.250124
18.098128 -98.773395 40.763514
18.415326 -97.331955 41.7438
17.61745 -98.094098 42.53732
18.43978 -99.507042 39.020735
18.098128 -98.773395 40.763514
19.30501 -98.734535 38.190804
18.43978 -99.507042 39.020735
42.289265 -99.407425 20.528125
42.74864 -98.9897 19.408715
41.567667 -100.360786 19.974601
42.289265 -99.407425 20.528125
40.764963 -101.339009 19.452463
41.270382 -101.047123 18.391151
41.567667 -100.360786 19.974601
40.228771 -101.487991 20.460929
39.696156 -101.587189 21.481394
39.931486 -102.174328 18.877479
40.764963 -101.339009 19.452463
40.228771 -101.487991 20.460929
38.003799 -101.087459 24.339027
37.415836 -100.710895 25.265193
37.709665 -101.888672 22.735716
38.579802 -101.391475 23.417983
38.003799 -101.087459 24.339027
37.434539 -110.829281 -5.550486
38.034891 -109.877308 -4.240059
36.662454 -111.242905 -4.488606
38.212591 -110.376205 -6.618553
37.434539 -110.829281 -5.550486
38.959395 -109.876671 -7.628858
39.55378 -108.964149 -6.312245
38.212591 -110.376205 -6.618553
12.653391 -90.594796 56.848716
11.909848 -91.222283 57.098267
12.827685 -91.616501 55.717201
12.523134 -89.526218 58.012581
12.653391 -90.594796 56.848716
13.44097 -89.920437 56.631515
12.388654 -88.528805 59.176182
12.523134 -89.526218 58.012581
13.22429 -87.834561 58.986817
12.302231 -87.511505 60.367618
12.388654 -88.528805 59.176182
14.038213 -87.065674 58.672191
13.22429 -87.834561 58.986817
14.124636 -88.082974 57.480755
14.89932 -86.303833 58.392761
14.038213 -87.065674 58.672191
15.736096 -85.499153 58.01725
14.89932 -86.303833 58.392761
15.775334 -86.509407 56.790619
16.616546 -84.726219 57.679619
15.736096 -85.499153 58.01725
16.616546 -84.726219 57.679619
17.468845 -84.925785 56.017406
23.184781 -87.671588 43.604807
22.43139 -87.096764 45.407881
22.342573 -88.325489 43.992386
23.184781 -87.671588 43.604807
23.95503 -88.323131 41.87727
25.549923 -88.538895 39.930763
24.666233 -89.0304 40.135806
25.402058 -89.823346 38.501341
25.549923 -88.538895 39.930763
26.42071 -88.157349 39.811396
29.641037 -89.658493 37.214386
28.923991 -88.659367 38.573719
28.772548 -89.755795 36.974476
30.512034 -89.622654 37.607135
29.641037 -89.658493 37.214386
30.360591 -90.719082 36.007892
31.350935 -89.668228 38.04338
30.512034 -89.622654 37.607135
32.063161 -90.754272 36.979602
31.350935 -89.668228 38.04338
32.752167 -91.850383 35.897204
32.063161 -90.754272 36.979602
31.920594 -91.779354 35.318243
33.435066 -92.928841 34.926726
33.577632 -91.903759 36.588085
32.752167 -91.850383 35.897204
33.273266 -93.944725 33.253493
34.098732 -93.9981 33.944374
33.435066 -92.928841 34.926726
21.597648 -106.447037 24.359748
22.358717 -104.961724 25.173481
22.013662 -107.222206 22.98583
21.597648 -106.447037 24.359748
22.486407 -108.022038 21.721589
23.254464 -106.57304 22.511794
22.013662 -107.222206 22.98583
22.967976 -108.775925 20.466857
22.486407 -108.022038 21.721589
23.486808 -109.534275 19.315326
24.24604 -108.131222 20.096023
22.967976 -108.775925 20.466857
24.021601 -110.236141 18.154191
23.486808 -109.534275 19.315326
24.573545 -110.914547 17.080664
25.316816 -109.567978 17.870965
24.021601 -110.236141 18.154191
25.141789 -111.526188 15.975718
24.573545 -110.914547 17.080664
25.710121 -112.08374 14.93894
26.437091 -110.803936 15.760659
25.141789 -111.526188 15.975718
26.29167 -112.567535 13.850031
25.710121 -112.08374 14.93894
42.394317 -103.599182 1.874628
42.72258 -102.758567 3.270245
41.961893 -104.468933 0.492177
42.394317 -103.599182 1.874628
41.290605 -104.922813 1.500689
41.565176 -105.34639 -0.888509
41.961893 -104.468933 0.492177
40.371571 -106.701984 -1.246286
41.078565 -106.255809 -2.253032
41.565176 -105.34639 -0.888509
42.556663 -99.633514 17.824272
43.232218 -98.554314 18.319697
42.74864 -98.9897 19.408715
35.118669 -111.976032 -2.252488
35.885156 -111.618168 -3.361243
36.496319 -110.648796 -2.069425
33.757927 -113.265869 -2.367472
35.118669 -111.976032 -2.252488
34.36909 -112.296497 -1.075654
33.635628 -112.613216 0.070301
32.931987 -112.88453 1.281147
3 147 37 148
3 0 40 38
3 149 43 150
3 151 150 41
3 149 150 151
3 152 45 153
3 154 153 43
3 152 153 154
3 156 155 45
3 157 48 158
3 1 51 49
3 1 159 161
3 161 160 51
3 159 160 161
3 4 54 52
3 4 56 54
3 2 59 57
3 5 162 164
3 164 163 60
3 162 163 164
3 5 165 166
3 5 167 168
3 6 64 62
3 6 66 64
3 6 68 66
3 7 71 69
3 7 73 71
3 8 75 74
3 8 77 75
3 3 80 78
3 169 83 170
3 171 170 81
3 169 170 171
3 173 172 83
3 10 85 36
3 10 86 85
3 175 174 39
3 11 89 87
3 13 90 42
3 13 91 90
3 13 93 91
3 15 94 44
3 15 95 94
3 15 97 95
3 176 98 177
3 178 177 46
3 176 177 178
3 180 179 98
3 181 99 182
3 181 182 183
3 17 100 47
3 17 101 100
3 18 104 102
3 184 105 185
3 186 185 50
3 184 185 186
3 187 106 188
3 189 188 105
3 187 188 189
3 191 190 106
3 21 192 194
3 192 107 193
3 192 193 194
3 21 108 107
3 195 109 196
3 197 110 198
3 199 198 109
3 197 198 199
3 23 200 202
3 200 112 201
3 200 201 202
3 23 113 112
3 9 203 205
3 203 114 204
3 203 204 205
3 24 115 53
3 24 116 115
3 24 117 116
3 25 118 55
3 25 119 118
3 20 206 207
3 26 120 58
3 26 121 120
3 12 122 88
3 208 123 209
3 210 209 61
3 208 209 210
3 211 124 212
3 213 212 123
3 211 212 213
3 215 214 124
3 14 216 218
3 218 217 92
3 216 217 218
3 27 219 221
3 221 220 63
3 219 220 221
3 27 222 223
3 27 224 225
3 28 125 65
3 28 126 125
3 28 127 126
3 29 128 67
3 29 129 128
3 16 130 96
3 30 131 70
3 30 132 131
3 30 133 132
3 31 134 72
3 31 135 134
3 32 136 76
3 32 137 136
3 22 138 111
3 33 139 79
3 33 140 139
3 19 141 103
3 34 142 82
3 34 143 142
3 34 144 143
3 35 145 84
3 35 146 145
3 35 226 228
3 228 227 146
3 226 227 228
3 229 36 230
3 37 231 233
3 231 36 232
3 231 232 233
3 37 10 36
3 38 234 236
3 234 39 235
3 234 235 236
3 40 39 38
3 40 237 239
3 239 238 39
3 237 238 239
3 41 42 11
3 43 42 41
3 43 13 42
3 43 44 13
3 45 44 43
3 45 15 44
3 45 46 15
3 240 46 241
3 242 241 45
3 240 241 242
3 244 243 46
3 245 47 246
3 48 247 249
3 247 47 248
3 247 248 249
3 48 17 47
3 49 50 18
3 51 50 49
3 51 250 252
3 252 251 50
3 250 251 252
3 51 253 254
3 257 256 51
3 255 256 257
3 258 21 259
3 260 23 261
3 52 53 9
3 54 53 52
3 54 24 53
3 54 55 24
3 56 55 54
3 56 25 55
3 57 58 20
3 59 58 57
3 59 26 58
3 60 61 12
3 262 61 263
3 264 263 60
3 262 263 264
3 266 265 61
3 62 63 14
3 64 63 62
3 64 27 63
3 64 65 27
3 66 65 64
3 66 28 65
3 66 67 28
3 68 67 66
3 68 29 67
3 69 70 16
3 71 70 69
3 71 30 70
3 71 72 30
3 73 72 71
3 73 31 72
3 74 267 268
3 75 269 271
3 271 270 74
3 269 270 271
3 75 272 273
3 75 274 276
3 274 76 275
3 274 275 276
3 77 76 75
3 77 32 76
3 78 79 22
3 80 79 78
3 80 33 79
3 81 82 19
3 83 82 81
3 83 34 82
3 83 84 34
3 277 84 278
3 279 278 83
3 277 278 279
3 280 35 281
3 282 281 84
3 280 281 282
3 284 283 35
3 285 9 286
3 36 287 288
3 85 289 291
3 291 290 36
3 289 290 291
3 85 292 294
3 292 9 293
3 292 293 294
3 85 52 9
3 86 52 85
3 86 4 52
3 39 295 296
3 298 297 39
3 87 88 2
3 89 88 87
3 89 12 88
3 42 89 11
3 90 89 42
3 90 12 89
3 90 60 12
3 91 60 90
3 91 5 60
3 91 92 5
3 93 92 91
3 93 14 92
3 44 93 13
3 94 93 44
3 94 14 93
3 94 62 14
3 95 62 94
3 95 6 62
3 95 96 6
3 97 96 95
3 97 16 96
3 46 97 15
3 98 97 46
3 98 16 97
3 98 69 16
3 299 69 300
3 301 300 98
3 299 300 301
3 302 7 303
3 304 303 69
3 302 303 304
3 99 305 306
3 99 307 308
3 47 309 311
3 309 99 310
3 309 310 311
3 100 99 47
3 100 312 314
3 314 313 99
3 312 313 314
3 100 315 317
3 315 74 316
3 315 316 317
3 101 74 100
3 101 8 74
3 102 103 3
3 104 103 102
3 104 19 103
3 50 104 18
3 105 104 50
3 105 19 104
3 105 81 19
3 106 81 105
3 106 318 320
3 320 319 81
3 318 319 320
3 106 321 322
3 324 323 106
3 326 325 0
3 327 20 328
3 107 329 330
3 107 331 333
3 331 20 332
3 331 332 333
3 107 57 20
3 108 57 107
3 108 2 57
3 334 21 335
3 336 21 337
3 338 108 339
3 340 339 21
3 338 339 340
3 109 341 343
3 341 108 342
3 341 342 343
3 109 2 108
3 109 87 2
3 110 87 109
3 110 11 87
3 344 110 345
3 346 110 347
3 348 11 349
3 350 349 110
3 348 349 350
3 351 41 352
3 353 352 11
3 351 352 353
3 354 41 355
3 357 356 41
3 358 111 359
3 360 111 361
3 362 22 363
3 364 363 111
3 362 363 364
3 112 365 366
3 112 367 369
3 367 22 368
3 367 368 369
3 112 78 22
3 113 78 112
3 113 3 78
3 114 370 371
3 114 372 374
3 372 23 373
3 372 373 374
3 53 114 9
3 115 114 53
3 115 23 114
3 115 113 23
3 116 113 115
3 116 3 113
3 116 102 3
3 117 102 116
3 117 18 102
3 55 117 24
3 118 117 55
3 118 18 117
3 118 49 18
3 119 49 118
3 119 1 49
3 375 40 376
3 377 376 0
3 375 376 377
3 378 40 379
3 382 381 40
3 380 381 382
3 58 383 385
3 385 384 20
3 383 384 385
3 120 386 388
3 388 387 58
3 386 387 388
3 120 389 390
3 120 391 393
3 391 392 393
3 121 394 396
3 396 395 120
3 394 395 396
3 121 397 398
3 88 59 2
3 122 59 88
3 122 26 59
3 61 122 12
3 123 122 61
3 123 26 122
3 123 121 26
3 124 121 123
3 124 399 401
3 401 400 121
3 399 400 401
3 124 402 403
3 405 404 124
3 92 406 408
3 408 407 5
3 406 407 408
3 410 409 92
3 63 411 413
3 413 412 14
3 411 412 413
3 415 414 63
3 65 416 418
3 418 417 27
3 416 417 418
3 125 419 421
3 421 420 65
3 419 420 421
3 125 422 423
3 125 424 425
3 126 426 428
3 428 427 125
3 426 427 428
3 126 429 431
3 429 430 431
3 126 432 434
3 432 37 433
3 432 433 434
3 127 37 126
3 127 10 37
3 67 127 28
3 128 127 67
3 128 10 127
3 128 86 10
3 129 86 128
3 129 4 86
3 96 68 6
3 130 68 96
3 130 29 68
3 70 130 16
3 131 130 70
3 131 29 130
3 131 129 29
3 132 129 131
3 132 4 129
3 132 56 4
3 133 56 132
3 133 25 56
3 72 133 30
3 134 133 72
3 134 25 133
3 134 119 25
3 135 119 134
3 135 1 119
3 435 7 436
3 437 7 438
3 439 73 440
3 441 440 7
3 439 440 441
3 442 73 443
3 444 31 445
3 446 445 73
3 444 445 446
3 447 31 448
3 449 135 450
3 451 450 31
3 449 450 451
3 452 135 453
3 454 1 455
3 456 455 135
3 454 455 456
3 458 457 1
3 76 459 460
3 136 461 463
3 463 462 76
3 461 462 463
3 136 464 465
3 136 466 468
3 466 38 467
3 466 467 468
3 137 38 136
3 137 0 38
3 111 469 471
3 469 48 470
3 469 470 471
3 138 48 111
3 138 17 48
3 79 138 22
3 139 138 79
3 139 17 138
3 139 101 17
3 140 101 139
3 140 8 101
3 103 80 3
3 141 80 103
3 141 33 80
3 82 141 19
3 142 141 82
3 142 33 141
3 142 140 33
3 143 140 142
3 143 8 140
3 143 77 8
3 144 77 143
3 144 32 77
3 84 144 34
3 145 144 84
3 145 32 144
3 145 137 32
3 146 137 145
3 146 0 137
3 146 472 474
3 474 473 0
3 472 473 474
3 477 476 146
3 475 476 477
3 479 478 35
