ply
format ascii 1.0
element vertex 138
property float x
property float y
property float z
element face 126
property list uchar int vertex_index
end_header
33.691959 56.614212 -23.119101
29.471317 52.253166 -25.369967
30.408924 45.937431 -25.962446
34.286232 50.189392 -23.648008
37.972618 60.311935 -21.071066
42.227085 56.903214 -19.389647
38.362106 53.909767 -21.546289
30.838873 57.930626 -23.841757
28.713238 55.654694 -25.007967
31.546576 54.500702 -24.200903
32.038609 51.231316 -24.531763
34.119934 53.318192 -23.42993
32.351017 45.161896 -24.891676
41.834946 54.010468 -19.344133
40.34824 55.519539 -20.505377
39.984276 52.564911 -20.45669
38.063454 50.928001 -21.527998
26.691277 53.248535 -26.267241
27.505878 49.881882 -26.617239
28.157011 46.675789 -26.936228
30.038334 49.018036 -25.709204
32.300312 48.12838 -24.779345
34.200504 47.214584 -23.727808
33.023781 60.050667 -22.75773
28.650307 43.605366 -27.160036
35.208023 61.971947 -21.707701
35.855263 58.566238 -22.095934
40.341255 58.611259 -20.337831
38.330296 57.0467 -21.386751
36.235802 55.266792 -22.395426
36.323334 52.121704 -22.57757
36.119698 49.137619 -22.608183
32.303394 43.717565 -24.869446
33.134939 44.753004 -24.268225
41.445015 52.627316 -19.194212
42.296822 53.271218 -18.588881
40.51968 51.904538 -19.75049
40.909611 53.287689 -19.900411
41.445015 52.627316 -19.194212
39.632915 51.156315 -20.32407
40.51968 51.904538 -19.75049
32.586176 61.807201 -22.562314
31.484706 60.764568 -23.123487
36.59032 61.141941 -21.389384
36.263828 62.805249 -21.162498
37.646125 61.975243 -20.844181
43.088762 57.456643 -18.761345
43.761704 56.613484 -18.13262
42.900027 56.060055 -18.760922
42.217211 58.404858 -19.281439
43.088762 57.456643 -18.761345
41.28417 57.757236 -19.863739
41.274295 59.258881 -19.755531
42.217211 58.404858 -19.281439
36.796762 48.610676 -21.964602
37.091576 50.03281 -22.068091
37.768641 49.505867 -21.424509
35.895952 47.708458 -22.537667
36.796762 48.610676 -21.964602
29.776055 56.79266 -24.424862
28.251041 57.427594 -24.839798
29.313859 58.565559 -24.256693
31.482074 44.065794 -25.485306
30.511027 44.453561 -26.020691
31.37997 45.549663 -25.427061
31.482074 44.065794 -25.485306
32.303394 43.717565 -24.869446
38.973472 61.053798 -20.518555
37.646125 61.975243 -20.844181
42.703957 54.613682 -18.738164
42.296822 53.271218 -18.588881
42.031016 55.456841 -19.36689
42.900027 56.060055 -18.760922
42.703957 54.613682 -18.738164
38.672505 50.33786 -20.859724
39.023865 51.746456 -20.992344
39.632915 51.156315 -20.32407
37.768641 49.505867 -21.424509
38.672505 50.33786 -20.859724
27.221514 56.212868 -25.476137
26.759318 57.985768 -25.307968
28.251041 57.427594 -24.839798
26.210534 55.009788 -26.105774
27.221514 56.212868 -25.476137
27.702258 54.451614 -25.637604
25.247056 53.731945 -26.782017
26.210534 55.009788 -26.105774
25.747568 51.985683 -26.928825
25.247056 53.731945 -26.782017
26.154868 50.302357 -27.103825
25.747568 51.985683 -26.928825
27.098577 51.565208 -26.44224
26.593319 48.633724 -27.257538
26.154868 50.302357 -27.103825
27.831444 48.278835 -26.776733
26.918886 47.030678 -27.417032
26.593319 48.633724 -27.257538
34.059683 45.779348 -23.68629
33.134939 44.753004 -24.268225
33.275761 46.18824 -24.309742
30.392252 59.704548 -23.665501
29.313859 58.565559 -24.256693
31.931327 58.990646 -23.299743
30.392252 59.704548 -23.665501
31.484706 60.764568 -23.123487
27.292103 45.435493 -27.547027
26.918886 47.030678 -27.417032
27.538751 43.900282 -27.658932
27.292103 45.435493 -27.547027
28.403659 45.140577 -27.048132
27.855018 42.3624 -27.737011
26.743462 42.657316 -28.235906
27.538751 43.900282 -27.658932
29.631719 43.287529 -26.619486
29.529615 44.771398 -26.561241
30.511027 44.453561 -26.020691
28.838047 42.114433 -27.20398
29.631719 43.287529 -26.619486
27.855018 42.3624 -27.737011
28.838047 42.114433 -27.20398
34.768704 63.686512 -21.47453
36.263828 62.805249 -21.162498
33.678297 62.767842 -22.0373
33.238977 64.482406 -21.804129
34.768704 63.686512 -21.47453
34.115902 61.011307 -22.232715
32.586176 61.807201 -22.562314
33.678297 62.767842 -22.0373
40.157791 60.20346 -20.151937
41.274295 59.258881 -19.755531
39.156937 59.461597 -20.704448
38.973472 61.053798 -20.518555
40.157791 60.20346 -20.151937
34.936356 46.746941 -23.097479
35.160101 48.176102 -23.167995
35.895952 47.708458 -22.537667
34.059683 45.779348 -23.68629
34.936356 46.746941 -23.097479
3 0 9 7
3 0 11 9
3 33 32 12
3 34 13 35
3 36 15 37
3 38 37 13
3 36 37 38
3 40 39 15
3 1 17 8
3 1 18 17
3 1 20 18
3 3 21 10
3 3 22 21
3 41 23 42
3 2 24 19
3 4 43 45
3 43 25 44
3 43 44 45
3 4 26 25
3 5 46 48
3 46 47 48
3 5 49 50
3 5 51 53
3 51 27 52
3 51 52 53
3 6 28 14
3 6 29 28
3 6 30 29
3 54 31 55
3 56 55 16
3 54 55 56
3 58 57 31
3 7 59 61
3 59 8 60
3 59 60 61
3 9 8 7
3 9 1 8
3 9 10 1
3 11 10 9
3 11 3 10
3 12 62 64
3 64 63 2
3 62 63 64
3 66 65 12
3 67 4 68
3 13 69 70
3 13 71 73
3 71 5 72
3 71 72 73
3 13 14 5
3 15 14 13
3 15 6 14
3 15 16 6
3 74 16 75
3 76 75 15
3 74 75 76
3 78 77 16
3 8 79 81
3 79 80 81
3 17 82 84
3 84 83 8
3 82 83 84
3 17 85 86
3 17 87 88
3 18 89 91
3 91 90 17
3 89 90 91
3 18 92 93
3 18 94 96
3 94 19 95
3 94 95 96
3 20 19 18
3 20 2 19
3 10 20 1
3 21 20 10
3 21 2 20
3 21 12 2
3 22 12 21
3 22 97 99
3 99 98 12
3 97 98 99
3 100 7 101
3 23 102 104
3 102 7 103
3 102 103 104
3 23 0 7
3 19 105 106
3 24 107 109
3 109 108 19
3 107 108 109
3 24 110 112
3 110 111 112
3 113 24 114
3 115 114 2
3 113 114 115
3 116 24 117
3 119 118 24
3 25 120 121
3 25 122 124
3 122 123 124
3 25 125 127
3 125 23 126
3 125 126 127
3 26 23 25
3 26 0 23
3 27 128 129
3 27 130 132
3 130 4 131
3 130 131 132
3 14 27 5
3 28 27 14
3 28 4 27
3 28 26 4
3 29 26 28
3 29 0 26
3 29 11 0
3 30 11 29
3 30 3 11
3 16 30 6
3 31 30 16
3 31 3 30
3 31 22 3
3 133 22 134
3 135 134 31
3 133 134 135
3 137 136 22
