ply
format ascii 1.0
element vertex 69
property float x
property float y
property float z
element face 55
property list uchar int vertex_index
end_header
17.561028 85.886665 -9.737833
15.343995 87.343376 -4.126703
11.710186 88.186226 -10.012045
16.374691 86.690887 -7.043436
13.539497 87.97316 -7.100777
14.528393 87.21489 -9.961462
18.918215 84.936897 -12.179604
15.690479 86.278656 -12.573114
12.659805 87.324181 -12.802189
18.143642 85.819099 -4.065702
19.356644 85.143913 -6.824348
20.727962 84.351204 -9.360111
17.975423 85.046089 -13.539496
19.675591 84.375709 -13.2609
14.017415 87.940014 -4.077644
14.888474 87.578133 -2.572521
11.31666 88.509117 -8.500047
12.231316 88.402584 -7.044413
12.624842 88.079693 -8.556411
10.449987 88.420014 -9.946468
11.31666 88.509117 -8.500047
13.229102 86.785786 -14.058079
14.175142 86.801418 -12.687652
14.744439 86.263024 -13.943542
19.589563 84.971867 -3.95928
18.968315 85.241592 -2.557476
20.196064 84.634274 -5.338603
18.750143 85.481506 -5.445025
19.589563 84.971867 -3.95928
22.341107 83.540947 -9.106623
21.574917 83.915237 -7.909813
21.490774 83.889927 -10.505722
22.341107 83.540947 -9.106623
16.361555 85.716969 -13.736251
17.304347 85.607776 -12.376359
17.975423 85.046089 -13.539496
14.744439 86.263024 -13.943542
16.361555 85.716969 -13.736251
13.115167 88.254906 -5.56468
14.017415 87.940014 -4.077644
14.441746 87.658268 -5.61374
13.115167 88.254906 -5.56468
12.231316 88.402584 -7.044413
11.744677 87.143051 -14.176375
13.229102 86.785786 -14.058079
11.28868 87.627305 -12.82356
11.744677 87.143051 -14.176375
10.813871 88.058327 -11.428488
12.184995 87.755203 -11.407117
11.28868 87.627305 -12.82356
10.449987 88.420014 -9.946468
10.813871 88.058327 -11.428488
16.206461 86.849514 -2.617412
14.888474 87.578133 -2.572521
17.606285 86.087376 -2.586912
18.968315 85.241592 -2.557476
16.743818 86.581238 -4.096203
16.206461 86.849514 -2.617412
17.606285 86.087376 -2.586912
20.889257 84.311592 -6.641932
20.196064 84.634274 -5.338603
20.042303 84.747558 -8.09223
20.889257 84.311592 -6.641932
21.574917 83.915237 -7.909813
20.585901 84.182773 -11.915468
19.823089 84.64405 -10.769858
21.490774 83.889927 -10.505722
19.675591 84.375709 -13.2609
20.585901 84.182773 -11.915468
3 0 5 3
3 13 12 6
3 1 14 15
3 2 16 18
3 18 17 4
3 16 17 18
3 2 19 20
3 21 8 22
3 23 22 7
3 21 22 23
3 24 9 25
3 26 10 27
3 28 27 9
3 26 27 28
3 29 11 30
3 32 31 11
3 3 4 1
3 5 4 3
3 5 2 4
3 6 7 0
3 33 7 34
3 35 34 6
3 33 34 35
3 37 36 7
3 4 38 40
3 40 39 1
3 38 39 40
3 42 41 4
3 7 5 0
3 8 5 7
3 8 2 5
3 43 8 44
3 45 8 46
3 47 2 48
3 49 48 8
3 47 48 49
3 51 50 2
3 52 1 53
3 9 54 55
3 9 56 58
3 56 1 57
3 56 57 58
3 9 3 1
3 10 3 9
3 10 0 3
3 59 10 60
3 11 61 63
3 61 10 62
3 61 62 63
3 11 0 10
3 11 6 0
3 64 6 65
3 66 65 11
3 64 65 66
3 68 67 6
