ply
format ascii 1.0
element vertex 87
property float x
property float y
property float z
element face 70
property list uchar int vertex_index
end_header
62.736511 -69.50174 -4.964161
65.517723 -60.768314 -4.181496
65.229668 -65.084381 -4.571733
67.573204 -59.381557 -8.28941
63.593788 -67.575089 -2.682987
64.21109 -67.273621 -4.771902
67.218163 -61.635082 -8.533081
64.577667 -63.326958 -2.321295
62.95369 -69.229019 -7.070457
64.611343 -66.861954 -6.873793
64.371124 -65.455383 -2.497681
65.681168 -62.916607 -4.373777
65.860336 -64.569321 -6.661474
66.568863 -62.333588 -6.443237
66.653557 -60.148705 -6.226215
65.145954 -59.708377 -4.082174
64.861263 -60.981245 -3.166891
65.812027 -59.392862 -5.093688
65.145954 -59.708377 -4.082174
63.4738 -68.387681 -4.868031
63.26906 -68.48642 -3.819943
62.531771 -69.60048 -3.916073
63.944512 -64.482281 -1.37714
63.938915 -63.428074 -1.300879
63.876976 -67.819011 -8.031712
62.972881 -69.088443 -8.130798
66.058582 -64.272536 -7.716233
65.235839 -65.715637 -6.767634
65.434086 -65.418852 -7.822392
67.42263 -58.297973 -8.16575
66.962807 -58.681548 -7.134152
67.113381 -59.765131 -7.257812
62.960409 -68.637154 -2.775486
62.661379 -68.67025 -1.728125
63.902439 -67.424355 -3.727444
62.960409 -68.637154 -2.775486
63.26906 -68.48642 -3.819943
67.421978 -61.264633 -9.588886
66.737495 -62.805416 -8.652036
67.736687 -60.083258 -9.452821
67.421978 -61.264633 -9.588886
67.914208 -58.956495 -9.330986
67.395684 -60.508319 -8.411245
67.736687 -60.083258 -9.452821
67.90345 -57.836844 -9.19104
67.914208 -58.956495 -9.330986
64.391235 -62.260567 -2.23679
63.938915 -63.428074 -1.300879
65.047695 -62.047636 -3.251396
64.861263 -60.981245 -3.166891
64.391235 -62.260567 -2.23679
64.705803 -66.635479 -7.933379
63.782516 -68.045486 -6.972125
63.876976 -67.819011 -8.031712
65.434086 -65.418852 -7.822392
64.705803 -66.635479 -7.933379
61.71987 -70.681023 -4.003127
62.531771 -69.60048 -3.916073
61.844761 -70.651691 -5.052808
61.71987 -70.681023 -4.003127
61.95335 -70.515331 -6.105956
62.845101 -69.365379 -6.017309
61.844761 -70.651691 -5.052808
61.997014 -70.464309 -7.159863
61.95335 -70.515331 -6.105956
62.972881 -69.088443 -8.130798
61.997014 -70.464309 -7.159863
63.183027 -67.644509 -1.641313
62.661379 -68.67025 -1.728125
63.571695 -66.584655 -1.54866
63.183027 -67.644509 -1.641313
63.982456 -66.515236 -2.590334
63.84124 -65.546493 -1.465333
63.571695 -66.584655 -1.54866
64.474395 -64.391171 -2.409488
63.944512 -64.482281 -1.37714
63.84124 -65.546493 -1.465333
66.53925 -63.102201 -7.597277
66.058582 -64.272536 -7.716233
66.737495 -62.805416 -8.652036
66.379944 -59.083057 -6.116048
65.812027 -59.392862 -5.093688
66.08564 -60.458509 -5.203855
66.379944 -59.083057 -6.116048
66.962807 -58.681548 -7.134152
67.42263 -58.297973 -8.16575
67.90345 -57.836844 -9.19104
3 1 15 16
3 1 17 18
3 0 19 21
3 19 5 20
3 19 20 21
3 22 7 23
3 25 24 8
3 2 10 4
3 2 11 10
3 26 12 27
3 28 27 9
3 26 27 28
3 3 13 6
3 3 14 13
3 3 29 31
3 31 30 14
3 29 30 31
3 32 4 33
3 5 34 36
3 34 4 35
3 34 35 36
3 5 2 4
3 37 6 38
3 39 6 40
3 41 3 42
3 43 42 6
3 41 42 43
3 45 44 3
3 7 46 47
3 7 48 50
3 48 1 49
3 48 49 50
3 8 9 0
3 51 9 52
3 53 52 8
3 51 52 53
3 55 54 9
3 56 0 57
3 58 0 59
3 60 8 61
3 62 61 0
3 60 61 62
3 63 8 64
3 66 65 8
3 4 67 68
3 10 69 71
3 71 70 4
3 69 70 71
3 10 72 73
3 10 74 76
3 74 7 75
3 74 75 76
3 11 7 10
3 11 1 7
3 9 5 0
3 12 5 9
3 12 2 5
3 6 77 79
3 77 12 78
3 77 78 79
3 13 12 6
3 13 2 12
3 13 11 2
3 14 11 13
3 14 1 11
3 14 80 82
3 82 81 1
3 80 81 82
3 84 83 14
3 86 85 3
