ply
format ascii 1.0
element vertex 377
property float x
property float y
property float z
element face 398
property list uchar int vertex_index
end_header
13.843479 6.40329 78.819069
25.445385 7.587471 64.112534
17.470814 -4.064771 77.721771
19.302233 7.603266 70.308922
23.701481 -3.23505 70.670784
31.367792 -2.311983 66.746124
20.006313 -8.217003 77.943748
20.512779 -3.456611 73.94754
23.145744 -7.671978 75.008606
26.681236 -7.446504 72.63253
12.024403 11.779989 79.287735
15.159091 13.141968 75.577225
22.080605 7.553295 66.530991
20.332695 13.62775 66.986198
12.149246 -0.470617 81.728188
10.368538 4.574377 82.022865
29.411558 7.938459 63.082924
34.53867 -6.096042 69.031242
35.535427 -1.385334 65.560989
38.236053 -5.110843 67.107323
15.489931 0.973516 78.117928
16.733574 7.342327 74.707787
18.362827 1.66383 73.954834
21.168505 1.843386 69.932968
24.363693 1.906326 66.81102
28.126638 2.212547 64.94043
27.339264 -2.948631 68.287453
30.586868 -6.950748 70.722847
17.774721 13.645672 71.190445
32.325089 2.873922 64.008904
21.346966 -9.818089 78.218468
21.55529 -7.857153 76.401833
22.813011 -9.534188 76.978462
19.838974 -10.407176 79.667885
24.426926 -9.476697 75.895348
12.984291 9.119518 79.112228
13.670097 12.582254 77.554756
14.555752 9.796743 77.244164
23.68034 7.539545 65.129448
22.670683 10.511723 65.143738
24.342346 10.507118 63.981026
26.17923 10.576418 63.218811
13.033079 2.974533 80.309166
11.264606 2.058037 81.911484
12.175854 5.606663 80.559631
11.258648 8.201044 80.714943
28.159586 10.731396 62.79921
27.364857 7.719124 63.455902
36.433331 -5.600223 68.127335
16.411934 -1.626471 77.851181
16.966194 1.402176 76.068367
17.910294 -1.234228 75.842178
22.061199 -3.324909 72.213226
20.818056 -0.867424 71.894249
22.350086 -0.802347 70.13723
22.697758 1.863094 68.222855
23.996571 -0.742001 68.623497
17.050991 -6.819653 79.538528
15.855063 -4.608092 79.597672
14.811732 -2.195559 79.768883
25.776344 -0.635202 67.390816
25.460556 -3.125712 69.358932
28.606642 -7.248248 71.628059
32.041054 -8.744011 71.948288
18.026043 7.537392 72.490936
17.278084 10.508259 72.958694
18.528955 10.612295 70.728043
29.702856 -0.161407 65.727661
30.187294 2.503899 64.399666
31.797033 0.212317 65.185928
18.680569 -6.279963 77.757385
19.004143 -3.688964 75.810501
20.240646 -5.908705 76.000938
21.801567 -5.684435 74.346352
23.432657 -5.553678 72.846085
18.394188 -8.77141 79.5811
25.173748 -5.442193 71.526268
24.85145 -7.568508 73.757202
26.214388 -9.425505 74.852097
15.657749 16.432846 73.822227
20.633827 7.590824 68.284599
19.801693 10.611893 68.600655
21.165434 10.561068 66.704071
21.762115 13.558022 65.273872
8.469183 3.302456 83.170258
7.511648 5.616776 82.961105
9.413227 7.033798 82.010841
10.241085 10.722414 80.728264
31.548195 8.231886 62.880241
33.021229 -4.270168 67.899437
33.451725 -1.8701 66.149445
35.03989 -3.785485 67.183044
37.012146 -3.282798 66.407906
39.932011 -4.663313 65.926414
14.656071 3.670572 78.464417
15.356103 6.974993 76.847015
16.135708 4.158913 76.42907
17.506115 4.462317 74.275795
18.825542 4.615194 72.100517
19.357977 -0.994179 73.825447
19.741777 1.794979 71.874954
20.163029 4.662743 70.015076
21.583275 4.657106 68.13147
23.134104 4.650988 66.541885
24.839842 4.690107 65.300438
13.082106 -2.954556 81.529785
13.889803 0.353769 80.024063
26.701042 4.806356 64.411964
26.176851 2.014698 65.72345
27.685543 -0.446409 66.438713
29.318565 -2.677896 67.434052
27.029095 -5.284417 70.395149
28.978376 -5.040495 69.441315
30.98839 -4.698362 68.6287
32.578079 -6.558441 69.875908
15.974702 10.249981 75.166367
16.510166 13.483963 73.423676
16.972679 16.671535 71.628555
19.024078 13.675346 68.999794
28.698774 5.013664 63.830154
30.801939 5.30711 63.467056
32.972836 5.665373 63.210632
33.932991 0.650066 64.723274
22.638785 -10.244208 77.720508
22.079988 -9.676139 77.598465
21.905763 -10.386159 78.340511
21.905763 -10.386159 78.340511
21.330589 -10.737327 78.949967
23.318652 -10.32229 77.381282
22.638785 -10.244208 77.720508
25.878768 -10.315931 75.882981
25.320657 -9.451101 75.373722
24.985037 -10.341527 76.404606
26.818083 -10.312516 75.410847
25.878768 -10.315931 75.882981
12.338996 13.541284 78.509807
11.478995 13.069457 79.297737
14.69422 14.564711 75.730732
13.949723 14.284854 76.719497
14.414594 12.862111 76.56599
15.40842 14.787407 74.699726
14.943549 16.210149 74.853233
14.69422 14.564711 75.730732
22.556128 13.536467 64.612804
22.216399 12.034872 65.208805
23.010412 12.013317 64.547737
22.089294 15.064486 64.623524
22.556128 13.536467 64.612804
11.216136 -0.988404 82.457501
11.686881 -2.189925 82.406857
9.874928 2.744779 82.627056
10.322962 1.48661 82.571365
10.816572 3.316207 81.967174
9.41886 3.938416 82.596562
8.925251 2.108819 83.200752
9.874928 2.744779 82.627056
11.478995 13.069457 79.297737
10.587336 12.540669 80.018001
11.132744 11.251202 80.007999
29.829726 9.452073 62.849064
29.20374 10.848541 62.707207
28.785572 9.334927 62.941067
30.479876 8.085172 62.981583
30.898044 9.598786 62.747722
29.829726 9.452073 62.849064
38.574481 -3.955929 66.309254
37.962528 -3.041907 65.959545
37.624099 -4.196821 66.757614
39.084032 -4.887078 66.516868
39.42246 -3.732164 65.718799
38.574481 -3.955929 66.309254
13.601435 -4.142036 81.447803
12.670829 -4.593447 82.250607
33.000695 -8.536791 71.467232
32.631655 -9.619011 72.431679
7.004214 6.725154 82.766708
7.94235 7.511427 82.39893
20.576594 -11.031871 79.674675
19.792036 -11.476301 80.384159
20.529655 -12.100995 80.390949
20.59297 -10.112633 78.943176
20.576594 -11.031871 79.674675
21.330589 -10.737327 78.949967
24.12561 -10.293544 76.839726
23.619968 -9.505443 76.436905
23.318652 -10.32229 77.381282
24.985037 -10.341527 76.404606
24.12561 -10.293544 76.839726
23.846243 12.011015 63.966381
23.010412 12.013317 64.547737
23.506515 10.509421 64.562382
24.724714 12.020903 63.517136
23.846243 12.011015 63.966381
25.643156 12.055553 63.136029
24.724714 12.020903 63.517136
25.260788 10.541768 63.599919
26.599028 12.106551 62.882717
26.062954 13.585686 62.799934
25.643156 12.055553 63.136029
27.169408 10.653907 63.009011
27.589206 12.18404 62.672916
26.599028 12.106551 62.882717
36.113875 -6.732518 69.041207
35.486001 -5.848133 68.579289
35.166544 -6.980427 69.49316
36.973628 -6.494568 68.466938
36.113875 -6.732518 69.041207
37.874989 -6.249878 67.956932
37.334692 -5.355533 67.617329
36.973628 -6.494568 68.466938
38.669647 -6.024902 67.304055
37.874989 -6.249878 67.956932
16.178715 -7.175299 80.401505
16.852082 -8.159847 80.379963
15.580751 -6.069519 80.431077
16.178715 -7.175299 80.401505
16.453027 -5.713872 79.5681
14.987913 -4.968803 80.481747
15.580751 -6.069519 80.431077
15.333398 -3.401826 79.683278
14.466248 -3.762537 80.567352
14.987913 -4.968803 80.481747
28.361832 -8.274828 72.739482
27.643939 -7.347376 72.130294
27.39913 -8.373955 73.241718
29.341884 -8.161414 72.259098
28.361832 -8.274828 72.739482
30.331997 -8.012664 71.806492
29.596755 -7.099498 71.175453
29.341884 -8.161414 72.259098
31.059091 -8.909295 72.419213
31.313961 -7.84738 71.335567
30.331997 -8.012664 71.806492
31.681781 -9.788706 72.963082
31.059091 -8.909295 72.419213
32.631655 -9.619011 72.431679
31.681781 -9.788706 72.963082
19.92691 15.173761 67.150455
20.61535 15.134995 66.224742
35.805453 -0.134342 64.903617
36.561367 -1.140912 65.231262
18.991855 -10.796723 80.430878
19.792036 -11.476301 80.384159
18.269461 -9.97884 80.387485
18.991855 -10.796723 80.430878
19.116581 -9.589293 79.624493
17.52368 -9.135725 80.401249
18.269461 -9.97884 80.387485
17.722589 -7.795531 79.559814
16.852082 -8.159847 80.379963
17.52368 -9.135725 80.401249
27.165706 -9.363456 74.351501
27.39913 -8.373955 73.241718
26.447812 -8.436004 73.742313
27.165706 -9.363456 74.351501
26.818083 -10.312516 75.410847
13.161843 13.942416 77.643318
12.338996 13.541284 78.509807
12.84725 12.181121 78.421245
13.161843 13.942416 77.643318
13.949723 14.284854 76.719497
15.16508 17.883726 73.965942
14.943549 16.210149 74.853233
15.862381 18.051335 72.907261
15.16508 17.883726 73.965942
21.330061 15.10013 65.368579
20.61535 15.134995 66.224742
21.047405 13.592886 66.130035
21.330061 15.10013 65.368579
22.089294 15.064486 64.623524
10.773816 0.275923 82.549149
11.216136 -0.988404 82.457501
11.706926 0.79371 81.819836
10.773816 0.275923 82.549149
10.322962 1.48661 82.571365
7.955137 1.42305 83.700005
8.925251 2.108819 83.200752
7.509029 2.54659 83.565945
7.955137 1.42305 83.700005
7.990415 4.459616 83.065682
7.030262 3.70375 83.461368
7.509029 2.54659 83.565945
8.893139 8.219938 81.923798
7.94235 7.511427 82.39893
8.462438 6.325287 82.485973
9.307068 10.064246 81.282509
8.893139 8.219938 81.923798
9.827156 8.878106 81.369552
9.675179 11.935725 80.648617
9.307068 10.064246 81.282509
10.021431 13.753981 79.938355
9.675179 11.935725 80.648617
10.587336 12.540669 80.018001
28.606541 12.276434 62.569699
27.589206 12.18404 62.672916
28.606541 12.276434 62.569699
29.20374 10.848541 62.707207
31.97435 9.744333 62.705578
30.898044 9.598786 62.747722
32.640152 8.401791 62.799537
33.066307 9.914239 62.624874
31.97435 9.744333 62.705578
37.299727 -2.089644 65.65472
36.561367 -1.140912 65.231262
36.273786 -2.334066 65.984448
37.299727 -2.089644 65.65472
37.962528 -3.041907 65.959545
40.328762 -3.517984 65.185741
39.42246 -3.732164 65.718799
40.724966 -4.473321 65.241005
40.328762 -3.517984 65.185741
39.517626 -5.801137 66.7136
39.084032 -4.887078 66.516868
38.669647 -6.024902 67.304055
40.24689 -5.603697 65.969203
39.517626 -5.801137 66.7136
41.039845 -5.413706 65.283794
40.724966 -4.473321 65.241005
40.24689 -5.603697 65.969203
12.153311 -3.431894 82.307656
12.670829 -4.593447 82.250607
12.615676 -1.712587 81.628986
11.686881 -2.189925 82.406857
12.153311 -3.431894 82.307656
13.946919 -2.575057 80.649334
13.601435 -4.142036 81.447803
14.466248 -3.762537 80.567352
33.269207 -7.444007 70.431042
32.309567 -7.651226 70.912098
33.000695 -8.536791 71.467232
34.249503 -7.212807 70.008709
33.558374 -6.327241 69.453575
33.269207 -7.444007 70.431042
35.166544 -6.980427 69.49316
34.249503 -7.212807 70.008709
16.519846 18.170679 71.810425
15.862381 18.051335 72.907261
16.315214 16.552191 72.725391
19.272602 15.197559 68.157253
19.678387 13.651548 67.992996
19.92691 15.173761 67.150455
18.629921 15.212143 69.207397
19.272602 15.197559 68.157253
18.005243 15.197306 70.302723
18.3994 13.660509 70.095119
18.629921 15.212143 69.207397
17.604222 16.710237 70.521778
17.3737 15.158603 71.4095
18.005243 15.197306 70.302723
17.175584 18.242441 70.711956
17.604222 16.710237 70.521778
16.722751 19.741585 70.893825
16.519846 18.170679 71.810425
17.175584 18.242441 70.711956
6.573314 4.784778 83.242347
7.030262 3.70375 83.461368
6.06588 5.893156 83.04795
6.573314 4.784778 83.242347
7.004214 6.725154 82.766708
33.352473 7.118535 62.964733
32.640152 8.401791 62.799537
32.260515 6.948629 63.045436
35.004234 0.883358 64.48476
34.734209 -0.367634 65.142132
35.805453 -0.134342 64.903617
34.217985 1.971881 64.193287
35.004234 0.883358 64.48476
33.414034 3.083808 63.836102
33.12904 1.761994 64.366089
34.217985 1.971881 64.193287
33.737908 4.479534 63.436966
32.648962 4.269647 63.609768
33.414034 3.083808 63.836102
34.07185 5.860561 63.077491
33.737908 4.479534 63.436966
33.352473 7.118535 62.964733
34.07185 5.860561 63.077491
3 123 32 124
3 125 124 30
3 123 124 125
3 126 30 127
3 129 128 32
3 0 37 35
3 1 40 38
3 1 41 40
3 0 44 42
3 0 35 44
3 1 47 41
3 2 51 49
3 4 54 52
3 4 56 54
3 2 58 57
3 2 49 58
3 4 61 56
3 3 66 64
3 5 69 67
3 6 72 70
3 8 73 31
3 8 74 73
3 6 75 33
3 6 70 75
3 8 77 74
3 130 78 131
3 132 131 34
3 130 131 132
3 134 133 78
3 10 135 136
3 11 137 139
3 139 138 36
3 137 138 139
3 11 140 142
3 140 79 141
3 140 141 142
3 12 82 80
3 143 83 144
3 145 144 39
3 143 144 145
3 147 146 83
3 14 148 149
3 15 150 152
3 152 151 43
3 150 151 152
3 15 153 155
3 153 84 154
3 153 154 155
3 15 86 84
3 10 87 45
3 10 156 158
3 158 157 87
3 156 157 158
3 16 159 161
3 161 160 46
3 159 160 161
3 16 162 164
3 162 88 163
3 162 163 164
3 17 91 89
3 19 92 48
3 19 165 167
3 167 166 92
3 165 166 167
3 19 168 170
3 168 93 169
3 168 169 170
3 20 96 94
3 22 97 50
3 22 98 97
3 7 99 71
3 23 100 53
3 23 101 100
3 23 102 101
3 24 103 55
3 24 104 103
3 171 105 172
3 20 106 59
3 20 94 106
3 24 108 104
3 26 109 60
3 26 110 109
3 9 111 76
3 27 112 62
3 27 113 112
3 27 114 113
3 174 173 63
3 21 115 95
3 28 116 65
3 28 117 116
3 13 118 81
3 176 175 85
3 25 119 107
3 29 120 68
3 29 121 120
3 18 122 90
3 30 31 6
3 32 31 30
3 32 8 31
3 177 33 178
3 177 178 179
3 30 180 182
3 180 33 181
3 180 181 182
3 30 6 33
3 32 34 8
3 183 34 184
3 185 184 32
3 183 184 185
3 187 186 34
3 35 36 10
3 37 36 35
3 37 11 36
3 38 39 12
3 40 39 38
3 40 188 190
3 190 189 39
3 188 189 190
3 40 191 192
3 41 193 195
3 195 194 40
3 193 194 195
3 41 196 198
3 196 197 198
3 42 43 14
3 44 43 42
3 44 15 43
3 44 45 15
3 35 45 44
3 35 10 45
3 41 199 201
3 199 46 200
3 199 200 201
3 47 46 41
3 47 16 46
3 202 48 203
3 204 203 17
3 202 203 204
3 205 48 206
3 207 19 208
3 209 208 48
3 207 208 209
3 211 210 19
3 49 50 20
3 51 50 49
3 51 22 50
3 52 53 7
3 54 53 52
3 54 23 53
3 54 55 23
3 56 55 54
3 56 24 55
3 57 212 213
3 58 214 216
3 216 215 57
3 214 215 216
3 58 217 218
3 58 219 221
3 219 59 220
3 219 220 221
3 49 59 58
3 49 20 59
3 56 60 24
3 61 60 56
3 61 26 60
3 222 62 223
3 224 223 9
3 222 223 224
3 225 62 226
3 227 27 228
3 229 228 62
3 227 228 229
3 230 63 231
3 232 231 27
3 230 231 232
3 233 63 234
3 236 235 63
3 64 65 21
3 66 65 64
3 66 28 65
3 238 237 13
3 67 68 25
3 69 68 67
3 69 29 68
3 240 239 18
3 70 71 2
3 72 71 70
3 72 7 71
3 31 72 6
3 73 72 31
3 73 7 72
3 73 52 7
3 74 52 73
3 74 4 52
3 33 241 242
3 75 243 245
3 245 244 33
3 243 244 245
3 75 246 247
3 75 248 250
3 248 57 249
3 248 249 250
3 70 57 75
3 70 2 57
3 74 76 4
3 77 76 74
3 77 9 76
3 34 77 8
3 78 77 34
3 78 9 77
3 78 251 253
3 253 252 9
3 251 252 253
3 255 254 78
3 36 256 258
3 258 257 10
3 256 257 258
3 260 259 36
3 79 261 262
3 79 263 264
3 80 81 3
3 82 81 80
3 82 13 81
3 39 82 12
3 83 82 39
3 83 13 82
3 83 265 267
3 267 266 13
3 265 266 267
3 269 268 83
3 43 270 272
3 272 271 14
3 270 271 272
3 274 273 43
3 84 275 276
3 84 277 278
3 84 279 281
3 279 85 280
3 279 280 281
3 86 85 84
3 86 282 284
3 284 283 85
3 282 283 284
3 45 86 15
3 87 86 45
3 87 285 287
3 287 286 86
3 285 286 287
3 87 288 289
3 292 291 87
3 290 291 292
3 46 293 294
3 296 295 46
3 88 297 298
3 88 299 301
3 299 300 301
3 89 90 5
3 91 90 89
3 91 18 90
3 48 91 17
3 92 91 48
3 92 18 91
3 92 302 304
3 304 303 18
3 302 303 304
3 306 305 92
3 93 307 308
3 93 309 310
3 311 93 312
3 313 312 19
3 311 312 313
3 314 93 315
3 318 317 93
3 316 317 318
3 94 95 0
3 96 95 94
3 96 21 95
3 50 96 20
3 97 96 50
3 97 21 96
3 97 64 21
3 98 64 97
3 98 3 64
3 71 51 2
3 99 51 71
3 99 22 51
3 53 99 7
3 100 99 53
3 100 22 99
3 100 98 22
3 101 98 100
3 101 3 98
3 101 80 3
3 102 80 101
3 102 12 80
3 55 102 23
3 103 102 55
3 103 12 102
3 103 38 12
3 104 38 103
3 104 1 38
3 105 319 320
3 105 321 323
3 321 14 322
3 321 322 323
3 59 324 326
3 324 105 325
3 324 325 326
3 106 105 59
3 106 14 105
3 106 42 14
3 94 42 106
3 94 0 42
3 104 107 1
3 108 107 104
3 108 25 107
3 60 108 24
3 109 108 60
3 109 25 108
3 109 67 25
3 110 67 109
3 110 5 67
3 76 61 4
3 111 61 76
3 111 26 61
3 62 111 9
3 112 111 62
3 112 26 111
3 112 110 26
3 113 110 112
3 113 5 110
3 113 89 5
3 114 89 113
3 114 17 89
3 63 114 27
3 327 114 328
3 329 328 63
3 327 328 329
3 330 17 331
3 332 331 114
3 330 331 332
3 334 333 17
3 95 37 0
3 115 37 95
3 115 11 37
3 65 115 21
3 116 115 65
3 116 11 115
3 116 79 11
3 117 79 116
3 117 335 337
3 337 336 79
3 335 336 337
3 81 66 3
3 118 66 81
3 118 28 66
3 338 118 339
3 340 339 13
3 338 339 340
3 341 118 342
3 343 28 344
3 345 344 118
3 343 344 345
3 346 117 347
3 348 347 28
3 346 347 348
3 349 117 350
3 353 352 117
3 351 352 353
3 85 354 355
3 358 357 85
3 356 357 358
3 107 47 1
3 119 47 107
3 119 16 47
3 68 119 25
3 120 119 68
3 120 16 119
3 120 88 16
3 121 88 120
3 121 359 361
3 361 360 88
3 359 360 361
3 90 69 5
3 122 69 90
3 122 29 69
3 362 122 363
3 364 363 18
3 362 363 364
3 365 122 366
3 367 29 368
3 369 368 122
3 367 368 369
3 370 121 371
3 372 371 29
3 370 371 372
3 373 121 374
3 376 375 121
