ply
format ascii 1.0
element vertex 216
property float x
property float y
property float z
element face 194
property list uchar int vertex_index
end_header
11.189243 -123.543571 9.532655
3.271881 -119.705025 10.213242
16.397757 -116.277229 17.632252
8.397411 -120.125687 15.205566
6.70495 -122.472626 10.023925
4.207327 -118.182709 16.0077
11.143476 -117.072624 19.616247
13.458858 -120.333054 13.98012
1.181688 -115.557693 10.157408
19.632641 -111.404213 20.705547
21.771799 -114.162247 15.824821
18.838121 -118.873329 12.538612
7.298084 -118.179901 18.190746
6.159304 -119.364273 15.669941
5.188503 -117.244675 18.728922
10.318031 -115.350548 22.64049
8.702148 -116.849815 20.518723
9.662771 -118.686577 17.514202
25.577917 -113.773582 12.976181
4.832306 -121.285973 10.152919
15.364861 -114.775932 20.346415
18.000025 -113.943138 19.212549
20.648087 -112.846664 18.19252
19.091162 -115.348442 16.673607
20.281607 -116.59993 14.239058
17.576321 -117.668266 15.050557
12.213722 -122.051147 11.856512
14.820244 -121.715576 11.303747
9.715889 -121.945145 12.325394
8.84449 -123.231277 9.819958
7.397856 -121.392776 12.701983
5.328787 -120.405403 12.980656
3.566088 -119.009201 13.156673
12.785561 -115.263832 21.515205
13.730581 -116.871002 18.634119
14.869668 -118.406601 15.900773
12.210609 -118.757828 16.737173
10.854977 -120.449059 14.634664
2.595142 -116.612816 16.203505
2.150434 -117.243568 13.228168
2.05094 -117.776649 10.211599
2.244984 -118.182487 7.190253
21.245605 -108.671204 22.195625
22.208744 -110.178978 19.686161
23.27833 -111.58271 17.36389
24.414818 -112.805992 15.153998
22.954025 -115.2752 13.526382
16.139214 -119.795197 13.2693
5.833343 -116.719479 20.006646
6.243294 -117.712288 18.459834
6.888134 -117.187092 19.737558
7.590166 -116.522049 20.901547
8.365299 -115.928696 22.082057
6.888134 -117.187092 19.737558
8.000116 -117.514858 19.354734
7.590166 -116.522049 20.901547
26.29167 -112.567535 13.850031
26.862845 -112.970191 12.811501
10.81503 -124.162261 8.275493
11.970894 -124.188831 8.176906
3.96931 -120.840565 8.716236
4.749523 -121.631039 8.686075
4.052093 -120.495499 10.18308
3.284617 -119.972546 8.713435
3.96931 -120.840565 8.716236
12.429895 -123.475124 9.341966
12.942134 -122.728912 10.503895
11.701483 -122.797359 10.694584
11.970894 -124.188831 8.176906
12.429895 -123.475124 9.341966
7.492993 -123.376114 8.579553
8.562763 -123.755439 8.477569
7.77472 -122.851952 9.921941
1.977711 -115.655548 16.226686
2.286011 -115.403771 17.736894
1.755356 -115.970924 14.739017
2.372788 -116.928192 14.715836
1.977711 -115.655548 16.226686
1.144008 -115.358284 11.677814
0.813397 -114.185916 11.616934
1.616314 -116.667171 10.184503
1.578634 -116.467762 11.704909
1.144008 -115.358284 11.677814
19.199699 -110.652698 22.064413
18.347569 -111.930012 21.31259
20.439123 -110.037709 21.450586
20.00618 -109.286194 22.809452
19.199699 -110.652698 22.064413
20.176906 -118.248855 12.187796
20.898649 -117.112156 13.038018
19.559864 -117.736629 13.388835
19.481496 -119.349064 11.28667
20.176906 -118.248855 12.187796
16.146508 -121.337872 10.994305
15.523264 -122.273632 9.986861
9.17324 -115.179062 23.14294
10.048153 -114.495201 24.219459
9.510089 -116.100182 21.579607
9.17324 -115.179062 23.14294
8.365299 -115.928696 22.082057
26.159313 -114.1021 11.869853
26.862845 -112.970191 12.811501
24.864682 -114.946182 12.100175
26.159313 -114.1021 11.869853
5.58558 -122.311218 8.674906
6.521902 -122.904545 8.610409
5.768628 -121.8793 10.088422
5.58558 -122.311218 8.674906
4.749523 -121.631039 8.686075
0.924229 -114.334129 10.109541
0.813397 -114.185916 11.616934
1.347185 -115.71117 8.658318
0.924229 -114.334129 10.109541
16.21368 -113.615871 21.133024
14.948266 -114.002719 21.791608
17.531261 -113.199475 20.566091
16.21368 -113.615871 21.133024
16.682443 -114.359535 19.779482
18.816333 -112.673676 19.959048
18.347569 -111.930012 21.31259
17.531261 -113.199475 20.566091
14.245396 -122.561127 10.227512
13.516983 -121.883362 11.580129
12.942134 -122.728912 10.503895
15.523264 -122.273632 9.986861
14.245396 -122.561127 10.227512
11.201362 -114.496346 23.601118
10.048153 -114.495201 24.219459
12.435126 -114.452988 23.038475
11.201362 -114.496346 23.601118
11.551796 -115.30719 22.077848
13.658617 -114.246669 22.376003
12.435126 -114.452988 23.038475
14.075211 -115.019882 20.93081
14.948266 -114.002719 21.791608
13.658617 -114.246669 22.376003
9.642653 -124.006114 8.419145
10.81503 -124.162261 8.275493
10.016866 -123.387424 9.676306
9.642653 -124.006114 8.419145
8.562763 -123.755439 8.477569
7.492993 -123.376114 8.579553
6.521902 -122.904545 8.610409
4.865089 -116.181382 20.295255
5.833343 -116.719479 20.006646
4.293232 -116.574341 18.912573
4.865089 -116.181382 20.295255
3.802644 -117.043358 17.551962
4.697915 -117.713692 17.368311
4.293232 -116.574341 18.912573
2.996551 -116.258411 17.649864
2.286011 -115.403771 17.736894
3.401235 -117.397762 16.105602
3.802644 -117.043358 17.551962
2.996551 -116.258411 17.649864
1.628381 -116.201222 13.213194
1.755356 -115.970924 14.739017
2.100687 -117.510109 11.719883
1.628381 -116.201222 13.213194
1.578634 -116.467762 11.704909
2.674146 -119.008358 8.712613
3.284617 -119.972546 8.713435
2.661411 -118.740837 10.212421
2.771168 -119.211277 7.201941
2.674146 -119.008358 8.712613
2.147962 -117.979568 8.700926
2.909828 -119.382637 5.692685
3.436012 -120.411427 5.704372
2.771168 -119.211277 7.201941
1.878833 -117.023567 7.174741
1.713336 -116.87009 8.673831
1.347185 -115.71117 8.658318
2.443218 -118.306004 5.693257
1.878833 -117.023567 7.174741
2.909828 -119.382637 5.692685
2.443218 -118.306004 5.693257
20.829591 -107.896034 23.569543
20.00618 -109.286194 22.809452
22.013662 -107.222206 22.98583
20.829591 -107.896034 23.569543
22.486407 -108.022038 21.721589
22.013662 -107.222206 22.98583
22.967976 -108.775925 20.466857
22.486407 -108.022038 21.721589
21.727175 -109.425091 20.940893
23.486808 -109.534275 19.315326
22.967976 -108.775925 20.466857
24.021601 -110.236141 18.154191
23.486808 -109.534275 19.315326
22.743537 -110.880844 18.525025
24.573545 -110.914547 17.080664
24.021601 -110.236141 18.154191
25.141789 -111.526188 15.975718
24.573545 -110.914547 17.080664
23.846574 -112.194351 16.258944
25.710121 -112.08374 14.93894
25.141789 -111.526188 15.975718
24.996367 -113.289787 14.065089
26.29167 -112.567535 13.850031
25.710121 -112.08374 14.93894
23.552736 -115.696991 12.375276
24.864682 -114.946182 12.100175
24.265971 -114.524391 13.251282
22.234858 -116.449791 12.68168
21.617816 -115.937565 13.88272
20.898649 -117.112156 13.038018
23.552736 -115.696991 12.375276
22.234858 -116.449791 12.68168
16.805993 -120.377682 11.977081
15.479729 -120.755387 12.286523
16.146508 -121.337872 10.994305
18.155446 -119.916748 11.611737
17.488667 -119.334263 12.903956
16.805993 -120.377682 11.977081
19.481496 -119.349064 11.28667
18.155446 -119.916748 11.611737
3 48 14 49
3 50 49 12
3 48 49 50
3 51 16 52
3 53 12 54
3 55 54 16
3 53 54 55
3 56 18 57
3 0 58 59
3 1 60 62
3 62 61 19
3 60 61 62
3 1 63 64
3 2 21 20
3 2 23 21
3 2 25 23
3 0 65 67
3 67 66 26
3 65 66 67
3 0 68 69
3 3 30 28
3 5 31 13
3 5 32 31
3 6 33 15
3 6 34 33
3 6 36 34
3 3 37 17
3 3 28 37
3 4 70 72
3 72 71 29
3 70 71 72
3 73 38 74
3 75 39 76
3 77 76 38
3 75 76 77
3 8 78 79
3 8 80 82
3 80 40 81
3 80 81 82
3 8 41 40
3 9 83 84
3 9 85 87
3 85 42 86
3 85 86 87
3 9 43 42
3 10 44 22
3 10 45 44
3 10 46 45
3 11 88 90
3 90 89 24
3 88 89 90
3 11 91 92
3 7 47 35
3 94 93 27
3 12 13 3
3 14 13 12
3 14 5 13
3 95 15 96
3 16 97 99
3 97 15 98
3 97 98 99
3 16 6 15
3 16 17 6
3 12 17 16
3 12 3 17
3 18 100 101
3 18 102 103
3 19 104 106
3 106 105 4
3 104 105 106
3 108 107 19
3 109 8 110
3 112 111 8
3 20 113 114
3 21 115 117
3 117 116 20
3 115 116 117
3 21 118 120
3 118 9 119
3 118 119 120
3 21 22 9
3 23 22 21
3 23 10 22
3 23 24 10
3 25 24 23
3 25 11 24
3 26 27 7
3 121 27 122
3 123 122 26
3 121 122 123
3 125 124 27
3 28 29 0
3 30 29 28
3 30 4 29
3 13 30 3
3 31 30 13
3 31 4 30
3 31 19 4
3 32 19 31
3 32 1 19
3 15 126 127
3 33 128 130
3 130 129 15
3 128 129 130
3 33 131 132
3 33 133 135
3 133 20 134
3 133 134 135
3 34 20 33
3 34 2 20
3 34 35 2
3 36 35 34
3 36 7 35
3 17 36 6
3 37 36 17
3 37 7 36
3 37 26 7
3 28 26 37
3 28 0 26
3 29 136 138
3 138 137 0
3 136 137 138
3 140 139 29
3 142 141 4
3 143 14 144
3 145 14 146
3 147 5 148
3 149 148 14
3 147 148 149
3 38 150 151
3 38 152 154
3 152 5 153
3 152 153 154
3 38 32 5
3 39 32 38
3 39 1 32
3 155 39 156
3 40 157 159
3 157 39 158
3 157 158 159
3 40 1 39
3 40 160 162
3 162 161 1
3 160 161 162
3 41 163 165
3 165 164 40
3 163 164 165
3 41 166 168
3 166 167 168
3 169 41 170
3 171 170 8
3 169 170 171
3 172 41 173
3 175 174 41
3 42 176 177
3 42 178 179
3 42 180 181
3 43 182 184
3 184 183 42
3 182 183 184
3 43 185 186
3 22 43 9
3 44 43 22
3 44 187 189
3 189 188 43
3 187 188 189
3 44 190 191
3 45 192 194
3 194 193 44
3 192 193 194
3 45 195 196
3 45 197 199
3 197 18 198
3 197 198 199
3 46 18 45
3 46 200 202
3 202 201 18
3 200 201 202
3 24 46 10
3 203 46 204
3 205 204 24
3 203 204 205
3 207 206 46
3 35 25 2
3 47 25 35
3 47 11 25
3 27 47 7
3 208 47 209
3 210 209 27
3 208 209 210
3 211 11 212
3 213 212 47
3 211 212 213
3 215 214 11
