ply
format ascii 1.0
element vertex 199
property float x
property float y
property float z
element face 184
property list uchar int vertex_index
end_header
-47.07209 -88.847717 -18.941364
-47.610806 -77.6539 -24.318581
-53.947174 -79.346909 -16.732754
-50.152321 -85.998672 -16.104721
-50.679985 -81.398247 -19.075371
-47.291183 -83.672485 -21.511875
-51.128731 -75.976105 -22.274342
-43.291107 -100.712555 -17.186558
-49.371262 -89.920197 -13.074297
-46.796982 -93.210663 -16.375093
-43.496815 -96.714951 -19.612328
-43.570206 -91.882935 -21.696682
-43.75388 -86.169388 -23.794907
-52.338844 -80.351471 -17.900181
-52.645798 -77.898155 -19.552074
-50.905258 -78.792053 -20.635921
-43.071022 -102.409134 -15.749834
-51.032887 -86.600235 -13.108406
-48.659538 -87.390015 -17.512241
-48.44511 -89.541061 -16.141026
-46.957977 -91.122345 -17.680016
-45.248032 -94.951096 -18.022816
-45.325981 -92.755142 -19.210308
-43.531784 -94.407593 -20.672905
-45.382095 -90.354828 -20.359074
-47.439331 -80.762245 -22.881458
-45.556087 -84.900833 -22.711308
-45.696404 -81.853531 -23.96452
-45.852413 -78.620193 -25.272873
-51.549416 -84.678452 -14.716908
-51.980835 -82.604782 -16.300243
-50.43755 -83.795654 -17.575947
-48.832497 -85.050049 -18.878941
-47.173286 -86.368134 -20.205914
-48.994518 -82.502991 -20.282757
-49.168167 -79.741943 -21.751926
-49.359192 -76.774651 -23.296913
-49.800125 -88.031158 -14.618708
-48.164154 -91.526886 -14.719032
-46.564671 -95.131897 -14.981882
-45.113365 -96.957535 -16.748829
-43.427467 -98.814316 -18.464962
-45.451515 -87.737854 -21.514847
-43.641117 -89.135513 -22.727627
-49.555695 -73.623817 -24.911022
-49.734367 -70.324631 -26.574833
-47.782143 -74.378143 -25.811497
-53.680401 -76.210224 -19.922541
-53.504609 -77.46727 -19.016378
-52.783874 -76.567166 -20.414783
-53.680401 -76.210224 -19.922541
-51.939718 -85.012764 -13.215296
-51.592806 -85.923874 -12.347402
-52.964005 -80.975845 -16.516498
-52.713496 -82.036598 -15.662601
-53.696665 -80.407661 -15.878857
-42.268641 -102.555359 -17.393982
-42.158598 -103.403649 -16.67562
-43.181064 -101.560845 -16.468196
-42.347242 -101.676254 -18.053011
-42.268641 -102.555359 -17.393982
-49.124508 -90.804482 -12.255706
-49.905899 -89.15963 -12.255131
-48.590035 -91.644799 -13.140128
-49.124508 -90.804482 -12.255706
-42.492216 -98.687005 -19.837372
-42.457542 -99.736687 -19.263689
-43.462141 -97.764634 -19.038645
-42.511362 -97.587326 -20.339365
-42.492216 -98.687005 -19.837372
-42.562677 -93.96135 -21.83918
-42.543467 -95.223679 -21.327292
-43.550995 -93.145264 -21.184793
-42.589594 -92.639336 -22.278454
-42.562677 -93.96135 -21.83918
-42.729513 -88.348953 -23.769611
-42.673132 -89.832016 -23.235971
-43.697499 -87.652451 -23.261267
-42.796312 -86.808937 -24.227217
-42.729513 -88.348953 -23.769611
-50.555763 -71.703838 -25.339025
-50.452923 -73.294025 -24.450424
-48.828651 -70.650292 -26.956657
-49.802124 -68.622024 -27.418415
-47.852539 -72.677048 -26.57499
-48.758255 -72.351387 -26.193165
-48.828651 -70.650292 -26.956657
-46.886898 -74.807842 -26.216551
-47.852539 -72.677048 -26.57499
-53.351132 -78.693928 -18.190432
-53.143009 -79.84919 -17.316468
-54.155296 -78.191647 -17.606718
-52.492321 -79.124813 -18.726128
-53.351132 -78.693928 -18.190432
-53.504609 -77.46727 -19.016378
-51.913605 -77.014115 -20.956707
-51.775528 -78.345104 -20.093998
-52.783874 -76.567166 -20.414783
-52.025341 -75.606141 -21.775917
-51.016995 -77.384079 -21.455132
-51.913605 -77.014115 -20.956707
-43.838327 -101.422371 -14.778533
-42.919975 -103.152023 -14.950795
-43.985594 -100.597138 -15.549948
-43.838327 -101.422371 -14.778533
-44.095636 -99.748848 -16.268311
-43.181064 -101.560845 -16.468196
-43.985594 -100.597138 -15.549948
-50.736711 -87.499649 -12.272185
-51.29663 -86.823288 -11.511181
-51.592806 -85.923874 -12.347402
-50.202075 -88.260216 -13.091352
-49.905899 -89.15963 -12.255131
-50.736711 -87.499649 -12.272185
-44.79571 -82.427536 -24.437008
-43.824448 -84.585465 -24.352201
-44.725142 -84.01146 -23.879714
-44.873714 -80.810867 -25.091185
-44.79571 -82.427536 -24.437008
-45.774408 -80.236862 -24.618696
-44.943037 -79.14112 -25.669632
-44.873714 -80.810867 -25.091185
-52.497786 -83.073433 -14.870934
-52.197983 -84.051873 -14.019547
-51.765125 -83.641617 -15.508575
-52.497786 -83.073433 -14.870934
-52.713496 -82.036598 -15.662601
-54.712017 -78.856834 -16.130731
-53.696665 -80.407661 -15.878857
-54.984688 -77.764046 -17.055059
-54.712017 -78.856834 -16.130731
-55.749531 -77.273972 -16.453037
-54.155296 -78.191647 -17.606718
-54.984688 -77.764046 -17.055059
-42.038956 -104.165283 -15.922844
-41.887909 -104.908173 -15.123805
-42.919975 -103.152023 -14.950795
-42.038956 -104.165283 -15.922844
-42.158598 -103.403649 -16.67562
-51.291151 -85.639343 -13.912657
-51.939718 -85.012764 -13.215296
-52.197983 -84.051873 -14.019547
-47.98648 -92.448143 -13.962495
-48.590035 -91.644799 -13.140128
-48.767708 -90.723542 -13.896664
-47.186739 -94.250648 -14.09392
-47.98648 -92.448143 -13.962495
-47.364413 -93.329391 -14.850457
-46.409965 -96.015373 -14.22513
-47.186739 -94.250648 -14.09392
-45.732418 -96.958519 -15.165973
-46.409965 -96.015373 -14.22513
-45.006766 -97.871338 -16.049446
-45.732418 -96.958519 -15.165973
-45.839018 -96.044716 -15.865355
-44.202236 -98.835045 -16.967694
-44.095636 -99.748848 -16.268311
-45.006766 -97.871338 -16.049446
-42.415422 -100.727135 -18.692213
-42.347242 -101.676254 -18.053011
-43.359287 -99.763435 -17.82576
-41.445498 -101.649506 -19.49094
-42.415422 -100.727135 -18.692213
-42.457542 -99.736687 -19.263689
-42.528847 -96.433648 -20.869653
-42.511362 -97.587326 -20.339365
-43.514299 -95.561272 -20.142617
-42.528847 -96.433648 -20.869653
-42.543467 -95.223679 -21.327292
-42.62505 -91.265625 -22.793926
-42.589594 -92.639336 -22.278454
-43.605661 -90.509224 -22.212154
-42.62505 -91.265625 -22.793926
-42.673132 -89.832016 -23.235971
-42.796312 -86.808937 -24.227217
-43.824448 -84.585465 -24.352201
-52.152619 -74.173371 -22.67775
-52.025341 -75.606141 -21.775917
-51.239441 -74.470169 -23.132084
-52.152619 -74.173371 -22.67775
-50.354671 -74.869442 -23.643369
-50.243961 -76.375378 -22.785628
-51.239441 -74.470169 -23.132084
-49.457443 -75.199234 -24.103967
-50.354671 -74.869442 -23.643369
-50.452923 -73.294025 -24.450424
-50.730097 -68.398441 -27.078076
-50.797854 -66.695835 -27.921658
-49.802124 -68.622024 -27.418415
-50.6451 -70.054245 -26.170931
-50.730097 -68.398441 -27.078076
-49.645031 -71.974224 -25.742928
-50.555763 -71.703838 -25.339025
-50.6451 -70.054245 -26.170931
-45.922033 -76.928867 -25.947239
-46.817278 -76.499168 -25.542185
-46.886898 -74.807842 -26.216551
-44.943037 -79.14112 -25.669632
-45.922033 -76.928867 -25.947239
3 47 14 48
3 50 49 14
3 51 17 52
3 0 20 18
3 0 22 20
3 0 24 22
3 1 27 25
3 1 28 27
3 2 53 55
3 53 30 54
3 53 54 55
3 4 31 13
3 4 32 31
3 4 34 32
3 6 35 15
3 6 36 35
3 7 56 58
3 58 57 16
3 56 57 58
3 7 59 60
3 8 61 62
3 8 63 64
3 3 37 29
3 9 38 19
3 9 39 38
3 9 40 39
3 10 41 21
3 10 65 67
3 67 66 41
3 65 66 67
3 10 68 69
3 11 70 72
3 72 71 23
3 70 71 72
3 11 73 74
3 5 42 33
3 12 43 26
3 12 75 77
3 77 76 43
3 75 76 77
3 12 78 79
3 80 44 81
3 82 45 83
3 84 46 85
3 86 85 45
3 84 85 86
3 88 87 46
3 89 13 90
3 91 90 2
3 89 90 91
3 14 92 94
3 92 13 93
3 92 93 94
3 14 4 13
3 14 15 4
3 95 15 96
3 97 96 14
3 95 96 97
3 98 6 99
3 100 99 15
3 98 99 100
3 101 16 102
3 103 16 104
3 105 7 106
3 107 106 16
3 105 106 107
3 17 108 110
3 108 109 110
3 17 111 113
3 111 8 112
3 111 112 113
3 18 19 3
3 20 19 18
3 20 9 19
3 20 21 9
3 22 21 20
3 22 10 21
3 22 23 10
3 24 23 22
3 24 11 23
3 25 26 5
3 27 26 25
3 27 12 26
3 27 114 116
3 116 115 12
3 114 115 116
3 28 117 119
3 119 118 27
3 117 118 119
3 28 120 121
3 122 29 123
3 30 124 126
3 124 29 125
3 124 125 126
3 30 3 29
3 13 30 2
3 31 30 13
3 31 3 30
3 31 18 3
3 32 18 31
3 32 0 18
3 32 33 0
3 34 33 32
3 34 5 33
3 15 34 4
3 35 34 15
3 35 5 34
3 35 25 5
3 36 25 35
3 36 1 25
3 127 2 128
3 129 2 130
3 129 130 131
3 133 132 2
3 16 134 136
3 134 135 136
3 138 137 16
3 29 139 141
3 139 17 140
3 139 140 141
3 37 17 29
3 37 8 17
3 19 37 3
3 38 37 19
3 38 8 37
3 38 142 144
3 144 143 8
3 142 143 144
3 39 145 147
3 147 146 38
3 145 146 147
3 39 148 149
3 39 150 151
3 40 152 154
3 154 153 39
3 152 153 154
3 40 155 157
3 155 7 156
3 155 156 157
3 21 40 9
3 41 40 21
3 41 7 40
3 41 158 160
3 160 159 7
3 158 159 160
3 163 162 41
3 161 162 163
3 23 164 166
3 166 165 10
3 164 165 166
3 168 167 23
3 33 24 0
3 42 24 33
3 42 11 24
3 26 42 5
3 43 42 26
3 43 11 42
3 43 169 171
3 171 170 11
3 169 170 171
3 173 172 43
3 175 174 12
3 176 6 177
3 178 6 179
3 180 36 181
3 182 181 6
3 180 181 182
3 44 183 185
3 183 36 184
3 183 184 185
3 44 1 36
3 45 186 188
3 186 187 188
3 45 189 190
3 45 191 193
3 191 44 192
3 191 192 193
3 46 44 45
3 46 1 44
3 46 28 1
3 194 28 195
3 196 195 46
3 194 195 196
3 198 197 28
