ply
format ascii 1.0
element vertex 311
property float x
property float y
property float z
element face 304
property list uchar int vertex_index
end_header
-37.245678 -111.40596 -7.303373
-27.066185 -116.647919 7.003837
-7.077288 -126.060013 -9.699503
-31.391481 -114.756042 -1.4566
-1.681715 -122.978607 4.881916
-9.641903 -127.439819 -0.296653
-20.306087 -123.670959 -2.616957
-5.147615 -126.222824 2.090267
-21.527126 -120.168442 7.32807
-17.795033 -123.926102 3.021054
-23.342213 -120.497604 2.388636
-25.855238 -119.505646 -2.421434
-28.892775 -116.114014 2.6725
-34.479118 -113.08139 -4.947506
-4.024357 -125.397995 -2.595488
-7.959574 -127.478043 -5.24765
-12.810726 -127.543854 -7.119911
-12.372656 -125.788925 4.532166
-14.822994 -126.506104 -1.914108
-18.207005 -125.618271 -7.934795
-23.776619 -122.083832 -7.68351
-29.276161 -117.637756 -6.558498
-24.306112 -118.514297 7.029908
-22.371172 -120.526962 4.870198
-25.148197 -118.624146 4.730924
-26.119129 -118.384705 2.418043
-27.913231 -116.526947 4.839754
-7.284554 -127.101212 0.818455
-6.446766 -127.069672 -1.617998
-8.675562 -127.655838 -2.796795
-10.291332 -127.76973 -6.304916
-11.108961 -127.708252 -3.77552
-11.448538 -124.821838 7.763455
-14.093466 -124.374817 6.720985
-18.944267 -123.983185 0.169012
-16.194172 -125.390518 0.620174
-17.546741 -125.296982 -2.381472
-16.389027 -126.255295 -5.016462
-19.138416 -124.829544 -5.260273
-20.98827 -124.014664 -7.934111
-21.91185 -123.026901 -5.261396
-28.629961 -117.15799 -2.021053
-27.455753 -118.661591 -4.610195
-30.198734 -116.301178 -4.017075
-31.93292 -115.331009 -5.777937
-32.894299 -113.940903 -3.307486
-3.270044 -124.832413 3.46559
-4.07242 -124.970963 5.817498
-6.119875 -126.125168 4.474324
-8.403444 -126.744583 3.243722
-18.746286 -121.552719 7.8909
-16.820988 -123.470261 5.878182
-19.589972 -122.165604 5.256014
-20.564964 -122.371628 2.590533
-21.713757 -122.203537 -0.058826
-23.078821 -121.70929 -2.626463
-24.489874 -120.135986 -0.064222
-27.269289 -117.871307 0.145988
-30.047836 -115.497986 0.554816
-23.541862 -117.997025 9.2788
-26.297276 -116.395355 9.124833
-30.658445 -114.301086 5.184504
-32.809406 -113.090881 1.130341
-34.114189 -112.365875 -0.77449
-36.894848 -110.905548 -4.164789
-36.013878 -112.202835 -6.320473
-5.464514 -125.961273 -6.237581
-4.463816 -125.96817 -0.287748
-5.859705 -126.677597 -3.992239
-7.447817 -126.934143 -7.571594
-9.68355 -127.432922 -8.71722
-12.135044 -127.438202 -9.62044
-14.754519 -126.951004 -10.242201
-9.801403 -125.985031 5.582063
-10.87756 -126.816605 2.171957
-15.052617 -125.086456 3.672337
-13.491259 -126.35347 1.291049
-12.17197 -127.234726 -1.215595
-13.697321 -127.231903 -4.520927
-15.466396 -126.814423 -7.665953
-17.488676 -125.994141 -10.563042
-24.688637 -120.937225 -5.036615
-26.547127 -119.922836 -7.211908
-28.629427 -118.680252 -9.08025
-31.268963 -116.440323 -8.198055
-33.75367 -114.250397 -7.237442
-37.350907 -111.437164 -8.066931
-36.408914 -112.216865 -7.805233
-6.931511 -125.475212 -10.637254
-6.13267 -125.50882 -8.997813
-1.044455 -121.852142 5.577832
-1.256614 -122.102097 6.739937
-1.514709 -122.685631 3.733714
-1.044455 -121.852142 5.577832
-2.219318 -123.684639 3.008258
-1.514709 -122.685631 3.733714
-15.041872 -123.490478 7.71122
-13.694817 -123.821556 8.228321
-3.6543 -124.170944 7.671389
-3.185706 -124.144836 6.515916
-6.754803 -125.88575 5.634088
-5.653298 -125.446617 6.300431
-7.896587 -126.195458 5.018787
-7.26166 -126.434876 3.859023
-6.754803 -125.88575 5.634088
-24.551033 -116.855683 10.231663
-23.181058 -117.52179 10.373147
-25.92874 -116.054847 10.154679
-24.919569 -117.19619 9.201816
-24.551033 -116.855683 10.231663
-31.567658 -113.391487 6.453642
-30.226702 -114.461402 6.213909
-33.593229 -112.235748 2.443011
-32.231687 -113.425315 2.130898
-35.43474 -111.191185 -0.403927
-34.816105 -111.532791 0.524588
-34.812672 -111.997093 -1.660686
-35.43474 -111.191185 -0.403927
-38.041305 -109.819748 -3.827919
-37.454363 -110.131447 -2.982984
-37.501128 -110.575401 -4.902175
-38.041305 -109.819748 -3.827919
-3.891002 -124.974312 -3.685891
-3.249675 -124.541687 -1.85756
-4.744435 -125.679634 -4.416535
-4.61108 -125.255951 -5.506937
-3.891002 -124.974312 -3.685891
-19.246241 -125.115356 -9.259151
-18.887076 -125.303292 -10.573274
-17.847841 -125.806206 -9.248919
-23.438009 -122.47818 -9.002295
-22.043834 -123.443596 -9.127596
-22.382444 -123.049248 -7.80881
-24.834526 -121.472451 -8.74486
-23.438009 -122.47818 -9.002295
-3.390639 -124.894333 -0.730444
-3.249675 -124.541687 -1.85756
-12.372353 -124.045066 8.749555
-11.078487 -124.153633 9.362818
-12.771002 -124.598327 7.24222
-12.372353 -124.045066 8.749555
-13.694817 -123.821556 8.228321
-7.980225 -125.872505 -11.288811
-8.155066 -126.393143 -10.315313
-1.990354 -123.148658 6.048125
-1.256614 -122.102097 6.739937
-2.784518 -124.075561 5.339962
-2.47588 -123.90551 4.173753
-1.990354 -123.148658 6.048125
-3.671232 -124.901688 4.641544
-2.784518 -124.075561 5.339962
-3.185706 -124.144836 6.515916
-4.62957 -124.869515 6.972017
-3.6543 -124.170944 7.671389
-5.096148 -125.548066 5.145911
-4.62957 -124.869515 6.972017
-5.653298 -125.446617 6.300431
-17.783637 -122.51149 6.884541
-16.405633 -123.0382 7.289818
-17.368282 -122.07943 8.296177
-18.375413 -121.040077 9.182484
-17.368282 -122.07943 8.296177
-19.757322 -120.47155 8.811854
-18.375413 -121.040077 9.182484
-21.147742 -119.779412 8.530439
-20.136706 -120.86058 7.609485
-19.757322 -120.47155 8.811854
-22.15511 -118.693703 9.505804
-23.181058 -117.52179 10.373147
-22.534494 -119.082733 8.303435
-21.147742 -119.779412 8.530439
-22.15511 -118.693703 9.505804
-6.931511 -125.475212 -10.637254
-7.980225 -125.872505 -11.288811
-38.094366 -110.594093 -7.232204
-37.676542 -110.825607 -6.471467
-27.279419 -115.310707 10.180142
-25.92874 -116.054847 10.154679
-27.655327 -115.50959 9.196542
-27.279419 -115.310707 10.180142
-28.039782 -115.635872 8.136043
-26.681731 -116.521637 8.064335
-27.655327 -115.50959 9.196542
-28.430571 -115.634819 7.123575
-28.039782 -115.635872 8.136043
-28.854095 -115.574333 6.041534
-27.489708 -116.587433 5.921795
-28.430571 -115.634819 7.123575
-29.285838 -115.414017 5.012129
-28.854095 -115.574333 6.041534
-30.226702 -114.461402 6.213909
-32.012202 -113.152229 5.459258
-31.567658 -113.391487 6.453642
-31.156207 -114.030418 4.157979
-32.012202 -113.152229 5.459258
-30.273372 -114.936882 2.901978
-29.77561 -115.20755 3.928502
-31.156207 -114.030418 4.157979
-30.850903 -114.628868 1.843135
-29.470306 -115.806 1.613658
-30.273372 -114.936882 2.901978
-31.428621 -114.294433 0.842579
-30.850903 -114.628868 1.843135
-32.231687 -113.425315 2.130898
-34.163714 -111.895294 1.477003
-33.593229 -112.235748 2.443011
-33.461798 -112.728378 0.177926
-34.163714 -111.895294 1.477003
-34.816105 -111.532791 0.524588
-34.202726 -112.784607 -2.927183
-33.504244 -113.153389 -2.040988
-34.812672 -111.997093 -1.660686
-34.995136 -112.35485 -3.747193
-33.686708 -113.511146 -4.127496
-34.202726 -112.784607 -2.927183
-36.203001 -111.26693 -3.355835
-37.454363 -110.131447 -2.982984
-35.686983 -111.993469 -4.556147
-34.995136 -112.35485 -3.747193
-36.203001 -111.26693 -3.355835
-37.060643 -111.224045 -5.980017
-36.454363 -111.554192 -5.242631
-37.501128 -110.575401 -4.902175
-37.676542 -110.825607 -6.471467
-36.629778 -111.804397 -6.811923
-37.060643 -111.224045 -5.980017
-5.326284 -125.45945 -7.266851
-4.61108 -125.255951 -5.506937
-6.270901 -126.010643 -7.968542
-6.13267 -125.50882 -8.997813
-5.326284 -125.45945 -7.266851
-3.013483 -124.611542 2.300095
-2.219318 -123.684639 3.008258
-2.47588 -123.90551 4.173753
-3.610369 -125.17942 0.423426
-3.013483 -124.611542 2.300095
-3.86693 -125.400292 1.588921
-4.244086 -125.683082 -1.441618
-3.390639 -124.894333 -0.730444
-3.610369 -125.17942 0.423426
-8.34033 -126.830208 -9.251358
-8.155066 -126.393143 -10.315313
-7.262552 -126.497078 -8.635549
-9.458196 -127.079598 -9.824171
-8.34033 -126.830208 -9.251358
-8.565684 -127.183533 -8.144407
-10.654701 -127.181778 -10.32426
-9.458196 -127.079598 -9.824171
-11.880448 -127.184418 -10.77587
-10.654701 -127.181778 -10.32426
-10.909297 -127.435562 -9.16883
-13.174707 -127.051247 -11.134909
-11.880448 -127.184418 -10.77587
-14.484445 -126.807648 -11.44579
-13.174707 -127.051247 -11.134909
-13.444782 -127.194603 -9.93132
-15.850505 -126.444451 -11.647063
-14.484445 -126.807648 -11.44579
-10.19147 -124.795066 8.370344
-11.078487 -124.153633 9.362818
-9.367902 -125.376663 7.279648
-10.19147 -124.795066 8.370344
-10.62497 -125.403435 6.672759
-8.595567 -125.815682 6.187957
-9.367902 -125.376663 7.279648
-9.102424 -126.364807 4.412892
-7.896587 -126.195458 5.018787
-8.595567 -125.815682 6.187957
-15.457227 -123.922539 6.299583
-15.041872 -123.490478 7.71122
-16.405633 -123.0382 7.289818
-17.217584 -125.966019 -11.807483
-15.850505 -126.444451 -11.647063
-16.121598 -126.472572 -10.402621
-18.627386 -125.388321 -11.845019
-17.217584 -125.966019 -11.807483
-18.627386 -125.388321 -11.845019
-18.887076 -125.303292 -10.573274
-20.636874 -124.313553 -9.258809
-19.246241 -125.115356 -9.259151
-19.597637 -124.816467 -7.934453
-20.636874 -124.313553 -9.258809
-22.043834 -123.443596 -9.127596
-26.21978 -120.391953 -8.509059
-24.834526 -121.472451 -8.74486
-25.161873 -121.003334 -7.447709
-27.26093 -119.77066 -9.44323
-26.21978 -120.391953 -8.509059
-27.588277 -119.301544 -8.146079
-28.427802 -119.020263 -10.322266
-27.26093 -119.77066 -9.44323
-29.757676 -117.939552 -9.830171
-28.427802 -119.020263 -10.322266
-31.077444 -116.819588 -9.389074
-29.757676 -117.939552 -9.830171
-29.949195 -117.560288 -8.639152
-32.319105 -115.741669 -8.830521
-31.077444 -116.819588 -9.389074
-33.561459 -114.646706 -8.350214
-32.319105 -115.741669 -8.830521
-32.511316 -115.34536 -7.717748
-34.66291 -113.639084 -7.772267
-33.561459 -114.646706 -8.350214
-35.793014 -112.615303 -7.313783
-34.66291 -113.639084 -7.772267
-34.883774 -113.226616 -6.778957
-36.629778 -111.804397 -6.811923
-36.408914 -112.216865 -7.805233
-35.793014 -112.615303 -7.313783
-37.350907 -111.437164 -8.066931
-38.094366 -110.594093 -7.232204
3 0 86 87
3 1 24 22
3 1 26 24
3 2 88 89
3 4 90 91
3 4 92 93
3 4 94 95
3 5 29 27
3 5 31 29
3 96 33 97
3 6 36 34
3 6 38 36
3 6 40 38
3 3 43 41
3 3 45 43
3 98 47 99
3 100 48 101
3 102 49 103
3 104 103 48
3 102 103 104
3 8 52 50
3 10 53 23
3 10 54 53
3 10 56 54
3 12 57 25
3 12 58 57
3 105 59 106
3 107 60 108
3 109 108 59
3 107 108 109
3 110 61 111
3 112 62 113
3 114 63 115
3 117 116 63
3 118 64 119
3 121 120 64
3 14 122 123
3 14 124 126
3 124 66 125
3 124 125 126
3 7 67 46
3 15 68 28
3 15 69 68
3 15 70 69
3 16 71 30
3 16 72 71
3 17 73 32
3 17 74 73
3 9 75 51
3 18 76 35
3 18 77 76
3 18 78 77
3 19 79 37
3 19 80 79
3 19 127 129
3 129 128 80
3 127 128 129
3 20 130 132
3 132 131 39
3 130 131 132
3 20 133 134
3 11 81 55
3 21 82 42
3 21 83 82
3 21 84 83
3 13 85 44
3 13 65 85
3 22 23 8
3 24 23 22
3 24 10 23
3 24 25 10
3 26 25 24
3 26 12 25
3 135 14 136
3 27 28 7
3 29 28 27
3 29 15 28
3 29 30 15
3 31 30 29
3 31 16 30
3 137 32 138
3 33 139 141
3 139 32 140
3 139 140 141
3 33 17 32
3 34 35 9
3 36 35 34
3 36 18 35
3 36 37 18
3 38 37 36
3 38 19 37
3 38 39 19
3 40 39 38
3 40 20 39
3 41 42 11
3 43 42 41
3 43 21 42
3 43 44 21
3 45 44 43
3 45 13 44
3 143 142 2
3 144 4 145
3 146 46 147
3 148 147 4
3 146 147 148
3 47 149 151
3 149 46 150
3 149 150 151
3 47 7 46
3 152 47 153
3 48 154 156
3 154 47 155
3 154 155 156
3 48 7 47
3 48 27 7
3 49 27 48
3 49 5 27
3 50 157 159
3 157 51 158
3 157 158 159
3 52 51 50
3 52 9 51
3 23 52 8
3 53 52 23
3 53 9 52
3 53 34 9
3 54 34 53
3 54 6 34
3 54 55 6
3 56 55 54
3 56 11 55
3 25 56 10
3 57 56 25
3 57 11 56
3 57 41 11
3 58 41 57
3 58 3 41
3 160 50 161
3 162 50 163
3 164 8 165
3 166 165 50
3 164 165 166
3 59 167 168
3 59 169 171
3 169 8 170
3 169 170 171
3 59 22 8
3 60 22 59
3 60 1 22
3 173 172 2
3 175 174 0
3 176 60 177
3 178 60 179
3 180 1 181
3 182 181 60
3 180 181 182
3 183 1 184
3 185 26 186
3 187 186 1
3 185 186 187
3 61 188 190
3 188 26 189
3 188 189 190
3 61 12 26
3 191 61 192
3 193 61 194
3 195 12 196
3 197 196 61
3 195 196 197
3 198 58 199
3 200 199 12
3 198 199 200
3 62 201 203
3 201 58 202
3 201 202 203
3 62 3 58
3 204 62 205
3 63 206 208
3 206 62 207
3 206 207 208
3 63 3 62
3 63 45 3
3 209 45 210
3 211 210 63
3 209 210 211
3 212 13 213
3 214 213 45
3 212 213 214
3 64 215 216
3 64 217 219
3 217 13 218
3 217 218 219
3 64 65 13
3 220 65 221
3 222 221 64
3 220 221 222
3 223 0 224
3 225 224 65
3 223 224 225
3 66 226 227
3 66 228 230
3 228 2 229
3 228 229 230
3 46 231 233
3 233 232 4
3 231 232 233
3 67 234 236
3 236 235 46
3 234 235 236
3 67 237 239
3 237 14 238
3 237 238 239
3 28 67 7
3 68 67 28
3 68 14 67
3 68 66 14
3 69 66 68
3 69 2 66
3 69 240 242
3 242 241 2
3 240 241 242
3 70 243 245
3 245 244 69
3 243 244 245
3 70 246 247
3 30 70 15
3 71 70 30
3 71 248 250
3 250 249 70
3 248 249 250
3 71 251 252
3 72 253 255
3 255 254 71
3 253 254 255
3 72 256 257
3 32 258 259
3 73 260 262
3 262 261 32
3 260 261 262
3 73 263 264
3 73 265 267
3 265 49 266
3 265 266 267
3 74 49 73
3 74 5 49
3 51 268 270
3 268 33 269
3 268 269 270
3 75 33 51
3 75 17 33
3 35 75 9
3 76 75 35
3 76 17 75
3 76 74 17
3 77 74 76
3 77 5 74
3 77 31 5
3 78 31 77
3 78 16 31
3 37 78 18
3 79 78 37
3 79 16 78
3 79 72 16
3 80 72 79
3 80 271 273
3 273 272 72
3 271 272 273
3 80 274 275
3 277 276 80
3 39 278 280
3 280 279 19
3 278 279 280
3 282 281 39
3 55 40 6
3 81 40 55
3 81 20 40
3 42 81 11
3 82 81 42
3 82 20 81
3 82 283 285
3 285 284 20
3 283 284 285
3 83 286 288
3 288 287 82
3 286 287 288
3 83 289 290
3 83 291 292
3 84 293 295
3 295 294 83
3 293 294 295
3 84 296 297
3 44 84 21
3 85 84 44
3 85 298 300
3 300 299 84
3 298 299 300
3 85 301 302
3 65 303 305
3 305 304 85
3 303 304 305
3 65 306 308
3 306 0 307
3 306 307 308
3 310 309 0
