ply
format ascii 1.0
element vertex 114
property float x
property float y
property float z
element face 95
property list uchar int vertex_index
end_header
-0.05378 48.812092 49.262585
0.154806 56.73666 47.317196
0.174728 50.795872 54.427067
0.120089 43.052589 56.087883
-0.133617 62.141613 39.700516
0.013277 54.544575 53.381039
0.083525 47.668758 57.778152
0.098154 52.803707 48.347733
-0.04031 55.578014 44.685501
-0.206072 51.566982 45.69976
0.144884 40.052948 59.344875
0.093485 60.545231 46.159126
0.094063 57.611439 49.845924
0.199713 53.822437 50.93951
0.179657 49.921192 51.895493
0.054972 45.971241 52.725636
0.203566 46.945423 55.326229
0.173243 43.881165 58.638206
0.09409 40.723553 61.825825
0.041145 59.51836 43.566498
-0.229372 58.220997 40.915676
-0.241826 48.17738 47.94026
-0.317972 49.554825 46.158848
-0.129926 50.189537 47.481172
-0.164076 46.814854 49.667141
-0.241826 48.17738 47.94026
0.086591 38.138937 59.621944
0.139499 38.506361 60.91445
-0.09992 57.867885 51.011324
-0.030033 59.414867 49.223897
0.052841 44.162497 59.815
0.128384 45.774962 58.208179
0.007982 46.056293 59.384974
0.013264 42.583691 61.40881
0.133666 42.302359 60.232016
0.052841 44.162497 59.815
-0.244198 63.359991 37.719744
-0.135369 64.028402 39.043084
-0.294795 61.423221 38.375782
-0.244198 63.359991 37.719744
-0.313047 56.219173 41.477507
-0.134841 56.899506 42.800589
-0.218517 54.897682 43.362419
-0.421872 57.479122 39.601688
-0.313047 56.219173 41.477507
-0.013429 42.538656 54.763508
-0.045988 43.997982 53.082385
0.08753 44.511915 54.406759
-0.254378 54.721516 54.47933
-0.140313 56.334454 52.778881
-0.065721 52.953343 55.070738
-0.254378 54.721516 54.47933
0.015004 51.078991 55.593752
0.094003 52.670224 53.904053
-0.065721 52.953343 55.070738
-0.030597 49.515434 57.269295
0.129127 49.232315 56.102609
0.015004 51.078991 55.593752
-0.144277 47.871173 58.881622
-0.030597 49.515434 57.269295
0.007982 46.056293 59.384974
-0.144277 47.871173 58.881622
-0.060128 62.731903 41.016464
-0.135369 64.028402 39.043084
-0.301397 52.892166 43.869549
-0.218517 54.897682 43.362419
-0.123191 53.572498 45.19263
-0.407738 50.877243 44.388647
-0.301397 52.892166 43.869549
-0.407738 50.877243 44.388647
-0.317972 49.554825 46.158848
0.048873 39.608604 58.031486
0.036476 41.108425 56.402991
0.132487 41.552768 57.716379
0.048873 39.608604 58.031486
0.086591 38.138937 59.621944
-0.030322 60.881764 47.380499
-0.006813 62.351969 45.510086
0.093774 59.078335 48.002525
-0.030322 60.881764 47.380499
-0.030033 59.414867 49.223897
0.05367 56.078007 51.613481
-0.09992 57.867885 51.011324
-0.140313 56.334454 52.778881
0.114102 38.841664 62.154924
0.139499 38.506361 60.91445
0.119487 40.38825 60.58535
0.053423 61.933712 44.24577
-0.006813 62.351969 45.510086
0.027253 61.420276 42.949455
0.053423 61.933712 44.24577
0.067315 60.031796 44.862812
-0.046236 60.829987 41.633507
-0.060128 62.731903 41.016464
0.027253 61.420276 42.949455
-0.342672 59.462913 38.983362
-0.294795 61.423221 38.375782
-0.181495 60.181305 40.308096
-0.342672 59.462913 38.983362
-0.421872 57.479122 39.601688
-0.1097 45.394429 51.398667
-0.164076 46.814854 49.667141
0.000596 47.391666 50.994111
-0.1097 45.394429 51.398667
-0.045988 43.997982 53.082385
-0.097043 40.594492 55.078615
-0.013429 42.538656 54.763508
0.036476 41.108425 56.402991
-0.088668 40.920018 62.944445
0.013264 42.583691 61.40881
0.032939 39.092371 63.350572
-0.088668 40.920018 62.944445
0.114102 38.841664 62.154924
0.032939 39.092371 63.350572
3 0 9 7
3 0 21 23
3 23 22 9
3 21 22 23
3 0 24 25
3 27 26 10
3 28 12 29
3 2 13 5
3 2 14 13
3 2 16 14
3 30 17 31
3 32 31 6
3 30 31 32
3 33 18 34
3 35 34 17
3 33 34 35
3 4 36 37
3 4 38 39
3 1 19 11
3 40 20 41
3 42 41 8
3 40 41 42
3 44 43 20
3 3 45 47
3 47 46 15
3 45 46 47
3 48 5 49
3 50 5 51
3 52 2 53
3 54 53 5
3 52 53 54
3 55 6 56
3 57 56 2
3 55 56 57
3 58 6 59
3 61 60 6
3 62 4 63
3 7 8 1
3 9 8 7
3 9 64 66
3 66 65 8
3 64 65 66
3 9 67 68
3 70 69 9
3 10 71 73
3 73 72 3
3 71 72 73
3 75 74 10
3 76 11 77
3 12 78 80
3 78 11 79
3 78 79 80
3 12 1 11
3 5 81 83
3 81 12 82
3 81 82 83
3 13 12 5
3 13 1 12
3 13 7 1
3 14 7 13
3 14 0 7
3 14 15 0
3 16 15 14
3 16 3 15
3 6 16 2
3 17 16 6
3 17 3 16
3 17 10 3
3 18 10 17
3 18 84 86
3 86 85 10
3 84 85 86
3 11 87 88
3 19 89 91
3 91 90 11
3 89 90 91
3 19 92 94
3 92 4 93
3 92 93 94
3 8 19 1
3 20 19 8
3 20 4 19
3 20 95 97
3 97 96 4
3 95 96 97
3 99 98 20
3 15 100 102
3 102 101 0
3 100 101 102
3 104 103 15
3 107 106 3
3 105 106 107
3 108 18 109
3 110 18 111
3 113 112 18
