ply
format ascii 1.0
element vertex 141
property float x
property float y
property float z
element face 122
property list uchar int vertex_index
end_header
-23.257025 14.230045 -31.034496
-22.611906 27.397896 -30.774288
-15.135777 26.896774 -30.7178
-22.422962 20.85392 -30.815266
-18.885017 27.212807 -30.97123
-19.161568 19.924156 -30.259544
-15.920045 18.72686 -29.394154
-22.733452 17.528381 -30.850945
-24.593597 15.049988 -31.531296
-25.105936 12.056717 -32.117374
-15.22392 30.744602 -31.251774
-17.219223 30.724606 -31.242661
-16.997711 27.085049 -30.890198
-18.865627 23.620037 -30.640057
-17.106842 23.287769 -30.384701
-14.324534 17.956581 -28.929661
-18.255863 15.392353 -29.410831
-22.370289 24.159046 -30.824947
-24.017689 21.262032 -30.908119
-20.76947 27.311047 -30.940319
-20.629236 23.903687 -30.79504
-20.796963 20.411083 -30.590214
-21.24086 16.878876 -30.442013
-13.314793 26.607376 -30.478474
-13.66526 22.346867 -29.686333
-15.370673 22.875774 -30.055779
-17.53307 19.372307 -29.850235
-19.746387 16.173317 -29.952374
-21.921206 13.357803 -30.457161
-23.490043 27.438005 -30.608781
-22.891891 28.963482 -30.675037
-19.06127 28.938975 -31.054859
-18.228372 30.694874 -31.190575
-18.05212 28.968707 -31.106945
-19.827244 27.261927 -30.955774
-20.003496 28.988094 -31.039404
-19.06127 28.938975 -31.054859
-12.42774 26.390017 -30.34103
-12.35119 28.551016 -30.761843
-20.166118 14.298513 -29.888478
-19.001125 15.782835 -29.681603
-19.420856 13.90803 -29.617706
-21.253528 12.890756 -30.140871
-20.833796 14.76556 -30.204767
-20.166118 14.298513 -29.888478
-23.473402 17.830216 -31.002026
-23.318157 19.492985 -30.984186
-22.578207 19.19115 -30.833106
-24.403475 16.591019 -31.342202
-23.473402 17.830216 -31.002026
-23.663525 16.289185 -31.191121
-25.261035 15.433466 -31.726567
-24.403475 16.591019 -31.342202
-25.439668 14.052969 -32.121062
-25.261035 15.433466 -31.726567
-25.695838 12.556334 -32.414101
-25.439668 14.052969 -32.121062
-24.849767 13.553353 -31.824335
-25.896974 11.243116 -32.921268
-25.695838 12.556334 -32.414101
-16.221571 30.734604 -31.247217
-16.42909 32.558256 -31.39342
-15.431438 32.568255 -31.397976
-14.804475 15.732326 -28.623804
-13.535149 17.495018 -28.713606
-15.547071 16.234234 -28.89106
-14.804475 15.732326 -28.623804
-16.344826 16.619373 -29.123306
-15.12229 18.341721 -29.161907
-15.547071 16.234234 -28.89106
-17.512736 14.95212 -29.131645
-17.087954 17.059607 -29.402493
-16.344826 16.619373 -29.123306
-18.751318 13.401984 -29.288708
-17.512736 14.95212 -29.131645
-19.420856 13.90803 -29.617706
-18.751318 13.401984 -29.288708
-14.387093 32.644419 -31.459626
-15.431438 32.568255 -31.397976
-14.250093 30.714379 -31.215607
-14.387093 32.644419 -31.459626
-14.206021 28.790464 -30.94862
-15.179848 28.820688 -30.984787
-14.250093 30.714379 -31.215607
-23.213048 24.276212 -30.763638
-23.333857 25.895637 -30.738308
-22.491098 25.778471 -30.799618
-24.036748 22.827706 -30.805224
-23.213048 24.276212 -30.763638
-23.193989 22.710539 -30.866533
-24.787966 21.446938 -30.873755
-24.036748 22.827706 -30.805224
-24.115521 19.697041 -31.030613
-23.220326 21.057976 -30.861693
-23.318157 19.492985 -30.984186
-24.842622 19.97509 -31.114442
-24.115521 19.697041 -31.030613
-24.787966 21.446938 -30.873755
-24.842622 19.97509 -31.114442
-21.925424 28.996415 -30.849268
-22.891891 28.963482 -30.675037
-17.498383 32.452822 -31.292212
-16.42909 32.558256 -31.39342
-17.498383 32.452822 -31.292212
-18.228372 30.694874 -31.190575
-21.004205 28.95299 -30.932283
-20.003496 28.988094 -31.039404
-21.690688 27.354471 -30.857304
-21.925424 28.996415 -30.849268
-21.004205 28.95299 -30.932283
-23.490043 27.438005 -30.608781
-23.333857 25.895637 -30.738308
-13.29553 28.645765 -30.828957
-12.35119 28.551016 -30.761843
-14.225285 26.752075 -30.598137
-14.206021 28.790464 -30.94862
-13.29553 28.645765 -30.828957
-13.158615 19.810356 -29.12216
-13.535149 17.495018 -28.713606
-12.828978 22.005499 -29.500496
-13.158615 19.810356 -29.12216
-13.994897 20.151724 -29.307997
-12.602974 24.259762 -29.94496
-12.828978 22.005499 -29.500496
-13.490026 24.477121 -30.082403
-12.42774 26.390017 -30.34103
-12.602974 24.259762 -29.94496
-22.356526 11.628388 -30.583813
-21.253528 12.890756 -30.140871
-22.932707 12.180982 -30.950004
-22.356526 11.628388 -30.583813
-23.600617 12.617103 -31.238672
-22.589115 13.793924 -30.745829
-22.932707 12.180982 -30.950004
-24.525072 11.530439 -31.780111
-24.18148 13.143381 -31.575935
-23.600617 12.617103 -31.238672
-25.402264 10.619881 -32.533117
-24.525072 11.530439 -31.780111
-25.896974 11.243116 -32.921268
-25.402264 10.619881 -32.533117
3 0 8 7
3 0 9 8
3 2 12 10
3 2 14 12
3 1 29 30
3 3 18 17
3 4 31 33
3 33 32 11
3 31 32 33
3 4 34 36
3 34 19 35
3 34 35 36
3 4 20 19
3 5 21 13
3 5 22 21
3 37 23 38
3 6 24 15
3 6 25 24
3 6 26 25
3 39 27 40
3 41 40 16
3 39 40 41
3 42 28 43
3 44 43 27
3 42 43 44
3 7 45 47
3 47 46 3
3 45 46 47
3 8 48 50
3 50 49 7
3 48 49 50
3 8 51 52
3 8 53 54
3 9 55 57
3 57 56 8
3 55 56 57
3 9 58 59
3 10 60 62
3 60 11 61
3 60 61 62
3 12 11 10
3 12 4 11
3 12 13 4
3 14 13 12
3 14 5 13
3 63 15 64
3 65 15 66
3 67 6 68
3 69 68 15
3 67 68 69
3 70 16 71
3 72 71 6
3 70 71 72
3 73 16 74
3 76 75 16
3 77 10 78
3 79 10 80
3 81 2 82
3 83 82 10
3 81 82 83
3 17 84 86
3 86 85 1
3 84 85 86
3 18 87 89
3 89 88 17
3 87 88 89
3 18 90 91
3 92 18 93
3 94 93 3
3 92 93 94
3 95 18 96
3 98 97 18
3 99 1 100
3 11 101 102
3 104 103 11
3 19 105 106
3 19 107 109
3 107 1 108
3 107 108 109
3 19 17 1
3 20 17 19
3 20 3 17
3 13 20 4
3 21 20 13
3 21 3 20
3 21 7 3
3 22 7 21
3 22 0 7
3 111 110 1
3 23 112 113
3 23 114 116
3 114 2 115
3 114 115 116
3 15 117 118
3 24 119 121
3 121 120 15
3 119 120 121
3 24 122 123
3 24 124 126
3 124 23 125
3 124 125 126
3 25 23 24
3 25 2 23
3 25 14 2
3 26 14 25
3 26 5 14
3 16 26 6
3 27 26 16
3 27 5 26
3 27 22 5
3 28 22 27
3 28 0 22
3 127 28 128
3 129 28 130
3 131 0 132
3 133 132 28
3 131 132 133
3 134 9 135
3 136 135 0
3 134 135 136
3 137 9 138
3 140 139 9
