ply
format ascii 1.0
element vertex 639
property float x
property float y
property float z
element face 664
property list uchar int vertex_index
end_header
38.113705 22.738529 5.855444
51.511284 17.427155 7.569449
61.373314 10.775881 10.800816
40.666019 45.65435 -10.237114
44.387497 35.317173 4.070744
43.972466 20.809525 8.364885
51.978668 31.279736 6.164499
46.326263 46.416252 -4.081184
38.21384 36.627705 -0.42765
36.338005 26.27586 -16.636595
57.57933 13.828037 7.335328
36.391624 40.342949 -16.410173
35.952534 33.097992 -7.83791
36.417244 20.926556 -1.394264
48.848511 39.67392 2.597615
48.258934 33.439392 5.249997
45.197739 41.351707 0.482942
37.31966 14.611977 4.793999
38.611416 14.669212 7.729095
47.73888 19.175411 8.167545
51.310772 10.171793 8.971285
59.661469 12.151119 8.559456
58.034004 7.389765 8.507599
60.879627 6.290035 9.590255
63.466705 5.534107 11.566449
38.3894 43.452721 -13.332739
36.206745 37.328918 -12.015253
37.409538 40.105328 -8.43996
37.87495 30.183357 3.217834
36.365322 29.44997 -0.09824
36.687099 22.371334 2.761727
37.07827 13.653709 0.75845
40.529278 29.737328 5.437211
40.636677 22.113564 7.698039
44.021858 28.385693 6.568343
47.904968 26.536652 6.902242
62.939209 9.775532 13.828311
43.308098 46.664734 -7.123913
39.2514 41.787048 -5.059521
41.88026 42.174446 -2.042601
40.888275 36.515949 2.247145
34.954346 29.883949 -19.646624
40.904266 14.000488 9.444124
55.01091 29.03587 7.163147
54.875549 15.630539 7.116493
54.850883 8.73764 8.390144
34.655254 36.612198 -19.550478
35.426826 33.796955 -15.731264
35.961433 29.880692 -12.10582
36.497414 24.760235 -8.935184
36.60025 35.454918 -3.875713
36.001148 27.546677 -4.253658
37.106358 18.634254 -6.284161
37.526772 18.778027 5.523236
37.833096 14.747147 6.410876
38.351685 18.757645 6.869
49.651768 18.308979 7.885608
47.673733 15.393154 8.875329
49.565636 14.609943 8.53363
51.424423 13.811142 8.156948
60.545948 11.417034 9.563999
60.289871 9.217936 8.918695
61.405067 8.648443 9.881994
62.203789 5.869175 10.480048
62.465233 8.173056 11.061829
42.603634 48.036148 -11.284437
41.26543 47.211983 -12.789064
39.963089 46.108566 -14.251642
39.487564 44.687225 -11.789904
37.922569 41.921745 -10.886477
38.87109 43.039871 -9.24328
37.94025 26.563145 4.650766
37.053055 26.438499 3.188004
37.252884 22.691307 4.458613
36.983269 18.552204 3.871736
42.315304 32.70253 4.823069
42.197281 29.149708 6.126059
44.153069 31.950272 5.440697
50.171326 32.376564 5.715784
48.051796 30.059696 6.170893
45.405853 48.749802 -8.154474
44.776409 46.689201 -5.588024
42.571983 44.555401 -4.52323
44.100632 44.4193 -3.07531
44.736992 38.457039 2.419588
42.946419 39.100285 1.408722
42.56004 36.029572 3.258709
40.634415 33.252743 3.978616
35.675732 28.214886 -18.105574
42.225594 21.522961 8.163486
40.77042 18.095119 8.609745
42.300621 17.533833 9.02692
56.116951 27.882214 7.766338
56.222366 18.055904 6.997033
56.314667 14.724247 7.114382
54.873562 12.188038 7.599166
56.41106 11.382809 7.559142
58.216763 4.191509 9.552036
56.534737 4.718222 9.403024
37.453766 43.223118 -17.096224
36.255558 41.516193 -18.51174
35.486851 38.540943 -17.966852
35.093971 35.326012 -17.641764
35.681747 37.212917 -15.914225
36.056816 35.381397 -9.869726
35.829659 33.762295 -11.846388
35.895714 31.570412 -9.940203
36.222023 27.465477 -10.456001
36.002636 29.055214 -8.166969
38.652527 39.377411 -2.637449
37.683041 38.826424 -4.301439
37.272606 36.202106 -2.069788
36.182487 25.314804 -0.544006
36.053226 28.632404 -2.092106
36.168018 24.345341 -2.732492
36.386402 23.154457 -5.078419
36.661045 19.859722 -3.768175
37.435951 15.318039 -5.144032
36.977585 16.40876 -2.60845
37.442104 9.902306 1.584244
37.672153 9.259663 -0.723122
46.618999 37.621227 3.293017
46.308849 34.435253 4.718769
48.527782 36.650112 4.069952
50.396217 35.594662 4.797118
52.156197 34.493114 5.518784
45.744511 43.999031 -1.706253
47.461498 43.342373 -0.407927
47.010834 40.59161 1.577129
37.433975 10.35268 3.684016
45.827618 20.015995 8.347946
43.991768 16.874969 9.179853
45.798904 16.153137 9.111584
58.684982 12.962315 7.81319
57.815964 10.604387 7.750852
59.101498 9.875347 8.202601
59.49316 6.799688 8.926099
59.841038 3.734936 9.923486
61.409821 3.359318 10.513569
62.919273 3.065536 11.305058
38.692314 44.765362 -15.682013
37.359638 41.991447 -14.869551
36.344604 38.966904 -14.218803
37.087048 40.55014 -12.545088
36.742836 38.83424 -10.210089
36.416782 36.794899 -7.943682
37.957024 33.552315 1.528563
37.034595 33.23962 -0.06735
36.968624 29.970654 1.684984
36.469086 26.020683 1.44405
36.414951 21.776798 0.797022
36.728706 17.345051 -0.232969
36.721935 18.070786 1.940898
37.071606 14.246887 2.899754
39.114792 26.409325 5.809049
39.252293 22.53389 6.934885
40.542702 26.009583 6.659462
42.178757 25.409229 7.21805
43.97142 24.659275 7.517926
46.086327 31.051891 5.872793
45.944412 27.498875 6.809005
45.866295 23.808922 7.605517
47.807259 22.898998 7.536097
49.73629 21.957848 7.370046
51.5942 21.000549 7.170314
62.16806 10.232065 12.234786
41.937088 46.320045 -8.678194
39.953663 43.866688 -7.624088
41.185925 44.375103 -6.044538
40.466827 42.144897 -3.49416
39.864265 39.597546 -1.118652
43.470146 41.896835 -0.717514
41.306171 39.495571 0.232679
39.426121 36.72702 1.017891
39.1665 33.549305 2.882276
39.072872 30.096317 4.471662
39.442169 18.51738 7.896645
39.642525 14.408043 8.739037
55.079903 32.223915 7.073769
53.323997 20.031551 7.000626
54.877365 19.049984 6.923466
53.266235 16.533577 7.289663
53.205112 13.001572 7.820581
53.119698 9.452902 8.623346
56.489471 8.042934 8.336325
63.4758 7.785063 12.422529
64.655289 5.269108 12.819647
33.912708 34.5784 -21.167391
34.584827 33.341431 -19.411821
35.154549 31.864033 -17.658812
35.657249 30.120125 -15.955477
35.774353 35.634365 -13.853598
35.703884 31.989605 -13.87261
36.116825 28.092197 -14.335466
36.546768 25.776745 -12.817923
36.953773 23.187576 -11.40967
38.237041 41.100727 -6.716383
36.946754 37.956253 -6.080111
36.172867 34.408283 -5.809036
36.404236 32.609398 -1.873465
36.047665 31.678196 -3.850132
35.929008 30.478352 -5.958437
36.165169 26.236771 -6.544268
36.79221 21.800232 -7.545771
37.32029 12.857479 -1.593992
60.959631 11.096457 10.182408
60.389398 12.396711 10.190243
60.803082 12.076135 10.808651
50.981943 30.147616 6.27727
50.078272 30.69603 6.052912
51.074997 31.82815 5.940142
51.89991 29.613029 6.373845
50.981943 30.147616 6.27727
46.596019 47.528473 -5.31501
47.335983 47.336876 -4.505528
45.551336 46.552726 -4.834604
45.821092 47.664947 -6.06843
46.596019 47.528473 -5.31501
36.472191 25.391695 -17.827258
36.141054 26.361208 -18.561747
36.006868 27.245373 -17.371085
56.506935 27.287487 8.114667
56.466276 28.865108 8.319968
56.119093 26.264727 7.608944
56.506935 27.287487 8.114667
57.464388 15.441824 7.303252
57.926097 14.946006 7.558408
56.946998 14.276142 7.224855
56.832056 15.889929 7.192779
57.464388 15.441824 7.303252
57.380036 2.807974 10.117869
58.288214 2.605896 10.178038
37.730969 7.784677 0.791478
37.622095 8.020062 1.913849
51.365167 36.58213 4.688173
50.520782 37.123493 4.191033
52.245157 36.031357 5.049005
51.276207 35.043888 5.157951
51.365167 36.58213 4.688173
48.499994 44.248152 -0.778801
47.69467 44.614702 -1.506548
47.929673 40.132765 2.087372
48.104481 41.54838 1.209477
49.023319 41.089535 1.71972
37.490679 12.605144 5.170496
37.547836 10.475496 4.615504
37.376818 12.482328 4.239008
38.373095 12.658396 7.438404
37.983935 12.697363 6.779295
38.222256 14.708179 7.069985
38.733382 12.596075 8.098278
38.373095 12.658396 7.438404
46.711384 13.822473 9.411416
47.628614 13.485758 9.291635
50.300717 8.661264 9.668029
50.381586 10.527281 9.164929
51.231407 8.351281 9.489012
50.300717 8.661264 9.668029
59.345061 13.627275 8.552473
59.663279 13.175438 9.061112
59.173226 12.556717 8.186323
58.856817 14.032874 8.179339
59.345061 13.627275 8.552473
63.910168 4.188769 11.921428
63.636451 2.954483 11.790733
63.192989 4.299822 11.435754
50.714861 23.235521 7.124306
49.789249 23.746159 7.138077
51.643816 22.756872 7.024439
50.665245 21.479198 7.27018
50.714861 23.235521 7.124306
43.645617 47.608483 -8.430454
44.694494 48.651016 -8.945735
44.356976 47.707268 -7.639194
42.622593 46.49239 -7.901053
42.960111 47.436138 -9.207595
43.645617 47.608483 -8.430454
34.889094 28.894617 -20.67358
34.558113 30.588579 -20.438841
40.360508 12.127617 9.470327
39.729637 12.331394 9.117783
40.273395 14.204265 9.09158
43.179406 15.179626 9.520091
43.993599 14.883895 9.597504
55.045406 30.629892 7.118458
55.59956 31.639612 7.507233
55.565064 30.045589 7.551922
54.312144 29.600725 6.8999
54.34664 31.194748 6.855211
55.045406 30.629892 7.118458
54.252544 27.949787 6.980549
54.312144 29.600725 6.8999
54.110603 21.232301 6.974647
53.360408 21.755806 6.937962
53.922477 7.322723 9.035359
53.056885 7.680354 9.15196
53.985291 9.095271 8.506745
55.663715 5.007699 9.431138
55.61508 3.302369 10.071499
65.198116 5.15754 13.517131
64.540738 6.366249 13.374807
65.169029 3.970372 13.114343
65.198116 5.15754 13.517131
34.353355 37.153614 -20.47325
34.884556 38.140444 -19.74655
34.283981 35.595299 -20.358934
33.982082 36.136715 -21.281706
34.353355 37.153614 -20.47325
36.919491 22.557915 -9.522089
37.147671 21.771586 -10.759332
36.725594 23.973906 -10.172427
37.409716 17.979784 -7.596749
37.252642 19.562773 -8.227555
36.949284 20.217243 -6.914966
37.588334 16.391958 -7.043171
37.409716 17.979784 -7.596749
37.924496 13.101669 -5.96164
37.604721 13.613599 -4.631653
37.89052 8.862354 -1.965102
38.052506 7.151788 -1.567408
49.74693 39.163123 3.091282
49.871147 40.608153 2.336434
49.871147 40.608153 2.336434
49.023319 41.089535 1.71972
48.574566 13.094152 9.120786
47.628614 13.485758 9.291635
48.619684 15.001548 8.70448
49.509018 12.746356 8.946101
48.574566 13.094152 9.120786
50.438412 12.346955 8.75776
49.509018 12.746356 8.946101
50.49503 14.210542 8.345289
51.367598 11.991467 8.564117
50.381586 10.527281 9.164929
50.438412 12.346955 8.75776
60.105519 12.808395 9.563384
60.389398 12.396711 10.190243
60.103708 11.784076 9.061727
59.663279 13.175438 9.061112
60.105519 12.808395 9.563384
42.826614 48.815906 -12.515245
43.536646 49.160518 -11.76444
42.157512 48.403824 -13.267558
42.826614 48.815906 -12.515245
41.934532 47.624066 -12.036751
41.439602 47.913635 -13.978357
42.157512 48.403824 -13.267558
40.61426 46.660274 -13.520353
40.788431 47.361927 -14.709646
41.439602 47.913635 -13.978357
49.018507 29.537596 6.280467
49.111561 31.21813 5.943339
50.078272 30.69603 6.052912
48.945093 27.776074 6.646141
47.978382 28.298174 6.536568
49.018507 29.537596 6.280467
48.873588 26.035561 6.904175
48.945093 27.776074 6.646141
46.135814 48.695248 -7.351655
46.335518 49.738045 -8.577519
45.091131 47.719501 -6.871249
46.135814 48.695248 -7.351655
45.821092 47.664947 -6.06843
35.71217 27.275963 -19.218643
35.351477 28.110495 -19.989168
35.315039 29.049418 -18.876099
35.71217 27.275963 -19.218643
36.141054 26.361208 -18.561747
56.118084 29.468761 7.853518
56.466276 28.865108 8.319968
55.56393 28.459042 7.464742
55.565064 30.045589 7.551922
56.118084 29.468761 7.853518
55.530236 26.824402 7.420951
54.977215 27.40123 7.119356
55.56393 28.459042 7.464742
55.530236 26.824402 7.420951
56.119093 26.264727 7.608944
56.785905 17.555757 7.134104
56.686893 19.168652 7.254601
56.268517 16.390076 7.055708
56.785905 17.555757 7.134104
56.832056 15.889929 7.192779
56.539023 3.07133 10.043363
57.37575 4.454866 9.47753
57.380036 2.807974 10.117869
55.61508 3.302369 10.071499
56.539023 3.07133 10.043363
63.682698 8.619461 13.87914
63.308719 9.577861 14.687092
37.357107 43.768007 -18.119065
38.08083 44.578363 -17.46838
36.758003 42.914545 -18.826822
37.357107 43.768007 -18.119065
36.854662 42.369656 -17.803982
36.049822 42.030651 -19.480818
36.758003 42.914545 -18.826822
35.684708 40.592441 -19.22718
36.049822 42.030651 -19.480818
35.300354 39.104816 -18.954736
35.684708 40.592441 -19.22718
35.871205 40.028568 -18.239296
35.071053 37.576571 -18.758665
34.884556 38.140444 -19.74655
35.300354 39.104816 -18.954736
37.375538 14.15896 -3.363862
37.604721 13.613599 -4.631653
37.206768 15.863399 -3.876241
37.845993 7.463356 -0.362205
37.557129 9.580984 0.430561
37.730969 7.784677 0.791478
38.052506 7.151788 -1.567408
37.845993 7.463356 -0.362205
49.586565 37.651218 3.82745
48.688147 38.162016 3.333784
49.74693 39.163123 3.091282
49.462 36.122387 4.433535
49.586565 37.651218 3.82745
50.520782 37.123493 4.191033
47.127052 46.151642 -3.343177
47.335983 47.336876 -4.505528
46.836176 44.943032 -2.155711
46.035387 45.207642 -2.893719
47.127052 46.151642 -3.343177
46.603004 43.670702 -1.05709
46.836176 44.943032 -2.155711
47.69467 44.614702 -1.506548
48.329813 42.923761 0.216949
48.499994 44.248152 -0.778801
47.236166 41.966992 0.584601
48.329813 42.923761 0.216949
48.104481 41.54838 1.209477
36.865089 24.348933 -17.203707
36.641618 25.171444 -15.945451
37.610036 8.393614 3.992417
37.618031 8.245248 2.963735
37.610036 8.393614 3.992417
37.547836 10.475496 4.615504
37.747396 12.672729 5.978934
37.490679 12.605144 5.170496
37.576378 14.679562 5.602438
37.747396 12.672729 5.978934
37.983935 12.697363 6.779295
44.897167 14.522979 9.563369
43.993599 14.883895 9.597504
44.895336 16.514053 9.145719
45.773969 14.202465 9.529543
46.736318 15.773146 8.993457
46.711384 13.822473 9.411416
44.897167 14.522979 9.563369
45.773969 14.202465 9.529543
58.478924 14.513146 7.797339
58.856817 14.032874 8.179339
58.132156 13.395176 7.574259
57.926097 14.946006 7.558408
58.478924 14.513146 7.797339
59.100352 2.37761 10.363763
58.288214 2.605896 10.178038
59.0289 3.963222 9.737761
59.990045 2.210815 10.519848
59.100352 2.37761 10.363763
60.774437 2.023007 10.814889
59.990045 2.210815 10.519848
60.625429 3.547127 10.218528
61.641132 1.893777 11.066408
60.774437 2.023007 10.814889
62.395859 1.746886 11.462152
61.641132 1.893777 11.066408
62.164547 3.212427 10.909313
63.230464 1.652739 11.804501
62.395859 1.746886 11.462152
63.230464 1.652739 11.804501
63.636451 2.954483 11.790733
40.063541 46.744506 -15.388065
40.788431 47.361927 -14.709646
39.428154 46.072904 -16.103251
40.063541 46.744506 -15.388065
39.327702 45.436964 -14.966828
38.700103 45.349486 -16.761274
39.428154 46.072904 -16.103251
38.07304 43.99424 -16.389118
38.08083 44.578363 -17.46838
38.700103 45.349486 -16.761274
37.618031 8.245248 2.963735
37.622095 8.020062 1.913849
37.43804 10.127493 2.63413
48.824734 24.216734 7.221102
47.856113 24.717825 7.219169
48.873588 26.035561 6.904175
48.771774 22.428423 7.453072
48.824734 24.216734 7.221102
49.789249 23.746159 7.138077
61.074428 11.712388 11.53954
60.803082 12.076135 10.808651
61.471801 11.44048 12.256525
61.770687 10.503973 11.517801
61.074428 11.712388 11.53954
61.745333 11.12615 13.074234
61.471801 11.44048 12.256525
62.130907 10.897883 13.870997
62.553635 10.003799 13.031548
61.745333 11.12615 13.074234
62.412377 10.626464 14.757533
62.130907 10.897883 13.870997
63.308719 9.577861 14.687092
62.412377 10.626464 14.757533
45.640421 49.705731 -9.407173
46.335518 49.738045 -8.577519
45.640421 49.705731 -9.407173
44.694494 48.651016 -8.945735
43.293385 48.29419 -10.510717
43.536646 49.160518 -11.76444
42.270361 47.178096 -9.981316
43.293385 48.29419 -10.510717
42.960111 47.436138 -9.207595
34.889094 28.894617 -20.67358
35.351477 28.110495 -19.989168
36.472191 25.391695 -17.827258
36.865089 24.348933 -17.203707
39.248936 12.46549 8.60325
38.733382 12.596075 8.098278
39.12697 14.538628 8.234066
39.248936 12.46549 8.60325
39.729637 12.331394 9.117783
42.333832 15.509058 9.443624
43.146195 17.204401 9.103386
43.179406 15.179626 9.520091
41.635655 13.742386 9.652226
41.602443 15.767161 9.235522
42.333832 15.509058 9.443624
40.953884 11.93803 9.839753
41.635655 13.742386 9.652226
40.360508 12.127617 9.470327
40.953884 11.93803 9.839753
53.001835 35.473136 5.565391
52.245157 36.031357 5.049005
52.947824 33.930338 5.894439
53.001835 35.473136 5.565391
52.85906 32.323649 6.217296
52.067432 32.886425 5.841641
52.947824 33.930338 5.894439
55.586132 33.185949 7.461276
55.59956 31.639612 7.507233
55.099955 33.768869 6.88735
55.586132 33.185949 7.461276
54.409678 32.795738 6.671932
55.099955 33.768869 6.88735
54.409678 32.795738 6.671932
54.34664 31.194748 6.855211
52.796022 30.722659 6.400576
52.85906 32.323649 6.217296
51.89991 29.613029 6.373845
52.796022 30.722659 6.400576
54.252544 27.949787 6.980549
54.977215 27.40123 7.119356
52.49551 22.240305 7.022806
51.643816 22.756872 7.024439
52.459098 20.51605 7.08547
52.49551 22.240305 7.022806
53.360408 21.755806 6.937962
56.188446 19.711588 7.071909
56.686893 19.168652 7.254601
55.515946 20.208627 7.035126
56.188446 19.711588 7.071909
55.549865 18.552944 6.960249
54.887287 20.741518 6.936067
55.515946 20.208627 7.035126
54.100681 19.540768 6.962046
54.110603 21.232301 6.974647
54.887287 20.741518 6.936067
52.13587 7.991836 9.315043
51.231407 8.351281 9.489012
52.215235 9.812347 8.797315
52.13587 7.991836 9.315043
53.056885 7.680354 9.15196
55.641082 6.670055 8.897788
56.512104 6.380578 8.869675
55.663715 5.007699 9.431138
54.821788 7.017408 8.924698
55.670177 8.390287 8.363235
55.641082 6.670055 8.897788
53.922477 7.322723 9.035359
54.821788 7.017408 8.924698
63.950993 7.624227 13.176248
63.207504 8.780297 13.12542
63.682698 8.619461 13.87914
64.065545 6.527086 12.621088
63.950993 7.624227 13.176248
64.540738 6.366249 13.374807
64.504459 4.056269 12.548027
63.910168 4.188769 11.921428
64.060997 5.401607 12.193048
64.504459 4.056269 12.548027
65.169029 3.970372 13.114343
33.503564 35.09108 -22.018961
33.982082 36.136715 -21.281706
33.594538 33.518885 -21.992328
33.503564 35.09108 -22.018961
34.037294 32.935805 -21.199224
33.594538 33.518885 -21.992328
34.373353 32.31732 -20.32144
34.037294 32.935805 -21.199224
34.248767 33.959916 -20.289606
34.769587 31.61269 -19.529222
34.558113 30.588579 -20.438841
34.373353 32.31732 -20.32144
36.531028 26.079612 -14.794887
36.641618 25.171444 -15.945451
36.227415 27.184029 -15.486031
36.746 24.921886 -14.036115
36.531028 26.079612 -14.794887
36.331796 26.934471 -13.576695
37.022293 23.68923 -13.38971
36.746 24.921886 -14.036115
37.225796 22.394645 -12.685584
37.022293 23.68923 -13.38971
36.75027 24.48216 -12.113796
37.475225 21.047417 -12.081395
37.225796 22.394645 -12.685584
37.475225 21.047417 -12.081395
37.147671 21.771586 -10.759332
37.066889 21.077914 -8.827383
36.919491 22.557915 -9.522089
36.644812 23.280234 -8.240478
37.066889 21.077914 -8.827383
37.252642 19.562773 -8.227555
37.75313 14.73385 -6.473107
37.588334 16.391958 -7.043171
37.271155 16.976146 -5.714097
37.75313 14.73385 -6.473107
37.924496 13.101669 -5.96164
37.546891 12.383319 -2.856633
37.375538 14.15896 -3.363862
37.148938 14.633119 -2.101221
37.714589 10.661262 -2.400537
37.496222 11.058571 -1.158557
37.89052 8.862354 -1.965102
37.546891 12.383319 -2.856633
37.714589 10.661262 -2.400537
3 0 55 53
3 1 58 56
3 1 59 58
3 2 205 207
3 205 60 206
3 205 206 207
3 2 62 60
3 2 64 62
3 3 66 65
3 3 68 66
3 3 70 68
3 0 73 71
3 0 53 73
3 4 77 75
3 6 208 210
3 210 209 78
3 208 209 210
3 6 211 212
3 7 213 214
3 7 215 217
3 215 81 216
3 215 216 217
3 7 83 81
3 4 86 84
3 4 75 86
3 9 218 220
3 220 219 88
3 218 219 220
3 5 91 89
3 221 92 222
3 224 223 92
3 10 225 226
3 10 227 229
3 227 94 228
3 227 228 229
3 10 96 94
3 231 230 97
3 11 100 99
3 11 101 100
3 11 103 101
3 12 106 104
3 12 108 106
3 8 111 109
3 13 114 112
3 13 116 114
3 13 118 116
3 233 232 119
3 14 123 121
3 234 124 235
3 236 125 237
3 238 237 124
3 236 237 238
3 239 127 240
3 14 241 243
3 241 128 242
3 241 242 243
3 14 121 128
3 17 244 246
3 246 245 129
3 244 245 246
3 18 247 249
3 249 248 54
3 247 248 249
3 18 250 251
3 19 132 130
3 253 252 57
3 20 254 255
3 20 256 257
3 21 258 259
3 21 260 262
3 260 133 261
3 260 261 262
3 21 135 133
3 23 136 61
3 23 137 136
3 23 138 137
3 24 139 63
3 24 263 265
3 265 264 139
3 263 264 265
3 25 140 67
3 25 141 140
3 25 143 141
3 27 144 69
3 27 145 144
3 28 148 146
3 30 149 72
3 30 150 149
3 30 152 150
3 17 153 74
3 17 129 153
3 32 156 154
3 34 157 76
3 34 158 157
3 15 159 122
3 35 160 79
3 35 161 160
3 35 162 161
3 266 163 267
3 268 164 269
3 270 269 163
3 268 269 270
3 37 271 273
3 273 272 80
3 271 272 273
3 37 274 276
3 274 166 275
3 274 275 276
3 37 168 166
3 39 169 82
3 39 170 169
3 16 171 126
3 40 172 85
3 40 173 172
3 40 174 173
3 32 175 87
3 32 154 175
3 41 277 278
3 33 176 155
3 42 177 90
3 42 279 281
3 281 280 177
3 279 280 281
3 283 282 131
3 43 284 286
3 284 178 285
3 284 285 286
3 43 287 289
3 289 288 178
3 287 288 289
3 43 290 291
3 292 179 293
3 44 180 93
3 44 181 180
3 44 182 181
3 45 183 95
3 45 294 296
3 296 295 183
3 294 295 296
3 22 184 134
3 298 297 98
3 36 185 165
3 299 186 300
3 302 301 186
3 46 303 304
3 46 305 307
3 305 187 306
3 305 306 307
3 46 188 187
3 47 189 102
3 47 190 189
3 26 191 142
3 48 192 105
3 48 193 192
3 48 194 193
3 49 195 107
3 49 308 310
3 310 309 195
3 308 309 310
3 38 196 167
3 50 197 110
3 50 198 197
3 29 199 147
3 51 200 113
3 51 201 200
3 51 202 201
3 52 203 115
3 52 311 313
3 313 312 203
3 311 312 313
3 52 314 315
3 317 316 117
3 31 204 151
3 319 318 120
3 321 320 14
3 322 14 323
3 53 54 17
3 55 54 53
3 55 18 54
3 56 57 19
3 58 57 56
3 58 324 326
3 326 325 57
3 324 325 326
3 58 327 328
3 59 329 331
3 331 330 58
3 329 330 331
3 59 332 334
3 332 20 333
3 332 333 334
3 60 335 336
3 60 337 339
3 337 21 338
3 337 338 339
3 60 61 21
3 62 61 60
3 62 23 61
3 62 63 23
3 64 63 62
3 64 24 63
3 65 340 341
3 66 342 344
3 344 343 65
3 342 343 344
3 66 345 346
3 66 347 349
3 347 67 348
3 347 348 349
3 68 67 66
3 68 25 67
3 68 69 25
3 70 69 68
3 70 27 69
3 71 72 28
3 73 72 71
3 73 30 72
3 73 74 30
3 53 74 73
3 53 17 74
3 75 76 32
3 77 76 75
3 77 34 76
3 78 79 15
3 350 79 351
3 352 351 78
3 350 351 352
3 353 35 354
3 355 354 79
3 353 354 355
3 357 356 35
3 358 80 359
3 81 360 362
3 360 80 361
3 360 361 362
3 81 37 80
3 81 82 37
3 83 82 81
3 83 39 82
3 84 85 16
3 86 85 84
3 86 40 85
3 86 87 40
3 75 87 86
3 75 32 87
3 88 363 365
3 365 364 41
3 363 364 365
3 367 366 88
3 89 90 33
3 91 90 89
3 91 42 90
3 92 368 369
3 92 370 372
3 370 43 371
3 370 371 372
3 92 373 375
3 375 374 43
3 373 374 375
3 377 376 92
3 378 93 379
3 94 380 382
3 380 93 381
3 380 381 382
3 94 44 93
3 94 95 44
3 96 95 94
3 96 45 95
3 97 98 22
3 383 98 384
3 385 384 97
3 383 384 385
3 387 386 98
3 389 388 36
3 99 390 391
3 100 392 394
3 394 393 99
3 392 393 394
3 100 395 396
3 100 397 398
3 101 399 401
3 401 400 100
3 399 400 401
3 101 402 404
3 402 46 403
3 402 403 404
3 101 102 46
3 103 102 101
3 103 47 102
3 104 105 26
3 106 105 104
3 106 48 105
3 106 107 48
3 108 107 106
3 108 49 107
3 109 110 38
3 111 110 109
3 111 50 110
3 112 113 29
3 114 113 112
3 114 51 113
3 114 115 51
3 116 115 114
3 116 52 115
3 116 117 52
3 118 117 116
3 118 405 407
3 407 406 117
3 405 406 407
3 119 120 31
3 408 120 409
3 410 409 119
3 408 409 410
3 412 411 120
3 121 122 4
3 123 122 121
3 123 15 122
3 413 123 414
3 415 414 14
3 413 414 415
3 124 416 418
3 416 123 417
3 416 417 418
3 124 15 123
3 124 78 15
3 125 78 124
3 125 6 78
3 419 7 420
3 421 126 422
3 423 422 7
3 421 422 423
3 127 424 426
3 424 126 425
3 424 425 426
3 127 16 126
3 427 127 428
3 128 429 431
3 429 127 430
3 429 430 431
3 128 16 127
3 128 84 16
3 121 84 128
3 121 4 84
3 433 432 9
3 129 434 435
3 437 436 129
3 54 438 440
3 440 439 17
3 438 439 440
3 442 441 54
3 130 131 5
3 132 131 130
3 132 443 445
3 445 444 131
3 443 444 445
3 57 132 19
3 446 132 447
3 448 447 57
3 446 447 448
3 450 449 132
3 133 451 452
3 133 453 455
3 453 10 454
3 453 454 455
3 133 134 10
3 135 134 133
3 135 22 134
3 61 135 21
3 136 135 61
3 136 22 135
3 136 97 22
3 137 97 136
3 137 456 458
3 458 457 97
3 456 457 458
3 137 459 460
3 138 461 463
3 463 462 137
3 461 462 463
3 138 464 465
3 63 138 23
3 139 138 63
3 139 466 468
3 468 467 138
3 466 467 468
3 139 469 470
3 472 471 139
3 67 473 474
3 140 475 477
3 477 476 67
3 475 476 477
3 140 478 479
3 140 480 482
3 480 99 481
3 480 481 482
3 141 99 140
3 141 11 99
3 141 142 11
3 143 142 141
3 143 26 142
3 69 143 25
3 144 143 69
3 144 26 143
3 144 104 26
3 145 104 144
3 145 12 104
3 146 147 8
3 148 147 146
3 148 29 147
3 72 148 28
3 149 148 72
3 149 29 148
3 149 112 29
3 150 112 149
3 150 13 112
3 150 151 13
3 152 151 150
3 152 31 151
3 74 152 30
3 153 152 74
3 153 31 152
3 153 119 31
3 129 119 153
3 129 483 485
3 485 484 119
3 483 484 485
3 154 155 0
3 156 155 154
3 156 33 155
3 76 156 32
3 157 156 76
3 157 33 156
3 157 89 33
3 158 89 157
3 158 5 89
3 122 77 4
3 159 77 122
3 159 34 77
3 79 159 15
3 160 159 79
3 160 34 159
3 160 158 34
3 161 158 160
3 161 5 158
3 161 130 5
3 162 130 161
3 162 19 130
3 486 162 487
3 488 487 35
3 486 487 488
3 163 489 491
3 489 162 490
3 489 490 491
3 163 19 162
3 163 56 19
3 164 56 163
3 164 1 56
3 492 2 493
3 494 165 495
3 496 495 2
3 494 495 496
3 497 165 498
3 499 36 500
3 501 500 165
3 499 500 501
3 502 36 503
3 505 504 36
3 80 506 507
3 509 508 80
3 510 65 511
3 166 512 514
3 512 65 513
3 512 513 514
3 166 3 65
3 166 167 3
3 168 167 166
3 168 38 167
3 82 168 37
3 169 168 82
3 169 38 168
3 169 109 38
3 170 109 169
3 170 8 109
3 126 83 7
3 171 83 126
3 171 39 83
3 85 171 16
3 172 171 85
3 172 39 171
3 172 170 39
3 173 170 172
3 173 8 170
3 173 146 8
3 174 146 173
3 174 28 146
3 87 174 40
3 175 174 87
3 175 28 174
3 175 71 28
3 154 71 175
3 154 0 71
3 516 515 41
3 518 517 9
3 155 55 0
3 176 55 155
3 176 18 55
3 90 176 33
3 177 176 90
3 177 18 176
3 177 519 521
3 521 520 18
3 519 520 521
3 523 522 177
3 131 91 5
3 524 91 525
3 526 525 131
3 524 525 526
3 527 42 528
3 529 528 91
3 527 528 529
3 530 42 531
3 533 532 42
3 534 125 535
3 536 125 537
3 538 6 539
3 540 539 125
3 538 539 540
3 178 541 542
3 178 543 544
3 178 545 546
3 548 547 178
3 549 6 550
3 552 551 6
3 554 553 43
3 555 164 556
3 179 557 559
3 557 164 558
3 557 558 559
3 179 1 164
3 93 560 561
3 180 562 564
3 564 563 93
3 562 563 564
3 180 565 566
3 180 567 569
3 567 179 568
3 567 568 569
3 181 179 180
3 181 1 179
3 181 59 1
3 182 59 181
3 182 20 59
3 95 182 44
3 183 182 95
3 183 20 182
3 183 570 572
3 572 571 20
3 570 571 572
3 574 573 183
3 134 96 10
3 184 96 134
3 184 45 96
3 98 184 22
3 575 184 576
3 577 576 98
3 575 576 577
3 578 45 579
3 580 579 184
3 578 579 580
3 582 581 45
3 165 64 2
3 185 64 165
3 185 24 64
3 583 185 584
3 585 584 36
3 583 584 585
3 186 586 588
3 586 185 587
3 586 587 588
3 186 24 185
3 186 589 591
3 591 590 24
3 589 590 591
3 593 592 186
3 187 594 595
3 187 596 597
3 187 598 599
3 188 600 602
3 602 601 187
3 600 601 602
3 188 603 605
3 603 41 604
3 603 604 605
3 102 188 46
3 189 188 102
3 189 41 188
3 189 88 41
3 190 88 189
3 190 9 88
3 142 103 11
3 191 103 142
3 191 47 103
3 105 191 26
3 192 191 105
3 192 47 191
3 192 190 47
3 193 190 192
3 193 9 190
3 193 606 608
3 608 607 9
3 606 607 608
3 194 609 611
3 611 610 193
3 609 610 611
3 194 612 613
3 107 194 48
3 195 194 107
3 195 614 616
3 616 615 194
3 614 615 616
3 195 617 618
3 620 619 195
3 167 70 3
3 196 70 167
3 196 27 70
3 110 196 38
3 197 196 110
3 197 27 196
3 197 145 27
3 198 145 197
3 198 12 145
3 147 111 8
3 199 111 147
3 199 50 111
3 113 199 29
3 200 199 113
3 200 50 199
3 200 198 50
3 201 198 200
3 201 12 198
3 201 108 12
3 202 108 201
3 202 49 108
3 115 202 51
3 203 202 115
3 203 49 202
3 203 621 623
3 623 622 49
3 621 622 623
3 625 624 203
3 117 626 628
3 628 627 52
3 626 627 628
3 630 629 117
3 151 118 13
3 204 118 151
3 204 631 633
3 633 632 118
3 631 632 633
3 120 204 31
3 634 204 635
3 636 635 120
3 634 635 636
3 638 637 204
