ply
format ascii 1.0
element vertex 523
property float x
property float y
property float z
element face 525
property list uchar int vertex_index
end_header
2.434093 40.630913 36.859573
0.287195 54.229294 14.779689
-2.920248 40.487057 22.250427
1.485544 47.925331 27.065704
-0.696503 57.159447 1.810526
2.077692 38.902412 46.063957
2.384222 51.405785 35.716843
2.691233 60.673286 23.156269
2.266714 69.300064 -3.830549
1.41721 37.992821 35.159859
0.487524 41.364658 29.968483
2.069286 44.058056 32.571877
-1.441568 47.585472 18.319355
-0.244209 56.180031 8.330876
-3.164606 22.548519 35.385902
1.263414 37.677639 51.908089
1.299309 45.057373 47.096252
1.808317 57.815788 35.454044
2.54048 56.449348 29.637058
2.183002 62.874031 28.887966
-2.580011 30.254181 31.770861
-0.492823 44.721798 24.300434
0.870848 51.417725 21.060843
2.553354 39.920372 40.810493
2.62731 45.397018 36.231544
2.218548 45.553452 41.219334
1.497065 51.841637 41.571232
2.507483 50.139954 30.824898
2.30562 54.325829 24.79949
2.093412 57.816711 18.423006
2.585194 67.015938 22.029894
2.82373 64.064804 16.445505
1.872847 60.498238 11.856041
1.220146 63.187943 -1.407177
0.693953 63.343933 -7.872835
2.539818 75.582596 -5.655176
1.521601 69.690842 -10.332071
2.066063 39.479671 36.067913
1.754442 41.069252 33.738106
2.298969 42.179382 34.976437
2.308657 38.317753 38.227436
1.810558 36.543282 37.561516
-0.588524 50.963318 16.484455
-1.88933 48.746414 15.242553
-0.94953 52.094185 13.34024
-1.284464 52.998787 10.155321
0.013485 55.321281 11.570832
0.826887 40.838604 52.683884
1.989946 60.461494 32.217461
-2.174643 33.999641 29.869562
0.990978 44.674843 28.439642
-0.003511 43.082428 27.182476
0.585905 46.448486 25.574833
0.183834 48.113045 22.614086
1.176294 49.742287 24.107464
-3.505934 36.78392 24.276482
-0.886398 57.287056 -1.435526
2.383131 39.438622 43.337795
2.459421 42.622295 41.039772
2.140734 42.322803 43.724182
1.380184 48.539558 44.415836
2.037279 35.320629 48.236816
2.307301 36.039909 45.493301
2.453812 36.760677 42.887341
2.56027 48.323059 35.94429
2.584917 47.832626 33.626678
2.577557 50.884789 33.132088
2.616333 58.664848 26.435268
2.573288 55.480705 27.082943
2.563524 57.501419 23.903858
2.199242 56.166115 21.643198
2.551949 59.326485 20.654377
2.864244 65.445404 13.0475
2.510454 62.361969 14.01796
2.46501 63.559578 10.661252
1.746716 61.507965 8.536106
2.531881 68.899757 -0.50868
1.863707 66.217049 -2.711138
0.976227 63.343643 -4.665852
1.569513 66.418785 -5.97578
3.005337 81.137314 -3.755377
2.873995 78.199692 -3.042456
2.609043 78.659286 -6.439999
1.671864 72.916611 -11.342014
1.077841 69.719994 -13.499788
0.822411 66.45089 -12.339199
0.004059 37.969429 31.633476
0.967831 39.636753 32.634373
1.387182 42.851292 31.176252
1.789 46.0093 29.903934
-2.228003 44.091564 20.252853
-0.481997 56.793694 5.07225
1.685608 38.315956 48.934769
1.719116 41.920467 46.595215
1.26016 41.425499 49.598061
0.831142 44.612198 50.220215
1.686142 34.592754 51.08699
2.122238 54.584854 35.555584
2.463554 54.028786 32.738937
2.257896 57.230965 32.43927
2.399332 59.656036 29.217279
2.544468 61.860199 25.910717
-3.633238 27.848259 30.978634
-3.282721 31.685764 29.062735
-2.842665 35.453487 27.103035
-2.308542 39.141033 25.138
-1.124487 41.23872 26.094208
-1.681803 42.737606 23.205526
-0.973789 46.23455 21.341606
-0.209023 49.628006 19.579136
0.573729 52.921318 17.946762
-2.908113 26.434895 33.623661
2.562574 40.332699 38.572224
2.577297 42.734825 36.5564
2.617897 42.78833 38.614655
2.521286 45.57756 38.581291
2.301838 48.581322 38.548622
1.78607 45.373207 44.077675
1.880636 48.646484 41.391006
1.994972 51.721024 38.545586
1.642189 54.939362 38.57819
2.452288 37.50079 40.455223
2.485762 44.916103 34.230209
2.330635 47.066841 31.618816
2.140802 49.155556 28.806721
2.579599 53.272285 30.168293
2.410574 52.310966 27.869816
1.93593 51.137459 25.852264
1.728184 52.97673 22.794424
1.523623 54.64669 19.659843
1.323967 56.126617 16.467333
1.936798 66.075897 28.619385
2.38341 65.056602 25.485489
2.689939 63.846313 22.54002
2.829378 65.618317 19.124384
2.762529 62.473618 19.820377
2.536304 60.948898 17.353708
1.986214 59.264641 15.155945
1.128433 57.398941 13.231035
0.935217 58.448448 9.963038
0.7423 59.263725 6.675525
0.547623 59.840309 3.382384
0.348906 60.184105 0.09984
0.143326 60.313416 -3.154217
-0.072615 60.2584 -6.362234
-0.30279 60.057213 -9.509426
2.833191 75.118065 -2.288031
2.464699 72.43544 -4.798346
2.176672 75.905258 -8.978754
2.095911 72.737968 -8.094917
1.925476 69.556152 -7.107002
1.218561 66.48764 -9.187387
0.375572 63.223938 -11.017952
-3.538871 39.22534 21.821769
-3.831714 37.373772 22.834797
-3.213091 38.635489 23.263455
-1.367423 55.686439 1.143516
-1.266973 55.611699 2.759067
-0.791451 57.223252 0.1875
-1.462371 55.750244 -0.479511
-1.367423 55.686439 1.143516
2.86721 66.029991 11.344005
2.953997 66.989746 12.63721
2.667593 65.087078 10.150882
2.664627 64.502491 11.854376
2.86721 66.029991 11.344005
2.426767 64.048839 8.979012
2.667593 65.087078 10.150882
2.905722 81.342003 -5.467797
3.181057 82.467656 -4.100736
2.707575 80.102989 -6.810107
2.80719 79.8983 -5.097688
2.905722 81.342003 -5.467797
0.85194 69.683716 -15.049923
1.152378 71.347092 -14.015286
0.738938 68.023426 -14.462188
0.85194 69.683716 -15.049923
1.192521 38.814787 33.897116
0.762685 37.975309 33.446829
0.987375 37.153343 34.709572
1.24841 36.365763 35.974469
1.445083 35.640994 37.175297
1.613884 37.268051 36.360687
0.987375 37.153343 34.709572
1.24841 36.365763 35.974469
-2.09859 46.428082 17.78131
-2.491808 44.681128 18.748059
-1.834786 45.838518 19.286104
-2.570543 47.497558 14.711996
-2.097809 49.219456 13.680269
-0.913955 54.919556 7.635383
-1.434082 53.328934 8.547605
-0.764336 54.589409 9.243099
-0.363103 56.486863 6.701563
-1.032849 55.226388 6.00607
-0.913955 54.919556 7.635383
-3.259949 20.573957 36.202511
-2.795973 21.797725 36.637184
0.637771 44.324105 51.80703
0.829014 42.725401 51.45205
0.635643 42.437308 53.038865
0.646626 46.221085 50.50306
0.637771 44.324105 51.80703
1.474778 36.135196 51.49754
1.494565 34.219688 52.550872
1.283201 35.76213 52.961422
-2.265705 36.558453 27.533155
-2.508654 34.726564 28.486298
-1.931694 35.83153 28.916419
-1.998644 38.402226 26.550638
-2.575604 37.29726 26.120517
-2.265705 36.558453 27.533155
-0.03652 40.498636 29.438274
-0.278252 38.801021 30.27077
0.245791 39.667043 30.80098
-2.744062 28.344538 32.697261
-2.392021 27.582972 34.019739
-2.22797 29.492615 33.093339
1.829917 67.647628 28.496592
1.696575 66.468204 30.257171
2.484302 66.03627 23.757691
2.2822 66.643878 25.306534
2.383092 67.623547 23.578736
2.826554 64.84156 17.784945
2.890804 66.399098 17.402905
2.88798 65.622341 16.063466
1.171374 60.776363 5.942374
1.244508 60.385845 7.605816
1.673582 61.898483 6.872664
1.074036 61.064655 4.295803
0.644961 59.552017 5.028955
1.171374 60.776363 5.942374
1.323527 63.016212 0.241238
1.658275 64.520291 -0.40495
0.784526 61.686024 -0.653668
0.887907 61.514294 0.994746
1.323527 63.016212 0.241238
1.977183 75.996216 -10.615008
2.235124 77.431984 -9.384944
0.201724 63.119243 -12.556041
0.598992 64.837414 -11.678576
0.425144 64.73272 -13.216665
-0.087344 61.486728 -11.801648
0.201724 63.119243 -12.556041
2.059608 37.430518 37.894476
1.964104 35.938272 38.742108
2.213153 36.825508 39.075068
-1.627909 50.893341 12.729112
-2.097809 49.219456 13.680269
-1.41943 50.420299 14.291396
-1.116997 52.546486 11.747781
-1.795376 51.345642 11.136653
-1.627909 50.893341 12.729112
-3.629542 21.270025 34.958258
-3.532978 23.248663 34.099501
0.846283 38.910071 53.813717
1.045151 39.258122 52.295986
1.064547 37.329588 53.42582
0.650312 40.49657 54.242824
0.846283 38.910071 53.813717
0.635643 42.437308 53.038865
0.650312 40.49657 54.242824
1.064547 37.329588 53.42582
1.283201 35.76213 52.961422
1.738241 60.758934 33.805225
1.899131 59.138641 33.835752
1.647426 59.436081 35.423517
1.846757 62.073936 32.132656
1.738241 60.758934 33.805225
1.943285 63.280204 30.467909
2.086474 61.667763 30.552713
1.846757 62.073936 32.132656
-1.839207 33.227628 31.220239
-2.377327 32.126911 30.820211
-2.041891 31.354898 32.170888
-1.619466 35.045309 30.294087
-1.839207 33.227628 31.220239
-1.931694 35.83153 28.916419
-1.619466 35.045309 30.294087
-2.041891 31.354898 32.170888
-2.22797 29.492615 33.093339
-4.09186 35.473843 23.873957
-3.745003 34.890422 25.286017
-4.09186 35.473843 23.873957
-3.831714 37.373772 22.834797
-1.535214 55.70456 -2.083671
-1.462371 55.750244 -0.479511
-0.970067 57.243664 -3.040511
-1.535214 55.70456 -2.083671
1.131704 48.403656 45.991378
1.339746 46.798465 45.756044
1.091267 46.662563 47.331587
1.180769 50.154525 44.578039
1.131704 48.403656 45.991378
1.23921 51.805565 43.155737
1.438624 50.190597 42.993534
1.180769 50.154525 44.578039
1.308266 53.463062 41.664266
1.23921 51.805565 43.155737
2.14085 33.8932 47.871597
2.029515 33.467363 49.235893
2.275861 34.25284 46.49984
2.14085 33.8932 47.871597
2.17229 35.680269 46.865059
2.326649 34.696659 45.182659
2.275861 34.25284 46.49984
2.380556 36.400293 44.190321
2.399904 35.057043 43.879679
2.326649 34.696659 45.182659
2.50665 68.589009 21.811286
2.383092 67.623547 23.578736
2.908237 66.312641 14.364463
2.953997 66.989746 12.63721
2.843987 64.755104 14.746503
2.88798 65.622341 16.063466
2.908237 66.312641 14.364463
2.06762 63.023033 7.91644
2.105863 62.533772 9.598679
2.426767 64.048839 8.979012
1.673582 61.898483 6.872664
2.06762 63.023033 7.91644
2.314142 67.376197 0.044298
2.624363 68.615505 1.170995
1.980055 66.034843 -1.05693
2.314142 67.376197 0.044298
2.197794 67.558403 -1.609909
1.541926 64.702496 -2.059157
1.658275 64.520291 -0.40495
1.980055 66.034843 -1.05693
3.209983 82.211861 -2.353756
3.181057 82.467656 -4.100736
3.073748 80.843232 -2.020644
3.209983 82.211861 -2.353756
2.939666 79.668503 -3.398917
3.008077 79.37442 -1.664183
3.073748 80.843232 -2.020644
1.44939 72.945401 -12.936398
1.724779 74.501892 -11.796637
1.374853 71.318303 -12.420901
1.44939 72.945401 -12.936398
1.152378 71.347092 -14.015286
0.611223 66.388875 -13.881893
0.950126 68.085442 -12.919494
0.738938 68.023426 -14.462188
0.425144 64.73272 -13.216665
0.611223 66.388875 -13.881893
0.280799 37.141647 32.946381
-0.217772 36.219719 32.514858
0.485945 38.803091 32.133924
0.280799 37.141647 32.946381
0.762685 37.975309 33.446829
1.676057 34.921478 38.407911
1.964104 35.938272 38.742108
1.676057 34.921478 38.407911
1.445083 35.640994 37.175297
-2.872229 42.881733 19.779218
-3.218351 41.07948 20.778005
-2.574126 42.28931 21.25164
-2.872229 42.881733 19.779218
-2.491808 44.681128 18.748059
-2.322471 47.008553 16.242909
-2.09859 46.428082 17.78131
-1.665449 48.165943 16.780954
-2.322471 47.008553 16.242909
-2.570543 47.497558 14.711996
-1.981231 51.700032 9.554255
-1.795376 51.345642 11.136653
-1.981231 51.700032 9.554255
-1.434082 53.328934 8.547605
-1.15972 55.428822 4.389929
-1.032849 55.226388 6.00607
-0.58925 56.976571 3.441388
-1.266973 55.611699 2.759067
-1.15972 55.428822 4.389929
-3.259949 20.573957 36.202511
-3.629542 21.270025 34.958258
0.857183 46.439976 48.893568
1.091267 46.662563 47.331587
1.065225 44.834785 48.658234
0.857183 46.439976 48.893568
0.646626 46.221085 50.50306
1.700496 32.688283 52.064594
1.494565 34.219688 52.550872
1.853947 33.103426 50.66098
1.700496 32.688283 52.064594
1.861711 34.956691 49.661903
2.029515 33.467363 49.235893
1.853947 33.103426 50.66098
2.742853 70.151451 0.707248
2.624363 68.615505 1.170995
2.643279 70.448089 -0.983013
2.742853 70.151451 0.707248
2.510695 70.648243 -2.643947
2.399297 69.09991 -2.169614
2.643279 70.448089 -0.983013
-3.99684 28.494215 29.625815
-4.138394 26.536348 30.576988
-3.821581 30.412968 28.667865
-3.99684 28.494215 29.625815
-3.457979 29.767011 30.020685
-3.633396 32.341344 27.679144
-3.821581 30.412968 28.667865
-3.413368 34.225206 26.699294
-3.633396 32.341344 27.679144
-3.062693 33.569626 28.082885
-3.1743 36.118704 25.689758
-3.745003 34.890422 25.286017
-3.413368 34.225206 26.699294
-0.530115 37.030203 31.176045
-0.217772 36.219719 32.514858
-0.530115 37.030203 31.176045
-0.278252 38.801021 30.27077
-0.282037 41.357521 28.04527
-0.03652 40.498636 29.438274
0.242007 42.223543 28.57548
-0.842526 40.435667 27.501136
-0.282037 41.357521 28.04527
-0.563999 42.160574 26.638342
-1.406616 39.451069 27.028742
-0.842526 40.435667 27.501136
-1.716515 40.189876 25.616104
-1.998644 38.402226 26.550638
-1.406616 39.451069 27.028742
-2.673571 23.736946 35.794799
-2.795973 21.797725 36.637184
-2.545324 25.680134 34.913679
-2.392021 27.582972 34.019739
-3.03636 24.491707 34.504781
-2.673571 23.736946 35.794799
-2.545324 25.680134 34.913679
-3.404732 25.191851 33.21838
-3.532978 23.248663 34.099501
-3.03636 24.491707 34.504781
-3.767294 25.898533 31.895867
-3.404732 25.191851 33.21838
-3.270676 27.141577 32.301147
-4.138394 26.536348 30.576988
-3.767294 25.898533 31.895867
-3.538871 39.22534 21.821769
-3.218351 41.07948 20.778005
1.380828 55.011925 40.167745
1.569627 53.3905 40.074711
1.308266 53.463062 41.664266
1.466143 56.562752 38.606898
1.380828 55.011925 40.167745
1.549208 58.000965 37.044825
1.725253 56.377575 37.016117
1.466143 56.562752 38.606898
1.647426 59.436081 35.423517
1.549208 58.000965 37.044825
2.378874 35.528707 42.615727
2.399904 35.057043 43.879679
2.378112 35.898764 41.399667
2.378874 35.528707 42.615727
2.45305 37.130734 41.671282
2.284968 36.417027 40.188961
2.378112 35.898764 41.399667
2.380472 37.909272 39.34133
2.213153 36.825508 39.075068
2.284968 36.417027 40.188961
1.820183 64.881137 30.333619
1.696575 66.468204 30.257171
2.0599 64.474964 28.753675
1.943285 63.280204 30.467909
1.820183 64.881137 30.333619
2.058894 67.153526 26.873482
1.829917 67.647628 28.496592
2.160104 65.566249 27.052437
2.058894 67.153526 26.873482
2.2822 66.643878 25.306534
2.681966 67.887921 20.285115
2.50665 68.589009 21.811286
2.804058 67.18911 18.832361
2.890804 66.399098 17.402905
2.707286 66.317127 20.577139
2.681966 67.887921 20.285115
2.804058 67.18911 18.832361
0.987266 61.342395 2.636018
1.074036 61.064655 4.295803
0.448264 60.012207 1.741112
0.987266 61.342395 2.636018
0.887907 61.514294 0.994746
-0.455205 58.756844 -3.899856
-0.970067 57.243664 -3.040511
-0.371536 58.800236 -2.294872
-0.563176 58.729336 -5.503865
-0.455205 58.756844 -3.899856
0.035356 60.285908 -4.758225
-0.638556 58.596824 -7.081174
-0.563176 58.729336 -5.503865
-0.753643 58.496231 -8.65477
-0.638556 58.596824 -7.081174
-0.187702 60.157806 -7.93583
-0.825363 58.296314 -10.196749
-0.753643 58.496231 -8.65477
2.966104 77.890358 -1.323612
3.008077 79.37442 -1.664183
2.945702 76.349545 -0.9464
2.966104 77.890358 -1.323612
2.853593 76.658879 -2.665243
2.934478 74.810494 -0.584701
2.945702 76.349545 -0.9464
2.793934 73.557243 -1.872689
2.934478 74.810494 -0.584701
2.609688 72.215931 -3.127846
2.793934 73.557243 -1.872689
2.648945 73.776753 -3.543189
2.365706 70.867752 -4.314447
2.510695 70.648243 -2.643947
2.609688 72.215931 -3.127846
2.45131 78.808998 -8.115566
2.707575 80.102989 -6.810107
2.392857 77.282272 -7.709377
2.45131 78.808998 -8.115566
2.235124 77.431984 -9.384944
1.924268 74.410934 -10.160384
1.977183 75.996216 -10.615008
1.724779 74.501892 -11.796637
-0.426526 59.903366 -11.047385
0.036391 61.640575 -10.263689
-0.087344 61.486728 -11.801648
-0.825363 58.296314 -10.196749
-0.426526 59.903366 -11.047385
3 0 39 37
3 0 37 40
3 1 44 42
3 1 46 44
3 3 52 50
3 3 54 52
3 2 153 155
3 155 154 55
3 153 154 155
3 4 156 157
3 4 158 160
3 158 56 159
3 158 159 160
3 5 59 57
3 5 62 61
3 5 57 62
3 6 66 64
3 7 69 67
3 7 71 69
3 161 72 162
3 163 74 164
3 165 164 72
3 163 164 165
3 167 166 74
3 8 77 76
3 8 79 77
3 168 80 169
3 170 82 171
3 172 171 80
3 170 171 172
3 173 84 174
3 176 175 84
3 9 177 179
3 177 87 178
3 177 178 179
3 11 88 38
3 11 89 88
3 9 180 182
3 182 181 41
3 180 181 182
3 9 183 184
3 12 185 187
3 187 186 90
3 185 186 187
3 189 188 43
3 13 190 192
3 192 191 45
3 190 191 192
3 13 193 195
3 193 91 194
3 193 194 195
3 14 196 197
3 15 94 92
3 198 95 199
3 200 199 47
3 198 199 200
3 202 201 95
3 15 203 205
3 203 96 204
3 203 204 205
3 15 92 96
3 17 99 97
3 19 100 48
3 19 101 100
3 20 103 102
3 206 104 207
3 208 207 49
3 206 207 208
3 209 105 210
3 211 210 104
3 209 210 211
3 10 212 214
3 214 213 86
3 212 213 214
3 21 106 51
3 21 107 106
3 21 108 107
3 22 109 53
3 22 110 109
3 20 215 217
3 215 111 216
3 215 216 217
3 20 102 111
3 23 114 112
3 25 115 58
3 25 116 115
3 16 117 93
3 26 118 60
3 26 119 118
3 26 120 119
3 23 121 63
3 23 112 121
3 24 122 113
3 27 123 65
3 27 124 123
3 18 125 98
3 28 126 68
3 28 127 126
3 28 128 127
3 29 129 70
3 29 130 129
3 218 131 219
3 30 220 222
3 220 132 221
3 220 221 222
3 30 133 132
3 31 223 225
3 223 134 224
3 223 224 225
3 31 135 134
3 31 136 135
3 32 137 73
3 32 138 137
3 32 139 138
3 226 140 227
3 228 227 75
3 226 227 228
3 229 141 230
3 231 230 140
3 229 230 231
3 33 232 233
3 33 234 236
3 234 142 235
3 234 235 236
3 33 143 142
3 34 144 78
3 34 145 144
3 35 146 81
3 35 147 146
3 237 148 238
3 36 149 83
3 36 150 149
3 36 151 150
3 239 152 240
3 241 240 85
3 239 240 241
3 243 242 152
3 37 38 9
3 39 38 37
3 39 11 38
3 40 244 246
3 244 41 245
3 244 245 246
3 37 41 40
3 37 9 41
3 42 43 12
3 44 43 42
3 44 247 249
3 249 248 43
3 247 248 249
3 44 250 252
3 250 45 251
3 250 251 252
3 46 45 44
3 46 13 45
3 254 253 14
3 255 47 256
3 257 256 15
3 255 256 257
3 258 47 259
3 261 260 47
3 262 15 263
3 264 48 265
3 266 265 17
3 264 265 266
3 267 48 268
3 269 19 270
3 271 270 48
3 269 270 271
3 272 49 273
3 274 273 20
3 272 273 274
3 275 49 276
3 278 277 49
3 50 51 10
3 52 51 50
3 52 21 51
3 52 53 21
3 54 53 52
3 54 22 53
3 279 20 280
3 55 281 282
3 284 283 55
3 56 285 286
3 56 287 288
3 57 58 23
3 59 58 57
3 59 25 58
3 289 60 290
3 291 290 16
3 289 290 291
3 292 60 293
3 294 26 295
3 296 295 60
3 294 295 296
3 298 297 26
3 61 299 300
3 62 301 303
3 303 302 61
3 301 302 303
3 62 304 305
3 62 306 308
3 306 63 307
3 306 307 308
3 57 63 62
3 57 23 63
3 64 65 24
3 66 65 64
3 66 27 65
3 67 68 18
3 69 68 67
3 69 28 68
3 69 70 28
3 71 70 69
3 71 29 70
3 309 30 310
3 72 311 312
3 72 313 315
3 313 31 314
3 313 314 315
3 72 73 31
3 74 73 72
3 74 32 73
3 74 75 32
3 316 75 317
3 318 317 74
3 316 317 318
3 320 319 75
3 76 321 322
3 77 323 325
3 325 324 76
3 323 324 325
3 77 326 328
3 326 33 327
3 326 327 328
3 77 78 33
3 79 78 77
3 79 34 78
3 80 329 330
3 80 331 332
3 80 333 335
3 333 81 334
3 333 334 335
3 82 81 80
3 82 35 81
3 336 83 337
3 84 338 340
3 338 83 339
3 338 339 340
3 84 36 83
3 84 85 36
3 341 85 342
3 343 342 84
3 341 342 343
3 345 344 85
3 346 86 347
3 87 348 350
3 348 86 349
3 348 349 350
3 87 10 86
3 38 87 9
3 88 87 38
3 88 10 87
3 88 50 10
3 89 50 88
3 89 3 50
3 41 351 352
3 354 353 41
3 90 355 357
3 357 356 2
3 355 356 357
3 359 358 90
3 43 360 362
3 362 361 12
3 360 361 362
3 364 363 43
3 45 365 366
3 368 367 45
3 91 369 370
3 91 371 373
3 371 4 372
3 371 372 373
3 375 374 14
3 92 93 5
3 94 93 92
3 94 16 93
3 47 94 15
3 95 94 47
3 95 16 94
3 95 376 378
3 378 377 16
3 376 377 378
3 380 379 95
3 96 381 382
3 96 383 384
3 96 385 387
3 385 61 386
3 385 386 387
3 92 61 96
3 92 5 61
3 97 98 6
3 99 98 97
3 99 18 98
3 48 99 17
3 100 99 48
3 100 18 99
3 100 67 18
3 101 67 100
3 101 7 67
3 388 76 389
3 390 76 391
3 392 8 393
3 394 393 76
3 392 393 394
3 102 395 396
3 103 397 399
3 399 398 102
3 397 398 399
3 103 400 401
3 49 103 20
3 104 103 49
3 104 402 404
3 404 403 103
3 402 403 404
3 104 405 407
3 405 55 406
3 405 406 407
3 105 55 104
3 105 2 55
3 86 408 409
3 411 410 86
3 51 412 414
3 414 413 10
3 412 413 414
3 106 415 417
3 417 416 51
3 415 416 417
3 106 418 419
3 106 420 422
3 420 105 421
3 420 421 422
3 107 105 106
3 107 2 105
3 107 90 2
3 108 90 107
3 108 12 90
3 53 108 21
3 109 108 53
3 109 12 108
3 109 42 12
3 110 42 109
3 110 1 42
3 423 14 424
3 111 425 426
3 111 427 429
3 427 14 428
3 427 428 429
3 111 430 432
3 432 431 14
3 430 431 432
3 102 433 435
3 435 434 111
3 433 434 435
3 102 436 437
3 439 438 2
3 112 113 0
3 114 113 112
3 114 24 113
3 58 114 23
3 115 114 58
3 115 24 114
3 115 64 24
3 116 64 115
3 116 6 64
3 93 59 5
3 117 59 93
3 117 25 59
3 60 117 16
3 118 117 60
3 118 25 117
3 118 116 25
3 119 116 118
3 119 6 116
3 119 97 6
3 120 97 119
3 120 17 97
3 440 120 441
3 442 441 26
3 440 441 442
3 443 120 444
3 445 17 446
3 447 446 120
3 445 446 447
3 449 448 17
3 63 450 451
3 121 452 454
3 454 453 63
3 452 453 454
3 121 455 456
3 121 457 459
3 457 40 458
3 457 458 459
3 112 40 121
3 112 0 40
3 113 39 0
3 122 39 113
3 122 11 39
3 65 122 24
3 123 122 65
3 123 11 122
3 123 89 11
3 124 89 123
3 124 3 89
3 98 66 6
3 125 66 98
3 125 27 66
3 68 125 18
3 126 125 68
3 126 27 125
3 126 124 27
3 127 124 126
3 127 3 124
3 127 54 3
3 128 54 127
3 128 22 54
3 70 128 28
3 129 128 70
3 129 22 128
3 129 110 22
3 130 110 129
3 130 1 110
3 131 460 461
3 131 462 464
3 462 19 463
3 462 463 464
3 465 131 466
3 132 467 469
3 467 131 468
3 467 468 469
3 132 19 131
3 132 101 19
3 133 101 132
3 133 7 101
3 470 30 471
3 134 472 473
3 134 474 476
3 474 30 475
3 474 475 476
3 134 133 30
3 135 133 134
3 135 7 133
3 135 71 7
3 136 71 135
3 136 29 71
3 73 136 31
3 137 136 73
3 137 29 136
3 137 130 29
3 138 130 137
3 138 1 130
3 138 46 1
3 139 46 138
3 139 13 46
3 75 139 32
3 140 139 75
3 140 13 139
3 140 91 13
3 141 91 140
3 141 4 91
3 477 141 478
3 142 479 481
3 479 141 480
3 479 480 481
3 142 4 141
3 142 56 4
3 143 56 142
3 143 482 484
3 484 483 56
3 482 483 484
3 78 143 33
3 144 143 78
3 144 485 487
3 487 486 143
3 485 486 487
3 144 488 489
3 145 490 492
3 492 491 144
3 490 491 492
3 145 493 494
3 81 495 496
3 146 497 499
3 499 498 81
3 497 498 499
3 146 500 501
3 146 502 503
3 147 504 506
3 506 505 146
3 504 505 506
3 147 507 509
3 507 8 508
3 507 508 509
3 510 82 511
3 148 512 514
3 512 82 513
3 512 513 514
3 148 35 82
3 83 515 517
3 515 148 516
3 515 516 517
3 149 148 83
3 149 35 148
3 149 147 35
3 150 147 149
3 150 8 147
3 150 79 8
3 151 79 150
3 151 34 79
3 85 151 36
3 152 151 85
3 152 34 151
3 152 145 34
3 518 145 519
3 520 519 152
3 518 519 520
3 522 521 145
