ply
format ascii 1.0
element vertex 110
property float x
property float y
property float z
element face 82
property list uchar int vertex_index
end_header
2.688457 34.248611 -29.277363
1.16543 37.729015 -31.815128
-1.395979 30.22887 -30.842606
0.845982 26.91135 -29.468475
2.010839 36.060661 -30.720894
1.056538 32.435429 -30.662239
1.918493 30.659111 -29.542294
0.021528 34.052757 -31.465839
3.262436 32.335884 -27.522545
2.652588 28.768044 -28.111641
3.314564 26.806938 -26.411194
-4.542412 27.630928 -30.317356
1.753889 25.038158 -28.372429
0.5327 21.209332 -28.355816
2.024378 41.213291 -31.781368
2.67326 39.485641 -30.374378
0.593479 35.890886 -31.640484
0.064004 36.6302 -32.014061
0.635955 38.468328 -32.188705
0.325551 27.783632 -29.876162
0.430829 30.545671 -30.473043
0.95126 29.673389 -30.065357
0.151188 24.987438 -29.301887
0.325551 27.783632 -29.876162
3.557228 28.584892 -25.968464
3.2885 29.571411 -26.96687
3.531164 31.349365 -26.52414
-2.080484 30.909551 -31.019865
-1.303404 32.84794 -31.413818
-4.777952 24.996609 -29.777347
-3.809337 26.971025 -30.189909
-5.540727 25.641848 -29.884783
-4.777952 24.996609 -29.777347
2.161919 24.060144 -27.688671
2.203239 26.903101 -28.242035
2.611269 25.925087 -27.558277
0.319052 18.31033 -27.889606
1.023118 20.234058 -27.84305
-0.250303 19.279554 -28.241354
0.319052 18.31033 -27.889606
2.309674 42.842073 -31.53166
1.985622 43.663421 -32.197184
2.634116 41.978248 -30.828165
2.348819 40.349466 -31.077873
2.309674 42.842073 -31.53166
-2.236121 28.269996 -30.452534
-1.569132 27.503068 -30.265763
-0.59465 34.759884 -31.725435
0.064004 36.6302 -32.014061
-0.687226 32.140814 -31.154222
-1.303404 32.84794 -31.413818
-0.59465 34.759884 -31.725435
-0.086677 31.354335 -30.874843
0.539033 33.244093 -31.064039
0.430829 30.545671 -30.473043
-0.79543 29.442392 -30.563227
-0.687226 32.140814 -31.154222
-0.086677 31.354335 -30.874843
-1.569132 27.503068 -30.265763
-0.79543 29.442392 -30.563227
2.942257 24.944534 -26.708053
2.611269 25.925087 -27.558277
2.983576 27.787491 -27.261418
3.635424 25.815298 -25.458483
3.557228 28.584892 -25.968464
3.326334 23.950697 -25.906945
3.635424 25.815298 -25.458483
2.942257 24.944534 -26.708053
3.326334 23.950697 -25.906945
-2.080484 30.909551 -31.019865
-2.236121 28.269996 -30.452534
-3.653701 29.610581 -30.75724
-3.809337 26.971025 -30.189909
-4.416754 30.168762 -30.865175
-3.653701 29.610581 -30.75724
-5.333828 28.171177 -30.415669
-4.416754 30.168762 -30.865175
-5.333828 28.171177 -30.415669
-5.540727 25.641848 -29.884783
1.633712 22.148471 -27.851357
2.161919 24.060144 -27.688671
1.143295 23.123745 -28.364123
1.633712 22.148471 -27.851357
1.023118 20.234058 -27.84305
-0.005453 22.136429 -28.745558
0.151188 24.987438 -29.301887
0.689341 24.060341 -28.912146
-0.005453 22.136429 -28.745558
-0.250303 19.279554 -28.241354
1.165709 40.2486 -32.311256
0.635955 38.468328 -32.188705
1.595182 41.990738 -32.294376
1.985622 43.663421 -32.197184
1.594904 39.471153 -31.798248
1.165709 40.2486 -32.311256
1.595182 41.990738 -32.294376
2.868032 41.080578 -29.972202
2.634116 41.978248 -30.828165
2.927548 38.55838 -29.495711
2.868032 41.080578 -29.972202
2.935146 35.939865 -28.947203
2.680859 36.867126 -29.825871
2.927548 38.55838 -29.495711
3.222136 34.983502 -28.069794
2.975447 33.292248 -28.399954
2.935146 35.939865 -28.947203
3.445953 34.012314 -27.049345
3.222136 34.983502 -28.069794
3.531164 31.349365 -26.52414
3.445953 34.012314 -27.049345
3 0 6 4
3 1 16 18
3 16 7 17
3 16 17 18
3 3 19 21
3 21 20 5
3 19 20 21
3 3 22 23
3 24 10 25
3 26 25 8
3 24 25 26
3 2 27 28
3 29 11 30
3 32 31 11
3 33 12 34
3 35 34 9
3 33 34 35
3 36 13 37
3 39 38 13
3 40 14 41
3 42 15 43
3 44 43 14
3 42 43 44
3 4 5 1
3 6 5 4
3 6 3 5
3 46 45 2
3 7 47 48
3 7 49 51
3 49 2 50
3 49 50 51
3 5 7 1
3 52 7 53
3 54 53 5
3 52 53 54
3 55 2 56
3 57 56 7
3 55 56 57
3 59 58 2
3 8 9 0
3 10 9 8
3 10 60 62
3 62 61 9
3 60 61 62
3 63 10 64
3 65 10 66
3 68 67 10
3 70 69 2
3 11 71 72
3 11 73 74
3 11 75 76
3 78 77 11
3 9 6 0
3 12 6 9
3 12 3 6
3 79 12 80
3 13 81 83
3 81 12 82
3 81 82 83
3 13 3 12
3 13 84 86
3 86 85 3
3 84 85 86
3 88 87 13
3 89 1 90
3 14 91 92
3 14 93 95
3 93 1 94
3 93 94 95
3 14 4 1
3 15 4 14
3 15 0 4
3 96 15 97
3 98 15 99
3 100 0 101
3 102 101 15
3 100 101 102
3 103 8 104
3 105 104 0
3 103 104 105
3 106 8 107
3 109 108 8
