ply
format ascii 1.0
element vertex 94
property float x
property float y
property float z
element face 70
property list uchar int vertex_index
end_header
44.215004 -1.799307 -56.575638
48.859573 -7.0068 -54.407509
44.509468 -7.845903 -53.321777
48.652172 -13.035687 -50.721069
41.812977 0.414455 -57.23748
48.810394 -9.985215 -52.714859
50.749607 -12.970045 -51.235298
50.38868 -15.963767 -49.255768
52.407299 -16.188616 -49.638115
46.58577 -4.271431 -55.618416
46.663895 -7.252413 -54.03624
46.669998 -10.319242 -52.094658
43.01399 -0.692426 -56.906559
42.937708 0.779227 -57.376739
44.138722 -0.327654 -57.045818
43.115597 -2.186405 -56.290298
41.914583 -1.079524 -56.621219
43.01399 -0.692426 -56.906559
44.296291 -3.290671 -55.862823
43.115597 -2.186405 -56.290298
51.797598 -13.11542 -51.315708
50.859758 -11.488014 -52.110862
52.626444 -14.724705 -50.517117
51.578453 -14.579331 -50.436706
51.797598 -13.11542 -51.315708
43.466657 -8.323329 -52.836399
43.370582 -6.738009 -53.831707
44.544441 -9.441539 -52.268223
43.466657 -8.323329 -52.836399
47.617582 -13.272869 -50.328739
46.626496 -11.914647 -51.015534
47.661085 -11.677464 -51.407864
48.516735 -14.60629 -49.65408
47.617582 -13.272869 -50.328739
50.148609 -17.4649 -48.243199
51.093685 -17.517328 -48.49551
41.738306 1.891004 -57.606933
42.937708 0.779227 -57.376739
40.631756 1.392169 -57.402794
41.738306 1.891004 -57.606933
40.730891 -0.103698 -56.895836
40.631756 1.392169 -57.402794
40.730891 -0.103698 -56.895836
41.914583 -1.079524 -56.621219
44.443523 -6.313969 -54.235893
43.370582 -6.738009 -53.831707
49.890152 -9.995598 -52.850643
48.834983 -8.496008 -53.561184
49.914741 -8.506391 -53.696968
49.78 -11.47763 -51.975078
49.890152 -9.995598 -52.850643
50.859758 -11.488014 -52.110862
52.102995 -17.629753 -48.686684
51.093685 -17.517328 -48.49551
51.39799 -16.076192 -49.446942
45.343382 -1.567583 -56.656597
44.138722 -0.327654 -57.045818
46.528765 -2.803645 -56.177986
45.400387 -3.035369 -56.097027
45.343382 -1.567583 -56.656597
47.706164 -4.171793 -55.64618
46.528765 -2.803645 -56.177986
48.843065 -5.539477 -55.040726
47.722671 -5.639115 -55.012963
47.706164 -4.171793 -55.64618
49.961084 -7.037565 -54.384739
48.843065 -5.539477 -55.040726
49.914741 -8.506391 -53.696968
49.961084 -7.037565 -54.384739
45.481674 -4.526733 -55.384213
44.296291 -3.290671 -55.862823
45.400387 -3.035369 -56.097027
45.520737 -6.017224 -54.593125
45.481674 -4.526733 -55.384213
46.624832 -5.761922 -54.827328
45.586681 -7.549158 -53.679008
44.443523 -6.313969 -54.235893
45.520737 -6.017224 -54.593125
45.624706 -10.678209 -51.654663
44.544441 -9.441539 -52.268223
45.589733 -9.082572 -52.708218
45.624706 -10.678209 -51.654663
46.626496 -11.914647 -51.015534
49.384989 -16.07033 -48.921429
48.516735 -14.60629 -49.65408
49.520426 -14.499727 -49.988419
49.384989 -16.07033 -48.921429
50.148609 -17.4649 -48.243199
53.409895 -16.472789 -49.654724
52.626444 -14.724705 -50.517117
53.056809 -17.909529 -48.792816
53.409895 -16.472789 -49.654724
52.102995 -17.629753 -48.686684
53.056809 -17.909529 -48.792816
3 0 12 14
3 12 4 13
3 12 13 14
3 0 15 17
3 17 16 4
3 15 16 17
3 0 18 19
3 20 6 21
3 22 8 23
3 24 23 6
3 22 23 24
3 2 25 26
3 2 27 28
3 1 10 9
3 3 11 5
3 3 29 31
3 31 30 11
3 29 30 31
3 3 32 33
3 35 34 7
3 4 36 37
3 4 38 39
3 4 40 41
3 43 42 4
3 44 2 45
3 46 5 47
3 48 47 1
3 46 47 48
3 6 49 51
3 49 5 50
3 49 50 51
3 6 3 5
3 6 7 3
3 8 7 6
3 8 52 54
3 54 53 7
3 52 53 54
3 55 0 56
3 57 9 58
3 59 58 0
3 57 58 59
3 60 9 61
3 62 1 63
3 64 63 9
3 62 63 64
3 65 1 66
3 68 67 1
3 9 69 71
3 71 70 0
3 69 70 71
3 10 72 74
3 74 73 9
3 72 73 74
3 10 75 77
3 75 2 76
3 75 76 77
3 5 10 1
3 11 10 5
3 11 2 10
3 11 78 80
3 80 79 2
3 78 79 80
3 82 81 11
3 7 83 85
3 85 84 3
3 83 84 85
3 87 86 7
3 88 8 89
3 90 8 91
3 93 92 8
