ply
format ascii 1.0
element vertex 199
property float x
property float y
property float z
element face 162
property list uchar int vertex_index
end_header
-12.098032 -52.460793 -8.529631
-23.615744 -42.589127 -21.238781
-18.084475 -48.35054 -14.534861
-21.086884 -45.701637 -17.78746
-21.324305 -44.347847 -15.098162
-25.396109 -38.997078 -24.901852
-14.979928 -50.577148 -11.461931
-11.426727 -50.786255 -7.093288
-13.033516 -50.045311 -8.557528
-22.430992 -44.204716 -19.487438
-22.799381 -43.703476 -18.198296
-24.097364 -42.231522 -19.972778
-25.200558 -40.626892 -21.79092
-26.084772 -38.888481 -23.652046
-24.610802 -40.853447 -23.04306
-5.497156 -53.468632 -1.221449
-8.378117 -52.145844 -4.194954
-16.521339 -49.512566 -12.977695
-16.389454 -48.348106 -11.582586
-18.089836 -47.360046 -13.161266
-19.622692 -47.082272 -16.137245
-19.754425 -46.262218 -14.790188
-21.338774 -45.04554 -16.469818
-22.943253 -43.166176 -16.837509
-13.497885 -51.555553 -9.981915
-15.006043 -51.941681 -12.783915
-16.447014 -50.709579 -14.269747
-17.928112 -49.379993 -15.787994
-19.395203 -47.947449 -17.345436
-20.794205 -46.409142 -18.949848
-22.076759 -44.763977 -20.609241
-23.203819 -43.011429 -22.330662
-9.877131 -51.479916 -5.644344
-14.693674 -49.238289 -10.050428
-24.147671 -41.150841 -24.119114
-6.208437 -53.135877 -1.974351
-6.350856 -54.545443 -1.984196
-23.672075 -42.505621 -17.728552
-22.871317 -43.434826 -17.517902
-23.600138 -42.774271 -18.408946
-23.613817 -42.250067 -17.063102
-23.672075 -42.505621 -17.728552
-26.065557 -38.00707 -25.229691
-26.409889 -37.952772 -24.604788
-25.74044 -38.94278 -24.276949
-25.679685 -38.008812 -25.859154
-26.065557 -38.00707 -25.229691
-14.968269 -52.67371 -13.360591
-14.316333 -53.32186 -12.648861
-15.688754 -52.057659 -14.103507
-15.726529 -51.32563 -13.526831
-14.968269 -52.67371 -13.360591
-17.87179 -49.952878 -16.312593
-17.137101 -50.69766 -15.581691
-18.605335 -49.236607 -17.091314
-18.661657 -48.663721 -16.566715
-17.87179 -49.952878 -16.312593
-20.732218 -46.827 -19.418085
-20.035319 -47.672246 -18.642767
-21.373495 -46.004418 -20.247782
-21.435482 -45.586559 -19.779545
-20.732218 -46.827 -19.418085
-22.011848 -45.109924 -21.056713
-21.373495 -46.004418 -20.247782
-9.712402 -52.793395 -5.653571
-9.127624 -51.81288 -4.919649
-8.962895 -53.126358 -4.928876
-10.331193 -52.393284 -6.369356
-9.712402 -52.793395 -5.653571
-16.140393 -47.740291 -10.879182
-17.073569 -47.334461 -11.67442
-20.453224 -44.872166 -14.252461
-19.668284 -45.829351 -14.098475
-20.539365 -45.305032 -14.944175
-23.608166 -42.360008 -23.660122
-23.675745 -42.081135 -23.224888
-23.13624 -43.290302 -22.765896
-11.796547 -49.634056 -7.106823
-10.888504 -49.923559 -6.363872
-12.599941 -49.263584 -7.838943
-11.796547 -49.634056 -7.106823
-12.230121 -50.415783 -7.825408
-13.526086 -48.945923 -8.59384
-12.599941 -49.263584 -7.838943
-24.24913 -42.038294 -19.296187
-23.600138 -42.774271 -18.408946
-23.448372 -42.967499 -19.085537
-24.880662 -41.305822 -20.205952
-24.24913 -42.038294 -19.296187
-25.432259 -40.503507 -21.115023
-24.880662 -41.305822 -20.205952
-24.648961 -41.429207 -20.881849
-25.952781 -39.697998 -22.041922
-25.432259 -40.503507 -21.115023
-25.642665 -39.757686 -22.721483
-26.394888 -38.828792 -22.972485
-25.952781 -39.697998 -22.041922
-5.332759 -52.090521 -1.193693
-4.525528 -52.390243 -0.414563
-5.332759 -52.090521 -1.193693
-6.208437 -53.135877 -1.974351
-7.648917 -52.474483 -3.461104
-7.612933 -51.148453 -3.435096
-8.370262 -53.51025 -4.207154
-7.648917 -52.474483 -3.461104
-8.962895 -53.126358 -4.928876
-8.370262 -53.51025 -4.207154
-17.923759 -46.840431 -12.46376
-17.073569 -47.334461 -11.67442
-17.239645 -47.854076 -12.371926
-21.084291 -43.933609 -14.439535
-21.982379 -43.423874 -15.307184
-4.807505 -53.811766 -0.439043
-4.525528 -52.390243 -0.414563
-5.776938 -54.914465 -1.224724
-4.807505 -53.811766 -0.439043
-6.350856 -54.545443 -1.984196
-5.776938 -54.914465 -1.224724
-22.791853 -42.833039 -16.176858
-21.982379 -43.423874 -15.307184
-22.133779 -43.757012 -15.967835
-22.791853 -42.833039 -16.176858
-23.613817 -42.250067 -17.063102
-26.794073 -37.950367 -23.916668
-26.394888 -38.828792 -22.972485
-26.794073 -37.950367 -23.916668
-26.409889 -37.952772 -24.604788
-12.95732 -52.851816 -9.934121
-12.797959 -52.008173 -9.255773
-12.257393 -53.304436 -9.20798
-13.57495 -52.320026 -10.653301
-12.95732 -52.851816 -9.934121
-14.315972 -51.830824 -11.393308
-14.238906 -51.06635 -10.721923
-13.57495 -52.320026 -10.653301
-14.32903 -52.51309 -12.054301
-14.316333 -53.32186 -12.648861
-14.992985 -51.259415 -12.122923
-14.315972 -51.830824 -11.393308
-14.32903 -52.51309 -12.054301
-16.396552 -51.362453 -14.822568
-15.688754 -52.057659 -14.103507
-17.187563 -50.044786 -15.028871
-16.396552 -51.362453 -14.822568
-17.137101 -50.69766 -15.581691
-19.335817 -48.441399 -17.840561
-18.605335 -49.236607 -17.091314
-20.094704 -47.178296 -18.147642
-19.335817 -48.441399 -17.840561
-20.035319 -47.672246 -18.642767
-22.575378 -44.23365 -21.917423
-22.640289 -43.887703 -21.469952
-22.011848 -45.109924 -21.056713
-23.13624 -43.290302 -22.765896
-22.575378 -44.23365 -21.917423
-8.477435 -50.877232 -4.176604
-7.612933 -51.148453 -3.435096
-9.226942 -50.544268 -4.9013
-8.477435 -50.877232 -4.176604
-9.127624 -51.81288 -4.919649
-10.113706 -50.27039 -5.639399
-9.226942 -50.544268 -4.9013
-10.651929 -51.133085 -6.368816
-10.888504 -49.923559 -6.363872
-10.113706 -50.27039 -5.639399
-11.105991 -52.046453 -7.093828
-10.651929 -51.133085 -6.368816
-10.331193 -52.393284 -6.369356
-11.441643 -52.883723 -7.812
-11.762379 -51.623524 -7.811459
-11.105991 -52.046453 -7.093828
-11.704672 -53.801842 -8.495742
-11.441643 -52.883723 -7.812
-12.257393 -53.304436 -9.20798
-11.704672 -53.801842 -8.495742
-14.356165 -48.542412 -9.34029
-13.526086 -48.945923 -8.59384
-13.863595 -49.6418 -9.303978
-15.292503 -48.185383 -10.113104
-15.541564 -48.793198 -10.816507
-16.140393 -47.740291 -10.879182
-14.356165 -48.542412 -9.34029
-15.292503 -48.185383 -10.113104
-18.835989 -46.378265 -13.284014
-18.922131 -46.811132 -13.975727
-19.668284 -45.829351 -14.098475
-17.923759 -46.840431 -12.46376
-18.835989 -46.378265 -13.284014
-20.453224 -44.872166 -14.252461
-21.084291 -43.933609 -14.439535
-24.079508 -41.367535 -24.551359
-23.608166 -42.360008 -23.660122
-24.520466 -40.166141 -25.047981
-24.079508 -41.367535 -24.551359
-25.144685 -39.08926 -25.439351
-24.77189 -40.07396 -24.510483
-24.520466 -40.166141 -25.047981
-25.679685 -38.008812 -25.859154
-25.144685 -39.08926 -25.439351
3 0 8 7
3 1 11 9
3 1 12 11
3 1 14 12
3 36 35 15
3 2 19 17
3 3 22 20
3 37 23 38
3 39 38 10
3 37 38 39
3 41 40 23
3 5 42 44
3 44 43 13
3 42 43 44
3 5 45 46
3 47 25 48
3 49 26 50
3 51 50 25
3 49 50 51
3 52 27 53
3 54 28 55
3 56 55 27
3 54 55 56
3 57 29 58
3 59 30 60
3 61 60 29
3 59 60 61
3 63 62 30
3 64 32 65
3 66 65 16
3 64 65 66
3 68 67 32
3 6 33 24
3 70 69 18
3 4 71 73
3 73 72 21
3 71 72 73
3 74 34 75
3 76 75 31
3 74 75 76
3 7 77 78
3 8 79 81
3 81 80 7
3 79 80 81
3 8 82 83
3 9 10 3
3 11 10 9
3 11 84 86
3 86 85 10
3 84 85 86
3 11 87 88
3 12 89 91
3 91 90 11
3 89 90 91
3 12 92 93
3 12 94 96
3 94 13 95
3 94 95 96
3 14 13 12
3 14 5 13
3 15 97 98
3 100 99 15
3 101 16 102
3 103 16 104
3 106 105 16
3 17 18 6
3 19 18 17
3 19 107 109
3 109 108 18
3 107 108 109
3 111 110 4
3 112 15 113
3 114 15 115
3 117 116 15
3 20 21 2
3 22 21 20
3 22 4 21
3 10 22 3
3 23 22 10
3 23 4 22
3 23 118 120
3 120 119 4
3 118 119 120
3 122 121 23
3 13 123 124
3 126 125 13
3 127 24 128
3 129 128 0
3 127 128 129
3 130 24 131
3 132 6 133
3 134 133 24
3 132 133 134
3 25 135 136
3 25 137 139
3 137 6 138
3 137 138 139
3 25 17 6
3 26 17 25
3 26 2 17
3 140 26 141
3 27 142 144
3 142 26 143
3 142 143 144
3 27 2 26
3 27 20 2
3 28 20 27
3 28 3 20
3 145 28 146
3 29 147 149
3 147 28 148
3 147 148 149
3 29 3 28
3 29 9 3
3 30 9 29
3 30 1 9
3 30 31 1
3 150 31 151
3 152 151 30
3 150 151 152
3 154 153 31
3 16 155 156
3 32 157 159
3 159 158 16
3 157 158 159
3 32 160 161
3 32 162 164
3 162 7 163
3 162 163 164
3 165 7 166
3 167 166 32
3 165 166 167
3 168 0 169
3 170 169 7
3 168 169 170
3 171 0 172
3 174 173 0
3 24 8 0
3 33 8 24
3 33 175 177
3 177 176 8
3 175 176 177
3 18 33 6
3 178 33 179
3 180 179 18
3 178 179 180
3 182 181 33
3 21 19 2
3 183 19 184
3 185 184 21
3 183 184 185
3 187 186 19
3 189 188 4
3 31 14 1
3 34 14 31
3 34 5 14
3 190 34 191
3 192 34 193
3 194 5 195
3 196 195 34
3 194 195 196
3 198 197 5
