ply
format ascii 1.0
element vertex 759
property float x
property float y
property float z
element face 817
property list uchar int vertex_index
end_header
-41.656693 53.175236 -19.803932
-26.753277 38.959602 -28.741283
-53.868011 36.377544 12.080198
-49.146347 51.047604 -3.999538
-52.695183 27.580383 16.441805
-46.010647 54.583523 -12.967096
-36.28595 44.248241 -18.430038
-31.888451 37.494434 -23.85228
-54.936447 26.020901 8.384621
-51.546059 33.316715 6.653518
-52.17868 44.426292 4.82606
-46.530266 40.43832 2.851989
-39.186356 47.453564 -11.337683
-28.76914 27.574516 -28.143581
-39.311306 48.57687 -19.351906
-36.534176 45.833561 -22.090511
-53.560413 32.065941 14.631819
-54.883076 27.157082 12.063441
-54.752048 31.202419 10.66583
-53.543938 29.66708 7.715134
-53.904816 35.146461 8.70997
-49.764408 53.288311 -2.077471
-50.776611 49.819805 3.034998
-50.704132 48.001591 0.5257
-50.365776 42.654003 3.085891
-48.270973 45.966442 -0.425207
-46.305653 48.686367 -4.32094
-44.136559 54.539707 -16.769016
-43.063351 51.142422 -12.51897
-41.425095 50.444447 -16.19673
-37.926334 46.34502 -15.08511
-30.077888 38.149044 -26.79586
-29.952122 32.822353 -26.103523
-27.518847 33.158371 -28.61969
-25.558243 21.631844 -30.83939
-25.928473 15.816944 -31.921837
-49.269226 27.5868 20.735596
-50.571243 32.511795 18.763145
-51.680504 37.206009 16.016569
-48.60997 56.098507 -7.189487
-47.600929 53.335621 -8.590479
-47.210342 58.024212 -12.029125
-45.336372 58.784 -16.216621
-24.05835 33.51709 -30.175171
-33.657078 39.904522 -17.459991
-32.409443 36.80304 -20.186348
-34.172169 41.316017 -21.331074
-33.282066 42.367847 -24.568493
-30.4044 43.613083 -26.707314
-54.784794 23.051666 13.179343
-55.869778 22.354137 8.960024
-54.90184 20.642029 6.29235
-52.017082 41.657551 12.356216
-53.341698 40.509342 8.749633
-52.348007 38.989571 6.155205
-49.112354 36.952148 5.054951
-44.593731 50.512783 -8.451944
-34.757515 41.909412 -14.113752
-31.376549 32.407673 -22.714581
-30.866035 27.342613 -25.421894
-25.997372 27.54496 -29.912853
-28.408356 22.185791 -30.095261
-40.62188 50.826885 -19.65921
-39.191502 49.622059 -20.995049
-40.122025 52.068905 -21.075661
-53.815536 34.24474 13.458311
-54.442528 31.702862 12.582941
-54.424324 33.781979 11.519966
-54.427689 33.186214 9.765114
-54.197662 35.825424 10.276662
-49.746277 52.180729 -3.241869
-50.400368 50.633526 -0.808048
-49.926613 49.60387 -1.716967
-49.767426 47.015362 -0.147806
-48.858871 48.537228 -2.218122
-47.260792 47.41795 -2.330786
-47.974514 49.889675 -4.347731
-42.989708 54.012058 -18.380238
-42.937149 52.476269 -16.591022
-41.86483 51.792423 -18.201393
-40.446735 49.638081 -17.837151
-28.592258 38.529987 -27.882095
-28.685881 35.745564 -27.770084
-27.117001 36.023628 -28.772999
-24.213352 18.13205 -31.153107
-48.807007 32.647568 20.765383
-49.525795 35.127991 19.501598
-51.201126 34.891499 17.503056
-50.132706 37.532467 18.018789
-48.324638 57.455776 -5.877277
-47.756012 58.713367 -8.47027
-47.952122 57.188717 -9.665348
-47.085579 59.735416 -10.956644
-44.126583 58.651608 -17.957439
-34.849609 42.089111 -17.920315
-34.02224 40.712757 -19.415092
-35.277786 42.887497 -19.934662
-35.820538 46.632069 -23.45034
-34.940262 44.190445 -23.356766
-33.966949 44.87933 -24.624409
-32.091324 42.952141 -25.769962
-52.297344 25.303654 17.165951
-53.584839 23.116196 15.513807
-53.744057 25.272339 14.888427
-55.200989 26.696438 10.068111
-55.398018 24.755703 10.506989
-55.435226 24.189079 8.659721
-55.640358 21.64032 7.364129
-54.921177 23.370232 7.234078
-53.904297 22.275066 6.344393
-54.116394 25.101604 7.145392
-52.615067 31.490105 7.245424
-52.136414 28.582584 6.888083
-50.958061 30.343864 6.636017
-49.679367 32.119946 6.261238
-51.628883 47.1152 3.952977
-51.224609 47.899799 5.525537
-52.168167 45.191929 6.236283
-52.615578 43.188293 8.418557
-52.818588 42.500572 6.847178
-53.157143 39.804344 7.287153
-52.411957 41.72636 5.58131
-48.639107 41.617004 2.796062
-49.81773 39.862682 4.16807
-47.821228 38.726688 4.032491
-46.946041 35.671417 5.063085
-46.82233 54.108166 -10.828403
-46.310631 51.942547 -8.689117
-45.517529 52.565113 -10.827585
-41.169182 49.354061 -11.967022
-41.856808 49.342037 -9.988508
-39.786118 47.556332 -9.360279
-37.168854 45.404797 -16.812824
-36.227119 44.188801 -14.539536
-35.588951 43.243073 -16.291695
-34.241364 41.009464 -15.862642
-32.270947 37.171501 -22.062851
-31.841814 34.73542 -21.439705
-31.462305 35.005978 -23.289368
-29.25293 30.245899 -27.145958
-30.245443 30.10638 -25.689774
-29.897301 27.499069 -26.891293
-30.828285 24.782959 -26.87624
-29.72525 24.879292 -28.112259
-23.171875 30.529068 -30.575787
-24.980968 30.47044 -30.058071
-24.368179 27.478115 -30.443275
-27.084442 19.182362 -31.322659
-27.025717 21.947857 -30.577797
-28.456207 19.589603 -31.126366
-29.778786 19.87812 -30.703976
-37.822624 46.397602 -18.925903
-36.655075 45.069462 -20.397945
-38.00362 47.299534 -20.761772
-37.580376 48.215656 -22.247299
-53.156212 29.841652 15.614634
-54.016754 27.43866 14.228592
-54.283527 29.587036 13.475876
-54.888741 29.192688 11.422833
-54.901131 28.622715 9.580795
-54.316257 27.845772 8.084103
-54.444153 30.532848 9.003386
-53.807312 32.430168 8.307545
-52.996094 34.317547 7.478263
-50.286682 51.624004 0.491947
-51.032013 48.936878 1.597131
-51.46286 46.267498 2.712142
-51.573486 43.583706 3.763262
-50.681007 45.354992 1.849524
-49.315235 44.367844 1.382667
-47.4641 43.281776 1.290358
-45.275051 42.055 1.508065
-46.326054 44.824688 -0.348286
-45.253429 46.209171 -2.114069
-44.267307 47.394566 -3.992226
-45.129623 54.732159 -14.959435
-44.718277 52.871906 -12.884089
-43.873436 52.84264 -14.815327
-42.281635 50.955944 -14.421324
-40.470737 49.03735 -13.867922
-38.584053 47.039829 -13.254772
-39.709312 48.414845 -15.666248
-38.837505 47.522305 -17.351643
-31.174339 37.810017 -25.44928
-30.845337 35.252323 -25.007214
-29.930113 35.492771 -26.514507
-28.872614 32.993469 -27.488079
-28.045652 30.342888 -28.364929
-24.055807 24.393379 -30.702328
-25.667555 18.688148 -31.320766
-42.355488 55.627979 -19.744934
-50.616806 25.234894 19.395126
-51.057755 27.619617 18.621996
-49.885597 30.070854 19.825008
-51.634933 29.992615 17.746832
-52.216679 32.325363 16.712307
-52.691616 34.604763 15.477017
-52.984314 36.828735 14.020466
-49.208565 54.788425 -4.647764
-49.07357 53.552532 -5.681618
-48.371468 52.302898 -6.30076
-48.378098 54.719578 -8.097904
-47.64653 55.647915 -10.45188
-46.854912 56.300404 -12.696129
-46.351456 58.567387 -14.229141
-45.969139 56.641628 -14.780416
-44.948776 56.645672 -16.661594
-43.754234 56.303699 -18.315243
-25.261538 36.33374 -29.557037
-21.238941 30.594933 -30.924248
-32.820667 37.744694 -17.115677
-32.414948 36.359173 -18.382771
-33.03183 38.528633 -18.888588
-33.144485 39.080013 -20.784935
-33.02042 39.519909 -22.631435
-35.352798 43.550671 -21.77877
-33.960312 41.839348 -23.07806
-32.54245 39.927334 -24.301628
-31.634691 40.356598 -25.720554
-30.273516 40.838947 -26.867432
-28.487898 41.385555 -27.772732
-54.814117 25.103493 12.630903
-55.573463 22.811958 10.948626
-56.315956 20.530361 9.337609
-56.327736 19.917999 7.588624
-55.845253 19.018158 6.341092
-54.899483 17.810009 5.697114
-53.715851 19.342609 5.824941
-53.191975 26.836876 7.0455
-51.956085 39.459473 14.296697
-53.061447 39.000134 12.343773
-52.927963 41.120998 10.466164
-53.70401 38.466064 10.503611
-53.765926 37.834045 8.859737
-53.200249 37.082954 7.503105
-52.035919 36.192924 6.510928
-51.389362 40.853104 4.679178
-50.963127 38.046925 5.406712
-50.366516 35.141838 5.926236
-48.33075 33.901707 5.742577
-47.12513 51.03767 -6.51531
-45.417027 49.731785 -6.372683
-43.377872 48.337772 -5.956612
-43.819592 50.99181 -10.515886
-42.581112 48.99773 -7.970119
-36.777924 44.91251 -12.682386
-33.239304 38.712036 -15.606348
-32.064579 34.437069 -19.566467
-30.773684 32.630882 -24.493069
-31.046564 29.913227 -24.037773
-25.901711 33.329784 -29.504421
-26.616983 30.412571 -29.331676
-27.46933 27.583466 -29.152058
-25.653624 24.60117 -30.395866
-27.138695 24.766518 -29.874622
-28.496923 24.867134 -29.115799
-29.701607 22.317436 -29.373829
-31.049183 20.015236 -30.038422
-49.027132 36.474821 19.755964
-48.688063 35.227135 20.487311
-49.330588 37.677059 19.01456
-49.829251 36.330229 18.760193
-49.027132 36.474821 19.755964
-47.145664 60.055946 -8.984378
-47.440876 59.451447 -7.683218
-46.810448 60.56697 -10.227565
-47.420795 59.224391 -9.713457
-47.145664 60.055946 -8.984378
-34.226789 46.197342 -24.552489
-34.893743 45.7557 -24.037374
-35.153583 47.073712 -23.965454
-33.19856 45.26569 -25.111025
-34.226789 46.197342 -24.552489
-46.0452 38.921146 3.530156
-46.690681 38.065331 4.120406
-47.175747 39.582504 3.44224
-45.369084 39.753422 3.009232
-46.0452 38.921146 3.530156
-38.481945 46.512272 -10.045551
-38.781826 46.563656 -9.056849
-39.486237 47.504948 -10.348981
-38.232178 46.418808 -11.040693
-38.481945 46.512272 -10.045551
-23.490043 27.438005 -30.608781
-23.770027 29.003591 -30.509531
-22.891891 28.963482 -30.675037
-28.519041 18.358797 -31.692509
-27.770325 19.385983 -31.224513
-27.833158 18.155177 -31.790655
-29.176503 18.60124 -31.630166
-28.519041 18.358797 -31.692509
-37.986226 49.475758 -22.246878
-38.385939 48.918858 -21.621174
-38.791788 50.178959 -21.620753
-37.038458 48.713451 -22.807905
-37.986226 49.475758 -22.246878
-50.025545 52.456158 -0.792762
-49.773658 52.989609 -0.023479
-49.512522 53.821762 -1.308188
-26.593536 16.167444 -32.048897
-26.463076 17.603046 -31.748361
-25.798014 17.252546 -31.621302
-26.709425 14.903412 -32.558647
-26.593536 16.167444 -32.048897
-41.690148 56.488308 -20.223896
-42.524336 56.897492 -19.594486
-49.943016 26.410847 20.065361
-49.737545 25.165171 20.47493
-49.063755 26.341124 21.145164
-45.843914 58.675693 -15.222881
-45.825602 59.745644 -14.816992
-45.31806 59.85395 -15.810731
-43.223709 57.235352 -18.879641
-43.940408 57.477654 -18.136341
-43.409883 58.409306 -18.700738
-42.524336 56.897492 -19.594486
-43.054861 55.965839 -19.030088
-43.223709 57.235352 -18.879641
-20.584818 32.272601 -30.990784
-21.642374 32.159852 -30.801245
-54.844599 22.042556 13.472295
-54.244622 22.074821 14.639527
-54.184816 23.083931 14.346575
-55.303709 21.969982 12.312898
-54.844599 22.042556 13.472295
-53.189492 21.582422 6.193885
-53.362093 23.096479 6.392672
-51.884915 27.079746 6.707422
-51.241816 27.92094 6.72033
-51.986584 40.558512 13.326456
-51.361526 40.798701 14.323901
-51.392025 41.89774 13.35366
-50.406757 50.23198 3.910861
-50.22073 51.191704 2.587641
-50.795997 48.260883 6.44701
-51.415876 46.893524 6.729421
-46.518036 34.054091 5.480004
-45.789442 34.916185 5.202741
-44.099198 41.342308 1.719215
-44.681715 42.797664 0.753956
-41.507721 48.165638 -7.664941
-42.21896 49.169883 -8.979313
-41.145569 48.337791 -8.674135
-41.876392 47.894168 -6.67542
-41.507721 48.165638 -7.664941
-34.980168 42.260784 -13.179671
-35.71497 43.400478 -13.392563
-35.492317 43.049107 -14.326644
-34.369535 41.01226 -13.071963
-34.980168 42.260784 -13.179671
-34.196148 40.701387 -14.002031
-34.369535 41.01226 -13.071963
-31.595595 32.280106 -21.780684
-31.828227 33.443979 -21.143245
-31.609181 33.571546 -22.077143
-31.533009 31.036114 -22.482235
-31.595595 32.280106 -21.780684
-31.279671 27.220979 -24.601029
-31.369935 28.506287 -23.908968
-30.9563 28.62792 -24.729834
-31.339555 25.954579 -25.429819
-31.279671 27.220979 -24.601029
-31.423265 23.473371 -27.048706
-30.86671 23.549692 -27.643619
-31.124582 18.974818 -30.904967
-30.413984 19.946678 -30.371199
-30.489384 18.906259 -31.237744
-31.765848 19.036022 -30.595664
-31.124582 18.974818 -30.904967
-39.25705 51.402382 -21.661058
-38.791788 50.178959 -21.620753
-39.656763 50.845482 -21.035355
-23.473402 17.830216 -31.002026
-23.318157 19.492985 -30.984186
-24.403475 16.591019 -31.342202
-23.473402 17.830216 -31.002026
-25.261035 15.433466 -31.726567
-25.070912 16.974497 -31.537472
-24.403475 16.591019 -31.342202
-25.439668 14.052969 -32.121062
-26.107107 14.436447 -32.316332
-25.261035 15.433466 -31.726567
-48.382538 27.544758 21.763044
-49.063755 26.341124 21.145164
-48.177067 26.299082 22.172613
-48.328668 33.986924 21.119203
-47.95411 32.695635 21.750043
-49.166401 33.88778 20.133491
-48.328668 33.986924 21.119203
-48.688063 35.227135 20.487311
-47.725189 58.822651 -6.386722
-47.964768 58.108715 -5.038137
-48.040325 58.084571 -7.173773
-47.725189 58.822651 -6.386722
-47.440876 59.451447 -7.683218
-44.721931 59.901393 -16.744526
-45.31806 59.85395 -15.810731
-44.117037 59.835198 -17.614935
-44.731477 58.717804 -17.08703
-44.721931 59.901393 -16.744526
-43.39998 59.701581 -18.412817
-44.117037 59.835198 -17.614935
-43.409883 58.409306 -18.700738
-43.39998 59.701581 -18.412817
-32.260748 44.302096 -25.683802
-33.029136 43.915735 -25.197185
-33.19856 45.26569 -25.111025
-31.417286 44.632567 -26.152477
-31.247862 43.282612 -26.238638
-32.260748 44.302096 -25.683802
-52.941091 24.209925 16.339879
-52.838068 23.081986 16.681701
-52.194321 24.175715 17.507773
-53.468142 24.509748 6.793172
-53.362093 23.096479 6.392672
-54.010345 23.688335 6.744893
-50.652639 28.80158 6.594297
-51.241816 27.92094 6.72033
-51.547238 29.463224 6.76205
-49.96771 29.65596 6.556664
-50.652639 28.80158 6.594297
-49.328363 30.544001 6.369274
-49.96771 29.65596 6.556664
-50.318714 31.231905 6.448627
-48.613975 31.409197 6.264497
-49.328363 30.544001 6.369274
-51.397717 43.006683 12.272988
-51.392025 41.89774 13.35366
-51.887655 45.539589 7.084794
-51.415876 46.893524 6.729421
-51.696388 46.545864 5.88091
-52.391872 44.190111 7.32742
-52.111361 44.537771 8.175931
-51.887655 45.539589 7.084794
-46.253088 36.537695 4.635703
-47.383634 37.199053 4.547788
-46.690681 38.065331 4.120406
-45.789442 34.916185 5.202741
-46.253088 36.537695 4.635703
-40.110224 47.444939 -8.360021
-41.145569 48.337791 -8.674135
-40.821463 48.449185 -9.674394
-39.057671 46.503357 -8.054879
-40.110224 47.444939 -8.360021
-39.057671 46.503357 -8.054879
-38.781826 46.563656 -9.056849
-30.315193 23.597859 -28.261629
-30.86671 23.549692 -27.643619
-30.276767 24.831125 -27.49425
-29.837792 18.745499 -31.418971
-29.117497 19.733861 -30.915171
-29.176503 18.60124 -31.630166
-30.489384 18.906259 -31.237744
-29.837792 18.745499 -31.418971
-36.158539 47.921658 -23.409426
-36.700457 47.423862 -22.84882
-37.038458 48.713451 -22.807905
-35.153583 47.073712 -23.965454
-36.158539 47.921658 -23.409426
-49.975765 52.093803 1.316115
-49.773658 52.989609 -0.023479
-50.531647 50.721905 1.763472
-50.22073 51.191704 2.587641
-49.975765 52.093803 1.316115
-45.207217 44.182508 -0.174219
-44.681715 42.797664 0.753956
-45.800552 43.439844 0.579889
-44.670904 44.87475 -1.057111
-45.207217 44.182508 -0.174219
-45.789741 45.51693 -1.231178
-44.12574 45.531448 -1.889706
-44.670904 44.87475 -1.057111
-43.632679 46.124145 -2.828784
-44.12574 45.531448 -1.889706
-44.760368 46.801868 -3.053148
-43.145376 46.673077 -3.730633
-43.632679 46.124145 -2.828784
-23.213048 24.276212 -30.763638
-23.333857 25.895637 -30.738308
-24.036748 22.827706 -30.805224
-23.213048 24.276212 -30.763638
-24.787966 21.446938 -30.873755
-24.807025 23.012611 -30.770859
-24.036748 22.827706 -30.805224
-24.115521 19.697041 -31.030613
-23.318157 19.492985 -30.984186
-24.842622 19.97509 -31.114442
-24.115521 19.697041 -31.030613
-24.940454 18.410099 -31.236936
-25.612899 20.159996 -31.080078
-24.787966 21.446938 -30.873755
-24.842622 19.97509 -31.114442
-27.17152 17.850153 -31.749308
-26.375999 18.935255 -31.321713
-26.463076 17.603046 -31.748361
-27.833158 18.155177 -31.790655
-27.17152 17.850153 -31.749308
-26.709425 14.903412 -32.558647
-26.107107 14.436447 -32.316332
-41.547499 55.13884 -20.364935
-41.198101 53.912468 -20.394434
-42.00609 54.401607 -19.774433
-41.547499 55.13884 -20.364935
-41.690148 56.488308 -20.223896
-50.529415 24.058802 19.763052
-49.737545 25.165171 20.47493
-51.354051 24.141334 18.622361
-50.529415 24.058802 19.763052
-51.457075 25.269274 18.280538
-52.194321 24.175715 17.507773
-51.354051 24.141334 18.622361
-48.677716 28.842314 21.290295
-48.382538 27.544758 21.763044
-48.446606 31.372698 21.305188
-47.95411 32.695635 21.750043
-48.985901 30.084341 20.835001
-48.446606 31.372698 21.305188
-49.346302 31.359211 20.295195
-49.577411 28.828827 20.280302
-48.677716 28.842314 21.290295
-48.985901 30.084341 20.835001
-49.291681 54.641232 -2.649514
-49.512522 53.821762 -1.308188
-48.571796 56.724964 -4.549418
-47.964768 58.108715 -5.038137
-49.013759 55.391289 -3.934661
-48.571796 56.724964 -4.549418
-48.766602 56.122101 -5.26252
-49.486486 54.038368 -3.362617
-49.291681 54.641232 -2.649514
-49.013759 55.391289 -3.934661
-46.441648 61.044975 -11.457251
-46.810448 60.56697 -10.227565
-46.682621 60.110271 -12.121054
-46.441648 61.044975 -11.457251
-46.745002 59.254669 -12.657295
-47.14796 58.879814 -11.492885
-46.682621 60.110271 -12.121054
-46.315559 59.526257 -13.757303
-45.825602 59.745644 -14.816992
-46.780899 58.2958 -13.129133
-46.745002 59.254669 -12.657295
-46.315559 59.526257 -13.757303
-24.945873 37.884951 -29.496398
-26.007407 37.646671 -29.14916
-25.691742 39.197881 -29.088521
-24.222516 36.505479 -29.866812
-24.945873 37.884951 -29.496398
-23.620922 35.097155 -30.175878
-24.659944 34.925415 -29.866104
-24.222516 36.505479 -29.866812
-23.052079 33.62093 -30.426707
-23.620922 35.097155 -30.175878
-22.608841 32.126919 -30.627015
-23.615113 32.023079 -30.375479
-23.052079 33.62093 -30.426707
-22.205408 30.562 -30.750017
-22.608841 32.126919 -30.627015
-21.642374 32.159852 -30.801245
-21.925424 28.996415 -30.849268
-22.891891 28.963482 -30.675037
-22.205408 30.562 -30.750017
-20.238231 30.630038 -31.031368
-20.584818 32.272601 -30.990784
-21.004205 28.95299 -30.932283
-20.238231 30.630038 -31.031368
-20.003496 28.988094 -31.039404
-21.925424 28.996415 -30.849268
-21.004205 28.95299 -30.932283
-32.617807 37.051934 -17.749224
-32.410615 36.115412 -17.665686
-32.613474 36.808172 -17.032139
-40.430768 53.359302 -21.030299
-40.889359 52.62207 -20.439796
-41.198101 53.912468 -20.394434
-39.518169 52.739998 -21.58458
-40.430768 53.359302 -21.030299
-39.25705 51.402382 -21.661058
-39.518169 52.739998 -21.58458
-30.397459 45.06341 -26.527369
-31.417286 44.632567 -26.152477
-29.347377 43.981476 -27.079918
-30.397459 45.06341 -26.527369
-28.389126 42.867712 -27.612627
-29.446149 42.499319 -27.240023
-29.347377 43.981476 -27.079918
-27.418616 41.689527 -28.138947
-28.389126 42.867712 -27.612627
-26.551305 40.476551 -28.623222
-27.620587 40.172579 -28.257008
-27.418616 41.689527 -28.138947
-25.691742 39.197881 -29.088521
-26.551305 40.476551 -28.623222
-53.619797 22.063269 15.839223
-52.838068 23.081986 16.681701
-53.619797 22.063269 15.839223
-54.244622 22.074821 14.639527
-55.698043 21.850128 11.19754
-55.303709 21.969982 12.312898
-55.179128 22.931812 12.063985
-56.06929 20.709329 10.392031
-55.698043 21.850128 11.19754
-55.94471 21.67116 10.143118
-56.584934 19.636097 9.587659
-56.338268 19.815065 10.642081
-56.06929 20.709329 10.392031
-56.681683 19.374807 8.645703
-56.584934 19.636097 9.587659
-56.687573 19.068627 7.771211
-56.681683 19.374807 8.645703
-56.321846 20.22418 8.463116
-56.55381 18.664833 7.064538
-56.687573 19.068627 7.771211
-56.312568 18.214913 6.440772
-56.55381 18.664833 7.064538
-56.086495 19.468078 6.964858
-55.949402 17.655969 6.027878
-56.312568 18.214913 6.440772
-55.476517 17.051895 5.705889
-55.949402 17.655969 6.027878
-55.372368 18.414084 6.019103
-54.904736 16.332903 5.616447
-55.476517 17.051895 5.705889
-54.22945 17.048617 5.693075
-54.904736 16.332903 5.616447
-53.637635 17.814916 5.756989
-54.22945 17.048617 5.693075
-54.307667 18.576309 5.761027
-52.945724 18.540029 5.894516
-53.637635 17.814916 5.756989
-53.095269 20.116194 5.934159
-53.810074 20.808837 6.084667
-53.189492 21.582422 6.193885
-52.325142 19.313614 6.003734
-52.945724 18.540029 5.894516
-53.095269 20.116194 5.934159
-53.005932 25.377384 6.743226
-53.468142 24.509748 6.793172
-53.654184 25.96924 7.095446
-52.412695 26.206892 6.78613
-52.664195 27.70973 6.966791
-51.884915 27.079746 6.707422
-53.005932 25.377384 6.743226
-52.412695 26.206892 6.78613
-49.590216 38.883417 18.17071
-49.330588 37.677059 19.01456
-48.788097 39.028009 19.166481
-50.344223 38.699207 17.159827
-49.590216 38.883417 18.17071
-51.118122 38.535978 16.158717
-50.906605 37.369238 17.017679
-50.344223 38.699207 17.159827
-51.255913 39.662711 15.298781
-51.361526 40.798701 14.323901
-51.818295 38.332741 15.156633
-51.118122 38.535978 16.158717
-51.255913 39.662711 15.298781
-50.630756 49.271977 5.15613
-50.406757 50.23198 3.910861
-51.00061 48.859802 4.280267
-50.630756 49.271977 5.15613
-50.795997 48.260883 6.44701
-51.951854 42.729769 11.289592
-51.397717 43.006683 12.272988
-52.251103 43.49514 9.320762
-52.111361 44.537771 8.175931
-52.407295 42.461492 10.344565
-52.251103 43.49514 9.320762
-52.771771 42.154646 9.44236
-52.472522 41.389274 11.41119
-51.951854 42.729769 11.289592
-52.407295 42.461492 10.344565
-47.939667 32.300078 6.005167
-48.613975 31.409197 6.264497
-49.005059 33.010827 6.001907
-47.210391 33.169235 5.81975
-47.638396 34.786562 5.402831
-46.518036 34.054091 5.480004
-46.819308 31.567606 6.08234
-47.939667 32.300078 6.005167
-47.210391 33.169235 5.81975
-44.741476 40.561762 2.33727
-45.369084 39.753422 3.009232
-45.902659 41.24666 2.180027
-44.741476 40.561762 2.33727
-44.099198 41.342308 1.719215
-42.700659 47.14468 -4.712826
-43.145376 46.673077 -3.730633
-43.82259 47.866169 -4.974419
-42.274772 47.564189 -5.668667
-42.979492 48.667751 -6.963366
-41.876392 47.894168 -6.67542
-42.700659 47.14468 -4.712826
-42.274772 47.564189 -5.668667
-37.931027 46.21194 -11.999237
-38.232178 46.418808 -11.040693
-38.885205 47.246696 -12.296228
-37.027962 45.148281 -11.713044
-37.931027 46.21194 -11.999237
-37.680988 45.976169 -12.968579
-36.189518 44.004295 -11.486736
-37.027962 45.148281 -11.713044
-35.990372 43.762333 -12.463988
-36.502522 44.550655 -13.610961
-35.71497 43.400478 -13.392563
-36.189518 44.004295 -11.486736
-35.990372 43.762333 -12.463988
-33.938072 40.251413 -14.876476
-34.196148 40.701387 -14.002031
-34.499439 41.459438 -14.988197
-33.437042 39.102699 -14.748329
-33.938072 40.251413 -14.876476
-33.740334 39.86075 -15.734495
-33.08214 37.834797 -14.780503
-33.437042 39.102699 -14.748329
-32.93928 37.561721 -15.615174
-33.08214 37.834797 -14.780503
-32.729962 37.078051 -16.369838
-32.93928 37.561721 -15.615174
-33.029985 38.228365 -16.361013
-32.613474 36.808172 -17.032139
-32.729962 37.078051 -16.369838
-32.317318 35.259811 -18.086334
-32.410615 36.115412 -17.665686
-32.142133 34.29876 -18.678182
-32.317318 35.259811 -18.086334
-32.239764 35.398121 -18.974619
-32.105507 33.164221 -19.268446
-32.183061 33.025911 -18.380161
-32.142133 34.29876 -18.678182
-31.93961 33.294804 -20.206626
-31.953197 34.586244 -20.503086
-31.828227 33.443979 -21.143245
-32.105507 33.164221 -19.268446
-31.93961 33.294804 -20.206626
-31.368016 29.788891 -23.143831
-31.533009 31.036114 -22.482235
-31.211557 31.16045 -23.376177
-31.368016 29.788891 -23.143831
-31.369935 28.506287 -23.908968
-31.320681 24.674751 -26.156992
-31.339555 25.954579 -25.429819
-30.84716 26.062786 -26.149067
-31.320681 24.674751 -26.156992
-31.423265 23.473371 -27.048706
-24.211993 25.935747 -30.572802
-23.490043 27.438005 -30.608781
-23.333857 25.895637 -30.738308
-30.303371 22.31693 -28.892414
-30.315193 23.597859 -28.261629
-29.713428 23.598364 -28.743044
-30.977159 21.16583 -29.224711
-30.303371 22.31693 -28.892414
-30.375395 21.166336 -29.706125
-31.655317 19.994456 -29.583069
-31.583294 21.14505 -28.769357
-30.977159 21.16583 -29.224711
-31.655317 19.994456 -29.583069
-31.765848 19.036022 -30.595664
3 0 64 62
3 2 67 65
3 2 69 67
3 3 72 70
3 3 74 72
3 3 76 74
3 0 79 77
3 0 62 79
3 1 83 81
3 258 86 259
3 260 88 261
3 262 261 86
3 260 261 262
3 263 90 264
3 265 92 266
3 267 266 90
3 265 266 267
3 6 96 94
3 268 99 269
3 270 269 97
3 268 269 270
3 272 271 99
3 4 103 101
3 8 106 104
3 8 108 106
3 8 110 108
3 9 113 111
3 9 114 113
3 10 117 115
3 10 119 117
3 10 121 119
3 11 124 122
3 11 273 275
3 275 274 124
3 273 274 275
3 11 276 277
3 5 128 126
3 12 131 129
3 12 278 280
3 280 279 131
3 278 279 280
3 12 281 282
3 6 134 132
3 6 94 134
3 7 138 136
3 13 141 139
3 13 143 141
3 283 146 284
3 285 284 144
3 283 284 285
3 286 149 287
3 288 287 147
3 286 287 288
3 290 289 149
3 14 153 151
3 291 154 292
3 293 292 63
3 291 292 293
3 295 294 154
3 16 157 155
3 18 158 66
3 18 159 158
3 18 161 159
3 20 162 68
3 20 163 162
3 21 296 298
3 296 164 297
3 296 297 298
3 23 165 71
3 23 166 165
3 23 168 166
3 25 169 73
3 25 170 169
3 25 172 170
3 26 173 75
3 26 174 173
3 27 177 175
3 29 178 78
3 29 179 178
3 29 181 179
3 14 182 80
3 14 151 182
3 31 185 183
3 33 186 82
3 33 187 186
3 35 189 84
3 35 299 301
3 301 300 189
3 299 300 301
3 35 302 303
3 305 304 190
3 36 306 308
3 306 191 307
3 306 307 308
3 36 192 191
3 37 193 85
3 37 194 193
3 37 195 194
3 38 196 87
3 38 197 196
3 39 198 89
3 39 199 198
3 39 201 199
3 41 202 91
3 41 203 202
3 42 309 311
3 309 204 310
3 309 310 311
3 42 205 204
3 42 206 205
3 312 207 313
3 314 313 93
3 312 313 314
3 315 190 316
3 317 316 207
3 315 316 317
3 318 209 319
3 44 212 210
3 46 213 95
3 46 214 213
3 15 215 152
3 47 216 98
3 47 217 216
3 47 218 217
3 48 219 100
3 48 220 219
3 49 320 322
3 322 321 102
3 320 321 322
3 49 323 324
3 17 221 156
3 50 222 105
3 50 223 222
3 50 224 223
3 51 225 107
3 51 226 225
3 51 227 226
3 326 325 109
3 19 228 160
3 328 327 112
3 52 329 331
3 329 229 330
3 329 330 331
3 52 230 229
3 22 332 333
3 335 334 116
3 53 231 118
3 53 232 231
3 53 233 232
3 54 234 120
3 54 235 234
3 24 236 167
3 55 237 123
3 55 238 237
3 55 239 238
3 337 336 125
3 339 338 171
3 40 240 200
3 56 241 127
3 56 242 241
3 28 243 176
3 340 244 341
3 342 341 130
3 340 341 342
3 344 343 244
3 30 245 180
3 57 345 347
3 347 346 133
3 345 346 347
3 57 348 349
3 57 350 351
3 44 246 135
3 44 210 246
3 45 247 211
3 58 352 354
3 354 353 137
3 352 353 354
3 58 355 356
3 32 248 184
3 59 249 140
3 59 357 359
3 359 358 249
3 357 358 359
3 59 360 361
3 363 362 142
3 43 250 208
3 60 251 145
3 60 252 251
3 34 253 188
3 61 254 148
3 61 255 254
3 61 256 255
3 364 257 365
3 366 365 150
3 364 365 366
3 368 367 257
3 62 63 14
3 64 63 62
3 64 369 371
3 371 370 63
3 369 370 371
3 65 66 16
3 67 66 65
3 67 18 66
3 67 68 18
3 69 68 67
3 69 20 68
3 70 71 21
3 72 71 70
3 72 23 71
3 72 73 23
3 74 73 72
3 74 25 73
3 74 75 25
3 76 75 74
3 76 26 75
3 77 78 27
3 79 78 77
3 79 29 78
3 79 80 29
3 62 80 79
3 62 14 80
3 81 82 31
3 83 82 81
3 83 33 82
3 372 84 373
3 374 84 375
3 376 35 377
3 378 377 84
3 376 377 378
3 381 380 35
3 379 380 381
3 382 36 383
3 382 383 384
3 385 85 386
3 86 387 389
3 387 85 388
3 387 388 389
3 86 37 85
3 86 87 37
3 88 87 86
3 88 38 87
3 390 89 391
3 90 392 394
3 392 89 393
3 392 393 394
3 90 39 89
3 90 91 39
3 92 91 90
3 92 41 91
3 395 42 396
3 397 93 398
3 399 398 42
3 397 398 399
3 400 93 401
3 403 402 93
3 94 95 44
3 96 95 94
3 96 46 95
3 97 98 15
3 99 98 97
3 99 47 98
3 99 100 47
3 404 100 405
3 406 405 99
3 404 405 406
3 407 48 408
3 409 408 100
3 407 408 409
3 101 410 412
3 410 102 411
3 410 411 412
3 103 102 101
3 103 49 102
3 104 105 17
3 106 105 104
3 106 50 105
3 106 107 50
3 108 107 106
3 108 51 107
3 108 109 51
3 110 109 108
3 110 413 415
3 415 414 109
3 413 414 415
3 111 112 19
3 113 112 111
3 113 416 418
3 418 417 112
3 416 417 418
3 113 419 420
3 114 421 423
3 423 422 113
3 421 422 423
3 114 424 425
3 426 52 427
3 115 116 22
3 117 116 115
3 117 428 430
3 430 429 116
3 428 429 430
3 117 431 433
3 431 118 432
3 431 432 433
3 119 118 117
3 119 53 118
3 119 120 53
3 121 120 119
3 121 54 120
3 122 123 24
3 124 123 122
3 124 55 123
3 124 125 55
3 434 125 435
3 436 435 124
3 434 435 436
3 438 437 125
3 126 127 40
3 128 127 126
3 128 56 127
3 129 130 28
3 131 130 129
3 131 439 441
3 441 440 130
3 439 440 441
3 131 442 443
3 445 444 131
3 132 133 30
3 134 133 132
3 134 57 133
3 134 135 57
3 94 135 134
3 94 44 135
3 136 137 45
3 138 137 136
3 138 58 137
3 139 140 32
3 141 140 139
3 141 59 140
3 141 142 59
3 143 142 141
3 143 446 448
3 448 447 142
3 446 447 448
3 144 145 43
3 146 145 144
3 146 60 145
3 147 148 34
3 149 148 147
3 149 61 148
3 149 150 61
3 449 150 450
3 451 450 149
3 449 450 451
3 453 452 150
3 151 152 6
3 153 152 151
3 153 15 152
3 63 153 14
3 154 153 63
3 154 15 153
3 154 97 15
3 454 97 455
3 456 455 154
3 454 455 456
3 458 457 97
3 155 156 4
3 157 156 155
3 157 17 156
3 66 157 16
3 158 157 66
3 158 17 157
3 158 104 17
3 159 104 158
3 159 8 104
3 159 160 8
3 161 160 159
3 161 19 160
3 68 161 18
3 162 161 68
3 162 19 161
3 162 111 19
3 163 111 162
3 163 9 111
3 164 459 460
3 164 461 463
3 461 22 462
3 461 462 463
3 71 164 21
3 165 164 71
3 165 22 164
3 165 115 22
3 166 115 165
3 166 10 115
3 166 167 10
3 168 167 166
3 168 24 167
3 73 168 23
3 169 168 73
3 169 24 168
3 169 122 24
3 170 122 169
3 170 11 122
3 170 171 11
3 172 171 170
3 172 464 466
3 466 465 171
3 464 465 466
3 75 172 25
3 173 172 75
3 173 467 469
3 469 468 172
3 467 468 469
3 173 470 471
3 174 472 474
3 474 473 173
3 472 473 474
3 174 475 476
3 175 176 5
3 177 176 175
3 177 28 176
3 78 177 27
3 178 177 78
3 178 28 177
3 178 129 28
3 179 129 178
3 179 12 129
3 179 180 12
3 181 180 179
3 181 30 180
3 80 181 29
3 182 181 80
3 182 30 181
3 182 132 30
3 151 132 182
3 151 6 132
3 183 184 7
3 185 184 183
3 185 32 184
3 82 185 31
3 186 185 82
3 186 32 185
3 186 139 32
3 187 139 186
3 187 13 139
3 477 188 478
3 479 188 480
3 481 34 482
3 483 482 188
3 481 482 483
3 84 484 485
3 189 486 488
3 488 487 84
3 486 487 488
3 189 489 491
3 489 34 490
3 489 490 491
3 189 147 34
3 492 147 493
3 494 493 189
3 492 493 494
3 496 495 147
3 498 497 35
3 190 499 501
3 501 500 0
3 499 500 501
3 503 502 190
3 191 504 505
3 191 506 507
3 191 508 510
3 508 101 509
3 508 509 510
3 192 101 191
3 192 4 101
3 511 36 512
3 85 513 514
3 193 515 517
3 517 516 85
3 515 516 517
3 193 518 520
3 518 36 519
3 518 519 520
3 193 192 36
3 194 192 193
3 194 4 192
3 194 155 4
3 195 155 194
3 195 16 155
3 87 195 37
3 196 195 87
3 196 16 195
3 196 65 16
3 197 65 196
3 197 2 65
3 521 21 522
3 89 523 524
3 198 525 527
3 527 526 89
3 525 526 527
3 198 528 530
3 528 21 529
3 528 529 530
3 198 70 21
3 199 70 198
3 199 3 70
3 199 200 3
3 201 200 199
3 201 40 200
3 91 201 39
3 202 201 91
3 202 40 201
3 202 126 40
3 203 126 202
3 203 5 126
3 531 92 532
3 533 92 534
3 535 41 536
3 537 536 92
3 535 536 537
3 204 538 539
3 204 540 542
3 540 41 541
3 540 541 542
3 204 203 41
3 205 203 204
3 205 5 203
3 205 175 5
3 206 175 205
3 206 27 175
3 93 206 42
3 207 206 93
3 207 27 206
3 207 77 27
3 190 77 207
3 190 0 77
3 543 208 544
3 545 544 1
3 543 544 545
3 546 208 547
3 548 43 549
3 550 549 208
3 548 549 550
3 551 43 552
3 553 144 554
3 555 554 43
3 553 554 555
3 209 556 558
3 556 144 557
3 556 557 558
3 209 559 561
3 561 560 144
3 559 560 561
3 562 209 563
3 564 209 565
3 564 565 566
3 568 567 209
3 210 569 571
3 569 211 570
3 569 570 571
3 212 211 210
3 212 45 211
3 95 212 44
3 213 212 95
3 213 45 212
3 213 136 45
3 214 136 213
3 214 7 136
3 152 96 6
3 215 96 152
3 215 46 96
3 98 215 15
3 216 215 98
3 216 46 215
3 216 214 46
3 217 214 216
3 217 7 214
3 217 183 7
3 218 183 217
3 218 31 183
3 100 218 47
3 219 218 100
3 219 31 218
3 219 81 31
3 220 81 219
3 220 1 81
3 572 64 573
3 574 573 0
3 572 573 574
3 575 64 576
3 578 577 64
3 579 48 580
3 581 48 582
3 583 220 584
3 585 584 48
3 583 584 585
3 586 220 587
3 588 1 589
3 590 589 220
3 588 589 590
3 592 591 1
3 102 593 594
3 596 595 102
3 156 103 4
3 221 103 156
3 221 49 103
3 105 221 17
3 222 221 105
3 222 49 221
3 222 597 599
3 599 598 49
3 597 598 599
3 223 600 602
3 602 601 222
3 600 601 602
3 223 603 605
3 603 604 605
3 223 606 607
3 224 608 610
3 610 609 223
3 608 609 610
3 224 611 612
3 107 224 50
3 225 224 107
3 225 613 615
3 615 614 224
3 613 614 615
3 225 616 617
3 226 618 620
3 620 619 225
3 618 619 620
3 226 621 622
3 226 623 624
3 227 625 627
3 627 626 226
3 625 626 627
3 227 628 629
3 109 227 51
3 630 227 631
3 632 631 109
3 630 631 632
3 635 634 227
3 633 634 635
3 160 110 8
3 228 110 160
3 228 636 638
3 638 637 110
3 636 637 638
3 112 228 19
3 639 228 640
3 641 640 112
3 639 640 641
3 643 642 228
3 644 88 645
3 644 645 646
3 647 88 648
3 649 38 650
3 651 650 88
3 649 650 651
3 229 652 653
3 229 654 656
3 654 38 655
3 654 655 656
3 229 197 38
3 230 197 229
3 230 2 197
3 116 657 659
3 659 658 22
3 657 658 659
3 661 660 116
3 662 52 663
3 118 664 665
3 231 666 668
3 668 667 118
3 666 667 668
3 231 669 671
3 669 52 670
3 669 670 671
3 231 230 52
3 232 230 231
3 232 2 230
3 232 69 2
3 233 69 232
3 233 20 69
3 120 233 53
3 234 233 120
3 234 20 233
3 234 163 20
3 235 163 234
3 235 9 163
3 167 121 10
3 236 121 167
3 236 54 121
3 123 236 24
3 237 236 123
3 237 54 236
3 237 235 54
3 238 235 237
3 238 9 235
3 238 114 9
3 239 114 238
3 239 672 674
3 674 673 114
3 672 673 674
3 125 239 55
3 675 239 676
3 677 676 125
3 675 676 677
3 680 679 239
3 678 679 680
3 171 681 683
3 683 682 11
3 681 682 683
3 685 684 171
3 200 76 3
3 240 76 200
3 240 26 76
3 127 240 40
3 241 240 127
3 241 26 240
3 241 174 26
3 242 174 241
3 242 686 688
3 688 687 174
3 686 687 688
3 176 128 5
3 243 128 176
3 243 56 128
3 130 243 28
3 244 243 130
3 244 56 243
3 244 242 56
3 689 242 690
3 691 690 244
3 689 690 691
3 693 692 242
3 180 694 696
3 696 695 12
3 694 695 696
3 245 697 699
3 699 698 180
3 697 698 699
3 245 700 701
3 133 245 30
3 702 245 703
3 704 703 133
3 702 703 704
3 706 705 245
3 135 707 709
3 709 708 57
3 707 708 709
3 246 710 712
3 712 711 135
3 710 711 712
3 246 713 714
3 246 715 716
3 210 717 719
3 719 718 246
3 717 718 719
3 210 720 721
3 211 722 723
3 247 724 726
3 726 725 211
3 724 725 726
3 247 727 729
3 727 728 729
3 137 247 45
3 730 247 731
3 732 731 137
3 730 731 732
3 734 733 247
3 184 138 7
3 248 138 184
3 248 58 138
3 140 248 32
3 249 248 140
3 249 58 248
3 249 735 737
3 737 736 58
3 735 736 737
3 739 738 249
3 142 740 742
3 742 741 59
3 740 741 742
3 744 743 142
3 208 83 1
3 250 83 208
3 250 33 83
3 145 250 43
3 251 250 145
3 251 33 250
3 251 187 33
3 252 187 251
3 252 13 187
3 188 745 747
3 745 146 746
3 745 746 747
3 253 146 188
3 253 60 146
3 148 253 34
3 254 253 148
3 254 60 253
3 254 252 60
3 255 252 254
3 255 13 252
3 255 143 13
3 256 143 255
3 256 748 750
3 750 749 143
3 748 749 750
3 150 256 61
3 257 256 150
3 257 751 753
3 753 752 256
3 751 752 753
3 257 754 756
3 754 755 756
3 758 757 257
