ply
format ascii 1.0
element vertex 98
property float x
property float y
property float z
element face 82
property list uchar int vertex_index
end_header
51.582611 -82.377319 -21.657412
53.87896 -75.118759 -24.076361
49.047615 -81.853195 -23.968767
53.330784 -82.240067 -18.390947
50.050468 -77.967712 -24.906805
50.428452 -85.930969 -20.525583
51.312984 -85.799965 -18.844992
52.55785 -82.388969 -20.137403
52.738861 -78.771744 -22.832769
53.821976 -78.920151 -21.463472
55.071068 -75.40274 -22.84355
49.334213 -85.892593 -21.950502
48.040771 -85.685257 -23.108782
50.404377 -82.198334 -22.932196
51.469467 -78.453491 -23.972715
52.526119 -74.65889 -25.099981
54.704643 -78.904495 -19.866259
55.397224 -78.743454 -18.066866
48.179756 -87.671268 -22.119136
48.800525 -87.704811 -21.470022
48.544193 -83.769226 -23.538775
47.311872 -85.498848 -23.562489
47.815294 -83.582817 -23.992481
51.791929 -74.343391 -25.525868
51.288294 -76.313301 -25.003393
50.554103 -75.997803 -25.429279
52.316547 -72.415065 -26.140404
53.050737 -72.730564 -25.714517
51.791929 -74.343391 -25.525868
52.666531 -83.873718 -17.667724
51.65763 -85.653667 -17.894747
52.321884 -84.020016 -18.61797
53.627707 -82.094773 -17.424507
52.666531 -83.873718 -17.667724
55.389679 -77.209664 -20.626335
54.263309 -78.912323 -20.664865
54.948346 -77.217491 -21.424942
56.459817 -77.027489 -17.9651
56.141506 -77.108249 -18.891188
56.725622 -76.890773 -16.985905
55.663028 -78.606739 -17.087671
56.459817 -77.027489 -17.9651
55.078709 -73.473034 -24.180296
54.435236 -73.262528 -24.737955
48.302219 -81.599357 -24.383139
47.815294 -83.582817 -23.992481
48.803646 -79.656616 -24.852157
49.549042 -79.910454 -24.437786
48.302219 -81.599357 -24.383139
49.291387 -77.643471 -25.291849
48.803646 -79.656616 -24.852157
50.554103 -75.997803 -25.429279
49.291387 -77.643471 -25.291849
50.870718 -85.865467 -19.685288
50.305549 -87.603817 -19.123747
49.863284 -87.669319 -19.964042
55.572891 -75.458786 -22.114981
54.948346 -77.217491 -21.424942
54.446522 -77.161445 -22.153511
55.674763 -73.615025 -23.56389
54.475014 -75.26075 -23.459955
55.078709 -73.473034 -24.180296
56.234669 -73.734371 -22.898506
55.674763 -73.615025 -23.56389
55.572891 -75.458786 -22.114981
56.234669 -73.734371 -22.898506
49.347645 -87.723999 -20.757562
49.863284 -87.669319 -19.964042
49.881332 -85.911781 -21.238042
49.347645 -87.723999 -20.757562
48.800525 -87.704811 -21.470022
46.818664 -87.447521 -23.202416
47.311872 -85.498848 -23.562489
47.533035 -87.5676 -22.698276
46.818664 -87.447521 -23.202416
48.687492 -85.788925 -22.529642
48.179756 -87.671268 -22.119136
47.533035 -87.5676 -22.698276
53.758815 -73.032593 -25.249765
54.435236 -73.262528 -24.737955
53.20254 -74.888824 -24.588171
53.758815 -73.032593 -25.249765
53.050737 -72.730564 -25.714517
50.717531 -87.461345 -18.200488
50.305549 -87.603817 -19.123747
50.717531 -87.461345 -18.200488
51.65763 -85.653667 -17.894747
55.795215 -77.18877 -19.790884
55.389679 -77.209664 -20.626335
55.050933 -78.823974 -18.966563
55.795215 -77.18877 -19.790884
56.141506 -77.108249 -18.891188
54.660927 -80.346466 -17.262467
53.627707 -82.094773 -17.424507
54.364004 -80.49176 -18.228907
54.926731 -80.209751 -16.283272
54.660927 -80.346466 -17.262467
55.663028 -78.606739 -17.087671
3 0 7 5
3 1 10 8
3 18 11 19
3 2 20 22
3 20 12 21
3 20 21 22
3 2 13 12
3 2 14 13
3 23 15 24
3 25 24 4
3 23 24 25
3 28 27 15
3 26 27 28
3 3 29 31
3 31 30 6
3 29 30 31
3 3 32 33
3 34 16 35
3 36 35 9
3 34 35 36
3 37 17 38
3 41 40 17
3 39 40 41
3 43 42 1
3 44 2 45
3 46 4 47
3 48 47 2
3 46 47 48
3 49 4 50
3 52 51 4
3 5 53 55
3 53 6 54
3 53 54 55
3 7 6 5
3 7 3 6
3 8 9 0
3 10 9 8
3 10 56 58
3 58 57 9
3 56 57 58
3 59 10 60
3 61 60 1
3 59 60 61
3 62 10 63
3 65 64 10
3 66 5 67
3 11 68 70
3 68 5 69
3 68 69 70
3 11 0 5
3 12 71 72
3 12 73 74
3 12 75 77
3 75 11 76
3 75 76 77
3 13 11 12
3 13 0 11
3 13 8 0
3 14 8 13
3 14 1 8
3 4 14 2
3 15 14 4
3 15 1 14
3 15 78 80
3 80 79 1
3 78 79 80
3 82 81 15
3 6 83 84
3 86 85 6
3 9 7 0
3 16 7 9
3 16 3 7
3 87 16 88
3 17 89 91
3 89 16 90
3 89 90 91
3 17 3 16
3 17 92 94
3 94 93 3
3 92 93 94
3 97 96 17
3 95 96 97
