ply
format ascii 1.0
element vertex 109
property float x
property float y
property float z
element face 93
property list uchar int vertex_index
end_header
-12.786459 85.963272 -13.172527
-21.97467 82.212433 -2.672215
-19.321136 83.177872 -13.208656
-17.490376 84.781891 -7.988592
-16.164055 85.624069 -2.024689
-11.671747 87.604385 -7.131792
-15.950333 84.658081 -13.290766
-20.672699 83.15979 -8.079908
-19.782854 83.625244 -5.349087
-15.650721 85.787643 1.173127
-13.469749 87.149094 -1.335098
-13.917871 86.822479 -4.586248
-11.287268 88.096466 -3.834021
-9.924095 86.98494 -12.802464
-18.342806 84.09407 -10.706007
-15.139723 85.591324 -10.596264
-21.162632 82.344696 0.186112
-18.353315 84.101044 0.554413
-19.014954 83.936417 -2.464525
-16.768501 85.286041 -5.086092
-14.465956 86.303818 -7.683193
-12.162998 86.8974 -10.257421
-13.169319 85.365555 -14.502931
-14.751256 84.712959 -14.562051
-14.368396 85.310676 -13.231647
-22.435482 82.078544 -4.039724
-23.479536 81.371223 -2.676837
-20.878762 82.918838 -4.010651
-21.339574 82.78495 -5.378159
-22.435482 82.078544 -4.039724
-12.22248 87.757149 -0.865161
-13.278976 87.206971 0.355423
-11.131239 88.230835 -2.114622
-12.378508 87.62278 -2.58456
-12.22248 87.757149 -0.865161
-10.107498 88.531731 -3.333099
-11.131239 88.230835 -2.114622
-19.861784 82.573341 -14.336867
-21.059043 82.386818 -13.098861
-8.869549 86.745812 -14.051872
-8.68411 87.293953 -12.475946
-20.802206 82.342667 1.669554
-22.172738 81.465309 1.527157
-10.581606 87.745155 -8.394545
-10.827231 87.391662 -9.95736
-11.917372 87.250892 -8.694607
-16.420431 84.056198 -14.509887
-18.105833 83.316093 -14.468832
-17.635734 83.917976 -13.249711
-16.420431 84.056198 -14.509887
-14.751256 84.712959 -14.562051
-21.784497 82.552223 -6.74357
-22.302112 82.337395 -8.041307
-20.227777 83.392517 -6.714498
-21.784497 82.552223 -6.74357
-21.339574 82.78495 -5.378159
-14.369462 86.526245 1.609536
-15.423535 85.768669 2.830607
-14.560235 86.468368 -0.080985
-14.369462 86.526245 1.609536
-13.278976 87.206971 0.355423
-10.229219 88.321083 -5.0774
-10.421459 88.075042 -6.726285
-11.479508 87.850426 -5.482907
-10.229219 88.321083 -5.0774
-10.107498 88.531731 -3.333099
-23.006043 81.417321 -1.312453
-23.479536 81.371223 -2.676837
-19.861784 82.573341 -14.336867
-18.105833 83.316093 -14.468832
-10.209447 86.403176 -14.255482
-11.640629 85.892342 -14.440514
-11.355277 86.474106 -12.987496
-10.209447 86.403176 -14.255482
-8.869549 86.745812 -14.051872
-20.50241 82.84079 -11.921791
-21.059043 82.386818 -13.098861
-21.178192 82.831749 -9.357417
-22.302112 82.337395 -8.041307
-20.013246 83.298889 -10.670466
-21.178192 82.831749 -9.357417
-19.507753 83.62693 -9.392957
-18.831971 83.635971 -11.957331
-20.50241 82.84079 -11.921791
-20.013246 83.298889 -10.670466
-22.600024 81.483452 0.116711
-22.172738 81.465309 1.527157
-21.568651 82.278565 -1.243051
-23.006043 81.417321 -1.312453
-22.600024 81.483452 0.116711
-16.710942 84.945107 2.43177
-15.423535 85.768669 2.830607
-18.062238 84.101807 2.122413
-16.710942 84.945107 2.43177
-17.002018 84.944344 0.86377
-19.397548 83.220841 1.853704
-18.062238 84.101807 2.122413
-19.757973 83.22287 0.370263
-20.802206 82.342667 1.669554
-19.397548 83.220841 1.853704
-9.70778 87.435432 -11.229882
-11.043546 86.94117 -11.529943
-10.827231 87.391662 -9.95736
-8.68411 87.293953 -12.475946
-9.70778 87.435432 -11.229882
-10.581606 87.745155 -8.394545
-10.421459 88.075042 -6.726285
-13.169319 85.365555 -14.502931
-11.640629 85.892342 -14.440514
3 0 22 24
3 24 23 6
3 22 23 24
3 1 25 26
3 1 27 29
3 27 8 28
3 27 28 29
3 30 10 31
3 32 12 33
3 34 33 10
3 32 33 34
3 36 35 12
3 2 37 38
3 40 39 13
3 3 14 7
3 3 15 14
3 41 16 42
3 4 17 9
3 4 18 17
3 4 19 18
3 5 20 11
3 5 21 20
3 5 43 45
3 45 44 21
3 43 44 45
3 6 46 48
3 48 47 2
3 46 47 48
3 50 49 6
3 51 7 52
3 8 53 55
3 53 7 54
3 53 54 55
3 8 3 7
3 56 9 57
3 10 58 60
3 58 9 59
3 58 59 60
3 10 4 9
3 10 11 4
3 12 11 10
3 12 5 11
3 12 61 63
3 63 62 5
3 61 62 63
3 65 64 12
3 66 1 67
3 69 68 2
3 13 70 72
3 72 71 0
3 70 71 72
3 74 73 13
3 75 2 76
3 7 77 78
3 14 79 81
3 81 80 7
3 79 80 81
3 14 82 84
3 82 2 83
3 82 83 84
3 14 6 2
3 15 6 14
3 15 0 6
3 16 85 86
3 16 87 89
3 87 1 88
3 87 88 89
3 9 90 91
3 17 92 94
3 94 93 9
3 92 93 94
3 17 95 96
3 17 97 99
3 97 16 98
3 97 98 99
3 18 16 17
3 18 1 16
3 18 8 1
3 19 8 18
3 19 3 8
3 11 19 4
3 20 19 11
3 20 3 19
3 20 15 3
3 21 15 20
3 21 0 15
3 21 13 0
3 100 13 101
3 102 101 21
3 100 101 102
3 104 103 13
3 106 105 5
3 108 107 0
