ply
format ascii 1.0
element vertex 97
property float x
property float y
property float z
element face 74
property list uchar int vertex_index
end_header
0.865461 4.054701 66.983788
0.886011 12.22455 66.229156
1.628479 14.170349 61.211929
2.111996 16.151566 56.246246
0.411201 2.943499 69.253563
1.331226 5.1231 64.690758
1.266998 13.206985 63.726379
0.477753 7.090767 69.087181
0.877176 8.158237 66.728699
1.297089 9.180832 64.333923
1.683733 10.18033 61.931
1.987047 11.182791 59.544067
1.923605 15.142487 58.712585
0.864214 1.984326 67.002167
0.637084 1.428726 68.137055
0.638331 3.4991 68.118675
1.123431 2.542511 65.89901
0.864214 1.984326 67.002167
1.098343 4.5889 65.837273
1.356314 3.07671 64.752495
1.123431 2.542511 65.89901
0.371466 8.598141 70.076324
0.314078 6.526483 70.233799
0.506714 9.144236 68.887268
0.371466 8.598141 70.076324
2.0178 15.647026 57.479416
1.896129 17.114456 58.174415
1.990324 17.618996 56.941246
2.138599 14.184008 56.71817
2.044403 13.679468 57.95134
2.0178 15.647026 57.479416
2.150065 14.730242 55.561332
2.138599 14.184008 56.71817
0.379779 0.851926 69.237518
0.185167 0.2695 70.349713
0.216588 2.361073 70.365757
0.379779 0.851926 69.237518
0.637084 1.428726 68.137055
1.586882 3.621814 63.655201
1.356314 3.07671 64.752495
1.541122 5.644287 63.543953
1.586882 3.621814 63.655201
1.073918 14.733482 64.600456
1.076504 12.715768 64.977767
0.883425 14.242265 65.851844
1.248334 15.207895 63.295433
1.073918 14.733482 64.600456
1.429075 15.689577 62.038208
1.447739 13.688667 62.469154
1.248334 15.207895 63.295433
2.093414 18.110556 55.655868
1.990324 17.618996 56.941246
2.137271 16.687588 55.033337
2.093414 18.110556 55.655868
0.280803 4.45285 70.31699
0.216588 2.361073 70.365757
0.444477 5.017133 69.170372
0.280803 4.45285 70.31699
0.314078 6.526483 70.233799
0.706425 9.677971 67.708027
0.677464 7.624502 67.90794
0.506714 9.144236 68.887268
0.710843 11.711127 67.458256
0.881593 10.191394 66.478927
0.706425 9.677971 67.708027
0.729988 13.746329 67.132351
0.710843 11.711127 67.458256
0.883425 14.242265 65.851844
0.729988 13.746329 67.132351
1.524053 7.673153 63.365536
1.541122 5.644287 63.543953
1.314157 7.151966 64.51234
1.717375 8.172902 62.164074
1.524053 7.673153 63.365536
1.490411 9.680581 63.132461
1.877312 8.692265 61.027328
1.717375 8.172902 62.164074
2.02897 9.193495 59.833862
1.877312 8.692265 61.027328
1.83539 10.68156 60.737533
2.116851 9.724238 58.714928
2.02897 9.193495 59.833862
1.601087 16.156023 60.727031
1.429075 15.689577 62.038208
1.748651 16.642092 59.477359
1.896129 17.114456 58.174415
1.776042 14.656418 59.962257
1.601087 16.156023 60.727031
1.748651 16.642092 59.477359
2.076124 11.69962 58.367081
1.955326 13.162639 59.128326
2.044403 13.679468 57.95134
2.116851 9.724238 58.714928
2.076124 11.69962 58.367081
2.175339 15.266264 54.348423
2.150065 14.730242 55.561332
2.137271 16.687588 55.033337
3 0 13 15
3 15 14 4
3 13 14 15
3 0 16 17
3 0 18 20
3 18 5 19
3 18 19 20
3 21 7 22
3 24 23 7
3 1 9 8
3 2 10 6
3 2 11 10
3 3 25 27
3 25 12 26
3 25 26 27
3 3 28 30
3 30 29 12
3 28 29 30
3 3 31 32
3 4 33 35
3 33 34 35
3 37 36 4
3 5 38 39
3 5 40 41
3 42 6 43
3 44 43 1
3 42 43 44
3 45 6 46
3 47 2 48
3 49 48 6
3 47 48 49
3 50 3 51
3 53 52 3
3 54 4 55
3 7 56 58
3 56 4 57
3 56 57 58
3 7 0 4
3 7 8 0
3 59 8 60
3 61 60 7
3 59 60 61
3 62 1 63
3 64 63 8
3 62 63 64
3 65 1 66
3 68 67 1
3 8 5 0
3 9 5 8
3 9 69 71
3 71 70 5
3 69 70 71
3 6 9 1
3 10 9 6
3 10 72 74
3 74 73 9
3 72 73 74
3 10 75 76
3 11 77 79
3 79 78 10
3 77 78 79
3 11 80 81
3 82 2 83
3 12 84 85
3 12 86 88
3 86 2 87
3 86 87 88
3 12 11 2
3 89 11 90
3 91 90 12
3 89 90 91
3 93 92 11
3 96 95 3
3 94 95 96
