ply
format ascii 1.0
element vertex 563
property float x
property float y
property float z
element face 545
property list uchar int vertex_index
end_header
52.572174 43.289768 1.791972
54.830681 33.506935 15.139504
51.473625 53.578568 -5.606697
47.220535 54.726784 -13.422504
28.197561 35.128887 -28.282503
31.89839 23.56945 -29.512476
56.280018 38.873962 8.346491
33.918861 44.344112 -23.644773
41.055084 51.244164 -19.044291
52.334118 37.569599 4.579227
52.395519 48.531067 -1.839567
49.964645 50.027313 -5.5121
49.53849 45.153931 -1.149675
31.101881 34.144939 -25.800409
29.683651 29.174137 -28.311827
32.364414 28.050583 -26.178377
56.22813 36.363567 11.829028
56.718315 32.942413 9.046719
56.863907 30.349213 11.538561
44.469658 50.284889 -12.244444
44.364254 53.565018 -16.51309
41.613773 48.615288 -15.16765
38.707893 45.933609 -17.840536
49.58989 54.651321 -9.730436
47.265182 50.726288 -9.000563
24.51651 35.665569 -30.217726
29.01964 23.844486 -30.493513
54.253468 46.600441 2.075733
54.964775 41.15818 4.940167
55.225182 44.434402 6.28862
55.107372 42.042603 10.662028
55.120007 35.313824 6.700931
27.059729 41.119434 -28.313986
30.723396 40.053993 -26.048525
33.223351 38.611008 -23.119425
37.473827 48.083733 -21.32102
35.844086 42.545109 -20.449896
50.893784 41.542385 2.075253
50.645348 38.652325 3.584949
52.48444 40.50053 3.327242
52.556923 45.955856 0.040083
51.235985 46.863358 -1.648607
51.105911 44.271839 0.306839
49.198128 42.50515 0.841825
32.267502 33.402584 -24.356188
31.589304 31.102646 -25.836115
55.679955 34.983494 13.516178
56.578117 33.390682 11.862485
56.059868 31.986568 13.326954
43.049595 49.595665 -13.746052
49.872063 56.67585 -9.504318
50.595505 54.216858 -7.710747
48.345703 48.2575 -4.929871
48.633774 50.501419 -7.280508
46.865776 48.640694 -6.548836
26.444876 35.433441 -29.310087
25.512585 32.595745 -30.096678
27.264812 32.423824 -29.225996
30.701048 26.278469 -28.698309
29.261549 26.540627 -29.447439
30.471945 23.801384 -30.049681
54.866409 45.542519 4.147772
54.621525 40.733879 12.811973
53.619774 49.236572 0.446042
55.780342 40.036697 6.617798
55.094482 38.292984 5.989019
55.993767 37.144405 7.413429
56.815601 29.848003 8.873598
56.119217 31.055309 7.940697
30.613131 42.969692 -26.078936
32.255772 42.273235 -24.847216
32.122898 39.389713 -24.676451
33.546555 41.503277 -23.417707
47.848846 57.020851 -13.480118
46.592804 56.74295 -15.220121
42.758698 52.531967 -17.833628
43.572968 55.216896 -18.132196
39.281555 49.747719 -20.19145
37.260448 44.312897 -19.141905
35.113857 39.66869 -19.942621
52.046261 51.057182 -3.751574
51.034378 51.789078 -5.751032
51.230717 49.353737 -3.700119
49.816032 47.647354 -3.299397
47.927841 45.887032 -2.605169
29.750673 34.710869 -27.114447
28.86034 32.145088 -28.224672
30.297297 31.716484 -27.090193
31.068354 28.720619 -27.289843
32.084194 25.807491 -27.857447
56.432926 37.655426 10.095437
56.55632 35.955647 8.883872
56.752602 34.710011 10.375437
56.973614 31.680557 10.280743
57.153107 28.588223 9.872414
46.061764 52.492554 -12.990051
45.853981 54.303963 -15.047789
44.635525 51.934845 -14.533268
43.139183 51.073418 -15.955599
41.578556 49.939369 -17.274729
39.967213 48.575226 -18.521833
40.163994 47.380447 -16.524488
55.255943 30.495647 14.764886
48.939331 56.987099 -11.564869
48.464745 54.834641 -11.643148
49.912292 52.344902 -7.687168
48.702293 52.675423 -9.550917
47.417305 52.735413 -11.32498
45.874989 50.661659 -10.659872
43.983135 48.552231 -9.736996
23.624554 32.709854 -30.848574
24.848589 29.617176 -30.675016
26.149162 26.61097 -30.623907
28.191528 29.444935 -29.221609
27.748507 26.63501 -30.091066
53.726795 44.965534 1.786997
53.877739 42.244656 3.331319
54.694599 43.919361 3.606999
55.414047 42.829643 5.502057
55.846329 41.695747 7.457454
55.963745 40.507114 9.442381
55.753387 39.248459 11.416742
55.220455 37.903927 13.340206
54.391716 36.461243 15.182022
53.316307 34.914661 16.928873
52.918591 50.194466 -1.688112
53.417175 47.602737 0.081573
53.905552 39.411999 4.626633
53.847473 36.453159 5.611998
53.739452 33.367561 6.270094
56.092361 34.147984 7.848783
56.429665 28.943535 12.815775
25.671041 38.472305 -29.355574
27.625319 38.112179 -28.344133
29.025787 40.623501 -27.247923
29.359486 37.674206 -27.208952
30.846704 37.127197 -25.919924
32.084831 36.445034 -24.468039
33.094421 35.60376 -22.870531
45.16571 56.138367 -16.768686
35.672207 46.279297 -22.46715
38.326935 47.023857 -19.733564
36.686649 45.318504 -20.942461
35.080662 43.477268 -22.169054
34.487511 40.643608 -21.775953
34.051456 37.69503 -21.396021
32.513279 31.839214 -24.42427
32.771935 32.930977 -23.586727
51.034565 53.897713 -6.658722
50.623818 55.174557 -7.521276
51.062877 54.855412 -6.469252
46.596019 47.528473 -5.31501
47.605739 48.449097 -5.739353
47.335983 47.336876 -4.505528
45.821092 47.664947 -6.06843
46.596019 47.528473 -5.31501
31.838333 22.462457 -30.322228
31.125111 22.578424 -30.59083
31.185167 23.685417 -29.781078
56.506935 27.287487 8.114667
56.466276 28.865108 8.319968
56.85626 28.270381 8.668297
33.087317 43.308673 -24.245995
32.303394 43.717565 -24.869446
33.134939 44.753004 -24.268225
41.445015 52.627316 -19.194212
42.296822 53.271218 -18.588881
41.906891 51.888065 -18.43896
40.51968 51.904538 -19.75049
41.445015 52.627316 -19.194212
40.168319 50.495942 -19.617871
39.632915 51.156315 -20.32407
40.51968 51.904538 -19.75049
51.365167 36.58213 4.688173
50.520782 37.123493 4.191033
51.489733 38.110962 4.082088
52.245157 36.031357 5.049005
51.365167 36.58213 4.688173
48.499994 44.248152 -0.778801
47.69467 44.614702 -1.506548
48.733165 45.520482 -1.877422
48.104481 41.54838 1.209477
49.023319 41.089535 1.71972
43.645617 47.608483 -8.430454
44.694494 48.651016 -8.945735
42.960111 47.436138 -9.207595
43.645617 47.608483 -8.430454
24.070532 34.187711 -30.53315
23.040623 34.290322 -30.938465
23.486601 35.768179 -30.623041
25.714103 29.596546 -30.342062
25.180587 31.106461 -30.385847
26.046101 31.085831 -30.052893
26.36439 28.093443 -30.316508
25.498876 28.114073 -30.649462
25.714103 29.596546 -30.342062
28.271507 23.79545 -30.666969
27.635941 25.190712 -30.465746
28.384073 25.239748 -30.29229
28.978052 22.480477 -30.979129
28.271507 23.79545 -30.666969
55.208189 42.657019 9.567435
54.685941 43.402311 10.153164
55.535559 41.274859 10.052204
55.636375 41.889274 8.957611
55.208189 42.657019 9.567435
54.543447 38.617869 14.111293
54.92099 39.318903 13.07609
54.243983 40.032844 13.847176
54.129078 37.896527 15.032201
54.806086 37.182585 14.261114
54.543447 38.617869 14.111293
52.501694 35.564451 17.811959
53.094471 36.370576 16.887463
52.689872 34.090763 17.758159
52.501694 35.564451 17.811959
52.850939 51.031056 -1.437566
52.563921 51.488511 -2.559684
55.59956 31.639612 7.507233
55.565064 30.045589 7.551922
56.085875 28.206555 13.467285
55.842804 29.719591 13.79033
55.499014 28.98261 14.441841
26.365385 39.795869 -28.83478
25.275384 40.020071 -29.327647
25.969728 41.343635 -28.806852
43.761704 56.613484 -18.13262
42.900027 56.060055 -18.760922
36.796762 48.610676 -21.964602
37.768641 49.505867 -21.424509
36.573017 47.181515 -21.894085
35.895952 47.708458 -22.537667
36.796762 48.610676 -21.964602
34.353355 37.153614 -20.47325
34.582656 38.68186 -20.669321
34.884556 38.140444 -19.74655
33.982082 36.136715 -21.281706
34.353355 37.153614 -20.47325
50.769566 40.097355 2.830101
49.74693 39.163123 3.091282
49.871147 40.608153 2.336434
49.871147 40.608153 2.336434
49.023319 41.089535 1.71972
50.045956 42.023768 1.458539
32.17418 30.689245 -25.164234
31.928403 32.252615 -25.096151
32.513279 31.839214 -24.42427
32.561735 29.163214 -25.335365
31.976859 29.576614 -26.007246
32.17418 30.689245 -25.164234
42.826614 48.815906 -12.515245
43.759626 49.940277 -12.995248
43.536646 49.160518 -11.76444
42.157512 48.403824 -13.267558
42.826614 48.815906 -12.515245
41.439602 47.913635 -13.978357
42.331684 49.105476 -14.456851
42.157512 48.403824 -13.267558
40.788431 47.361927 -14.709646
41.439602 47.913635 -13.978357
50.262096 56.404053 -8.418062
49.720007 57.707459 -9.190027
50.233784 55.446354 -8.607532
50.262096 56.404053 -8.418062
50.623818 55.174557 -7.521276
46.135814 48.695248 -7.351655
46.335518 49.738045 -8.577519
47.065479 49.683491 -7.774699
46.135814 48.695248 -7.351655
45.821092 47.664947 -6.06843
26.922214 30.99987 -29.617552
26.046101 31.085831 -30.052893
26.388699 32.509785 -29.661337
30.414116 22.558037 -30.696919
29.687963 22.579588 -30.918835
29.745793 23.822935 -30.271597
30.414116 22.558037 -30.696919
31.125111 22.578424 -30.59083
54.493971 46.874836 3.402099
54.559939 46.07148 3.111752
54.1875 47.403797 2.36608
54.634666 46.330303 4.543874
54.493971 46.874836 3.402099
54.814053 45.776245 5.614298
55.045795 44.988461 5.218196
54.634666 46.330303 4.543874
54.475397 42.76124 11.326839
54.685941 43.402311 10.153164
54.232473 42.106878 12.401812
54.864448 41.388241 11.737001
54.475397 42.76124 11.326839
53.909468 41.423544 13.544681
54.232473 42.106878 12.401812
53.520416 42.796543 13.134521
54.243983 40.032844 13.847176
53.909468 41.423544 13.544681
53.399037 50.04945 0.787428
53.201531 50.552109 -0.370488
53.870653 48.721863 1.551234
53.399037 50.04945 0.787428
54.1875 47.403797 2.36608
53.936621 47.918506 1.260887
53.870653 48.721863 1.551234
56.118084 29.468761 7.853518
56.467409 30.451656 8.407148
56.466276 28.865108 8.319968
55.565064 30.045589 7.551922
56.118084 29.468761 7.853518
26.743462 42.657316 -28.235906
25.969728 41.343635 -28.806852
31.482074 44.065794 -25.485306
30.511027 44.453561 -26.020691
31.434452 42.621464 -25.463076
31.482074 44.065794 -25.485306
32.303394 43.717565 -24.869446
47.32759 58.135818 -14.249028
47.884613 58.195458 -13.310468
46.699569 57.996868 -15.11903
47.32759 58.135818 -14.249028
47.220825 56.881901 -14.350119
46.03804 57.771191 -15.952082
46.699569 57.996868 -15.11903
42.703957 54.613682 -18.738164
43.165833 53.874432 -17.982912
42.296822 53.271218 -18.588881
42.900027 56.060055 -18.760922
42.703957 54.613682 -18.738164
38.672505 50.33786 -20.859724
39.632915 51.156315 -20.32407
38.377691 48.915726 -20.756235
37.768641 49.505867 -21.424509
38.672505 50.33786 -20.859724
37.357107 43.768007 -18.119065
37.98417 45.123253 -18.491221
38.08083 44.578363 -17.46838
36.758003 42.914545 -18.826822
37.357107 43.768007 -18.119065
36.049822 42.030651 -19.480818
36.552267 43.429003 -19.795901
36.758003 42.914545 -18.826822
35.684708 40.592441 -19.22718
35.478972 41.106899 -20.196258
36.049822 42.030651 -19.480818
35.300354 39.104816 -18.954736
35.684708 40.592441 -19.22718
34.884556 38.140444 -19.74655
35.300354 39.104816 -18.954736
49.586565 37.651218 3.82745
49.74693 39.163123 3.091282
49.586565 37.651218 3.82745
50.520782 37.123493 4.191033
47.127052 46.151642 -3.343177
47.335983 47.336876 -4.505528
48.136772 47.072266 -3.76752
46.836176 44.943032 -2.155711
47.127052 46.151642 -3.343177
46.836176 44.943032 -2.155711
47.69467 44.614702 -1.506548
48.329813 42.923761 0.216949
48.499994 44.248152 -0.778801
49.368309 43.829541 -0.153925
48.329813 42.923761 0.216949
48.104481 41.54838 1.209477
57.025013 27.640491 9.167706
56.85626 28.270381 8.668297
56.984354 29.218113 9.373006
34.059683 45.779348 -23.68629
33.134939 44.753004 -24.268225
40.063541 46.744506 -15.388065
40.888884 47.997867 -15.846069
40.788431 47.361927 -14.709646
39.428154 46.072904 -16.103251
40.063541 46.744506 -15.388065
38.700103 45.349486 -16.761274
39.435944 46.657028 -17.182512
39.428154 46.072904 -16.103251
38.08083 44.578363 -17.46838
38.700103 45.349486 -16.761274
54.502098 31.215063 15.732157
55.043312 32.001291 14.952195
54.289467 32.720707 15.919466
54.752998 29.71113 15.476128
54.502098 31.215063 15.732157
54.996069 28.198093 15.153083
55.499014 28.98261 14.441841
54.752998 29.71113 15.476128
49.354107 57.930584 -10.292375
49.720007 57.707459 -9.190027
48.887741 58.086208 -11.32265
49.354107 57.930584 -10.292375
49.405697 56.831474 -10.534593
48.429856 58.178581 -12.352843
48.887741 58.086208 -11.32265
48.394089 57.003975 -12.522493
47.884613 58.195458 -13.310468
48.429856 58.178581 -12.352843
45.640421 49.705731 -9.407173
46.570086 50.693973 -9.830217
46.335518 49.738045 -8.577519
44.929062 49.606945 -10.198434
45.640421 49.705731 -9.407173
44.694494 48.651016 -8.945735
43.293385 48.29419 -10.510717
43.536646 49.160518 -11.76444
44.226396 49.41856 -10.99072
43.293385 48.29419 -10.510717
42.960111 47.436138 -9.207595
22.632219 32.763447 -31.170401
23.040623 34.290322 -30.938465
23.320201 31.166174 -31.036497
22.632219 32.763447 -31.170401
23.932218 29.619835 -30.949718
23.320201 31.166174 -31.036497
24.236572 31.163515 -30.761795
24.6552 28.069961 -30.860628
23.932218 29.619835 -30.949718
25.305487 26.566858 -30.835074
24.6552 28.069961 -30.860628
25.498876 28.114073 -30.649462
26.058578 25.085733 -30.857343
25.305487 26.566858 -30.835074
27.385573 29.510426 -29.615358
26.922214 30.99987 -29.617552
27.72817 30.93438 -29.223802
27.164062 28.105463 -30.050087
27.385573 29.510426 -29.615358
27.970018 28.039973 -29.656337
26.948835 26.62299 -30.357487
26.36439 28.093443 -30.316508
27.164062 28.105463 -30.050087
26.836269 25.178692 -30.732166
26.948835 26.62299 -30.357487
27.635941 25.190712 -30.465746
26.058578 25.085733 -30.857343
26.836269 25.178692 -30.732166
28.978052 22.480477 -30.979129
29.687963 22.579588 -30.918835
54.838547 45.202934 6.784192
54.814053 45.776245 5.614298
55.267094 43.852919 7.380731
54.838547 45.202934 6.784192
55.577667 42.483591 7.965148
55.535755 43.065074 6.873037
55.267094 43.852919 7.380731
55.905037 41.10143 8.449917
55.577667 42.483591 7.965148
55.636375 41.889274 8.957611
53.632176 37.143867 16.014038
54.129078 37.896527 15.032201
53.854011 35.687952 16.055447
53.632176 37.143867 16.014038
53.094471 36.370576 16.887463
53.53228 33.42457 16.81415
54.289467 32.720707 15.919466
54.073494 34.210798 16.034188
53.53228 33.42457 16.81415
52.689872 34.090763 17.758159
51.376309 54.490921 -5.340364
51.062877 54.855412 -6.469252
51.841438 53.180561 -4.518977
51.376309 54.490921 -5.340364
52.127756 51.919868 -3.591416
51.759943 52.317875 -4.679136
51.841438 53.180561 -4.518977
52.482426 50.625824 -2.719843
52.127756 51.919868 -3.591416
52.563921 51.488511 -2.559684
53.269182 49.715519 -0.621035
52.850939 51.031056 -1.437566
53.201531 50.552109 -0.370488
53.001835 35.473136 5.565391
52.245157 36.031357 5.049005
53.090795 37.011379 5.095612
52.947824 33.930338 5.894439
53.001835 35.473136 5.565391
53.793463 34.91036 5.941046
52.85906 32.323649 6.217296
52.947824 33.930338 5.894439
55.586132 33.185949 7.461276
56.105789 32.601647 7.89474
55.59956 31.639612 7.507233
55.099955 33.768869 6.88735
55.606184 34.730904 7.274857
55.586132 33.185949 7.461276
54.409678 32.795738 6.671932
54.42973 34.340693 6.485513
55.099955 33.768869 6.88735
53.676414 31.766571 6.453373
54.409678 32.795738 6.671932
54.34664 31.194748 6.855211
52.796022 30.722659 6.400576
52.85906 32.323649 6.217296
53.676414 31.766571 6.453373
56.642474 27.41848 12.44736
56.085875 28.206555 13.467285
56.789378 28.106257 11.877235
56.642474 27.41848 12.44736
57.006498 28.809095 11.238627
56.646786 29.646374 12.177168
56.789378 28.106257 11.877235
57.151099 27.928601 10.405554
57.008507 29.468718 10.705488
57.006498 28.809095 11.238627
57.248821 27.023714 9.569841
57.151099 27.928601 10.405554
57.025013 27.640491 9.167706
57.248821 27.023714 9.569841
24.031183 37.228457 -30.249318
23.486601 35.768179 -30.623041
24.608449 38.631825 -29.818241
25.275384 40.020071 -29.327647
25.093775 37.068937 -29.78665
24.031183 37.228457 -30.249318
24.608449 38.631825 -29.818241
27.855018 42.3624 -27.737011
26.743462 42.657316 -28.235906
29.631719 43.287529 -26.619486
30.511027 44.453561 -26.020691
28.838047 42.114433 -27.20398
29.631719 43.287529 -26.619486
29.819459 41.796596 -26.663429
28.042758 40.871467 -27.780954
27.855018 42.3624 -27.737011
28.838047 42.114433 -27.20398
33.185394 34.031565 -22.843899
32.771935 32.930977 -23.586727
32.680961 34.503172 -23.61336
45.324493 57.468899 -16.726364
46.03804 57.771191 -15.952082
45.879257 56.440658 -15.994404
44.558075 57.074219 -17.450865
44.369339 55.677632 -17.450441
43.761704 56.613484 -18.13262
45.324493 57.468899 -16.726364
44.558075 57.074219 -17.450865
34.936356 46.746941 -23.097479
35.895952 47.708458 -22.537667
34.795534 45.311705 -23.055962
34.059683 45.779348 -23.68629
34.936356 46.746941 -23.097479
33.503564 35.09108 -22.018961
33.572938 36.649395 -22.133276
33.982082 36.136715 -21.281706
33.594538 33.518885 -21.992328
33.185394 34.031565 -22.843899
33.503564 35.09108 -22.018961
32.977037 27.595255 -25.594009
32.561735 29.163214 -25.335365
32.894812 26.57395 -26.562384
32.977037 27.595255 -25.594009
32.754701 25.452404 -27.401919
32.224304 26.929037 -27.017912
32.894812 26.57395 -26.562384
32.698398 24.458965 -28.374061
32.754701 25.452404 -27.401919
32.605497 23.339945 -29.201576
31.991292 24.688471 -28.684962
32.698398 24.458965 -28.374061
32.558478 22.381155 -30.167757
32.605497 23.339945 -29.201576
33.265585 22.151649 -29.856857
31.838333 22.462457 -30.322228
32.558478 22.381155 -30.167757
3 0 39 37
3 0 42 40
3 0 37 42
3 147 146 44
3 1 48 46
3 2 148 150
3 148 51 149
3 148 149 150
3 151 54 152
3 153 152 52
3 151 152 153
3 155 154 54
3 4 57 55
3 5 60 58
3 5 156 158
3 158 157 60
3 156 157 158
3 6 66 64
3 161 160 67
3 159 160 161
3 7 162 164
3 162 70 163
3 162 163 164
3 7 72 70
3 3 74 73
3 8 165 167
3 167 166 75
3 165 166 167
3 8 168 169
3 8 170 172
3 170 77 171
3 170 171 172
3 9 173 175
3 175 174 38
3 173 174 175
3 9 176 177
3 10 82 80
3 12 83 41
3 12 84 83
3 12 178 180
3 180 179 84
3 178 179 180
3 182 181 43
3 13 87 85
3 15 88 45
3 15 89 88
3 16 92 90
3 18 93 47
3 18 94 93
3 19 97 95
3 21 98 49
3 21 99 98
3 21 101 99
3 23 103 50
3 23 104 103
3 11 105 81
3 24 106 53
3 24 107 106
3 24 108 107
3 183 109 184
3 186 185 109
3 25 187 189
3 187 110 188
3 187 188 189
3 190 111 191
3 192 191 56
3 190 191 192
3 193 112 194
3 195 194 111
3 193 194 195
3 14 113 86
3 26 114 59
3 26 196 198
3 198 197 114
3 196 197 198
3 26 199 200
3 27 117 115
3 29 118 61
3 29 119 118
3 30 201 202
3 30 203 205
3 203 120 204
3 203 204 205
3 30 121 120
3 206 122 207
3 208 207 62
3 206 207 208
3 209 123 210
3 211 210 122
3 209 210 211
3 212 124 213
3 215 214 124
3 216 125 217
3 27 126 63
3 27 115 126
3 28 127 116
3 31 128 65
3 31 129 128
3 17 130 91
3 219 218 68
3 220 131 221
3 222 221 102
3 220 221 222
3 32 223 225
3 223 132 224
3 223 224 225
3 32 133 132
3 33 134 69
3 33 135 134
3 33 136 135
3 34 137 71
3 34 138 137
3 20 139 96
3 227 226 76
3 35 228 229
3 35 230 232
3 230 140 231
3 230 231 232
3 22 141 100
3 36 142 78
3 36 143 142
3 36 144 143
3 233 145 234
3 235 234 79
3 233 234 235
3 237 236 145
3 37 238 240
3 238 38 239
3 238 239 240
3 39 38 37
3 39 9 38
3 40 41 10
3 42 41 40
3 42 12 41
3 42 43 12
3 37 43 42
3 37 241 243
3 243 242 43
3 241 242 243
3 44 45 13
3 244 45 245
3 246 245 44
3 244 245 246
3 247 15 248
3 249 248 45
3 247 248 249
3 46 47 16
3 48 47 46
3 48 18 47
3 250 49 251
3 252 251 19
3 250 251 252
3 253 49 254
3 255 21 256
3 257 256 49
3 255 256 257
3 259 258 21
3 260 50 261
3 51 262 264
3 262 50 263
3 262 263 264
3 51 23 50
3 52 53 11
3 54 53 52
3 54 24 53
3 54 265 267
3 267 266 24
3 265 266 267
3 269 268 54
3 55 56 25
3 57 56 55
3 57 270 272
3 272 271 56
3 270 271 272
3 58 59 14
3 60 59 58
3 60 26 59
3 60 273 275
3 275 274 26
3 273 274 275
3 277 276 60
3 278 61 279
3 280 279 27
3 278 279 280
3 281 61 282
3 283 29 284
3 285 284 61
3 283 284 285
3 286 30 287
3 288 62 289
3 290 289 30
3 288 289 290
3 291 62 292
3 291 292 293
3 295 294 62
3 296 63 297
3 298 63 299
3 300 27 301
3 302 301 63
3 300 301 302
3 64 65 28
3 66 65 64
3 66 31 65
3 67 68 17
3 303 68 304
3 305 304 67
3 303 304 305
3 307 306 68
3 308 32 309
3 310 69 311
3 70 312 314
3 312 69 313
3 312 313 314
3 70 33 69
3 70 71 33
3 72 71 70
3 72 34 71
3 73 315 316
3 74 317 319
3 319 318 73
3 317 318 319
3 74 320 321
3 75 76 20
3 322 76 323
3 324 323 75
3 322 323 324
3 326 325 76
3 77 327 328
3 77 329 331
3 329 35 330
3 329 330 331
3 332 78 333
3 334 333 22
3 332 333 334
3 335 78 336
3 337 36 338
3 339 338 78
3 337 338 339
3 340 79 341
3 342 341 36
3 340 341 342
3 343 79 344
3 346 345 79
3 38 347 348
3 350 349 38
3 80 81 2
3 82 81 80
3 82 11 81
3 41 82 10
3 83 82 41
3 83 11 82
3 83 52 11
3 84 52 83
3 84 351 353
3 353 352 52
3 351 352 353
3 84 354 355
3 357 356 84
3 43 358 360
3 360 359 12
3 358 359 360
3 362 361 43
3 85 86 4
3 87 86 85
3 87 14 86
3 45 87 13
3 88 87 45
3 88 14 87
3 88 58 14
3 89 58 88
3 89 5 58
3 90 91 6
3 92 91 90
3 92 17 91
3 47 92 16
3 93 92 47
3 93 17 92
3 93 67 17
3 94 67 93
3 94 363 365
3 365 364 67
3 363 364 365
3 366 7 367
3 95 96 3
3 97 96 95
3 97 20 96
3 49 97 19
3 98 97 49
3 98 20 97
3 98 75 20
3 99 75 98
3 99 8 75
3 99 100 8
3 101 100 99
3 101 22 100
3 368 101 369
3 370 369 21
3 368 369 370
3 371 101 372
3 373 22 374
3 375 374 101
3 373 374 375
3 377 376 22
3 378 102 379
3 380 379 1
3 378 379 380
3 381 102 382
3 385 384 102
3 383 384 385
3 50 386 387
3 103 388 390
3 390 389 50
3 388 389 390
3 103 391 392
3 103 393 395
3 393 73 394
3 393 394 395
3 104 73 103
3 104 3 73
3 81 51 2
3 105 51 81
3 105 23 51
3 53 105 11
3 106 105 53
3 106 23 105
3 106 104 23
3 107 104 106
3 107 3 104
3 107 95 3
3 108 95 107
3 108 19 95
3 396 108 397
3 398 397 24
3 396 397 398
3 109 399 401
3 399 108 400
3 399 400 401
3 109 19 108
3 109 402 404
3 404 403 19
3 402 403 404
3 406 405 109
3 110 407 408
3 110 409 410
3 56 110 25
3 111 110 56
3 111 411 413
3 413 412 110
3 411 412 413
3 111 414 415
3 112 416 418
3 418 417 111
3 416 417 418
3 112 419 420
3 86 57 4
3 113 57 86
3 113 421 423
3 423 422 57
3 421 422 423
3 59 113 14
3 114 113 59
3 114 424 426
3 426 425 113
3 424 425 426
3 114 427 429
3 427 112 428
3 427 428 429
3 430 112 431
3 432 431 114
3 430 431 432
3 434 433 112
3 436 435 26
3 115 116 0
3 117 116 115
3 117 28 116
3 61 117 27
3 118 117 61
3 118 28 117
3 118 64 28
3 119 64 118
3 119 6 64
3 437 29 438
3 439 29 440
3 441 119 442
3 443 442 29
3 441 442 443
3 120 444 446
3 444 119 445
3 444 445 446
3 120 6 119
3 120 90 6
3 121 90 120
3 121 16 90
3 62 121 30
3 122 121 62
3 122 16 121
3 122 46 16
3 123 46 122
3 123 1 46
3 447 123 448
3 124 449 451
3 449 123 450
3 449 450 451
3 124 1 123
3 124 452 454
3 454 453 1
3 452 453 454
3 456 455 124
3 457 2 458
3 459 2 460
3 461 80 462
3 463 462 2
3 461 462 463
3 125 464 466
3 464 80 465
3 464 465 466
3 125 10 80
3 63 467 469
3 467 125 468
3 467 468 469
3 126 125 63
3 126 10 125
3 126 40 10
3 115 40 126
3 115 0 40
3 116 39 0
3 127 39 116
3 127 9 39
3 65 127 28
3 128 127 65
3 128 9 127
3 128 470 472
3 472 471 9
3 470 471 472
3 129 473 475
3 475 474 128
3 473 474 475
3 129 476 477
3 91 66 6
3 130 66 91
3 130 31 66
3 68 130 17
3 478 130 479
3 480 479 68
3 478 479 480
3 481 31 482
3 483 482 130
3 481 482 483
3 484 129 485
3 486 485 31
3 484 485 486
3 487 129 488
3 487 488 489
3 492 491 129
3 490 491 492
3 102 48 1
3 131 48 102
3 131 18 48
3 493 131 494
3 495 131 496
3 497 18 498
3 499 498 131
3 497 498 499
3 500 94 501
3 502 501 18
3 500 501 502
3 503 94 504
3 506 505 94
3 507 25 508
3 132 509 510
3 132 511 513
3 511 25 512
3 511 512 513
3 132 55 25
3 133 55 132
3 133 4 55
3 514 32 515
3 69 516 517
3 134 518 520
3 520 519 69
3 518 519 520
3 134 521 523
3 521 32 522
3 521 522 523
3 134 133 32
3 135 133 134
3 135 4 133
3 135 85 4
3 136 85 135
3 136 13 85
3 71 136 33
3 137 136 71
3 137 13 136
3 137 44 13
3 138 44 137
3 138 524 526
3 526 525 44
3 524 525 526
3 96 74 3
3 139 74 96
3 139 527 529
3 529 528 74
3 527 528 529
3 76 139 20
3 530 139 531
3 532 531 76
3 530 531 532
3 534 533 139
3 140 535 536
3 140 537 539
3 537 7 538
3 537 538 539
3 100 77 8
3 141 77 100
3 141 35 77
3 78 141 22
3 142 141 78
3 142 35 141
3 142 140 35
3 143 140 142
3 143 7 140
3 143 72 7
3 144 72 143
3 144 34 72
3 79 144 36
3 145 144 79
3 145 34 144
3 145 138 34
3 540 138 541
3 542 541 145
3 540 541 542
3 545 544 138
3 543 544 545
3 546 15 547
3 548 15 549
3 550 89 551
3 552 551 15
3 550 551 552
3 553 89 554
3 555 5 556
3 557 556 89
3 555 556 557
3 558 5 559
3 558 559 560
3 562 561 5
