ply
format ascii 1.0
element vertex 343
property float x
property float y
property float z
element face 337
property list uchar int vertex_index
end_header
-8.314447 42.529835 -32.877678
-17.440147 41.045692 -31.139942
-1.18479 40.450409 -33.002716
-12.566252 56.237873 -31.080734
-7.822794 71.090042 -29.747959
-2.803162 57.736675 -34.180843
-12.691938 42.033298 -32.146896
-15.638957 34.391907 -31.544178
-16.271576 61.786274 -28.413769
-4.828167 64.924362 -32.594799
-0.881121 64.389847 -32.993835
-22.311308 39.952274 -30.035294
-19.930695 33.950268 -31.05732
-4.415627 42.084679 -33.216183
-7.723143 34.138752 -31.642345
-4.291096 32.706596 -31.412994
-20.462608 46.854382 -29.461147
-15.009011 48.530514 -31.097939
-9.915268 49.851917 -32.723759
-11.801834 75.944611 -26.048832
-14.025398 69.24855 -27.699356
-10.126091 63.906078 -30.837967
-7.25 57.58749 -33.062069
-5.378384 50.346996 -33.891182
-1.628469 49.605556 -34.284069
-10.450159 42.37252 -32.556961
-19.88784 40.495384 -30.594833
-20.96059 37.049866 -30.687283
-18.670658 37.440182 -31.128834
-2.70083 41.417698 -33.199356
-4.250193 37.534142 -32.414478
-2.640993 36.637672 -32.278957
-15.448972 55.269833 -29.957672
-16.589157 51.458317 -30.08984
-13.790543 52.369228 -31.090435
-12.402924 49.262905 -31.942829
-11.107119 53.153217 -32.070045
-9.696545 73.705154 -27.977303
-12.899733 72.734756 -27.032875
-10.80265 70.322357 -28.815948
-11.953348 66.710358 -29.346115
-8.94379 67.593399 -30.443321
-3.701084 61.448177 -33.565483
-5.992773 61.330074 -32.973892
-4.894196 57.838642 -33.759888
-6.194239 54.086369 -33.668926
-4.030422 54.113628 -34.173588
-3.386063 50.145458 -34.203423
-2.117672 53.79211 -34.420483
-15.028726 41.57275 -31.665478
-16.379856 37.826366 -31.516914
-14.135559 38.173775 -31.847172
0.10648 39.207642 -32.562283
-1.210829 35.46701 -31.985031
-17.366991 57.972767 -28.638481
-14.291384 59.115467 -29.831573
-5.172291 71.481781 -30.38409
-6.199167 68.148727 -31.305809
-2.656719 64.867355 -32.994308
-1.739536 61.176167 -33.814995
-1.025951 57.257084 -34.275093
-0.153492 60.504551 -33.675175
-8.755299 19.728558 -28.695126
-24.630207 39.436161 -29.43576
-23.183493 36.677219 -30.176586
-22.045807 33.72477 -30.678242
-17.777544 34.181038 -31.341763
-19.237522 30.665142 -31.138489
-6.29644 42.448254 -33.100639
-7.894028 38.472385 -32.403019
-6.010229 38.142883 -32.445911
-5.951948 33.557022 -31.549202
-6.125244 28.711426 -30.513981
-2.76499 31.590233 -31.197124
-23.955084 42.651779 -29.148926
-21.409483 43.344948 -29.777691
-18.807411 44.053074 -30.433605
-17.708899 47.712322 -30.252235
-16.223347 44.748795 -31.119099
-13.707611 45.39362 -31.804031
-11.289663 45.936611 -32.443413
-8.986446 46.317371 -32.995621
-15.154634 65.570221 -28.129444
-13.122427 62.949604 -29.654495
-11.340641 60.099949 -31.021084
-7.339878 64.586578 -31.850601
-8.557993 60.860836 -32.100204
-9.821453 57.032627 -32.144962
-8.565392 53.747334 -32.950989
-7.565754 50.23357 -33.38665
-6.812664 46.473736 -33.431335
-4.789267 46.352283 -33.729427
-2.946724 45.918415 -33.864342
-1.321341 45.162533 -33.794849
-0.498903 53.111942 -34.362381
-0.143183 48.731274 -34.08223
0.054691 44.100449 -33.463223
-9.585955 34.470051 -31.701603
-9.098499 40.541708 -32.584885
-10.166355 40.463051 -32.424526
-9.382303 42.451178 -32.71732
-8.75967 72.397598 -28.862631
-8.246723 74.014785 -28.326172
-7.309848 72.707229 -29.2115
0.064004 36.6302 -32.014061
0.635955 38.468328 -32.188705
-16.819283 59.87952 -28.526125
-18.444435 59.225448 -27.934793
-17.896727 61.132202 -27.822437
-4.051991 71.461556 -30.511236
-4.733162 73.003388 -29.70459
-4.483912 69.89772 -31.111351
-4.051991 71.461556 -30.511236
-1.76892 64.628601 -32.994071
-2.228576 66.456886 -32.483387
-1.340778 66.218132 -32.483151
-9.96984 17.833081 -28.413599
-9.200162 17.194387 -28.272821
-20.584818 32.272601 -30.990784
-21.642374 32.159852 -30.801245
-20.988251 33.837519 -30.867781
-19.06127 28.938975 -31.054859
-18.228372 30.694874 -31.190575
-20.003496 28.988094 -31.039404
-19.06127 28.938975 -31.054859
-2.080484 30.909551 -31.019865
-1.987909 33.528621 -31.591077
-1.303404 32.84794 -31.413818
-24.903782 43.900385 -28.625706
-25.152209 42.322639 -28.827044
-20.936045 45.099665 -29.619419
-22.308146 44.668063 -29.26422
-21.834708 46.42278 -29.105947
-11.282512 77.377724 -25.368021
-10.234447 76.365257 -26.40449
-12.951511 76.852631 -25.0287
-11.282512 77.377724 -25.368021
-13.500993 75.365578 -25.598532
-12.951511 76.852631 -25.0287
-15.168081 70.367065 -26.831043
-14.605248 72.110168 -26.497802
-13.462566 70.991653 -27.366115
-15.717432 68.593765 -27.111311
-15.168081 70.367065 -26.831043
-14.590016 67.409385 -27.9144
-16.28205 66.754601 -27.326355
-15.717432 68.593765 -27.111311
-0.049169 54.758747 -34.179435
-0.762427 55.184513 -34.318737
-0.312693 56.831318 -34.135791
0.451987 48.141483 -33.811532
0.326564 50.411617 -34.015507
0.550924 45.826071 -33.502028
-0.044246 46.415861 -33.772727
0.451987 48.141483 -33.811532
0.610339 43.434317 -33.135303
0.550924 45.826071 -33.502028
-11.207804 40.403732 -32.33237
-12.328694 40.234121 -32.127338
-11.571048 42.202909 -32.351928
-11.207804 40.403732 -32.33237
-10.166355 40.463051 -32.424526
-17.376897 63.013139 -27.665096
-17.896727 61.132202 -27.822437
-0.569851 65.863335 -32.329505
-1.340778 66.218132 -32.483151
-0.207033 63.944674 -32.77614
-0.569851 65.863335 -32.329505
-16.42909 32.558256 -31.39342
-15.431438 32.568255 -31.397976
-21.420727 48.155716 -28.887528
-21.834708 46.42278 -29.105947
-16.019064 53.364075 -30.023756
-17.512014 52.823364 -29.480261
-16.941922 54.729123 -29.414177
-9.181802 75.245529 -27.368725
-8.246723 74.014785 -28.326172
-10.749189 74.824883 -27.013067
-10.234447 76.365257 -26.40449
-9.181802 75.245529 -27.368725
-8.642602 32.133001 -31.258869
-7.763754 31.840029 -31.168621
-13.050505 38.30436 -31.977476
-13.413749 40.103537 -31.997034
-12.328694 40.234121 -32.127338
-13.842913 36.359005 -31.757325
-13.050505 38.30436 -31.977476
-14.594611 34.468071 -31.605828
-14.887258 36.282841 -31.695675
-13.842913 36.359005 -31.757325
-15.431438 32.568255 -31.397976
-14.594611 34.468071 -31.605828
-0.59465 34.759884 -31.725435
-0.552175 37.337326 -32.273657
0.064004 36.6302 -32.014061
-1.303404 32.84794 -31.413818
-0.59465 34.759884 -31.725435
-18.945256 57.350151 -28.09086
-20.0227 58.602833 -27.387173
-18.444435 59.225448 -27.934793
-17.900931 56.08059 -28.754582
-18.945256 57.350151 -28.09086
-16.407981 56.6213 -29.298077
-16.941922 54.729123 -29.414177
-17.900931 56.08059 -28.754582
-5.984597 72.903099 -29.529566
-4.733162 73.003388 -29.70459
-6.497542 71.285911 -30.066025
-7.309848 72.707229 -29.2115
-5.984597 72.903099 -29.529566
-4.99735 68.231193 -31.572211
-5.685729 69.815254 -30.844949
-4.483912 69.89772 -31.111351
-4.31185 66.619011 -32.216706
-5.513667 66.536544 -31.950304
-4.99735 68.231193 -31.572211
-3.226126 66.590508 -32.41646
-2.228576 66.456886 -32.483387
-3.742443 64.895859 -32.794553
-4.31185 66.619011 -32.216706
-3.226126 66.590508 -32.41646
0.123537 58.455051 -33.835833
-0.312693 56.831318 -34.135791
-0.589722 58.880817 -33.975134
0.156782 62.002026 -33.11681
-0.517307 62.447199 -33.334505
-0.207033 63.944674 -32.77614
0.441466 59.980389 -33.393597
0.156782 62.002026 -33.11681
0.123537 58.455051 -33.835833
0.441466 59.980389 -33.393597
-9.554831 20.26301 -28.835951
-8.450142 22.222771 -29.184999
-9.554831 20.26301 -28.835951
-9.96984 17.833081 -28.413599
-24.945873 37.884951 -29.496398
-25.691742 39.197881 -29.088521
-24.222516 36.505479 -29.866812
-24.945873 37.884951 -29.496398
-23.90685 38.05669 -29.806173
-23.620922 35.097155 -30.175878
-24.222516 36.505479 -29.866812
-23.052079 33.62093 -30.426707
-23.620922 35.097155 -30.175878
-22.61465 35.200995 -30.427414
-22.608841 32.126919 -30.627015
-23.052079 33.62093 -30.426707
-22.608841 32.126919 -30.627015
-21.642374 32.159852 -30.801245
-17.498383 32.452822 -31.292212
-16.70825 34.286473 -31.442971
-16.42909 32.558256 -31.39342
-18.507533 32.42309 -31.240126
-17.498383 32.452822 -31.292212
-18.228372 30.694874 -31.190575
-20.238231 30.630038 -31.031368
-20.584818 32.272601 -30.990784
-19.584108 32.307705 -31.097904
-20.238231 30.630038 -31.031368
-20.003496 28.988094 -31.039404
-6.878156 31.549164 -31.12205
-7.763754 31.840029 -31.168621
-6.837546 33.847887 -31.595773
-6.964804 29.126366 -30.604439
-6.878156 31.549164 -31.12205
-6.038596 31.134224 -31.031592
-7.135115 26.714205 -30.094427
-6.964804 29.126366 -30.604439
-2.920627 28.950678 -30.629793
-2.080484 30.909551 -31.019865
-3.653701 29.610581 -30.75724
-2.920627 28.950678 -30.629793
-4.416754 30.168762 -30.865175
-3.528043 32.148415 -31.305059
-3.653701 29.610581 -30.75724
-5.333828 28.171177 -30.415669
-5.20817 30.709011 -30.963487
-4.416754 30.168762 -30.865175
-6.332143 26.182097 -29.983095
-5.333828 28.171177 -30.415669
-7.135115 26.714205 -30.094427
-6.332143 26.182097 -29.983095
-7.647171 21.690663 -29.073667
-8.450142 22.222771 -29.184999
-7.980354 19.090851 -28.582009
-7.647171 21.690663 -29.073667
-9.200162 17.194387 -28.272821
-7.980354 19.090851 -28.582009
-25.48977 40.71483 -28.970461
-25.691742 39.197881 -29.088521
-24.292645 41.04397 -29.292343
-25.48977 40.71483 -28.970461
-25.152209 42.322639 -28.827044
-23.580946 44.321478 -28.949837
-24.903782 43.900385 -28.625706
-22.682284 42.998363 -29.463309
-23.580946 44.321478 -28.949837
-22.308146 44.668063 -29.26422
-19.965877 48.664074 -29.303518
-21.420727 48.155716 -28.887528
-18.029151 50.966042 -29.617864
-17.512014 52.823364 -29.480261
-18.589022 49.093044 -29.699062
-18.029151 50.966042 -29.617864
-17.149028 49.585319 -30.171037
-19.085753 47.283352 -29.856691
-19.965877 48.664074 -29.303518
-18.589022 49.093044 -29.699062
-14.049943 73.76065 -26.090553
-13.500993 75.365578 -25.598532
-12.350783 74.339684 -26.540854
-14.049943 73.76065 -26.090553
-14.605248 72.110168 -26.497802
-16.818426 64.905113 -27.522934
-16.28205 66.754601 -27.326355
-15.713105 63.678247 -28.271606
-17.376897 63.013139 -27.665096
-16.818426 64.905113 -27.522934
0.148703 52.601951 -34.155583
-0.049169 54.758747 -34.179435
-0.321043 50.921608 -34.222306
0.148703 52.601951 -34.155583
0.326564 50.411617 -34.015507
0.636234 40.987914 -32.684833
0.080586 41.654045 -33.012753
0.610339 43.434317 -33.135303
0.635955 38.468328 -32.188705
0.636234 40.987914 -32.684833
-8.888289 38.512983 -32.347555
-9.098499 40.541708 -32.584885
-8.104237 40.50111 -32.640349
-9.734253 36.511816 -31.996847
-8.888289 38.512983 -32.347555
-8.739992 36.471218 -32.052311
-10.558007 34.529232 -31.708725
-9.734253 36.511816 -31.996847
-9.574008 32.298651 -31.288498
-8.654549 34.304401 -31.671974
-8.642602 32.133001 -31.258869
-10.486771 32.482354 -31.373407
-9.574008 32.298651 -31.288498
-10.558007 34.529232 -31.708725
-10.486771 32.482354 -31.373407
3 0 98 100
3 100 99 25
3 98 99 100
3 1 28 26
3 2 31 29
3 3 34 32
3 3 36 34
3 4 101 103
3 101 37 102
3 101 102 103
3 4 39 37
3 4 41 39
3 5 44 42
3 5 46 44
3 5 48 46
3 6 51 49
3 105 104 52
3 8 106 108
3 106 54 107
3 106 107 108
3 8 55 54
3 109 56 110
3 112 111 56
3 10 113 115
3 113 58 114
3 113 114 115
3 10 59 58
3 10 61 59
3 117 116 62
3 11 64 63
3 12 65 27
3 12 118 120
3 120 119 65
3 118 119 120
3 7 66 50
3 121 67 122
3 124 123 67
3 13 70 68
3 15 71 30
3 15 72 71
3 125 73 126
3 127 126 53
3 125 126 127
3 128 74 129
3 16 130 132
3 130 75 131
3 130 131 132
3 16 76 75
3 17 77 33
3 17 78 77
3 17 79 78
3 18 80 35
3 18 81 80
3 19 133 134
3 19 135 136
3 19 137 138
3 20 139 141
3 141 140 38
3 139 140 141
3 20 142 143
3 20 144 146
3 144 82 145
3 144 145 146
3 21 83 40
3 21 84 83
3 9 85 57
3 22 86 43
3 22 87 86
3 22 88 87
3 23 89 45
3 23 90 89
3 23 91 90
3 24 92 47
3 24 93 92
3 147 94 148
3 149 148 60
3 147 148 149
3 150 95 151
3 152 96 153
3 154 153 95
3 152 153 154
3 156 155 96
3 14 97 69
3 25 157 159
3 159 158 6
3 157 158 159
3 161 160 25
3 162 8 163
3 164 10 165
3 167 166 10
3 26 27 11
3 28 27 26
3 28 12 27
3 169 168 7
3 29 30 13
3 31 30 29
3 31 15 30
3 170 16 171
3 32 172 174
3 172 33 173
3 172 173 174
3 34 33 32
3 34 17 33
3 34 35 17
3 36 35 34
3 36 18 35
3 37 175 176
3 37 177 179
3 177 19 178
3 177 178 179
3 37 38 19
3 39 38 37
3 39 20 38
3 39 40 20
3 41 40 39
3 41 21 40
3 42 43 9
3 44 43 42
3 44 22 43
3 44 45 22
3 46 45 44
3 46 23 45
3 46 47 23
3 48 47 46
3 48 24 47
3 181 180 14
3 49 50 1
3 51 50 49
3 51 7 50
3 182 51 183
3 184 183 6
3 182 183 184
3 185 51 186
3 187 7 188
3 189 188 51
3 187 188 189
3 191 190 7
3 52 53 2
3 192 53 193
3 194 193 52
3 192 193 194
3 196 195 53
3 54 197 199
3 197 198 199
3 54 200 201
3 54 202 204
3 202 32 203
3 202 203 204
3 55 32 54
3 55 3 32
3 56 205 206
3 56 207 209
3 207 4 208
3 207 208 209
3 56 57 4
3 210 57 211
3 212 211 56
3 210 211 212
3 213 9 214
3 215 214 57
3 213 214 215
3 58 216 217
3 58 218 220
3 218 9 219
3 218 219 220
3 58 42 9
3 59 42 58
3 59 5 42
3 59 60 5
3 61 60 59
3 61 221 223
3 223 222 60
3 221 222 223
3 224 61 225
3 226 225 10
3 224 225 226
3 227 61 228
3 230 229 61
3 62 231 232
3 234 233 62
3 63 235 236
3 64 237 239
3 239 238 63
3 237 238 239
3 64 240 241
3 27 64 11
3 65 64 27
3 65 242 244
3 244 243 64
3 242 243 244
3 65 245 246
3 248 247 65
3 50 28 1
3 66 28 50
3 66 12 28
3 249 66 250
3 251 250 7
3 249 250 251
3 67 252 254
3 252 66 253
3 252 253 254
3 67 12 66
3 67 255 257
3 257 256 12
3 255 256 257
3 259 258 67
3 68 69 0
3 70 69 68
3 70 14 69
3 30 70 13
3 71 70 30
3 71 14 70
3 71 260 262
3 262 261 14
3 260 261 262
3 72 263 265
3 265 264 71
3 263 264 265
3 72 266 267
3 53 31 2
3 73 31 53
3 73 15 31
3 268 73 269
3 270 73 271
3 272 15 273
3 274 273 73
3 272 273 274
3 275 72 276
3 277 276 15
3 275 276 277
3 278 72 279
3 281 280 72
3 282 62 283
3 284 62 285
3 287 286 62
3 288 63 289
3 74 290 292
3 290 63 291
3 290 291 292
3 74 11 63
3 293 74 294
3 75 295 297
3 295 74 296
3 295 296 297
3 75 11 74
3 75 26 11
3 76 26 75
3 76 1 26
3 298 16 299
3 33 300 301
3 77 302 304
3 304 303 33
3 302 303 304
3 77 305 307
3 305 16 306
3 305 306 307
3 77 76 16
3 78 76 77
3 78 1 76
3 78 49 1
3 79 49 78
3 79 6 49
3 35 79 17
3 80 79 35
3 80 6 79
3 80 25 6
3 81 25 80
3 81 0 25
3 38 308 310
3 310 309 19
3 308 309 310
3 312 311 38
3 82 313 314
3 82 315 317
3 315 8 316
3 315 316 317
3 40 82 20
3 83 82 40
3 83 8 82
3 83 55 8
3 84 55 83
3 84 3 55
3 57 41 4
3 85 41 57
3 85 21 41
3 43 85 9
3 86 85 43
3 86 21 85
3 86 84 21
3 87 84 86
3 87 3 84
3 87 36 3
3 88 36 87
3 88 18 36
3 45 88 22
3 89 88 45
3 89 18 88
3 89 81 18
3 90 81 89
3 90 0 81
3 90 68 0
3 91 68 90
3 91 13 68
3 47 91 23
3 92 91 47
3 92 13 91
3 92 29 13
3 93 29 92
3 93 2 29
3 60 48 5
3 94 48 60
3 94 24 48
3 318 94 319
3 95 320 322
3 320 94 321
3 320 321 322
3 95 24 94
3 95 93 24
3 96 93 95
3 96 2 93
3 96 52 2
3 323 52 324
3 325 324 96
3 323 324 325
3 327 326 52
3 69 328 330
3 330 329 0
3 328 329 330
3 97 331 333
3 333 332 69
3 331 332 333
3 97 334 335
3 336 97 337
3 338 337 14
3 336 337 338
3 339 97 340
3 342 341 97
