ply
format ascii 1.0
element vertex 191
property float x
property float y
property float z
element face 180
property list uchar int vertex_index
end_header
-36.900009 -64.658722 48.27784
-35.113655 -75.167343 49.291267
-42.62093 -73.464813 48.518192
-40.319141 -63.752697 47.329033
-39.630035 -69.003937 47.795219
-43.464146 -68.145523 47.707409
-32.917358 -70.689163 50.352173
-36.028374 -69.822289 48.653988
-38.740082 -74.412628 48.738979
-46.46447 -72.273636 48.463253
-31.952684 -75.76078 50.268879
-42.14077 -63.325333 47.264442
-41.868462 -65.940659 47.378128
-43.758259 -65.51078 47.489895
-35.369183 -65.163353 49.18251
-34.88303 -67.677429 49.236938
-36.471416 -67.21315 48.394547
-41.13839 -71.262955 48.097183
-39.211128 -71.691284 48.245743
-40.666191 -73.964996 48.596828
-40.122791 -76.683205 49.055943
-42.06073 -76.137222 48.958206
-46.900631 -69.707512 48.26561
-33.928806 -72.854858 49.602261
-32.420883 -73.226692 50.372414
-33.467915 -75.481323 49.726082
-38.560226 -64.192551 47.660744
-38.186874 -66.777176 47.807732
-39.998283 -66.357651 47.474449
-41.537521 -68.586563 47.666386
-43.08847 -70.798477 48.069576
-36.383862 -77.546188 49.272465
-33.442596 -68.179428 50.320839
-34.400673 -70.245346 49.402157
-35.57552 -72.479561 48.988255
-37.781429 -69.411812 48.119289
-37.345306 -72.094032 48.537724
-36.878769 -74.812363 48.965107
-38.219505 -77.15387 49.154167
-45.370537 -67.665154 47.885315
-45.021767 -70.284897 48.135719
-44.566235 -72.904579 48.480965
-47.729065 -74.032791 48.505054
-45.898788 -74.817612 48.695545
-43.997963 -75.516525 48.84296
-43.326546 -78.113083 49.115253
-31.583164 -71.160416 51.477776
-31.052813 -73.602646 51.279106
-30.564119 -76.016747 50.909882
-43.873213 -64.203322 47.462244
-42.949515 -64.418057 47.377168
-43.064469 -63.110598 47.349518
-36.126408 -78.906425 49.293806
-37.021902 -78.719917 49.311714
-33.715675 -66.94783 50.340266
-33.104416 -67.251808 51.049049
-39.821462 -78.043095 49.199067
-40.771292 -77.744553 49.162296
-46.295765 -67.397294 48.023497
-45.500416 -66.358609 47.828102
-48.249477 -74.765015 48.313181
-48.593933 -73.592251 48.384571
-45.553267 -76.074345 48.784472
-46.465317 -75.639122 48.618254
-44.602854 -76.423801 48.858179
-44.948375 -75.167068 48.769253
-45.553267 -76.074345 48.784472
-44.267145 -77.722081 48.994326
-43.662255 -76.814804 48.979107
-44.602854 -76.423801 48.858179
-32.250261 -70.92479 50.914974
-31.870114 -69.943169 51.546875
-32.537211 -69.707542 50.984074
-35.126106 -66.420391 49.209724
-34.435892 -66.696831 49.798315
-34.678968 -65.439793 49.771101
-41.740261 -77.471562 49.113428
-40.771292 -77.744553 49.162296
-41.09176 -76.410213 49.007075
-47.796539 -69.379383 48.346741
-47.060812 -68.418473 48.213644
-47.590864 -70.633328 48.35492
-47.796539 -69.379383 48.346741
-47.372783 -71.91639 48.453741
-46.68255 -70.990574 48.364432
-47.590864 -70.633328 48.35492
-35.513666 -77.701957 49.350866
-34.878563 -76.512535 49.360267
-35.748759 -76.356765 49.281866
-35.513666 -77.701957 49.350866
-36.126408 -78.906425 49.293806
-32.79983 -68.452675 50.968407
-33.104416 -67.251808 51.049049
-33.179977 -69.434295 50.336506
-32.537211 -69.707542 50.984074
-32.79983 -68.452675 50.968407
-34.162813 -67.928428 49.778889
-33.715675 -66.94783 50.340266
-34.435892 -66.696831 49.798315
-37.939724 -78.523758 49.252566
-37.021902 -78.719917 49.311714
-37.301683 -77.350029 49.213316
-38.869819 -78.278427 49.248179
-39.171148 -76.918537 49.105055
-39.821462 -78.043095 49.199067
-37.939724 -78.523758 49.252566
-38.869819 -78.278427 49.248179
-44.694277 -65.281421 47.630392
-43.873213 -64.203322 47.462244
-44.564398 -66.587967 47.687605
-44.694277 -65.281421 47.630392
-45.500416 -66.358609 47.828102
-46.135584 -68.686333 48.075463
-46.295765 -67.397294 48.023497
-47.060812 -68.418473 48.213644
-48.005081 -72.795967 48.474642
-48.593933 -73.592251 48.384571
-47.096767 -73.153213 48.484154
-47.372783 -71.91639 48.453741
-48.005081 -72.795967 48.474642
-47.380455 -75.246712 48.523008
-48.249477 -74.765015 48.313181
-46.813927 -74.425202 48.6003
-47.380455 -75.246712 48.523008
-46.465317 -75.639122 48.618254
-42.373169 -78.459492 49.191952
-41.740261 -77.471562 49.113428
-42.693638 -77.125152 49.036729
-43.871651 -78.960625 49.002407
-44.267145 -77.722081 48.994326
-42.953012 -79.399594 49.1462
-43.871651 -78.960625 49.002407
-42.373169 -78.459492 49.191952
-42.953012 -79.399594 49.1462
-34.953787 -64.233816 49.847797
-34.678968 -65.439793 49.771101
-35.607453 -63.933077 49.228865
-34.953787 -64.233816 49.847797
-36.372866 -63.680762 48.776529
-36.134596 -64.911037 48.730175
-35.607453 -63.933077 49.228865
-37.102981 -63.406885 48.304193
-36.372866 -63.680762 48.776529
-37.93309 -63.1738 47.995646
-37.730117 -64.425636 47.969292
-37.102981 -63.406885 48.304193
-38.729996 -62.922323 47.677433
-37.93309 -63.1738 47.995646
-39.609453 -62.702396 47.511578
-39.439684 -63.972624 47.494889
-38.729996 -62.922323 47.677433
-40.458866 -62.467892 47.346089
-39.609453 -62.702396 47.511578
-41.369681 -62.25421 47.313793
-41.229956 -63.539015 47.296738
-40.458866 -62.467892 47.346089
-42.254935 -62.030709 47.29108
-41.369681 -62.25421 47.313793
-43.064469 -63.110598 47.349518
-42.254935 -62.030709 47.29108
-31.300071 -70.240692 52.277922
-31.870114 -69.943169 51.546875
-30.984735 -71.412548 52.109129
-31.300071 -70.240692 52.277922
-30.719559 -72.633663 52.009794
-30.984735 -71.412548 52.109129
-31.317988 -72.381531 51.378441
-30.431067 -73.797325 51.786095
-30.719559 -72.633663 52.009794
-30.18672 -75.004375 51.601483
-30.431067 -73.797325 51.786095
-30.808466 -74.809697 51.094494
-29.923371 -76.141315 51.271388
-30.18672 -75.004375 51.601483
-34.055693 -76.669525 49.577675
-34.290785 -75.324333 49.508674
-34.878563 -76.512535 49.360267
-33.242316 -76.785751 49.682577
-34.055693 -76.669525 49.577675
-32.4847 -76.925479 49.953975
-32.710299 -75.621051 49.99748
-33.242316 -76.785751 49.682577
-31.730848 -77.006687 50.089861
-32.4847 -76.925479 49.953975
-31.036566 -77.13467 50.410363
-31.258402 -75.888763 50.589381
-31.730848 -77.006687 50.089861
-30.337368 -77.190174 50.579133
-31.036566 -77.13467 50.410363
-29.923371 -76.141315 51.271388
-30.337368 -77.190174 50.579133
3 49 13 50
3 51 50 11
3 49 50 51
3 0 16 14
3 2 19 17
3 2 21 19
3 1 25 23
3 3 28 26
3 5 29 12
3 5 30 29
3 53 52 31
3 54 32 55
3 7 33 15
3 7 34 33
3 4 35 27
3 8 36 18
3 8 37 36
3 8 38 37
3 57 56 20
3 58 39 59
3 9 40 22
3 9 41 40
3 60 42 61
3 62 43 63
3 64 44 65
3 66 65 43
3 64 65 66
3 67 45 68
3 69 68 44
3 67 68 69
3 6 70 72
3 70 46 71
3 70 71 72
3 10 47 24
3 10 48 47
3 11 12 3
3 13 12 11
3 13 5 12
3 14 73 75
3 73 15 74
3 73 74 75
3 16 15 14
3 16 7 15
3 17 18 4
3 19 18 17
3 19 8 18
3 19 20 8
3 21 20 19
3 21 76 78
3 78 77 20
3 76 77 78
3 79 22 80
3 81 22 82
3 83 9 84
3 85 84 22
3 83 84 85
3 23 24 6
3 25 24 23
3 25 10 24
3 26 27 0
3 28 27 26
3 28 4 27
3 12 28 3
3 29 28 12
3 29 4 28
3 29 17 4
3 30 17 29
3 30 2 17
3 31 86 88
3 88 87 1
3 86 87 88
3 90 89 31
3 32 91 92
3 32 93 95
3 93 6 94
3 93 94 95
3 15 96 98
3 96 32 97
3 96 97 98
3 33 32 15
3 33 6 32
3 33 23 6
3 34 23 33
3 34 1 23
3 27 16 0
3 35 16 27
3 35 7 16
3 18 35 4
3 36 35 18
3 36 7 35
3 36 34 7
3 37 34 36
3 37 1 34
3 37 31 1
3 38 31 37
3 38 99 101
3 101 100 31
3 99 100 101
3 20 38 8
3 102 38 103
3 104 103 20
3 102 103 104
3 106 105 38
3 107 13 108
3 39 109 111
3 109 13 110
3 109 110 111
3 39 5 13
3 22 112 114
3 112 39 113
3 112 113 114
3 40 39 22
3 40 5 39
3 40 30 5
3 41 30 40
3 41 2 30
3 42 115 116
3 42 117 119
3 117 9 118
3 117 118 119
3 120 42 121
3 43 122 124
3 122 42 123
3 122 123 124
3 43 9 42
3 43 41 9
3 44 41 43
3 44 2 41
3 44 21 2
3 45 21 44
3 45 125 127
3 127 126 21
3 125 126 127
3 128 45 129
3 130 45 131
3 133 132 45
3 134 14 135
3 136 14 137
3 138 0 139
3 140 139 14
3 138 139 140
3 141 0 142
3 143 26 144
3 145 144 0
3 143 144 145
3 146 26 147
3 148 3 149
3 150 149 26
3 148 149 150
3 151 3 152
3 153 11 154
3 155 154 3
3 153 154 155
3 156 11 157
3 159 158 11
3 46 160 161
3 46 162 163
3 24 46 6
3 47 46 24
3 47 164 166
3 166 165 46
3 164 165 166
3 47 167 168
3 48 169 171
3 171 170 47
3 169 170 171
3 48 172 173
3 174 25 175
3 176 175 1
3 174 175 176
3 177 25 178
3 179 10 180
3 181 180 25
3 179 180 181
3 182 10 183
3 184 48 185
3 186 185 10
3 184 185 186
3 187 48 188
3 190 189 48
