ply
format ascii 1.0
element vertex 552
property float x
property float y
property float z
element face 542
property list uchar int vertex_index
end_header
-31.693153 -66.990677 53.388084
-27.519571 -84.422577 45.103256
-24.488567 -77.719177 55.02573
-29.282623 -76.265884 51.632893
-52.481033 -51.332165 49.960815
-38.383617 -54.800991 49.298542
-44.84671 -52.58292 48.166451
-21.650375 -84.9104 45.583496
-29.880175 -68.496178 56.952164
-28.278509 -72.792755 55.492668
-30.386305 -71.66468 52.740482
-54.012787 -46.708389 49.280499
-36.026451 -56.254658 51.64119
-48.607845 -51.831539 48.946651
-25.706051 -80.528801 49.710033
-22.948151 -81.137321 50.685612
-24.645496 -84.140076 44.789719
-23.645123 -88.286606 39.168137
-26.737583 -88.310913 39.441677
-26.244179 -74.123367 58.26289
-26.900736 -76.840057 53.253704
-28.345201 -80.531563 49.261917
-33.988754 -65.716232 50.359692
-56.262386 -51.156418 50.495491
-58.139378 -46.802513 49.275806
-33.082115 -62.42033 54.109337
-35.069321 -60.935467 50.790714
-37.682793 -59.689533 48.542889
-40.849228 -58.638035 47.547562
-41.375538 -53.573799 48.170269
-44.357025 -57.716244 47.709957
-47.978943 -56.864769 48.68713
-51.536098 -56.068302 49.957664
-21.807528 -79.133057 56.918789
-19.995911 -82.648453 52.287628
-29.694 -89.24324 41.083267
-29.017675 -93.327957 34.681599
-30.744452 -67.715706 55.134109
-29.996126 -69.966164 54.653362
-31.016977 -69.320969 53.078068
-26.552221 -82.337814 47.318264
-25.161026 -82.309311 47.396553
-26.098387 -84.179718 44.824593
-25.656727 -86.086609 42.041069
-27.132235 -86.330795 42.406837
-27.200544 -72.198959 59.511192
-28.659777 -74.406494 53.380268
-27.562292 -74.860794 54.507454
-28.075191 -76.530907 52.419556
-27.534794 -78.556747 51.124092
-28.797377 -78.452148 50.652523
-53.743542 -53.456234 50.513988
-55.487122 -53.321121 50.787403
-54.397766 -51.196686 50.335823
-56.110321 -46.714394 49.384682
-33.729008 -60.170422 54.546555
-34.001122 -61.646683 52.337536
-34.573158 -59.352356 52.74778
-37.120441 -55.500248 50.323112
-36.718563 -57.890591 49.877037
-38.034458 -57.24427 48.880215
-39.208351 -59.143337 47.888084
-39.500465 -56.650337 48.200253
-43.439484 -50.500336 48.312183
-41.742165 -51.04142 48.516121
-43.063347 -53.048447 48.043755
-42.792507 -55.604126 47.759884
-44.565041 -55.14407 47.941624
-46.166008 -57.284374 48.125912
-46.387642 -54.721722 48.328209
-50.542046 -51.547779 49.466236
-50.095333 -53.98843 49.454338
-51.9384 -53.68882 50.0373
-53.238083 -55.718372 50.504944
-17.771214 -82.967941 56.694473
-24.136002 -76.649261 57.893909
-23.189564 -78.349365 55.957024
-22.26775 -82.937752 48.184299
-21.495434 -81.776711 51.407494
-20.768921 -83.656372 48.920757
-19.244944 -84.628204 49.876774
-20.128201 -85.747391 46.425385
-21.083593 -87.123779 43.004715
-24.700928 -90.409531 36.165817
-30.85968 -91.805832 39.192432
-29.382141 -91.254623 37.968903
-29.049683 -69.327042 58.78059
-28.139593 -71.405472 57.919109
-29.05378 -70.661255 56.284897
-29.298599 -72.207001 54.094429
-29.80932 -73.992004 52.293083
-51.139252 -49.142212 49.334572
-53.173782 -49.001858 49.710339
-51.897301 -46.782536 49.049465
-35.097134 -57.062698 53.222843
-45.250057 -50.039593 48.346825
-46.702171 -52.177238 48.488369
-47.151749 -49.660423 48.572056
-49.122669 -49.361816 48.926273
-25.011732 -78.997574 52.284782
-23.690304 -79.4245 52.987217
-24.350471 -80.730606 50.122864
-23.733629 -82.493706 47.678207
-23.15999 -84.372238 45.036682
-22.618683 -86.448868 42.319145
-24.148512 -86.106995 42.000137
-25.203945 -88.140579 39.102676
-26.298698 -90.438446 36.363884
-25.339762 -75.96225 56.779591
-27.276857 -73.428619 56.893135
-26.470261 -75.372711 55.647034
-25.717218 -77.225349 54.124237
-26.284569 -78.722725 51.666203
-27.029203 -80.482834 49.430187
-27.920752 -82.509949 47.410439
-32.766235 -66.324188 51.77726
-32.157063 -68.725922 51.615974
-55.192673 -48.944126 49.959961
-57.155983 -48.974693 49.991768
-30.733158 -66.321022 57.54393
-31.519945 -65.476578 55.589733
-32.286221 -63.255211 56.048065
-32.392483 -64.690048 53.723766
-33.390308 -63.965717 52.011799
-34.538391 -63.304279 50.513084
-35.845722 -62.702801 49.275219
-35.564899 -58.592564 51.176422
-36.297733 -60.284657 49.515305
-37.305954 -62.155048 48.330547
-38.899765 -61.652096 47.694122
-40.598591 -61.183086 47.363144
-42.369099 -60.736084 47.317719
-39.807896 -54.158367 48.581856
-41.095261 -56.104954 47.833786
-42.575554 -58.165096 47.500435
-44.177528 -60.299019 47.522682
-45.993134 -59.860783 47.930035
-48.237961 -54.335739 48.856903
-49.775547 -56.457035 49.323574
-20.341019 -80.070839 57.91114
-22.305849 -80.034935 53.779778
-20.854656 -80.841324 54.664989
-19.340544 -81.831818 55.639763
-18.455851 -83.721085 53.314014
-17.701038 -85.796738 51.025063
-29.686871 -80.611206 49.182423
-29.290941 -82.745499 47.632633
-28.922256 -84.778046 45.572357
-30.000656 -87.227295 43.859322
-28.575565 -86.74791 43.038403
-28.233757 -88.716293 40.12925
-27.863047 -90.755035 36.991058
-27.69926 -71.200882 60.03821
-27.236809 -71.659149 60.887346
-34.021597 -59.046391 54.785936
-33.687565 -59.500504 55.7715
-34.443672 -58.637358 53.886549
-34.151083 -59.761389 53.647167
-34.021597 -59.046391 54.785936
-18.284054 -82.055168 57.813213
-17.479343 -82.636146 58.335155
-24.398013 -91.670654 34.774379
-25.232623 -91.590844 34.75316
-31.463852 -93.058281 38.258272
-31.586512 -92.039231 39.866807
-30.713398 -92.820328 37.546042
-31.463852 -93.058281 38.258272
-50.851478 -46.861025 48.915645
-51.518276 -47.962374 49.192019
-50.472454 -48.040863 49.058199
-45.534723 -48.783608 48.404922
-44.611683 -49.005047 48.445202
-46.485569 -48.594023 48.517538
-46.200903 -49.850008 48.45944
-45.534723 -48.783608 48.404922
-49.464163 -48.150665 48.85405
-48.446804 -48.273672 48.744171
-50.472454 -48.040863 49.058199
-50.130961 -49.252014 49.130423
-49.464163 -48.150665 48.85405
-25.691072 -74.505432 58.921274
-26.21631 -73.583595 59.645504
-25.79197 -75.042809 57.521241
-25.238864 -75.424873 58.179625
-25.691072 -74.505432 58.921274
-33.715675 -66.94783 50.340266
-33.104416 -67.251808 51.049049
-33.377494 -66.02021 51.068476
-56.706186 -52.234318 50.63015
-56.318554 -53.31667 50.776106
-55.874754 -52.23877 50.641447
-57.152593 -51.189324 50.425093
-56.706186 -52.234318 50.63015
-58.578875 -47.950943 49.501925
-58.087177 -49.037033 49.859905
-57.64768 -47.888603 49.633787
-59.091167 -46.890598 49.079618
-58.578875 -47.950943 49.501925
-31.153417 -65.23386 57.816242
-30.813744 -65.704087 58.853882
-31.546811 -64.811638 56.839144
-31.126551 -65.8988 56.566832
-31.153417 -65.23386 57.816242
-32.684168 -62.837771 55.078701
-32.64515 -62.150036 56.282747
-33.043097 -61.732596 55.313383
-40.778038 -52.616331 48.58136
-40.961351 -51.350141 48.754286
-41.558852 -52.307609 48.343195
-40.591717 -53.866083 48.376063
-39.994217 -52.908615 48.787154
-40.778038 -52.616331 48.58136
-47.884568 -58.138663 48.584463
-46.9781 -58.348465 48.303854
-47.072475 -57.074572 48.406521
-48.763474 -57.907152 48.899922
-47.884568 -58.138663 48.584463
-51.39234 -57.270899 49.855093
-50.512064 -57.465265 49.538048
-50.655822 -56.262669 49.640619
-52.203972 -57.032633 50.142528
-51.39234 -57.270899 49.855093
-53.813546 -56.635038 50.632597
-54.047007 -55.583033 50.689577
-21.621171 -78.750816 58.485544
-22.322316 -78.291183 57.951969
-21.074274 -79.601948 57.414964
-20.887916 -79.219707 58.981719
-21.621171 -78.750816 58.485544
-18.151302 -86.31569 49.279913
-18.472991 -85.212471 50.450919
-18.923255 -85.731423 48.705768
-17.386221 -86.942574 49.944075
-18.151302 -86.31569 49.279913
-22.863511 -88.534988 39.414633
-22.35029 -87.616119 40.990137
-23.131903 -87.367737 40.743641
-31.870114 -69.943169 51.546875
-32.537211 -69.707542 50.984074
-30.387571 -80.637401 49.175938
-29.898744 -79.487404 49.715403
-29.810678 -83.946747 46.900842
-29.992237 -82.855362 47.786825
-29.626335 -84.96302 45.870705
-29.106599 -83.761773 46.602495
-29.810678 -83.946747 46.900842
-29.847328 -88.235267 42.471294
-30.567315 -88.496116 43.03165
-30.413987 -89.504089 41.643623
-28.215527 -93.130134 34.238326
-27.638213 -91.843673 35.393055
-28.440361 -92.041496 35.836329
-26.694492 -72.621391 60.269655
-27.236809 -71.659149 60.887346
-26.722361 -73.161163 58.887041
-26.21631 -73.583595 59.645504
-26.694492 -72.621391 60.269655
-34.435892 -66.696831 49.798315
-34.678968 -65.439793 49.771101
-54.615332 -53.388678 50.650695
-55.171526 -54.384407 50.830806
-54.299736 -54.451964 50.694099
-55.546608 -45.589373 49.031855
-55.061554 -46.711391 49.33259
-54.497841 -45.586371 48.979764
-56.618042 -45.619209 49.002465
-55.546608 -45.589373 49.031855
-57.63257 -45.663269 48.948026
-57.124849 -46.758454 49.330244
-56.618042 -45.619209 49.002465
-58.660356 -45.732008 48.817409
-57.63257 -45.663269 48.948026
-33.366543 -60.607641 55.531992
-33.687565 -59.500504 55.7715
-33.405562 -61.295376 54.327946
-33.043097 -61.732596 55.313383
-33.366543 -60.607641 55.531992
-42.590824 -50.770878 48.414152
-41.997866 -49.777775 48.682363
-42.846525 -49.507233 48.580394
-54.299736 -54.451964 50.694099
-54.047007 -55.583033 50.689577
-53.490813 -54.587303 50.509466
-16.96358 -83.576767 57.253591
-17.479343 -82.636146 58.335155
-17.325981 -83.950623 55.57905
-16.96358 -83.576767 57.253591
-23.486553 -77.049285 58.439529
-24.032024 -76.190284 59.362448
-23.013334 -77.899338 57.471086
-23.486553 -77.049285 58.439529
-23.662783 -77.499313 56.925466
-22.498546 -78.741211 56.437906
-22.322316 -78.291183 57.951969
-23.013334 -77.899338 57.471086
-19.364883 -86.291016 46.980074
-18.923255 -85.731423 48.705768
-19.686573 -85.187797 48.151079
-19.842391 -86.921417 45.229695
-19.364883 -86.291016 46.980074
-20.320087 -87.609611 43.51936
-19.842391 -86.921417 45.229695
-20.605897 -86.435585 44.71505
-20.808858 -88.367836 41.786827
-20.320087 -87.609611 43.51936
-23.897154 -90.568726 36.30294
-23.369252 -89.507263 37.8041
-24.173026 -89.348069 37.666977
-23.897154 -90.568726 36.30294
-24.398013 -91.670654 34.774379
-30.996827 -90.785385 40.698206
-31.723658 -91.018783 41.372581
-31.586512 -92.039231 39.866807
-30.27684 -90.524536 40.13785
-30.413987 -89.504089 41.643623
-30.996827 -90.785385 40.698206
-29.974629 -92.544724 36.934277
-30.120911 -91.530227 38.580667
-30.713398 -92.820328 37.546042
-29.792395 -93.58139 35.290625
-29.199908 -92.29129 36.325251
-29.974629 -92.544724 36.934277
-28.594638 -70.366257 58.349849
-28.168784 -70.804138 59.242168
-28.623829 -69.764924 59.672909
-51.281643 -45.680537 48.782016
-50.851478 -46.861025 48.915645
-52.355118 -45.631609 48.832414
-51.281643 -45.680537 48.782016
-53.412861 -45.594535 48.947931
-52.955044 -46.745463 49.164982
-52.355118 -45.631609 48.832414
-54.497841 -45.586371 48.979764
-53.412861 -45.594535 48.947931
-34.971632 -56.360345 54.378959
-34.70566 -57.492528 54.12408
-35.344324 -55.910728 53.482781
-34.971632 -56.360345 54.378959
-35.808983 -55.506709 52.691954
-35.561792 -56.658678 52.432017
-35.344324 -55.910728 53.482781
-36.254435 -55.078968 51.89908
-35.808983 -55.506709 52.691954
-36.801429 -54.701763 51.240042
-36.573446 -55.877453 50.982151
-36.254435 -55.078968 51.89908
-37.330673 -54.298645 50.571243
-36.801429 -54.701763 51.240042
-37.962261 -53.949016 50.058958
-37.752029 -55.15062 49.810827
-37.330673 -54.298645 50.571243
-43.706396 -49.235418 48.427881
-42.846525 -49.507233 48.580394
-44.34477 -50.269965 48.329504
-43.706396 -49.235418 48.427881
-44.611683 -49.005047 48.445202
-47.461344 -48.422975 48.567063
-46.485569 -48.594023 48.517538
-48.137209 -49.511119 48.749165
-47.461344 -48.422975 48.567063
-48.446804 -48.273672 48.744171
-26.031508 -91.605301 34.852194
-25.232623 -91.590844 34.75316
-25.499813 -90.423989 36.26485
-24.636984 -75.768379 58.736784
-24.032024 -76.190284 59.362448
-24.737882 -76.305756 57.33675
-24.636984 -75.768379 58.736784
-25.238864 -75.424873 58.179625
-27.670068 -71.802216 58.715151
-27.69926 -71.200882 60.03821
-28.168784 -70.804138 59.242168
-32.79983 -68.452675 50.968407
-32.461649 -67.525055 51.696617
-33.104416 -67.251808 51.049049
-32.537211 -69.707542 50.984074
-32.79983 -68.452675 50.968407
-33.715675 -66.94783 50.340266
-34.435892 -66.696831 49.798315
-55.930743 -54.322321 50.877332
-55.171526 -54.384407 50.830806
-55.930743 -54.322321 50.877332
-56.318554 -53.31667 50.776106
-57.599392 -50.098461 50.173231
-57.152593 -51.189324 50.425093
-56.709184 -50.065556 50.243629
-57.599392 -50.098461 50.173231
-58.087177 -49.037033 49.859905
-59.091167 -46.890598 49.079618
-58.660356 -45.732008 48.817409
-29.129678 -68.740521 60.119396
-28.623829 -69.764924 59.672909
-29.515662 -68.271679 59.150411
-29.129678 -68.740521 60.119396
-29.930907 -67.856247 58.236199
-29.464929 -68.91161 57.866377
-29.515662 -68.271679 59.150411
-30.357399 -66.768669 58.532082
-30.813744 -65.704087 58.853882
-30.306666 -67.4086 57.248047
-29.930907 -67.856247 58.236199
-30.357399 -66.768669 58.532082
-32.321909 -62.613104 57.32315
-32.64515 -62.150036 56.282747
-31.929949 -63.700955 57.068309
-32.321909 -62.613104 57.32315
-31.903083 -64.365894 55.818899
-31.546811 -64.811638 56.839144
-31.929949 -63.700955 57.068309
-34.953787 -64.233816 49.847797
-34.678968 -65.439793 49.771101
-34.263572 -64.510255 50.436388
-35.607453 -63.933077 49.228865
-34.953787 -64.233816 49.847797
-35.192056 -63.00354 49.894151
-36.372866 -63.680762 48.776529
-35.607453 -63.933077 49.228865
-34.835146 -58.207527 52.985311
-34.443672 -58.637358 53.886549
-34.70566 -57.492528 54.12408
-37.102981 -63.406885 48.304193
-36.372866 -63.680762 48.776529
-36.575838 -62.428925 48.802883
-37.93309 -63.1738 47.995646
-37.102981 -63.406885 48.304193
-38.729996 -62.922323 47.677433
-37.93309 -63.1738 47.995646
-38.10286 -61.903572 48.012335
-39.609453 -62.702396 47.511578
-38.729996 -62.922323 47.677433
-40.458866 -62.467892 47.346089
-39.609453 -62.702396 47.511578
-39.749178 -61.417591 47.528633
-41.369681 -62.25421 47.313793
-40.458866 -62.467892 47.346089
-42.254935 -62.030709 47.29108
-41.369681 -62.25421 47.313793
-41.483845 -60.959585 47.340431
-43.178633 -61.815973 47.376156
-43.064469 -63.110598 47.349518
-42.254935 -62.030709 47.29108
-38.579403 -53.573742 49.529072
-37.962261 -53.949016 50.058958
-41.211314 -50.09721 48.962572
-41.997866 -49.777775 48.682363
-41.211314 -50.09721 48.962572
-40.961351 -51.350141 48.754286
-39.291542 -53.25243 49.170729
-39.994217 -52.908615 48.787154
-39.095757 -54.479679 48.940199
-38.579403 -53.573742 49.529072
-39.291542 -53.25243 49.170729
-44.082847 -61.597441 47.478638
-43.178633 -61.815973 47.376156
-43.273314 -60.517551 47.4202
-45.0023 -61.374531 47.65905
-44.082847 -61.597441 47.478638
-45.910103 -61.155413 47.862726
-45.0023 -61.374531 47.65905
-45.085331 -60.079901 47.726359
-46.810906 -60.918043 48.111952
-45.910103 -61.155413 47.862726
-46.891663 -59.636669 48.205916
-46.079571 -58.572578 48.027974
-46.9781 -58.348465 48.303854
-46.810906 -60.918043 48.111952
-46.891663 -59.636669 48.205916
-49.661776 -57.703285 49.218143
-48.763474 -57.907152 48.899922
-48.877245 -56.660902 49.005352
-49.661776 -57.703285 49.218143
-50.512064 -57.465265 49.538048
-53.054964 -56.857668 50.416168
-52.203972 -57.032633 50.142528
-52.38709 -55.893337 50.231304
-53.054964 -56.857668 50.416168
-53.813546 -56.635038 50.632597
-20.136868 -79.734829 59.503481
-20.887916 -79.219707 58.981719
-19.568956 -80.606617 58.421547
-20.136868 -79.734829 59.503481
-19.068719 -81.487106 57.285858
-19.568956 -80.606617 58.421547
-19.840781 -80.951329 56.775452
-18.555879 -82.399879 56.167118
-18.284054 -82.055168 57.813213
-19.068719 -81.487106 57.285858
-17.668299 -84.327195 53.888821
-17.325981 -83.950623 55.57905
-18.113532 -83.344513 55.004244
-17.290892 -85.365021 52.744345
-17.668299 -84.327195 53.888821
-18.078444 -84.758912 52.169539
-16.91934 -86.436341 51.674141
-17.290892 -85.365021 52.744345
-16.91934 -86.436341 51.674141
-17.386221 -86.942574 49.944075
-21.582746 -87.953575 41.332922
-21.851138 -86.786324 42.66193
-22.35029 -87.616119 40.990137
-20.808858 -88.367836 41.786827
-21.582746 -87.953575 41.332922
-22.863511 -88.534988 39.414633
-23.369252 -89.507263 37.8041
-31.300071 -70.240692 52.277922
-31.58702 -69.023446 52.347021
-31.870114 -69.943169 51.546875
-30.984735 -71.412548 52.109129
-30.701641 -70.492825 52.909275
-31.300071 -70.240692 52.277922
-30.719559 -72.633663 52.009794
-30.984735 -71.412548 52.109129
-30.431067 -73.797325 51.786095
-30.097812 -72.828342 52.516783
-30.719559 -72.633663 52.009794
-30.18672 -75.004375 51.601483
-30.431067 -73.797325 51.786095
-29.923371 -76.141315 51.271388
-29.545972 -75.128944 51.962988
-30.18672 -75.004375 51.601483
-29.69662 -77.314743 50.940638
-29.923371 -76.141315 51.271388
-30.337368 -77.190174 50.579133
-29.453997 -78.407875 50.450453
-29.04 -77.359016 51.142708
-29.69662 -77.314743 50.940638
-29.242124 -79.531677 49.917473
-29.453997 -78.407875 50.450453
-29.898744 -79.487404 49.715403
-30.190202 -81.788216 48.56172
-30.387571 -80.637401 49.175938
-29.488906 -81.678352 48.407528
-30.190202 -81.788216 48.56172
-29.992237 -82.855362 47.786825
-30.716273 -87.441894 44.3214
-30.567315 -88.496116 43.03165
-30.165535 -86.187645 45.014187
-30.716273 -87.441894 44.3214
-29.461456 -86.00267 44.71584
-29.626335 -84.96302 45.870705
-30.165535 -86.187645 45.014187
-26.856038 -91.685379 35.079468
-27.080873 -90.596741 36.677471
-27.638213 -91.843673 35.393055
-26.031508 -91.605301 34.852194
-26.856038 -91.685379 35.079468
-29.606793 -94.620735 33.591246
-29.792395 -93.58139 35.290625
-28.778588 -94.426338 33.040486
-29.606793 -94.620735 33.591246
-28.215527 -93.130134 34.238326
-28.778588 -94.426338 33.040486
3 0 39 37
3 1 42 40
3 1 44 42
3 152 45 153
3 3 48 46
3 3 50 48
3 4 53 51
3 154 55 155
3 156 57 157
3 158 157 55
3 156 157 158
3 5 60 58
3 5 62 60
3 6 65 63
3 6 67 65
3 6 69 67
3 4 72 70
3 4 51 72
3 159 74 160
3 2 76 75
3 7 79 77
3 7 81 79
3 7 82 81
3 162 161 83
3 163 84 164
3 166 165 84
3 8 88 86
3 10 89 38
3 10 90 89
3 167 93 168
3 169 168 91
3 167 168 169
3 170 95 171
3 172 97 173
3 174 173 95
3 172 173 174
3 175 98 176
3 177 91 178
3 179 178 98
3 177 178 179
3 14 101 99
3 16 102 41
3 16 103 102
3 16 105 103
3 18 106 43
3 18 107 106
3 19 180 181
3 19 182 184
3 182 108 183
3 182 183 184
3 9 109 87
3 20 110 47
3 20 111 110
3 20 112 111
3 21 113 49
3 21 114 113
3 22 185 187
3 187 186 115
3 185 186 187
3 23 188 190
3 190 189 52
3 188 189 190
3 23 191 192
3 11 117 92
3 24 118 54
3 24 193 195
3 195 194 118
3 193 194 195
3 24 196 197
3 198 119 199
3 200 120 201
3 202 201 119
3 200 201 202
3 25 203 205
3 203 121 204
3 203 204 205
3 25 122 121
3 25 123 122
3 26 124 56
3 26 125 124
3 12 126 94
3 27 127 59
3 27 128 127
3 27 129 128
3 28 130 61
3 28 131 130
3 29 206 208
3 208 207 64
3 206 207 208
3 29 209 211
3 209 132 210
3 209 210 211
3 29 133 132
3 30 134 66
3 30 135 134
3 30 136 135
3 31 212 214
3 214 213 68
3 212 213 214
3 31 215 216
3 13 137 96
3 32 138 71
3 32 217 219
3 219 218 138
3 217 218 219
3 32 220 221
3 223 222 73
3 33 224 225
3 33 226 228
3 226 139 227
3 226 227 228
3 15 140 100
3 34 141 78
3 34 142 141
3 34 143 142
3 229 144 230
3 231 230 80
3 229 230 231
3 233 232 144
3 17 234 236
3 236 235 104
3 234 235 236
3 238 237 116
3 239 145 240
3 241 146 242
3 243 147 244
3 245 244 146
3 243 244 245
3 35 246 248
3 246 148 247
3 246 247 248
3 35 149 148
3 35 150 149
3 36 151 85
3 36 249 251
3 251 250 151
3 249 250 251
3 37 38 8
3 39 38 37
3 39 10 38
3 40 41 14
3 42 41 40
3 42 16 41
3 42 43 16
3 44 43 42
3 44 18 43
3 45 252 253
3 45 254 256
3 254 19 255
3 254 255 256
3 46 47 9
3 48 47 46
3 48 20 47
3 48 49 20
3 50 49 48
3 50 21 49
3 258 257 22
3 51 259 261
3 259 52 260
3 259 260 261
3 53 52 51
3 53 23 52
3 262 54 263
3 264 263 11
3 262 263 264
3 265 54 266
3 267 24 268
3 269 268 54
3 267 268 269
3 271 270 24
3 55 272 273
3 55 274 276
3 274 25 275
3 274 275 276
3 55 56 25
3 57 56 55
3 57 26 56
3 58 59 12
3 60 59 58
3 60 27 59
3 60 61 27
3 62 61 60
3 62 28 61
3 63 277 279
3 277 64 278
3 277 278 279
3 65 64 63
3 65 29 64
3 65 66 29
3 67 66 65
3 67 30 66
3 67 68 30
3 69 68 67
3 69 31 68
3 70 71 13
3 72 71 70
3 72 32 71
3 72 73 32
3 51 73 72
3 51 280 282
3 282 281 73
3 280 281 282
3 74 283 284
3 74 285 286
3 75 287 288
3 76 289 291
3 291 290 75
3 289 290 291
3 76 292 294
3 292 33 293
3 292 293 294
3 77 78 15
3 79 78 77
3 79 34 78
3 79 80 34
3 81 80 79
3 81 295 297
3 297 296 80
3 295 296 297
3 81 298 299
3 82 300 302
3 302 301 81
3 300 301 302
3 82 303 304
3 83 305 307
3 307 306 17
3 305 306 307
3 309 308 83
3 84 310 312
3 310 311 312
3 84 313 315
3 313 35 314
3 313 314 315
3 84 85 35
3 316 85 317
3 318 317 84
3 316 317 318
3 319 36 320
3 321 320 85
3 319 320 321
3 86 322 324
3 322 87 323
3 322 323 324
3 88 87 86
3 88 9 87
3 38 88 8
3 89 88 38
3 89 9 88
3 89 46 9
3 90 46 89
3 90 3 46
3 91 92 4
3 93 92 91
3 93 11 92
3 325 93 326
3 327 93 328
3 329 11 330
3 331 330 93
3 329 330 331
3 333 332 11
3 334 94 335
3 336 94 337
3 338 12 339
3 340 339 94
3 338 339 340
3 341 12 342
3 343 58 344
3 345 344 12
3 343 344 345
3 346 58 347
3 348 5 349
3 350 349 58
3 348 349 350
3 351 63 352
3 95 353 355
3 353 63 354
3 353 354 355
3 95 6 63
3 95 96 6
3 97 96 95
3 97 13 96
3 356 97 357
3 98 358 360
3 358 97 359
3 358 359 360
3 98 13 97
3 98 70 13
3 91 70 98
3 91 4 70
3 99 100 2
3 101 100 99
3 101 15 100
3 41 101 14
3 102 101 41
3 102 15 101
3 102 77 15
3 103 77 102
3 103 7 77
3 103 104 7
3 105 104 103
3 105 17 104
3 43 105 16
3 106 105 43
3 106 17 105
3 106 83 17
3 107 83 106
3 107 361 363
3 363 362 83
3 361 362 363
3 364 75 365
3 108 366 368
3 366 75 367
3 366 367 368
3 108 2 75
3 87 369 371
3 369 45 370
3 369 370 371
3 109 45 87
3 109 19 45
3 47 109 9
3 110 109 47
3 110 19 109
3 110 108 19
3 111 108 110
3 111 2 108
3 111 99 2
3 112 99 111
3 112 14 99
3 49 112 20
3 113 112 49
3 113 14 112
3 113 40 14
3 114 40 113
3 114 1 40
3 115 116 0
3 372 116 373
3 374 373 115
3 372 373 374
3 376 375 116
3 378 377 22
3 52 379 380
3 382 381 52
3 92 53 4
3 117 53 92
3 117 23 53
3 54 117 11
3 118 117 54
3 118 23 117
3 118 383 385
3 385 384 23
3 383 384 385
3 387 386 118
3 389 388 24
3 390 86 391
3 392 86 393
3 394 8 395
3 396 395 86
3 394 395 396
3 119 397 398
3 119 399 401
3 399 8 400
3 399 400 401
3 119 37 8
3 120 37 119
3 120 0 37
3 121 402 403
3 121 404 405
3 121 406 408
3 406 120 407
3 406 407 408
3 122 120 121
3 122 0 120
3 122 115 0
3 123 115 122
3 123 22 115
3 56 123 25
3 124 123 56
3 124 22 123
3 124 409 411
3 411 410 22
3 409 410 411
3 125 412 414
3 414 413 124
3 412 413 414
3 125 415 416
3 94 417 419
3 417 57 418
3 417 418 419
3 126 57 94
3 126 26 57
3 59 126 12
3 127 126 59
3 127 26 126
3 127 125 26
3 128 125 127
3 128 420 422
3 422 421 125
3 420 421 422
3 128 423 424
3 129 425 427
3 427 426 128
3 425 426 427
3 129 428 429
3 61 129 27
3 130 129 61
3 130 430 432
3 432 431 129
3 430 431 432
3 130 433 434
3 131 435 437
3 437 436 130
3 435 436 437
3 131 438 440
3 438 439 440
3 441 5 442
3 64 443 444
3 446 445 64
3 132 447 448
3 132 449 451
3 449 5 450
3 449 450 451
3 132 62 5
3 133 62 132
3 133 28 62
3 66 133 29
3 134 133 66
3 134 28 133
3 134 131 28
3 135 131 134
3 135 452 454
3 454 453 131
3 452 453 454
3 135 455 456
3 136 457 459
3 459 458 135
3 457 458 459
3 136 460 461
3 68 136 30
3 462 136 463
3 464 463 68
3 462 463 464
3 466 465 136
3 96 69 6
3 137 69 96
3 137 31 69
3 71 137 13
3 138 137 71
3 138 31 137
3 138 467 469
3 469 468 31
3 467 468 469
3 471 470 138
3 73 472 474
3 474 473 32
3 472 473 474
3 476 475 73
3 139 477 478
3 139 479 480
3 100 76 2
3 140 76 100
3 140 33 76
3 78 140 15
3 141 140 78
3 141 33 140
3 141 139 33
3 142 139 141
3 142 481 483
3 483 482 139
3 481 482 483
3 142 484 486
3 484 74 485
3 484 485 486
3 143 74 142
3 143 487 489
3 489 488 74
3 487 488 489
3 80 143 34
3 144 143 80
3 144 490 492
3 492 491 143
3 490 491 492
3 144 493 494
3 496 495 144
3 104 82 7
3 497 82 498
3 499 498 104
3 497 498 499
3 501 500 82
3 503 502 17
3 116 39 0
3 504 39 505
3 506 505 116
3 504 505 506
3 507 10 508
3 509 508 39
3 507 508 509
3 510 10 511
3 512 90 513
3 514 513 10
3 512 513 514
3 515 90 516
3 517 3 518
3 519 518 90
3 517 518 519
3 520 3 521
3 520 521 522
3 523 50 524
3 525 524 3
3 523 524 525
3 145 526 528
3 526 50 527
3 526 527 528
3 145 21 50
3 529 145 530
3 146 531 533
3 531 145 532
3 531 532 533
3 146 21 145
3 146 114 21
3 147 114 146
3 147 1 114
3 148 534 535
3 148 536 537
3 148 538 540
3 538 147 539
3 538 539 540
3 149 147 148
3 149 1 147
3 149 44 1
3 150 44 149
3 150 18 44
3 85 150 35
3 151 150 85
3 151 18 150
3 151 107 18
3 541 107 542
3 543 542 151
3 541 542 543
3 545 544 107
3 546 36 547
3 548 36 549
3 551 550 36
