ply
format ascii 1.0
element vertex 250
property float x
property float y
property float z
element face 239
property list uchar int vertex_index
end_header
27.14016 -77.567055 -21.449865
27.700565 -64.132378 -20.990908
33.342098 -57.469273 -28.121805
29.223103 -87.831116 -22.990675
34.929256 -68.476196 -27.944872
22.902317 -80.44017 -18.516497
27.660194 -83.211777 -22.21739
32.286602 -78.409485 -25.147696
30.950947 -73.458336 -24.76779
36.090755 -53.124187 -31.596472
38.171501 -43.281456 -35.191383
23.35268 -73.331741 -18.100752
27.392748 -71.091522 -20.966108
30.618229 -67.645546 -24.431555
30.83375 -61.258953 -24.357016
34.542114 -82.371536 -25.362745
33.698029 -63.287167 -28.020597
37.351143 -58.412441 -31.086695
25.104557 -79.173645 -19.918341
22.7934 -83.74147 -18.939775
25.095573 -82.296753 -20.323729
25.306238 -85.18589 -20.793375
27.275019 -80.509415 -21.815695
29.384239 -78.412949 -23.384619
29.062609 -75.64801 -23.086309
25.742992 -65.151382 -19.589293
23.519411 -69.621437 -18.151075
25.681734 -68.786736 -19.437296
25.492893 -72.371979 -19.448664
27.593935 -67.646004 -20.905737
29.251467 -66.208755 -22.556231
30.367603 -89.740105 -23.311354
33.175423 -86.961395 -24.389456
31.896986 -85.211754 -24.213148
33.648602 -73.4841 -26.482775
34.643108 -75.684906 -26.510931
32.065968 -62.559975 -26.213247
32.12326 -65.555466 -26.253904
33.437653 -60.436588 -28.057169
37.763836 -50.848595 -33.048187
36.615997 -55.837246 -31.347311
20.349117 -84.824715 -17.654413
25.77379 -87.817108 -21.286051
28.312464 -85.655167 -22.619139
30.817337 -83.204529 -23.975382
29.9711 -80.936646 -23.691168
31.489187 -76.053329 -24.966673
32.886036 -71.049583 -26.414026
34.63562 -55.342915 -29.937551
35.725136 -50.318932 -31.849932
37.177654 -48.150421 -33.401535
23.118156 -76.955078 -18.227167
25.267002 -75.850975 -19.616083
27.206553 -74.414505 -21.155962
28.980854 -72.667038 -22.828852
29.076231 -69.505676 -22.643156
30.709356 -64.50029 -24.349451
32.114048 -59.457657 -26.230291
33.316872 -80.516159 -25.285646
30.672749 -70.645294 -24.579851
32.37994 -68.397751 -26.329115
34.189041 -65.977982 -27.990667
34.930172 -58.18082 -29.791616
35.425869 -60.891788 -29.649839
36.156124 -63.43684 -29.493048
28.544759 -63.480422 -21.790171
28.491443 -65.237234 -21.747585
27.64725 -65.889191 -20.948322
28.36157 -90.047428 -22.596314
27.865781 -89.004261 -22.37764
29.795353 -88.78561 -23.151015
28.93382 -91.001923 -22.756653
28.36157 -90.047428 -22.596314
35.414243 -69.618042 -27.902839
34.773916 -72.121994 -27.171791
34.288929 -70.980148 -27.213824
36.020031 -67.13232 -28.623125
35.414243 -69.618042 -27.902839
38.143785 -52.143618 -32.869835
38.715018 -49.693606 -33.666882
21.625717 -82.632442 -18.085455
20.436791 -83.089703 -17.441782
21.71339 -80.89743 -17.872824
21.556063 -85.915729 -18.571853
22.829712 -85.280964 -19.1982
35.574044 -48.897701 -31.985993
35.09263 -51.372962 -30.977871
37.674577 -45.715939 -34.296459
36.93815 -46.773756 -33.582295
37.435074 -44.339274 -34.477218
38.513479 -44.614727 -34.96246
38.016555 -47.04921 -34.067536
37.674577 -45.715939 -34.296459
39.016245 -42.215811 -35.798248
38.513479 -44.614727 -34.96246
22.180712 -73.651336 -17.497537
22.264077 -71.796185 -17.522699
23.436045 -71.476589 -18.125913
22.061528 -75.526481 -17.53438
22.180712 -73.651336 -17.497537
23.235418 -75.143409 -18.16396
21.944266 -77.33815 -17.597588
22.061528 -75.526481 -17.53438
35.233043 -83.176293 -25.366387
34.549698 -85.471222 -24.879742
33.858768 -84.666466 -24.8761
35.85346 -80.868957 -25.870403
35.233043 -83.176293 -25.366387
35.236145 -76.665062 -26.495209
35.850566 -74.251228 -27.115212
37.82535 -59.614275 -30.942059
37.22784 -62.126475 -30.145235
36.753633 -60.92464 -30.289872
23.980798 -84.558605 -19.890177
22.829712 -85.280964 -19.1982
23.944487 -83.019112 -19.631752
25.200906 -83.741321 -20.558552
24.086131 -86.003174 -20.125
23.980798 -84.558605 -19.890177
37.853295 -41.94046 -35.427891
37.435074 -44.339274 -34.477218
38.287931 -39.566128 -36.318176
38.606138 -40.907123 -36.081668
37.853295 -41.94046 -35.427891
24.631202 -67.386409 -18.870184
23.536317 -67.751533 -18.262149
24.648108 -65.516506 -18.981259
29.32021 -64.51861 -22.572833
28.422701 -66.92738 -21.730984
28.491443 -65.237234 -21.747585
30.111351 -62.043709 -23.473225
30.042609 -63.733854 -23.456623
29.32021 -64.51861 -22.572833
29.546784 -91.910496 -22.947386
28.93382 -91.001923 -22.756653
31.041123 -90.564728 -23.44084
29.546784 -91.910496 -22.947386
31.771513 -88.35075 -23.850405
32.445033 -89.175373 -23.979891
31.041123 -90.564728 -23.44084
35.271169 -73.222397 -27.185869
34.145855 -74.584503 -26.496853
34.773916 -72.121994 -27.171791
35.850566 -74.251228 -27.115212
35.271169 -73.222397 -27.185869
37.569866 -54.637943 -32.019397
37.189916 -53.342921 -32.197749
38.143785 -52.143618 -32.869835
37.937439 -55.925541 -31.889089
36.98357 -57.124843 -31.217003
37.569866 -54.637943 -32.019397
38.414236 -57.146103 -31.701863
37.937439 -55.925541 -31.889089
25.681472 -63.340294 -19.741227
24.648108 -65.516506 -18.981259
26.683542 -62.881359 -20.406609
25.681472 -63.340294 -19.741227
27.662329 -62.371857 -21.107416
26.721778 -64.64188 -20.290101
26.683542 -62.881359 -20.406609
28.537972 -61.777756 -21.872998
27.662329 -62.371857 -21.107416
19.068882 -85.1834 -17.0383
20.436791 -83.089703 -17.441782
19.014511 -86.903599 -17.323628
19.068882 -85.1834 -17.0383
20.333922 -86.457352 -17.929172
21.571258 -84.283093 -18.297094
21.556063 -85.915729 -18.571853
19.014511 -86.903599 -17.323628
20.333922 -86.457352 -17.929172
24.239289 -87.416886 -20.406948
24.086131 -86.003174 -20.125
24.473065 -88.732495 -20.653286
24.239289 -87.416886 -20.406948
25.540014 -86.501499 -21.039713
24.756736 -90.011231 -20.9362
24.473065 -88.732495 -20.653286
26.141125 -88.997257 -21.525328
24.756736 -90.011231 -20.9362
27.410461 -87.916287 -22.191872
26.141125 -88.997257 -21.525328
27.043127 -86.736138 -21.952595
28.767784 -86.743142 -22.804907
27.865781 -89.004261 -22.37764
27.410461 -87.916287 -22.191872
34.547872 -53.884953 -30.021681
33.988859 -56.406094 -29.029678
33.901111 -54.948132 -29.113808
35.180378 -52.830923 -30.893741
34.547872 -53.884953 -30.021681
35.09263 -51.372962 -30.977871
36.211892 -47.858012 -32.806493
35.574044 -48.897701 -31.985993
36.451395 -49.234676 -32.625734
36.211892 -47.858012 -32.806493
36.93815 -46.773756 -33.582295
38.309646 -48.398297 -33.890861
37.470745 -49.499508 -33.224861
38.016555 -47.04921 -34.067536
38.715018 -49.693606 -33.666882
38.309646 -48.398297 -33.890861
39.450882 -39.841479 -36.688533
39.016245 -42.215811 -35.798248
38.606138 -40.907123 -36.081668
22.346125 -69.888443 -17.581218
23.536317 -67.751533 -18.262149
22.346125 -69.888443 -17.581218
22.264077 -71.796185 -17.522699
21.82131 -79.154885 -17.728159
21.944266 -77.33815 -17.597588
23.010236 -78.697624 -18.371832
21.71339 -80.89743 -17.872824
21.82131 -79.154885 -17.728159
28.544759 -63.480422 -21.790171
28.537972 -61.777756 -21.872998
30.849398 -59.618242 -24.414864
30.111351 -62.043709 -23.473225
31.488217 -58.780552 -25.341444
30.849398 -59.618242 -24.414864
32.128366 -57.879904 -26.278081
31.473899 -60.358305 -25.293654
31.488217 -58.780552 -25.341444
32.708276 -56.947119 -27.232546
32.128366 -57.879904 -26.278081
33.322301 -55.952927 -28.178303
32.728073 -58.463465 -27.176048
32.708276 -56.947119 -27.232546
33.901111 -54.948132 -29.113808
33.322301 -55.952927 -28.178303
33.896429 -87.711983 -24.443172
33.166038 -89.925961 -24.033608
32.445033 -89.175373 -23.979891
33.896429 -87.711983 -24.443172
34.549698 -85.471222 -24.879742
34.573027 -79.080689 -25.882566
33.97999 -78.100532 -25.898288
35.236145 -76.665062 -26.495209
35.185648 -80.008377 -25.921115
33.929493 -81.443848 -25.324196
34.573027 -79.080689 -25.882566
35.85346 -80.868957 -25.870403
35.185648 -80.008377 -25.921115
36.633465 -64.612642 -29.397213
36.020031 -67.13232 -28.623125
35.54269 -65.956518 -28.71896
36.633465 -64.612642 -29.397213
37.22784 -62.126475 -30.145235
37.82535 -59.614275 -30.942059
38.414236 -57.146103 -31.701863
3 0 20 18
3 0 22 20
3 0 24 22
3 1 27 25
3 1 29 27
3 1 65 67
3 67 66 29
3 65 66 67
3 3 68 69
3 3 70 72
3 70 31 71
3 70 71 72
3 3 33 31
3 4 73 75
3 75 74 34
3 73 74 75
3 4 76 77
3 2 38 36
3 79 78 39
3 5 80 82
3 80 41 81
3 80 81 82
3 84 83 19
3 6 42 21
3 6 43 42
3 6 45 43
3 8 46 23
3 8 47 46
3 85 49 86
3 10 87 89
3 87 50 88
3 87 88 89
3 10 90 92
3 92 91 50
3 90 91 92
3 10 93 94
3 11 95 97
3 97 96 26
3 95 96 97
3 11 98 99
3 11 100 102
3 100 51 101
3 100 101 102
3 12 52 28
3 12 53 52
3 12 55 53
3 14 56 30
3 14 57 56
3 15 103 105
3 105 104 32
3 103 104 105
3 15 106 107
3 7 58 44
3 109 108 35
3 13 59 54
3 16 60 37
3 16 61 60
3 9 62 48
3 17 63 40
3 17 64 63
3 17 110 112
3 112 111 64
3 110 111 112
3 18 19 5
3 20 19 18
3 20 113 115
3 115 114 19
3 113 114 115
3 20 116 118
3 116 21 117
3 116 117 118
3 22 21 20
3 22 6 21
3 22 23 6
3 24 23 22
3 24 8 23
3 119 10 120
3 123 122 10
3 121 122 123
3 25 124 126
3 124 26 125
3 124 125 126
3 27 26 25
3 27 11 26
3 27 28 11
3 29 28 27
3 29 12 28
3 29 30 12
3 127 30 128
3 129 128 29
3 127 128 129
3 130 14 131
3 132 131 30
3 130 131 132
3 31 133 134
3 31 135 136
3 31 137 139
3 137 32 138
3 137 138 139
3 33 32 31
3 33 15 32
3 34 35 7
3 140 35 141
3 142 141 34
3 140 141 142
3 144 143 35
3 36 37 13
3 38 37 36
3 38 16 37
3 39 40 9
3 145 40 146
3 147 146 39
3 145 146 147
3 148 17 149
3 150 149 40
3 148 149 150
3 152 151 17
3 153 25 154
3 155 25 156
3 157 1 158
3 159 158 25
3 157 158 159
3 161 160 1
3 41 162 163
3 41 164 165
3 19 41 5
3 166 41 167
3 168 167 19
3 166 167 168
3 170 169 41
3 21 171 172
3 42 173 175
3 175 174 21
3 173 174 175
3 42 176 177
3 42 178 179
3 43 180 182
3 182 181 42
3 180 181 182
3 43 183 185
3 183 3 184
3 183 184 185
3 43 44 3
3 45 44 43
3 45 7 44
3 23 45 6
3 46 45 23
3 46 7 45
3 46 34 7
3 47 34 46
3 47 4 34
3 186 48 187
3 188 187 2
3 186 187 188
3 49 189 191
3 189 48 190
3 189 190 191
3 49 9 48
3 192 49 193
3 50 194 196
3 194 49 195
3 194 195 196
3 50 9 49
3 50 39 9
3 197 39 198
3 199 198 50
3 197 198 199
3 201 200 39
3 204 203 10
3 202 203 204
3 26 205 206
3 208 207 26
3 51 209 210
3 51 211 213
3 211 5 212
3 211 212 213
3 28 51 11
3 52 51 28
3 52 5 51
3 52 18 5
3 53 18 52
3 53 0 18
3 53 54 0
3 55 54 53
3 55 13 54
3 30 55 12
3 56 55 30
3 56 13 55
3 56 36 13
3 57 36 56
3 57 2 36
3 215 214 1
3 216 14 217
3 218 14 219
3 220 57 221
3 222 221 14
3 220 221 222
3 223 57 224
3 225 2 226
3 227 226 57
3 225 226 227
3 229 228 2
3 32 230 232
3 230 231 232
3 234 233 32
3 44 33 3
3 58 33 44
3 58 15 33
3 35 58 7
3 235 58 236
3 237 236 35
3 235 236 237
3 238 15 239
3 240 239 58
3 238 239 240
3 242 241 15
3 54 24 0
3 59 24 54
3 59 8 24
3 37 59 13
3 60 59 37
3 60 8 59
3 60 47 8
3 61 47 60
3 61 4 47
3 48 38 2
3 62 38 48
3 62 16 38
3 40 62 9
3 63 62 40
3 63 16 62
3 63 61 16
3 64 61 63
3 64 4 61
3 64 243 245
3 245 244 4
3 243 244 245
3 247 246 64
3 249 248 17
