ply
format ascii 1.0
element vertex 67
property float x
property float y
property float z
element face 51
property list uchar int vertex_index
end_header
63.413284 -3.071595 -31.696463
63.305367 -7.552051 -26.577795
63.161491 -1.369673 -27.03137
63.957939 -6.379697 -31.078821
63.708969 -8.591102 -28.586824
63.398056 -5.306206 -29.133074
63.247627 -4.388325 -26.885359
63.107506 -2.118835 -29.496874
64.041847 -4.212818 -33.57177
63.267006 -0.88969 -34.254974
63.148037 -1.472296 -31.905723
62.995148 -0.995916 -30.805929
63.260395 -2.595215 -30.596668
64.454064 -4.890629 -34.34082
64.435814 -5.916616 -33.132561
63.959335 -3.174779 -34.814873
64.454064 -4.890629 -34.34082
63.344967 -9.17773 -26.341724
63.546768 -9.697256 -27.346239
63.507168 -8.071576 -27.58231
63.259758 -8.66336 -25.312315
63.344967 -9.17773 -26.341724
63.339863 -7.100509 -25.438289
63.259758 -8.66336 -25.312315
63.326828 -2.515283 -25.719263
63.369896 -4.02461 -25.646258
63.204559 -2.878999 -26.958365
63.332477 -1.126948 -25.713108
63.326828 -2.515283 -25.719263
63.075924 0.029919 -27.035811
63.332477 -1.126948 -25.713108
62.881897 0.710032 -34.489685
63.073548 0.152507 -35.526554
63.833454 -7.485399 -29.832822
64.122185 -9.174488 -29.433739
64.246669 -8.068786 -30.679737
62.952434 -0.602419 -29.589245
62.979427 -0.227838 -28.356493
63.134498 -1.744254 -28.264122
62.952434 -0.602419 -29.589245
62.995148 -0.995916 -30.805929
64.39386 -7.000056 -31.886086
64.246669 -8.068786 -30.679737
63.999893 -5.296258 -32.325296
64.39386 -7.000056 -31.886086
64.435814 -5.916616 -33.132561
63.571915 -1.513215 -35.156475
63.654426 -2.551254 -33.913372
63.959335 -3.174779 -34.814873
63.073548 0.152507 -35.526554
63.571915 -1.513215 -35.156475
63.889084 -10.262124 -28.231367
64.122185 -9.174488 -29.433739
63.889084 -10.262124 -28.231367
63.546768 -9.697256 -27.346239
63.310993 -5.518646 -25.592072
63.339863 -7.100509 -25.438289
63.276497 -5.970188 -26.731577
63.310993 -5.518646 -25.592072
63.369896 -4.02461 -25.646258
63.075924 0.029919 -27.035811
62.979427 -0.227838 -28.356493
63.074898 -0.381344 -33.184978
63.148037 -1.472296 -31.905723
63.340145 -1.980642 -32.975718
63.074898 -0.381344 -33.184978
62.881897 0.710032 -34.489685
3 0 5 3
3 0 7 5
3 0 10 12
3 12 11 7
3 10 11 12
3 13 8 14
3 16 15 8
3 1 17 19
3 19 18 4
3 17 18 19
3 1 20 21
3 1 22 23
3 2 24 26
3 26 25 6
3 24 25 26
3 2 27 28
3 2 29 30
3 32 31 9
3 3 33 35
3 33 4 34
3 33 34 35
3 5 4 3
3 5 1 4
3 5 6 1
3 7 6 5
3 7 2 6
3 7 36 38
3 38 37 2
3 36 37 38
3 40 39 7
3 41 3 42
3 8 43 45
3 43 3 44
3 43 44 45
3 8 0 3
3 8 9 0
3 46 9 47
3 48 47 8
3 46 47 48
3 50 49 9
3 4 51 52
3 54 53 4
3 6 55 57
3 57 56 1
3 55 56 57
3 59 58 6
3 61 60 2
3 9 62 64
3 64 63 0
3 62 63 64
3 66 65 9
