ply
format ascii 1.0
element vertex 166
property float x
property float y
property float z
element face 144
property list uchar int vertex_index
end_header
-21.739716 29.059074 60.244938
-22.003092 15.277103 64.747856
-19.069199 19.265789 66.411346
-16.383825 15.973091 70.594696
-25.578226 18.594421 62.731892
-25.468596 11.956388 63.686535
-22.111269 22.191643 63.068451
-18.979015 26.553875 64.127762
-17.616402 13.915955 69.22467
-23.156981 30.37841 58.506344
-21.304262 32.511078 58.457813
-19.510475 34.89674 58.674236
-20.009991 31.342178 60.491917
-23.745773 16.914829 63.623318
-23.793447 20.293777 62.8241
-22.091866 18.742268 64.041664
-17.708683 21.45089 67.437187
-19.081619 22.91803 65.385223
-17.643545 25.204079 66.264946
-20.384853 13.631554 66.171059
-20.484043 17.195877 65.501694
-18.991354 15.59985 67.233704
-17.683578 17.683998 68.411804
-16.397552 19.838318 69.636436
-27.453655 20.363205 61.973797
-27.466656 17.074951 62.716339
-25.526075 15.270042 63.336971
-23.659184 13.529068 64.152512
-21.913082 11.812275 65.263565
-23.73756 23.65778 61.69873
-22.005554 25.626022 61.798115
-20.548042 20.750362 64.629562
-20.516953 24.286842 63.505241
-20.345577 27.812 62.118172
-16.991641 24.452331 67.386585
-17.676114 23.327485 66.851067
-17.02421 22.575737 67.972705
-16.908744 26.377302 66.728756
-16.991641 24.452331 67.386585
-18.948865 13.769098 67.572495
-19.688104 14.615702 66.702382
-19.645615 12.784949 67.041172
-18.628101 36.187413 58.889871
-18.912011 34.357695 59.813757
-28.458391 16.38957 62.702028
-28.445189 18.02453 62.439058
-25.497335 13.613215 63.511753
-26.480853 14.532543 63.228124
-26.452114 12.875716 63.402907
-21.902689 10.096919 65.483871
-22.760061 10.987012 64.89125
-21.114773 10.947623 65.993675
-21.902689 10.096919 65.483871
-25.566243 20.252708 62.258069
-26.503957 21.1371 61.879021
-26.51594 19.478813 62.352845
-18.853241 28.368109 63.384627
-19.536522 28.997172 62.379832
-19.662296 27.182938 63.122967
-17.587877 12.0449 69.58046
-18.261389 12.92715 68.567978
-16.978619 13.020989 70.322456
-17.587877 12.0449 69.58046
-16.36233 14.049557 71.007469
-17.000114 14.944523 69.909683
-16.978619 13.020989 70.322456
-22.887919 32.075164 57.531566
-23.875146 31.107281 57.69865
-21.96156 33.141498 57.507301
-22.887919 32.075164 57.531566
-22.230621 31.444744 58.482079
-21.009784 34.256277 57.481678
-21.96156 33.141498 57.507301
-20.407369 33.703909 58.566024
-20.11289 35.449108 57.589889
-21.009784 34.256277 57.481678
-19.161769 32.580413 60.722597
-18.912011 34.357695 59.813757
-19.760233 33.119459 59.583077
-26.451071 11.254052 63.494436
-26.452114 12.875716 63.402907
-17.546815 27.073735 65.574367
-18.21455 27.748632 64.505775
-18.31128 25.878977 65.196354
-17.546815 27.073735 65.574367
-16.908744 26.377302 66.728756
-24.118257 29.448936 58.65945
-23.875146 31.107281 57.69865
-23.344595 28.696054 59.37565
-24.118257 29.448936 58.65945
-22.635963 28.036386 60.244947
-22.448349 29.718742 59.375641
-23.344595 28.696054 59.37565
-18.303878 14.757903 68.229187
-18.948865 13.769098 67.572495
-18.261389 12.92715 68.567978
-16.368645 21.769451 69.07233
-17.02421 22.575737 67.972705
-17.053117 20.644604 68.536811
-19.190345 36.693918 57.6993
-20.11289 35.449108 57.589889
-19.190345 36.693918 57.6993
-18.628101 36.187413 58.889871
-28.438689 19.668658 62.067787
-28.387611 21.307035 61.603639
-27.460155 18.719078 62.345068
-28.438689 19.668658 62.067787
-28.445189 18.02453 62.439058
-27.451144 15.434997 62.917808
-28.458391 16.38957 62.702028
-26.496365 16.172497 63.026655
-27.451144 15.434997 62.917808
-26.480853 14.532543 63.228124
-25.474473 10.321772 63.802784
-26.451071 11.254052 63.494436
-24.537818 11.059069 64.102735
-25.474473 10.321772 63.802784
-23.633112 11.845409 64.335724
-24.56389 12.742728 63.919523
-24.537818 11.059069 64.102735
-22.786133 12.670672 64.708039
-23.633112 11.845409 64.335724
-22.760061 10.987012 64.89125
-20.350658 11.857263 66.447422
-21.148967 12.721915 65.717312
-21.114773 10.947623 65.993675
-19.645615 12.784949 67.041172
-20.350658 11.857263 66.447422
-27.393731 22.003881 61.404512
-28.387611 21.307035 61.603639
-27.393731 22.003881 61.404512
-26.503957 21.1371 61.879021
-24.673853 21.102386 62.304172
-25.566243 20.252708 62.258069
-24.685837 19.444099 62.777996
-24.64591 22.784388 61.741487
-24.673853 21.102386 62.304172
-23.765504 21.975778 62.261415
-24.568077 24.437075 61.083218
-24.64591 22.784388 61.741487
-23.634884 25.335739 60.971843
-24.568077 24.437075 61.083218
-22.768881 26.31986 61.021536
-23.634884 25.335739 60.971843
-22.871557 24.641901 61.748423
-21.872635 27.342548 61.021527
-22.635963 28.036386 60.244947
-22.768881 26.31986 61.021536
-19.368729 30.762261 61.566704
-20.177784 29.577089 61.305045
-19.536522 28.997172 62.379832
-19.161769 32.580413 60.722597
-19.368729 30.762261 61.566704
-18.853241 28.368109 63.384627
-18.21455 27.748632 64.505775
-15.764963 15.048222 71.743885
-16.36233 14.049557 71.007469
-15.759821 17.015898 71.264202
-15.764963 15.048222 71.743885
-15.766685 18.948511 70.785072
-16.390689 17.905704 70.115566
-15.759821 17.015898 71.264202
-15.730235 20.923222 70.228668
-15.766685 18.948511 70.785072
-16.368645 21.769451 69.07233
-15.730235 20.923222 70.228668
3 0 10 9
3 0 12 10
3 1 15 13
3 34 18 35
3 36 35 16
3 34 35 36
3 38 37 18
3 39 21 40
3 41 40 19
3 39 40 41
3 3 22 8
3 3 23 22
3 43 42 11
3 44 25 45
3 5 46 48
3 46 26 47
3 46 47 48
3 5 27 26
3 49 28 50
3 52 51 28
3 4 53 55
3 55 54 24
3 53 54 55
3 6 29 14
3 6 30 29
3 2 31 20
3 7 32 17
3 7 33 32
3 7 56 58
3 58 57 33
3 56 57 58
3 59 8 60
3 61 8 62
3 63 3 64
3 65 64 8
3 63 64 65
3 9 66 67
3 10 68 70
3 70 69 9
3 68 69 70
3 10 71 72
3 10 73 75
3 73 11 74
3 73 74 75
3 12 11 10
3 12 76 78
3 78 77 11
3 76 77 78
3 79 5 80
3 13 14 4
3 15 14 13
3 15 6 14
3 16 17 2
3 18 17 16
3 18 7 17
3 18 81 83
3 83 82 7
3 81 82 83
3 85 84 18
3 86 9 87
3 88 9 89
3 90 0 91
3 92 91 9
3 90 91 92
3 19 20 1
3 21 20 19
3 21 2 20
3 8 93 95
3 93 21 94
3 93 94 95
3 22 21 8
3 22 2 21
3 22 16 2
3 23 16 22
3 23 96 98
3 98 97 16
3 96 97 98
3 11 99 100
3 102 101 11
3 103 24 104
3 25 105 107
3 105 24 106
3 105 106 107
3 25 4 24
3 108 25 109
3 26 110 112
3 110 25 111
3 110 111 112
3 26 4 25
3 26 13 4
3 27 13 26
3 27 1 13
3 113 5 114
3 115 5 116
3 117 27 118
3 119 118 5
3 117 118 119
3 28 120 122
3 120 27 121
3 120 121 122
3 28 1 27
3 28 19 1
3 123 19 124
3 125 124 28
3 123 124 125
3 127 126 19
3 24 128 129
3 131 130 24
3 14 132 134
3 134 133 4
3 132 133 134
3 29 135 137
3 137 136 14
3 135 136 137
3 29 138 139
3 29 140 141
3 30 142 144
3 144 143 29
3 142 143 144
3 30 145 147
3 145 0 146
3 145 146 147
3 20 15 1
3 31 15 20
3 31 6 15
3 17 31 2
3 32 31 17
3 32 6 31
3 32 30 6
3 33 30 32
3 33 0 30
3 33 12 0
3 148 12 149
3 150 149 33
3 148 149 150
3 152 151 12
3 154 153 7
3 155 3 156
3 157 3 158
3 159 23 160
3 161 160 3
3 159 160 161
3 162 23 163
3 165 164 23
