ply
format ascii 1.0
element vertex 465
property float x
property float y
property float z
element face 476
property list uchar int vertex_index
end_header
26.237247 -50.730114 -22.496977
16.179115 -53.338146 -12.451799
28.770947 -24.248219 -37.430534
36.840179 -37.967403 -36.152702
29.162489 -13.058142 -42.695946
32.292004 -45.537918 -29.001463
19.591356 -52.853291 -17.691515
25.883593 -41.957405 -22.698122
28.692789 -36.446182 -30.166445
32.164204 -29.076363 -37.951195
23.179457 -58.589863 -19.194124
27.324219 -57.151211 -21.586893
30.693691 -54.717499 -24.705126
29.584103 -48.53463 -25.458944
24.517405 -43.839203 -19.066191
28.473654 -33.857342 -29.679007
28.815264 -30.154228 -33.97776
30.289608 -32.941429 -34.095543
29.625711 -26.123791 -38.184998
35.422951 -47.476471 -32.122055
28.849384 -18.570335 -40.381004
33.187012 -51.395905 -28.414156
34.517639 -41.922909 -32.765938
22.677483 -52.117405 -20.03034
19.385601 -48.887589 -13.945679
21.016479 -48.221149 -17.107676
22.994665 -47.138847 -20.127211
25.3927 -45.528236 -23.086138
27.244276 -39.476257 -26.36537
27.981943 -43.291882 -26.234266
30.444031 -40.402184 -29.750109
32.673565 -36.942535 -33.519333
34.899994 -33.099018 -37.138611
34.492344 -25.005413 -41.423019
24.8776 -54.62587 -20.785112
25.310581 -57.992954 -20.312925
26.828815 -53.829262 -22.035299
28.6443 -52.802486 -23.450129
27.975592 -49.737286 -23.900537
16.730812 -53.277546 -13.836147
29.181973 -23.62611 -36.633324
29.003443 -26.39435 -35.135262
28.821264 -29.197807 -33.528481
28.79203 -27.164589 -35.759483
29.139482 -28.172203 -36.104424
28.919138 -25.06266 -37.947662
36.221741 -42.649406 -34.141525
36.698647 -45.397091 -33.763054
37.535088 -40.599464 -35.664398
28.977097 -15.793559 -41.628784
28.553909 -16.201113 -42.675751
28.604658 -13.365813 -43.930229
29.388952 -62.828465 -22.589434
31.660027 -50.072418 -26.80261
32.023434 -53.152592 -26.515482
32.874283 -48.408524 -28.670969
33.975967 -46.589958 -30.574305
33.433311 -43.790916 -30.892466
20.969246 -55.590271 -18.595945
21.035839 -52.552109 -18.869101
20.175472 -48.600384 -15.5403
21.990557 -46.515987 -16.371321
25.211111 -42.975555 -20.883123
23.634579 -45.301624 -19.737257
24.510277 -44.491058 -21.389898
24.149979 -46.406712 -21.600355
25.438358 -43.537601 -23.038561
28.334984 -34.988808 -30.059378
27.919247 -36.625122 -28.032587
27.954481 -38.025928 -28.245279
27.42075 -41.188805 -26.420259
28.440105 -39.792877 -28.196386
29.243509 -41.926376 -27.945158
29.455891 -38.25486 -30.03998
31.180862 -31.045069 -36.051727
31.471462 -34.799248 -33.859955
32.504993 -32.917732 -35.760536
33.763741 -35.054939 -35.378326
33.596287 -30.963659 -37.588051
36.077858 -26.937275 -40.84613
28.743889 -10.586357 -44.985062
28.95521 -7.86758 -45.806519
23.429892 -62.178516 -18.739153
25.619953 -61.529205 -19.89316
27.624092 -60.611336 -21.223925
29.375378 -59.423134 -22.755087
29.13224 -56.057243 -23.050417
30.26062 -51.545738 -25.04524
31.022661 -47.128696 -27.170237
26.655134 -40.719559 -22.080622
28.938755 -31.144342 -31.277784
28.609863 -32.05468 -31.829504
28.79896 -33.240063 -32.104736
29.466785 -34.747074 -32.123055
29.340639 -31.392605 -34.155014
29.989162 -29.460699 -36.186958
30.771536 -27.459679 -38.169983
34.460125 -52.426991 -30.10581
29.373423 -20.882477 -38.007896
28.783377 -21.387165 -38.975838
28.726473 -22.041662 -39.667122
28.597216 -19.091518 -41.248199
28.697292 -16.75849 -43.431091
30.865046 -57.977531 -24.472712
32.142685 -56.302151 -26.325872
33.302505 -54.436581 -28.2348
34.283783 -49.48922 -30.313501
35.060127 -44.657223 -32.425148
35.628017 -39.970566 -34.541626
21.050074 -58.962517 -18.175417
22.887154 -55.204849 -19.657393
24.441334 -51.518257 -21.222101
17.039124 -51.1287 -11.723143
17.697672 -51.012829 -13.225504
18.398287 -50.844749 -14.711592
19.211853 -50.617737 -16.160036
20.187937 -50.317505 -17.556826
22.802486 -45.974571 -18.065256
21.94945 -47.738651 -18.635798
21.347637 -49.923382 -18.901976
22.681633 -49.411217 -20.213148
24.152699 -48.756805 -21.52434
25.702587 -47.939072 -22.87945
27.521931 -38.135208 -26.028929
26.556633 -40.78904 -24.520727
26.413668 -42.437431 -24.707029
26.684875 -44.492222 -24.620382
27.262743 -46.942566 -24.321947
28.767801 -45.759407 -25.883509
30.169579 -44.390862 -27.574526
31.448298 -42.848328 -29.378962
30.463072 -36.585072 -31.938101
31.580379 -38.733723 -31.623487
32.617565 -41.152885 -31.254599
33.720966 -39.333076 -33.138924
34.82095 -37.421051 -34.959824
35.983334 -35.448658 -36.649734
31.709187 -25.406271 -40.070786
32.814358 -23.319397 -41.859932
33.26244 -27.055603 -39.752647
34.77853 -28.961483 -39.294289
36.128376 -31.102573 -38.749062
37.262497 -33.445198 -38.160767
15.709725 -54.621391 -12.659882
15.53848 -54.602873 -12.014256
16.454963 -53.307846 -13.143973
15.985574 -54.591091 -13.352056
15.709725 -54.621391 -12.659882
37.523668 -36.954668 -36.857021
37.871122 -38.270698 -36.612869
37.187634 -39.283434 -35.90855
29.48847 -14.260092 -41.506138
29.606447 -12.925931 -41.948753
29.069793 -14.42585 -42.162365
29.395774 -15.6278 -40.972557
29.48847 -14.260092 -41.506138
28.544759 -63.480422 -21.790171
28.491443 -65.237234 -21.747585
19.411582 -54.33456 -17.618277
18.676414 -54.387497 -17.076586
20.313598 -52.7027 -18.280308
20.133823 -54.18397 -18.20707
19.411582 -54.33456 -17.618277
22.467144 -45.80636 -15.903892
21.57649 -46.724058 -15.518711
29.298407 -7.80037 -44.983788
29.173126 -9.11829 -44.679276
23.304674 -60.38419 -18.966639
22.297926 -62.376705 -18.225333
22.172708 -60.582379 -18.452818
27.109368 -40.212084 -21.669613
26.385807 -41.243023 -21.105051
29.139322 -29.802518 -32.042163
29.312943 -30.784495 -30.874198
35.574044 -48.897701 -31.985993
35.09263 -51.372962 -30.977871
34.941538 -49.951731 -31.113933
36.93815 -46.773756 -33.582295
37.435074 -44.339274 -34.477218
29.111404 -19.726406 -39.19445
29.479222 -19.521373 -38.625244
29.217202 -18.365302 -39.811798
28.631667 -15.277624 -44.153408
28.625601 -16.479802 -43.053421
28.559976 -14.998935 -43.775738
28.911368 -15.583596 -44.472008
28.631667 -15.277624 -44.153408
28.646918 -10.744164 -45.55904
28.693281 -9.330647 -46.0784
20.051379 -59.053061 -17.685976
20.008492 -60.854919 -17.462272
17.383538 -50.170696 -11.242905
16.690525 -51.160608 -10.974835
18.988169 -48.988941 -13.145433
19.829234 -48.058255 -13.457765
18.541637 -49.950209 -13.585591
18.144204 -50.051562 -12.785346
18.988169 -48.988941 -13.145433
23.659945 -44.906887 -18.565724
23.287847 -45.260364 -17.656204
24.145307 -44.19268 -18.156672
28.413702 -34.700732 -28.609274
28.772044 -33.420281 -29.353401
28.9922 -22.474857 -39.868103
28.831122 -20.916807 -40.745007
31.454763 -23.647796 -41.08662
31.007888 -24.715168 -40.13171
33.653351 -24.162405 -41.641475
33.451296 -22.270891 -42.68945
34.290289 -23.113899 -42.470993
36.805323 -30.09815 -39.465569
36.103117 -29.019924 -39.797596
36.780063 -28.015501 -40.514103
37.372383 -31.269462 -39.171422
36.695436 -32.273885 -38.454915
36.805323 -30.09815 -39.465569
37.97694 -32.441933 -38.818921
37.372383 -31.269462 -39.171422
16.256814 -54.606406 -13.978658
15.985574 -54.591091 -13.352056
17.088884 -53.232666 -14.507717
16.256814 -54.606406 -13.978658
29.438879 -24.706971 -35.440124
29.60032 -23.370962 -36.108006
29.349614 -26.091091 -34.691093
29.438879 -24.706971 -35.440124
29.092708 -25.01023 -35.884293
29.171665 -27.427521 -33.970901
29.349614 -26.091091 -34.691093
28.912354 -27.796079 -34.331871
29.080576 -28.82925 -33.167511
29.171665 -27.427521 -33.970901
37.853295 -41.94046 -35.427891
37.435074 -44.339274 -34.477218
37.116867 -42.998278 -34.713726
38.287931 -39.566128 -36.318176
37.853295 -41.94046 -35.427891
38.287931 -39.566128 -36.318176
37.871122 -38.270698 -36.612869
29.281059 -16.976914 -40.435688
29.395774 -15.6278 -40.972557
28.913241 -17.181947 -41.004894
29.217202 -18.365302 -39.811798
29.281059 -16.976914 -40.435688
28.58535 -13.581285 -44.402977
28.559976 -14.998935 -43.775738
28.579284 -14.783463 -43.30299
29.32021 -64.51861 -22.572833
28.491443 -65.237234 -21.747585
30.111351 -62.043709 -23.473225
29.32021 -64.51861 -22.572833
20.100527 -55.703051 -18.070492
20.010965 -57.366938 -17.89624
21.002542 -54.07119 -18.732523
20.100527 -55.703051 -18.070492
20.133823 -54.18397 -18.20707
20.274013 -47.909859 -14.30589
19.829234 -48.058255 -13.457765
20.668948 -47.766256 -15.1032
19.780537 -48.743986 -14.74299
20.274013 -47.909859 -14.30589
21.083014 -47.558186 -15.95581
20.668948 -47.766256 -15.1032
21.57649 -46.724058 -15.518711
35.176926 -23.979295 -42.184654
34.290289 -23.113899 -42.470993
35.969683 -24.945227 -41.896209
35.285101 -25.971344 -41.134574
35.176926 -23.979295 -42.184654
36.793295 -25.929493 -41.540481
35.969683 -24.945227 -41.896209
36.780063 -28.015501 -40.514103
36.793295 -25.929493 -41.540481
29.276765 -11.713571 -43.123989
29.606447 -12.925931 -41.948753
29.067465 -10.477678 -44.268547
28.953189 -11.822249 -43.840504
29.276765 -11.713571 -43.123989
28.84955 -9.226968 -45.395791
29.067465 -10.477678 -44.268547
29.173126 -9.11829 -44.679276
28.798941 -7.971259 -46.489128
28.693281 -9.330647 -46.0784
28.84955 -9.226968 -45.395791
29.086131 -6.542529 -46.081513
29.298407 -7.80037 -44.983788
28.891562 -6.594232 -46.88033
29.086131 -6.542529 -46.081513
28.798941 -7.971259 -46.489128
28.891562 -6.594232 -46.88033
22.326983 -64.256029 -18.019154
22.297926 -62.376705 -18.225333
23.491557 -64.030073 -18.556189
22.326983 -64.256029 -18.019154
24.586588 -63.705417 -19.133192
23.491557 -64.030073 -18.556189
24.524922 -61.85386 -19.316157
25.681472 -63.340294 -19.741227
24.586588 -63.705417 -19.133192
26.683542 -62.881359 -20.406609
25.681472 -63.340294 -19.741227
26.622022 -61.07027 -20.558543
27.662329 -62.371857 -21.107416
26.683542 -62.881359 -20.406609
28.499735 -60.017235 -21.989506
28.537972 -61.777756 -21.872998
27.662329 -62.371857 -21.107416
18.991318 -52.953957 -17.078678
18.676414 -54.387497 -17.076586
24.988422 -43.237339 -18.631514
24.145307 -44.19268 -18.156672
25.316942 -42.802845 -19.597836
24.988422 -43.237339 -18.631514
25.663795 -42.371021 -20.506301
24.864258 -43.407379 -19.974657
25.316942 -42.802845 -19.597836
25.933122 -41.847557 -21.481873
25.663795 -42.371021 -20.506301
26.385807 -41.243023 -21.105051
29.004595 -32.063781 -30.15279
29.312943 -30.784495 -30.874198
28.706204 -32.500842 -30.478395
28.772044 -33.420281 -29.353401
29.004595 -32.063781 -30.15279
28.880009 -30.171075 -32.403132
29.139322 -29.802518 -32.042163
29.080576 -28.82925 -33.167511
34.547872 -53.884953 -30.021681
33.901111 -54.948132 -29.113808
34.547872 -53.884953 -30.021681
35.09263 -51.372962 -30.977871
36.211892 -47.858012 -32.806493
35.574044 -48.897701 -31.985993
36.060799 -46.436781 -32.942554
36.211892 -47.858012 -32.806493
36.93815 -46.773756 -33.582295
15.940382 -53.355204 -11.748568
15.53848 -54.602873 -12.014256
29.843905 -20.662721 -37.402512
29.479222 -19.521373 -38.625244
29.696045 -21.999146 -36.795292
29.843905 -20.662721 -37.402512
29.277698 -22.254294 -37.32061
29.60032 -23.370962 -36.108006
29.696045 -21.999146 -36.795292
28.766494 -19.441735 -41.535545
28.831122 -20.916807 -40.745007
28.661845 -20.56659 -40.457661
28.816532 -18.275221 -42.626991
28.766494 -19.441735 -41.535545
28.647254 -17.925004 -42.339645
29.067981 -17.13758 -43.656261
28.816532 -18.275221 -42.626991
29.067981 -17.13758 -43.656261
28.911368 -15.583596 -44.472008
28.577303 -12.133892 -45.031623
28.674273 -11.976085 -44.457645
28.646918 -10.744164 -45.55904
28.58535 -13.581285 -44.402977
28.577303 -12.133892 -45.031623
29.382165 -61.125799 -22.672261
28.544759 -63.480422 -21.790171
28.537972 -61.777756 -21.872998
30.849398 -59.618242 -24.414864
30.111351 -62.043709 -23.473225
30.126999 -60.402998 -23.531073
31.488217 -58.780552 -25.341444
30.849398 -59.618242 -24.414864
31.503865 -57.139841 -25.399292
32.128366 -57.879904 -26.278081
31.488217 -58.780552 -25.341444
32.708276 -56.947119 -27.232546
32.128366 -57.879904 -26.278081
32.722595 -55.369366 -27.280336
33.322301 -55.952927 -28.178303
32.708276 -56.947119 -27.232546
33.881315 -53.431786 -29.170305
33.901111 -54.948132 -29.113808
33.322301 -55.952927 -28.178303
21.108017 -60.768705 -17.943464
20.008492 -60.854919 -17.462272
22.114765 -58.77619 -18.68477
22.172708 -60.582379 -18.452818
21.108017 -60.768705 -17.943464
21.00966 -57.276394 -18.385681
20.051379 -59.053061 -17.685976
20.010965 -57.366938 -17.89624
16.370387 -52.250481 -11.384241
16.690525 -51.160608 -10.974835
16.609119 -52.233423 -12.087471
15.940382 -53.355204 -11.748568
16.370387 -52.250481 -11.384241
17.81493 -50.109497 -12.034166
17.383538 -50.170696 -11.242905
17.368398 -51.070765 -12.474324
17.81493 -50.109497 -12.034166
18.144204 -50.051562 -12.785346
17.922622 -52.016267 -14.945439
17.088884 -53.232666 -14.507717
17.564549 -52.061148 -14.273869
18.329405 -51.902761 -15.669662
17.922622 -52.016267 -14.945439
18.80507 -50.731243 -15.435814
18.801567 -51.83618 -16.312939
18.329405 -51.902761 -15.669662
19.289609 -51.686064 -17.011333
18.801567 -51.83618 -16.312939
19.699895 -50.467621 -16.858431
19.889647 -51.585398 -17.62417
18.991318 -52.953957 -17.078678
19.289609 -51.686064 -17.011333
22.881883 -45.531073 -16.809236
22.467144 -45.80636 -15.903892
22.396521 -46.245279 -17.218288
22.881883 -45.531073 -16.809236
23.287847 -45.260364 -17.656204
27.302351 -39.604062 -22.70217
27.109368 -40.212084 -21.669613
26.883435 -40.112169 -23.063511
27.302351 -39.604062 -22.70217
26.497664 -40.731093 -23.372261
26.269364 -41.338482 -22.389372
26.883435 -40.112169 -23.063511
28.136499 -36.084621 -27.786064
28.413702 -34.700732 -28.609274
28.19645 -35.241232 -28.855797
27.937841 -36.839664 -26.784235
28.136499 -36.084621 -27.786064
27.720589 -37.380165 -27.030758
27.859238 -37.615071 -25.724108
27.937841 -36.839664 -26.784235
27.316834 -38.819994 -25.037664
27.859238 -37.615071 -25.724108
26.834184 -40.14691 -24.283563
27.316834 -38.819994 -25.037664
27.039282 -39.462124 -25.274828
26.220113 -41.373222 -23.609425
26.497664 -40.731093 -23.372261
26.834184 -40.14691 -24.283563
29.088532 -23.985356 -39.008373
28.822806 -23.552161 -38.807392
28.9922 -22.474857 -39.868103
29.441819 -24.515921 -39.127041
29.272424 -25.593226 -38.06633
29.088532 -23.985356 -39.008373
29.96615 -25.073928 -39.188817
29.441819 -24.515921 -39.127041
30.539062 -25.741872 -39.181309
30.198624 -26.791735 -38.177491
29.96615 -25.073928 -39.188817
31.240361 -26.432975 -39.120385
30.539062 -25.741872 -39.181309
31.007888 -24.715168 -40.13171
32.561633 -21.529334 -42.878296
33.451296 -22.270891 -42.68945
32.007348 -22.60436 -41.981194
32.561633 -21.529334 -42.878296
32.261772 -24.362834 -40.965359
31.454763 -23.647796 -41.08662
32.007348 -22.60436 -41.981194
37.734827 -34.693565 -37.861053
37.523668 -36.954668 -36.857021
37.051338 -35.7063 -37.156734
37.734827 -34.693565 -37.861053
37.97694 -32.441933 -38.818921
3 0 36 34
3 0 38 36
3 1 143 144
3 1 145 147
3 145 39 146
3 145 146 147
3 2 41 40
3 2 43 41
3 2 45 43
3 3 48 46
3 3 148 150
3 150 149 48
3 148 149 150
3 4 151 152
3 4 153 155
3 153 49 154
3 153 154 155
3 4 51 49
3 156 52 157
3 5 55 53
3 5 57 55
3 6 158 159
3 6 160 162
3 160 59 161
3 160 161 162
3 163 61 164
3 7 64 62
3 7 66 64
3 8 69 67
3 8 71 69
3 8 73 71
3 9 76 74
3 9 78 76
3 165 81 166
3 10 167 169
3 167 82 168
3 167 168 169
3 11 83 35
3 11 84 83
3 11 86 84
3 13 87 37
3 13 88 87
3 170 89 171
3 172 90 173
3 16 91 42
3 16 92 91
3 16 94 92
3 18 95 44
3 18 96 95
3 19 174 176
3 176 175 97
3 174 175 176
3 178 177 47
3 20 179 181
3 179 98 180
3 179 180 181
3 20 99 98
3 20 101 99
3 182 102 183
3 184 183 50
3 182 183 184
3 186 185 102
3 188 187 80
3 12 103 85
3 21 104 54
3 21 105 104
3 21 106 105
3 22 107 56
3 22 108 107
3 189 109 190
3 23 110 58
3 23 111 110
3 191 112 192
3 24 193 194
3 24 195 197
3 195 113 196
3 195 196 197
3 24 114 113
3 25 115 60
3 25 116 115
3 14 198 200
3 198 117 199
3 198 199 200
3 26 118 63
3 26 119 118
3 26 120 119
3 27 121 65
3 27 122 121
3 15 201 202
3 28 123 68
3 28 124 123
3 28 125 124
3 29 126 70
3 29 127 126
3 29 128 127
3 30 129 72
3 30 130 129
3 17 131 93
3 31 132 75
3 31 133 132
3 31 134 133
3 32 135 77
3 32 136 135
3 204 203 100
3 205 137 206
3 33 207 209
3 207 138 208
3 207 208 209
3 33 139 138
3 33 140 139
3 210 141 211
3 212 211 79
3 210 211 212
3 213 142 214
3 215 214 141
3 213 214 215
3 217 216 142
3 34 35 10
3 36 35 34
3 36 11 35
3 36 37 11
3 38 37 36
3 38 13 37
3 39 218 219
3 39 220 221
3 40 222 223
3 41 224 226
3 226 225 40
3 224 225 226
3 41 227 228
3 41 229 231
3 229 42 230
3 229 230 231
3 43 42 41
3 43 16 42
3 43 44 16
3 45 44 43
3 45 18 44
3 46 47 19
3 48 47 46
3 48 232 234
3 234 233 47
3 232 233 234
3 48 235 236
3 238 237 48
3 49 239 240
3 49 241 243
3 241 20 242
3 241 242 243
3 49 50 20
3 51 50 49
3 51 244 246
3 246 245 50
3 244 245 246
3 52 247 248
3 52 249 250
3 53 54 12
3 55 54 53
3 55 21 54
3 55 56 21
3 57 56 55
3 57 22 56
3 251 58 252
3 59 253 255
3 253 58 254
3 253 254 255
3 59 23 58
3 256 24 257
3 258 60 259
3 260 259 24
3 258 259 260
3 61 261 263
3 261 60 262
3 261 262 263
3 61 25 60
3 62 63 14
3 64 63 62
3 64 26 63
3 64 65 26
3 66 65 64
3 66 27 65
3 67 68 15
3 69 68 67
3 69 28 68
3 69 70 28
3 71 70 69
3 71 29 70
3 71 72 29
3 73 72 71
3 73 30 72
3 74 75 17
3 76 75 74
3 76 31 75
3 76 77 31
3 78 77 76
3 78 32 77
3 264 33 265
3 266 79 267
3 268 267 33
3 266 267 268
3 269 79 270
3 272 271 79
3 273 4 274
3 275 80 276
3 277 276 4
3 275 276 277
3 81 278 280
3 278 80 279
3 278 279 280
3 81 281 283
3 283 282 80
3 281 282 283
3 284 81 285
3 286 81 287
3 289 288 81
3 82 290 291
3 82 292 293
3 35 82 10
3 83 82 35
3 83 294 296
3 296 295 82
3 294 295 296
3 83 297 298
3 84 299 301
3 301 300 83
3 299 300 301
3 84 302 303
3 84 304 306
3 304 85 305
3 304 305 306
3 86 85 84
3 86 12 85
3 37 86 11
3 87 86 37
3 87 12 86
3 87 53 12
3 88 53 87
3 88 5 53
3 307 6 308
3 309 14 310
3 311 14 312
3 313 62 314
3 315 314 14
3 313 314 315
3 89 316 318
3 316 62 317
3 316 317 318
3 89 7 62
3 90 319 320
3 90 321 323
3 321 15 322
3 321 322 323
3 42 324 326
3 324 90 325
3 324 325 326
3 91 90 42
3 91 15 90
3 91 67 15
3 92 67 91
3 92 8 67
3 92 93 8
3 94 93 92
3 94 17 93
3 44 94 16
3 95 94 44
3 95 17 94
3 95 74 17
3 96 74 95
3 96 9 74
3 97 327 328
3 330 329 97
3 47 331 333
3 333 332 19
3 331 332 333
3 335 334 47
3 336 1 337
3 98 338 339
3 98 340 341
3 98 342 344
3 342 40 343
3 342 343 344
3 99 40 98
3 99 2 40
3 99 100 2
3 101 100 99
3 101 345 347
3 347 346 100
3 345 346 347
3 50 101 20
3 102 101 50
3 102 348 350
3 350 349 101
3 348 349 350
3 102 351 352
3 354 353 102
3 80 51 4
3 355 51 356
3 357 356 80
3 355 356 357
3 359 358 51
3 85 360 362
3 360 52 361
3 360 361 362
3 103 52 85
3 103 363 365
3 365 364 52
3 363 364 365
3 54 103 12
3 104 103 54
3 104 366 368
3 368 367 103
3 366 367 368
3 104 369 370
3 105 371 373
3 373 372 104
3 371 372 373
3 105 374 375
3 105 376 378
3 376 97 377
3 376 377 378
3 106 97 105
3 106 19 97
3 56 106 21
3 107 106 56
3 107 19 106
3 107 46 19
3 108 46 107
3 108 3 46
3 109 379 380
3 109 381 383
3 381 10 382
3 381 382 383
3 58 384 386
3 384 109 385
3 384 385 386
3 110 109 58
3 110 10 109
3 110 34 10
3 111 34 110
3 111 0 34
3 112 387 388
3 112 389 391
3 389 1 390
3 389 390 391
3 392 112 393
3 113 394 396
3 394 112 395
3 394 395 396
3 113 1 112
3 113 39 1
3 114 39 113
3 114 397 399
3 399 398 39
3 397 398 399
3 60 114 24
3 115 114 60
3 115 400 402
3 402 401 114
3 400 401 402
3 115 403 404
3 116 405 407
3 407 406 115
3 405 406 407
3 116 408 410
3 408 6 409
3 408 409 410
3 411 61 412
3 117 413 415
3 413 61 414
3 413 414 415
3 117 25 61
3 63 117 14
3 118 117 63
3 118 25 117
3 118 116 25
3 119 116 118
3 119 6 116
3 119 59 6
3 120 59 119
3 120 23 59
3 65 120 26
3 121 120 65
3 121 23 120
3 121 111 23
3 122 111 121
3 122 0 111
3 416 89 417
3 418 89 419
3 420 7 421
3 422 421 89
3 420 421 422
3 68 423 425
3 425 424 15
3 423 424 425
3 123 426 428
3 428 427 68
3 426 427 428
3 123 429 430
3 123 431 432
3 124 433 435
3 435 434 123
3 433 434 435
3 124 436 438
3 436 7 437
3 436 437 438
3 124 66 7
3 125 66 124
3 125 27 66
3 70 125 28
3 126 125 70
3 126 27 125
3 126 122 27
3 127 122 126
3 127 0 122
3 127 38 0
3 128 38 127
3 128 13 38
3 72 128 29
3 129 128 72
3 129 13 128
3 129 88 13
3 130 88 129
3 130 5 88
3 93 73 8
3 131 73 93
3 131 30 73
3 75 131 17
3 132 131 75
3 132 30 131
3 132 130 30
3 133 130 132
3 133 5 130
3 133 57 5
3 134 57 133
3 134 22 57
3 77 134 31
3 135 134 77
3 135 22 134
3 135 108 22
3 136 108 135
3 136 3 108
3 100 45 2
3 439 45 440
3 441 440 100
3 439 440 441
3 442 18 443
3 444 443 45
3 442 443 444
3 445 18 446
3 447 96 448
3 449 448 18
3 447 448 449
3 137 450 452
3 450 96 451
3 450 451 452
3 137 9 96
3 138 453 454
3 138 455 456
3 138 457 459
3 457 137 458
3 457 458 459
3 139 137 138
3 139 9 137
3 139 78 9
3 140 78 139
3 140 32 78
3 79 140 33
3 141 140 79
3 141 32 140
3 141 136 32
3 142 136 141
3 142 3 136
3 142 460 462
3 462 461 3
3 460 461 462
3 464 463 142
