ply
format ascii 1.0
element vertex 94
property float x
property float y
property float z
element face 76
property list uchar int vertex_index
end_header
-53.909531 -22.587883 19.383282
-53.622528 -17.228992 17.501143
-48.988472 -22.778271 18.896568
-51.240669 -17.099483 17.406172
-56.211231 -19.895672 18.737713
-58.700787 -19.749729 19.079908
-56.462341 -22.389429 19.686672
-56.836876 -24.78064 20.516386
-54.265511 -25.072216 20.113344
-52.201202 -27.759815 20.287176
-51.713726 -25.308229 19.774302
-56.073837 -17.282043 17.653139
-53.698589 -19.978252 18.518147
-51.393539 -22.722956 19.142328
-51.240028 -19.989975 18.358379
-49.261028 -25.468685 19.434418
-54.848183 -17.255518 17.577141
-56.053218 -15.908263 17.042327
-54.827564 -15.881737 16.966329
-50.071664 -18.509352 17.798271
-50.113634 -16.993448 17.354011
-59.892024 -19.645612 19.338769
-58.835356 -20.94367 19.596936
-57.085321 -25.932938 20.889978
-55.801296 -26.113826 20.629783
-51.285308 -29.074994 20.215398
-50.962673 -27.88053 20.060525
-53.642384 -15.78032 16.915092
-54.827564 -15.881737 16.966329
-52.451454 -15.715566 16.867607
-52.431598 -17.164237 17.453657
-53.642384 -15.78032 16.915092
-51.306621 -15.574582 16.844449
-52.451454 -15.715566 16.867607
-50.179586 -15.468547 16.792288
-50.113634 -16.993448 17.354011
-51.306621 -15.574582 16.844449
-57.456009 -19.8227 18.908811
-58.612307 -18.506206 18.502264
-57.367529 -18.579177 18.331167
-57.716133 -22.26352 19.900318
-58.835356 -20.94367 19.596936
-57.581564 -21.069579 19.38329
-56.649608 -23.585034 20.101529
-57.903401 -23.459125 20.315175
-57.716133 -22.26352 19.900318
-54.515614 -26.259614 20.428262
-55.801296 -26.113826 20.629783
-55.551193 -24.926428 20.314865
-53.233356 -26.416016 20.20026
-53.48346 -27.603414 20.515178
-54.515614 -26.259614 20.428262
-50.718935 -26.654736 19.804088
-50.962673 -27.88053 20.060525
-51.957464 -26.534022 20.030739
-47.983415 -24.153744 18.962465
-47.873482 -22.756884 18.737407
-57.247501 -15.970085 17.151356
-56.053218 -15.908263 17.042327
-57.298832 -17.272362 17.78888
-57.247501 -15.970085 17.151356
-56.142534 -18.588858 18.195426
-57.367529 -18.579177 18.331167
-57.298832 -17.272362 17.78888
-50.071344 -19.954597 18.274374
-51.240348 -18.544729 17.882275
-50.071664 -18.509352 17.798271
-48.945566 -21.348745 18.543468
-50.11425 -21.384123 18.627474
-50.071344 -19.954597 18.274374
-47.873482 -22.756884 18.737407
-48.945566 -21.348745 18.543468
-59.796425 -18.460018 18.724676
-58.612307 -18.506206 18.502264
-59.796425 -18.460018 18.724676
-59.892024 -19.645612 19.338769
-58.089275 -24.612868 20.779595
-57.903401 -23.459125 20.315175
-58.089275 -24.612868 20.779595
-57.085321 -25.932938 20.889978
-52.523266 -28.926222 20.510123
-53.48346 -27.603414 20.515178
-52.523266 -28.926222 20.510123
-51.285308 -29.074994 20.215398
-49.492586 -26.734965 19.634146
-50.718935 -26.654736 19.804088
-50.487377 -25.388457 19.60436
-48.119693 -25.498951 19.23139
-49.12475 -24.123478 19.165493
-47.983415 -24.153744 18.962465
-48.335726 -26.805467 19.378151
-48.119693 -25.498951 19.23139
-49.492586 -26.734965 19.634146
-48.335726 -26.805467 19.378151
3 0 6 4
3 0 8 6
3 0 10 8
3 1 16 18
3 16 11 17
3 16 17 18
3 1 12 11
3 1 14 12
3 20 19 3
3 22 21 5
3 24 23 7
3 26 25 9
3 2 15 13
3 27 1 28
3 29 3 30
3 31 30 1
3 29 30 31
3 32 3 33
3 36 35 3
3 34 35 36
3 4 37 39
3 37 5 38
3 37 38 39
3 6 5 4
3 6 40 42
3 42 41 5
3 40 41 42
3 6 43 45
3 43 7 44
3 43 44 45
3 8 7 6
3 8 46 48
3 48 47 7
3 46 47 48
3 8 49 51
3 49 9 50
3 49 50 51
3 10 9 8
3 10 52 54
3 54 53 9
3 52 53 54
3 56 55 2
3 11 57 58
3 11 59 60
3 11 61 63
3 61 4 62
3 61 62 63
3 12 4 11
3 12 0 4
3 12 13 0
3 14 13 12
3 14 2 13
3 3 14 1
3 64 14 65
3 66 65 3
3 64 65 66
3 67 2 68
3 69 68 14
3 67 68 69
3 71 70 2
3 5 72 73
3 75 74 5
3 7 76 77
3 79 78 7
3 9 80 81
3 83 82 9
3 13 10 0
3 15 10 13
3 15 84 86
3 86 85 10
3 84 85 86
3 87 15 88
3 89 88 2
3 87 88 89
3 90 15 91
3 93 92 15
