ply
format ascii 1.0
element vertex 69
property float x
property float y
property float z
element face 52
property list uchar int vertex_index
end_header
2.531281 -7.64751 45.329384
2.012445 -15.999638 45.766693
1.238115 -13.603702 46.837448
3.210697 -10.157142 44.169941
3.359829 -5.856304 43.832138
1.541058 -9.481236 46.689949
2.313576 -11.862181 45.572922
2.653809 -3.384295 45.004051
3.419182 -1.515099 43.395607
3.57382 -9.337435 43.401896
3.483879 -11.493963 43.570448
0.97667 -10.404493 47.30697
1.128046 -8.363696 47.259461
2.496854 -15.192265 45.101921
2.647419 -13.123537 45.005035
2.16301 -13.930909 45.669807
2.347283 -17.256031 45.216161
2.496854 -15.192265 45.101921
2.592545 -5.515902 45.166717
2.201207 -4.34478 45.742466
2.139944 -6.476388 45.905132
3.731476 -2.827046 42.801529
3.389506 -3.685701 43.613872
3.701799 -4.997648 43.019795
3.743803 -0.622592 42.531275
3.731476 -2.827046 42.801529
0.629425 -14.479389 47.409952
0.825198 -12.465726 47.38072
0.216508 -13.341413 47.953224
1.046781 -15.626303 46.898606
0.629425 -14.479389 47.409952
1.433946 -16.824271 46.363228
1.62528 -14.80167 46.30207
1.046781 -15.626303 46.898606
1.248761 -18.843145 46.452446
1.82726 -18.018512 45.855911
1.433946 -16.824271 46.363228
3.648386 -7.187016 43.232994
3.285263 -8.006723 44.00104
3.57382 -9.337435 43.401896
3.701799 -4.997648 43.019795
3.648386 -7.187016 43.232994
1.644832 -7.393251 46.585415
1.128046 -8.363696 47.259461
2.036169 -8.564373 46.009666
2.139944 -6.476388 45.905132
1.644832 -7.393251 46.585415
1.389587 -11.542469 46.763699
0.97667 -10.404493 47.30697
0.825198 -12.465726 47.38072
3.09598 -12.271017 44.303545
2.762136 -11.009661 44.871431
2.647419 -13.123537 45.005035
3.483879 -11.493963 43.570448
3.09598 -12.271017 44.303545
2.347283 -17.256031 45.216161
1.82726 -18.018512 45.855911
2.251716 -2.244242 45.592506
2.201207 -4.34478 45.742466
2.663269 -1.244758 44.788467
2.251716 -2.244242 45.592506
3.045955 -0.31016 43.984246
2.663269 -1.244758 44.788467
3.036496 -2.449697 44.199829
3.400359 0.657934 43.118222
3.045955 -0.31016 43.984246
3.724979 1.550441 42.253889
3.400359 0.657934 43.118222
3.743803 -0.622592 42.531275
3 10 9 3
3 11 5 12
3 1 6 2
3 1 13 15
3 15 14 6
3 13 14 15
3 1 16 17
3 0 18 20
3 18 7 19
3 18 19 20
3 21 8 22
3 23 22 4
3 21 22 23
3 25 24 8
3 26 2 27
3 26 27 28
3 29 2 30
3 31 1 32
3 33 32 2
3 31 32 33
3 36 35 1
3 34 35 36
3 3 4 0
3 37 4 38
3 39 38 3
3 37 38 39
3 41 40 4
3 5 42 43
3 5 44 46
3 44 0 45
3 44 45 46
3 2 47 49
3 47 5 48
3 47 48 49
3 6 5 2
3 6 0 5
3 6 3 0
3 50 3 51
3 52 51 6
3 50 51 52
3 54 53 3
3 56 55 1
3 7 57 58
3 7 59 60
3 4 7 0
3 8 7 4
3 8 61 63
3 63 62 7
3 61 62 63
3 8 64 65
3 68 67 8
3 66 67 68
