ply
format ascii 1.0
element vertex 154
property float x
property float y
property float z
element face 139
property list uchar int vertex_index
end_header
1.210854 64.257591 35.340961
0.529682 51.499611 47.994209
0.444399 44.036011 53.393845
0.529413 56.038551 54.871521
0.800081 58.319107 41.929703
0.070784 50.33004 54.490509
0.220629 57.77726 48.597351
0.554888 64.498886 42.085846
1.486536 61.056374 35.39299
1.703568 63.686378 32.047852
0.883224 48.267754 47.566921
0.981354 51.769493 44.740242
1.119467 55.084488 41.757301
0.644287 55.007339 45.036255
0.177486 45.443451 60.177971
0.068359 46.428375 57.164703
0.154886 49.409439 57.583244
0.245201 57.06324 51.822891
0.363167 60.673836 48.685623
0.366138 61.245445 45.410606
0.528986 64.091179 45.397667
0.462111 47.829971 50.785904
0.487509 52.192329 57.765228
1.456352 66.860512 31.894958
1.290098 58.186142 38.635605
0.990707 61.408211 38.692047
0.189968 43.321728 56.555695
0.175243 47.220024 54.008835
0.208895 51.023262 51.268356
0.17602 53.295372 54.793694
0.121397 54.126183 51.629425
0.292082 54.692787 48.350967
0.421743 58.190231 45.273865
0.5931 61.481972 42.054192
0.801617 64.542786 38.709137
0.322738 48.830936 59.026493
0.166186 47.426445 58.880607
0.334037 46.847943 60.323856
0.563042 61.986092 48.626781
0.491893 60.213444 50.243305
0.645952 63.694763 46.982804
0.446076 62.382508 47.041645
0.563042 61.986092 48.626781
0.743032 65.366394 45.293211
0.645952 63.694763 46.982804
0.637771 44.324105 51.80703
0.635643 42.437308 53.038865
0.453255 45.932991 52.089875
0.646626 46.221085 50.50306
0.637771 44.324105 51.80703
0.14937 42.889853 58.096493
0.217845 41.342365 57.724869
0.669663 66.006954 40.363228
0.793027 66.028904 38.674874
0.678253 64.520836 40.397492
1.696575 66.468204 30.257171
1.589694 68.039936 30.134378
0.459067 42.095274 54.597805
0.635643 42.437308 53.038865
0.650312 40.49657 54.242824
1.738241 60.758934 33.805225
1.647426 59.436081 35.423517
1.846757 62.073936 32.132656
1.738241 60.758934 33.805225
1.595052 62.371376 33.720421
1.943285 63.280204 30.467909
1.846757 62.073936 32.132656
1.131704 48.403656 45.991378
1.091267 46.662563 47.331587
1.180769 50.154525 44.578039
1.131704 48.403656 45.991378
0.932289 50.018623 46.153582
1.23921 51.805565 43.155737
1.180769 50.154525 44.578039
1.05041 53.426991 43.248772
1.308266 53.463062 41.664266
1.23921 51.805565 43.155737
0.122923 45.935913 58.671337
0.088565 44.443176 58.400997
0.143129 43.950714 59.907631
0.43291 58.408146 51.811939
0.387307 56.550895 53.347206
0.575016 57.895801 53.336254
0.304184 58.868538 50.254257
0.43291 58.408146 51.811939
0.491893 60.213444 50.243305
0.635297 65.688789 43.686878
0.648248 65.892643 42.030968
0.541937 64.295032 43.741756
0.635297 65.688789 43.686878
0.743032 65.366394 45.293211
0.857183 46.439976 48.893568
1.091267 46.662563 47.331587
0.672667 48.048862 49.176412
0.857183 46.439976 48.893568
0.646626 46.221085 50.50306
0.781415 51.503399 59.119049
0.489049 50.222381 59.117485
0.790632 53.44722 57.717617
0.781415 51.503399 59.119049
0.811584 55.37033 56.270764
0.508461 54.11544 56.318375
0.790632 53.44722 57.717617
0.84461 57.259864 54.777092
0.811584 55.37033 56.270764
0.575016 57.895801 53.336254
0.84461 57.259864 54.777092
0.205915 43.436898 61.372051
0.143129 43.950714 59.907631
0.353888 44.8485 61.576397
0.205915 43.436898 61.372051
0.510439 46.252991 61.722282
0.334037 46.847943 60.323856
0.353888 44.8485 61.576397
1.250087 67.10923 33.575806
1.333603 65.559052 33.617959
1.127338 65.80777 35.298807
1.386564 68.391964 31.805551
1.250087 67.10923 33.575806
1.589694 68.039936 30.134378
1.386564 68.391964 31.805551
1.380828 55.011925 40.167745
1.308266 53.463062 41.664266
1.466143 56.562752 38.606898
1.380828 55.011925 40.167745
1.204782 56.635315 40.196453
1.549208 58.000965 37.044825
1.466143 56.562752 38.606898
1.388317 59.621258 37.014297
1.647426 59.436081 35.423517
1.549208 58.000965 37.044825
0.331852 41.738132 56.17873
0.217845 41.342365 57.724869
0.317184 43.67887 54.97477
0.459067 42.095274 54.597805
0.331852 41.738132 56.17873
0.129163 44.875051 56.860199
0.14937 42.889853 58.096493
0.088565 44.443176 58.400997
0.321198 50.800884 57.674236
0.322738 48.830936 59.026493
0.489049 50.222381 59.117485
0.922719 65.950367 36.982895
1.127338 65.80777 35.298807
1.006236 64.400189 37.025049
0.922719 65.950367 36.982895
0.793027 66.028904 38.674874
0.669663 66.006954 40.363228
0.648248 65.892643 42.030968
1.820183 64.881137 30.333619
1.57996 65.273445 31.971405
1.696575 66.468204 30.257171
1.943285 63.280204 30.467909
1.820183 64.881137 30.333619
3 0 9 8
3 1 11 10
3 1 13 11
3 35 16 36
3 37 36 14
3 35 36 37
3 38 18 39
3 40 20 41
3 42 41 18
3 40 41 42
3 44 43 20
3 2 45 46
3 2 47 49
3 47 21 48
3 47 48 49
3 4 24 12
3 4 25 24
3 50 26 51
3 5 27 15
3 5 28 27
3 3 29 22
3 6 30 17
3 6 31 30
3 6 32 31
3 7 33 19
3 7 34 33
3 7 52 54
3 54 53 34
3 52 53 54
3 56 55 23
3 57 2 58
3 57 58 59
3 8 60 61
3 9 62 64
3 64 63 8
3 62 63 64
3 9 65 66
3 10 67 68
3 11 69 71
3 71 70 10
3 69 70 71
3 11 72 73
3 11 74 76
3 74 12 75
3 74 75 76
3 13 12 11
3 13 4 12
3 14 77 79
3 77 15 78
3 77 78 79
3 16 15 14
3 16 5 15
3 80 17 81
3 82 81 3
3 80 81 82
3 18 83 85
3 83 17 84
3 83 84 85
3 18 6 17
3 18 19 6
3 20 19 18
3 20 7 19
3 20 86 88
3 88 87 7
3 86 87 88
3 90 89 20
3 91 10 92
3 21 93 95
3 93 10 94
3 93 94 95
3 21 1 10
3 96 22 97
3 98 22 99
3 100 3 101
3 102 101 22
3 100 101 102
3 103 3 104
3 106 105 3
3 107 14 108
3 109 14 110
3 113 112 14
3 111 112 113
3 114 23 115
3 116 115 0
3 114 115 116
3 117 23 118
3 120 119 23
3 12 121 122
3 24 123 125
3 125 124 12
3 123 124 125
3 24 126 127
3 24 128 130
3 128 8 129
3 128 129 130
3 25 8 24
3 25 0 8
3 26 131 132
3 26 133 135
3 133 2 134
3 133 134 135
3 15 136 138
3 136 26 137
3 136 137 138
3 27 26 15
3 27 2 26
3 27 21 2
3 28 21 27
3 28 1 21
3 22 139 141
3 139 16 140
3 139 140 141
3 29 16 22
3 29 5 16
3 17 29 3
3 30 29 17
3 30 5 29
3 30 28 5
3 31 28 30
3 31 1 28
3 31 13 1
3 32 13 31
3 32 4 13
3 19 32 6
3 33 32 19
3 33 4 32
3 33 25 4
3 34 25 33
3 34 0 25
3 34 142 144
3 144 143 0
3 142 143 144
3 146 145 34
3 148 147 7
3 23 9 0
3 149 9 150
3 151 150 23
3 149 150 151
3 153 152 9
