ply
format ascii 1.0
element vertex 85
property float x
property float y
property float z
element face 64
property list uchar int vertex_index
end_header
11.104929 45.093376 63.206886
14.354422 38.69091 63.979652
17.540016 38.343128 59.96151
15.818205 35.450706 64.125824
11.08338 41.669918 65.622528
9.36834 44.668171 65.008522
9.380785 48.175255 62.490608
12.730518 38.582809 66.007065
12.775925 41.917568 63.688515
15.94588 38.586143 61.92482
14.433735 41.898666 61.660088
16.489194 33.838058 64.1488
15.746477 33.868186 65.189076
13.54247 38.636859 64.993358
13.499592 37.013593 66.105232
14.311543 37.067644 65.091526
16.742948 38.464635 60.943165
16.651039 36.94263 62.011257
17.448107 36.821123 61.029602
14.479301 43.475578 60.451161
15.253214 41.789676 60.651837
13.629957 43.550525 61.456986
14.479301 43.475578 60.451161
15.043435 35.447542 65.164612
15.746477 33.868186 65.189076
15.086313 37.070808 64.052738
14.311543 37.067644 65.091526
15.043435 35.447542 65.164612
10.224103 41.388804 66.500217
11.070874 39.936453 66.765003
9.366583 42.88793 66.193214
10.224103 41.388804 66.500217
10.22586 43.169044 65.315525
8.508398 44.279618 65.798153
8.50664 42.499376 66.982845
9.366583 42.88793 66.193214
8.50556 46.102179 64.566589
8.508398 44.279618 65.798153
8.511782 47.855721 63.307632
8.50556 46.102179 64.566589
9.374562 46.421713 63.749565
8.519699 49.646137 61.994465
8.511782 47.855721 63.307632
16.806355 40.011907 59.802548
17.632476 39.843849 58.860187
12.700543 36.897972 67.11116
13.499592 37.013593 66.105232
11.894443 38.392899 66.957271
12.700543 36.897972 67.11116
11.906949 40.126363 65.814796
11.070874 39.936453 66.765003
11.894443 38.392899 66.957271
18.23498 36.705154 60.103794
17.448107 36.821123 61.029602
18.359474 38.19347 59.08722
18.23498 36.705154 60.103794
17.632476 39.843849 58.860187
18.359474 38.19347 59.08722
16.587201 35.374912 63.111759
16.489194 33.838058 64.1488
17.25819 33.762264 63.134735
15.882043 37.018424 63.025322
16.587201 35.374912 63.111759
16.651039 36.94263 62.011257
16.009287 40.133415 60.784202
16.742948 38.464635 60.943165
16.806355 40.011907 59.802548
15.189808 40.242404 61.792454
16.009287 40.133415 60.784202
15.253214 41.789676 60.651837
12.801053 43.559977 62.471199
13.60483 41.908117 62.674301
13.629957 43.550525 61.456986
11.965554 45.14788 62.230384
11.940427 43.505472 63.4477
12.801053 43.559977 62.471199
11.124279 46.773967 61.931964
11.965554 45.14788 62.230384
10.262207 48.314907 61.573825
10.242857 46.634315 62.848747
11.124279 46.773967 61.931964
9.401767 49.891243 61.156959
10.262207 48.314907 61.573825
8.519699 49.646137 61.994465
9.401767 49.891243 61.156959
3 11 3 12
3 0 5 4
3 0 6 5
3 1 13 15
3 13 7 14
3 13 14 15
3 1 8 7
3 2 16 18
3 16 9 17
3 16 17 18
3 19 10 20
3 22 21 10
3 3 23 24
3 3 25 27
3 25 1 26
3 25 26 27
3 4 28 29
3 5 30 32
3 32 31 4
3 30 31 32
3 5 33 35
3 33 34 35
3 5 36 37
3 6 38 40
3 40 39 5
3 38 39 40
3 6 41 42
3 44 43 2
3 7 45 46
3 7 47 48
3 7 49 51
3 49 4 50
3 49 50 51
3 8 4 7
3 8 0 4
3 52 2 53
3 54 2 55
3 57 56 2
3 58 3 59
3 58 59 60
3 9 61 63
3 61 3 62
3 61 62 63
3 9 1 3
3 64 9 65
3 66 65 2
3 64 65 66
3 10 67 69
3 67 9 68
3 67 68 69
3 10 1 9
3 10 8 1
3 70 8 71
3 72 71 10
3 70 71 72
3 73 0 74
3 75 74 8
3 73 74 75
3 76 0 77
3 78 6 79
3 80 79 0
3 78 79 80
3 81 6 82
3 84 83 6
