ply
format ascii 1.0
element vertex 388
property float x
property float y
property float z
element face 359
property list uchar int vertex_index
end_header
-28.009529 -16.825783 -39.389393
-30.100767 -26.850584 -30.929806
-26.76263 -5.598968 -47.673157
-26.834 -14.707661 -45.376041
-28.910152 -34.968426 -23.264145
-26.317345 -34.925735 -28.787048
-30.686157 -22.380886 -31.339073
-27.301029 -1.538025 -47.074688
-27.002159 -21.094709 -38.589134
-24.400896 -41.845066 -18.619595
-26.705004 -38.769104 -22.292923
-28.046795 -35.112556 -26.108021
-28.729708 -12.482728 -39.377247
-29.918888 -17.6091 -35.296467
-29.249884 -22.041485 -35.097904
-27.87746 -26.215231 -34.28289
-27.433275 -0.02247 -51.383156
-27.605375 -4.486532 -50.919342
-27.015734 -11.288547 -43.628368
-26.524958 -9.998066 -47.006126
-28.378092 -30.908445 -30.098732
-26.486015 -30.39604 -32.882183
-26.564693 -23.247139 -37.931919
-25.66396 -40.380123 -20.439125
-29.848381 -15.254494 -35.121391
-30.219069 -17.639822 -33.209145
-30.570827 -24.679893 -31.190498
-30.225391 -22.325167 -33.209293
-29.761259 -24.500685 -32.988739
-28.613304 -24.148676 -34.76162
-29.060246 -26.588135 -32.640667
-27.768871 3.013121 -47.814533
-27.009157 -3.523916 -47.547676
-27.161047 -0.722788 -49.36792
-26.981916 -2.777861 -49.583549
-27.450937 -2.197237 -51.327133
-26.906708 -4.942378 -49.44735
-28.436638 -14.670008 -39.497494
-27.844893 -11.949633 -41.588413
-27.444414 -14.089341 -41.525715
-26.291742 -15.099251 -44.262024
-26.33606 -12.820488 -44.961838
-26.597473 -12.314793 -46.293045
-27.13809 -9.557921 -48.275146
-27.476364 -11.994846 -47.326321
-29.626478 -33.15266 -25.108505
-27.14731 -35.015427 -27.510185
-28.334011 -33.075542 -28.078861
-27.331356 -32.88813 -29.512505
-27.313099 -30.640949 -31.564224
-26.479038 -32.716007 -30.811195
-30.416466 -19.941462 -31.359154
-27.400204 -4.310583 -45.260281
-27.087296 -6.350342 -45.630344
-27.508276 -18.961979 -39.079216
-27.015409 -16.235132 -41.234402
-26.416798 -17.445776 -43.374496
-25.742369 -40.015862 -19.09193
-26.984722 -38.542015 -20.921124
-27.986284 -36.911507 -22.775433
-28.727654 -35.126659 -24.658886
-27.503374 -37.012253 -24.18129
-26.735006 -37.017063 -25.557529
-25.963261 -37.020546 -26.816456
-29.137081 -10.410079 -36.565365
-28.842604 -10.25306 -39.007187
-29.36652 -12.790169 -37.065022
-29.340599 -15.086889 -37.335842
-29.083227 -17.312986 -37.386967
-30.389866 -20.042343 -33.288715
-29.705885 -19.867292 -35.282181
-28.638723 -19.48041 -37.239086
-28.068752 -21.603767 -36.914513
-27.448702 -23.704273 -36.429131
-26.862255 -25.81295 -35.788342
-27.428381 1.210726 -48.778114
-28.160553 -9.807163 -41.392982
-27.377373 -9.168658 -43.638409
-26.777761 -8.447954 -45.68206
-26.512529 -10.604302 -45.446762
-26.590534 -7.758487 -47.479622
-26.952923 -7.205226 -48.996635
-27.898613 -6.875527 -50.203316
-30.212597 -29.082787 -28.931156
-29.197515 -33.193142 -26.579487
-29.396101 -31.119225 -28.546455
-29.338997 -28.91444 -30.566566
-28.20948 -28.61912 -32.168564
-27.1364 -28.280264 -33.660038
-26.392595 -27.971813 -34.987808
-24.893261 -39.181442 -25.976849
-26.373466 -23.045943 -38.580444
-26.415585 -24.349117 -37.521181
-29.991311 -17.495773 -32.22217
-29.961987 -16.37307 -33.083216
-27.848202 2.587795 -46.446995
-27.966901 3.847907 -47.159626
-27.404261 -14.609981 -45.782904
-27.725443 -13.253574 -46.758043
-27.155182 -13.351254 -46.351181
-28.641256 -34.768557 -22.648798
-28.416441 -35.797241 -22.35561
-29.140984 -33.924583 -23.518864
-28.641256 -34.768557 -22.648798
-29.268315 -34.060543 -24.186325
-29.499147 -33.0167 -24.441043
-29.140984 -33.924583 -23.518864
-27.549903 -5.693257 -44.310236
-27.670879 -4.657239 -44.017401
-27.393449 -6.713137 -44.495267
-27.24375 -5.330463 -45.445312
-27.549903 -5.693257 -44.310236
-26.811295 -19.746411 -39.66587
-27.064354 -18.680046 -39.910911
-27.255218 -20.028344 -38.834175
-26.314558 -18.807223 -42.348506
-26.314561 -17.657869 -42.779905
-26.474158 -20.018546 -41.820892
-26.576398 -18.657098 -42.846882
-26.314558 -18.807223 -42.348506
-23.672075 -42.505621 -17.728552
-23.600138 -42.774271 -18.408946
-24.342639 -41.589512 -17.954146
-23.672075 -42.505621 -17.728552
-25.071632 -40.930464 -18.855763
-25.013376 -40.67491 -18.190313
-24.342639 -41.589512 -17.954146
-26.065557 -38.00707 -25.229691
-26.409889 -37.952772 -24.604788
-25.679685 -38.008812 -25.859154
-26.349134 -37.018805 -26.186992
-26.065557 -38.00707 -25.229691
-29.307253 -11.600624 -35.655501
-28.975328 -10.307074 -35.370394
-29.421973 -12.790669 -35.905329
-29.251801 -11.600124 -36.815193
-29.307253 -11.600624 -35.655501
-27.364705 -0.16365 -47.926401
-27.521117 0.783494 -47.511921
-27.457441 -0.590881 -46.660208
-27.492045 0.99773 -51.219475
-27.355932 0.647571 -50.211857
-27.297161 -0.372629 -50.375538
-27.771434 1.304421 -52.203796
-27.492045 0.99773 -51.219475
-27.819249 0.207749 -52.23114
-28.157409 1.53464 -53.05178
-27.771434 1.304421 -52.203796
-28.030967 -3.185822 -51.832287
-27.953748 -2.041174 -52.036183
-27.528156 -3.341884 -51.123238
-28.227528 -4.4006 -51.490254
-28.030967 -3.185822 -51.832287
-26.840098 -14.837989 -42.297959
-26.69723 -15.933417 -42.052832
-28.115312 -8.115056 -49.715416
-27.518352 -8.216724 -49.239231
-27.73505 -9.456253 -48.751331
-28.635286 -6.855945 -50.639668
-28.115312 -8.115056 -49.715416
-30.136444 -30.134996 -27.962229
-30.373455 -29.064657 -28.145364
-24.829639 -39.340543 -26.41428
-24.452303 -40.382835 -25.480227
-25.166415 -38.142202 -26.939839
-24.829639 -39.340543 -26.41428
-26.443922 -21.920559 -39.001259
-26.662655 -20.844344 -39.329867
-26.783426 -22.170924 -38.260526
-26.443922 -21.920559 -39.001259
-26.373466 -23.045943 -38.580444
-24.24913 -42.038294 -19.296187
-23.600138 -42.774271 -18.408946
-24.880662 -41.305822 -20.205952
-25.032428 -41.112595 -19.52936
-24.24913 -42.038294 -19.296187
-25.432259 -40.503507 -21.115023
-24.880662 -41.305822 -20.205952
-25.952781 -39.697998 -22.041922
-26.184482 -39.574613 -21.366024
-25.432259 -40.503507 -21.115023
-26.394888 -38.828792 -22.972485
-25.952781 -39.697998 -22.041922
-29.776643 -15.180406 -34.039339
-29.662903 -14.022832 -34.933514
-30.033725 -16.447158 -34.165268
-29.776643 -15.180406 -34.039339
-29.961987 -16.37307 -33.083216
-27.97241 4.311823 -48.518812
-27.966901 3.847907 -47.159626
-27.78492 3.457508 -49.073358
-27.97241 4.311823 -48.518812
-26.313901 -13.959869 -44.611931
-26.357556 -14.226095 -43.91655
-26.335397 -15.365476 -43.566643
-27.904187 -10.674716 -48.276919
-27.73505 -9.456253 -48.751331
-27.307227 -10.776384 -47.800733
-28.189552 -11.956181 -47.683382
-27.904187 -10.674716 -48.276919
-28.438631 -13.214908 -47.115105
-28.189552 -11.956181 -47.683382
-27.725443 -13.253574 -46.758043
-29.861534 -32.094522 -25.325598
-29.499147 -33.0167 -24.441043
-29.843384 -32.169932 -26.050903
-29.861534 -32.094522 -25.325598
-30.012831 -19.732374 -30.483052
-30.090009 -18.646593 -31.297175
-30.403696 -21.047778 -30.476771
-30.012831 -19.732374 -30.483052
-30.538542 -22.267489 -30.46673
-30.551312 -21.161174 -31.349114
-30.403696 -21.047778 -30.476771
-30.72005 -23.499466 -30.40242
-30.538542 -22.267489 -30.46673
-30.662385 -24.648969 -30.328133
-30.628492 -23.530389 -31.264786
-30.72005 -23.499466 -30.40242
-30.628543 -25.801791 -30.215055
-30.662385 -24.648969 -30.328133
-30.393514 -26.887137 -30.084709
-30.335797 -25.765239 -31.060152
-30.628543 -25.801791 -30.215055
-27.491954 -1.931974 -45.815748
-27.457441 -0.590881 -46.660208
-27.541541 -3.318253 -44.908544
-27.670879 -4.657239 -44.017401
-27.350617 -2.924304 -46.167485
-27.491954 -1.931974 -45.815748
-27.541541 -3.318253 -44.908544
-26.81792 -17.316623 -40.988505
-27.261843 -17.598555 -40.156809
-27.064354 -18.680046 -39.910911
-26.69723 -15.933417 -42.052832
-26.81792 -17.316623 -40.988505
-26.811295 -19.746411 -39.66587
-26.662655 -20.844344 -39.329867
-26.252033 -16.484607 -43.223669
-26.335397 -15.365476 -43.566643
-26.35427 -16.272513 -43.81826
-26.252033 -16.484607 -43.223669
-26.314561 -17.657869 -42.779905
-26.833498 -17.311775 -43.829712
-27.042099 -15.942718 -44.830484
-26.625399 -16.076718 -44.375269
-26.833498 -17.311775 -43.829712
-26.576398 -18.657098 -42.846882
-25.480788 -39.733627 -18.476406
-25.013376 -40.67491 -18.190313
-26.213215 -39.068289 -19.369694
-25.480788 -39.733627 -18.476406
-26.834392 -38.331366 -20.28429
-26.213215 -39.068289 -19.369694
-26.363546 -39.278938 -20.006527
-27.453727 -37.584036 -21.1841
-26.834392 -38.331366 -20.28429
-27.954507 -36.768782 -22.111254
-27.453727 -37.584036 -21.1841
-27.485503 -37.726761 -21.848278
-28.448218 -35.939966 -23.019789
-28.416441 -35.797241 -22.35561
-27.954507 -36.768782 -22.111254
-26.794073 -37.950367 -23.916668
-27.104189 -37.890678 -23.237106
-26.394888 -38.828792 -22.972485
-27.11919 -37.014658 -24.869409
-26.794073 -37.950367 -23.916668
-26.409889 -37.952772 -24.604788
-28.894177 -9.170549 -36.207105
-28.975328 -10.307074 -35.370394
-28.942084 -9.189283 -37.473198
-28.894177 -9.170549 -36.207105
-28.989843 -10.33157 -37.786276
-28.794846 -9.110774 -38.694109
-28.942084 -9.189283 -37.473198
-29.60745 -14.022331 -36.093207
-29.421973 -12.790669 -35.905329
-29.662903 -14.022832 -34.933514
-30.317768 -18.790642 -32.284149
-29.991311 -17.495773 -32.22217
-30.090009 -18.646593 -31.297175
-26.564366 -25.632023 -36.449393
-26.415585 -24.349117 -37.521181
-26.713474 -24.530045 -36.86013
-27.691362 1.684692 -47.03013
-27.848202 2.587795 -46.446995
-27.598626 2.111924 -48.296323
-27.691362 1.684692 -47.03013
-27.521117 0.783494 -47.511921
-27.614676 2.55631 -49.555149
-27.78492 3.457508 -49.073358
-27.598626 2.111924 -48.296323
-27.489598 1.614327 -49.916954
-27.294714 0.243969 -49.073017
-27.355932 0.647571 -50.211857
-27.675893 2.959912 -50.693989
-27.614676 2.55631 -49.555149
-27.489598 1.614327 -49.916954
-27.82808 -0.879635 -52.203129
-27.819249 0.207749 -52.23114
-27.442106 -1.109854 -51.355145
-27.82808 -0.879635 -52.203129
-27.953748 -2.041174 -52.036183
-28.594433 -8.952946 -39.96273
-28.794846 -9.110774 -38.694109
-28.253408 -8.729997 -41.155628
-28.594433 -8.952946 -39.96273
-28.501579 -10.030112 -40.200085
-27.930077 -8.441547 -42.376587
-28.253408 -8.729997 -41.155628
-27.538487 -8.122295 -43.4993
-27.930077 -8.441547 -42.376587
-27.768963 -9.48791 -42.515696
-27.232335 -7.7595 -44.634377
-27.393449 -6.713137 -44.495267
-27.538487 -8.122295 -43.4993
-27.0546 -13.765094 -42.443615
-27.229912 -15.162236 -41.380059
-26.840098 -14.837989 -42.297959
-26.84026 -12.364697 -43.494941
-27.230074 -12.688944 -42.577041
-27.0546 -13.765094 -42.443615
-26.500424 -13.130667 -44.161676
-26.357556 -14.226095 -43.91655
-26.588658 -12.022575 -44.404139
-26.500424 -13.130667 -44.161676
-26.424295 -11.712395 -45.2043
-26.764131 -10.946424 -44.537565
-26.84026 -12.364697 -43.494941
-26.588658 -12.022575 -44.404139
-28.374147 -5.595097 -51.132241
-28.227528 -4.4006 -51.490254
-27.751994 -5.68103 -50.561329
-28.374147 -5.595097 -51.132241
-28.635286 -6.855945 -50.639668
-27.404261 -14.609981 -45.782904
-27.042099 -15.942718 -44.830484
-30.449428 -28.003238 -29.085384
-30.373455 -29.064657 -28.145364
-30.156682 -27.966686 -29.930481
-30.393514 -26.887137 -30.084709
-30.449428 -28.003238 -29.085384
-29.628903 -32.190173 -26.786394
-29.843384 -32.169932 -26.050903
-29.411997 -33.172901 -25.843996
-29.728196 -31.153215 -27.769878
-29.628903 -32.190173 -26.786394
-29.296808 -32.156183 -27.562971
-29.804349 -30.101006 -28.738806
-30.136444 -30.134996 -27.962229
-29.728196 -31.153215 -27.769878
-26.329536 -26.711455 -36.049126
-26.564366 -25.632023 -36.449393
-26.627425 -26.892381 -35.388075
-24.520466 -40.166141 -25.047981
-24.079508 -41.367535 -24.551359
-24.452303 -40.382835 -25.480227
-25.144685 -39.08926 -25.439351
-24.520466 -40.166141 -25.047981
-25.428261 -38.100994 -26.396653
-25.679685 -38.008812 -25.859154
-25.144685 -39.08926 -25.439351
-25.701414 -37.061754 -27.359642
-25.428261 -38.100994 -26.396653
-25.166415 -38.142202 -26.939839
-25.878456 -36.014348 -28.344938
-26.140303 -35.97314 -27.801752
-25.701414 -37.061754 -27.359642
-26.059202 -34.921051 -29.339637
-25.878456 -36.014348 -28.344938
-26.140048 -33.816187 -30.351711
-26.398191 -33.820871 -29.799121
-26.059202 -34.921051 -29.339637
-26.24389 -32.67021 -31.373451
-26.140048 -33.816187 -30.351711
-26.247379 -31.510226 -32.408945
-26.482526 -31.556023 -31.846689
-26.24389 -32.67021 -31.373451
-26.297933 -30.314017 -33.450485
-26.247379 -31.510226 -32.408945
-26.251224 -29.101904 -34.503298
-26.439305 -29.183926 -33.934995
-26.297933 -30.314017 -33.450485
-26.278895 -27.859215 -35.554859
-26.251224 -29.101904 -34.503298
-26.329536 -26.711455 -36.049126
-26.278895 -27.859215 -35.554859
3 92 91 22
3 93 25 94
3 1 28 26
3 1 30 28
3 95 31 96
3 2 34 32
3 2 36 34
3 0 39 37
3 3 42 40
3 3 44 42
3 3 97 99
3 99 98 44
3 97 98 99
3 4 100 101
3 4 102 103
3 4 104 106
3 104 45 105
3 104 105 106
3 5 48 46
3 5 50 48
3 107 52 108
3 109 53 110
3 111 110 52
3 109 110 111
3 8 112 114
3 114 113 54
3 112 113 114
3 115 56 116
3 119 118 56
3 117 118 119
3 9 120 121
3 9 122 123
3 9 124 126
3 124 57 125
3 124 125 126
3 10 58 23
3 10 59 58
3 10 61 59
3 127 62 128
3 129 63 130
3 131 130 62
3 129 130 131
3 132 64 133
3 134 66 135
3 136 135 64
3 134 135 136
3 13 67 24
3 13 68 67
3 6 69 51
3 14 70 27
3 14 71 70
3 14 72 71
3 15 73 29
3 15 74 73
3 7 137 139
3 137 75 138
3 137 138 139
3 16 140 142
3 142 141 33
3 140 141 142
3 16 143 144
3 16 145 147
3 145 146 147
3 17 148 150
3 150 149 35
3 148 149 150
3 17 151 152
3 12 76 65
3 18 77 38
3 18 78 77
3 154 153 55
3 19 79 41
3 19 80 79
3 19 81 80
3 155 82 156
3 157 156 43
3 155 156 157
3 159 158 82
3 160 83 161
3 11 84 60
3 20 85 47
3 20 86 85
3 20 87 86
3 21 88 49
3 21 89 88
3 162 90 163
3 165 164 90
3 22 166 168
3 168 167 8
3 166 167 168
3 170 169 22
3 171 9 172
3 173 23 174
3 175 174 9
3 173 174 175
3 176 23 177
3 178 10 179
3 180 179 23
3 178 179 180
3 182 181 10
3 183 24 184
3 25 185 187
3 185 24 186
3 185 186 187
3 25 13 24
3 26 27 6
3 28 27 26
3 28 14 27
3 28 29 14
3 30 29 28
3 30 15 29
3 31 188 189
3 31 190 191
3 32 33 7
3 34 33 32
3 34 16 33
3 34 35 16
3 36 35 34
3 36 17 35
3 37 38 12
3 39 38 37
3 39 18 38
3 40 192 194
3 192 41 193
3 192 193 194
3 42 41 40
3 42 19 41
3 42 43 19
3 44 43 42
3 44 195 197
3 197 196 43
3 195 196 197
3 44 198 199
3 202 201 44
3 200 201 202
3 45 203 204
3 45 205 206
3 46 47 11
3 48 47 46
3 48 20 47
3 48 49 20
3 50 49 48
3 50 21 49
3 207 51 208
3 209 51 210
3 211 6 212
3 213 212 51
3 211 212 213
3 214 6 215
3 216 26 217
3 218 217 6
3 216 217 218
3 219 26 220
3 221 1 222
3 223 222 26
3 221 222 223
3 224 7 225
3 52 226 227
3 52 228 230
3 228 7 229
3 228 229 230
3 52 32 7
3 53 32 52
3 53 2 32
3 54 55 0
3 231 55 232
3 233 232 54
3 231 232 233
3 235 234 55
3 237 236 8
3 238 40 239
3 56 240 242
3 240 40 241
3 240 241 242
3 56 3 40
3 56 243 245
3 245 244 3
3 243 244 245
3 247 246 56
3 57 248 249
3 57 250 251
3 23 57 9
3 58 57 23
3 58 252 254
3 254 253 57
3 252 253 254
3 58 255 256
3 59 257 259
3 259 258 58
3 257 258 259
3 59 260 262
3 260 4 261
3 260 261 262
3 59 60 4
3 61 60 59
3 61 11 60
3 263 61 264
3 265 264 10
3 263 264 265
3 62 266 268
3 266 61 267
3 266 267 268
3 62 11 61
3 62 46 11
3 63 46 62
3 63 5 46
3 64 269 270
3 64 271 272
3 64 273 275
3 273 65 274
3 273 274 275
3 66 65 64
3 66 12 65
3 24 276 278
3 276 66 277
3 276 277 278
3 67 66 24
3 67 12 66
3 67 37 12
3 68 37 67
3 68 0 37
3 51 279 281
3 279 25 280
3 279 280 281
3 69 25 51
3 69 13 25
3 27 69 6
3 70 69 27
3 70 13 69
3 70 68 13
3 71 68 70
3 71 0 68
3 71 54 0
3 72 54 71
3 72 8 54
3 29 72 14
3 73 72 29
3 73 8 72
3 73 22 8
3 74 22 73
3 74 282 284
3 284 283 22
3 282 283 284
3 285 31 286
3 75 287 289
3 287 31 288
3 287 288 289
3 75 290 292
3 292 291 31
3 290 291 292
3 33 75 7
3 293 75 294
3 295 294 33
3 293 294 295
3 298 297 75
3 296 297 298
3 35 299 301
3 301 300 16
3 299 300 301
3 303 302 35
3 65 304 305
3 76 306 308
3 308 307 65
3 306 307 308
3 76 309 310
3 38 76 12
3 77 76 38
3 77 311 313
3 313 312 76
3 311 312 313
3 77 314 316
3 314 53 315
3 314 315 316
3 78 53 77
3 78 2 53
3 55 39 0
3 317 39 318
3 319 318 55
3 317 318 319
3 320 18 321
3 322 321 39
3 320 321 322
3 41 323 324
3 79 325 327
3 327 326 41
3 325 326 327
3 79 328 330
3 328 18 329
3 328 329 330
3 79 78 18
3 80 78 79
3 80 2 78
3 80 36 2
3 81 36 80
3 81 17 36
3 43 81 19
3 82 81 43
3 82 17 81
3 82 331 333
3 333 332 17
3 331 332 333
3 335 334 82
3 337 336 3
3 83 338 339
3 83 340 342
3 340 1 341
3 340 341 342
3 60 45 4
3 84 45 60
3 84 343 345
3 345 344 45
3 343 344 345
3 47 84 11
3 85 84 47
3 85 346 348
3 348 347 84
3 346 347 348
3 85 349 351
3 349 83 350
3 349 350 351
3 86 83 85
3 86 1 83
3 86 30 1
3 87 30 86
3 87 15 30
3 49 87 20
3 88 87 49
3 88 15 87
3 88 74 15
3 89 74 88
3 89 352 354
3 354 353 74
3 352 353 354
3 90 355 357
3 355 356 357
3 90 358 359
3 90 360 362
3 360 63 361
3 360 361 362
3 363 63 364
3 365 364 90
3 363 364 365
3 366 5 367
3 368 367 63
3 366 367 368
3 369 5 370
3 371 50 372
3 373 372 5
3 371 372 373
3 374 50 375
3 376 21 377
3 378 377 50
3 376 377 378
3 379 21 380
3 381 89 382
3 383 382 21
3 381 382 383
3 384 89 385
3 387 386 89
