ply
format ascii 1.0
element vertex 1028
property float x
property float y
property float z
element face 1132
property list uchar int vertex_index
end_header
55.463177 15.703011 -42.721413
62.341675 -24.61515 -19.588839
65.982262 -49.162354 -11.06752
31.508982 14.941368 -35.785812
36.820679 15.66938 -54.796257
53.287331 -1.474695 -54.474251
59.026382 -46.117004 0.087723
59.847198 -42.306652 -8.202396
60.631027 -52.616642 -3.025936
49.825195 18.684467 -40.687126
41.224079 19.465435 -46.529991
46.45512 18.670467 -51.198868
44.132927 9.824764 -57.295509
53.903431 9.561432 -51.073845
65.808983 -16.631737 -28.29756
61.14053 -31.266651 -11.300512
63.673462 -37.013596 -16.203604
33.927593 14.529316 -46.44162
52.845589 -13.260794 -51.396118
61.044731 8.403227 -32.319397
63.190933 -11.949158 -21.559767
61.158287 4.898516 -41.802475
58.625893 -49.073757 -1.750443
58.488922 -53.392696 0.88679
52.640049 18.416595 -42.03231
48.27002 20.022552 -46.282578
51.278419 17.87149 -47.359055
50.002312 14.938248 -51.713982
54.601601 13.550018 -47.498169
61.970337 -34.152092 -7.419577
62.328842 -45.610992 -9.925209
61.403156 -39.882568 -12.245672
64.903511 -43.102898 -13.892715
67.501892 -40.267464 -17.754683
40.530792 17.162525 -36.667702
38.864014 18.677063 -51.263313
37.155987 17.631283 -47.287941
34.889 15.691254 -51.302261
35.575718 10.999767 -56.834152
48.719765 4.675463 -56.479866
43.967274 4.0723 -57.937431
48.756363 -1.152611 -56.443459
53.237244 -7.380136 -53.857033
62.202553 -22.10713 -16.28372
63.529869 -16.105694 -16.806616
62.554878 -18.272442 -20.782682
62.880089 1.194704 -36.798134
61.490303 1.034113 -44.720482
59.161499 -22.590216 -46.558418
60.216057 -39.314621 -6.00754
59.101898 -44.316887 -4.087778
60.164841 -47.59111 -5.857338
63.259605 -51.215237 -7.060976
46.948097 17.188286 -38.447586
43.125771 18.187656 -40.988029
45.607384 19.799591 -44.217384
43.51886 20.155529 -49.502945
41.450645 17.938164 -53.808388
39.998867 13.659359 -56.770905
44.968361 14.985832 -54.956711
49.103928 10.260916 -54.799454
53.444496 4.328398 -53.42495
65.032547 -27.315819 -22.085421
64.080551 -20.729996 -23.914698
67.188171 -23.5779 -26.088427
53.562653 16.346558 -36.356873
56.326569 15.60812 -37.163673
62.734688 -25.615444 -12.110214
61.247261 -28.124676 -15.359861
60.123737 -36.849487 -10.011497
60.966759 -34.055183 -14.032915
62.732853 -30.864164 -18.0693
66.258423 -33.822239 -20.064962
39.259525 17.893063 -42.286888
35.78706 16.329273 -42.192223
39.378979 8.224506 -58.116219
60.661758 -57.203789 0.215954
63.572037 -56.571243 -3.749819
66.351746 -55.133663 -7.777079
59.223618 11.903868 -31.983774
58.724457 12.437592 -37.63102
63.839989 -5.936949 -21.831251
63.524567 -14.100807 -25.484938
62.336975 3.159151 -32.338257
60.861244 7.378521 -37.604462
58.311546 10.949835 -42.70826
58.078423 7.748055 -46.621788
57.839897 3.110346 -49.324249
57.59901 -2.498753 -50.994232
57.38308 -8.521705 -51.504974
56.881767 -14.576948 -50.458977
55.603432 -20.479523 -47.84008
57.455032 -52.246521 3.266505
57.886864 -51.768684 1.46205
57.738106 -53.608295 2.662132
54.048161 17.357162 -42.455193
51.974876 18.46838 -44.783745
53.473598 16.943413 -45.115555
52.908836 15.940781 -47.549759
55.015968 14.885284 -45.245506
64.154404 -47.349117 -10.562315
63.584915 -44.414856 -11.922812
65.495384 -46.136681 -12.544647
66.803612 -44.832352 -14.505032
67.257576 -47.957737 -13.050098
37.76226 17.427631 -53.200745
36.755638 17.355274 -51.501892
35.699547 15.905251 -53.239128
33.90963 14.06031 -52.839272
34.820721 14.008247 -54.621407
36.08614 13.492607 -56.018044
51.03336 1.716736 -55.61364
48.703045 1.766628 -56.701637
51.037399 -1.211519 -55.680054
51.066803 -4.141141 -55.270172
53.274544 -4.429379 -54.398491
61.906631 -23.335852 -18.024637
62.276489 -20.234844 -18.499407
62.37822 -21.451777 -20.230139
59.91188 -43.881874 -0.96533
59.678932 -42.871685 -3.048523
58.995049 -45.224663 -2.006855
59.395111 -50.782036 -2.465717
59.309601 -48.382416 -3.801807
60.415688 -50.145115 -4.496979
61.57259 -49.366554 -6.532841
61.909508 -52.00177 -5.041971
48.400551 18.060093 -39.701019
46.416218 18.720837 -41.36248
47.760895 19.411366 -42.578003
47.352707 19.676262 -48.861534
45.916142 20.286137 -48.04969
44.901314 19.714935 -50.503265
42.437408 19.352623 -51.805496
43.942211 18.500267 -52.685204
43.107433 16.722572 -54.550728
45.643669 17.073074 -53.242126
51.928349 12.413734 -51.537636
49.493576 12.766054 -53.422287
51.551708 10.052286 -53.057121
51.273399 7.419935 -54.256798
53.637268 7.057232 -52.39994
66.824097 -28.821201 -23.039507
66.176033 -25.454882 -24.085215
55.198296 14.802151 -34.005981
54.993965 16.286243 -36.807045
56.6091 14.636238 -34.328072
62.351936 -30.00993 -9.814346
61.885963 -28.44442 -11.76268
61.646065 -26.821552 -13.781019
61.064667 -29.736084 -13.305609
59.63129 -40.756866 -7.146914
60.065842 -38.11554 -8.010296
59.894318 -39.596527 -9.174147
62.466911 -38.499039 -14.236423
61.103165 -36.981388 -13.201864
62.037308 -35.515282 -15.200727
61.750103 -32.509594 -16.051622
63.14624 -33.949303 -17.185228
64.368515 -32.297062 -19.152502
64.962662 -35.446083 -18.146044
42.281376 19.041496 -43.832535
41.172344 18.206776 -41.80835
40.231503 18.668766 -44.552048
35.40881 16.212788 -47.052704
36.475689 16.891994 -44.837578
34.889233 15.558075 -44.419525
34.326057 15.155827 -41.661079
33.554138 14.001953 -43.679497
32.74398 12.649817 -45.51046
41.977047 11.937529 -57.207985
39.587009 11.030558 -57.663841
41.706451 9.172689 -57.932991
44.062439 1.143999 -57.515999
50.96991 -10.005982 -52.986427
64.204803 -61.194176 -2.152285
63.32753 -59.074112 -1.973274
64.774185 -58.648441 -3.982853
65.009094 -55.945332 -5.759787
66.106331 -58.01741 -6.00588
61.262688 8.261147 -29.495821
60.217323 10.420296 -32.168854
58.994537 12.447752 -34.825027
59.991493 10.495626 -34.991707
63.285683 -14.061043 -19.138762
63.805359 -11.058707 -19.288439
63.546227 -8.877149 -21.75857
64.993904 -18.6901 -26.098913
63.752045 -17.415812 -24.744028
64.49572 -15.305319 -27.03348
62.797363 0.913996 -29.681616
62.88279 0.127003 -32.114983
62.189564 3.137457 -39.316963
61.877476 4.385962 -37.312279
60.968559 6.311493 -39.867073
59.735619 9.266687 -40.184494
59.738594 8.044609 -42.376617
58.185261 9.548403 -44.825401
59.78009 6.444199 -44.243179
61.530548 -1.391504 -45.784859
59.789127 2.179686 -47.059135
59.718067 -0.410477 -48.083168
57.712898 0.391027 -50.285378
59.609344 -3.226766 -48.887367
57.200367 -11.559086 -51.195312
58.088875 -25.606464 -45.380928
57.436913 -21.495089 -47.380577
58.319492 -48.286381 1.176268
58.480919 -47.512688 -0.889606
58.12117 -49.709976 0.275711
58.542141 -51.307362 -0.465736
59.473274 -53.072144 -1.03586
51.235184 18.846653 -41.450874
49.124985 19.684284 -43.531723
50.525932 19.388664 -44.258499
49.728577 19.252327 -46.936417
48.920998 18.455372 -49.404633
48.165421 17.053505 -51.601128
50.607323 16.671108 -49.68502
52.386864 14.406391 -49.699959
54.228767 11.752665 -49.443085
61.455574 -32.732742 -9.34243
60.80558 -43.930531 -9.137062
60.523018 -41.152393 -10.233622
61.829697 -42.759403 -11.155151
63.00042 -41.464691 -13.1467
64.275925 -40.062946 -15.110163
65.598656 -38.580498 -17.045691
66.230354 -41.707275 -15.835741
68.023262 -43.482231 -16.446371
40.050331 19.35915 -49.024551
39.116322 18.728493 -47.115387
37.924171 18.301743 -49.447372
35.996506 16.888046 -49.439491
34.331261 15.167034 -49.016258
32.975582 13.202538 -48.220047
33.32288 13.739437 -50.689835
46.400887 7.387678 -57.047318
43.9771 6.979649 -57.850739
46.330154 4.501127 -57.433525
46.369446 1.585596 -57.342674
46.47176 -1.335859 -56.737556
48.826557 -4.072154 -55.673943
51.062595 -7.068329 -54.361969
53.11198 -10.322845 -52.83992
61.924164 6.199621 -29.633768
63.14064 -20.975729 -14.417677
62.848083 -19.092159 -16.596766
62.754105 -17.133772 -18.873953
62.841042 -15.095161 -21.231234
62.557957 1.572666 -40.984238
61.354561 3.138227 -43.409302
62.882423 -0.324629 -42.340576
59.687584 -26.824451 -44.519836
60.530384 -40.467415 -3.9911
59.571358 -41.840199 -5.106995
59.377869 -43.354599 -6.153418
58.796986 -46.733917 -2.963278
59.284519 -45.900391 -5.035135
59.953617 -44.974121 -7.095465
61.178329 -46.671303 -7.901674
62.831795 -48.433052 -8.557384
64.633316 -50.261284 -9.071079
43.682922 17.049793 -38.048706
45.065815 17.841827 -39.854645
44.36153 19.055447 -42.755814
43.409637 19.82267 -45.551254
46.90115 20.179138 -45.3843
44.60825 20.300816 -46.952721
42.302612 20.029385 -48.182076
41.143486 19.617832 -50.588539
40.032501 18.586018 -52.717079
39.052853 16.988991 -54.522369
38.262646 14.919903 -55.971001
40.624493 16.00214 -55.474243
42.444351 14.493557 -56.068504
44.46072 12.529043 -56.317711
47.508652 15.133537 -53.485855
46.984932 12.805048 -55.03653
46.614357 10.185898 -56.233788
48.846535 7.531567 -55.829567
51.10276 4.613655 -55.121399
53.331856 1.460661 -54.130806
63.447075 -25.933084 -20.943701
63.166222 -22.713804 -21.74365
64.510948 -24.032074 -23.023428
65.558716 -22.075956 -25.108015
66.492737 -20.10047 -27.202845
50.281044 17.102516 -37.821541
52.034348 15.879322 -35.771156
51.766827 17.651501 -38.597511
53.198845 17.701668 -39.194061
54.580177 17.143421 -39.653374
55.917496 15.956398 -39.995682
62.355507 -23.896029 -14.150843
61.653614 -25.123381 -15.870771
61.683357 -26.419786 -17.457567
61.025745 -36.748741 -6.780203
60.680851 -35.43808 -8.741892
60.543232 -34.070892 -10.718531
60.383316 -38.341293 -11.192263
60.420387 -35.499924 -12.018511
60.648876 -32.630516 -12.72027
61.013763 -31.102928 -14.749235
61.629105 -29.478363 -16.801008
62.459976 -27.753448 -18.868204
63.853851 -29.127346 -20.081125
65.624687 -30.578892 -21.102537
66.89801 -37.049736 -18.955446
32.720776 15.815208 -36.414032
41.859871 17.470715 -38.935745
40.029312 17.587273 -39.530807
38.242397 17.396187 -39.817924
38.275017 17.943718 -44.888588
37.445938 17.257366 -42.411667
36.551556 16.911022 -39.797813
33.623028 15.200073 -38.934555
32.421986 14.079712 -38.182175
32.063198 12.320753 -39.884071
37.691147 12.490171 -57.029457
37.340282 9.811249 -57.664169
41.613667 6.295397 -58.202072
59.474648 -55.221977 0.491182
60.73494 -54.979256 -1.453695
61.832088 -59.279762 0.018824
62.099747 -56.992023 -1.75325
62.108841 -54.553993 -3.443937
63.530952 -53.938118 -5.451963
64.942741 -53.135944 -7.463396
66.291039 -52.169163 -9.47208
67.272057 -57.21439 -8.042089
67.550735 -54.174343 -9.800289
67.527679 -51.077686 -11.476847
57.872421 13.8493 -34.597694
57.566414 14.306339 -37.442284
57.217533 14.187481 -40.216034
63.017273 -19.473639 -22.473715
62.992683 -16.222898 -23.116426
63.07048 -12.980146 -23.648283
64.069199 -11.933146 -27.87591
63.384567 -10.803409 -26.105654
63.214149 -9.77467 -24.046835
63.374359 -6.648967 -24.298784
63.492165 -3.660894 -24.407156
62.990356 1.42951 -27.040251
62.41983 3.717205 -29.712862
61.738106 5.948853 -32.392242
62.496788 2.309753 -34.724396
61.712547 5.328056 -34.98423
60.88763 8.088106 -35.059875
59.816467 10.09411 -37.698418
58.487526 11.923822 -40.290108
56.884911 13.534378 -42.81443
56.591358 12.38883 -45.155357
56.333508 10.792267 -47.191437
56.099785 8.791172 -48.911583
59.808025 4.480104 -45.792442
57.965431 5.584896 -48.111191
55.887409 6.445086 -50.330322
55.70599 3.826534 -51.467545
55.569656 1.015619 -52.327225
55.482262 -1.91095 -52.885445
57.49807 -5.488594 -51.419075
55.424698 -4.890806 -53.092682
55.351513 -7.882296 -52.891022
55.199265 -10.863755 -52.240616
54.902603 -13.825422 -51.145271
58.218925 -18.495949 -48.551498
56.363674 -17.55773 -49.313881
54.412491 -16.756962 -49.671333
57.521572 -53.674758 3.369678
57.596569 -52.927408 2.964319
57.380035 -52.993871 3.671864
30.954261 14.464298 -35.423019
30.927946 15.668308 -34.805976
31.445598 13.903135 -36.538014
30.954261 14.464298 -35.423019
67.349052 -27.938349 -24.005781
67.674435 -29.673123 -23.44644
55.932621 13.925161 -32.792244
55.151281 13.77655 -32.661341
56.638023 13.842205 -32.95329
55.903698 14.719195 -34.167026
55.932621 13.925161 -32.792244
42.937708 0.779227 -57.376739
44.138722 -0.327654 -57.045818
51.797598 -13.11542 -51.315708
50.859758 -11.488014 -52.110862
51.907749 -11.633388 -52.191272
52.626444 -14.724705 -50.517117
51.797598 -13.11542 -51.315708
65.145954 -59.708377 -4.082174
64.489494 -59.921308 -3.067569
64.861263 -60.981245 -3.166891
65.812027 -59.392862 -5.093688
65.440258 -58.332926 -4.994366
65.145954 -59.708377 -4.082174
63.148037 -1.472296 -31.905723
62.995148 -0.995916 -30.805929
60.596445 -2.25188 -47.363751
60.624308 -0.900991 -46.934013
61.502685 -2.742394 -46.214596
60.542084 -3.660025 -47.76585
59.663705 -1.818621 -48.485267
60.596445 -2.25188 -47.363751
57.231335 -25.008993 -45.65464
57.400948 -27.066066 -44.673595
57.958637 -50.032562 1.26593
58.220331 -48.998178 0.72599
58.057798 -49.320764 1.716209
62.486653 -32.844487 -7.671538
62.877167 -33.597109 -6.742946
61.712955 -33.442417 -8.381004
62.229271 -32.134812 -8.632964
62.486653 -32.844487 -7.671538
68.217006 -45.090534 -15.733788
67.413437 -44.157291 -15.475701
67.607181 -45.765594 -14.763119
68.709171 -44.461984 -16.715143
68.217006 -45.090534 -15.733788
39.827129 17.309442 -35.484905
40.637542 16.964035 -35.204605
39.67033 17.29186 -36.884003
39.827129 17.309442 -35.484905
33.177177 13.004423 -52.438099
33.509626 13.053465 -53.427605
34.637846 10.105172 -56.517853
34.864027 11.373429 -56.226391
35.428232 9.643991 -57.024365
34.637846 10.105172 -56.517853
62.300123 5.059762 -28.294207
62.04469 6.101807 -28.230372
63.238214 -0.158512 -40.461536
62.976862 0.688547 -39.757606
63.400447 -1.10716 -41.139705
62.72019 0.624018 -41.662407
63.238214 -0.158512 -40.461536
59.74781 -28.992757 -43.496692
60.421051 -27.423735 -43.943084
59.063316 -30.50777 -42.912384
59.00309 -28.339464 -43.935527
59.74781 -28.992757 -43.496692
60.744158 -41.0325 -2.96913
61.330141 -39.870224 -3.410049
46.006956 17.515057 -39.151116
45.260365 17.09148 -38.376091
46.201505 16.76471 -37.672562
50.349152 16.084587 -36.404629
49.510269 16.678058 -37.31617
52.798501 16.11294 -36.064014
52.839756 15.149677 -34.681221
53.603909 15.383296 -34.97408
63.512306 -25.093853 -11.25057
63.026226 -26.44946 -11.135984
63.181686 -24.206149 -12.229342
63.512306 -25.093853 -11.25057
62.545097 -24.755736 -13.130529
62.992096 -23.346441 -13.249657
63.181686 -24.206149 -12.229342
60.620901 -38.031681 -6.393871
61.276796 -37.384844 -5.798237
60.871952 -38.667784 -5.411905
66.866642 -32.996876 -21.014875
66.549774 -31.375203 -21.533662
65.941555 -32.200566 -20.58375
33.390934 16.182776 -36.657154
32.834343 16.688098 -35.503723
35.394523 16.246257 -40.841351
35.776771 16.537132 -39.644146
36.169308 16.620148 -40.995018
33.354339 14.498674 -39.902519
33.974542 15.17795 -40.297817
33.705854 14.476551 -41.265781
32.753818 13.938494 -39.526329
33.022507 14.639893 -38.558365
33.354339 14.498674 -39.902519
32.574424 13.059014 -40.377277
32.242592 13.200233 -39.033123
32.753818 13.938494 -39.526329
32.464382 12.135257 -47.667259
32.536364 12.384573 -48.967972
38.284575 7.60086 -57.979237
37.265226 8.394232 -57.753212
38.359631 9.017878 -57.890194
60.068203 -56.212883 0.353568
59.406762 -56.216234 1.311823
60.000316 -57.20714 1.174209
62.301184 -60.340372 -0.058827
61.559024 -60.330723 0.941946
67.42263 -58.297973 -8.16575
66.962807 -58.681548 -7.134152
68.058926 -53.64854 -10.815306
67.892215 -55.233237 -9.946479
68.047398 -52.100212 -11.653585
67.539207 -52.626014 -10.638568
68.058926 -53.64854 -10.815306
68.068851 -50.496946 -12.478039
68.047398 -52.100212 -11.653585
59.262592 11.334081 -30.599291
59.810204 10.855104 -30.665025
58.633141 12.344541 -31.88616
59.262592 11.334081 -30.599291
58.54802 12.876584 -33.290734
57.957543 13.317256 -33.19312
58.633141 12.344541 -31.88616
64.098545 -15.686566 -15.729592
63.733009 -17.096224 -15.695107
64.177346 -5.722105 -20.554011
64.039914 -7.060307 -20.57954
63.921044 -4.569195 -21.815162
64.177346 -5.722105 -20.554011
64.3023 -10.84551 -29.078282
64.611187 -12.556864 -28.607132
63.344967 -9.17773 -26.341724
63.546768 -9.697256 -27.346239
63.259758 -8.66336 -25.312315
63.299358 -10.28904 -25.076245
63.344967 -9.17773 -26.341724
63.339863 -7.100509 -25.438289
63.294254 -8.211818 -24.172809
63.259758 -8.66336 -25.312315
63.326828 -2.515283 -25.719263
63.369896 -4.02461 -25.646258
63.332477 -1.126948 -25.713108
63.497815 -2.272559 -24.401001
63.326828 -2.515283 -25.719263
63.075924 0.029919 -27.035811
63.24691 0.272643 -25.717548
63.332477 -1.126948 -25.713108
62.688439 1.752229 -35.761265
62.881897 0.710032 -34.489685
63.073548 0.152507 -35.526554
57.440575 -7.005149 -51.462024
58.408066 -7.373261 -50.595012
58.350571 -8.889816 -50.637962
58.690212 -20.543083 -47.554958
59.084419 -18.997645 -47.977879
59.555706 -21.044779 -46.981339
54.654875 -20.054983 -47.893799
54.059404 -18.193702 -48.809425
55.007962 -18.618243 -48.755707
57.670948 -52.007603 2.364278
57.841484 -51.061916 1.8591
57.625568 -51.300835 2.761327
62.300677 -34.846873 -6.465192
62.877167 -33.597109 -6.742946
67.834164 -47.328287 -14.035652
67.607181 -45.765594 -14.763119
67.030594 -46.395044 -13.777565
41.388179 16.89018 -36.324589
40.637542 16.964035 -35.204605
41.49493 16.69169 -34.861492
33.965172 13.027434 -54.318672
33.509626 13.053465 -53.427605
34.365175 14.034278 -53.730339
34.486528 12.877669 -55.120018
33.965172 13.027434 -54.318672
35.119238 12.619849 -55.818337
34.486528 12.877669 -55.120018
35.45343 13.750427 -55.319726
35.830929 12.246187 -56.426098
34.864027 11.373429 -56.226391
35.119238 12.619849 -55.818337
59.795406 -43.376779 -2.006927
60.318432 -42.234634 -2.497841
60.434906 -42.739729 -1.456244
67.025021 -26.255189 -24.528635
66.500065 -27.138041 -23.562361
67.349052 -27.938349 -24.005781
67.53109 -25.316698 -25.530241
66.682102 -24.516391 -25.086821
67.025021 -26.255189 -24.528635
54.42173 14.611092 -33.798633
55.151281 13.77655 -32.661341
54.380474 15.574355 -35.181427
53.603909 15.383296 -34.97408
54.42173 14.611092 -33.798633
62.83485 -28.646703 -9.98805
63.208027 -29.464588 -9.05378
62.601863 -27.863948 -10.962217
62.83485 -28.646703 -9.98805
62.118949 -29.227175 -10.788513
62.310325 -27.029932 -11.936447
63.026226 -26.44946 -11.135984
62.601863 -27.863948 -10.962217
68.075489 -39.54608 -18.704111
68.299099 -41.20126 -18.063496
33.319895 13.899615 -42.27499
33.705854 14.476551 -41.265781
33.940098 14.57889 -42.670288
33.01939 13.147652 -43.180138
33.319895 13.899615 -42.27499
32.614311 12.471585 -44.095619
33.01939 13.147652 -43.180138
33.149059 13.325885 -44.594978
32.303455 11.64957 -44.920048
32.614311 12.471585 -44.095619
42.863037 2.255775 -57.746193
42.815455 3.719926 -57.956909
44.014857 2.60815 -57.726715
41.738306 1.891004 -57.606933
42.863037 2.255775 -57.746193
42.937708 0.779227 -57.376739
49.890152 -9.995598 -52.850643
49.914741 -8.506391 -53.696968
49.890152 -9.995598 -52.850643
50.859758 -11.488014 -52.110862
60.514705 -58.23415 1.099541
60.000316 -57.20714 1.174209
63.766166 -60.134144 -2.062779
63.048905 -60.237547 -1.054876
63.487541 -61.297579 -1.144381
60.829739 9.033744 -29.421049
61.338887 7.924839 -28.101584
60.307057 10.113319 -30.757566
60.829739 9.033744 -29.421049
60.740005 9.340722 -30.832338
59.720471 11.162082 -32.076314
59.810204 10.855104 -30.665025
60.307057 10.113319 -30.757566
63.731041 -13.62463 -18.025654
63.853134 -14.646956 -16.859581
63.407776 -15.083368 -17.972689
63.990879 -12.123462 -18.100493
63.731041 -13.62463 -18.025654
63.545521 -12.559875 -19.2136
64.257801 -10.726671 -18.104893
63.990879 -12.123462 -18.100493
64.022599 -9.621185 -19.308134
64.257801 -10.726671 -18.104893
63.893033 -8.530406 -20.5432
64.022599 -9.621185 -19.308134
63.675793 -9.967928 -20.523505
63.693108 -7.407049 -21.794911
64.039914 -7.060307 -20.57954
63.893033 -8.530406 -20.5432
62.952434 -0.602419 -29.589245
62.979427 -0.227838 -28.356493
62.840076 0.5205 -30.8983
62.952434 -0.602419 -29.589245
62.995148 -0.995916 -30.805929
58.239666 -10.436723 -50.628254
58.350571 -8.889816 -50.637962
58.148309 -11.955414 -50.473423
57.291724 -10.040396 -51.350143
58.239666 -10.436723 -50.628254
57.976607 -13.499686 -50.273705
58.148309 -11.955414 -50.473423
57.817307 -15.008616 -49.905537
57.041067 -13.068017 -50.827145
57.976607 -13.499686 -50.273705
56.905354 -22.953305 -46.654465
57.762894 -23.550776 -46.380752
57.231335 -25.008993 -45.65464
55.988613 -22.445523 -46.884216
56.520173 -20.987306 -47.610329
56.905354 -22.953305 -46.654465
55.094447 -21.891325 -47.006633
55.988613 -22.445523 -46.884216
58.004017 -50.73933 0.868881
57.958637 -50.032562 1.26593
57.841484 -51.061916 1.8591
62.677452 -30.773406 -8.868922
63.208027 -29.464588 -9.05378
61.903755 -31.371336 -9.578388
62.677452 -30.773406 -8.868922
62.229271 -32.134812 -8.632964
68.559784 -42.808644 -17.40934
68.299099 -41.20126 -18.063496
67.762577 -41.874848 -17.100527
68.559784 -42.808644 -17.40934
68.709171 -44.461984 -16.715143
32.710012 12.653022 -50.202866
32.536364 12.384573 -48.967972
33.149231 13.470987 -49.454941
32.883803 12.843986 -51.363381
33.616255 13.899873 -51.764554
33.177177 13.004423 -52.438099
32.710012 12.653022 -50.202866
32.883803 12.843986 -51.363381
45.343382 -1.567583 -56.656597
44.138722 -0.327654 -57.045818
45.2671 -0.09593 -57.126778
46.528765 -2.803645 -56.177986
45.343382 -1.567583 -56.656597
47.706164 -4.171793 -55.64618
46.528765 -2.803645 -56.177986
47.649158 -2.704007 -56.205749
48.843065 -5.539477 -55.040726
47.706164 -4.171793 -55.64618
49.961084 -7.037565 -54.384739
48.843065 -5.539477 -55.040726
49.944576 -5.570241 -55.017956
51.016253 -8.537156 -53.674198
49.914741 -8.506391 -53.696968
49.961084 -7.037565 -54.384739
63.752483 -62.361683 -1.216374
63.487541 -61.297579 -1.144381
64.391235 -62.260567 -2.23679
63.752483 -62.361683 -1.216374
63.938915 -63.428074 -1.300879
64.861263 -60.981245 -3.166891
64.391235 -62.260567 -2.23679
61.713952 7.132569 -28.161398
61.338887 7.924839 -28.101584
61.593426 7.230384 -29.564794
61.713952 7.132569 -28.161398
62.04469 6.101807 -28.230372
63.538395 -19.531242 -14.500638
63.819931 -20.494947 -13.450675
63.392117 -18.589456 -15.590182
63.538395 -19.531242 -14.500638
62.994361 -20.033944 -15.507221
63.188976 -17.598926 -16.701691
63.733009 -17.096224 -15.695107
63.392117 -18.589456 -15.590182
65.481079 -14.90616 -28.817957
66.11998 -15.616135 -29.406216
63.378456 -0.471018 -36.428055
63.073548 0.152507 -35.526554
63.137928 0.499566 -37.664554
63.378456 -0.471018 -36.428055
62.792665 1.470943 -38.923969
62.534826 2.166081 -38.057548
63.137928 0.499566 -37.664554
62.373761 2.355061 -40.1506
62.792665 1.470943 -38.923969
62.976862 0.688547 -39.757606
63.607135 -2.119235 -41.705379
63.400447 -1.10716 -41.139705
62.985443 -1.441113 -42.888866
63.607135 -2.119235 -41.705379
62.289383 -0.761742 -44.078819
62.186363 0.354742 -43.530529
62.985443 -1.441113 -42.888866
62.309506 -1.97455 -44.611008
61.510425 -0.178696 -45.25267
62.289383 -0.761742 -44.078819
62.337834 -3.24816 -45.0569
62.309506 -1.97455 -44.611008
61.502685 -2.742394 -46.214596
62.337834 -3.24816 -45.0569
59.957393 -23.147541 -45.976791
59.555706 -21.044779 -46.981339
60.220436 -25.264658 -44.9575
60.421051 -27.423735 -43.943084
59.424542 -24.707334 -45.539127
59.957393 -23.147541 -45.976791
60.220436 -25.264658 -44.9575
58.203736 -27.73047 -44.366073
58.88823 -26.215457 -44.950382
59.00309 -28.339464 -43.935527
57.400948 -27.066066 -44.673595
58.203736 -27.73047 -44.366073
61.029116 -39.244181 -4.403685
61.330141 -39.870224 -3.410049
60.373221 -39.891018 -4.99932
60.871952 -38.667784 -5.411905
61.029116 -39.244181 -4.403685
60.104658 -41.66955 -3.519811
60.744158 -41.0325 -2.96913
60.318432 -42.234634 -2.497841
31.558948 15.991451 -35.02367
30.927946 15.668308 -34.805976
44.568918 16.695463 -37.473122
43.797337 16.425991 -36.553185
44.374369 17.44581 -38.951676
44.568918 16.695463 -37.473122
45.260365 17.09148 -38.376091
67.939053 -24.447275 -26.50046
67.53109 -25.316698 -25.530241
67.58395 -22.651085 -27.097552
67.939053 -24.447275 -26.50046
67.236233 -20.91237 -27.654761
66.840454 -21.839185 -26.645636
67.58395 -22.651085 -27.097552
66.856511 -19.124659 -28.259741
67.236233 -20.91237 -27.654761
66.514634 -17.390293 -28.807099
66.15086 -18.366104 -27.750203
66.856511 -19.124659 -28.259741
66.11998 -15.616135 -29.406216
66.514634 -17.390293 -28.807099
47.045583 16.278929 -36.982208
46.201505 16.76471 -37.672562
47.843795 16.720944 -37.629193
47.045583 16.278929 -36.982208
48.570023 17.156847 -38.255909
47.674324 17.624189 -39.074303
47.843795 16.720944 -37.629193
49.340798 17.581305 -38.76128
48.570023 17.156847 -38.255909
49.510269 16.678058 -37.31617
52.000489 14.767006 -34.394573
52.839756 15.149677 -34.681221
51.225803 15.47299 -35.379436
52.000489 14.767006 -34.394573
51.157696 16.490919 -36.796349
50.349152 16.084587 -36.404629
51.225803 15.47299 -35.379436
63.384662 -21.886291 -13.383074
63.819931 -20.494947 -13.450675
62.748074 -22.435879 -14.28426
63.384662 -21.886291 -13.383074
62.992096 -23.346441 -13.249657
61.828381 -36.145197 -6.145505
61.276796 -37.384844 -5.798237
61.498041 -35.450417 -7.09989
62.300677 -34.846873 -6.465192
61.828381 -36.145197 -6.145505
67.149479 -30.496357 -22.502147
66.224392 -29.700046 -22.071022
66.549774 -31.375203 -21.533662
67.674435 -29.673123 -23.44644
67.149479 -30.496357 -22.502147
67.773548 -37.937216 -19.304493
67.199951 -38.6586 -18.355064
68.075489 -39.54608 -18.704111
67.496708 -36.27746 -19.899576
67.773548 -37.937216 -19.304493
67.176914 -34.663712 -20.454334
66.578216 -35.435988 -19.510204
67.496708 -36.27746 -19.899576
66.866642 -32.996876 -21.014875
67.176914 -34.663712 -20.454334
60.679338 -43.305718 -0.414373
60.434906 -42.739729 -1.456244
60.068977 -44.392651 0.091136
60.679338 -43.305718 -0.414373
59.626228 -45.510216 0.617663
59.469131 -44.999439 -0.438804
60.068977 -44.392651 0.091136
59.093716 -46.576763 1.141784
59.626228 -45.510216 0.617663
58.74027 -47.661451 1.686057
58.672937 -47.201693 0.631996
59.093716 -46.576763 1.141784
58.303739 -48.699641 2.20464
58.74027 -47.661451 1.686057
58.057798 -49.320764 1.716209
58.303739 -48.699641 2.20464
57.545155 -51.673817 3.731823
57.625568 -51.300835 2.761327
57.715691 -50.72813 3.226646
57.34505 -52.600886 4.131339
57.545155 -51.673817 3.731823
57.380035 -52.993871 3.671864
57.34505 -52.600886 4.131339
32.164845 16.428371 -35.33778
32.834343 16.688098 -35.503723
32.114879 15.378288 -36.099922
31.558948 15.991451 -35.02367
32.164845 16.428371 -35.33778
42.964244 16.833815 -37.015091
43.797337 16.425991 -36.553185
42.052719 17.044275 -37.45861
42.964244 16.833815 -37.015091
42.771396 17.260254 -38.492226
41.195331 17.31662 -37.801723
41.388179 16.89018 -36.324589
42.052719 17.044275 -37.45861
39.41959 17.504234 -38.315556
39.67033 17.29186 -36.884003
40.280052 17.374899 -38.099255
38.526133 17.408691 -38.459114
39.41959 17.504234 -38.315556
39.135854 17.49173 -39.674366
37.686228 17.394316 -38.546195
38.526133 17.408691 -38.459114
36.840807 17.151733 -38.53614
37.686228 17.394316 -38.546195
37.396976 17.153605 -39.807868
36.043762 17.001249 -38.498706
36.840807 17.151733 -38.53614
36.043762 17.001249 -38.498706
35.776771 16.537132 -39.644146
34.664022 15.659534 -40.575779
35.394523 16.246257 -40.841351
35.056558 15.74255 -41.926651
34.312507 15.681658 -39.212517
34.664022 15.659534 -40.575779
33.974542 15.17795 -40.297817
33.84206 15.875208 -37.917416
34.312507 15.681658 -39.212517
33.171902 15.507641 -37.674294
33.390934 16.182776 -36.657154
33.84206 15.875208 -37.917416
31.9021 13.472307 -37.736195
31.445598 13.903135 -36.538014
31.965484 14.51054 -36.983993
31.722706 12.592828 -38.587143
31.9021 13.472307 -37.736195
32.242592 13.200233 -39.033123
31.64669 11.55696 -39.324783
31.722706 12.592828 -38.587143
32.27392 12.307053 -41.282425
32.574424 13.059014 -40.377277
31.865239 11.412681 -40.688934
32.27392 12.307053 -41.282425
31.64669 11.55696 -39.324783
31.865239 11.412681 -40.688934
32.348581 11.858897 -46.312466
32.859781 12.926178 -46.865254
32.464382 12.135257 -47.667259
32.303455 11.64957 -44.920048
32.348581 11.858897 -46.312466
36.310514 9.049732 -57.439373
35.428232 9.643991 -57.024365
36.458 10.405508 -57.249161
36.310514 9.049732 -57.439373
37.265226 8.394232 -57.753212
41.638651 4.831475 -58.08923
42.79047 5.183848 -58.069751
42.815455 3.719926 -57.956909
40.480021 5.808769 -58.146923
41.638651 4.831475 -58.08923
39.362677 6.773323 -58.103997
40.496323 7.259951 -58.159146
40.480021 5.808769 -58.146923
38.284575 7.60086 -57.979237
39.362677 6.773323 -58.103997
57.669725 -54.390739 3.341495
57.521572 -53.674758 3.369678
58.070133 -54.450045 2.502164
57.669725 -54.390739 3.341495
58.445542 -54.342245 1.614493
58.113514 -53.500495 1.774461
58.070133 -54.450045 2.502164
58.938405 -55.256886 1.416689
59.406762 -56.216234 1.311823
58.981785 -54.307337 0.688986
58.445542 -54.342245 1.614493
58.938405 -55.256886 1.416689
61.09987 -59.272137 1.000976
61.559024 -60.330723 0.941946
61.246923 -58.241776 0.117389
60.514705 -58.23415 1.099541
61.09987 -59.272137 1.000976
62.579809 -59.176937 -0.977225
62.301184 -60.340372 -0.058827
63.048905 -60.237547 -1.054876
66.379944 -59.083057 -6.116048
65.812027 -59.392862 -5.093688
66.689194 -57.6159 -7.023985
66.379944 -59.083057 -6.116048
66.962807 -58.681548 -7.134152
67.752876 -56.75326 -9.067379
67.42263 -58.297973 -8.16575
67.411396 -55.694367 -8.921189
67.752876 -56.75326 -9.067379
67.892215 -55.233237 -9.946479
67.933799 -48.936971 -13.264665
67.392628 -49.517712 -12.263472
68.068851 -50.496946 -12.478039
67.834164 -47.328287 -14.035652
67.933799 -48.936971 -13.264665
57.325882 13.710726 -33.058309
56.638023 13.842205 -32.95329
57.240761 14.242769 -34.462883
57.325882 13.710726 -33.058309
57.957543 13.317256 -33.19312
64.098545 -15.686566 -15.729592
63.853134 -14.646956 -16.859581
64.824448 -14.24295 -28.185917
65.152352 -15.968528 -27.66552
65.481079 -14.90616 -28.817957
64.28246 -13.619233 -27.454695
64.824448 -14.24295 -28.185917
64.611187 -12.556864 -28.607132
63.889084 -10.262124 -28.231367
64.3023 -10.84551 -29.078282
63.726883 -11.368278 -26.990782
63.889084 -10.262124 -28.231367
63.546768 -9.697256 -27.346239
63.310993 -5.518646 -25.592072
63.339863 -7.100509 -25.438289
63.433262 -5.15493 -24.35297
63.310993 -5.518646 -25.592072
63.369896 -4.02461 -25.646258
63.747132 -3.431167 -23.103115
63.921044 -4.569195 -21.815162
63.666077 -4.798922 -23.119204
63.747132 -3.431167 -23.103115
63.497815 -2.272559 -24.401001
63.167533 1.511583 -25.671584
63.24691 0.272643 -25.717548
62.833219 2.674707 -26.997448
63.167533 1.511583 -25.671584
62.893859 1.171753 -28.360934
63.075924 0.029919 -27.035811
62.979427 -0.227838 -28.356493
62.547956 3.818554 -28.333754
62.833219 2.674707 -26.997448
62.705093 2.573358 -28.376556
62.171997 4.958413 -29.673315
62.300123 5.059762 -28.294207
62.547956 3.818554 -28.333754
63.074898 -0.381344 -33.184978
63.148037 -1.472296 -31.905723
62.689789 1.218378 -33.41969
63.074898 -0.381344 -33.184978
62.881897 0.710032 -34.489685
60.475696 -5.1174 -48.101104
60.542084 -3.660025 -47.76585
59.543497 -4.712467 -49.175365
60.475696 -5.1174 -48.101104
58.53833 -4.348461 -50.228798
58.604177 -2.86276 -49.940799
59.543497 -4.712467 -49.175365
58.48786 -5.843381 -50.44122
58.408066 -7.373261 -50.595012
57.54854 -3.993673 -51.206654
58.53833 -4.348461 -50.228798
58.48786 -5.843381 -50.44122
58.485885 -16.968117 -48.951797
59.084419 -18.997645 -47.977879
57.550346 -16.536448 -49.505237
57.817307 -15.008616 -49.905537
58.485885 -16.968117 -48.951797
53.409895 -16.472789 -49.654724
52.626444 -14.724705 -50.517117
53.62904 -15.008878 -50.533726
53.056809 -17.909529 -48.792816
53.409895 -16.472789 -49.654724
54.059404 -18.193702 -48.809425
54.14589 -21.466784 -47.060352
54.654875 -20.054983 -47.893799
55.094447 -21.891325 -47.006633
3 370 94 371
3 372 371 92
3 370 371 372
3 0 97 95
3 0 99 97
3 2 102 100
3 2 104 102
3 3 373 374
3 3 375 376
3 4 107 105
3 4 109 107
3 4 110 109
3 5 113 111
3 5 115 113
3 1 118 116
3 6 121 119
3 8 124 122
3 8 126 124
3 9 129 127
3 11 132 130
3 11 134 132
3 11 136 134
3 13 139 137
3 13 141 139
3 378 377 142
3 379 144 380
3 381 146 382
3 383 382 144
3 381 382 383
3 15 148 147
3 15 150 148
3 7 153 151
3 16 156 154
3 16 158 156
3 16 160 158
3 10 163 161
3 17 166 164
3 17 168 166
3 17 169 168
3 12 172 170
3 385 384 173
3 18 386 388
3 388 387 174
3 386 387 388
3 18 389 390
3 391 177 392
3 393 392 175
3 391 392 393
3 394 179 395
3 396 395 177
3 394 395 396
3 19 181 180
3 19 183 181
3 20 185 184
3 20 186 185
3 14 189 187
3 397 191 398
3 21 194 192
3 21 196 194
3 21 198 196
3 399 201 400
3 401 400 199
3 399 400 401
3 402 203 403
3 404 403 201
3 402 403 404
3 406 405 205
3 407 209 408
3 409 408 207
3 407 408 409
3 23 210 93
3 23 211 210
3 24 214 212
3 26 215 96
3 26 216 215
3 26 218 216
3 28 219 98
3 28 220 219
3 29 410 411
3 29 412 414
3 412 221 413
3 412 413 414
3 30 224 222
3 32 225 101
3 32 226 225
3 32 228 226
3 415 229 416
3 417 416 103
3 415 416 417
3 419 418 229
3 34 420 421
3 34 422 423
3 35 232 230
3 37 233 106
3 37 234 233
3 37 236 234
3 425 424 108
3 38 426 427
3 38 428 429
3 39 239 237
3 41 240 112
3 41 241 240
3 41 242 241
3 42 243 114
3 42 244 243
3 430 245 431
3 43 247 246
3 45 248 117
3 45 249 248
3 432 250 433
3 434 252 435
3 436 435 250
3 434 435 436
3 437 253 438
3 441 440 253
3 439 440 441
3 442 254 443
3 50 255 120
3 50 256 255
3 22 257 208
3 51 258 123
3 51 259 258
3 51 260 259
3 52 261 125
3 52 262 261
3 53 444 446
3 444 264 445
3 444 445 446
3 55 265 128
3 55 266 265
3 25 267 213
3 56 268 131
3 56 269 268
3 56 270 269
3 57 271 133
3 57 272 271
3 57 274 272
3 59 275 135
3 59 276 275
3 27 277 217
3 60 278 138
3 60 279 278
3 60 280 279
3 61 281 140
3 61 282 281
3 62 285 283
3 64 286 143
3 64 287 286
3 447 288 448
3 65 449 451
3 449 289 450
3 449 450 451
3 65 290 289
3 65 291 290
3 66 292 145
3 66 293 292
3 67 452 453
3 67 454 455
3 67 456 458
3 456 294 457
3 456 457 458
3 68 295 149
3 68 296 295
3 49 459 461
3 459 297 460
3 459 460 461
3 69 298 152
3 69 299 298
3 31 300 223
3 70 301 155
3 70 302 301
3 70 303 302
3 71 304 157
3 71 305 304
3 71 306 305
3 72 307 159
3 72 462 464
3 464 463 307
3 462 463 464
3 33 308 227
3 465 309 466
3 54 310 263
3 73 311 162
3 73 312 311
3 36 313 231
3 74 314 165
3 74 315 314
3 74 467 469
3 469 468 315
3 467 468 469
3 470 316 471
3 472 471 167
3 470 471 472
3 473 317 474
3 475 474 316
3 473 474 475
3 476 318 477
3 478 477 317
3 476 477 478
3 480 479 235
3 58 319 273
3 75 320 171
3 75 481 483
3 483 482 320
3 481 482 483
3 40 321 238
3 76 484 486
3 484 322 485
3 484 485 486
3 76 323 322
3 487 324 488
3 77 325 176
3 77 326 325
3 77 327 326
3 78 328 178
3 78 329 328
3 489 330 490
3 491 331 492
3 493 332 494
3 495 494 331
3 493 494 495
3 497 496 332
3 79 498 499
3 79 500 501
3 79 502 504
3 502 333 503
3 502 503 504
3 80 334 182
3 80 335 334
3 44 505 506
3 81 507 508
3 81 509 510
3 63 336 284
3 82 337 188
3 82 338 337
3 511 339 512
3 513 340 514
3 515 341 516
3 517 516 340
3 515 516 517
3 518 342 519
3 520 519 341
3 518 519 520
3 521 343 522
3 525 524 343
3 523 524 525
3 526 344 527
3 526 527 528
3 83 345 190
3 83 346 345
3 46 529 531
3 529 347 530
3 529 530 531
3 84 348 193
3 84 349 348
3 84 350 349
3 85 351 195
3 85 352 351
3 85 353 352
3 86 354 197
3 86 355 354
3 47 356 251
3 87 357 200
3 87 358 357
3 87 359 358
3 88 360 202
3 88 361 360
3 89 532 534
3 532 362 533
3 532 533 534
3 89 363 362
3 89 364 363
3 90 365 204
3 90 366 365
3 48 535 537
3 535 367 536
3 535 536 537
3 91 368 206
3 91 369 368
3 91 538 540
3 540 539 369
3 538 539 540
3 92 541 543
3 541 93 542
3 541 542 543
3 94 93 92
3 94 23 93
3 95 96 24
3 97 96 95
3 97 26 96
3 97 98 26
3 99 98 97
3 99 28 98
3 544 29 545
3 100 101 30
3 102 101 100
3 102 32 101
3 102 103 32
3 104 103 102
3 104 546 548
3 548 547 103
3 546 547 548
3 549 34 550
3 549 550 551
3 105 106 35
3 107 106 105
3 107 37 106
3 107 108 37
3 109 108 107
3 109 552 554
3 554 553 108
3 552 553 554
3 109 555 556
3 110 557 559
3 559 558 109
3 557 558 559
3 110 560 562
3 560 38 561
3 560 561 562
3 111 112 39
3 113 112 111
3 113 41 112
3 113 114 41
3 115 114 113
3 115 42 114
3 116 117 43
3 118 117 116
3 118 45 117
3 119 563 565
3 563 120 564
3 563 564 565
3 121 120 119
3 121 50 120
3 122 123 22
3 124 123 122
3 124 51 123
3 124 125 51
3 126 125 124
3 126 52 125
3 127 128 53
3 129 128 127
3 129 55 128
3 130 131 25
3 132 131 130
3 132 56 131
3 132 133 56
3 134 133 132
3 134 57 133
3 134 135 57
3 136 135 134
3 136 59 135
3 137 138 27
3 139 138 137
3 139 60 138
3 139 140 60
3 141 140 139
3 141 61 140
3 142 143 62
3 566 143 567
3 568 567 142
3 566 567 568
3 569 64 570
3 571 570 143
3 569 570 571
3 144 572 573
3 144 574 576
3 574 65 575
3 574 575 576
3 144 145 65
3 146 145 144
3 146 66 145
3 147 577 578
3 148 579 581
3 581 580 147
3 579 580 581
3 148 582 584
3 582 67 583
3 582 583 584
3 148 149 67
3 150 149 148
3 150 68 149
3 151 152 49
3 153 152 151
3 153 69 152
3 154 155 31
3 156 155 154
3 156 70 155
3 156 157 70
3 158 157 156
3 158 71 157
3 158 159 71
3 160 159 158
3 160 72 159
3 586 585 33
3 161 162 54
3 163 162 161
3 163 73 162
3 164 165 36
3 166 165 164
3 166 74 165
3 166 167 74
3 168 167 166
3 168 587 589
3 589 588 167
3 587 588 589
3 168 590 591
3 169 592 594
3 594 593 168
3 592 593 594
3 169 595 596
3 170 171 58
3 172 171 170
3 172 75 171
3 173 597 599
3 599 598 40
3 597 598 599
3 602 601 173
3 600 601 602
3 174 603 604
3 606 605 174
3 607 76 608
3 175 609 611
3 609 176 610
3 609 610 611
3 177 176 175
3 177 77 176
3 177 178 77
3 179 178 177
3 179 78 178
3 180 612 613
3 181 614 616
3 616 615 180
3 614 615 616
3 181 617 619
3 617 79 618
3 617 618 619
3 181 182 79
3 183 182 181
3 183 80 182
3 184 620 622
3 622 621 44
3 620 621 622
3 185 623 625
3 625 624 184
3 623 624 625
3 185 626 627
3 185 628 629
3 186 630 632
3 632 631 185
3 630 631 632
3 186 633 635
3 633 81 634
3 633 634 635
3 187 188 63
3 189 188 187
3 189 82 188
3 636 190 637
3 191 638 640
3 638 190 639
3 638 639 640
3 191 83 190
3 192 193 46
3 194 193 192
3 194 84 193
3 194 195 84
3 196 195 194
3 196 85 195
3 196 197 85
3 198 197 196
3 198 86 197
3 199 200 47
3 201 200 199
3 201 87 200
3 201 202 87
3 203 202 201
3 203 88 202
3 641 89 642
3 643 204 644
3 645 644 89
3 643 644 645
3 646 204 647
3 648 90 649
3 650 649 204
3 648 649 650
3 205 206 48
3 651 206 652
3 653 652 205
3 651 652 653
3 654 91 655
3 656 655 206
3 654 655 656
3 658 657 91
3 207 208 6
3 209 208 207
3 209 22 208
3 93 659 661
3 659 209 660
3 659 660 661
3 210 209 93
3 210 22 209
3 210 122 22
3 211 122 210
3 211 8 122
3 212 213 9
3 214 213 212
3 214 25 213
3 96 214 24
3 215 214 96
3 215 25 214
3 215 130 25
3 216 130 215
3 216 11 130
3 216 217 11
3 218 217 216
3 218 27 217
3 98 218 26
3 219 218 98
3 219 27 218
3 219 137 27
3 220 137 219
3 220 13 137
3 662 147 663
3 221 664 666
3 664 147 665
3 664 665 666
3 221 15 147
3 222 223 7
3 224 223 222
3 224 31 223
3 101 224 30
3 225 224 101
3 225 31 224
3 225 154 31
3 226 154 225
3 226 16 154
3 226 227 16
3 228 227 226
3 228 33 227
3 103 228 32
3 229 228 103
3 229 33 228
3 229 667 669
3 669 668 33
3 667 668 669
3 671 670 229
3 230 231 10
3 232 231 230
3 232 36 231
3 106 232 35
3 233 232 106
3 233 36 232
3 233 164 36
3 234 164 233
3 234 17 164
3 234 235 17
3 236 235 234
3 236 672 674
3 674 673 235
3 672 673 674
3 108 236 37
3 675 236 676
3 677 676 108
3 675 676 677
3 679 678 236
3 237 238 12
3 239 238 237
3 239 40 238
3 112 239 39
3 240 239 112
3 240 40 239
3 240 173 40
3 241 173 240
3 241 680 682
3 682 681 173
3 680 681 682
3 241 683 684
3 242 685 687
3 687 686 241
3 685 686 687
3 242 688 689
3 114 242 41
3 243 242 114
3 243 690 692
3 692 691 242
3 690 691 692
3 243 693 695
3 693 174 694
3 693 694 695
3 244 174 243
3 244 18 174
3 696 175 697
3 698 175 699
3 698 699 700
3 702 701 175
3 703 180 704
3 245 705 707
3 705 180 706
3 705 706 707
3 245 19 180
3 246 708 709
3 247 710 712
3 712 711 246
3 710 711 712
3 247 713 715
3 713 44 714
3 713 714 715
3 117 247 43
3 248 247 117
3 248 44 247
3 248 184 44
3 249 184 248
3 249 20 184
3 717 716 14
3 718 46 719
3 720 46 721
3 722 192 723
3 724 723 46
3 722 723 724
3 250 725 727
3 725 192 726
3 725 726 727
3 250 21 192
3 250 251 21
3 252 251 250
3 252 47 251
3 728 252 729
3 730 252 731
3 732 47 733
3 734 733 252
3 732 733 734
3 735 199 736
3 737 736 47
3 735 736 737
3 738 199 739
3 741 740 199
3 742 48 743
3 253 744 745
3 253 746 748
3 746 48 747
3 746 747 748
3 253 205 48
3 749 205 750
3 751 750 253
3 749 750 751
3 753 752 205
3 254 754 755
3 254 756 758
3 756 49 757
3 756 757 758
3 120 759 761
3 759 254 760
3 759 760 761
3 255 254 120
3 255 49 254
3 255 151 49
3 256 151 255
3 256 7 151
3 208 121 6
3 257 121 208
3 257 50 121
3 123 257 22
3 258 257 123
3 258 50 257
3 258 256 50
3 259 256 258
3 259 7 256
3 259 222 7
3 260 222 259
3 260 30 222
3 125 260 51
3 261 260 125
3 261 30 260
3 261 100 30
3 262 100 261
3 262 2 100
3 762 3 763
3 764 263 765
3 264 766 768
3 766 263 767
3 766 767 768
3 264 54 263
3 128 264 53
3 265 264 128
3 265 54 264
3 265 161 54
3 266 161 265
3 266 10 161
3 213 129 9
3 267 129 213
3 267 55 129
3 131 267 25
3 268 267 131
3 268 55 267
3 268 266 55
3 269 266 268
3 269 10 266
3 269 230 10
3 270 230 269
3 270 35 230
3 133 270 56
3 271 270 133
3 271 35 270
3 271 105 35
3 272 105 271
3 272 4 105
3 272 273 4
3 274 273 272
3 274 58 273
3 135 274 57
3 275 274 135
3 275 58 274
3 275 170 58
3 276 170 275
3 276 12 170
3 217 136 11
3 277 136 217
3 277 59 136
3 138 277 27
3 278 277 138
3 278 59 277
3 278 276 59
3 279 276 278
3 279 12 276
3 279 237 12
3 280 237 279
3 280 39 237
3 140 280 60
3 281 280 140
3 281 39 280
3 281 111 39
3 282 111 281
3 282 5 111
3 283 284 1
3 285 284 283
3 285 63 284
3 143 285 62
3 286 285 143
3 286 63 285
3 286 187 63
3 287 187 286
3 287 14 187
3 769 64 770
3 771 64 772
3 773 287 774
3 775 774 64
3 773 774 775
3 776 287 777
3 778 14 779
3 780 779 287
3 778 779 780
3 782 781 14
3 783 53 784
3 785 53 786
3 787 127 788
3 789 788 53
3 787 788 789
3 288 790 792
3 790 127 791
3 790 791 792
3 288 9 127
3 289 793 794
3 289 795 796
3 289 797 799
3 797 288 798
3 797 798 799
3 290 288 289
3 290 9 288
3 290 212 9
3 291 212 290
3 291 24 212
3 145 291 65
3 292 291 145
3 292 24 291
3 292 95 24
3 293 95 292
3 293 0 95
3 800 246 801
3 294 802 804
3 802 246 803
3 802 803 804
3 294 43 246
3 149 294 67
3 295 294 149
3 295 43 294
3 295 116 43
3 296 116 295
3 296 1 116
3 297 805 806
3 297 807 809
3 807 29 808
3 807 808 809
3 152 297 49
3 298 297 152
3 298 29 297
3 298 221 29
3 299 221 298
3 299 15 221
3 223 153 7
3 300 153 223
3 300 69 153
3 155 300 31
3 301 300 155
3 301 69 300
3 301 299 69
3 302 299 301
3 302 15 299
3 302 150 15
3 303 150 302
3 303 68 150
3 157 303 70
3 304 303 157
3 304 68 303
3 304 296 68
3 305 296 304
3 305 1 296
3 305 283 1
3 306 283 305
3 306 62 283
3 159 306 71
3 307 306 159
3 307 62 306
3 307 142 62
3 810 142 811
3 812 811 307
3 810 811 812
3 814 813 142
3 227 160 16
3 308 160 227
3 308 72 160
3 815 308 816
3 817 816 33
3 815 816 817
3 818 308 819
3 820 72 821
3 822 821 308
3 820 821 822
3 824 823 72
3 825 119 826
3 827 119 828
3 829 6 830
3 831 830 119
3 829 830 831
3 832 6 833
3 834 207 835
3 836 835 6
3 834 835 836
3 837 207 838
3 840 839 207
3 841 92 842
3 841 842 843
3 844 92 845
3 847 846 92
3 309 848 849
3 309 850 852
3 850 3 851
3 850 851 852
3 263 853 854
3 310 855 857
3 857 856 263
3 855 856 857
3 310 858 860
3 858 34 859
3 858 859 860
3 162 310 54
3 311 310 162
3 311 34 310
3 311 861 863
3 863 862 34
3 861 862 863
3 312 864 866
3 866 865 311
3 864 865 866
3 312 867 868
3 231 163 10
3 313 163 231
3 313 73 163
3 165 313 36
3 314 313 165
3 314 73 313
3 314 312 73
3 315 312 314
3 315 869 871
3 871 870 312
3 869 870 871
3 315 872 873
3 875 874 315
3 167 876 878
3 878 877 74
3 876 877 878
3 316 879 881
3 881 880 167
3 879 880 881
3 316 882 883
3 316 884 886
3 884 309 885
3 884 885 886
3 317 309 316
3 317 3 309
3 317 887 889
3 889 888 3
3 887 888 889
3 318 890 892
3 892 891 317
3 890 891 892
3 318 893 894
3 895 318 896
3 897 318 898
3 900 899 318
3 235 169 17
3 901 169 902
3 903 902 235
3 901 902 903
3 905 904 169
3 273 110 4
3 319 110 273
3 319 38 110
3 171 319 58
3 320 319 171
3 320 38 319
3 320 906 908
3 908 907 38
3 906 907 908
3 910 909 320
3 238 172 12
3 321 172 238
3 321 75 172
3 911 321 912
3 913 912 40
3 911 912 913
3 914 321 915
3 916 75 917
3 918 917 321
3 916 917 918
3 920 919 75
3 921 94 922
3 923 94 924
3 925 23 926
3 927 926 94
3 925 926 927
3 322 928 929
3 322 930 932
3 930 23 931
3 930 931 932
3 322 211 23
3 323 211 322
3 323 8 211
3 324 933 934
3 324 935 937
3 935 76 936
3 935 936 937
3 176 938 940
3 938 324 939
3 938 939 940
3 325 324 176
3 325 76 324
3 325 323 76
3 326 323 325
3 326 8 323
3 326 126 8
3 327 126 326
3 327 52 126
3 178 327 77
3 328 327 178
3 328 52 327
3 328 262 52
3 329 262 328
3 329 2 262
3 941 179 942
3 330 943 945
3 943 179 944
3 943 944 945
3 330 78 179
3 946 330 947
3 331 948 950
3 948 330 949
3 948 949 950
3 331 78 330
3 331 329 78
3 332 329 331
3 332 2 329
3 332 104 2
3 951 104 952
3 953 952 332
3 951 952 953
3 955 954 104
3 956 146 957
3 333 958 960
3 958 146 959
3 958 959 960
3 333 66 146
3 182 333 79
3 334 333 182
3 334 66 333
3 334 293 66
3 335 293 334
3 335 0 293
3 962 961 44
3 284 118 1
3 336 118 284
3 336 45 118
3 188 336 63
3 337 336 188
3 337 45 336
3 337 249 45
3 338 249 337
3 338 20 249
3 963 189 964
3 965 964 14
3 963 964 965
3 339 966 968
3 966 189 967
3 966 967 968
3 339 82 189
3 969 339 970
3 340 971 973
3 971 339 972
3 971 972 973
3 340 82 339
3 340 338 82
3 341 338 340
3 341 20 338
3 341 186 20
3 342 186 341
3 342 81 186
3 974 342 975
3 343 976 978
3 976 342 977
3 976 977 978
3 343 81 342
3 343 979 981
3 981 980 81
3 979 980 981
3 983 982 343
3 344 984 985
3 344 986 987
3 190 988 990
3 988 344 989
3 988 989 990
3 345 344 190
3 345 991 993
3 993 992 344
3 991 992 993
3 345 994 996
3 994 245 995
3 994 995 996
3 346 245 345
3 346 19 245
3 997 191 998
3 347 999 1001
3 999 191 1000
3 999 1000 1001
3 347 83 191
3 193 347 46
3 348 347 193
3 348 83 347
3 348 346 83
3 349 346 348
3 349 19 346
3 349 183 19
3 350 183 349
3 350 80 183
3 195 350 84
3 351 350 195
3 351 80 350
3 351 335 80
3 352 335 351
3 352 0 335
3 352 99 0
3 353 99 352
3 353 28 99
3 197 353 85
3 354 353 197
3 354 28 353
3 354 220 28
3 355 220 354
3 355 13 220
3 251 198 21
3 356 198 251
3 356 86 198
3 200 356 47
3 357 356 200
3 357 86 356
3 357 355 86
3 358 355 357
3 358 13 355
3 358 141 13
3 359 141 358
3 359 61 141
3 202 359 87
3 360 359 202
3 360 61 359
3 360 282 61
3 361 282 360
3 361 5 282
3 1002 203 1003
3 1004 203 1005
3 1006 88 1007
3 1008 1007 203
3 1006 1007 1008
3 362 1009 1010
3 362 1011 1013
3 1011 88 1012
3 1011 1012 1013
3 362 361 88
3 363 361 362
3 363 5 361
3 363 115 5
3 364 115 363
3 364 42 115
3 204 364 89
3 365 364 204
3 365 42 364
3 365 244 42
3 366 244 365
3 366 18 244
3 367 1014 1015
3 367 1016 1018
3 1016 90 1017
3 1016 1017 1018
3 206 367 48
3 368 367 206
3 368 90 367
3 368 366 90
3 369 366 368
3 369 18 366
3 369 1019 1021
3 1021 1020 18
3 1019 1020 1021
3 1024 1023 369
3 1022 1023 1024
3 1027 1026 91
3 1025 1026 1027
