ply
format ascii 1.0
element vertex 119
property float x
property float y
property float z
element face 98
property list uchar int vertex_index
end_header
-47.669502 17.256954 28.682213
-49.898685 12.19409 35.809361
-51.014839 13.294201 30.943642
-46.306297 16.36227 33.39801
-54.807426 15.126228 21.190151
-52.712524 14.335526 26.115593
-47.668823 13.738049 37.065582
-47.994289 14.178722 34.596848
-45.963043 15.970592 35.839409
-49.198589 15.17366 29.787886
-51.79747 13.836502 28.53339
-50.085155 15.671356 27.420261
-52.354755 10.956934 34.542747
-52.964294 11.569172 32.107979
-50.380981 12.736376 33.364281
-48.500118 14.666256 32.174316
-46.870796 16.799911 31.01651
-51.858364 10.352129 36.990433
-49.557514 11.693993 38.286415
-53.684464 12.157114 29.67491
-53.730179 14.770458 23.67207
-45.886212 15.806407 37.091881
-46.815933 14.854321 36.452495
-46.739102 14.690136 37.704967
-45.106579 16.886063 37.728561
-45.183411 17.050247 36.47609
-45.886212 15.806407 37.091881
-48.181469 17.481485 27.528033
-49.389296 16.688686 26.897056
-48.877329 16.464155 28.051237
-47.105721 18.407023 28.164704
-48.181469 17.481485 27.528033
-45.634045 17.565614 32.819101
-45.916294 17.784435 31.628351
-46.588546 16.581091 32.20726
-52.777288 9.464645 37.53739
-53.051874 9.802195 36.32235
-49.445988 11.471508 39.540102
-50.512064 10.737132 38.871094
-48.527015 12.526768 38.934105
-49.445988 11.471508 39.540102
-55.348024 15.257488 19.930578
-56.035642 14.457456 20.449267
-54.182254 16.000909 20.699872
-55.348024 15.257488 19.930578
-53.607365 13.513435 26.672379
-53.149837 13.263924 27.881278
-52.254997 14.086014 27.324492
-54.053501 13.742752 25.436191
-53.607365 13.513435 26.672379
-53.221351 14.552992 24.893832
-54.562328 13.960218 24.21443
-54.053501 13.742752 25.436191
-45.266348 17.195585 35.238419
-45.437975 17.391424 34.017719
-46.13467 16.166431 34.61871
-45.266348 17.195585 35.238419
-45.183411 17.050247 36.47609
-55.568138 14.32265 21.719541
-56.035642 14.457456 20.449267
-50.611206 15.902489 26.234666
-51.924891 15.234573 25.582332
-51.39884 15.003441 26.767927
-50.611206 15.902489 26.234666
-49.389296 16.688686 26.897056
-52.659525 11.263053 33.325363
-53.918628 10.746565 32.667054
-53.613859 10.440446 33.884438
-46.243122 17.978054 30.465941
-46.642475 18.206575 29.298792
-47.270149 17.028433 29.849362
-46.243122 17.978054 30.465941
-45.916294 17.784435 31.628351
-45.634045 17.565614 32.819101
-45.437975 17.391424 34.017719
-53.300069 10.104598 35.098506
-53.613859 10.440446 33.884438
-52.10656 10.654532 35.76659
-53.300069 10.104598 35.098506
-53.051874 9.802195 36.32235
-51.662489 10.066199 38.223103
-52.777288 9.464645 37.53739
-50.707939 11.023061 37.638424
-51.662489 10.066199 38.223103
-50.512064 10.737132 38.871094
-47.58267 13.548796 38.323689
-48.613169 12.716021 37.675998
-48.527015 12.526768 38.934105
-46.739102 14.690136 37.704967
-47.58267 13.548796 38.323689
-54.270303 11.065037 31.449718
-53.918628 10.746565 32.667054
-54.630388 11.359008 30.233184
-54.270303 11.065037 31.449718
-53.324379 11.863143 30.891444
-55.014185 11.644896 29.006837
-54.630388 11.359008 30.233184
-54.093334 12.424229 28.452038
-52.740967 12.996808 29.10415
-53.149837 13.263924 27.881278
-55.014185 11.644896 29.006837
-54.093334 12.424229 28.452038
-55.029515 14.144766 22.9605
-54.562328 13.960218 24.21443
-54.268802 14.948343 22.431111
-55.568138 14.32265 21.719541
-55.029515 14.144766 22.9605
-52.433718 15.45204 24.360571
-53.221351 14.552992 24.893832
-51.924891 15.234573 25.582332
-53.022121 15.655508 23.161572
-52.433718 15.45204 24.360571
-53.560745 15.833393 21.920612
-54.268802 14.948343 22.431111
-53.022121 15.655508 23.161572
-54.182254 16.000909 20.699872
-53.560745 15.833393 21.920612
-47.105721 18.407023 28.164704
-46.642475 18.206575 29.298792
3 21 8 22
3 23 22 6
3 21 22 23
3 26 25 8
3 24 25 26
3 0 11 9
3 0 27 29
3 29 28 11
3 27 28 29
3 0 30 31
3 1 14 12
3 3 15 7
3 3 16 15
3 3 32 34
3 34 33 16
3 32 33 34
3 35 17 36
3 37 18 38
3 40 39 18
3 4 41 42
3 4 43 44
3 2 19 13
3 5 45 47
3 47 46 10
3 45 46 47
3 5 48 49
3 5 50 52
3 50 20 51
3 50 51 52
3 6 7 1
3 8 7 6
3 8 3 7
3 8 53 55
3 55 54 3
3 53 54 55
3 57 56 8
3 58 4 59
3 9 10 2
3 11 10 9
3 11 5 10
3 11 60 62
3 62 61 5
3 60 61 62
3 64 63 11
3 12 65 67
3 65 13 66
3 65 66 67
3 14 13 12
3 14 2 13
3 7 14 1
3 15 14 7
3 15 2 14
3 15 9 2
3 16 9 15
3 16 0 9
3 16 68 70
3 70 69 0
3 68 69 70
3 72 71 16
3 74 73 3
3 75 12 76
3 17 77 79
3 77 12 78
3 77 78 79
3 17 1 12
3 80 17 81
3 18 82 84
3 82 17 83
3 82 83 84
3 18 1 17
3 18 6 1
3 85 6 86
3 87 86 18
3 85 86 87
3 89 88 6
3 13 90 91
3 19 92 94
3 94 93 13
3 92 93 94
3 19 95 96
3 10 19 2
3 97 19 98
3 99 98 10
3 97 98 99
3 101 100 19
3 20 102 103
3 20 104 106
3 104 4 105
3 104 105 106
3 107 20 108
3 109 108 5
3 107 108 109
3 110 20 111
3 112 4 113
3 114 113 20
3 112 113 114
3 116 115 4
3 118 117 0
