ply
format ascii 1.0
element vertex 151
property float x
property float y
property float z
element face 133
property list uchar int vertex_index
end_header
-56.959625 -79.001694 -7.084108
-52.84655 -83.425293 -13.322186
-61.166805 -73.735023 -7.970545
-59.375809 -75.505219 -11.313135
-55.129444 -81.096375 -10.372124
-56.903885 -77.398956 -14.241854
-58.146896 -77.12661 -3.567379
-54.902573 -81.634476 -6.703579
-54.086475 -82.764961 -8.398478
-56.107723 -80.01844 -8.770384
-60.340347 -73.53846 -13.438522
-58.209698 -76.442146 -12.839762
-59.035027 -74.429932 -14.88414
-57.588253 -75.314026 -16.191601
-58.387482 -76.218018 -1.815485
-60.113449 -74.639633 -4.020653
-60.19138 -73.756981 -2.320267
-52.152725 -85.247513 -11.586397
-59.086525 -76.389999 -7.506145
-58.23777 -77.319061 -9.200636
-60.375233 -74.600754 -9.677826
-53.446156 -81.468414 -15.02496
-52.247051 -85.614624 -8.101744
-53.168716 -83.969574 -10.023726
-54.040558 -82.232468 -11.884289
-57.226341 -78.296684 -10.80929
-56.080727 -79.317551 -12.311308
-54.817009 -80.375046 -13.708483
-55.47686 -78.36676 -15.528709
-55.599258 -80.576439 -4.949163
-57.654297 -78.043266 -5.337376
-59.729271 -75.50428 -5.763977
-60.079664 -72.916245 -15.238137
-59.687687 -73.984196 -14.161331
-60.732325 -72.470508 -14.515328
-60.41387 -71.821831 -16.276993
-59.369232 -73.335518 -15.922996
-60.079664 -72.916245 -15.238137
-58.362122 -75.744362 -0.966287
-57.489891 -76.932075 -0.713481
-59.264071 -74.513844 -1.218678
-59.289431 -74.987499 -2.067876
-58.362122 -75.744362 -0.966287
-51.939718 -85.012764 -13.215296
-51.592806 -85.923874 -12.347402
-52.499637 -84.336403 -12.454292
-52.713496 -82.036598 -15.662601
-53.696665 -80.407661 -15.878857
-52.628591 -84.982018 -7.236891
-51.791292 -86.400536 -7.103333
-56.805228 -75.747604 -16.784483
-57.865572 -74.178551 -17.187455
-54.913574 -81.319317 -3.867225
-54.638359 -81.872036 -4.772411
-57.144922 -78.353032 -3.363728
-57.317875 -77.871678 -2.468532
-57.900596 -77.584938 -4.452377
-56.898623 -78.81136 -4.248727
-57.144922 -78.353032 -3.363728
-60.905346 -73.76928 -5.130427
-61.013071 -73.352055 -4.278803
-61.787994 -72.770618 -9.083804
-62.124235 -72.361153 -8.22723
-54.494524 -82.199719 -7.551029
-53.548304 -83.557186 -7.385258
-53.956352 -82.991944 -6.537809
-58.645846 -73.777565 -16.576727
-58.31164 -74.871979 -15.537871
-59.369232 -73.335518 -15.922996
-57.865572 -74.178551 -17.187455
-58.645846 -73.777565 -16.576727
-57.438167 -77.417382 -1.592585
-57.489891 -76.932075 -0.713481
-58.267189 -76.672314 -2.691432
-57.317875 -77.871678 -2.468532
-57.438167 -77.417382 -1.592585
-61.052036 -72.910729 -3.42861
-61.013071 -73.352055 -4.278803
-60.152415 -74.198307 -3.17046
-51.29663 -86.823288 -11.511181
-51.773039 -86.105927 -10.685863
-51.29663 -86.823288 -11.511181
-51.592806 -85.923874 -12.347402
-61.392209 -73.203484 -9.937444
-60.771019 -74.167889 -8.824186
-61.787994 -72.770618 -9.083804
-60.926581 -73.629463 -10.771382
-61.392209 -73.203484 -9.937444
-60.426868 -74.081696 -11.589036
-59.875521 -75.052987 -10.49548
-60.926581 -73.629463 -10.771382
-60.909137 -73.098317 -12.65173
-59.858078 -74.521839 -12.375829
-60.426868 -74.081696 -11.589036
-61.359821 -72.044292 -13.758669
-60.909137 -73.098317 -12.65173
-60.732325 -72.470508 -14.515328
-61.359821 -72.044292 -13.758669
-52.497786 -83.073433 -14.870934
-52.197983 -84.051873 -14.019547
-53.146353 -82.446854 -14.173573
-52.497786 -83.073433 -14.870934
-52.713496 -82.036598 -15.662601
-51.431955 -87.105759 -8.000399
-51.791292 -86.400536 -7.103333
-51.820202 -86.289482 -8.943537
-51.431955 -87.105759 -8.000399
-53.166763 -84.189793 -8.250111
-52.628591 -84.982018 -7.236891
-53.548304 -83.557186 -7.385258
-52.281035 -85.466957 -9.904528
-51.820202 -86.289482 -8.943537
-52.707884 -84.792099 -9.062735
-52.66072 -84.608543 -10.805062
-51.773039 -86.105927 -10.685863
-52.281035 -85.466957 -9.904528
-54.712017 -78.856834 -16.130731
-53.696665 -80.407661 -15.878857
-54.461508 -79.917587 -15.276834
-55.749531 -77.273972 -16.453037
-56.532556 -76.840393 -15.860155
-56.805228 -75.747604 -16.784483
-54.712017 -78.856834 -16.130731
-55.749531 -77.273972 -16.453037
-54.290017 -82.401055 -5.649619
-53.956352 -82.991944 -6.537809
-55.250915 -81.105457 -5.826371
-54.290017 -82.401055 -5.649619
-54.638359 -81.872036 -4.772411
-55.871103 -80.077946 -4.054621
-54.913574 -81.319317 -3.867225
-56.626778 -79.309853 -5.14327
-55.871103 -80.077946 -4.054621
-56.898623 -78.81136 -4.248727
-60.713257 -74.201603 -6.00209
-59.92136 -75.071956 -4.892315
-60.905346 -73.76928 -5.130427
-61.432024 -73.316975 -7.105374
-60.448038 -74.619652 -6.867261
-60.713257 -74.201603 -6.00209
-62.124235 -72.361153 -8.22723
-61.432024 -73.316975 -7.105374
-60.06551 -73.282841 -1.507073
-59.264071 -74.513844 -1.218678
-60.984545 -72.473209 -2.610593
-60.06551 -73.282841 -1.507073
-60.858675 -71.999069 -1.797398
-61.052036 -72.910729 -3.42861
-60.984545 -72.473209 -2.610593
-51.939718 -85.012764 -13.215296
-52.197983 -84.051873 -14.019547
3 0 9 7
3 32 12 33
3 34 33 10
3 32 33 34
3 37 36 12
3 35 36 37
3 38 14 39
3 40 16 41
3 42 41 14
3 40 41 42
3 1 43 45
3 45 44 17
3 43 44 45
3 2 20 18
3 47 46 21
3 48 22 49
3 4 23 8
3 4 24 23
3 3 25 19
3 5 26 11
3 5 27 26
3 5 28 27
3 51 50 13
3 52 29 53
3 6 54 55
3 6 56 58
3 56 30 57
3 56 57 58
3 6 31 30
3 60 59 15
3 62 61 2
3 7 63 65
3 63 8 64
3 63 64 65
3 9 8 7
3 9 4 8
3 10 11 3
3 12 11 10
3 12 5 11
3 12 13 5
3 66 13 67
3 68 67 12
3 66 67 68
3 70 69 13
3 14 71 72
3 14 73 75
3 73 6 74
3 73 74 75
3 14 15 6
3 16 15 14
3 16 76 78
3 78 77 15
3 76 77 78
3 17 79 80
3 82 81 17
3 18 19 0
3 20 19 18
3 20 3 19
3 83 20 84
3 85 84 2
3 83 84 85
3 86 20 87
3 88 3 89
3 90 89 20
3 88 89 90
3 91 10 92
3 93 92 3
3 91 92 93
3 94 10 95
3 97 96 10
3 21 98 100
3 100 99 1
3 98 99 100
3 102 101 21
3 22 103 104
3 22 105 106
3 8 107 109
3 107 22 108
3 107 108 109
3 23 22 8
3 23 110 112
3 112 111 22
3 110 111 112
3 23 113 115
3 113 17 114
3 113 114 115
3 24 17 23
3 24 1 17
3 19 9 0
3 25 9 19
3 25 4 9
3 11 25 3
3 26 25 11
3 26 4 25
3 26 24 4
3 27 24 26
3 27 1 24
3 27 21 1
3 28 21 27
3 28 116 118
3 118 117 21
3 116 117 118
3 13 28 5
3 119 28 120
3 121 120 13
3 119 120 121
3 123 122 28
3 124 7 125
3 29 126 128
3 126 7 127
3 126 127 128
3 29 0 7
3 129 29 130
3 30 131 133
3 131 29 132
3 131 132 133
3 30 0 29
3 30 18 0
3 31 18 30
3 31 2 18
3 15 31 6
3 134 31 135
3 136 135 15
3 134 135 136
3 137 2 138
3 139 138 31
3 137 138 139
3 141 140 2
3 142 16 143
3 144 16 145
3 144 145 146
3 148 147 16
3 150 149 1
