ply
format ascii 1.0
element vertex 112
property float x
property float y
property float z
element face 85
property list uchar int vertex_index
end_header
48.019768 -19.424166 -46.47538
51.798691 -19.070889 -47.735252
44.215782 -21.740879 -44.59124
53.314064 -25.9643 -44.481537
44.449196 -17.957239 -46.731239
46.114655 -20.39168 -45.563759
46.39666 -16.856518 -47.716003
46.582993 -13.510052 -49.936409
48.381298 -16.176893 -48.58709
49.908539 -18.966032 -47.230629
43.844166 -25.757675 -42.603394
45.735489 -24.155594 -43.555168
47.609161 -22.835096 -44.495384
53.706318 -19.630442 -47.947517
52.790474 -22.378202 -46.153778
44.507065 -16.177088 -47.851914
43.533451 -16.806204 -47.318641
45.480797 -15.626728 -48.344296
45.422928 -17.406879 -47.223621
44.507065 -16.177088 -47.851914
47.617582 -13.272869 -50.328739
46.626496 -11.914647 -51.015534
48.516735 -14.60629 -49.65408
47.482146 -14.843473 -49.26175
47.617582 -13.272869 -50.328739
50.853615 -19.01846 -47.48294
50.148609 -17.4649 -48.243199
51.093685 -17.517328 -48.49551
51.431608 -20.436972 -46.820388
50.486532 -20.384543 -46.568077
50.853615 -19.01846 -47.48294
43.291851 -22.552938 -44.093616
43.38923 -20.569233 -45.14236
44.029974 -23.749277 -43.597317
43.106043 -24.561336 -43.099694
43.291851 -22.552938 -44.093616
48.699749 -20.684189 -45.909061
48.494445 -22.389654 -44.919064
47.814464 -21.129631 -45.485382
54.654875 -20.054983 -47.893799
54.059404 -18.193702 -48.809425
53.052269 -24.171251 -45.317658
53.687967 -22.840665 -46.163483
53.949763 -24.633713 -45.327362
52.49852 -25.413158 -44.490403
52.236725 -23.620109 -45.326523
53.052269 -24.171251 -45.317658
52.102995 -17.629753 -48.686684
51.093685 -17.517328 -48.49551
43.505938 -18.677413 -46.21236
43.533451 -16.806204 -47.318641
44.332489 -19.849059 -45.66124
43.38923 -20.569233 -45.14236
43.505938 -18.677413 -46.21236
54.169047 -26.587875 -44.40495
53.949763 -24.633713 -45.327362
45.581204 -12.273613 -50.575539
46.626496 -11.914647 -51.015534
45.573964 -13.953494 -49.454498
45.581204 -12.273613 -50.575539
46.489826 -15.183285 -48.826206
45.480797 -15.626728 -48.344296
45.573964 -13.953494 -49.454498
49.384989 -16.07033 -48.921429
48.516735 -14.60629 -49.65408
49.144919 -17.571462 -47.90886
49.384989 -16.07033 -48.921429
50.148609 -17.4649 -48.243199
49.644134 -20.455122 -46.286686
48.699749 -20.684189 -45.909061
48.964153 -19.195099 -46.853004
49.644134 -20.455122 -46.286686
50.486532 -20.384543 -46.568077
42.925737 -26.653238 -42.122051
43.106043 -24.561336 -43.099694
43.578497 -27.877485 -41.687523
42.925737 -26.653238 -42.122051
44.540914 -26.966196 -42.155186
43.578497 -27.877485 -41.687523
45.486576 -26.165156 -42.631073
44.540914 -26.966196 -42.155186
44.789828 -24.956634 -43.079281
46.446274 -25.33485 -43.111073
45.486576 -26.165156 -42.631073
47.38311 -24.674601 -43.581181
46.446274 -25.33485 -43.111073
46.672325 -23.495345 -44.025276
48.277587 -23.962331 -44.065663
47.38311 -24.674601 -43.581181
48.277587 -23.962331 -44.065663
48.494445 -22.389654 -44.919064
53.357738 -27.912182 -43.604691
54.169047 -26.587875 -44.40495
52.549908 -27.178075 -43.700066
53.357738 -27.912182 -43.604691
52.49852 -25.413158 -44.490403
52.549908 -27.178075 -43.700066
53.056809 -17.909529 -48.792816
54.059404 -18.193702 -48.809425
52.752505 -19.350665 -47.841385
52.102995 -17.629753 -48.686684
53.056809 -17.909529 -48.792816
54.14589 -21.466784 -47.060352
54.654875 -20.054983 -47.893799
53.248396 -21.004322 -47.050647
54.14589 -21.466784 -47.060352
53.687967 -22.840665 -46.163483
51.9275 -22.090629 -46.029651
51.431608 -20.436972 -46.820388
52.294583 -20.724546 -46.944515
51.9275 -22.090629 -46.029651
52.236725 -23.620109 -45.326523
3 15 4 16
3 17 6 18
3 19 18 4
3 17 18 19
3 20 7 21
3 22 8 23
3 24 23 7
3 22 23 24
3 1 25 27
3 25 9 26
3 25 26 27
3 1 28 30
3 30 29 9
3 28 29 30
3 2 31 32
3 2 33 35
3 33 10 34
3 33 34 35
3 2 11 10
3 0 12 5
3 0 36 38
3 38 37 12
3 36 37 38
3 39 13 40
3 3 41 43
3 41 14 42
3 41 42 43
3 3 44 46
3 46 45 14
3 44 45 46
3 47 1 48
3 4 49 50
3 4 51 53
3 51 2 52
3 51 52 53
3 4 5 2
3 6 5 4
3 6 0 5
3 54 3 55
3 7 56 57
3 7 58 59
3 7 60 62
3 60 6 61
3 60 61 62
3 8 6 7
3 8 0 6
3 63 8 64
3 9 65 67
3 65 8 66
3 65 66 67
3 9 0 8
3 9 68 70
3 70 69 0
3 68 69 70
3 72 71 9
3 10 73 74
3 10 75 76
3 10 77 78
3 11 79 81
3 81 80 10
3 79 80 81
3 11 82 83
3 5 11 2
3 12 11 5
3 12 84 86
3 86 85 11
3 84 85 86
3 12 87 88
3 90 89 12
3 91 3 92
3 93 3 94
3 96 95 3
3 13 97 98
3 13 99 101
3 99 1 100
3 99 100 101
3 102 13 103
3 14 104 106
3 104 13 105
3 104 105 106
3 14 1 13
3 14 107 109
3 109 108 1
3 107 108 109
3 111 110 14
