ply
format ascii 1.0
element vertex 188
property float x
property float y
property float z
element face 172
property list uchar int vertex_index
end_header
0.115778 69.983734 -29.817879
-4.59244 81.961609 -22.825436
-16.539009 79.116287 -21.887619
-14.451715 83.260864 -18.195358
-1.804882 76.73317 -26.795479
-5.899792 77.236404 -27.171719
-2.931692 71.44133 -30.638382
-8.33 85.11441 -18.184132
-9.818621 81.29451 -22.917046
-16.89053 83.454315 -15.729008
-13.552179 84.767838 -15.833336
-0.749981 73.511032 -28.439369
-2.263905 74.258835 -28.957314
-1.16083 70.939316 -30.455956
-1.800434 68.046417 -31.972466
-0.258581 67.336823 -31.665176
0.467056 63.4995 -32.558445
-6.349079 83.822922 -20.568985
-9.000135 83.388931 -20.739388
-6.968695 81.856598 -23.050148
-6.796902 74.324417 -28.675041
-8.667059 76.785904 -26.760147
-20.402431 81.968811 -15.465078
-17.935179 81.918121 -17.874786
-15.459559 81.389496 -20.220814
-3.0788 79.575851 -24.913441
-5.159372 79.786865 -25.21719
-3.591421 77.231735 -27.19939
-4.294033 74.524994 -29.025089
-3.795532 68.31366 -31.838612
-10.494799 85.821411 -15.7085
-7.815004 86.506683 -15.301279
-5.89344 85.433273 -17.726124
-4.200363 83.769547 -20.041313
-2.754183 81.553955 -22.208153
-1.548985 78.85202 -24.190502
-0.55839 75.744156 -25.957634
0.254669 72.311401 -27.483719
-11.213573 84.357498 -18.323318
-12.07218 82.54776 -20.598133
-13.046228 80.353912 -22.497398
-7.747883 79.511597 -25.121265
-10.763191 78.810837 -24.68721
-14.101189 77.760651 -24.008568
-13.169319 85.365555 -14.502931
-14.751256 84.712959 -14.562051
0.469139 68.098 -30.362051
0.28196 66.774544 -31.285699
-0.071402 68.660279 -30.741528
-18.36063 78.38301 -21.540692
-17.792736 79.554847 -20.793915
-17.094752 77.775925 -22.54254
-18.36063 78.38301 -21.540692
-8.246723 74.014785 -28.326172
-7.309848 72.707229 -29.2115
-19.861784 82.573341 -14.336867
-21.59969 81.782287 -14.227072
-21.059043 82.386818 -13.098861
-4.051991 71.461556 -30.511236
-4.733162 73.003388 -29.70459
-3.612862 72.983162 -29.831736
-3.363612 69.877495 -31.238497
-4.483912 69.89772 -31.111351
-4.051991 71.461556 -30.511236
-2.228576 66.456886 -32.483387
-1.340778 66.218132 -32.483151
0.75174 61.477863 -32.835232
0.930722 62.868908 -32.119101
-7.629565 87.054824 -13.725354
-8.869549 86.745812 -14.051872
-4.930238 85.334243 -17.327923
-5.741066 86.076629 -16.155248
-4.0837 84.502381 -18.485518
-5.046902 84.60141 -18.883719
-4.930238 85.334243 -17.327923
-2.112444 81.08844 -21.708008
-2.675769 82.367874 -20.678654
-1.509845 79.737472 -22.699182
-2.151584 80.202988 -23.199327
-2.112444 81.08844 -21.708008
-0.182497 75.03003 -25.341923
-0.556762 76.69178 -24.516531
0.224032 73.313652 -26.104965
-0.151861 74.027779 -26.720676
-0.182497 75.03003 -25.341923
0.537083 71.520386 -26.810719
0.224032 73.313652 -26.104965
-11.282512 77.377724 -25.368021
-9.715125 77.798371 -25.723678
-10.234447 76.365257 -26.40449
-12.951511 76.852631 -25.0287
-12.43219 78.285744 -24.347889
-11.282512 77.377724 -25.368021
-13.500993 75.365578 -25.598532
-14.650671 76.273598 -24.5784
-12.951511 76.852631 -25.0287
-16.420431 84.056198 -14.509887
-18.105833 83.316093 -14.468832
-15.221355 84.111076 -15.781172
-16.420431 84.056198 -14.509887
-14.751256 84.712959 -14.562051
-0.569851 65.863335 -32.329505
-1.340778 66.218132 -32.483151
-1.029508 67.69162 -31.818821
0.104238 65.418161 -32.11181
-0.207033 63.944674 -32.77614
-0.569851 65.863335 -32.329505
0.644778 64.855883 -31.732334
0.104238 65.418161 -32.11181
0.28196 66.774544 -31.285699
0.930722 62.868908 -32.119101
0.644778 64.855883 -31.732334
-9.181802 75.245529 -27.368725
-7.731981 75.55516 -27.717594
-8.246723 74.014785 -28.326172
-10.234447 76.365257 -26.40449
-9.181802 75.245529 -27.368725
-22.190362 81.165474 -15.290246
-21.59969 81.782287 -14.227072
-20.975984 81.183517 -16.455538
-22.190362 81.165474 -15.290246
-18.64648 82.711563 -15.597043
-19.861784 82.573341 -14.336867
-18.105833 83.316093 -14.468832
-19.742359 81.158173 -17.660393
-20.975984 81.183517 -16.455538
-19.168805 81.943466 -16.669932
-18.490821 80.955765 -18.787498
-19.742359 81.158173 -17.660393
-17.253011 80.691452 -19.960513
-18.490821 80.955765 -18.787498
-16.697369 81.653808 -19.0478
-15.999284 80.252892 -21.054217
-17.792736 79.554847 -20.793915
-17.253011 80.691452 -19.960513
-5.984597 72.903099 -29.529566
-5.545467 74.424706 -28.850065
-4.733162 73.003388 -29.70459
-7.309848 72.707229 -29.2115
-5.984597 72.903099 -29.529566
-4.99735 68.231193 -31.572211
-4.483912 69.89772 -31.111351
-4.31185 66.619011 -32.216706
-4.99735 68.231193 -31.572211
-3.226126 66.590508 -32.41646
-2.797983 68.180038 -31.905539
-2.228576 66.456886 -32.483387
-4.31185 66.619011 -32.216706
-3.226126 66.590508 -32.41646
0.156782 62.002026 -33.11681
-0.207033 63.944674 -32.77614
0.156782 62.002026 -33.11681
0.75174 61.477863 -32.835232
-10.209447 86.403176 -14.255482
-11.640629 85.892342 -14.440514
-9.154902 86.164047 -15.50489
-10.209447 86.403176 -14.255482
-8.869549 86.745812 -14.051872
-6.701848 86.613335 -14.942825
-7.629565 87.054824 -13.725354
-6.854222 85.969978 -16.513701
-6.701848 86.613335 -14.942825
-5.741066 86.076629 -16.155248
-3.398859 83.47567 -19.595234
-4.0837 84.502381 -18.485518
-3.477273 82.661751 -21.124733
-3.398859 83.47567 -19.595234
-2.675769 82.367874 -20.678654
-1.052059 78.245712 -23.632965
-1.509845 79.737472 -22.699182
-1.053688 77.298088 -25.074068
-1.052059 78.245712 -23.632965
-0.556762 76.69178 -24.516531
0.590962 70.467819 -28.114561
0.521516 69.303985 -29.281641
0.185223 71.147568 -28.650799
0.590962 70.467819 -28.114561
0.537083 71.520386 -26.810719
-12.023489 85.294624 -15.770918
-13.169319 85.365555 -14.502931
-11.640629 85.892342 -14.440514
-15.875841 77.098107 -23.603014
-17.094752 77.775925 -22.54254
-15.320099 78.438469 -22.948093
-15.875841 77.098107 -23.603014
-14.650671 76.273598 -24.5784
0.469139 68.098 -30.362051
0.521516 69.303985 -29.281641
3 44 10 45
3 0 13 11
3 0 15 13
3 0 46 48
3 48 47 15
3 46 47 48
3 2 49 50
3 2 51 52
3 1 19 17
3 54 53 20
3 55 22 56
3 55 56 57
3 3 23 9
3 3 24 23
3 4 27 25
3 6 28 12
3 6 58 60
3 60 59 28
3 58 59 60
3 6 61 63
3 61 29 62
3 61 62 63
3 65 64 14
3 67 66 16
3 68 31 69
3 70 32 71
3 72 33 73
3 74 73 32
3 72 73 74
3 75 34 76
3 77 35 78
3 79 78 34
3 77 78 79
3 80 36 81
3 82 37 83
3 84 83 36
3 82 83 84
3 86 85 37
3 7 38 30
3 8 39 18
3 8 40 39
3 5 41 26
3 87 42 88
3 89 88 21
3 87 88 89
3 90 43 91
3 92 91 42
3 90 91 92
3 95 94 43
3 93 94 95
3 96 9 97
3 10 98 100
3 98 9 99
3 98 99 100
3 10 3 9
3 11 12 4
3 13 12 11
3 13 6 12
3 13 14 6
3 15 14 13
3 15 101 103
3 103 102 14
3 101 102 103
3 15 104 106
3 104 16 105
3 104 105 106
3 107 16 108
3 109 108 15
3 107 108 109
3 111 110 16
3 17 18 7
3 19 18 17
3 19 8 18
3 20 21 5
3 112 21 113
3 114 113 20
3 112 113 114
3 116 115 21
3 22 117 118
3 22 119 120
3 9 121 123
3 121 22 122
3 121 122 123
3 23 22 9
3 23 124 126
3 126 125 22
3 124 125 126
3 23 127 128
3 24 129 131
3 131 130 23
3 129 130 131
3 24 132 134
3 132 2 133
3 132 133 134
3 25 26 1
3 27 26 25
3 27 5 26
3 12 27 4
3 28 27 12
3 28 5 27
3 28 20 5
3 135 20 136
3 137 136 28
3 135 136 137
3 139 138 20
3 29 140 141
3 29 142 143
3 14 29 6
3 144 29 145
3 146 145 14
3 144 145 146
3 148 147 29
3 16 149 150
3 152 151 16
3 153 30 154
3 31 155 157
3 155 30 156
3 155 156 157
3 31 7 30
3 158 31 159
3 32 160 162
3 160 31 161
3 160 161 162
3 32 7 31
3 32 17 7
3 33 17 32
3 33 1 17
3 163 33 164
3 34 165 167
3 165 33 166
3 165 166 167
3 34 1 33
3 34 25 1
3 35 25 34
3 35 4 25
3 168 35 169
3 36 170 172
3 170 35 171
3 170 171 172
3 36 4 35
3 36 11 4
3 37 11 36
3 37 0 11
3 37 173 175
3 175 174 0
3 173 174 175
3 177 176 37
3 30 178 180
3 178 10 179
3 178 179 180
3 38 10 30
3 38 3 10
3 18 38 7
3 39 38 18
3 39 3 38
3 39 24 3
3 40 24 39
3 40 2 24
3 26 19 1
3 41 19 26
3 41 8 19
3 21 41 5
3 42 41 21
3 42 8 41
3 42 40 8
3 43 40 42
3 43 2 40
3 43 181 183
3 183 182 2
3 181 182 183
3 185 184 43
3 187 186 0
