ply
format ascii 1.0
element vertex 374
property float x
property float y
property float z
element face 327
property list uchar int vertex_index
end_header
-33.726894 17.953491 -30.275623
-45.10107 0.935953 -20.564217
-43.700638 -6.905521 -11.4102
-28.581875 17.127991 -32.258652
-41.847797 4.745193 -19.053162
-45.063114 5.126181 -25.107212
-41.74395 8.081278 -23.293098
-39.168457 13.751034 -30.80999
-42.597069 -10.266764 -6.787601
-40.819466 -1.484697 -10.242615
-40.88554 11.225382 -27.286137
-47.020962 -10.343378 -11.469019
-48.133499 -5.854087 -16.156614
-44.575981 -3.137569 -15.998495
-41.454166 1.512341 -14.682423
-31.199982 17.934399 -31.771511
-40.367569 7.402119 -18.015003
-41.875835 6.414776 -21.194759
-40.3605 8.859388 -20.092018
-34.906254 17.612095 -29.15316
-36.460976 15.890686 -30.636711
-35.236847 16.352737 -31.789516
-33.94175 16.534721 -32.679176
-26.28574 13.05595 -32.710827
-46.883541 -0.241838 -20.88726
-48.825142 1.466234 -23.279686
-46.957512 2.057243 -23.226555
-44.753242 7.168386 -27.350918
-39.841141 11.715202 -24.068939
-39.283371 13.026211 -25.929802
-43.172394 -8.641204 -9.103058
-44.686069 -10.76811 -9.260826
-45.306229 -8.866022 -11.593813
-47.631176 -8.155394 -13.812273
-45.849701 -6.84502 -13.918201
-46.305153 -4.720288 -16.237938
-44.172485 -5.067474 -13.708248
-41.154228 -0.018843 -12.467945
-40.050434 4.573944 -13.747438
-29.896799 17.612877 -32.133965
-43.422001 2.587513 -19.933315
-45.16853 3.033327 -22.840725
-43.474495 4.472094 -22.143028
-43.362354 6.354168 -24.324467
-43.053669 8.18906 -26.462276
-38.52066 14.191422 -27.668839
-37.569397 15.160477 -29.250702
-41.985279 -11.777136 -4.467405
-41.305664 -7.485022 -6.394264
-41.770092 -6.007836 -8.669552
-42.207539 -4.442558 -10.941385
-40.466557 -2.884411 -8.013256
-27.258598 16.517944 -32.175957
-27.490376 13.98988 -33.195457
-34.454308 19.303642 -26.637737
-33.403194 19.737087 -27.985466
-46.848045 4.347836 -25.57547
-40.194649 10.310305 -22.115513
-41.420948 9.702082 -25.331478
-42.524406 9.922419 -28.532822
-40.131088 12.594038 -29.125332
-41.763489 11.493418 -30.503159
-43.999619 -12.540364 -6.918528
-46.314445 -12.399262 -9.122004
-48.513664 -3.463366 -18.510094
-46.656975 -2.511162 -18.558956
-44.893578 -1.129946 -18.28323
-42.608467 -2.79287 -13.206066
-42.959156 -1.064251 -15.461081
-43.239384 0.73423 -17.704384
-41.695541 3.104153 -16.879688
-40.251736 5.96759 -15.896782
-32.261452 19.973675 -29.127716
-32.482513 18.056808 -31.152905
-32.616753 16.443691 -33.289101
-39.662485 9.684115 -18.51251
-40.364035 8.130753 -19.053511
-39.66602 8.955481 -17.474002
-45.357206 7.937166 -28.803051
-44.483395 8.136305 -28.450327
-38.496963 14.155403 -25.268019
-38.792403 13.605257 -24.369332
-28.519041 18.358797 -31.692509
-27.833158 18.155177 -31.790655
-29.239337 17.370434 -32.196309
-29.176503 18.60124 -31.630166
-28.519041 18.358797 -31.692509
-29.287697 16.340496 -32.974986
-29.945159 16.582939 -32.912642
-29.239337 17.370434 -32.196309
-36.778008 16.09883 -28.53117
-37.250664 15.705162 -27.76755
-37.243545 15.268275 -31.46652
-36.604046 15.565746 -32.088686
-40.706196 -5.851786 -6.090847
-40.527248 -6.48622 -4.983881
-40.93841 -5.113193 -7.228491
-41.537878 -6.746429 -7.531908
-40.706196 -5.851786 -6.090847
-40.286642 -3.551481 -6.900343
-41.118324 -4.446124 -8.341404
-40.93841 -5.113193 -7.228491
-26.593536 16.167444 -32.048897
-26.463076 17.603046 -31.748361
-26.709425 14.903412 -32.558647
-27.374487 15.253912 -32.685707
-26.593536 16.167444 -32.048897
-27.007112 12.336163 -33.562767
-26.486877 11.742733 -33.217995
-33.745018 20.577955 -26.235254
-34.200094 20.346061 -25.45985
-33.219461 20.794677 -26.909118
-33.928751 19.520364 -27.311602
-33.745018 20.577955 -26.235254
-49.712612 2.612691 -24.399082
-48.764236 2.698492 -24.492972
-39.446509 11.652348 -21.516943
-39.552971 11.033867 -20.535141
-42.083859 11.947938 -32.08713
-41.270104 12.166618 -31.417257
-42.596728 11.182116 -31.087046
-42.083859 11.947938 -32.08713
-47.925083 -10.864964 -11.259415
-47.571825 -11.892907 -10.085908
-46.667704 -11.37132 -10.295511
-48.257971 -9.700003 -12.436165
-47.925083 -10.864964 -11.259415
-49.083847 -6.230933 -15.96235
-48.832685 -7.381586 -14.79018
-47.882338 -7.00474 -14.984444
-49.283531 -4.960618 -17.154349
-49.083847 -6.230933 -15.96235
-48.323582 -4.658727 -17.333354
-49.473613 -3.765258 -18.331089
-49.283531 -4.960618 -17.154349
-39.492457 7.018481 -14.328855
-40.151085 5.270767 -14.82211
-39.391806 6.321658 -13.254183
-39.571953 7.620984 -15.38081
-39.492457 7.018481 -14.328855
-31.583294 21.14505 -28.769357
-32.139849 21.068729 -28.174444
-31.124582 18.974818 -30.904967
-30.489384 18.906259 -31.237744
-31.841247 17.995604 -31.462208
-31.765848 19.036022 -30.595664
-31.124582 18.974818 -30.904967
-35.683615 16.75139 -29.894935
-36.223797 16.463934 -29.224174
-35.446436 17.324638 -28.482399
-35.991981 15.796772 -32.665088
-36.604046 15.565746 -32.088686
-35.848911 16.121711 -31.213113
-35.310037 15.934324 -33.147688
-35.991981 15.796772 -32.665088
-34.662489 16.025316 -33.592517
-35.310037 15.934324 -33.147688
-34.589298 16.443729 -32.234346
-33.964596 16.003208 -33.92369
-34.662489 16.025316 -33.592517
-25.439668 14.052969 -32.121062
-26.107107 14.436447 -32.316332
-25.695838 12.556334 -32.414101
-25.439668 14.052969 -32.121062
-26.486877 11.742733 -33.217995
-25.695838 12.556334 -32.414101
-47.854342 0.612198 -22.083473
-48.788782 0.227155 -22.080799
-47.817982 -0.626881 -20.884586
-47.830421 2.993997 -24.466406
-48.764236 2.698492 -24.492972
-47.891327 1.761739 -23.253121
-45.638881 6.875576 -27.637873
-45.793818 5.854474 -26.51602
-44.908178 6.147284 -26.229065
-45.638881 6.875576 -27.637873
-45.357206 7.937166 -28.803051
-39.071287 12.949752 -23.4389
-39.269755 12.354797 -22.493656
-39.562256 12.370707 -24.99937
-39.071287 12.949752 -23.4389
-38.792403 13.605257 -24.369332
-39.972588 13.295426 -31.570673
-39.378536 13.827677 -32.389395
-40.338331 0.958572 -10.930997
-40.986847 -0.75177 -11.35528
-40.17095 0.225645 -9.818332
-40.476095 1.605406 -12.02222
-40.338331 0.958572 -10.930997
-40.626064 2.370998 -13.129459
-41.304197 0.746749 -13.575184
-40.476095 1.605406 -12.02222
-39.924198 3.901799 -12.661966
-40.7523 3.043143 -14.214931
-40.626064 2.370998 -13.129459
-39.287948 5.736823 -12.189979
-39.924198 3.901799 -12.661966
-39.391806 6.321658 -13.254183
-39.287948 5.736823 -12.189979
-29.837792 18.745499 -31.418971
-29.176503 18.60124 -31.630166
-30.548391 17.773638 -31.952738
-30.489384 18.906259 -31.237744
-29.837792 18.745499 -31.418971
-30.595329 16.858458 -32.87707
-31.24692 17.019219 -32.695842
-30.548391 17.773638 -31.952738
-30.595329 16.858458 -32.87707
-29.945159 16.582939 -32.912642
-43.633608 8.646642 -28.006006
-44.483395 8.136305 -28.450327
-43.903455 7.678723 -26.906597
-37.726295 15.220634 -26.976618
-38.115608 14.738008 -26.137538
-38.045029 14.675949 -28.45977
-37.726295 15.220634 -26.976618
-37.250664 15.705162 -27.76755
-37.015186 15.525582 -29.943706
-36.778008 16.09883 -28.53117
-36.223797 16.463934 -29.224174
-37.797756 14.90317 -30.773516
-37.015186 15.525582 -29.943706
-37.243545 15.268275 -31.46652
-38.597286 14.198449 -31.553159
-38.368927 14.455756 -30.030346
-37.797756 14.90317 -30.773516
-39.378536 13.827677 -32.389395
-38.597286 14.198449 -31.553159
-41.160246 -10.971001 -3.162161
-41.669043 -12.473783 -3.30836
-41.40426 -10.324235 -4.294149
-41.160246 -10.971001 -3.162161
-41.710155 -9.569049 -5.454247
-42.291174 -11.02195 -5.627503
-41.40426 -10.324235 -4.294149
-41.064453 -8.178178 -5.257578
-40.527248 -6.48622 -4.983881
-41.951366 -8.875893 -6.590933
-41.710155 -9.569049 -5.454247
-41.064453 -8.178178 -5.257578
-39.722792 -1.698543 -6.526499
-40.286642 -3.551481 -6.900343
-39.855616 -1.097215 -7.612217
-39.722792 -1.698543 -6.526499
-40.032071 -0.397358 -8.726897
-40.643012 -2.184554 -9.127935
-39.855616 -1.097215 -7.612217
-40.17095 0.225645 -9.818332
-40.032071 -0.397358 -8.726897
-27.17152 17.850153 -31.749308
-26.463076 17.603046 -31.748361
-27.920237 16.822968 -32.217304
-27.833158 18.155177 -31.790655
-27.17152 17.850153 -31.749308
-27.991912 15.67601 -32.855986
-28.65355 15.981034 -32.897334
-27.920237 16.822968 -32.217304
-28.1078 14.411978 -33.365736
-27.991912 15.67601 -32.855986
-27.374487 15.253912 -32.685707
-28.162394 13.354913 -34.089851
-28.1078 14.411978 -33.365736
-26.888058 13.522915 -32.953142
-26.709425 14.903412 -32.558647
-26.107107 14.436447 -32.316332
-27.609431 12.803128 -33.805082
-26.888058 13.522915 -32.953142
-27.007112 12.336163 -33.562767
-28.162394 13.354913 -34.089851
-27.609431 12.803128 -33.805082
-34.921553 18.99523 -25.877596
-34.200094 20.346061 -25.45985
-35.220463 18.170412 -27.224688
-35.687708 17.862 -26.464546
-34.921553 18.99523 -25.877596
-34.680281 18.457869 -27.895449
-35.446436 17.324638 -28.482399
-35.220463 18.170412 -27.224688
-49.782673 1.310997 -23.149408
-48.788782 0.227155 -22.080799
-49.782673 1.310997 -23.149408
-49.712612 2.612691 -24.399082
-47.775688 4.139293 -25.640864
-47.830421 2.993997 -24.466406
-46.902778 3.20254 -24.401013
-46.686283 5.465301 -26.750149
-45.955579 4.737008 -25.341341
-45.793818 5.854474 -26.51602
-47.602937 5.340829 -26.865963
-46.686283 5.465301 -26.750149
-47.775688 4.139293 -25.640864
-47.602937 5.340829 -26.865963
-39.635897 10.308408 -19.523393
-39.662485 9.684115 -18.51251
-40.277575 9.584846 -21.103766
-39.635897 10.308408 -19.523393
-39.552971 11.033867 -20.535141
-40.017895 11.012753 -23.092226
-39.446509 11.652348 -21.516943
-39.269755 12.354797 -22.493656
-43.368977 9.513322 -29.041279
-43.633608 8.646642 -28.006006
-42.789037 9.055739 -27.497549
-38.902016 13.608816 -26.799321
-38.496963 14.155403 -25.268019
-38.115608 14.738008 -26.137538
-40.453903 12.716928 -30.728344
-39.649772 13.172536 -29.967661
-39.972588 13.295426 -31.570673
-40.947288 12.043728 -29.814245
-40.453903 12.716928 -30.728344
-41.270104 12.166618 -31.417257
-42.977186 10.396616 -30.101878
-42.143947 10.707918 -29.51799
-42.596728 11.182116 -31.087046
-43.368977 9.513322 -29.041279
-42.977186 10.396616 -30.101878
-42.622785 -12.976973 -4.518768
-42.306549 -13.673619 -3.359723
-41.669043 -12.473783 -3.30836
-43.629956 -13.358587 -5.74433
-42.622785 -12.976973 -4.518768
-42.992449 -12.15875 -5.692967
-44.761813 -13.425402 -6.844637
-43.629956 -13.358587 -5.74433
-45.919225 -13.354851 -7.946375
-44.761813 -13.425402 -6.844637
-45.157032 -12.469813 -8.020266
-47.181793 -12.988049 -8.912992
-45.919225 -13.354851 -7.946375
-47.181793 -12.988049 -8.912992
-47.571825 -11.892907 -10.085908
-48.563078 -8.606011 -13.607792
-48.257971 -9.700003 -12.436165
-47.326069 -9.249386 -12.640646
-48.563078 -8.606011 -13.607792
-48.832685 -7.381586 -14.79018
-49.594898 -2.465183 -19.537917
-49.473613 -3.765258 -18.331089
-48.633043 -2.237646 -19.696003
-49.594898 -2.465183 -19.537917
-47.704699 -1.761544 -19.720434
-48.633043 -2.237646 -19.696003
-47.585319 -2.987264 -18.534525
-46.770258 -1.3765 -19.723108
-47.817982 -0.626881 -20.884586
-47.704699 -1.761544 -19.720434
-39.629869 8.338249 -16.43992
-40.309652 6.684855 -16.955893
-39.571953 7.620984 -15.38081
-39.66602 8.955481 -17.474002
-39.629869 8.338249 -16.43992
-32.71072 20.950435 -27.603319
-33.219461 20.794677 -26.909118
-32.832323 19.855381 -28.556591
-32.71072 20.950435 -27.603319
-32.139849 21.068729 -28.174444
-31.655317 19.994456 -29.583069
-31.583294 21.14505 -28.769357
-32.371983 19.015242 -30.14031
-31.655317 19.994456 -29.583069
-31.765848 19.036022 -30.595664
-33.302098 15.957693 -34.228653
-33.964596 16.003208 -33.92369
-33.279252 16.489206 -32.984139
-31.955306 16.273865 -33.454638
-31.908368 17.189045 -32.530306
-31.24692 17.019219 -32.695842
-32.61166 15.786188 -34.405941
-31.955306 16.273865 -33.454638
-33.302098 15.957693 -34.228653
-32.61166 15.786188 -34.405941
-29.287697 16.340496 -32.974986
-28.65355 15.981034 -32.897334
3 75 18 76
3 77 76 16
3 75 76 77
3 0 21 19
3 0 22 21
3 1 26 24
3 79 78 27
3 80 29 81
3 2 32 30
3 2 34 32
3 2 36 34
3 3 82 83
3 3 84 86
3 84 39 85
3 84 85 86
3 3 87 89
3 89 88 39
3 87 88 89
3 4 42 40
3 6 43 17
3 6 44 43
3 90 46 91
3 93 92 20
3 94 48 95
3 96 49 97
3 98 97 48
3 96 97 98
3 99 51 100
3 101 100 49
3 99 100 101
3 102 52 103
3 104 53 105
3 106 105 52
3 104 105 106
3 108 107 23
3 109 54 110
3 111 55 112
3 113 112 54
3 111 112 113
3 115 114 25
3 5 56 41
3 116 57 117
3 10 58 28
3 10 59 58
3 7 60 45
3 118 61 119
3 121 120 61
3 8 62 47
3 11 63 31
3 11 122 124
3 124 123 63
3 122 123 124
3 11 125 126
3 12 127 129
3 129 128 33
3 127 128 129
3 12 130 131
3 12 132 134
3 132 64 133
3 132 133 134
3 13 65 35
3 13 66 65
3 9 67 50
3 14 68 37
3 14 69 68
3 14 70 69
3 135 71 136
3 137 136 38
3 135 136 137
3 139 138 71
3 140 72 141
3 15 142 143
3 15 144 146
3 144 73 145
3 144 145 146
3 15 74 73
3 16 17 4
3 18 17 16
3 18 6 17
3 19 147 149
3 147 20 148
3 147 148 149
3 21 20 19
3 21 150 152
3 152 151 20
3 150 151 152
3 21 153 154
3 22 155 157
3 157 156 21
3 155 156 157
3 22 158 159
3 160 23 161
3 162 23 163
3 165 164 23
3 24 166 168
3 166 25 167
3 166 167 168
3 26 25 24
3 26 169 171
3 171 170 25
3 169 170 171
3 27 172 174
3 174 173 5
3 172 173 174
3 176 175 27
3 177 28 178
3 29 179 181
3 179 28 180
3 179 180 181
3 29 10 28
3 183 182 7
3 30 31 8
3 32 31 30
3 32 11 31
3 32 33 11
3 34 33 32
3 34 12 33
3 34 35 12
3 36 35 34
3 36 13 35
3 184 37 185
3 186 185 9
3 184 185 186
3 187 37 188
3 189 14 190
3 191 190 37
3 189 190 191
3 192 38 193
3 194 193 14
3 192 193 194
3 195 38 196
3 198 197 38
3 39 199 200
3 39 201 203
3 201 15 202
3 201 202 203
3 39 204 206
3 206 205 15
3 204 205 206
3 208 207 39
3 40 41 1
3 42 41 40
3 42 5 41
3 17 42 4
3 43 42 17
3 43 5 42
3 43 27 5
3 44 27 43
3 44 209 211
3 211 210 27
3 209 210 211
3 212 45 213
3 46 214 216
3 214 45 215
3 214 215 216
3 46 7 45
3 20 217 219
3 217 46 218
3 217 218 219
3 220 46 221
3 222 221 20
3 220 221 222
3 223 7 224
3 225 224 46
3 223 224 225
3 227 226 7
3 228 47 229
3 230 47 231
3 232 8 233
3 234 233 47
3 232 233 234
3 48 235 236
3 48 237 239
3 237 8 238
3 237 238 239
3 48 30 8
3 49 30 48
3 49 2 30
3 49 50 2
3 51 50 49
3 51 9 50
3 240 51 241
3 242 51 243
3 244 9 245
3 246 245 51
3 244 245 246
3 248 247 9
3 52 249 250
3 52 251 253
3 251 3 252
3 251 252 253
3 52 254 256
3 256 255 3
3 254 255 256
3 53 257 259
3 259 258 52
3 257 258 259
3 53 260 261
3 23 262 264
3 262 53 263
3 262 263 264
3 265 53 266
3 267 266 23
3 265 266 267
3 269 268 53
3 54 270 271
3 54 272 274
3 272 273 274
3 54 275 277
3 275 19 276
3 275 276 277
3 55 19 54
3 55 0 19
3 25 278 279
3 281 280 25
3 41 26 1
3 56 26 41
3 56 282 284
3 284 283 26
3 282 283 284
3 285 56 286
3 287 286 5
3 285 286 287
3 288 56 289
3 291 290 56
3 292 18 293
3 57 294 296
3 294 18 295
3 294 295 296
3 57 6 18
3 28 297 299
3 297 57 298
3 297 298 299
3 58 57 28
3 58 6 57
3 58 44 6
3 59 44 58
3 59 300 302
3 302 301 44
3 300 301 302
3 45 303 305
3 303 29 304
3 303 304 305
3 60 29 45
3 60 10 29
3 306 60 307
3 308 307 7
3 306 307 308
3 61 309 311
3 309 60 310
3 309 310 311
3 61 10 60
3 61 59 10
3 312 59 313
3 314 313 61
3 312 313 314
3 316 315 59
3 47 317 319
3 317 318 319
3 62 320 322
3 322 321 47
3 320 321 322
3 62 323 324
3 31 62 8
3 63 62 31
3 63 325 327
3 327 326 62
3 325 326 327
3 63 328 329
3 331 330 63
3 33 332 334
3 334 333 11
3 332 333 334
3 336 335 33
3 64 337 338
3 64 339 340
3 35 64 12
3 65 64 35
3 65 341 343
3 343 342 64
3 341 342 343
3 65 344 346
3 344 24 345
3 344 345 346
3 66 24 65
3 66 1 24
3 50 36 2
3 67 36 50
3 67 13 36
3 37 67 9
3 68 67 37
3 68 13 67
3 68 66 13
3 69 66 68
3 69 1 66
3 69 40 1
3 70 40 69
3 70 4 40
3 38 70 14
3 71 70 38
3 71 4 70
3 71 16 4
3 347 16 348
3 349 348 71
3 347 348 349
3 351 350 16
3 352 55 353
3 72 354 356
3 354 55 355
3 354 355 356
3 72 0 55
3 357 72 358
3 73 359 361
3 359 72 360
3 359 360 361
3 73 0 72
3 73 22 0
3 74 22 73
3 74 362 364
3 364 363 22
3 362 363 364
3 365 74 366
3 367 366 15
3 365 366 367
3 368 74 369
3 371 370 74
3 373 372 3
