ply
format ascii 1.0
element vertex 73
property float x
property float y
property float z
element face 58
property list uchar int vertex_index
end_header
6.655773 38.4352 -33.075203
8.796366 31.982243 -31.630175
9.027424 38.302338 -33.35778
6.233368 36.456371 -32.526421
7.29686 32.700203 -31.635664
7.534086 35.618519 -32.440895
7.075672 29.403954 -30.789343
8.715685 28.623184 -30.70503
6.528809 41.16338 -33.729805
7.677013 38.461861 -33.210693
5.592566 39.955971 -33.357826
8.901052 35.158146 -32.532127
6.439718 31.538155 -31.297701
6.258382 29.876103 -30.899919
9.579018 29.989601 -31.204417
9.538678 28.310072 -30.741844
8.756025 30.302713 -31.167603
7.145846 41.351711 -33.831669
6.523407 42.803757 -34.063164
6.523407 42.803757 -34.063164
5.917525 42.319981 -33.928314
4.950093 40.850164 -33.524204
5.239349 38.861018 -33.073578
6.765114 34.578287 -32.081042
6.550312 33.186279 -31.720861
6.018566 35.064363 -32.16624
9.714859 36.519267 -33.019989
9.798678 38.143425 -33.404736
6.996781 27.577925 -30.365485
6.258382 29.876103 -30.899919
7.882099 27.203305 -30.294834
6.996781 27.577925 -30.365485
7.186266 31.052079 -31.212503
6.439718 31.538155 -31.297701
6.550312 33.186279 -31.720861
8.702106 26.812919 -30.252678
7.882099 27.203305 -30.294834
7.895679 29.013569 -30.747186
9.58616 26.502384 -30.25823
8.702106 26.812919 -30.252678
9.58616 26.502384 -30.25823
9.538678 28.310072 -30.741844
7.719948 40.000952 -33.572113
7.102911 39.81262 -33.470249
7.145846 41.351711 -33.831669
8.395154 39.92119 -33.645657
8.352218 38.382099 -33.284236
7.719948 40.000952 -33.572113
9.128458 39.901478 -33.690746
8.395154 39.92119 -33.645657
9.899712 39.742565 -33.737702
9.798678 38.143425 -33.404736
9.128458 39.901478 -33.690746
5.449404 41.716276 -33.742325
4.950093 40.850164 -33.524204
6.060688 40.559675 -33.543816
5.449404 41.716276 -33.742325
5.917525 42.319981 -33.928314
5.559749 37.111217 -32.657876
6.018566 35.064363 -32.16624
5.912967 38.206171 -32.942124
5.559749 37.111217 -32.657876
5.239349 38.861018 -33.073578
9.651673 34.94717 -32.607163
8.964238 36.730242 -32.944953
9.714859 36.519267 -33.019989
9.621337 33.293827 -32.146281
9.651673 34.94717 -32.607163
9.568995 31.705875 -31.695305
8.848709 33.570194 -32.081151
9.621337 33.293827 -32.146281
9.579018 29.989601 -31.204417
9.568995 31.705875 -31.695305
3 0 5 3
3 12 6 13
3 1 7 4
3 1 14 16
3 16 15 7
3 14 15 16
3 18 17 8
3 19 8 20
3 21 10 22
3 2 11 9
3 3 23 25
3 23 4 24
3 23 24 25
3 5 4 3
3 5 1 4
3 27 26 2
3 6 28 29
3 6 30 31
3 4 32 34
3 32 6 33
3 32 33 34
3 7 6 4
3 7 35 37
3 37 36 6
3 35 36 37
3 7 38 39
3 41 40 7
3 8 9 0
3 42 9 43
3 44 43 8
3 42 43 44
3 45 2 46
3 47 46 9
3 45 46 47
3 48 2 49
3 52 51 2
3 50 51 52
3 53 10 54
3 8 55 57
3 55 10 56
3 55 56 57
3 8 0 10
3 58 3 59
3 10 60 62
3 60 3 61
3 60 61 62
3 10 0 3
3 9 5 0
3 11 5 9
3 11 1 5
3 63 11 64
3 65 64 2
3 63 64 65
3 66 11 67
3 68 1 69
3 70 69 11
3 68 69 70
3 72 71 1
