ply
format ascii 1.0
element vertex 573
property float x
property float y
property float z
element face 604
property list uchar int vertex_index
end_header
-56.372734 -58.544769 50.801025
-43.988167 -62.895863 47.434593
-40.016655 -84.073975 48.984306
-55.571117 -66.376007 47.787685
-60.184853 -60.245617 46.474487
-51.03627 -60.906868 49.464764
-49.987972 -70.74791 48.404732
-46.980003 -79.979408 47.526886
-59.704243 -51.395832 49.852551
-64.490814 -53.032997 44.206909
-33.277184 -85.583252 47.480282
-56.130814 -62.121929 49.662472
-57.87841 -63.510235 47.192154
-58.273586 -59.405781 49.493336
-54.071205 -59.690575 50.454288
-53.617943 -64.181747 49.423161
-60.502502 -64.706207 38.444283
-51.902527 -73.262314 47.054054
-48.76989 -75.497238 48.121307
-50.094505 -77.380058 45.845947
-61.761833 -47.250565 48.163292
-62.526024 -52.045017 47.694038
-64.431473 -48.097107 45.722828
-37.659943 -79.893646 49.350964
-34.170563 -80.515259 49.257622
-36.519485 -85.251129 48.541912
-54.556 -70.593796 45.775803
-56.922287 -67.556671 44.449211
-59.308525 -64.307449 43.244682
-61.7976 -60.990402 42.211311
-47.628677 -61.975304 48.293869
-47.220993 -67.129433 48.161678
-50.646568 -65.835022 48.842075
-53.014656 -68.794449 48.202717
-41.969482 -86.960114 46.952003
-38.756397 -89.100464 46.812317
-41.419792 -78.805901 49.26865
-45.207745 -77.331078 48.873398
-43.571938 -82.244049 48.634125
-45.020126 -84.194366 45.971603
-54.85593 -55.447693 50.87421
-57.800377 -55.387192 50.694778
-60.385139 -55.912052 48.893517
-62.495579 -56.710407 45.557098
-64.043327 -57.637207 41.189159
-31.088272 -80.663597 49.169453
-30.330414 -85.147995 46.169052
-35.576607 -90.22641 45.515491
-32.578674 -90.161179 43.384155
-56.290867 -60.148129 50.376442
-57.231644 -60.872608 49.626614
-57.262058 -58.956036 50.377106
-55.372849 -59.07365 50.732574
-55.14505 -61.070812 50.254097
-52.492802 -74.026268 45.660149
-51.082893 -75.372604 46.480728
-50.384644 -77.773842 44.001923
-62.76321 -45.203026 47.001526
-63.240185 -47.623722 47.103275
-38.882671 -82.103943 49.317379
-37.082733 -82.603783 49.187782
-38.246681 -84.759613 48.856476
-55.135696 -68.512161 46.775528
-56.314575 -67.079346 46.309311
-59.022556 -61.921558 46.848824
-58.630196 -63.966194 45.367737
-59.820305 -62.318298 44.911583
-60.552296 -62.652233 42.71172
-61.029655 -60.629913 44.458817
-49.370682 -61.46233 48.870979
-49.198463 -63.989853 48.650394
-50.851898 -63.364426 49.145012
-54.674843 -65.41716 48.829433
-53.359158 -66.490135 48.812275
-54.341141 -67.642868 48.022064
-53.889805 -69.843071 47.216797
-41.333878 -89.212784 45.425751
-48.692448 -69.051254 48.427872
-48.281097 -71.559143 48.444229
-47.93079 -77.774017 47.904022
-47.031845 -76.460632 48.540962
-46.208954 -78.835938 48.460945
-44.416756 -79.808167 48.889561
-45.305 -81.156639 48.166069
-44.384945 -83.422714 47.565117
-45.98262 -82.117332 46.905846
-58.715637 -53.435043 50.374199
-59.141815 -55.602413 50.005325
-60.163078 -53.671982 49.578838
-63.62516 -52.503944 46.088623
-62.603329 -54.411293 46.819206
-63.557819 -54.884037 44.952911
-63.340778 -57.168144 43.465122
-64.323425 -55.399906 42.853668
-33.708439 -83.101776 48.641911
-32.577461 -80.642166 49.20163
-32.158649 -83.100769 48.291557
-30.693533 -82.965225 47.941017
-31.77322 -85.440887 46.82679
-38.289448 -91.455414 44.906006
-37.148991 -89.810745 46.297565
-36.754951 -92.150116 44.157791
-33.767883 -92.535812 41.891705
-31.133974 -89.764938 42.203979
-55.894836 -64.227859 48.771553
-56.738129 -64.997307 47.507481
-57.044411 -62.910248 48.640263
-58.155602 -61.447586 48.441597
-59.262276 -59.838264 48.176479
-52.610275 -60.311886 50.012794
-52.40139 -62.668964 49.607189
-53.8377 -61.904087 49.989906
-54.929981 -63.208565 49.59473
-59.146561 -66.310852 39.133682
-51.065952 -72.16391 47.968483
-49.458801 -73.151711 48.264088
-50.398193 -74.433449 47.621979
-49.560577 -76.620972 47.236771
-48.580551 -78.720062 46.743385
-47.517784 -80.735077 46.066963
-48.985424 -79.285866 45.086037
-60.731342 -49.322598 49.116772
-61.210079 -51.672428 48.962357
-62.247337 -49.646626 48.13929
-63.52504 -50.069565 46.811104
-64.533997 -50.582203 45.175392
-34.643471 -77.857727 49.429268
-35.868954 -80.266663 49.315147
-35.351784 -82.939011 48.952541
-34.858685 -85.526947 48.069359
-57.467609 -65.558701 45.83535
-58.098267 -65.947754 43.824097
-58.65078 -66.192352 41.561119
-59.927937 -64.552094 40.910156
-61.227203 -62.927521 40.33276
-45.827072 -62.450043 47.795418
-45.630295 -65.052063 47.770889
-47.452118 -64.549377 48.174759
-48.986404 -66.523438 48.494766
-50.372894 -68.302521 48.591393
-52.191055 -65.055923 49.163265
-51.928726 -67.450897 48.727451
-51.56723 -69.828743 48.328281
-52.540863 -71.061783 47.617874
-53.282803 -71.981026 46.432369
-41.046577 -85.714386 48.216984
-39.344307 -86.630981 48.168331
-40.372772 -88.133331 47.031799
-39.825584 -90.458252 45.332649
-39.520134 -79.402985 49.34219
-40.724895 -81.457588 49.318432
-42.579479 -80.686104 49.177147
-41.801033 -83.225021 48.910557
-42.734352 -84.631851 48.010971
-43.523197 -85.632477 46.588596
-55.759266 -57.211555 50.967381
-56.995094 -57.162827 50.83112
-56.374363 -55.323521 50.967262
-57.149986 -53.312218 50.764809
-58.042801 -51.222229 50.354694
-59.018372 -49.099373 49.728043
-60.042957 -46.978683 48.88343
-61.082977 -44.884567 47.831924
-47.790192 -59.412556 48.481796
-49.548004 -58.949535 49.112713
-51.248581 -58.473495 49.752522
-52.871845 -57.996964 50.327393
-54.389008 -57.551704 50.76025
-58.174026 -57.398384 50.263645
-59.315754 -57.732121 49.255733
-60.38311 -58.10614 47.833801
-61.466644 -54.002399 48.38147
-61.508118 -56.286629 47.391075
-61.354446 -58.502281 46.053055
-62.222015 -58.91161 43.987541
-62.985558 -59.321243 41.716087
-65.117599 -53.606079 42.116234
-64.901779 -55.928215 40.589714
-33.016716 -78.090179 49.639072
-31.509012 -78.252594 49.910843
-30.110617 -78.363602 50.248383
-37.655235 -87.338974 47.86578
-36.006763 -87.80159 47.328552
-34.418724 -87.998917 46.595352
-35.24519 -92.509598 43.129345
-34.053825 -90.335526 44.519135
-32.897068 -87.937561 45.723034
-31.431889 -87.656494 44.783478
-43.873213 -64.203322 47.462244
-43.064469 -63.110598 47.349518
-52.004548 -74.992542 45.263517
-52.671701 -74.242333 44.749947
-63.461725 -45.413055 46.431196
-63.235708 -44.198279 46.327665
-37.356188 -92.913483 43.322395
-37.522199 -91.802765 44.531898
-38.123436 -92.566132 43.696503
-60.053103 -65.508422 37.529415
-59.375132 -66.310745 37.874115
-59.824531 -65.50853 38.788983
-49.775835 -78.628472 43.50465
-50.422635 -77.798313 42.897591
-36.764449 -80.080154 49.333056
-36.126408 -78.906425 49.293806
-37.021902 -78.719917 49.311714
-54.793255 -70.826546 44.855229
-54.178022 -71.589325 45.288802
-56.57251 -68.512718 43.768802
-56.33867 -68.334709 44.778011
-57.170513 -67.69733 43.369782
-56.57251 -68.512718 43.768802
-62.145432 -61.153664 41.01049
-61.860233 -62.122223 40.071214
-61.512402 -61.958962 41.272036
-54.178022 -71.589325 45.288802
-53.541424 -72.28294 45.617085
-53.919401 -71.287411 46.104086
-40.343864 -90.915039 44.38599
-40.579731 -89.835518 45.3792
-41.098011 -90.292305 44.432541
-39.627279 -91.563172 44.23649
-40.343864 -90.915039 44.38599
-40.469963 -79.104443 49.30542
-39.821462 -78.043095 49.199067
-40.771292 -77.744553 49.162296
-46.295765 -67.397294 48.023497
-45.500416 -66.358609 47.828102
-46.425644 -66.090748 47.966284
-48.249477 -74.765015 48.313181
-48.593933 -73.592251 48.384571
-49.114345 -74.324475 48.192698
-45.553267 -76.074345 48.784472
-46.465317 -75.639122 48.618254
-46.119795 -76.895855 48.70718
-44.602854 -76.423801 48.858179
-45.553267 -76.074345 48.784472
-44.267145 -77.722081 48.994326
-44.602854 -76.423801 48.858179
-44.596954 -85.204559 45.325708
-43.848489 -85.923614 45.634205
-44.271662 -84.913421 46.2801
-46.987123 -81.706547 45.603523
-47.67689 -80.919433 45.102142
-56.706186 -52.234318 50.63015
-56.318554 -53.31667 50.776106
-57.152593 -51.189324 50.425093
-57.596393 -52.267224 50.559752
-56.706186 -52.234318 50.63015
-58.578875 -47.950943 49.501925
-58.087177 -49.037033 49.859905
-59.091167 -46.890598 49.079618
-59.530665 -48.039028 49.305736
-58.578875 -47.950943 49.501925
-60.666161 -43.725051 47.548924
-60.132156 -44.773035 48.095468
-61.594928 -43.858139 47.214834
-60.666161 -43.725051 47.548924
-47.884568 -58.138663 48.584463
-46.9781 -58.348465 48.303854
-48.763474 -57.907152 48.899922
-48.669098 -59.181045 48.797255
-47.884568 -58.138663 48.584463
-51.39234 -57.270899 49.855093
-50.512064 -57.465265 49.538048
-52.203972 -57.032633 50.142528
-52.060213 -58.23523 50.039957
-51.39234 -57.270899 49.855093
-54.622469 -56.499699 50.81723
-53.813546 -56.635038 50.632597
-54.047007 -55.583033 50.689577
-63.845688 -58.67276 40.249285
-63.316803 -59.514778 40.512749
-63.514443 -58.479225 41.452623
-65.314937 -53.896076 40.997425
-65.405532 -52.696666 41.669168
-65.207028 -55.057144 40.234165
-65.009689 -54.767147 41.352974
-65.314937 -53.896076 40.997425
-30.387571 -80.637401 49.175938
-29.898744 -79.487404 49.715403
-30.599445 -79.513599 49.708918
-29.810678 -83.946747 46.900842
-29.992237 -82.855362 47.786825
-30.511973 -84.05661 47.055035
-29.626335 -84.96302 45.870705
-29.810678 -83.946747 46.900842
-35.124382 -93.581612 41.690295
-35.860754 -93.427819 42.316839
-30.567315 -88.496116 43.03165
-30.413987 -89.504089 41.643623
-60.77251 -64.734642 37.176811
-61.177671 -63.921014 38.145318
-51.299593 -75.66571 45.673807
-51.787847 -74.699436 46.070438
-52.004548 -74.992542 45.263517
-50.805399 -76.669438 45.356417
-50.588699 -76.376331 46.163337
-51.299593 -75.66571 45.673807
-50.950468 -76.86633 44.434404
-50.239575 -77.57695 44.923935
-50.805399 -76.669438 45.356417
-51.052433 -76.988018 43.427736
-50.950468 -76.86633 44.434404
-50.422635 -77.798313 42.897591
-51.052433 -76.988018 43.427736
-63.700212 -46.623404 46.482071
-63.001697 -46.413374 47.0524
-63.461725 -45.413055 46.431196
-64.295856 -46.860096 45.791848
-63.835829 -47.860415 46.413051
-63.700212 -46.623404 46.482071
-55.445375 -68.812454 45.94117
-55.155527 -69.853272 45.441308
-54.845848 -69.552978 46.275666
-56.034814 -68.096046 45.708061
-55.445375 -68.812454 45.94117
-55.725136 -67.795754 46.54242
-56.618431 -67.318008 45.379261
-56.33867 -68.334709 44.778011
-56.034814 -68.096046 45.708061
-42.061113 -88.496231 45.311818
-41.65168 -88.086449 46.188877
-42.378915 -87.369896 46.074944
-41.780838 -89.533066 44.407246
-42.061113 -88.496231 45.311818
-41.098011 -90.292305 44.432541
-41.780838 -89.533066 44.407246
-41.740261 -77.471562 49.113428
-40.771292 -77.744553 49.162296
-47.796539 -69.379383 48.346741
-47.060812 -68.418473 48.213644
-47.956721 -68.090344 48.294775
-47.590864 -70.633328 48.35492
-47.796539 -69.379383 48.346741
-48.486773 -70.305199 48.436051
-47.372783 -71.91639 48.453741
-47.590864 -70.633328 48.35492
-55.171526 -54.384407 50.830806
-54.299736 -54.451964 50.694099
-54.299736 -54.451964 50.694099
-54.047007 -55.583033 50.689577
-33.653602 -93.577766 40.355303
-34.385728 -93.594718 41.071475
-33.040613 -92.404221 41.216444
-33.653602 -93.577766 40.355303
-32.446009 -91.216904 41.962669
-33.173278 -91.348496 42.63793
-33.040613 -92.404221 41.216444
-31.723658 -91.018783 41.372581
-31.856324 -89.963059 42.794067
-32.446009 -91.216904 41.962669
-30.996827 -90.785385 40.698206
-31.723658 -91.018783 41.372581
-30.413987 -89.504089 41.643623
-30.996827 -90.785385 40.698206
-58.666737 -67.110039 38.283752
-58.489036 -67.130047 39.528996
-58.666737 -67.110039 38.283752
-59.375132 -66.310745 37.874115
-60.053103 -65.508422 37.529415
-60.77251 -64.734642 37.176811
-48.410709 -80.194828 44.611679
-47.67689 -80.919433 45.102142
-48.251604 -80.010471 45.5765
-49.076225 -79.384484 44.046707
-49.685034 -78.529854 44.54398
-49.775835 -78.628472 43.50465
-48.410709 -80.194828 44.611679
-49.076225 -79.384484 44.046707
-35.513666 -77.701957 49.350866
-34.878563 -76.512535 49.360267
-35.256213 -79.062195 49.372208
-35.513666 -77.701957 49.350866
-36.126408 -78.906425 49.293806
-54.793255 -70.826546 44.855229
-55.155527 -69.853272 45.441308
-57.758503 -66.892872 43.057225
-57.170513 -67.69733 43.369782
-57.510277 -66.752212 44.136654
-58.034759 -67.015171 41.925736
-57.758503 -66.892872 43.057225
-58.374523 -66.070053 42.692608
-58.241146 -67.070797 40.742714
-58.034759 -67.015171 41.925736
-58.89867 -66.251602 40.3474
-58.489036 -67.130047 39.528996
-58.241146 -67.070797 40.742714
-61.540022 -63.031672 39.089556
-61.177671 -63.921014 38.145318
-60.864852 -63.816864 39.388521
-61.540022 -63.031672 39.089556
-61.860233 -62.122223 40.071214
-53.146423 -73.305561 45.230975
-52.887802 -73.003647 46.046259
-53.541424 -72.28294 45.617085
-52.671701 -74.242333 44.749947
-53.146423 -73.305561 45.230975
-38.859211 -92.061753 44.023168
-39.057516 -90.956833 45.119327
-39.627279 -91.563172 44.23649
-38.123436 -92.566132 43.696503
-38.859211 -92.061753 44.023168
-37.939724 -78.523758 49.252566
-37.021902 -78.719917 49.311714
-38.869819 -78.278427 49.248179
-39.821462 -78.043095 49.199067
-38.590038 -79.648315 49.346577
-37.939724 -78.523758 49.252566
-38.869819 -78.278427 49.248179
-44.694277 -65.281421 47.630392
-43.873213 -64.203322 47.462244
-44.809231 -63.973963 47.602741
-44.694277 -65.281421 47.630392
-45.500416 -66.358609 47.828102
-46.295765 -67.397294 48.023497
-47.060812 -68.418473 48.213644
-48.005081 -72.795967 48.474642
-48.869949 -72.355427 48.354158
-48.593933 -73.592251 48.384571
-47.372783 -71.91639 48.453741
-48.005081 -72.795967 48.474642
-47.380455 -75.246712 48.523008
-48.249477 -74.765015 48.313181
-47.900867 -75.978935 48.331135
-47.380455 -75.246712 48.523008
-46.465317 -75.639122 48.618254
-42.373169 -78.459492 49.191952
-41.740261 -77.471562 49.113428
-43.871651 -78.960625 49.002407
-44.267145 -77.722081 48.994326
-44.812251 -78.569623 48.881479
-42.953012 -79.399594 49.1462
-43.871651 -78.960625 49.002407
-43.498117 -80.247135 49.033354
-41.999635 -79.746003 49.222898
-42.373169 -78.459492 49.191952
-42.953012 -79.399594 49.1462
-43.155773 -86.706077 45.89324
-42.378915 -87.369896 46.074944
-42.74634 -86.296295 46.7703
-43.155773 -86.706077 45.89324
-43.848489 -85.923614 45.634205
-46.219541 -82.397674 46.022965
-46.750202 -81.426205 46.486404
-46.987123 -81.706547 45.603523
-45.738294 -83.436192 45.555843
-45.501373 -83.155849 46.438724
-46.219541 -82.397674 46.022965
-45.25452 -84.378464 44.942728
-45.738294 -83.436192 45.555843
-44.596954 -85.204559 45.325708
-45.25452 -84.378464 44.942728
-55.930743 -54.322321 50.877332
-55.615147 -55.385607 50.920736
-55.171526 -54.384407 50.830806
-56.762175 -54.31787 50.866035
-55.930743 -54.322321 50.877332
-56.318554 -53.31667 50.776106
-57.599392 -50.098461 50.173231
-57.152593 -51.189324 50.425093
-58.530586 -50.160801 50.041369
-57.599392 -50.098461 50.173231
-58.087177 -49.037033 49.859905
-59.612146 -45.820093 48.621221
-59.091167 -46.890598 49.079618
-60.562967 -45.931625 48.357677
-59.612146 -45.820093 48.621221
-60.132156 -44.773035 48.095468
-62.435045 -44.017369 46.799635
-61.923094 -45.043796 47.416725
-61.594928 -43.858139 47.214834
-63.235708 -44.198279 46.327665
-62.435045 -44.017369 46.799635
-43.178633 -61.815973 47.376156
-43.064469 -63.110598 47.349518
-44.082847 -61.597441 47.478638
-43.178633 -61.815973 47.376156
-45.0023 -61.374531 47.65905
-44.907619 -62.672953 47.615005
-44.082847 -61.597441 47.478638
-45.910103 -61.155413 47.862726
-45.0023 -61.374531 47.65905
-46.810906 -60.918043 48.111952
-46.727874 -62.212674 48.044643
-45.910103 -61.155413 47.862726
-46.891663 -59.636669 48.205916
-46.9781 -58.348465 48.303854
-47.709435 -60.69393 48.387833
-46.810906 -60.918043 48.111952
-46.891663 -59.636669 48.205916
-49.661776 -57.703285 49.218143
-48.763474 -57.907152 48.899922
-50.398292 -58.711515 49.432617
-49.661776 -57.703285 49.218143
-50.512064 -57.465265 49.538048
-53.054964 -56.857668 50.416168
-52.203972 -57.032633 50.142528
-53.630426 -57.774334 50.543821
-53.054964 -56.857668 50.416168
-53.813546 -56.635038 50.632597
-62.73941 -60.319084 40.762878
-62.145432 -61.153664 41.01049
-62.391579 -60.155822 41.963699
-62.73941 -60.319084 40.762878
-63.316803 -59.514778 40.512749
-64.827934 -47.119575 45.077416
-64.295856 -46.860096 45.791848
-64.867424 -48.378269 44.894308
-64.827934 -47.119575 45.077416
-64.918686 -49.620817 44.62059
-64.482735 -49.339655 45.44911
-64.867424 -48.378269 44.894308
-64.895676 -50.873648 44.233425
-64.918686 -49.620817 44.62059
-64.874085 -52.099045 43.749184
-64.512405 -51.8076 44.691151
-64.895676 -50.873648 44.233425
-65.187477 -52.385586 42.703846
-65.405532 -52.696666 41.669168
-64.804206 -53.319538 43.161572
-64.874085 -52.099045 43.749184
-65.187477 -52.385586 42.703846
-65.102513 -56.177799 39.403444
-65.207028 -55.057144 40.234165
-64.754845 -57.006199 39.691166
-65.102513 -56.177799 39.403444
-64.325619 -57.860695 39.990888
-64.472553 -56.782711 40.889437
-64.754845 -57.006199 39.691166
-63.845688 -58.67276 40.249285
-64.325619 -57.860695 39.990888
-34.055693 -76.669525 49.577675
-34.878563 -76.512535 49.360267
-33.242316 -76.785751 49.682577
-34.055693 -76.669525 49.577675
-33.830094 -77.973953 49.53417
-32.4847 -76.925479 49.953975
-33.242316 -76.785751 49.682577
-31.730848 -77.006687 50.089861
-32.4847 -76.925479 49.953975
-32.262864 -78.171387 49.774957
-31.036566 -77.13467 50.410363
-31.730848 -77.006687 50.089861
-30.337368 -77.190174 50.579133
-31.036566 -77.13467 50.410363
-30.809815 -78.308098 50.079613
-29.69662 -77.314743 50.940638
-30.337368 -77.190174 50.579133
-29.453997 -78.407875 50.450453
-29.69662 -77.314743 50.940638
-29.453997 -78.407875 50.450453
-29.898744 -79.487404 49.715403
-30.190202 -81.788216 48.56172
-30.387571 -80.637401 49.175938
-30.890902 -81.814411 48.555235
-30.190202 -81.788216 48.56172
-29.992237 -82.855362 47.786825
-36.615634 -93.248077 42.831062
-37.356188 -92.913483 43.322395
-36.00007 -92.329857 43.643568
-36.615634 -93.248077 42.831062
-35.860754 -93.427819 42.316839
-34.506536 -92.522705 42.510525
-35.124382 -93.581612 41.690295
-34.385728 -93.594718 41.071475
-30.716273 -87.441894 44.3214
-31.282932 -88.710716 43.493729
-30.567315 -88.496116 43.03165
-30.165535 -86.187645 45.014187
-30.881152 -86.402244 45.476265
-30.716273 -87.441894 44.3214
-29.626335 -84.96302 45.870705
-30.165535 -86.187645 45.014187
3 0 51 49
3 0 49 52
3 1 188 189
3 191 190 54
3 193 192 57
3 2 61 59
3 3 63 62
3 4 66 64
3 4 68 66
3 5 71 69
3 3 74 72
3 3 62 74
3 6 78 77
3 7 81 79
3 7 83 81
3 7 85 83
3 8 88 86
3 9 91 89
3 9 93 91
3 10 96 94
3 10 98 96
3 194 101 195
3 196 195 99
3 194 195 196
3 11 106 104
3 13 107 50
3 13 108 107
3 14 111 109
3 11 112 53
3 11 104 112
3 16 197 199
3 199 198 113
3 197 198 199
3 17 116 114
3 19 117 55
3 19 118 117
3 19 120 118
3 201 200 56
3 20 123 121
3 22 124 58
3 22 125 124
3 23 202 204
3 202 127 203
3 202 203 204
3 25 128 60
3 25 129 128
3 26 205 206
3 27 207 208
3 27 209 210
3 12 130 105
3 28 131 65
3 28 132 131
3 28 133 132
3 29 134 67
3 29 211 213
3 213 212 134
3 211 212 213
3 30 137 135
3 32 138 70
3 32 139 138
3 15 140 110
3 33 141 73
3 33 142 141
3 33 143 142
3 26 144 75
3 26 214 216
3 216 215 144
3 214 215 216
3 34 147 145
3 217 148 218
3 219 218 76
3 217 218 219
3 221 220 148
3 36 222 224
3 222 149 223
3 222 223 224
3 36 150 149
3 31 225 227
3 227 226 136
3 225 226 227
3 18 228 230
3 230 229 115
3 228 229 230
3 37 231 233
3 233 232 80
3 231 232 233
3 37 234 235
3 37 236 237
3 38 151 82
3 38 152 151
3 38 153 152
3 39 154 84
3 39 238 240
3 240 239 154
3 238 239 240
3 242 241 119
3 40 157 155
3 243 158 244
3 245 159 246
3 247 246 158
3 245 246 247
3 248 160 249
3 250 161 251
3 252 251 160
3 250 251 252
3 253 162 254
3 256 255 162
3 257 163 258
3 259 164 260
3 261 260 163
3 259 260 261
3 262 165 263
3 264 166 265
3 266 265 165
3 264 265 266
3 40 267 269
3 267 167 268
3 267 268 269
3 40 155 167
3 41 168 156
3 42 169 87
3 42 170 169
3 21 171 122
3 43 172 90
3 43 173 172
3 43 174 173
3 44 175 92
3 44 270 272
3 272 271 175
3 270 271 272
3 273 176 274
3 275 177 276
3 277 276 176
3 275 276 277
3 24 178 126
3 45 179 95
3 45 180 179
3 45 278 280
3 280 279 180
3 278 279 280
3 46 281 283
3 283 282 97
3 281 282 283
3 46 284 285
3 35 181 146
3 47 182 100
3 47 183 182
3 286 184 287
3 48 185 102
3 48 186 185
3 48 187 186
3 289 288 103
3 49 50 11
3 51 50 49
3 51 13 50
3 52 53 14
3 49 53 52
3 49 11 53
3 291 290 16
3 54 55 17
3 292 55 293
3 294 293 54
3 292 293 294
3 295 19 296
3 297 296 55
3 295 296 297
3 298 56 299
3 300 299 19
3 298 299 300
3 301 56 302
3 304 303 56
3 57 58 20
3 305 58 306
3 307 306 57
3 305 306 307
3 308 22 309
3 310 309 58
3 308 309 310
3 59 60 23
3 61 60 59
3 61 25 60
3 62 311 313
3 313 312 26
3 311 312 313
3 63 314 316
3 316 315 62
3 314 315 316
3 63 317 319
3 317 27 318
3 317 318 319
3 64 65 12
3 66 65 64
3 66 28 65
3 66 67 28
3 68 67 66
3 68 29 67
3 69 70 30
3 71 70 69
3 71 32 70
3 72 73 15
3 74 73 72
3 74 33 73
3 74 75 33
3 62 75 74
3 62 26 75
3 320 76 321
3 322 321 34
3 320 321 322
3 323 76 324
3 326 325 76
3 327 36 328
3 77 329 331
3 331 330 31
3 329 330 331
3 78 332 334
3 334 333 77
3 332 333 334
3 78 335 336
3 79 80 18
3 81 80 79
3 81 37 80
3 81 82 37
3 83 82 81
3 83 38 82
3 83 84 38
3 85 84 83
3 85 39 84
3 338 337 40
3 339 40 340
3 86 87 41
3 88 87 86
3 88 42 87
3 89 90 21
3 91 90 89
3 91 43 90
3 91 92 43
3 93 92 91
3 93 44 92
3 94 95 24
3 96 95 94
3 96 45 95
3 96 97 45
3 98 97 96
3 98 46 97
3 99 100 35
3 101 100 99
3 101 47 100
3 341 102 342
3 343 102 344
3 345 48 346
3 347 346 102
3 345 346 347
3 348 103 349
3 350 349 48
3 348 349 350
3 351 103 352
3 354 353 103
3 104 105 3
3 106 105 104
3 106 12 105
3 50 106 11
3 107 106 50
3 107 12 106
3 107 64 12
3 108 64 107
3 108 4 64
3 109 110 5
3 111 110 109
3 111 15 110
3 53 111 14
3 112 111 53
3 112 15 111
3 112 72 15
3 104 72 112
3 104 3 72
3 113 355 356
3 358 357 113
3 360 359 16
3 114 115 6
3 116 115 114
3 116 18 115
3 55 116 17
3 117 116 55
3 117 18 116
3 117 79 18
3 118 79 117
3 118 7 79
3 118 119 7
3 120 119 118
3 120 361 363
3 363 362 119
3 361 362 363
3 56 120 19
3 364 120 365
3 366 365 56
3 364 365 366
3 368 367 120
3 121 122 8
3 123 122 121
3 123 21 122
3 58 123 20
3 124 123 58
3 124 21 123
3 124 89 21
3 125 89 124
3 125 9 89
3 369 126 370
3 127 371 373
3 371 126 372
3 371 372 373
3 127 24 126
3 60 127 23
3 128 127 60
3 128 24 127
3 128 94 24
3 129 94 128
3 129 10 94
3 375 374 26
3 105 63 3
3 130 63 105
3 130 27 63
3 65 130 12
3 131 130 65
3 131 27 130
3 131 376 378
3 378 377 27
3 376 377 378
3 132 379 381
3 381 380 131
3 379 380 381
3 132 382 383
3 132 384 386
3 384 113 385
3 384 385 386
3 133 113 132
3 133 16 113
3 67 133 28
3 134 133 67
3 134 16 133
3 134 387 389
3 389 388 16
3 387 388 389
3 391 390 134
3 135 136 1
3 137 136 135
3 137 31 136
3 70 137 30
3 138 137 70
3 138 31 137
3 138 77 31
3 139 77 138
3 139 6 77
3 110 71 5
3 140 71 110
3 140 32 71
3 73 140 15
3 141 140 73
3 141 32 140
3 141 139 32
3 142 139 141
3 142 6 139
3 142 114 6
3 143 114 142
3 143 17 114
3 75 143 33
3 144 143 75
3 144 17 143
3 144 54 17
3 392 54 393
3 394 393 144
3 392 393 394
3 396 395 54
3 145 146 2
3 147 146 145
3 147 35 146
3 76 147 34
3 148 147 76
3 148 35 147
3 148 99 35
3 397 99 398
3 399 398 148
3 397 398 399
3 401 400 99
3 402 23 403
3 149 404 405
3 149 406 408
3 406 23 407
3 406 407 408
3 149 59 23
3 150 59 149
3 150 2 59
3 136 409 411
3 411 410 1
3 409 410 411
3 413 412 136
3 415 414 31
3 115 78 6
3 416 78 417
3 418 417 115
3 416 417 418
3 420 419 78
3 80 421 423
3 423 422 18
3 421 422 423
3 425 424 80
3 426 36 427
3 82 428 430
3 430 429 37
3 428 429 430
3 151 431 433
3 433 432 82
3 431 432 433
3 151 434 436
3 434 36 435
3 434 435 436
3 151 150 36
3 152 150 151
3 152 2 150
3 152 145 2
3 153 145 152
3 153 34 145
3 84 153 38
3 154 153 84
3 154 34 153
3 154 437 439
3 439 438 34
3 437 438 439
3 441 440 154
3 119 85 7
3 442 85 443
3 444 443 119
3 442 443 444
3 445 39 446
3 447 446 85
3 445 446 447
3 448 39 449
3 451 450 39
3 155 156 0
3 157 156 155
3 157 41 156
3 452 157 453
3 454 453 40
3 452 453 454
3 158 455 457
3 455 157 456
3 455 456 457
3 158 41 157
3 158 86 41
3 159 86 158
3 159 8 86
3 458 159 459
3 160 460 462
3 460 159 461
3 460 461 462
3 160 8 159
3 160 121 8
3 161 121 160
3 161 20 121
3 463 161 464
3 162 465 467
3 465 161 466
3 465 466 467
3 162 20 161
3 162 57 20
3 468 57 469
3 470 469 162
3 468 469 470
3 472 471 57
3 473 1 474
3 475 1 476
3 477 135 478
3 479 478 1
3 477 478 479
3 480 135 481
3 482 30 483
3 484 483 135
3 482 483 484
3 163 485 486
3 163 487 489
3 487 30 488
3 487 488 489
3 163 69 30
3 164 69 163
3 164 5 69
3 490 164 491
3 165 492 494
3 492 164 493
3 492 493 494
3 165 5 164
3 165 109 5
3 166 109 165
3 166 14 109
3 495 166 496
3 167 497 499
3 497 166 498
3 497 498 499
3 167 14 166
3 167 52 14
3 155 52 167
3 155 0 52
3 156 51 0
3 168 51 156
3 168 13 51
3 87 168 41
3 169 168 87
3 169 13 168
3 169 108 13
3 170 108 169
3 170 4 108
3 122 88 8
3 171 88 122
3 171 42 88
3 90 171 21
3 172 171 90
3 172 42 171
3 172 170 42
3 173 170 172
3 173 4 170
3 173 68 4
3 174 68 173
3 174 29 68
3 92 174 43
3 175 174 92
3 175 29 174
3 175 500 502
3 502 501 29
3 500 501 502
3 504 503 175
3 505 22 506
3 507 22 508
3 509 125 510
3 511 510 22
3 509 510 511
3 512 125 513
3 514 9 515
3 516 515 125
3 514 515 516
3 176 517 518
3 176 519 521
3 519 9 520
3 519 520 521
3 176 93 9
3 177 93 176
3 177 44 93
3 522 177 523
3 524 177 525
3 526 44 527
3 528 527 177
3 526 527 528
3 530 529 44
3 126 531 532
3 178 533 535
3 535 534 126
3 533 534 535
3 178 536 537
3 95 178 24
3 179 178 95
3 179 538 540
3 540 539 178
3 538 539 540
3 179 541 542
3 180 543 545
3 545 544 179
3 543 544 545
3 180 546 547
3 180 548 549
3 551 550 180
3 97 552 554
3 554 553 45
3 552 553 554
3 556 555 97
3 146 61 2
3 181 61 146
3 181 25 61
3 100 181 35
3 182 181 100
3 182 25 181
3 182 129 25
3 183 129 182
3 183 10 129
3 557 101 558
3 184 559 561
3 559 101 560
3 559 560 561
3 184 47 101
3 102 562 564
3 562 184 563
3 562 563 564
3 185 184 102
3 185 47 184
3 185 183 47
3 186 183 185
3 186 10 183
3 186 98 10
3 187 98 186
3 187 46 98
3 103 187 48
3 565 187 566
3 567 566 103
3 565 566 567
3 568 46 569
3 570 569 187
3 568 569 570
3 572 571 46
