ply
format ascii 1.0
element vertex 379
property float x
property float y
property float z
element face 395
property list uchar int vertex_index
end_header
31.830742 32.267654 57.599022
41.602715 28.147312 47.305573
44.648949 52.900566 28.089344
33.521976 42.330093 50.433167
39.96909 39.689045 46.100708
38.768085 31.851524 55.085793
37.016335 20.778332 61.015808
42.800831 45.874969 37.1213
42.665787 19.714642 55.656502
32.754425 37.741081 54.353607
36.406982 37.379368 53.223007
35.681694 32.4333 57.042152
40.957127 34.181957 47.082581
41.788704 37.522495 42.5112
41.669304 31.75206 42.74926
40.31358 20.617443 59.062683
38.150303 44.595505 44.236885
37.123756 41.360439 48.836754
39.231331 36.173855 50.730858
40.732979 30.352982 51.681137
34.604614 26.655514 59.894485
44.129601 49.270706 32.71431
44.870388 44.116913 33.905457
41.224266 42.769024 41.533501
43.253582 40.737595 38.157658
38.135414 26.645126 58.667984
40.682606 25.82151 55.858452
42.12991 24.169994 51.770729
30.295855 34.952873 56.150902
30.748058 37.697689 54.529388
32.3288 35.101204 56.07618
34.273289 35.147263 55.805901
33.821449 32.418476 57.460297
41.269619 31.211796 47.277161
41.415874 32.994823 44.973583
41.532097 29.984612 45.014
41.663536 28.72406 42.665955
41.773361 26.914848 44.926552
45.457153 50.321564 28.844654
33.932755 44.273724 48.295395
35.825089 43.735325 47.554192
35.395676 41.934608 49.782715
37.658669 34.692589 54.28566
37.945461 36.887592 52.146446
38.992409 34.12635 52.971382
40.038765 33.334549 51.322838
39.90052 31.211594 53.540878
42.064461 48.327629 36.259468
42.735126 50.008789 34.042961
43.537132 47.53331 34.932106
44.683399 46.720718 33.415848
43.99268 44.999802 35.594986
39.170837 42.209087 45.282204
39.798649 43.72258 42.981613
40.532887 41.253193 43.796997
42.30899 36.360718 40.505173
42.46183 39.122993 40.307587
43.029701 38.022797 38.365562
43.857822 39.714241 36.271839
35.841434 23.734074 60.615433
36.469479 26.736687 59.473312
37.64431 23.772091 60.01326
41.609318 20.260132 57.518997
40.561104 23.292591 57.61264
41.62273 22.743225 55.859398
41.531826 25.085781 53.938805
42.43409 22.003372 53.818817
43.535149 20.129368 49.176231
43.408558 57.225021 24.826912
43.593399 55.401848 27.208395
31.155365 40.246456 52.747688
33.140316 40.155323 52.46228
35.01931 39.915573 51.926071
34.65913 37.653378 53.947205
36.069267 35.026245 55.228752
37.348965 32.255886 56.260132
41.302544 46.733582 38.476002
40.550594 37.01421 46.69677
41.015007 38.646816 44.38953
41.282738 35.891857 44.774445
41.76054 34.697716 42.708656
42.039482 33.480167 40.541939
38.181889 17.840572 61.120491
38.774578 20.784012 60.235352
39.921906 17.831512 60.182976
37.586334 43.044563 46.545418
38.6618 40.605385 47.598495
36.74292 39.48526 51.0765
38.263878 38.848354 49.900452
39.542171 38.014503 48.424126
40.236893 35.258743 49.022377
40.790264 32.347305 49.401634
41.283306 29.313786 49.578438
31.235613 29.2841 58.896164
33.271137 29.505123 58.87133
32.603699 26.455185 60.01152
43.539146 53.576126 29.53075
43.244198 51.767548 31.805447
44.512398 51.069077 30.439949
45.188904 48.502396 31.175476
45.514374 45.890038 31.721657
40.524921 45.211632 40.71262
42.002556 44.294792 39.312981
41.635311 40.21167 42.127468
42.382462 41.764137 39.918259
43.195812 43.350437 37.750092
44.087029 42.397743 36.036423
35.202763 29.628716 58.611748
36.96545 29.592651 58.008316
38.499153 29.350628 57.007095
39.230667 23.633774 59.01152
39.550079 26.344578 57.454491
39.75787 28.878872 55.608864
40.719944 28.178947 53.857407
41.394997 27.275967 51.821358
41.826408 26.214951 49.577492
43.517384 19.006199 53.543648
43.045822 21.112816 51.566811
42.541443 23.125759 49.431091
42.08939 25.054958 47.19812
31.063299 33.610264 56.874962
30.034253 33.501533 56.871285
30.801697 32.158924 57.595344
45.06176 52.526268 27.247986
44.594031 53.820045 26.870331
45.053051 51.611065 28.466999
45.465862 51.236767 27.625641
45.06176 52.526268 27.247986
32.736464 43.501628 49.611317
32.534444 42.452004 50.630371
33.727366 43.301908 49.364281
32.941854 44.473444 48.542431
32.736464 43.501628 49.611317
42.830608 36.611515 38.384784
42.669346 37.191757 39.435367
42.470253 35.780475 39.45459
43.21389 37.480598 37.346431
42.830608 36.611515 38.384784
42.895583 57.493786 25.533276
42.78343 58.372284 24.406172
42.988003 56.582199 26.724018
43.500979 56.313434 26.017654
42.895583 57.493786 25.533276
40.424847 47.149738 39.066313
40.803893 47.918831 37.938406
41.737125 31.128327 41.601219
41.922214 31.99238 40.497558
41.854393 32.616113 41.6456
41.718407 28.10355 41.470793
41.78219 27.200947 42.579442
39.657619 16.40423 60.589187
39.051897 17.836042 60.651733
38.787611 16.40876 61.057945
30.883851 27.741352 59.425808
30.197855 29.159098 58.867061
31.567894 26.326895 59.983486
31.919656 27.869642 59.453842
30.883851 27.741352 59.425808
42.820059 53.889313 30.116259
42.947861 54.784016 29.000746
45.175546 43.674156 32.989218
45.49754 44.560719 31.897318
45.192381 45.003475 32.813557
38.481581 45.338082 43.086483
37.540148 45.740071 43.602961
44.281929 40.58252 35.230474
44.060451 39.212059 35.278322
43.871418 18.593782 52.397926
44.176786 17.582762 53.35318
44.53082 17.170345 52.207459
43.635637 19.647091 51.409508
43.281603 20.059507 52.555229
43.871418 18.593782 52.397926
42.698986 22.571642 48.209789
43.038296 21.627564 49.303661
43.195839 21.073446 48.082359
42.47296 23.536241 47.093304
42.315416 24.090359 48.314605
42.698986 22.571642 48.209789
42.186411 24.458267 45.971115
42.47296 23.536241 47.093304
29.264153 34.864288 56.16523
30.034253 33.501533 56.871285
29.495062 36.273128 55.378308
29.264153 34.864288 56.16523
30.521957 36.325281 55.340145
29.721163 37.645536 54.56755
29.495062 36.273128 55.378308
41.837103 26.296341 43.70974
41.78219 27.200947 42.579442
41.718449 27.819454 43.796253
45.802155 49.918602 27.950585
45.465862 51.236767 27.625641
45.703987 49.009788 29.145927
45.802155 49.918602 27.950585
33.16218 45.416213 47.473785
32.171279 45.615932 47.720821
32.941854 44.473444 48.542431
34.166052 45.145689 47.185772
33.16218 45.416213 47.473785
34.878922 44.004525 47.924793
35.112219 44.87649 46.815171
34.166052 45.145689 47.185772
42.399794 49.168209 35.151214
41.880335 50.367195 34.602703
41.545002 49.526615 35.710956
43.62795 38.326321 36.29957
43.443762 38.868519 37.3187
43.21389 37.480598 37.346431
44.060451 39.212059 35.278322
43.62795 38.326321 36.29957
44.202404 18.716233 49.012264
43.8803 19.155367 50.214218
43.765459 19.625576 47.94297
44.202404 18.716233 49.012264
43.195839 21.073446 48.082359
43.765459 19.625576 47.94297
43.213915 58.136226 23.596417
42.588787 59.28349 23.175677
42.78343 58.372284 24.406172
43.814556 56.898181 23.973517
43.213915 58.136226 23.596417
43.973835 55.982273 25.239115
43.814556 56.898181 23.973517
44.066255 55.070687 26.429856
43.973835 55.982273 25.239115
43.500979 56.313434 26.017654
44.121174 54.151207 27.648869
44.594031 53.820045 26.870331
44.066255 55.070687 26.429856
29.930594 38.974115 53.710526
29.721163 37.645536 54.56755
30.134247 40.248499 52.819676
29.930594 38.974115 53.710526
30.951712 38.972072 53.638538
30.334093 41.480776 51.899639
30.134247 40.248499 52.819676
31.351139 41.410185 51.787632
30.334093 41.480776 51.899639
32.343615 41.364619 51.644928
31.351139 41.410185 51.787632
32.147841 40.20089 52.604984
33.331146 41.242708 51.447723
32.534444 42.452004 50.630371
32.343615 41.364619 51.644928
41.184851 48.715855 36.830139
41.545002 49.526615 35.710956
41.683503 47.530606 37.367735
41.184851 48.715855 36.830139
40.803893 47.918831 37.938406
42.335499 34.3402 39.472973
42.470253 35.780475 39.45459
42.174236 34.920443 40.523556
42.124118 32.879845 39.425652
42.335499 34.3402 39.472973
42.124118 32.879845 39.425652
41.922214 31.99238 40.497558
41.734241 29.614327 41.559567
41.737125 31.128327 41.601219
41.66642 30.23806 42.707607
41.734241 29.614327 41.559567
41.718407 28.10355 41.470793
40.53219 16.401381 60.056713
39.657619 16.40423 60.589187
40.687782 17.745241 59.529736
40.53219 16.401381 60.056713
40.88362 19.138207 58.969589
40.117743 19.224477 59.622829
40.687782 17.745241 59.529736
41.531489 18.959551 58.197746
40.961449 20.438788 58.29084
40.88362 19.138207 58.969589
42.18833 18.786178 57.375991
41.531489 18.959551 58.197746
42.716565 18.513434 56.444744
42.137552 19.987387 56.58775
42.18833 18.786178 57.375991
37.241812 44.980011 44.755241
37.540148 45.740071 43.602961
36.079205 44.549921 46.413895
35.112219 44.87649 46.815171
36.959828 44.20454 45.909508
36.079205 44.549921 46.413895
36.705711 43.389944 47.049805
37.868319 43.820034 45.391151
37.241812 44.980011 44.755241
36.959828 44.20454 45.909508
30.504133 30.667147 58.243915
30.197855 29.159098 58.867061
31.533178 30.775877 58.247593
30.801697 32.158924 57.595344
30.504133 30.667147 58.243915
32.211312 24.887125 60.444248
31.567894 26.326895 59.983486
31.175506 24.758835 60.416214
33.241101 25.009804 60.44001
32.211312 24.887125 60.444248
34.241558 25.109969 60.381493
33.604157 26.555349 59.953002
33.241101 25.009804 60.44001
34.859968 23.649248 60.741967
35.223024 25.194794 60.254959
34.241558 25.109969 60.381493
35.463081 22.185249 61.021541
34.859968 23.649248 60.741967
36.050531 20.707378 61.221729
36.428884 22.256203 60.815621
35.463081 22.185249 61.021541
36.64159 19.246454 61.354282
36.050531 20.707378 61.221729
37.224367 17.777575 61.406624
37.599112 19.309452 61.06815
36.64159 19.246454 61.354282
37.829563 16.346218 61.417259
37.224367 17.777575 61.406624
38.435285 14.914406 61.354713
38.787611 16.40876 61.057945
37.829563 16.346218 61.417259
42.974987 55.696877 27.839568
42.988003 56.582199 26.724018
43.566272 54.488987 28.369573
42.974987 55.696877 27.839568
42.947861 54.784016 29.000746
42.189172 51.220951 33.487423
41.880335 50.367195 34.602703
42.443708 52.10033 32.368666
42.189172 51.220951 33.487423
42.989662 50.888168 32.924204
42.672584 52.985023 31.253607
42.443708 52.10033 32.368666
43.391672 52.671837 30.668098
42.820059 53.889313 30.116259
42.672584 52.985023 31.253607
45.569862 48.100205 30.311338
45.703987 49.009788 29.145927
45.323028 49.41198 30.010065
45.732597 46.794026 30.584428
45.569862 48.100205 30.311338
45.351639 47.196217 31.448566
45.807369 45.465249 30.800449
46.025593 46.369236 29.663221
45.732597 46.794026 30.584428
45.807369 45.465249 30.800449
45.49754 44.560719 31.897318
39.305754 44.901619 42.458847
38.481581 45.338082 43.086483
38.974476 44.159042 43.609249
39.66889 45.646145 41.324351
39.305754 44.901619 42.458847
40.161785 44.467106 41.847116
40.036035 46.388763 40.184622
39.66889 45.646145 41.324351
40.913732 45.972607 39.594311
40.424847 47.149738 39.066313
40.036035 46.388763 40.184622
44.396532 41.92427 35.112766
43.972425 41.055992 36.154131
44.281929 40.58252 35.230474
44.788212 42.783856 34.047283
44.478708 43.257328 34.97094
44.396532 41.92427 35.112766
45.175546 43.674156 32.989218
44.788212 42.783856 34.047283
43.273075 18.258091 55.481708
42.716565 18.513434 56.444744
43.323853 17.056883 56.26995
43.698874 17.903869 54.425281
44.176786 17.582762 53.35318
43.091586 19.360421 54.600075
43.273075 18.258091 55.481708
43.698874 17.903869 54.425281
43.290486 20.621092 50.371521
43.635637 19.647091 51.409508
43.8803 19.155367 50.214218
42.028396 25.388212 44.835331
41.931376 25.984903 46.062336
42.186411 24.458267 45.971115
41.837103 26.296341 43.70974
42.028396 25.388212 44.835331
3 0 120 122
3 120 28 121
3 120 121 122
3 0 30 28
3 0 32 30
3 1 35 33
3 1 37 35
3 2 123 124
3 2 125 127
3 125 38 126
3 125 126 127
3 3 128 129
3 3 130 132
3 130 39 131
3 130 131 132
3 3 41 39
3 5 44 42
3 5 46 44
3 7 49 47
3 7 51 49
3 4 54 52
3 133 57 134
3 135 134 55
3 133 134 135
3 137 136 57
3 6 61 59
3 8 64 62
3 8 66 64
3 138 68 139
3 140 69 141
3 142 141 68
3 140 141 142
3 9 70 29
3 9 71 70
3 9 73 71
3 11 74 31
3 11 75 74
3 143 76 144
3 12 79 77
3 14 80 34
3 14 81 80
3 14 145 147
3 147 146 81
3 145 146 147
3 149 148 36
3 150 84 151
3 152 151 82
3 150 151 152
3 17 85 40
3 17 86 85
3 10 87 72
3 18 88 43
3 18 89 88
3 18 90 89
3 19 91 45
3 19 92 91
3 153 93 154
3 155 95 156
3 157 156 93
3 155 156 157
3 158 96 159
3 21 97 48
3 21 98 97
3 21 99 98
3 22 100 50
3 22 160 162
3 162 161 100
3 160 161 162
3 16 163 164
3 23 101 53
3 23 102 101
3 13 103 78
3 24 104 56
3 24 105 104
3 24 106 105
3 166 165 58
3 20 107 94
3 25 108 60
3 25 109 108
3 15 110 83
3 26 111 63
3 26 112 111
3 26 113 112
3 27 114 65
3 27 115 114
3 167 116 168
3 167 168 169
3 170 117 171
3 172 171 116
3 170 171 172
3 173 118 174
3 175 174 67
3 173 174 175
3 176 119 177
3 178 177 118
3 176 177 178
3 180 179 119
3 28 181 182
3 28 183 184
3 28 185 187
3 185 29 186
3 185 186 187
3 30 29 28
3 30 9 29
3 30 31 9
3 32 31 30
3 32 11 31
3 33 34 12
3 35 34 33
3 35 14 34
3 35 36 14
3 37 36 35
3 37 188 190
3 190 189 36
3 188 189 190
3 38 191 192
3 38 193 194
3 39 195 197
3 195 196 197
3 39 198 199
3 39 200 202
3 200 40 201
3 200 201 202
3 41 40 39
3 41 17 40
3 42 43 10
3 44 43 42
3 44 18 43
3 44 45 18
3 46 45 44
3 46 19 45
3 47 203 205
3 203 48 204
3 203 204 205
3 49 48 47
3 49 21 48
3 49 50 21
3 51 50 49
3 51 22 50
3 52 53 16
3 54 53 52
3 54 23 53
3 55 56 13
3 57 56 55
3 57 24 56
3 57 58 24
3 206 58 207
3 208 207 57
3 206 207 208
3 210 209 58
3 59 60 20
3 61 60 59
3 61 25 60
3 62 63 15
3 64 63 62
3 64 26 63
3 64 65 26
3 66 65 64
3 66 27 65
3 211 67 212
3 213 67 214
3 216 215 67
3 68 217 219
3 217 218 219
3 68 220 221
3 68 222 223
3 69 224 226
3 226 225 68
3 224 225 226
3 69 227 229
3 227 2 228
3 227 228 229
3 29 230 231
3 70 232 234
3 234 233 29
3 232 233 234
3 70 235 236
3 70 237 238
3 71 239 241
3 241 240 70
3 239 240 241
3 71 242 244
3 242 3 243
3 242 243 244
3 71 72 3
3 73 72 71
3 73 10 72
3 31 73 9
3 74 73 31
3 74 10 73
3 74 42 10
3 75 42 74
3 75 5 42
3 245 47 246
3 76 247 249
3 247 47 248
3 247 248 249
3 76 7 47
3 77 78 4
3 79 78 77
3 79 13 78
3 34 79 12
3 80 79 34
3 80 13 79
3 80 55 13
3 81 55 80
3 81 250 252
3 252 251 55
3 250 251 252
3 81 253 254
3 256 255 81
3 36 257 259
3 259 258 14
3 257 258 259
3 261 260 36
3 82 83 6
3 84 83 82
3 84 15 83
3 262 84 263
3 264 84 265
3 266 15 267
3 268 267 84
3 266 267 268
3 269 62 270
3 271 270 15
3 269 270 271
3 272 62 273
3 274 8 275
3 276 275 62
3 274 275 276
3 277 16 278
3 40 279 280
3 85 281 283
3 283 282 40
3 281 282 283
3 85 284 286
3 284 16 285
3 284 285 286
3 85 52 16
3 86 52 85
3 86 4 52
3 72 41 3
3 87 41 72
3 87 17 41
3 43 87 10
3 88 87 43
3 88 17 87
3 88 86 17
3 89 86 88
3 89 4 86
3 89 77 4
3 90 77 89
3 90 12 77
3 45 90 18
3 91 90 45
3 91 12 90
3 91 33 12
3 92 33 91
3 92 1 33
3 93 287 288
3 93 289 291
3 289 0 290
3 289 290 291
3 93 94 0
3 95 94 93
3 95 20 94
3 292 95 293
3 292 293 294
3 295 95 296
3 297 20 298
3 299 298 95
3 297 298 299
3 300 59 301
3 302 301 20
3 300 301 302
3 303 59 304
3 305 6 306
3 307 306 59
3 305 306 307
3 308 6 309
3 310 82 311
3 312 311 6
3 310 311 312
3 313 82 314
3 317 316 82
3 315 316 317
3 318 69 319
3 96 320 322
3 320 69 321
3 320 321 322
3 96 2 69
3 48 323 324
3 97 325 327
3 327 326 48
3 325 326 327
3 97 328 329
3 97 330 332
3 330 96 331
3 330 331 332
3 98 96 97
3 98 2 96
3 98 38 2
3 99 38 98
3 99 333 335
3 335 334 38
3 333 334 335
3 50 99 21
3 100 99 50
3 100 336 338
3 338 337 99
3 336 337 338
3 100 339 341
3 339 340 341
3 343 342 100
3 53 344 346
3 346 345 16
3 344 345 346
3 101 347 349
3 349 348 53
3 347 348 349
3 101 350 351
3 101 352 354
3 352 76 353
3 352 353 354
3 102 76 101
3 102 7 76
3 78 54 4
3 103 54 78
3 103 23 54
3 56 103 13
3 104 103 56
3 104 23 103
3 104 102 23
3 105 102 104
3 105 7 102
3 105 51 7
3 106 51 105
3 106 22 51
3 58 106 24
3 355 106 356
3 357 356 58
3 355 356 357
3 358 22 359
3 360 359 106
3 358 359 360
3 362 361 22
3 94 32 0
3 107 32 94
3 107 11 32
3 60 107 20
3 108 107 60
3 108 11 107
3 108 75 11
3 109 75 108
3 109 5 75
3 83 61 6
3 110 61 83
3 110 25 61
3 63 110 15
3 111 110 63
3 111 25 110
3 111 109 25
3 112 109 111
3 112 5 109
3 112 46 5
3 113 46 112
3 113 19 46
3 65 113 26
3 114 113 65
3 114 19 113
3 114 92 19
3 115 92 114
3 115 1 92
3 363 8 364
3 363 364 365
3 116 366 367
3 116 368 370
3 368 8 369
3 368 369 370
3 116 66 8
3 117 66 116
3 117 27 66
3 67 371 373
3 371 117 372
3 371 372 373
3 118 117 67
3 118 27 117
3 118 115 27
3 119 115 118
3 119 1 115
3 119 37 1
3 374 37 375
3 376 375 119
3 374 375 376
3 378 377 37
