ply
format ascii 1.0
element vertex 393
property float x
property float y
property float z
element face 405
property list uchar int vertex_index
end_header
70.561867 -40.460625 -26.609884
62.446362 -33.611233 -40.036118
68.524773 -30.525045 -23.853373
69.805908 -24.550688 -31.535799
66.350418 -20.12406 -39.887909
67.099739 -37.529243 -33.698372
70.167511 -44.238403 -18.93989
61.474823 -4.093284 -46.644333
60.501053 -16.359247 -47.876183
70.699593 -34.809647 -25.27286
69.829353 -27.366209 -27.642298
70.522453 -32.54982 -28.998243
69.203865 -30.580036 -32.763718
69.15448 -39.02697 -30.23807
68.410751 -46.698837 -15.021206
64.823593 -26.858294 -40.445419
63.641052 -18.234726 -44.133568
62.212494 -24.800062 -43.941635
68.477928 -19.935482 -30.153124
68.522362 -22.164593 -35.620018
67.175034 -28.743587 -36.608345
64.816742 -35.748047 -37.003578
69.603012 -37.416405 -21.536711
70.937523 -42.131958 -22.821589
68.567116 -53.122738 -11.830324
69.949295 -51.009819 -15.915129
70.382034 -49.271812 -20.010641
64.423767 -11.873675 -43.360832
61.146751 -10.065785 -47.777718
70.922119 -37.468407 -25.950144
70.771721 -33.636753 -27.134214
70.630028 -36.531429 -27.806391
70.060562 -35.657982 -29.646307
69.967842 -39.733124 -28.446184
63.753418 -30.264317 -40.386261
63.559731 -25.853842 -42.267258
62.500114 -29.174833 -41.967957
61.154518 -28.02302 -43.366333
61.177349 -32.419445 -41.354324
67.874008 -27.055496 -24.972055
69.989563 -25.90642 -29.569532
69.205353 -23.640093 -28.875204
69.37928 -22.057795 -30.874533
69.199234 -20.593662 -32.922287
68.681427 -19.259155 -35.02562
69.302063 -23.305214 -33.551178
68.300293 -33.987309 -33.293892
68.248375 -29.656853 -34.676842
67.232239 -33.134247 -35.108727
66.106697 -32.238731 -36.911942
65.968895 -36.681892 -35.372787
69.096306 -42.135056 -18.372309
68.649086 -38.824696 -19.65354
69.966202 -40.834843 -20.285715
70.582817 -39.614517 -22.187506
70.690964 -43.128284 -20.887686
68.233696 -56.29213 -10.092669
68.967796 -55.318302 -12.158844
69.372765 -52.04533 -13.868574
69.465141 -54.365746 -14.239817
70.23526 -48.613976 -22.032892
66.795372 -16.955204 -39.390854
65.527824 -15.945345 -41.621506
62.12735 -17.296717 -46.107735
62.549553 -14.083942 -45.984642
60.879608 -13.200961 -47.984901
59.318062 -9.257927 -49.77095
59.096252 -12.351741 -49.751534
58.752846 -15.440285 -49.352097
69.87545 -32.502552 -24.582178
69.329636 -28.913742 -25.741568
70.333481 -31.095711 -26.449488
70.456802 -29.774448 -28.328848
70.246796 -28.545599 -30.230997
69.732376 -27.407444 -32.166306
69.982582 -31.536972 -30.87229
69.263428 -34.819687 -31.473795
68.178505 -38.303215 -31.98736
69.395081 -45.441738 -16.983915
63.145119 -5.104816 -44.328941
65.686241 -23.452942 -40.25856
65.049973 -19.172628 -42.037018
64.397804 -22.499722 -42.272865
63.024132 -21.522429 -44.186951
61.548092 -20.518196 -45.924599
59.949913 -19.499342 -47.404259
60.753288 -23.704865 -45.395164
68.689934 -25.31665 -26.912493
67.979729 -21.72427 -28.106676
67.521095 -21.112352 -37.7379
68.963112 -26.349596 -34.141975
67.998032 -25.353931 -36.158607
66.892395 -24.396847 -38.205948
66.026978 -27.817215 -38.542145
64.947784 -31.285065 -38.683411
63.648621 -34.723534 -38.569984
67.474861 -32.171513 -21.964788
68.095406 -35.505184 -20.843706
69.111572 -33.979881 -22.716673
70.302055 -36.071854 -23.408407
70.907875 -38.491875 -24.076609
70.893188 -41.249184 -24.732409
68.610023 -49.916206 -13.479231
69.50174 -48.74704 -15.481451
70.173134 -47.630409 -17.484278
70.286888 -50.07325 -17.965734
70.600594 -46.614235 -19.484663
70.768394 -45.725464 -21.473833
70.669159 -44.966259 -23.437799
70.306656 -44.314545 -25.358824
69.69912 -43.729679 -27.219374
68.880447 -43.161438 -29.006632
67.897919 -42.559799 -30.715212
66.805634 -41.883316 -32.347275
65.65451 -41.10405 -33.909019
64.481468 -40.208782 -35.40464
63.301773 -39.196915 -36.829826
63.059685 -7.919228 -45.053139
64.103287 -14.995388 -43.838486
62.856255 -10.935923 -45.614929
61.342049 -7.008033 -47.314842
59.47765 -6.198169 -49.463364
68.19939 -28.79027 -24.412714
67.349052 -27.938349 -24.005781
67.674435 -29.673123 -23.44644
68.831703 -56.495987 -12.31715
68.611503 -56.924868 -11.265703
69.080376 -56.019709 -13.357636
69.216469 -54.842024 -13.199331
68.831703 -56.495987 -12.31715
60.596445 -2.25188 -47.363751
61.502685 -2.742394 -46.214596
60.542084 -3.660025 -47.76585
60.596445 -2.25188 -47.363751
68.217006 -45.090534 -15.733788
67.607181 -45.765594 -14.763119
68.902916 -46.070287 -16.002561
68.709171 -44.461984 -16.715143
68.217006 -45.090534 -15.733788
63.853466 -5.688963 -43.157688
63.116791 -3.831206 -43.883049
59.74781 -28.992757 -43.496692
60.421051 -27.423735 -43.943084
60.481278 -29.592042 -42.919941
67.849106 -19.042165 -29.73488
67.600007 -19.93656 -28.711657
68.228829 -20.829876 -29.1299
68.070362 -18.101214 -30.806131
67.849106 -19.042165 -29.73488
68.192955 -20.108103 -36.402451
68.272487 -18.655384 -36.105252
68.601895 -20.711874 -35.322819
68.021728 -21.638472 -36.678959
67.692321 -19.581983 -37.461392
68.192955 -20.108103 -36.402451
66.866642 -32.996876 -21.014875
66.549774 -31.375203 -21.533662
68.058926 -53.64854 -10.815306
67.892215 -55.233237 -9.946479
68.400406 -54.707434 -10.961496
68.047398 -52.100212 -11.653585
68.058926 -53.64854 -10.815306
68.58857 -51.519472 -12.654777
68.068851 -50.496946 -12.478039
68.047398 -52.100212 -11.653585
70.334461 -49.672531 -18.988188
70.024586 -51.42149 -18.194853
70.072159 -51.020771 -19.217306
70.260532 -46.522863 -23.723588
70.452209 -46.790118 -22.735346
70.043583 -48.346722 -23.021135
70.079281 -46.197007 -24.684101
70.487908 -44.640402 -24.398311
70.260532 -46.522863 -23.723588
69.067795 -45.459831 -27.471931
69.471882 -45.676935 -26.566851
68.658458 -45.17571 -28.365561
69.289783 -43.445558 -28.113003
69.067795 -45.459831 -27.471931
67.131695 -44.355759 -30.862848
67.680001 -44.638115 -30.069926
66.585553 -44.017517 -31.67888
67.351776 -42.221558 -31.531244
67.131695 -44.355759 -30.862848
64.820465 -42.864544 -33.888717
65.423985 -43.282108 -33.198467
64.233944 -42.41691 -34.636528
65.067989 -40.656416 -34.65683
64.820465 -42.864544 -33.888717
62.424706 -40.867039 -36.600299
63.035637 -41.421759 -35.995967
62.704594 -38.636764 -37.498619
62.424706 -40.867039 -36.600299
64.505203 -10.408549 -43.050872
65.118534 -12.384908 -42.218414
63.741726 -9.896452 -44.206986
63.823162 -8.431325 -43.897026
64.505203 -10.408549 -43.050872
58.408066 -7.373261 -50.595012
58.350571 -8.889816 -50.637962
59.084419 -18.997645 -47.977879
59.555706 -21.044779 -46.981339
67.834164 -47.328287 -14.035652
67.607181 -45.765594 -14.763119
60.492693 -31.790255 -41.913936
60.481278 -29.592042 -42.919941
61.165934 -30.221232 -42.360328
67.025021 -26.255189 -24.528635
67.349052 -27.938349 -24.005781
67.53109 -25.316698 -25.530241
67.025021 -26.255189 -24.528635
69.006637 -20.153731 -31.557216
68.555961 -19.092574 -31.196511
68.928604 -20.996638 -30.513828
68.916615 -19.421664 -32.581093
69.006637 -20.153731 -31.557216
69.289257 -21.325728 -31.89841
68.813041 -18.644737 -33.649116
68.916615 -19.421664 -32.581093
68.940331 -19.926409 -33.973954
68.554138 -17.977483 -34.700783
68.813041 -18.644737 -33.649116
68.872696 -40.479876 -19.012925
68.075489 -39.54608 -18.704111
68.299099 -41.20126 -18.063496
68.244453 -57.411782 -10.232616
67.90345 -57.836844 -9.19104
67.914208 -58.956495 -9.330986
68.600746 -55.805216 -11.125757
68.244453 -57.411782 -10.232616
68.611503 -56.924868 -11.265703
69.980553 -50.731329 -20.255104
70.072159 -51.020771 -19.217306
69.907165 -50.402411 -21.26623
70.308647 -48.942894 -21.021766
69.980553 -50.731329 -20.255104
69.710884 -50.181916 -22.28268
69.907165 -50.402411 -21.26623
70.043583 -48.346722 -23.021135
69.710884 -50.181916 -22.28268
66.304337 -14.925672 -40.233425
66.886406 -15.491023 -39.096474
65.670562 -14.420742 -41.348751
66.304337 -14.925672 -40.233425
66.161598 -16.450274 -40.50618
64.975796 -13.90951 -42.491169
65.118534 -12.384908 -42.218414
65.670562 -14.420742 -41.348751
58.239666 -10.436723 -50.628254
58.350571 -8.889816 -50.637962
59.207157 -10.804834 -49.761242
58.148309 -11.955414 -50.473423
58.239666 -10.436723 -50.628254
57.976607 -13.499686 -50.273705
58.148309 -11.955414 -50.473423
58.924549 -13.896013 -49.551816
57.817307 -15.008616 -49.905537
57.976607 -13.499686 -50.273705
68.559784 -42.808644 -17.40934
68.299099 -41.20126 -18.063496
69.245694 -43.788397 -17.678112
68.559784 -42.808644 -17.40934
68.709171 -44.461984 -16.715143
62.337834 -3.24816 -45.0569
63.116791 -3.831206 -43.883049
62.309971 -4.59905 -45.486637
61.502685 -2.742394 -46.214596
62.337834 -3.24816 -45.0569
59.957393 -23.147541 -45.976791
59.555706 -21.044779 -46.981339
60.351601 -21.602103 -46.399712
60.220436 -25.264658 -44.9575
60.953903 -25.863943 -44.380748
60.421051 -27.423735 -43.943084
59.957393 -23.147541 -45.976791
60.220436 -25.264658 -44.9575
67.939053 -24.447275 -26.50046
67.53109 -25.316698 -25.530241
68.281971 -26.186073 -25.942274
67.58395 -22.651085 -27.097552
67.939053 -24.447275 -26.50046
68.334832 -23.52046 -27.509585
67.236233 -20.91237 -27.654761
67.58395 -22.651085 -27.097552
67.236233 -20.91237 -27.654761
67.600007 -19.93656 -28.711657
68.070362 -18.101214 -30.806131
68.555961 -19.092574 -31.196511
68.272816 -17.273841 -35.79506
68.554138 -17.977483 -34.700783
68.272816 -17.273841 -35.79506
68.272487 -18.655384 -36.105252
67.32946 -17.503408 -38.287869
66.886406 -15.491023 -39.096474
67.158233 -19.033778 -38.564377
67.32946 -17.503408 -38.287869
67.692321 -19.581983 -37.461392
67.149479 -30.496357 -22.502147
66.549774 -31.375203 -21.533662
67.999817 -31.348279 -22.909081
67.674435 -29.673123 -23.44644
67.149479 -30.496357 -22.502147
67.773548 -37.937216 -19.304493
68.075489 -39.54608 -18.704111
67.496708 -36.27746 -19.899576
67.773548 -37.937216 -19.304493
68.372246 -37.16494 -20.248623
67.176914 -34.663712 -20.454334
67.496708 -36.27746 -19.899576
67.785134 -33.838348 -21.404247
66.866642 -32.996876 -21.014875
67.176914 -34.663712 -20.454334
67.752876 -56.75326 -9.067379
67.42263 -58.297973 -8.16575
67.90345 -57.836844 -9.19104
67.752876 -56.75326 -9.067379
67.892215 -55.233237 -9.946479
67.933799 -48.936971 -13.264665
68.068851 -50.496946 -12.478039
68.510387 -48.307522 -14.250218
67.834164 -47.328287 -14.035652
67.933799 -48.936971 -13.264665
69.184417 -55.623637 -14.417155
69.080376 -56.019709 -13.357636
69.596283 -53.933208 -15.28565
69.184417 -55.623637 -14.417155
69.83836 -52.255245 -16.123306
69.707218 -52.687782 -15.077473
69.596283 -53.933208 -15.28565
70.007157 -51.78696 -17.148609
70.024586 -51.42149 -18.194853
70.118092 -50.541534 -16.940432
69.83836 -52.255245 -16.123306
70.007157 -51.78696 -17.148609
69.77565 -45.969368 -25.636576
70.079281 -46.197007 -24.684101
70.002888 -44.022112 -26.289099
69.77565 -45.969368 -25.636576
69.471882 -45.676935 -26.566851
68.171265 -44.938935 -29.215635
68.658458 -45.17571 -28.365561
68.389183 -42.860619 -29.860922
68.171265 -44.938935 -29.215635
67.680001 -44.638115 -30.069926
65.999547 -43.671741 -32.417595
66.585553 -44.017517 -31.67888
66.230072 -41.493683 -33.128147
65.999547 -43.671741 -32.417595
65.423985 -43.282108 -33.198467
63.625484 -41.927692 -35.283375
64.233944 -42.41691 -34.636528
63.891621 -39.702849 -36.117233
63.625484 -41.927692 -35.283375
63.035637 -41.421759 -35.995967
62.878017 -36.400074 -38.368698
63.475197 -36.960224 -37.699905
62.704594 -38.636764 -37.498619
62.276888 -35.843924 -39.101765
63.047491 -34.167383 -39.303051
62.878017 -36.400074 -38.368698
61.659449 -35.235952 -39.711754
62.276888 -35.843924 -39.101765
61.024942 -34.640059 -40.370857
61.811856 -33.015339 -40.695221
61.659449 -35.235952 -39.711754
60.370914 -33.991333 -40.903191
61.024942 -34.640059 -40.370857
60.218508 -36.211946 -39.919724
60.492693 -31.790255 -41.913936
60.370914 -33.991333 -40.903191
63.865879 -7.024119 -43.534927
63.853466 -5.688963 -43.157688
63.102402 -6.512022 -44.69104
63.865879 -7.024119 -43.534927
63.823162 -8.431325 -43.897026
60.475696 -5.1174 -48.101104
60.542084 -3.660025 -47.76585
61.408436 -5.550658 -46.979588
59.543497 -4.712467 -49.175365
60.475696 -5.1174 -48.101104
60.409849 -6.603101 -48.389103
58.53833 -4.348461 -50.228798
59.543497 -4.712467 -49.175365
58.48786 -5.843381 -50.44122
59.397856 -7.728048 -49.617157
58.408066 -7.373261 -50.595012
58.53833 -4.348461 -50.228798
58.48786 -5.843381 -50.44122
58.485885 -16.968117 -48.951797
59.35138 -17.469814 -48.378178
59.084419 -18.997645 -47.977879
57.817307 -15.008616 -49.905537
58.485885 -16.968117 -48.951797
3 0 31 29
3 0 33 31
3 1 36 34
3 1 38 36
3 2 122 124
3 122 39 123
3 122 123 124
3 3 42 40
3 3 43 42
3 3 45 43
3 5 48 46
3 5 50 48
3 6 53 51
3 6 55 53
3 125 57 126
3 127 59 128
3 129 128 57
3 127 128 129
3 7 130 131
3 7 132 133
3 4 62 61
3 8 65 63
3 8 67 65
3 8 68 67
3 9 71 69
3 11 72 30
3 11 73 72
3 11 75 73
3 13 76 32
3 13 77 76
3 14 134 135
3 14 136 138
3 136 78 137
3 136 137 138
3 139 79 140
3 15 82 80
3 17 83 35
3 17 84 83
3 17 86 84
3 143 142 37
3 141 142 143
3 10 87 70
3 18 88 41
3 18 144 146
3 146 145 88
3 144 145 146
3 18 147 148
3 19 149 151
3 151 150 44
3 149 150 151
3 19 152 154
3 152 89 153
3 152 153 154
3 12 90 74
3 20 91 47
3 20 92 91
3 20 93 92
3 21 94 49
3 21 95 94
3 155 96 156
3 22 97 52
3 22 98 97
3 22 99 98
3 23 100 54
3 23 101 100
3 24 157 159
3 159 158 56
3 157 158 159
3 24 160 161
3 24 162 164
3 162 102 163
3 162 163 164
3 25 103 58
3 25 104 103
3 26 165 167
3 165 105 166
3 165 166 167
3 26 106 105
3 26 107 106
3 168 108 169
3 170 169 60
3 168 169 170
3 171 109 172
3 173 172 108
3 171 172 173
3 174 110 175
3 176 111 177
3 178 177 110
3 176 177 178
3 179 112 180
3 181 113 182
3 183 182 112
3 181 182 183
3 184 114 185
3 186 115 187
3 188 187 114
3 186 187 188
3 189 116 190
3 192 191 116
3 27 193 194
3 27 195 197
3 195 117 196
3 195 196 197
3 16 118 81
3 28 119 64
3 28 120 119
3 28 121 120
3 199 198 66
3 201 200 85
3 29 30 9
3 31 30 29
3 31 11 30
3 31 32 11
3 33 32 31
3 33 13 32
3 202 14 203
3 34 35 15
3 36 35 34
3 36 17 35
3 36 37 17
3 38 37 36
3 38 204 206
3 206 205 37
3 204 205 206
3 39 207 208
3 39 209 210
3 40 41 10
3 42 41 40
3 42 18 41
3 42 211 213
3 213 212 18
3 211 212 213
3 43 214 216
3 216 215 42
3 214 215 216
3 43 217 218
3 43 219 221
3 219 44 220
3 219 220 221
3 45 44 43
3 45 19 44
3 46 47 12
3 48 47 46
3 48 20 47
3 48 49 20
3 50 49 48
3 50 21 49
3 51 222 224
3 222 52 223
3 222 223 224
3 53 52 51
3 53 22 52
3 53 54 22
3 55 54 53
3 55 23 54
3 225 56 226
3 225 226 227
3 57 228 230
3 228 56 229
3 228 229 230
3 57 24 56
3 57 58 24
3 59 58 57
3 59 25 58
3 231 26 232
3 233 60 234
3 235 234 26
3 233 234 235
3 236 60 237
3 239 238 60
3 61 240 241
3 62 242 244
3 244 243 61
3 242 243 244
3 62 245 247
3 245 27 246
3 245 246 247
3 63 64 16
3 65 64 63
3 65 28 64
3 65 66 28
3 67 66 65
3 67 248 250
3 250 249 66
3 248 249 250
3 67 251 252
3 68 253 255
3 255 254 67
3 253 254 255
3 68 256 257
3 69 70 2
3 71 70 69
3 71 10 70
3 30 71 9
3 72 71 30
3 72 10 71
3 72 40 10
3 73 40 72
3 73 3 40
3 73 74 3
3 75 74 73
3 75 12 74
3 32 75 11
3 76 75 32
3 76 12 75
3 76 46 12
3 77 46 76
3 77 5 46
3 258 51 259
3 78 260 262
3 260 51 261
3 260 261 262
3 78 6 51
3 79 263 264
3 79 265 267
3 265 7 266
3 265 266 267
3 80 81 4
3 82 81 80
3 82 16 81
3 35 82 15
3 83 82 35
3 83 16 82
3 83 63 16
3 84 63 83
3 84 8 63
3 84 85 8
3 86 85 84
3 86 268 270
3 270 269 85
3 268 269 270
3 37 86 17
3 271 86 272
3 273 272 37
3 271 272 273
3 275 274 86
3 70 39 2
3 87 39 70
3 87 276 278
3 278 277 39
3 276 277 278
3 41 87 10
3 88 87 41
3 88 279 281
3 281 280 87
3 279 280 281
3 88 282 283
3 285 284 88
3 287 286 18
3 44 288 289
3 291 290 44
3 292 61 293
3 89 294 296
3 294 61 295
3 294 295 296
3 89 4 61
3 74 45 3
3 90 45 74
3 90 19 45
3 47 90 12
3 91 90 47
3 91 19 90
3 91 89 19
3 92 89 91
3 92 4 89
3 92 80 4
3 93 80 92
3 93 15 80
3 49 93 20
3 94 93 49
3 94 15 93
3 94 34 15
3 95 34 94
3 95 1 34
3 96 297 298
3 96 299 301
3 299 2 300
3 299 300 301
3 52 302 303
3 97 304 306
3 306 305 52
3 304 305 306
3 97 307 308
3 97 309 311
3 309 96 310
3 309 310 311
3 98 96 97
3 98 2 96
3 98 69 2
3 99 69 98
3 99 9 69
3 54 99 22
3 100 99 54
3 100 9 99
3 100 29 9
3 101 29 100
3 101 0 29
3 56 312 314
3 312 313 314
3 316 315 56
3 102 317 318
3 102 319 321
3 319 14 320
3 319 320 321
3 58 102 24
3 103 102 58
3 103 14 102
3 103 78 14
3 104 78 103
3 104 6 78
3 322 59 323
3 324 59 325
3 326 25 327
3 328 327 59
3 326 327 328
3 105 329 330
3 105 331 333
3 331 25 332
3 331 332 333
3 105 104 25
3 106 104 105
3 106 6 104
3 106 55 6
3 107 55 106
3 107 23 55
3 60 107 26
3 108 107 60
3 108 23 107
3 108 101 23
3 109 101 108
3 109 0 101
3 334 109 335
3 110 336 338
3 336 109 337
3 336 337 338
3 110 0 109
3 110 33 0
3 111 33 110
3 111 13 33
3 339 111 340
3 112 341 343
3 341 111 342
3 341 342 343
3 112 13 111
3 112 77 13
3 113 77 112
3 113 5 77
3 344 113 345
3 114 346 348
3 346 113 347
3 346 347 348
3 114 5 113
3 114 50 5
3 115 50 114
3 115 21 50
3 349 115 350
3 116 351 353
3 351 115 352
3 351 352 353
3 116 21 115
3 116 95 21
3 354 95 355
3 356 355 116
3 354 355 356
3 357 1 358
3 359 358 95
3 357 358 359
3 360 1 361
3 362 38 363
3 364 363 1
3 362 363 364
3 365 38 366
3 365 366 367
3 369 368 38
3 370 79 371
3 117 372 374
3 372 79 373
3 372 373 374
3 117 7 79
3 81 62 4
3 118 62 81
3 118 27 62
3 64 118 16
3 119 118 64
3 119 27 118
3 119 117 27
3 120 117 119
3 120 7 117
3 120 375 377
3 377 376 7
3 375 376 377
3 121 378 380
3 380 379 120
3 378 379 380
3 121 381 382
3 66 121 28
3 383 121 384
3 385 384 66
3 383 384 385
3 387 386 121
3 85 68 8
3 388 68 389
3 390 389 85
3 388 389 390
3 392 391 68
