ply
format ascii 1.0
element vertex 1049
property float x
property float y
property float z
element face 1285
property list uchar int vertex_index
end_header
9.123188 -100.854187 42.884499
13.334026 -74.56987 -2.105564
9.012888 -81.193024 -10.802362
6.478184 -116.194283 21.28437
2.159775 -99.487511 19.652565
11.692596 -80.275421 13.229957
19.714016 -99.457817 36.411613
12.677906 -62.003616 -3.394693
12.822594 -64.293381 -8.120504
13.753746 -53.225376 -6.852617
6.600822 -108.632172 33.725662
0.994892 -109.714188 22.150612
4.906343 -101.004333 31.823755
10.165056 -96.805519 51.804581
13.272579 -103.693504 42.415958
13.566376 -110.135033 29.541466
18.888882 -66.531219 -16.307661
18.014568 -81.919662 -16.008543
7.471224 -92.748863 38.200718
8.464184 -86.885422 0.577958
3.275688 -92.553642 -5.13854
7.99288 -78.167175 -5.72003
12.382881 -65.674911 -12.314407
3.166445 -99.522499 9.137257
7.34086 -90.860718 27.094389
7.849922 -89.148964 16.277082
9.259214 -89.393875 7.417199
13.704596 -79.669525 4.778914
11.892181 -68.605652 2.658763
7.430115 -96.397644 -12.941547
12.899403 -57.651875 -5.500502
11.504934 -52.823639 -4.218313
8.1049 -104.870918 38.885803
5.018684 -105.385651 33.477936
7.142529 -101.362465 37.642426
10.213884 -99.300095 47.527596
12.382277 -100.22718 47.699196
10.803829 -103.17907 43.560825
10.239025 -106.868782 38.406265
23.553223 -65.88163 -18.373224
11.309196 -80.837891 -0.692741
7.766632 -83.216057 -2.506655
10.676249 -76.54631 -3.876448
13.901382 -58.575817 -10.567568
11.957544 -64.965622 -10.221846
14.279205 -58.842766 -12.950336
15.907524 -59.106659 -15.174166
17.446957 -53.187786 -15.179287
0.767963 -104.826469 21.184561
0.100344 -110.056145 15.915972
0.465427 -104.749847 15.134365
1.209015 -105.015068 9.603779
2.320681 -99.273369 14.078753
7.459536 -91.969917 32.741745
7.616501 -87.080727 30.301346
9.419134 -84.970367 19.708715
10.444981 -84.566612 14.727353
8.627937 -89.176605 11.560843
11.447102 -84.665405 10.18141
12.06287 -84.619576 6.140661
12.929182 -80.21273 8.780594
21.172241 -102.542801 29.636211
9.778276 -113.639854 25.798429
14.531672 -113.229507 23.236801
5.247677 -87.382431 -7.959028
4.13665 -94.900162 -9.099644
7.883289 -88.987793 -11.360723
17.679905 -88.982483 -16.992842
13.797455 -68.181259 -3.121788
12.796566 -69.857094 -5.229876
13.505239 -63.422733 -5.883423
13.799772 -58.257832 -8.07918
15.196817 -53.373043 -9.634317
5.85519 -112.323677 27.648003
2.95381 -113.649841 22.209942
3.281422 -109.381973 28.233801
2.372601 -105.179817 27.452108
3.080078 -100.20063 25.692106
15.005198 -99.258141 46.189568
16.321039 -102.296349 39.722771
17.111412 -105.348724 32.876549
13.369143 -107.007042 36.16909
9.587294 -110.288971 32.283272
13.88089 -74.1707 -13.585127
13.011673 -82.076019 -13.529577
18.553921 -74.303482 -15.77622
8.522881 -96.725136 45.851013
8.140327 -97.17942 40.841885
5.703695 -92.829529 1.206652
4.998421 -89.834267 -1.836802
5.270361 -85.354935 -4.85932
7.178905 -79.742355 -8.052641
10.7612 -71.066315 -7.102386
9.58009 -72.174294 -9.078432
10.584953 -73.303596 -11.301058
14.811499 -66.325272 -14.361176
19.052685 -59.143604 -17.196535
1.360279 -114.69828 16.249866
3.805567 -99.642326 4.796871
7.110027 -96.877975 35.336426
5.898642 -96.004669 29.476341
4.991602 -94.928749 23.559498
8.493141 -85.9263 24.966795
7.399645 -89.768486 21.516331
4.765823 -94.155258 17.936649
5.279943 -94.019669 12.869998
6.043673 -94.297218 8.432982
6.277014 -94.188919 4.572034
9.201134 -88.884415 3.800022
11.973747 -83.532745 2.568504
13.802053 -77.900253 1.193374
12.661724 -75.525307 7.450027
13.661898 -74.336029 3.553209
14.008818 -71.924179 0.042767
12.495409 -65.775375 -0.614498
18.070103 -108.381691 26.37261
12.396406 -89.651436 -14.42737
9.795219 -54.097164 -2.477957
11.10635 -54.691467 -3.676815
10.204737 -52.544216 -3.028381
8.760494 -102.892929 41.02803
7.482359 -103.274223 38.44783
8.208998 -101.234459 40.343281
9.808517 -100.207718 45.27169
10.703533 -101.247589 45.690628
9.861813 -102.219765 43.435875
9.556488 -104.188423 41.30954
12.481852 -77.731682 -1.417446
10.942091 -78.872086 -2.281313
12.145452 -75.627533 -3.016037
14.897846 -55.867599 -11.576712
13.983379 -58.70631 -11.773909
15.240336 -55.904636 -12.867964
15.782816 -55.935265 -14.121168
1.279316 -102.182587 20.463631
0.45499 -104.739136 18.107199
1.105423 -102.030746 17.481457
1.223516 -102.004745 14.631403
2.11401 -99.306725 16.790951
10.988001 -80.365158 15.598252
10.652824 -82.492058 16.381166
11.275173 -82.399796 13.976517
10.967567 -84.581116 12.393229
11.866972 -82.412079 11.671248
12.392609 -82.45166 9.479191
12.349901 -80.252419 10.952389
20.45092 -100.973579 32.93819
8.02845 -115.007576 23.64539
6.937391 -84.40271 -9.381268
6.266479 -88.270233 -9.666407
8.37771 -85.119949 -10.937084
13.401791 -65.040329 -3.361145
13.620647 -65.895744 -4.562107
13.331127 -62.801777 -4.671482
13.214285 -55.413311 -6.262758
13.498686 -58.008335 -6.798725
13.895266 -55.615704 -7.595232
14.344521 -55.742958 -8.931162
14.570232 -53.328255 -8.232784
6.076414 -110.466797 30.767588
4.372355 -111.037689 28.118172
4.84873 -109.09623 31.07518
4.792475 -103.304543 32.78656
3.596111 -105.336388 30.523329
3.572163 -103.067986 29.758026
2.542353 -102.756027 26.656956
3.905777 -100.625229 28.773388
11.365765 -96.825073 51.949356
12.975662 -101.967339 45.200985
13.646273 -99.977425 47.137619
14.321371 -101.598724 44.299141
15.770793 -100.766502 43.046211
14.741806 -103.219528 41.215912
14.995246 -104.815773 37.951633
13.365129 -105.378044 39.383762
8.436607 -107.911659 36.167221
9.854553 -108.604324 35.43502
7.939188 -109.680885 33.206596
7.65992 -111.430992 30.072166
16.426846 -70.410843 -14.944212
16.124401 -74.356552 -14.687838
18.758633 -70.407768 -15.961729
7.796413 -94.981133 44.643402
8.384699 -96.193939 48.185173
7.026041 -89.859726 0.993984
5.297098 -91.536224 -0.337931
6.605696 -88.395615 -0.535057
7.722197 -80.83728 -4.087997
6.27158 -84.297592 -3.586653
6.576427 -81.756538 -5.174473
6.011263 -82.669464 -6.434849
7.270607 -78.953979 -6.816069
12.702389 -67.139664 -6.716135
11.790594 -70.495834 -6.17457
11.916557 -67.6147 -7.710262
11.939085 -65.312637 -11.267498
10.802307 -68.49913 -9.696398
10.855837 -68.960403 -10.732397
9.772612 -72.745567 -10.165201
11.466238 -69.427353 -11.795397
12.647247 -69.862221 -12.864479
13.345701 -66.027527 -13.350517
17.761473 -55.921703 -16.461657
17.307846 -59.175648 -16.206743
19.231808 -55.81583 -17.545038
1.761536 -111.831192 22.30661
1.976881 -114.194725 19.270283
0.959902 -112.164482 19.243093
0.168879 -110.27285 12.876438
0.445107 -112.81414 13.076459
0.666769 -113.110565 10.061674
2.046038 -102.248528 9.393064
2.517368 -102.394333 7.001493
2.86224 -102.43277 4.751196
3.568848 -99.651375 6.896229
7.794975 -95.021973 39.551689
7.67944 -97.115387 38.146988
7.578369 -94.803078 36.840881
7.395464 -91.44001 29.926849
6.936024 -93.973526 31.166027
6.61009 -93.424889 28.261686
5.379431 -95.461411 26.502832
6.345728 -92.850952 25.362753
8.860514 -86.978836 17.986059
8.513998 -87.316498 20.585672
7.570206 -89.376381 18.839775
6.168472 -91.880081 19.74235
6.306145 -91.599365 17.092562
4.947517 -94.005539 15.324634
6.586668 -91.494522 14.583439
9.001888 -89.314407 9.418742
7.348808 -91.686234 10.021674
7.653753 -91.812317 7.964351
6.265377 -94.351784 6.434971
7.790993 -91.799446 6.04579
7.714254 -91.526779 4.255749
9.334444 -89.288788 5.548388
13.069986 -82.183792 5.456623
12.111958 -84.255013 4.30302
13.15303 -81.658539 3.617907
13.056374 -80.761322 1.87487
13.841389 -78.971962 2.941034
11.975588 -75.811897 9.552557
12.496719 -72.398895 4.905633
12.971453 -71.514709 3.054538
13.920546 -73.300568 1.753277
13.286192 -70.337738 1.300183
13.441221 -68.854202 -0.358341
12.263201 -67.321304 0.968516
15.418444 -107.907051 31.224426
17.532412 -106.864388 29.540596
15.776688 -109.423553 27.94722
17.062498 -112.455811 21.919632
2.9849 -94.680077 -3.713945
2.665468 -96.12516 -5.735722
5.519045 -95.789124 -11.087992
3.940617 -98.533386 -10.043165
15.466092 -82.150627 -14.792923
12.652016 -85.925926 -13.864693
15.185039 -85.902084 -15.178774
14.986685 -92.900124 -16.473368
11.74577 -59.124146 -3.230864
12.746386 -59.870876 -4.543257
11.971775 -57.151608 -4.197304
12.273933 -55.113293 -4.948732
12.721933 -53.056622 -5.507378
7.326538 -106.778572 36.447128
5.619446 -107.18222 33.810593
6.555428 -105.252968 36.273701
6.126266 -103.394638 35.694691
6.01218 -101.269981 34.79351
10.324335 -98.153961 49.689651
11.44342 -98.501717 49.896957
11.234041 -99.994675 47.828323
11.761805 -101.846939 45.6744
11.94833 -103.680382 43.218086
11.886843 -105.463562 40.472618
10.604719 -105.060257 41.128571
9.027622 -106.087257 38.882538
21.16596 -62.574894 -17.711512
21.224075 -66.333542 -17.299154
9.92923 -83.885117 -0.003981
8.050226 -85.24826 -0.961967
9.535164 -82.078217 -1.568441
9.261568 -79.890427 -3.145144
9.202028 -77.376053 -4.755344
13.211567 -61.409458 -9.412479
12.311895 -64.633682 -9.177404
13.000383 -61.637829 -10.540804
12.989708 -61.871696 -11.649067
13.323002 -62.120834 -12.737236
14.091251 -62.37291 -13.797039
14.899818 -58.983231 -14.087383
16.609543 -55.949375 -15.322001
18.391281 -53.054623 -16.465841
0.665716 -107.358223 21.763477
0.366674 -109.869789 19.022907
0.201334 -107.373253 18.633293
0.083733 -107.454002 15.569869
0.273554 -107.598816 12.612359
0.688482 -107.781342 9.781874
0.748123 -104.853409 12.295929
1.571676 -102.092834 11.934004
2.708195 -99.365578 11.528292
7.496826 -92.413979 35.508057
7.376453 -90.00457 34.199245
7.592466 -89.502556 31.49177
7.792007 -88.939346 28.748539
9.388737 -83.106056 21.409657
10.021233 -82.72757 18.866278
9.921095 -84.688408 17.171816
9.269831 -86.808395 15.49091
8.219166 -89.09446 13.8475
9.718979 -86.797546 13.117979
10.160742 -86.893951 10.877611
10.530489 -87.004349 8.773277
10.761808 -87.009613 6.802726
11.82971 -84.717972 8.097502
12.807673 -82.413666 7.40766
13.392836 -80.053421 6.72268
21.935715 -104.150238 26.570927
11.653576 -112.034042 27.752274
13.931377 -111.678741 26.312399
12.084692 -113.642143 24.561745
4.018446 -90.109077 -6.546137
3.372395 -93.79866 -7.079109
4.576393 -91.170601 -8.382732
5.786589 -92.077751 -10.250731
7.558622 -92.760239 -12.048914
20.524464 -81.354691 -17.229151
17.788647 -85.542084 -16.422186
13.78348 -71.373878 -2.69133
13.034046 -72.359116 -3.68811
13.533152 -69.099518 -4.222702
13.3388 -66.58255 -5.676107
13.28521 -63.905117 -7.029369
13.334946 -60.431179 -5.823385
13.538826 -60.846622 -7.061924
13.449326 -61.158653 -8.256298
13.890337 -58.435661 -9.335798
14.640989 -55.819256 -10.261021
15.701649 -53.372261 -11.045338
5.987562 -114.231911 24.457912
4.541676 -115.118088 21.861588
4.263161 -113.041481 25.017429
2.912912 -111.470589 25.283159
1.977856 -109.566505 25.240952
4.017124 -107.366707 30.983761
2.612831 -107.409439 27.999077
1.478706 -107.385483 24.905861
1.414503 -104.988823 24.319002
1.763971 -102.439789 23.539516
2.485424 -99.800407 22.634258
11.667635 -78.156342 12.485521
12.663239 -98.381599 49.692123
13.970032 -97.79425 49.08992
17.300251 -99.535538 41.557034
17.983555 -101.002831 38.071476
18.561417 -102.50309 34.579926
16.737034 -103.826942 36.301666
15.186413 -106.376465 34.589752
13.402561 -108.585823 32.856789
11.702871 -107.178734 37.478149
11.529446 -108.829285 34.300835
11.484236 -110.437538 31.027264
9.541203 -111.957001 29.039656
7.678627 -113.199249 26.854393
11.368021 -77.77449 -12.206642
10.807255 -81.738159 -12.194639
13.432476 -78.14299 -13.440819
15.794797 -78.286957 -14.628498
18.290649 -78.157974 -15.788382
21.17284 -70.155449 -17.011362
21.008743 -73.970932 -16.894323
20.770376 -77.721222 -16.968008
9.063496 -98.785606 44.481102
8.564241 -99.149055 41.986423
8.435499 -97.052574 43.409096
7.8794 -95.085442 42.153618
9.055279 -96.338867 51.286652
9.308653 -97.367554 49.098419
9.317394 -98.189156 46.842842
3.897465 -93.142715 -1.90234
3.841341 -91.221489 -3.372385
6.31192 -86.527443 -2.048807
4.952444 -87.758453 -3.332134
4.152798 -88.957108 -4.839354
4.9091 -86.39257 -6.330673
6.127539 -83.565285 -7.855024
7.770422 -80.506004 -9.400389
11.888533 -73.192871 -4.602966
10.595169 -73.921288 -5.487051
9.422367 -74.596474 -6.400364
11.211327 -68.055603 -8.69368
9.955336 -71.61573 -8.059738
8.613678 -75.261353 -7.393587
8.350473 -75.935822 -8.491791
8.729515 -76.609055 -9.686598
9.758505 -77.241516 -10.941397
11.98686 -73.799133 -12.451828
14.339464 -70.210251 -13.917055
16.70108 -66.512054 -15.3416
15.321262 -62.594326 -14.817795
16.976421 -62.736992 -15.796865
18.966911 -62.747322 -16.749128
3.397961 -115.904007 19.096224
0.525629 -112.492302 16.149469
1.106327 -115.158875 13.19822
7.867287 -99.283676 39.347656
7.040302 -99.20649 36.569775
6.159559 -98.947586 33.672684
7.275431 -94.445335 34.036995
6.495386 -96.494522 32.434727
5.300972 -98.55024 30.688915
4.534891 -98.070297 27.660778
3.923494 -97.573311 24.636816
3.517496 -97.128143 21.667215
8.053608 -86.504288 27.636936
7.997351 -88.352051 25.99651
8.944983 -85.397148 22.315462
8.230999 -87.791672 23.265406
7.331318 -90.28318 24.279009
6.186977 -92.314491 22.509996
4.778793 -94.474037 20.691086
3.349241 -96.796242 18.797987
3.421959 -96.618233 16.064873
3.699539 -96.60096 13.489043
4.102879 -96.709244 11.07645
6.961134 -91.545532 12.226169
5.680735 -94.147324 10.574906
4.520969 -96.866875 8.82156
4.835949 -96.967171 6.714516
4.956825 -96.891808 4.747017
6.06971 -93.704552 2.834467
7.43511 -90.898857 2.579584
8.885311 -88.097176 2.152826
10.806782 -86.78669 4.958284
10.653673 -86.230957 3.22552
10.336044 -85.272896 1.581878
11.683119 -82.398308 0.913405
12.81213 -79.45282 0.205173
13.614492 -76.429573 -0.482485
12.384439 -78.063843 10.242024
13.020103 -77.913193 8.098582
13.540014 -77.607903 6.063081
11.882341 -73.029541 6.85565
13.234896 -75.058914 5.450236
13.9104 -77.055977 4.135717
14.108797 -76.184433 2.308861
14.13282 -74.949181 0.569772
14.007088 -73.33902 -1.093899
13.950823 -70.20816 -1.582958
13.462547 -67.076385 -1.916433
12.616789 -63.989433 -2.076269
11.283947 -62.72736 -0.718756
11.533964 -60.995472 -2.061695
19.11338 -104.025612 31.176834
19.712463 -105.566551 27.945145
20.413576 -107.120865 24.94346
16.317429 -110.940269 24.831741
18.766756 -109.901184 23.423279
14.547211 -51.150852 -7.318098
2.985874 -97.431099 -7.883081
10.331547 -85.648613 -12.447878
9.974274 -89.467224 -12.962536
9.771103 -93.154549 -13.699902
15.007009 -89.498642 -15.756468
12.290279 -93.211815 -15.169601
9.636973 -52.409952 -2.54801
9.999978 -53.32069 -2.753169
9.432215 -53.186426 -2.272798
15.709725 -54.621391 -12.659882
15.069091 -55.886117 -12.222338
15.53848 -54.602873 -12.014256
15.985574 -54.591091 -13.352056
15.709725 -54.621391 -12.659882
5.833343 -116.719479 20.006646
6.888134 -117.187092 19.737558
20.133924 -97.89595 37.421808
19.30501 -98.734535 38.190804
20.609705 -98.634766 35.652264
20.133924 -97.89595 37.421808
20.082468 -100.215698 34.674902
20.978157 -99.392646 33.915552
20.609705 -98.634766 35.652264
7.590166 -116.522049 20.901547
8.365299 -115.928696 22.082057
7.253317 -115.60093 22.46488
6.888134 -117.187092 19.737558
7.590166 -116.522049 20.901547
10.76541 -96.815296 51.876969
10.581615 -96.061424 52.934692
9.98126 -96.051647 52.862305
19.411582 -54.33456 -17.618277
18.49664 -55.868766 -17.003348
18.676414 -54.387497 -17.076586
20.133823 -54.18397 -18.20707
19.411582 -54.33456 -17.618277
0.585458 -111.804451 9.998056
0.417824 -111.691708 11.469056
0.336513 -110.385593 11.405438
0.882644 -113.229691 8.595474
0.585458 -111.804451 9.998056
12.431817 -70.060181 2.85665
12.17491 -70.571796 3.752022
11.635274 -69.117267 3.554134
6.455067 -97.880234 -12.5199
5.499532 -97.575974 -11.593122
6.47458 -96.093384 -12.014769
7.47575 -98.127872 -13.447
6.455067 -97.880234 -12.5199
11.356102 -56.805653 -3.550666
11.858773 -58.137877 -3.714084
11.243099 -57.791922 -3.067446
22.297926 -62.376705 -18.225333
22.172708 -60.582379 -18.452818
7.045374 -89.046459 34.8638
7.249054 -90.213242 35.523923
7.604484 -88.291641 30.896558
7.38277 -88.55981 32.214869
7.394787 -87.348896 31.619658
10.138183 -81.649956 18.451723
9.762094 -81.819241 19.695222
22.222175 -101.798573 29.011957
21.783323 -100.968254 30.57867
21.553978 -103.346519 28.103569
22.603912 -102.602291 27.479315
22.222175 -101.798573 29.011957
20.436791 -83.089703 -17.441782
21.71339 -80.89743 -17.872824
15.176144 -98.016873 47.168974
14.658561 -97.284927 48.61915
14.487615 -98.526196 47.639744
15.722049 -98.688973 45.566391
15.176144 -98.016873 47.168974
22.180712 -73.651336 -17.497537
22.264077 -71.796185 -17.522699
22.061528 -75.526481 -17.53438
20.889559 -75.846077 -16.931165
22.180712 -73.651336 -17.497537
21.944266 -77.33815 -17.597588
22.061528 -75.526481 -17.53438
7.490443 -94.058617 42.730976
7.837907 -95.033288 43.39851
7.44895 -94.006462 43.975868
7.614033 -94.022286 41.478266
7.490443 -94.058617 42.730976
8.544207 -95.90036 50.864506
8.282826 -95.43795 51.974152
8.670894 -96.414704 49.77039
9.181966 -96.85321 50.192535
8.544207 -95.90036 50.864506
4.946617 -93.754917 0.408851
5.130925 -94.319305 1.206738
20.051379 -59.053061 -17.685976
20.008492 -60.854919 -17.462272
19.009798 -60.945463 -16.972831
1.977711 -115.655548 16.226686
2.286011 -115.403771 17.736894
1.66858 -114.446503 17.760075
1.755356 -115.970924 14.739017
1.977711 -115.655548 16.226686
1.144008 -115.358284 11.677814
0.775717 -113.986507 13.137339
0.813397 -114.185916 11.616934
1.578634 -116.467762 11.704909
1.144008 -115.358284 11.677814
1.209553 -106.483868 8.34398
0.949287 -107.867005 8.433027
0.948748 -106.398205 9.692826
3.40261 -100.952122 3.718673
2.930947 -102.347343 3.695836
3.333903 -101.037548 4.774033
3.81205 -99.515007 3.816581
3.40261 -100.952122 3.718673
8.273374 -86.215294 26.301865
8.088044 -85.328797 27.108425
8.30781 -85.039803 25.773354
5.563764 -95.360668 3.742776
4.90367 -96.712112 3.830267
5.616919 -95.540363 4.659525
6.173362 -93.946736 3.703251
5.460112 -95.118484 2.873992
5.563764 -95.360668 3.742776
11.797581 -77.034096 10.996357
12.026037 -78.110093 11.363772
11.43918 -77.080345 12.118105
11.310237 -71.721779 6.596829
10.941505 -72.016655 7.58861
10.61775 -61.239241 -0.699156
10.38775 -61.987871 -0.008392
10.742759 -60.373297 -1.370626
11.408955 -61.861416 -1.390225
10.61775 -61.239241 -0.699156
10.947546 -59.570127 -1.977558
10.742759 -60.373297 -1.370626
19.199699 -110.652698 22.064413
17.914627 -111.178497 22.671456
18.347569 -111.930012 21.31259
20.00618 -109.286194 22.809452
19.199699 -110.652698 22.064413
15.063025 -50.190035 -7.521704
14.389817 -50.144216 -6.804084
15.038605 -51.175842 -8.035953
15.063025 -50.190035 -7.521704
3.428956 -101.496456 -9.996552
3.40156 -99.75 -9.459184
3.968013 -100.279843 -10.580533
12.333115 -94.889889 -15.595467
13.638482 -93.05597 -15.821485
13.681317 -94.734044 -16.247351
11.023415 -94.940911 -14.880838
12.333115 -94.889889 -15.595467
10.450785 -54.394316 -3.077386
10.92339 -55.575583 -3.290421
10.267824 -55.278431 -2.690993
16.256814 -54.606406 -13.978658
15.511576 -55.91995 -13.494566
15.985574 -54.591091 -13.352056
17.088884 -53.232666 -14.507717
16.614887 -54.561526 -14.650227
16.256814 -54.606406 -13.978658
7.237338 -86.179123 31.014128
7.394787 -87.348896 31.619658
10.820412 -81.428608 15.989709
10.453979 -81.5322 17.209167
10.621567 -80.46875 16.817709
21.422663 -100.183643 32.229659
20.978157 -99.392646 33.915552
20.81158 -101.75819 31.2872
21.783323 -100.968254 30.57867
21.422663 -100.183643 32.229659
9.17324 -115.179062 23.14294
10.048153 -114.495201 24.219459
8.903363 -114.323715 24.721909
9.17324 -115.179062 23.14294
8.365299 -115.928696 22.082057
11.219167 -95.925369 52.991398
10.581615 -96.061424 52.934692
12.007751 -96.605987 51.829059
11.861154 -95.706284 52.871101
11.219167 -95.925369 52.991398
23.536317 -67.751533 -18.262149
24.648108 -65.516506 -18.981259
7.662756 -94.839878 45.837486
8.159647 -95.853135 45.247208
8.02599 -95.71188 46.441292
7.255486 -93.96682 45.183129
7.662756 -94.839878 45.837486
7.44895 -94.006462 43.975868
7.255486 -93.96682 45.183129
7.734707 -95.211556 48.763534
8.208917 -95.827896 49.313766
7.956899 -95.446281 47.608372
7.734707 -95.211556 48.763534
8.02599 -95.71188 46.441292
8.45379 -96.459538 47.018093
7.956899 -95.446281 47.608372
20.100527 -55.703051 -18.070492
20.010965 -57.366938 -17.89624
19.142246 -57.479717 -17.370787
20.100527 -55.703051 -18.070492
20.133823 -54.18397 -18.20707
0.924229 -114.334129 10.109541
0.813397 -114.185916 11.616934
0.555938 -112.962352 11.569066
1.089726 -114.487606 8.610451
1.347185 -115.71117 8.658318
0.924229 -114.334129 10.109541
1.089726 -114.487606 8.610451
0.882644 -113.229691 8.595474
1.883927 -103.710556 8.224521
1.465416 -105.093827 8.329879
1.627526 -103.631798 9.498421
2.119592 -103.783459 7.028736
1.883927 -103.710556 8.224521
2.281703 -102.32143 8.197278
2.336434 -103.818794 5.823793
2.119592 -103.783459 7.028736
2.689804 -102.413552 5.876345
2.50887 -103.838013 4.698645
2.336434 -103.818794 5.823793
8.624643 -84.761605 24.477496
8.30781 -85.039803 25.773354
11.170577 -74.796856 10.298386
11.593156 -75.908123 10.651623
11.568058 -74.639248 9.228235
11.170577 -74.796856 10.298386
11.911126 -74.495953 8.17697
12.318656 -75.668602 8.501292
11.568058 -74.639248 9.228235
11.937542 -71.013889 4.67757
11.617425 -71.406456 5.621821
12.734086 -71.956802 3.980085
11.937542 -71.013889 4.67757
12.17491 -70.571796 3.752022
16.21368 -113.615871 21.133024
15.797085 -112.842659 22.578216
14.948266 -114.002719 21.791608
17.531261 -113.199475 20.566091
16.21368 -113.615871 21.133024
18.347569 -111.930012 21.31259
17.531261 -113.199475 20.566091
2.693634 -96.397706 -4.017141
3.016946 -95.564335 -2.975829
2.533919 -97.120247 -5.02803
2.693634 -96.397706 -4.017141
2.825184 -95.402618 -4.724833
2.497218 -97.88282 -6.152064
2.533919 -97.120247 -5.02803
4.710318 -98.948104 -11.070709
4.729831 -97.161255 -10.565579
5.499532 -97.575974 -11.593122
3.968013 -100.279843 -10.580533
4.710318 -98.948104 -11.070709
16.36765 -92.551514 -17.070334
16.333295 -90.941304 -16.733105
17.71426 -90.592693 -17.33007
15.078825 -94.485501 -16.867695
16.36765 -92.551514 -17.070334
13.681317 -94.734044 -16.247351
15.078825 -94.485501 -16.867695
11.539062 -55.921537 -3.93706
11.356102 -56.805653 -3.550666
10.92339 -55.575583 -3.290421
22.326983 -64.256029 -18.019154
21.195017 -64.454218 -17.505333
22.297926 -62.376705 -18.225333
23.491557 -64.030073 -18.556189
22.388649 -66.107586 -17.836189
22.326983 -64.256029 -18.019154
24.586588 -63.705417 -19.133192
23.491557 -64.030073 -18.556189
25.681472 -63.340294 -19.741227
24.648108 -65.516506 -18.981259
24.586588 -63.705417 -19.133192
18.991318 -52.953957 -17.078678
18.676414 -54.387497 -17.076586
18.076377 -54.488163 -16.463749
0.38885 -109.048576 11.273398
0.336513 -110.385593 11.405438
0.221217 -108.935833 12.744398
0.481018 -107.690079 11.197116
0.596315 -109.139839 9.858156
0.38885 -109.048576 11.273398
7.309241 -91.417946 36.17833
7.484025 -92.581421 36.854388
7.29644 -91.585388 37.52466
7.43664 -91.209274 34.853651
7.309241 -91.417946 36.17833
7.249054 -90.213242 35.523923
7.274763 -88.810817 33.568607
7.045374 -89.046459 34.8638
7.484459 -89.753563 32.845507
7.274763 -88.810817 33.568607
7.38277 -88.55981 32.214869
9.445847 -82.008484 20.966912
9.062348 -82.234493 22.223425
9.704985 -82.916813 20.137968
9.445847 -82.008484 20.966912
9.762094 -81.819241 19.695222
10.337029 -82.609814 17.623722
10.138183 -81.649956 18.451723
10.453979 -81.5322 17.209167
10.927846 -67.680855 3.378784
11.635274 -69.117267 3.554134
11.203882 -67.116715 2.519164
10.927846 -67.680855 3.378784
23.058702 -103.455917 26.052893
22.603912 -102.602291 27.479315
22.358717 -104.961724 25.173481
23.058702 -103.455917 26.052893
11.201362 -114.496346 23.601118
10.931484 -113.640998 25.180087
10.048153 -114.495201 24.219459
12.435126 -114.452988 23.038475
11.201362 -114.496346 23.601118
13.658617 -114.246669 22.376003
13.308182 -113.435825 23.899273
12.435126 -114.452988 23.038475
14.948266 -114.002719 21.791608
13.658617 -114.246669 22.376003
19.068882 -85.1834 -17.0383
19.156555 -83.448387 -16.825668
20.436791 -83.089703 -17.441782
19.014511 -86.903599 -17.323628
17.734276 -87.262283 -16.707514
19.068882 -85.1834 -17.0383
18.999316 -88.536236 -17.598387
19.014511 -86.903599 -17.323628
20.333922 -86.457352 -17.929172
17.71426 -90.592693 -17.33007
18.999316 -88.536236 -17.598387
15.940382 -53.355204 -11.748568
15.53848 -54.602873 -12.014256
15.299747 -54.61993 -11.311025
10.540344 -79.421566 16.40219
10.621567 -80.46875 16.817709
10.942927 -79.320022 15.206002
10.540344 -79.421566 16.40219
11.295224 -79.275154 14.021854
11.340298 -80.32029 14.414105
10.942927 -79.320022 15.206002
11.282744 -78.215615 13.649636
11.680115 -79.215881 12.857739
11.295224 -79.275154 14.021854
11.031254 -77.169559 13.257784
11.282744 -78.215615 13.649636
11.43918 -77.080345 12.118105
11.031254 -77.169559 13.257784
12.656489 -97.384251 50.700443
12.007751 -96.605987 51.829059
12.014502 -97.603336 50.82074
13.309885 -97.090576 50.399341
12.656489 -97.384251 50.700443
13.316636 -98.087924 49.391022
13.986683 -96.653519 50.10028
13.309885 -97.090576 50.399341
13.986683 -96.653519 50.10028
14.658561 -97.284927 48.61915
16.104847 -99.443153 43.994712
15.722049 -98.688973 45.566391
15.387995 -100.012321 44.61789
16.869575 -98.827671 43.250124
16.104847 -99.443153 43.994712
16.535522 -100.15102 42.301623
17.61745 -98.094098 42.53732
16.869575 -98.827671 43.250124
18.098128 -98.773395 40.763514
17.61745 -98.094098 42.53732
18.43978 -99.507042 39.020735
18.098128 -98.773395 40.763514
17.641903 -100.269184 39.814255
18.848785 -100.230324 37.241545
19.30501 -98.734535 38.190804
18.43978 -99.507042 39.020735
22.346125 -69.888443 -17.581218
22.363031 -68.01854 -17.692293
23.536317 -67.751533 -18.262149
21.090792 -72.063191 -16.952842
22.346125 -69.888443 -17.581218
22.264077 -71.796185 -17.522699
21.82131 -79.154885 -17.728159
20.64742 -79.537957 -17.098579
21.944266 -77.33815 -17.597588
21.71339 -80.89743 -17.872824
21.82131 -79.154885 -17.728159
7.57182 -93.990551 40.177301
7.837188 -95.053708 40.852654
7.614033 -94.022286 41.478266
7.409944 -92.853996 39.501816
7.6331 -93.885418 38.876204
7.57182 -93.990551 40.177301
7.138563 -91.744331 38.812357
7.409944 -92.853996 39.501816
7.29644 -91.585388 37.52466
7.138563 -91.744331 38.812357
9.386966 -95.966774 52.628186
9.98126 -96.051647 52.862305
8.832078 -95.733448 52.369221
8.059624 -94.832531 53.056721
8.282826 -95.43795 51.974152
9.610167 -96.572193 51.545616
9.386966 -95.966774 52.628186
8.832078 -95.733448 52.369221
8.846676 -96.780746 48.641796
8.670894 -96.414704 49.77039
8.208917 -95.827896 49.313766
4.743318 -93.108265 -0.36344
4.946617 -93.754917 0.408851
5.500396 -92.182876 0.434361
4.043502 -93.91151 -1.145645
4.743318 -93.108265 -0.36344
4.597282 -92.33947 -1.120135
3.473229 -94.795654 -2.070026
4.043502 -93.91151 -1.145645
3.441183 -93.911396 -2.808142
3.016946 -95.564335 -2.975829
3.473229 -94.795654 -2.070026
21.108017 -60.768705 -17.943464
20.066435 -62.661108 -17.23032
20.008492 -60.854919 -17.462272
22.172708 -60.582379 -18.452818
21.108017 -60.768705 -17.943464
20.051379 -59.053061 -17.685976
20.010965 -57.366938 -17.89624
4.865089 -116.181382 20.295255
5.833343 -116.719479 20.006646
5.50993 -115.656185 21.572979
4.293232 -116.574341 18.912573
4.865089 -116.181382 20.295255
3.969818 -115.511047 20.478906
3.802644 -117.043358 17.551962
4.293232 -116.574341 18.912573
2.996551 -116.258411 17.649864
2.687421 -115.049366 19.183253
2.286011 -115.403771 17.736894
3.802644 -117.043358 17.551962
2.996551 -116.258411 17.649864
1.628381 -116.201222 13.213194
1.755356 -115.970924 14.739017
1.233303 -114.928577 14.724043
1.628381 -116.201222 13.213194
1.578634 -116.467762 11.704909
0.843873 -109.237556 8.443443
0.596315 -109.139839 9.858156
0.843873 -109.237556 8.443443
0.949287 -107.867005 8.433027
1.209553 -106.483868 8.34398
1.465416 -105.093827 8.329879
2.636186 -103.784142 3.562122
2.50887 -103.838013 4.698645
2.636186 -103.784142 3.562122
2.930947 -102.347343 3.695836
7.552632 -85.903774 29.733232
7.237338 -86.179123 31.014128
7.771185 -85.615555 28.401027
7.805621 -84.440064 27.872516
8.088044 -85.328797 27.108425
7.835055 -86.792507 28.969141
7.552632 -85.903774 29.733232
7.771185 -85.615555 28.401027
9.072441 -83.351483 22.698927
9.062348 -82.234493 22.223425
8.850564 -84.497028 23.151829
9.072441 -83.351483 22.698927
9.16686 -84.251602 21.862559
8.719062 -85.661724 23.641129
8.624643 -84.761605 24.477496
8.850564 -84.497028 23.151829
4.387679 -98.139748 3.791653
3.81205 -99.515007 3.816581
4.381196 -98.267067 4.771944
4.387679 -98.139748 3.791653
4.90367 -96.712112 3.830267
5.313932 -94.756817 2.020645
5.460112 -95.118484 2.873992
5.886703 -93.267041 2.02056
5.130925 -94.319305 1.206738
5.313932 -94.756817 2.020645
12.180014 -76.93787 9.897291
11.797581 -77.034096 10.996357
11.593156 -75.908123 10.651623
11.521434 -73.24807 7.879781
10.941505 -72.016655 7.58861
12.272032 -74.277424 7.152838
11.911126 -74.495953 8.17697
11.521434 -73.24807 7.879781
12.18953 -72.714218 5.880641
11.310237 -71.721779 6.596829
11.617425 -71.406456 5.621821
11.389392 -66.47454 1.674041
12.077691 -67.963478 1.81364
11.203882 -67.116715 2.519164
11.608277 -65.801147 0.86876
11.389392 -66.47454 1.674041
11.724381 -65.028183 0.077253
12.379305 -66.548339 0.177009
11.608277 -65.801147 0.86876
11.11865 -63.504176 0.025124
10.38775 -61.987871 -0.008392
11.889678 -64.251368 -0.666627
11.724381 -65.028183 0.077253
11.11865 -63.504176 0.025124
11.053449 -58.634464 -2.562143
11.639867 -60.059809 -2.646279
10.947546 -59.570127 -1.977558
11.243099 -57.791922 -3.067446
11.053449 -58.634464 -2.562143
9.523941 -54.795738 -2.048606
10.267824 -55.278431 -2.690993
9.080307 -53.603808 -1.901666
9.523941 -54.795738 -2.048606
9.432215 -53.186426 -2.272798
9.080307 -53.603808 -1.901666
21.597648 -106.447037 24.359748
22.358717 -104.961724 25.173481
21.174645 -105.635551 25.757193
20.829591 -107.896034 23.569543
19.590166 -108.511024 24.18337
20.00618 -109.286194 22.809452
22.013662 -107.222206 22.98583
21.597648 -106.447037 24.359748
20.829591 -107.896034 23.569543
9.677745 -51.615368 -2.615658
9.636973 -52.409952 -2.54801
10.389411 -51.647097 -3.187698
9.677745 -51.615368 -2.615658
11.03951 -51.786808 -3.782664
10.854836 -52.683927 -3.623347
10.389411 -51.647097 -3.187698
11.763822 -51.861489 -4.408938
11.03951 -51.786808 -3.782664
12.372321 -51.97798 -5.05347
12.113433 -52.94013 -4.862846
11.763822 -51.861489 -4.408938
13.046479 -52.051029 -5.71845
12.372321 -51.97798 -5.05347
13.562385 -52.135407 -6.39107
13.237839 -53.140999 -6.179998
13.046479 -52.051029 -5.71845
13.959118 -51.098145 -6.62381
14.389817 -50.144216 -6.804084
14.150479 -52.188114 -7.085358
13.562385 -52.135407 -6.39107
13.959118 -51.098145 -6.62381
15.050116 -52.264544 -8.493296
14.558722 -52.239553 -7.775441
15.038605 -51.175842 -8.035953
15.363408 -52.286938 -9.194062
14.883525 -53.350649 -8.93355
15.050116 -52.264544 -8.493296
15.769372 -52.28278 -9.930421
15.363408 -52.286938 -9.194062
16.021788 -52.282388 -10.635932
15.449233 -53.372652 -10.339827
15.769372 -52.28278 -9.930421
16.370387 -52.250481 -11.384241
16.021788 -52.282388 -10.635932
16.690525 -51.160608 -10.974835
15.940382 -53.355204 -11.748568
16.370387 -52.250481 -11.384241
17.922622 -52.016267 -14.945439
17.088884 -53.232666 -14.507717
18.329405 -51.902761 -15.669662
17.922622 -52.016267 -14.945439
18.801567 -51.83618 -16.312939
17.919119 -53.121205 -15.822564
18.329405 -51.902761 -15.669662
19.289609 -51.686064 -17.011333
18.801567 -51.83618 -16.312939
18.991318 -52.953957 -17.078678
19.289609 -51.686064 -17.011333
2.657421 -98.535789 -7.225743
2.497218 -97.88282 -6.152064
2.825671 -96.77813 -6.809401
2.924188 -99.198857 -8.379143
3.463246 -97.982242 -8.963123
3.40156 -99.75 -9.459184
2.657421 -98.535789 -7.225743
2.924188 -99.198857 -8.379143
9.763827 -94.912278 -14.145988
11.030691 -93.183182 -14.434752
11.023415 -94.940911 -14.880838
8.593333 -96.533825 -13.766811
8.600609 -94.776096 -13.320725
9.763827 -94.912278 -14.145988
7.47575 -98.127872 -13.447
8.593333 -96.533825 -13.766811
3 468 119 469
3 470 469 117
3 468 469 470
3 0 122 120
3 0 125 123
3 0 120 125
3 1 129 127
3 471 132 472
3 473 472 130
3 471 472 473
3 475 474 132
3 3 476 477
3 4 136 134
3 4 138 136
3 5 141 139
3 5 143 141
3 5 145 143
3 6 478 479
3 6 480 481
3 6 482 484
3 482 146 483
3 482 483 484
3 3 485 487
3 487 486 147
3 485 486 487
3 3 488 489
3 2 150 148
3 7 153 151
3 9 156 154
3 9 158 156
3 10 161 159
3 12 164 162
3 12 166 164
3 13 490 492
3 490 167 491
3 490 491 492
3 14 170 168
3 14 172 170
3 14 174 172
3 10 177 175
3 10 159 177
3 16 181 179
3 19 186 184
3 21 189 187
3 21 191 189
3 8 194 192
3 22 197 195
3 22 199 197
3 22 201 199
3 493 204 494
3 495 494 202
3 493 494 495
3 497 496 204
3 11 207 205
3 498 210 499
3 500 499 208
3 498 499 500
3 502 501 210
3 23 212 211
3 23 214 212
3 18 217 215
3 24 220 218
3 24 222 220
3 25 225 223
3 25 227 225
3 25 229 227
3 26 232 230
3 26 234 232
3 26 236 234
3 27 239 237
3 27 241 239
3 28 503 505
3 503 244 504
3 503 504 505
3 28 246 244
3 28 248 246
3 15 251 249
3 20 254 253
3 29 506 508
3 508 507 255
3 506 507 508
3 29 509 510
3 17 259 257
3 511 263 512
3 513 512 261
3 511 512 513
3 31 264 118
3 31 265 264
3 32 268 266
3 34 269 121
3 34 270 269
3 35 273 271
3 37 274 124
3 37 275 274
3 37 277 275
3 32 278 126
3 32 266 278
3 515 514 279
3 40 283 281
3 42 284 128
3 42 285 284
3 43 288 286
3 45 289 131
3 45 290 289
3 45 292 290
3 47 293 133
3 47 294 293
3 48 297 295
3 50 298 135
3 50 299 298
3 50 301 299
3 52 302 137
3 52 303 302
3 516 305 517
3 54 518 520
3 518 306 519
3 518 519 520
3 54 307 306
3 521 309 522
3 56 310 140
3 56 311 310
3 56 313 311
3 58 314 142
3 58 315 314
3 58 317 315
3 60 318 144
3 60 319 318
3 61 523 524
3 61 525 527
3 525 320 526
3 525 526 527
3 62 323 321
3 64 326 324
3 66 327 149
3 66 328 327
3 529 528 329
3 68 333 331
3 70 334 152
3 70 335 334
3 30 336 262
3 71 337 155
3 71 338 337
3 71 339 338
3 72 340 157
3 72 341 340
3 73 344 342
3 75 345 160
3 75 346 345
3 33 347 267
3 76 348 163
3 76 349 348
3 76 350 349
3 77 351 165
3 77 352 351
3 36 354 272
3 78 355 169
3 78 530 532
3 532 531 355
3 530 531 532
3 78 533 534
3 79 356 171
3 79 357 356
3 79 359 357
3 81 360 173
3 81 361 360
3 38 362 276
3 82 363 176
3 82 364 363
3 82 365 364
3 73 366 178
3 73 342 366
3 83 369 367
3 85 370 180
3 85 371 370
3 39 372 280
3 535 373 536
3 537 374 538
3 539 538 373
3 537 538 539
3 541 540 374
3 86 377 375
3 542 378 543
3 544 543 182
3 542 543 544
3 546 545 378
3 547 379 548
3 549 380 550
3 551 550 379
3 549 550 551
3 86 381 183
3 86 375 381
3 88 552 553
3 89 382 185
3 89 383 382
3 41 384 282
3 90 385 188
3 90 386 385
3 90 387 386
3 91 388 190
3 91 389 388
3 69 390 332
3 92 391 193
3 92 392 391
3 44 393 287
3 93 394 196
3 93 395 394
3 93 396 395
3 94 397 198
3 94 398 397
3 94 399 398
3 95 400 200
3 95 401 400
3 46 402 291
3 96 403 203
3 96 404 403
3 96 554 556
3 556 555 404
3 554 555 556
3 74 405 343
3 97 557 559
3 559 558 206
3 557 558 559
3 97 560 561
3 49 406 296
3 562 407 563
3 564 563 209
3 562 563 564
3 566 565 407
3 51 567 569
3 569 568 300
3 567 568 569
3 98 570 572
3 572 571 213
3 570 571 572
3 98 573 574
3 87 408 376
3 99 409 216
3 99 410 409
3 53 411 304
3 100 412 219
3 100 413 412
3 100 414 413
3 101 415 221
3 101 416 415
3 102 575 577
3 575 417 576
3 575 576 577
3 102 418 417
3 55 419 308
3 103 420 224
3 103 421 420
3 103 422 421
3 104 423 226
3 104 424 423
3 104 425 424
3 105 426 228
3 105 427 426
3 57 428 312
3 106 429 231
3 106 430 429
3 106 431 430
3 107 432 233
3 107 578 580
3 580 579 432
3 578 579 580
3 107 581 583
3 581 433 582
3 581 582 583
3 108 434 235
3 108 435 434
3 59 436 316
3 109 437 238
3 109 438 437
3 109 439 438
3 110 440 240
3 110 441 440
3 584 442 585
3 586 585 353
3 584 585 586
3 111 443 242
3 111 444 443
3 587 445 588
3 112 446 243
3 112 447 446
3 112 448 447
3 113 449 245
3 113 450 449
3 113 451 450
3 114 452 247
3 114 453 452
3 589 454 590
3 591 455 592
3 593 592 454
3 591 592 593
3 595 594 455
3 80 456 358
3 115 457 250
3 115 458 457
3 63 459 322
3 596 460 597
3 598 597 252
3 596 597 598
3 600 599 460
3 601 461 602
3 604 603 461
3 65 462 325
3 607 606 256
3 605 606 607
3 84 463 368
3 116 464 258
3 116 465 464
3 67 466 330
3 608 467 609
3 610 609 260
3 608 609 610
3 612 611 467
3 117 613 615
3 613 118 614
3 613 614 615
3 119 118 117
3 119 31 118
3 120 121 32
3 122 121 120
3 122 34 121
3 123 124 35
3 125 124 123
3 125 37 124
3 125 126 37
3 120 126 125
3 120 32 126
3 127 128 40
3 129 128 127
3 129 42 128
3 130 131 43
3 132 131 130
3 132 45 131
3 132 133 45
3 616 133 617
3 618 617 132
3 616 617 618
3 619 47 620
3 621 620 133
3 619 620 621
3 134 135 48
3 136 135 134
3 136 50 135
3 136 137 50
3 138 137 136
3 138 52 137
3 622 54 623
3 139 624 626
3 624 140 625
3 624 625 626
3 141 140 139
3 141 56 140
3 141 142 56
3 143 142 141
3 143 58 142
3 143 144 58
3 145 144 143
3 145 60 144
3 146 627 628
3 146 629 631
3 629 61 630
3 629 630 631
3 147 632 634
3 634 633 62
3 632 633 634
3 636 635 147
3 148 149 64
3 150 149 148
3 150 66 149
3 151 152 68
3 153 152 151
3 153 70 152
3 154 155 30
3 156 155 154
3 156 71 155
3 156 157 71
3 158 157 156
3 158 72 157
3 159 160 73
3 161 160 159
3 161 75 160
3 162 163 33
3 164 163 162
3 164 76 163
3 164 165 76
3 166 165 164
3 166 77 165
3 167 637 638
3 167 639 641
3 639 640 641
3 168 169 36
3 170 169 168
3 170 78 169
3 170 171 78
3 172 171 170
3 172 79 171
3 172 173 79
3 174 173 172
3 174 81 173
3 175 176 38
3 177 176 175
3 177 82 176
3 177 178 82
3 159 178 177
3 159 73 178
3 179 180 83
3 181 180 179
3 181 85 180
3 643 642 39
3 644 182 645
3 646 645 86
3 644 645 646
3 647 182 648
3 650 649 182
3 651 183 652
3 653 183 654
3 655 86 656
3 657 656 183
3 655 656 657
3 184 185 88
3 186 185 184
3 186 89 185
3 187 188 41
3 189 188 187
3 189 90 188
3 189 190 90
3 191 190 189
3 191 91 190
3 192 193 69
3 194 193 192
3 194 92 193
3 195 196 44
3 197 196 195
3 197 93 196
3 197 198 93
3 199 198 197
3 199 94 198
3 199 200 94
3 201 200 199
3 201 95 200
3 202 203 46
3 204 203 202
3 204 96 203
3 204 658 660
3 660 659 96
3 658 659 660
3 662 661 204
3 205 206 74
3 207 206 205
3 207 97 206
3 208 209 49
3 210 209 208
3 210 663 665
3 665 664 209
3 663 664 665
3 210 666 668
3 666 667 668
3 670 669 210
3 211 671 673
3 673 672 51
3 671 672 673
3 212 674 676
3 676 675 211
3 674 675 676
3 212 677 678
3 212 679 681
3 679 213 680
3 679 680 681
3 214 213 212
3 214 98 213
3 215 216 87
3 217 216 215
3 217 99 216
3 218 219 53
3 220 219 218
3 220 100 219
3 220 221 100
3 222 221 220
3 222 101 221
3 682 102 683
3 223 224 55
3 225 224 223
3 225 103 224
3 225 226 103
3 227 226 225
3 227 104 226
3 227 228 104
3 229 228 227
3 229 105 228
3 230 231 57
3 232 231 230
3 232 106 231
3 232 233 106
3 234 233 232
3 234 107 233
3 234 235 107
3 236 235 234
3 236 108 235
3 237 238 59
3 239 238 237
3 239 109 238
3 239 240 109
3 241 240 239
3 241 110 240
3 684 242 685
3 686 242 687
3 688 111 689
3 690 689 242
3 688 689 690
3 691 243 692
3 244 693 695
3 693 243 694
3 693 694 695
3 244 112 243
3 244 245 112
3 246 245 244
3 246 113 245
3 246 247 113
3 248 247 246
3 248 114 247
3 249 250 80
3 251 250 249
3 251 115 250
3 696 252 697
3 698 697 63
3 696 697 698
3 699 252 700
3 702 701 252
3 253 703 704
3 254 705 707
3 707 706 253
3 705 706 707
3 254 708 709
3 255 256 65
3 710 256 711
3 712 711 255
3 710 711 712
3 714 713 256
3 257 258 84
3 259 258 257
3 259 116 258
3 715 260 716
3 717 716 67
3 715 716 717
3 718 260 719
3 721 720 260
3 261 262 7
3 263 262 261
3 263 30 262
3 118 722 724
3 722 263 723
3 722 723 724
3 264 263 118
3 264 30 263
3 264 154 30
3 265 154 264
3 265 9 154
3 266 267 10
3 268 267 266
3 268 33 267
3 121 268 32
3 269 268 121
3 269 33 268
3 269 162 33
3 270 162 269
3 270 12 162
3 271 272 13
3 273 272 271
3 273 36 272
3 124 273 35
3 274 273 124
3 274 36 273
3 274 168 36
3 275 168 274
3 275 14 168
3 275 276 14
3 277 276 275
3 277 38 276
3 126 277 37
3 278 277 126
3 278 38 277
3 278 175 38
3 266 175 278
3 266 10 175
3 279 280 16
3 725 280 726
3 727 726 279
3 725 726 727
3 728 39 729
3 730 729 280
3 728 729 730
3 731 39 732
3 735 734 39
3 733 734 735
3 281 282 19
3 283 282 281
3 283 41 282
3 128 283 40
3 284 283 128
3 284 41 283
3 284 187 41
3 285 187 284
3 285 21 187
3 286 287 8
3 288 287 286
3 288 44 287
3 131 288 43
3 289 288 131
3 289 44 288
3 289 195 44
3 290 195 289
3 290 22 195
3 290 291 22
3 292 291 290
3 292 46 291
3 133 292 45
3 293 292 133
3 293 46 292
3 293 202 46
3 294 202 293
3 294 736 738
3 738 737 202
3 736 737 738
3 295 296 11
3 297 296 295
3 297 49 296
3 135 297 48
3 298 297 135
3 298 49 297
3 298 208 49
3 299 208 298
3 299 739 741
3 741 740 208
3 739 740 741
3 299 742 744
3 742 300 743
3 742 743 744
3 301 300 299
3 301 51 300
3 137 301 50
3 302 301 137
3 302 51 301
3 302 211 51
3 303 211 302
3 303 23 211
3 745 304 746
3 747 746 18
3 745 746 747
3 305 748 750
3 748 304 749
3 748 749 750
3 305 53 304
3 751 305 752
3 306 753 755
3 753 305 754
3 753 754 755
3 306 53 305
3 306 218 53
3 307 218 306
3 307 24 218
3 756 308 757
3 309 758 760
3 758 308 759
3 758 759 760
3 309 55 308
3 140 761 763
3 761 309 762
3 761 762 763
3 310 309 140
3 310 55 309
3 310 223 55
3 311 223 310
3 311 25 223
3 311 312 25
3 313 312 311
3 313 57 312
3 142 313 56
3 314 313 142
3 314 57 313
3 314 230 57
3 315 230 314
3 315 26 230
3 315 316 26
3 317 316 315
3 317 59 316
3 144 317 58
3 318 317 144
3 318 59 317
3 318 237 59
3 319 237 318
3 319 27 237
3 764 28 765
3 767 766 28
3 320 768 769
3 320 770 771
3 321 322 15
3 323 322 321
3 323 63 322
3 772 323 773
3 774 773 62
3 772 773 774
3 775 323 776
3 777 63 778
3 779 778 323
3 777 778 779
3 781 780 63
3 324 325 20
3 326 325 324
3 326 65 325
3 149 326 64
3 327 326 149
3 327 65 326
3 327 255 65
3 328 255 327
3 328 29 255
3 329 330 17
3 782 330 783
3 784 783 329
3 782 783 784
3 785 67 786
3 787 786 330
3 785 786 787
3 788 67 789
3 788 789 790
3 792 791 67
3 331 332 1
3 333 332 331
3 333 69 332
3 152 333 68
3 334 333 152
3 334 69 333
3 334 192 69
3 335 192 334
3 335 8 192
3 262 153 7
3 336 153 262
3 336 70 153
3 155 336 30
3 337 336 155
3 337 70 336
3 337 335 70
3 338 335 337
3 338 8 335
3 338 286 8
3 339 286 338
3 339 43 286
3 157 339 71
3 340 339 157
3 340 43 339
3 340 130 43
3 341 130 340
3 341 793 795
3 795 794 130
3 793 794 795
3 342 343 3
3 344 343 342
3 344 74 343
3 160 344 73
3 345 344 160
3 345 74 344
3 345 205 74
3 346 205 345
3 346 11 205
3 267 161 10
3 347 161 267
3 347 75 161
3 163 347 33
3 348 347 163
3 348 75 347
3 348 346 75
3 349 346 348
3 349 11 346
3 349 295 11
3 350 295 349
3 350 48 295
3 165 350 76
3 351 350 165
3 351 48 350
3 351 134 48
3 352 134 351
3 352 4 134
3 796 139 797
3 798 139 799
3 800 5 801
3 802 801 139
3 800 801 802
3 803 353 804
3 805 804 5
3 803 804 805
3 806 353 807
3 809 808 353
3 272 167 13
3 354 167 272
3 354 810 812
3 812 811 167
3 810 811 812
3 169 354 36
3 355 354 169
3 355 813 815
3 815 814 354
3 813 814 815
3 355 816 817
3 819 818 355
3 171 820 822
3 822 821 78
3 820 821 822
3 356 823 825
3 825 824 171
3 823 824 825
3 356 826 827
3 356 828 829
3 357 830 832
3 832 831 356
3 830 831 832
3 357 833 835
3 833 6 834
3 833 834 835
3 357 358 6
3 359 358 357
3 359 80 358
3 173 359 79
3 360 359 173
3 360 80 359
3 360 249 80
3 361 249 360
3 361 15 249
3 276 174 14
3 362 174 276
3 362 81 174
3 176 362 38
3 363 362 176
3 363 81 362
3 363 361 81
3 364 361 363
3 364 15 361
3 364 321 15
3 365 321 364
3 365 62 321
3 178 365 82
3 366 365 178
3 366 62 365
3 366 147 62
3 342 147 366
3 342 3 147
3 367 368 2
3 369 368 367
3 369 84 368
3 180 369 83
3 370 369 180
3 370 84 369
3 370 257 84
3 371 257 370
3 371 17 257
3 280 181 16
3 372 181 280
3 372 85 181
3 836 372 837
3 838 837 39
3 836 837 838
3 373 839 841
3 839 372 840
3 839 840 841
3 373 85 372
3 373 371 85
3 374 371 373
3 374 17 371
3 374 329 17
3 842 329 843
3 844 843 374
3 842 843 844
3 846 845 329
3 375 376 0
3 377 376 375
3 377 87 376
3 182 377 86
3 378 377 182
3 378 87 377
3 378 215 87
3 847 215 848
3 849 848 378
3 847 848 849
3 850 18 851
3 852 851 215
3 850 851 852
3 853 18 854
3 856 855 18
3 857 13 858
3 379 859 861
3 859 860 861
3 379 862 864
3 862 13 863
3 862 863 864
3 379 271 13
3 380 271 379
3 380 35 271
3 183 865 867
3 865 380 866
3 865 866 867
3 381 380 183
3 381 35 380
3 381 123 35
3 375 123 381
3 375 0 123
3 185 868 870
3 870 869 88
3 868 869 870
3 382 871 873
3 873 872 185
3 871 872 873
3 382 874 875
3 382 876 878
3 876 253 877
3 876 877 878
3 383 253 382
3 383 20 253
3 282 186 19
3 384 186 282
3 384 89 186
3 188 384 41
3 385 384 188
3 385 89 384
3 385 383 89
3 386 383 385
3 386 20 383
3 386 324 20
3 387 324 386
3 387 64 324
3 190 387 90
3 388 387 190
3 388 64 387
3 388 148 64
3 389 148 388
3 389 2 148
3 332 129 1
3 390 129 332
3 390 42 129
3 193 390 69
3 391 390 193
3 391 42 390
3 391 285 42
3 392 285 391
3 392 21 285
3 287 194 8
3 393 194 287
3 393 92 194
3 196 393 44
3 394 393 196
3 394 92 393
3 394 392 92
3 395 392 394
3 395 21 392
3 395 191 21
3 396 191 395
3 396 91 191
3 198 396 93
3 397 396 198
3 397 91 396
3 397 389 91
3 398 389 397
3 398 2 389
3 398 367 2
3 399 367 398
3 399 83 367
3 200 399 94
3 400 399 200
3 400 83 399
3 400 179 83
3 401 179 400
3 401 16 179
3 291 201 22
3 402 201 291
3 402 95 201
3 203 402 46
3 403 402 203
3 403 95 402
3 403 401 95
3 404 401 403
3 404 16 401
3 404 279 16
3 879 279 880
3 881 880 404
3 879 880 881
3 883 882 279
3 885 884 96
3 343 886 888
3 888 887 3
3 886 887 888
3 405 889 891
3 891 890 343
3 889 890 891
3 405 892 893
3 206 405 74
3 894 405 895
3 896 895 206
3 894 895 896
3 898 897 405
3 296 207 11
3 406 207 296
3 406 97 207
3 209 406 49
3 407 406 209
3 407 97 406
3 407 899 901
3 901 900 97
3 899 900 901
3 903 902 407
3 300 904 905
3 907 906 300
3 909 908 51
3 213 910 911
3 913 912 213
3 376 122 0
3 408 122 376
3 408 34 122
3 216 408 87
3 409 408 216
3 409 34 408
3 409 270 34
3 410 270 409
3 410 12 270
3 304 217 18
3 411 217 304
3 411 99 217
3 219 411 53
3 412 411 219
3 412 99 411
3 412 410 99
3 413 410 412
3 413 12 410
3 413 166 12
3 414 166 413
3 414 77 166
3 221 414 100
3 415 414 221
3 415 77 414
3 415 352 77
3 416 352 415
3 416 4 352
3 914 54 915
3 417 916 918
3 916 917 918
3 417 919 921
3 919 54 920
3 919 920 921
3 417 307 54
3 418 307 417
3 418 24 307
3 308 922 923
3 419 924 926
3 926 925 308
3 924 925 926
3 419 927 929
3 927 102 928
3 927 928 929
3 224 419 55
3 420 419 224
3 420 102 419
3 420 418 102
3 421 418 420
3 421 24 418
3 421 222 24
3 422 222 421
3 422 101 222
3 226 422 103
3 423 422 226
3 423 101 422
3 423 416 101
3 424 416 423
3 424 4 416
3 424 138 4
3 425 138 424
3 425 52 138
3 228 425 104
3 426 425 228
3 426 52 425
3 426 303 52
3 427 303 426
3 427 23 303
3 312 229 25
3 428 229 312
3 428 105 229
3 231 428 57
3 429 428 231
3 429 105 428
3 429 427 105
3 430 427 429
3 430 23 427
3 430 214 23
3 431 214 430
3 431 98 214
3 233 431 106
3 432 431 233
3 432 98 431
3 432 930 932
3 932 931 98
3 930 931 932
3 934 933 432
3 433 935 936
3 433 937 939
3 937 88 938
3 937 938 939
3 235 433 107
3 434 433 235
3 434 88 433
3 434 184 88
3 435 184 434
3 435 19 184
3 316 236 26
3 436 236 316
3 436 108 236
3 238 436 59
3 437 436 238
3 437 108 436
3 437 435 108
3 438 435 437
3 438 19 435
3 438 281 19
3 439 281 438
3 439 40 281
3 240 439 109
3 440 439 240
3 440 40 439
3 440 127 40
3 441 127 440
3 441 1 127
3 353 145 5
3 442 145 353
3 442 60 145
3 242 940 942
3 940 442 941
3 940 941 942
3 443 442 242
3 443 60 442
3 443 319 60
3 444 319 443
3 444 27 319
3 445 943 944
3 445 945 947
3 945 111 946
3 945 946 947
3 243 948 950
3 948 445 949
3 948 949 950
3 446 445 243
3 446 111 445
3 446 444 111
3 447 444 446
3 447 27 444
3 447 241 27
3 448 241 447
3 448 110 241
3 245 448 112
3 449 448 245
3 449 110 448
3 449 441 110
3 450 441 449
3 450 1 441
3 450 331 1
3 451 331 450
3 451 68 331
3 247 451 113
3 452 451 247
3 452 68 451
3 452 151 68
3 453 151 452
3 453 7 151
3 951 248 952
3 953 952 28
3 951 952 953
3 954 248 955
3 956 114 957
3 958 957 248
3 956 957 958
3 454 959 960
3 454 961 963
3 961 114 962
3 961 962 963
3 454 453 114
3 455 453 454
3 455 7 453
3 455 261 7
3 964 261 965
3 966 965 455
3 964 965 966
3 968 967 261
3 969 117 970
3 971 117 972
3 974 973 117
3 358 146 6
3 456 146 358
3 456 61 146
3 250 456 80
3 457 456 250
3 457 61 456
3 457 320 61
3 458 320 457
3 458 975 977
3 977 976 320
3 975 976 977
3 322 251 15
3 459 251 322
3 459 115 251
3 252 459 63
3 460 459 252
3 460 115 459
3 460 458 115
3 978 458 979
3 980 979 460
3 978 979 980
3 983 982 458
3 981 982 983
3 984 119 985
3 986 119 987
3 988 31 989
3 990 989 119
3 988 989 990
3 991 31 992
3 993 265 994
3 995 994 31
3 993 994 995
3 996 265 997
3 998 9 999
3 1000 999 265
3 998 999 1000
3 461 1001 1002
3 461 1003 1005
3 1003 9 1004
3 1003 1004 1005
3 461 158 9
3 1006 158 1007
3 1008 1007 461
3 1006 1007 1008
3 1009 72 1010
3 1011 1010 158
3 1009 1010 1011
3 1012 72 1013
3 1014 341 1015
3 1016 1015 72
3 1014 1015 1016
3 1017 341 1018
3 1017 1018 1019
3 1021 1020 341
3 1022 47 1023
3 1024 47 1025
3 1026 294 1027
3 1028 1027 47
3 1026 1027 1028
3 1029 294 1030
3 1032 1031 294
3 325 254 20
3 462 254 325
3 462 1033 1035
3 1035 1034 254
3 1033 1034 1035
3 256 462 65
3 1036 462 1037
3 1038 1037 256
3 1036 1037 1038
3 1040 1039 462
3 368 150 2
3 463 150 368
3 463 66 150
3 258 463 84
3 464 463 258
3 464 66 463
3 464 328 66
3 465 328 464
3 465 29 328
3 330 259 17
3 466 259 330
3 466 116 259
3 260 466 67
3 467 466 260
3 467 116 466
3 467 465 116
3 1041 465 1042
3 1043 1042 467
3 1041 1042 1043
3 1044 29 1045
3 1046 1045 465
3 1044 1045 1046
3 1048 1047 29
