ply
format ascii 1.0
element vertex 497
property float x
property float y
property float z
element face 592
property list uchar int vertex_index
end_header
40.055321 61.472893 24.367535
24.068062 70.218048 24.994957
35.550652 49.124489 41.492172
37.077663 68.749542 15.412534
32.650387 64.993118 24.216349
28.320986 74.338974 13.851702
27.156483 51.93084 43.421219
16.027031 76.885803 27.557369
19.372826 81.15258 14.302153
23.954544 81.487411 2.167412
21.382917 63.843437 36.157383
29.436125 58.668625 34.006535
38.331142 55.429962 32.294575
41.702991 61.308571 21.643847
42.382607 57.76255 26.239641
38.646358 64.899513 20.517519
40.493336 64.984352 16.528133
36.926064 63.156677 24.361565
34.764042 67.501564 19.740753
20.126801 73.665222 26.115866
17.596077 79.541237 20.922394
21.746181 76.021423 19.88818
31.179878 75.204163 8.790934
26.309021 78.22686 8.123588
17.420364 66.605354 37.904076
20.214161 59.79319 41.211418
31.327078 50.547386 42.663307
28.219009 55.453293 38.878441
32.515892 53.679108 38.006416
33.885742 56.832291 33.241474
36.937847 52.14917 36.853752
41.025543 50.725601 35.162445
39.54715 47.565895 39.656624
35.686287 72.221146 9.826101
39.413681 68.479042 10.984397
28.213837 67.244583 24.343405
25.918097 72.615814 19.276278
30.334967 69.843414 19.247292
32.904449 71.628212 14.452335
23.117477 53.434311 44.337093
34.399349 46.017654 46.076149
16.691807 85.255722 8.349497
23.780708 77.539314 13.808842
21.463161 81.7323 7.980089
18.674107 85.064819 1.933063
14.577927 73.280907 33.997429
18.728374 70.513428 32.173912
22.635059 67.293526 30.726513
24.154634 57.521973 39.807472
25.299618 61.062325 34.911507
26.591434 64.260071 29.666729
30.879385 61.868912 29.01733
35.372398 60.145729 28.61327
39.443897 58.82058 27.960453
42.100971 54.202499 30.701767
40.852142 61.492821 23.218401
42.158302 59.519547 23.985432
41.133919 59.871887 25.243652
39.431385 63.026962 22.705627
40.263897 63.26564 21.018003
38.732983 62.271492 24.401443
37.754795 64.240166 22.412151
22.094116 71.920403 25.50745
20.895615 74.945526 23.0042
22.895966 73.174652 22.50198
18.244041 60.930153 42.199909
19.682682 57.534859 43.644901
33.44347 49.849304 42.152721
31.895838 52.135307 40.361191
34.062077 51.37043 39.828461
34.731503 52.891167 37.482212
36.225761 50.617737 39.170715
38.331566 49.865417 38.36673
37.605556 48.364075 40.662048
36.364742 70.554695 12.657304
37.658752 70.482674 10.401423
38.245476 68.80204 13.216505
41.416176 64.481979 14.381429
30.411552 66.037971 24.222446
29.20891 68.616066 21.75539
31.442776 67.438652 21.792873
35.909973 68.310822 17.577768
33.801628 69.618546 17.157104
35.073292 70.262993 14.90416
34.284019 72.087715 12.127665
32.391605 46.558701 46.652176
18.451321 80.48056 17.592299
16.273411 82.114883 18.115108
17.152912 82.875076 14.706627
15.778865 84.959526 11.734126
18.082727 83.349724 11.359032
27.05143 73.574387 16.517834
24.849655 75.156479 16.592432
26.028671 75.861359 13.75661
25.192976 79.931984 5.165218
23.872635 79.926659 7.984209
22.653488 81.69323 5.001317
20.138826 83.514061 4.971479
21.298031 83.277618 1.981733
19.792988 84.664085 -1.04925
13.900877 71.160324 37.132111
19.421953 65.257095 36.959793
18.063755 68.651024 35.078896
20.052036 67.17231 34.229591
20.699081 68.919571 31.404003
21.997629 65.638954 33.491749
25.119699 52.658585 43.815674
23.619793 55.555527 42.110085
25.625507 54.628075 41.608501
28.80549 57.076805 36.475025
26.72736 58.163994 36.914124
27.326855 59.799202 34.42733
25.918205 62.690849 32.320541
27.973896 61.394241 31.874409
28.68924 62.971497 29.294024
30.122581 60.262627 31.506844
36.146278 56.092651 32.81749
34.61882 58.481857 30.894043
36.846092 57.77607 30.54962
37.513268 59.448112 28.362274
38.938114 57.144608 30.086016
40.798035 56.558929 29.418407
40.345463 54.810249 31.609436
37.842567 66.842842 18.05257
38.883751 67.004135 15.955522
39.571781 65.135139 18.575466
41.110725 63.143288 19.157965
34.85564 64.053177 24.281525
33.669502 66.369598 21.942146
35.805019 65.329666 22.160667
36.807125 66.279831 20.103254
18.115324 75.353539 26.802029
16.792694 78.339333 24.25499
18.87521 76.703239 23.594105
19.690788 77.819977 20.364071
20.583626 78.697037 17.151773
29.706429 74.887383 11.278677
27.337387 76.364365 11.023839
28.758575 76.66404 8.397055
27.744122 78.290794 5.459864
15.367616 67.824295 38.995811
16.811867 64.385834 40.669533
18.814209 63.174522 39.608253
20.785828 61.896606 38.724472
27.670059 53.752861 41.196117
29.760414 52.925285 40.801224
30.337673 54.529587 38.459114
30.960291 56.100433 36.056694
31.630676 57.682549 33.622734
33.181812 55.232872 35.623219
35.433701 54.458588 35.137016
37.652382 53.752701 34.556641
39.752956 53.0867 33.836708
39.064556 51.433655 36.09045
40.305241 49.10408 37.40081
40.607986 67.810783 8.733498
39.920174 66.778 13.790841
40.973419 66.196777 11.571612
26.098148 68.641853 24.601192
24.927242 71.489166 22.112213
27.02824 69.960045 21.859192
28.09831 71.145645 19.185482
29.305813 72.157234 16.596199
32.580631 68.657158 19.443682
31.576582 70.866142 16.818249
30.63114 72.952164 14.090561
32.043686 73.494728 11.656511
33.510841 73.76049 9.27863
21.147865 54.26255 45.064259
32.886242 48.266335 44.4338
34.937813 47.613228 43.800728
36.929993 46.884636 42.969036
36.333321 45.364517 45.273598
23.807617 74.257088 19.516941
22.702797 76.886993 16.81078
21.571527 79.333237 13.996959
24.984348 77.982033 10.908309
22.665987 79.736649 10.933066
20.373133 81.563225 11.087981
19.073273 83.552666 8.10471
17.649807 85.278305 5.073688
16.097866 86.711174 2.02357
17.068928 86.355652 -1.108122
15.28929 75.194595 30.807537
16.012177 70.003357 36.046539
16.690277 71.992867 33.037537
17.391121 73.780029 29.95575
19.412102 72.186325 29.182297
21.372128 70.501495 28.488174
23.314997 68.818039 27.881695
21.642584 56.530495 42.770668
22.178688 58.644348 40.424919
22.744028 60.605972 38.001839
26.161884 56.452888 39.310287
24.714911 59.349205 37.410515
23.330132 62.42617 35.481232
23.938379 64.123039 32.857475
24.583601 65.71682 30.145172
25.292715 67.222412 27.378067
27.347429 65.781349 26.992592
29.495825 64.529633 26.730484
31.719633 63.464844 26.577734
32.352486 59.298859 31.19363
33.129448 60.938927 28.807482
33.963741 62.552795 26.496824
36.140465 61.74411 26.42823
38.137089 61.001091 26.293465
39.825981 60.337204 25.982677
41.07505 58.265701 27.285423
42.356575 55.991905 28.470741
41.643219 52.433113 32.931885
38.812859 46.080658 41.936081
19.444412 56.3321 44.847212
18.706049 58.034447 44.202723
15.330299 78.31784 26.268749
14.94427 77.528476 27.968998
23.262874 82.189517 0.660178
21.934618 83.084621 0.567338
22.626288 82.382514 2.074572
13.587167 70.004421 38.678162
12.830062 71.607865 37.726372
42.361131 60.178002 22.004884
42.100431 61.091842 20.723623
42.895583 57.493786 25.533276
42.78343 58.372284 24.406172
42.270454 58.641048 25.112536
42.988003 56.582199 26.724018
42.895583 57.493786 25.533276
42.100431 61.091842 20.723623
41.804298 62.009201 19.480682
41.406858 62.225929 20.400906
28.509969 78.240109 4.188239
29.007243 77.526791 5.666087
27.184768 79.037174 3.971738
28.509969 78.240109 4.188239
16.534588 63.195332 42.034397
15.793204 64.927933 41.287109
30.543746 51.736336 41.732265
29.493805 52.079814 41.932961
30.277137 50.890865 42.864002
40.424847 47.149738 39.066313
40.803893 47.918831 37.938406
39.926196 48.334987 38.528717
36.391458 72.121731 8.682983
35.346541 72.978722 8.385589
39.186287 69.268109 9.561497
38.308823 70.269925 9.27001
38.536216 69.480858 10.69291
40.010833 68.144913 9.858947
39.78344 68.933979 8.436048
39.186287 69.268109 9.561497
41.679992 64.934818 11.873132
41.194797 65.339378 12.97652
41.901371 64.077419 13.27804
41.532131 65.751877 10.452939
41.679992 64.934818 11.873132
35.346541 72.978722 8.385589
34.258817 73.748394 8.111853
34.598564 72.990818 9.552366
16.516011 80.305431 21.236286
16.11432 79.704479 22.902584
17.194386 78.940285 22.588692
15.159524 82.797012 18.412924
15.585952 83.241867 16.656652
15.507811 85.974743 8.528061
15.05134 85.826645 10.220375
16.235336 85.107624 10.041811
15.942394 86.046608 6.826721
15.507811 85.974743 8.528061
18.968315 85.241592 -2.557476
20.414236 84.39436 -2.451054
13.848871 74.815976 32.867718
13.496418 73.793988 34.523546
14.933609 74.237751 32.402483
14.204552 75.772819 31.272773
13.848871 74.815976 32.867718
42.820059 53.889313 30.116259
42.947861 54.784016 29.000746
42.228773 55.097202 29.586254
38.481581 45.338082 43.086483
37.871426 46.482647 42.452559
37.540148 45.740071 43.602961
30.72512 75.983475 7.331622
31.946621 75.242023 7.584582
17.986728 59.732094 43.480227
17.250675 61.467491 42.799585
18.963361 59.232506 42.922405
17.986728 59.732094 43.480227
18.706049 58.034447 44.202723
41.676833 63.589233 15.758412
40.954756 64.733165 15.454781
41.215412 63.840419 16.831764
42.097687 63.220745 14.690175
41.676833 63.589233 15.758412
41.901371 64.077419 13.27804
42.097687 63.220745 14.690175
32.171279 45.615932 47.720821
31.367866 46.783897 46.847675
33.16218 45.416213 47.473785
32.171279 45.615932 47.720821
34.166052 45.145689 47.185772
33.395477 46.288178 46.364162
33.16218 45.416213 47.473785
35.112219 44.87649 46.815171
34.166052 45.145689 47.185772
16.025702 83.621964 14.952412
15.585952 83.241867 16.656652
16.713161 82.494979 16.410867
16.465888 83.917301 13.220377
15.338679 84.664188 13.466162
16.025702 83.621964 14.952412
21.182097 83.777854 -0.948153
20.54551 83.970852 0.466241
21.934618 83.084621 0.567338
20.414236 84.39436 -2.451054
21.182097 83.777854 -0.948153
13.157893 72.733696 36.090888
12.830062 71.607865 37.726372
14.239402 72.220616 35.56477
13.496418 73.793988 34.523546
13.157893 72.733696 36.090888
41.880335 50.367195 34.602703
41.545002 49.526615 35.710956
42.588787 59.28349 23.175677
42.361131 60.178002 22.004884
41.930646 60.414059 22.814639
42.588787 59.28349 23.175677
42.78343 58.372284 24.406172
41.524107 62.919888 18.14668
41.215412 63.840419 16.831764
40.802031 64.06382 17.843049
41.524107 62.919888 18.14668
41.804298 62.009201 19.480682
29.514469 76.713414 7.134683
29.969226 75.934101 8.593995
30.72512 75.983475 7.331622
28.251348 77.477417 6.928459
29.514469 76.713414 7.134683
29.007243 77.526791 5.666087
25.909195 79.857769 3.824416
26.468549 79.111389 5.312541
27.184768 79.037174 3.971738
25.289979 80.635482 2.325513
24.57376 80.709698 3.666315
25.909195 79.857769 3.824416
24.664417 81.320407 0.827996
25.289979 80.635482 2.325513
15.071079 66.647164 40.450249
14.320536 68.336407 39.610012
16.089741 66.105064 39.832672
15.071079 66.647164 40.450249
15.793204 64.927933 41.287109
17.527954 62.657994 41.434721
16.534588 63.195332 42.034397
17.250675 61.467491 42.799585
28.448628 52.493603 42.130407
27.413271 52.841851 42.308668
28.19184 51.582592 43.242958
28.715236 53.339073 40.998671
28.448628 52.493603 42.130407
29.493805 52.079814 41.932961
41.184851 48.715855 36.830139
41.545002 49.526615 35.710956
40.665392 49.91484 36.281627
41.184851 48.715855 36.830139
40.803893 47.918831 37.938406
37.377691 71.252495 8.970644
36.391458 72.121731 8.682983
36.672519 71.35191 10.113762
37.377691 71.252495 8.970644
38.308823 70.269925 9.27001
40.448043 68.557232 7.310021
39.78344 68.933979 8.436048
41.23875 67.325462 7.6153
40.448043 68.557232 7.310021
41.349414 66.55888 9.033882
40.790702 67.00378 10.152555
41.532131 65.751877 10.452939
41.23875 67.325462 7.6153
41.349414 66.55888 9.033882
33.112102 74.520187 7.82843
31.946621 75.242023 7.584582
32.34536 74.482326 9.034782
33.112102 74.520187 7.82843
34.258817 73.748394 8.111853
20.926164 53.054501 46.195372
20.177003 54.695945 45.556891
21.901653 52.708179 45.786765
20.926164 53.054501 46.195372
22.886459 52.29406 45.423181
22.132671 53.84843 44.700676
21.901653 52.708179 45.786765
23.882849 51.979851 45.141622
22.886459 52.29406 45.423181
24.883961 51.591988 44.880913
24.118588 53.046448 44.076384
23.882849 51.979851 45.141622
25.898902 51.305302 44.686405
24.883961 51.591988 44.880913
26.917295 50.941429 44.489178
26.138091 52.294713 43.618447
25.898902 51.305302 44.686405
27.946411 50.668969 44.33104
26.917295 50.941429 44.489178
28.19184 51.582592 43.242958
27.946411 50.668969 44.33104
31.069091 49.701782 43.779083
30.277137 50.890865 42.864002
31.601354 47.707439 45.773517
31.367866 46.783897 46.847675
31.848673 48.561256 44.664329
31.601354 47.707439 45.773517
32.638924 47.412518 45.542988
32.10666 49.406861 43.548553
31.069091 49.701782 43.779083
31.848673 48.561256 44.664329
37.241812 44.980011 44.755241
37.540148 45.740071 43.602961
36.631657 46.124577 44.121317
36.079205 44.549921 46.413895
35.366335 45.691085 45.674874
35.112219 44.87649 46.815171
36.959828 44.20454 45.909508
36.079205 44.549921 46.413895
37.241812 44.980011 44.755241
36.959828 44.20454 45.909508
15.71313 79.044605 24.617559
15.330299 78.31784 26.268749
16.409863 77.612568 25.90618
15.71313 79.044605 24.617559
16.11432 79.704479 22.902584
15.854678 81.592254 19.832643
16.516011 80.305431 21.236286
16.934744 80.82806 19.518751
15.854678 81.592254 19.832643
15.159524 82.797012 18.412924
14.625353 85.606914 11.96921
15.338679 84.664188 13.466162
14.625353 85.606914 11.96921
15.05134 85.826645 10.220375
16.421394 86.0579 5.188816
15.942394 86.046608 6.826721
17.170807 85.267014 6.711593
15.645423 86.774334 3.663757
16.421394 86.0579 5.188816
16.873836 85.99474 3.548629
14.847565 87.384297 2.137815
15.645423 86.774334 3.663757
15.26541 87.262032 0.502615
14.847565 87.384297 2.137815
15.75094 87.084271 -1.06323
15.26541 87.262032 0.502615
16.583397 86.533413 0.457724
16.206461 86.849514 -2.617412
15.75094 87.084271 -1.06323
17.606285 86.087376 -2.586912
18.430958 85.509869 -1.078686
18.968315 85.241592 -2.557476
16.206461 86.849514 -2.617412
17.606285 86.087376 -2.586912
23.262874 82.189517 0.660178
24.664417 81.320407 0.827996
14.575399 76.682873 29.594082
14.204552 75.772819 31.272773
15.658161 76.040199 29.182453
14.94427 77.528476 27.968998
14.575399 76.682873 29.594082
14.634246 69.49231 38.063961
13.587167 70.004421 38.678162
14.320536 68.336407 39.610012
20.415273 55.898704 44.35458
19.444412 56.3321 44.847212
20.177003 54.695945 45.556891
42.974987 55.696877 27.839568
42.988003 56.582199 26.724018
42.369591 56.877228 27.355191
42.974987 55.696877 27.839568
42.947861 54.784016 29.000746
42.189172 51.220951 33.487423
41.334381 51.579357 34.047165
41.880335 50.367195 34.602703
42.443708 52.10033 32.368666
42.189172 51.220951 33.487423
42.672584 52.985023 31.253607
41.872095 53.317806 31.816826
42.443708 52.10033 32.368666
42.820059 53.889313 30.116259
42.672584 52.985023 31.253607
39.305754 44.901619 42.458847
38.481581 45.338082 43.086483
39.66889 45.646145 41.324351
39.305754 44.901619 42.458847
40.036035 46.388763 40.184622
39.180005 46.823276 40.796352
39.66889 45.646145 41.324351
40.424847 47.149738 39.066313
40.036035 46.388763 40.184622
3 0 57 55
3 0 55 58
3 0 58 60
3 1 64 62
3 212 66 213
3 2 69 67
3 2 71 69
3 2 73 71
3 3 76 74
3 4 80 78
3 3 83 81
3 3 74 83
3 7 214 215
3 8 88 86
3 8 90 88
3 5 93 91
3 9 96 94
3 9 98 96
3 9 216 218
3 218 217 98
3 216 217 218
3 219 100 220
3 10 103 101
3 10 105 103
3 6 108 106
3 11 111 109
3 11 113 111
3 11 115 113
3 12 118 116
3 12 120 118
3 12 122 120
3 13 221 222
3 14 223 225
3 225 224 56
3 223 224 225
3 14 226 227
3 15 125 123
3 13 126 59
3 13 228 230
3 230 229 126
3 228 229 230
3 17 129 127
3 15 130 61
3 15 123 130
3 19 133 131
3 21 134 63
3 21 135 134
3 22 138 136
3 231 139 232
3 234 233 139
3 235 141 236
3 25 142 65
3 25 143 142
3 26 237 239
3 237 145 238
3 237 238 239
3 28 146 68
3 28 147 146
3 28 149 147
3 30 150 70
3 30 151 150
3 30 153 151
3 32 154 72
3 32 240 242
3 242 241 154
3 240 241 242
3 33 243 244
3 34 245 247
3 247 246 75
3 245 246 247
3 34 248 250
3 248 155 249
3 248 249 250
3 16 156 124
3 251 157 252
3 253 252 77
3 251 252 253
3 255 254 157
3 35 160 158
3 37 161 79
3 37 162 161
3 18 163 128
3 38 164 82
3 38 165 164
3 38 166 165
3 33 167 84
3 33 256 258
3 258 257 167
3 256 257 258
3 40 169 85
3 40 170 169
3 40 172 170
3 20 259 261
3 261 260 132
3 259 260 261
3 263 262 87
3 41 264 266
3 266 265 89
3 264 265 266
3 41 267 268
3 36 173 159
3 42 174 92
3 42 175 174
3 23 176 137
3 43 177 95
3 43 178 177
3 43 179 178
3 44 180 97
3 44 181 180
3 44 182 181
3 270 269 99
3 45 271 272
3 45 273 275
3 273 183 274
3 273 274 275
3 24 184 140
3 46 185 102
3 46 186 185
3 46 187 186
3 47 188 104
3 47 189 188
3 39 190 168
3 48 191 107
3 48 192 191
3 27 193 144
3 49 194 110
3 49 195 194
3 49 196 195
3 50 197 112
3 50 198 197
3 50 199 198
3 51 200 114
3 51 201 200
3 29 202 148
3 52 203 117
3 52 204 203
3 52 205 204
3 53 206 119
3 53 207 206
3 53 208 207
3 54 209 121
3 54 276 278
3 278 277 209
3 276 277 278
3 31 210 152
3 279 211 280
3 281 280 171
3 279 280 281
3 55 56 13
3 57 56 55
3 57 14 56
3 58 59 15
3 55 59 58
3 55 13 59
3 60 61 17
3 58 61 60
3 58 15 61
3 62 63 19
3 64 63 62
3 64 21 63
3 283 282 22
3 284 65 285
3 66 286 288
3 286 65 287
3 286 287 288
3 66 25 65
3 67 68 26
3 69 68 67
3 69 28 68
3 69 70 28
3 71 70 69
3 71 30 70
3 71 72 30
3 73 72 71
3 73 32 72
3 74 75 33
3 76 75 74
3 76 34 75
3 289 77 290
3 291 290 16
3 289 290 291
3 292 77 293
3 295 294 77
3 78 79 35
3 80 79 78
3 80 37 79
3 81 82 18
3 83 82 81
3 83 38 82
3 83 84 38
3 74 84 83
3 74 33 84
3 296 85 297
3 298 85 299
3 300 40 301
3 302 301 85
3 300 301 302
3 304 303 40
3 86 87 20
3 88 87 86
3 88 305 307
3 307 306 87
3 305 306 307
3 88 308 310
3 308 89 309
3 308 309 310
3 90 89 88
3 90 41 89
3 91 92 36
3 93 92 91
3 93 42 92
3 94 95 23
3 96 95 94
3 96 43 95
3 96 97 43
3 98 97 96
3 98 44 97
3 98 99 44
3 311 99 312
3 313 312 98
3 311 312 313
3 315 314 99
3 100 316 317
3 100 318 320
3 318 45 319
3 318 319 320
3 101 102 24
3 103 102 101
3 103 46 102
3 103 104 46
3 105 104 103
3 105 47 104
3 106 107 39
3 108 107 106
3 108 48 107
3 109 110 27
3 111 110 109
3 111 49 110
3 111 112 49
3 113 112 111
3 113 50 112
3 113 114 50
3 115 114 113
3 115 51 114
3 116 117 29
3 118 117 116
3 118 52 117
3 118 119 52
3 120 119 118
3 120 53 119
3 120 121 53
3 122 121 120
3 122 54 121
3 322 321 31
3 56 323 325
3 325 324 13
3 323 324 325
3 327 326 56
3 123 124 3
3 125 124 123
3 125 16 124
3 59 125 15
3 126 125 59
3 126 16 125
3 126 328 330
3 330 329 16
3 328 329 330
3 332 331 126
3 127 128 4
3 129 128 127
3 129 18 128
3 61 129 17
3 130 129 61
3 130 18 129
3 130 81 18
3 123 81 130
3 123 3 81
3 131 132 7
3 133 132 131
3 133 20 132
3 63 133 19
3 134 133 63
3 134 20 133
3 134 86 20
3 135 86 134
3 135 8 86
3 136 137 5
3 138 137 136
3 138 23 137
3 333 138 334
3 335 334 22
3 333 334 335
3 139 336 338
3 336 138 337
3 336 337 338
3 139 23 138
3 139 94 23
3 339 94 340
3 341 340 139
3 339 340 341
3 342 9 343
3 344 343 94
3 342 343 344
3 346 345 9
3 347 140 348
3 141 349 351
3 349 140 350
3 349 350 351
3 141 24 140
3 65 352 354
3 352 141 353
3 352 353 354
3 142 141 65
3 142 24 141
3 142 101 24
3 143 101 142
3 143 10 101
3 355 144 356
3 357 356 6
3 355 356 357
3 145 358 360
3 358 144 359
3 358 359 360
3 145 27 144
3 68 145 26
3 146 145 68
3 146 27 145
3 146 109 27
3 147 109 146
3 147 11 109
3 147 148 11
3 149 148 147
3 149 29 148
3 70 149 28
3 150 149 70
3 150 29 149
3 150 116 29
3 151 116 150
3 151 12 116
3 151 152 12
3 153 152 151
3 153 31 152
3 72 153 30
3 154 153 72
3 154 31 153
3 154 361 363
3 363 362 31
3 361 362 363
3 365 364 154
3 75 366 368
3 368 367 33
3 366 367 368
3 370 369 75
3 155 371 372
3 155 373 374
3 124 76 3
3 156 76 124
3 156 34 76
3 77 156 16
3 157 156 77
3 157 34 156
3 157 155 34
3 375 155 376
3 377 376 157
3 375 376 377
3 379 378 155
3 158 159 1
3 160 159 158
3 160 36 159
3 79 160 35
3 161 160 79
3 161 36 160
3 161 91 36
3 162 91 161
3 162 5 91
3 128 80 4
3 163 80 128
3 163 37 80
3 82 163 18
3 164 163 82
3 164 37 163
3 164 162 37
3 165 162 164
3 165 5 162
3 165 136 5
3 166 136 165
3 166 22 136
3 84 166 38
3 167 166 84
3 167 22 166
3 167 380 382
3 382 381 22
3 380 381 382
3 384 383 167
3 385 168 386
3 387 168 388
3 389 39 390
3 391 390 168
3 389 390 391
3 392 39 393
3 394 106 395
3 396 395 39
3 394 395 396
3 397 106 398
3 399 6 400
3 401 400 106
3 399 400 401
3 402 6 403
3 405 404 6
3 406 26 407
3 85 408 409
3 169 410 412
3 412 411 85
3 410 411 412
3 169 413 415
3 413 26 414
3 413 414 415
3 169 67 26
3 170 67 169
3 170 2 67
3 170 171 2
3 172 171 170
3 172 416 418
3 418 417 171
3 416 417 418
3 419 172 420
3 421 420 40
3 419 420 421
3 422 172 423
3 425 424 172
3 132 426 428
3 428 427 7
3 426 427 428
3 430 429 132
3 87 431 433
3 433 432 20
3 431 432 433
3 435 434 87
3 89 436 437
3 439 438 89
3 159 64 1
3 173 64 159
3 173 21 64
3 92 173 36
3 174 173 92
3 174 21 173
3 174 135 21
3 175 135 174
3 175 8 135
3 137 93 5
3 176 93 137
3 176 42 93
3 95 176 23
3 177 176 95
3 177 42 176
3 177 175 42
3 178 175 177
3 178 8 175
3 178 90 8
3 179 90 178
3 179 41 90
3 97 179 43
3 180 179 97
3 180 41 179
3 180 440 442
3 442 441 41
3 440 441 442
3 181 443 445
3 445 444 180
3 443 444 445
3 181 446 447
3 181 448 449
3 182 450 452
3 452 451 181
3 450 451 452
3 182 453 454
3 99 182 44
3 455 182 456
3 457 456 99
3 455 456 457
3 459 458 182
3 461 460 9
3 183 462 463
3 183 464 466
3 464 7 465
3 464 465 466
3 140 467 469
3 467 100 468
3 467 468 469
3 184 100 140
3 184 45 100
3 102 184 24
3 185 184 102
3 185 45 184
3 185 183 45
3 186 183 185
3 186 7 183
3 186 131 7
3 187 131 186
3 187 19 131
3 104 187 46
3 188 187 104
3 188 19 187
3 188 62 19
3 189 62 188
3 189 1 62
3 168 470 472
3 470 66 471
3 470 471 472
3 190 66 168
3 190 25 66
3 107 190 39
3 191 190 107
3 191 25 190
3 191 143 25
3 192 143 191
3 192 10 143
3 144 108 6
3 193 108 144
3 193 48 108
3 110 193 27
3 194 193 110
3 194 48 193
3 194 192 48
3 195 192 194
3 195 10 192
3 195 105 10
3 196 105 195
3 196 47 105
3 112 196 49
3 197 196 112
3 197 47 196
3 197 189 47
3 198 189 197
3 198 1 189
3 198 158 1
3 199 158 198
3 199 35 158
3 114 199 50
3 200 199 114
3 200 35 199
3 200 78 35
3 201 78 200
3 201 4 78
3 148 115 11
3 202 115 148
3 202 51 115
3 117 202 29
3 203 202 117
3 203 51 202
3 203 201 51
3 204 201 203
3 204 4 201
3 204 127 4
3 205 127 204
3 205 17 127
3 119 205 52
3 206 205 119
3 206 17 205
3 206 60 17
3 207 60 206
3 207 0 60
3 207 57 0
3 208 57 207
3 208 14 57
3 121 208 53
3 209 208 121
3 209 14 208
3 209 473 475
3 475 474 14
3 473 474 475
3 477 476 209
3 152 122 12
3 210 122 152
3 210 54 122
3 478 210 479
3 480 479 31
3 478 479 480
3 481 210 482
3 483 54 484
3 485 484 210
3 483 484 485
3 487 486 54
3 171 73 2
3 211 73 171
3 211 32 73
3 488 211 489
3 490 211 491
3 492 32 493
3 494 493 211
3 492 493 494
3 496 495 32
