ply
format ascii 1.0
element vertex 855
property float x
property float y
property float z
element face 811
property list uchar int vertex_index
end_header
38.44548 16.023228 -11.620039
20.324636 36.093727 -31.753332
44.683342 3.382841 -18.730947
45.850586 -6.430392 -13.278677
12.213037 23.880409 -29.976263
25.967995 23.560497 -31.09078
37.453133 20.17812 -26.648458
41.969318 12.922829 -23.068964
12.271032 37.570675 -33.429329
25.680761 47.385567 -27.897837
44.972565 -13.850804 -5.837412
19.201355 22.955685 -31.11706
37.130058 17.392445 -37.274467
42.469429 -2.732096 -10.996986
42.613075 -7.433816 -8.522423
38.730389 18.764355 -19.298952
40.162521 13.852268 -17.241148
48.81871 1.62187 -21.140982
47.465656 6.04031 -24.141748
23.802834 54.215355 -27.296793
16.10141 36.717701 -32.892197
15.427614 30.164825 -32.199768
19.18808 29.725487 -31.973055
28.983919 18.385895 -32.392563
26.271555 17.338352 -31.789843
40.684177 16.533558 -30.790632
37.650379 18.448471 -31.99423
39.215874 9.883846 -9.537979
41.981277 2.739061 -13.180706
45.471447 -1.63825 -16.186369
49.702347 -2.976322 -17.80208
16.692226 15.823837 -28.879908
23.015848 29.622494 -31.224421
26.579617 29.575916 -30.009108
31.691626 19.178059 -32.713188
43.409164 13.680161 -29.03557
43.532459 8.317513 -21.009615
45.672752 10.112574 -26.793264
17.804625 42.921249 -32.105316
20.427177 48.770393 -30.007582
22.557625 41.99918 -30.252024
37.773491 11.909159 -4.119274
42.24913 -10.650789 -5.337324
11.956772 30.949566 -31.949911
15.703634 23.198959 -30.574759
20.186821 15.880066 -29.927031
22.668373 23.140648 -31.303686
23.368168 16.417835 -30.959585
34.717876 22.398308 -28.197157
34.580196 19.300823 -32.620583
34.061092 16.550343 -36.900276
45.705967 -10.585133 -9.857903
41.38102 -5.095816 -7.369076
41.407192 -7.149447 -6.269772
37.996677 18.907257 -12.753119
38.725544 17.552979 -15.470947
39.272335 14.829956 -14.400726
18.185764 36.370087 -32.383682
17.59272 33.182529 -32.440468
19.610641 32.963428 -32.027397
30.34691 16.395248 -33.826141
29.131714 15.677418 -33.317032
42.317413 15.81398 -32.985313
40.744293 16.765545 -33.741508
44.055328 -4.92879 -12.312204
43.888023 -2.442308 -13.610357
45.718655 -4.087561 -14.786394
47.508041 -2.658897 -17.190008
47.747334 -5.002324 -15.584345
10.456635 24.381584 -29.81143
10.628805 20.576302 -28.91482
12.501053 20.123444 -29.038218
14.334654 19.782803 -29.311563
30.356287 21.31469 -31.344156
31.778276 21.355465 -31.131979
41.009575 15.026962 -24.025354
41.640625 14.9258 -26.985643
42.771095 13.089836 -26.039557
42.863079 5.495523 -17.06349
42.361382 8.138647 -18.116476
44.154507 5.876762 -19.899733
48.658058 8.045231 -26.812464
46.625546 8.128712 -25.514048
47.623302 9.914007 -28.306349
46.47015 11.64813 -29.688292
15.519213 43.433662 -32.942619
16.564613 46.484665 -32.208488
24.803858 50.722832 -27.59041
22.029835 51.546295 -28.678621
23.073895 48.079628 -28.913118
21.522522 45.319016 -30.146544
24.022413 44.758968 -29.138945
24.879726 41.567837 -29.299719
26.427195 44.195198 -28.157827
10.569931 37.984512 -33.451691
10.402294 34.736195 -32.682198
12.028358 34.299438 -32.804504
17.240803 26.508259 -31.600164
15.459693 26.7374 -31.449488
17.450806 23.020195 -30.879213
17.876926 19.440636 -30.106688
19.591047 19.445946 -30.511503
24.461811 26.522747 -31.04624
22.699139 26.424866 -31.35882
24.34763 23.341438 -31.245607
24.851355 16.842564 -31.402876
25.400734 13.58754 -31.515917
36.104836 21.420593 -27.445864
37.495712 17.872845 -34.660568
36.102364 19.007729 -32.378838
35.902889 18.015392 -34.818871
34.380013 17.900639 -34.789101
35.535969 17.091476 -37.1996
43.488586 -12.461996 -5.67309
43.835892 -11.011548 -7.606091
45.410511 -12.329144 -7.918276
41.07365 0.139156 -9.403404
41.262978 -2.610895 -8.400562
42.592445 -5.22704 -9.812035
44.113747 -7.22855 -10.902822
10.36167 27.99696 -30.778658
38.099628 20.095356 -16.590807
39.497177 16.394974 -18.258852
46.677528 2.107124 -20.115427
46.107346 4.460461 -21.453764
48.19696 3.86532 -22.682985
25.72979 56.771042 -25.944307
14.11977 37.129356 -33.246704
13.774815 33.870403 -32.828796
15.635705 33.488071 -32.711464
17.280472 29.895905 -32.155327
19.057018 26.386803 -31.640184
27.497072 20.813023 -31.500616
26.018194 20.458416 -31.457552
27.64205 17.867992 -32.120796
27.926146 14.940674 -32.75592
39.043949 18.008541 -28.623514
37.62133 19.199303 -29.312231
39.190147 17.620029 -31.464197
39.123466 17.45636 -34.302109
38.809868 17.421196 -37.100304
47.213455 -13.156054 -7.985981
38.850037 12.99778 -10.551769
39.747387 11.96879 -13.368696
40.160011 9.016638 -12.363636
41.634109 5.57263 -14.215467
43.284229 2.822908 -15.969393
42.261799 -0.050018 -12.112957
43.627388 0.16111 -14.82313
45.123219 0.866159 -17.496542
47.147057 -0.276274 -18.696756
49.324409 -0.668163 -19.515249
8.732624 21.143394 -28.954485
22.456692 35.870789 -31.028357
21.639883 32.817039 -31.492228
27.523375 23.746414 -30.840425
28.936464 21.116467 -31.464746
30.324398 18.840561 -32.595306
31.608915 17.041534 -34.261528
37.197224 21.404064 -24.031839
38.324894 19.66375 -23.055311
40.392593 16.575352 -27.847406
42.098766 15.210903 -29.978624
43.809437 14.625031 -32.046295
41.770386 10.715473 -19.137136
42.807724 10.676079 -22.064917
45.437817 6.758625 -22.715776
44.664165 8.978916 -23.902063
43.777946 11.097954 -25.010881
44.601692 11.971275 -27.970449
45.197659 13.226921 -30.941133
16.827894 39.861485 -32.690514
19.052399 39.458382 -31.959654
20.897648 55.150772 -28.481234
19.26923 52.353035 -29.879332
17.820286 49.46096 -31.156351
19.011919 45.89315 -31.183443
20.173244 42.443443 -31.192293
21.315281 39.108501 -31.147875
23.545856 38.791344 -30.280909
37.341568 20.355595 -10.108995
37.713074 17.325314 -8.909338
38.070309 14.149662 -7.802181
38.41304 10.885298 -6.779247
38.737843 7.590601 -5.83452
38.108887 8.465044 -3.207081
41.26392 -8.562925 -4.889688
41.873997 -11.737461 -3.381014
10.341623 31.429508 -31.760435
12.026258 27.486858 -30.973623
13.650898 30.522949 -32.118233
13.722416 27.067181 -31.221453
13.959747 23.487309 -30.252279
16.125835 19.5541 -29.687994
21.114603 29.64399 -31.659082
20.886726 26.366711 -31.558802
20.946251 23.001575 -31.261377
24.48756 20.104191 -31.337824
22.902531 19.79557 -31.140032
21.267912 19.568184 -30.862741
21.814781 16.091423 -30.462893
36.156815 20.129257 -29.910769
34.681484 20.79142 -30.415491
33.218567 21.19286 -30.823038
33.107334 19.346466 -32.727501
32.94791 17.560989 -34.593414
35.001987 16.163242 -39.490479
42.503723 -9.248674 -7.054981
44.045139 -9.270623 -9.346254
45.850925 -8.61164 -11.642277
47.586956 -11.364799 -10.065775
47.798798 -9.39447 -12.029196
47.849129 -7.262215 -13.867558
49.937584 -5.267019 -15.996096
40.998335 -6.864601 -5.362009
40.93305 -5.941769 -5.684217
30.373225 15.191238 -34.443184
30.927946 15.668308 -34.805976
42.28149 16.215908 -34.483395
43.114582 15.808084 -34.021488
31.838333 22.462457 -30.322228
31.125111 22.578424 -30.59083
41.489446 13.974895 -23.547159
40.642128 15.27775 -22.569035
41.122 14.225683 -22.09084
48.606571 10.127119 -28.899662
48.14068 8.979619 -27.559407
49.123949 9.192731 -28.152719
47.983785 10.948859 -29.708418
48.606571 10.127119 -28.899662
15.940687 48.309826 -32.249325
15.401435 46.778523 -32.67884
26.322874 12.375704 -32.057996
26.046942 13.90946 -31.835149
25.747034 11.97758 -31.62167
26.322874 12.375704 -32.057996
36.778984 20.799357 -27.047161
36.048429 22.158788 -26.229491
36.722578 21.537552 -25.830787
40.778709 -2.423412 -7.145474
40.675629 -1.007473 -7.572614
9.579018 29.989601 -31.204417
9.538678 28.310072 -30.741844
37.798723 20.848535 -15.276153
37.52243 22.081192 -15.922557
40.620399 13.521334 -18.687193
40.287728 14.792687 -19.196045
39.829849 15.123621 -17.75
26.759318 57.985768 -25.307968
25.187266 58.592083 -25.811224
28.638804 13.9746 -33.514843
28.52893 15.309046 -33.036476
29.241588 14.342972 -33.795399
28.121198 13.497416 -33.103001
28.638804 13.9746 -33.514843
39.827129 17.309442 -35.484905
39.93388 17.110952 -34.021809
40.637542 16.964035 -35.204605
39.67033 17.29186 -36.884003
38.966667 17.438778 -35.701206
39.827129 17.309442 -35.484905
41.807693 4.155845 -13.698087
41.075862 5.798127 -12.795089
41.249446 4.381342 -12.277709
50.649262 -1.715204 -18.877405
50.460293 -0.561125 -19.733989
49.513378 -1.822242 -18.658665
8.710575 23.073025 -29.377405
7.825257 23.447645 -29.448055
10.753256 18.598499 -28.520399
11.753433 18.40898 -28.564392
17.031597 13.934154 -28.543843
15.757283 15.899576 -28.676712
17.957034 13.96404 -28.829394
17.031597 13.934154 -28.543843
23.040623 34.290322 -30.938465
23.486601 35.768179 -30.623041
25.714103 29.596546 -30.342062
26.046101 31.085831 -30.052893
26.36439 28.093443 -30.316508
25.714103 29.596546 -30.342062
28.271507 23.79545 -30.666969
27.635941 25.190712 -30.465746
28.978052 22.480477 -30.979129
28.22992 22.431441 -31.152586
28.271507 23.79545 -30.666969
37.049618 22.133038 -22.757959
36.529499 22.97567 -23.334122
38.296496 19.846401 -19.835316
38.061281 20.59318 -18.534886
39.126704 18.310469 -23.996818
38.840103 18.680124 -22.569677
38.530638 19.173504 -24.433649
39.126704 18.310469 -23.996818
40.160553 16.76627 -26.392866
39.564487 17.629305 -26.829696
40.240305 11.571137 -14.801838
40.483801 10.184051 -14.299282
46.08784 13.342381 -31.767934
45.833905 12.437525 -30.314712
46.724085 12.552985 -31.141513
45.347081 13.983269 -32.430417
46.08784 13.342381 -31.767934
22.350241 54.683064 -27.889014
21.795898 56.496811 -27.769316
23.248491 56.029103 -27.177096
25.275384 40.020071 -29.327647
25.969728 41.343635 -28.806852
36.919491 22.557915 -9.522089
37.147671 21.771586 -10.759332
37.409716 17.979784 -7.596749
37.252642 19.562773 -8.227555
37.588334 16.391958 -7.043171
37.891692 15.737488 -8.355759
37.409716 17.979784 -7.596749
38.093266 11.397229 -5.44926
37.924496 13.101669 -5.96164
37.604721 13.613599 -4.631653
38.270873 6.754479 -2.809387
37.89052 8.862354 -1.965102
38.574055 6.396201 -4.08698
38.270873 6.754479 -2.809387
41.648416 -12.177466 -2.321969
41.225382 -10.951024 -2.239762
42.449596 -12.704798 -3.479793
41.648416 -12.177466 -2.321969
19.333606 15.835478 -29.655171
18.178659 17.615763 -29.744999
19.031873 17.660351 -30.016859
20.566111 14.084705 -29.6843
19.333606 15.835478 -29.655171
34.071542 23.747813 -27.571773
34.72376 23.263855 -27.093784
34.015239 22.754373 -28.543917
34.071542 23.747813 -27.571773
33.390934 16.182776 -36.657154
32.834343 16.688098 -35.503723
33.504501 17.055666 -35.746845
35.394523 16.246257 -40.841351
35.776771 16.537132 -39.644146
48.620451 -11.507043 -10.032808
47.400205 -12.260426 -9.025878
48.433701 -12.40267 -8.992911
48.906846 -8.44736 -13.060953
48.860491 -9.516056 -12.060378
48.932011 -7.381232 -13.980134
47.823963 -8.328342 -12.948377
48.906846 -8.44736 -13.060953
49.976239 -6.383634 -15.044403
48.893356 -6.264617 -14.931827
48.932011 -7.381232 -13.980134
40.919964 -4.914953 -6.233869
40.83773 -3.665872 -6.62973
41.394106 -6.122632 -6.819424
40.919964 -4.914953 -6.233869
40.93305 -5.941769 -5.684217
38.36111 18.230118 -14.112033
38.111681 19.577347 -14.716223
37.747248 20.254486 -13.357309
49.597317 2.794872 -22.342129
49.935679 1.70595 -21.463479
29.765627 14.832323 -34.188629
29.739312 16.036333 -33.571586
30.373225 15.191238 -34.443184
29.241588 14.342972 -33.795399
29.765627 14.832323 -34.188629
41.49493 16.69169 -34.861492
41.530853 16.289763 -33.363411
42.28149 16.215908 -34.483395
40.637542 16.964035 -35.204605
41.49493 16.69169 -34.861492
39.866745 7.953735 -10.456346
39.380714 8.310507 -9.053731
41.402135 2.891387 -11.786042
41.249446 4.381342 -12.277709
10.54272 22.478943 -29.363125
9.658665 22.789479 -29.357572
9.572581 24.69212 -29.805878
12.689557 18.18255 -28.626091
11.753433 18.40898 -28.564392
11.564929 20.349873 -28.976519
13.661696 18.04938 -28.755867
12.689557 18.18255 -28.626091
14.578496 17.879059 -28.892539
13.661696 18.04938 -28.755867
13.417853 19.953124 -29.174891
15.51344 17.80332 -29.095735
15.757283 15.899576 -28.676712
14.578496 17.879059 -28.892539
26.922214 30.99987 -29.617552
26.046101 31.085831 -30.052893
30.414116 22.558037 -30.696919
29.687963 22.579588 -30.918835
31.067281 21.335077 -31.238067
30.414116 22.558037 -30.696919
31.125111 22.578424 -30.59083
39.042851 18.230427 -20.691498
39.502535 17.146446 -20.205834
40.182443 16.361731 -23.054699
40.642128 15.27775 -22.569035
40.469044 15.992075 -24.48184
40.182443 16.361731 -23.054699
41.3251 14.976381 -25.505499
40.784569 15.941494 -25.961984
40.469044 15.992075 -24.48184
42.61223 6.817085 -17.589983
41.790799 8.268979 -16.673172
42.041647 6.947417 -16.146679
47.407209 11.815921 -30.399389
47.046726 10.781068 -28.997321
47.983785 10.948859 -29.708418
46.724085 12.552985 -31.141513
47.407209 11.815921 -30.399389
14.878735 45.253021 -33.045906
14.443262 43.693523 -33.291348
16.041913 44.959164 -32.575553
14.878735 45.253021 -33.045906
15.401435 46.778523 -32.67884
26.743462 42.657316 -28.235906
25.969728 41.343635 -28.806852
25.653461 42.881518 -28.728773
37.375538 14.15896 -3.363862
37.604721 13.613599 -4.631653
10.486113 36.360354 -33.066944
9.714859 36.519267 -33.019989
9.798678 38.143425 -33.404736
25.772253 15.536972 -31.778628
25.561455 17.090458 -31.596359
26.482352 15.784866 -31.972112
25.126044 15.215052 -31.459397
25.772253 15.536972 -31.778628
26.046942 13.90946 -31.835149
24.712228 13.312693 -31.179172
23.695945 14.72784 -30.901007
24.384451 15.002688 -31.237751
24.712228 13.312693 -31.179172
25.747034 11.97758 -31.62167
35.41724 22.774997 -26.718138
36.048429 22.158788 -26.229491
35.411356 21.90945 -27.821511
34.72376 23.263855 -27.093784
35.41724 22.774997 -26.718138
40.580965 0.367552 -8.074034
40.455668 1.878475 -8.521362
41.168314 -1.23587 -8.901983
40.580965 0.367552 -8.074034
40.675629 -1.007473 -7.572614
41.321999 -3.853356 -7.884819
40.778709 -2.423412 -7.145474
40.83773 -3.665872 -6.62973
9.58616 26.502384 -30.25823
9.572581 24.69212 -29.805878
10.409153 26.189272 -30.295044
9.58616 26.502384 -30.25823
9.538678 28.310072 -30.741844
37.745901 21.25868 -17.180813
37.52243 22.081192 -15.922557
38.415008 19.429855 -17.944879
38.061281 20.59318 -18.534886
37.745901 21.25868 -17.180813
38.412586 18.824168 -16.030877
37.798723 20.848535 -15.276153
38.111681 19.577347 -14.716223
39.885929 15.961756 -19.685783
39.502535 17.146446 -20.205834
39.113783 17.579664 -18.778902
39.885929 15.961756 -19.685783
40.287728 14.792687 -19.196045
41.523798 13.056614 -21.601101
41.122 14.225683 -22.09084
49.286441 3.916596 -23.11313
48.507835 2.743595 -21.911983
49.597317 2.794872 -22.342129
48.886449 4.961819 -23.952053
49.286441 3.916596 -23.11313
48.520798 6.049314 -24.681435
47.831308 4.952815 -23.412366
48.886449 4.961819 -23.952053
49.116998 7.051775 -26.016793
48.061857 7.04277 -25.477106
48.520798 6.049314 -24.681435
49.685239 8.295447 -27.288719
49.116998 7.051775 -26.016793
49.123949 9.192731 -28.152719
49.685239 8.295447 -27.288719
24.211969 57.306946 -26.500853
25.187266 58.592083 -25.811224
24.766312 55.493199 -26.62055
23.248491 56.029103 -27.177096
24.211969 57.306946 -26.500853
27.221514 56.212868 -25.476137
26.759318 57.985768 -25.307968
26.210534 55.009788 -26.105774
27.221514 56.212868 -25.476137
25.247056 53.731945 -26.782017
24.766312 55.493199 -26.62055
26.210534 55.009788 -26.105774
25.747568 51.985683 -26.928825
24.303346 52.469093 -27.443601
25.247056 53.731945 -26.782017
26.154868 50.302357 -27.103825
25.747568 51.985683 -26.928825
26.593319 48.633724 -27.257538
25.24231 49.054199 -27.744124
26.154868 50.302357 -27.103825
26.918886 47.030678 -27.417032
26.593319 48.633724 -27.257538
27.309648 14.586027 -32.455151
26.482352 15.784866 -31.972112
27.09885 16.139513 -32.272882
27.309648 14.586027 -32.455151
28.121198 13.497416 -33.103001
46.95163 -13.962332 -6.898925
46.09301 -13.503429 -6.911696
45.831185 -14.309708 -5.82464
48.21374 -13.337114 -7.909886
46.95163 -13.962332 -6.898925
48.433701 -12.40267 -8.992911
48.21374 -13.337114 -7.909886
40.690113 8.707975 -13.796752
40.483801 10.184051 -14.299282
39.953699 10.492714 -12.866166
40.338814 7.520131 -11.869174
39.687942 9.450242 -10.950807
39.866745 7.953735 -10.456346
40.89706 7.294634 -13.289551
40.338814 7.520131 -11.869174
41.075862 5.798127 -12.795089
41.427162 6.985971 -14.722668
40.690113 8.707975 -13.796752
40.89706 7.294634 -13.289551
42.248594 5.534077 -15.639479
42.041647 6.947417 -16.146679
41.427162 6.985971 -14.722668
40.948322 1.591434 -9.897391
40.455668 1.878475 -8.521362
41.542397 1.496847 -11.252167
40.948322 1.591434 -9.897391
41.667725 0.044569 -10.75818
42.121538 1.344521 -12.646832
41.402135 2.891387 -11.786042
41.542397 1.496847 -11.252167
50.188528 0.560934 -20.650612
49.935679 1.70595 -21.463479
49.07156 0.476853 -20.328116
50.188528 0.560934 -20.650612
50.460293 -0.561125 -19.733989
7.787001 21.483263 -29.038957
7.825257 23.447645 -29.448055
8.792586 19.12714 -28.574501
7.787001 21.483263 -29.038957
9.680715 20.859848 -28.934652
8.710575 23.073025 -29.377405
9.658665 22.789479 -29.357572
9.805165 18.882046 -28.540231
9.680715 20.859848 -28.934652
10.753256 18.598499 -28.520399
8.792586 19.12714 -28.574501
9.805165 18.882046 -28.540231
22.632219 32.763447 -31.170401
22.048288 34.343914 -31.260292
23.040623 34.290322 -30.938465
23.320201 31.166174 -31.036497
22.327866 31.219766 -31.358325
22.632219 32.763447 -31.170401
23.932218 29.619835 -30.949718
23.320201 31.166174 -31.036497
24.6552 28.069961 -30.860628
23.73883 28.07262 -31.135331
23.932218 29.619835 -30.949718
25.305487 26.566858 -30.835074
24.6552 28.069961 -30.860628
26.058578 25.085733 -30.857343
25.214903 25.041622 -31.06851
25.305487 26.566858 -30.835074
27.385573 29.510426 -29.615358
26.922214 30.99987 -29.617552
27.164062 28.105463 -30.050087
27.385573 29.510426 -29.615358
26.36439 28.093443 -30.316508
27.164062 28.105463 -30.050087
26.836269 25.178692 -30.732166
27.635941 25.190712 -30.465746
26.745685 23.653455 -30.965602
26.058578 25.085733 -30.857343
26.836269 25.178692 -30.732166
29.646375 21.215578 -31.404451
28.978052 22.480477 -30.979129
29.687963 22.579588 -30.918835
31.558948 15.991451 -35.02367
30.927946 15.668308 -34.805976
30.977913 16.718391 -34.043835
36.594623 22.150524 -24.522478
36.529499 22.97567 -23.334122
37.325178 20.791092 -25.340149
36.722578 21.537552 -25.830787
36.594623 22.150524 -24.522478
38.608957 19.312473 -21.227861
38.296496 19.846401 -19.835316
39.042851 18.230427 -20.691498
38.093748 20.296099 -21.713495
38.608957 19.312473 -21.227861
38.840103 18.680124 -22.569677
37.613453 21.262881 -22.269695
38.093748 20.296099 -21.713495
37.761059 20.533907 -23.543575
37.049618 22.133038 -22.757959
37.613453 21.262881 -22.269695
37.966803 20.043661 -24.921913
37.761059 20.533907 -23.543575
38.530638 19.173504 -24.433649
38.094758 19.430689 -26.230222
37.325178 20.791092 -25.340149
37.966803 20.043661 -24.921913
38.890165 18.3459 -27.217751
38.248541 19.093331 -27.635986
38.094758 19.430689 -26.230222
39.718271 17.291947 -28.23546
38.890165 18.3459 -27.217751
39.564487 17.629305 -26.829696
41.016609 15.750576 -27.416525
40.160553 16.76627 -26.392866
40.784569 15.941494 -25.961984
43.860594 15.21361 -33.551979
43.114582 15.808084 -34.021488
43.063425 15.219506 -32.515804
40.002779 13.00172 -15.317853
39.509861 13.399373 -13.884711
40.240305 11.571137 -14.801838
40.447872 12.512877 -16.738064
39.717428 14.341112 -15.820937
40.002779 13.00172 -15.317853
41.547303 9.656066 -17.175728
41.790799 8.268979 -16.673172
41.251805 10.944479 -17.686058
41.547303 9.656066 -17.175728
42.065884 9.42706 -18.626806
40.966454 12.28387 -18.189142
40.447872 12.512877 -16.738064
41.251805 10.944479 -17.686058
41.424332 11.952936 -19.635187
40.620399 13.521334 -18.687193
40.966454 12.28387 -18.189142
41.943001 11.933239 -21.099077
41.424332 11.952936 -19.635187
42.289055 10.695776 -20.601027
42.388521 11.799454 -22.566941
41.523798 13.056614 -21.601101
41.943001 11.933239 -21.099077
44.652969 14.682323 -32.982998
44.503548 13.925976 -31.493714
45.347081 13.983269 -32.430417
43.860594 15.21361 -33.551979
44.652969 14.682323 -32.982998
9.899712 39.742565 -33.737702
9.798678 38.143425 -33.404736
10.727249 39.597753 -33.709767
9.899712 39.742565 -33.737702
11.5778 39.390835 -33.698586
11.420482 37.777594 -33.44051
10.727249 39.597753 -33.709767
12.491592 39.178213 -33.57893
11.5778 39.390835 -33.698586
13.415961 38.957554 -33.487617
13.195401 37.350015 -33.338017
12.491592 39.178213 -33.57893
14.410277 38.722093 -33.270912
13.415961 38.957554 -33.487617
15.401098 38.516266 -33.093659
15.11059 36.923529 -33.069451
14.410277 38.722093 -33.270912
15.109999 41.874246 -33.11887
14.443262 43.693523 -33.291348
15.76434 40.088158 -32.992817
15.109999 41.874246 -33.11887
16.173554 41.647574 -32.816567
16.464652 38.289593 -32.791356
15.401098 38.516266 -33.093659
15.76434 40.088158 -32.992817
20.292187 57.004329 -28.409415
21.795898 56.496811 -27.769316
19.473866 55.596581 -29.133532
20.292187 57.004329 -28.409415
18.659658 54.197712 -29.832581
19.473866 55.596581 -29.133532
20.083439 53.751903 -29.180283
17.930056 52.741295 -30.508065
18.659658 54.197712 -29.832581
17.205585 51.295258 -31.146574
17.930056 52.741295 -30.508065
18.544758 50.906998 -30.517842
16.568523 49.797973 -31.723256
17.205585 51.295258 -31.146574
17.19245 47.972813 -31.68242
15.940687 48.309826 -32.249325
16.568523 49.797973 -31.723256
24.031183 37.228457 -30.249318
23.486601 35.768179 -30.623041
23.001274 37.331067 -30.654633
24.608449 38.631825 -29.818241
24.212791 40.179591 -29.790314
25.275384 40.020071 -29.327647
24.031183 37.228457 -30.249318
24.608449 38.631825 -29.818241
27.292103 45.435493 -27.547027
26.053978 45.790382 -28.027832
26.918886 47.030678 -27.417032
27.538751 43.900282 -27.658932
27.292103 45.435493 -27.547027
26.743462 42.657316 -28.235906
27.538751 43.900282 -27.658932
37.475225 21.047417 -12.081395
37.747248 20.254486 -13.357309
37.225796 22.394645 -12.685584
37.669123 19.631426 -11.431057
37.475225 21.047417 -12.081395
37.147671 21.771586 -10.759332
37.066889 21.077914 -8.827383
36.919491 22.557915 -9.522089
37.527321 18.840454 -9.509166
37.066889 21.077914 -8.827383
37.252642 19.562773 -8.227555
37.75313 14.73385 -6.473107
37.588334 16.391958 -7.043171
38.241675 12.51748 -7.290714
37.75313 14.73385 -6.473107
37.924496 13.101669 -5.96164
38.979298 8.811234 -7.674365
39.380714 8.310507 -9.053731
38.814457 10.384572 -8.158613
39.141699 7.163885 -7.202001
38.979298 8.811234 -7.674365
38.575441 9.23795 -6.306883
39.287764 5.604197 -6.73692
39.141699 7.163885 -7.202001
37.546891 12.383319 -2.856633
37.375538 14.15896 -3.363862
37.714589 10.661262 -2.400537
37.89052 8.862354 -1.965102
37.941189 10.187102 -3.663177
37.546891 12.383319 -2.856633
37.714589 10.661262 -2.400537
38.888533 5.958979 -5.400699
38.423365 8.027823 -4.5208
38.574055 6.396201 -4.08698
39.287764 5.604197 -6.73692
38.888533 5.958979 -5.400699
40.767546 -7.793696 -3.899705
40.926699 -7.57134 -4.671967
41.109449 -9.015394 -4.003293
40.767546 -7.793696 -3.899705
41.602055 -10.059325 -4.227111
41.756525 -9.606857 -5.113506
41.109449 -9.015394 -4.003293
41.414488 -10.602661 -3.248957
41.225382 -10.951024 -2.239762
42.061564 -11.194125 -4.359169
41.602055 -10.059325 -4.227111
41.414488 -10.602661 -3.248957
43.256891 -13.067066 -4.625831
42.681292 -12.099728 -4.527052
42.449596 -12.704798 -3.479793
43.99888 -13.76147 -4.707992
44.230576 -13.1564 -5.755251
43.256891 -13.067066 -4.625831
44.69316 -14.512944 -4.743122
43.99888 -13.76147 -4.707992
45.551779 -14.971847 -4.730351
45.831185 -14.309708 -5.82464
44.69316 -14.512944 -4.743122
9.651673 34.94717 -32.607163
9.714859 36.519267 -33.019989
9.621337 33.293827 -32.146281
9.651673 34.94717 -32.607163
10.371958 33.082852 -32.221317
9.568995 31.705875 -31.695305
9.621337 33.293827 -32.146281
10.351647 29.713234 -31.269547
9.579018 29.989601 -31.204417
9.568995 31.705875 -31.695305
17.303113 17.672495 -29.535652
17.00138 19.497368 -29.897341
18.178659 17.615763 -29.744999
17.586309 15.807363 -29.131609
16.409031 17.688968 -29.283951
17.303113 17.672495 -29.535652
17.957034 13.96404 -28.829394
17.586309 15.807363 -29.131609
22.919252 14.564635 -30.652661
22.591475 16.254629 -30.711239
23.695945 14.72784 -30.901007
22.178987 14.346515 -30.302969
22.919252 14.564635 -30.652661
21.365007 14.240837 -30.035038
21.000801 15.985744 -30.194962
22.178987 14.346515 -30.302969
20.566111 14.084705 -29.6843
21.365007 14.240837 -30.035038
33.997044 21.95093 -29.653084
34.015239 22.754373 -28.543917
34.69968 21.594864 -29.306324
33.265585 22.151649 -29.856857
33.997044 21.95093 -29.653084
33.950025 20.99214 -30.619264
32.558478 22.381155 -30.167757
33.265585 22.151649 -29.856857
32.498421 21.274162 -30.977508
31.838333 22.462457 -30.322228
32.558478 22.381155 -30.167757
32.164845 16.428371 -35.33778
32.278413 17.301261 -34.427471
32.834343 16.688098 -35.503723
31.558948 15.991451 -35.02367
32.164845 16.428371 -35.33778
39.41959 17.504234 -38.315556
39.67033 17.29186 -36.884003
38.526133 17.408691 -38.459114
39.41959 17.504234 -38.315556
37.686228 17.394316 -38.546195
37.969963 17.40682 -37.187386
38.526133 17.408691 -38.459114
36.840807 17.151733 -38.53614
37.686228 17.394316 -38.546195
36.043762 17.001249 -38.498706
36.333013 17.24196 -37.237033
36.840807 17.151733 -38.53614
35.268978 16.627359 -38.345039
36.043762 17.001249 -38.498706
35.776771 16.537132 -39.644146
34.664022 15.659534 -40.575779
35.394523 16.246257 -40.841351
34.312507 15.681658 -39.212517
34.664022 15.659534 -40.575779
33.84206 15.875208 -37.917416
34.53154 16.356793 -38.195377
34.312507 15.681658 -39.212517
33.390934 16.182776 -36.657154
33.84206 15.875208 -37.917416
41.335556 -7.856186 -5.57973
40.998335 -6.864601 -5.362009
40.926699 -7.57134 -4.671967
48.75457 -10.50122 -11.078667
48.620451 -11.507043 -10.032808
47.692877 -10.379634 -11.047486
48.75457 -10.50122 -11.078667
48.860491 -9.516056 -12.060378
51.083103 -5.144362 -16.029149
49.976239 -6.383634 -15.044403
50.965339 -4.001645 -17.020353
51.083103 -5.144362 -16.029149
50.847721 -2.856297 -17.923345
49.819966 -4.121671 -16.899088
50.965339 -4.001645 -17.020353
50.649262 -1.715204 -18.877405
50.847721 -2.856297 -17.923345
3 214 53 215
3 0 56 54
3 1 59 57
3 217 216 60
3 219 218 62
3 3 66 64
3 3 68 66
3 4 71 69
3 4 72 71
3 220 74 221
3 7 222 224
3 222 75 223
3 222 223 224
3 7 77 75
3 2 80 78
3 225 83 226
3 227 226 81
3 225 226 227
3 229 228 83
3 230 86 231
3 9 89 87
3 9 91 89
3 9 93 91
3 8 96 94
3 11 99 97
3 11 101 99
3 5 104 102
3 232 106 233
3 235 234 106
3 6 236 238
3 236 107 237
3 236 237 238
3 12 110 108
3 12 112 110
3 10 115 113
3 239 117 240
3 14 118 52
3 14 119 118
3 241 120 242
3 243 121 244
3 16 122 55
3 16 245 247
3 247 246 122
3 245 246 247
3 17 125 123
3 248 126 249
3 20 129 127
3 22 130 58
3 22 131 130
3 23 134 132
3 250 135 251
3 252 251 61
3 250 251 252
3 254 253 135
3 25 138 136
3 255 139 256
3 257 256 63
3 255 256 257
3 258 140 259
3 260 259 139
3 258 259 260
3 27 144 142
3 28 261 263
3 261 145 262
3 261 262 263
3 28 146 145
3 13 147 116
3 29 148 65
3 29 149 148
3 29 150 149
3 30 151 67
3 30 264 266
3 266 265 151
3 264 265 266
3 267 152 268
3 270 269 70
3 31 271 272
3 31 273 274
3 276 275 153
3 33 277 278
3 33 279 280
3 281 155 282
3 283 156 284
3 285 284 155
3 283 284 285
3 34 157 73
3 34 158 157
3 286 159 287
3 15 288 289
3 290 160 291
3 293 292 160
3 294 161 295
3 35 162 76
3 35 163 162
3 297 296 143
3 36 164 79
3 36 165 164
3 18 166 124
3 37 167 82
3 37 168 167
3 37 169 168
3 298 170 299
3 300 299 84
3 298 299 300
3 302 301 170
3 38 171 85
3 38 172 171
3 19 303 305
3 303 173 304
3 303 304 305
3 39 174 88
3 39 175 174
3 39 176 175
3 40 177 90
3 40 178 177
3 40 179 178
3 307 306 92
3 308 180 309
3 310 181 311
3 312 182 313
3 314 313 181
3 312 313 314
3 41 315 317
3 315 183 316
3 315 316 317
3 41 184 183
3 318 185 319
3 321 320 185
3 322 187 323
3 325 324 187
3 43 188 95
3 43 189 188
3 21 190 128
3 44 191 98
3 44 192 191
3 44 193 192
3 45 326 328
3 328 327 100
3 326 327 328
3 45 329 330
3 32 194 154
3 46 195 103
3 46 196 195
3 24 197 133
3 47 198 105
3 47 199 198
3 47 200 199
3 48 331 332
3 48 333 334
3 26 201 137
3 49 202 109
3 49 203 202
3 49 204 203
3 50 205 111
3 50 335 337
3 337 336 205
3 335 336 337
3 338 206 339
3 42 207 186
3 51 208 114
3 51 209 208
3 340 210 341
3 342 341 141
3 340 341 342
3 343 211 344
3 345 212 346
3 347 346 211
3 345 346 347
3 348 213 349
3 350 349 212
3 348 349 350
3 351 52 352
3 53 353 355
3 353 52 354
3 353 354 355
3 53 14 52
3 54 356 358
3 356 55 357
3 356 357 358
3 56 55 54
3 56 16 55
3 360 359 17
3 57 58 20
3 59 58 57
3 59 22 58
3 60 61 23
3 361 61 362
3 363 362 60
3 361 362 363
3 365 364 61
3 62 63 25
3 366 63 367
3 368 367 62
3 366 367 368
3 370 369 63
3 372 371 27
3 373 28 374
3 64 65 13
3 66 65 64
3 66 29 65
3 66 67 29
3 68 67 66
3 68 30 67
3 69 375 377
3 375 70 376
3 375 376 377
3 71 70 69
3 71 378 380
3 380 379 70
3 378 379 380
3 71 381 382
3 72 383 385
3 385 384 71
3 383 384 385
3 72 386 388
3 386 31 387
3 386 387 388
3 389 33 390
3 391 73 392
3 74 393 395
3 393 73 394
3 393 394 395
3 74 34 73
3 397 396 15
3 75 398 399
3 75 400 401
3 75 402 404
3 402 76 403
3 402 403 404
3 77 76 75
3 77 35 76
3 78 405 407
3 405 79 406
3 405 406 407
3 80 79 78
3 80 36 79
3 81 82 18
3 83 82 81
3 83 37 82
3 83 84 37
3 408 84 409
3 410 409 83
3 408 409 410
3 412 411 84
3 413 85 414
3 86 415 417
3 415 85 416
3 415 416 417
3 86 38 85
3 87 88 19
3 89 88 87
3 89 39 88
3 89 90 39
3 91 90 89
3 91 40 90
3 91 92 40
3 93 92 91
3 93 418 420
3 420 419 92
3 418 419 420
3 421 41 422
3 94 423 425
3 423 95 424
3 423 424 425
3 96 95 94
3 96 43 95
3 97 98 21
3 99 98 97
3 99 44 98
3 99 100 44
3 101 100 99
3 101 45 100
3 102 103 32
3 104 103 102
3 104 46 103
3 426 105 427
3 428 427 24
3 426 427 428
3 106 429 431
3 429 105 430
3 429 430 431
3 106 47 105
3 106 432 434
3 434 433 47
3 432 433 434
3 436 435 106
3 107 437 438
3 107 439 441
3 439 48 440
3 439 440 441
3 108 109 26
3 110 109 108
3 110 49 109
3 110 111 49
3 112 111 110
3 112 50 111
3 113 114 42
3 115 114 113
3 115 51 114
3 442 116 443
3 117 444 446
3 444 116 445
3 444 445 446
3 117 13 116
3 52 447 449
3 447 117 448
3 447 448 449
3 118 117 52
3 118 13 117
3 118 64 13
3 119 64 118
3 119 3 64
3 450 69 451
3 120 452 454
3 452 69 453
3 452 453 454
3 120 4 69
3 121 455 456
3 121 457 459
3 457 15 458
3 457 458 459
3 55 460 462
3 460 121 461
3 460 461 462
3 122 121 55
3 122 15 121
3 122 463 465
3 465 464 15
3 463 464 465
3 467 466 122
3 468 7 469
3 123 124 2
3 125 124 123
3 125 18 124
3 470 125 471
3 472 471 17
3 470 471 472
3 473 125 474
3 475 18 476
3 477 476 125
3 475 476 477
3 478 81 479
3 480 479 18
3 478 479 480
3 481 81 482
3 484 483 81
3 126 485 486
3 126 487 489
3 487 19 488
3 487 488 489
3 490 126 491
3 492 126 493
3 494 19 495
3 496 495 126
3 494 495 496
3 497 87 498
3 499 498 19
3 497 498 499
3 500 87 501
3 502 9 503
3 504 503 87
3 502 503 504
3 506 505 9
3 127 128 8
3 129 128 127
3 129 21 128
3 58 129 20
3 130 129 58
3 130 21 129
3 130 97 21
3 131 97 130
3 131 11 97
3 132 133 5
3 134 133 132
3 134 24 133
3 61 134 23
3 135 134 61
3 135 24 134
3 135 507 509
3 509 508 24
3 507 508 509
3 511 510 135
3 136 137 6
3 138 137 136
3 138 26 137
3 63 138 25
3 139 138 63
3 139 26 138
3 139 108 26
3 140 108 139
3 140 12 108
3 512 141 513
3 514 513 10
3 512 513 514
3 515 141 516
3 518 517 141
3 142 143 0
3 144 143 142
3 144 519 521
3 521 520 143
3 519 520 521
3 522 144 523
3 524 523 27
3 522 523 524
3 145 525 527
3 525 144 526
3 525 526 527
3 145 528 530
3 530 529 144
3 528 529 530
3 145 531 533
3 531 78 532
3 531 532 533
3 146 78 145
3 146 2 78
3 116 534 535
3 147 536 538
3 538 537 116
3 536 537 538
3 147 539 541
3 539 28 540
3 539 540 541
3 65 147 13
3 148 147 65
3 148 28 147
3 148 146 28
3 149 146 148
3 149 2 146
3 149 123 2
3 150 123 149
3 150 17 123
3 67 150 29
3 151 150 67
3 151 17 150
3 151 542 544
3 544 543 17
3 542 543 544
3 546 545 151
3 152 547 548
3 152 549 550
3 70 551 553
3 551 152 552
3 551 552 553
3 554 152 555
3 556 555 70
3 554 555 556
3 558 557 152
3 153 154 1
3 559 154 560
3 561 560 153
3 559 560 561
3 562 32 563
3 564 563 154
3 562 563 564
3 565 32 566
3 567 102 568
3 569 568 32
3 567 568 569
3 570 102 571
3 572 5 573
3 574 573 102
3 572 573 574
3 575 33 576
3 577 33 578
3 580 579 33
3 155 581 582
3 155 583 585
3 583 5 584
3 583 584 585
3 155 132 5
3 156 132 155
3 156 23 132
3 73 586 588
3 586 156 587
3 586 587 588
3 157 156 73
3 157 23 156
3 157 60 23
3 158 60 157
3 158 589 591
3 591 590 60
3 589 590 591
3 159 592 593
3 159 594 596
3 594 6 595
3 594 595 596
3 599 598 15
3 597 598 599
3 160 600 602
3 600 601 602
3 160 603 604
3 160 605 607
3 605 159 606
3 605 606 607
3 608 159 609
3 610 609 160
3 608 609 610
3 611 6 612
3 613 612 159
3 611 612 613
3 614 136 615
3 616 615 6
3 614 615 616
3 161 617 619
3 617 136 618
3 617 618 619
3 161 25 136
3 76 620 622
3 620 161 621
3 620 621 622
3 162 161 76
3 162 25 161
3 162 62 25
3 163 62 162
3 163 623 625
3 625 624 62
3 623 624 625
3 143 56 0
3 626 56 627
3 628 627 143
3 626 627 628
3 629 16 630
3 631 630 56
3 629 630 631
3 79 632 633
3 164 634 636
3 636 635 79
3 634 635 636
3 164 637 639
3 637 16 638
3 637 638 639
3 164 640 642
3 642 641 16
3 640 641 642
3 165 643 645
3 645 644 164
3 643 644 645
3 165 646 648
3 646 7 647
3 646 647 648
3 124 80 2
3 166 80 124
3 166 36 80
3 82 166 18
3 167 166 82
3 167 36 166
3 167 165 36
3 168 165 167
3 168 7 165
3 168 77 7
3 169 77 168
3 169 35 77
3 84 169 37
3 170 169 84
3 170 35 169
3 170 163 35
3 649 163 650
3 651 650 170
3 649 650 651
3 653 652 163
3 654 94 655
3 656 94 657
3 658 8 659
3 660 659 94
3 658 659 660
3 661 8 662
3 663 127 664
3 665 664 8
3 663 664 665
3 666 127 667
3 668 20 669
3 670 669 127
3 668 669 670
3 85 671 672
3 171 673 675
3 675 674 85
3 673 674 675
3 171 676 678
3 676 20 677
3 676 677 678
3 171 57 20
3 172 57 171
3 172 1 57
3 173 679 680
3 173 681 682
3 88 173 19
3 174 173 88
3 174 683 685
3 685 684 173
3 683 684 685
3 174 686 687
3 175 688 690
3 690 689 174
3 688 689 690
3 175 691 692
3 175 693 695
3 693 86 694
3 693 694 695
3 176 86 175
3 176 38 86
3 90 176 39
3 177 176 90
3 177 38 176
3 177 172 38
3 178 172 177
3 178 1 172
3 178 153 1
3 179 153 178
3 179 696 698
3 698 697 153
3 696 697 698
3 92 179 40
3 699 179 700
3 701 700 92
3 699 700 701
3 703 702 179
3 704 93 705
3 706 705 9
3 704 705 706
3 707 93 708
3 710 709 93
3 711 54 712
3 711 712 713
3 180 714 716
3 714 54 715
3 714 715 716
3 180 0 54
3 717 180 718
3 181 719 721
3 719 180 720
3 719 720 721
3 181 0 180
3 181 142 0
3 182 142 181
3 182 27 142
3 722 182 723
3 183 724 726
3 724 182 725
3 724 725 726
3 183 27 182
3 183 727 729
3 729 728 27
3 727 728 729
3 184 730 732
3 732 731 183
3 730 731 732
3 184 733 734
3 735 41 736
3 185 737 738
3 185 739 741
3 739 41 740
3 739 740 741
3 185 184 41
3 742 184 743
3 744 743 185
3 742 743 744
3 746 745 184
3 747 186 748
3 749 186 750
3 751 42 752
3 753 752 186
3 751 752 753
3 187 754 755
3 187 756 758
3 756 42 757
3 756 757 758
3 187 113 42
3 759 113 760
3 761 760 187
3 759 760 761
3 762 10 763
3 764 763 113
3 762 763 764
3 765 10 766
3 769 768 10
3 767 768 769
3 95 770 771
3 188 772 774
3 774 773 95
3 772 773 774
3 188 775 776
3 188 777 779
3 777 120 778
3 777 778 779
3 189 120 188
3 189 4 120
3 128 96 8
3 190 96 128
3 190 43 96
3 98 190 21
3 191 190 98
3 191 43 190
3 191 189 43
3 192 189 191
3 192 4 189
3 192 72 4
3 193 72 192
3 193 31 72
3 100 193 44
3 780 193 781
3 782 781 100
3 780 781 782
3 783 31 784
3 785 784 193
3 783 784 785
3 787 786 31
3 154 59 1
3 194 59 154
3 194 22 59
3 103 194 32
3 195 194 103
3 195 22 194
3 195 131 22
3 196 131 195
3 196 11 131
3 133 104 5
3 197 104 133
3 197 46 104
3 105 197 24
3 198 197 105
3 198 46 197
3 198 196 46
3 199 196 198
3 199 11 196
3 199 101 11
3 200 101 199
3 200 45 101
3 788 200 789
3 790 789 47
3 788 789 790
3 791 200 792
3 793 45 794
3 795 794 200
3 793 794 795
3 797 796 45
3 137 107 6
3 201 107 137
3 201 48 107
3 109 201 26
3 202 201 109
3 202 48 201
3 202 798 800
3 800 799 48
3 798 799 800
3 203 801 803
3 803 802 202
3 801 802 803
3 203 804 805
3 203 806 808
3 806 74 807
3 806 807 808
3 204 74 203
3 204 34 74
3 111 204 49
3 205 204 111
3 205 34 204
3 205 158 34
3 809 158 810
3 811 810 205
3 809 810 811
3 813 812 158
3 814 140 815
3 816 140 817
3 818 12 819
3 820 819 140
3 818 819 820
3 821 12 822
3 823 112 824
3 825 824 12
3 823 824 825
3 206 826 828
3 826 112 827
3 826 827 828
3 206 50 112
3 829 206 830
3 831 206 832
3 833 50 834
3 835 834 206
3 833 834 835
3 837 836 50
3 186 838 840
3 838 53 839
3 838 839 840
3 207 53 186
3 207 14 53
3 114 207 42
3 208 207 114
3 208 14 207
3 208 119 14
3 209 119 208
3 209 3 119
3 141 115 10
3 210 115 141
3 210 51 115
3 841 210 842
3 211 843 845
3 843 210 844
3 843 844 845
3 211 51 210
3 211 209 51
3 212 209 211
3 212 3 209
3 212 68 3
3 213 68 212
3 213 30 68
3 846 213 847
3 848 213 849
3 850 30 851
3 852 851 213
3 850 851 852
3 854 853 30
