ply
format ascii 1.0
element vertex 277
property float x
property float y
property float z
element face 256
property list uchar int vertex_index
end_header
-54.872963 9.923958 33.226128
-52.793312 7.295448 42.946491
-60.766991 12.350153 13.312594
-57.987541 11.998259 23.341564
-56.355949 4.92524 39.804878
-54.847 3.23851 44.404457
-62.483784 9.376448 20.412479
-61.122734 8.911848 25.423489
-56.906548 15.538898 16.139454
-58.443008 15.377499 11.301992
-59.535675 7.948544 30.331234
-57.912025 6.553167 35.110161
-53.696213 8.577162 38.084347
-63.649513 8.834908 11.338337
-63.393623 9.378967 15.528975
-59.570946 12.432526 18.241495
-56.343906 11.132677 28.338764
-61.170998 11.489435 9.226925
-63.099842 7.521135 23.887291
-62.345879 7.212988 26.337851
-59.725372 5.499104 33.492615
-58.804241 4.707403 35.812538
-54.642143 6.044231 41.419456
-55.241695 6.790335 39.036049
-53.218204 7.922209 40.518021
-60.376976 10.769001 21.882847
-61.056221 10.933184 19.341724
-58.805092 12.272202 20.795876
-57.263859 13.788685 19.708382
-56.32885 13.519073 22.24893
-57.303123 8.964773 31.826483
-58.070614 9.577156 29.388403
-55.576313 10.560902 30.791458
-62.359196 10.636356 12.194801
-62.426327 10.161463 10.2644
-61.095085 12.041241 11.10887
-57.550476 17.016747 10.49003
-58.804131 14.982391 9.210113
-55.602509 4.08444 42.122238
-54.066284 5.309446 43.781258
-61.845367 9.204687 22.922974
-59.632904 10.487963 24.415405
-58.926025 13.970985 14.646454
-59.529282 13.829132 12.25601
-57.784851 15.548065 13.652399
-56.881538 17.229412 12.779814
-61.51527 6.770082 28.758455
-60.634434 6.19426 31.142937
-58.719395 7.294226 32.734142
-56.570042 8.276031 34.241653
-57.12352 5.754417 37.466072
-55.882057 7.541298 36.642937
-54.245384 9.252262 35.654266
-62.08358 10.89016 14.419983
-61.636993 10.978172 16.832401
-60.24128 12.466967 15.722979
-58.149155 13.946388 17.157623
-55.888622 15.388748 18.671005
-60.344162 8.492308 27.895027
-58.854935 10.089376 26.919188
-57.156387 11.616274 25.857365
-54.502205 12.691345 27.229166
-55.394478 13.149979 24.75679
-59.891357 13.477188 10.095688
-59.948948 12.869099 8.291464
-62.792094 6.290306 26.748474
-63.208126 6.45244 25.555681
-59.010183 3.714523 36.08851
-59.543037 4.134471 34.963077
-51.976465 8.273604 42.440052
-52.188911 8.586984 41.225817
-53.005758 7.608828 41.732256
-57.704906 16.791748 9.490536
-57.202194 17.87929 10.16387
-55.224755 3.661475 43.263348
-55.812562 3.044824 42.370098
-55.434807 2.62186 43.511207
-56.074298 18.158544 13.608529
-56.406444 17.23962 14.0031
-56.558971 18.12301 12.413321
-56.074298 18.158544 13.608529
-60.976763 5.244722 31.487112
-61.473221 5.547897 30.328216
-56.739734 5.339828 38.635475
-57.501921 4.800169 37.78676
-57.118136 4.385581 38.956164
-52.777288 9.464645 37.53739
-53.051874 9.802195 36.32235
-53.970799 8.914712 36.869307
-63.503353 9.286575 14.413133
-64.092914 8.505437 14.954031
-62.738602 10.134563 14.974479
-62.848332 10.042172 13.858637
-63.503353 9.286575 14.413133
-62.746447 9.405414 19.170427
-63.373247 8.575468 19.696563
-55.348024 15.257488 19.930578
-56.57624 14.588717 19.189694
-56.035642 14.457456 20.449267
-54.182254 16.000909 20.699872
-54.722853 16.132169 19.440299
-55.348024 15.257488 19.930578
-53.607365 13.513435 26.672379
-53.149837 13.263924 27.881278
-54.053501 13.742752 25.436191
-54.948341 12.920662 25.992978
-53.607365 13.513435 26.672379
-54.562328 13.960218 24.21443
-54.053501 13.742752 25.436191
-63.569636 8.522084 10.549732
-64.12386 7.929836 11.057473
-61.707149 10.445253 8.981327
-62.334814 9.781267 9.500065
-61.798662 10.825449 9.745662
-61.056801 11.069036 8.504584
-61.707149 10.445253 8.981327
-59.376995 13.594372 7.902224
-59.376539 13.925745 8.750788
-58.804586 14.651018 8.361549
-59.800316 12.418126 7.629272
-59.376995 13.594372 7.902224
-54.957554 2.145573 44.609096
-55.434807 2.62186 43.511207
-63.585108 6.606514 24.330401
-63.938524 6.702932 23.129683
-62.72286 7.367062 25.112571
-63.585108 6.606514 24.330401
-63.208126 6.45244 25.555681
-56.418949 16.394363 15.68292
-55.849213 16.329645 16.932246
-60.003603 4.530321 33.803116
-60.522232 4.897144 32.661951
-59.264806 5.103254 34.652577
-60.003603 4.530321 33.803116
-59.543037 4.134471 34.963077
-52.342409 8.85124 39.986897
-52.581413 9.178716 38.77006
-53.457209 8.249686 39.301184
-52.342409 8.85124 39.986897
-52.188911 8.586984 41.225817
-64.005348 8.563909 16.068413
-64.092914 8.505437 14.954031
-55.568138 14.32265 21.719541
-56.035642 14.457456 20.449267
-56.796354 13.653879 20.978656
-58.331734 15.77457 8.850577
-58.177304 15.999569 9.850072
-57.704906 16.791748 9.490536
-58.804586 14.651018 8.361549
-58.331734 15.77457 8.850577
-56.655605 3.932264 40.091432
-57.118136 4.385581 38.956164
-56.278885 3.511864 41.250113
-55.812562 3.044824 42.370098
-55.979229 4.50484 40.963558
-56.655605 3.932264 40.091432
-56.278885 3.511864 41.250113
-63.116076 8.539887 20.918306
-63.373247 8.575468 19.696563
-63.424104 7.612231 22.655712
-63.938524 6.702932 23.129683
-62.796867 8.454007 22.173554
-63.424104 7.612231 22.655712
-62.472605 8.362911 23.405133
-62.164575 9.290567 21.667727
-63.116076 8.539887 20.918306
-62.796867 8.454007 22.173554
-53.918628 10.746565 32.667054
-53.613859 10.440446 33.884438
-56.858101 16.398947 14.439392
-57.3457 15.543481 14.895927
-56.418949 16.394363 15.68292
-57.333195 16.388738 13.216107
-56.858101 16.398947 14.439392
-56.406444 17.23962 14.0031
-56.89344 18.016678 11.268429
-57.216007 17.123079 11.634922
-56.558971 18.12301 12.413321
-56.545158 18.879221 10.942268
-57.202194 17.87929 10.16387
-56.89344 18.016678 11.268429
-61.913639 5.835807 29.135976
-62.376789 6.068853 27.958776
-61.074852 6.482171 29.950696
-61.913639 5.835807 29.135976
-61.473221 5.547897 30.328216
-60.179903 5.846682 32.317776
-60.976763 5.244722 31.487112
-60.522232 4.897144 32.661951
-58.342281 4.276663 36.959994
-59.010183 3.714523 36.08851
-57.963881 5.23091 36.639305
-58.342281 4.276663 36.959994
-57.501921 4.800169 37.78676
-53.300069 10.104598 35.098506
-53.613859 10.440446 33.884438
-54.559173 9.58811 34.440197
-53.300069 10.104598 35.098506
-53.051874 9.802195 36.32235
-51.662489 10.066199 38.223103
-52.777288 9.464645 37.53739
-52.581413 9.178716 38.77006
-64.215214 8.122461 11.865814
-64.12386 7.929836 11.057473
-64.68956 7.217388 11.58495
-63.631298 9.014546 12.317814
-64.215214 8.122461 11.865814
-62.98614 9.91527 12.746046
-63.004354 9.735632 11.766569
-63.631298 9.014546 12.317814
-62.221388 10.763258 13.307392
-62.98614 9.91527 12.746046
-62.848332 10.042172 13.858637
-63.201366 9.406674 16.728675
-64.005348 8.563909 16.068413
-62.032665 10.183782 18.63505
-62.746447 9.405414 19.170427
-61.770003 10.154816 19.877102
-62.323051 10.206277 17.380388
-62.032665 10.183782 18.63505
-61.346607 10.955678 18.087063
-62.515308 10.17857 16.180688
-63.201366 9.406674 16.728675
-62.323051 10.206277 17.380388
-55.34025 16.25457 18.198021
-55.849213 16.329645 16.932246
-56.397585 15.463823 17.40523
-55.34025 16.25457 18.198021
-54.722853 16.132169 19.440299
-61.930574 6.991535 27.548153
-62.792094 6.290306 26.748474
-62.376789 6.068853 27.958776
-54.270303 11.065037 31.449718
-55.224638 10.24243 32.008793
-53.918628 10.746565 32.667054
-54.630388 11.359008 30.233184
-54.270303 11.065037 31.449718
-55.014185 11.644896 29.006837
-55.96011 10.846789 29.565111
-54.630388 11.359008 30.233184
-54.093334 12.424229 28.452038
-53.149837 13.263924 27.881278
-55.423055 11.912011 27.783965
-55.014185 11.644896 29.006837
-54.093334 12.424229 28.452038
-55.029515 14.144766 22.9605
-55.861664 13.334526 23.50286
-54.562328 13.960218 24.21443
-55.568138 14.32265 21.719541
-55.029515 14.144766 22.9605
-54.455738 2.810298 45.516834
-54.957554 2.145573 44.609096
-54.566292 1.717361 45.721474
-54.166778 3.907414 45.251389
-54.455738 2.810298 45.516834
-53.776421 4.942882 44.939789
-54.456642 4.273978 44.092858
-54.166778 3.907414 45.251389
-53.229244 5.997585 44.564774
-53.776421 4.942882 44.939789
-52.592758 6.990586 44.14739
-53.429798 6.302447 43.363875
-53.229244 5.997585 44.564774
-51.849642 8.025818 43.676214
-52.592758 6.990586 44.14739
-51.976465 8.273604 42.440052
-51.849642 8.025818 43.676214
-62.958043 9.185361 10.012764
-63.569636 8.522084 10.549732
-63.03792 9.498185 10.801368
-62.958043 9.185361 10.012764
-62.334814 9.781267 9.500065
-60.445776 11.758868 8.036854
-61.056801 11.069036 8.504584
-60.559973 12.179267 8.759194
-60.445776 11.758868 8.036854
-59.800316 12.418126 7.629272
3 65 19 66
3 67 21 68
3 1 24 22
3 1 69 71
3 71 70 24
3 69 70 71
3 3 27 25
3 3 29 27
3 0 32 30
3 2 35 33
3 73 72 36
3 5 74 76
3 74 38 75
3 74 75 76
3 5 39 38
3 7 40 18
3 7 41 40
3 8 44 42
3 77 45 78
3 80 79 45
3 81 47 82
3 11 48 20
3 11 49 48
3 4 83 85
3 83 50 84
3 83 84 85
3 12 51 23
3 12 52 51
3 12 86 88
3 88 87 52
3 86 87 88
3 14 89 90
3 14 91 93
3 91 53 92
3 91 92 93
3 6 94 95
3 15 54 26
3 15 55 54
3 15 56 55
3 96 57 97
3 98 97 28
3 96 97 98
3 101 100 57
3 99 100 101
3 10 58 46
3 16 59 31
3 16 60 59
3 102 61 103
3 104 62 105
3 106 105 61
3 104 105 106
3 108 107 62
3 13 109 110
3 17 111 113
3 113 112 34
3 111 112 113
3 17 114 115
3 9 63 43
3 116 64 117
3 118 117 37
3 116 117 118
3 120 119 64
3 121 5 122
3 123 18 124
3 19 125 127
3 125 18 126
3 125 126 127
3 19 7 18
3 129 128 8
3 130 20 131
3 21 132 134
3 132 20 133
3 132 133 134
3 21 11 20
3 22 23 4
3 24 23 22
3 24 12 23
3 24 135 137
3 137 136 12
3 135 136 137
3 139 138 24
3 140 14 141
3 25 26 6
3 27 26 25
3 27 15 26
3 27 28 15
3 29 28 27
3 29 142 144
3 144 143 28
3 142 143 144
3 30 31 10
3 32 31 30
3 32 16 31
3 33 34 13
3 35 34 33
3 35 17 34
3 36 37 9
3 145 37 146
3 147 146 36
3 145 146 147
3 149 148 37
3 150 4 151
3 38 152 153
3 38 154 156
3 154 4 155
3 154 155 156
3 38 22 4
3 39 22 38
3 39 1 22
3 157 6 158
3 18 159 160
3 40 161 163
3 163 162 18
3 161 162 163
3 40 164 166
3 164 6 165
3 164 165 166
3 40 25 6
3 41 25 40
3 41 3 25
3 168 167 0
3 42 43 2
3 44 43 42
3 44 9 43
3 169 44 170
3 171 170 8
3 169 170 171
3 45 172 174
3 172 44 173
3 172 173 174
3 45 9 44
3 45 36 9
3 175 36 176
3 177 176 45
3 175 176 177
3 180 179 36
3 178 179 180
3 181 46 182
3 47 183 185
3 183 46 184
3 183 184 185
3 47 10 46
3 20 186 188
3 186 47 187
3 186 187 188
3 48 47 20
3 48 10 47
3 48 30 10
3 49 30 48
3 49 0 30
3 189 21 190
3 50 191 193
3 191 21 192
3 191 192 193
3 50 11 21
3 23 50 4
3 51 50 23
3 51 11 50
3 51 49 11
3 52 49 51
3 52 0 49
3 52 194 196
3 196 195 0
3 194 195 196
3 198 197 52
3 201 200 12
3 199 200 201
3 202 13 203
3 202 203 204
3 205 13 206
3 207 33 208
3 209 208 13
3 207 208 209
3 53 210 212
3 210 33 211
3 210 211 212
3 53 2 33
3 213 14 214
3 26 215 217
3 217 216 6
3 215 216 217
3 54 218 220
3 220 219 26
3 218 219 220
3 54 221 223
3 221 14 222
3 221 222 223
3 54 53 14
3 55 53 54
3 55 2 53
3 55 42 2
3 56 42 55
3 56 8 42
3 28 56 15
3 57 56 28
3 57 8 56
3 57 224 226
3 226 225 8
3 224 225 226
3 228 227 57
3 46 229 231
3 229 19 230
3 229 230 231
3 58 19 46
3 58 7 19
3 31 58 10
3 59 58 31
3 59 7 58
3 59 41 7
3 60 41 59
3 60 3 41
3 232 32 233
3 234 233 0
3 232 233 234
3 235 32 236
3 237 16 238
3 239 238 32
3 237 238 239
3 61 240 241
3 61 242 244
3 242 16 243
3 242 243 244
3 61 60 16
3 62 60 61
3 62 3 60
3 62 29 3
3 245 29 246
3 247 246 62
3 245 246 247
3 249 248 29
3 250 5 251
3 250 251 252
3 253 5 254
3 255 39 256
3 257 256 5
3 255 256 257
3 258 39 259
3 260 1 261
3 262 261 39
3 260 261 262
3 263 1 264
3 266 265 1
3 34 267 269
3 269 268 13
3 267 268 269
3 271 270 34
3 43 35 2
3 63 35 43
3 63 17 35
3 37 63 9
3 64 63 37
3 64 17 63
3 64 272 274
3 274 273 17
3 272 273 274
3 276 275 64
