ply
format ascii 1.0
element vertex 131
property float x
property float y
property float z
element face 102
property list uchar int vertex_index
end_header
33.276367 32.45937 -22.817266
37.497818 21.601715 -13.961498
34.755039 25.974072 -23.818705
36.902012 22.862011 -21.484079
32.759056 30.275845 -24.492353
35.748608 26.33704 -20.331713
36.606377 24.50753 -19.01792
35.992023 22.896984 -25.013117
34.729645 24.129402 -25.990412
36.945232 24.067028 -15.254307
37.392174 22.422005 -17.770819
34.16188 31.293209 -21.231058
33.830807 29.215092 -23.099581
34.823841 27.905285 -21.700537
35.861774 24.547276 -22.636404
37.862602 20.928448 -20.371679
33.589661 27.139927 -25.009642
33.425209 25.097317 -26.94639
33.312603 23.110439 -28.890676
33.017712 31.367607 -23.654809
32.513279 31.839214 -24.42427
32.771935 32.930977 -23.586727
36.472191 25.391695 -17.827258
36.141054 26.361208 -18.561747
36.048429 22.158788 -26.229491
36.722578 21.537552 -25.830787
37.798723 20.848535 -15.276153
37.52243 22.081192 -15.922557
37.221525 22.834371 -14.607903
34.889094 28.894617 -20.67358
34.49286 29.599247 -21.465798
34.558113 30.588579 -20.438841
37.049618 22.133038 -22.757959
36.529499 22.97567 -23.334122
36.381893 23.704643 -22.060242
38.296496 19.846401 -19.835316
37.627388 21.675227 -19.071249
38.061281 20.59318 -18.534886
34.071542 23.747813 -27.571773
34.077427 24.61336 -26.468401
34.72376 23.263855 -27.093784
34.015239 22.754373 -28.543917
33.368906 24.103878 -27.918533
34.071542 23.747813 -27.571773
32.17418 30.689245 -25.164234
32.513279 31.839214 -24.42427
32.561735 29.163214 -25.335365
32.17418 30.689245 -25.164234
38.111681 19.577347 -14.716223
37.747248 20.254486 -13.357309
35.71217 27.275963 -19.218643
35.351477 28.110495 -19.989168
36.177492 25.422285 -19.674816
35.71217 27.275963 -19.218643
36.141054 26.361208 -18.561747
35.41724 22.774997 -26.718138
35.360834 23.513193 -25.501765
36.048429 22.158788 -26.229491
34.72376 23.263855 -27.093784
35.41724 22.774997 -26.718138
37.168703 23.244516 -16.512563
36.865089 24.348933 -17.203707
36.641618 25.171444 -15.945451
37.745901 21.25868 -17.180813
37.168703 23.244516 -16.512563
37.52243 22.081192 -15.922557
38.061281 20.59318 -18.534886
37.745901 21.25868 -17.180813
37.798723 20.848535 -15.276153
38.111681 19.577347 -14.716223
35.286225 27.121162 -21.016125
34.889094 28.894617 -20.67358
35.351477 28.110495 -19.989168
36.594623 22.150524 -24.522478
35.926899 23.72213 -23.824761
36.529499 22.97567 -23.334122
36.722578 21.537552 -25.830787
36.594623 22.150524 -24.522478
36.999275 23.464768 -18.394369
36.472191 25.391695 -17.827258
36.865089 24.348933 -17.203707
38.608957 19.312473 -21.227861
38.296496 19.846401 -19.835316
38.093748 20.296099 -21.713495
38.608957 19.312473 -21.227861
37.613453 21.262881 -22.269695
37.382307 21.895229 -20.927879
38.093748 20.296099 -21.713495
37.049618 22.133038 -22.757959
37.613453 21.262881 -22.269695
33.185394 34.031565 -22.843899
32.771935 32.930977 -23.586727
33.594538 33.518885 -21.992328
33.185394 34.031565 -22.843899
34.037294 32.935805 -21.199224
33.719123 31.876289 -22.024162
33.594538 33.518885 -21.992328
34.373353 32.31732 -20.32144
34.037294 32.935805 -21.199224
34.558113 30.588579 -20.438841
34.373353 32.31732 -20.32144
36.531028 26.079612 -14.794887
36.641618 25.171444 -15.945451
36.746 24.921886 -14.036115
36.531028 26.079612 -14.794887
37.022293 23.68923 -13.38971
37.221525 22.834371 -14.607903
36.746 24.921886 -14.036115
37.225796 22.394645 -12.685584
37.022293 23.68923 -13.38971
37.747248 20.254486 -13.357309
37.225796 22.394645 -12.685584
32.977037 27.595255 -25.594009
32.561735 29.163214 -25.335365
33.174358 28.707886 -24.750998
32.894812 26.57395 -26.562384
32.977037 27.595255 -25.594009
33.507435 26.118622 -25.978016
32.754701 25.452404 -27.401919
32.894812 26.57395 -26.562384
32.698398 24.458965 -28.374061
32.754701 25.452404 -27.401919
33.368906 24.103878 -27.918533
32.605497 23.339945 -29.201576
32.698398 24.458965 -28.374061
33.997044 21.95093 -29.653084
34.015239 22.754373 -28.543917
33.265585 22.151649 -29.856857
33.997044 21.95093 -29.653084
32.605497 23.339945 -29.201576
33.265585 22.151649 -29.856857
3 0 19 21
3 19 4 20
3 19 20 21
3 22 6 23
3 25 24 7
3 1 26 28
3 28 27 9
3 26 27 28
3 29 13 30
3 31 30 11
3 29 30 31
3 3 14 5
3 3 32 34
3 34 33 14
3 32 33 34
3 35 15 36
3 37 36 10
3 35 36 37
3 2 16 12
3 38 17 39
3 40 39 8
3 38 39 40
3 41 18 42
3 43 42 17
3 41 42 43
3 4 44 45
3 4 46 47
3 49 48 1
3 50 5 51
3 6 52 54
3 52 5 53
3 52 53 54
3 6 3 5
3 7 8 2
3 55 8 56
3 57 56 7
3 55 56 57
3 59 58 8
3 9 60 62
3 60 10 61
3 60 61 62
3 63 10 64
3 65 64 9
3 63 64 65
3 67 66 10
3 69 68 1
3 11 12 0
3 13 12 11
3 13 2 12
3 5 70 72
3 70 13 71
3 70 71 72
3 14 13 5
3 14 2 13
3 14 7 2
3 73 7 74
3 75 74 14
3 73 74 75
3 77 76 7
3 10 78 80
3 78 6 79
3 78 79 80
3 15 6 10
3 15 3 6
3 81 15 82
3 83 15 84
3 85 3 86
3 87 86 15
3 85 86 87
3 89 88 3
3 90 0 91
3 92 0 93
3 94 11 95
3 96 95 0
3 94 95 96
3 97 11 98
3 100 99 11
3 101 9 102
3 103 9 104
3 105 1 106
3 107 106 9
3 105 106 107
3 108 1 109
3 111 110 1
3 12 4 0
3 16 4 12
3 16 112 114
3 114 113 4
3 112 113 114
3 8 16 2
3 17 16 8
3 17 115 117
3 117 116 16
3 115 116 117
3 17 118 119
3 18 120 122
3 122 121 17
3 120 121 122
3 18 123 124
3 125 18 126
3 127 18 128
3 130 129 18
