ply
format ascii 1.0
element vertex 375
property float x
property float y
property float z
element face 421
property list uchar int vertex_index
end_header
-16.946491 -125.937897 -13.051924
-16.158829 -112.537033 -20.955261
-39.227745 -104.517731 -20.471245
-28.226177 -119.360275 -11.564283
-27.921629 -117.88504 -19.970753
-38.383682 -110.252457 -14.514956
-6.135807 -119.773987 -15.378782
-15.789948 -121.723206 -19.896633
-28.134079 -110.573593 -23.388523
-33.369247 -115.043015 -9.462986
-33.306656 -115.458725 -13.833199
-37.738178 -111.342117 -10.683641
-11.625851 -126.930634 -11.931301
-10.916727 -124.833389 -15.677078
-16.222326 -124.567154 -17.232029
-33.90892 -111.722214 -20.811638
-27.97963 -114.814468 -22.348881
-34.071095 -107.922363 -22.698399
-34.262367 -103.128738 -23.730389
-10.419382 -117.037354 -18.927902
-6.193422 -114.968918 -16.419952
-22.618553 -123.249863 -12.883871
-22.059128 -122.686523 -17.439827
-27.92186 -119.472504 -16.220509
-33.619415 -114.31813 -17.789303
-38.936657 -107.937851 -17.90097
-22.749039 -106.53952 -22.262402
-6.531103 -123.449493 -13.157867
-10.461893 -121.49762 -17.98275
-15.685439 -117.668777 -20.986736
-21.782608 -120.463547 -20.681019
-21.700813 -116.876083 -22.305347
-21.967106 -112.193909 -22.617714
-28.563578 -105.364975 -23.603123
-34.650402 -97.434921 -24.422703
-35.572151 -113.027771 -8.307093
-35.533508 -113.372574 -10.291803
-37.456135 -111.468369 -8.83049
-14.21437 -126.664291 -12.649378
-13.800889 -125.973328 -14.795216
-16.53751 -125.454285 -15.304104
-36.69223 -108.225204 -20.749702
-34.000351 -109.956696 -21.889599
-36.773708 -106.294418 -21.756489
-36.831028 -104.118454 -22.554985
-39.286163 -102.4431 -21.455284
-13.132877 -114.991516 -20.088528
-10.667276 -114.383926 -19.01355
-25.454006 -121.412231 -12.349493
-25.180611 -121.535995 -14.774675
-28.010664 -119.631912 -13.966883
-35.892296 -113.01886 -14.347952
-33.447525 -115.081894 -15.898355
-36.141113 -112.313553 -16.258785
-36.374043 -111.263077 -17.992622
-38.686157 -109.244492 -16.296293
-26.087029 -103.052856 -22.896152
-6.785734 -124.890411 -11.575005
-13.212883 -123.50856 -18.026272
-10.65661 -123.308945 -17.015499
-13.017134 -121.800568 -19.050182
-12.911697 -119.806564 -19.69836
-15.683014 -119.835327 -20.618565
-24.92651 -120.470718 -18.937511
-21.89794 -121.766312 -19.257366
-24.870895 -119.322647 -20.521858
-28.033651 -112.823792 -23.011169
-24.844423 -115.990768 -22.516624
-24.902176 -113.886734 -22.973419
-21.776848 -114.661102 -22.587727
-25.040724 -111.528717 -23.156696
-25.281666 -108.931885 -23.151501
-28.305708 -108.083618 -23.558659
-36.998642 -99.072693 -23.759872
-34.429596 -100.390793 -24.088943
-4.555338 -120.421799 -12.932932
-4.407759 -118.39003 -13.894581
-30.885925 -117.198853 -10.580093
-30.722105 -117.567062 -12.91221
-33.254765 -115.443954 -11.66716
-35.670628 -113.369751 -12.331533
-38.057331 -110.949142 -12.616816
-9.232843 -126.726273 -10.931122
-8.883163 -125.684998 -12.878119
-11.233387 -126.050797 -13.970858
-13.474566 -124.909714 -16.60363
-15.974969 -123.311111 -18.772167
-30.951498 -114.956879 -20.576096
-27.947203 -116.514816 -21.34351
-31.026506 -113.378937 -21.776779
-31.091948 -111.502625 -22.65324
-31.169361 -109.36058 -23.24625
-31.286072 -106.975281 -23.621716
-34.148895 -105.641846 -23.289608
-36.896744 -101.709213 -23.201843
-8.080881 -118.640488 -17.376698
-6.077463 -117.519455 -16.031881
-8.164913 -116.176346 -17.727718
-8.463184 -113.419098 -17.853287
-19.766096 -124.782501 -13.126997
-19.386347 -124.513214 -15.46974
-22.287107 -123.188171 -15.287437
-25.019669 -121.218491 -16.998829
-27.905663 -118.882965 -18.246193
-30.704016 -117.523605 -15.147633
-30.766956 -117.06279 -17.216572
-30.860504 -116.197525 -19.045753
-33.780952 -113.187698 -19.441238
-36.561699 -109.890549 -19.497646
-39.117401 -106.354782 -19.29438
-19.401768 -109.709244 -21.643326
-6.305151 -121.745987 -14.42646
-8.592148 -124.341339 -14.509146
-8.345036 -122.716476 -15.798964
-8.159767 -120.817596 -16.747311
-10.366703 -119.407394 -18.604404
-12.93619 -117.536087 -20.02198
-15.833959 -115.23439 -21.072353
-19.104805 -123.817093 -17.518291
-18.890951 -122.723892 -19.196411
-18.732075 -121.272171 -20.459564
-24.841095 -117.815002 -21.713932
-21.711559 -118.820236 -21.689552
-18.635656 -119.501251 -21.304882
-18.625328 -117.443146 -21.771221
-18.732506 -115.1185 -21.927422
-18.985909 -112.538528 -21.85677
-22.290241 -109.48468 -22.482357
-25.633427 -106.104538 -23.040943
-28.906326 -102.424606 -23.594704
-31.464251 -104.35994 -23.855598
-31.711765 -101.522385 -24.019665
-20.285477 -124.612442 -10.583506
-23.099398 -122.872528 -10.321081
-25.892433 -120.861069 -9.80621
-39.918404 -108.930252 -10.738447
-40.325676 -108.195175 -12.610954
-40.69397 -107.192108 -14.418324
-41.006889 -105.921432 -16.095854
-41.246174 -104.398163 -17.601406
-41.403378 -102.639954 -18.919464
-4.37306 -116.068008 -14.57058
-37.350907 -111.437164 -8.066931
-36.514143 -112.24807 -8.568791
-36.408914 -112.216865 -7.805233
-14.846114 -112.355423 -20.463052
-13.333137 -113.582664 -20.029686
-14.645853 -113.764274 -20.521895
-26.35222 -101.419136 -22.834043
-27.700989 -101.161537 -23.243259
-6.931511 -125.475212 -10.637254
-5.986893 -124.924019 -9.935564
-6.13267 -125.50882 -8.997813
-37.073721 -97.643318 -24.022463
-38.235567 -96.96296 -23.755012
-38.110872 -100.924255 -22.747175
-36.863886 -102.913834 -22.878414
-38.078015 -102.128875 -22.423746
-38.137897 -99.659019 -23.120651
-38.110872 -100.924255 -22.747175
-9.802993 -112.433258 -18.38991
-9.56523 -113.901512 -18.433419
-10.90504 -112.915672 -18.970042
-8.73564 -111.89534 -17.833088
-9.802993 -112.433258 -18.38991
-21.363552 -106.587844 -21.812483
-19.689917 -108.172707 -21.502945
-21.075404 -108.124382 -21.952864
-5.642183 -122.816834 -12.415385
-5.74757 -123.571991 -11.638912
-6.418127 -122.59774 -13.792164
-5.529207 -121.96508 -13.049682
-5.642183 -122.816834 -12.415385
-33.334124 -97.952522 -24.297238
-31.864805 -99.996254 -24.095719
-33.181083 -99.478653 -24.221184
-34.777691 -95.853546 -24.597412
-33.334124 -97.952522 -24.297238
-19.246241 -125.115356 -9.259151
-18.887076 -125.303292 -10.573274
-23.438009 -122.47818 -9.002295
-22.043834 -123.443596 -9.127596
-24.834526 -121.472451 -8.74486
-24.495916 -121.866799 -10.063645
-23.438009 -122.47818 -9.002295
-40.945069 -107.556526 -10.662182
-40.702509 -107.957909 -9.731943
-41.148705 -107.188987 -11.598436
-40.12204 -108.562714 -11.674701
-40.945069 -107.556526 -10.662182
-41.731449 -105.54351 -14.28504
-41.546141 -106.173996 -13.416791
-41.887909 -104.908173 -15.123805
-40.85043 -106.55677 -15.257089
-41.731449 -105.54351 -14.28504
-42.268641 -102.555359 -17.393982
-42.158598 -103.403649 -16.67562
-42.347242 -101.676254 -18.053011
-41.324776 -103.519058 -18.260435
-42.268641 -102.555359 -17.393982
-39.305582 -101.291199 -21.873895
-38.078015 -102.128875 -22.423746
-38.058596 -103.280777 -22.005134
-12.100337 -113.278869 -19.492197
-11.900077 -114.687721 -19.551039
-13.333137 -113.582664 -20.029686
-10.90504 -112.915672 -18.970042
-12.100337 -113.278869 -19.492197
-24.707712 -103.208931 -22.460638
-23.038716 -104.952262 -22.143763
-24.418034 -104.796188 -22.579277
-24.707712 -103.208931 -22.460638
-26.35222 -101.419136 -22.834043
-5.874885 -124.29245 -10.847481
-5.986893 -124.924019 -9.935564
-6.658418 -124.169952 -12.366436
-5.74757 -123.571991 -11.638912
-5.874885 -124.29245 -10.847481
-35.789198 -98.302368 -24.186998
-35.714119 -99.731743 -23.924408
-37.073721 -97.643318 -24.022463
-35.899601 -96.824432 -24.353878
-34.539999 -98.912857 -24.255823
-35.789198 -98.302368 -24.186998
-35.994281 -95.28862 -24.620346
-35.899601 -96.824432 -24.353878
-3.832229 -119.599045 -12.13701
-3.913674 -120.500855 -11.512473
-3.758439 -118.58316 -12.617835
-3.832229 -119.599045 -12.13701
-4.481549 -119.405914 -13.413756
-3.698467 -117.543541 -13.099193
-3.758439 -118.58316 -12.617835
-5.356415 -114.205117 -15.705982
-6.365522 -113.543152 -16.505523
-9.058003 -126.205635 -11.904621
-7.980225 -125.872505 -11.288811
-8.155066 -126.393143 -10.315313
-38.188846 -98.340759 -23.399666
-36.947693 -100.390953 -23.480857
-38.137897 -99.659019 -23.120651
-38.235567 -96.96296 -23.755012
-38.188846 -98.340759 -23.399666
-7.500403 -112.768242 -17.222191
-6.365522 -113.543152 -16.505523
-7.328303 -114.194008 -17.13662
-7.500403 -112.768242 -17.222191
-8.73564 -111.89534 -17.833088
-18.037948 -109.644959 -21.178253
-16.416479 -111.058853 -20.834221
-17.780299 -111.123138 -21.299293
-18.037948 -109.644959 -21.178253
-19.689917 -108.172707 -21.502945
-21.363552 -106.587844 -21.812483
-23.038716 -104.952262 -22.143763
-4.6543 -121.302987 -12.302917
-3.913674 -120.500855 -11.512473
-5.430245 -121.083893 -13.679696
-4.6543 -121.302987 -12.302917
-5.529207 -121.96508 -13.049682
-7.834448 -125.287704 -12.226562
-6.931511 -125.475212 -10.637254
-7.980225 -125.872505 -11.288811
-29.110637 -100.847412 -23.592535
-27.700989 -101.161537 -23.243259
-27.496678 -102.738731 -23.245428
-30.462086 -100.447364 -23.883238
-30.309045 -101.973495 -23.807184
-31.864805 -99.996254 -24.095719
-29.110637 -100.847412 -23.592535
-30.462086 -100.447364 -23.883238
-34.777691 -95.853546 -24.597412
-35.994281 -95.28862 -24.620346
-8.34033 -126.830208 -9.251358
-8.155066 -126.393143 -10.315313
-9.458196 -127.079598 -9.824171
-8.34033 -126.830208 -9.251358
-10.654701 -127.181778 -10.32426
-10.429347 -126.828453 -11.431211
-9.458196 -127.079598 -9.824171
-11.880448 -127.184418 -10.77587
-10.654701 -127.181778 -10.32426
-13.174707 -127.051247 -11.134909
-12.92011 -126.797462 -12.290339
-11.880448 -127.184418 -10.77587
-14.484445 -126.807648 -11.44579
-13.174707 -127.051247 -11.134909
-15.850505 -126.444451 -11.647063
-15.580431 -126.301094 -12.850651
-14.484445 -126.807648 -11.44579
-17.217584 -125.966019 -11.807483
-15.850505 -126.444451 -11.647063
-18.627386 -125.388321 -11.845019
-18.356293 -125.360199 -13.08946
-17.217584 -125.966019 -11.807483
-20.025787 -124.697472 -11.855251
-18.627386 -125.388321 -11.845019
-18.887076 -125.303292 -10.573274
-20.636874 -124.313553 -9.258809
-19.246241 -125.115356 -9.259151
-21.692438 -123.742485 -10.452293
-20.636874 -124.313553 -9.258809
-22.043834 -123.443596 -9.127596
-26.21978 -120.391953 -8.509059
-24.834526 -121.472451 -8.74486
-27.26093 -119.77066 -9.44323
-26.21978 -120.391953 -8.509059
-28.427802 -119.020263 -10.322266
-27.059305 -120.110672 -10.685246
-27.26093 -119.77066 -9.44323
-29.757676 -117.939552 -9.830171
-29.556051 -118.279564 -11.072188
-28.427802 -119.020263 -10.322266
-31.077444 -116.819588 -9.389074
-29.757676 -117.939552 -9.830171
-32.319105 -115.741669 -8.830521
-32.127586 -116.120934 -10.021539
-31.077444 -116.819588 -9.389074
-33.561459 -114.646706 -8.350214
-32.319105 -115.741669 -8.830521
-34.66291 -113.639084 -7.772267
-34.470699 -114.035393 -8.88504
-33.561459 -114.646706 -8.350214
-35.793014 -112.615303 -7.313783
-34.66291 -113.639084 -7.772267
-36.408914 -112.216865 -7.805233
-35.793014 -112.615303 -7.313783
-38.199595 -110.625298 -7.995763
-37.350907 -111.437164 -8.066931
-38.464331 -110.448433 -8.858162
-38.199595 -110.625298 -7.995763
-38.605352 -110.385307 -9.784737
-37.597156 -111.405243 -9.757065
-38.464331 -110.448433 -8.858162
-39.695465 -109.179374 -9.81214
-40.702509 -107.957909 -9.731943
-38.828291 -110.136184 -10.711044
-38.605352 -110.385307 -9.784737
-39.695465 -109.179374 -9.81214
-41.361994 -106.67553 -12.513105
-41.148705 -107.188987 -11.598436
-40.509823 -107.693642 -13.514639
-41.361994 -106.67553 -12.513105
-41.546141 -106.173996 -13.416791
-42.038956 -104.165283 -15.922844
-41.887909 -104.908173 -15.123805
-41.126531 -105.159797 -16.84863
-42.038956 -104.165283 -15.922844
-42.158598 -103.403649 -16.67562
-42.415422 -100.727135 -18.692213
-42.347242 -101.676254 -18.053011
-41.445498 -101.649506 -19.49094
-42.415422 -100.727135 -18.692213
-40.357681 -102.588394 -20.26683
-40.315562 -103.578843 -19.695355
-41.445498 -101.649506 -19.49094
-40.38689 -101.551079 -20.75885
-39.256954 -103.480415 -20.963265
-40.357681 -102.588394 -20.26683
-40.406036 -100.451401 -21.260843
-40.38689 -101.551079 -20.75885
-39.305582 -101.291199 -21.873895
-40.406036 -100.451401 -21.260843
-3.681117 -116.38253 -13.437192
-3.698467 -117.543541 -13.099193
-4.39041 -117.229019 -14.232581
-4.446234 -114.754661 -14.781296
-5.283241 -115.518463 -15.495266
-5.356415 -114.205117 -15.705982
-3.676791 -115.193061 -13.781408
-4.446234 -114.754661 -14.781296
-3.681117 -116.38253 -13.437192
-3.676791 -115.193061 -13.781408
-14.846114 -112.355423 -20.463052
-16.416479 -111.058853 -20.834221
3 142 37 143
3 144 143 35
3 142 143 144
3 0 40 38
3 2 43 41
3 2 45 43
3 1 145 147
3 147 146 46
3 145 146 147
3 3 50 48
3 5 53 51
3 5 55 53
3 149 148 56
3 150 57 151
3 150 151 152
3 7 60 58
3 7 62 60
3 4 65 63
3 8 68 66
3 8 70 68
3 8 72 70
3 154 153 73
3 6 76 75
3 9 79 77
3 11 80 36
3 11 81 80
3 12 84 82
3 14 85 39
3 14 86 85
3 15 89 87
3 17 90 42
3 17 91 90
3 17 93 91
3 155 94 156
3 157 156 44
3 155 156 157
3 159 158 94
3 19 97 95
3 160 98 161
3 162 161 47
3 160 161 162
3 164 163 98
3 21 101 99
3 23 102 49
3 23 103 102
3 10 104 78
3 24 105 52
3 24 106 105
3 24 107 106
3 25 108 54
3 25 109 108
3 26 165 167
3 167 166 110
3 165 166 167
3 27 168 169
3 27 170 172
3 170 111 171
3 170 171 172
3 13 112 83
3 28 113 59
3 28 114 113
3 28 115 114
3 29 116 61
3 29 117 116
3 22 118 100
3 30 119 64
3 30 120 119
3 16 121 88
3 31 122 67
3 31 123 122
3 31 124 123
3 32 125 69
3 32 126 125
3 32 127 126
3 33 128 71
3 33 129 128
3 18 130 92
3 34 131 74
3 34 173 175
3 175 174 131
3 173 174 175
3 34 176 177
3 178 132 179
3 180 133 181
3 182 134 183
3 184 183 133
3 182 183 184
3 185 135 186
3 187 136 188
3 189 188 135
3 187 188 189
3 190 137 191
3 192 138 193
3 194 193 137
3 192 193 194
3 195 139 196
3 197 140 198
3 199 198 139
3 197 198 199
3 20 141 96
3 35 36 9
3 37 36 35
3 37 11 36
3 38 39 12
3 40 39 38
3 40 14 39
3 41 42 15
3 43 42 41
3 43 17 42
3 43 44 17
3 45 44 43
3 45 200 202
3 202 201 44
3 200 201 202
3 46 47 19
3 203 47 204
3 205 204 46
3 203 204 205
3 207 206 47
3 48 49 21
3 50 49 48
3 50 23 49
3 51 52 10
3 53 52 51
3 53 24 52
3 53 54 24
3 55 54 53
3 55 25 54
3 56 208 210
3 210 209 26
3 208 209 210
3 212 211 56
3 57 213 214
3 57 215 217
3 215 27 216
3 215 216 217
3 58 59 13
3 60 59 58
3 60 28 59
3 60 61 28
3 62 61 60
3 62 29 61
3 63 64 22
3 65 64 63
3 65 30 64
3 66 67 16
3 68 67 66
3 68 31 67
3 68 69 31
3 70 69 68
3 70 32 69
3 70 71 32
3 72 71 70
3 72 33 71
3 73 74 18
3 218 74 219
3 220 219 73
3 218 219 220
3 221 34 222
3 223 222 74
3 221 222 223
3 225 224 34
3 75 226 227
3 76 228 230
3 230 229 75
3 228 229 230
3 76 231 232
3 234 233 20
3 77 78 3
3 79 78 77
3 79 10 78
3 36 79 9
3 80 79 36
3 80 10 79
3 80 51 10
3 81 51 80
3 81 5 51
3 82 235 237
3 235 83 236
3 235 236 237
3 84 83 82
3 84 13 83
3 39 84 12
3 85 84 39
3 85 13 84
3 85 58 13
3 86 58 85
3 86 7 58
3 87 88 4
3 89 88 87
3 89 16 88
3 42 89 15
3 90 89 42
3 90 16 89
3 90 66 16
3 91 66 90
3 91 8 66
3 91 92 8
3 93 92 91
3 93 18 92
3 44 93 17
3 94 93 44
3 94 18 93
3 94 73 18
3 238 73 239
3 240 239 94
3 238 239 240
3 242 241 73
3 95 96 6
3 97 96 95
3 97 20 96
3 47 97 19
3 98 97 47
3 98 20 97
3 98 243 245
3 245 244 20
3 243 244 245
3 247 246 98
3 99 100 0
3 101 100 99
3 101 22 100
3 49 101 21
3 102 101 49
3 102 22 101
3 102 63 22
3 103 63 102
3 103 4 63
3 78 50 3
3 104 50 78
3 104 23 50
3 52 104 10
3 105 104 52
3 105 23 104
3 105 103 23
3 106 103 105
3 106 4 103
3 106 87 4
3 107 87 106
3 107 15 87
3 54 107 24
3 108 107 54
3 108 15 107
3 108 41 15
3 109 41 108
3 109 2 41
3 110 248 250
3 250 249 1
3 248 249 250
3 252 251 110
3 254 253 26
3 255 75 256
3 111 257 259
3 257 75 258
3 257 258 259
3 111 6 75
3 83 260 262
3 260 57 261
3 260 261 262
3 112 57 83
3 112 27 57
3 59 112 13
3 113 112 59
3 113 27 112
3 113 111 27
3 114 111 113
3 114 6 111
3 114 95 6
3 115 95 114
3 115 19 95
3 61 115 28
3 116 115 61
3 116 19 115
3 116 46 19
3 117 46 116
3 117 1 46
3 100 40 0
3 118 40 100
3 118 14 40
3 64 118 22
3 119 118 64
3 119 14 118
3 119 86 14
3 120 86 119
3 120 7 86
3 88 65 4
3 121 65 88
3 121 30 65
3 67 121 16
3 122 121 67
3 122 30 121
3 122 120 30
3 123 120 122
3 123 7 120
3 123 62 7
3 124 62 123
3 124 29 62
3 69 124 31
3 125 124 69
3 125 29 124
3 125 117 29
3 126 117 125
3 126 1 117
3 126 110 1
3 127 110 126
3 127 26 110
3 71 127 32
3 128 127 71
3 128 26 127
3 128 56 26
3 129 56 128
3 129 263 265
3 265 264 56
3 263 264 265
3 92 72 8
3 130 72 92
3 130 33 72
3 74 130 18
3 131 130 74
3 131 33 130
3 131 129 33
3 266 129 267
3 268 267 131
3 266 267 268
3 270 269 129
3 272 271 34
3 273 82 274
3 275 82 276
3 277 12 278
3 279 278 82
3 277 278 279
3 280 12 281
3 282 38 283
3 284 283 12
3 282 283 284
3 285 38 286
3 287 0 288
3 289 288 38
3 287 288 289
3 290 0 291
3 292 99 293
3 294 293 0
3 292 293 294
3 132 295 297
3 295 99 296
3 295 296 297
3 132 21 99
3 298 132 299
3 133 300 302
3 300 132 301
3 300 301 302
3 133 21 132
3 133 48 21
3 134 48 133
3 134 3 48
3 303 134 304
3 305 134 306
3 307 3 308
3 309 308 134
3 307 308 309
3 310 77 311
3 312 311 3
3 310 311 312
3 313 77 314
3 315 9 316
3 317 316 77
3 315 316 317
3 318 9 319
3 320 35 321
3 322 321 9
3 320 321 322
3 323 35 324
3 326 325 35
3 327 37 328
3 329 37 330
3 331 11 332
3 333 332 37
3 331 332 333
3 135 334 335
3 135 336 338
3 336 11 337
3 336 337 338
3 135 81 11
3 136 81 135
3 136 5 81
3 339 136 340
3 137 341 343
3 341 136 342
3 341 342 343
3 137 5 136
3 137 55 5
3 138 55 137
3 138 25 55
3 344 138 345
3 139 346 348
3 346 138 347
3 346 347 348
3 139 25 138
3 139 109 25
3 140 109 139
3 140 2 109
3 349 140 350
3 351 140 352
3 353 2 354
3 355 354 140
3 353 354 355
3 356 45 357
3 358 357 2
3 356 357 358
3 359 45 360
3 362 361 45
3 96 76 6
3 141 76 96
3 141 363 365
3 365 364 76
3 363 364 365
3 366 141 367
3 368 367 20
3 366 367 368
3 369 141 370
3 372 371 141
3 374 373 1
