ply
format ascii 1.0
element vertex 181
property float x
property float y
property float z
element face 174
property list uchar int vertex_index
end_header
-44.161617 38.495037 28.215233
-45.883362 27.379391 24.821579
-48.528469 37.821651 20.01033
-42.506912 26.667946 33.507336
-44.400543 32.815506 26.724035
-47.101212 32.743702 22.734703
-45.777702 38.280895 24.014053
-44.041252 21.385822 31.13028
-43.528549 27.045326 28.988926
-43.011902 32.709377 31.015831
-42.655754 32.466141 35.731232
-43.512383 38.399227 32.750313
-44.165745 35.657261 27.510906
-45.087879 35.600082 25.443626
-44.81879 38.425407 26.078169
-47.170052 24.905613 23.661045
-47.49585 27.502716 22.790493
-47.85033 35.326279 21.473024
-43.009186 23.913776 32.329765
-43.571995 24.166885 30.055792
-42.861206 26.854801 31.195305
-43.070202 29.833397 30.036579
-42.625893 29.697117 32.286942
-43.047287 35.474899 34.280357
-43.328819 38.246578 35.148106
-44.958717 30.03447 25.83564
-46.400921 30.084534 23.834251
-45.599983 32.801086 24.70718
-46.333771 35.486412 23.44202
-47.03569 38.074512 22.000637
-43.573528 21.081505 33.470032
-42.737278 23.687149 34.703903
-48.086205 30.097828 21.844994
-44.255737 41.272995 28.846119
-44.705692 41.225151 26.635958
-45.675499 24.679165 25.752028
-44.80685 21.715889 28.873226
-44.461372 24.428082 27.871262
-44.540298 27.224232 26.873974
-43.839703 29.949165 27.892181
-43.543011 32.783993 28.819757
-43.56126 35.65274 29.667118
-42.44239 29.552551 34.648178
-42.746162 32.600296 33.320358
-43.218269 35.589191 31.923361
-43.755405 38.484909 30.438101
-43.95715 41.223343 31.128738
-45.392853 41.081993 24.492922
-46.363071 40.856388 22.404795
-49.027132 36.474821 19.755964
-48.688063 35.227135 20.487311
-48.1894 36.573965 20.741677
-49.330588 37.677059 19.01456
-49.027132 36.474821 19.755964
-43.217422 38.138933 36.385143
-43.137321 36.78162 35.939791
-43.364353 39.554012 35.525415
-43.217422 38.138933 36.385143
-43.470163 20.951926 34.685208
-44.07159 19.751041 34.05373
-43.052038 22.254748 35.302143
-43.155403 22.384327 34.086968
-43.470163 20.951926 34.685208
-44.443291 42.61495 27.987243
-44.276252 42.610794 29.123997
-45.77614 23.364165 26.215646
-46.44878 23.522375 25.13441
-44.424051 21.550856 30.001753
-45.211149 20.436043 29.394298
-44.82835 20.271009 30.522825
-42.543438 30.936594 36.423538
-42.648274 32.387367 36.985337
-42.549072 31.009346 35.189705
-42.436756 29.479799 35.882012
-42.543438 30.936594 36.423538
-45.249073 42.465981 24.699666
-45.049273 41.153572 25.56444
-44.905493 42.53756 25.771184
-46.566418 42.098114 21.499367
-46.083765 42.247 22.56791
-46.984521 40.712064 21.379396
-46.566418 42.098114 21.499367
-48.014168 25.00053 22.607889
-47.97352 23.777153 23.003748
-48.177067 26.299082 22.172613
-48.014168 25.00053 22.607889
-47.332951 26.204164 23.225769
-48.382538 27.544758 21.763044
-48.177067 26.299082 22.172613
-48.328668 33.986924 21.119203
-47.95411 32.695635 21.750043
-47.475771 34.03499 22.103863
-48.328668 33.986924 21.119203
-48.688063 35.227135 20.487311
-42.800789 33.891402 36.231354
-42.648274 32.387367 36.985337
-42.996555 35.395781 35.505916
-42.85152 33.97052 35.005795
-42.800789 33.891402 36.231354
-43.188053 36.860738 34.714231
-42.996555 35.395781 35.505916
-43.137321 36.78162 35.939791
-43.517166 39.664846 34.315533
-43.608948 39.741171 33.116636
-43.420601 38.322902 33.949209
-43.517166 39.664846 34.315533
-43.364353 39.554012 35.525415
-44.501522 20.07739 31.685236
-44.82835 20.271009 30.522825
-44.26766 19.925232 32.855112
-44.07159 19.751041 34.05373
-43.80739 21.233663 32.300156
-44.501522 20.07739 31.685236
-44.26766 19.925232 32.855112
-48.677716 28.842314 21.290295
-48.382538 27.544758 21.763044
-47.791027 28.800272 22.317743
-48.446606 31.372698 21.305188
-47.593708 31.420765 22.289848
-47.95411 32.695635 21.750043
-48.985901 30.084341 20.835001
-48.446606 31.372698 21.305188
-48.677716 28.842314 21.290295
-48.985901 30.084341 20.835001
-44.668268 42.591028 26.882163
-44.480715 41.249073 27.741039
-44.443291 42.61495 27.987243
-44.905493 42.53756 25.771184
-44.668268 42.591028 26.882163
-47.196056 23.635599 24.088918
-47.97352 23.777153 23.003748
-46.422776 24.792389 24.706536
-47.196056 23.635599 24.088918
-46.44878 23.522375 25.13441
-45.674394 20.63649 28.260211
-45.211149 20.436043 29.394298
-45.341815 21.882527 27.776245
-45.674394 20.63649 28.260211
-45.169077 23.238623 27.275263
-45.341815 21.882527 27.776245
-44.634111 23.071986 28.372244
-45.068435 24.553624 26.811645
-45.77614 23.364165 26.215646
-45.169077 23.238623 27.275263
-42.71506 23.592795 35.941101
-43.052038 22.254748 35.302143
-42.568827 25.092484 35.315559
-42.71506 23.592795 35.941101
-42.453643 26.582882 34.717276
-42.622095 25.177548 34.10562
-42.568827 25.092484 35.315559
-42.421382 28.025185 35.287697
-42.436756 29.479799 35.882012
-42.474651 28.110249 34.077757
-42.453643 26.582882 34.717276
-42.421382 28.025185 35.287697
-44.126959 42.585968 30.265307
-44.276252 42.610794 29.123997
-44.106443 41.248169 29.987429
-43.831332 41.153229 32.305849
-43.734766 39.811285 31.939525
-43.608948 39.741171 33.116636
-43.977415 42.525307 31.428385
-43.831332 41.153229 32.305849
-44.126959 42.585968 30.265307
-43.977415 42.525307 31.428385
-45.598656 42.359802 23.611974
-45.249073 42.465981 24.699666
-45.877962 40.96919 23.448859
-45.598656 42.359802 23.611974
-46.083765 42.247 22.56791
-47.320831 39.321126 21.177318
-46.699381 39.46545 22.202716
-46.984521 40.712064 21.379396
-48.067221 39.194696 20.182164
-47.78208 37.948082 21.005484
-47.320831 39.321126 21.177318
-48.788097 39.028009 19.166481
-48.067221 39.194696 20.182164
-49.330588 37.677059 19.01456
-48.788097 39.028009 19.166481
3 0 14 12
3 1 16 15
3 2 49 51
3 51 50 17
3 49 50 51
3 2 52 53
3 3 20 18
3 3 22 20
3 54 24 55
3 57 56 24
3 4 27 25
3 6 28 13
3 6 29 28
3 58 30 59
3 60 31 61
3 62 61 30
3 60 61 62
3 5 32 26
3 64 63 33
3 65 35 66
3 7 67 69
3 67 36 68
3 67 68 69
3 8 37 19
3 8 38 37
3 8 39 38
3 9 40 21
3 9 41 40
3 10 70 71
3 10 72 74
3 72 42 73
3 72 73 74
3 10 43 42
3 11 44 23
3 11 45 44
3 11 46 45
3 75 47 76
3 77 76 34
3 75 76 77
3 78 48 79
3 81 80 48
3 12 13 4
3 14 13 12
3 14 6 13
3 15 82 83
3 16 84 86
3 86 85 15
3 84 85 86
3 16 87 88
3 17 89 91
3 91 90 5
3 89 90 91
3 93 92 17
3 18 19 7
3 20 19 18
3 20 8 19
3 20 21 8
3 22 21 20
3 22 9 21
3 94 10 95
3 96 23 97
3 98 97 10
3 96 97 98
3 24 99 101
3 99 23 100
3 99 100 101
3 24 11 23
3 24 102 104
3 104 103 11
3 102 103 104
3 106 105 24
3 25 26 1
3 27 26 25
3 27 5 26
3 13 27 4
3 28 27 13
3 28 5 27
3 28 17 5
3 29 17 28
3 29 2 17
3 107 7 108
3 30 109 110
3 30 111 113
3 111 7 112
3 111 112 113
3 30 18 7
3 31 18 30
3 31 3 18
3 26 16 1
3 32 16 26
3 32 114 116
3 116 115 16
3 114 115 116
3 117 32 118
3 119 118 5
3 117 118 119
3 120 32 121
3 123 122 32
3 33 34 0
3 124 34 125
3 126 125 33
3 124 125 126
3 128 127 34
3 129 15 130
3 35 131 133
3 131 15 132
3 131 132 133
3 35 1 15
3 36 134 135
3 36 136 137
3 19 36 7
3 37 36 19
3 37 138 140
3 140 139 36
3 138 139 140
3 37 141 143
3 141 35 142
3 141 142 143
3 38 35 37
3 38 1 35
3 38 25 1
3 39 25 38
3 39 4 25
3 21 39 8
3 40 39 21
3 40 4 39
3 40 12 4
3 41 12 40
3 41 0 12
3 144 31 145
3 146 31 147
3 148 3 149
3 150 149 31
3 148 149 150
3 42 151 152
3 42 153 155
3 153 3 154
3 153 154 155
3 42 22 3
3 43 22 42
3 43 9 22
3 23 43 10
3 44 43 23
3 44 9 43
3 44 41 9
3 45 41 44
3 45 0 41
3 45 33 0
3 46 33 45
3 46 156 158
3 158 157 33
3 156 157 158
3 159 46 160
3 161 160 11
3 159 160 161
3 162 46 163
3 165 164 46
3 34 14 0
3 47 14 34
3 47 6 14
3 166 47 167
3 48 168 170
3 168 47 169
3 168 169 170
3 48 6 47
3 48 29 6
3 171 29 172
3 173 172 48
3 171 172 173
3 174 2 175
3 176 175 29
3 174 175 176
3 177 2 178
3 180 179 2
