ply
format ascii 1.0
element vertex 296
property float x
property float y
property float z
element face 299
property list uchar int vertex_index
end_header
23.753832 31.643494 58.30323
25.424402 42.94194 51.497658
21.490425 19.652138 64.015129
28.84304 19.897362 61.44178
27.70676 31.837177 57.60141
24.640656 37.479931 55.0756
28.694269 37.593384 54.605713
29.512821 42.715096 51.05159
23.35014 13.514912 63.951736
24.887285 19.6078 61.949722
20.247965 31.865414 60.537666
20.898624 37.765347 56.78389
21.523571 43.444363 52.803101
22.23782 48.719284 48.641853
26.23373 47.795509 47.611588
30.344126 47.009094 47.043175
18.673702 19.818108 67.642906
19.501896 25.875843 64.115372
22.683662 25.66172 61.216415
26.421553 25.757256 59.98983
30.532089 26.198605 59.955452
29.772652 32.050194 57.591667
28.23245 34.775703 56.179558
25.107082 13.534687 63.053246
21.938328 31.709873 59.213333
20.582909 34.832539 58.688774
22.343231 34.66048 57.509087
25.037167 40.273857 53.328003
23.07901 40.403919 53.895996
23.438305 43.142735 51.990799
21.863033 46.14344 50.740791
23.812321 45.756546 50.028641
24.213163 48.222679 48.014214
25.818819 45.455894 49.591103
31.546913 42.573914 50.827576
29.916473 44.968311 49.098503
31.950953 44.673164 48.789467
20.898006 16.642239 65.463287
19.521126 16.719772 67.314713
20.024363 19.744282 65.673103
19.095724 22.85799 65.87812
20.529556 22.752079 64.064568
21.025379 25.748142 62.468826
22.093029 22.658199 62.612
26.810537 19.710415 61.542854
25.673599 22.68066 60.999557
27.660173 22.830963 60.775276
28.452446 25.948433 59.891014
29.726255 23.05685 60.789062
25.686113 31.688866 57.793221
24.21767 34.592484 56.73436
26.19149 34.63855 56.325211
26.643709 37.500629 54.737572
27.059843 40.237968 53.035583
27.459707 42.816418 51.228195
29.113129 40.250542 52.891663
22.416473 16.57095 63.973175
23.108461 19.594158 62.762321
24.099789 16.549919 62.909103
25.944059 16.606846 62.271255
27.923649 16.749847 61.992554
29.227196 51.234344 43.064697
18.667599 32.060112 62.224419
17.356197 35.299118 62.097694
18.929943 35.067181 60.246078
19.178932 38.043812 58.212929
19.426823 40.974308 56.121582
22.719223 37.567101 55.737083
21.20713 40.643757 54.820427
22.655441 51.153809 46.50927
24.648222 50.525391 45.946152
26.678106 49.952019 45.557137
27.862377 45.210106 49.323715
28.283936 47.40596 47.327316
28.73634 49.407097 45.24086
30.811104 48.856178 44.894859
18.235764 16.74894 69.415001
17.378489 19.813347 69.795357
17.743103 22.915058 67.936752
18.07683 25.985226 66.058571
18.384342 29.032093 64.157768
19.887541 28.877857 62.341087
21.498283 28.735195 60.860153
23.241646 28.660175 59.79055
23.80905 22.624779 61.58931
24.487226 25.658752 60.399529
25.117636 28.68631 59.145424
27.103668 28.818836 58.867683
29.160097 29.034096 58.837959
30.034253 33.501533 56.871285
30.801697 32.158924 57.595344
32.736464 43.501628 49.611317
31.748933 43.623539 49.808521
32.534444 42.452004 50.630371
32.941854 44.473444 48.542431
32.736464 43.501628 49.611317
29.890138 20.020359 61.470425
30.331746 21.600103 61.144065
29.284647 21.477106 61.115421
22.556128 13.536467 64.612804
23.010412 12.013317 64.547737
22.883306 15.042931 63.962455
22.089294 15.064486 64.623524
22.556128 13.536467 64.612804
26.481442 15.121765 62.408939
25.525571 15.070767 62.66225
26.062954 13.585686 62.799934
27.471238 15.193265 62.269588
26.933854 16.678346 62.131904
26.481442 15.121765 62.408939
28.488572 15.285659 62.16637
27.471238 15.193265 62.269588
29.493805 52.079814 41.932961
30.277137 50.890865 42.864002
20.606245 43.641861 53.389718
20.448024 42.241558 54.398381
21.36535 42.04406 53.811764
20.752266 45.031596 52.295345
20.606245 43.641861 53.389718
21.277138 49.006443 49.104869
21.089745 47.718521 50.154339
22.050427 47.431362 49.691322
21.471142 50.282868 47.984169
21.277138 49.006443 49.104869
22.44663 49.936547 47.575561
21.679952 51.50013 46.917878
21.471142 50.282868 47.984169
30.883851 27.741352 59.425808
30.197855 29.159098 58.867061
29.846093 27.616351 59.396705
31.567894 26.326895 59.983486
30.883851 27.741352 59.425808
16.651039 36.94263 62.011257
17.448107 36.821123 61.029602
29.264153 34.864288 56.16523
29.002551 33.412948 56.885613
30.034253 33.501533 56.871285
29.495062 36.273128 55.378308
28.463359 36.184544 55.392635
29.264153 34.864288 56.16523
29.721163 37.645536 54.56755
29.495062 36.273128 55.378308
23.846243 12.011015 63.966381
23.010412 12.013317 64.547737
24.724714 12.020903 63.517136
24.228611 13.5248 63.502491
23.846243 12.011015 63.966381
25.643156 12.055553 63.136029
24.724714 12.020903 63.517136
26.062954 13.585686 62.799934
25.643156 12.055553 63.136029
32.171279 45.615932 47.720821
31.367866 46.783897 46.847675
31.14754 45.841129 47.916321
32.171279 45.615932 47.720821
32.941854 44.473444 48.542431
20.209566 16.681005 66.389
19.92691 15.173761 67.150455
20.61535 15.134995 66.224742
30.772589 23.187957 60.833019
31.175506 24.758835 60.416214
30.129172 24.627727 60.372257
30.772589 23.187957 60.833019
30.331746 21.600103 61.144065
29.930594 38.974115 53.710526
28.903699 38.921963 53.748688
29.721163 37.645536 54.56755
30.134247 40.248499 52.819676
29.930594 38.974115 53.710526
30.334093 41.480776 51.899639
29.312975 41.482819 51.971626
30.134247 40.248499 52.819676
31.351139 41.410185 51.787632
30.529867 42.644505 50.939583
30.334093 41.480776 51.899639
32.343615 41.364619 51.644928
31.351139 41.410185 51.787632
32.534444 42.452004 50.630371
32.343615 41.364619 51.644928
21.330061 15.10013 65.368579
20.61535 15.134995 66.224742
21.657239 16.606594 64.718231
21.330061 15.10013 65.368579
22.089294 15.064486 64.623524
28.960821 16.858497 61.971447
29.420516 18.432255 61.69606
28.383344 18.323605 61.717167
28.960821 16.858497 61.971447
28.488572 15.285659 62.16637
28.448628 52.493603 42.130407
28.19184 51.582592 43.242958
28.448628 52.493603 42.130407
29.493805 52.079814 41.932961
18.011898 33.679615 62.161057
17.25819 33.762264 63.134735
17.913891 32.142761 63.198097
18.23498 36.705154 60.103794
17.448107 36.821123 61.029602
18.14307 35.183149 61.171886
18.359474 38.19347 59.08722
18.23498 36.705154 60.103794
19.054437 36.555497 59.229503
18.451934 39.694191 57.985897
18.359474 38.19347 59.08722
18.575879 41.159439 56.940224
18.451934 39.694191 57.985897
19.302878 39.50906 57.167255
18.676901 42.630564 55.807193
18.575879 41.159439 56.940224
19.557871 42.406834 55.048958
20.316976 40.809033 55.471004
20.448024 42.241558 54.398381
18.676901 42.630564 55.807193
19.557871 42.406834 55.048958
20.921997 46.381134 51.26419
20.752266 45.031596 52.295345
21.693302 44.793902 51.771946
20.921997 46.381134 51.26419
21.089745 47.718521 50.154339
21.901653 52.708179 45.786765
21.679952 51.50013 46.917878
22.886459 52.29406 45.423181
21.901653 52.708179 45.786765
23.882849 51.979851 45.141622
22.886459 52.29406 45.423181
23.651832 50.8396 46.227711
24.883961 51.591988 44.880913
23.882849 51.979851 45.141622
25.898902 51.305302 44.686405
24.883961 51.591988 44.880913
25.663164 50.238705 45.751644
26.917295 50.941429 44.489178
25.898902 51.305302 44.686405
27.946411 50.668969 44.33104
26.917295 50.941429 44.489178
27.707223 49.679558 45.398998
28.981768 50.320721 44.152778
28.19184 51.582592 43.242958
27.946411 50.668969 44.33104
31.069091 49.701782 43.779083
30.277137 50.890865 42.864002
30.01915 50.045261 43.979778
31.601354 47.707439 45.773517
30.577615 47.932636 45.969017
31.367866 46.783897 46.847675
31.848673 48.561256 44.664329
31.601354 47.707439 45.773517
31.069091 49.701782 43.779083
31.848673 48.561256 44.664329
19.272602 15.197559 68.157253
19.92691 15.173761 67.150455
18.629921 15.212143 69.207397
19.272602 15.197559 68.157253
18.878445 16.734356 68.364857
18.005243 15.197306 70.302723
18.629921 15.212143 69.207397
17.604222 16.710237 70.521778
18.005243 15.197306 70.302723
17.175584 18.242441 70.711956
17.604222 16.710237 70.521778
17.807126 18.281143 69.605179
16.722751 19.741585 70.893825
17.175584 18.242441 70.711956
16.892462 21.336023 69.949478
16.722751 19.741585 70.893825
17.074769 22.886879 69.020176
16.892462 21.336023 69.949478
17.560796 21.364202 68.866054
17.218437 24.461794 68.052757
17.074769 22.886879 69.020176
17.3853 25.996878 67.113666
17.218437 24.461794 68.052757
17.909967 24.450142 66.997661
17.509427 27.556952 66.125591
17.3853 25.996878 67.113666
17.663183 29.080385 65.17519
17.509427 27.556952 66.125591
18.230586 27.50866 65.10817
17.772263 30.628751 64.164772
17.663183 29.080385 65.17519
18.52597 30.546102 63.191094
17.913891 32.142761 63.198097
17.772263 30.628751 64.164772
30.504133 30.667147 58.243915
29.466375 30.542145 58.214813
30.197855 29.159098 58.867061
30.801697 32.158924 57.595344
30.504133 30.667147 58.243915
31.567894 26.326895 59.983486
31.175506 24.758835 60.416214
29.890138 20.020359 61.470425
29.420516 18.432255 61.69606
16.587201 35.374912 63.111759
17.25819 33.762264 63.134735
16.587201 35.374912 63.111759
16.651039 36.94263 62.011257
3 90 89 21
3 0 26 24
3 1 29 27
3 1 31 29
3 1 33 31
3 91 36 92
3 93 92 34
3 91 92 93
3 95 94 36
3 2 39 37
3 2 41 39
3 2 43 41
3 3 46 44
3 3 48 46
3 3 96 98
3 98 97 48
3 96 97 98
3 4 51 49
3 6 52 22
3 6 53 52
3 6 55 53
3 8 99 100
3 8 101 103
3 101 56 102
3 101 102 103
3 8 58 56
3 104 59 105
3 106 105 23
3 104 105 106
3 107 60 108
3 109 108 59
3 107 108 109
3 111 110 60
3 113 112 61
3 10 64 62
3 11 65 25
3 11 66 65
3 5 67 50
3 12 68 28
3 12 114 116
3 116 115 68
3 114 115 116
3 12 117 118
3 13 119 121
3 121 120 30
3 119 120 121
3 13 122 123
3 13 124 126
3 124 69 125
3 124 125 126
3 14 70 32
3 14 71 70
3 7 72 54
3 15 73 35
3 15 74 73
3 15 75 74
3 16 76 38
3 16 77 76
3 16 78 77
3 17 79 40
3 17 80 79
3 17 81 80
3 18 82 42
3 18 83 82
3 9 84 57
3 19 85 45
3 19 86 85
3 19 87 86
3 20 88 47
3 20 127 129
3 129 128 88
3 127 128 129
3 20 130 131
3 133 132 63
3 21 22 4
3 134 22 135
3 136 135 21
3 134 135 136
3 137 6 138
3 139 138 22
3 137 138 139
3 141 140 6
3 142 8 143
3 144 23 145
3 146 145 8
3 144 145 146
3 147 23 148
3 150 149 23
3 24 25 10
3 26 25 24
3 26 11 25
3 27 28 5
3 29 28 27
3 29 12 28
3 29 30 12
3 31 30 29
3 31 13 30
3 31 32 13
3 33 32 31
3 33 14 32
3 34 35 7
3 36 35 34
3 36 15 35
3 36 151 153
3 153 152 15
3 151 152 153
3 155 154 36
3 37 156 158
3 156 38 157
3 156 157 158
3 39 38 37
3 39 16 38
3 39 40 16
3 41 40 39
3 41 17 40
3 41 42 17
3 43 42 41
3 43 18 42
3 44 45 9
3 46 45 44
3 46 19 45
3 46 47 19
3 48 47 46
3 48 20 47
3 48 159 161
3 161 160 20
3 159 160 161
3 163 162 48
3 49 50 0
3 51 50 49
3 51 5 50
3 22 51 4
3 52 51 22
3 52 5 51
3 52 27 5
3 53 27 52
3 53 1 27
3 53 54 1
3 55 54 53
3 55 7 54
3 164 55 165
3 166 165 6
3 164 165 166
3 167 55 168
3 169 7 170
3 171 170 55
3 169 170 171
3 172 34 173
3 174 173 7
3 172 173 174
3 175 34 176
3 178 177 34
3 179 37 180
3 56 181 183
3 181 37 182
3 181 182 183
3 56 2 37
3 56 57 2
3 58 57 56
3 58 9 57
3 23 58 8
3 59 58 23
3 59 9 58
3 59 44 9
3 60 44 59
3 60 3 44
3 60 184 186
3 186 185 3
3 184 185 186
3 188 187 60
3 61 189 190
3 192 191 61
3 62 193 195
3 193 63 194
3 193 194 195
3 64 63 62
3 64 196 198
3 198 197 63
3 196 197 198
3 25 64 10
3 65 64 25
3 65 199 201
3 201 200 64
3 199 200 201
3 65 202 203
3 66 204 206
3 206 205 65
3 204 205 206
3 66 207 208
3 50 26 0
3 67 26 50
3 67 11 26
3 28 67 5
3 68 67 28
3 68 11 67
3 68 66 11
3 209 66 210
3 211 210 68
3 209 210 211
3 213 212 66
3 30 214 216
3 216 215 12
3 214 215 216
3 218 217 30
3 69 219 220
3 69 221 222
3 32 69 13
3 70 69 32
3 70 223 225
3 225 224 69
3 223 224 225
3 70 226 227
3 71 228 230
3 230 229 70
3 228 229 230
3 71 231 232
3 54 33 1
3 72 33 54
3 72 14 33
3 35 72 7
3 73 72 35
3 73 14 72
3 73 71 14
3 74 71 73
3 74 233 235
3 235 234 71
3 233 234 235
3 74 236 238
3 236 61 237
3 236 237 238
3 75 61 74
3 75 239 241
3 241 240 61
3 239 240 241
3 242 75 243
3 244 243 15
3 242 243 244
3 245 75 246
3 248 247 75
3 38 249 250
3 76 251 253
3 253 252 38
3 251 252 253
3 76 254 255
3 76 256 257
3 77 258 260
3 260 259 76
3 258 259 260
3 77 261 262
3 77 263 264
3 78 265 267
3 267 266 77
3 265 266 267
3 78 268 269
3 40 78 16
3 79 78 40
3 79 270 272
3 272 271 78
3 270 271 272
3 79 273 274
3 80 275 277
3 277 276 79
3 275 276 277
3 80 278 279
3 80 280 282
3 280 62 281
3 280 281 282
3 81 62 80
3 81 10 62
3 42 81 17
3 82 81 42
3 82 10 81
3 82 24 10
3 83 24 82
3 83 0 24
3 57 43 2
3 84 43 57
3 84 18 43
3 45 84 9
3 85 84 45
3 85 18 84
3 85 83 18
3 86 83 85
3 86 0 83
3 86 49 0
3 87 49 86
3 87 4 49
3 47 87 19
3 88 87 47
3 88 4 87
3 88 21 4
3 283 21 284
3 285 284 88
3 283 284 285
3 287 286 21
3 289 288 20
3 291 290 3
3 63 292 293
3 295 294 63
