ply
format ascii 1.0
element vertex 182
property float x
property float y
property float z
element face 160
property list uchar int vertex_index
end_header
-23.713602 -74.101181 66.603302
-28.197975 -70.202805 60.565228
-18.796894 -81.142395 58.931953
-20.613438 -76.255783 68.795746
-21.149843 -77.675522 63.121788
-26.232882 -72.074753 63.845905
-23.928047 -75.731308 60.830986
-28.511967 -68.107788 66.011642
-30.192709 -66.067047 62.21069
-22.228695 -75.167297 67.769402
-20.89794 -76.99025 66.060532
-22.419983 -75.920929 64.966232
-27.273075 -71.119339 62.2635
-26.18844 -73.043823 61.028118
-27.451443 -69.154526 67.692139
-30.894329 -65.087151 60.163834
-22.837105 -77.44931 58.985149
-18.896582 -77.345657 69.685608
-17.553795 -79.193329 67.934158
-19.265945 -78.091942 67.048767
-19.591526 -78.759361 64.162842
-19.932718 -79.398819 61.095821
-25.049988 -73.068901 65.295082
-23.812166 -74.902939 63.762722
-25.066296 -73.943924 62.448891
-25.137966 -74.887497 59.579659
-20.228378 -75.425537 71.256081
-21.947525 -74.347061 70.340775
-23.545252 -73.267426 69.262276
-24.99436 -72.200012 68.017639
-26.278786 -71.151993 66.605995
-27.396782 -70.126602 65.031754
-28.363218 -69.126091 63.30777
-29.414295 -67.076691 64.174347
-29.209673 -68.153999 61.458202
-29.98164 -67.216316 59.520233
-22.599026 -76.661278 62.011822
-21.434814 -78.368576 60.052299
-27.69926 -71.200882 60.03821
-27.236809 -71.659149 60.887346
-27.735525 -70.661072 61.414364
-17.992184 -81.723373 59.453896
-18.570206 -80.827976 60.523979
-18.284054 -82.055168 57.813213
-17.479343 -82.636146 58.335155
-17.992184 -81.723373 59.453896
-25.691072 -74.505432 58.921274
-25.663203 -73.96566 60.303888
-26.21631 -73.583595 59.645504
-25.238864 -75.424873 58.179625
-25.691072 -74.505432 58.921274
-19.955818 -74.946121 72.320755
-19.326021 -75.953987 71.633172
-22.584642 -73.349628 70.998413
-21.726204 -73.882869 71.475636
-23.383505 -72.809811 70.459164
-22.746389 -73.807243 69.801525
-22.584642 -73.349628 70.998413
-25.60448 -71.206627 68.607551
-24.897249 -71.740395 69.268425
-26.246693 -70.682617 67.901729
-25.636573 -71.676003 67.311817
-25.60448 -71.206627 68.607551
-29.803502 -66.571869 63.192518
-29.893249 -66.027161 64.522091
-30.282457 -65.522339 63.540262
-31.153417 -65.23386 57.816242
-30.813744 -65.704087 58.853882
-31.234003 -64.616925 59.126194
-16.896425 -80.0943 66.990723
-17.749302 -79.537705 66.535809
-21.621171 -78.750816 58.485544
-22.135959 -77.908943 59.518724
-22.322316 -78.291183 57.951969
-20.887916 -79.219707 58.981719
-21.621171 -78.750816 58.485544
-26.694492 -72.621391 60.269655
-26.730757 -72.081581 61.645809
-27.236809 -71.659149 60.887346
-26.21631 -73.583595 59.645504
-26.694492 -72.621391 60.269655
-27.383989 -68.648224 68.912208
-26.833022 -69.683884 68.444801
-27.980918 -68.117615 68.120365
-27.383989 -68.648224 68.912208
-28.51118 -67.594246 67.280117
-27.981705 -68.631157 66.85189
-27.980918 -68.117615 68.120365
-30.644206 -65.007019 62.52215
-30.282457 -65.522339 63.540262
-30.995016 -64.517071 61.498722
-30.543519 -65.577099 61.187262
-30.644206 -65.007019 62.52215
-31.316986 -64.014315 60.444125
-30.995016 -64.517071 61.498722
-31.234003 -64.616925 59.126194
-31.316986 -64.014315 60.444125
-23.486553 -77.049285 58.439529
-23.382576 -76.590309 59.908068
-24.032024 -76.190284 59.362448
-23.013334 -77.899338 57.471086
-23.486553 -77.049285 58.439529
-22.322316 -78.291183 57.951969
-23.013334 -77.899338 57.471086
-28.168784 -70.804138 59.242168
-28.623829 -69.764924 59.672909
-18.225189 -78.269493 68.809883
-17.335051 -78.799378 69.187409
-18.006444 -77.875541 70.063133
-18.605377 -78.987011 66.093113
-17.749302 -79.537705 66.535809
-18.40987 -78.642636 67.491462
-18.768168 -79.32072 64.65015
-18.605377 -78.987011 66.093113
-19.428736 -78.425652 65.605805
-18.967522 -79.636459 63.139423
-18.768168 -79.32072 64.65015
-19.138117 -79.956188 61.605913
-18.967522 -79.636459 63.139423
-19.762122 -79.07909 62.629331
-19.364806 -80.270607 60.013887
-18.570206 -80.827976 60.523979
-19.138117 -79.956188 61.605913
-24.636984 -75.768379 58.736784
-24.032024 -76.190284 59.362448
-24.533006 -75.309403 60.205323
-24.636984 -75.768379 58.736784
-25.238864 -75.424873 58.179625
-27.69926 -71.200882 60.03821
-28.168784 -70.804138 59.242168
-18.660123 -76.914047 70.847935
-18.006444 -77.875541 70.063133
-19.56248 -76.385597 70.470844
-18.660123 -76.914047 70.847935
-19.326021 -75.953987 71.633172
-20.86663 -74.422108 71.933289
-19.955818 -74.946121 72.320755
-21.087951 -74.886299 70.798428
-20.86663 -74.422108 71.933289
-21.726204 -73.882869 71.475636
-24.172695 -72.274102 69.890743
-23.383505 -72.809811 70.459164
-24.269806 -72.733719 68.639958
-24.172695 -72.274102 69.890743
-24.897249 -71.740395 69.268425
-26.865115 -70.15326 67.149067
-26.246693 -70.682617 67.901729
-26.833022 -69.683884 68.444801
-29.017083 -67.066124 66.399108
-28.51118 -67.594246 67.280117
-29.468248 -66.550576 65.480461
-29.893249 -66.027161 64.522091
-28.963131 -67.59224 65.092995
-29.017083 -67.066124 66.399108
-29.468248 -66.550576 65.480461
-29.129678 -68.740521 60.119396
-28.623829 -69.764924 59.672909
-28.703824 -69.178402 61.011715
-29.515662 -68.271679 59.150411
-29.129678 -68.740521 60.119396
-29.595656 -67.685158 60.489217
-29.930907 -67.856247 58.236199
-29.515662 -68.271679 59.150411
-30.357399 -66.768669 58.532082
-30.437984 -66.151734 59.842033
-30.813744 -65.704087 58.853882
-29.930907 -67.856247 58.236199
-30.357399 -66.768669 58.532082
-16.677523 -79.720246 68.326233
-17.335051 -78.799378 69.187409
-16.677523 -79.720246 68.326233
-16.896425 -80.0943 66.990723
-20.136868 -79.734829 59.503481
-20.683766 -78.883698 60.57406
-20.887916 -79.219707 58.981719
-19.568956 -80.606617 58.421547
-19.364806 -80.270607 60.013887
-20.136868 -79.734829 59.503481
-19.068719 -81.487106 57.285858
-19.568956 -80.606617 58.421547
-18.284054 -82.055168 57.813213
-19.068719 -81.487106 57.285858
3 0 11 9
3 1 38 40
3 40 39 12
3 38 39 40
3 2 41 42
3 2 43 45
3 43 44 45
3 3 19 17
3 4 20 10
3 4 21 20
3 5 24 22
3 46 25 47
3 48 47 13
3 46 47 48
3 50 49 25
3 51 26 52
3 53 27 54
3 55 28 56
3 57 56 27
3 55 56 57
3 58 29 59
3 60 30 61
3 62 61 29
3 60 61 62
3 7 31 14
3 7 32 31
3 8 63 65
3 63 33 64
3 63 64 65
3 8 34 33
3 8 35 34
3 68 67 15
3 66 67 68
3 70 69 18
3 6 36 23
3 71 37 72
3 73 72 16
3 71 72 73
3 75 74 37
3 9 10 3
3 11 10 9
3 11 4 10
3 12 13 5
3 76 13 77
3 78 77 12
3 76 77 78
3 80 79 13
3 81 14 82
3 83 14 84
3 85 7 86
3 87 86 14
3 85 86 87
3 88 8 89
3 90 15 91
3 92 91 8
3 90 91 92
3 93 15 94
3 96 95 15
3 97 16 98
3 99 98 6
3 97 98 99
3 100 16 101
3 103 102 16
3 105 104 1
3 17 106 108
3 106 18 107
3 106 107 108
3 19 18 17
3 19 109 111
3 111 110 18
3 109 110 111
3 10 19 3
3 20 19 10
3 20 112 114
3 114 113 19
3 112 113 114
3 20 115 116
3 21 117 119
3 119 118 20
3 117 118 119
3 21 120 122
3 120 2 121
3 120 121 122
3 22 23 0
3 24 23 22
3 24 6 23
3 13 24 5
3 25 24 13
3 25 6 24
3 25 123 125
3 125 124 6
3 123 124 125
3 127 126 25
3 129 128 1
3 130 17 131
3 26 132 134
3 132 17 133
3 132 133 134
3 26 3 17
3 135 26 136
3 27 137 139
3 137 26 138
3 137 138 139
3 27 3 26
3 27 9 3
3 28 9 27
3 28 0 9
3 140 28 141
3 29 142 144
3 142 28 143
3 142 143 144
3 29 0 28
3 29 22 0
3 30 22 29
3 30 5 22
3 14 145 147
3 145 30 146
3 145 146 147
3 31 30 14
3 31 5 30
3 31 12 5
3 32 12 31
3 32 1 12
3 148 7 149
3 33 150 151
3 33 152 154
3 152 7 153
3 152 153 154
3 33 32 7
3 34 32 33
3 34 1 32
3 34 155 157
3 157 156 1
3 155 156 157
3 35 158 160
3 160 159 34
3 158 159 160
3 35 161 162
3 15 35 8
3 163 35 164
3 165 164 15
3 163 164 165
3 167 166 35
3 18 168 169
3 171 170 18
3 23 11 0
3 36 11 23
3 36 4 11
3 16 36 6
3 37 36 16
3 37 4 36
3 37 21 4
3 172 21 173
3 174 173 37
3 172 173 174
3 175 2 176
3 177 176 21
3 175 176 177
3 178 2 179
3 181 180 2
