ply
format ascii 1.0
element vertex 230
property float x
property float y
property float z
element face 185
property list uchar int vertex_index
end_header
31.912252 -22.031469 -32.942757
29.951731 -32.260002 -28.152838
30.998991 -12.478386 -39.48703
29.641605 -7.73316 -44.161057
28.642673 -8.074938 -47.171738
30.018667 -23.115814 -35.582687
31.180847 -27.25001 -30.71847
29.339888 -28.460693 -32.806541
30.582212 -17.773794 -37.8703
28.566042 -13.796758 -44.875725
28.196545 -37.094933 -25.419287
29.695784 -25.787832 -34.246925
30.050404 -12.79372 -41.201561
30.814774 -15.116145 -38.777107
29.814451 -15.462042 -40.31633
29.58502 -18.160269 -39.242592
28.903116 -5.558352 -49.249672
28.856693 -8.431789 -48.231255
30.63018 -29.782925 -29.467691
29.141823 -34.690376 -26.795767
30.274876 -10.162428 -41.864784
29.391041 -10.369 -43.552032
28.827915 -5.320884 -47.95414
31.033077 -22.618608 -34.329231
31.607218 -24.662975 -31.883966
30.662365 -25.246971 -33.139778
30.215191 -27.84901 -31.847475
29.687132 -30.424648 -30.470613
29.070435 -32.983219 -29.027796
31.675632 -14.659821 -37.063431
31.544788 -17.314459 -36.316391
31.328236 -19.970936 -35.395874
30.314386 -20.442965 -36.797127
28.549948 -10.901971 -46.133018
28.928963 -11.382061 -46.973045
27.111736 -39.50478 -24.0464
28.35375 -35.544121 -27.539541
29.48847 -14.260092 -41.506138
29.932427 -14.127881 -40.758945
29.606447 -12.925931 -41.948753
29.395774 -15.6278 -40.972557
29.48847 -14.260092 -41.506138
29.216563 -5.775035 -49.734623
29.218152 -4.318621 -50.229
32.060248 -22.982447 -31.754718
32.128405 -21.646771 -32.224618
30.396256 -31.910046 -27.64615
30.735481 -30.671507 -28.303577
30.290955 -31.021463 -28.810264
29.99967 -33.098934 -27.014768
30.396256 -31.910046 -27.64615
29.546777 -33.475189 -27.474303
29.594716 -34.314121 -26.336233
29.99967 -33.098934 -27.014768
29.95824 -8.947794 -43.01292
30.371204 -8.868698 -42.06749
30.054568 -7.654064 -43.215626
29.298407 -7.80037 -44.983788
29.173126 -9.11829 -44.679276
29.516323 -9.05108 -43.856544
28.957605 -3.985385 -48.197319
29.022483 -5.269181 -47.155323
28.941854 -4.04445 -48.970131
28.957605 -3.985385 -48.197319
29.139322 -29.802518 -32.042163
29.312943 -30.784495 -30.874198
29.51351 -29.44267 -31.638577
31.337311 -13.569104 -38.27523
31.693219 -13.337501 -37.335148
31.354899 -12.246783 -38.546948
29.479222 -19.521373 -38.625244
29.217202 -18.365302 -39.811798
28.631667 -15.277624 -44.153408
28.559976 -14.998935 -43.775738
28.845743 -14.10273 -45.194325
28.911368 -15.583596 -44.472008
28.631667 -15.277624 -44.153408
28.596311 -9.488454 -46.652378
28.646918 -10.744164 -45.55904
28.693281 -9.330647 -46.0784
29.288429 -10.184975 -47.968872
28.892828 -9.906925 -47.60215
29.252294 -8.709839 -48.597977
29.409102 -11.724821 -47.231209
29.288429 -10.184975 -47.968872
31.548679 -26.90027 -30.114002
31.761865 -25.606752 -30.696751
31.394033 -25.956492 -31.301218
28.073056 -37.791748 -24.371502
28.639663 -36.667301 -25.007862
27.654141 -38.299856 -24.732844
27.530652 -38.996672 -23.685058
28.073056 -37.791748 -24.371502
28.413702 -34.700732 -28.609274
28.712093 -34.26367 -28.283668
28.772044 -33.420281 -29.353401
29.766985 -6.445948 -44.323761
30.054568 -7.654064 -43.215626
29.429328 -6.475319 -45.258781
29.766985 -6.445948 -44.323761
29.438879 -24.706971 -35.440124
29.857225 -24.451823 -34.914806
29.60032 -23.370962 -36.108006
29.349614 -26.091091 -34.691093
29.438879 -24.706971 -35.440124
29.171665 -27.427521 -33.970901
29.517836 -27.124263 -33.526733
29.349614 -26.091091 -34.691093
29.080576 -28.82925 -33.167511
29.171665 -27.427521 -33.970901
29.281059 -16.976914 -40.435688
29.699735 -16.811155 -39.779461
29.395774 -15.6278 -40.972557
29.217202 -18.365302 -39.811798
29.281059 -16.976914 -40.435688
28.58535 -13.581285 -44.402977
28.559976 -14.998935 -43.775738
29.193351 -7.211754 -49.225414
28.879905 -6.995071 -48.740463
29.216563 -5.775035 -49.734623
29.252294 -8.709839 -48.597977
29.193351 -7.211754 -49.225414
31.046391 -29.439823 -28.913297
31.321725 -28.173366 -29.538687
30.905513 -28.516467 -30.09308
31.046391 -29.439823 -28.913297
30.735481 -30.671507 -28.303577
29.112302 -35.465023 -25.696102
29.594716 -34.314121 -26.336233
28.669184 -35.892654 -26.107527
28.639663 -36.667301 -25.007862
29.112302 -35.465023 -25.696102
31.058886 -11.172885 -39.726745
31.354899 -12.246783 -38.546948
30.696828 -10.014906 -40.915622
30.371204 -8.868698 -42.06749
30.636933 -11.320407 -40.675907
31.058886 -11.172885 -39.726745
30.696828 -10.014906 -40.915622
29.276765 -11.713571 -43.123989
29.606447 -12.925931 -41.948753
29.720723 -11.58136 -42.376796
29.067465 -10.477678 -44.268547
29.276765 -11.713571 -43.123989
29.067465 -10.477678 -44.268547
29.173126 -9.11829 -44.679276
28.798941 -7.971259 -46.489128
28.693281 -9.330647 -46.0784
29.086131 -6.542529 -46.081513
29.298407 -7.80037 -44.983788
29.429328 -6.475319 -45.258781
28.891562 -6.594232 -46.88033
29.086131 -6.542529 -46.081513
29.022483 -5.269181 -47.155323
28.735294 -6.697911 -47.562939
28.798941 -7.971259 -46.489128
28.891562 -6.594232 -46.88033
28.979454 -4.163184 -49.617897
28.865516 -5.439618 -48.601906
28.941854 -4.04445 -48.970131
29.218152 -4.318621 -50.229
28.979454 -4.163184 -49.617897
29.004595 -32.063781 -30.15279
29.378783 -31.703933 -29.749204
29.312943 -30.784495 -30.874198
28.772044 -33.420281 -29.353401
29.004595 -32.063781 -30.15279
29.139322 -29.802518 -32.042163
29.080576 -28.82925 -33.167511
32.004912 -20.700294 -33.407432
32.128405 -21.646771 -32.224618
31.890144 -14.331501 -36.15311
31.693219 -13.337501 -37.335148
31.919132 -15.67468 -35.85543
31.890144 -14.331501 -36.15311
31.85371 -17.001999 -35.48191
31.919132 -15.67468 -35.85543
31.61021 -15.98714 -36.689911
31.82118 -18.341789 -35.09425
31.85371 -17.001999 -35.48191
31.712904 -19.670028 -34.633991
31.82118 -18.341789 -35.09425
31.436512 -18.642697 -35.856133
31.620244 -21.001202 -34.169315
32.004912 -20.700294 -33.407432
31.712904 -19.670028 -34.633991
29.843905 -20.662721 -37.402512
29.949703 -19.301617 -38.01986
29.479222 -19.521373 -38.625244
29.696045 -21.999146 -36.795292
30.166526 -21.77939 -36.189907
29.843905 -20.662721 -37.402512
29.60032 -23.370962 -36.108006
29.696045 -21.999146 -36.795292
28.577303 -12.133892 -45.031623
28.646918 -10.744164 -45.55904
28.557995 -12.349365 -45.504372
28.58535 -13.581285 -44.402977
28.577303 -12.133892 -45.031623
29.027203 -12.895382 -46.242984
28.845743 -14.10273 -45.194325
28.747502 -12.58941 -45.924385
29.027203 -12.895382 -46.242984
29.409102 -11.724821 -47.231209
31.907731 -24.298201 -31.225323
32.060248 -22.982447 -31.754718
31.759735 -23.347222 -32.413362
31.907731 -24.298201 -31.225323
31.761865 -25.606752 -30.696751
31.548679 -26.90027 -30.114002
31.321725 -28.173366 -29.538687
26.883435 -40.112169 -23.063511
27.302351 -39.604062 -22.70217
27.530652 -38.996672 -23.685058
26.497664 -40.731093 -23.372261
26.883435 -40.112169 -23.063511
28.136499 -36.084621 -27.786064
28.413702 -34.700732 -28.609274
27.937841 -36.839664 -26.784235
28.136499 -36.084621 -27.786064
27.859238 -37.615071 -25.724108
28.275148 -36.319527 -26.479414
27.937841 -36.839664 -26.784235
27.316834 -38.819994 -25.037664
27.654141 -38.299856 -24.732844
27.859238 -37.615071 -25.724108
26.834184 -40.14691 -24.283563
27.316834 -38.819994 -25.037664
26.497664 -40.731093 -23.372261
26.834184 -40.14691 -24.283563
3 37 14 38
3 39 38 12
3 37 38 39
3 41 40 14
3 43 42 16
3 0 44 45
3 1 46 48
3 48 47 18
3 46 47 48
3 1 49 50
3 1 51 53
3 51 19 52
3 51 52 53
3 3 54 56
3 54 20 55
3 54 55 56
3 3 21 20
3 3 57 59
3 59 58 21
3 57 58 59
3 60 22 61
3 63 62 22
3 5 25 23
3 7 26 11
3 7 27 26
3 7 64 66
3 66 65 27
3 64 65 66
3 2 67 69
3 67 29 68
3 67 68 69
3 8 30 13
3 8 31 30
3 8 32 31
3 71 70 15
3 9 72 73
3 9 74 76
3 74 75 76
3 4 77 79
3 77 33 78
3 77 78 79
3 80 34 81
3 82 81 17
3 80 81 82
3 84 83 34
3 6 85 87
3 87 86 24
3 85 86 87
3 10 88 89
3 10 90 92
3 90 35 91
3 90 91 92
3 93 36 94
3 95 94 28
3 93 94 95
3 96 3 97
3 99 98 3
3 100 11 101
3 102 101 5
3 100 101 102
3 103 11 104
3 105 7 106
3 107 106 11
3 105 106 107
3 109 108 7
3 12 13 2
3 14 13 12
3 14 8 13
3 14 15 8
3 110 15 111
3 112 111 14
3 110 111 112
3 114 113 15
3 115 9 116
3 16 17 4
3 117 17 118
3 119 118 16
3 117 118 119
3 121 120 17
3 18 122 124
3 124 123 6
3 122 123 124
3 126 125 18
3 19 127 128
3 19 129 131
3 129 10 130
3 129 130 131
3 132 2 133
3 20 134 135
3 20 136 138
3 136 2 137
3 136 137 138
3 20 12 2
3 21 12 20
3 21 139 141
3 141 140 12
3 139 140 141
3 21 142 143
3 145 144 21
3 146 4 147
3 150 149 3
3 148 149 150
3 22 151 153
3 151 152 153
3 22 154 156
3 154 4 155
3 154 155 156
3 22 16 4
3 157 16 158
3 159 158 22
3 157 158 159
3 161 160 16
3 23 24 0
3 25 24 23
3 25 6 24
3 11 25 5
3 26 25 11
3 26 6 25
3 26 18 6
3 27 18 26
3 27 1 18
3 27 28 1
3 162 28 163
3 164 163 27
3 162 163 164
3 166 165 28
3 168 167 7
3 169 0 170
3 29 171 172
3 29 173 174
3 13 29 2
3 30 29 13
3 30 175 177
3 177 176 29
3 175 176 177
3 30 178 179
3 31 180 182
3 182 181 30
3 180 181 182
3 31 183 185
3 183 0 184
3 183 184 185
3 31 23 0
3 32 23 31
3 32 5 23
3 15 32 8
3 186 32 187
3 188 187 15
3 186 187 188
3 189 5 190
3 191 190 32
3 189 190 191
3 193 192 5
3 33 194 195
3 33 196 198
3 196 9 197
3 196 197 198
3 17 33 4
3 34 33 17
3 34 9 33
3 34 199 201
3 201 200 9
3 199 200 201
3 203 202 34
3 24 204 206
3 206 205 0
3 204 205 206
3 208 207 24
3 210 209 6
3 35 211 213
3 211 212 213
3 35 214 215
3 28 19 1
3 36 19 28
3 36 10 19
3 216 36 217
3 218 36 219
3 220 10 221
3 222 221 36
3 220 221 222
3 223 35 224
3 225 224 10
3 223 224 225
3 226 35 227
3 229 228 35
