ply
format ascii 1.0
element vertex 296
property float x
property float y
property float z
element face 292
property list uchar int vertex_index
end_header
-9.189144 68.571259 43.400539
-14.840504 39.044949 62.182808
-27.514675 35.245281 53.928715
-19.240301 43.12989 52.385033
-16.564098 57.416904 44.157555
-11.650793 54.309956 53.778416
-31.88426 32.792587 55.597324
-24.593311 31.836151 56.890957
-17.052246 41.170166 57.145611
-15.469443 48.636868 53.042202
-13.332783 46.703075 58.169682
-9.361767 51.769917 58.703606
-11.020981 44.021069 63.139236
-12.389486 69.593185 38.839821
-30.516312 39.011921 51.037827
-23.230927 38.5662 52.623245
-20.715305 36.001476 56.505543
-12.900764 63.154705 44.149017
-17.729748 50.364147 48.27256
-13.97278 56.064701 48.771648
-10.173504 61.68713 48.935581
-7.711739 59.284672 53.717983
-7.735647 67.641724 45.723068
-15.966969 40.170383 59.660179
-15.219249 43.943062 57.666035
-14.130853 42.874306 60.22797
-12.210562 45.488239 60.700447
-12.980932 41.610218 62.743214
-29.709476 33.955494 54.786083
-31.232452 35.934303 53.364609
-29.002588 37.124165 52.500683
-28.245138 40.255928 50.172966
-26.768944 38.472775 51.643921
-24.57513 40.072742 50.926842
-25.34374 36.758926 53.168625
-22.618858 33.771919 56.556789
-14.380195 63.62244 41.874489
-14.732889 60.27383 44.20005
-20.41683 44.219082 50.250393
-19.666733 47.752224 48.181389
-18.462198 46.748142 50.318314
-13.580517 51.508564 53.459827
-14.685382 52.372295 50.932686
-12.791397 55.257572 51.25293
-12.085489 58.940456 48.950336
-10.864468 58.042744 51.426556
-8.916868 60.622952 51.355907
-9.682203 56.934078 53.892632
-8.175152 50.077419 61.00156
-7.346722 53.894924 58.56588
-26.045979 33.463245 55.376587
-18.130398 42.130783 54.699787
-17.343182 45.807606 52.644558
-16.276241 44.894199 55.115429
-14.406911 47.728062 55.595318
-12.489809 50.521183 56.020428
-10.516706 53.16608 56.28167
-11.375002 49.344379 58.546688
-10.210815 47.917217 60.983646
-8.99283 46.19614 63.2953
-10.747564 69.212982 41.092743
-33.40593 34.79425 54.095306
-22.452724 41.983284 50.447624
-21.196209 40.695854 52.360172
-23.962698 35.182251 54.796532
-21.949106 37.209682 54.481735
-20.010223 39.54174 54.460712
-18.870214 38.491096 56.724365
-17.745728 37.478085 59.105507
-12.574835 66.472351 41.59832
-11.049761 65.954468 43.907417
-17.087086 53.935635 46.231789
-16.563972 49.498753 50.581085
-15.844123 53.16901 48.506454
-15.224787 56.77557 46.394001
-13.369875 59.672771 46.525284
-11.497942 62.518772 46.51532
-9.609329 65.208069 46.270706
-8.259144 64.202774 48.642014
-6.994829 62.903728 50.966808
-8.514334 55.565403 56.288403
-6.544964 57.634602 55.970554
-8.273958 69.739922 42.990652
-9.052622 70.158379 41.853241
-8.462395 68.106492 44.561803
-7.54721 69.275154 44.151916
-8.273958 69.739922 42.990652
-16.369511 59.090839 43.078377
-17.277585 57.708286 43.11307
-15.648494 58.845367 44.178803
-15.453906 60.519302 43.099624
-16.369511 59.090839 43.078377
-7.178623 50.987572 60.847834
-7.571079 49.071457 62.076311
-11.487945 70.929009 38.446568
-12.362214 71.041709 37.349869
-11.568525 69.403084 39.966282
-10.666984 70.738907 39.573028
-11.487945 70.929009 38.446568
-32.645095 33.793419 54.846315
-33.697329 33.222368 55.158414
-32.936494 32.221536 55.909424
-31.634362 38.430965 51.430071
-31.992432 36.892156 52.593462
-30.874382 37.473112 52.201218
-31.289813 39.912232 50.261692
-31.634362 38.430965 51.430071
-30.147665 40.515894 49.865458
-30.921166 41.416204 49.089323
-31.289813 39.912232 50.261692
-27.865296 41.798334 49.019911
-27.118198 40.972021 49.766772
-18.029637 35.648367 60.029393
-18.628101 36.187413 58.889871
-18.912011 34.357695 59.813757
-17.176011 36.947094 60.328285
-18.029637 35.648367 60.029393
-18.361401 50.810142 47.21164
-19.329893 49.504181 47.166054
-18.698241 49.058186 48.226974
-17.408417 52.149891 47.252174
-18.04007 52.595886 46.191254
-18.361401 50.810142 47.21164
-6.76015 60.281353 53.455373
-6.401695 62.090881 52.079786
-7.353284 61.0942 52.342395
-5.979543 56.641388 57.023615
-6.945843 55.764763 57.268217
-6.380422 54.771549 58.321278
-5.620612 58.46883 55.62445
-5.979543 56.641388 57.023615
-6.836429 68.685158 45.277067
-7.54721 69.275154 44.151916
-7.066056 67.018288 46.866598
-6.836429 68.685158 45.277067
-13.235791 69.664093 37.753689
-12.362214 71.041709 37.349869
-26.380102 40.080444 50.502249
-27.118198 40.972021 49.766772
-27.507041 39.364351 50.908444
-25.672037 39.272758 51.285381
-25.283195 40.880428 50.143709
-26.380102 40.080444 50.502249
-22.887919 32.075164 57.531566
-23.606085 32.804035 56.723873
-23.875146 31.107281 57.69865
-21.96156 33.141498 57.507301
-22.887919 32.075164 57.531566
-21.009784 34.256277 57.481678
-21.667082 34.886697 56.531166
-21.96156 33.141498 57.507301
-20.11289 35.449108 57.589889
-21.009784 34.256277 57.481678
-15.277559 62.193607 41.936844
-15.150245 63.782264 40.790571
-14.556542 61.948135 43.037269
-15.277559 62.193607 41.936844
-15.453906 60.519302 43.099624
-20.041781 45.985653 49.215891
-20.675673 46.582771 48.249168
-21.050721 44.816201 49.28367
-6.764407 52.896324 59.629993
-7.760937 51.986171 59.78372
-7.178623 50.987572 60.847834
-6.380422 54.771549 58.321278
-6.764407 52.896324 59.629993
-32.159402 31.192093 56.616917
-32.936494 32.221536 55.909424
-31.102085 31.773029 56.266474
-32.159402 31.192093 56.616917
-30.014693 32.354483 55.860853
-30.796868 33.37404 55.191704
-31.102085 31.773029 56.266474
-28.942992 32.98386 55.459726
-30.014693 32.354483 55.860853
-27.845591 33.628754 55.031042
-28.612075 34.600387 54.357399
-28.942992 32.98386 55.459726
-27.111244 32.737735 55.754978
-26.780327 34.354263 54.652651
-27.845591 33.628754 55.031042
-26.338743 31.824328 56.417412
-27.111244 32.737735 55.754978
-25.612409 31.010781 57.174597
-25.319645 32.649698 56.133772
-26.338743 31.824328 56.417412
-24.836422 30.177807 57.851757
-25.612409 31.010781 57.174597
-24.118257 29.448936 58.65945
-23.875146 31.107281 57.69865
-24.836422 30.177807 57.851757
-17.49649 56.051586 44.143166
-17.277585 57.708286 43.11307
-7.979919 47.130817 63.223181
-7.571079 49.071457 62.076311
-8.583991 48.13678 62.14843
-9.831832 70.479241 40.699343
-10.666984 70.738907 39.573028
-9.968354 68.892121 42.246641
-9.052622 70.158379 41.853241
-9.831832 70.479241 40.699343
-34.434781 34.195704 54.333005
-33.697329 33.222368 55.158414
-34.148587 35.726913 53.248798
-34.434781 34.195704 54.333005
-33.079171 36.32213 52.95881
-32.319191 35.364277 53.729957
-31.992432 36.892156 52.593462
-34.148587 35.726913 53.248798
-33.079171 36.32213 52.95881
-29.012078 41.137897 49.433028
-30.147665 40.515894 49.865458
-29.380725 39.633924 50.605396
-28.632237 42.680303 48.279972
-29.012078 41.137897 49.433028
-27.865296 41.798334 49.019911
-24.185346 41.732359 49.821772
-25.283195 40.880428 50.143709
-23.124142 42.687629 49.582163
-24.185346 41.732359 49.821772
-23.513927 41.028013 50.687233
-22.068668 43.698301 49.382286
-23.124142 42.687629 49.582163
-21.434777 43.101183 50.349008
-21.050721 44.816201 49.28367
-22.068668 43.698301 49.382286
-19.190345 36.693918 57.6993
-19.79276 37.246286 56.614954
-20.11289 35.449108 57.589889
-18.307971 37.98459 57.914936
-19.190345 36.693918 57.6993
-18.628101 36.187413 58.889871
-16.286631 38.293243 60.605621
-16.856348 38.824234 59.382843
-17.176011 36.947094 60.328285
-15.723399 37.730526 61.866936
-15.403737 39.607666 60.921493
-16.286631 38.293243 60.605621
-13.277707 68.189583 39.1064
-13.235791 69.664093 37.753689
-14.124012 68.260491 38.020268
-14.273062 65.20421 40.623734
-15.150245 63.782264 40.790571
-13.370382 66.629165 40.485649
-14.273062 65.20421 40.623734
-13.477515 65.047395 41.736404
-12.48216 68.032768 40.219071
-13.277707 68.189583 39.1064
-13.370382 66.629165 40.485649
-20.321499 48.28754 47.21299
-21.330438 47.118088 47.280769
-20.675673 46.582771 48.249168
-20.321499 48.28754 47.21299
-19.329893 49.504181 47.166054
-17.757984 54.310952 45.180283
-18.04007 52.595886 46.191254
-16.825592 55.67627 45.194672
-17.49649 56.051586 44.143166
-17.757984 54.310952 45.180283
-7.327804 65.298813 48.326071
-7.066056 67.018288 46.866598
-7.997395 65.922249 47.182541
-6.695647 64.64929 49.488468
-7.327804 65.298813 48.326071
-7.626986 63.553251 49.804411
-6.083614 63.853048 50.58842
-6.695647 64.64929 49.488468
-6.083614 63.853048 50.58842
-6.401695 62.090881 52.079786
-6.176763 59.456318 54.581659
-6.76015 60.281353 53.455373
-7.128351 58.459637 54.844268
-6.176763 59.456318 54.581659
-5.620612 58.46883 55.62445
-15.134366 37.131098 63.097324
-15.723399 37.730526 61.866936
-14.246144 38.380882 63.423755
-15.134366 37.131098 63.097324
-13.316358 39.663517 63.703958
-13.910718 40.327584 62.463011
-14.246144 38.380882 63.423755
-12.36958 40.850479 63.957148
-13.316358 39.663517 63.703958
-11.389605 42.055904 64.155159
-12.000957 42.815644 62.941225
-12.36958 40.850479 63.957148
-10.394082 43.141386 64.297981
-11.389605 42.055904 64.155159
-9.380007 44.228921 64.376013
-10.006906 45.108604 63.217268
-10.394082 43.141386 64.297981
-8.365902 45.17921 64.379096
-9.380007 44.228921 64.376013
-8.753078 43.211992 65.459809
-7.979919 47.130817 63.223181
-8.365902 45.17921 64.379096
3 0 82 83
3 0 84 86
3 84 22 85
3 84 85 86
3 1 25 23
3 1 27 25
3 2 30 28
3 2 32 30
3 2 34 32
3 4 87 88
3 4 89 91
3 89 37 90
3 89 90 91
3 3 40 38
3 5 43 41
3 5 45 43
3 5 47 45
3 93 92 48
3 8 53 51
3 10 54 24
3 10 55 54
3 10 57 55
3 12 58 26
3 12 59 58
3 13 94 95
3 13 96 98
3 96 60 97
3 96 97 98
3 6 99 101
3 99 61 100
3 99 100 101
3 14 102 104
3 104 103 29
3 102 103 104
3 14 105 106
3 14 107 109
3 107 108 109
3 111 110 31
3 15 62 33
3 15 63 62
3 7 64 50
3 16 65 35
3 16 66 65
3 16 67 66
3 112 68 113
3 112 113 114
3 116 115 68
3 17 69 36
3 17 70 69
3 18 117 119
3 119 118 39
3 117 118 119
3 18 120 122
3 120 71 121
3 120 121 122
3 9 72 52
3 19 73 42
3 19 74 73
3 19 75 74
3 20 76 44
3 20 77 76
3 20 78 77
3 21 79 46
3 21 123 125
3 125 124 79
3 123 124 125
3 11 80 56
3 126 81 127
3 128 127 49
3 126 127 128
3 130 129 81
3 22 131 132
3 22 133 134
3 23 24 8
3 25 24 23
3 25 10 24
3 25 26 10
3 27 26 25
3 27 12 26
3 135 13 136
3 28 29 6
3 30 29 28
3 30 14 29
3 30 31 14
3 32 31 30
3 32 137 139
3 139 138 31
3 137 138 139
3 32 140 142
3 140 33 141
3 140 141 142
3 34 33 32
3 34 15 33
3 143 35 144
3 145 144 7
3 143 144 145
3 146 35 147
3 148 16 149
3 150 149 35
3 148 149 150
3 152 151 16
3 153 36 154
3 37 155 157
3 155 36 156
3 155 156 157
3 37 17 36
3 38 158 160
3 158 39 159
3 158 159 160
3 40 39 38
3 40 18 39
3 41 42 9
3 43 42 41
3 43 19 42
3 43 44 19
3 45 44 43
3 45 20 44
3 45 46 20
3 47 46 45
3 47 21 46
3 48 49 11
3 161 49 162
3 163 162 48
3 161 162 163
3 165 164 49
3 166 6 167
3 168 6 169
3 170 28 171
3 172 171 6
3 170 171 172
3 173 28 174
3 175 2 176
3 177 176 28
3 175 176 177
3 178 50 179
3 180 179 2
3 178 179 180
3 181 50 182
3 183 7 184
3 185 184 50
3 183 184 185
3 186 7 187
3 190 189 7
3 188 189 190
3 191 4 192
3 51 52 3
3 53 52 51
3 53 9 52
3 24 53 8
3 54 53 24
3 54 9 53
3 54 41 9
3 55 41 54
3 55 5 41
3 55 56 5
3 57 56 55
3 57 11 56
3 26 57 10
3 58 57 26
3 58 11 57
3 58 48 11
3 59 48 58
3 59 193 195
3 195 194 48
3 193 194 195
3 60 196 197
3 60 198 200
3 198 0 199
3 198 199 200
3 61 201 202
3 61 203 204
3 29 61 6
3 205 61 206
3 207 206 29
3 205 206 207
3 209 208 61
3 31 210 212
3 212 211 14
3 210 211 212
3 215 214 31
3 213 214 215
3 33 216 217
3 62 218 220
3 220 219 33
3 218 219 220
3 62 221 222
3 62 223 225
3 223 38 224
3 223 224 225
3 63 38 62
3 63 3 38
3 50 34 2
3 64 34 50
3 64 15 34
3 35 64 7
3 65 64 35
3 65 15 64
3 65 63 15
3 66 63 65
3 66 3 63
3 66 51 3
3 67 51 66
3 67 8 51
3 226 67 227
3 228 227 16
3 226 227 228
3 68 229 231
3 229 67 230
3 229 230 231
3 68 8 67
3 68 23 8
3 232 23 233
3 234 233 68
3 232 233 234
3 235 1 236
3 237 236 23
3 235 236 237
3 238 13 239
3 238 239 240
3 36 241 242
3 69 243 245
3 245 244 36
3 243 244 245
3 69 246 248
3 246 13 247
3 246 247 248
3 69 60 13
3 70 60 69
3 70 0 60
3 39 249 251
3 249 250 251
3 253 252 39
3 71 254 255
3 71 256 258
3 256 4 257
3 256 257 258
3 52 40 3
3 72 40 52
3 72 18 40
3 42 72 9
3 73 72 42
3 73 18 72
3 73 71 18
3 74 71 73
3 74 4 71
3 74 37 4
3 75 37 74
3 75 17 37
3 44 75 19
3 76 75 44
3 76 17 75
3 76 70 17
3 77 70 76
3 77 0 70
3 77 22 0
3 78 22 77
3 78 259 261
3 261 260 22
3 259 260 261
3 46 78 20
3 79 78 46
3 79 262 264
3 264 263 78
3 262 263 264
3 79 265 266
3 268 267 79
3 56 47 5
3 80 47 56
3 80 21 47
3 49 80 11
3 81 80 49
3 81 21 80
3 81 269 271
3 271 270 21
3 269 270 271
3 273 272 81
3 274 1 275
3 276 1 277
3 278 27 279
3 280 279 1
3 278 279 280
3 281 27 282
3 283 12 284
3 285 284 27
3 283 284 285
3 286 12 287
3 288 59 289
3 290 289 12
3 288 289 290
3 291 59 292
3 291 292 293
3 295 294 59
