ply
format ascii 1.0
element vertex 257
property float x
property float y
property float z
element face 247
property list uchar int vertex_index
end_header
-23.661964 -83.095268 -19.847324
-30.947779 -84.855484 -24.225933
-31.975267 -68.749191 -26.407295
-27.735226 -65.971985 -21.750072
-35.521255 -83.761017 -26.091106
-35.563919 -76.195786 -27.249119
-25.840214 -74.557419 -20.540146
-35.33242 -60.499786 -30.279285
-32.60841 -60.476326 -28.025295
-35.541592 -52.555443 -32.039616
-26.914326 -84.654984 -21.947292
-28.271656 -76.348091 -22.728172
-31.487801 -76.922028 -25.116806
-35.39999 -68.411499 -28.653664
-29.585985 -67.878853 -23.967854
-22.531403 -87.29599 -19.681011
-22.269411 -81.904335 -18.921143
-23.54583 -77.620796 -19.190681
-24.7714 -78.841446 -20.13303
-37.044262 -56.253963 -32.103672
-35.405304 -56.521881 -31.148338
-37.040043 -52.366821 -32.9842
-37.082932 -48.500145 -33.867153
-26.202156 -88.68985 -21.741814
-28.836048 -84.93277 -23.091259
-29.311392 -80.904709 -23.446751
-31.2388 -80.928047 -24.619358
-37.633526 -71.663116 -28.765442
-35.490253 -72.323715 -27.920422
-37.44833 -67.844963 -29.553864
-37.263779 -64.001968 -30.378166
-25.834839 -69.015579 -20.127132
-24.743008 -67.608414 -19.3223
-30.206568 -72.649048 -24.500435
-28.932865 -72.123535 -23.293667
-30.666424 -68.461472 -25.183609
-31.626623 -60.068386 -26.818398
-37.086765 -40.995979 -35.655682
-32.977104 -88.176712 -24.885605
-33.201229 -84.447495 -25.260361
-33.351509 -80.616325 -25.715496
-35.582485 -80.014923 -26.64019
-24.749123 -73.319321 -19.586964
-26.841208 -70.261642 -21.075207
-33.659161 -64.68309 -28.360817
-32.269176 -64.615685 -27.181255
-33.826305 -60.620663 -29.196156
-34.055344 -56.561008 -30.077408
-34.313087 -52.532291 -30.996403
-35.698082 -48.63253 -32.948689
-37.121433 -44.692604 -34.754379
-24.272194 -88.15863 -20.672649
-25.196093 -84.030197 -20.856441
-26.10239 -79.830215 -21.164139
-27.601736 -80.532532 -22.277302
-29.761152 -76.803146 -23.91848
-31.722721 -72.856873 -25.71537
-33.439999 -76.707626 -26.254837
-33.495552 -72.740128 -26.879086
-33.556412 -68.727821 -27.584175
-35.335758 -64.467407 -29.443424
-37.120129 -60.136654 -31.231541
-26.986876 -75.584007 -21.592793
-27.841333 -71.312576 -22.1404
-28.6457 -67.035187 -22.808613
-31.145773 -64.260193 -25.958565
-30.214369 -63.635048 -24.74762
-29.363037 -62.772846 -23.603561
-22.309059 -84.623219 -19.307482
-21.743779 -86.723579 -19.224325
-23.096684 -85.195629 -19.764167
-22.965688 -82.499802 -19.384234
-21.612783 -84.027752 -18.844391
-22.309059 -84.623219 -19.307482
-37.924175 -52.181233 -33.396271
-37.042153 -54.310392 -32.543936
-37.926285 -54.124803 -32.956007
-37.881969 -50.281624 -33.83556
-37.924175 -52.181233 -33.396271
-29.634557 -86.859108 -23.539629
-30.773646 -86.768044 -24.080272
-29.891914 -84.894127 -23.658596
-28.578692 -86.897751 -22.972292
-29.634557 -86.859108 -23.539629
-38.531551 -67.47179 -29.892126
-37.540928 -69.75404 -29.159653
-38.62415 -69.380867 -29.497915
-38.408034 -65.595968 -30.337559
-38.531551 -67.47179 -29.892126
-27.243102 -65.349732 -21.291164
-26.292908 -66.871529 -20.479694
-26.785032 -67.493782 -20.938602
-28.103371 -63.841063 -22.164822
-27.243102 -65.349732 -21.291164
-36.99839 -39.234058 -36.120114
-37.703247 -39.098698 -36.478361
-34.249179 -85.968864 -25.488356
-34.176105 -87.791764 -25.242199
-35.448181 -85.583916 -25.844949
-37.887324 -44.560739 -35.154821
-37.102182 -46.596375 -34.310766
-37.868073 -46.46451 -34.711208
-37.830837 -42.71731 -35.588377
-37.887324 -44.560739 -35.154821
-38.126452 -59.858343 -31.625475
-37.191954 -62.069311 -30.804854
-38.198276 -61.791 -31.198788
-38.030804 -57.965935 -32.074602
-38.126452 -59.858343 -31.625475
-24.134294 -66.834457 -19.001579
-25.183426 -65.469571 -19.704738
-30.496814 -61.525923 -25.190864
-30.920496 -61.851717 -25.783009
-31.202941 -59.742592 -26.226253
-30.071148 -61.094822 -24.618835
-29.788703 -63.203947 -24.17559
-30.496814 -61.525923 -25.190864
-29.651736 -60.662165 -24.068905
-30.071148 -61.094822 -24.618835
-36.671982 -83.313523 -26.357866
-35.448181 -85.583916 -25.844949
-36.683492 -81.47683 -26.696528
-36.671982 -83.313523 -26.357866
-21.084336 -88.81588 -19.202736
-21.964532 -89.35524 -19.657137
-21.084336 -88.81588 -19.202736
-21.743779 -86.723579 -19.224325
-20.889871 -83.342777 -18.416895
-21.612783 -84.027752 -18.844391
-21.618046 -81.208454 -18.493609
-20.889871 -83.342777 -18.416895
-22.907621 -79.762565 -19.055912
-22.256256 -79.066685 -18.628377
-21.618046 -81.208454 -18.493609
-37.903414 -48.348286 -34.277037
-37.061487 -50.433483 -33.425677
-37.881969 -50.281624 -33.83556
-37.868073 -46.46451 -34.711208
-37.903414 -48.348286 -34.277037
-27.261745 -88.776291 -22.29757
-25.834579 -90.648865 -21.700612
-27.519102 -86.81131 -22.416536
-27.261745 -88.776291 -22.29757
-28.578692 -86.897751 -22.972292
-38.315758 -63.67447 -30.74971
-37.356054 -65.923466 -29.966015
-38.408034 -65.595968 -30.337559
-38.198276 -61.791 -31.198788
-38.315758 -63.67447 -30.74971
-25.288923 -68.311996 -19.724716
-24.18981 -69.759865 -19.034881
-24.735726 -70.463448 -19.437297
-25.746992 -66.167946 -20.077278
-25.288923 -68.311996 -19.724716
-26.292908 -66.871529 -20.479694
-25.183426 -65.469571 -19.704738
-25.746992 -66.167946 -20.077278
-32.297797 -58.212507 -27.874477
-32.117517 -60.272356 -27.421847
-32.788691 -58.416477 -28.477926
-31.845555 -57.99136 -27.289759
-32.297797 -58.212507 -27.874477
-31.202941 -59.742592 -26.226253
-31.845555 -57.99136 -27.289759
-36.440498 -41.044441 -35.251135
-36.447187 -42.895588 -34.767935
-36.440498 -41.044441 -35.251135
-36.99839 -39.234058 -36.120114
-32.831909 -89.976082 -24.735594
-34.030911 -89.591133 -25.092188
-34.176105 -87.791764 -25.242199
-31.586637 -90.276458 -24.312486
-32.831909 -89.976082 -24.735594
-31.788309 -88.428657 -24.410108
-31.586637 -90.276458 -24.312486
-31.900371 -86.564049 -24.597487
-31.788309 -88.428657 -24.410108
-33.089166 -86.312104 -25.072983
-32.074504 -84.651489 -24.743147
-30.773646 -86.768044 -24.080272
-31.900371 -86.564049 -24.597487
-36.714107 -79.603782 -26.971069
-35.55187 -81.88797 -26.365648
-36.683492 -81.47683 -26.696528
-36.679819 -77.732651 -27.327655
-36.714107 -79.603782 -26.971069
-36.670536 -75.823082 -27.63212
-35.573202 -78.105355 -26.944654
-36.679819 -77.732651 -27.327655
-37.70534 -73.556747 -28.390282
-36.598723 -73.929451 -28.007281
-36.670536 -75.823082 -27.63212
-38.734049 -71.249572 -29.058317
-37.70534 -73.556747 -28.390282
-38.62415 -69.380867 -29.497915
-38.734049 -71.249572 -29.058317
-22.952527 -76.919254 -18.764055
-22.256256 -79.066685 -18.628377
-23.554174 -74.768517 -18.962196
-22.952527 -76.919254 -18.764055
-24.147476 -75.470058 -19.388822
-24.192867 -72.615319 -19.167213
-23.554174 -74.768517 -18.962196
-25.291981 -71.16745 -19.857048
-24.735726 -70.463448 -19.437297
-24.192867 -72.615319 -19.167213
-33.512158 -56.458818 -29.503982
-32.788691 -58.416477 -28.477926
-33.331877 -58.518667 -29.051351
-33.641029 -54.44446 -29.96348
-33.512158 -56.458818 -29.503982
-34.184216 -54.54665 -30.536905
-33.80562 -52.410313 -30.445483
-33.641029 -54.44446 -29.96348
-34.425745 -50.551334 -31.474754
-33.80562 -52.410313 -30.445483
-35.118243 -48.601454 -32.450897
-34.425745 -50.551334 -31.474754
-35.005584 -50.582411 -31.972546
-35.752846 -46.713864 -33.414439
-35.118243 -48.601454 -32.450897
-36.464522 -44.743901 -34.317284
-35.752846 -46.713864 -33.414439
-36.409757 -46.662567 -33.851534
-37.104099 -42.844291 -35.20503
-36.447187 -42.895588 -34.767935
-36.464522 -44.743901 -34.317284
-37.813503 -40.868997 -36.039029
-37.104099 -42.844291 -35.20503
-37.830837 -42.71731 -35.588377
-38.429985 -38.971716 -36.861708
-37.703247 -39.098698 -36.478361
-37.813503 -40.868997 -36.039029
-24.770332 -90.4376 -21.177433
-25.834579 -90.648865 -21.700612
-23.805352 -90.171989 -20.642851
-24.770332 -90.4376 -21.177433
-25.237175 -88.42424 -21.207231
-22.834927 -89.78656 -20.152956
-23.805352 -90.171989 -20.642851
-23.401798 -87.72731 -20.17683
-21.964532 -89.35524 -19.657137
-22.834927 -89.78656 -20.152956
-37.992871 -56.02459 -32.510668
-37.082195 -58.195308 -31.667607
-38.030804 -57.965935 -32.074602
-37.926285 -54.124803 -32.956007
-37.992871 -56.02459 -32.510668
-23.596906 -68.9832 -18.679727
-24.18981 -69.759865 -19.034881
-23.596906 -68.9832 -18.679727
-24.134294 -66.834457 -19.001579
-28.917276 -62.241493 -23.091566
-28.103371 -63.841063 -22.164822
-28.549132 -64.372416 -22.676817
-28.917276 -62.241493 -23.091566
-29.651736 -60.662165 -24.068905
3 0 68 70
3 70 69 15
3 68 69 70
3 0 71 73
3 71 16 72
3 71 72 73
3 0 18 16
3 74 21 75
3 76 75 19
3 74 75 76
3 78 77 21
3 1 79 80
3 1 81 83
3 81 24 82
3 81 82 83
3 1 26 24
3 84 29 85
3 86 85 27
3 84 85 86
3 88 87 29
3 3 89 91
3 91 90 31
3 89 90 91
3 3 92 93
3 2 35 33
3 95 94 37
3 4 96 98
3 96 38 97
3 96 97 98
3 4 39 38
3 4 41 39
3 6 42 17
3 6 43 42
3 7 46 44
3 9 47 20
3 9 48 47
3 9 49 48
3 99 50 100
3 101 100 22
3 99 100 101
3 103 102 50
3 10 51 23
3 10 52 51
3 10 54 52
3 12 55 25
3 12 56 55
3 5 57 40
3 13 58 28
3 13 59 58
3 13 60 59
3 104 61 105
3 106 105 30
3 104 105 106
3 108 107 61
3 110 109 32
3 11 62 53
3 14 63 34
3 14 64 63
3 8 65 45
3 111 66 112
3 113 112 36
3 111 112 113
3 114 67 115
3 116 115 66
3 114 115 116
3 118 117 67
3 119 4 120
3 122 121 4
3 15 123 124
3 126 125 15
3 16 127 128
3 16 129 130
3 16 131 133
3 131 17 132
3 131 132 133
3 18 17 16
3 18 6 17
3 19 20 7
3 21 20 19
3 21 9 20
3 21 22 9
3 134 22 135
3 136 135 21
3 134 135 136
3 138 137 22
3 139 23 140
3 24 141 143
3 141 23 142
3 141 142 143
3 24 10 23
3 24 25 10
3 26 25 24
3 26 12 25
3 27 28 5
3 29 28 27
3 29 13 28
3 29 30 13
3 144 30 145
3 146 145 29
3 144 145 146
3 148 147 30
3 31 149 151
3 149 32 150
3 149 150 151
3 152 32 153
3 154 153 31
3 152 153 154
3 156 155 32
3 33 34 11
3 35 34 33
3 35 14 34
3 157 36 158
3 159 158 8
3 157 158 159
3 160 36 161
3 163 162 36
3 37 164 165
3 167 166 37
3 38 168 170
3 168 169 170
3 38 171 172
3 38 173 174
3 39 175 177
3 177 176 38
3 175 176 177
3 39 178 180
3 178 1 179
3 178 179 180
3 39 40 1
3 41 40 39
3 41 5 40
3 181 41 182
3 183 182 4
3 181 182 183
3 184 41 185
3 186 5 187
3 188 187 41
3 186 187 188
3 189 27 190
3 191 190 5
3 189 190 191
3 192 27 193
3 195 194 27
3 17 196 197
3 42 198 200
3 200 199 17
3 198 199 200
3 42 201 202
3 42 203 205
3 203 31 204
3 203 204 205
3 43 31 42
3 43 3 31
3 44 45 2
3 46 45 44
3 46 8 45
3 20 46 7
3 47 46 20
3 47 8 46
3 47 206 208
3 208 207 8
3 206 207 208
3 48 209 211
3 211 210 47
3 209 210 211
3 48 212 213
3 48 214 215
3 49 216 218
3 218 217 48
3 216 217 218
3 49 219 220
3 22 49 9
3 50 49 22
3 50 221 223
3 223 222 49
3 221 222 223
3 50 224 226
3 224 37 225
3 224 225 226
3 227 37 228
3 229 228 50
3 227 228 229
3 232 231 37
3 230 231 232
3 23 233 234
3 51 235 237
3 237 236 23
3 235 236 237
3 51 238 239
3 51 240 242
3 240 15 241
3 240 241 242
3 52 15 51
3 52 0 15
3 52 53 0
3 54 53 52
3 54 11 53
3 25 54 10
3 55 54 25
3 55 11 54
3 55 33 11
3 56 33 55
3 56 2 33
3 40 26 1
3 57 26 40
3 57 12 26
3 28 57 5
3 58 57 28
3 58 12 57
3 58 56 12
3 59 56 58
3 59 2 56
3 59 44 2
3 60 44 59
3 60 7 44
3 30 60 13
3 61 60 30
3 61 7 60
3 61 19 7
3 243 19 244
3 245 244 61
3 243 244 245
3 247 246 19
3 32 248 249
3 251 250 32
3 53 18 0
3 62 18 53
3 62 6 18
3 34 62 11
3 63 62 34
3 63 6 62
3 63 43 6
3 64 43 63
3 64 3 43
3 45 35 2
3 65 35 45
3 65 14 35
3 36 65 8
3 66 65 36
3 66 14 65
3 66 64 14
3 67 64 66
3 67 3 64
3 67 252 254
3 254 253 3
3 252 253 254
3 256 255 67
