ply
format ascii 1.0
element vertex 154
property float x
property float y
property float z
element face 138
property list uchar int vertex_index
end_header
49.639908 -82.752548 33.361591
52.550217 -74.340355 22.091156
51.082626 -79.691376 38.370743
48.384796 -84.248131 38.862526
53.623352 -72.328751 26.94573
52.202835 -76.34639 27.400673
51.87624 -78.222534 32.870422
50.31958 -80.670876 27.807423
51.725426 -76.307404 22.232433
49.015366 -82.427124 41.312263
52.970581 -74.311111 27.17915
52.916382 -75.224884 29.861725
50.373756 -81.276367 35.91851
51.557056 -79.024391 35.632286
50.80909 -80.445404 33.139805
51.106747 -79.493011 30.364262
50.036831 -81.762436 30.575855
53.243156 -72.42659 21.948729
49.77755 -81.948494 38.661629
49.09346 -83.595642 36.138271
53.656654 -71.434052 24.344826
53.05439 -73.36972 24.539715
52.335159 -75.342979 24.722387
51.491417 -77.384315 24.90152
52.271454 -77.49556 38.030602
52.618275 -76.846619 35.31221
52.819038 -76.080322 32.578651
52.073555 -77.318192 30.119989
51.312057 -78.45903 27.614357
50.547096 -79.524048 25.070063
47.75462 -85.957268 36.240921
48.407028 -85.132446 33.49255
48.90313 -84.126945 30.71839
49.267349 -82.993294 27.94968
51.440811 -76.771042 20.975614
51.261291 -77.33677 22.3019
53.278473 -74.616272 31.066183
53.279105 -74.210022 29.725996
52.73703 -73.850853 20.802451
53.0835 -72.89397 20.731237
52.896687 -73.383473 22.019942
53.910313 -71.353596 26.815033
54.240267 -70.795349 27.988612
53.953306 -71.770504 28.119309
53.640003 -71.881401 25.645278
53.926963 -70.906246 25.514581
53.910313 -71.353596 26.815033
51.67704 -78.593468 38.200672
52.012543 -77.748768 39.357634
51.418129 -78.846676 39.527704
47.452414 -86.754551 34.859312
47.075156 -87.135106 36.203277
47.778618 -86.34214 33.485126
48.080824 -85.544857 34.866736
47.452414 -86.754551 34.859312
48.552246 -84.773186 29.358039
48.325413 -85.347057 30.730641
48.734356 -84.20636 27.973684
49.08524 -83.56012 29.334035
48.552246 -84.773186 29.358039
51.911335 -75.783154 20.923411
52.323731 -74.79963 20.852772
52.137822 -75.32388 22.161794
51.911335 -75.783154 20.923411
51.440811 -76.771042 20.975614
48.554268 -82.554169 42.555508
49.317985 -81.466374 42.430992
48.266785 -83.548401 41.393055
48.554268 -82.554169 42.555508
47.9515 -84.458905 40.168186
48.700081 -83.337627 40.087395
48.266785 -83.548401 41.393055
53.632589 -72.761955 28.267999
53.953306 -71.770504 28.119309
53.306204 -73.753135 28.384709
53.296966 -73.319931 27.06244
53.632589 -72.761955 28.267999
52.943482 -74.767998 28.520437
53.306204 -73.753135 28.384709
53.279105 -74.210022 29.725996
53.422695 -71.961613 20.680418
53.706058 -71.013576 20.60207
53.526519 -71.478554 21.870382
53.422695 -71.961613 20.680418
53.0835 -72.89397 20.731237
52.73703 -73.850853 20.802451
52.323731 -74.79963 20.852772
50.760273 -79.942711 39.701862
51.418129 -78.846676 39.527704
49.726643 -81.310585 41.172623
49.317985 -81.466374 42.430992
50.107735 -81.07127 39.847305
49.726643 -81.310585 41.172623
49.396458 -82.187809 39.986946
50.430088 -80.819935 38.516186
50.760273 -79.942711 39.701862
50.107735 -81.07127 39.847305
53.917976 -70.472904 24.231734
53.926963 -70.906246 25.514581
53.733269 -70.982285 23.06843
53.917976 -70.472904 24.231734
53.449905 -71.930321 23.146777
53.526519 -71.478554 21.870382
53.733269 -70.982285 23.06843
51.144287 -77.875225 23.636443
51.261291 -77.33677 22.3019
51.608421 -76.84586 23.566977
52.60933 -76.680488 39.16272
52.012543 -77.748768 39.357634
52.803478 -76.430748 37.845688
52.60933 -76.680488 39.16272
52.976889 -76.106278 36.486492
52.803478 -76.430748 37.845688
52.444864 -77.171089 36.671406
53.086752 -75.793053 35.141434
52.976889 -76.106278 36.486492
53.187134 -75.409904 33.774654
53.086752 -75.793053 35.141434
52.718656 -76.46347 33.945431
53.229801 -75.043991 32.424646
53.187134 -75.409904 33.774654
52.86771 -75.652603 31.220188
53.278473 -74.616272 31.066183
53.229801 -75.043991 32.424646
50.672127 -78.945091 23.720715
51.144287 -77.875225 23.636443
51.019256 -78.454182 24.985792
47.66415 -85.399506 38.88904
47.9515 -84.458905 40.168186
47.230854 -85.610279 40.1947
47.349062 -86.254074 37.578238
47.075156 -87.135106 36.203277
48.069708 -85.102699 37.551724
47.66415 -85.399506 38.88904
47.349062 -86.254074 37.578238
48.077362 -85.849807 32.117722
47.778618 -86.34214 33.485126
48.655079 -84.629695 32.10547
48.077362 -85.849807 32.117722
48.325413 -85.347057 30.730641
48.908175 -83.580914 26.606939
48.734356 -84.20636 27.973684
49.40813 -82.388592 26.576704
48.908175 -83.580914 26.606939
49.934246 -81.227383 26.505575
49.793464 -81.832085 27.878552
49.40813 -82.388592 26.576704
50.048004 -80.653969 25.136896
50.433338 -80.097462 26.438743
49.934246 -81.227383 26.505575
50.183094 -80.036285 23.779924
50.048004 -80.653969 25.136896
50.672127 -78.945091 23.720715
50.183094 -80.036285 23.779924
3 35 34 8
3 36 11 37
3 0 14 12
3 0 16 14
3 1 38 40
3 40 39 17
3 38 39 40
3 3 18 9
3 3 19 18
3 4 41 43
3 41 42 43
3 4 44 46
3 44 20 45
3 44 45 46
3 4 21 20
3 5 22 10
3 5 23 22
3 2 47 49
3 47 24 48
3 47 48 49
3 6 25 13
3 6 26 25
3 6 27 26
3 7 28 15
3 7 29 28
3 50 30 51
3 52 31 53
3 54 53 30
3 52 53 54
3 55 32 56
3 57 33 58
3 59 58 32
3 57 58 59
3 8 60 62
3 62 61 1
3 60 61 62
3 64 63 8
3 65 9 66
3 67 9 68
3 69 3 70
3 71 70 9
3 69 70 71
3 72 4 73
3 74 10 75
3 76 75 4
3 74 75 76
3 11 77 79
3 77 10 78
3 77 78 79
3 11 5 10
3 12 13 2
3 14 13 12
3 14 6 13
3 14 15 6
3 16 15 14
3 16 7 15
3 17 80 82
3 80 81 82
3 84 83 17
3 86 85 1
3 87 2 88
3 9 89 90
3 18 91 93
3 93 92 9
3 91 92 93
3 18 94 96
3 94 2 95
3 94 95 96
3 18 12 2
3 19 12 18
3 19 0 12
3 20 97 98
3 20 99 100
3 20 101 103
3 101 17 102
3 101 102 103
3 21 17 20
3 21 1 17
3 10 21 4
3 22 21 10
3 22 1 21
3 22 8 1
3 23 8 22
3 23 104 106
3 106 105 8
3 104 105 106
3 24 107 108
3 24 109 110
3 13 24 2
3 25 24 13
3 25 111 113
3 113 112 24
3 111 112 113
3 25 114 115
3 26 116 118
3 118 117 25
3 116 117 118
3 26 119 120
3 26 121 123
3 121 11 122
3 121 122 123
3 27 11 26
3 27 5 11
3 15 27 6
3 28 27 15
3 28 5 27
3 28 23 5
3 29 23 28
3 29 124 126
3 126 125 23
3 124 125 126
3 127 3 128
3 127 128 129
3 30 130 131
3 30 132 134
3 132 3 133
3 132 133 134
3 30 19 3
3 31 19 30
3 31 0 19
3 135 31 136
3 32 137 139
3 137 31 138
3 137 138 139
3 32 0 31
3 32 16 0
3 33 16 32
3 33 7 16
3 140 33 141
3 142 33 143
3 144 7 145
3 146 145 33
3 144 145 146
3 147 29 148
3 149 148 7
3 147 148 149
3 150 29 151
3 153 152 29
