ply
format ascii 1.0
element vertex 66
property float x
property float y
property float z
element face 47
property list uchar int vertex_index
end_header
2.835175 21.626522 37.068356
1.716337 17.547356 41.703934
2.38842 9.366972 43.354736
1.165018 15.357613 43.894577
2.094152 13.502743 42.576569
2.266537 19.645378 39.426765
2.674927 15.571857 40.438728
1.324885 13.351105 44.256935
0.882475 14.229063 44.943836
3.341591 20.482367 36.486616
3.138002 22.546467 35.850453
2.696817 10.384253 42.3549
2.549683 12.452138 41.965817
2.241286 11.434857 42.965653
2.815796 8.256903 42.757191
2.696817 10.384253 42.3549
1.789451 12.42367 43.597931
1.629585 14.430178 43.235573
1.324885 13.351105 44.256935
1.936586 10.355785 43.987015
2.241286 11.434857 42.965653
1.789451 12.42367 43.597931
2.758719 18.585331 38.819935
3.043038 19.575903 37.64073
2.550856 20.63595 38.247561
2.962913 16.548571 39.325916
2.758719 18.585331 38.819935
2.470732 17.608618 39.932747
3.133213 14.448158 39.849403
2.962913 16.548571 39.325916
2.840071 13.486695 40.896896
2.384539 14.5373 41.507649
2.549683 12.452138 41.965817
3.133213 14.448158 39.849403
2.840071 13.486695 40.896896
3.549454 18.431748 37.058991
3.341591 20.482367 36.486616
3.043038 19.575903 37.64073
2.051284 8.308238 44.302204
1.936586 10.355785 43.987015
2.486145 7.261377 43.689014
2.051284 8.308238 44.302204
2.815796 8.256903 42.757191
2.486145 7.261377 43.689014
2.59905 23.628216 36.455172
3.138002 22.546467 35.850453
2.901878 24.548161 35.237268
2.318102 22.624172 37.701914
2.59905 23.628216 36.455172
2.033783 21.6336 38.881118
2.550856 20.63595 38.247561
2.318102 22.624172 37.701914
1.772146 20.571415 40.089984
2.033783 21.6336 38.881118
1.497046 19.522404 41.228569
1.991437 18.596367 40.565349
1.772146 20.571415 40.089984
1.247319 18.414423 42.39772
1.497046 19.522404 41.228569
0.97166 17.319552 43.493042
1.440678 16.452485 42.799256
1.247319 18.414423 42.39772
0.727996 16.177121 44.620514
0.97166 17.319552 43.493042
0.882475 14.229063 44.943836
0.727996 16.177121 44.620514
3 8 7 3
3 0 9 10
3 1 6 5
3 2 11 13
3 13 12 4
3 11 12 13
3 2 14 15
3 3 4 1
3 16 4 17
3 18 17 3
3 16 17 18
3 19 2 20
3 21 20 4
3 19 20 21
3 5 22 24
3 24 23 0
3 22 23 24
3 6 25 27
3 27 26 5
3 25 26 27
3 6 28 29
3 4 6 1
3 30 6 31
3 32 31 4
3 30 31 32
3 34 33 6
3 37 36 0
3 35 36 37
3 38 2 39
3 40 2 41
3 43 42 2
3 44 0 45
3 44 45 46
3 47 0 48
3 49 5 50
3 51 50 0
3 49 50 51
3 52 5 53
3 54 1 55
3 56 55 5
3 54 55 56
3 57 1 58
3 59 3 60
3 61 60 1
3 59 60 61
3 62 3 63
3 65 64 3
