ply
format ascii 1.0
element vertex 330
property float x
property float y
property float z
element face 345
property list uchar int vertex_index
end_header
62.637047 -68.58847 -13.459587
56.071259 -67.613022 -26.800783
68.69561 -57.673672 -12.475456
68.302597 -55.324787 -20.918177
60.567055 -68.763847 -21.456987
65.052704 -54.293442 -28.189619
59.996002 -51.310184 -32.978561
62.992073 -68.947868 -9.191139
66.256828 -63.97575 -8.770992
66.40583 -62.852291 -13.046158
68.896385 -56.212093 -16.720633
65.872154 -62.180626 -17.329668
56.074715 -75.514832 -21.386412
58.644745 -68.538559 -24.554976
63.12397 -61.810841 -24.985243
60.844772 -61.142776 -27.767229
62.628086 -53.165413 -30.862261
58.12339 -59.702122 -29.793745
69.851906 -48.079468 -24.009378
57.522411 -75.311523 -17.863333
61.841198 -68.618355 -17.644152
64.789909 -61.978943 -21.417982
67.000923 -54.854828 -24.833937
68.43647 -47.189983 -27.724489
66.365471 -46.151718 -31.010485
63.98642 -44.625038 -33.868416
61.547638 -42.537163 -36.370773
57.32695 -48.852257 -34.751244
62.877251 -68.720474 -11.324238
64.799187 -65.987099 -11.128736
64.637566 -65.655708 -13.273928
66.211761 -62.445908 -15.195877
64.342583 -65.447113 -15.412872
54.991512 -71.406296 -25.399549
56.278458 -71.827309 -24.284231
57.427399 -68.172012 -25.778421
59.796234 -64.906029 -26.168062
58.509445 -64.410858 -27.309645
59.521057 -60.521782 -28.859426
57.116051 -63.716854 -28.269751
67.625793 -60.894184 -10.644691
68.255211 -58.531433 -10.372562
68.691498 -55.694687 -18.837137
69.762283 -52.76973 -18.423971
69.579071 -52.190845 -20.499567
69.186508 -51.749855 -22.532469
58.333023 -72.138443 -21.402662
56.885788 -75.473045 -19.715509
59.087608 -72.078911 -19.652208
59.685066 -71.937973 -17.740858
61.274803 -68.706985 -19.619856
63.398735 -65.354919 -19.557348
62.735363 -65.375 -21.481707
64.168228 -58.130463 -26.639151
65.158241 -58.346684 -25.001184
66.100693 -54.620705 -26.595404
67.813217 -51.090981 -26.343775
66.865967 -50.742538 -28.06418
67.462082 -46.716431 -29.424639
65.782677 -50.296879 -29.638582
61.322533 -52.325275 -31.975378
63.3629 -48.955536 -32.365181
62.098801 -48.034294 -33.551155
62.769501 -43.646603 -35.162109
60.827553 -46.958946 -34.644119
64.800262 -66.409004 -8.992966
66.430504 -63.37952 -10.900747
67.804436 -60.187843 -12.775888
68.903694 -56.881527 -14.594492
67.776947 -59.582081 -14.919363
67.568054 -59.11808 -17.060579
67.196739 -58.803268 -19.175768
57.39827 -72.066002 -22.953463
59.694149 -68.72496 -23.111994
61.920319 -65.348473 -23.246897
60.940067 -65.20903 -24.8155
62.05571 -61.564983 -26.481108
63.036331 -57.77187 -28.082567
63.883568 -53.818871 -29.608541
61.788498 -57.230988 -29.33359
60.460083 -56.492798 -30.415125
59.087406 -55.564075 -31.363817
53.575356 -70.802238 -26.329054
54.61972 -66.865929 -27.662722
69.727425 -53.500671 -16.331484
60.525261 -71.64537 -13.622599
60.155888 -71.774895 -15.715754
62.290657 -68.562164 -15.576799
63.929779 -65.358849 -17.51956
65.398773 -62.040783 -19.416986
66.67186 -58.609974 -21.231489
64.035088 -61.926979 -23.287924
65.993378 -58.481934 -23.187197
67.737442 -55.0653 -22.929785
68.593613 -51.403942 -24.491213
69.244644 -47.624191 -25.914328
64.60173 -49.708981 -31.067732
65.193459 -45.460167 -32.487915
62.107414 -38.076614 -38.167412
55.659637 -62.834621 -29.095095
56.690308 -58.700676 -30.616758
57.699287 -54.466415 -32.219452
56.311058 -53.227257 -33.014153
58.664101 -50.143654 -33.898674
59.549686 -45.75164 -35.653496
60.306679 -41.314758 -37.484009
60.872536 -36.860672 -39.38739
68.831703 -56.495987 -12.31715
68.611503 -56.924868 -11.265703
68.475411 -58.102553 -11.424009
69.080376 -56.019709 -13.357636
68.831703 -56.495987 -12.31715
63.896168 -67.678436 -9.092052
63.876976 -67.819011 -8.031712
62.972881 -69.088443 -8.130798
52.316547 -72.415065 -26.140404
53.050737 -72.730564 -25.714517
52.827061 -70.413189 -26.724588
52.316547 -72.415065 -26.140404
66.058582 -64.272536 -7.716233
65.434086 -65.418852 -7.822392
70.024586 -51.42149 -18.194853
70.072159 -51.020771 -19.217306
70.260532 -46.522863 -23.723588
70.043583 -48.346722 -23.021135
70.079281 -46.197007 -24.684101
70.260532 -46.522863 -23.723588
59.462845 -73.235348 -13.711624
59.610714 -73.122528 -12.651955
55.389679 -77.209664 -20.626335
54.948346 -77.217491 -21.424942
56.459817 -77.027489 -17.9651
56.141506 -77.108249 -18.891188
57.204099 -75.392284 -18.789421
56.725622 -76.890773 -16.985905
56.459817 -77.027489 -17.9651
57.769396 -75.19474 -16.869436
56.725622 -76.890773 -16.985905
69.067795 -45.459831 -27.471931
69.471882 -45.676935 -26.566851
68.840557 -47.407087 -26.819409
68.658458 -45.17571 -28.365561
69.067795 -45.459831 -27.471931
67.131695 -44.355759 -30.862848
67.680001 -44.638115 -30.069926
66.913776 -46.434075 -30.217562
66.585553 -44.017517 -31.67888
67.131695 -44.355759 -30.862848
64.820465 -42.864544 -33.888717
65.423985 -43.282108 -33.198467
64.589939 -45.042603 -33.178166
64.233944 -42.41691 -34.636528
64.820465 -42.864544 -33.888717
62.424706 -40.867039 -36.600299
63.035637 -41.421759 -35.995967
62.158569 -43.091883 -35.766441
61.827526 -40.306888 -37.269092
62.704594 -38.636764 -37.498619
62.424706 -40.867039 -36.600299
54.389717 -64.389966 -28.755871
55.139679 -64.850275 -28.378909
53.869759 -66.40562 -28.039684
55.970676 -58.121657 -30.99493
55.435364 -60.242656 -30.227005
56.475166 -56.004526 -31.796277
57.194797 -56.583545 -31.418105
55.970676 -58.121657 -30.99493
56.819004 -51.039757 -33.882699
55.617291 -52.549357 -33.389713
56.125236 -50.361857 -34.258259
59.663725 -40.656168 -37.982216
59.278771 -42.875076 -37.030121
59.946653 -38.429125 -38.933907
60.589607 -39.087715 -38.435699
59.663725 -40.656168 -37.982216
60.218508 -36.211946 -39.919724
59.946653 -38.429125 -38.933907
55.634985 -71.616803 -24.84189
55.078709 -73.473034 -24.180296
54.435236 -73.262528 -24.737955
67.421978 -61.264633 -9.588886
66.737495 -62.805416 -8.652036
66.941311 -62.434967 -9.707842
67.736687 -60.083258 -9.452821
67.421978 -61.264633 -9.588886
67.940502 -59.712809 -10.508627
67.914208 -58.956495 -9.330986
67.736687 -60.083258 -9.452821
68.244453 -57.411782 -10.232616
67.914208 -58.956495 -9.330986
68.244453 -57.411782 -10.232616
68.611503 -56.924868 -11.265703
69.980553 -50.731329 -20.255104
70.072159 -51.020771 -19.217306
69.670677 -52.480288 -19.461769
69.907165 -50.402411 -21.26623
69.980553 -50.731329 -20.255104
69.710884 -50.181916 -22.28268
69.907165 -50.402411 -21.26623
69.38279 -51.97035 -21.516018
69.519207 -49.914661 -23.270924
70.043583 -48.346722 -23.021135
69.710884 -50.181916 -22.28268
56.649843 -48.155193 -35.144623
56.125236 -50.361857 -34.258259
55.44813 -49.664793 -34.651638
57.788906 -46.643826 -35.663739
56.649843 -48.155193 -35.144623
64.705803 -66.635479 -7.933379
63.876976 -67.819011 -8.031712
65.528545 -65.192377 -8.881979
65.434086 -65.418852 -7.822392
64.705803 -66.635479 -7.933379
55.572891 -75.458786 -22.114981
54.948346 -77.217491 -21.424942
55.674763 -73.615025 -23.56389
55.078709 -73.473034 -24.180296
56.234669 -73.734371 -22.898506
55.674763 -73.615025 -23.56389
56.838364 -71.946655 -23.618847
56.736492 -73.790417 -22.169937
55.572891 -75.458786 -22.114981
56.234669 -73.734371 -22.898506
62.016205 -70.323734 -8.220204
62.972881 -69.088443 -8.130798
61.987122 -70.280369 -9.280369
62.016205 -70.323734 -8.220204
61.92971 -70.166672 -10.346919
62.934662 -68.834171 -10.257689
61.987122 -70.280369 -9.280369
61.840294 -70.154167 -11.411455
61.92971 -70.166672 -10.346919
61.720192 -70.088165 -12.479129
62.757149 -68.654472 -12.391913
61.840294 -70.154167 -11.411455
53.758815 -73.032593 -25.249765
54.435236 -73.262528 -24.737955
54.283434 -71.104267 -25.864301
53.758815 -73.032593 -25.249765
53.050737 -72.730564 -25.714517
53.349243 -68.445034 -27.391422
54.097538 -68.834083 -26.995888
52.827061 -70.413189 -26.724588
53.869759 -66.40562 -28.039684
53.349243 -68.445034 -27.391422
66.058582 -64.272536 -7.716233
66.737495 -62.805416 -8.652036
69.184417 -55.623637 -14.417155
69.080376 -56.019709 -13.357636
68.799652 -57.2776 -13.534974
69.596283 -53.933208 -15.28565
69.184417 -55.623637 -14.417155
69.31556 -55.191099 -15.462988
69.83836 -52.255245 -16.123306
69.596283 -53.933208 -15.28565
70.007157 -51.78696 -17.148609
69.744854 -53.1352 -17.377727
70.024586 -51.42149 -18.194853
69.83836 -52.255245 -16.123306
70.007157 -51.78696 -17.148609
60.664299 -71.616615 -12.560636
59.610714 -73.122528 -12.651955
61.581154 -70.11692 -13.541093
61.720192 -70.088165 -12.479129
60.664299 -71.616615 -12.560636
55.795215 -77.18877 -19.790884
55.389679 -77.209664 -20.626335
56.480251 -75.493938 -20.550961
55.795215 -77.18877 -19.790884
56.141506 -77.108249 -18.891188
58.850723 -73.507965 -16.808199
57.769396 -75.19474 -16.869436
58.603738 -73.624748 -17.802096
59.086134 -73.426426 -15.795647
58.850723 -73.507965 -16.808199
59.920477 -71.856434 -16.728306
59.278159 -73.30011 -14.758202
59.086134 -73.426426 -15.795647
60.340575 -71.710133 -14.669176
59.462845 -73.235348 -13.711624
59.278159 -73.30011 -14.758202
69.77565 -45.969368 -25.636576
70.079281 -46.197007 -24.684101
69.548275 -47.85183 -24.961853
69.77565 -45.969368 -25.636576
69.471882 -45.676935 -26.566851
68.171265 -44.938935 -29.215635
68.658458 -45.17571 -28.365561
67.949276 -46.953207 -28.574564
68.171265 -44.938935 -29.215635
67.680001 -44.638115 -30.069926
65.999547 -43.671741 -32.417595
66.585553 -44.017517 -31.67888
65.779465 -45.805943 -31.7492
65.999547 -43.671741 -32.417595
65.423985 -43.282108 -33.198467
63.625484 -41.927692 -35.283375
64.233944 -42.41691 -34.636528
63.377961 -44.135821 -34.515263
63.625484 -41.927692 -35.283375
63.035637 -41.421759 -35.995967
62.878017 -36.400074 -38.368698
62.704594 -38.636764 -37.498619
62.276888 -35.843924 -39.101765
62.878017 -36.400074 -38.368698
54.920029 -62.309629 -29.466174
54.389717 -64.389966 -28.755871
56.174972 -60.767648 -29.855927
54.920029 -62.309629 -29.466174
55.435364 -60.242656 -30.227005
55.065689 -54.740122 -32.554364
55.617291 -52.549357 -33.389713
55.781052 -55.384947 -32.193627
55.065689 -54.740122 -32.554364
57.005173 -53.846836 -32.616802
56.475166 -56.004526 -31.796277
55.781052 -55.384947 -32.193627
58.900274 -45.093517 -36.114864
58.438318 -47.301949 -35.20237
57.788906 -46.643826 -35.663739
59.928183 -43.533199 -36.568753
58.900274 -45.093517 -36.114864
59.278771 -42.875076 -37.030121
61.659449 -35.235952 -39.711754
62.276888 -35.843924 -39.101765
61.489975 -37.468643 -38.777401
61.024942 -34.640059 -40.370857
61.659449 -35.235952 -39.711754
61.024942 -34.640059 -40.370857
60.218508 -36.211946 -39.919724
3 0 30 28
3 0 32 30
3 1 35 33
3 1 37 35
3 1 39 37
3 2 41 40
3 2 107 109
3 109 108 41
3 107 108 109
3 2 110 111
3 3 44 42
3 3 45 44
3 4 48 46
3 4 50 48
3 4 52 50
3 5 55 53
3 5 57 55
3 5 59 57
3 6 62 60
3 6 64 62
3 7 112 114
3 112 65 113
3 112 113 114
3 9 66 29
3 9 67 66
3 9 69 67
3 11 70 31
3 11 71 70
3 13 72 34
3 13 73 72
3 13 75 73
3 15 76 36
3 15 77 76
3 15 79 77
3 17 80 38
3 17 81 80
3 115 82 116
3 118 117 82
3 8 119 120
3 10 84 68
3 122 121 43
3 18 123 124
3 18 125 126
3 127 85 128
3 12 129 130
3 19 131 133
3 133 132 47
3 131 132 133
3 19 134 135
3 19 136 137
3 20 86 49
3 20 87 86
3 20 88 87
3 21 89 51
3 21 90 89
3 14 91 74
3 22 92 54
3 22 93 92
3 22 94 93
3 23 95 56
3 23 138 140
3 140 139 95
3 138 139 140
3 23 141 142
3 24 143 145
3 145 144 58
3 143 144 145
3 24 146 147
3 16 96 78
3 25 97 61
3 25 148 150
3 150 149 97
3 148 149 150
3 25 151 152
3 26 153 155
3 155 154 63
3 153 154 155
3 26 156 158
3 156 98 157
3 156 157 158
3 159 99 160
3 161 160 83
3 159 160 161
3 162 100 163
3 164 101 165
3 166 165 100
3 164 165 166
3 27 167 169
3 167 102 168
3 167 168 169
3 27 103 102
3 27 104 103
3 170 105 171
3 172 106 173
3 174 173 105
3 172 173 174
3 176 175 106
3 28 29 7
3 30 29 28
3 30 9 29
3 30 31 9
3 32 31 30
3 32 11 31
3 33 177 179
3 177 34 178
3 177 178 179
3 35 34 33
3 35 13 34
3 35 36 13
3 37 36 35
3 37 15 36
3 37 38 15
3 39 38 37
3 39 17 38
3 40 180 182
3 182 181 8
3 180 181 182
3 41 183 185
3 185 184 40
3 183 184 185
3 41 186 187
3 41 188 189
3 191 190 41
3 42 43 10
3 44 43 42
3 44 192 194
3 194 193 43
3 192 193 194
3 44 195 196
3 45 197 199
3 199 198 44
3 197 198 199
3 45 200 202
3 200 18 201
3 200 201 202
3 46 47 12
3 48 47 46
3 48 19 47
3 48 49 19
3 50 49 48
3 50 20 49
3 50 51 20
3 52 51 50
3 52 21 51
3 53 54 14
3 55 54 53
3 55 22 54
3 55 56 22
3 57 56 55
3 57 23 56
3 57 58 23
3 59 58 57
3 59 24 58
3 60 61 16
3 62 61 60
3 62 25 61
3 62 63 25
3 64 63 62
3 64 26 63
3 203 27 204
3 203 204 205
3 207 206 27
3 65 208 209
3 65 210 212
3 210 8 211
3 210 211 212
3 29 65 7
3 66 65 29
3 66 8 65
3 66 40 8
3 67 40 66
3 67 2 40
3 67 68 2
3 69 68 67
3 69 10 68
3 31 69 9
3 70 69 31
3 70 10 69
3 70 42 10
3 71 42 70
3 71 3 42
3 213 12 214
3 34 215 216
3 72 217 219
3 219 218 34
3 217 218 219
3 72 220 222
3 220 12 221
3 220 221 222
3 72 46 12
3 73 46 72
3 73 4 46
3 73 74 4
3 75 74 73
3 75 14 74
3 36 75 13
3 76 75 36
3 76 14 75
3 76 53 14
3 77 53 76
3 77 5 53
3 77 78 5
3 79 78 77
3 79 16 78
3 38 79 15
3 80 79 38
3 80 16 79
3 80 60 16
3 81 60 80
3 81 6 60
3 223 7 224
3 225 7 226
3 227 28 228
3 229 228 7
3 227 228 229
3 230 28 231
3 232 0 233
3 234 233 28
3 232 233 234
3 235 33 236
3 82 237 239
3 237 33 238
3 237 238 239
3 82 1 33
3 82 83 1
3 240 83 241
3 242 241 82
3 240 241 242
3 244 243 83
3 246 245 8
3 68 247 249
3 249 248 2
3 247 248 249
3 84 250 252
3 252 251 68
3 250 251 252
3 84 253 254
3 43 84 10
3 255 84 256
3 257 256 43
3 255 256 257
3 259 258 84
3 85 260 261
3 85 262 264
3 262 0 263
3 262 263 264
3 47 265 267
3 267 266 12
3 265 266 267
3 269 268 47
3 49 270 272
3 272 271 19
3 270 271 272
3 86 273 275
3 275 274 49
3 273 274 275
3 86 276 277
3 86 278 280
3 278 85 279
3 278 279 280
3 87 85 86
3 87 0 85
3 87 32 0
3 88 32 87
3 88 11 32
3 51 88 20
3 89 88 51
3 89 11 88
3 89 71 11
3 90 71 89
3 90 3 71
3 74 52 4
3 91 52 74
3 91 21 52
3 54 91 14
3 92 91 54
3 92 21 91
3 92 90 21
3 93 90 92
3 93 3 90
3 93 45 3
3 94 45 93
3 94 18 45
3 56 94 22
3 95 94 56
3 95 18 94
3 95 281 283
3 283 282 18
3 281 282 283
3 285 284 95
3 58 286 288
3 288 287 23
3 286 287 288
3 290 289 58
3 78 59 5
3 96 59 78
3 96 24 59
3 61 96 16
3 97 96 61
3 97 24 96
3 97 291 293
3 293 292 24
3 291 292 293
3 295 294 97
3 63 296 298
3 298 297 25
3 296 297 298
3 300 299 63
3 98 301 302
3 98 303 304
3 83 39 1
3 99 39 83
3 99 17 39
3 305 99 306
3 100 307 309
3 307 99 308
3 307 308 309
3 100 17 99
3 100 81 17
3 101 81 100
3 101 6 81
3 102 310 311
3 102 312 313
3 102 314 316
3 314 101 315
3 314 315 316
3 103 101 102
3 103 6 101
3 103 64 6
3 104 64 103
3 104 26 64
3 317 104 318
3 319 318 27
3 317 318 319
3 105 320 322
3 320 104 321
3 320 321 322
3 105 26 104
3 105 98 26
3 106 98 105
3 106 323 325
3 325 324 98
3 323 324 325
3 106 326 327
3 329 328 106
