ply
format ascii 1.0
element vertex 105
property float x
property float y
property float z
element face 76
property list uchar int vertex_index
end_header
-36.348984 17.669495 -15.128487
-35.859253 19.319298 -18.98877
-36.32341 15.989819 -11.089964
-36.181351 18.504318 -17.084316
-37.516411 15.015736 -17.911957
-37.150707 9.920328 -7.643217
-37.327251 10.909674 -9.74588
-37.490902 11.913649 -11.837379
-37.603649 12.936031 -13.903051
-36.384861 16.8293 -13.127789
-35.254456 20.804432 -12.639595
-36.932698 16.342616 -16.520222
-37.570639 14.494826 -16.921572
-36.986925 15.821705 -15.529837
-36.553755 17.67988 -19.412177
-36.714804 17.27239 -18.45995
-36.020302 18.911808 -18.036543
-36.331246 18.168819 -20.339363
-36.553755 17.67988 -19.412177
-36.612123 12.111275 -7.297282
-36.557705 11.678907 -6.264529
-36.700395 12.605949 -8.348613
-37.238979 10.415001 -8.694548
-36.612123 12.111275 -7.297282
-36.907156 13.951734 -11.463672
-36.848295 13.531688 -10.431701
-36.264549 15.569773 -10.057994
-34.780254 22.52686 -11.571901
-35.251577 20.479584 -11.629556
-34.754458 22.751046 -12.575353
-34.780254 22.52686 -11.571901
-35.670627 19.973208 -15.853952
-36.265168 18.086907 -16.106402
-35.754444 19.555796 -14.876037
-35.559727 20.286977 -16.825637
-35.670627 19.973208 -15.853952
-35.398678 20.694468 -17.777864
-36.020302 18.911808 -18.036543
-35.559727 20.286977 -16.825637
-35.752014 17.73758 -9.831383
-36.264549 15.569773 -10.057994
-35.214658 19.820038 -9.59616
-35.786055 18.072277 -10.854741
-35.752014 17.73758 -9.831383
-38.213852 13.386582 -18.433363
-37.570639 14.494826 -16.921572
-38.107389 14.005064 -19.415165
-38.213852 13.386582 -18.433363
-37.382334 15.528099 -18.87377
-36.848881 16.760027 -17.498137
-36.714804 17.27239 -18.45995
-38.107389 14.005064 -19.415165
-37.382334 15.528099 -18.87377
-35.217714 21.00029 -18.728331
-35.398678 20.694468 -17.777864
-35.616777 19.705473 -19.911194
-35.217714 21.00029 -18.728331
-36.08877 18.554994 -21.261788
-36.331246 18.168819 -20.339363
-35.616777 19.705473 -19.911194
-37.071939 9.429088 -6.595206
-36.557705 11.678907 -6.264529
-37.726402 7.842166 -8.067882
-37.071939 9.429088 -6.595206
-37.838085 8.410015 -9.137868
-37.726402 7.842166 -8.067882
-37.926357 8.904688 -10.1892
-37.838085 8.410015 -9.137868
-37.238979 10.415001 -8.694548
-38.030214 9.489523 -11.253404
-37.926357 8.904688 -10.1892
-36.766469 13.029701 -9.385952
-36.700395 12.605949 -8.348613
-37.409076 11.411662 -10.791629
-36.766469 13.029701 -9.385952
-36.848295 13.531688 -10.431701
-38.112039 9.991511 -12.299153
-38.030214 9.489523 -11.253404
-37.409076 11.411662 -10.791629
-38.191536 10.594013 -13.351109
-38.112039 9.991511 -12.299153
-38.247909 11.105204 -14.383945
-38.191536 10.594013 -13.351109
-37.547275 12.42484 -12.870215
-38.284059 11.722437 -15.418026
-38.247909 11.105204 -14.383945
-37.614257 13.454973 -14.917119
-38.284059 11.722437 -15.418026
-37.004863 15.401608 -14.529488
-37.614257 13.454973 -14.917119
-36.994255 14.882665 -13.51542
-36.366923 17.249398 -14.128138
-36.986925 15.821705 -15.529837
-37.004863 15.401608 -14.529488
-35.81678 18.492018 -11.873653
-36.354135 16.40956 -12.108877
-35.786055 18.072277 -10.854741
-35.819659 18.816866 -12.883692
-35.81678 18.492018 -11.873653
-35.251577 20.479584 -11.629556
-35.20718 21.123264 -13.631591
-35.754444 19.555796 -14.876037
-35.80172 19.236964 -13.884041
-35.20718 21.123264 -13.631591
-34.754458 22.751046 -12.575353
3 0 11 13
3 11 4 12
3 11 12 13
3 1 14 16
3 16 15 3
3 14 15 16
3 1 17 18
3 19 5 20
3 21 6 22
3 23 22 5
3 21 22 23
3 2 24 26
3 24 7 25
3 24 25 26
3 2 8 7
3 2 9 8
3 27 10 28
3 30 29 10
3 31 3 32
3 33 32 0
3 31 32 33
3 34 3 35
3 36 1 37
3 38 37 3
3 36 37 38
3 39 2 40
3 43 42 2
3 41 42 43
3 4 44 45
3 4 46 47
3 3 4 0
3 48 4 49
3 50 49 3
3 48 49 50
3 52 51 4
3 53 1 54
3 55 1 56
3 59 58 1
3 57 58 59
3 5 60 61
3 5 62 63
3 5 64 65
3 6 66 68
3 68 67 5
3 66 67 68
3 6 69 70
3 71 6 72
3 7 73 75
3 73 6 74
3 73 74 75
3 7 76 78
3 78 77 6
3 76 77 78
3 7 79 80
3 8 81 83
3 83 82 7
3 81 82 83
3 8 84 85
3 8 86 87
3 9 88 90
3 90 89 8
3 88 89 90
3 9 91 93
3 91 0 92
3 91 92 93
3 94 9 95
3 96 95 2
3 94 95 96
3 10 97 99
3 97 9 98
3 97 98 99
3 10 0 9
3 10 100 102
3 102 101 0
3 100 101 102
3 104 103 10
