ply
format ascii 1.0
element vertex 227
property float x
property float y
property float z
element face 210
property list uchar int vertex_index
end_header
41.869514 66.840141 6.497102
53.383507 49.784485 3.517124
47.873657 60.880127 -1.439663
50.653206 52.823265 6.016113
53.223366 47.438492 8.465079
44.720909 61.353134 7.80862
44.720406 64.184715 2.237878
47.733593 58.43811 3.891124
50.848164 55.213806 0.796498
49.567951 58.739067 -8.875736
47.571175 62.837631 -6.557182
50.523365 57.248726 -4.175072
52.783287 51.867645 -1.187019
46.156059 59.948723 5.767693
47.599457 57.083847 6.636743
49.21418 55.597275 4.893744
50.65213 56.132256 -7.331806
54.121532 48.207153 2.656427
54.402924 47.118088 4.939976
52.872086 46.16761 10.96876
54.264511 44.76202 9.6443
53.843422 43.479877 11.991651
46.293045 62.59259 0.3042
44.695259 65.439583 -0.488325
46.27409 63.750809 -2.357887
46.137569 64.773766 -4.971905
47.794388 61.931419 -4.02725
49.128208 60.025764 -5.446899
49.335655 59.08622 -2.948349
52.187668 52.47274 2.112988
52.050011 53.545815 -0.350225
53.178299 50.862328 1.128813
52.167847 51.325691 4.642399
53.396786 48.642746 5.969716
52.006054 50.112526 7.22681
43.325466 64.162605 7.12748
43.236031 65.61544 4.317026
44.710564 62.817429 5.003382
46.237007 61.319458 3.012003
47.840256 59.709091 1.199312
49.400986 58.020561 -0.391914
49.349297 56.851738 2.221659
50.803993 54.055511 3.376315
42.090843 65.306976 9.334266
48.214554 61.39534 -10.213362
48.836151 59.185318 -11.080431
54.451912 45.971466 7.279763
55.309006 43.271435 8.472841
43.147884 66.955276 1.536165
48.760117 60.808647 -7.876961
50.127823 58.07885 -6.564802
51.278992 55.403275 -5.074032
50.760361 56.284683 -1.72031
51.746941 54.530327 -2.745548
52.209251 52.782555 -3.431257
47.540711 56.372231 8.033112
46.850594 57.790283 7.603371
48.316687 55.677334 7.128382
47.540711 56.372231 8.033112
50.623818 55.174557 -7.521276
51.062877 54.855412 -6.469252
53.097542 44.151046 12.714947
53.357754 44.823744 11.480206
52.611874 45.494913 12.203501
53.520416 42.796543 13.134521
53.097542 44.151046 12.714947
41.773342 67.548451 5.08556
41.078807 68.071911 6.191822
42.238704 64.489918 10.754459
41.532131 65.751877 10.452939
42.780334 63.959099 9.648879
42.238704 64.489918 10.754459
55.208189 42.657019 9.567435
54.786758 44.016728 9.058571
54.685941 43.402311 10.153164
55.636375 41.889274 8.957611
55.208189 42.657019 9.567435
43.850758 66.805107 -0.851109
44.639755 66.003014 -1.831601
46.709598 64.235996 -7.040343
45.992795 65.204063 -6.247704
46.854372 63.805698 -5.764544
47.374398 63.20129 -7.783152
46.709598 64.235996 -7.040343
48.165646 61.823139 -7.217071
47.968868 62.186798 -8.443041
47.374398 63.20129 -7.783152
52.850939 51.031056 -1.437566
52.563921 51.488511 -2.559684
52.496269 52.3251 -2.309138
50.538773 52.174488 7.35943
49.843561 53.547043 6.818067
46.128895 59.222721 7.168845
45.438484 60.650928 6.788157
45.41132 59.924926 8.189309
46.877758 58.516285 6.202218
46.128895 59.222721 7.168845
46.850594 57.790283 7.603371
49.124048 54.934048 6.256883
48.406818 56.340561 5.765244
48.316687 55.677334 7.128382
49.843561 53.547043 6.818067
49.933693 54.21027 5.454928
49.124048 54.934048 6.256883
50.262096 56.404053 -8.418062
49.720007 57.707459 -9.190027
50.11004 57.435661 -8.103771
50.262096 56.404053 -8.418062
50.623818 55.174557 -7.521276
54.493971 46.874836 3.402099
54.1875 47.403797 2.36608
54.634666 46.330303 4.543874
54.493971 46.874836 3.402099
54.262228 47.662621 3.798201
54.814053 45.776245 5.614298
54.634666 46.330303 4.543874
54.475397 42.76124 11.326839
54.685941 43.402311 10.153164
54.053967 44.120948 10.817975
54.232473 42.106878 12.401812
54.475397 42.76124 11.326839
54.232473 42.106878 12.401812
53.520416 42.796543 13.134521
45.42917 65.158626 -2.766382
44.639755 66.003014 -1.831601
45.484674 64.595196 -1.423106
46.20583 64.262287 -3.664896
45.36091 65.670105 -4.073391
45.42917 65.158626 -2.766382
53.399037 50.04945 0.787428
53.201531 50.552109 -0.370488
52.980793 51.364987 -0.029103
53.870653 48.721863 1.551234
53.399037 50.04945 0.787428
53.649916 49.53474 1.89262
54.1875 47.403797 2.36608
53.870653 48.721863 1.551234
51.215197 50.819119 7.964779
51.32963 51.467895 6.621462
50.538773 52.174488 7.35943
51.863222 49.474091 8.534533
51.215197 50.819119 7.964779
52.471878 48.137073 9.153668
52.61471 48.775509 7.845944
51.863222 49.474091 8.534533
52.296238 47.501632 10.405508
53.047726 46.803051 9.716919
52.471878 48.137073 9.153668
52.09853 46.830204 11.710973
52.296238 47.501632 10.405508
52.611874 45.494913 12.203501
52.09853 46.830204 11.710973
41.23875 67.325462 7.6153
41.078807 68.071911 6.191822
41.349414 66.55888 9.033882
41.532131 65.751877 10.452939
41.980179 66.073559 7.915684
41.23875 67.325462 7.6153
41.349414 66.55888 9.033882
43.397646 63.386913 8.545486
42.708154 64.734791 8.230873
42.780334 63.959099 9.648879
44.095367 61.982177 8.886057
44.023187 62.757869 7.46805
43.397646 63.386913 8.545486
44.760881 60.580715 9.228256
44.095367 61.982177 8.886057
45.41132 59.924926 8.189309
44.760881 60.580715 9.228256
47.843441 61.56718 -11.315262
47.401077 62.732746 -10.780189
48.15424 60.46217 -11.748797
47.843441 61.56718 -11.315262
48.525352 60.290329 -10.646897
48.378265 59.277691 -12.110625
48.15424 60.46217 -11.748797
49.354107 57.930584 -10.292375
49.202051 58.962193 -9.978084
49.720007 57.707459 -9.190027
48.887741 58.086208 -11.32265
49.354107 57.930584 -10.292375
48.378265 59.277691 -12.110625
48.887741 58.086208 -11.32265
54.838547 45.202934 6.784192
54.814053 45.776245 5.614298
54.427418 46.544777 6.10987
55.267094 43.852919 7.380731
54.838547 45.202934 6.784192
54.880459 44.62145 7.876302
55.577667 42.483591 7.965148
55.267094 43.852919 7.380731
55.577667 42.483591 7.965148
55.636375 41.889274 8.957611
42.4566 66.9361 3.995522
41.773342 67.548451 5.08556
42.552773 66.22779 5.407064
42.412527 67.606018 2.605091
42.4566 66.9361 3.995522
43.191958 66.285358 2.926596
42.304045 68.251613 1.203151
42.412527 67.606018 2.605091
43.07707 67.562953 0.161137
43.921571 66.197429 0.52392
43.850758 66.805107 -0.851109
42.304045 68.251613 1.203151
43.07707 67.562953 0.161137
45.240919 66.159698 -5.392376
45.36091 65.670105 -4.073391
45.240919 66.159698 -5.392376
45.992795 65.204063 -6.247704
47.696087 62.480144 -9.611242
47.401077 62.732746 -10.780189
48.487336 61.101993 -9.045161
47.696087 62.480144 -9.611242
47.968868 62.186798 -8.443041
51.376309 54.490921 -5.340364
51.062877 54.855412 -6.469252
50.965561 55.767765 -6.202919
51.841438 53.180561 -4.518977
51.376309 54.490921 -5.340364
51.744122 54.092915 -4.252644
52.127756 51.919868 -3.591416
51.841438 53.180561 -4.518977
52.127756 51.919868 -3.591416
52.563921 51.488511 -2.559684
52.850939 51.031056 -1.437566
53.201531 50.552109 -0.370488
3 55 14 56
3 58 57 14
3 60 59 16
3 1 18 17
3 61 21 62
3 63 62 19
3 61 62 63
3 65 64 21
3 0 66 67
3 2 24 22
3 2 26 24
3 2 28 26
3 1 31 29
3 1 17 31
3 3 34 32
3 5 37 35
3 7 38 13
3 7 39 38
3 7 41 39
3 3 42 15
3 3 32 42
3 68 43 69
3 71 70 43
3 9 45 44
3 4 46 33
3 72 47 73
3 74 73 20
3 72 73 74
3 76 75 47
3 6 48 36
3 78 77 23
3 10 79 81
3 81 80 25
3 79 80 81
3 10 82 83
3 10 84 86
3 84 49 85
3 84 85 86
3 11 50 27
3 11 51 50
3 8 52 40
3 12 53 30
3 12 54 53
3 12 87 89
3 89 88 54
3 87 88 89
3 91 90 3
3 92 13 93
3 94 93 5
3 92 93 94
3 14 95 97
3 95 13 96
3 95 96 97
3 14 7 13
3 14 15 7
3 98 15 99
3 100 99 14
3 98 99 100
3 101 3 102
3 103 102 15
3 101 102 103
3 16 104 106
3 106 105 9
3 104 105 106
3 108 107 16
3 17 109 110
3 18 111 113
3 113 112 17
3 111 112 113
3 18 114 115
3 19 20 4
3 21 20 19
3 21 116 118
3 118 117 20
3 116 117 118
3 21 119 120
3 122 121 21
3 22 23 6
3 24 23 22
3 24 123 125
3 125 124 23
3 123 124 125
3 24 126 128
3 126 25 127
3 126 127 128
3 26 25 24
3 26 10 25
3 26 27 10
3 28 27 26
3 28 11 27
3 29 30 8
3 31 30 29
3 31 12 30
3 31 129 131
3 131 130 12
3 129 130 131
3 17 132 134
3 134 133 31
3 132 133 134
3 17 135 136
3 32 33 1
3 34 33 32
3 34 4 33
3 137 34 138
3 139 138 3
3 137 138 139
3 140 34 141
3 142 4 143
3 144 143 34
3 142 143 144
3 145 19 146
3 147 146 4
3 145 146 147
3 148 19 149
3 151 150 19
3 35 36 0
3 37 36 35
3 37 6 36
3 13 37 5
3 38 37 13
3 38 6 37
3 38 22 6
3 39 22 38
3 39 2 22
3 39 40 2
3 41 40 39
3 41 8 40
3 15 41 7
3 42 41 15
3 42 8 41
3 42 29 8
3 32 29 42
3 32 1 29
3 152 0 153
3 43 154 155
3 43 156 158
3 156 0 157
3 156 157 158
3 43 35 0
3 159 35 160
3 161 160 43
3 159 160 161
3 162 5 163
3 164 163 35
3 162 163 164
3 165 5 166
3 168 167 5
3 44 169 170
3 45 171 173
3 173 172 44
3 171 172 173
3 45 174 175
3 176 45 177
3 178 177 9
3 176 177 178
3 179 45 180
3 182 181 45
3 33 18 1
3 46 18 33
3 46 183 185
3 185 184 18
3 183 184 185
3 20 46 4
3 47 46 20
3 47 186 188
3 188 187 46
3 186 187 188
3 47 189 190
3 192 191 47
3 36 193 195
3 195 194 0
3 193 194 195
3 48 196 198
3 198 197 36
3 196 197 198
3 48 199 200
3 23 48 6
3 201 48 202
3 203 202 23
3 201 202 203
3 205 204 48
3 25 206 207
3 209 208 25
3 210 44 211
3 49 212 214
3 212 44 213
3 212 213 214
3 49 9 44
3 27 49 10
3 50 49 27
3 50 9 49
3 50 16 9
3 51 16 50
3 51 215 217
3 217 216 16
3 215 216 217
3 40 28 2
3 52 28 40
3 52 11 28
3 30 52 8
3 53 52 30
3 53 11 52
3 53 51 11
3 54 51 53
3 54 218 220
3 220 219 51
3 218 219 220
3 54 221 222
3 224 223 54
3 226 225 12
