ply
format ascii 1.0
element vertex 793
property float x
property float y
property float z
element face 912
property list uchar int vertex_index
end_header
22.46456 -10.954228 78.462555
36.689293 -9.648259 70.498962
37.243225 -24.777103 66.05764
30.329344 -49.452221 68.779091
52.091652 -19.008293 56.872948
42.395203 -34.521881 67.832436
23.415022 -18.025434 81.029602
29.370289 -11.074526 74.989655
31.128767 -18.358324 75.43779
41.651611 -29.761972 69.822632
35.379749 -36.983078 74.782715
34.451332 -42.006218 67.993462
58.108303 -26.096977 50.846519
41.89978 -8.213974 63.732353
40.808754 -16.210903 59.916786
36.762657 -17.477049 68.136894
58.328865 -18.218994 51.321281
53.936371 -24.515652 57.175278
44.519409 -21.862654 61.553848
48.95303 -26.159466 64.528397
46.994091 -32.164223 59.064026
38.970741 -40.016441 58.660324
23.222149 -14.185778 80.293137
25.543148 -11.206358 76.913864
27.072344 -14.725813 78.554253
34.296852 -34.562057 74.954056
31.6129 -40.1651 75.574692
55.070618 -29.388882 52.214859
39.562233 -8.820432 67.47496
39.41766 -12.805782 66.150124
37.278233 -13.432888 70.097816
30.400969 -22.241596 73.209053
55.470444 -18.28964 54.196777
56.425415 -21.19733 54.716339
53.917336 -21.361418 58.067551
39.034752 -20.555462 62.888962
41.92025 -19.441851 59.774475
40.813141 -23.475561 63.753265
42.862103 -32.05809 70.150787
45.60807 -27.928055 67.509773
46.088963 -30.360872 66.730743
48.642082 -28.939919 62.730072
44.875946 -33.110538 63.477745
42.9142 -36.12851 58.937027
40.735016 -37.146191 63.534851
31.657032 -45.63134 68.077118
33.739655 -44.72805 63.486992
33.222256 -10.494011 72.91507
34.461487 -14.10248 73.448997
30.963402 -14.61558 76.239906
27.405277 -18.440571 78.485245
35.03772 -28.657616 69.518356
39.346733 -27.46789 67.772949
37.178192 -31.211039 71.629646
38.889961 -33.557648 72.852562
39.256195 -35.930672 71.659302
38.286774 -38.385384 68.101311
35.267776 -39.451599 72.171425
31.648367 -42.846184 72.116562
60.704067 -22.964016 48.54068
41.201832 -12.307315 61.738861
38.783382 -16.880148 64.042519
36.391045 -21.40415 66.242027
34.282776 -17.989424 71.975052
33.607895 -21.950439 69.720276
33.667934 -25.593773 68.581589
60.74456 -18.809645 48.370758
58.585106 -21.789787 51.452217
55.960098 -24.972113 53.670197
52.786957 -28.408407 54.911247
48.347851 -20.268467 59.305489
43.477024 -25.765564 65.956062
47.361847 -23.895676 63.811035
50.885963 -22.311752 61.173759
51.688416 -24.924677 60.963203
50.761421 -28.222511 58.584915
49.136597 -32.040131 55.255493
36.793819 -40.977081 63.37014
21.314213 -11.656565 79.681465
22.857235 -12.414726 79.385178
21.433544 -13.541163 80.827202
23.824293 -11.110392 77.784103
24.5707 -12.779553 78.728569
53.396317 -31.08157 52.535004
38.20293 -9.215829 69.075188
38.484566 -11.119818 68.86132
37.176491 -11.497757 70.551659
35.794418 -7.864812 69.955078
37.513924 -7.388912 68.806541
39.103241 -6.938961 67.500786
53.841446 -18.572556 55.564995
54.760918 -19.774834 56.234444
53.223213 -20.098703 57.716934
38.17387 -22.696136 64.443199
39.744129 -22.115053 63.067017
39.017708 -24.181576 64.883698
42.830807 -33.268951 69.311844
44.568878 -31.206131 68.529037
44.327061 -32.469212 67.407089
45.651001 -31.70142 65.358574
43.7033 -33.787464 65.698395
42.821236 -35.155731 63.565598
41.651199 -35.812843 65.846542
30.810083 -47.512062 68.340019
31.80183 -47.067959 66.112602
31.322508 -10.833401 73.977875
32.244202 -12.59058 74.696312
30.342169 -12.829842 75.842339
25.406601 -16.406157 79.921532
27.396011 -16.558195 78.78112
25.421875 -18.310133 79.831558
28.117023 -9.301407 73.850906
30.077127 -9.074579 72.890137
33.751923 -30.426067 71.354355
36.081745 -29.981159 70.547829
34.799797 -31.715652 72.430641
34.988178 -35.769981 75.180916
36.656994 -34.128708 73.964294
37.204872 -35.316303 73.966263
39.265152 -34.734894 72.59343
37.405216 -36.514107 73.309113
37.267628 -37.726906 72.020645
35.458141 -38.20911 73.750282
31.675447 -41.493305 73.992249
30.045753 -43.175598 73.945427
30.228975 -44.601776 72.081215
59.459484 -24.510048 49.80275
41.610519 -10.254151 62.819717
38.134552 -15.145956 67.207214
39.071404 -14.859805 65.088989
37.804855 -17.18796 66.109741
37.61174 -19.166479 65.146973
36.474201 -19.486027 67.05883
32.944874 -16.265442 74.570473
34.510033 -16.015888 72.918915
32.79023 -18.198721 73.756584
32.066177 -22.124741 71.469337
31.815758 -24.027348 70.497749
33.485046 -23.83465 68.911827
31.823824 -25.830147 69.942795
32.162319 -27.50206 69.925568
30.091436 -27.692707 71.126503
27.984617 -52.497692 73.269493
57.680912 -16.751846 50.702782
59.13736 -16.794682 49.358963
60.473129 -16.997902 47.98114
59.579269 -18.434904 49.846413
59.712669 -20.281416 50.006386
58.608894 -19.897255 51.548759
55.264793 -22.8057 56.075172
56.31789 -22.984755 54.328918
54.954742 -24.643223 55.356537
54.441307 -26.659859 54.412704
53.434685 -26.38516 56.128319
41.865334 -14.050834 58.503204
41.974495 -15.850835 57.927589
43.091221 -20.738636 60.481239
43.539734 -18.828226 58.329704
44.895638 -20.005196 59.2565
46.777252 -19.287033 58.061226
46.427422 -21.04141 60.445419
40.56205 -28.636909 68.894775
41.437443 -26.664696 66.890205
42.680538 -27.770208 67.975349
47.359352 -27.003759 66.104446
46.603264 -25.875124 65.781273
48.383499 -24.969212 64.462479
49.177891 -23.042046 62.557503
50.029877 -24.170927 62.988708
51.535759 -23.528503 61.374893
50.39238 -25.451563 62.801819
47.913754 -30.504757 61.043564
49.736214 -28.473923 60.63855
48.938499 -30.178356 58.924652
49.955383 -30.076591 56.944168
48.038651 -31.987366 57.04158
47.195 -33.895233 55.171349
46.048496 -33.914219 56.987251
40.891624 -38.081917 58.786522
42.035076 -37.766525 56.642502
36.284836 -40.212185 68.059685
37.541039 -39.656113 65.794769
35.666515 -41.504307 65.725632
23.428865 -16.074463 80.892273
21.424536 -17.552452 82.046425
21.503609 -15.518735 81.655167
27.421778 -11.199527 75.969597
28.387278 -12.955164 76.90284
26.440247 -12.94502 77.875275
25.113789 -14.555941 79.514755
32.647766 -36.100311 76.264832
33.205864 -37.335327 76.096657
33.486263 -38.584969 75.307137
31.37825 -38.862297 76.707626
56.644669 -27.724815 51.653351
40.784019 -8.483144 65.691444
40.660179 -10.489514 64.979088
39.634266 -10.779253 67.00058
38.418888 -13.105713 68.194633
37.08989 -15.439809 69.230728
29.036715 -20.368149 76.095001
30.810778 -20.297579 74.40139
40.561768 -6.544082 66.011993
56.965302 -18.170078 52.777367
57.437054 -19.676702 53.120567
56.162548 -19.633778 54.692825
55.230865 -21.179045 56.402512
54.137283 -22.833347 57.868568
39.888279 -18.384914 61.381393
41.142555 -17.932272 59.578133
40.426285 -20.024649 61.296227
41.376003 -21.453135 61.748253
42.645302 -22.689035 62.649742
42.455017 -30.89217 70.299713
43.702564 -28.868473 68.744095
44.3592 -30.006144 68.971375
46.086784 -29.100861 67.462128
47.638496 -28.239887 65.775925
49.02536 -27.485329 63.936462
47.437927 -29.585537 64.782295
46.833199 -31.027588 63.215057
45.956501 -32.551651 61.238892
44.968853 -34.153587 59.049736
43.91013 -34.583321 61.272415
41.833191 -36.580666 61.200508
39.796051 -38.538712 61.084892
32.883396 -43.802559 67.977005
34.038551 -43.339378 65.718475
32.735115 -45.187748 65.833504
35.022724 -10.086648 71.767967
35.693768 -11.89001 72.075516
34.04147 -12.265952 73.448921
32.784863 -14.393986 74.907928
31.212713 -16.457958 76.096573
29.041487 -14.735909 77.455772
29.34803 -16.565315 77.501038
29.32176 -18.447315 77.01593
27.149038 -20.359837 77.714188
33.960335 -8.329572 70.986176
29.706347 -47.945576 70.429878
29.293242 -49.920238 70.845833
36.202892 -26.771032 67.747589
38.185856 -26.19779 66.743217
37.211697 -28.137871 68.638275
38.35725 -29.383043 69.739868
39.470097 -30.554964 70.77285
35.817806 -32.937569 73.38868
38.162308 -32.390827 72.479324
40.383335 -31.701414 71.460632
40.965683 -32.857643 71.588837
41.14447 -34.040916 71.043961
40.918907 -35.253731 69.829651
40.355122 -36.494621 68.046585
38.899784 -37.146729 70.115089
36.858864 -38.957451 70.21595
34.896088 -40.714516 70.195831
33.514061 -39.853603 73.956093
33.359318 -41.143066 72.176132
33.117012 -42.457104 70.131233
31.618814 -44.224731 70.103653
30.472633 -46.048378 70.186607
40.872406 -14.31551 60.697418
40.325024 -12.539835 63.987076
39.961788 -14.583557 62.90654
39.763172 -16.554255 61.966667
38.729599 -18.798546 63.245987
37.706028 -21.018171 64.542137
36.632248 -23.178368 65.878204
35.962883 -13.772625 71.848923
35.890503 -15.734175 71.138321
35.601364 -17.745731 70.098167
32.444679 -20.165968 72.641846
33.925884 -19.98457 70.823875
35.260345 -19.758011 68.957817
35.039471 -21.712959 67.973221
35.081257 -23.555988 67.369568
35.467754 -25.247389 67.287697
34.197739 -27.202244 68.802971
32.829716 -29.030914 70.44104
62.862076 -17.866926 45.152138
61.707863 -17.358711 46.576607
61.854286 -19.328312 46.9086
60.785202 -20.808571 48.515358
59.631714 -22.318983 49.943726
58.374054 -23.870424 51.166107
57.530323 -21.407135 53.052917
57.339336 -23.349846 52.680267
56.99836 -25.470268 52.160301
55.498596 -27.120522 52.913208
53.877571 -28.817524 53.423317
52.147087 -30.55335 53.701813
42.533081 -17.450302 57.858131
50.248459 -19.580956 58.118263
40.155163 -25.489367 65.768387
42.116871 -24.67169 64.797333
44.071686 -23.786776 63.802208
44.698505 -26.829813 66.946785
45.456108 -24.822803 64.938393
46.012554 -22.8862 62.756065
47.923576 -22.023354 61.635956
49.781013 -21.246687 60.425781
51.556637 -20.595551 59.118431
52.469315 -21.743126 59.669441
52.901531 -23.076063 59.653099
52.860241 -24.608337 59.066368
50.267136 -26.890858 61.986832
51.391415 -26.496675 59.98716
52.43335 -26.326355 58.00927
51.762856 -28.202045 56.650764
51.011017 -30.206625 55.182426
50.327232 -32.31831 53.772797
44.029629 -35.842758 56.834442
39.567932 -37.766365 65.857735
38.696499 -39.082054 63.447945
37.877827 -40.464439 60.988922
35.115799 -42.852165 63.364845
22.638785 -10.244208 77.720508
21.905763 -10.386159 78.340511
21.905763 -10.386159 78.340511
21.330589 -10.737327 78.949967
21.889387 -11.305397 79.07201
23.144427 -11.03231 78.123329
23.318652 -10.32229 77.381282
22.638785 -10.244208 77.720508
53.242611 -32.253069 52.182285
52.517914 -31.938236 52.58313
30.238181 -50.451011 69.073262
30.660537 -50.201144 67.978832
52.966549 -18.790425 56.218972
53.19619 -18.042611 55.032123
52.321293 -18.26048 55.6861
30.783797 -49.220411 67.673893
31.024167 -48.250332 67.454357
30.569713 -48.482141 68.559555
30.660537 -50.201144 67.978832
30.783797 -49.220411 67.673893
22.28804 -18.819899 81.483017
23.294747 -19.01809 80.846332
23.294747 -19.01809 80.846332
24.298174 -19.16044 80.24731
24.418449 -18.167783 80.43058
33.579939 -31.895828 72.821624
34.27586 -31.070859 71.892498
33.056002 -31.251036 72.283481
29.183747 -43.316168 74.787128
29.952303 -42.474539 74.798694
29.379246 -44.057476 73.927448
29.183747 -43.316168 74.787128
58.710066 -26.453072 50.282719
59.385657 -25.659608 49.760834
58.783894 -25.303513 50.324635
41.75515 -9.234063 63.276035
42.280429 -9.132938 62.219276
42.42506 -8.112849 62.675594
30.869196 -25.002031 70.934722
30.936692 -24.087927 71.308742
30.873229 -25.90343 70.657246
31.819791 -24.928748 70.220272
30.869196 -25.002031 70.934722
30.007035 -26.83471 71.249099
30.95763 -26.761427 70.534649
30.873229 -25.90343 70.657246
42.525036 -7.095999 63.096103
41.901241 -7.217982 64.031185
42.42506 -8.112849 62.675594
42.525036 -7.095999 63.096103
39.547842 -39.851387 57.566631
40.508284 -38.884125 57.62973
39.931182 -39.049179 58.723423
38.667072 -40.811786 57.522484
39.547842 -39.851387 57.566631
20.545162 -14.115561 81.507274
20.589321 -13.043294 80.963818
25.878768 -10.315931 75.882981
24.985037 -10.341527 76.404606
26.482463 -11.202942 76.441731
26.818083 -10.312516 75.410847
25.878768 -10.315931 75.882981
31.782228 -36.842599 76.770901
31.433431 -36.213855 76.757855
32.061278 -37.460107 76.686813
32.926815 -36.717819 76.180745
31.782228 -36.842599 76.770901
31.147471 -38.223592 76.992298
32.292057 -38.098812 76.402141
32.061278 -37.460107 76.686813
55.729134 -29.730518 51.745914
56.51616 -28.898485 51.46516
55.857644 -28.556849 51.934105
28.826255 -21.334314 75.512585
27.882458 -21.330466 76.359142
55.781811 -17.57722 53.102142
54.923746 -17.706408 53.73431
56.217873 -18.229859 53.487072
56.52924 -17.51744 52.392437
55.781811 -17.57722 53.102142
32.259071 -46.843908 64.943557
31.92926 -47.801302 65.17606
20.299646 -18.291421 82.537731
20.454051 -17.203798 82.449661
33.591296 -9.411791 71.950623
33.000695 -8.536791 71.467232
32.631655 -9.619011 72.431679
29.088887 -48.157446 71.400509
29.435473 -47.192043 71.289428
35.057329 -33.749813 74.171368
34.598943 -33.139111 73.806793
33.838466 -33.951355 74.589482
29.818615 -46.243444 71.167793
30.350804 -45.325077 71.133911
29.696787 -45.520144 72.115097
29.435473 -47.192043 71.289428
30.08949 -46.996977 70.308243
29.818615 -46.243444 71.167793
61.260506 -23.329074 47.888729
61.279425 -22.208932 47.813319
41.655968 -12.20435 60.592796
41.870749 -11.187496 61.147637
41.037119 -13.311412 61.218139
41.491255 -13.208448 60.072075
41.655968 -12.20435 60.592796
31.71133 -29.154404 70.934887
32.496017 -28.266487 70.183304
31.377632 -28.389976 70.677151
32.106836 -29.881706 71.316074
31.71133 -29.154404 70.934887
29.222414 -50.943216 71.124283
28.701262 -50.156503 71.80146
28.570994 -53.284752 72.648891
27.975711 -53.582884 73.550194
62.746493 -16.891627 44.903137
63.347012 -17.141636 44.212235
43.810023 -17.889059 57.283844
44.413674 -18.517474 57.645882
48.527804 -19.441869 58.092918
47.742504 -18.951152 57.470787
47.562551 -19.77775 58.683357
49.298155 -19.924712 58.711876
49.478108 -19.098114 57.499305
48.527804 -19.441869 58.092918
48.790917 -33.071999 54.464211
49.386234 -33.211089 53.722862
49.731915 -32.17922 54.514145
46.864699 -34.90011 54.310825
46.209912 -34.828755 55.076065
42.653188 -37.701931 55.692238
41.710295 -38.6441 55.579529
20.576594 -11.031871 79.674675
20.529655 -12.100995 80.390949
20.576594 -11.031871 79.674675
21.330589 -10.737327 78.949967
20.529655 -12.100995 80.390949
20.589321 -13.043294 80.963818
21.373879 -12.598864 80.254334
24.12561 -10.293544 76.839726
23.318652 -10.32229 77.381282
24.68372 -11.158375 77.348984
24.985037 -10.341527 76.404606
24.12561 -10.293544 76.839726
54.087023 -31.411683 52.105556
54.924174 -30.565339 51.945484
54.233468 -30.235226 52.374932
54.087023 -31.411683 52.105556
53.242611 -32.253069 52.182285
36.113875 -6.732518 69.041207
35.166544 -6.980427 69.49316
36.973628 -6.494568 68.466938
36.113875 -6.732518 69.041207
36.654171 -7.626862 69.380809
37.874989 -6.249878 67.956932
36.973628 -6.494568 68.466938
38.308582 -7.163937 68.153663
38.669647 -6.024902 67.304055
37.874989 -6.249878 67.956932
54.109247 -17.847866 54.418419
53.19619 -18.042611 55.032123
54.655945 -18.431098 54.880886
54.923746 -17.706408 53.73431
54.109247 -17.847866 54.418419
31.520041 -48.028281 66.340649
31.305957 -47.290011 67.22631
31.024167 -48.250332 67.454357
31.92926 -47.801302 65.17606
31.520041 -48.028281 66.340649
25.302176 -19.279857 79.538143
26.293877 -19.345076 78.864987
26.413576 -18.375352 79.158401
25.302176 -19.279857 79.538143
24.298174 -19.16044 80.24731
28.361832 -8.274828 72.739482
27.39913 -8.373955 73.241718
29.341884 -8.161414 72.259098
28.361832 -8.274828 72.739482
29.097075 -9.187993 73.370521
30.331997 -8.012664 71.806492
29.341884 -8.161414 72.259098
31.059091 -8.909295 72.419213
30.331997 -8.012664 71.806492
31.681781 -9.788706 72.963082
31.059091 -8.909295 72.419213
30.699818 -9.95399 73.434006
32.272382 -10.663706 73.446472
32.631655 -9.619011 72.431679
31.681781 -9.788706 72.963082
30.767149 -41.633392 74.822105
31.644174 -40.829203 74.78347
30.735876 -40.96929 75.613327
30.8606 -42.334452 73.968838
30.767149 -41.633392 74.822105
29.952303 -42.474539 74.798694
29.470857 -44.770565 72.995342
30.137364 -43.888687 73.013321
29.379246 -44.057476 73.927448
29.696787 -45.520144 72.115097
29.470857 -44.770565 72.995342
60.037165 -24.870945 49.192234
60.659456 -24.097929 48.561199
60.081776 -23.737032 49.171715
60.037165 -24.870945 49.192234
59.385657 -25.659608 49.760834
42.075092 -10.160914 61.688064
42.280429 -9.132938 62.219276
41.406176 -11.280733 62.279289
41.870749 -11.187496 61.147637
42.075092 -10.160914 61.688064
31.061902 -23.136623 71.794536
31.233573 -22.183169 72.339195
30.229298 -23.195051 72.664395
31.940967 -23.076045 70.983543
31.061902 -23.136623 71.794536
30.936692 -24.087927 71.308742
30.342191 -28.4853 71.277619
31.377632 -28.389976 70.677151
31.126877 -27.597383 70.526036
27.377955 -51.68532 73.890434
28.04695 -51.445231 73.01329
27.312645 -52.771445 74.11586
27.377955 -51.68532 73.890434
27.975711 -53.582884 73.550194
27.312645 -52.771445 74.11586
58.018228 -16.047259 49.610554
57.180904 -16.103882 50.21291
58.746453 -16.068677 48.938645
58.018228 -16.047259 49.610554
58.409136 -16.773264 50.030873
59.520007 -16.08564 48.317288
58.746453 -16.068677 48.938645
59.805245 -16.896292 48.670051
60.187891 -16.18725 47.628376
59.520007 -16.08564 48.317288
42.427332 -13.916543 57.434506
42.484764 -12.980528 57.829773
42.481912 -14.816544 57.146698
42.427332 -13.916543 57.434506
41.919914 -14.950834 58.215396
42.635823 -15.662744 56.979042
42.481912 -14.816544 57.146698
45.091625 -19.105959 58.109279
44.413674 -18.517474 57.645882
44.217686 -19.416711 58.793102
45.836445 -19.646115 58.658863
46.032432 -18.746878 57.511643
45.091625 -19.105959 58.109279
45.63666 -34.838248 55.984016
46.209912 -34.828755 55.076065
46.621748 -33.904726 56.0793
41.08001 -38.726429 56.557721
41.46335 -37.924221 57.714512
40.508284 -38.884125 57.62973
41.710295 -38.6441 55.579529
41.08001 -38.726429 56.557721
34.228384 -44.501457 62.287773
33.671059 -45.456118 62.429024
20.493588 -16.186939 82.254032
20.454051 -17.203798 82.449661
21.464073 -16.535593 81.850796
20.580195 -15.104347 81.921257
21.468577 -14.529949 81.241185
20.545162 -14.115561 81.507274
20.493588 -16.186939 82.254032
20.580195 -15.104347 81.921257
27.165706 -9.363456 74.351501
27.39913 -8.373955 73.241718
27.7694 -10.250467 74.910251
27.165706 -9.363456 74.351501
26.818083 -10.312516 75.410847
33.070237 -34.71545 75.405014
33.838466 -33.951355 74.589482
32.245694 -35.484577 76.060402
31.433431 -36.213855 76.757855
33.472309 -35.331184 75.609444
33.070237 -34.71545 75.405014
32.245694 -35.484577 76.060402
30.272131 -38.961674 77.342831
31.147471 -38.223592 76.992298
30.483838 -39.631298 76.876419
30.272131 -38.961674 77.342831
30.601163 -40.282699 76.309952
31.495575 -39.513699 76.141159
30.483838 -39.631298 76.876419
30.735876 -40.96929 75.613327
30.601163 -40.282699 76.309952
57.273419 -28.074804 51.138138
58.005235 -27.260885 50.734722
57.376486 -26.910896 51.249935
57.273419 -28.074804 51.138138
56.51616 -28.898485 51.46516
55.729134 -29.730518 51.745914
54.924174 -30.565339 51.945484
29.713286 -21.299029 74.665779
29.923747 -20.332864 75.248196
28.826255 -21.334314 75.512585
29.508382 -22.271038 74.06961
30.605874 -21.269588 73.805222
29.713286 -21.299029 74.665779
29.304726 -23.224854 73.489792
29.508382 -22.271038 74.06961
30.229298 -23.195051 72.664395
29.304726 -23.224854 73.489792
39.517626 -5.801137 66.7136
38.669647 -6.024902 67.304055
40.24689 -5.603697 65.969203
39.517626 -5.801137 66.7136
39.832504 -6.741522 66.75639
41.039845 -5.413706 65.283794
40.24689 -5.603697 65.969203
41.232235 -6.383036 65.171005
41.039845 -5.413706 65.283794
41.343361 -7.352567 65.01073
41.232235 -6.383036 65.171005
40.672894 -7.513613 65.851719
41.341899 -8.348559 64.711899
41.901241 -7.217982 64.031185
41.343361 -7.352567 65.01073
56.887045 -16.808324 51.355144
57.180904 -16.103882 50.21291
57.323107 -17.460962 51.740074
56.887045 -16.808324 51.355144
56.52924 -17.51744 52.392437
32.725713 -45.903803 64.804009
32.268473 -46.127854 65.973053
32.259071 -46.843908 64.943557
33.227984 -45.673954 63.630752
33.237385 -44.957899 64.660248
32.725713 -45.903803 64.804009
33.671059 -45.456118 62.429024
33.227984 -45.673954 63.630752
21.292797 -18.583407 81.991428
22.28804 -18.819899 81.483017
22.419779 -17.788943 81.538014
21.292797 -18.583407 81.991428
20.299646 -18.291421 82.537731
26.93862 -21.32631 77.168735
27.882458 -21.330466 76.359142
28.092877 -20.363993 76.904595
26.165757 -20.304709 78.479458
27.277158 -19.400204 78.099716
26.293877 -19.345076 78.864987
25.957032 -21.281046 77.994572
26.165757 -20.304709 78.479458
26.93862 -21.32631 77.168735
25.957032 -21.281046 77.994572
33.269207 -7.444007 70.431042
33.000695 -8.536791 71.467232
34.249503 -7.212807 70.008709
33.269207 -7.444007 70.431042
34.877376 -8.097192 70.470627
35.166544 -6.980427 69.49316
34.249503 -7.212807 70.008709
28.882335 -49.144777 71.608486
29.499795 -48.932907 70.637856
29.088887 -48.157446 71.400509
28.701262 -50.156503 71.80146
28.882335 -49.144777 71.608486
51.36943 -18.512349 56.285473
52.321293 -18.26048 55.6861
34.089939 -32.528152 73.327774
33.579939 -31.895828 72.821624
35.308802 -32.326611 72.909661
34.089939 -32.528152 73.327774
34.598943 -33.139111 73.806793
61.260506 -23.329074 47.888729
60.659456 -24.097929 48.561199
58.710066 -26.453072 50.282719
58.005235 -27.260885 50.734722
41.987719 -13.07611 58.974968
42.484764 -12.980528 57.829773
41.36887 -14.183172 59.600311
41.987719 -13.07611 58.974968
41.491255 -13.208448 60.072075
32.567939 -30.579282 71.772732
33.290819 -29.72849 70.897697
32.106836 -29.881706 71.316074
33.056002 -31.251036 72.283481
32.567939 -30.579282 71.772732
29.038032 -27.746178 71.769741
30.007035 -26.83471 71.249099
29.212584 -28.559835 71.812637
29.038032 -27.746178 71.769741
30.342191 -28.4853 71.277619
29.212584 -28.559835 71.812637
29.72013 -50.68502 70.106632
30.238181 -50.451011 69.073262
29.811293 -49.686229 69.812462
29.72013 -50.68502 70.106632
29.222414 -50.943216 71.124283
28.568102 -52.231943 72.336113
28.04695 -51.445231 73.01329
28.568102 -52.231943 72.336113
28.570994 -53.284752 72.648891
63.405209 -18.186301 44.431916
63.347012 -17.141636 44.212235
62.895744 -18.918904 45.309645
63.405209 -18.186301 44.431916
60.898866 -16.28262 46.984802
60.187891 -16.18725 47.628376
61.516233 -16.463024 46.282536
60.898866 -16.28262 46.984802
61.090496 -17.178306 47.278874
62.169386 -16.637519 45.615372
61.516233 -16.463024 46.282536
62.28497 -17.612818 45.864373
62.746493 -16.891627 44.903137
62.169386 -16.637519 45.615372
62.391849 -19.649597 46.187876
62.895744 -18.918904 45.309645
62.358181 -18.597619 46.030369
61.854534 -20.39108 46.997279
62.391849 -19.649597 46.187876
61.319992 -21.13121 47.800657
61.854534 -20.39108 46.997279
61.319744 -20.068441 47.711979
60.744635 -21.886294 48.528019
61.279425 -22.208932 47.813319
61.319992 -21.13121 47.800657
51.893299 -31.674126 53.166534
52.517914 -31.938236 52.58313
52.771702 -30.81746 53.118409
42.915115 -16.462477 56.944313
42.635823 -15.662744 56.979042
42.253788 -16.650568 57.89286
43.306696 -17.200097 57.048057
43.036408 -18.139264 58.093918
43.810023 -17.889059 57.283844
42.915115 -16.462477 56.944313
43.306696 -17.200097 57.048057
46.961815 -18.443161 56.863404
46.032432 -18.746878 57.511643
46.961815 -18.443161 56.863404
47.742504 -18.951152 57.470787
50.447834 -18.79868 56.90813
49.478108 -19.098114 57.499305
51.170056 -19.294624 57.495605
51.36943 -18.512349 56.285473
50.447834 -18.79868 56.90813
50.983372 -32.556607 53.202027
51.893299 -31.674126 53.166534
51.23716 -31.43583 53.737305
50.075754 -33.420725 53.153908
50.983372 -32.556607 53.202027
50.075754 -33.420725 53.153908
49.386234 -33.211089 53.722862
47.820118 -33.99955 54.422139
48.790917 -33.071999 54.464211
48.165799 -32.967682 55.213421
47.820118 -33.99955 54.422139
46.864699 -34.90011 54.310825
44.627226 -35.802517 55.907612
45.63666 -34.838248 55.984016
45.039062 -34.878489 56.910847
43.650465 -36.740048 55.788208
43.032353 -36.804642 56.738472
42.653188 -37.701931 55.692238
44.627226 -35.802517 55.907612
43.650465 -36.740048 55.788208
34.916456 -43.563514 62.2267
34.427727 -43.790108 63.425919
34.228384 -44.501457 62.287773
35.637972 -42.611911 62.168911
34.916456 -43.563514 62.2267
36.476982 -41.674369 62.171559
35.954809 -41.914623 63.367492
35.637972 -42.611911 62.168911
37.018986 -41.418048 60.98095
37.335823 -40.72076 62.179531
36.476982 -41.674369 62.171559
37.551293 -41.202407 59.803157
37.018986 -41.418048 60.98095
38.097749 -40.978409 58.638858
38.424284 -40.24044 59.824623
37.551293 -41.202407 59.803157
38.667072 -40.811786 57.522484
38.097749 -40.978409 58.638858
3 0 316 317
3 0 318 320
3 320 319 78
3 318 319 320
3 0 78 79
3 0 79 81
3 0 321 323
3 321 81 322
3 321 322 323
3 325 324 83
3 1 86 84
3 1 88 87
3 1 84 88
3 3 326 327
3 4 328 330
3 328 90 329
3 328 329 330
3 4 92 90
3 2 95 93
3 5 98 96
3 5 100 98
3 5 102 100
3 3 331 333
3 333 332 103
3 331 332 333
3 3 334 335
3 6 336 337
3 7 107 105
3 6 110 108
3 6 338 340
3 340 339 110
3 338 339 340
3 7 112 111
3 7 105 112
3 341 115 342
3 343 342 113
3 341 342 343
3 10 118 116
3 10 120 118
3 10 122 120
3 344 124 345
3 347 346 124
3 12 348 350
3 350 349 126
3 348 349 350
3 13 351 353
3 351 127 352
3 351 352 353
3 15 130 128
3 15 132 130
3 8 135 133
3 354 137 355
3 356 139 357
3 358 357 137
3 356 357 358
3 359 141 360
3 361 360 139
3 359 360 361
3 13 362 363
3 13 364 365
3 16 144 143
3 16 146 144
3 16 148 146
3 17 151 149
3 17 153 151
3 14 155 154
3 18 158 156
3 18 160 158
3 9 163 161
3 19 166 164
3 19 168 166
3 19 170 168
3 20 173 171
3 20 175 173
3 20 177 175
3 21 366 368
3 368 367 178
3 366 367 368
3 21 369 370
3 11 182 180
3 22 185 183
3 372 371 80
3 23 188 186
3 22 189 82
3 22 183 189
3 23 373 374
3 23 375 377
3 375 186 376
3 375 376 377
3 378 190 379
3 380 191 381
3 382 381 190
3 380 381 382
3 383 193 384
3 385 384 191
3 383 384 385
3 27 386 388
3 388 387 194
3 386 387 388
3 28 197 195
3 30 198 85
3 30 199 198
3 390 389 200
3 28 202 89
3 28 195 202
3 32 391 392
3 32 393 395
3 393 203 394
3 393 394 395
3 32 205 203
3 34 206 91
3 34 207 206
3 35 210 208
3 37 211 94
3 37 212 211
3 38 215 213
3 40 216 97
3 40 217 216
3 40 219 217
3 42 220 99
3 42 221 220
3 42 223 221
3 44 224 101
3 44 225 224
3 45 228 226
3 397 396 104
3 399 398 184
3 47 231 229
3 49 232 106
3 49 233 232
3 24 234 187
3 50 235 109
3 50 236 235
3 50 237 236
3 47 400 402
3 400 238 401
3 400 401 402
3 47 229 238
3 404 403 239
3 51 243 241
3 53 244 114
3 53 245 244
3 25 405 407
3 405 246 406
3 405 406 407
3 54 247 117
3 54 248 247
3 54 249 248
3 55 250 119
3 55 251 250
3 55 253 251
3 57 254 121
3 57 255 254
3 26 256 192
3 58 257 123
3 58 258 257
3 58 259 258
3 408 260 409
3 410 409 125
3 408 409 410
3 411 239 412
3 413 412 260
3 411 412 413
3 59 414 415
3 60 416 417
3 60 418 420
3 418 261 419
3 418 419 420
3 29 262 196
3 61 263 129
3 61 264 263
3 61 265 264
3 62 266 131
3 62 267 266
3 48 268 230
3 63 269 134
3 63 270 269
3 31 271 201
3 64 272 136
3 64 273 272
3 64 274 273
3 65 275 138
3 65 276 275
3 65 277 276
3 421 278 422
3 423 422 140
3 421 422 423
3 425 424 278
3 427 426 240
3 429 428 142
3 430 279 431
3 66 280 145
3 66 281 280
3 66 282 281
3 67 283 147
3 67 284 283
3 33 285 204
3 68 286 150
3 68 287 286
3 68 288 287
3 69 289 152
3 69 290 289
3 36 291 209
3 433 432 157
3 70 434 436
3 436 435 159
3 434 435 436
3 70 437 439
3 437 292 438
3 437 438 439
3 52 293 242
3 71 294 162
3 71 295 294
3 39 296 214
3 72 297 165
3 72 298 297
3 72 299 298
3 73 300 167
3 73 301 300
3 73 302 301
3 74 303 169
3 74 304 303
3 41 305 218
3 75 306 172
3 75 307 306
3 75 308 307
3 76 309 174
3 76 310 309
3 76 440 442
3 442 441 310
3 440 441 442
3 444 443 176
3 43 311 222
3 446 445 179
3 56 312 252
3 77 313 181
3 77 314 313
3 46 315 227
3 78 447 448
3 450 449 78
3 79 80 22
3 78 80 79
3 78 451 453
3 453 452 80
3 451 452 453
3 81 82 23
3 79 82 81
3 79 22 82
3 81 454 455
3 81 456 458
3 456 23 457
3 456 457 458
3 83 459 461
3 461 460 27
3 459 460 461
3 463 462 83
3 84 85 28
3 86 85 84
3 86 30 85
3 87 464 465
3 88 466 468
3 468 467 87
3 466 467 468
3 88 469 470
3 88 471 473
3 471 89 472
3 471 472 473
3 84 89 88
3 84 28 89
3 90 474 475
3 90 476 478
3 476 32 477
3 476 477 478
3 90 91 32
3 92 91 90
3 92 34 91
3 93 94 35
3 95 94 93
3 95 37 94
3 96 97 38
3 98 97 96
3 98 40 97
3 98 99 40
3 100 99 98
3 100 42 99
3 100 101 42
3 102 101 100
3 102 44 101
3 103 104 45
3 479 104 480
3 481 480 103
3 479 480 481
3 483 482 104
3 105 106 47
3 107 106 105
3 107 49 106
3 108 109 24
3 110 109 108
3 110 50 109
3 110 484 486
3 486 485 50
3 484 485 486
3 488 487 110
3 111 489 490
3 112 491 493
3 493 492 111
3 491 492 493
3 112 494 495
3 112 496 497
3 105 498 500
3 500 499 112
3 498 499 500
3 105 501 503
3 501 47 502
3 501 502 503
3 113 114 51
3 115 114 113
3 115 53 114
3 116 117 25
3 118 117 116
3 118 54 117
3 118 119 54
3 120 119 118
3 120 55 119
3 120 121 55
3 122 121 120
3 122 57 121
3 504 123 505
3 506 505 26
3 504 505 506
3 124 507 509
3 507 123 508
3 507 508 509
3 124 58 123
3 124 125 58
3 510 125 511
3 512 511 124
3 510 511 512
3 514 513 125
3 126 515 517
3 517 516 59
3 515 516 517
3 519 518 126
3 127 520 521
3 127 522 524
3 522 60 523
3 522 523 524
3 128 129 29
3 130 129 128
3 130 61 129
3 130 131 61
3 132 131 130
3 132 62 131
3 133 134 48
3 135 134 133
3 135 63 134
3 525 136 526
3 527 526 31
3 525 526 527
3 137 528 530
3 528 136 529
3 528 529 530
3 137 64 136
3 137 138 64
3 139 138 137
3 139 65 138
3 139 140 65
3 141 140 139
3 141 531 533
3 533 532 140
3 531 532 533
3 534 142 535
3 536 142 537
3 539 538 142
3 143 540 541
3 144 542 544
3 544 543 143
3 542 543 544
3 144 545 546
3 144 547 549
3 547 145 548
3 547 548 549
3 146 145 144
3 146 66 145
3 146 147 66
3 148 147 146
3 148 67 147
3 149 150 33
3 151 150 149
3 151 68 150
3 151 152 68
3 153 152 151
3 153 69 152
3 154 550 551
3 155 552 554
3 554 553 154
3 552 553 554
3 155 555 556
3 156 157 36
3 158 157 156
3 158 557 559
3 559 558 157
3 557 558 559
3 158 560 562
3 560 159 561
3 560 561 562
3 160 159 158
3 160 70 159
3 161 162 52
3 163 162 161
3 163 71 162
3 164 165 39
3 166 165 164
3 166 72 165
3 166 167 72
3 168 167 166
3 168 73 167
3 168 169 73
3 170 169 168
3 170 74 169
3 171 172 41
3 173 172 171
3 173 75 172
3 173 174 75
3 175 174 173
3 175 76 174
3 175 176 76
3 177 176 175
3 177 563 565
3 565 564 176
3 563 564 565
3 178 179 43
3 566 179 567
3 568 567 178
3 566 567 568
3 570 569 179
3 180 181 56
3 182 181 180
3 182 77 181
3 572 571 46
3 183 184 6
3 185 184 183
3 185 573 575
3 575 574 184
3 573 574 575
3 80 185 22
3 576 185 577
3 578 577 80
3 576 577 578
3 580 579 185
3 186 187 7
3 188 187 186
3 188 24 187
3 82 188 23
3 189 188 82
3 189 24 188
3 189 108 24
3 183 108 189
3 183 6 108
3 581 111 582
3 186 583 585
3 583 111 584
3 583 584 585
3 186 7 111
3 586 25 587
3 190 588 589
3 190 590 592
3 590 25 591
3 590 591 592
3 190 116 25
3 191 116 190
3 191 10 116
3 191 192 10
3 193 192 191
3 193 26 192
3 593 193 594
3 595 193 596
3 597 26 598
3 599 598 193
3 597 598 599
3 601 600 26
3 194 602 604
3 604 603 12
3 602 603 604
3 606 605 194
3 608 607 27
3 195 196 13
3 197 196 195
3 197 29 196
3 85 197 28
3 198 197 85
3 198 29 197
3 198 128 29
3 199 128 198
3 199 15 128
3 200 201 8
3 609 201 610
3 611 610 200
3 609 610 611
3 612 31 613
3 614 613 201
3 612 613 614
3 615 31 616
3 618 617 31
3 89 619 620
3 202 621 623
3 623 622 89
3 621 622 623
3 202 624 625
3 202 626 627
3 195 628 630
3 630 629 202
3 628 629 630
3 195 631 633
3 631 13 632
3 631 632 633
3 634 143 635
3 203 636 638
3 636 143 637
3 636 637 638
3 203 16 143
3 203 204 16
3 205 204 203
3 205 33 204
3 91 205 32
3 206 205 91
3 206 33 205
3 206 149 33
3 207 149 206
3 207 17 149
3 208 209 14
3 210 209 208
3 210 36 209
3 94 210 35
3 211 210 94
3 211 36 210
3 211 156 36
3 212 156 211
3 212 18 156
3 213 214 9
3 215 214 213
3 215 39 214
3 97 215 38
3 216 215 97
3 216 39 215
3 216 164 39
3 217 164 216
3 217 19 164
3 217 218 19
3 219 218 217
3 219 41 218
3 99 219 40
3 220 219 99
3 220 41 219
3 220 171 41
3 221 171 220
3 221 20 171
3 221 222 20
3 223 222 221
3 223 43 222
3 101 223 42
3 224 223 101
3 224 43 223
3 224 178 43
3 225 178 224
3 225 21 178
3 226 227 11
3 228 227 226
3 228 46 227
3 104 228 45
3 639 228 640
3 641 640 104
3 639 640 641
3 642 46 643
3 644 643 228
3 642 643 644
3 646 645 46
3 184 647 649
3 649 648 6
3 647 648 649
3 651 650 184
3 229 230 1
3 231 230 229
3 231 48 230
3 106 231 47
3 232 231 106
3 232 48 231
3 232 133 48
3 233 133 232
3 233 8 133
3 187 107 7
3 234 107 187
3 234 49 107
3 109 234 24
3 235 234 109
3 235 49 234
3 235 233 49
3 236 233 235
3 236 8 233
3 236 200 8
3 237 200 236
3 237 652 654
3 654 653 200
3 652 653 654
3 655 237 656
3 657 656 50
3 655 656 657
3 658 237 659
3 661 660 237
3 238 662 663
3 238 664 665
3 238 666 668
3 666 87 667
3 666 667 668
3 229 87 238
3 229 1 87
3 239 240 3
3 669 240 670
3 671 670 239
3 669 670 671
3 673 672 240
3 674 4 675
3 241 242 2
3 243 242 241
3 243 52 242
3 114 243 51
3 244 243 114
3 244 52 243
3 244 161 52
3 245 161 244
3 245 9 161
3 676 115 677
3 246 678 680
3 678 115 679
3 678 679 680
3 246 53 115
3 117 246 25
3 247 246 117
3 247 53 246
3 247 245 53
3 248 245 247
3 248 9 245
3 248 213 9
3 249 213 248
3 249 38 213
3 119 249 54
3 250 249 119
3 250 38 249
3 250 96 38
3 251 96 250
3 251 5 96
3 251 252 5
3 253 252 251
3 253 56 252
3 121 253 55
3 254 253 121
3 254 56 253
3 254 180 56
3 255 180 254
3 255 11 180
3 192 122 10
3 256 122 192
3 256 57 122
3 123 256 26
3 257 256 123
3 257 57 256
3 257 255 57
3 258 255 257
3 258 11 255
3 258 226 11
3 259 226 258
3 259 45 226
3 125 259 58
3 260 259 125
3 260 45 259
3 260 103 45
3 239 103 260
3 239 3 103
3 682 681 59
3 684 683 12
3 685 154 686
3 261 687 689
3 687 154 688
3 687 688 689
3 261 14 154
3 196 127 13
3 262 127 196
3 262 60 127
3 129 262 29
3 263 262 129
3 263 60 262
3 263 261 60
3 264 261 263
3 264 14 261
3 264 208 14
3 265 208 264
3 265 35 208
3 131 265 61
3 266 265 131
3 266 35 265
3 266 93 35
3 267 93 266
3 267 2 93
3 230 86 1
3 268 86 230
3 268 30 86
3 134 268 48
3 269 268 134
3 269 30 268
3 269 199 30
3 270 199 269
3 270 15 199
3 201 135 8
3 271 135 201
3 271 63 135
3 136 271 31
3 272 271 136
3 272 63 271
3 272 270 63
3 273 270 272
3 273 15 270
3 273 132 15
3 274 132 273
3 274 62 132
3 138 274 64
3 275 274 138
3 275 62 274
3 275 267 62
3 276 267 275
3 276 2 267
3 276 241 2
3 277 241 276
3 277 51 241
3 140 277 65
3 278 277 140
3 278 51 277
3 278 113 51
3 690 113 691
3 692 691 278
3 690 691 692
3 694 693 113
3 695 141 696
3 697 141 698
3 700 699 141
3 240 701 703
3 703 702 3
3 701 702 703
3 705 704 240
3 142 706 707
3 709 708 142
3 279 710 711
3 279 712 713
3 145 714 715
3 280 716 718
3 718 717 145
3 716 717 718
3 280 719 720
3 280 721 723
3 721 279 722
3 721 722 723
3 281 279 280
3 281 724 726
3 726 725 279
3 724 725 726
3 281 727 728
3 282 729 731
3 731 730 281
3 729 730 731
3 282 732 734
3 732 59 733
3 732 733 734
3 147 282 66
3 283 282 147
3 283 59 282
3 283 126 59
3 284 126 283
3 284 12 126
3 204 148 16
3 285 148 204
3 285 67 148
3 150 285 33
3 286 285 150
3 286 67 285
3 286 284 67
3 287 284 286
3 287 12 284
3 287 194 12
3 288 194 287
3 288 27 194
3 152 288 68
3 289 288 152
3 289 27 288
3 289 83 27
3 290 83 289
3 290 735 737
3 737 736 83
3 735 736 737
3 209 155 14
3 291 155 209
3 291 738 740
3 740 739 155
3 738 739 740
3 157 291 36
3 741 291 742
3 743 742 157
3 741 742 743
3 745 744 291
3 159 746 747
3 749 748 159
3 292 750 751
3 292 752 754
3 752 4 753
3 752 753 754
3 242 95 2
3 293 95 242
3 293 37 95
3 162 293 52
3 294 293 162
3 294 37 293
3 294 212 37
3 295 212 294
3 295 18 212
3 214 163 9
3 296 163 214
3 296 71 163
3 165 296 39
3 297 296 165
3 297 71 296
3 297 295 71
3 298 295 297
3 298 18 295
3 298 160 18
3 299 160 298
3 299 70 160
3 167 299 72
3 300 299 167
3 300 70 299
3 300 292 70
3 301 292 300
3 301 4 292
3 301 92 4
3 302 92 301
3 302 34 92
3 169 302 73
3 303 302 169
3 303 34 302
3 303 207 34
3 304 207 303
3 304 17 207
3 218 170 19
3 305 170 218
3 305 74 170
3 172 305 41
3 306 305 172
3 306 74 305
3 306 304 74
3 307 304 306
3 307 17 304
3 307 153 17
3 308 153 307
3 308 69 153
3 174 308 75
3 309 308 174
3 309 69 308
3 309 290 69
3 310 290 309
3 310 755 757
3 757 756 290
3 755 756 757
3 310 758 759
3 761 760 310
3 176 762 764
3 764 763 76
3 762 763 764
3 766 765 176
3 222 177 20
3 311 177 222
3 311 767 769
3 769 768 177
3 767 768 769
3 179 311 43
3 770 311 771
3 772 771 179
3 770 771 772
3 774 773 311
3 252 102 5
3 312 102 252
3 312 44 102
3 181 312 56
3 313 312 181
3 313 44 312
3 313 225 44
3 314 225 313
3 314 21 225
3 227 182 11
3 315 182 227
3 315 77 182
3 775 315 776
3 777 776 46
3 775 776 777
3 778 315 779
3 780 77 781
3 782 781 315
3 780 781 782
3 783 314 784
3 785 784 77
3 783 784 785
3 786 314 787
3 788 21 789
3 790 789 314
3 788 789 790
3 792 791 21
