ply
format ascii 1.0
element vertex 88
property float x
property float y
property float z
element face 70
property list uchar int vertex_index
end_header
4.698549 -34.067749 51.210289
4.010357 -26.638889 50.960297
5.396347 -28.944668 53.726494
2.937452 -25.450813 49.816277
4.91507 -37.549416 51.56797
5.60458 -30.064388 55.424484
4.987148 -25.160757 53.725662
4.38982 -30.424147 51.010788
3.671904 -33.021282 49.971573
3.32955 -29.304409 49.835648
5.487234 -35.092785 52.636795
5.736694 -32.596169 53.910118
5.213333 -31.521553 52.35331
4.852972 -27.80299 52.246521
4.322489 -35.323206 50.723431
4.430749 -37.064039 50.902271
4.806809 -35.808582 51.38913
2.528587 -26.806815 49.286774
2.331996 -24.844266 49.279411
3.243482 -34.306139 49.509358
3.079516 -32.488488 49.412906
5.734421 -35.593447 53.464008
5.568939 -36.795915 52.868752
4.709066 -24.561272 53.011074
4.761311 -23.216283 53.800476
3.259929 -24.095282 50.425945
3.473904 -26.044851 50.388287
3.796381 -24.689321 50.997956
2.725934 -23.470927 49.852718
3.259929 -24.095282 50.425945
2.120478 -22.86438 49.315853
2.331996 -24.844266 49.279411
2.725934 -23.470927 49.852718
4.525158 -38.756087 51.100341
4.967144 -39.203072 51.82394
4.525158 -38.756087 51.100341
4.430749 -37.064039 50.902271
5.351427 -28.781118 56.303543
5.541533 -30.613031 56.381771
5.407591 -28.201797 55.388572
5.351427 -28.781118 56.303543
5.303475 -27.641937 54.539578
5.500464 -29.504528 54.575489
5.407591 -28.201797 55.388572
5.098875 -25.749982 54.539161
5.191747 -27.052712 53.726078
5.303475 -27.641937 54.539578
4.880479 -23.827881 54.590958
5.098875 -25.749982 54.539161
4.761311 -23.216283 53.800476
4.880479 -23.827881 54.590958
2.908339 -30.630052 49.344944
3.079516 -32.488488 49.412906
3.500727 -31.162845 49.90361
2.724636 -28.733613 49.296459
3.133501 -27.377611 49.825963
2.528587 -26.806815 49.286774
2.908339 -30.630052 49.344944
2.724636 -28.733613 49.296459
3.809166 -34.799972 50.104073
4.322489 -35.323206 50.723431
4.185226 -33.544516 50.590931
3.809166 -34.799972 50.104073
3.243482 -34.306139 49.509358
5.282857 -38.024231 52.334339
4.967144 -39.203072 51.82394
5.334931 -39.677887 52.590309
5.201152 -36.321101 52.102383
5.282857 -38.024231 52.334339
5.568939 -36.795915 52.868752
5.766844 -31.855677 55.561611
5.541533 -30.613031 56.381771
5.832901 -33.121567 54.804428
5.766844 -31.855677 55.561611
5.670637 -31.330279 54.667301
5.859151 -34.345139 54.10067
5.832901 -33.121567 54.804428
5.611964 -33.844477 53.273456
5.734421 -35.593447 53.464008
5.859151 -34.345139 54.10067
4.641978 -25.882388 52.271504
4.92006 -26.481873 52.986092
4.709066 -24.561272 53.011074
4.22067 -25.300337 51.628391
4.431665 -27.22094 51.603409
4.641978 -25.882388 52.271504
3.796381 -24.689321 50.997956
4.22067 -25.300337 51.628391
3 0 14 16
3 16 15 4
3 14 15 16
3 1 9 7
3 18 17 3
3 20 19 8
3 21 10 22
3 2 11 5
3 2 12 11
3 2 13 12
3 24 23 6
3 25 3 26
3 27 26 1
3 25 26 27
3 28 3 29
3 32 31 3
3 30 31 32
3 4 33 34
3 36 35 4
3 37 5 38
3 39 5 40
3 41 2 42
3 43 42 5
3 41 42 43
3 44 6 45
3 46 45 2
3 44 45 46
3 47 6 48
3 50 49 6
3 7 8 0
3 9 8 7
3 9 51 53
3 53 52 8
3 51 52 53
3 3 9 1
3 54 9 55
3 56 55 3
3 54 55 56
3 58 57 9
3 8 59 61
3 61 60 0
3 59 60 61
3 63 62 8
3 64 4 65
3 64 65 66
3 10 67 69
3 67 4 68
3 67 68 69
3 10 0 4
3 5 70 71
3 11 72 74
3 74 73 5
3 72 73 74
3 11 75 76
3 11 77 79
3 77 10 78
3 77 78 79
3 12 10 11
3 12 0 10
3 12 7 0
3 13 7 12
3 13 1 7
3 6 13 2
3 80 13 81
3 82 81 6
3 80 81 82
3 83 1 84
3 85 84 13
3 83 84 85
3 87 86 1
