ply
format ascii 1.0
element vertex 184
property float x
property float y
property float z
element face 152
property list uchar int vertex_index
end_header
-34.106476 25.127125 -14.480883
-32.396568 26.775818 -22.018978
-34.252434 23.226307 -6.416525
-33.472126 25.975887 -18.314362
-32.146435 31.891373 -18.970425
-34.731621 20.79203 -22.605316
-33.035728 21.852268 -25.832771
-34.306053 24.249287 -10.504208
-30.905136 22.316425 -28.410999
-35.159904 21.442097 -14.623587
-34.938103 22.069637 -16.566959
-32.988007 26.391968 -20.186493
-34.074139 23.26189 -20.322968
-33.440079 23.787502 -22.121025
-33.945881 21.388481 -24.281963
-32.684067 24.230312 -23.838154
-35.248699 20.154736 -10.619518
-34.291706 23.764938 -8.467678
-33.846416 25.551323 -16.413515
-32.983654 28.799751 -16.623001
-32.635002 29.073414 -18.50935
-32.209167 29.373875 -20.390602
-34.576176 22.681282 -18.467892
-35.374302 20.091648 -20.833618
-36.179333 17.913265 -23.458317
-35.388798 18.686817 -25.117455
-34.254459 24.697659 -12.51111
-31.81464 32.152538 -20.846786
-31.689468 29.664555 -22.249889
-31.693306 27.099346 -23.780163
-31.813076 24.566544 -25.437744
-32.018246 22.163784 -27.221172
-34.672961 21.005571 -6.465646
-34.242725 22.921104 -5.394711
-34.716526 21.355823 -7.494663
-34.672961 21.005571 -6.465646
-34.27207 23.495622 -7.442101
-34.736162 21.625139 -8.52024
-34.716526 21.355823 -7.494663
-32.829352 30.203829 -15.96108
-33.11982 28.681975 -15.670786
-32.390718 30.482394 -18.739888
-32.529682 30.382984 -17.819332
-32.285398 31.791964 -18.049869
-33.745018 20.577955 -26.235254
-34.200094 20.346061 -25.45985
-33.490804 21.620374 -25.057367
-33.219461 20.794677 -26.909118
-33.745018 20.577955 -26.235254
-34.780254 22.52686 -11.571901
-35.251577 20.479584 -11.629556
-34.777376 22.202011 -10.561863
-34.280256 24.473473 -11.507659
-34.754458 22.751046 -12.575353
-34.780254 22.52686 -11.571901
-31.595595 32.280106 -21.780684
-31.828227 33.443979 -21.143245
-31.533009 31.036114 -22.482235
-31.752054 30.908546 -21.548338
-31.595595 32.280106 -21.780684
-31.279671 27.220979 -24.601029
-31.369935 28.506287 -23.908968
-31.339555 25.954579 -25.429819
-31.753191 25.832945 -24.608953
-31.279671 27.220979 -24.601029
-31.461691 22.240105 -27.816085
-31.423265 23.473371 -27.048706
-30.86671 23.549692 -27.643619
-31.583294 21.14505 -28.769357
-32.139849 21.068729 -28.174444
-31.461691 22.240105 -27.816085
-32.183061 33.025911 -18.380161
-32.285398 31.791964 -18.049869
-35.670627 19.973208 -15.853952
-35.754444 19.555796 -14.876037
-35.559727 20.286977 -16.825637
-35.670627 19.973208 -15.853952
-35.049003 21.755867 -15.595273
-35.398678 20.694468 -17.777864
-35.559727 20.286977 -16.825637
-35.214658 19.820038 -9.59616
-35.786055 18.072277 -10.854741
-34.770202 21.959837 -9.543598
-35.214658 19.820038 -9.59616
-34.736162 21.625139 -8.52024
-30.315193 23.597859 -28.261629
-30.86671 23.549692 -27.643619
-33.551201 27.057761 -15.566043
-33.976446 25.339224 -15.447199
-33.68123 26.845661 -14.599727
-33.415035 27.175537 -16.518258
-33.551201 27.057761 -15.566043
-33.11982 28.681975 -15.670786
-32.704008 30.246153 -16.876157
-32.829352 30.203829 -15.96108
-32.809328 28.936583 -17.566175
-32.704008 30.246153 -16.876157
-32.529682 30.382984 -17.819332
-33.94327 25.125076 -5.543181
-34.242725 22.921104 -5.394711
-33.930146 25.35173 -6.56707
-33.94327 25.125076 -5.543181
-35.217714 21.00029 -18.728331
-35.398678 20.694468 -17.777864
-34.757139 22.375459 -17.517426
-35.616777 19.705473 -19.911194
-35.217714 21.00029 -18.728331
-34.975239 21.386465 -19.650755
-36.08877 18.554994 -21.261788
-35.616777 19.705473 -19.911194
-36.491286 17.465803 -22.574137
-36.08877 18.554994 -21.261788
-35.776817 19.002457 -22.145968
-36.944944 16.59893 -24.032277
-36.491286 17.465803 -22.574137
-36.555632 17.081556 -24.871357
-36.944944 16.59893 -24.032277
-36.160365 17.468332 -25.700926
-36.555632 17.081556 -24.871357
-35.784065 18.300041 -24.287886
-35.687708 17.862 -26.464546
-36.160365 17.468332 -25.700926
-34.921553 18.99523 -25.877596
-34.667339 20.037649 -24.699709
-34.200094 20.346061 -25.45985
-35.687708 17.862 -26.464546
-34.921553 18.99523 -25.877596
-35.81678 18.492018 -11.873653
-35.786055 18.072277 -10.854741
-35.81678 18.492018 -11.873653
-35.251577 20.479584 -11.629556
-35.20718 21.123264 -13.631591
-35.754444 19.555796 -14.876037
-34.707181 23.069878 -13.567349
-35.20718 21.123264 -13.631591
-34.754458 22.751046 -12.575353
-33.949782 25.621046 -7.592646
-34.27207 23.495622 -7.442101
-33.930146 25.35173 -6.56707
-33.943428 25.79837 -8.616645
-33.949782 25.621046 -7.592646
-33.950601 26.040544 -9.63491
-34.298879 24.007112 -9.485943
-33.943428 25.79837 -8.616645
-33.929176 26.180684 -10.647358
-33.950601 26.040544 -9.63491
-33.903379 26.40487 -11.650809
-34.280256 24.473473 -11.507659
-33.929176 26.180684 -10.647358
-33.849838 26.521767 -12.643968
-33.903379 26.40487 -11.650809
-33.775847 26.7365 -13.628854
-34.180467 24.912392 -13.495997
-33.849838 26.521767 -12.643968
-33.68123 26.845661 -14.599727
-33.775847 26.7365 -13.628854
-32.105507 33.164221 -19.268446
-32.183061 33.025911 -18.380161
-31.93961 33.294804 -20.206626
-31.828227 33.443979 -21.143245
-31.980537 32.021956 -19.908606
-32.105507 33.164221 -19.268446
-31.93961 33.294804 -20.206626
-31.368016 29.788891 -23.143831
-31.533009 31.036114 -22.482235
-31.691387 28.381951 -23.015026
-31.368016 29.788891 -23.143831
-31.369935 28.506287 -23.908968
-31.320681 24.674751 -26.156992
-31.339555 25.954579 -25.429819
-31.915661 23.365164 -26.329458
-31.320681 24.674751 -26.156992
-31.423265 23.473371 -27.048706
-32.71072 20.950435 -27.603319
-33.219461 20.794677 -26.909118
-32.526987 22.008026 -26.526972
-32.71072 20.950435 -27.603319
-32.139849 21.068729 -28.174444
-30.303371 22.31693 -28.892414
-30.315193 23.597859 -28.261629
-30.977159 21.16583 -29.224711
-30.303371 22.31693 -28.892414
-31.583294 21.14505 -28.769357
-30.977159 21.16583 -29.224711
3 0 10 9
3 1 13 11
3 1 15 13
3 2 32 33
3 2 34 35
3 2 36 38
3 36 17 37
3 36 37 38
3 39 19 40
3 4 41 43
3 41 20 42
3 41 42 43
3 4 21 20
3 3 22 18
3 5 23 12
3 5 24 23
3 5 25 24
3 6 44 46
3 46 45 14
3 44 45 46
3 6 47 48
3 7 49 51
3 51 50 16
3 49 50 51
3 7 52 54
3 52 26 53
3 52 53 54
3 55 27 56
3 57 28 58
3 59 58 27
3 57 58 59
3 60 29 61
3 62 30 63
3 64 63 29
3 62 63 64
3 8 65 67
3 65 31 66
3 65 66 67
3 8 68 70
3 70 69 31
3 68 69 70
3 71 4 72
3 9 73 74
3 10 75 77
3 77 76 9
3 75 76 77
3 10 78 79
3 11 12 3
3 13 12 11
3 13 5 12
3 13 14 5
3 15 14 13
3 15 6 14
3 80 16 81
3 17 82 84
3 82 16 83
3 82 83 84
3 17 7 16
3 85 8 86
3 87 18 88
3 89 88 0
3 87 88 89
3 19 90 92
3 90 18 91
3 90 91 92
3 19 3 18
3 93 19 94
3 20 95 97
3 95 19 96
3 95 96 97
3 20 3 19
3 20 11 3
3 21 11 20
3 21 1 11
3 98 2 99
3 101 100 2
3 18 10 0
3 22 10 18
3 22 102 104
3 104 103 10
3 102 103 104
3 12 22 3
3 23 22 12
3 23 105 107
3 107 106 22
3 105 106 107
3 23 108 109
3 24 110 112
3 112 111 23
3 110 111 112
3 24 113 114
3 24 115 116
3 25 117 119
3 119 118 24
3 117 118 119
3 25 120 121
3 14 25 5
3 122 25 123
3 124 123 14
3 122 123 124
3 126 125 25
3 16 127 128
3 130 129 16
3 131 9 132
3 26 133 135
3 133 9 134
3 133 134 135
3 26 0 9
3 136 17 137
3 138 137 2
3 136 137 138
3 139 17 140
3 141 7 142
3 143 142 17
3 141 142 143
3 144 7 145
3 146 26 147
3 148 147 7
3 146 147 148
3 149 26 150
3 151 0 152
3 153 152 26
3 151 152 153
3 155 154 0
3 156 4 157
3 27 158 159
3 27 160 162
3 160 4 161
3 160 161 162
3 27 21 4
3 28 21 27
3 28 1 21
3 163 28 164
3 29 165 167
3 165 28 166
3 165 166 167
3 29 1 28
3 29 15 1
3 30 15 29
3 30 6 15
3 168 30 169
3 31 170 172
3 170 30 171
3 170 171 172
3 31 6 30
3 31 173 175
3 175 174 6
3 173 174 175
3 177 176 31
3 178 8 179
3 180 8 181
3 183 182 8
