ply
format ascii 1.0
element vertex 430
property float x
property float y
property float z
element face 384
property list uchar int vertex_index
end_header
3.192894 -40.244576 37.971535
-2.725733 -58.574894 3.758702
4.723461 -25.084797 37.464714
3.046612 -52.785965 29.880951
3.757061 -12.830784 42.970955
2.462662 -28.929787 43.979141
0.476433 -61.371796 11.594064
4.017384 -32.92202 37.802658
4.011803 -39.449402 34.321423
3.978996 -46.022102 30.342216
3.136776 -46.523685 34.175537
3.21386 -21.142952 43.495796
1.217978 -23.960777 46.138767
-0.713364 -38.516571 47.300755
3.069283 -57.761196 20.812439
5.401699 -16.63995 36.948887
3.799015 -52.224201 25.787231
2.697853 -58.594971 25.138893
5.184155 -1.042374 38.643288
4.04377 -4.138992 42.207451
4.910667 -10.009625 39.705956
4.44104 -18.657646 40.375229
3.839382 -26.777353 40.861496
3.071823 -34.331467 41.263725
0.270172 -31.449884 46.643745
-0.862133 -60.026714 7.517542
3.630524 -36.634125 37.913872
4.022568 -36.154709 36.117287
3.617298 -39.798775 36.159004
3.588432 -43.020531 34.285912
3.17057 -43.358307 36.134548
1.642076 -20.037386 45.945129
2.343479 -60.747829 20.512161
2.330906 -60.249744 18.306818
5.066624 -20.935589 37.236294
3.514465 -49.426018 30.147629
3.927025 -49.192596 28.134949
3.42997 -52.50161 27.873001
3.252007 -55.431549 25.479147
2.932961 -55.770447 27.554127
5.217308 3.471586 37.906189
4.64946 1.94058 39.833641
3.936943 -8.517729 42.63385
4.537235 -6.972989 40.983353
4.377815 -11.364208 41.386436
4.69479 -14.389691 40.075687
4.163116 -15.665376 41.710232
2.863323 -25.104591 43.735359
3.596458 -23.895987 42.23164
3.246899 -27.800407 42.468666
3.483055 -30.619305 41.074123
2.844929 -31.568207 42.697517
2.00246 -59.142323 13.872629
-0.121536 -60.717319 9.521282
4.375984 -29.078552 37.651333
4.408573 -32.391846 36.022694
3.998901 -42.75679 32.401527
3.556946 -46.248154 32.285236
3.100796 -49.685669 32.0914
2.981262 -14.384893 44.437149
3.513405 -17.047089 43.248566
2.682121 -18.512424 44.66563
2.32373 -22.520571 44.884933
1.915119 -26.399937 45.116684
-1.512281 -36.332756 48.211246
-1.920546 -39.770142 48.641415
2.223469 -59.71925 16.085974
0.935099 -61.9869 13.721338
3.535835 -55.085796 23.32888
2.914124 -58.185394 23.00584
4.068424 0.269915 41.666943
4.63121 -2.525732 40.472992
5.077934 -5.548539 39.237118
5.430576 -8.785883 37.942944
5.188644 -13.237591 38.363823
4.913696 -17.585131 38.693863
4.616852 -21.801647 38.960754
3.901299 -19.848764 41.98381
4.155952 -22.790695 40.630951
4.303017 -25.87068 39.186714
3.968147 -29.788769 39.384178
3.598518 -33.566368 39.553596
3.173855 -37.226517 39.684349
0.755756 -27.763966 46.368805
1.463142 -30.151714 45.370712
-0.224672 -35.028961 46.959145
0.973139 -33.787033 45.644089
2.66658 -46.868809 36.032234
2.64286 -49.991501 33.986065
2.615616 -53.095848 31.82575
2.55574 -56.119282 29.559422
-1.737247 -59.308796 5.594224
-3.261151 -58.205124 2.885957
-2.157884 -57.090056 3.742737
1.908173 -61.933994 19.289741
1.955215 -62.204535 20.37858
4.954193 -24.750733 36.581081
5.125775 -22.67613 36.466871
4.895043 -23.010193 37.350504
4.326437 3.306408 40.415191
4.616375 4.16497 39.443559
4.293352 5.530798 40.02511
3.847002 -10.674256 42.802402
3.57382 -9.337435 43.401896
3.483879 -11.493963 43.570448
1.058401 -59.941601 11.642722
1.821414 -58.826864 12.782005
1.239447 -60.257059 12.733346
0.177449 -61.044558 10.557673
0.759416 -59.614362 10.606331
1.058401 -59.941601 11.642722
-0.45523 -62.451723 10.555065
-0.754214 -62.124485 9.518674
0.177449 -61.044558 10.557673
4.219597 -37.611717 34.306792
4.224979 -35.964371 35.204724
4.017186 -37.802055 35.219355
4.228834 -39.312912 33.382733
4.219597 -37.611717 34.306792
4.005352 -41.103096 33.361475
4.222383 -40.966606 32.422785
4.228834 -39.312912 33.382733
2.496854 -15.192265 45.101921
2.647419 -13.123537 45.005035
2.347283 -17.256031 45.216161
2.831691 -16.448659 44.551389
2.496854 -15.192265 45.101921
-2.50281 -40.411812 49.326672
-2.359144 -38.720814 49.054127
3.115744 -57.532425 19.692192
3.430756 -56.236637 20.959593
1.743756 -61.142817 15.985847
2.277188 -59.984497 17.196396
1.797474 -61.408063 17.096269
1.099571 -62.276641 14.803529
1.579284 -60.853075 14.903656
1.743756 -61.142817 15.985847
0.38701 -63.364048 13.667894
1.099571 -62.276641 14.803529
5.68304 -16.231285 36.039724
5.55938 -14.429627 36.763317
4.213722 -45.921408 29.33303
4.219645 -44.28284 30.400829
4.084848 -50.592577 25.91168
4.148854 -49.076774 27.085539
3.86302 -50.708399 26.96109
3.986034 -52.077433 24.701608
4.084848 -50.592577 25.91168
3.667425 -53.654999 24.558056
3.854444 -53.50823 23.472433
3.986034 -52.077433 24.701608
2.482506 -59.912239 23.910642
2.590642 -59.707451 22.844115
2.805988 -58.390183 24.072367
5.471085 -0.375338 37.682637
5.487661 1.881642 37.314087
5.200731 1.214606 38.274738
5.404709 -2.653084 38.023304
5.471085 -0.375338 37.682637
3.731476 -2.827046 42.801529
3.701799 -4.997648 43.019795
4.056097 -1.934538 41.937197
3.743803 -0.622592 42.531275
3.731476 -2.827046 42.801529
0.512964 -29.606925 46.506275
0.095465 -28.470993 46.942169
-0.147327 -30.313952 47.079639
1.236646 -35.003033 45.054672
0.712485 -35.55582 45.783883
1.491191 -33.207552 44.935232
1.236646 -35.003033 45.054672
2.387672 -47.084124 36.949804
2.676443 -45.328642 36.995899
2.375579 -51.718571 33.856054
2.374867 -50.175503 34.918036
2.361956 -53.270744 32.775897
2.629238 -51.543674 32.905907
2.375579 -51.718571 33.856054
2.292116 -57.772278 29.386806
2.326874 -56.304675 30.533936
2.481667 -57.56214 28.383125
2.292116 -57.772278 29.386806
-0.235194 -58.56534 7.519261
0.123675 -58.927482 8.542145
-1.29969 -59.667755 6.555883
-0.672751 -58.206381 6.557602
-0.235194 -58.56534 7.519261
-1.960754 -61.128221 6.59624
-2.398312 -60.769262 5.634581
-1.29969 -59.667755 6.555883
1.248761 -18.843145 46.452446
1.82726 -18.018512 45.855911
1.027284 -20.818247 46.519657
1.248761 -18.843145 46.452446
0.815234 -22.779943 46.616476
1.430027 -21.999082 46.041948
1.027284 -20.818247 46.519657
1.901887 -61.684951 18.18707
2.337193 -60.498787 19.409489
1.908173 -61.933994 19.289741
1.797474 -61.408063 17.096269
1.901887 -61.684951 18.18707
5.323023 -20.563454 36.34485
5.49056 -18.415635 36.201147
5.234161 -18.787769 37.092591
5.323023 -20.563454 36.34485
5.125775 -22.67613 36.466871
4.900299 4.930473 38.479833
5.192419 5.71483 37.462086
4.933384 2.706083 38.869915
4.900299 4.930473 38.479833
4.616375 4.16497 39.443559
3.648386 -7.187016 43.232994
3.57382 -9.337435 43.401896
3.990356 -6.32836 42.420651
3.701799 -4.997648 43.019795
3.648386 -7.187016 43.232994
-0.391544 -32.127622 47.237143
-0.147327 -30.313952 47.079639
-0.130766 -37.920589 46.612216
-0.400496 -39.651762 46.746232
2.530357 -57.681382 13.955761
2.587046 -57.968342 15.088857
2.530357 -57.681382 13.955761
1.821414 -58.826864 12.782005
0.493973 -59.272785 9.544015
0.759416 -59.614362 10.606331
-0.491835 -60.372017 8.519412
0.123675 -58.927482 8.542145
0.493973 -59.272785 9.544015
-1.149402 -61.80485 8.54104
-1.519701 -61.459547 7.539169
-0.491835 -60.372017 8.519412
-1.149402 -61.80485 8.54104
-0.754214 -62.124485 9.518674
4.584706 -28.781166 36.767286
4.758444 -26.784288 36.673977
4.549722 -27.081674 37.558024
4.601 -30.437813 35.952967
4.584706 -28.781166 36.767286
4.392278 -30.735199 36.837013
4.63038 -32.177011 35.114775
4.601 -30.437813 35.952967
4.417982 -34.08294 35.157427
4.215571 -34.273277 36.069991
4.224979 -35.964371 35.204724
4.63038 -32.177011 35.114775
4.417982 -34.08294 35.157427
4.229597 -42.650185 31.430484
4.222383 -40.966606 32.422785
3.988949 -44.389446 31.371872
4.219645 -44.28284 30.400829
4.229597 -42.650185 31.430484
3.09598 -12.271017 44.303545
2.647419 -13.123537 45.005035
3.369162 -13.607838 43.704052
3.483879 -11.493963 43.570448
3.09598 -12.271017 44.303545
2.162098 -19.274905 45.30538
2.347283 -17.256031 45.216161
1.82726 -18.018512 45.855911
-2.155011 -37.002121 48.839043
-1.963457 -35.264105 48.602706
-1.716414 -38.051449 48.426331
-2.155011 -37.002121 48.839043
-2.359144 -38.720814 49.054127
-2.087924 -41.44888 48.870985
-2.50281 -40.411812 49.326672
-1.548139 -40.849897 48.145821
-2.087924 -41.44888 48.870985
-0.944548 -40.223112 47.475491
-1.316955 -39.143356 47.971085
-1.548139 -40.849897 48.145821
-0.400496 -39.651762 46.746232
-0.944548 -40.223112 47.475491
2.746556 -58.776699 18.439381
3.115744 -57.532425 19.692192
2.700095 -59.00547 19.559629
2.692837 -58.511452 17.328959
2.746556 -58.776699 18.439381
2.277188 -59.984497 17.196396
2.69755 -58.256805 16.19553
2.692837 -58.511452 17.328959
2.112965 -59.430786 14.979302
2.587046 -57.968342 15.088857
2.69755 -58.256805 16.19553
0.112268 -63.066944 12.628879
-0.117065 -62.759392 11.565242
0.705766 -61.679348 12.657701
0.112268 -63.066944 12.628879
0.38701 -63.364048 13.667894
-3.846697 -59.708824 2.939897
-3.363724 -60.060398 3.809959
5.68304 -16.231285 36.039724
5.49056 -18.415635 36.201147
4.954193 -24.750733 36.581081
4.758444 -26.784288 36.673977
4.187736 -47.506654 28.229396
4.213722 -45.921408 29.33303
3.95301 -47.607349 29.238582
4.187736 -47.506654 28.229396
4.148854 -49.076774 27.085539
3.664032 -54.898937 22.217813
3.854444 -53.50823 23.472433
3.302559 -56.423496 22.07066
3.430756 -56.236637 20.959593
3.664032 -54.898937 22.217813
2.305319 -60.988668 21.597276
2.628801 -59.466611 21.759
2.590642 -59.707451 22.844115
1.955215 -62.204535 20.37858
2.305319 -60.988668 21.597276
5.516506 4.157791 36.895516
5.192419 5.71483 37.462086
5.516506 4.157791 36.895516
5.487661 1.881642 37.314087
3.724979 1.550441 42.253889
3.743803 -0.622592 42.531275
4.035919 2.471076 41.331843
3.724979 1.550441 42.253889
4.358942 1.105247 40.750292
4.326437 3.306408 40.415191
4.035919 2.471076 41.331843
5.351598 -4.906167 38.320219
5.404709 -2.653084 38.023304
5.131044 -3.295456 38.940203
5.52792 -6.524839 37.673132
5.351598 -4.906167 38.320219
5.254255 -7.167211 38.590031
5.71373 -8.245069 37.019068
5.52792 -6.524839 37.673132
5.573818 -10.502594 37.260345
5.71373 -8.245069 37.019068
5.452852 -12.728448 37.470785
5.573818 -10.502594 37.260345
5.30961 -11.011737 38.153383
5.295172 -14.938771 37.656355
5.55938 -14.429627 36.763317
5.452852 -12.728448 37.470785
-3.261151 -58.205124 2.885957
-3.846697 -59.708824 2.939897
0.574661 -24.702106 46.705618
0.815234 -22.779943 46.616476
0.34355 -26.6037 46.820637
0.095465 -28.470993 46.942169
0.986867 -25.862372 46.253786
0.574661 -24.702106 46.705618
0.34355 -26.6037 46.820637
-1.282771 -34.569057 48.020893
-1.963457 -35.264105 48.602706
-0.638966 -33.91716 47.394842
-1.282771 -34.569057 48.020893
-0.868476 -35.680858 47.585195
0.02275 -33.239423 46.801445
-0.391544 -32.127622 47.237143
-0.638966 -33.91716 47.394842
0.11358 -36.176784 46.441411
-0.469018 -36.772766 47.12995
-0.130766 -37.920589 46.612216
0.374233 -34.407997 46.301617
0.11358 -36.176784 46.441411
0.712485 -35.55582 45.783883
1.736193 -31.389892 44.798544
1.218141 -31.969373 45.507401
1.491191 -33.207552 44.935232
2.235952 -30.778929 44.102759
1.962902 -29.540751 44.674926
1.736193 -31.389892 44.798544
2.427086 -32.098139 43.461946
2.653796 -30.248997 43.338329
2.235952 -30.778929 44.102759
2.612229 -33.392876 42.803213
2.427086 -32.098139 43.461946
2.725676 -34.774506 42.086317
2.958376 -32.949837 41.980621
2.612229 -33.392876 42.803213
2.830391 -36.135601 41.339556
2.725676 -34.774506 42.086317
2.881407 -37.583126 40.549867
3.122839 -35.778992 40.474037
2.830391 -36.135601 41.339556
2.924511 -39.013752 39.721787
2.881407 -37.583126 40.549867
2.93403 -40.522782 38.86538
3.183375 -38.735546 38.827942
2.924511 -39.013752 39.721787
2.9396 -42.016526 37.96555
2.93403 -40.522782 38.86538
2.928438 -43.573391 37.047056
3.181732 -41.801442 37.053042
2.9396 -42.016526 37.96555
2.918575 -45.113558 36.083391
2.928438 -43.573391 37.047056
2.676443 -45.328642 36.995899
2.386726 -48.614157 35.94112
2.387672 -47.084124 36.949804
2.65472 -48.430155 35.00915
2.386726 -48.614157 35.94112
2.374867 -50.175503 34.918036
2.356813 -54.792957 31.6671
2.361956 -53.270744 32.775897
2.585678 -54.607565 30.692586
2.356813 -54.792957 31.6671
2.326874 -56.304675 30.533936
2.670277 -57.387722 27.380478
2.744351 -55.944864 28.556775
2.481667 -57.56214 28.383125
2.552723 -58.799984 26.172861
2.815407 -57.182709 26.34651
2.670277 -57.387722 27.380478
2.397709 -60.151626 24.971255
2.552723 -58.799984 26.172861
2.482506 -59.912239 23.910642
2.397709 -60.151626 24.971255
-1.61986 -57.465603 4.66497
-2.157884 -57.090056 3.742737
-1.125617 -57.832554 5.582731
-0.672751 -58.206381 6.557602
-2.23149 -58.941845 4.676463
-1.61986 -57.465603 4.66497
-1.125617 -57.832554 5.582731
-2.869481 -60.427349 4.72772
-3.363724 -60.060398 3.809959
-2.23149 -58.941845 4.676463
-2.869481 -60.427349 4.72772
-2.398312 -60.769262 5.634581
-1.960754 -61.128221 6.59624
-1.519701 -61.459547 7.539169
-0.45523 -62.451723 10.555065
-0.117065 -62.759392 11.565242
3 0 28 26
3 0 30 28
3 1 92 93
3 95 94 32
3 2 96 98
3 98 97 34
3 96 97 98
3 3 37 35
3 3 39 37
3 99 41 100
3 99 100 101
3 4 102 104
3 102 42 103
3 102 103 104
3 4 44 42
3 4 46 44
3 5 49 47
3 5 51 49
3 6 105 107
3 107 106 52
3 105 106 107
3 6 108 110
3 108 53 109
3 108 109 110
3 6 111 113
3 113 112 53
3 111 112 113
3 7 55 54
3 8 114 116
3 116 115 27
3 114 115 116
3 8 117 118
3 8 119 121
3 119 56 120
3 119 120 121
3 10 57 29
3 10 58 57
3 122 59 123
3 124 61 125
3 126 125 59
3 124 125 126
3 12 62 31
3 12 63 62
3 127 65 128
3 14 129 130
3 131 66 132
3 133 132 33
3 131 132 133
3 134 67 135
3 136 135 66
3 134 135 136
3 138 137 67
3 15 139 140
3 9 141 142
3 16 143 145
3 145 144 36
3 143 144 145
3 16 146 147
3 16 148 150
3 148 68 149
3 148 149 150
3 17 69 38
3 17 151 153
3 153 152 69
3 151 152 153
3 18 154 156
3 156 155 40
3 154 155 156
3 18 157 158
3 19 159 160
3 19 161 163
3 161 70 162
3 161 162 163
3 19 71 70
3 20 72 43
3 20 73 72
3 20 74 73
3 21 75 45
3 21 76 75
3 11 77 60
3 22 78 48
3 22 79 78
3 22 80 79
3 23 81 50
3 23 82 81
3 24 164 166
3 164 83 165
3 164 165 166
3 24 84 83
3 13 85 64
3 167 86 168
3 170 169 86
3 171 87 172
3 173 88 174
3 175 89 176
3 177 176 88
3 175 176 177
3 178 90 179
3 181 180 90
3 25 182 183
3 25 184 186
3 184 91 185
3 184 185 186
3 25 187 189
3 189 188 91
3 187 188 189
3 26 27 7
3 28 27 26
3 28 8 27
3 28 29 8
3 30 29 28
3 30 10 29
3 190 31 191
3 192 31 193
3 194 12 195
3 196 195 31
3 194 195 196
3 32 33 14
3 197 33 198
3 199 198 32
3 197 198 199
3 201 200 33
3 34 202 204
3 204 203 15
3 202 203 204
3 206 205 34
3 35 36 9
3 37 36 35
3 37 16 36
3 37 38 16
3 39 38 37
3 39 17 38
3 207 40 208
3 41 209 211
3 209 40 210
3 209 210 211
3 41 18 40
3 42 212 213
3 42 214 216
3 214 19 215
3 214 215 216
3 42 43 19
3 44 43 42
3 44 20 43
3 44 45 20
3 46 45 44
3 46 21 45
3 47 48 11
3 49 48 47
3 49 22 48
3 49 50 22
3 51 50 49
3 51 23 50
3 217 24 218
3 220 219 13
3 52 221 222
3 224 223 52
3 53 225 226
3 53 227 229
3 227 25 228
3 227 228 229
3 53 230 232
3 232 231 25
3 230 231 232
3 234 233 53
3 54 235 237
3 237 236 2
3 235 236 237
3 55 238 240
3 240 239 54
3 238 239 240
3 55 241 242
3 27 55 7
3 243 55 244
3 245 244 27
3 243 244 245
3 247 246 55
3 56 248 249
3 56 250 252
3 250 9 251
3 250 251 252
3 29 56 8
3 57 56 29
3 57 9 56
3 57 35 9
3 58 35 57
3 58 3 35
3 59 253 254
3 59 255 257
3 255 4 256
3 255 256 257
3 59 60 4
3 61 60 59
3 61 11 60
3 31 258 260
3 258 61 259
3 258 259 260
3 62 61 31
3 62 11 61
3 62 47 11
3 63 47 62
3 63 5 47
3 261 64 262
3 65 263 265
3 263 64 264
3 263 264 265
3 65 13 64
3 266 65 267
3 268 65 269
3 270 13 271
3 272 271 65
3 270 271 272
3 274 273 13
3 33 275 277
3 277 276 14
3 275 276 277
3 66 278 280
3 280 279 33
3 278 279 280
3 66 281 282
3 66 283 285
3 283 52 284
3 283 284 285
3 67 52 66
3 67 6 52
3 67 286 288
3 288 287 6
3 286 287 288
3 290 289 67
3 292 291 1
3 294 293 15
3 296 295 2
3 36 297 299
3 299 298 9
3 297 298 299
3 301 300 36
3 68 302 303
3 68 304 306
3 304 14 305
3 304 305 306
3 38 68 16
3 69 68 38
3 69 14 68
3 69 32 14
3 307 32 308
3 309 308 69
3 307 308 309
3 311 310 32
3 40 312 313
3 315 314 40
3 70 316 317
3 70 318 319
3 70 320 322
3 320 41 321
3 320 321 322
3 71 41 70
3 71 18 41
3 43 71 19
3 72 71 43
3 72 18 71
3 72 323 325
3 325 324 18
3 323 324 325
3 73 326 328
3 328 327 72
3 326 327 328
3 73 329 330
3 73 331 332
3 74 333 335
3 335 334 73
3 333 334 335
3 74 336 338
3 336 15 337
3 336 337 338
3 45 74 20
3 75 74 45
3 75 15 74
3 75 34 15
3 76 34 75
3 76 2 34
3 60 46 4
3 77 46 60
3 77 21 46
3 48 77 11
3 78 77 48
3 78 21 77
3 78 76 21
3 79 76 78
3 79 2 76
3 79 54 2
3 80 54 79
3 80 7 54
3 50 80 22
3 81 80 50
3 81 7 80
3 81 26 7
3 82 26 81
3 82 0 26
3 340 339 1
3 341 12 342
3 83 343 344
3 83 345 347
3 345 12 346
3 345 346 347
3 83 63 12
3 84 63 83
3 84 5 63
3 64 348 349
3 85 350 352
3 352 351 64
3 350 351 352
3 85 353 355
3 353 24 354
3 353 354 355
3 356 85 357
3 358 357 13
3 356 357 358
3 86 359 361
3 359 85 360
3 359 360 361
3 86 24 85
3 86 84 24
3 362 84 363
3 364 363 86
3 362 363 364
3 365 5 366
3 367 366 84
3 365 366 367
3 368 51 369
3 370 369 5
3 368 369 370
3 371 51 372
3 373 23 374
3 375 374 51
3 373 374 375
3 376 23 377
3 378 82 379
3 380 379 23
3 378 379 380
3 381 82 382
3 383 0 384
3 385 384 82
3 383 384 385
3 386 0 387
3 388 30 389
3 390 389 0
3 388 389 390
3 87 391 393
3 391 30 392
3 391 392 393
3 87 10 30
3 394 87 395
3 88 396 398
3 396 87 397
3 396 397 398
3 88 10 87
3 88 58 10
3 89 58 88
3 89 3 58
3 399 89 400
3 90 401 403
3 401 89 402
3 401 402 403
3 90 3 89
3 90 39 3
3 404 39 405
3 406 405 90
3 404 405 406
3 407 17 408
3 409 408 39
3 407 408 409
3 410 17 411
3 413 412 17
3 414 1 415
3 91 416 417
3 91 418 420
3 418 1 419
3 418 419 420
3 91 421 423
3 423 422 1
3 421 422 423
3 425 424 91
3 427 426 25
3 429 428 6
