ply
format ascii 1.0
element vertex 713
property float x
property float y
property float z
element face 848
property list uchar int vertex_index
end_header
-34.838139 -17.697729 74.318756
-49.295242 -30.488136 63.428558
-39.96788 -26.506737 66.42717
-35.556824 -38.759636 75.874634
-39.223728 -13.681883 68.131622
-36.004425 -22.755848 68.849792
-40.221542 -18.856682 61.885921
-32.521313 -29.884651 71.451683
-28.283237 -17.002899 78.005753
-46.972691 -35.53199 53.739986
-54.117073 -27.449844 55.153713
-43.617985 -35.077827 70.592705
-37.365955 -43.502884 67.6745
-42.128437 -39.328968 60.696468
-46.700157 -27.749855 67.816544
-51.981369 -23.585251 60.335072
-44.753723 -21.999798 59.846783
-39.405933 -32.461395 73.312637
-57.31921 -20.931379 51.780083
-37.012348 -15.910945 71.764709
-37.585518 -11.669472 70.455299
-35.028847 -14.375486 73.923706
-35.403557 -20.016413 71.952713
-37.757736 -18.334642 68.671265
-32.491695 -20.805395 74.756042
-32.948921 -23.949772 71.878586
-32.2188 -17.378323 76.251411
-28.836123 -20.826729 77.30513
-31.487209 -13.62298 75.259018
-48.301479 -32.777203 58.65765
-50.773323 -31.294739 54.824169
-51.705254 -28.681688 59.36552
-46.686131 -32.737549 67.203857
-43.383633 -37.050262 66.150574
-45.910667 -34.792938 62.47776
-44.424946 -37.230598 57.111046
-43.388145 -27.205143 67.269928
-46.08659 -24.789118 64.068588
-42.523842 -24.194054 63.374325
-36.651291 -28.5103 69.047318
-35.830982 -31.422466 72.230934
-40.025459 -29.55912 69.949234
-43.442688 -30.247036 70.817764
-51.195641 -21.015833 56.40139
-54.603477 -22.175457 56.106586
-33.02298 -42.498985 74.737671
-37.387188 -25.060942 66.756523
-39.793144 -22.990669 63.62999
-38.343662 -20.929459 65.546463
-39.731045 -16.280548 64.929153
-34.199291 -26.636683 69.579132
-23.817635 -16.531656 79.489449
-24.618328 -20.562614 79.621468
-27.040215 -13.06997 76.180862
-56.646431 -26.67878 50.999939
-39.903046 -37.142422 73.495148
-37.007488 -41.013451 72.380455
-40.470753 -39.197098 69.509949
-39.866261 -41.504574 64.306534
-48.862991 -28.769764 66.693764
-51.446579 -26.681017 62.813225
-49.423916 -25.428459 64.291924
-48.560707 -22.70433 60.389679
-41.775444 -20.82917 60.089394
-34.652061 -34.100609 75.431984
-37.870846 -35.469986 75.488663
-42.246883 -33.552666 73.057968
-45.88665 -31.198986 70.127594
-53.908165 -25.135578 58.594898
-56.386597 -24.0319 54.209732
-58.920517 -23.142178 49.853752
-34.427231 -45.243629 70.59436
-35.870132 -16.915148 73.261482
-36.227177 -15.009932 72.970261
-35.017162 -16.212839 74.336159
-35.146042 -18.720139 73.363289
-36.341969 -17.984966 71.941055
-33.861824 -19.089426 74.609634
-34.030849 -20.540932 73.398903
-33.768669 -17.552721 75.259949
-32.367428 -19.137777 75.783875
-33.678757 -15.81573 75.263977
-48.921516 -31.57225 61.15638
-50.115044 -30.672501 59.161861
-50.51033 -29.514637 61.426056
-48.031578 -31.576225 65.358459
-46.457432 -33.712051 65.00441
-47.712143 -32.597763 63.108543
-47.107868 -33.732746 60.577843
-41.623642 -26.919649 66.783981
-43.008194 -25.719273 65.299759
-41.320534 -25.36038 64.962585
-38.418266 -27.573858 67.780548
-38.268703 -29.118191 69.395645
-40.053169 -28.071852 68.143188
-41.809498 -28.420351 68.670792
-33.211636 -39.419941 76.903671
-32.017899 -41.213203 76.472031
-34.268841 -40.562569 75.444061
-40.309177 -12.563513 66.162277
-40.975471 -10.219332 65.527214
-39.770351 -11.376505 67.496155
-36.163624 -10.973952 71.169861
-36.555592 -23.999647 67.599014
-37.819916 -23.077938 66.034393
-37.256069 -21.900377 67.240845
-38.541847 -16.014133 68.501663
-38.774139 -17.323204 66.846397
-39.557602 -14.941669 66.58757
-40.566319 -13.878757 64.604507
-34.568546 -23.448271 70.388687
-33.436745 -25.376402 70.549805
-35.094772 -24.776127 69.095657
-35.897339 -25.930832 68.192505
-26.080273 -16.788553 78.768669
-24.294376 -18.562359 79.865791
-26.502739 -18.764725 78.947891
-29.942276 -15.286181 76.771294
-29.326633 -13.350655 75.742516
-27.75596 -15.051201 77.386292
-25.478325 -14.786103 77.960495
-52.546757 -29.31937 55.119595
-52.08765 -30.785217 52.953903
-53.818962 -28.858593 53.120964
-55.144867 -28.516239 51.173935
-55.362259 -27.019144 53.055695
-41.845993 -36.16156 72.110016
-40.365082 -38.128056 71.712692
-42.100422 -37.114944 70.202644
-42.821983 -38.156937 63.476189
-41.588665 -39.264244 65.273323
-41.009964 -40.426464 62.514084
-39.358028 -42.719658 61.547081
-45.657673 -36.313515 55.3899
-47.979012 -28.174164 67.520935
-49.351368 -27.009609 65.722992
-48.105175 -26.541031 66.11618
-45.441437 -23.405748 61.945999
-47.322327 -23.691872 62.280037
-46.622215 -22.372169 60.101822
-47.85498 -21.433882 58.17717
-45.915638 -21.020514 57.946877
-39.891338 -20.998165 62.631546
-40.802292 -21.897184 61.910164
-40.820274 -19.942976 60.787144
-37.649166 -31.970806 72.844666
-35.30098 -32.77063 73.901428
-37.102989 -33.358002 74.407265
-36.371452 -34.76561 75.677216
-38.753956 -33.940525 74.603378
-40.144684 -34.579056 74.331955
-40.974693 -32.968025 73.432953
-45.159622 -29.005348 69.384293
-44.841537 -30.658489 70.736542
-46.489304 -29.409279 69.194038
-47.443398 -29.965637 68.471138
-51.915165 -25.043118 61.799252
-52.680573 -25.840515 60.736969
-53.173492 -24.261883 59.707344
-55.952728 -21.549337 53.945827
-55.722294 -23.003283 55.37183
-57.01709 -22.457115 53.174938
-57.645821 -23.571304 52.017235
-58.322426 -21.929268 50.986599
-60.951199 -20.914495 46.688423
-37.305164 -42.24041 70.131927
-35.625458 -43.078819 71.503891
-35.957146 -44.403343 69.195129
-38.133739 -14.812038 70.021904
-38.595963 -12.575209 69.442009
-37.421448 -13.794986 71.297363
-36.320305 -13.005213 72.286087
-34.812237 -12.430641 73.007996
-35.655491 -21.398472 70.36866
-36.901932 -20.596758 68.746857
-36.641064 -19.255966 70.379295
-37.476944 -17.050489 70.303085
-30.910084 -22.610918 74.785126
-31.16028 -24.26195 73.340591
-32.662323 -22.410803 73.366074
-34.24419 -22.012268 71.901489
-30.356955 -17.195335 77.171951
-28.626171 -18.93248 77.966057
-30.603354 -19.06415 76.909966
-30.756548 -20.873207 76.056747
-32.947277 -12.014906 73.520218
-33.422012 -13.942514 74.670479
-31.949945 -15.527704 76.073578
-47.595314 -34.095055 56.121288
-48.88345 -33.368256 54.33979
-49.516571 -31.958836 56.73328
-51.317078 -29.92017 57.142159
-52.902077 -27.996727 57.266438
-45.224804 -33.921803 68.95295
-43.681267 -36.017372 68.569046
-45.124592 -34.86834 66.830032
-44.680122 -35.91452 64.341599
-44.007942 -37.042812 61.639297
-43.256596 -38.249535 58.886654
-45.179737 -35.96553 59.788235
-46.367264 -34.969906 57.943207
-45.12706 -27.451691 67.679848
-46.543243 -26.219261 66.070755
-44.795895 -25.975025 65.735672
-44.258831 -24.531235 63.684689
-43.644238 -23.061653 61.664074
-40.824074 -16.595936 61.341373
-41.14576 -17.841333 59.939896
-34.675117 -29.283325 70.259621
-34.082253 -30.745274 71.697159
-36.270081 -30.015913 70.56929
-38.027115 -30.570198 71.12645
-39.823292 -31.010294 71.718216
-41.525513 -31.415073 72.122787
-41.795067 -29.906956 70.494881
-43.557297 -28.701717 69.153229
-51.706745 -22.266695 58.49704
-53.278801 -22.841208 58.243546
-53.059246 -21.528282 56.420341
-54.457146 -20.827845 54.314552
-55.890137 -20.128994 52.197502
-31.920309 -44.580994 73.904907
-37.250946 -44.782001 65.092468
-36.099995 -45.738678 66.756348
-38.85194 -10.369659 68.531357
-38.531754 -25.898487 66.37809
-39.850056 -24.823086 64.90184
-38.674442 -24.063641 65.242645
-38.914444 -22.059292 64.38179
-39.311127 -19.898056 63.760044
-37.998932 -19.660181 67.027031
-38.980637 -18.647783 65.211121
-39.900806 -17.61318 63.309669
-40.683548 -15.249734 62.946861
-31.236692 -28.811657 71.642456
-31.601353 -25.794182 71.986679
-32.312355 -27.164707 70.94664
-33.337955 -28.334919 70.360077
-35.274467 -27.687698 69.076569
-37.010742 -26.867998 67.760231
-21.551937 -16.20665 80.200867
-19.819798 -17.999868 81.588448
-22.052784 -18.313873 80.738625
-22.414146 -20.374353 80.692139
-26.773708 -20.715216 78.49411
-30.81731 -11.686935 73.896088
-23.182068 -14.455084 78.538986
-50.246815 -32.80106 52.618355
-37.798744 -38.006996 74.74649
-36.431557 -39.845924 74.325882
-38.471764 -39.038876 73.087166
-38.811287 -40.151764 71.013458
-38.853306 -41.324169 68.627808
-41.989342 -38.156078 67.881714
-40.27507 -40.3283 67.000572
-38.661888 -42.535378 66.037651
-38.325344 -43.772655 63.344917
-49.298866 -29.545815 65.312408
-50.562729 -28.503397 63.349804
-50.18457 -27.662729 64.803947
-50.650444 -25.95857 63.810772
-50.703705 -24.441587 62.35849
-47.858658 -25.059698 64.331451
-49.12886 -24.010225 62.475697
-50.4011 -23.083412 60.523254
-49.844322 -21.821392 58.421795
-41.006954 -23.697741 63.313438
-42.066429 -22.577831 61.608864
-43.102901 -21.50556 59.798687
-41.775146 -18.925629 58.865242
-42.786285 -19.813301 58.187054
-44.186523 -20.500921 57.905277
-31.903763 -38.372871 77.922073
-34.384914 -37.766563 76.952637
-35.456581 -36.224976 76.5457
-36.785763 -37.069656 75.911369
-39.065807 -36.255989 74.768494
-41.191566 -35.314453 73.504486
-43.141598 -34.252777 72.110741
-43.006935 -31.862118 72.147812
-44.160606 -32.41246 71.657349
-44.910088 -33.097977 70.587601
-46.507721 -31.893162 68.94104
-47.959351 -30.691118 67.17955
-51.783978 -27.594637 61.304382
-52.988541 -26.830645 59.193008
-54.194408 -26.203152 57.037647
-54.440826 -23.593208 57.557014
-55.141586 -24.543278 56.410591
-55.413258 -25.689482 54.86454
-56.652817 -25.260941 52.701393
-57.918434 -24.892246 50.573303
-59.21254 -24.569178 48.498268
-58.694962 -20.30662 49.623756
-59.635258 -21.411373 48.821781
-60.209946 -22.741606 47.732529
-35.070141 -41.789627 73.614761
-33.823208 -43.852249 72.752747
-32.782276 -46.038403 71.885452
-34.847179 -46.643654 68.316917
-33.480335 -47.505634 69.771942
-32.001518 -48.338184 71.135513
-35.971655 -9.958907 70.433266
-35.26374 -10.715465 71.402515
-47.677751 -35.219349 52.958668
-46.778048 -36.316982 52.71316
-41.258247 -40.485964 60.21777
-40.699011 -41.034712 61.126577
-41.5692 -39.877716 61.605276
-41.790777 -39.950789 59.328352
-41.258247 -40.485964 60.21777
-46.055082 -36.655571 53.415453
-45.397574 -37.046334 54.240409
-46.315182 -35.922753 54.564943
-46.778048 -36.316982 52.71316
-46.055082 -36.655571 53.415453
-32.134395 -30.598126 72.132157
-31.378414 -30.107237 72.053143
-41.318245 -16.105828 60.336565
-41.25613 -15.425064 61.135231
-54.278939 -20.153133 53.301626
-53.537533 -20.537923 54.332788
-54.995434 -19.803708 52.243101
-55.173642 -20.47842 53.256027
-54.278939 -20.153133 53.301626
-31.961139 -42.83303 75.261345
-31.458599 -42.19014 76.128525
-32.520439 -41.856094 75.604851
-32.471644 -43.539989 74.321289
-31.409804 -43.874035 74.844963
-31.961139 -42.83303 75.261345
-36.676761 -45.925123 64.665744
-37.144638 -45.425482 63.775402
-41.237186 -9.066419 65.111999
-40.562002 -9.667609 66.060253
-41.522514 -12.167136 63.378267
-41.091322 -13.365092 63.597635
-40.997511 -12.680802 64.385139
-30.754615 -28.168642 71.981834
-30.126689 -28.976662 72.295852
-23.643335 -21.477314 79.853375
-22.541244 -21.383184 80.38871
-23.516237 -20.468483 80.156803
-27.783699 -12.223989 75.197609
-28.926908 -12.364331 74.978435
-28.183424 -13.210313 75.961689
-26.60823 -12.048026 75.366123
-27.783699 -12.223989 75.197609
-25.877941 -12.900885 76.40744
-26.60823 -12.048026 75.366123
-51.892149 -31.587064 51.966007
-52.779642 -30.600788 52.050877
-56.588821 -27.473555 50.150701
-55.838039 -28.392284 50.2377
-55.895649 -27.59751 51.086937
-57.310505 -26.543059 50.003935
-56.588821 -27.473555 50.150701
-38.653324 -43.877394 61.094713
-39.117267 -43.349926 60.189976
-43.505028 -38.388266 56.677388
-42.920853 -38.897734 57.565191
-43.840771 -37.740066 57.99885
-48.513935 -21.002 57.188114
-47.514402 -20.77228 57.084992
-41.961654 -17.896344 58.406056
-41.460453 -18.383481 59.402569
-41.646962 -17.354195 58.943382
-43.340454 -19.33274 57.209004
-42.802949 -18.884403 57.539528
-44.040573 -19.676551 57.068115
-43.486404 -20.157111 58.046166
-43.340454 -19.33274 57.209004
-44.778421 -20.029878 56.93133
-44.040573 -19.676551 57.068115
-32.422924 -37.617821 77.725479
-31.137197 -37.894457 78.196144
-33.6635 -37.314667 77.240761
-33.144339 -38.069717 77.437355
-32.422924 -37.617821 77.725479
-34.652157 -31.766065 72.762776
-33.777792 -31.42747 72.495888
-34.956618 -31.08387 71.964046
-33.736576 -33.758499 75.17524
-34.061036 -33.093509 74.409961
-34.976521 -33.43562 74.666706
-33.374832 -34.403878 75.923718
-33.736576 -33.758499 75.17524
-34.259063 -34.776108 76.055447
-33.374832 -34.403878 75.923718
-18.909195 -18.925005 82.146866
-20.008745 -19.071106 81.652321
-59.383786 -19.993828 48.554686
-58.752144 -19.48873 48.800554
-59.853933 -20.546205 48.153698
-59.16511 -20.858996 49.222769
-59.383786 -19.993828 48.554686
-60.859328 -22.562583 46.695023
-60.580573 -21.82805 47.210476
-61.229954 -21.649027 46.17297
-60.371087 -23.51697 47.108177
-60.859328 -22.562583 46.695023
-34.974746 -47.336067 67.134373
-35.473587 -46.191166 67.536632
-35.601154 -46.883579 66.354088
-33.14154 -48.676949 69.444641
-33.744129 -48.229078 68.67532
-32.402132 -49.093224 70.126427
-32.740927 -47.921909 70.453727
-33.14154 -48.676949 69.444641
-31.742709 -49.532206 70.856746
-32.402132 -49.093224 70.126427
-51.90678 -20.631917 55.376207
-50.891182 -20.37999 55.296772
-32.614767 -40.316572 76.687851
-31.410682 -40.615558 77.170547
-32.007551 -39.718927 77.386368
-40.642324 -11.391423 65.844746
-41.202087 -10.851089 64.846493
-40.86894 -12.02318 65.164024
-39.959442 -10.246195 67.044724
-40.562002 -9.667609 66.060253
-40.372911 -10.797918 66.511685
-36.839037 -10.26893 70.210872
-37.549984 -10.616689 69.853591
-36.874571 -11.321712 70.81258
-36.839037 -10.26893 70.210872
-35.971655 -9.958907 70.433266
-40.86894 -12.02318 65.164024
-40.997511 -12.680802 64.385139
-40.437748 -13.221135 65.383392
-27.900941 -21.724162 77.411895
-28.918609 -21.745014 76.737495
-53.645298 -29.637476 52.134407
-52.779642 -30.600788 52.050877
-52.953306 -29.821905 53.037433
-54.481915 -28.687416 52.14745
-54.30825 -29.466299 51.160893
-53.645298 -29.637476 52.134407
-39.873043 -42.181309 60.643076
-40.183996 -41.573061 62.030582
-40.699011 -41.034712 61.126577
-39.117267 -43.349926 60.189976
-39.873043 -42.181309 60.643076
-44.73279 -37.458107 55.002245
-44.116427 -37.916649 55.862818
-45.041309 -36.772057 56.250473
-44.73279 -37.458107 55.002245
-45.397574 -37.046334 54.240409
-46.544731 -20.565596 56.969845
-47.514402 -20.77228 57.084992
-46.885309 -21.227198 58.062023
-61.19748 -19.997384 46.028412
-60.511904 -20.297765 47.087019
-61.606403 -20.690329 45.637684
-61.19748 -19.997384 46.028412
-61.229954 -21.649027 46.17297
-61.606403 -20.690329 45.637684
-34.588047 -11.44381 72.321583
-35.26374 -10.715465 71.402515
-35.487931 -11.702296 72.088929
-31.035182 -23.436434 74.062859
-30.193752 -24.338479 74.064777
-30.068654 -23.512963 74.787045
-29.878822 -21.768254 76.113304
-28.918609 -21.745014 76.737495
-29.796335 -20.849968 76.680938
-29.95559 -22.637109 75.477494
-29.878822 -21.768254 76.113304
-30.833316 -21.742063 75.420937
-30.068654 -23.512963 74.787045
-29.95559 -22.637109 75.477494
-33.879757 -12.222773 73.264107
-33.655567 -11.235942 72.577694
-34.588047 -11.44381 72.321583
-41.479088 -16.728526 59.635827
-40.984917 -17.218635 60.640634
-41.318245 -16.105828 60.336565
-41.646962 -17.354195 58.943382
-41.479088 -16.728526 59.635827
-52.838583 -20.888141 55.385683
-52.127443 -21.272058 56.410865
-51.90678 -20.631917 55.376207
-53.758196 -21.178064 55.367446
-52.838583 -20.888141 55.385683
-53.537533 -20.537923 54.332788
-30.868126 -41.520699 76.961297
-31.410682 -40.615558 77.170547
-30.868126 -41.520699 76.961297
-31.458599 -42.19014 76.128525
-30.934144 -44.934872 74.451729
-31.409804 -43.874035 74.844963
-31.4807 -45.693783 73.500717
-30.934144 -44.934872 74.451729
-36.101286 -46.403461 65.497684
-36.675471 -45.26034 65.924408
-36.676761 -45.925123 64.665744
-35.601154 -46.883579 66.354088
-36.101286 -46.403461 65.497684
-41.607347 -9.665506 64.555053
-41.202087 -10.851089 64.846493
-41.607347 -9.665506 64.555053
-41.237186 -9.066419 65.111999
-39.500236 -9.742772 67.562325
-39.959442 -10.246195 67.044724
-39.311145 -10.873082 68.013756
-38.183195 -9.966783 68.891621
-38.218729 -11.019566 69.493328
-37.549984 -10.616689 69.853591
-38.874424 -9.285697 67.934708
-38.183195 -9.966783 68.891621
-39.500236 -9.742772 67.562325
-38.874424 -9.285697 67.934708
-41.185868 -14.751963 61.937975
-41.25613 -15.425064 61.135231
-40.753811 -15.922835 62.144117
-41.149937 -14.05058 62.768812
-40.624933 -14.564246 63.775684
-41.091322 -13.365092 63.597635
-41.185868 -14.751963 61.937975
-41.149937 -14.05058 62.768812
-30.736104 -29.57074 72.148529
-30.126689 -28.976662 72.295852
-31.879002 -29.348154 71.547069
-31.378414 -30.107237 72.053143
-30.736104 -29.57074 72.148529
-30.390709 -25.1552 73.383217
-30.193752 -24.338479 74.064777
-30.611245 -25.921315 72.70626
-30.390709 -25.1552 73.383217
-31.380817 -25.028066 72.663635
-30.936946 -26.659904 72.153946
-30.611245 -25.921315 72.70626
-31.292447 -27.345167 71.633927
-30.936946 -26.659904 72.153946
-31.956854 -26.479444 71.466659
-31.774524 -27.988182 71.294548
-30.754615 -28.168642 71.981834
-31.292447 -27.345167 71.633927
-20.685868 -17.103259 80.894657
-19.57377 -16.893476 81.260921
-20.439839 -15.996866 80.567131
-21.125239 -19.228109 81.227409
-20.008745 -19.071106 81.652321
-20.936291 -18.156871 81.163536
-21.30592 -20.258349 81.204166
-21.125239 -19.228109 81.227409
-22.233465 -19.344113 80.715382
-21.443941 -21.301773 80.994919
-21.30592 -20.258349 81.204166
-21.443941 -21.301773 80.994919
-22.541244 -21.383184 80.38871
-26.869733 -21.668405 78.006385
-27.804915 -20.770972 77.89962
-27.900941 -21.724162 77.411895
-25.808151 -21.619759 78.659706
-26.869733 -21.668405 78.006385
-24.730461 -21.543458 79.223385
-25.696018 -20.638915 79.057789
-25.808151 -21.619759 78.659706
-23.643335 -21.477314 79.853375
-24.730461 -21.543458 79.223385
-32.607101 -11.036582 72.725788
-33.655567 -11.235942 72.577694
-31.542118 -10.872597 72.913723
-32.607101 -11.036582 72.725788
-31.882293 -11.850921 73.708153
-30.397307 -10.696507 73.023377
-31.542118 -10.872597 72.913723
-29.672247 -11.532471 74.055222
-30.071972 -12.518795 74.819302
-28.926908 -12.364331 74.978435
-30.397307 -10.696507 73.023377
-29.672247 -11.532471 74.055222
-25.096995 -13.758951 77.297257
-25.877941 -12.900885 76.40744
-26.25927 -13.928037 77.070678
-23.948867 -13.593442 77.586502
-25.096995 -13.758951 77.297257
-24.330196 -14.620594 78.249741
-22.803216 -13.374481 77.847152
-23.948867 -13.593442 77.586502
-22.053443 -14.240031 78.851024
-22.803216 -13.374481 77.847152
-21.238377 -15.115814 79.681965
-22.053443 -14.240031 78.851024
-22.367002 -15.330867 79.369926
-20.439839 -15.996866 80.567131
-21.238377 -15.115814 79.681965
-48.633131 -34.137482 53.25857
-47.677751 -35.219349 52.958668
-47.928071 -34.450123 54.039888
-49.314813 -33.853884 52.397852
-48.633131 -34.137482 53.25857
-49.565133 -33.084658 53.479073
-50.071806 -33.621746 51.668103
-49.314813 -33.853884 52.397852
-50.971732 -32.594986 51.798233
-51.167232 -31.793138 52.786129
-51.892149 -31.587064 51.966007
-50.071806 -33.621746 51.668103
-50.971732 -32.594986 51.798233
-55.038761 -29.341057 50.300964
-54.30825 -29.466299 51.160893
-55.038761 -29.341057 50.300964
-55.838039 -28.392284 50.2377
-37.681837 -44.920808 62.901627
-37.144638 -45.425482 63.775402
-37.788145 -44.277328 64.218693
-38.136982 -44.403892 61.993631
-38.841686 -43.246156 62.445999
-38.653324 -43.877394 61.094713
-37.681837 -44.920808 62.901627
-38.136982 -44.403892 61.993631
-42.354856 -39.411072 58.423445
-41.790777 -39.950789 59.328352
-42.692516 -38.789252 59.791561
-42.354856 -39.411072 58.423445
-42.920853 -38.897734 57.565191
-43.505028 -38.388266 56.677388
-44.116427 -37.916649 55.862818
-49.508606 -21.195755 57.310427
-48.849651 -21.627637 58.299482
-48.513935 -21.002 57.188114
-50.184266 -20.792976 56.300224
-50.519982 -21.418613 57.411592
-49.508606 -21.195755 57.310427
-50.891182 -20.37999 55.296772
-50.184266 -20.792976 56.300224
-42.29738 -18.440567 57.878622
-41.961654 -17.896344 58.406056
-42.280715 -19.369465 58.526148
-42.29738 -18.440567 57.878622
-42.802949 -18.884403 57.539528
-45.642978 -20.289674 56.952129
-45.05108 -20.760717 57.926077
-44.778421 -20.029878 56.93133
-46.544731 -20.565596 56.969845
-45.642978 -20.289674 56.952129
-30.64416 -38.648315 78.389221
-31.137197 -37.894457 78.196144
-31.353614 -39.195392 77.895568
-30.64416 -38.648315 78.389221
-32.557699 -38.896406 77.412872
-32.007551 -39.718927 77.386368
-31.353614 -39.195392 77.895568
-32.914865 -31.028437 72.254895
-32.134395 -30.598126 72.132157
-33.301783 -30.314963 71.574421
-32.914865 -31.028437 72.254895
-33.777792 -31.42747 72.495888
-34.387156 -32.440147 73.598022
-34.652157 -31.766065 72.762776
-35.565981 -32.096548 73.066181
-34.387156 -32.440147 73.598022
-34.061036 -33.093509 74.409961
-35.118759 -35.108609 76.178063
-34.259063 -34.776108 76.055447
-35.511757 -34.43311 75.5546
-34.661323 -35.838291 76.612304
-35.118759 -35.108609 76.178063
-35.914017 -35.495293 76.111458
-34.199333 -36.543873 77.037293
-34.661323 -35.838291 76.612304
-34.920748 -36.995769 76.749168
-33.6635 -37.314667 77.240761
-34.199333 -36.543873 77.037293
-18.724278 -17.79911 82.011814
-19.57377 -16.893476 81.260921
-18.724278 -17.79911 82.011814
-18.909195 -18.925005 82.146866
-57.946506 -25.649793 49.790617
-57.310505 -26.543059 50.003935
-57.282432 -25.785513 50.786621
-58.593559 -25.488259 48.7531
-57.946506 -25.649793 49.790617
-58.565487 -24.730712 49.535786
-59.279058 -25.381601 47.794262
-58.593559 -25.488259 48.7531
-55.758617 -19.404371 51.212231
-54.995434 -19.803708 52.243101
-56.617576 -19.769562 51.139961
-55.758617 -19.404371 51.212231
-57.332113 -20.170755 50.931252
-56.604674 -20.530186 51.988793
-56.617576 -19.769562 51.139961
-58.019989 -19.858376 49.853088
-58.752144 -19.48873 48.800554
-58.007086 -20.619 50.70192
-57.332113 -20.170755 50.931252
-58.019989 -19.858376 49.853088
-60.293228 -21.162934 47.755102
-59.853933 -20.546205 48.153698
-60.511904 -20.297765 47.087019
-59.872383 -24.430756 47.491047
-59.711243 -23.655392 48.115398
-60.371087 -23.51697 47.108177
-59.279058 -25.381601 47.794262
-59.872383 -24.430756 47.491047
-31.911684 -46.422488 72.490989
-31.4807 -45.693783 73.500717
-32.351292 -45.309698 72.895179
-34.427551 -47.798088 67.947807
-34.974746 -47.336067 67.134373
-34.163757 -47.074644 69.04443
-34.427551 -47.798088 67.947807
-33.744129 -48.229078 68.67532
-31.521305 -47.572378 72.11602
-31.911684 -46.422488 72.490989
-32.391897 -47.188294 71.510482
-31.213361 -48.747476 71.783959
-31.521305 -47.572378 72.11602
-31.213361 -48.747476 71.783959
-31.742709 -49.532206 70.856746
3 0 74 72
3 0 72 75
3 0 75 77
3 0 77 79
3 0 79 74
3 1 84 82
3 1 87 85
3 1 82 87
3 2 91 89
3 2 94 92
3 2 89 94
3 3 98 96
3 4 101 99
3 303 302 102
3 5 105 103
3 4 108 106
3 4 99 108
3 5 112 110
3 5 103 112
3 8 116 114
3 8 119 117
3 8 114 119
3 9 304 305
3 10 123 121
3 10 125 123
3 11 128 126
3 13 131 129
3 13 306 308
3 308 307 131
3 306 307 308
3 13 309 310
3 9 311 313
3 313 312 133
3 311 312 313
3 9 314 315
3 14 136 134
3 16 139 137
3 16 141 139
3 6 144 142
3 7 316 317
3 17 147 145
3 17 149 147
3 17 151 149
3 14 154 152
3 14 134 154
3 15 158 156
3 18 161 159
3 18 163 161
3 12 167 165
3 19 170 168
3 21 171 73
3 21 172 171
3 22 175 173
3 19 176 76
3 19 168 176
3 24 179 177
3 22 180 78
3 22 173 180
3 26 183 181
3 24 184 80
3 24 177 184
3 21 186 172
3 26 187 81
3 26 181 187
3 29 190 188
3 31 191 83
3 31 192 191
3 32 195 193
3 34 196 86
3 34 197 196
3 34 199 197
3 29 200 88
3 29 188 200
3 36 203 201
3 38 204 90
3 38 205 204
3 319 318 206
3 39 210 208
3 41 211 93
3 41 212 211
3 41 214 212
3 36 215 95
3 36 201 215
3 43 218 216
3 320 219 321
3 322 220 323
3 324 323 219
3 322 323 324
3 45 325 327
3 327 326 97
3 325 326 327
3 45 328 330
3 328 221 329
3 328 329 330
3 332 331 222
3 334 333 100
3 20 224 169
3 46 227 225
3 48 228 104
3 48 229 228
3 23 230 174
3 49 231 107
3 49 232 231
3 49 233 232
3 337 336 109
3 335 336 337
3 338 234 339
3 25 235 178
3 50 236 111
3 50 237 236
3 50 238 237
3 46 239 113
3 46 225 239
3 51 242 240
3 52 243 115
3 52 340 342
3 342 341 243
3 340 341 342
3 27 244 182
3 28 245 185
3 53 343 345
3 345 344 118
3 343 344 345
3 53 346 347
3 53 348 349
3 51 246 120
3 51 240 246
3 30 247 189
3 351 350 122
3 54 352 354
3 354 353 124
3 352 353 354
3 54 355 356
3 55 250 248
3 57 251 127
3 57 252 251
3 33 253 194
3 58 254 130
3 58 255 254
3 58 256 255
3 358 357 132
3 35 359 361
3 361 360 198
3 359 360 361
3 59 259 257
3 61 260 135
3 61 261 260
3 37 262 202
3 62 263 138
3 62 264 263
3 62 265 264
3 363 362 140
3 47 266 226
3 63 267 143
3 63 268 267
3 364 269 365
3 366 365 207
3 364 365 366
3 367 270 368
3 369 271 370
3 371 370 270
3 369 370 371
3 373 372 271
3 374 272 375
3 376 273 377
3 378 377 272
3 376 377 378
3 40 379 381
3 381 380 209
3 379 380 381
3 64 382 384
3 384 383 146
3 382 383 384
3 64 385 386
3 64 387 388
3 65 274 148
3 65 275 274
3 65 276 275
3 66 277 150
3 66 278 277
3 42 279 213
3 67 280 153
3 67 281 280
3 67 282 281
3 59 283 155
3 59 257 283
3 390 389 241
3 60 284 258
3 68 285 157
3 68 286 285
3 44 287 217
3 69 288 160
3 69 289 288
3 69 290 289
3 70 291 162
3 70 292 291
3 391 293 392
3 393 294 394
3 395 394 293
3 393 394 395
3 396 295 397
3 398 397 164
3 396 397 398
3 400 399 295
3 56 296 249
3 71 297 166
3 71 298 297
3 401 299 402
3 403 402 223
3 401 402 403
3 404 300 405
3 406 301 407
3 408 407 300
3 406 407 408
3 410 409 301
3 72 73 19
3 74 73 72
3 74 21 73
3 75 76 22
3 72 76 75
3 72 19 76
3 77 78 24
3 75 78 77
3 75 22 78
3 79 80 26
3 77 80 79
3 77 24 80
3 74 81 21
3 79 81 74
3 79 26 81
3 82 83 29
3 84 83 82
3 84 31 83
3 85 86 32
3 87 86 85
3 87 34 86
3 87 88 34
3 82 88 87
3 82 29 88
3 89 90 36
3 91 90 89
3 91 38 90
3 92 93 39
3 94 93 92
3 94 41 93
3 94 95 41
3 89 95 94
3 89 36 95
3 412 411 43
3 96 413 415
3 413 97 414
3 413 414 415
3 98 97 96
3 98 45 97
3 99 416 418
3 416 100 417
3 416 417 418
3 101 100 99
3 101 419 421
3 421 420 100
3 419 420 421
3 102 422 424
3 424 423 20
3 422 423 424
3 426 425 102
3 103 104 46
3 105 104 103
3 105 48 104
3 106 107 23
3 108 107 106
3 108 49 107
3 108 109 49
3 99 109 108
3 99 427 429
3 429 428 109
3 427 428 429
3 110 111 25
3 112 111 110
3 112 50 111
3 112 113 50
3 103 113 112
3 103 46 113
3 114 115 51
3 116 115 114
3 116 52 115
3 431 430 27
3 117 118 28
3 119 118 117
3 119 53 118
3 119 120 53
3 114 120 119
3 114 51 120
3 121 122 30
3 123 122 121
3 123 432 434
3 434 433 122
3 432 433 434
3 123 435 437
3 435 124 436
3 435 436 437
3 125 124 123
3 125 54 124
3 126 127 55
3 128 127 126
3 128 57 127
3 129 130 33
3 131 130 129
3 131 58 130
3 131 132 58
3 438 132 439
3 440 439 131
3 438 439 440
3 442 441 132
3 133 443 445
3 445 444 35
3 443 444 445
3 447 446 133
3 134 135 59
3 136 135 134
3 136 61 135
3 137 138 37
3 139 138 137
3 139 62 138
3 139 140 62
3 141 140 139
3 141 448 450
3 450 449 140
3 448 449 450
3 142 143 47
3 144 143 142
3 144 63 143
3 145 146 40
3 147 146 145
3 147 64 146
3 147 148 64
3 149 148 147
3 149 65 148
3 149 150 65
3 151 150 149
3 151 66 150
3 152 153 42
3 154 153 152
3 154 67 153
3 154 155 67
3 134 155 154
3 134 59 155
3 156 157 60
3 158 157 156
3 158 68 157
3 159 160 44
3 161 160 159
3 161 69 160
3 161 162 69
3 163 162 161
3 163 70 162
3 451 164 452
3 453 164 454
3 456 455 164
3 165 166 56
3 167 166 165
3 167 71 166
3 168 169 4
3 170 169 168
3 170 20 169
3 73 170 19
3 171 170 73
3 171 20 170
3 171 102 20
3 172 102 171
3 172 457 459
3 459 458 102
3 457 458 459
3 173 174 5
3 175 174 173
3 175 23 174
3 76 175 22
3 176 175 76
3 176 23 175
3 176 106 23
3 168 106 176
3 168 4 106
3 177 460 462
3 460 178 461
3 460 461 462
3 179 178 177
3 179 25 178
3 78 179 24
3 180 179 78
3 180 25 179
3 180 110 25
3 173 110 180
3 173 5 110
3 181 182 8
3 183 182 181
3 183 27 182
3 80 183 26
3 184 183 80
3 184 27 183
3 184 463 465
3 465 464 27
3 463 464 465
3 177 466 468
3 468 467 184
3 466 467 468
3 177 469 470
3 172 471 473
3 471 185 472
3 471 472 473
3 186 185 172
3 186 28 185
3 81 186 21
3 187 186 81
3 187 28 186
3 187 117 28
3 181 117 187
3 181 8 117
3 188 189 9
3 190 189 188
3 190 30 189
3 83 190 29
3 191 190 83
3 191 30 190
3 191 121 30
3 192 121 191
3 192 10 121
3 193 194 11
3 195 194 193
3 195 33 194
3 86 195 32
3 196 195 86
3 196 33 195
3 196 129 33
3 197 129 196
3 197 13 129
3 197 198 13
3 199 198 197
3 199 35 198
3 88 199 34
3 200 199 88
3 200 35 199
3 200 133 35
3 188 133 200
3 188 9 133
3 201 202 14
3 203 202 201
3 203 37 202
3 90 203 36
3 204 203 90
3 204 37 203
3 204 137 37
3 205 137 204
3 205 16 137
3 206 207 6
3 474 207 475
3 476 475 206
3 474 475 476
3 478 477 207
3 208 209 7
3 210 209 208
3 210 40 209
3 93 210 39
3 211 210 93
3 211 40 210
3 211 145 40
3 212 145 211
3 212 17 145
3 212 213 17
3 214 213 212
3 214 42 213
3 95 214 41
3 215 214 95
3 215 42 214
3 215 152 42
3 201 152 215
3 201 14 152
3 216 217 15
3 218 217 216
3 218 44 217
3 479 218 480
3 481 480 43
3 479 480 481
3 219 482 484
3 482 218 483
3 482 483 484
3 219 44 218
3 219 159 44
3 220 159 219
3 220 18 159
3 97 485 486
3 488 487 97
3 221 489 490
3 221 491 492
3 222 223 12
3 493 223 494
3 495 494 222
3 493 494 495
3 497 496 223
3 100 498 499
3 501 500 100
3 169 101 4
3 224 101 169
3 224 502 504
3 504 503 101
3 502 503 504
3 505 224 506
3 507 506 20
3 505 506 507
3 508 224 509
3 511 510 224
3 225 226 2
3 227 226 225
3 227 47 226
3 104 227 46
3 228 227 104
3 228 47 227
3 228 142 47
3 229 142 228
3 229 6 142
3 174 105 5
3 230 105 174
3 230 48 105
3 107 230 23
3 231 230 107
3 231 48 230
3 231 229 48
3 232 229 231
3 232 6 229
3 232 206 6
3 233 206 232
3 233 512 514
3 514 513 206
3 512 513 514
3 109 233 49
3 515 233 516
3 517 516 109
3 515 516 517
3 519 518 233
3 234 520 521
3 234 522 524
3 522 7 523
3 522 523 524
3 178 525 526
3 235 527 529
3 529 528 178
3 527 528 529
3 235 530 531
3 111 235 25
3 236 235 111
3 236 532 534
3 534 533 235
3 532 533 534
3 236 535 537
3 535 234 536
3 535 536 537
3 237 234 236
3 237 7 234
3 237 208 7
3 238 208 237
3 238 39 208
3 113 238 50
3 239 238 113
3 239 39 238
3 239 92 39
3 225 92 239
3 225 2 92
3 240 538 540
3 538 241 539
3 538 539 540
3 242 241 240
3 242 541 543
3 543 542 241
3 541 542 543
3 115 242 51
3 243 242 115
3 243 544 546
3 546 545 242
3 544 545 546
3 243 547 548
3 550 549 243
3 182 116 8
3 244 116 182
3 244 52 116
3 551 244 552
3 553 552 27
3 551 552 553
3 554 244 555
3 556 52 557
3 558 557 244
3 556 557 558
3 560 559 52
3 185 561 562
3 245 563 565
3 565 564 185
3 563 564 565
3 245 566 567
3 118 245 28
3 568 245 569
3 570 569 118
3 568 569 570
3 572 571 245
3 120 573 575
3 575 574 53
3 573 574 575
3 246 576 578
3 578 577 120
3 576 577 578
3 246 579 580
3 246 581 582
3 240 583 585
3 585 584 246
3 583 584 585
3 240 586 587
3 189 588 590
3 590 589 9
3 588 589 590
3 247 591 593
3 593 592 189
3 591 592 593
3 247 594 595
3 122 247 30
3 596 247 597
3 598 597 122
3 596 597 598
3 600 599 247
3 124 601 602
3 604 603 124
3 248 249 3
3 250 249 248
3 250 56 249
3 127 250 55
3 251 250 127
3 251 56 250
3 251 165 56
3 252 165 251
3 252 12 165
3 194 128 11
3 253 128 194
3 253 57 128
3 130 253 33
3 254 253 130
3 254 57 253
3 254 252 57
3 255 252 254
3 255 12 252
3 255 222 12
3 256 222 255
3 256 605 607
3 607 606 222
3 605 606 607
3 132 256 58
3 608 256 609
3 610 609 132
3 608 609 610
3 612 611 256
3 198 613 615
3 615 614 13
3 613 614 615
3 617 616 198
3 619 618 35
3 257 258 1
3 259 258 257
3 259 60 258
3 135 259 59
3 260 259 135
3 260 60 259
3 260 156 60
3 261 156 260
3 261 15 156
3 202 136 14
3 262 136 202
3 262 61 136
3 138 262 37
3 263 262 138
3 263 61 262
3 263 261 61
3 264 261 263
3 264 15 261
3 264 216 15
3 265 216 264
3 265 43 216
3 140 265 62
3 620 265 621
3 622 621 140
3 620 621 622
3 623 43 624
3 625 624 265
3 623 624 625
3 627 626 43
3 226 91 2
3 266 91 226
3 266 38 91
3 143 266 47
3 267 266 143
3 267 38 266
3 267 205 38
3 268 205 267
3 268 16 205
3 207 144 6
3 269 144 207
3 269 63 144
3 628 269 629
3 270 630 632
3 630 269 631
3 630 631 632
3 270 63 269
3 270 268 63
3 271 268 270
3 271 16 268
3 271 141 16
3 633 141 634
3 635 634 271
3 633 634 635
3 637 636 141
3 272 638 639
3 272 640 641
3 272 642 644
3 642 96 643
3 642 643 644
3 273 96 272
3 273 3 96
3 209 645 647
3 647 646 7
3 645 646 647
3 649 648 209
3 146 650 652
3 652 651 40
3 650 651 652
3 654 653 146
3 148 655 657
3 657 656 64
3 655 656 657
3 274 658 660
3 660 659 148
3 658 659 660
3 274 661 662
3 274 663 665
3 663 273 664
3 663 664 665
3 275 273 274
3 275 3 273
3 275 248 3
3 276 248 275
3 276 55 248
3 150 276 65
3 277 276 150
3 277 55 276
3 277 126 55
3 278 126 277
3 278 11 126
3 213 151 17
3 279 151 213
3 279 66 151
3 153 279 42
3 280 279 153
3 280 66 279
3 280 278 66
3 281 278 280
3 281 11 278
3 281 193 11
3 282 193 281
3 282 32 193
3 155 282 67
3 283 282 155
3 283 32 282
3 283 85 32
3 257 85 283
3 257 1 85
3 241 666 667
3 669 668 241
3 258 84 1
3 284 84 258
3 284 31 84
3 157 284 60
3 285 284 157
3 285 31 284
3 285 192 31
3 286 192 285
3 286 10 192
3 217 158 15
3 287 158 217
3 287 68 158
3 160 287 44
3 288 287 160
3 288 68 287
3 288 286 68
3 289 286 288
3 289 10 286
3 289 125 10
3 290 125 289
3 290 54 125
3 162 290 69
3 291 290 162
3 291 54 290
3 291 670 672
3 672 671 54
3 670 671 672
3 292 673 675
3 675 674 291
3 673 674 675
3 292 676 677
3 678 220 679
3 680 220 681
3 682 18 683
3 684 683 220
3 682 683 684
3 293 685 686
3 293 687 689
3 687 18 688
3 687 688 689
3 293 163 18
3 294 163 293
3 294 70 163
3 164 690 692
3 690 294 691
3 690 691 692
3 295 294 164
3 295 70 294
3 295 292 70
3 693 292 694
3 695 694 295
3 693 694 695
3 697 696 292
3 249 98 3
3 296 98 249
3 296 45 98
3 166 296 56
3 297 296 166
3 297 45 296
3 297 221 45
3 298 221 297
3 298 698 700
3 700 699 221
3 698 699 700
3 223 167 12
3 299 167 223
3 299 71 167
3 701 299 702
3 300 703 705
3 703 299 704
3 703 704 705
3 300 71 299
3 300 298 71
3 301 298 300
3 301 706 708
3 708 707 298
3 706 707 708
3 301 709 710
3 712 711 301
