ply
format ascii 1.0
element vertex 380
property float x
property float y
property float z
element face 369
property list uchar int vertex_index
end_header
53.000072 -31.874119 22.917637
40.785374 -21.031933 11.463001
43.170769 -22.714113 17.262663
42.388012 -18.248203 3.146982
47.663784 -31.927483 17.362925
42.647972 -16.794044 16.657242
45.748459 -17.079391 17.901846
40.46841 -13.973214 3.159034
39.765442 -14.968496 7.462966
43.022045 -25.170279 11.22783
47.493118 -28.084768 19.563187
49.899406 -32.307278 20.288174
39.709198 -15.728201 11.3211
40.618076 -16.329836 14.45454
41.364368 -22.0345 14.772934
43.283768 -26.770521 14.591257
55.80867 -35.256752 24.923059
53.319595 -35.643272 21.338409
57.519402 -38.257935 22.665377
43.767197 -16.331703 -1.394981
41.247524 -19.777491 7.511464
46.146851 -22.971796 18.906128
44.799057 -27.784782 17.380707
46.52964 -30.572464 14.119224
39.324909 -12.011314 7.404475
39.302402 -12.333635 9.3453
51.932907 -29.903606 22.047661
50.157524 -30.184748 21.006313
51.359657 -32.17395 21.63221
40.564079 -13.118967 14.101423
42.788338 -19.854437 17.035799
41.676685 -19.610516 15.976662
42.111736 -22.421532 16.126942
42.160816 -24.522274 14.73677
42.838333 -25.007126 16.145405
57.518105 -36.707588 25.99761
56.340797 -36.959522 24.013464
58.359524 -38.24017 24.888842
41.314007 -16.324005 3.133664
41.893295 -15.569008 0.876721
43.07534 -17.348095 0.882526
40.123764 -18.533096 11.435215
40.148762 -18.0742 9.53767
40.905937 -20.435228 9.553389
47.190487 -30.248381 18.685408
46.012825 -28.025188 18.543653
46.077995 -29.975201 17.363522
45.256008 -29.48402 15.923429
46.949196 -31.371445 15.776329
54.553879 -36.864136 19.904663
52.374233 -35.52224 19.471878
42.699837 -13.545408 16.11985
44.15094 -13.728689 16.757463
44.075512 -16.963053 17.391092
44.185875 -20.025076 17.860691
39.509041 -11.644907 5.344604
40.060207 -14.506775 5.348002
40.794205 -16.981911 5.353147
41.741386 -23.236586 11.394954
41.950909 -22.470449 9.50028
43.31218 -24.212042 9.366004
49.200356 -27.978306 20.462107
48.562782 -30.310841 19.894356
48.656364 -32.234833 18.867754
39.481663 -12.620571 11.13028
39.89489 -12.880161 12.725495
40.028709 -16.045881 12.994076
40.352989 -18.942858 13.159227
41.491016 -16.580536 15.679523
40.865318 -19.303669 14.680503
40.927906 -21.567307 13.211535
41.800816 -23.925627 13.14757
43.002125 -26.031092 12.974881
44.541275 -27.900448 12.71567
54.294621 -33.652885 23.883707
52.802917 -33.953426 22.351999
54.472862 -35.540421 23.155214
55.345886 -37.025063 21.980459
59.769718 -39.379501 23.358936
53.844139 -29.506065 23.052971
54.78001 -31.450296 24.169868
55.931141 -33.221069 25.379986
57.294151 -34.833618 26.649761
43.025196 -13.672136 -3.578571
40.939049 -13.351053 0.938419
42.479622 -14.694677 -1.376806
44.413754 -15.175083 -3.648832
39.633598 -15.371908 9.465992
40.388191 -17.56057 7.499146
41.759892 -19.052471 5.366401
42.385994 -21.635605 7.486606
42.994911 -20.732546 5.376825
47.633537 -17.136805 18.225965
45.842094 -20.114367 18.47118
44.52549 -22.899715 18.182934
46.690899 -25.634172 19.251799
45.127396 -25.57148 18.394096
43.833019 -25.361271 17.363804
43.883106 -27.362516 16.063063
44.743221 -28.78442 14.370593
51.492287 -34.079319 20.768745
50.394009 -33.987888 19.124863
49.535301 -33.64463 17.421097
39.338806 -10.781486 10.107003
39.197031 -10.659273 9.259636
58.868448 -38.135235 25.976168
57.938814 -37.473879 25.443226
58.447739 -37.368944 26.530552
43.447738 -18.467806 2.051912
43.791403 -18.017752 0.919685
42.731676 -17.798149 2.014754
54.2659 -36.652354 18.85306
55.494095 -37.222542 19.013807
45.095646 -12.135048 16.517777
44.255701 -12.032705 16.361224
44.911986 -17.021222 17.646469
44.952354 -15.423185 17.281362
45.788828 -15.481355 17.536738
39.258083 -10.184186 6.328449
39.297949 -10.043467 5.332135
50.145102 -27.855111 20.868241
49.830467 -26.668385 20.517988
40.26625 -11.282293 13.180141
39.889853 -11.170517 12.545053
57.197215 -38.153525 21.534496
56.110456 -37.537089 21.192037
56.432644 -37.641499 22.322918
60.888418 -39.904392 23.694599
60.114851 -39.397144 24.550973
54.533287 -28.227948 22.933156
53.479042 -28.442094 22.547767
55.716922 -31.195548 24.793657
55.31154 -30.239634 24.115119
56.292488 -32.080934 25.398716
55.355576 -32.335683 24.774927
55.716922 -31.195548 24.793657
58.089824 -34.569208 27.497985
57.481411 -33.764372 26.754852
58.07027 -35.569916 27.291866
58.089824 -34.569208 27.497985
42.224016 -13.144803 -2.420748
42.449596 -12.704798 -3.479793
40.703729 -13.662133 2.048726
40.374398 -12.28787 2.072396
40.139078 -12.598951 3.182704
44.903359 -16.273414 -2.484827
45.226637 -15.695104 -3.611753
44.090475 -15.753393 -2.521907
43.107399 -22.404897 7.445988
42.168452 -22.053027 8.493443
42.889857 -22.822319 8.452825
44.161646 -20.809791 4.311545
43.757361 -21.39919 5.368853
43.358112 -20.243382 4.284887
44.161646 -20.809791 4.311545
48.663019 -17.134868 18.318807
48.686822 -15.605994 17.860011
45.994473 -21.543081 18.688654
46.781601 -20.116906 18.686564
46.933979 -21.545621 18.904038
47.092009 -26.85947 19.407493
47.587347 -25.595651 19.60845
47.988456 -26.820949 19.764144
46.468547 -30.063121 13.262199
45.575338 -29.169099 13.387883
45.636431 -29.678442 14.244909
51.025383 -34.564165 18.344729
51.384121 -34.755064 19.298371
52.015495 -35.331341 18.518237
50.596029 -34.392536 17.492846
49.964655 -33.816259 18.27298
51.025383 -34.564165 18.344729
46.726154 -15.54025 17.651208
45.788828 -15.481355 17.536738
39.208284 -10.498112 8.289224
39.166017 -10.36739 7.358385
39.313655 -12.172474 8.374887
39.208284 -10.498112 8.289224
39.197031 -10.659273 9.259636
44.00884 -25.437289 10.186798
43.828732 -26.016737 11.099115
51.045215 -30.044177 21.526987
50.623686 -28.958331 21.140344
51.511378 -28.81776 21.661019
41.101854 -11.511633 14.380864
40.600845 -11.401696 13.868105
41.031858 -13.229861 14.66884
41.101854 -11.511633 14.380864
41.058857 -14.835295 14.845398
40.591077 -14.724401 14.277981
41.031858 -13.229861 14.66884
44.186344 -17.431273 -0.212752
44.532273 -16.923077 -1.351505
43.421268 -16.839899 -0.256227
44.186344 -17.431273 -0.212752
43.791403 -18.017752 0.919685
47.071716 -22.95197 19.185193
46.933979 -21.545621 18.904038
53.176077 -35.981405 18.636668
53.464056 -36.193188 19.688271
54.2659 -36.652354 18.85306
52.015495 -35.331341 18.518237
53.176077 -35.981405 18.636668
43.53015 -11.941065 16.042417
42.792769 -11.833893 15.777026
43.425388 -13.637048 16.438657
43.53015 -11.941065 16.042417
44.255701 -12.032705 16.361224
44.990068 -13.806003 16.964547
45.095646 -12.135048 16.517777
44.113226 -15.345871 17.074278
44.990068 -13.806003 16.964547
44.952354 -15.423185 17.281362
39.659394 -11.434797 4.275489
39.297949 -10.043467 5.332135
39.988726 -12.809061 4.251819
40.139078 -12.598951 3.182704
39.659394 -11.434797 4.275489
39.416975 -11.828111 6.37454
39.258083 -10.184186 6.328449
39.166017 -10.36739 7.358385
43.570492 -23.693115 8.385687
42.889857 -22.822319 8.452825
42.631545 -23.341245 9.433142
44.153908 -24.95817 9.255885
43.167113 -24.691161 10.296917
44.00884 -25.437289 10.186798
44.44566 -24.331411 8.308244
44.153908 -24.95817 9.255885
43.570492 -23.693115 8.385687
44.44566 -24.331411 8.308244
48.842075 -26.767719 20.213604
49.830467 -26.668385 20.517988
48.346737 -28.031537 20.012647
47.988456 -26.820949 19.764144
48.842075 -26.767719 20.213604
49.67894 -29.081527 20.73421
50.145102 -27.855111 20.868241
50.623686 -28.958331 21.140344
39.683239 -11.040723 11.747445
39.428437 -10.924955 10.999493
39.688277 -12.750366 11.927888
39.683239 -11.040723 11.747445
39.889853 -11.170517 12.545053
40.229484 -12.999564 13.413459
40.26625 -11.282293 13.180141
40.600845 -11.401696 13.868105
42.099738 -13.443081 15.678054
42.792769 -11.833893 15.777026
41.495327 -14.960645 15.45789
42.099738 -13.443081 15.678054
42.095427 -15.062972 15.899686
41.054546 -16.455186 15.067031
41.058857 -14.835295 14.845398
41.495327 -14.960645 15.45789
43.818771 -26.447143 11.972641
43.828732 -26.016737 11.099115
43.012085 -25.600686 12.101356
44.588347 -27.381821 11.843035
43.818771 -26.447143 11.972641
43.7717 -26.96577 12.845275
45.555357 -28.124859 11.680754
44.588347 -27.381821 11.843035
55.714453 -37.456625 20.154139
54.949883 -36.9446 20.942561
56.110456 -37.537089 21.192037
55.494095 -37.222542 19.013807
55.714453 -37.456625 20.154139
59.409754 -38.827478 25.315926
58.868448 -38.135235 25.976168
59.064621 -38.809835 24.123889
59.409754 -38.827478 25.315926
60.114851 -39.397144 24.550973
60.69969 -39.748008 22.422897
60.888418 -39.904392 23.694599
59.516695 -39.249054 22.149779
60.69969 -39.748008 22.422897
58.391537 -38.688271 21.802999
58.64456 -38.818718 23.012156
59.516695 -39.249054 22.149779
57.197215 -38.153525 21.534496
58.391537 -38.688271 21.802999
52.523426 -28.640865 22.045113
51.511378 -28.81776 21.661019
52.888523 -29.704836 22.550316
52.523426 -28.640865 22.045113
53.479042 -28.442094 22.547767
54.843605 -29.267518 23.556671
54.533287 -28.227948 22.933156
54.312074 -30.478181 23.61142
54.843605 -29.267518 23.556671
55.31154 -30.239634 24.115119
56.799906 -32.958098 26.119965
56.292488 -32.080934 25.398716
56.612646 -34.027344 26.014874
56.799906 -32.958098 26.119965
57.481411 -33.764372 26.754852
58.182248 -36.506901 26.965791
57.406128 -35.770603 26.323686
58.07027 -35.569916 27.291866
58.447739 -37.368944 26.530552
58.182248 -36.506901 26.965791
43.256891 -13.067066 -4.625831
42.449596 -12.704798 -3.479793
43.99888 -13.76147 -4.707992
43.256891 -13.067066 -4.625831
40.559826 -12.044488 0.988206
40.374398 -12.28787 2.072396
41.180943 -12.984262 -0.162252
40.559826 -12.044488 0.988206
41.951229 -13.656074 -1.319865
41.180943 -12.984262 -0.162252
41.709335 -14.022865 -0.219193
42.752409 -14.183407 -2.477689
42.224016 -13.144803 -2.420748
41.951229 -13.656074 -1.319865
44.69316 -14.512944 -4.743122
43.99888 -13.76147 -4.707992
43.719475 -14.42361 -3.613702
45.551779 -14.971847 -4.730351
44.69316 -14.512944 -4.743122
45.551779 -14.971847 -4.730351
45.226637 -15.695104 -3.611753
44.903359 -16.273414 -2.484827
44.532273 -16.923077 -1.351505
39.392032 -12.477103 10.23779
39.338806 -10.781486 10.107003
39.428437 -10.924955 10.999493
43.452902 -21.85072 6.423744
43.107399 -22.404897 7.445988
42.690452 -21.184075 6.431716
43.452902 -21.85072 6.423744
43.757361 -21.39919 5.368853
42.740603 -19.403345 4.279675
42.377402 -19.892508 5.371613
43.358112 -20.243382 4.284887
43.054663 -19.001211 3.169966
42.073952 -18.650337 4.256691
42.740603 -19.403345 4.279675
43.447738 -18.467806 2.051912
43.054663 -19.001211 3.169966
47.668694 -15.568956 17.813267
48.686822 -15.605994 17.860011
46.690998 -17.108098 18.063905
46.726154 -15.54025 17.651208
47.668694 -15.568956 17.813267
47.677322 -18.628125 18.563957
48.663019 -17.134868 18.318807
46.737815 -18.625586 18.348572
47.677322 -18.628125 18.563957
46.781601 -20.116906 18.686564
47.34374 -24.283158 19.358028
47.587347 -25.595651 19.60845
46.418875 -24.302984 19.078964
47.071716 -22.95197 19.185193
47.34374 -24.283158 19.358028
45.474365 -28.727113 12.560422
44.642248 -28.342434 13.543131
45.575338 -29.169099 13.387883
45.555357 -28.124859 11.680754
45.474365 -28.727113 12.560422
50.358863 -34.059702 16.527978
50.596029 -34.392536 17.492846
49.236751 -33.337507 16.544719
50.358863 -34.059702 16.527978
48.300993 -32.478933 16.515633
48.599542 -32.786057 17.392011
49.236751 -33.337507 16.544719
47.943699 -32.200914 15.722335
47.30649 -31.649464 16.569627
48.300993 -32.478933 16.515633
47.782849 -31.75869 14.830219
47.943699 -32.200914 15.722335
47.573071 -31.3592 14.001666
46.739418 -30.971955 14.947776
47.782849 -31.75869 14.830219
47.550981 -30.791885 13.102941
47.573071 -31.3592 14.001666
46.468547 -30.063121 13.262199
47.550981 -30.791885 13.102941
3 103 25 104
3 0 28 26
3 2 32 30
3 2 34 32
3 105 37 106
3 107 106 35
3 105 106 107
3 3 40 38
3 3 108 110
3 110 109 40
3 108 109 110
3 1 43 41
3 4 46 44
3 4 48 46
3 112 111 49
3 113 52 114
3 6 115 117
3 115 53 116
3 115 116 117
3 6 54 53
3 118 55 119
3 8 56 24
3 8 57 56
3 9 60 58
3 120 61 121
3 11 62 27
3 11 63 62
3 122 65 123
3 13 66 29
3 13 67 66
3 5 68 51
3 14 69 31
3 14 70 69
3 14 71 70
3 15 72 33
3 15 73 72
3 16 76 74
3 18 77 36
3 18 124 126
3 126 125 77
3 124 125 126
3 127 78 128
3 129 79 130
3 131 80 132
3 133 81 134
3 135 134 80
3 133 134 135
3 136 82 137
3 139 138 82
3 140 83 141
3 7 142 144
3 142 84 143
3 142 143 144
3 19 85 39
3 19 86 85
3 19 145 147
3 147 146 86
3 145 146 147
3 12 87 64
3 20 88 42
3 20 89 88
3 148 90 149
3 150 149 59
3 148 149 150
3 151 91 152
3 154 153 91
3 155 92 156
3 21 157 159
3 157 93 158
3 157 158 159
3 21 94 93
3 10 160 162
3 160 95 161
3 160 161 162
3 22 96 45
3 22 97 96
3 22 98 97
3 23 99 47
3 23 163 165
3 165 164 99
3 163 164 165
3 17 100 75
3 166 101 167
3 168 167 50
3 166 167 168
3 169 102 170
3 171 170 101
3 169 170 171
3 172 6 173
3 174 24 175
3 25 176 178
3 176 24 177
3 176 177 178
3 25 8 24
3 180 179 9
3 26 181 183
3 181 27 182
3 181 182 183
3 28 27 26
3 28 11 27
3 184 29 185
3 186 29 187
3 188 13 189
3 190 189 29
3 188 189 190
3 30 31 5
3 32 31 30
3 32 14 31
3 32 33 14
3 34 33 32
3 34 15 33
3 35 36 16
3 37 36 35
3 37 18 36
3 38 39 7
3 40 39 38
3 40 19 39
3 40 191 193
3 193 192 19
3 191 192 193
3 195 194 40
3 41 42 12
3 43 42 41
3 43 20 42
3 196 21 197
3 44 45 10
3 46 45 44
3 46 22 45
3 46 47 22
3 48 47 46
3 48 23 47
3 49 50 17
3 198 50 199
3 200 199 49
3 198 199 200
3 202 201 50
3 203 51 204
3 52 205 207
3 205 51 206
3 205 206 207
3 52 5 51
3 208 52 209
3 53 210 212
3 210 52 211
3 210 211 212
3 53 5 52
3 53 30 5
3 54 30 53
3 54 2 30
3 55 213 214
3 55 215 217
3 215 7 216
3 215 216 217
3 24 218 220
3 218 55 219
3 218 219 220
3 56 55 24
3 56 7 55
3 56 38 7
3 57 38 56
3 57 3 38
3 58 59 1
3 60 59 58
3 60 221 223
3 223 222 59
3 221 222 223
3 224 60 225
3 226 225 9
3 224 225 226
3 227 60 228
3 230 229 60
3 61 231 232
3 61 233 235
3 233 10 234
3 233 234 235
3 27 236 238
3 236 61 237
3 236 237 238
3 62 61 27
3 62 10 61
3 62 44 10
3 63 44 62
3 63 4 44
3 239 64 240
3 65 241 243
3 241 64 242
3 241 242 243
3 65 12 64
3 29 244 246
3 244 65 245
3 244 245 246
3 66 65 29
3 66 12 65
3 66 41 12
3 67 41 66
3 67 1 41
3 51 247 248
3 68 249 251
3 251 250 51
3 249 250 251
3 68 252 254
3 252 13 253
3 252 253 254
3 31 68 5
3 69 68 31
3 69 13 68
3 69 67 13
3 70 67 69
3 70 1 67
3 70 58 1
3 71 58 70
3 71 9 58
3 33 71 14
3 72 71 33
3 72 9 71
3 72 255 257
3 257 256 9
3 255 256 257
3 73 258 260
3 260 259 72
3 258 259 260
3 73 261 262
3 74 75 0
3 76 75 74
3 76 17 75
3 36 76 16
3 77 76 36
3 77 17 76
3 77 49 17
3 263 49 264
3 265 264 77
3 263 264 265
3 267 266 49
3 268 37 269
3 78 270 272
3 270 37 271
3 270 271 272
3 78 18 37
3 273 78 274
3 275 78 276
3 277 18 278
3 279 278 78
3 277 278 279
3 281 280 18
3 282 26 283
3 79 284 286
3 284 26 285
3 284 285 286
3 79 0 26
3 287 79 288
3 80 289 291
3 289 79 290
3 289 290 291
3 80 0 79
3 80 74 0
3 81 74 80
3 81 16 74
3 292 81 293
3 82 294 296
3 294 81 295
3 294 295 296
3 82 16 81
3 82 35 16
3 297 35 298
3 299 298 82
3 297 298 299
3 301 300 35
3 83 302 303
3 83 304 305
3 84 306 307
3 84 308 309
3 39 84 7
3 85 84 39
3 85 310 312
3 312 311 84
3 310 311 312
3 85 313 315
3 313 83 314
3 313 314 315
3 86 83 85
3 86 316 318
3 318 317 83
3 316 317 318
3 86 319 320
3 322 321 86
3 324 323 19
3 64 325 327
3 325 25 326
3 325 326 327
3 87 25 64
3 87 8 25
3 42 87 12
3 88 87 42
3 88 8 87
3 88 57 8
3 89 57 88
3 89 3 57
3 59 43 1
3 90 43 59
3 90 20 43
3 328 90 329
3 91 330 332
3 330 90 331
3 330 331 332
3 91 20 90
3 91 89 20
3 333 89 334
3 335 334 91
3 333 334 335
3 336 3 337
3 338 337 89
3 336 337 338
3 340 339 3
3 92 341 342
3 92 343 345
3 343 6 344
3 343 344 345
3 346 92 347
3 93 348 350
3 348 92 349
3 348 349 350
3 93 6 92
3 93 54 6
3 94 54 93
3 94 2 54
3 95 351 352
3 95 353 355
3 353 21 354
3 353 354 355
3 45 95 10
3 96 95 45
3 96 21 95
3 96 94 21
3 97 94 96
3 97 2 94
3 97 34 2
3 98 34 97
3 98 15 34
3 47 98 22
3 99 98 47
3 99 15 98
3 99 73 15
3 356 73 357
3 358 357 99
3 356 357 358
3 360 359 73
3 75 28 0
3 100 28 75
3 100 11 28
3 50 100 17
3 101 100 50
3 101 11 100
3 101 63 11
3 102 63 101
3 102 4 63
3 361 102 362
3 363 102 364
3 365 4 366
3 367 366 102
3 365 366 367
3 368 48 369
3 370 369 4
3 368 369 370
3 371 48 372
3 373 23 374
3 375 374 48
3 373 374 375
3 376 23 377
3 379 378 23
