ply
format ascii 1.0
element vertex 118
property float x
property float y
property float z
element face 102
property list uchar int vertex_index
end_header
57.118088 21.557362 12.451482
56.896919 26.69276 8.462997
58.433861 18.089466 8.864546
55.742085 27.469574 14.118795
57.487854 24.182434 10.19205
57.151421 20.281399 7.512169
56.121235 24.64724 7.45155
56.350891 24.476353 13.304847
56.855282 25.893425 12.078945
57.385498 22.874371 11.24983
58.272865 16.063976 7.781489
57.898689 19.183128 8.077644
57.349445 17.055611 7.271176
58.045605 18.737232 11.687844
58.041519 19.914394 10.473776
58.813427 17.025078 9.880653
59.028652 15.103432 8.545489
54.894638 25.944653 15.463963
57.14909 27.268978 10.938694
57.344536 25.459206 9.267268
57.913864 21.11702 9.451595
57.587223 22.318089 8.616827
57.001312 23.497925 7.956746
56.154526 21.367271 7.146785
56.506935 27.287487 8.114667
56.85626 28.270381 8.668297
56.509077 25.67 7.957273
56.119093 26.264727 7.608944
56.506935 27.287487 8.114667
57.464388 15.441824 7.303252
57.811155 16.559793 7.526332
57.926097 14.946006 7.558408
56.832056 15.889929 7.192779
57.464388 15.441824 7.303252
58.957826 16.521275 10.500483
58.429516 17.881155 10.784249
58.573915 17.377351 11.404078
59.345061 13.627275 8.552473
59.346871 14.651594 9.054129
58.856817 14.032874 8.179339
59.345061 13.627275 8.552473
54.442745 25.169956 16.169081
54.018399 26.621662 16.54119
55.313041 24.493567 15.047698
54.442745 25.169956 16.169081
56.085875 28.206555 13.467285
55.499014 28.98261 14.441841
55.532377 25.206915 7.263557
55.530236 26.824402 7.420951
56.119093 26.264727 7.608944
55.509222 23.540146 7.200109
55.532377 25.206915 7.263557
56.785905 17.555757 7.134104
56.686893 19.168652 7.254601
57.250433 18.668505 7.391673
56.785905 17.555757 7.134104
56.832056 15.889929 7.192779
57.025013 27.640491 9.167706
56.85626 28.270381 8.668297
59.239258 15.612417 9.721711
58.957826 16.521275 10.500483
58.921039 16.064255 9.213071
59.239258 15.612417 9.721711
59.346871 14.651594 9.054129
58.478924 14.513146 7.797339
58.650759 15.583704 8.163489
58.856817 14.032874 8.179339
57.926097 14.946006 7.558408
58.478924 14.513146 7.797339
54.996069 28.198093 15.153083
55.499014 28.98261 14.441841
54.572345 27.435633 15.825667
54.018399 26.621662 16.54119
55.318362 26.707113 14.791379
54.996069 28.198093 15.153083
54.572345 27.435633 15.825667
56.041168 23.759417 13.968141
55.622765 25.210503 14.384405
55.313041 24.493567 15.047698
56.424767 22.299921 13.541458
56.734489 23.016858 12.878165
56.041168 23.759417 13.968141
56.94682 20.90897 13.128064
56.424767 22.299921 13.541458
57.410578 19.498905 12.746245
57.581846 20.147297 12.069663
56.94682 20.90897 13.128064
58.024879 18.176004 12.388827
57.410578 19.498905 12.746245
58.573915 17.377351 11.404078
58.024879 18.176004 12.388827
56.642474 27.41848 12.44736
56.085875 28.206555 13.467285
56.298684 26.6815 13.09887
56.789378 28.106257 11.877235
56.642474 27.41848 12.44736
57.002186 26.581201 11.508819
57.006498 28.809095 11.238627
56.789378 28.106257 11.877235
57.151099 27.928601 10.405554
57.006498 28.809095 11.238627
57.248821 27.023714 9.569841
57.151099 27.928601 10.405554
57.246813 26.364092 10.102981
57.120728 26.075983 8.865132
57.025013 27.640491 9.167706
57.248821 27.023714 9.569841
55.525867 21.900161 7.047726
55.509222 23.540146 7.200109
56.13788 23.007255 7.299168
56.188446 19.711588 7.071909
56.652974 20.824335 7.329477
56.686893 19.168652 7.254601
55.515946 20.208627 7.035126
56.188446 19.711588 7.071909
54.887287 20.741518 6.936067
55.525867 21.900161 7.047726
55.515946 20.208627 7.035126
3 1 24 25
3 1 26 28
3 26 6 27
3 26 27 28
3 0 9 7
3 29 12 30
3 31 30 10
3 29 30 31
3 33 32 12
3 34 15 35
3 36 35 13
3 34 35 36
3 37 16 38
3 40 39 16
3 41 17 42
3 44 43 17
3 3 45 46
3 4 18 8
3 4 19 18
3 2 20 14
3 5 21 11
3 5 22 21
3 5 23 22
3 6 47 49
3 47 48 49
3 6 50 51
3 7 8 3
3 9 8 7
3 9 4 8
3 10 11 2
3 12 11 10
3 12 5 11
3 12 52 54
3 54 53 5
3 52 53 54
3 56 55 12
3 57 1 58
3 13 14 0
3 15 14 13
3 15 2 14
3 59 15 60
3 16 61 63
3 61 15 62
3 61 62 63
3 16 2 15
3 16 10 2
3 64 10 65
3 66 65 16
3 64 65 66
3 68 67 10
3 69 3 70
3 17 71 72
3 17 73 75
3 73 3 74
3 73 74 75
3 17 7 3
3 76 7 77
3 78 77 17
3 76 77 78
3 79 0 80
3 81 80 7
3 79 80 81
3 82 0 83
3 84 13 85
3 86 85 0
3 84 85 86
3 87 13 88
3 90 89 13
3 8 91 93
3 93 92 3
3 91 92 93
3 18 94 96
3 96 95 8
3 94 95 96
3 18 97 98
3 18 99 100
3 19 101 103
3 103 102 18
3 101 102 103
3 19 104 106
3 104 1 105
3 104 105 106
3 14 9 0
3 20 9 14
3 20 4 9
3 11 20 2
3 21 20 11
3 21 4 20
3 21 19 4
3 22 19 21
3 22 1 19
3 22 6 1
3 23 6 22
3 23 107 109
3 109 108 6
3 107 108 109
3 110 23 111
3 112 111 5
3 110 111 112
3 113 23 114
3 117 116 23
3 115 116 117
