ply
format ascii 1.0
element vertex 457
property float x
property float y
property float z
element face 445
property list uchar int vertex_index
end_header
0.917259 57.477436 11.303925
-1.320612 43.338524 39.24865
-0.841522 59.09737 34.456722
-1.019918 33.16106 51.927422
3.484844 43.662945 19.576954
-1.40933 66.407852 18.732737
-0.780308 52.059643 25.521458
0.837196 37.18626 31.773525
1.842192 58.484745 4.369421
3.424545 52.315868 8.836615
2.215927 50.828671 15.497937
-1.142218 51.175541 36.977783
-1.321043 55.638798 29.641382
-1.199747 47.994343 32.503166
-0.070536 44.671894 28.762617
-0.801781 40.420868 35.141296
-1.215002 35.725754 41.263435
-0.396723 54.21735 42.039337
-0.839918 46.178028 44.034668
-1.234495 38.341412 45.719856
-0.531939 40.862518 50.782471
-0.263294 35.312492 57.219738
4.093853 25.142521 32.121613
4.79958 16.735088 34.808678
5.16753 7.958075 37.017982
-0.831696 62.048771 14.602974
-1.234608 63.22488 26.629101
-1.235807 59.328579 22.129601
-0.036783 55.287884 18.406719
0.974173 48.21944 22.182144
2.067709 40.843422 25.762974
1.4002 58.135227 7.806239
2.634575 55.482166 6.584925
2.118738 55.002224 9.971655
2.841679 51.721615 12.155491
1.559473 54.216724 13.401024
-1.257505 47.23341 38.145744
-1.302853 49.592693 34.653896
-1.292267 45.723866 35.909454
-1.038538 44.19519 33.852306
-1.21015 41.896347 37.10321
-1.045319 38.113129 38.235741
-1.311373 39.502815 40.286903
-0.609404 50.187504 43.077534
-0.429873 47.542667 46.617935
-0.682035 43.55048 47.446785
-0.274372 44.817616 50.071697
3.44083 23.466412 34.632549
4.484684 20.988747 33.516083
3.848007 19.338211 35.904877
4.427235 10.787756 38.131676
4.58329 6.38936 39.053478
-1.268358 64.24498 16.569708
-0.700806 63.000851 33.110077
-0.940485 65.082474 29.115574
-1.056078 61.268665 30.563475
-1.208155 53.863049 27.485775
-1.318268 57.593975 25.898251
-1.043083 55.712376 23.835779
-0.794136 57.334377 20.165419
-0.445686 53.792248 21.972271
0.450701 51.79269 20.310604
-0.037642 50.196339 23.754223
0.362598 40.942715 30.298248
0.906322 42.852737 27.174282
1.419853 39.105896 28.794781
-1.140291 35.770844 48.855972
-1.341909 34.538498 46.455017
-1.287367 31.998848 49.44392
2.216015 58.519787 1.009703
3.41766 55.493099 0.015636
3.075127 55.646908 3.260194
2.863472 47.309925 17.564339
-1.31312 68.516861 21.068069
-0.996347 55.141407 35.746914
-1.168486 57.391674 31.973608
-1.256418 53.489468 33.339748
-1.291349 51.813213 31.096909
-1.031555 50.117016 29.03673
-0.453808 48.37788 27.168121
-0.787977 46.366817 30.537983
-0.477789 42.618145 31.981834
-0.103258 38.870178 33.366058
0.328869 35.114563 34.69212
-0.487944 36.667427 36.371284
-0.793823 34.366085 39.310425
-0.874956 30.502304 54.928291
-1.192297 29.421524 52.368011
0.718157 61.136326 5.692205
0.31629 60.620785 9.23913
-0.455973 60.70483 37.051048
-0.614372 56.737247 38.287701
-0.803341 52.729877 39.451927
-0.99765 48.728268 40.544643
-1.171267 44.767246 41.566345
-1.297503 40.869263 42.518349
-1.058416 42.222801 44.914303
-0.929707 39.621407 48.191463
-0.791527 36.973434 51.399914
-0.146948 42.024723 53.439133
-0.392633 38.119141 54.042015
-0.646069 34.276173 54.537674
-0.492495 31.514301 57.5938
4.180485 15.109699 37.077072
-0.538034 63.000111 10.889021
-0.09041 59.806545 12.846262
-1.356712 64.943848 22.677303
-1.297894 59.451359 28.148096
-1.36479 61.2943 24.2904
-1.355967 62.89822 20.423088
-1.070753 60.819843 18.357029
-0.469999 58.7057 16.495188
0.427004 56.522953 14.843978
0.992252 53.140476 16.853611
1.582621 49.654194 18.845686
2.178293 46.06348 20.795679
0.416931 46.54929 25.492264
1.51754 44.569206 24.003128
2.763981 42.370853 22.686956
3.328236 38.580029 24.510496
3.861336 34.693768 26.262241
4.353104 30.712582 27.939445
3.641075 29.198284 30.640593
-1.352205 37.043194 43.403374
-0.241826 48.17738 47.94026
-0.317972 49.554825 46.158848
-0.164076 46.814854 49.667141
-0.352123 46.180142 48.344816
-0.241826 48.17738 47.94026
3.341591 20.482367 36.486616
3.644419 21.402311 35.268713
3.138002 22.546467 35.850453
4.293352 5.530798 40.02511
4.213831 7.711377 39.622964
4.616375 4.16497 39.443559
4.293352 5.530798 40.02511
4.14546 42.31303 19.037872
3.842905 44.180262 18.010755
3.776685 41.778496 20.549041
4.14546 42.31303 19.037872
-1.399367 67.00576 16.775983
-1.411499 68.123291 17.899518
-1.338844 65.326416 17.651222
-1.328881 65.924324 15.694468
-1.399367 67.00576 16.775983
1.391574 36.245184 31.063004
1.682902 37.205002 29.573631
1.128525 38.146078 30.284153
1.089132 35.289402 32.481493
1.643509 34.348326 31.770972
1.391574 36.245184 31.063004
3.677602 52.457527 7.198912
3.282617 54.040676 6.073067
3.02956 53.899017 7.71077
4.084352 50.837741 8.356801
3.677602 52.457527 7.198912
3.802488 50.645042 9.962193
4.084352 50.837741 8.356801
2.879072 49.557496 14.910495
3.191948 50.003968 13.239272
2.528803 51.275143 13.826714
2.5397 49.069298 16.531138
3.202844 47.798123 15.943696
2.879072 49.557496 14.910495
-1.195631 69.517899 22.304428
-1.289304 70.248688 20.265286
-1.120916 33.860094 41.723102
-0.910327 33.180259 40.746598
-1.004412 35.045919 40.28693
-0.9663 28.646772 55.072464
-0.789918 29.137806 56.384928
0.250993 62.399392 6.46317
0.41237 62.582392 4.672627
0.05006 62.141621 8.236632
0.517224 60.878555 7.465668
0.250993 62.399392 6.46317
-0.294795 61.423221 38.375782
-0.405377 62.641599 36.39501
-0.313047 56.219173 41.477507
-0.218517 54.897682 43.362419
-0.505548 55.477299 40.163519
-0.421872 57.479122 39.601688
-0.313047 56.219173 41.477507
-0.013429 42.538656 54.763508
-0.045988 43.997982 53.082385
-0.327963 36.715817 55.630876
-0.219886 38.641701 55.380056
-0.155216 37.238377 56.968918
4.62949 23.800382 31.584072
4.442873 25.888666 30.829439
5.130265 17.458887 33.630955
4.972817 19.585717 32.984657
4.642132 18.861918 34.16238
5.234913 15.273926 34.274273
5.130265 17.458887 33.630955
3.885992 14.217079 38.168575
3.715693 16.317491 37.645088
5.098107 10.172462 36.49978
4.727959 11.587303 37.056628
4.797382 9.372915 37.574829
5.47793 8.659056 35.953253
5.098107 10.172462 36.49978
5.491617 6.401035 36.451412
5.47793 8.659056 35.953253
4.015629 53.853866 -0.380138
3.87509 54.029152 1.182913
-0.684865 62.524441 12.745997
-0.824124 64.160296 11.821002
-0.970955 63.684626 13.677979
-1.192913 65.076002 25.860985
-1.045851 66.004799 27.104222
-1.087546 64.153677 27.872338
-1.29566 64.084364 24.653202
-1.253965 65.935486 23.885086
-1.192913 65.076002 25.860985
3.50183 33.928045 27.673018
3.237299 35.867924 26.859676
3.747714 31.937452 28.51162
4.10722 32.703175 27.100843
3.50183 33.928045 27.673018
3.391699 31.180304 29.862195
3.997089 29.955433 29.290019
3.747714 31.937452 28.51162
0.56696 33.225073 35.327309
0.11285 34.018055 36.118904
-1.330423 33.911279 45.340244
-1.353222 32.671501 46.789501
-1.27459 28.8568 51.163595
-1.245194 27.580452 52.546731
-0.301397 52.892166 43.869549
-0.218517 54.897682 43.362419
-0.407738 50.877243 44.388647
-0.503063 52.202427 42.558436
-0.301397 52.892166 43.869549
-0.519639 48.865085 44.847735
-0.407738 50.877243 44.388647
-0.317972 49.554825 46.158848
-0.117498 35.768709 58.559376
-0.155216 37.238377 56.968918
-0.202213 33.868173 58.759487
-0.117498 35.768709 58.559376
4.135803 9.910575 39.162064
4.009367 12.056107 38.695877
4.505262 8.588558 38.592577
4.135803 9.910575 39.162064
4.213831 7.711377 39.622964
4.900299 4.930473 38.479833
5.192419 5.71483 37.462086
4.87541 7.173718 38.03573
4.900299 4.930473 38.479833
4.616375 4.16497 39.443559
-1.189286 64.78273 14.661345
-1.328881 65.924324 15.694468
-1.050027 63.146876 15.586341
-0.970955 63.684626 13.677979
-1.189286 64.78273 14.661345
-0.820646 64.041663 31.112825
-0.771092 65.942078 30.41111
-0.651252 64.901266 32.408361
2.016558 38.073988 28.125946
2.340485 38.942751 26.610042
1.743781 39.974659 27.278878
2.016558 38.073988 28.125946
1.682902 37.205002 29.573631
-1.325951 31.401676 48.283952
-1.353222 32.671501 46.789501
-1.314638 33.268673 47.949468
2.816838 57.006443 0.51267
2.961987 56.866863 -1.122205
2.361164 58.380207 -0.625171
3.703823 54.106057 2.805191
3.87509 54.029152 1.182913
3.246393 55.570003 1.637915
3.502893 54.123047 4.410702
2.854851 55.564537 4.92256
3.282617 54.040676 6.073067
3.703823 54.106057 2.805191
3.502893 54.123047 4.410702
3.511055 50.347915 11.621631
3.802488 50.645042 9.962193
3.133112 52.018742 10.496053
3.511055 50.347915 11.621631
3.191948 50.003968 13.239272
3.532219 46.003751 17.004447
3.202844 47.798123 15.943696
3.174158 45.486435 18.570647
3.842905 44.180262 18.010755
3.532219 46.003751 17.004447
-1.363394 69.177796 19.067183
-1.289304 70.248688 20.265286
-1.361225 67.462356 19.900403
-1.411499 68.123291 17.899518
-1.363394 69.177796 19.067183
-0.295557 34.794487 36.958487
0.11285 34.018055 36.118904
-0.079537 35.890995 35.531702
-0.448496 33.643816 38.428057
-0.295557 34.794487 36.958487
-0.640883 35.516756 37.840855
-0.628144 32.501377 39.821061
-0.448496 33.643816 38.428057
-0.628144 32.501377 39.821061
-0.910327 33.180259 40.746598
-1.12497 28.106383 53.792324
-1.033627 29.961914 53.648151
-0.9663 28.646772 55.072464
-1.245194 27.580452 52.546731
-1.12497 28.106383 53.792324
1.808247 59.883213 -0.077754
2.361164 58.380207 -0.625171
1.651084 59.932724 1.615117
1.808247 59.883213 -0.077754
1.464173 59.915203 3.294976
2.029104 58.502266 2.689562
1.651084 59.932724 1.615117
0.902155 61.240994 3.956368
0.41237 62.582392 4.672627
1.280174 59.810536 5.030813
1.464173 59.915203 3.294976
0.902155 61.240994 3.956368
-0.527793 63.78961 34.424524
-0.651252 64.901266 32.408361
-0.57839 61.85284 35.080562
-0.527793 63.78961 34.424524
-0.405377 62.641599 36.39501
-0.342672 59.462913 38.983362
-0.294795 61.423221 38.375782
-0.535173 58.721039 37.669375
-0.342672 59.462913 38.983362
-0.421872 57.479122 39.601688
-0.1097 45.394429 51.398667
-0.164076 46.814854 49.667141
-0.21066 43.42117 51.755415
-0.1097 45.394429 51.398667
-0.045988 43.997982 53.082385
-0.097043 40.594492 55.078615
-0.013429 42.538656 54.763508
-0.26979 40.071932 53.740574
-0.097043 40.594492 55.078615
-0.219886 38.641701 55.380056
-0.598688 29.643805 57.717682
-0.789918 29.137806 56.384928
-0.683725 31.008302 56.261046
-0.316814 31.969078 58.946518
-0.377895 33.413396 57.406769
-0.202213 33.868173 58.759487
-0.410762 30.088764 59.069092
-0.316814 31.969078 58.946518
-0.598688 29.643805 57.717682
-0.410762 30.088764 59.069092
4.824905 21.723495 32.281306
4.62949 23.800382 31.584072
4.289269 23.065634 32.818848
4.824905 21.723495 32.281306
4.972817 19.585717 32.984657
3.549454 18.431748 37.058991
3.341591 20.482367 36.486616
4.014246 17.223955 36.490975
3.549454 18.431748 37.058991
3.715693 16.317491 37.645088
4.30386 12.948728 37.604374
3.885992 14.217079 38.168575
4.009367 12.056107 38.695877
4.604584 13.748275 36.529325
4.30386 12.948728 37.604374
4.727959 11.587303 37.056628
4.914131 14.560969 35.395128
4.490032 15.922394 35.942875
4.604584 13.748275 36.529325
5.234913 15.273926 34.274273
4.914131 14.560969 35.395128
5.491617 6.401035 36.451412
5.192419 5.71483 37.462086
3.535299 55.258911 -1.558771
2.961987 56.866863 -1.122205
3.535299 55.258911 -1.558771
4.015629 53.853866 -0.380138
-0.718535 64.557367 9.940923
-0.824124 64.160296 11.821002
-0.377103 63.331284 9.061578
-0.718535 64.557367 9.940923
-0.110872 61.810448 10.064075
0.05006 62.141621 8.236632
-0.377103 63.331284 9.061578
-0.89552 66.935295 28.373369
-0.771092 65.942078 30.41111
-0.89552 66.935295 28.373369
-1.045851 66.004799 27.104222
-1.232169 67.721992 23.080469
-1.195631 69.517899 22.304428
-1.334916 66.730355 21.872686
-1.232169 67.721992 23.080469
-1.253965 65.935486 23.885086
3.416254 41.13245 22.104042
3.776685 41.778496 20.549041
3.124413 43.016899 21.131955
3.698381 39.237038 23.015812
3.416254 41.13245 22.104042
3.046108 40.475441 23.598726
3.967485 37.295441 23.949894
3.698381 39.237038 23.015812
2.970749 37.811054 25.983804
2.697972 39.711726 25.136735
2.340485 38.942751 26.610042
3.594786 36.636899 25.386368
2.970749 37.811054 25.983804
3.237299 35.867924 26.859676
4.234036 35.352311 24.825767
3.967485 37.295441 23.949894
3.594786 36.636899 25.386368
4.477083 33.356881 25.719938
4.234036 35.352311 24.825767
4.722968 31.366287 26.55854
4.477083 33.356881 25.719938
4.10722 32.703175 27.100843
4.936207 29.319246 27.410856
4.722968 31.366287 26.55854
4.572499 28.673696 28.738355
4.936207 29.319246 27.410856
4.216484 27.916548 30.088929
4.572499 28.673696 28.738355
3.997089 29.955433 29.290019
3.867464 27.170403 31.381103
4.442873 25.888666 30.829439
4.216484 27.916548 30.088929
3.055674 30.318358 31.243821
3.391699 31.180304 29.862195
3.308109 28.3475 31.958297
3.055674 30.318358 31.243821
3.534498 26.319618 32.698807
3.867464 27.170403 31.381103
3.308109 28.3475 31.958297
3.207987 25.481564 33.954275
3.767342 24.304466 33.377081
3.534498 26.319618 32.698807
2.901878 24.548161 35.237268
3.207987 25.481564 33.954275
3.138002 22.546467 35.850453
2.901878 24.548161 35.237268
0.834969 34.253553 33.940791
1.089132 35.289402 32.481493
0.583033 36.150411 33.232822
0.834969 34.253553 33.940791
0.56696 33.225073 35.327309
-1.335571 35.163628 43.814422
-1.347057 35.790846 44.929195
-1.330423 33.911279 45.340244
-1.26697 34.504908 42.744453
-1.283603 36.384474 42.333405
-1.335571 35.163628 43.814422
-1.120916 33.860094 41.723102
-1.26697 34.504908 42.744453
-1.322125 30.145462 49.701549
-1.239832 30.710186 50.905966
-1.27459 28.8568 51.163595
-1.325951 31.401676 48.283952
-1.322125 30.145462 49.701549
3 0 33 31
3 0 35 33
3 1 38 36
3 1 40 38
3 1 42 40
3 124 44 125
3 126 46 127
3 128 127 44
3 126 127 128
3 129 49 130
3 131 130 47
3 129 130 131
3 132 51 133
3 135 134 51
3 4 136 137
3 4 138 139
3 5 140 141
3 5 142 144
3 142 52 143
3 142 143 144
3 2 55 53
3 6 58 56
3 6 60 58
3 6 62 60
3 7 65 63
3 7 145 147
3 147 146 65
3 145 146 147
3 7 148 150
3 148 149 150
3 3 68 66
3 8 71 69
3 9 151 153
3 153 152 32
3 151 152 153
3 9 154 155
3 9 156 157
3 10 158 160
3 160 159 34
3 158 159 160
3 10 161 163
3 161 72 162
3 161 162 163
3 164 73 165
3 11 76 74
3 13 77 37
3 13 78 77
3 13 80 78
3 15 81 39
3 15 82 81
3 15 84 82
3 16 85 41
3 16 166 168
3 168 167 85
3 166 167 168
3 170 169 86
3 171 88 172
3 173 89 174
3 175 174 88
3 173 174 175
3 176 90 177
3 17 178 179
3 17 180 182
3 180 91 181
3 180 181 182
3 17 92 91
3 18 93 43
3 18 94 93
3 18 96 94
3 20 97 45
3 20 98 97
3 183 99 184
3 21 185 187
3 185 100 186
3 185 186 187
3 21 101 100
3 21 102 101
3 22 188 189
3 23 190 192
3 192 191 48
3 190 191 192
3 23 193 194
3 195 103 196
3 24 197 199
3 199 198 50
3 197 198 199
3 24 200 201
3 24 202 203
3 205 204 70
3 25 206 208
3 206 104 207
3 206 207 208
3 25 105 104
3 26 209 211
3 211 210 54
3 209 210 211
3 26 212 214
3 212 106 213
3 212 213 214
3 12 107 75
3 27 108 57
3 27 109 108
3 27 110 109
3 28 111 59
3 28 112 111
3 28 113 112
3 29 114 61
3 29 115 114
3 14 116 79
3 30 117 64
3 30 118 117
3 30 119 118
3 215 120 216
3 217 121 218
3 219 218 120
3 217 218 219
3 220 122 221
3 222 221 121
3 220 221 222
3 224 223 83
3 19 123 95
3 226 225 67
3 228 227 87
3 31 32 8
3 33 32 31
3 33 9 32
3 33 34 9
3 35 34 33
3 35 10 34
3 36 37 11
3 38 37 36
3 38 13 37
3 38 39 13
3 40 39 38
3 40 15 39
3 40 41 15
3 42 41 40
3 42 16 41
3 229 17 230
3 231 43 232
3 233 232 17
3 231 232 233
3 44 234 236
3 234 43 235
3 234 235 236
3 44 18 43
3 44 45 18
3 46 45 44
3 46 20 45
3 237 21 238
3 240 239 21
3 47 48 22
3 49 48 47
3 49 23 48
3 241 50 242
3 51 243 245
3 243 50 244
3 243 244 245
3 51 24 50
3 51 246 248
3 248 247 24
3 246 247 248
3 250 249 51
3 52 251 252
3 52 253 255
3 253 25 254
3 253 254 255
3 53 256 258
3 256 54 257
3 256 257 258
3 55 54 53
3 55 26 54
3 56 57 12
3 58 57 56
3 58 27 57
3 58 59 27
3 60 59 58
3 60 28 59
3 60 61 28
3 62 61 60
3 62 29 61
3 63 64 14
3 65 64 63
3 65 30 64
3 65 259 261
3 261 260 30
3 259 260 261
3 263 262 65
3 66 67 19
3 68 67 66
3 68 264 266
3 266 265 67
3 264 265 266
3 69 267 269
3 267 70 268
3 267 268 269
3 71 70 69
3 71 270 272
3 272 271 70
3 270 271 272
3 32 71 8
3 273 71 274
3 275 274 32
3 273 274 275
3 277 276 71
3 34 278 280
3 280 279 9
3 278 279 280
3 282 281 34
3 72 283 284
3 72 285 287
3 285 4 286
3 285 286 287
3 73 288 289
3 73 290 292
3 290 5 291
3 290 291 292
3 74 75 2
3 76 75 74
3 76 12 75
3 37 76 11
3 77 76 37
3 77 12 76
3 77 56 12
3 78 56 77
3 78 6 56
3 78 79 6
3 80 79 78
3 80 14 79
3 39 80 13
3 81 80 39
3 81 14 80
3 81 63 14
3 82 63 81
3 82 7 63
3 82 83 7
3 84 83 82
3 84 293 295
3 295 294 83
3 293 294 295
3 41 84 15
3 85 84 41
3 85 296 298
3 298 297 84
3 296 297 298
3 85 299 300
3 302 301 85
3 86 87 3
3 303 87 304
3 305 304 86
3 303 304 305
3 307 306 87
3 308 69 309
3 310 69 311
3 312 8 313
3 314 313 69
3 312 313 314
3 88 315 316
3 88 317 319
3 317 8 318
3 317 318 319
3 88 31 8
3 89 31 88
3 89 0 31
3 320 53 321
3 90 322 324
3 322 53 323
3 322 323 324
3 90 2 53
3 325 90 326
3 91 327 329
3 327 90 328
3 327 328 329
3 91 2 90
3 91 74 2
3 92 74 91
3 92 11 74
3 43 92 17
3 93 92 43
3 93 11 92
3 93 36 11
3 94 36 93
3 94 1 36
3 94 95 1
3 96 95 94
3 96 19 95
3 45 96 18
3 97 96 45
3 97 19 96
3 97 66 19
3 98 66 97
3 98 3 66
3 330 46 331
3 99 332 334
3 332 46 333
3 332 333 334
3 99 20 46
3 335 99 336
3 100 337 339
3 337 99 338
3 337 338 339
3 100 20 99
3 100 98 20
3 101 98 100
3 101 3 98
3 101 86 3
3 102 86 101
3 102 340 342
3 342 341 86
3 340 341 342
3 343 102 344
3 345 344 21
3 343 344 345
3 346 102 347
3 349 348 102
3 48 350 352
3 352 351 22
3 350 351 352
3 354 353 48
3 355 49 356
3 103 357 359
3 357 49 358
3 357 358 359
3 103 23 49
3 50 360 362
3 360 103 361
3 360 361 362
3 363 103 364
3 365 364 50
3 363 364 365
3 366 23 367
3 368 367 103
3 366 367 368
3 370 369 23
3 372 371 24
3 70 373 374
3 376 375 70
3 104 377 378
3 104 379 380
3 104 381 383
3 381 89 382
3 381 382 383
3 105 89 104
3 105 0 89
3 54 384 385
3 387 386 54
3 388 73 389
3 106 390 392
3 390 73 391
3 390 391 392
3 106 5 73
3 75 55 2
3 107 55 75
3 107 26 55
3 57 107 12
3 108 107 57
3 108 26 107
3 108 106 26
3 109 106 108
3 109 5 106
3 109 52 5
3 110 52 109
3 110 25 52
3 59 110 27
3 111 110 59
3 111 25 110
3 111 105 25
3 112 105 111
3 112 0 105
3 112 35 0
3 113 35 112
3 113 10 35
3 61 113 28
3 114 113 61
3 114 10 113
3 114 72 10
3 115 72 114
3 115 4 72
3 79 62 6
3 116 62 79
3 116 29 62
3 64 116 14
3 117 116 64
3 117 29 116
3 117 115 29
3 118 115 117
3 118 4 115
3 118 393 395
3 395 394 4
3 393 394 395
3 119 396 398
3 398 397 118
3 396 397 398
3 119 399 400
3 401 119 402
3 403 402 30
3 401 402 403
3 120 404 406
3 404 119 405
3 404 405 406
3 120 407 409
3 409 408 119
3 407 408 409
3 120 410 411
3 121 412 414
3 414 413 120
3 412 413 414
3 121 415 416
3 121 417 418
3 122 419 421
3 421 420 121
3 419 420 421
3 122 422 424
3 422 22 423
3 422 423 424
3 425 122 426
3 427 122 428
3 429 22 430
3 431 430 122
3 429 430 431
3 432 47 433
3 434 433 22
3 432 433 434
3 435 47 436
3 438 437 47
3 83 439 441
3 441 440 7
3 439 440 441
3 443 442 83
3 95 42 1
3 123 42 95
3 123 16 42
3 67 123 19
3 444 123 445
3 446 445 67
3 444 445 446
3 447 16 448
3 449 448 123
3 447 448 449
3 451 450 16
3 87 68 3
3 452 68 453
3 454 453 87
3 452 453 454
3 456 455 68
