ply
format ascii 1.0
element vertex 746
property float x
property float y
property float z
element face 811
property list uchar int vertex_index
end_header
-1.479315 80.363708 -3.589859
-9.865862 86.692596 14.362285
3.022797 54.22295 -14.312969
4.95668 26.397987 -21.151928
-0.003195 68.215622 -10.65538
2.506313 58.240627 -2.260046
-0.989561 69.514893 3.449585
-3.839468 87.254578 -10.002209
-0.322243 77.399918 -18.274979
1.607151 62.96619 -23.496674
-3.800489 88.028885 5.336046
-1.501078 79.342194 12.131775
-10.97521 88.365204 -0.395224
-8.144985 24.716984 -29.674873
-2.257914 19.18018 -28.632885
2.193407 53.746761 -32.191376
3.464291 46.257603 -24.194122
-0.914957 74.550476 -7.464031
-0.558563 69.393494 -3.742357
-1.337069 75.130692 -0.104776
-2.036217 84.668411 -6.995155
-1.675959 83.206863 -14.422186
-0.992111 79.376511 -11.099203
-0.209791 73.008392 -14.596758
-6.431536 88.566956 9.91555
-3.520363 86.703308 13.429592
-5.999947 86.482391 17.929482
-14.354733 84.924896 11.403049
-10.432955 88.133942 6.815364
-6.756861 89.36438 2.155594
4.581264 46.177761 -14.629206
4.780293 49.378681 -9.482582
0.400566 56.405552 -33.99649
1.394388 62.238316 -31.679756
1.943552 58.668644 -19.034969
2.570744 54.929028 -24.480408
3.225574 50.712337 -19.631618
4.401314 42.002594 -19.153545
3.799892 30.362846 -25.525734
2.56995 23.08213 -27.004913
1.387388 61.495144 -12.986744
2.849934 56.776836 -8.498795
0.92247 63.345654 -6.581097
0.408689 64.095261 0.155144
-0.216171 63.662457 7.234134
-7.444126 87.602966 -12.149429
-3.967037 85.235214 -16.929722
-1.470705 80.622925 -21.207863
0.193396 74.315903 -24.726212
1.359312 66.940216 -27.287415
0.662479 70.498993 -21.359909
0.740891 66.059937 -17.304745
-2.236181 85.108047 0.759307
-1.643713 80.376404 4.146482
-2.148113 84.498596 8.755438
-1.821495 82.747696 16.983685
-7.017189 89.003601 -5.257336
-3.876692 88.182159 -2.500904
-5.013493 22.362289 -29.237339
-1.491112 74.692093 7.514207
-1.30369 68.522491 10.957811
1.047157 47.551693 -33.540833
2.594971 44.470856 -31.281952
2.259064 58.887943 -28.698536
2.948895 50.221645 -28.769985
3.438866 40.77092 -27.537083
4.244949 36.74905 -22.867279
5.408394 32.519882 -18.025387
-1.214041 77.547653 -5.60041
-1.161783 74.963409 -3.813061
-1.40435 77.819473 -1.849602
-1.65386 82.680588 -5.315683
-1.445667 82.199738 -9.110497
-1.271955 79.990219 -7.374287
-0.943398 77.036758 -9.297697
-8.080853 87.909271 12.160852
-6.223877 87.689926 13.896928
-7.829832 86.854935 16.092648
-12.056267 86.027695 12.785256
-12.400515 86.735931 9.122197
-10.156086 87.575882 10.554165
-8.314846 88.63118 8.289039
3.828182 50.306995 -14.587454
4.689842 47.89909 -12.126661
3.843548 51.875202 -11.907249
0.8225 66.212265 -30.906223
2.37875 56.472858 -16.692478
2.588493 54.773716 -19.47905
3.112999 52.582767 -17.044579
3.820892 48.502277 -17.129166
4.354954 28.369465 -23.37273
3.956284 24.823658 -24.505772
0.641258 64.909775 -11.939058
1.151491 62.550152 -9.824078
0.360023 65.791702 -8.639843
-0.786314 69.590775 -0.184869
-0.149817 66.76767 -1.827171
-0.402893 66.838364 1.696908
0.106583 64.028458 3.65305
-0.656658 66.621307 5.304435
-5.406023 87.713623 -11.208435
-5.588692 86.719986 -14.584372
-3.860714 86.388306 -13.561659
-0.924189 80.48024 -16.433283
-1.529362 82.066147 -17.925919
-0.694715 79.210892 -19.873196
-0.555134 77.639404 -23.075428
-0.017948 76.006241 -21.627735
0.553257 72.533264 -23.167122
0.189655 74.049744 -19.924294
-0.174744 70.628525 -12.641994
0.230726 69.589966 -16.060778
0.343882 67.255737 -14.017904
0.959192 63.783344 -15.165951
-2.889051 86.840714 3.034921
-2.228355 84.939957 4.727664
-2.82353 86.507126 7.038386
-3.32732 85.573364 17.557161
-2.525177 84.960098 15.220697
-13.088203 87.264847 2.045944
-9.171171 88.5457 -6.320778
-8.927727 88.966995 -2.832176
-5.109631 88.995407 3.691584
-5.191133 89.083496 -0.180552
-3.86339 88.245239 1.382722
-2.889154 86.89798 -0.906799
-1.742285 24.777267 -29.688919
-3.076263 26.311123 -30.062462
-3.583618 20.862389 -28.983982
1.513535 19.258785 -27.330284
2.712765 57.654789 -5.431107
3.787155 54.253323 -6.174549
-1.606262 79.996155 8.106567
-1.547205 77.616638 5.830711
-1.413668 69.83873 17.066298
-1.449034 70.884583 13.109842
-1.389404 67.603668 14.819228
-1.110214 65.32048 12.752983
1.464918 55.216747 -33.307117
0.79631 52.091961 -33.948784
1.764599 50.774784 -33.136276
1.946867 46.113552 -32.612999
2.439232 49.216976 -31.90659
1.537577 65.024475 -25.511883
1.835812 62.987431 -28.150108
1.990614 61.055721 -26.266418
3.031567 50.686314 -24.492657
2.820805 52.702526 -26.812389
3.185024 48.277409 -26.583794
3.21595 45.608654 -28.296577
3.512794 43.647896 -26.048817
3.810333 38.788818 -25.2701
3.867043 41.616547 -23.627708
5.082912 39.72604 -16.647068
4.925354 37.343925 -18.631771
-9.81579 25.552319 -29.927124
-0.521723 71.430054 -9.156481
-0.300957 68.931656 -7.230274
-0.806751 71.989929 -5.614367
-1.0345 72.300568 -2.013386
-1.211548 72.353134 1.654352
-2.734688 86.222351 -8.57766
-2.63413 85.491699 -12.268387
-1.860052 84.068558 -10.762533
-1.19026 81.470215 -12.827696
-0.663225 78.517258 -14.745581
-0.212112 75.29599 -16.492111
-0.602009 76.287918 -12.935596
-0.595274 73.898102 -11.061159
-4.987831 88.612518 7.636213
-3.683609 87.519165 9.353245
-4.824312 87.919556 11.645923
-4.629416 86.906006 15.712428
-4.421955 85.568848 19.822317
-14.771152 85.473984 7.903361
-12.740236 87.138565 5.537197
-10.700151 88.387604 3.160639
-8.723577 89.137009 0.778791
-8.526443 89.033386 4.490903
-6.609808 89.120178 5.998465
-0.194881 28.655914 -30.283848
-0.543606 23.063526 -29.1353
5.262341 41.833462 -14.484976
5.453678 43.690956 -12.158628
1.036425 59.456226 -33.112019
1.847872 58.082653 -32.114391
1.706623 60.834721 -21.317112
2.091309 59.014515 -24.14489
2.261387 56.914043 -21.861206
2.816257 52.847416 -22.099442
3.352524 48.607868 -22.033524
3.858906 44.170067 -21.690811
3.83374 46.460247 -19.50906
4.481213 44.215961 -16.978134
-10.354362 20.797462 -28.976776
-11.70875 84.995117 16.507887
-9.571478 85.474609 18.220791
-13.940267 84.074905 14.969449
3.338104 21.094456 -25.402695
2.195873 57.943264 -13.781096
2.943401 55.626186 -11.460716
2.029711 59.17384 -10.767313
1.857929 60.147015 -7.659634
1.654924 60.843464 -4.459139
0.101416 66.41539 -5.270773
0.679699 63.865047 -3.255875
1.400478 61.246639 -1.165211
1.086153 61.345661 2.220531
-2.572451 84.485382 -15.811928
-2.597355 83.181793 -19.149155
0.927254 68.624237 -28.745403
0.819496 70.72937 -26.137718
1.06238 68.857758 -24.46978
1.130173 66.795944 -22.559242
0.221403 71.878235 -18.045509
0.677296 68.314316 -19.383877
1.173218 64.63121 -20.483128
1.318369 62.423382 -18.304142
1.648808 60.197186 -16.063597
-1.791332 82.916245 -1.45974
-1.603445 80.495071 0.249343
-1.84757 82.90239 2.453078
-1.823076 82.629013 6.424652
-1.726423 82.083374 10.457525
-2.697554 85.884018 11.101549
-2.00679 83.77121 12.842293
-1.571327 81.253555 14.550777
-7.577705 85.466095 20.064943
-9.491465 87.885925 -9.657299
-7.190529 88.430954 -8.785397
-5.306299 88.435059 -7.655304
-6.88435 89.319138 -1.601868
-5.24733 88.892776 -3.969166
-3.858385 87.850616 -6.303223
-2.830853 86.690063 -4.781914
-2.169081 85.014999 -3.149744
-6.539042 23.652767 -29.452209
3.840683 53.196644 -9.100908
-1.513857 77.845779 1.958474
-1.445475 75.043488 3.668741
-1.341478 72.138992 5.396502
-1.422647 71.651031 9.216227
-1.165525 69.159775 7.164684
-0.899036 66.114624 8.992825
1.165987 42.768185 -32.807384
1.488888 64.735046 -29.718849
1.958498 60.674709 -30.37833
2.345711 56.452869 -30.698826
2.420643 56.95332 -26.706356
2.630482 54.638821 -28.908733
2.655136 52.061031 -30.663704
2.891411 47.47765 -30.276058
3.062805 42.675514 -29.570026
3.181835 37.631119 -28.617043
3.629471 35.688744 -26.576145
4.088013 33.690643 -24.341217
4.606255 31.66357 -22.008739
4.332798 39.518986 -21.127506
4.778088 34.660374 -20.423981
5.200676 29.630058 -19.670811
-11.992697 21.664131 -29.314659
0.469139 68.098 -30.362051
0.28196 66.774544 -31.285699
4.784678 24.635278 -21.810992
4.483815 25.621018 -22.921392
4.655817 27.383726 -22.262329
-2.826818 84.651176 18.472003
-3.226952 84.850762 19.639215
-12.22248 87.757149 -0.865161
-13.278976 87.206971 0.355423
-12.031707 87.815026 0.82536
-11.131239 88.230835 -2.114622
-12.22248 87.757149 -0.865161
-9.951469 88.6661 -1.6137
-10.107498 88.531731 -3.333099
-11.131239 88.230835 -2.114622
-3.278918 17.254888 -28.343117
-3.94177 18.095993 -28.518666
-2.920766 20.021285 -28.808433
3.079626 56.632675 -2.696613
3.182852 56.339756 -4.282143
2.609539 57.947708 -3.845576
-1.505987 78.231529 10.951836
-1.558579 78.55851 8.939232
-1.55367 79.669174 10.119171
-1.399367 67.00576 16.775983
-1.401536 68.721199 15.942763
-1.411499 68.123291 17.899518
-1.328881 65.924324 15.694468
-1.399367 67.00576 16.775983
5.352909 37.395073 -16.428519
5.472319 38.511736 -15.43428
-8.980387 25.134652 -29.800998
-8.810078 27.546813 -30.311011
-7.974675 27.129145 -30.184885
-14.562943 85.19944 9.653205
-15.750473 84.478355 9.077251
-15.542263 84.203812 10.827095
0.325551 27.783632 -29.876162
0.430829 30.545671 -30.473043
0.151188 24.987438 -29.301887
-0.369244 25.85972 -29.709574
0.325551 27.783632 -29.876162
5.205611 47.34433 -9.58026
5.160385 46.604534 -10.902299
4.735067 48.638886 -10.804621
5.269938 48.032662 -8.266527
5.205611 47.34433 -9.58026
1.215406 60.847271 -32.395888
0.75174 61.477863 -32.835232
0.930722 62.868908 -32.119101
-11.539987 84.313637 18.386281
-12.621772 83.95182 17.543574
-13.737531 83.491715 16.774355
-14.842258 82.942543 16.028481
-12.621772 83.95182 17.543574
-12.824509 84.535011 15.738668
-13.737531 83.491715 16.774355
3.557228 28.584892 -25.968464
3.531164 31.349365 -26.52414
3.715445 20.11487 -24.510603
3.647194 22.959057 -24.954234
4.024534 21.979471 -24.062142
3.328157 18.188562 -24.993529
3.715445 20.11487 -24.510603
0.250993 62.399392 6.46317
0.41237 62.582392 4.672627
-0.054794 63.845458 5.443592
0.05006 62.141621 8.236632
0.250993 62.399392 6.46317
-7.629565 87.054824 -13.725354
-8.869549 86.745812 -14.051872
-8.68411 87.293953 -12.475946
-4.930238 85.334243 -17.327923
-5.741066 86.076629 -16.155248
-4.777864 85.9776 -15.757047
-4.0837 84.502381 -18.485518
-4.930238 85.334243 -17.327923
-2.112444 81.08844 -21.708008
-2.675769 82.367874 -20.678654
-2.03403 81.902359 -20.178509
-1.509845 79.737472 -22.699182
-2.112444 81.08844 -21.708008
-0.182497 75.03003 -25.341923
-0.556762 76.69178 -24.516531
-0.180869 75.977654 -23.90082
0.224032 73.313652 -26.104965
-0.182497 75.03003 -25.341923
0.506446 72.522637 -25.431965
0.537083 71.520386 -26.810719
0.224032 73.313652 -26.104965
-1.598008 81.439499 17.840525
-1.472924 80.692429 16.624071
-1.696411 82.000626 15.767231
-8.434586 84.695122 21.083704
-8.574592 85.470352 19.142867
-9.431473 84.699379 20.161628
-10.581606 87.745155 -8.394545
-10.827231 87.391662 -9.95736
-4.777952 24.996609 -29.777347
-3.809337 26.971025 -30.189909
-4.044878 24.336706 -29.649901
-5.776268 23.007528 -29.344774
-5.540727 25.641848 -29.884783
-4.777952 24.996609 -29.777347
-6.109451 20.407716 -28.853115
-6.872225 21.052956 -28.96055
-5.776268 23.007528 -29.344774
2.161919 24.060144 -27.688671
2.611269 25.925087 -27.558277
1.023118 20.234058 -27.84305
0.80947 17.335056 -27.376841
4.302869 52.428619 -6.439447
4.279306 52.904541 -4.986697
-0.824124 64.160296 11.821002
-0.970955 63.684626 13.677979
-0.049169 54.758747 -34.179435
-0.312693 56.831318 -34.135791
0.451987 48.141483 -33.811532
0.326564 50.411617 -34.015507
0.921733 49.821827 -33.744809
0.550924 45.826071 -33.502028
0.451987 48.141483 -33.811532
1.106572 45.159939 -33.174109
0.610339 43.434317 -33.135303
0.550924 45.826071 -33.502028
2.309674 42.842073 -31.53166
1.985622 43.663421 -32.197184
2.270919 45.292204 -31.947476
2.634116 41.978248 -30.828165
2.309674 42.842073 -31.53166
5.631298 30.063238 -17.718942
5.527439 28.618326 -18.541654
5.304535 31.07497 -18.848099
-12.369231 19.348793 -28.906105
-11.17353 21.230797 -29.145717
-11.550063 18.915458 -28.737164
0.644778 64.855883 -31.732334
0.28196 66.774544 -31.285699
1.108444 64.22529 -31.29299
0.930722 62.868908 -32.119101
0.644778 64.855883 -31.732334
4.284479 23.848114 -23.487913
4.155619 26.596561 -23.939251
4.483815 25.621018 -22.921392
4.024534 21.979471 -24.062142
4.284479 23.848114 -23.487913
-2.425747 84.344544 17.303771
-2.926248 85.266731 16.388929
-2.826818 84.651176 18.472003
-2.073906 83.238343 18.185265
-2.173336 83.853897 16.102191
-2.425747 84.344544 17.303771
-1.71706 82.085442 19.076003
-2.073906 83.238343 18.185265
-14.369462 86.526245 1.609536
-15.423535 85.768669 2.830607
-14.142277 86.507271 3.267016
-14.369462 86.526245 1.609536
-13.278976 87.206971 0.355423
-10.229219 88.321083 -5.0774
-10.421459 88.075042 -6.726285
-9.049449 88.756348 -4.576477
-10.229219 88.321083 -5.0774
-10.107498 88.531731 -3.333099
-2.409274 25.544195 -29.87569
-2.236121 28.269996 -30.452534
-1.569132 27.503068 -30.265763
-4.650311 18.921326 -28.627482
-5.365249 19.671276 -28.75416
-4.298555 21.612339 -29.110661
-4.650311 18.921326 -28.627482
-3.94177 18.095993 -28.518666
1.972884 18.260809 -26.697496
2.041742 21.170457 -27.167598
2.501091 20.172481 -26.534811
1.347301 16.335735 -26.91506
1.972884 18.260809 -26.697496
0.80947 17.335056 -27.376841
1.347301 16.335735 -26.91506
3.720047 54.639023 -4.653864
3.24996 55.954056 -5.802828
3.182852 56.339756 -4.282143
4.279306 52.904541 -4.986697
3.720047 54.639023 -4.653864
-1.52905 77.368752 7.801305
-1.576734 78.806397 6.968639
-1.558579 78.55851 8.939232
-1.501003 75.906479 8.643052
-1.519159 76.154365 6.672459
-1.52905 77.368752 7.801305
-1.431351 70.361657 15.08807
-1.424552 72.024544 14.265048
-1.406869 71.501618 16.243277
-1.189286 64.78273 14.661345
-1.249809 66.462074 13.786106
-1.328881 65.924324 15.694468
-0.970955 63.684626 13.677979
-1.189286 64.78273 14.661345
5.27413 36.204015 -17.42087
5.004133 38.534982 -17.63942
5.352909 37.395073 -16.428519
5.51565 33.791994 -17.117678
5.166874 34.931904 -18.328579
5.27413 36.204015 -17.42087
5.75528 31.413248 -16.885868
5.51565 33.791994 -17.117678
-9.688925 27.839785 -30.401258
-8.810078 27.546813 -30.311011
-10.678239 25.862488 -30.065355
-9.688925 27.839785 -30.401258
5.125261 23.707828 -20.764809
5.280188 25.446556 -20.049484
-3.774269 84.848503 20.771793
-3.226952 84.850762 19.639215
-3.874637 85.571106 18.689739
-16.004774 84.691429 7.415517
-15.750473 84.478355 9.077251
-14.983751 85.61184 6.195724
-16.004774 84.691429 7.415517
-13.968293 86.44413 5.012642
-14.983751 85.61184 6.195724
-13.755694 86.306275 6.720279
-12.914219 87.201706 3.79157
-14.142277 86.507271 3.267016
-13.968293 86.44413 5.012642
-0.086677 31.354335 -30.874843
0.430829 30.545671 -30.473043
-0.79543 29.442392 -30.563227
-0.086677 31.354335 -30.874843
-0.968583 26.71659 -29.986383
-1.569132 27.503068 -30.265763
-0.79543 29.442392 -30.563227
5.690268 40.549065 -13.273791
5.562033 39.565447 -14.353233
5.785937 41.477812 -12.110616
5.690268 40.549065 -13.273791
5.358009 42.762209 -13.321802
5.910801 42.343403 -10.949045
5.785937 41.477812 -12.110616
5.542303 44.500467 -10.918283
5.07176 45.795023 -12.142644
5.160385 46.604534 -10.902299
5.910801 42.343403 -10.949045
5.542303 44.500467 -10.918283
2.961987 56.866863 -1.122205
2.361164 58.380207 -0.625171
-1.456402 77.845398 12.956535
-1.420647 78.873429 14.175132
-1.339578 70.909622 18.264401
-1.406869 71.501618 16.243277
-1.363394 69.177796 19.067183
-1.339578 70.909622 18.264401
-1.289304 70.248688 20.265286
-1.411499 68.123291 17.899518
-1.363394 69.177796 19.067183
0.123537 58.455051 -33.835833
-0.312693 56.831318 -34.135791
0.441466 59.980389 -33.393597
0.156782 62.002026 -33.11681
0.75174 61.477863 -32.835232
0.718495 57.930889 -33.554254
0.123537 58.455051 -33.835833
0.441466 59.980389 -33.393597
5.562033 39.565447 -14.353233
5.472319 38.511736 -15.43428
5.172626 40.779751 -15.566022
-9.554831 20.26301 -28.835951
-9.249674 22.757223 -29.325825
-8.450142 22.222771 -29.184999
-10.769372 18.367532 -28.554424
-9.554831 20.26301 -28.835951
-11.550063 18.915458 -28.737164
-10.769372 18.367532 -28.554424
-10.47135 84.553382 19.242733
-10.640114 85.234863 17.364339
-11.539987 84.313637 18.386281
-9.431473 84.699379 20.161628
-10.47135 84.553382 19.242733
-15.293136 83.85791 12.523837
-15.542263 84.203812 10.827095
-15.085903 83.432915 14.307037
-15.987894 82.300553 15.36607
-14.842258 82.942543 16.028481
-14.1475 84.4999 13.186249
-15.293136 83.85791 12.523837
-15.085903 83.432915 14.307037
2.942257 24.944534 -26.708053
2.611269 25.925087 -27.558277
3.635424 25.815298 -25.458483
3.557228 28.584892 -25.968464
3.878088 27.593252 -25.015753
3.326334 23.950697 -25.906945
3.635424 25.815298 -25.458483
3.647194 22.959057 -24.954234
2.954027 22.088293 -26.203804
2.942257 24.944534 -26.708053
3.326334 23.950697 -25.906945
2.885168 19.178645 -25.733702
2.501091 20.172481 -26.534811
2.954027 22.088293 -26.203804
2.885168 19.178645 -25.733702
3.328157 18.188562 -24.993529
4.784678 24.635278 -21.810992
5.125261 23.707828 -20.764809
1.808247 59.883213 -0.077754
2.361164 58.380207 -0.625171
1.953396 59.743633 -1.712629
1.651084 59.932724 1.615117
1.808247 59.883213 -0.077754
1.243316 61.29615 0.52766
1.464173 59.915203 3.294976
1.651084 59.932724 1.615117
0.902155 61.240994 3.956368
0.596368 62.68706 2.93679
0.41237 62.582392 4.672627
1.464173 59.915203 3.294976
0.902155 61.240994 3.956368
-6.701848 86.613335 -14.942825
-7.629565 87.054824 -13.725354
-6.516409 87.161476 -13.3669
-6.701848 86.613335 -14.942825
-5.741066 86.076629 -16.155248
-3.398859 83.47567 -19.595234
-4.0837 84.502381 -18.485518
-3.282196 84.208504 -18.039439
-3.398859 83.47567 -19.595234
-2.675769 82.367874 -20.678654
-1.052059 78.245712 -23.632965
-1.509845 79.737472 -22.699182
-1.012919 79.131164 -22.141645
-1.052059 78.245712 -23.632965
-0.556762 76.69178 -24.516531
0.590962 70.467819 -28.114561
0.521516 69.303985 -29.281641
0.873375 69.676804 -27.441561
0.590962 70.467819 -28.114561
0.537083 71.520386 -26.810719
-1.455771 79.829109 15.384633
-1.420647 78.873429 14.175132
-1.536202 80.297875 13.341276
-1.455771 79.829109 15.384633
-1.472924 80.692429 16.624071
-1.598008 81.439499 17.840525
-1.71706 82.085442 19.076003
-7.46229 84.608361 22.056891
-8.434586 84.695122 21.083704
-6.679138 85.20655 21.028854
-7.46229 84.608361 22.056891
-5.890259 85.714698 19.961123
-6.788826 85.974243 18.997212
-6.679138 85.20655 21.028854
-5.101263 85.257927 20.907541
-5.210951 86.02562 18.8759
-5.890259 85.714698 19.961123
-4.3238 84.740876 21.887988
-5.101263 85.257927 20.907541
-3.774269 84.848503 20.771793
-4.3238 84.740876 21.887988
-9.70778 87.435432 -11.229882
-10.827231 87.391662 -9.95736
-8.467795 87.744445 -10.903364
-8.68411 87.293953 -12.475946
-9.70778 87.435432 -11.229882
-9.331318 88.215812 -7.989038
-10.581606 87.745155 -8.394545
-10.421459 88.075042 -6.726285
-7.135115 26.714205 -30.094427
-7.974675 27.129145 -30.184885
-6.964804 29.126366 -30.604439
-2.920627 28.950678 -30.629793
-2.080484 30.909551 -31.019865
-2.236121 28.269996 -30.452534
-3.653701 29.610581 -30.75724
-2.920627 28.950678 -30.629793
-3.809337 26.971025 -30.189909
-6.332143 26.182097 -29.983095
-5.333828 28.171177 -30.415669
-5.540727 25.641848 -29.884783
-7.342014 24.184876 -29.563541
-7.135115 26.714205 -30.094427
-6.332143 26.182097 -29.983095
-7.647171 21.690663 -29.073667
-8.450142 22.222771 -29.184999
-7.342014 24.184876 -29.563541
-7.647171 21.690663 -29.073667
-6.872225 21.052956 -28.96055
-6.109451 20.407716 -28.853115
-5.365249 19.671276 -28.75416
1.633712 22.148471 -27.851357
2.161919 24.060144 -27.688671
2.041742 21.170457 -27.167598
1.633712 22.148471 -27.851357
1.023118 20.234058 -27.84305
-0.005453 22.136429 -28.745558
0.151188 24.987438 -29.301887
-0.788456 20.206651 -28.631096
-0.005453 22.136429 -28.745558
-1.64561 18.264978 -28.379888
-1.40076 21.121853 -28.884093
-0.788456 20.206651 -28.631096
-2.607327 16.354485 -28.195534
-1.64561 18.264978 -28.379888
-3.278918 17.254888 -28.343117
-2.607327 16.354485 -28.195534
4.329633 51.90028 -7.902627
3.813919 53.724984 -7.637728
4.302869 52.428619 -6.439447
4.799439 49.991298 -8.093464
4.310488 51.287662 -9.291745
4.329633 51.90028 -7.902627
5.269938 48.032662 -8.266527
4.799439 49.991298 -8.093464
3.079626 56.632675 -2.696613
2.961987 56.866863 -1.122205
-1.505987 78.231529 10.951836
-1.456402 77.845398 12.956535
-1.483473 74.379921 9.47371
-1.501003 75.906479 8.643052
-1.462434 72.476166 12.271527
-1.424552 72.024544 14.265048
-1.449241 72.85939 10.32472
-1.462434 72.476166 12.271527
-1.43584 71.267807 11.163035
-1.456879 73.171562 8.365217
-1.483473 74.379921 9.47371
-1.449241 72.85939 10.32472
-0.718535 64.557367 9.940923
-1.004625 65.717552 10.872904
-0.824124 64.160296 11.821002
-0.377103 63.331284 9.061578
-0.557603 64.888541 8.11348
-0.718535 64.557367 9.940923
0.05006 62.141621 8.236632
-0.377103 63.331284 9.061578
0.148703 52.601951 -34.155583
-0.049169 54.758747 -34.179435
0.598438 54.248756 -33.972637
0.148703 52.601951 -34.155583
0.326564 50.411617 -34.015507
0.636234 40.987914 -32.684833
0.610339 43.434317 -33.135303
1.165709 40.2486 -32.311256
0.635955 38.468328 -32.188705
0.636234 40.987914 -32.684833
1.595182 41.990738 -32.294376
1.556427 44.440869 -32.710192
1.985622 43.663421 -32.197184
1.165709 40.2486 -32.311256
1.595182 41.990738 -32.294376
0.874877 67.418251 -29.825813
0.469139 68.098 -30.362051
0.521516 69.303985 -29.281641
2.868032 41.080578 -29.972202
2.634116 41.978248 -30.828165
2.828888 43.573185 -30.425989
2.927548 38.55838 -29.495711
2.868032 41.080578 -29.972202
3.12232 40.153317 -29.093534
2.935146 35.939865 -28.947203
2.927548 38.55838 -29.495711
3.222136 34.983502 -28.069794
2.935146 35.939865 -28.947203
3.445953 34.012314 -27.049345
3.222136 34.983502 -28.069794
3.405653 36.659931 -27.596594
3.714682 33.025795 -26.050939
3.531164 31.349365 -26.52414
3.445953 34.012314 -27.049345
5.402185 27.062591 -19.308926
5.280188 25.446556 -20.049484
5.078678 28.014022 -20.411369
5.402185 27.062591 -19.308926
5.527439 28.618326 -18.541654
5.631298 30.063238 -17.718942
5.75528 31.413248 -16.885868
-11.766692 23.918394 -29.759123
-10.678239 25.862488 -30.065355
-10.904243 23.608225 -29.620891
-13.158615 19.810356 -29.12216
-12.369231 19.348793 -28.906105
-12.828978 22.005499 -29.500496
-13.158615 19.810356 -29.12216
-12.602974 24.259762 -29.94496
-11.766692 23.918394 -29.759123
-12.828978 22.005499 -29.500496
3 0 70 68
3 0 73 71
3 0 68 73
3 1 77 75
3 1 80 78
3 1 75 80
3 2 84 82
3 261 85 262
3 2 88 86
3 2 82 88
3 3 263 265
3 265 264 90
3 263 264 265
3 4 94 92
3 6 97 95
3 6 99 97
3 7 102 100
3 8 105 103
3 8 107 105
3 8 109 107
3 4 112 110
3 4 92 112
3 10 116 114
3 267 266 117
3 12 268 270
3 270 269 119
3 268 269 270
3 12 271 272
3 12 273 275
3 273 121 274
3 273 274 275
3 10 124 122
3 10 114 124
3 14 128 126
3 14 276 278
3 278 277 128
3 276 277 278
3 5 279 281
3 281 280 130
3 279 280 281
3 11 282 284
3 284 283 132
3 282 283 284
3 285 136 286
3 287 286 134
3 285 286 287
3 289 288 136
3 15 140 138
3 15 142 140
3 9 145 143
3 16 148 146
3 16 150 148
3 16 152 150
3 291 290 153
3 13 292 294
3 292 155 293
3 292 293 294
3 17 158 156
3 19 159 69
3 19 160 159
3 20 163 161
3 22 164 72
3 22 165 164
3 22 167 165
3 17 168 74
3 17 156 168
3 24 171 169
3 26 172 76
3 26 173 172
3 27 295 297
3 295 174 296
3 295 296 297
3 28 175 79
3 28 176 175
3 28 178 176
3 24 179 81
3 24 169 179
3 298 180 299
3 300 181 301
3 302 301 180
3 300 301 302
3 30 183 182
3 31 303 305
3 305 304 83
3 303 304 305
3 31 306 307
3 33 308 310
3 308 184 309
3 308 309 310
3 33 185 184
3 34 188 186
3 36 189 87
3 36 190 189
3 36 192 190
3 30 193 89
3 30 182 193
3 312 311 195
3 313 197 314
3 315 195 316
3 317 316 197
3 315 316 317
3 38 318 319
3 320 198 321
3 322 321 91
3 320 321 322
3 324 323 198
3 40 201 199
3 42 202 93
3 42 203 202
3 18 204 157
3 43 205 96
3 43 206 205
3 43 207 206
3 44 325 327
3 327 326 98
3 325 326 327
3 44 328 329
3 45 330 332
3 330 331 332
3 46 333 335
3 335 334 101
3 333 334 335
3 46 336 337
3 21 208 162
3 47 209 104
3 47 338 340
3 340 339 209
3 338 339 340
3 47 341 342
3 48 343 345
3 345 344 106
3 343 344 345
3 48 346 347
3 48 348 350
3 348 211 349
3 348 349 350
3 50 212 108
3 50 213 212
3 23 214 166
3 51 215 111
3 51 216 215
3 51 217 216
3 40 218 113
3 40 199 218
3 52 221 219
3 54 222 115
3 54 223 222
3 25 224 170
3 55 225 118
3 55 226 225
3 55 351 353
3 353 352 226
3 351 352 353
3 354 227 355
3 356 355 196
3 354 355 356
3 357 228 358
3 56 229 120
3 56 230 229
3 29 231 177
3 57 232 123
3 57 233 232
3 57 234 233
3 52 235 125
3 52 219 235
3 58 359 361
3 361 360 127
3 359 360 361
3 58 362 364
3 362 236 363
3 362 363 364
3 58 365 367
3 367 366 236
3 365 366 367
3 39 368 369
3 371 370 129
3 41 237 200
3 373 372 131
3 53 238 220
3 59 239 133
3 59 240 239
3 60 241 135
3 60 242 241
3 60 243 242
3 375 374 137
3 32 376 377
3 61 378 380
3 380 379 139
3 378 379 380
3 61 381 382
3 61 383 385
3 383 244 384
3 383 384 385
3 62 386 388
3 388 387 141
3 386 387 388
3 62 389 390
3 49 245 210
3 63 246 144
3 63 247 246
3 35 248 187
3 64 249 147
3 64 250 249
3 64 251 250
3 65 252 149
3 65 253 252
3 65 254 253
3 66 255 151
3 66 256 255
3 37 257 191
3 67 258 154
3 67 259 258
3 67 391 393
3 393 392 259
3 391 392 393
3 394 260 395
3 396 395 194
3 394 395 396
3 68 69 17
3 70 69 68
3 70 19 69
3 71 72 20
3 73 72 71
3 73 22 72
3 73 74 22
3 68 74 73
3 68 17 74
3 75 76 24
3 77 76 75
3 77 26 76
3 78 79 27
3 80 79 78
3 80 28 79
3 80 81 28
3 75 81 80
3 75 24 81
3 82 83 30
3 84 83 82
3 84 31 83
3 85 397 398
3 85 399 401
3 399 33 400
3 399 400 401
3 86 87 34
3 88 87 86
3 88 36 87
3 88 89 36
3 82 89 88
3 82 30 89
3 90 91 38
3 402 91 403
3 404 403 90
3 402 403 404
3 406 405 91
3 92 93 40
3 94 93 92
3 94 42 93
3 95 96 18
3 97 96 95
3 97 43 96
3 97 98 43
3 99 98 97
3 99 44 98
3 100 101 45
3 102 101 100
3 102 46 101
3 103 104 21
3 105 104 103
3 105 47 104
3 105 106 47
3 107 106 105
3 107 48 106
3 107 108 48
3 109 108 107
3 109 50 108
3 110 111 23
3 112 111 110
3 112 51 111
3 112 113 51
3 92 113 112
3 92 40 113
3 114 115 52
3 116 115 114
3 116 54 115
3 117 118 25
3 407 118 408
3 409 408 117
3 407 408 409
3 410 55 411
3 412 411 118
3 410 411 412
3 414 413 55
3 119 415 417
3 415 416 417
3 419 418 119
3 420 120 421
3 121 422 424
3 422 120 423
3 422 423 424
3 121 56 120
3 122 123 29
3 124 123 122
3 124 57 123
3 124 125 57
3 114 125 124
3 114 52 125
3 126 425 427
3 425 127 426
3 425 426 427
3 128 127 126
3 128 58 127
3 128 428 430
3 430 429 58
3 428 429 430
3 432 431 128
3 433 129 434
3 435 434 39
3 433 434 435
3 436 129 437
3 439 438 129
3 130 131 41
3 440 131 441
3 442 441 130
3 440 441 442
3 444 443 131
3 132 133 53
3 445 133 446
3 447 446 132
3 445 446 447
3 448 59 449
3 450 449 133
3 448 449 450
3 134 451 453
3 451 135 452
3 451 452 453
3 136 135 134
3 136 60 135
3 136 137 60
3 454 137 455
3 456 455 136
3 454 455 456
3 458 457 137
3 138 139 32
3 140 139 138
3 140 61 139
3 140 141 61
3 142 141 140
3 142 62 141
3 143 144 49
3 145 144 143
3 145 63 144
3 146 147 35
3 148 147 146
3 148 64 147
3 148 149 64
3 150 149 148
3 150 65 149
3 150 151 65
3 152 151 150
3 152 66 151
3 153 154 37
3 459 154 460
3 461 460 153
3 459 460 461
3 462 67 463
3 464 463 154
3 462 463 464
3 466 465 67
3 155 467 468
3 155 469 470
3 472 471 3
3 156 157 4
3 158 157 156
3 158 18 157
3 69 158 17
3 159 158 69
3 159 18 158
3 159 95 18
3 160 95 159
3 160 6 95
3 161 162 7
3 163 162 161
3 163 21 162
3 72 163 20
3 164 163 72
3 164 21 163
3 164 103 21
3 165 103 164
3 165 8 103
3 165 166 8
3 167 166 165
3 167 23 166
3 74 167 22
3 168 167 74
3 168 23 167
3 168 110 23
3 156 110 168
3 156 4 110
3 169 170 10
3 171 170 169
3 171 25 170
3 76 171 24
3 172 171 76
3 172 25 171
3 172 117 25
3 173 117 172
3 173 473 475
3 475 474 117
3 473 474 475
3 174 476 477
3 174 478 479
3 79 174 27
3 175 174 79
3 175 480 482
3 482 481 174
3 480 481 482
3 175 483 485
3 483 119 484
3 483 484 485
3 176 119 175
3 176 12 119
3 176 177 12
3 178 177 176
3 178 29 177
3 81 178 28
3 179 178 81
3 179 29 178
3 179 122 29
3 169 122 179
3 169 10 122
3 180 486 487
3 180 488 489
3 180 490 492
3 490 126 491
3 490 491 492
3 181 126 180
3 181 14 126
3 182 493 494
3 183 495 497
3 497 496 182
3 495 496 497
3 183 498 499
3 83 183 30
3 500 183 501
3 502 501 83
3 500 501 502
3 504 503 183
3 506 505 5
3 508 507 11
3 509 134 510
3 511 134 512
3 511 512 513
3 515 514 134
3 516 32 517
3 184 518 520
3 518 519 520
3 184 521 523
3 521 32 522
3 521 522 523
3 184 138 32
3 185 138 184
3 185 15 138
3 186 187 9
3 188 187 186
3 188 35 187
3 87 188 34
3 189 188 87
3 189 35 188
3 189 146 35
3 190 146 189
3 190 16 146
3 190 191 16
3 192 191 190
3 192 37 191
3 89 192 36
3 193 192 89
3 193 37 192
3 193 153 37
3 182 153 193
3 182 524 526
3 526 525 153
3 524 525 526
3 527 194 528
3 529 528 13
3 527 528 529
3 530 194 531
3 533 532 194
3 195 196 1
3 534 196 535
3 536 535 195
3 534 535 536
3 538 537 196
3 539 27 540
3 197 541 543
3 541 542 543
3 197 544 546
3 544 27 545
3 544 545 546
3 197 78 27
3 195 78 197
3 195 1 78
3 547 39 548
3 91 549 551
3 551 550 38
3 549 550 551
3 198 552 554
3 554 553 91
3 552 553 554
3 198 555 557
3 555 39 556
3 555 556 557
3 198 558 560
3 560 559 39
3 558 559 560
3 562 561 198
3 564 563 3
3 199 200 2
3 201 200 199
3 201 41 200
3 93 201 40
3 202 201 93
3 202 41 201
3 202 130 41
3 203 130 202
3 203 5 130
3 157 94 4
3 204 94 157
3 204 42 94
3 96 204 18
3 205 204 96
3 205 42 204
3 205 203 42
3 206 203 205
3 206 5 203
3 206 565 567
3 567 566 5
3 565 566 567
3 207 568 570
3 570 569 206
3 568 569 570
3 207 571 572
3 98 207 43
3 573 207 574
3 575 574 98
3 573 574 575
3 577 576 207
3 101 578 580
3 580 579 45
3 578 579 580
3 582 581 101
3 162 102 7
3 208 102 162
3 208 46 102
3 104 208 21
3 209 208 104
3 209 46 208
3 209 583 585
3 585 584 46
3 583 584 585
3 587 586 209
3 106 588 590
3 590 589 47
3 588 589 590
3 592 591 106
3 593 210 594
3 211 595 597
3 595 210 596
3 595 596 597
3 211 49 210
3 108 211 48
3 212 211 108
3 212 49 211
3 212 143 49
3 213 143 212
3 213 9 143
3 166 109 8
3 214 109 166
3 214 50 109
3 111 214 23
3 215 214 111
3 215 50 214
3 215 213 50
3 216 213 215
3 216 9 213
3 216 186 9
3 217 186 216
3 217 34 186
3 113 217 51
3 218 217 113
3 218 34 217
3 218 86 34
3 199 86 218
3 199 2 86
3 219 220 0
3 221 220 219
3 221 53 220
3 115 221 52
3 222 221 115
3 222 53 221
3 222 132 53
3 223 132 222
3 223 11 132
3 170 116 10
3 224 116 170
3 224 54 116
3 118 224 25
3 225 224 118
3 225 54 224
3 225 223 54
3 226 223 225
3 226 11 223
3 226 598 600
3 600 599 11
3 598 599 600
3 602 601 226
3 604 603 55
3 196 77 1
3 227 77 196
3 227 26 77
3 605 227 606
3 607 227 608
3 609 26 610
3 611 610 227
3 609 610 611
3 612 173 613
3 614 613 26
3 612 613 614
3 615 173 616
3 618 617 173
3 228 619 620
3 228 621 623
3 621 45 622
3 621 622 623
3 120 624 626
3 624 228 625
3 624 625 626
3 229 228 120
3 229 45 228
3 229 100 45
3 230 100 229
3 230 7 100
3 177 121 12
3 231 121 177
3 231 56 121
3 123 231 29
3 232 231 123
3 232 56 231
3 232 230 56
3 233 230 232
3 233 7 230
3 233 161 7
3 234 161 233
3 234 20 161
3 125 234 57
3 235 234 125
3 235 20 234
3 235 71 20
3 219 71 235
3 219 0 71
3 627 13 628
3 627 628 629
3 127 630 632
3 630 631 632
3 635 634 127
3 633 634 635
3 236 636 638
3 636 637 638
3 236 639 641
3 639 13 640
3 639 640 641
3 236 642 644
3 644 643 13
3 642 643 644
3 646 645 236
3 648 647 58
3 129 649 651
3 651 650 39
3 649 650 651
3 653 652 129
3 654 181 655
3 656 181 657
3 658 14 659
3 660 659 181
3 658 659 660
3 661 14 662
3 664 663 14
3 200 84 2
3 237 84 200
3 237 31 84
3 131 237 41
3 665 237 666
3 667 666 131
3 665 666 667
3 668 31 669
3 670 669 237
3 668 669 670
3 672 671 31
3 674 673 5
3 220 70 0
3 238 70 220
3 238 19 70
3 133 238 53
3 239 238 133
3 239 19 238
3 239 160 19
3 240 160 239
3 240 6 160
3 676 675 11
3 677 59 678
3 135 679 680
3 241 681 683
3 683 682 135
3 681 682 683
3 241 684 686
3 684 59 685
3 684 685 686
3 241 240 59
3 242 240 241
3 242 6 240
3 242 99 6
3 243 99 242
3 243 44 99
3 137 243 60
3 687 243 688
3 689 688 137
3 687 688 689
3 690 44 691
3 692 691 243
3 690 691 692
3 694 693 44
3 139 695 697
3 697 696 32
3 695 696 697
3 699 698 139
3 244 700 701
3 244 702 704
3 702 703 704
3 141 244 61
3 705 244 706
3 707 706 141
3 705 706 707
3 709 708 244
3 210 710 712
3 710 85 711
3 710 711 712
3 245 85 210
3 245 33 85
3 144 245 49
3 246 245 144
3 246 33 245
3 246 185 33
3 247 185 246
3 247 15 185
3 187 145 9
3 248 145 187
3 248 63 145
3 147 248 35
3 249 248 147
3 249 63 248
3 249 247 63
3 250 247 249
3 250 15 247
3 250 142 15
3 251 142 250
3 251 62 142
3 149 251 64
3 252 251 149
3 252 62 251
3 252 713 715
3 715 714 62
3 713 714 715
3 253 716 718
3 718 717 252
3 716 717 718
3 253 719 720
3 253 721 722
3 254 723 725
3 725 724 253
3 723 724 725
3 254 726 728
3 726 38 727
3 726 727 728
3 151 254 65
3 255 254 151
3 255 38 254
3 255 90 38
3 256 90 255
3 256 3 90
3 191 152 16
3 257 152 191
3 257 66 152
3 154 257 37
3 258 257 154
3 258 66 257
3 258 256 66
3 259 256 258
3 259 3 256
3 259 729 731
3 731 730 3
3 729 730 731
3 733 732 259
3 735 734 67
3 194 155 13
3 260 155 194
3 260 736 738
3 738 737 155
3 736 737 738
3 739 260 740
3 741 260 742
3 745 744 260
3 743 744 745
