ply
format ascii 1.0
element vertex 581
property float x
property float y
property float z
element face 608
property list uchar int vertex_index
end_header
-3.323248 -69.764748 75.747986
0.00713 -70.259232 56.205048
-3.291842 -47.547077 51.222927
-6.028147 -85.922668 66.632774
-9.143385 -92.834564 56.173988
-6.82461 -77.075073 74.58252
-2.035107 -79.558617 67.848854
-4.883583 -51.376228 59.39801
-7.665945 -98.023895 49.475182
-1.857832 -61.226097 63.784149
-0.541838 -70.362297 66.749084
-0.070463 -80.689125 58.360683
-8.396442 -83.524231 69.78714
-8.906687 -86.610062 65.070633
-8.928799 -79.84594 73.438499
-6.028347 -81.688416 70.980728
-2.47871 -65.872444 75.567108
-1.361021 -65.937981 70.753082
-1.570805 -70.19474 71.620148
-2.132961 -84.7603 63.511642
-0.761627 -80.295387 63.322189
-1.239735 -85.579163 58.952351
-4.971087 -43.55582 53.127094
-3.085073 -41.053482 50.011929
-1.583633 -45.283081 47.991829
-0.707052 -65.465454 60.14175
-1.910244 -60.505024 58.557682
-0.883165 -64.967422 54.956005
-4.28227 -88.061356 62.980347
-5.981211 -92.171631 58.054333
-7.11133 -89.601669 61.611816
-10.329187 -89.240662 59.508919
-4.866179 -73.569977 75.34201
-2.528969 -74.452789 71.894508
-4.049301 -78.458832 71.684151
-3.707382 -83.418915 67.579781
-4.435017 -49.666756 54.949528
0.360991 -75.483841 52.110882
-0.220692 -69.993576 51.008854
-8.380043 -95.902084 52.945812
-0.824091 -65.781631 65.488159
-0.064501 -70.371902 61.512379
-0.981087 -75.026711 67.542915
-0.089737 -75.351059 62.604927
0.321688 -75.495705 57.384922
-3.377518 -56.497047 61.710987
-3.308002 -55.291439 56.806473
-2.919086 -53.68861 52.472118
-9.660231 -82.363235 71.063782
-9.731461 -83.760773 69.095543
-8.530849 -81.770287 71.732422
-2.797531 -67.825546 75.751953
-1.986311 -67.981743 73.613312
-2.348194 -70.020393 73.801704
-2.544643 -87.252975 61.243721
-1.611444 -85.236816 61.283417
-4.115389 -45.540138 52.227734
-4.124941 -42.328911 51.485741
-3.255737 -44.344616 50.605011
-2.255301 -43.127617 49.100555
-2.491133 -46.413147 49.570148
-0.3041 -67.790794 58.202412
-0.766594 -65.242126 57.518929
-0.38159 -67.628006 55.58292
-5.063873 -87.047607 64.857986
-5.627428 -89.074219 62.400349
-6.430944 -87.832397 64.190247
-9.515181 -87.969818 62.369358
-5.810368 -75.383377 75.00267
-4.422043 -75.984619 73.55648
-5.348413 -77.793915 73.264572
-5.902954 -83.869339 68.903526
-4.779217 -82.587616 69.377052
-4.789104 -84.87915 67.192917
-3.855686 -85.801254 65.334473
-5.244751 -47.708332 56.014137
-4.745298 -50.584091 57.082073
-7.533173 -92.746185 57.238415
-7.146093 -94.063278 55.5215
-8.732374 -94.464813 54.568047
-0.901293 -68.082672 68.772781
-1.030903 -65.88121 68.151146
-0.585648 -68.060242 66.176468
-0.392181 -68.003036 63.525265
-0.244904 -70.38269 64.155434
-2.233383 -76.966202 69.904144
-1.661728 -74.775726 69.812584
-1.43391 -77.336121 67.760391
-0.354321 -80.531212 60.880341
-0.344267 -77.847336 63.018471
-0.007401 -78.004379 60.493053
0.167189 -75.442902 60.013741
0.217972 -78.10659 57.908577
0.344645 -78.159088 55.292274
0.106277 -80.777565 55.790459
-0.087627 -40.786953 46.191708
0.451832 -37.324608 45.923676
-2.58555 -58.897625 62.787029
-1.966303 -60.031853 56.081207
-2.61488 -57.941509 57.70018
-2.593954 -57.326988 55.333134
-3.162575 -54.533531 54.567593
-2.519291 -56.627892 53.091965
-7.155264 -84.731537 68.287796
-7.407906 -86.502762 65.915344
-8.528685 -85.132294 67.560791
-7.876585 -78.583664 74.066826
-6.355949 -79.410454 72.866074
-7.424467 -80.760132 72.352264
-7.167706 -82.815514 70.434555
-10.770149 -92.466827 54.8909
-10.337084 -94.391693 53.343342
-1.909992 -63.893005 72.674088
-1.836422 -65.940796 73.243782
-1.360632 -68.061363 71.268791
-0.97599 -70.303635 69.252754
-1.981472 -82.177132 65.717674
-1.31414 -79.973114 65.655777
-1.353046 -82.627853 63.494839
-0.884432 -82.967133 61.152641
-0.552868 -83.200722 58.717525
-3.983751 -39.012123 50.805531
-2.797741 -37.671486 49.466839
-1.175732 -41.929653 47.650227
-0.620174 -44.195736 46.433006
-1.223299 -63.285007 62.006523
-1.867823 -60.90147 61.131447
-1.25597 -63.004448 59.37326
-1.337473 -62.663498 56.810444
-3.681074 -88.927017 61.005245
-5.000875 -90.181793 60.5452
-6.468056 -90.964218 59.852367
-8.037243 -91.254944 58.932316
-7.92642 -88.133698 63.350143
-8.692308 -89.644119 60.636082
-9.662703 -91.071747 57.809475
-4.025097 -71.685547 75.598267
-2.895538 -72.050613 73.837387
-3.59656 -74.051529 73.749115
-3.227386 -76.514832 71.847427
-2.943665 -79.051605 69.868881
-4.98558 -80.210312 71.398079
-3.791887 -80.954102 69.697128
-2.790289 -81.615952 67.794189
-2.826365 -84.150558 65.617157
-3.110615 -86.60054 63.347183
-5.574871 -44.694992 54.977871
-4.787693 -46.673439 54.020786
-3.947632 -48.644218 53.002892
0.236134 -72.841537 54.168407
-0.077091 -70.148766 53.585846
0.148615 -72.763855 51.551044
-8.037271 -97.098557 51.26088
-9.94953 -96.169434 51.836674
-9.548178 -97.732925 50.315033
-1.896904 -61.485783 66.488274
-1.579807 -63.817928 70.065163
-1.368706 -63.688808 67.387451
-1.255741 -63.511436 64.688187
-0.721407 -65.643555 62.806843
-0.303099 -67.913971 60.857208
0.01539 -70.331696 58.853546
-1.969179 -72.332489 71.822876
-1.236851 -72.541359 69.59687
-0.679512 -72.689728 67.204773
-0.811918 -77.627502 65.452774
-0.465221 -75.215134 65.126915
-0.273336 -72.789917 64.691483
0.004959 -72.851761 62.098488
0.174294 -72.880966 59.461807
0.248089 -72.878586 56.810879
0.383974 -75.510361 54.744053
0.379637 -78.163177 52.666168
-3.804974 -67.574005 77.631104
-4.499739 -69.414284 77.414215
-5.354059 -71.231361 77.070847
-4.165279 -53.997395 60.573803
-2.605293 -58.464691 60.189808
-3.373224 -55.947575 59.191486
-4.106195 -53.326691 58.149517
-3.930735 -52.537224 55.885033
-3.624561 -51.641212 53.78804
-3.180647 -50.661751 51.848408
-0.518402 -67.419258 53.013359
-2.563032 -52.781006 50.502853
-2.601326 -49.630962 50.038513
-1.900627 -48.586517 48.317883
-10.288359 -82.384697 70.776535
-10.200967 -81.875065 71.515328
-10.200967 -81.875065 71.515328
-9.793148 -81.583492 71.88414
-2.341174 -87.500008 60.139414
-2.893736 -88.436378 60.088509
-5.181071 -49.99694 58.80509
-5.191802 -50.381351 59.997358
-4.81444 -50.980159 58.240042
-5.111928 -49.600872 57.647121
-5.181071 -49.99694 58.80509
-7.455917 -98.344589 48.519209
-6.976694 -97.318863 49.685516
-8.097495 -99.024772 48.249523
-7.455917 -98.344589 48.519209
0.425361 -40.257793 45.434839
0.126311 -41.985533 45.519928
-2.221691 -60.061861 63.285589
-2.579949 -59.072164 64.126897
-2.21609 -60.236401 64.625458
-2.303114 -58.404532 54.521774
-2.280129 -58.67942 55.707171
-1.989289 -59.756964 54.895811
-2.265783 -58.054984 53.40119
-2.556623 -56.97744 54.21255
-2.303114 -58.404532 54.521774
-9.875252 -84.415169 67.927834
-10.46861 -83.643631 68.746662
-11.349508 -93.174652 53.388784
-11.577224 -92.086838 54.166436
-2.157566 -65.90662 74.405445
-2.109265 -64.920803 74.201652
-2.430408 -64.886627 75.363315
-1.117636 -85.686737 57.745455
-0.774203 -84.497517 57.628042
-0.896302 -84.389942 58.834938
-4.976304 -41.936349 52.714657
-5.346609 -42.551076 53.569018
-2.50281 -40.411812 49.326672
-2.359144 -38.720814 49.054127
-2.941407 -39.362484 49.739384
-1.165033 -63.612637 54.643577
-1.392187 -62.460674 55.570797
-1.110319 -63.81546 55.883224
-10.817508 -89.854492 58.017632
-10.484267 -90.770035 57.16791
-9.995945 -90.156205 58.659197
-5.743614 -45.204315 56.014561
-5.869595 -43.679655 55.466606
-5.801188 -92.677384 57.123877
-5.258467 -91.644051 58.334671
-7.607132 -95.532295 53.345329
-6.990157 -94.612892 54.633173
-7.763068 -94.982681 54.233656
-8.208657 -96.500321 52.103346
-7.435746 -96.130531 52.502863
-7.607132 -95.532295 53.345329
-10.730219 -96.072304 51.136204
-10.143307 -95.280563 52.590008
-10.923996 -95.183434 51.889538
-10.034748 -98.660835 48.963926
-10.305003 -97.817429 49.67361
-9.316157 -98.381248 49.520021
-10.034748 -98.660835 48.963926
-1.949774 -61.585789 67.848195
-2.243931 -60.502947 67.342075
0.282588 -79.482845 52.929487
0.362141 -78.161133 53.979221
0.265092 -79.480801 54.24254
0.275731 -79.464729 51.626402
0.282588 -79.482845 52.929487
-4.062534 -66.506363 78.553802
-3.554674 -66.643006 77.647507
-5.183875 -69.187359 78.089698
-4.753382 -68.312851 78.308678
-5.611035 -70.095898 77.918014
-4.926899 -70.322823 77.242531
-5.183875 -69.187359 78.089698
0.712485 -35.55582 45.783883
0.975993 -36.77182 45.194466
-3.752821 -55.522497 62.423311
-3.359355 -56.720234 63.026259
-3.771399 -55.247221 61.142395
-4.146701 -54.272671 61.854719
-3.752821 -55.522497 62.423311
-2.324894 -52.311777 49.566999
-2.335777 -53.913837 49.72324
-2.344041 -50.736755 49.334829
-2.582179 -51.205984 50.270683
-2.324894 -52.311777 49.566999
-1.993691 -50.214533 48.474514
-2.250977 -49.108739 49.178198
-2.344041 -50.736755 49.334829
-10.323974 -83.083466 69.792416
-9.695846 -83.062004 70.079663
-10.288359 -82.384697 70.776535
-10.46861 -83.643631 68.746662
-10.323974 -83.083466 69.792416
-9.228457 -81.287018 72.21846
-8.729824 -80.808113 72.58546
-9.427432 -80.324844 73.071498
-9.09554 -82.066761 71.398102
-9.228457 -81.287018 72.21846
-9.793148 -81.583492 71.88414
-1.874575 -86.491928 60.159262
-2.078044 -86.244896 61.263569
-2.341174 -87.500008 60.139414
-1.68872 -86.663101 58.993729
-1.42559 -85.407989 60.117884
-1.874575 -86.491928 60.159262
-1.552776 -86.83107 57.842871
-1.68872 -86.663101 58.993729
-10.007241 -87.124046 63.251032
-9.210934 -87.28994 63.719995
-9.702994 -86.444168 64.601669
-10.338527 -87.683899 61.827803
-10.007241 -87.124046 63.251032
-10.74553 -88.319321 60.397583
-9.922184 -88.60524 60.939138
-10.338527 -87.683899 61.827803
-11.158118 -88.852562 58.892701
-10.74553 -88.319321 60.397583
-5.361655 -48.162993 57.113153
-5.578554 -46.710985 56.532694
-4.995024 -49.146211 56.548105
-5.361655 -48.162993 57.113153
-5.111928 -49.600872 57.647121
0.310905 -75.447052 50.80563
0.344227 -76.800103 51.079214
0.145908 -80.790039 54.491632
0.265092 -79.480801 54.24254
0.225461 -79.468326 55.541366
0.182103 -39.05578 46.057692
-0.130766 -37.920589 46.612216
-0.400496 -39.651762 46.746232
0.695091 -38.526621 45.300823
0.182103 -39.05578 46.057692
0.425361 -40.257793 45.434839
0.975993 -36.77182 45.194466
0.695091 -38.526621 45.300823
-2.963371 -57.920523 63.564279
-2.579949 -59.072164 64.126897
-2.981534 -57.697336 62.249008
-3.359355 -56.720234 63.026259
-2.963371 -57.920523 63.564279
-0.455251 -68.576615 50.755592
-0.309846 -69.890721 49.74581
-9.273864 -85.10093 67.160458
-9.130073 -84.446534 68.328167
-9.875252 -84.415169 67.927834
-9.462865 -85.839813 65.915379
-8.717686 -85.871178 66.315712
-9.273864 -85.10093 67.160458
-9.702994 -86.444168 64.601669
-9.462865 -85.839813 65.915379
-4.8753 -51.705792 60.637296
-5.191802 -50.381351 59.997358
-7.111911 -97.020088 50.675976
-6.976694 -97.318863 49.685516
-11.132976 -94.137085 52.615005
-10.553617 -93.42926 54.117121
-11.349508 -93.174652 53.388784
-10.923996 -95.183434 51.889538
-11.132976 -94.137085 52.615005
-2.14605 -63.896907 73.916805
-2.204956 -62.89673 73.593903
-1.873207 -64.9169 72.958935
-2.14605 -63.896907 73.916805
-2.109265 -64.920803 74.201652
-0.445753 -83.269406 57.466032
-0.20455 -82.013607 57.287611
-0.311666 -81.944924 58.539104
-0.445753 -83.269406 57.466032
-0.774203 -84.497517 57.628042
-1.117636 -85.686737 57.745455
-1.552776 -86.83107 57.842871
-4.553231 -41.322895 51.89398
-4.976304 -41.936349 52.714657
-4.548014 -42.942365 52.306417
-4.482636 -39.664501 51.553875
-4.553231 -41.322895 51.89398
-4.054346 -40.670517 51.145636
-4.405569 -37.987587 51.193266
-4.482636 -39.664501 51.553875
-3.845572 -37.302269 50.511106
-4.405569 -37.987587 51.193266
-3.252567 -36.631951 49.84176
-3.845572 -37.302269 50.511106
-3.390746 -38.341805 50.136185
-2.606187 -35.93347 49.230503
-3.252567 -36.631951 49.84176
-2.155011 -37.002121 48.839043
-1.963457 -35.264105 48.602706
-2.606187 -35.93347 49.230503
-2.155011 -37.002121 48.839043
-2.359144 -38.720814 49.054127
-2.087924 -41.44888 48.870985
-2.50281 -40.411812 49.326672
-2.670187 -42.09055 49.556242
-1.548139 -40.849897 48.145821
-2.087924 -41.44888 48.870985
-1.715516 -42.528635 48.375391
-0.944548 -40.223112 47.475491
-1.548139 -40.849897 48.145821
-0.631679 -41.358303 46.920968
-0.400496 -39.651762 46.746232
-0.944548 -40.223112 47.475491
-0.139962 -43.689925 45.640577
0.126311 -41.985533 45.519928
-0.353901 -42.491344 46.312357
-1.706602 -61.144852 55.206179
-1.651888 -61.347675 56.445825
-1.392187 -62.460674 55.570797
-1.989289 -59.756964 54.895811
-1.706602 -61.144852 55.206179
-4.108398 -90.021744 59.810127
-3.461951 -89.273399 59.969271
-4.768299 -90.649132 59.580105
-4.108398 -90.021744 59.810127
-4.340974 -89.554405 60.775222
-5.491043 -91.176712 59.299767
-5.258467 -91.644051 58.334671
-4.768299 -90.649132 59.580105
-11.03799 -91.467575 55.708622
-10.216426 -91.769287 56.350188
-10.484267 -90.770035 57.16791
-11.577224 -92.086838 54.166436
-11.03799 -91.467575 55.708622
-10.817508 -89.854492 58.017632
-11.158118 -88.852562 58.892701
-3.461951 -89.273399 59.969271
-2.893736 -88.436378 60.088509
-3.112859 -88.089996 61.124483
-5.6485 -43.120662 54.494406
-5.943225 -42.105325 54.983141
-5.869595 -43.679655 55.466606
-5.272979 -44.125406 54.052482
-5.346609 -42.551076 53.569018
-5.6485 -43.120662 54.494406
-5.409811 -46.201662 55.496004
-5.743614 -45.204315 56.014561
-5.578554 -46.710985 56.532694
0.204716 -74.087059 50.525711
0.254803 -74.123848 51.830963
0.310905 -75.447052 50.80563
0.074679 -72.701142 50.260965
0.204716 -74.087059 50.525711
-0.109974 -71.316002 49.98987
-0.036039 -71.378715 51.279949
0.074679 -72.701142 50.260965
-0.309846 -69.890721 49.74581
-0.109974 -71.316002 49.98987
-6.383629 -93.623207 55.85746
-5.801188 -92.677384 57.123877
-6.563652 -93.117455 56.787917
-6.383629 -93.623207 55.85746
-6.990157 -94.612892 54.633173
-7.297574 -96.557419 51.568825
-7.435746 -96.130531 52.502863
-7.851608 -97.561226 50.368031
-7.111911 -97.020088 50.675976
-7.297574 -96.557419 51.568825
-10.505679 -97.035683 50.434431
-10.730219 -96.072304 51.136204
-9.748854 -96.951179 51.075854
-10.505679 -97.035683 50.434431
-10.305003 -97.817429 49.67361
-8.560704 -98.064065 49.992945
-8.792725 -97.415741 50.787956
-9.316157 -98.381248 49.520021
-8.375041 -98.526734 49.100096
-7.851608 -97.561226 50.368031
-8.560704 -98.064065 49.992945
-8.097495 -99.024772 48.249523
-8.375041 -98.526734 49.100096
-2.235626 -60.366243 65.97752
-2.243931 -60.502947 67.342075
-1.877368 -61.35594 65.136212
-2.21609 -60.236401 64.625458
-2.235626 -60.366243 65.97752
-2.052853 -62.859703 72.287178
-2.204956 -62.89673 73.593903
-1.88776 -62.822164 70.982716
-2.052853 -62.859703 72.287178
-1.744899 -63.855467 71.369625
-1.791225 -62.751862 69.636639
-1.88776 -62.822164 70.982716
-1.685675 -62.687302 68.297783
-1.791225 -62.751862 69.636639
-1.474257 -63.753368 68.726307
-1.632805 -62.587295 66.937862
-1.949774 -61.585789 67.848195
-1.685675 -62.687302 68.297783
0.35355 -78.13977 51.356857
0.344227 -76.800103 51.079214
0.370314 -76.823509 52.388525
0.35355 -78.13977 51.356857
0.275731 -79.464729 51.626402
-0.11618 -82.057827 56.002499
0.017907 -80.733345 57.075571
-0.20455 -82.013607 57.287611
-0.060934 -82.083286 54.728378
-0.11618 -82.057827 56.002499
0.145908 -80.790039 54.491632
-0.060934 -82.083286 54.728378
-2.747965 -64.847093 76.513966
-2.430408 -64.886627 75.363315
-2.891542 -65.792225 76.615509
-2.747965 -64.847093 76.513966
-3.050953 -66.768776 76.707932
-2.638121 -66.848995 75.659531
-2.891542 -65.792225 76.615509
-3.301253 -67.699776 76.691529
-3.050953 -66.768776 76.707932
-3.554674 -66.643006 77.647507
-4.406 -67.392711 78.417122
-4.062534 -66.506363 78.553802
-4.152356 -68.494145 77.52266
-4.406 -67.392711 78.417122
-4.753382 -68.312851 78.308678
-6.109838 -70.959262 77.651398
-5.611035 -70.095898 77.918014
-5.840194 -72.121059 76.859074
-6.109838 -70.959262 77.651398
-5.596254 -73.290367 75.994655
-5.110119 -72.400669 76.206429
-5.840194 -72.121059 76.859074
-6.068349 -74.197067 75.824985
-5.338273 -74.476677 75.17234
-5.596254 -73.290367 75.994655
-6.592015 -75.052727 75.583775
-6.068349 -74.197067 75.824985
-7.099136 -75.898574 75.3737
-6.317489 -76.229225 74.792595
-6.592015 -75.052727 75.583775
-7.638993 -76.697876 75.098835
-7.099136 -75.898574 75.3737
-8.164981 -77.452171 74.840988
-7.350598 -77.829369 74.324673
-7.638993 -76.697876 75.098835
-8.698515 -78.16954 74.516507
-8.164981 -77.452171 74.840988
-9.224622 -78.800679 74.202343
-8.402692 -79.214802 73.752662
-8.698515 -78.16954 74.516507
-9.724811 -79.414589 73.806942
-9.224622 -78.800679 74.202343
-9.427432 -80.324844 73.071498
-9.724811 -79.414589 73.806942
0.11358 -36.176784 46.441411
-0.130766 -37.920589 46.612216
0.11358 -36.176784 46.441411
0.712485 -35.55582 45.783883
-4.516148 -53.016375 61.225193
-4.146701 -54.272671 61.854719
-4.524431 -52.686811 59.985906
-4.8753 -51.705792 60.637296
-4.516148 -53.016375 61.225193
-0.604106 -67.289456 51.757845
-0.369547 -68.706417 52.011106
-0.455251 -68.576615 50.755592
-0.775927 -66.028118 52.738106
-0.604106 -67.289456 51.757845
-0.958309 -64.8022 53.709429
-0.700784 -66.19334 53.984682
-0.775927 -66.028118 52.738106
-1.165033 -63.612637 54.643577
-0.958309 -64.8022 53.709429
-2.268886 -57.745401 52.267956
-2.265783 -58.054984 53.40119
-2.442416 -56.24386 52.030068
-2.268886 -57.745401 52.267956
-2.642313 -54.77422 51.720144
-2.719189 -55.158251 52.782042
-2.442416 -56.24386 52.030068
-2.464286 -54.320417 50.735512
-2.335777 -53.913837 49.72324
-2.741059 -53.234808 51.487486
-2.642313 -54.77422 51.720144
-2.464286 -54.320417 50.735512
-1.697246 -49.747736 47.570305
-1.993691 -50.214533 48.474514
-1.503338 -48.076878 47.479605
-1.697246 -49.747736 47.570305
-1.344842 -46.42516 47.316578
-1.74213 -46.934799 48.154856
-1.503338 -48.076878 47.479605
-0.863112 -45.881487 46.537166
-1.101904 -44.739408 47.212418
-1.344842 -46.42516 47.316578
-0.439325 -45.402075 45.700653
-0.863112 -45.881487 46.537166
-0.139962 -43.689925 45.640577
-0.439325 -45.402075 45.700653
3 188 187 48
3 189 48 190
3 0 53 51
3 192 191 54
3 2 58 56
3 2 60 58
3 1 63 61
3 3 66 64
3 5 70 68
3 3 73 71
3 3 64 73
3 7 193 194
3 7 195 197
3 195 76 196
3 195 196 197
3 8 198 199
3 8 200 201
3 4 79 77
3 10 82 80
3 10 84 82
3 6 87 85
3 11 90 88
3 11 92 90
3 11 94 92
3 203 202 95
3 9 204 206
3 204 97 205
3 204 205 206
3 207 100 208
3 209 208 98
3 207 208 209
3 210 102 211
3 212 211 100
3 210 211 212
3 12 105 103
3 214 213 49
3 14 108 106
3 12 109 50
3 12 103 109
3 216 215 110
3 16 217 219
3 217 113 218
3 217 218 219
3 18 114 52
3 18 115 114
3 19 118 116
3 21 119 55
3 21 120 119
3 21 220 222
3 222 221 120
3 220 221 222
3 22 223 224
3 23 121 57
3 23 122 121
3 23 225 227
3 227 226 122
3 225 226 227
3 24 123 59
3 24 124 123
3 25 127 125
3 27 128 62
3 27 228 230
3 230 229 128
3 228 229 230
3 28 130 129
3 30 131 65
3 30 132 131
3 13 133 104
3 31 134 67
3 31 135 134
3 31 231 233
3 233 232 135
3 231 232 233
3 32 138 136
3 34 139 69
3 34 140 139
3 15 141 107
3 35 142 72
3 35 143 142
3 35 144 143
3 28 145 74
3 28 129 145
3 234 146 235
3 36 147 75
3 36 148 147
3 37 151 149
3 29 236 237
3 39 238 240
3 240 239 78
3 238 239 240
3 39 241 243
3 241 152 242
3 241 242 243
3 244 153 245
3 246 245 111
3 244 245 246
3 247 154 248
3 250 249 154
3 251 155 252
3 17 156 112
3 40 157 81
3 40 158 157
3 40 159 158
3 41 160 83
3 41 161 160
3 33 162 137
3 42 163 86
3 42 164 163
3 20 165 117
3 43 166 89
3 43 167 166
3 43 168 167
3 44 169 91
3 44 170 169
3 44 171 170
3 253 172 254
3 255 254 93
3 253 254 255
3 257 256 172
3 258 173 259
3 260 174 261
3 262 175 263
3 264 263 174
3 262 263 264
3 266 265 96
3 45 267 268
3 45 269 271
3 269 176 270
3 269 270 271
3 26 177 126
3 46 178 99
3 46 179 178
3 46 180 179
3 47 181 101
3 47 182 181
3 38 183 150
3 272 184 273
3 274 185 275
3 276 275 184
3 274 275 276
3 277 186 278
3 279 278 185
3 277 278 279
3 48 49 12
3 280 49 281
3 282 281 48
3 280 281 282
3 284 283 49
3 285 50 286
3 287 286 14
3 285 286 287
3 48 288 290
3 288 50 289
3 288 289 290
3 48 12 50
3 51 52 16
3 53 52 51
3 53 18 52
3 54 55 19
3 291 55 292
3 293 292 54
3 291 292 293
3 294 21 295
3 296 295 55
3 294 295 296
3 298 297 21
3 56 57 22
3 58 57 56
3 58 23 57
3 58 59 23
3 60 59 58
3 60 24 59
3 61 62 25
3 63 62 61
3 63 27 62
3 64 65 28
3 66 65 64
3 66 30 65
3 299 67 300
3 301 300 13
3 299 300 301
3 302 67 303
3 304 31 305
3 306 305 67
3 304 305 306
3 308 307 31
3 68 69 32
3 70 69 68
3 70 34 69
3 71 72 15
3 73 72 71
3 73 35 72
3 73 74 35
3 64 74 73
3 64 28 74
3 309 75 310
3 76 311 313
3 311 75 312
3 311 312 313
3 76 36 75
3 315 314 37
3 77 78 29
3 79 78 77
3 79 39 78
3 80 81 17
3 82 81 80
3 82 40 81
3 82 83 40
3 84 83 82
3 84 41 83
3 85 86 33
3 87 86 85
3 87 42 86
3 88 89 20
3 90 89 88
3 90 43 89
3 90 91 43
3 92 91 90
3 92 44 91
3 92 93 44
3 94 93 92
3 94 316 318
3 318 317 93
3 316 317 318
3 95 319 321
3 319 96 320
3 319 320 321
3 322 96 323
3 324 323 95
3 322 323 324
3 326 325 96
3 97 327 328
3 97 329 331
3 329 45 330
3 329 330 331
3 98 99 26
3 100 99 98
3 100 46 99
3 100 101 46
3 102 101 100
3 102 47 101
3 333 332 38
3 103 104 3
3 105 104 103
3 105 13 104
3 49 105 12
3 334 105 335
3 336 335 49
3 334 335 336
3 337 13 338
3 339 338 105
3 337 338 339
3 341 340 13
3 106 107 5
3 108 107 106
3 108 15 107
3 50 108 14
3 109 108 50
3 109 15 108
3 109 71 15
3 103 71 109
3 103 3 71
3 342 7 343
3 344 8 345
3 110 111 4
3 346 111 347
3 348 347 110
3 346 347 348
3 350 349 111
3 351 112 352
3 113 353 355
3 353 112 354
3 353 354 355
3 113 17 112
3 52 113 16
3 114 113 52
3 114 17 113
3 114 80 17
3 115 80 114
3 115 10 80
3 116 117 6
3 118 117 116
3 118 20 117
3 55 118 19
3 119 118 55
3 119 20 118
3 119 88 20
3 120 88 119
3 120 11 88
3 120 356 358
3 358 357 11
3 356 357 358
3 360 359 120
3 362 361 21
3 57 363 365
3 365 364 22
3 363 364 365
3 121 366 368
3 368 367 57
3 366 367 368
3 121 369 370
3 121 371 372
3 122 373 375
3 375 374 121
3 373 374 375
3 122 376 377
3 122 378 380
3 378 379 380
3 382 381 122
3 59 383 385
3 385 384 23
3 383 384 385
3 123 386 388
3 388 387 59
3 386 387 388
3 123 389 390
3 123 391 393
3 391 95 392
3 391 392 393
3 124 95 123
3 124 394 396
3 396 395 95
3 394 395 396
3 125 126 9
3 127 126 125
3 127 26 126
3 62 127 25
3 128 127 62
3 128 26 127
3 128 98 26
3 397 98 398
3 399 398 128
3 397 398 399
3 401 400 98
3 129 402 403
3 130 404 406
3 406 405 129
3 404 405 406
3 130 407 409
3 407 29 408
3 407 408 409
3 65 130 28
3 131 130 65
3 131 29 130
3 131 77 29
3 132 77 131
3 132 4 77
3 104 66 3
3 133 66 104
3 133 30 66
3 67 133 13
3 134 133 67
3 134 30 133
3 134 132 30
3 135 132 134
3 135 4 132
3 135 110 4
3 410 110 411
3 412 411 135
3 410 411 412
3 414 413 110
3 416 415 31
3 136 137 0
3 138 137 136
3 138 33 137
3 69 138 32
3 139 138 69
3 139 33 138
3 139 85 33
3 140 85 139
3 140 6 85
3 107 70 5
3 141 70 107
3 141 34 70
3 72 141 15
3 142 141 72
3 142 34 141
3 142 140 34
3 143 140 142
3 143 6 140
3 143 116 6
3 144 116 143
3 144 19 116
3 74 144 35
3 145 144 74
3 145 19 144
3 145 54 19
3 129 54 145
3 129 417 419
3 419 418 54
3 417 418 419
3 146 420 422
3 420 421 422
3 146 423 425
3 423 22 424
3 423 424 425
3 75 426 428
3 426 146 427
3 426 427 428
3 147 146 75
3 147 22 146
3 147 56 22
3 148 56 147
3 148 2 56
3 149 150 1
3 151 150 149
3 151 38 150
3 429 151 430
3 431 430 37
3 429 430 431
3 432 151 433
3 434 38 435
3 436 435 151
3 434 435 436
3 438 437 38
3 78 439 441
3 441 440 29
3 439 440 441
3 443 442 78
3 152 444 445
3 152 446 448
3 446 8 447
3 446 447 448
3 111 79 4
3 153 79 111
3 153 39 79
3 449 153 450
3 154 451 453
3 451 153 452
3 451 452 453
3 154 39 153
3 154 152 39
3 454 152 455
3 456 455 154
3 454 455 456
3 457 8 458
3 459 458 152
3 457 458 459
3 461 460 8
3 155 462 463
3 155 464 466
3 464 9 465
3 464 465 466
3 112 467 468
3 156 469 471
3 471 470 112
3 469 470 471
3 156 472 473
3 81 156 17
3 157 156 81
3 157 474 476
3 476 475 156
3 474 475 476
3 157 477 479
3 477 155 478
3 477 478 479
3 158 155 157
3 158 9 155
3 158 125 9
3 159 125 158
3 159 25 125
3 83 159 40
3 160 159 83
3 160 25 159
3 160 61 25
3 161 61 160
3 161 1 61
3 137 53 0
3 162 53 137
3 162 18 53
3 86 162 33
3 163 162 86
3 163 18 162
3 163 115 18
3 164 115 163
3 164 10 115
3 117 87 6
3 165 87 117
3 165 42 87
3 89 165 20
3 166 165 89
3 166 42 165
3 166 164 42
3 167 164 166
3 167 10 164
3 167 84 10
3 168 84 167
3 168 41 84
3 91 168 43
3 169 168 91
3 169 41 168
3 169 161 41
3 170 161 169
3 170 1 161
3 170 149 1
3 171 149 170
3 171 37 149
3 93 171 44
3 172 171 93
3 172 37 171
3 172 480 482
3 482 481 37
3 480 481 482
3 484 483 172
3 485 94 486
3 487 486 11
3 485 486 487
3 488 94 489
3 491 490 94
3 492 16 493
3 494 16 495
3 496 51 497
3 498 497 16
3 496 497 498
3 173 499 501
3 499 51 500
3 499 500 501
3 173 0 51
3 502 173 503
3 174 504 506
3 504 173 505
3 504 505 506
3 174 0 173
3 174 136 0
3 175 136 174
3 175 32 136
3 507 175 508
3 509 175 510
3 511 32 512
3 513 512 175
3 511 512 513
3 514 68 515
3 516 515 32
3 514 515 516
3 517 68 518
3 519 5 520
3 521 520 68
3 519 520 521
3 522 5 523
3 524 106 525
3 526 525 5
3 524 525 526
3 527 106 528
3 529 14 530
3 531 530 106
3 529 530 531
3 532 14 533
3 535 534 14
3 96 536 537
3 539 538 96
3 176 540 541
3 176 542 544
3 542 7 543
3 542 543 544
3 126 97 9
3 177 97 126
3 177 45 97
3 99 177 26
3 178 177 99
3 178 45 177
3 178 176 45
3 179 176 178
3 179 7 176
3 179 76 7
3 180 76 179
3 180 36 76
3 101 180 46
3 181 180 101
3 181 36 180
3 181 148 36
3 182 148 181
3 182 2 148
3 150 63 1
3 183 63 150
3 183 27 63
3 545 183 546
3 547 546 38
3 545 546 547
3 548 183 549
3 550 27 551
3 552 551 183
3 550 551 552
3 554 553 27
3 555 102 556
3 557 102 558
3 559 47 560
3 561 560 102
3 559 560 561
3 184 562 563
3 184 564 566
3 564 47 565
3 564 565 566
3 184 182 47
3 185 182 184
3 185 2 182
3 185 60 2
3 186 60 185
3 186 24 60
3 567 186 568
3 569 186 570
3 571 24 572
3 573 572 186
3 571 572 573
3 574 124 575
3 576 575 24
3 574 575 576
3 577 124 578
3 580 579 124
