ply
format ascii 1.0
element vertex 192
property float x
property float y
property float z
element face 192
property list uchar int vertex_index
end_header
19.206142 55.129341 46.049522
17.926979 44.286819 55.492805
11.559464 57.976219 52.291214
13.273457 68.848518 40.224213
18.44816 49.924446 50.817863
14.81884 51.131866 54.142555
15.373301 56.813339 48.812698
12.236877 63.711327 46.323647
16.257309 62.004829 43.399261
14.524866 45.05249 59.242233
11.219923 51.733604 57.977455
7.829826 57.990852 55.773315
8.288065 64.341766 49.52597
9.101221 70.044647 42.943485
18.794022 52.588135 48.439941
16.915882 53.337067 49.845657
17.284506 55.998695 47.307671
15.774173 59.476181 46.111557
17.729416 58.534035 44.760544
17.724936 41.34457 57.758865
16.072693 41.680687 59.643585
16.215729 44.718918 57.282829
13.204145 54.581581 53.307686
13.021276 51.55072 56.049324
11.352987 54.912453 55.181763
9.51367 54.942726 57.014328
9.670889 58.162933 54.080193
8.017097 61.240608 52.703758
9.90855 61.25222 51.043831
12.713675 66.360771 43.28627
10.657347 66.987709 44.763134
11.168444 69.611061 41.557682
18.162968 47.152306 53.173958
16.393034 47.684311 54.851555
16.621717 50.561508 52.365982
15.05685 54.028259 51.495529
13.464886 57.499702 50.502754
11.851873 60.912766 49.330734
13.813232 60.294563 47.657761
14.25176 62.955437 44.789757
14.774542 65.470032 41.904686
19.688919 43.839359 53.976334
19.980961 46.618828 51.78759
20.316456 49.293602 49.567886
20.704464 51.846451 47.326485
12.82618 45.202385 61.253883
14.646999 48.13549 56.731659
12.901358 48.419296 58.704178
11.143629 48.454559 60.657043
9.422749 51.607231 59.823311
7.715212 54.609543 58.711006
6.443184 64.081299 51.022308
6.744596 67.174599 47.710915
10.23621 64.197639 47.930511
8.649172 67.280411 46.265045
7.133026 70.08548 44.31234
19.444412 56.3321 44.847212
18.706049 58.034447 44.202723
18.467779 56.831688 45.405033
12.516352 70.451961 39.272423
11.463845 70.833233 39.939158
12.220951 69.22979 40.890947
13.587167 70.004421 38.678162
12.830062 71.607865 37.726372
12.516352 70.451961 39.272423
16.534588 63.195332 42.034397
15.793204 64.927933 41.287109
15.515925 63.737431 42.651973
20.606245 43.641861 53.389718
20.448024 42.241558 54.398381
20.752266 45.031596 52.295345
19.83494 45.229094 52.881962
20.606245 43.641861 53.389718
21.277138 49.006443 49.104869
21.089745 47.718521 50.154339
21.471142 50.282868 47.984169
20.51046 50.570026 48.447186
21.277138 49.006443 49.104869
21.679952 51.50013 46.917878
21.471142 50.282868 47.984169
14.479301 43.475578 60.451161
15.253214 41.789676 60.651837
15.29878 43.366588 59.442909
13.675523 45.127437 60.248058
13.629957 43.550525 61.456986
14.479301 43.475578 60.451161
6.956117 57.700138 56.529384
6.89881 56.009484 57.99823
7.772519 56.300197 57.24216
7.027451 59.40549 54.997543
6.956117 57.700138 56.529384
8.354378 71.423553 41.896181
7.370281 71.44397 42.580608
8.117123 70.065064 43.627913
17.986728 59.732094 43.480227
17.250675 61.467491 42.799585
16.993362 60.269432 44.079903
17.986728 59.732094 43.480227
18.706049 58.034447 44.202723
16.898815 41.512628 58.701225
16.806355 40.011907 59.802548
17.632476 39.843849 58.860187
10.403788 71.117287 40.567614
9.370176 71.33408 41.260515
10.134832 69.827854 42.250584
10.403788 71.117287 40.567614
11.463845 70.833233 39.939158
15.071079 66.647164 40.450249
14.320536 68.336407 39.610012
14.024 67.159275 41.064449
15.071079 66.647164 40.450249
15.793204 64.927933 41.287109
16.534588 63.195332 42.034397
17.250675 61.467491 42.799585
18.451934 39.694191 57.985897
17.632476 39.843849 58.860187
18.359474 38.19347 59.08722
18.575879 41.159439 56.940224
18.451934 39.694191 57.985897
18.676901 42.630564 55.807193
17.825958 42.815694 56.625835
18.575879 41.159439 56.940224
19.557871 42.406834 55.048958
20.448024 42.241558 54.398381
18.807949 44.063089 54.734569
18.676901 42.630564 55.807193
19.557871 42.406834 55.048958
20.921997 46.381134 51.26419
20.752266 45.031596 52.295345
20.148708 47.956215 50.677738
20.921997 46.381134 51.26419
21.089745 47.718521 50.154339
20.926164 53.054501 46.195372
20.177003 54.695945 45.556891
19.955303 53.487896 46.688004
21.901653 52.708179 45.786765
20.926164 53.054501 46.195372
21.679952 51.50013 46.917878
16.009287 40.133415 60.784202
16.806355 40.011907 59.802548
16.009287 40.133415 60.784202
15.253214 41.789676 60.651837
12.801053 43.559977 62.471199
13.629957 43.550525 61.456986
11.965554 45.14788 62.230384
12.801053 43.559977 62.471199
11.124279 46.773967 61.931964
11.965554 45.14788 62.230384
11.984905 46.828472 60.955463
10.262207 48.314907 61.573825
11.124279 46.773967 61.931964
9.401767 49.891243 61.156959
10.262207 48.314907 61.573825
10.283189 50.030895 60.240177
8.540681 51.362125 60.660816
8.519699 49.646137 61.994465
9.401767 49.891243 61.156959
7.686913 52.863281 60.104664
8.540681 51.362125 60.660816
8.568981 53.108387 59.267158
6.859502 54.240441 59.452297
7.686913 52.863281 60.104664
6.859502 54.240441 59.452297
6.89881 56.009484 57.99823
7.121087 61.030369 53.462764
7.027451 59.40549 54.997543
7.923462 59.61573 54.238536
6.33413 62.450714 52.622039
7.121087 61.030369 53.462764
7.23014 62.660954 51.863033
5.601012 63.726585 51.680771
6.33413 62.450714 52.622039
5.7238 65.350739 50.020981
5.601012 63.726585 51.680771
5.874506 66.897389 48.365284
5.7238 65.350739 50.020981
6.59389 65.627949 49.366612
6.037233 68.427437 46.649183
5.874506 66.897389 48.365284
6.231448 69.882878 44.949896
6.037233 68.427437 46.649183
6.938811 68.63004 46.011628
6.435003 71.311791 43.189686
6.231448 69.882878 44.949896
6.435003 71.311791 43.189686
7.370281 71.44397 42.580608
8.354378 71.423553 41.896181
9.370176 71.33408 41.260515
13.587167 70.004421 38.678162
14.320536 68.336407 39.610012
19.444412 56.3321 44.847212
20.177003 54.695945 45.556891
3 0 16 14
3 0 18 16
3 0 56 58
3 58 57 18
3 56 57 58
3 1 21 19
3 2 24 22
3 2 26 24
3 2 28 26
3 3 31 29
3 3 59 61
3 61 60 31
3 59 60 61
3 3 62 64
3 62 63 64
3 4 34 32
3 6 35 15
3 6 36 35
3 6 38 36
3 8 39 17
3 8 40 39
3 8 65 67
3 67 66 40
3 65 66 67
3 68 41 69
3 70 42 71
3 72 71 41
3 70 71 72
3 73 43 74
3 75 44 76
3 77 76 43
3 75 76 77
3 79 78 44
3 9 80 82
3 82 81 20
3 80 81 82
3 9 83 85
3 83 45 84
3 83 84 85
3 5 46 33
3 10 47 23
3 10 48 47
3 10 49 48
3 11 50 25
3 11 86 88
3 88 87 50
3 86 87 88
3 11 89 90
3 12 51 27
3 12 52 51
3 7 53 37
3 13 54 30
3 13 55 54
3 13 91 93
3 93 92 55
3 91 92 93
3 14 15 4
3 16 15 14
3 16 6 15
3 16 17 6
3 18 17 16
3 18 8 17
3 18 94 96
3 96 95 8
3 94 95 96
3 98 97 18
3 19 99 101
3 99 20 100
3 99 100 101
3 21 20 19
3 21 9 20
3 22 23 5
3 24 23 22
3 24 10 23
3 24 25 10
3 26 25 24
3 26 11 25
3 26 27 11
3 28 27 26
3 28 12 27
3 29 30 7
3 31 30 29
3 31 13 30
3 31 102 104
3 104 103 13
3 102 103 104
3 106 105 31
3 32 33 1
3 34 33 32
3 34 5 33
3 15 34 4
3 35 34 15
3 35 5 34
3 35 22 5
3 36 22 35
3 36 2 22
3 36 37 2
3 38 37 36
3 38 7 37
3 17 38 6
3 39 38 17
3 39 7 38
3 39 29 7
3 40 29 39
3 40 3 29
3 40 107 109
3 109 108 3
3 107 108 109
3 111 110 40
3 113 112 8
3 114 19 115
3 114 115 116
3 117 19 118
3 119 1 120
3 121 120 19
3 119 120 121
3 41 122 123
3 41 124 126
3 124 1 125
3 124 125 126
3 41 32 1
3 42 32 41
3 42 4 32
3 127 42 128
3 43 129 131
3 129 42 130
3 129 130 131
3 43 4 42
3 43 14 4
3 44 14 43
3 44 0 14
3 44 132 134
3 134 133 0
3 132 133 134
3 137 136 44
3 135 136 137
3 20 138 139
3 141 140 20
3 45 142 143
3 45 144 145
3 33 21 1
3 46 21 33
3 46 9 21
3 23 46 5
3 47 46 23
3 47 9 46
3 47 45 9
3 48 45 47
3 48 146 148
3 148 147 45
3 146 147 148
3 48 149 150
3 49 151 153
3 153 152 48
3 151 152 153
3 49 154 156
3 154 155 156
3 25 49 10
3 50 49 25
3 50 157 159
3 159 158 49
3 157 158 159
3 50 160 161
3 163 162 50
3 27 164 166
3 166 165 11
3 164 165 166
3 51 167 169
3 169 168 27
3 167 168 169
3 51 170 171
3 51 172 173
3 52 174 176
3 176 175 51
3 174 175 176
3 52 177 178
3 37 28 2
3 53 28 37
3 53 12 28
3 30 53 7
3 54 53 30
3 54 12 53
3 54 52 12
3 55 52 54
3 55 179 181
3 181 180 52
3 179 180 181
3 55 182 183
3 185 184 55
3 187 186 13
3 189 188 3
3 191 190 0
