ply
format ascii 1.0
element vertex 128
property float x
property float y
property float z
element face 110
property list uchar int vertex_index
end_header
10.181911 84.713005 -20.462393
4.757772 75.901688 -29.055029
12.87849 80.914307 -23.85359
5.283703 84.121857 -20.717611
3.059479 79.236282 -25.245634
7.108955 81.16304 -25.087946
1.455742 72.941994 -28.973886
7.503386 84.70784 -20.712442
6.083651 82.827728 -23.093061
8.560108 83.179199 -22.847372
3.791517 77.766563 -27.349474
2.19075 76.23777 -27.222509
2.899733 74.704597 -29.175585
11.458603 82.998505 -22.355165
5.917662 73.635696 -30.357504
3.844286 72.780815 -30.729204
4.981863 70.46714 -31.887602
4.08399 81.883759 -23.068884
4.847708 80.494682 -25.313425
5.842043 78.716393 -27.165022
9.807915 81.278687 -24.586138
8.326233 79.104347 -26.676344
7.029306 76.534935 -28.608839
1.014322 74.157684 -26.804968
2.153557 71.363159 -30.764433
0.836205 69.392036 -30.474512
9.638578 85.402752 -19.327393
11.062685 85.224392 -19.20492
8.842648 84.710422 -20.587418
8.299316 85.40017 -19.452417
9.638578 85.402752 -19.327393
6.099253 70.725448 -31.585037
5.449763 72.051418 -31.122553
6.567153 72.309726 -30.819989
5.000007 84.599335 -19.364288
5.97488 85.00922 -19.466566
4.42314 83.517933 -20.596991
5.000007 84.599335 -19.364288
4.683846 83.002808 -21.893248
3.823284 82.398884 -21.772627
4.42314 83.517933 -20.596991
9.004942 77.87463 -27.270344
9.76139 79.045234 -26.299298
8.356478 76.589924 -28.236591
7.67777 77.819641 -27.642592
9.004942 77.87463 -27.270344
7.69287 75.245369 -29.135277
8.356478 76.589924 -28.236591
2.397358 78.318184 -25.072357
2.817816 79.786377 -24.013321
0.92391 71.797138 -28.723984
0.7032 72.404984 -27.639525
1.235032 73.549839 -27.889427
2.619967 70.385044 -31.460109
2.998921 72.071987 -30.746818
3.465331 71.093872 -31.442495
0.579481 67.504615 -31.087019
1.186865 68.588192 -31.281362
0.346549 68.152802 -30.178684
0.579481 67.504615 -31.087019
7.084721 85.302212 -19.463981
8.299316 85.40017 -19.452417
6.393544 84.414849 -20.715027
5.97488 85.00922 -19.466566
7.084721 85.302212 -19.463981
12.037519 79.950214 -24.88792
13.629744 79.678078 -24.411509
11.713919 84.46698 -20.227936
11.062685 85.224392 -19.20492
12.352265 83.60973 -21.174322
10.820257 83.855755 -21.408779
11.713919 84.46698 -20.227936
13.077133 82.687107 -22.009611
12.352265 83.60973 -21.174322
13.787076 81.645008 -22.758823
12.168546 81.956406 -23.104377
13.077133 82.687107 -22.009611
14.555654 80.537521 -23.405882
13.787076 81.645008 -22.758823
13.629744 79.678078 -24.411509
14.555654 80.537521 -23.405882
4.03412 69.937035 -32.021693
3.465331 71.093872 -31.442495
4.413074 71.623977 -31.308403
5.61919 69.126228 -32.28554
6.099253 70.725448 -31.585037
4.595895 68.773056 -32.523738
5.61919 69.126228 -32.28554
4.03412 69.937035 -32.021693
4.595895 68.773056 -32.523738
3.330071 81.110116 -22.924946
3.823284 82.398884 -21.772627
3.571734 80.560021 -24.157259
2.817816 79.786377 -24.013321
3.330071 81.110116 -22.924946
10.502231 80.132405 -25.254194
11.343203 81.096497 -24.219864
12.037519 79.950214 -24.88792
9.067074 80.191517 -25.631241
10.502231 80.132405 -25.254194
9.76139 79.045234 -26.299298
7.137048 73.795749 -30.009609
6.473484 75.085316 -29.483171
7.69287 75.245369 -29.135277
6.567153 72.309726 -30.819989
7.137048 73.795749 -30.009609
1.962994 76.818928 -26.060795
2.397358 78.318184 -25.072357
2.625115 77.737026 -26.234071
1.374779 75.778885 -25.852024
1.962994 76.818928 -26.060795
1.602536 75.197727 -27.013738
0.918921 74.599331 -25.554747
1.374779 75.778885 -25.852024
0.607977 72.874695 -26.466533
0.918921 74.599331 -25.554747
0.607977 72.874695 -26.466533
0.7032 72.404984 -27.639525
1.845541 69.573753 -31.426322
2.619967 70.385044 -31.460109
1.494881 70.377598 -30.619473
1.845541 69.573753 -31.426322
1.186865 68.588192 -31.281362
0.614142 70.02216 -29.474297
0.92391 71.797138 -28.723984
1.145973 71.167015 -29.724199
0.614142 70.02216 -29.474297
0.346549 68.152802 -30.178684
3 0 26 27
3 0 28 30
3 28 7 29
3 28 29 30
3 0 9 7
3 1 12 10
3 31 16 32
3 33 32 14
3 31 32 33
3 3 34 35
3 3 36 37
3 3 38 40
3 38 17 39
3 38 39 40
3 5 18 8
3 5 19 18
3 2 20 13
3 41 21 42
3 43 22 44
3 45 44 21
3 43 44 45
3 47 46 22
3 4 48 49
3 6 23 11
3 6 50 52
3 52 51 23
3 50 51 52
3 53 24 54
3 55 54 15
3 53 54 55
3 56 25 57
3 59 58 25
3 7 60 61
3 7 62 64
3 62 3 63
3 62 63 64
3 7 8 3
3 9 8 7
3 9 5 8
3 66 65 2
3 10 11 4
3 12 11 10
3 12 6 11
3 67 0 68
3 69 13 70
3 71 70 0
3 69 70 71
3 72 13 73
3 74 2 75
3 76 75 13
3 74 75 76
3 77 2 78
3 80 79 2
3 14 15 1
3 16 15 14
3 16 81 83
3 83 82 15
3 81 82 83
3 84 16 85
3 86 16 87
3 89 88 16
3 17 90 91
3 17 92 94
3 92 4 93
3 92 93 94
3 8 17 3
3 18 17 8
3 18 4 17
3 18 10 4
3 19 10 18
3 19 1 10
3 13 9 0
3 20 9 13
3 20 5 9
3 95 20 96
3 97 96 2
3 95 96 97
3 21 98 100
3 98 20 99
3 98 99 100
3 21 5 20
3 21 19 5
3 22 19 21
3 22 1 19
3 22 14 1
3 101 14 102
3 103 102 22
3 101 102 103
3 105 104 14
3 11 106 108
3 108 107 4
3 106 107 108
3 23 109 111
3 111 110 11
3 109 110 111
3 23 112 113
3 23 114 115
3 117 116 23
3 15 12 1
3 24 12 15
3 24 6 12
3 118 24 119
3 25 120 122
3 120 24 121
3 120 121 122
3 25 6 24
3 25 123 125
3 125 124 6
3 123 124 125
3 127 126 25
