ply
format ascii 1.0
element vertex 511
property float x
property float y
property float z
element face 593
property list uchar int vertex_index
end_header
56.645882 -68.257851 40.761032
46.346249 -66.273041 50.361885
46.506927 -84.825897 43.900452
40.857025 -72.651733 52.485313
56.482155 -66.205521 30.621853
53.640564 -74.00766 32.270641
57.449577 -61.059349 45.779381
61.222321 -54.129566 44.702721
60.393517 -61.075497 38.078217
53.442974 -68.310852 48.220749
52.370216 -76.218964 42.810089
48.037212 -75.875702 50.219124
41.255127 -82.547531 50.681282
50.562378 -59.162273 48.217094
56.844284 -67.456596 35.783073
55.052483 -70.024544 31.562229
55.16584 -71.29673 36.824371
57.561653 -64.869949 43.769562
59.417049 -61.338829 42.501183
58.519356 -64.600533 39.451759
58.623817 -63.799622 34.503494
50.302826 -67.533218 49.890617
50.974285 -72.091003 49.34565
47.724113 -71.134811 50.944443
41.379318 -77.634628 52.374542
48.552753 -62.747417 49.219048
52.484818 -63.892445 48.686943
49.620605 -80.505623 43.549721
63.243729 -54.38596 40.59687
63.378967 -50.640511 44.443844
43.778881 -69.619919 51.440033
56.359097 -56.809155 47.093742
58.389584 -53.379238 47.230042
59.282738 -57.588833 45.033058
61.25116 -57.865856 41.456425
62.393387 -57.592003 36.742287
60.642532 -60.253529 33.045265
55.561111 -68.550735 45.084
54.66124 -72.125168 41.884689
53.295826 -72.413338 46.243
50.613831 -76.422272 47.180618
47.484161 -80.468803 47.837021
44.697296 -74.57531 51.788712
44.709732 -79.48526 50.753281
44.105282 -84.259613 47.93187
40.773148 -87.248222 47.036545
54.443855 -60.302685 47.620789
55.550507 -64.621498 46.940472
53.335503 -75.365936 37.660774
60.648911 -49.931274 47.655285
63.067047 -46.427486 47.725014
56.839844 -67.918373 38.320145
56.005096 -69.350143 36.334148
55.937759 -69.817238 38.891777
57.212036 -66.612251 42.394299
58.164543 -64.801773 41.723602
57.588112 -66.406433 40.123581
57.741177 -66.070923 37.694008
48.404037 -66.956314 50.23365
49.070816 -69.345352 50.443703
47.163193 -68.717926 50.77491
45.321156 -63.805466 49.820595
46.378548 -62.058411 49.245323
47.486954 -64.52523 49.793236
49.545349 -65.167648 49.657608
48.09317 -82.681213 43.798752
47.518204 -84.669678 41.473846
64.002495 -54.32518 38.110786
64.320404 -52.651073 40.17709
55.524616 -67.342422 28.543999
54.369583 -71.992363 31.937454
54.28326 -71.212257 29.292889
53.641827 -73.19516 29.590267
57.002655 -58.986401 46.493782
57.939358 -57.256672 46.258018
58.364452 -59.317486 45.344711
60.017193 -61.27758 40.401031
60.32579 -59.601017 41.947498
60.947235 -59.537392 39.784966
61.909531 -57.798618 39.204712
61.367496 -59.331928 37.403419
61.628227 -58.985973 34.877365
60.586018 -60.732597 35.604469
57.548611 -65.030121 32.606583
58.47068 -63.211384 31.943775
57.311596 -64.345261 30.039429
54.634178 -68.498398 46.828079
54.471436 -70.460297 45.690166
53.494987 -70.399879 47.431179
49.564911 -73.990562 49.816208
50.902058 -74.28479 48.46637
49.42749 -76.246002 48.890129
49.097504 -78.453049 47.554977
47.84293 -78.194153 49.237358
42.35347 -71.18605 51.962769
44.356075 -72.099564 51.744446
42.811523 -73.678741 52.181778
41.384079 -80.107956 51.762901
43.103123 -78.655869 51.69059
42.979099 -81.115974 50.814926
44.457417 -81.897705 49.57148
42.733131 -83.535767 49.461044
42.417969 -85.894196 47.630043
41.036125 -84.934464 49.101685
51.558449 -57.383591 47.901878
53.570347 -58.004238 47.716145
52.5952 -59.773174 48.041924
53.106079 -66.142288 48.621353
54.142277 -64.314148 47.991844
54.531944 -66.451134 47.587002
55.693771 -66.633621 46.183662
53.567619 -74.144569 42.369156
54.024639 -73.789009 39.870872
52.947205 -75.865417 40.294838
59.912148 -53.814159 46.180542
59.488487 -51.662193 47.445724
60.981697 -52.082336 46.23912
63.26635 -48.586521 46.202217
56.706192 -66.881378 33.20406
55.741123 -68.09726 31.127748
55.921722 -68.772133 33.732742
55.163696 -70.708496 34.195625
54.39032 -72.69574 34.603142
57.644806 -63.020798 44.888416
58.565495 -61.26358 44.311157
58.501373 -63.090733 43.11483
59.095634 -63.028034 41.051704
59.450264 -62.828037 38.764351
59.601501 -62.489796 36.322803
58.657753 -64.265396 37.023575
57.711048 -65.609451 35.170673
51.993298 -67.987854 49.237709
52.263283 -70.193848 48.81205
50.782394 -69.840927 49.810532
49.456909 -71.69014 50.325653
48.010925 -73.521317 50.779282
41.208317 -75.14418 52.582756
39.580677 -76.457092 52.928848
39.697182 -78.912796 52.512817
39.683163 -81.337524 51.661629
39.568161 -83.713768 50.318275
38.024265 -82.291962 51.364861
49.568863 -60.954708 48.675804
51.615417 -61.563286 48.512146
50.607384 -63.365509 49.069534
51.433689 -65.711563 49.29567
51.053593 -78.343254 43.208405
51.753632 -78.001976 40.684666
50.43792 -80.194046 41.032982
62.326378 -54.320686 42.821457
62.276146 -52.387512 44.592609
63.382118 -52.576973 42.547478
64.472374 -50.840462 42.236649
44.19717 -65.505707 50.402771
45.112392 -67.976288 50.90995
42.990921 -67.144043 50.985703
54.891937 -69.263809 28.950377
44.902176 -86.873703 43.788769
45.986351 -86.868065 41.45417
55.587341 -54.539768 47.636177
57.350712 -55.091084 47.091251
58.902405 -55.53619 46.166252
60.228111 -55.862343 44.831646
59.471039 -59.525528 43.819466
60.383518 -57.79451 43.420292
61.328342 -56.060921 43.098572
62.218437 -56.12714 41.014328
62.925789 -56.059292 38.651222
63.48484 -55.857666 36.092381
62.742943 -57.248035 34.146881
59.596458 -62.017105 33.791615
56.227386 -68.469742 43.039429
55.677826 -70.162941 41.349831
55.19548 -70.379425 43.640327
54.094769 -72.341721 44.188515
52.900829 -74.353638 44.684566
52.256214 -72.33168 47.978817
52.014046 -74.403786 46.740116
51.594109 -76.409531 45.131409
50.168186 -78.499176 45.524433
48.634422 -80.602966 45.842564
47.020752 -82.68576 46.044281
45.812653 -70.438141 51.276794
46.261684 -72.885559 51.392784
46.452782 -75.314552 51.168243
43.05806 -76.172371 52.123169
44.805492 -77.040138 51.480476
46.408577 -77.720444 50.540916
46.174042 -80.095024 49.479378
45.806763 -82.425308 47.98185
45.365551 -84.692436 46.07122
43.708706 -86.548576 45.859398
39.389557 -86.024323 48.469238
54.561626 -56.260479 47.576782
55.396687 -58.544044 47.270966
56.070808 -60.735508 46.880325
53.480408 -62.08675 48.110115
55.123764 -62.510803 47.394386
56.517426 -62.824959 46.323006
56.692253 -64.808395 45.524944
56.585663 -66.687729 44.436104
55.010254 -71.773254 39.406624
54.289406 -73.300812 37.262207
53.555229 -74.739487 34.970657
62.108406 -50.338043 46.269386
61.854568 -48.184113 47.773003
64.55981 -53.467055 37.841003
64.318161 -54.231499 36.781044
56.003386 -66.773972 29.582926
55.878801 -66.393539 28.302119
56.35757 -65.825088 29.341047
53.278473 -74.616272 31.066183
53.279105 -74.210022 29.725996
53.641195 -73.60141 30.930454
56.35757 -65.825088 29.341047
56.772291 -64.894959 29.049834
56.896876 -65.275391 30.330641
49.984127 -57.932525 48.071979
49.478226 -58.826101 48.231728
51.060414 -58.272932 48.059486
50.482163 -57.043185 47.914372
49.984127 -57.932525 48.071979
38.674955 -75.810192 53.213741
39.449739 -75.222675 52.966011
38.868952 -79.435589 52.51144
38.828567 -78.244529 52.853397
38.861942 -80.647953 52.085846
39.690173 -80.12516 52.087223
38.868952 -79.435589 52.51144
38.032494 -81.125172 51.937462
38.853714 -81.814743 51.513245
38.861942 -80.647953 52.085846
47.973203 -61.514105 48.961925
46.886101 -61.169601 48.975063
47.465651 -62.402914 49.232185
49.060808 -61.851062 48.947426
48.481258 -60.61775 48.690303
47.973203 -61.514105 48.961925
64.940399 -50.8891 40.984515
64.396389 -51.745767 41.206869
64.864414 -51.794405 39.954735
65.006394 -49.984354 42.047078
64.940399 -50.8891 40.984515
42.516144 -65.91301 50.742554
43.594046 -66.324875 50.694237
43.119269 -65.093841 50.451088
43.119269 -65.093841 50.451088
43.661905 -64.270575 50.139522
54.240267 -70.795349 27.988612
53.953306 -71.770504 28.119309
44.679313 -87.910115 42.487902
44.108101 -87.807225 43.595007
61.208625 -59.378986 32.659465
61.701473 -58.745209 33.575515
61.135379 -59.619751 33.961315
60.627468 -59.95014 31.749181
61.208625 -59.378986 32.659465
58.979342 -62.314947 31.583349
58.36268 -62.862147 30.662678
41.427921 -87.70832 46.196003
42.250332 -87.031307 46.492752
41.595558 -86.571209 47.333294
40.639484 -88.359024 45.784916
41.427921 -87.70832 46.196003
38.66203 -85.2934 49.093716
39.478859 -84.869045 49.393756
38.751332 -84.138123 50.018234
53.570028 -55.944296 47.677639
54.100606 -55.079876 47.722901
52.012543 -77.748768 39.357634
51.418129 -78.846676 39.527704
46.464928 -86.709473 40.184862
45.738811 -87.830849 40.104864
58.094836 -52.255448 47.722226
57.526358 -53.106691 47.549616
59.824951 -49.675514 48.119898
59.244739 -50.540973 48.015118
60.068699 -50.796734 47.550505
60.452175 -48.810396 48.268766
59.824951 -49.675514 48.119898
62.301438 -46.183649 48.371144
61.695198 -47.061963 48.395138
62.460808 -47.3058 47.749009
62.931534 -45.303701 48.322063
62.301438 -46.183649 48.371144
45.849852 -62.931939 49.532959
45.267865 -61.691668 49.261543
44.739169 -62.565195 49.549179
48.554268 -82.554169 42.555508
49.317985 -81.466374 42.430992
48.856887 -81.593418 43.674236
48.266785 -83.548401 41.393055
48.554268 -82.554169 42.555508
47.805687 -83.675445 42.636299
47.9515 -84.458905 40.168186
48.266785 -83.548401 41.393055
64.718765 -52.630001 38.874155
64.16145 -53.488126 39.143938
64.55981 -53.467055 37.841003
64.864414 -51.794405 39.954735
64.718765 -52.630001 38.874155
55.429541 -66.93367 27.269163
55.878801 -66.393539 28.302119
55.135914 -67.894252 27.458897
55.429541 -66.93367 27.269163
53.632589 -72.761955 28.267999
53.953306 -71.770504 28.119309
53.962543 -72.203709 29.441578
53.306204 -73.753135 28.384709
53.632589 -72.761955 28.267999
53.306204 -73.753135 28.384709
53.279105 -74.210022 29.725996
57.783138 -63.429085 29.710504
58.36268 -62.862147 30.662678
57.891138 -63.778323 30.991602
57.184759 -63.957466 28.76592
57.783138 -63.429085 29.710504
57.184759 -63.957466 28.76592
56.772291 -64.894959 29.049834
51.004614 -56.1586 47.849741
50.482163 -57.043185 47.914372
52.068439 -56.505852 47.840187
51.004614 -56.1586 47.849741
52.564398 -57.693915 47.809011
53.074388 -56.816175 47.747321
52.068439 -56.505852 47.840187
63.878788 -48.743605 45.204258
63.322659 -49.613516 45.323031
63.935097 -49.7706 44.325071
63.834789 -47.714117 46.092479
63.878788 -48.743605 45.204258
63.735138 -46.6346 46.853878
63.166699 -47.507003 46.963616
63.834789 -47.714117 46.092479
63.646988 -45.552742 47.591803
63.735138 -46.6346 46.853878
40.263559 -74.566219 52.792965
41.032671 -73.897956 52.534035
40.087913 -73.319996 52.744243
40.394497 -75.800636 52.755802
40.263559 -74.566219 52.792965
39.449739 -75.222675 52.966011
38.770315 -77.016678 53.061413
38.674955 -75.810192 53.213741
39.63893 -77.684944 52.720833
38.770315 -77.016678 53.061413
38.828567 -78.244529 52.853397
37.979383 -83.42722 50.541527
38.751332 -84.138123 50.018234
38.796213 -83.002865 50.841568
37.225061 -81.513599 51.859047
38.032494 -81.125172 51.937462
37.2199 -82.615478 51.121056
37.225061 -81.513599 51.859047
37.979383 -83.42722 50.541527
37.2199 -82.615478 51.121056
45.767212 -60.81292 48.983669
45.267865 -61.691668 49.261543
45.767212 -60.81292 48.983669
46.886101 -61.169601 48.975063
48.981468 -59.722319 48.461083
48.481258 -60.61775 48.690303
50.065621 -60.05849 48.446449
49.478226 -58.826101 48.231728
48.981468 -59.722319 48.461083
50.760273 -79.942711 39.701862
51.418129 -78.846676 39.527704
51.095776 -79.098011 40.858824
49.726643 -81.310585 41.172623
50.029263 -80.349835 42.291351
49.317985 -81.466374 42.430992
50.107735 -81.07127 39.847305
49.726643 -81.310585 41.172623
50.760273 -79.942711 39.701862
50.107735 -81.07127 39.847305
64.4818 -49.870575 43.221474
63.935097 -49.7706 44.325071
63.925671 -50.740487 43.340246
64.4818 -49.870575 43.221474
65.006394 -49.984354 42.047078
41.939686 -66.696678 51.067807
42.516144 -65.91301 50.742554
42.345211 -67.924675 51.282513
41.939686 -66.696678 51.067807
42.739191 -69.162613 51.509678
43.384901 -68.381981 51.212868
42.345211 -67.924675 51.282513
42.026485 -69.945678 51.771046
43.066175 -70.402985 51.701401
42.739191 -69.162613 51.509678
41.343593 -70.679241 52.080749
42.026485 -69.945678 51.771046
40.595371 -71.412082 52.342022
41.605248 -71.918892 52.224041
41.343593 -70.679241 52.080749
39.886158 -72.088432 52.668907
40.595371 -71.412082 52.342022
40.087913 -73.319996 52.744243
39.886158 -72.088432 52.668907
44.223898 -63.420454 49.848434
44.739169 -62.565195 49.549179
44.759163 -64.655586 50.111683
44.223898 -63.420454 49.848434
43.661905 -64.270575 50.139522
54.819574 -68.854946 27.662086
55.135914 -67.894252 27.458897
55.208276 -68.303115 28.747188
54.544605 -69.821125 27.817356
54.587598 -70.238033 29.121633
54.240267 -70.795349 27.988612
54.819574 -68.854946 27.662086
54.544605 -69.821125 27.817356
45.221401 -87.907296 41.320602
45.444263 -86.870884 42.62147
44.679313 -87.910115 42.487902
45.738811 -87.830849 40.104864
45.221401 -87.907296 41.320602
56.125236 -53.686957 47.752684
55.171326 -53.36665 47.897419
57.006922 -53.962615 47.480221
56.125236 -53.686957 47.752684
56.469026 -54.815426 47.363714
57.870148 -54.235161 47.160646
57.526358 -53.106691 47.549616
57.006922 -53.962615 47.480221
64.059333 -54.997742 35.771842
64.318161 -54.231499 36.781044
63.743668 -55.091423 37.101584
63.707993 -55.690489 34.755282
64.282486 -54.830564 34.434742
64.059333 -54.997742 35.771842
63.337044 -56.385673 33.782532
63.707993 -55.690489 34.755282
63.113891 -56.552851 35.119631
62.870255 -57.009251 32.81668
63.337044 -56.385673 33.782532
62.258831 -57.876239 33.210273
62.185585 -58.117004 34.512123
61.701473 -58.745209 33.575515
62.870255 -57.009251 32.81668
62.258831 -57.876239 33.210273
59.542231 -61.717807 32.507269
59.033569 -62.614244 32.867695
58.979342 -62.314947 31.583349
60.065268 -60.836019 32.134094
60.119495 -61.135317 33.41844
59.542231 -61.717807 32.507269
60.627468 -59.95014 31.749181
60.065268 -60.836019 32.134094
43.511366 -87.644661 44.630322
44.108101 -87.807225 43.595007
44.305441 -86.71114 44.824084
42.895701 -87.358497 45.607429
43.063338 -86.221386 46.74472
42.250332 -87.031307 46.492752
43.511366 -87.644661 44.630322
42.895701 -87.358497 45.607429
38.59473 -86.392098 48.022743
38.66203 -85.2934 49.093716
39.286774 -87.139374 47.306537
38.59473 -86.392098 48.022743
38.491947 -87.507148 46.860042
39.978569 -87.751323 46.590191
40.081353 -86.636272 47.752891
39.286774 -87.139374 47.306537
40.639484 -88.359024 45.784916
39.978569 -87.751323 46.590191
54.613464 -54.219521 47.752598
55.171326 -53.36665 47.897419
55.074483 -55.400123 47.60648
54.613464 -54.219521 47.752598
54.100606 -55.079876 47.722901
54.065986 -57.132358 47.646463
53.570028 -55.944296 47.677639
53.074388 -56.816175 47.747321
52.60933 -76.680488 39.16272
52.350419 -76.933696 40.489752
52.012543 -77.748768 39.357634
52.803478 -76.430748 37.845688
53.141354 -75.615677 38.977806
52.60933 -76.680488 39.16272
52.976889 -76.106278 36.486492
52.803478 -76.430748 37.845688
53.086752 -75.793053 35.141434
53.445366 -75.052712 36.315716
52.976889 -76.106278 36.486492
53.187134 -75.409904 33.774654
53.086752 -75.793053 35.141434
53.229801 -75.043991 32.424646
53.597896 -74.373573 33.620649
53.187134 -75.409904 33.774654
53.278473 -74.616272 31.066183
53.229801 -75.043991 32.424646
47.230854 -85.610279 40.1947
46.752277 -85.768872 41.464008
46.464928 -86.709473 40.184862
47.9515 -84.458905 40.168186
47.230854 -85.610279 40.1947
58.644287 -51.396925 47.830067
58.094836 -52.255448 47.722226
58.939036 -52.520716 47.337883
58.644287 -51.396925 47.830067
59.244739 -50.540973 48.015118
61.055004 -47.936816 48.327625
60.452175 -48.810396 48.268766
61.251739 -49.057693 47.714144
61.055004 -47.936816 48.327625
61.695198 -47.061963 48.395138
63.511475 -44.428957 48.188852
62.931534 -45.303701 48.322063
63.646988 -45.552742 47.591803
3 0 53 51
3 0 56 54
3 0 51 56
3 1 60 58
3 1 63 61
3 1 58 63
3 2 66 65
3 207 206 67
3 4 208 210
3 208 69 209
3 208 209 210
3 5 72 70
3 5 211 213
3 213 212 72
3 211 212 213
3 6 75 73
3 8 78 76
3 8 80 78
3 8 82 80
3 4 85 83
3 4 214 216
3 216 215 85
3 214 215 216
3 9 88 86
3 11 91 89
3 11 93 91
3 3 96 94
3 12 99 97
3 12 101 99
3 12 103 101
3 13 217 218
3 13 219 221
3 219 104 220
3 219 220 221
3 13 106 104
3 9 109 107
3 9 86 109
3 10 113 111
3 7 116 114
3 14 120 118
3 16 121 52
3 16 122 121
3 17 125 123
3 19 126 55
3 19 127 126
3 19 129 127
3 14 130 57
3 14 118 130
3 21 133 131
3 23 134 59
3 23 135 134
3 222 137 223
3 224 138 225
3 226 139 227
3 228 227 138
3 226 227 228
3 229 141 230
3 231 230 139
3 229 230 231
3 25 232 234
3 234 233 62
3 232 233 234
3 25 235 237
3 235 142 236
3 235 236 237
3 25 144 142
3 21 145 64
3 21 131 145
3 27 148 146
3 28 151 149
3 238 152 239
3 240 239 68
3 238 239 240
3 242 241 152
3 243 155 244
3 245 244 153
3 243 244 245
3 246 153 247
3 15 156 119
3 249 248 71
3 251 250 157
3 31 160 159
3 33 161 74
3 33 162 161
3 18 163 124
3 34 164 77
3 34 165 164
3 34 166 165
3 35 167 79
3 35 168 167
3 35 169 168
3 36 252 254
3 254 253 81
3 252 253 254
3 36 255 256
3 20 170 128
3 258 257 84
3 37 173 171
3 39 174 87
3 39 175 174
3 22 176 132
3 40 177 90
3 40 178 177
3 40 179 178
3 41 180 92
3 41 181 180
3 30 182 154
3 42 183 95
3 42 184 183
3 24 185 136
3 43 186 98
3 43 187 186
3 43 188 187
3 44 189 100
3 44 190 189
3 44 191 190
3 45 259 261
3 261 260 102
3 259 260 261
3 45 262 263
3 264 192 265
3 266 265 140
3 264 265 266
3 267 193 268
3 46 194 105
3 46 195 194
3 26 196 143
3 47 197 108
3 47 198 197
3 47 199 198
3 37 200 110
3 37 171 200
3 38 201 172
3 48 202 112
3 48 203 202
3 270 269 147
3 272 271 158
3 32 273 274
3 49 275 277
3 277 276 115
3 275 276 277
3 49 278 279
3 29 204 150
3 50 205 117
3 50 280 282
3 282 281 205
3 280 281 282
3 50 283 284
3 51 52 14
3 53 52 51
3 53 16 52
3 54 55 17
3 56 55 54
3 56 19 55
3 56 57 19
3 51 57 56
3 51 14 57
3 58 59 21
3 60 59 58
3 60 23 59
3 61 285 287
3 285 62 286
3 285 286 287
3 63 62 61
3 63 25 62
3 63 64 25
3 58 64 63
3 58 21 64
3 65 288 290
3 290 289 27
3 288 289 290
3 66 291 293
3 293 292 65
3 291 292 293
3 66 294 295
3 67 68 28
3 296 68 297
3 298 297 67
3 296 297 298
3 300 299 68
3 69 301 302
3 69 303 304
3 70 71 15
3 72 71 70
3 72 305 307
3 307 306 71
3 305 306 307
3 72 308 309
3 311 310 72
3 73 74 31
3 75 74 73
3 75 33 74
3 76 77 18
3 78 77 76
3 78 34 77
3 78 79 34
3 80 79 78
3 80 35 79
3 80 81 35
3 82 81 80
3 82 36 81
3 83 84 20
3 85 84 83
3 85 312 314
3 314 313 84
3 312 313 314
3 85 315 316
3 318 317 85
3 86 87 37
3 88 87 86
3 88 39 87
3 89 90 22
3 91 90 89
3 91 40 90
3 91 92 40
3 93 92 91
3 93 41 92
3 94 95 30
3 96 95 94
3 96 42 95
3 97 98 24
3 99 98 97
3 99 43 98
3 99 100 43
3 101 100 99
3 101 44 100
3 101 102 44
3 103 102 101
3 103 45 102
3 104 319 320
3 104 321 322
3 104 323 325
3 323 105 324
3 323 324 325
3 106 105 104
3 106 46 105
3 107 108 26
3 109 108 107
3 109 47 108
3 109 110 47
3 86 110 109
3 86 37 110
3 111 112 38
3 113 112 111
3 113 48 112
3 114 115 32
3 116 115 114
3 116 49 115
3 326 117 327
3 328 327 29
3 326 327 328
3 329 117 330
3 331 50 332
3 333 332 117
3 331 332 333
3 335 334 50
3 118 119 4
3 120 119 118
3 120 15 119
3 52 120 14
3 121 120 52
3 121 15 120
3 121 70 15
3 122 70 121
3 122 5 70
3 123 124 6
3 125 124 123
3 125 18 124
3 55 125 17
3 126 125 55
3 126 18 125
3 126 76 18
3 127 76 126
3 127 8 76
3 127 128 8
3 129 128 127
3 129 20 128
3 57 129 19
3 130 129 57
3 130 20 129
3 130 83 20
3 118 83 130
3 118 4 83
3 131 132 9
3 133 132 131
3 133 22 132
3 59 133 21
3 134 133 59
3 134 22 133
3 134 89 22
3 135 89 134
3 135 11 89
3 336 136 337
3 338 337 3
3 336 337 338
3 137 339 341
3 339 136 340
3 339 340 341
3 137 24 136
3 342 137 343
3 138 344 346
3 344 137 345
3 344 345 346
3 138 24 137
3 138 97 24
3 139 97 138
3 139 12 97
3 139 140 12
3 141 140 139
3 141 347 349
3 349 348 140
3 347 348 349
3 350 141 351
3 352 141 353
3 355 354 141
3 62 356 357
3 359 358 62
3 142 360 361
3 142 362 364
3 362 13 363
3 362 363 364
3 142 143 13
3 144 143 142
3 144 26 143
3 64 144 25
3 145 144 64
3 145 26 144
3 145 107 26
3 131 107 145
3 131 9 107
3 146 147 10
3 148 147 146
3 148 365 367
3 367 366 147
3 365 366 367
3 368 148 369
3 370 369 27
3 368 369 370
3 371 148 372
3 374 373 148
3 149 150 7
3 151 150 149
3 151 29 150
3 68 151 28
3 152 151 68
3 152 29 151
3 152 375 377
3 377 376 29
3 375 376 377
3 379 378 152
3 153 154 1
3 155 154 153
3 155 30 154
3 380 155 381
3 382 155 383
3 384 30 385
3 386 385 155
3 384 385 386
3 387 94 388
3 389 388 30
3 387 388 389
3 390 94 391
3 392 3 393
3 394 393 94
3 392 393 394
3 395 3 396
3 398 397 3
3 399 61 400
3 153 401 403
3 401 61 402
3 401 402 403
3 153 1 61
3 119 69 4
3 156 69 119
3 156 404 406
3 406 405 69
3 404 405 406
3 71 156 15
3 407 156 408
3 409 408 71
3 407 408 409
3 411 410 156
3 157 158 2
3 412 158 413
3 414 413 157
3 412 413 414
3 416 415 158
3 159 417 418
3 160 419 421
3 421 420 159
3 419 420 421
3 160 422 424
3 422 32 423
3 422 423 424
3 74 160 31
3 161 160 74
3 161 32 160
3 161 114 32
3 162 114 161
3 162 7 114
3 124 75 6
3 163 75 124
3 163 33 75
3 77 163 18
3 164 163 77
3 164 33 163
3 164 162 33
3 165 162 164
3 165 7 162
3 165 149 7
3 166 149 165
3 166 28 149
3 79 166 34
3 167 166 79
3 167 28 166
3 167 67 28
3 168 67 167
3 168 425 427
3 427 426 67
3 425 426 427
3 168 428 430
3 428 429 430
3 169 431 433
3 433 432 168
3 431 432 433
3 169 434 435
3 81 169 35
3 436 169 437
3 438 437 81
3 436 437 438
3 440 439 169
3 128 82 8
3 170 82 128
3 170 36 82
3 84 170 20
3 441 170 442
3 443 442 84
3 441 442 443
3 444 36 445
3 446 445 170
3 444 445 446
3 448 447 36
3 171 172 0
3 173 172 171
3 173 38 172
3 87 173 37
3 174 173 87
3 174 38 173
3 174 111 38
3 175 111 174
3 175 10 111
3 132 88 9
3 176 88 132
3 176 39 88
3 90 176 22
3 177 176 90
3 177 39 176
3 177 175 39
3 178 175 177
3 178 10 175
3 178 146 10
3 179 146 178
3 179 27 146
3 92 179 40
3 180 179 92
3 180 27 179
3 180 65 27
3 181 65 180
3 181 2 65
3 154 60 1
3 182 60 154
3 182 23 60
3 95 182 30
3 183 182 95
3 183 23 182
3 183 135 23
3 184 135 183
3 184 11 135
3 136 96 3
3 185 96 136
3 185 42 96
3 98 185 24
3 186 185 98
3 186 42 185
3 186 184 42
3 187 184 186
3 187 11 184
3 187 93 11
3 188 93 187
3 188 41 93
3 100 188 43
3 189 188 100
3 189 41 188
3 189 181 41
3 190 181 189
3 190 2 181
3 190 157 2
3 191 157 190
3 191 449 451
3 451 450 157
3 449 450 451
3 102 191 44
3 452 191 453
3 454 453 102
3 452 453 454
3 456 455 191
3 140 103 12
3 192 103 140
3 192 45 103
3 457 192 458
3 459 192 460
3 459 460 461
3 462 45 463
3 464 463 192
3 462 463 464
3 466 465 45
3 467 159 468
3 193 469 471
3 469 159 470
3 469 470 471
3 193 31 159
3 105 472 474
3 472 193 473
3 472 473 474
3 194 193 105
3 194 31 193
3 194 73 31
3 195 73 194
3 195 6 73
3 143 106 13
3 196 106 143
3 196 46 106
3 108 196 26
3 197 196 108
3 197 46 196
3 197 195 46
3 198 195 197
3 198 6 195
3 198 123 6
3 199 123 198
3 199 17 123
3 110 199 47
3 200 199 110
3 200 17 199
3 200 54 17
3 171 54 200
3 171 0 54
3 172 53 0
3 201 53 172
3 201 16 53
3 112 201 38
3 202 201 112
3 202 16 201
3 202 122 16
3 203 122 202
3 203 5 122
3 147 113 10
3 475 113 476
3 477 476 147
3 475 476 477
3 478 48 479
3 480 479 113
3 478 479 480
3 481 48 482
3 483 203 484
3 485 484 48
3 483 484 485
3 486 203 487
3 488 5 489
3 490 489 203
3 488 489 490
3 492 491 5
3 158 66 2
3 493 66 494
3 495 494 158
3 493 494 495
3 497 496 66
3 115 498 500
3 500 499 32
3 498 499 500
3 502 501 115
3 150 116 7
3 204 116 150
3 204 49 116
3 117 204 29
3 205 204 117
3 205 49 204
3 205 503 505
3 505 504 49
3 503 504 505
3 507 506 205
3 510 509 50
3 508 509 510
