ply
format ascii 1.0
element vertex 55
property float x
property float y
property float z
element face 41
property list uchar int vertex_index
end_header
-29.544294 9.298367 62.950287
-33.636559 13.261986 62.295071
-29.450125 15.704189 62.687717
-31.604462 11.2586 62.623947
-31.513439 14.445599 62.565208
-29.46702 12.467312 62.900654
-27.435631 13.795044 63.119278
-27.433546 10.551716 63.302338
-30.574378 10.278484 62.787117
-31.692138 9.715052 62.60792
-30.662054 8.734936 62.77109
-34.716082 12.689612 62.076897
-33.730452 11.699323 62.275689
-34.600178 14.274217 62.052341
-34.716082 12.689612 62.076897
-33.568573 14.87118 62.217394
-34.600178 14.274217 62.052341
-30.448287 16.699907 62.465704
-31.479944 16.070612 62.404449
-30.481782 15.074894 62.626463
-29.436924 17.339149 62.424747
-30.448287 16.699907 62.465704
-28.458391 16.38957 62.702028
-29.436924 17.339149 62.424747
-26.480853 14.532543 63.228124
-26.452114 12.875716 63.402907
-32.714404 10.69763 62.440127
-31.692138 9.715052 62.60792
-32.620511 12.260293 62.459509
-33.730452 11.699323 62.275689
-32.714404 10.69763 62.440127
-26.451071 11.254052 63.494436
-26.452114 12.875716 63.402907
-27.434589 12.17338 63.210808
-29.643486 7.768166 62.985962
-30.662054 8.734936 62.77109
-28.537685 8.341337 63.190872
-29.643486 7.768166 62.985962
-32.507013 15.462986 62.352463
-33.568573 14.87118 62.217394
-32.574999 13.853793 62.430139
-32.507013 15.462986 62.352463
-31.479944 16.070612 62.404449
-27.451144 15.434997 62.917808
-28.458391 16.38957 62.702028
-28.442878 14.749617 62.903498
-27.451144 15.434997 62.917808
-26.480853 14.532543 63.228124
-27.482311 8.968012 63.366898
-28.48892 9.925042 63.126312
-28.537685 8.341337 63.190872
-26.456948 9.619436 63.610686
-27.482311 8.968012 63.366898
-26.451071 11.254052 63.494436
-26.456948 9.619436 63.610686
3 0 8 10
3 8 3 9
3 8 9 10
3 0 5 3
3 0 7 5
3 1 11 12
3 1 13 14
3 1 15 16
3 2 17 19
3 19 18 4
3 17 18 19
3 2 20 21
3 2 22 23
3 25 24 6
3 3 26 27
3 3 28 30
3 28 1 29
3 28 29 30
3 3 4 1
3 5 4 3
3 5 2 4
3 5 6 2
3 7 6 5
3 7 31 33
3 33 32 6
3 31 32 33
3 34 0 35
3 37 36 0
3 4 38 40
3 40 39 1
3 38 39 40
3 42 41 4
3 6 43 45
3 45 44 2
3 43 44 45
3 47 46 6
3 48 7 49
3 50 49 0
3 48 49 50
3 51 7 52
3 54 53 7
