ply
format ascii 1.0
element vertex 101
property float x
property float y
property float z
element face 75
property list uchar int vertex_index
end_header
32.097145 11.566607 -49.715897
33.085651 13.797276 -40.870483
31.86293 10.649324 -44.329636
30.705776 6.854094 -46.961418
32.484642 12.293352 -42.680779
31.336624 9.636438 -50.89109
30.596498 7.195215 -49.472313
32.444725 11.948536 -52.036926
31.953182 11.067976 -47.114471
31.260468 8.839733 -45.772797
30.655851 7.320522 -50.592156
30.966561 8.415826 -50.181702
31.025914 8.541134 -51.301544
30.332304 6.066249 -49.811008
30.655851 7.320522 -50.592156
32.777174 11.997578 -53.026432
33.177177 13.004423 -52.438099
33.509626 13.053465 -53.427605
32.088542 10.893237 -52.530536
32.777174 11.997578 -53.026432
33.354339 14.498674 -39.902519
33.705854 14.476551 -41.265781
32.753818 13.938494 -39.526329
33.354339 14.498674 -39.902519
32.574424 13.059014 -40.377277
32.753818 13.938494 -39.526329
31.765105 10.576966 -42.911716
32.075961 11.39898 -42.087288
32.173786 11.471338 -43.505207
31.56184 9.625551 -43.650341
31.765105 10.576966 -42.911716
32.025163 11.317291 -48.415184
32.464382 12.135257 -47.667259
32.536364 12.384573 -48.967972
30.983122 7.846914 -46.367108
31.244238 9.043177 -47.110894
30.966892 8.050357 -47.705204
30.785715 6.722265 -45.61259
31.063061 7.715085 -45.01828
30.983122 7.846914 -46.367108
30.599915 5.656254 -46.138451
30.785715 6.722265 -45.61259
33.319895 13.899615 -42.27499
33.705854 14.476551 -41.265781
33.01939 13.147652 -43.180138
32.785146 13.045314 -41.775631
33.319895 13.899615 -42.27499
32.614311 12.471585 -44.095619
33.01939 13.147652 -43.180138
32.303455 11.64957 -44.920048
32.173786 11.471338 -43.505207
32.614311 12.471585 -44.095619
31.282316 9.441529 -49.67004
31.662577 10.406613 -49.082443
31.716884 10.601522 -50.303494
30.912253 8.220918 -48.960651
31.282316 9.441529 -49.67004
30.966561 8.415826 -50.181702
30.651137 7.024655 -48.216865
30.966892 8.050357 -47.705204
30.912253 8.220918 -48.960651
30.404418 5.9455 -48.660691
30.459057 5.77494 -47.405243
30.651137 7.024655 -48.216865
30.404418 5.9455 -48.660691
30.332304 6.066249 -49.811008
32.710012 12.653022 -50.202866
32.536364 12.384573 -48.967972
32.883803 12.843986 -51.363381
33.177177 13.004423 -52.438099
32.270935 11.757572 -50.876412
32.710012 12.653022 -50.202866
32.883803 12.843986 -51.363381
31.534492 9.737188 -51.957618
31.890674 10.792487 -51.464008
32.088542 10.893237 -52.530536
31.025914 8.541134 -51.301544
31.534492 9.737188 -51.957618
32.27392 12.307053 -41.282425
32.574424 13.059014 -40.377277
32.785146 13.045314 -41.775631
32.27392 12.307053 -41.282425
32.075961 11.39898 -42.087288
32.348581 11.858897 -46.312466
32.464382 12.135257 -47.667259
31.908056 10.85865 -45.722054
32.303455 11.64957 -44.920048
32.348581 11.858897 -46.312466
31.590595 10.157298 -47.781731
32.025163 11.317291 -48.415184
31.662577 10.406613 -49.082443
31.606825 9.953855 -46.443634
31.590595 10.157298 -47.781731
31.244238 9.043177 -47.110894
31.260609 8.720755 -44.371921
31.56184 9.625551 -43.650341
31.561699 9.744529 -45.051216
31.260609 8.720755 -44.371921
31.063061 7.715085 -45.01828
30.599915 5.656254 -46.138451
30.459057 5.77494 -47.405243
3 10 6 11
3 12 11 5
3 10 11 12
3 14 13 6
3 15 7 16
3 15 16 17
3 19 18 7
3 1 20 21
3 1 22 23
3 1 24 25
3 2 26 28
3 28 27 4
3 26 27 28
3 2 29 30
3 0 31 33
3 31 8 32
3 31 32 33
3 3 34 36
3 34 9 35
3 34 35 36
3 3 37 39
3 39 38 9
3 37 38 39
3 3 40 41
3 42 1 43
3 44 4 45
3 46 45 1
3 44 45 46
3 47 4 48
3 49 2 50
3 51 50 4
3 49 50 51
3 5 52 54
3 54 53 0
3 52 53 54
3 6 55 57
3 57 56 5
3 55 56 57
3 6 58 60
3 58 3 59
3 58 59 60
3 6 61 63
3 63 62 3
3 61 62 63
3 65 64 6
3 66 0 67
3 7 68 69
3 7 70 72
3 70 0 71
3 70 71 72
3 7 5 0
3 73 5 74
3 75 74 7
3 73 74 75
3 77 76 5
3 4 78 80
3 80 79 1
3 78 79 80
3 82 81 4
3 8 83 84
3 8 85 87
3 85 2 86
3 85 86 87
3 88 8 89
3 90 89 0
3 88 89 90
3 9 91 93
3 91 8 92
3 91 92 93
3 9 2 8
3 9 94 96
3 96 95 2
3 94 95 96
3 98 97 9
3 100 99 3
