ply
format ascii 1.0
element vertex 104
property float x
property float y
property float z
element face 83
property list uchar int vertex_index
end_header
-24.519606 51.869358 -27.092197
-27.819452 63.153751 -23.703583
-29.271122 56.145847 -24.752037
-22.81979 59.075939 -26.201847
-18.434872 54.188412 -28.870682
-25.273474 61.224766 -24.913338
-26.836994 54.09837 -25.885033
-23.206808 45.991177 -28.750748
-22.378845 49.45705 -28.313908
-31.129499 61.409161 -23.154499
-28.598066 59.622219 -24.224072
-26.099087 57.620228 -25.378078
-23.705788 55.424114 -26.618263
-21.479794 53.042248 -27.90099
-20.523521 56.727535 -27.54324
-30.380695 64.830643 -22.553387
-19.469145 50.473766 -29.145889
-25.991461 51.285339 -26.762567
-27.150155 52.399845 -26.158986
-25.6783 52.983864 -26.488615
-24.880398 50.154831 -27.348926
-25.991461 51.285339 -26.762567
-23.449225 50.663204 -27.703052
-23.810018 48.948677 -27.959782
-24.880398 50.154831 -27.348926
-31.627538 65.522476 -21.979357
-31.997082 63.888883 -22.338751
-30.746071 55.41637 -24.502716
-30.511357 57.074581 -24.231631
-22.308146 44.668063 -29.26422
-21.834708 46.42278 -29.105947
-24.824534 63.03599 -24.682761
-26.546463 62.189259 -24.30846
-26.097522 64.000483 -24.077883
-23.574784 62.000599 -25.365982
-24.824534 63.03599 -24.682761
-22.347942 60.926186 -26.010236
-24.046632 60.150352 -25.557592
-23.574784 62.000599 -25.365982
-21.170834 59.777034 -26.716476
-22.347942 60.926186 -26.010236
-28.325024 53.44056 -25.59421
-29.542088 54.464298 -25.027712
-28.054058 55.122109 -25.318535
-28.325024 53.44056 -25.59421
-27.150155 52.399845 -26.158986
-24.223999 47.21574 -28.178202
-24.529644 45.570084 -28.426617
-22.792826 47.724114 -28.532328
-24.223999 47.21574 -28.178202
-23.810018 48.948677 -27.959782
-21.420727 48.155716 -28.887528
-21.834708 46.42278 -29.105947
-22.792826 47.724114 -28.532328
-17.512014 52.823364 -29.480261
-16.941922 54.729123 -29.414177
-31.440546 59.706238 -23.432862
-32.665534 60.528725 -22.945076
-30.17483 58.812767 -23.967648
-31.440546 59.706238 -23.432862
-29.863782 60.51569 -23.689286
-28.934594 57.884033 -24.488055
-30.511357 57.074581 -24.231631
-30.17483 58.812767 -23.967648
-20.0227 58.602833 -27.387173
-21.671655 57.901737 -26.872543
-21.170834 59.777034 -26.716476
-18.945256 57.350151 -28.09086
-20.0227 58.602833 -27.387173
-17.900931 56.08059 -28.754582
-19.479197 55.457974 -28.206961
-18.945256 57.350151 -28.09086
-16.941922 54.729123 -29.414177
-17.900931 56.08059 -28.754582
-32.371483 62.178142 -22.639307
-32.665534 60.528725 -22.945076
-30.755097 63.119902 -22.853943
-32.371483 62.178142 -22.639307
-31.997082 63.888883 -22.338751
-29.951024 66.501846 -22.203936
-31.627538 65.522476 -21.979357
-28.665788 65.744934 -22.847341
-29.951024 66.501846 -22.203936
-27.385166 64.906488 -23.422439
-29.100074 63.992197 -23.128485
-28.665788 65.744934 -22.847341
-26.097522 64.000483 -24.077883
-27.385166 64.906488 -23.422439
-30.746071 55.41637 -24.502716
-29.542088 54.464298 -25.027712
-23.580946 44.321478 -28.949837
-24.529644 45.570084 -28.426617
-23.580946 44.321478 -28.949837
-22.308146 44.668063 -29.26422
-19.965877 48.664074 -29.303518
-21.420727 48.155716 -28.887528
-20.923995 49.965408 -28.729899
-18.029151 50.966042 -29.617864
-18.952008 52.331089 -29.008285
-17.512014 52.823364 -29.480261
-18.589022 49.093044 -29.699062
-18.029151 50.966042 -29.617864
-19.965877 48.664074 -29.303518
-18.589022 49.093044 -29.699062
3 0 17 19
3 19 18 6
3 17 18 19
3 0 20 21
3 0 22 24
3 22 8 23
3 22 23 24
3 1 10 9
3 3 11 5
3 3 12 11
3 3 14 12
3 25 15 26
3 2 27 28
3 30 29 7
3 4 16 13
3 31 5 32
3 33 32 1
3 31 32 33
3 34 5 35
3 36 3 37
3 38 37 5
3 36 37 38
3 40 39 3
3 6 41 43
3 43 42 2
3 41 42 43
3 45 44 6
3 46 7 47
3 8 48 50
3 48 7 49
3 48 49 50
3 8 51 53
3 53 52 7
3 51 52 53
3 55 54 4
3 9 56 57
3 10 58 60
3 60 59 9
3 58 59 60
3 10 61 63
3 61 2 62
3 61 62 63
3 5 10 1
3 11 10 5
3 11 2 10
3 11 6 2
3 12 6 11
3 12 0 6
3 12 13 0
3 14 13 12
3 14 4 13
3 64 14 65
3 66 65 3
3 64 65 66
3 67 14 68
3 69 4 70
3 71 70 14
3 69 70 71
3 73 72 4
3 74 9 75
3 15 76 78
3 76 9 77
3 76 77 78
3 15 1 9
3 79 15 80
3 81 15 82
3 83 1 84
3 85 84 15
3 83 84 85
3 87 86 1
3 89 88 2
3 7 90 91
3 93 92 7
3 13 8 0
3 16 8 13
3 16 94 96
3 96 95 8
3 94 95 96
3 97 16 98
3 99 98 4
3 97 98 99
3 100 16 101
3 103 102 16
