ply
format ascii 1.0
element vertex 165
property float x
property float y
property float z
element face 146
property list uchar int vertex_index
end_header
-54.715004 -74.522293 -20.293007
-55.633617 -62.564529 -28.156464
-55.735588 -55.8088 -32.174561
-58.142891 -73.043076 -18.183308
-58.930531 -67.907143 -22.325527
-59.356384 -62.009865 -26.611012
-55.274654 -68.886276 -24.130878
-51.555832 -69.783859 -25.767029
-54.363419 -77.036385 -18.480682
-52.921951 -75.236176 -21.277493
-57.547058 -52.24287 -33.632854
-53.821617 -55.937328 -32.621529
-59.703438 -72.241104 -16.961853
-57.600967 -59.054783 -29.53035
-59.438816 -58.8204 -28.756992
-57.5168 -62.322617 -27.436813
-57.358856 -65.457703 -25.342621
-55.483002 -65.796738 -26.131664
-53.405743 -69.320343 -24.95237
-53.597275 -66.115463 -26.869591
-57.610741 -55.68581 -31.601833
-55.719139 -59.224464 -30.179157
-53.736885 -62.792976 -28.805786
-53.813766 -59.390106 -30.732388
-56.022202 -76.181183 -17.377365
-56.468887 -73.800034 -19.279011
-60.230339 -69.863892 -19.083519
-58.585205 -70.574875 -20.228634
-56.834602 -71.215263 -21.244831
-59.18697 -65.046776 -24.459953
-57.130463 -68.429817 -23.271229
-55.017147 -71.802162 -22.178589
-53.176506 -72.370636 -23.081158
-51.350151 -72.964233 -23.989826
-51.725826 -66.472252 -27.581318
-53.680401 -76.210224 -19.922541
-53.504609 -77.46727 -19.016378
-54.539212 -75.779339 -19.386845
-53.818478 -74.879234 -20.78525
-52.783874 -76.567166 -20.414783
-53.680401 -76.210224 -19.922541
-60.41387 -71.821831 -16.276993
-59.369232 -73.335518 -15.922996
-51.880432 -57.874278 -32.081634
-52.856598 -57.776258 -31.913514
-52.845452 -56.035347 -32.78965
-57.082546 -74.61213 -17.780337
-56.805228 -75.747604 -16.784483
-57.865572 -74.178551 -17.187455
-61.218952 -68.226135 -19.545528
-60.98515 -69.475693 -18.433029
-58.757868 -69.241009 -21.277081
-59.609562 -68.934089 -20.738028
-59.782225 -67.600223 -21.786474
-60.280558 -60.243265 -27.219532
-60.321774 -58.648533 -28.292523
-59.3976 -60.415132 -27.684002
-60.236542 -61.798243 -26.125901
-60.280558 -60.243265 -27.219532
-59.271677 -63.52832 -25.535483
-60.151834 -63.316698 -25.050371
-60.236542 -61.798243 -26.125901
-50.555763 -71.703838 -25.339025
-50.452923 -73.294025 -24.450424
-51.452991 -71.374046 -24.878428
-51.783807 -64.77129 -28.492632
-52.731355 -64.632614 -28.193552
-52.789337 -62.931652 -29.104866
-53.351132 -78.693928 -18.190432
-54.155296 -78.191647 -17.606718
-53.351132 -78.693928 -18.190432
-53.504609 -77.46727 -19.016378
-51.913605 -77.014115 -20.956707
-52.783874 -76.567166 -20.414783
-52.025341 -75.606141 -21.775917
-51.913605 -77.014115 -20.956707
-57.477356 -50.493589 -34.620283
-58.370737 -50.429487 -34.320339
-56.613602 -52.292084 -33.876148
-57.477356 -50.493589 -34.620283
-55.707867 -54.075048 -33.147002
-56.641323 -54.025835 -32.903707
-56.613602 -52.292084 -33.876148
-54.750881 -54.139313 -33.370486
-54.778603 -55.873064 -32.398045
-55.707867 -54.075048 -33.147002
-53.788668 -54.195213 -33.534409
-54.750881 -54.139313 -33.370486
-52.812502 -54.293232 -33.70253
-52.845452 -56.035347 -32.78965
-53.788668 -54.195213 -33.534409
-58.645846 -73.777565 -16.576727
-59.369232 -73.335518 -15.922996
-58.923164 -72.64209 -17.572581
-57.865572 -74.178551 -17.187455
-58.645846 -73.777565 -16.576727
-59.928911 -66.219143 -22.882809
-59.782225 -67.600223 -21.786474
-58.519891 -58.937591 -29.143671
-59.437639 -57.163679 -29.818396
-58.518715 -57.28087 -30.205074
-58.450514 -52.170347 -33.299622
-58.370737 -50.429487 -34.320339
-58.482355 -53.891817 -32.284111
-58.450514 -52.170347 -33.299622
-57.578899 -53.96434 -32.617344
-58.523601 -55.596384 -31.240816
-58.482355 -53.891817 -32.284111
-57.605854 -57.370296 -30.566091
-58.518715 -57.28087 -30.205074
-58.523601 -55.596384 -31.240816
-52.827777 -61.230217 -30.068167
-52.789337 -62.931652 -29.104866
-53.775326 -61.091541 -29.769087
-52.852672 -59.502648 -30.968943
-53.817692 -57.663717 -31.676959
-52.856598 -57.776258 -31.913514
-52.827777 -61.230217 -30.068167
-52.852672 -59.502648 -30.968943
-55.749531 -77.273972 -16.453037
-56.805228 -75.747604 -16.784483
-54.984688 -77.764046 -17.055059
-55.749531 -77.273972 -16.453037
-55.192811 -76.608784 -17.929023
-54.155296 -78.191647 -17.606718
-54.984688 -77.764046 -17.055059
-60.721699 -70.664299 -17.372196
-60.41387 -71.821831 -16.276993
-59.966888 -71.052498 -18.022686
-60.721699 -70.664299 -17.372196
-60.98515 -69.475693 -18.433029
-60.432129 -68.578598 -20.16547
-61.218952 -68.226135 -19.545528
-59.407772 -70.219384 -19.656076
-60.432129 -68.578598 -20.16547
-59.609562 -68.934089 -20.738028
-60.316866 -57.022619 -29.371193
-59.437639 -57.163679 -29.818396
-60.316866 -57.022619 -29.371193
-60.321774 -58.648533 -28.292523
-60.057131 -64.78896 -23.950021
-60.151834 -63.316698 -25.050371
-59.058751 -66.476959 -23.39274
-59.928911 -66.219143 -22.882809
-60.057131 -64.78896 -23.950021
-52.152619 -74.173371 -22.67775
-52.025341 -75.606141 -21.775917
-53.049228 -73.803406 -22.179325
-51.239441 -74.470169 -23.132084
-52.152619 -74.173371 -22.67775
-52.263329 -72.667434 -23.535492
-50.354671 -74.869442 -23.643369
-51.239441 -74.470169 -23.132084
-50.354671 -74.869442 -23.643369
-50.452923 -73.294025 -24.450424
-50.797854 -66.695835 -27.921658
-51.783807 -64.77129 -28.492632
-50.855835 -64.994873 -28.832971
-50.730097 -68.398441 -27.078076
-50.797854 -66.695835 -27.921658
-50.6451 -70.054245 -26.170931
-51.640829 -68.128056 -26.674174
-50.730097 -68.398441 -27.078076
-50.555763 -71.703838 -25.339025
-50.6451 -70.054245 -26.170931
3 0 35 37
3 37 36 8
3 35 36 37
3 0 38 40
3 38 9 39
3 38 39 40
3 41 12 42
3 1 15 13
3 1 17 15
3 1 19 17
3 2 20 10
3 2 21 20
3 2 23 21
3 45 44 11
3 43 44 45
3 3 46 48
3 46 24 47
3 46 47 48
3 3 25 24
3 49 26 50
3 4 51 53
3 51 27 52
3 51 52 53
3 4 28 27
3 5 54 56
3 56 55 14
3 54 55 56
3 5 57 58
3 5 59 61
3 59 29 60
3 59 60 61
3 6 30 16
3 6 31 30
3 6 32 31
3 7 33 18
3 7 62 64
3 64 63 33
3 62 63 64
3 65 34 66
3 67 66 22
3 65 66 67
3 8 68 69
3 71 70 8
3 9 72 73
3 9 74 75
3 76 10 77
3 78 10 79
3 80 2 81
3 82 81 10
3 80 81 82
3 83 11 84
3 85 84 2
3 83 84 85
3 86 11 87
3 90 89 11
3 88 89 90
3 12 91 92
3 12 93 95
3 93 3 94
3 93 94 95
3 96 4 97
3 13 98 100
3 98 14 99
3 98 99 100
3 15 14 13
3 15 5 14
3 15 16 5
3 17 16 15
3 17 6 16
3 17 18 6
3 19 18 17
3 19 7 18
3 10 101 102
3 20 103 105
3 105 104 10
3 103 104 105
3 20 106 107
3 20 108 110
3 108 13 109
3 108 109 110
3 21 13 20
3 21 1 13
3 21 22 1
3 23 22 21
3 23 111 113
3 113 112 22
3 111 112 113
3 11 23 2
3 114 23 115
3 116 115 11
3 114 115 116
3 118 117 23
3 24 119 120
3 24 121 122
3 24 123 125
3 123 8 124
3 123 124 125
3 25 8 24
3 25 0 8
3 126 12 127
3 26 128 130
3 128 12 129
3 128 129 130
3 26 3 12
3 131 26 132
3 27 133 135
3 133 26 134
3 133 134 135
3 27 3 26
3 27 25 3
3 28 25 27
3 28 0 25
3 14 136 137
3 139 138 14
3 29 140 141
3 29 142 144
3 142 4 143
3 142 143 144
3 16 29 5
3 30 29 16
3 30 4 29
3 30 28 4
3 31 28 30
3 31 0 28
3 31 9 0
3 32 9 31
3 32 145 147
3 147 146 9
3 145 146 147
3 18 32 6
3 33 32 18
3 33 148 150
3 150 149 32
3 148 149 150
3 33 151 152
3 154 153 33
3 22 19 1
3 34 19 22
3 34 7 19
3 155 34 156
3 155 156 157
3 158 34 159
3 160 7 161
3 162 161 34
3 160 161 162
3 164 163 7
