ply
format ascii 1.0
element vertex 370
property float x
property float y
property float z
element face 418
property list uchar int vertex_index
end_header
23.878307 -120.099564 -18.598379
31.754402 -117.302307 -12.993803
19.689968 -125.673592 -10.244291
37.286423 -109.558365 -19.439089
29.15435 -109.089119 -21.946951
12.0634 -124.464005 -12.638765
15.296179 -116.884613 -18.845968
23.193382 -123.686829 -7.202225
18.086479 -126.556046 -4.725187
28.09935 -119.451736 -16.562773
34.621155 -114.148079 -16.697275
30.735184 -115.375755 -19.531878
33.378941 -109.896835 -21.43799
26.370268 -115.228088 -20.727453
10.938772 -126.227127 -7.416
7.777819 -123.529396 -7.561543
6.80835 -113.818031 -14.895702
9.712988 -118.141617 -15.938604
34.760036 -114.05014 -8.344942
28.873625 -119.27858 -8.383997
25.53923 -122.146439 -12.363556
21.661869 -123.569427 -15.095968
37.79237 -111.713867 -12.428173
40.496468 -108.090157 -15.820734
42.833805 -102.994713 -18.506525
39.719009 -103.582237 -21.374392
35.977421 -103.217445 -22.698236
14.514046 -127.277916 -6.529997
15.858909 -125.956909 -12.027773
17.478765 -123.266273 -16.374857
8.603985 -121.494148 -12.426931
13.373617 -121.355095 -16.493017
19.452917 -119.180275 -19.176508
22.014126 -113.765694 -20.699362
25.15086 -107.20359 -21.559412
26.042406 -119.975868 -17.783064
29.413708 -117.593903 -18.199469
27.294367 -117.901886 -19.207418
28.585434 -115.474236 -20.321058
25.085796 -117.83445 -19.812838
9.108477 -113.856995 -16.646059
30.341183 -117.481789 -6.086349
27.509531 -119.944664 -5.822678
21.500931 -124.871994 -8.87262
24.330112 -123.043419 -9.868494
22.54418 -124.115898 -11.503242
23.65941 -123.065605 -13.909924
20.641727 -124.783936 -12.811052
33.332348 -115.77903 -10.766094
36.302628 -113.016792 -10.468634
34.838306 -114.575241 -12.838972
35.984032 -112.037254 -18.182741
37.684788 -111.195847 -16.365778
38.989189 -108.958412 -17.814337
41.702961 -105.721817 -17.249205
40.214897 -106.353455 -19.064604
41.374252 -103.407768 -20.135889
38.529419 -106.728325 -20.491438
31.272844 -109.632668 -21.846792
34.689011 -106.688705 -22.120195
32.646519 -106.279434 -22.393538
34.013153 -102.685043 -22.881334
30.614281 -105.618637 -22.402544
11.489302 -125.512032 -10.166645
13.285423 -126.367973 -9.891291
13.934971 -125.419334 -12.46133
16.63796 -124.785934 -14.3866
14.629263 -124.128891 -14.697346
7.072973 -119.570358 -12.113071
12.325773 -117.75985 -17.553507
11.466768 -119.894211 -16.2778
14.227459 -119.288078 -17.842573
16.270092 -120.51104 -17.998701
17.312569 -118.189262 -19.087183
20.651831 -116.629791 -20.062647
18.554497 -115.541306 -19.872435
21.626804 -109.357574 -20.849157
23.377264 -105.872986 -21.204321
24.760521 -122.184448 -5.276764
22.13332 -124.105026 -4.460449
20.546299 -125.360756 -6.126436
18.82856 -126.258553 -7.50152
30.010033 -118.546646 -14.950071
33.205048 -115.894745 -14.967949
31.393827 -116.915909 -16.775961
32.760796 -114.92952 -18.321306
34.098953 -112.578529 -19.601748
35.403103 -109.873009 -20.648386
32.058529 -112.803185 -20.594412
29.914042 -112.708832 -21.178679
27.730972 -112.303078 -21.413069
9.29277 -125.061012 -7.567156
9.784971 -124.261414 -10.237341
6.124538 -115.786667 -13.457554
7.502993 -118.018394 -13.974655
8.149637 -116.114632 -15.483189
10.607601 -115.946907 -17.156713
13.452028 -115.288666 -18.498053
16.612194 -114.159225 -19.564508
34.507507 -112.945404 -3.544306
36.062103 -112.194878 -5.799032
33.212399 -114.878456 -6.071968
31.819031 -116.729012 -8.506229
30.298878 -118.413315 -10.789173
25.9832 -121.627441 -7.953793
27.278292 -120.860916 -10.500174
28.629402 -119.84845 -12.848835
26.802471 -120.960701 -14.611288
24.829285 -121.693184 -16.016394
22.740082 -122.011467 -17.032808
37.618206 -111.288727 -7.935167
39.119995 -110.160599 -9.941141
40.524986 -108.742386 -11.809208
36.297852 -113.061523 -14.707962
39.194927 -110.083984 -14.213835
41.813911 -106.980873 -13.532614
42.993271 -104.84903 -15.106447
36.671452 -106.839973 -21.504343
37.901737 -103.517792 -22.217199
16.338959 -127.128059 -5.752319
17.008331 -126.745491 -8.580624
12.692511 -126.977081 -7.078756
15.141198 -126.785767 -9.371994
17.793562 -126.043068 -11.295965
18.657953 -125.010452 -13.769768
19.585527 -123.634811 -15.909845
20.580585 -121.907143 -17.666803
8.195843 -122.669548 -10.143696
10.276794 -123.138985 -12.611786
9.076221 -119.989586 -14.365036
10.811666 -121.686455 -14.633444
12.674538 -123.080132 -14.759495
15.392361 -122.492737 -16.546045
18.405418 -121.396454 -17.965075
21.661634 -119.827263 -19.040777
22.84973 -117.402863 -20.070883
24.157272 -114.65184 -20.82416
25.579687 -111.599907 -21.381529
20.001522 -112.588814 -20.432112
23.526308 -110.61438 -21.170935
27.093134 -108.27668 -21.824926
28.658363 -104.711319 -22.228811
26.865638 -120.19299 -4.491553
28.221452 -119.01212 -4.683296
6.3928 -118.481788 -11.8949
6.259123 -119.111542 -10.841652
22.59373 -105.077523 -20.993567
21.651075 -106.853355 -20.82826
24.281684 -104.014637 -21.387953
22.59373 -105.077523 -20.993567
21.628062 -124.210594 -3.10115
22.868882 -123.328865 -3.502228
19.316389 -125.958401 -5.425812
20.114525 -125.483059 -4.762899
18.884615 -126.080704 -4.062275
8.535295 -124.295204 -7.56435
8.309094 -124.572239 -6.158083
7.551619 -123.806431 -6.155277
11.213679 -114.679523 -17.605055
9.858039 -114.901951 -16.901386
10.464116 -113.634568 -17.349728
12.635892 -114.350403 -18.275724
12.029815 -115.617786 -17.827383
11.213679 -114.679523 -17.605055
14.16068 -113.892406 -18.833534
12.635892 -114.350403 -18.275724
32.460775 -115.217731 -4.872134
33.859953 -113.91193 -4.808137
33.108329 -114.251205 -3.608303
43.461546 -102.672012 -17.518032
42.896124 -104.035564 -16.889372
42.268383 -104.358265 -17.877865
43.985571 -101.253017 -18.157231
43.461546 -102.672012 -17.518032
43.373802 -101.471104 -19.057616
43.985571 -101.253017 -18.157231
41.100759 -101.874073 -21.215474
41.928381 -101.786839 -20.596222
40.54663 -103.495002 -20.75514
40.28976 -101.874252 -21.75095
41.100759 -101.874073 -21.215474
37.533631 -101.584343 -22.766531
38.495789 -101.734516 -22.526013
36.939579 -103.367618 -22.457718
36.603892 -101.37051 -22.961432
37.533631 -101.584343 -22.766531
34.68101 -100.784412 -23.122341
33.045071 -102.303901 -22.862356
15.426502 -127.202988 -6.141158
15.186915 -127.280971 -4.694233
14.274459 -127.3559 -5.083072
11.815641 -126.602104 -7.247378
11.567423 -126.792828 -5.782672
10.690554 -126.417851 -5.951294
8.399914 -122.081848 -11.285314
7.46901 -121.72834 -10.03015
7.67308 -121.14064 -11.171767
19.085462 -111.861351 -20.252583
18.306858 -113.37402 -19.99831
17.390798 -112.646557 -19.818781
17.790944 -126.56953 -3.416608
18.884615 -126.080704 -4.062275
6.89611 -122.911518 -6.129622
7.551619 -123.806431 -6.155277
8.481827 -112.67313 -16.322015
7.958414 -113.837513 -15.770881
7.331764 -112.653648 -15.446837
9.768992 -112.556374 -17.070547
8.481827 -112.67313 -16.322015
10.464116 -113.634568 -17.349728
9.768992 -112.556374 -17.070547
29.637277 -117.780682 -4.815132
31.025168 -116.519398 -4.879325
28.925357 -118.713227 -5.954514
29.637277 -117.780682 -4.815132
28.221452 -119.01212 -4.683296
31.345634 -103.770699 -22.622961
33.045071 -102.303901 -22.862356
32.313717 -104.15184 -22.641939
13.359173 -127.261662 -5.335199
14.274459 -127.3559 -5.083072
6.907574 -120.178745 -11.014837
6.259123 -119.111542 -10.841652
7.838479 -120.532253 -12.270001
7.67308 -121.14064 -11.171767
6.907574 -120.178745 -11.014837
20.775844 -108.59565 -20.650679
19.898103 -110.245731 -20.461105
22.502034 -107.61528 -21.026739
20.775844 -108.59565 -20.650679
21.651075 -106.853355 -20.82826
25.105831 -104.71574 -21.571434
25.992629 -105.381043 -21.748979
24.264062 -106.538288 -21.381867
25.105831 -104.71574 -21.571434
24.281684 -104.014637 -21.387953
24.182483 -122.368576 -3.910385
25.491133 -121.312882 -4.218596
23.446921 -123.144737 -4.868607
24.182483 -122.368576 -3.910385
22.868882 -123.328865 -3.502228
20.908036 -124.855194 -3.929906
21.628062 -124.210594 -3.10115
21.33981 -124.732891 -5.293442
20.908036 -124.855194 -3.929906
20.114525 -125.483059 -4.762899
9.872352 -125.883846 -6.050135
10.690554 -126.417851 -5.951294
9.04935 -125.300789 -6.125713
8.065675 -124.812016 -4.716641
8.309094 -124.572239 -6.158083
10.115771 -125.64407 -7.491578
9.872352 -125.883846 -6.050135
9.04935 -125.300789 -6.125713
6.813766 -116.90253 -13.716105
6.60781 -117.705806 -12.825692
5.918582 -116.589943 -12.567141
15.740763 -113.327686 -19.366762
15.032111 -114.723946 -19.031281
14.16068 -113.892406 -18.833534
17.390798 -112.646557 -19.818781
15.740763 -113.327686 -19.366762
35.284805 -112.570141 -4.671669
36.662454 -111.242905 -4.488606
35.885156 -111.618168 -3.361243
31.776791 -116.180123 -6.079159
32.460775 -115.217731 -4.872134
31.025168 -116.519398 -4.879325
26.135026 -121.064556 -5.549721
26.865638 -120.19299 -4.491553
25.491133 -121.312882 -4.218596
5.337712 -115.380443 -12.282616
5.918582 -116.589943 -12.567141
5.54689 -114.542191 -13.126659
5.337712 -115.380443 -12.282616
5.888796 -113.557873 -13.845733
6.466444 -114.802349 -14.176628
5.54689 -114.542191 -13.126659
6.260878 -112.534458 -14.524599
5.888796 -113.557873 -13.845733
7.331764 -112.653648 -15.446837
6.260878 -112.534458 -14.524599
37.434539 -110.829281 -5.550486
36.662454 -111.242905 -4.488606
38.212591 -110.376205 -6.618553
37.434539 -110.829281 -5.550486
36.840154 -111.741803 -6.8671
38.959395 -109.876671 -7.628858
38.212591 -110.376205 -6.618553
39.710289 -109.312607 -8.631846
38.959395 -109.876671 -7.628858
38.369101 -110.724663 -8.938154
40.406511 -108.690792 -9.588224
39.710289 -109.312607 -8.631846
41.109006 -107.981685 -10.522258
40.406511 -108.690792 -9.588224
39.822491 -109.451493 -10.875174
41.741756 -107.204704 -11.422415
41.109006 -107.981685 -10.522258
42.386219 -106.323948 -12.284118
41.741756 -107.204704 -11.422415
41.169449 -107.861629 -12.670911
42.957842 -105.370205 -13.125053
42.386219 -106.323948 -12.284118
43.547522 -104.304283 -13.91197
42.957842 -105.370205 -13.125053
42.403591 -105.914952 -14.31953
44.07358 -103.167378 -14.691144
43.547522 -104.304283 -13.91197
43.541279 -103.599171 -15.817993
42.348116 -105.285424 -16.177826
42.896124 -104.035564 -16.889372
44.07358 -103.167378 -14.691144
43.541279 -103.599171 -15.817993
42.644025 -101.677632 -19.872298
43.373802 -101.471104 -19.057616
42.104028 -103.201241 -19.321207
42.644025 -101.677632 -19.872298
41.928381 -101.786839 -20.596222
39.381124 -101.842029 -22.172353
40.28976 -101.874252 -21.75095
38.810373 -103.550015 -21.795796
39.381124 -101.842029 -22.172353
38.495789 -101.734516 -22.526013
35.621758 -101.104309 -23.052981
36.603892 -101.37051 -22.961432
34.995287 -102.951244 -22.789785
35.621758 -101.104309 -23.052981
34.68101 -100.784412 -23.122341
35.118669 -111.976032 -2.252488
35.885156 -111.618168 -3.361243
33.757927 -113.265869 -2.367472
35.118669 -111.976032 -2.252488
33.108329 -114.251205 -3.608303
33.757927 -113.265869 -2.367472
16.964265 -126.875462 -3.846892
17.790944 -126.56953 -3.416608
16.090505 -127.161468 -4.360458
15.186915 -127.280971 -4.694233
17.212719 -126.842052 -5.238753
16.964265 -126.875462 -3.846892
16.090505 -127.161468 -4.360458
12.448405 -127.111244 -5.609579
11.567423 -126.792828 -5.782672
13.603279 -127.127499 -6.804377
13.359173 -127.261662 -5.335199
12.448405 -127.111244 -5.609579
7.093009 -122.609096 -7.493476
6.89611 -122.911518 -6.129622
7.302021 -122.179172 -8.784553
7.46901 -121.72834 -10.03015
7.986831 -123.099472 -8.852619
7.093009 -122.609096 -7.493476
7.302021 -122.179172 -8.784553
7.287983 -118.794376 -13.043863
6.3928 -118.481788 -11.8949
6.60781 -117.705806 -12.825692
20.814163 -110.973194 -20.640635
19.085462 -111.861351 -20.252583
19.898103 -110.245731 -20.461105
30.367676 -103.317039 -22.536095
31.345634 -103.770699 -22.622961
29.636322 -105.164978 -22.315677
27.746381 -104.134907 -22.083679
26.904612 -105.957455 -21.894112
25.992629 -105.381043 -21.748979
29.443904 -102.820275 -22.442281
27.746381 -104.134907 -22.083679
30.367676 -103.317039 -22.536095
29.443904 -102.820275 -22.442281
3 0 37 35
3 0 39 37
3 142 42 143
3 2 45 43
3 2 47 45
3 1 50 48
3 3 53 51
3 3 55 53
3 3 57 55
3 4 60 58
3 4 62 60
3 5 65 63
3 5 67 65
3 144 68 145
3 6 71 69
3 6 73 71
3 6 75 73
3 146 77 147
3 149 148 77
3 150 79 151
3 8 152 154
3 152 80 153
3 152 153 154
3 8 81 80
3 9 84 82
3 11 85 36
3 11 86 85
3 11 88 86
3 13 89 38
3 13 90 89
3 15 155 157
3 155 91 156
3 155 156 157
3 15 92 91
3 16 95 93
3 158 96 159
3 160 159 40
3 158 159 160
3 161 97 162
3 163 162 96
3 161 162 163
3 165 164 97
3 166 101 167
3 168 167 99
3 166 167 168
3 19 102 41
3 19 103 102
3 7 104 78
3 20 105 44
3 20 106 105
3 20 107 106
3 21 108 46
3 21 109 108
3 18 110 100
3 22 111 49
3 22 112 111
3 10 113 83
3 23 114 52
3 23 115 114
3 23 116 115
3 24 169 171
3 171 170 54
3 169 170 171
3 24 172 173
3 24 174 175
3 25 176 178
3 178 177 56
3 176 177 178
3 25 179 180
3 12 117 87
3 26 118 59
3 26 181 183
3 183 182 118
3 181 182 183
3 26 184 185
3 187 186 61
3 27 188 190
3 188 119 189
3 188 189 190
3 27 120 119
3 14 191 193
3 191 121 192
3 191 192 193
3 28 122 64
3 28 123 122
3 28 124 123
3 29 125 66
3 29 126 125
3 30 194 196
3 194 127 195
3 194 195 196
3 30 128 127
3 17 129 94
3 31 130 70
3 31 131 130
3 31 132 131
3 32 133 72
3 32 134 133
3 32 135 134
3 33 136 74
3 33 137 136
3 197 138 198
3 199 198 98
3 197 198 199
3 34 139 76
3 34 140 139
3 34 141 140
3 200 8 201
3 35 36 9
3 37 36 35
3 37 11 36
3 37 38 11
3 39 38 37
3 39 13 38
3 202 15 203
3 204 40 205
3 206 205 16
3 204 205 206
3 207 40 208
3 210 209 40
3 211 41 212
3 42 213 215
3 213 41 214
3 213 214 215
3 42 19 41
3 43 44 7
3 45 44 43
3 45 20 44
3 45 46 20
3 47 46 45
3 47 21 46
3 48 49 18
3 50 49 48
3 50 22 49
3 51 52 10
3 53 52 51
3 53 23 52
3 53 54 23
3 55 54 53
3 55 24 54
3 55 56 24
3 57 56 55
3 57 25 56
3 58 59 12
3 60 59 58
3 60 26 59
3 60 61 26
3 62 61 60
3 62 216 218
3 218 217 61
3 216 217 218
3 219 27 220
3 63 64 14
3 65 64 63
3 65 28 64
3 65 66 28
3 67 66 65
3 67 29 66
3 68 221 222
3 68 223 225
3 223 30 224
3 223 224 225
3 69 70 17
3 71 70 69
3 71 31 70
3 71 72 31
3 73 72 71
3 73 32 72
3 73 74 32
3 75 74 73
3 75 33 74
3 226 76 227
3 77 228 230
3 228 76 229
3 228 229 230
3 77 34 76
3 77 231 233
3 233 232 34
3 231 232 233
3 235 234 77
3 236 78 237
3 79 238 240
3 238 78 239
3 238 239 240
3 79 7 78
3 241 79 242
3 80 243 245
3 243 79 244
3 243 244 245
3 80 7 79
3 80 43 7
3 81 43 80
3 81 2 43
3 82 83 1
3 84 83 82
3 84 10 83
3 36 84 9
3 85 84 36
3 85 10 84
3 85 51 10
3 86 51 85
3 86 3 51
3 86 87 3
3 88 87 86
3 88 12 87
3 38 88 11
3 89 88 38
3 89 12 88
3 89 58 12
3 90 58 89
3 90 4 58
3 246 14 247
3 91 248 250
3 248 249 250
3 91 251 253
3 251 14 252
3 251 252 253
3 91 63 14
3 92 63 91
3 92 5 63
3 93 254 256
3 254 94 255
3 254 255 256
3 95 94 93
3 95 17 94
3 40 95 16
3 96 95 40
3 96 17 95
3 96 69 17
3 97 69 96
3 97 6 69
3 97 98 6
3 257 98 258
3 259 258 97
3 257 258 259
3 261 260 98
3 99 262 264
3 262 100 263
3 262 263 264
3 101 100 99
3 101 18 100
3 41 265 267
3 265 101 266
3 265 266 267
3 102 101 41
3 102 18 101
3 102 48 18
3 103 48 102
3 103 1 48
3 78 268 270
3 268 42 269
3 268 269 270
3 104 42 78
3 104 19 42
3 44 104 7
3 105 104 44
3 105 19 104
3 105 103 19
3 106 103 105
3 106 1 103
3 106 82 1
3 107 82 106
3 107 9 82
3 46 107 20
3 108 107 46
3 108 9 107
3 108 35 9
3 109 35 108
3 109 0 35
3 271 93 272
3 273 93 274
3 275 16 276
3 277 276 93
3 275 276 277
3 278 16 279
3 281 280 16
3 100 282 283
3 110 284 286
3 286 285 100
3 284 285 286
3 110 287 288
3 49 110 18
3 111 110 49
3 111 289 291
3 291 290 110
3 289 290 291
3 111 292 293
3 112 294 296
3 296 295 111
3 294 295 296
3 112 297 298
3 83 50 1
3 113 50 83
3 113 22 50
3 52 113 10
3 114 113 52
3 114 22 113
3 114 112 22
3 115 112 114
3 115 299 301
3 301 300 112
3 299 300 301
3 115 302 303
3 116 304 306
3 306 305 115
3 304 305 306
3 116 307 308
3 54 116 23
3 309 116 310
3 311 310 54
3 309 310 311
3 313 312 116
3 56 314 316
3 316 315 24
3 314 315 316
3 318 317 56
3 87 57 3
3 117 57 87
3 117 25 57
3 59 117 12
3 118 117 59
3 118 25 117
3 118 319 321
3 321 320 25
3 319 320 321
3 323 322 118
3 61 324 326
3 326 325 26
3 324 325 326
3 328 327 61
3 329 99 330
3 331 99 332
3 334 333 99
3 335 8 336
3 119 337 338
3 119 339 341
3 339 8 340
3 339 340 341
3 119 81 8
3 120 81 119
3 120 2 81
3 121 342 343
3 121 344 346
3 344 27 345
3 344 345 346
3 64 121 14
3 122 121 64
3 122 27 121
3 122 120 27
3 123 120 122
3 123 2 120
3 123 47 2
3 124 47 123
3 124 21 47
3 66 124 28
3 125 124 66
3 125 21 124
3 125 109 21
3 126 109 125
3 126 0 109
3 347 15 348
3 127 349 350
3 127 351 353
3 351 15 352
3 351 352 353
3 127 92 15
3 128 92 127
3 128 5 92
3 94 354 356
3 354 68 355
3 354 355 356
3 129 68 94
3 129 30 68
3 70 129 17
3 130 129 70
3 130 30 129
3 130 128 30
3 131 128 130
3 131 5 128
3 131 67 5
3 132 67 131
3 132 29 67
3 72 132 31
3 133 132 72
3 133 29 132
3 133 126 29
3 134 126 133
3 134 0 126
3 134 39 0
3 135 39 134
3 135 13 39
3 74 135 32
3 136 135 74
3 136 13 135
3 136 90 13
3 137 90 136
3 137 4 90
3 98 75 6
3 138 75 98
3 138 33 75
3 76 357 359
3 357 138 358
3 357 358 359
3 139 138 76
3 139 33 138
3 139 137 33
3 140 137 139
3 140 4 137
3 140 62 4
3 141 62 140
3 141 360 362
3 362 361 62
3 360 361 362
3 363 141 364
3 365 364 34
3 363 364 365
3 366 141 367
3 369 368 141
