ply
format ascii 1.0
element vertex 79
property float x
property float y
property float z
element face 61
property list uchar int vertex_index
end_header
59.808037 -31.161064 -42.473549
59.020771 -39.997578 -38.480423
56.22023 -37.132942 -40.025948
55.972736 -47.45813 -35.538002
58.250862 -44.435394 -36.576233
56.909691 -43.028267 -37.39917
57.663635 -38.600342 -39.334312
55.50811 -41.540237 -38.106697
59.56448 -35.563221 -40.452057
58.157646 -34.198524 -41.325928
54.040962 -39.972778 -38.691277
54.695354 -35.601044 -40.553177
55.279111 -46.716106 -35.894314
54.750013 -48.936628 -35.00634
55.747589 -44.501175 -36.824898
56.441214 -45.243198 -36.468586
55.279111 -46.716106 -35.894314
55.046799 -43.75716 -37.178661
56.2089 -42.284252 -37.752933
55.747589 -44.501175 -36.824898
59.74781 -28.992757 -43.496692
60.481278 -29.592042 -42.919941
59.063316 -30.50777 -42.912384
59.74781 -28.992757 -43.496692
59.663725 -40.656168 -37.982216
59.278771 -42.875076 -37.030121
58.635817 -42.216486 -37.528328
59.946653 -38.429125 -38.933907
59.663725 -40.656168 -37.982216
59.292625 -37.7804 -39.46624
60.218508 -36.211946 -39.919724
59.946653 -38.429125 -38.933907
56.432544 -34.957165 -41.006954
57.401252 -33.489956 -41.656944
57.188938 -35.665733 -40.675938
52.861765 -41.353361 -38.057426
53.597767 -42.187385 -37.785347
53.90611 -34.803978 -40.746914
53.608522 -36.96061 -39.858383
54.869869 -33.464863 -41.497921
53.90611 -34.803978 -40.746914
60.492693 -31.790255 -41.913936
60.481278 -29.592042 -42.919941
55.44813 -49.664793 -34.651638
54.750013 -48.936628 -35.00634
56.649843 -48.155193 -35.144623
55.44813 -49.664793 -34.651638
57.111799 -45.946762 -36.057118
57.788906 -46.643826 -35.663739
56.649843 -48.155193 -35.144623
58.900274 -45.093517 -36.114864
57.788906 -46.643826 -35.663739
58.900274 -45.093517 -36.114864
59.278771 -42.875076 -37.030121
60.370914 -33.991333 -40.903191
60.218508 -36.211946 -39.919724
59.686259 -33.362142 -41.462803
60.492693 -31.790255 -41.913936
60.370914 -33.991333 -40.903191
58.238121 -32.0265 -42.338573
59.063316 -30.50777 -42.912384
58.982841 -32.679794 -41.899738
58.238121 -32.0265 -42.338573
57.401252 -33.489956 -41.656944
54.331341 -42.971115 -37.493057
55.046799 -43.75716 -37.178661
54.774536 -40.756507 -38.398987
54.331341 -42.971115 -37.493057
53.597767 -42.187385 -37.785347
53.281326 -39.146476 -38.927433
52.861765 -41.353361 -38.057426
54.368158 -37.786911 -39.622227
53.281326 -39.146476 -38.927433
53.608522 -36.96061 -39.858383
55.670107 -34.191215 -41.270569
56.432544 -34.957165 -41.006954
55.457792 -36.366993 -40.289563
55.670107 -34.191215 -41.270569
54.869869 -33.464863 -41.497921
3 12 3 13
3 14 5 15
3 16 15 3
3 14 15 16
3 17 7 18
3 19 18 5
3 17 18 19
3 0 20 21
3 0 22 23
3 1 24 26
3 26 25 4
3 24 25 26
3 1 27 28
3 1 29 31
3 29 8 30
3 29 30 31
3 2 9 6
3 2 32 34
3 34 33 9
3 32 33 34
3 35 10 36
3 37 11 38
3 40 39 11
3 41 0 42
3 3 43 44
3 3 45 46
3 3 47 49
3 47 4 48
3 47 48 49
3 5 4 3
3 5 1 4
3 5 6 1
3 7 6 5
3 7 2 6
3 4 50 51
3 53 52 4
3 8 54 55
3 8 56 58
3 56 0 57
3 56 57 58
3 6 8 1
3 9 8 6
3 9 0 8
3 9 59 61
3 61 60 0
3 59 60 61
3 63 62 9
3 64 7 65
3 10 66 68
3 66 7 67
3 66 67 68
3 10 2 7
3 69 10 70
3 11 71 73
3 71 10 72
3 71 72 73
3 11 2 10
3 11 74 76
3 76 75 2
3 74 75 76
3 78 77 11
