ply
format ascii 1.0
element vertex 295
property float x
property float y
property float z
element face 304
property list uchar int vertex_index
end_header
0.767208 -84.198616 51.69146
5.677126 -83.504761 33.015877
6.190922 -92.704819 48.064735
3.032101 -84.853073 42.467358
3.455046 -89.749802 57.309036
3.16246 -88.664345 49.882263
4.515465 -89.032967 45.267212
1.846968 -84.883926 47.040146
1.838964 -87.464981 54.574776
4.84799 -91.639473 52.649277
6.714296 -88.088348 35.528355
0.292976 -80.204803 48.978897
4.366623 -79.048988 30.649662
7.18257 -82.447838 28.067638
7.101486 -93.031792 43.308334
5.706755 -88.778198 40.523071
4.295427 -84.340294 37.818447
1.054295 -80.548721 44.383926
1.926651 -80.36705 39.848572
2.998631 -79.839142 35.284271
5.62924 -90.735085 59.442818
6.882465 -93.431633 54.882858
8.033134 -95.461853 50.44236
1.82214 -86.506676 50.766937
2.450966 -86.855667 48.449501
1.288237 -84.644943 49.345551
0.301355 -83.527512 54.092072
0.712936 -85.133179 55.545074
1.233612 -85.93631 53.127563
2.479578 -88.178055 52.206627
6.233511 -85.778282 34.251381
7.173073 -87.617065 32.937969
6.858175 -85.277519 31.72691
3.632927 -76.832939 29.524067
5.16156 -78.57592 28.30155
7.529099 -94.698624 47.03157
6.71456 -92.952507 45.722855
3.739765 -86.989021 43.85186
5.136475 -88.969788 42.922112
4.373508 -86.834389 41.523739
4.996691 -86.569115 39.152061
3.65202 -84.644409 40.159576
0.662037 -80.45639 46.667099
2.430239 -80.139229 37.573631
1.954155 -77.820358 36.369644
2.424517 -77.551155 34.098076
2.002384 -87.654411 58.406181
2.88798 -88.497871 59.711555
4.47142 -90.423904 58.480247
6.228678 -92.159668 57.137794
5.119492 -91.65934 56.150566
5.554428 -92.271866 50.362343
6.496201 -93.566727 51.60788
7.084715 -94.229172 49.341896
4.673748 -90.711403 48.997932
5.336012 -90.953468 46.68605
3.851027 -88.940804 47.578438
3.095972 -87.006439 46.152885
2.430456 -84.942802 44.754673
1.279091 -86.520203 56.999077
2.578892 -88.749596 55.987114
4.127775 -90.799156 54.957336
3.249022 -89.623207 53.621727
3.963737 -90.274033 51.299774
7.121656 -90.421913 36.848602
0.046009 -81.731659 52.678177
0.449955 -82.280449 50.30085
-0.049398 -79.768806 51.330948
0.014959 -77.658379 50.068115
5.051495 -81.266029 31.815998
6.417688 -82.995758 30.55706
5.849586 -80.767258 29.417103
6.687803 -80.236717 26.992928
7.348665 -92.959129 40.802914
5.91964 -91.023575 44.33411
6.409452 -90.945534 41.91814
6.805901 -90.739799 39.423996
6.229452 -88.479393 38.059006
5.614471 -86.212662 36.728249
4.969105 -83.956734 35.437492
0.895855 -82.620956 47.972538
1.374441 -82.775406 45.679703
1.881891 -82.772797 43.404556
1.472715 -80.510193 42.115391
2.420465 -82.643158 41.129501
2.997723 -82.412209 38.840321
3.623901 -82.098465 36.527596
4.307615 -81.713531 34.186558
3.643108 -79.473701 32.976921
2.98237 -77.220879 31.817116
5.818323 -92.709259 53.86657
7.510372 -94.537033 52.661652
7.488762 -84.726822 29.165119
4.001145 -76.615051 28.370276
3.246752 -75.712711 28.99119
1.622299 -76.720192 36.935799
1.755024 -77.92337 37.50219
1.754322 -76.634063 35.806956
1.622299 -76.720192 36.935799
7.045374 -89.046459 34.8638
7.249054 -90.213242 35.523923
6.917976 -89.255131 36.188479
7.38277 -88.55981 32.214869
7.394787 -87.348896 31.619658
-0.202511 -79.450099 52.529861
-0.001694 -80.750232 52.004562
-0.154807 -80.431526 53.203476
0.001269 -76.346062 50.648586
-0.11998 -77.403976 51.249367
0.121121 -76.538151 49.483753
0.001269 -76.346062 50.648586
-0.154807 -80.431526 53.203476
-0.128073 -81.347572 53.893966
6.349394 -79.155601 26.462887
5.924682 -79.406318 27.647239
5.586273 -78.325203 27.117198
7.117601 -79.970714 25.770865
6.349394 -79.155601 26.462887
7.490443 -94.058617 42.730976
7.44895 -94.006462 43.975868
7.225075 -92.995461 42.055624
7.614033 -94.022286 41.478266
7.490443 -94.058617 42.730976
1.699683 -80.438622 40.981982
1.340854 -79.336712 41.506348
1.567822 -79.265141 40.372939
2.437302 -76.220592 32.40173
2.703443 -77.386017 32.957596
2.158375 -76.38573 33.542209
2.653455 -76.077973 31.271259
2.437302 -76.220592 32.40173
5.391964 -89.952633 60.61871
4.784369 -89.874145 60.150616
6.276159 -90.69717 59.796127
5.391964 -89.952633 60.61871
6.54225 -91.500648 58.653385
6.276159 -90.69717 59.796127
7.46426 -93.59692 55.258774
7.137367 -92.960938 56.386241
6.555572 -92.79565 56.010326
7.745671 -94.279831 54.167324
7.46426 -93.59692 55.258774
8.544207 -95.90036 50.864506
8.282826 -95.43795 51.974152
7.771753 -94.999443 51.552006
8.670894 -96.414704 49.77039
8.544207 -95.90036 50.864506
0.507146 -84.330345 54.818573
0.311963 -83.88018 56.048015
0.106172 -83.077347 55.321514
7.237338 -86.179123 31.014128
7.394787 -87.348896 31.619658
7.015624 -86.447292 32.332439
4.765462 -77.486542 27.759018
4.397244 -77.70443 28.912808
4.001145 -76.615051 28.370276
5.586273 -78.325203 27.117198
4.765462 -77.486542 27.759018
7.662756 -94.839878 45.837486
8.02599 -95.71188 46.441292
7.255486 -93.96682 45.183129
7.662756 -94.839878 45.837486
7.12183 -93.825565 46.377212
6.908023 -92.992149 44.515595
7.44895 -94.006462 43.975868
7.255486 -93.96682 45.183129
0.481025 -79.223716 47.203366
0.477507 -80.330596 47.822998
0.296495 -79.097923 48.359265
0.627385 -79.312607 46.053982
0.481025 -79.223716 47.203366
0.823514 -79.358772 44.912396
0.858166 -80.502555 45.525513
0.627385 -79.312607 46.053982
1.741272 -79.196716 39.241653
1.567822 -79.265141 40.372939
1.993066 -79.082806 38.104183
2.178445 -80.25314 38.711101
1.741272 -79.196716 39.241653
2.192197 -78.979793 36.971637
1.993066 -79.082806 38.104183
1.755024 -77.92337 37.50219
1.989503 -76.499462 34.671171
2.189336 -77.685756 35.23386
1.754322 -76.634063 35.806956
2.158375 -76.38573 33.542209
1.989503 -76.499462 34.671171
1.782348 -87.001548 59.639492
1.419116 -86.502712 58.941707
2.225145 -87.423279 60.292179
1.782348 -87.001548 59.639492
2.445182 -88.076141 59.058868
2.681433 -87.776973 60.932861
2.225145 -87.423279 60.292179
3.413739 -88.755539 60.284985
2.681433 -87.776973 60.932861
4.205458 -89.718555 59.669331
3.413739 -88.755539 60.284985
3.6797 -89.460887 59.095901
5.05033 -90.579494 58.961533
4.784369 -89.874145 60.150616
4.205458 -89.718555 59.669331
7.734707 -95.211556 48.763534
8.208917 -95.827896 49.313766
7.558924 -94.845513 49.892128
7.956899 -95.446281 47.608372
7.734707 -95.211556 48.763534
7.306907 -94.463898 48.186733
8.02599 -95.71188 46.441292
7.956899 -95.446281 47.608372
7.652525 -83.300572 27.323776
7.571012 -82.169014 26.81228
0.50056 -84.616215 56.782757
0.311963 -83.88018 56.048015
0.783637 -85.309727 57.509758
0.50056 -84.616215 56.782757
0.996013 -85.826691 56.272075
1.05747 -85.935608 58.238156
0.783637 -85.309727 57.509758
1.640738 -87.087307 57.702629
1.419116 -86.502712 58.941707
1.05747 -85.935608 58.238156
7.309241 -91.417946 36.17833
7.29644 -91.585388 37.52466
7.309241 -91.417946 36.17833
7.249054 -90.213242 35.523923
7.274763 -88.810817 33.568607
7.045374 -89.046459 34.8638
6.943684 -87.852706 34.233162
7.274763 -88.810817 33.568607
7.38277 -88.55981 32.214869
-0.152159 -78.45919 51.880783
-0.202511 -79.450099 52.529861
-0.017219 -78.713593 50.699531
-0.152159 -78.45919 51.880783
-0.11998 -77.403976 51.249367
0.157487 -77.824711 48.903874
0.296495 -79.097923 48.359265
0.153968 -78.931591 49.523506
0.157487 -77.824711 48.903874
0.121121 -76.538151 49.483753
-4e-04 -82.245499 54.600914
0.106172 -83.077347 55.321514
0.173682 -82.629585 53.385125
-4e-04 -82.245499 54.600914
-0.128073 -81.347572 53.893966
7.323628 -81.063454 26.274926
7.571012 -82.169014 26.81228
6.935187 -81.342277 27.530283
7.323628 -81.063454 26.274926
7.117601 -79.970714 25.770865
7.57182 -93.990551 40.177301
7.614033 -94.022286 41.478266
7.409944 -92.853996 39.501816
7.57182 -93.990551 40.177301
7.138563 -91.744331 38.812357
7.409944 -92.853996 39.501816
7.077283 -91.849464 40.113455
6.963779 -90.580856 38.136299
7.29644 -91.585388 37.52466
7.138563 -91.744331 38.812357
0.973685 -79.383186 43.773598
0.823514 -79.358772 44.912396
1.182895 -79.363922 42.63933
1.340854 -79.336712 41.506348
1.263505 -80.529457 43.249659
0.973685 -79.383186 43.773598
1.182895 -79.363922 42.63933
2.978733 -75.884003 30.124735
3.307648 -77.026909 30.670592
2.653455 -76.077973 31.271259
3.246752 -75.712711 28.99119
2.978733 -75.884003 30.124735
6.84197 -92.21294 57.500873
6.54225 -91.500648 58.653385
5.928959 -91.447376 58.290306
6.84197 -92.21294 57.500873
7.137367 -92.960938 56.386241
8.059624 -94.832531 53.056721
7.745671 -94.279831 54.167324
7.196419 -93.984333 53.772255
8.059624 -94.832531 53.056721
8.282826 -95.43795 51.974152
8.670894 -96.414704 49.77039
8.208917 -95.827896 49.313766
7.552632 -85.903774 29.733232
7.237338 -86.179123 31.014128
7.173469 -85.002171 30.446015
7.805621 -84.440064 27.872516
7.335666 -83.58733 28.616378
7.652525 -83.300572 27.323776
7.771185 -85.615555 28.401027
7.805621 -84.440064 27.872516
7.552632 -85.903774 29.733232
7.771185 -85.615555 28.401027
3 0 25 23
3 0 28 26
3 0 23 28
3 1 32 30
3 94 93 33
3 2 36 35
3 3 39 37
3 3 41 39
3 95 44 96
3 98 97 44
3 4 47 46
3 4 48 47
3 4 50 48
3 2 53 51
3 2 35 53
3 5 56 54
3 7 57 24
3 7 58 57
3 8 59 27
3 8 60 59
3 8 62 60
3 5 63 29
3 5 54 63
3 10 99 101
3 101 100 64
3 99 100 101
3 103 102 31
3 104 67 105
3 106 105 65
3 104 105 106
3 107 68 108
3 110 109 68
3 111 65 112
3 12 71 69
3 113 72 114
3 115 114 34
3 113 114 115
3 117 116 72
3 14 118 119
3 14 120 122
3 120 73 121
3 120 121 122
3 6 74 55
3 15 75 38
3 15 76 75
3 15 77 76
3 16 78 40
3 16 79 78
3 11 80 66
3 17 81 42
3 17 82 81
3 18 123 125
3 123 83 124
3 123 124 125
3 18 84 83
3 18 85 84
3 19 86 43
3 19 87 86
3 19 88 87
3 126 89 127
3 128 127 45
3 126 127 128
3 130 129 89
3 20 131 132
3 20 133 134
3 20 135 136
3 21 137 139
3 139 138 49
3 137 138 139
3 21 140 141
3 9 90 61
3 22 91 52
3 22 142 144
3 144 143 91
3 142 143 144
3 22 145 146
3 13 92 70
3 23 24 5
3 25 24 23
3 25 7 24
3 26 147 149
3 147 27 148
3 147 148 149
3 28 27 26
3 28 8 27
3 28 29 8
3 23 29 28
3 23 5 29
3 30 31 10
3 32 31 30
3 32 150 152
3 152 151 31
3 150 151 152
3 33 34 12
3 153 34 154
3 155 154 33
3 153 154 155
3 157 156 34
3 35 158 159
3 36 160 162
3 162 161 35
3 160 161 162
3 36 163 165
3 163 14 164
3 163 164 165
3 37 38 6
3 39 38 37
3 39 15 38
3 39 40 15
3 41 40 39
3 41 16 40
3 166 42 167
3 168 167 11
3 166 167 168
3 169 42 170
3 171 17 172
3 173 172 42
3 171 172 173
3 174 18 175
3 176 43 177
3 178 177 18
3 176 177 178
3 44 179 181
3 179 43 180
3 179 180 181
3 44 19 43
3 44 45 19
3 182 45 183
3 184 183 44
3 182 183 184
3 186 185 45
3 46 187 188
3 47 189 191
3 191 190 46
3 189 190 191
3 47 192 193
3 47 194 195
3 48 196 198
3 198 197 47
3 196 197 198
3 48 199 201
3 199 20 200
3 199 200 201
3 48 49 20
3 50 49 48
3 50 21 49
3 51 52 9
3 53 52 51
3 53 22 52
3 53 202 204
3 204 203 22
3 202 203 204
3 35 205 207
3 207 206 53
3 205 206 207
3 35 208 209
3 211 210 13
3 54 55 2
3 56 55 54
3 56 6 55
3 24 56 5
3 57 56 24
3 57 6 56
3 57 37 6
3 58 37 57
3 58 3 37
3 27 212 213
3 59 214 216
3 216 215 27
3 214 215 216
3 59 217 218
3 59 219 221
3 219 46 220
3 219 220 221
3 60 46 59
3 60 4 46
3 60 61 4
3 62 61 60
3 62 9 61
3 29 62 8
3 63 62 29
3 63 9 62
3 63 51 9
3 54 51 63
3 54 2 51
3 64 222 223
3 225 224 64
3 31 226 228
3 228 227 10
3 226 227 228
3 230 229 31
3 65 66 0
3 67 66 65
3 67 11 66
3 231 67 232
3 68 233 235
3 233 67 234
3 233 234 235
3 68 11 67
3 68 236 238
3 238 237 11
3 236 237 238
3 240 239 68
3 241 26 242
3 65 243 245
3 243 26 244
3 243 244 245
3 65 0 26
3 69 70 1
3 71 70 69
3 71 13 70
3 34 71 12
3 72 71 34
3 72 13 71
3 72 246 248
3 248 247 13
3 246 247 248
3 250 249 72
3 73 251 252
3 73 253 254
3 55 36 2
3 74 36 55
3 74 14 36
3 38 74 6
3 75 74 38
3 75 14 74
3 75 73 14
3 76 73 75
3 76 255 257
3 257 256 73
3 255 256 257
3 76 258 260
3 258 64 259
3 258 259 260
3 77 64 76
3 77 10 64
3 40 77 15
3 78 77 40
3 78 10 77
3 78 30 10
3 79 30 78
3 79 1 30
3 66 25 0
3 80 25 66
3 80 7 25
3 42 80 11
3 81 80 42
3 81 7 80
3 81 58 7
3 82 58 81
3 82 3 58
3 261 17 262
3 83 263 264
3 83 265 267
3 265 17 266
3 265 266 267
3 83 82 17
3 84 82 83
3 84 3 82
3 84 41 3
3 85 41 84
3 85 16 41
3 43 85 18
3 86 85 43
3 86 16 85
3 86 79 16
3 87 79 86
3 87 1 79
3 87 69 1
3 88 69 87
3 88 12 69
3 45 88 19
3 89 88 45
3 89 12 88
3 89 33 12
3 268 33 269
3 270 269 89
3 268 269 270
3 272 271 33
3 49 273 275
3 275 274 20
3 273 274 275
3 277 276 49
3 61 50 4
3 90 50 61
3 90 21 50
3 52 90 9
3 91 90 52
3 91 21 90
3 91 278 280
3 280 279 21
3 278 279 280
3 282 281 91
3 284 283 22
3 70 32 1
3 92 32 70
3 92 285 287
3 287 286 32
3 285 286 287
3 288 92 289
3 290 289 13
3 288 289 290
3 291 92 292
3 294 293 92
