ply
format ascii 1.0
element vertex 55
property float x
property float y
property float z
element face 41
property list uchar int vertex_index
end_header
45.288956 14.053318 54.865814
45.526382 11.861609 56.343613
46.849564 11.494452 54.369156
48.083511 11.062717 52.215988
44.076965 14.502029 56.822418
43.880363 16.80154 55.306915
46.384239 13.506577 52.715057
44.836189 16.159325 53.162712
47.651989 10.30793 54.094937
46.944973 10.445875 55.095848
46.902161 13.21227 51.570839
47.233875 12.284647 52.465523
47.751796 11.99034 51.321304
44.53082 17.170345 52.207459
45.267059 15.798626 52.013813
44.176786 17.582762 53.35318
44.53082 17.170345 52.207459
46.283382 10.629454 56.083076
45.522037 10.727772 56.977814
46.187973 11.678031 55.356384
46.283382 10.629454 56.083076
46.944973 10.445875 55.095848
48.938335 9.937404 51.933094
48.268963 10.092063 53.018353
48.679348 10.843 51.074791
48.938335 9.937404 51.933094
47.751796 11.99034 51.321304
48.679348 10.843 51.074791
44.799812 11.991122 57.216729
45.522037 10.727772 56.977814
44.075103 13.311332 57.456131
44.799812 11.991122 57.216729
44.801673 13.181819 56.583016
43.390083 14.65798 57.675033
44.075103 13.311332 57.456131
43.422154 15.907127 57.027702
43.390083 14.65798 57.675033
43.323853 17.056883 56.26995
43.422154 15.907127 57.027702
43.978664 15.651784 56.064667
43.273075 18.258091 55.481708
43.323853 17.056883 56.26995
47.466538 11.278585 53.292572
47.651989 10.30793 54.094937
48.268963 10.092063 53.018353
46.041084 14.472252 51.789986
46.902161 13.21227 51.570839
45.610214 14.832951 52.938885
46.041084 14.472252 51.789986
45.267059 15.798626 52.013813
43.698874 17.903869 54.425281
44.358276 16.480432 54.234814
44.176786 17.582762 53.35318
43.273075 18.258091 55.481708
43.698874 17.903869 54.425281
3 8 2 9
3 0 4 1
3 0 5 4
3 10 6 11
3 12 11 3
3 10 11 12
3 13 7 14
3 16 15 7
3 17 1 18
3 2 19 21
3 19 1 20
3 19 20 21
3 2 0 1
3 22 3 23
3 24 3 25
3 27 26 3
3 1 28 29
3 4 30 32
3 32 31 1
3 30 31 32
3 4 33 34
3 4 35 36
3 5 37 39
3 39 38 4
3 37 38 39
3 5 40 41
3 3 42 44
3 42 2 43
3 42 43 44
3 6 2 3
3 6 0 2
3 45 6 46
3 7 47 49
3 47 6 48
3 47 48 49
3 7 0 6
3 7 5 0
3 50 5 51
3 52 51 7
3 50 51 52
3 54 53 5
