ply
format ascii 1.0
element vertex 93
property float x
property float y
property float z
element face 68
property list uchar int vertex_index
end_header
12.715799 -49.002911 -4.915138
15.578838 -49.229218 -7.725309
17.727951 -49.212692 -10.762667
16.738367 -49.257549 -9.218304
18.122665 -47.488304 -9.695095
10.574085 -50.749977 -3.347015
12.022709 -50.899338 -4.599562
13.371025 -51.045437 -5.929522
14.232424 -49.137581 -6.29007
15.529999 -51.200832 -8.753807
16.341927 -51.192516 -10.226526
18.1061 -46.66225 -9.178097
17.456072 -47.47744 -8.921958
9.994538 -49.766201 -2.852301
9.862419 -50.718249 -2.774974
12.369254 -49.951124 -4.75735
11.552302 -49.88102 -4.101338
11.898848 -48.932806 -4.259126
14.905631 -49.1834 -7.007689
14.749102 -48.24942 -6.47994
15.422308 -48.295238 -7.19756
15.063025 -50.190035 -7.521704
14.389817 -50.144216 -6.804084
14.905631 -49.1834 -7.007689
15.554419 -50.215025 -8.239558
15.038605 -51.175842 -8.035953
15.063025 -50.190035 -7.521704
17.383538 -50.170696 -11.242905
16.690525 -51.160608 -10.974835
17.034939 -50.202604 -10.494597
12.230187 -48.003146 -4.402688
11.898848 -48.932806 -4.259126
16.184158 -48.347897 -7.937065
15.422308 -48.295238 -7.19756
16.763922 -48.362063 -8.683563
16.158603 -49.243384 -8.471806
16.184158 -48.347897 -7.937065
17.430516 -48.372926 -9.456699
16.763922 -48.362063 -8.683563
17.456072 -47.47744 -8.921958
10.389411 -51.647097 -3.187698
9.862419 -50.718249 -2.774974
11.03951 -51.786808 -3.782664
10.389411 -51.647097 -3.187698
10.827991 -49.806339 -3.475065
9.994538 -49.766201 -2.852301
11.298397 -50.824658 -3.973288
10.827991 -49.806339 -3.475065
11.552302 -49.88102 -4.101338
11.763822 -51.861489 -4.408938
11.03951 -51.786808 -3.782664
11.298397 -50.824658 -3.973288
12.372321 -51.97798 -5.05347
11.763822 -51.861489 -4.408938
13.046479 -52.051029 -5.71845
12.372321 -51.97798 -5.05347
12.696867 -50.972387 -5.264542
13.562385 -52.135407 -6.39107
13.046479 -52.051029 -5.71845
13.142485 -48.099016 -5.084124
12.230187 -48.003146 -4.402688
13.900797 -48.166351 -5.77159
14.749102 -48.24942 -6.47994
13.474111 -49.070246 -5.602604
13.142485 -48.099016 -5.084124
13.900797 -48.166351 -5.77159
13.959118 -51.098145 -6.62381
13.801724 -50.091509 -6.109796
14.389817 -50.144216 -6.804084
13.562385 -52.135407 -6.39107
13.959118 -51.098145 -6.62381
15.050116 -52.264544 -8.493296
15.038605 -51.175842 -8.035953
15.363408 -52.286938 -9.194062
15.050116 -52.264544 -8.493296
15.769372 -52.28278 -9.930421
15.363408 -52.286938 -9.194062
15.935963 -51.196674 -9.490167
16.021788 -52.282388 -10.635932
15.769372 -52.28278 -9.930421
16.021788 -52.282388 -10.635932
16.690525 -51.160608 -10.974835
18.854731 -46.670835 -9.973181
18.1061 -46.66225 -9.178097
18.6983 -47.450218 -10.500608
18.854731 -46.670835 -9.973181
18.500943 -48.312412 -11.034394
17.925308 -48.350498 -10.228881
18.6983 -47.450218 -10.500608
18.159343 -49.151493 -11.553928
18.500943 -48.312412 -11.034394
17.383538 -50.170696 -11.242905
18.159343 -49.151493 -11.553928
3 11 4 12
3 13 5 14
3 0 15 17
3 15 6 16
3 15 16 17
3 0 7 6
3 1 18 20
3 18 8 19
3 18 19 20
3 1 21 23
3 23 22 8
3 21 22 23
3 1 24 26
3 24 9 25
3 24 25 26
3 2 10 3
3 2 27 29
3 29 28 10
3 27 28 29
3 30 0 31
3 32 1 33
3 34 3 35
3 36 35 1
3 34 35 36
3 4 37 39
3 37 3 38
3 37 38 39
3 4 2 3
3 5 40 41
3 5 42 43
3 44 5 45
3 6 46 48
3 46 5 47
3 46 47 48
3 6 49 51
3 51 50 5
3 49 50 51
3 6 52 53
3 7 54 56
3 56 55 6
3 54 55 56
3 7 57 58
3 59 0 60
3 8 61 62
3 8 63 65
3 63 0 64
3 63 64 65
3 8 7 0
3 66 7 67
3 68 67 8
3 66 67 68
3 70 69 7
3 9 71 72
3 9 73 74
3 3 9 1
3 10 9 3
3 10 75 77
3 77 76 9
3 75 76 77
3 10 78 79
3 81 80 10
3 82 4 83
3 84 4 85
3 86 2 87
3 88 87 4
3 86 87 88
3 89 2 90
3 92 91 2
