ply
format ascii 1.0
element vertex 393
property float x
property float y
property float z
element face 394
property list uchar int vertex_index
end_header
36.002796 -6.775681 -52.556732
30.246103 -15.23662 -45.833664
29.533188 -3.07889 -51.208328
30.715204 7.445829 -51.711998
35.176552 5.436583 -57.136673
44.564934 -14.396937 -48.972588
37.36837 -20.935324 -44.3283
43.312828 -29.997295 -40.771652
29.087294 -2.649885 -48.440498
33.109623 12.046621 -54.015938
32.105373 7.158064 -55.175423
32.694553 -10.782574 -49.414574
33.619537 -17.600502 -45.568596
36.755039 -13.520237 -48.5755
40.759132 -17.216223 -46.7789
40.42691 -10.098624 -51.203629
39.751465 -33.919445 -38.76886
28.935772 -19.791952 -41.822891
29.647896 -8.987889 -48.964699
32.037003 -4.427565 -52.605583
29.780979 2.378773 -48.400047
29.883675 2.458302 -52.208878
31.803152 1.564995 -54.66008
35.402573 -0.51532 -55.617912
39.450535 2.369883 -57.568108
39.901051 -3.671761 -55.095421
31.200338 -21.889322 -42.102455
37.482269 -29.093727 -40.182076
40.611763 -25.176603 -42.562027
29.217052 -5.217478 -46.356506
29.509638 -2.646906 -46.598946
34.152336 11.747091 -55.618629
34.260761 -8.695303 -51.044472
34.674992 -12.032234 -49.142342
36.375446 -10.073765 -50.636436
38.532909 -11.693174 -49.936104
38.214085 -8.314295 -52.022812
39.040775 -38.532791 -36.971954
38.207157 -35.941933 -37.56134
29.53001 -5.991718 -50.219574
30.697948 -6.653664 -50.84668
30.544939 -3.626755 -52.086357
31.228008 9.24662 -48.44899
30.212337 4.695786 -47.849068
30.068111 4.937284 -50.149704
29.639385 2.503681 -50.459969
30.234407 5.038361 -52.154312
33.448647 6.481318 -56.348587
31.87779 4.423368 -55.125885
33.370121 3.621405 -56.053444
33.435242 0.66847 -55.329048
35.228409 2.495169 -56.597542
41.663635 3.367552 -57.976387
39.648804 -0.621851 -56.554192
42.01619 -2.573503 -56.004959
42.231697 -5.630115 -54.341637
44.377579 -4.782035 -55.150009
29.438669 -17.51667 -43.881432
29.84528 -20.716478 -42.101913
30.695805 -18.505573 -44.0298
35.522133 -19.146769 -45.045441
34.088234 -21.222385 -43.518967
35.861507 -22.953178 -42.946289
37.508732 -24.921711 -42.234833
38.977421 -27.104599 -41.441559
39.07328 -22.954849 -43.478905
42.617706 -15.655169 -47.906044
42.562679 -19.397587 -45.693481
29.055792 -2.768017 -49.986122
31.732359 9.837938 -53.024147
31.195417 7.465124 -53.624138
32.509518 9.720861 -54.802071
33.699974 9.210577 -56.201553
35.280746 8.288214 -57.214577
31.342646 -12.979372 -47.677467
31.802067 -16.298082 -45.844551
33.13953 -14.125712 -47.546677
35.109928 -15.510485 -47.123711
37.101448 -17.136417 -46.453133
39.004814 -19.001532 -45.594521
38.810307 -15.249569 -47.765343
40.634586 -13.556295 -49.001656
42.561958 -12.130429 -50.161995
40.742432 -36.469624 -38.086128
41.46492 -31.926727 -39.816208
29.125443 -14.408703 -45.512924
29.889242 -12.067581 -47.489372
30.967186 -9.768545 -49.35981
32.319477 -7.554974 -51.121017
33.90065 -5.479382 -52.759697
29.820648 -0.168812 -46.507935
29.406799 -0.076929 -48.596313
29.302952 -0.073893 -50.400085
29.651745 -0.256641 -51.884697
30.824211 4.888834 -53.821281
30.601486 2.159451 -53.615616
30.511532 -0.686279 -53.025406
31.861084 -1.388708 -53.804794
33.618916 -2.363556 -54.211876
35.669483 -3.598784 -54.246536
37.19017 6.977215 -57.842255
39.346375 5.32214 -58.091774
37.208252 4.053587 -57.540367
37.355225 1.072222 -56.760178
37.593719 -1.96629 -55.533012
37.890327 -5.083832 -53.923431
40.171398 -6.81649 -53.275002
42.423847 -8.800755 -52.351021
44.579414 -11.037175 -51.214668
29.257927 -22.908051 -40.069084
30.306589 -24.024065 -40.192635
32.308907 -19.739271 -43.89666
38.691383 -31.438667 -39.477074
40.278042 -29.460024 -40.619797
42.007309 -27.548801 -41.640709
40.76329 -21.090508 -44.617455
42.36792 -23.364998 -43.595993
29.818315 -2.650511 -45.548965
29.701002 -3.902821 -45.542705
37.523668 -36.954668 -36.857021
37.871122 -38.270698 -36.612869
29.531599 -4.535304 -50.713951
29.216563 -5.775035 -49.734623
29.218152 -4.318621 -50.229
30.655851 7.320522 -50.592156
31.025914 8.541134 -51.301544
30.391658 6.191556 -50.930851
30.332304 6.066249 -49.811008
30.655851 7.320522 -50.592156
43.115597 -2.186405 -56.290298
41.914583 -1.079524 -56.621219
44.296291 -3.290671 -55.862823
43.196884 -3.677769 -55.577484
43.115597 -2.186405 -56.290298
44.507065 -16.177088 -47.851914
43.533451 -16.806204 -47.318641
43.59132 -15.026053 -48.439316
45.480797 -15.626728 -48.344296
44.507065 -16.177088 -47.851914
43.951924 -31.216444 -40.385536
42.96188 -32.213463 -39.919712
44.275245 -29.086006 -41.239315
43.951924 -31.216444 -40.385536
28.957605 -3.985385 -48.197319
29.022483 -5.269181 -47.155323
29.152173 -3.933681 -47.398502
29.071543 -2.708951 -49.21331
28.941854 -4.04445 -48.970131
28.957605 -3.985385 -48.197319
32.777174 11.997578 -53.026432
33.509626 13.053465 -53.427605
32.420991 10.942279 -53.520043
32.088542 10.893237 -52.530536
32.777174 11.997578 -53.026432
34.637846 10.105172 -56.517853
33.926155 10.478834 -55.910091
34.864027 11.373429 -56.226391
35.428232 9.643991 -57.024365
34.49036 8.749396 -56.708065
34.637846 10.105172 -56.517853
28.845743 -14.10273 -45.194325
28.911368 -15.583596 -44.472008
29.288429 -10.184975 -47.968872
29.252294 -8.709839 -48.597977
29.768569 -10.527735 -48.227035
29.409102 -11.724821 -47.231209
29.288429 -10.184975 -47.968872
31.244238 9.043177 -47.110894
30.966892 8.050357 -47.705204
29.964171 2.291074 -47.237721
30.179851 3.44958 -46.962231
29.996658 3.537279 -48.124558
29.800813 1.10498 -47.453991
29.984006 1.017281 -46.291665
29.964171 2.291074 -47.237721
38.284575 7.60086 -57.979237
37.265226 8.394232 -57.753212
43.466657 -8.323329 -52.836399
42.327772 -7.215435 -53.346329
43.370582 -6.738009 -53.831707
44.544441 -9.441539 -52.268223
43.501631 -9.918965 -51.782845
43.466657 -8.323329 -52.836399
29.096849 -21.350001 -40.945988
28.9922 -22.474857 -39.868103
28.831122 -20.916807 -40.745007
31.454763 -23.647796 -41.08662
31.007888 -24.715168 -40.13171
30.753463 -22.956694 -41.147545
33.451296 -22.270891 -42.68945
34.290289 -23.113899 -42.470993
36.805323 -30.09815 -39.465569
36.780063 -28.015501 -40.514103
37.372383 -31.269462 -39.171422
36.805323 -30.09815 -39.465569
38.086826 -30.266197 -39.829575
37.97694 -32.441933 -38.818921
37.372383 -31.269462 -39.171422
43.291851 -22.552938 -44.093616
42.4653 -21.381293 -44.644737
43.38923 -20.569233 -45.14236
43.106043 -24.561336 -43.099694
43.291851 -22.552938 -44.093616
29.554709 -5.188107 -45.421486
29.429328 -6.475319 -45.258781
29.363345 -3.932192 -46.477726
29.554709 -5.188107 -45.421486
29.701002 -3.902821 -45.542705
33.965172 13.027434 -54.318672
33.509626 13.053465 -53.427605
34.486528 12.877669 -55.120018
33.630979 11.896856 -54.817284
33.965172 13.027434 -54.318672
35.119238 12.619849 -55.818337
34.486528 12.877669 -55.120018
34.864027 11.373429 -56.226391
35.119238 12.619849 -55.818337
38.287931 -39.566128 -36.318176
38.606138 -40.907123 -36.081668
38.623966 -37.237362 -37.266647
38.287931 -39.566128 -36.318176
37.871122 -38.270698 -36.612869
29.193351 -7.211754 -49.225414
29.216563 -5.775035 -49.734623
29.588953 -7.489803 -49.592137
29.252294 -8.709839 -48.597977
29.193351 -7.211754 -49.225414
31.282316 9.441529 -49.67004
31.662577 10.406613 -49.082443
30.912253 8.220918 -48.960651
31.282316 9.441529 -49.67004
30.966892 8.050357 -47.705204
30.912253 8.220918 -48.960651
30.404418 5.9455 -48.660691
30.459057 5.77494 -47.405243
30.140224 4.816535 -48.999386
30.404418 5.9455 -48.660691
30.332304 6.066249 -49.811008
42.863037 2.255775 -57.746193
42.815455 3.719926 -57.956909
41.738306 1.891004 -57.606933
42.863037 2.255775 -57.746193
40.631756 1.392169 -57.402794
40.557085 2.868717 -57.772248
41.738306 1.891004 -57.606933
40.730891 -0.103698 -56.895836
39.54967 0.874016 -57.06115
40.631756 1.392169 -57.402794
40.832497 -1.597677 -56.279575
40.730891 -0.103698 -56.895836
41.914583 -1.079524 -56.621219
44.443523 -6.313969 -54.235893
43.370582 -6.738009 -53.831707
43.304638 -5.206075 -54.745823
35.176926 -23.979295 -42.184654
34.290289 -23.113899 -42.470993
34.974871 -22.087781 -43.232628
35.969683 -24.945227 -41.896209
35.176926 -23.979295 -42.184654
36.793295 -25.929493 -41.540481
35.969683 -24.945227 -41.896209
36.685119 -23.937444 -42.590561
37.495501 -27.007719 -41.208455
36.780063 -28.015501 -40.514103
36.793295 -25.929493 -41.540481
43.505938 -18.677413 -46.21236
42.590193 -17.526378 -46.799762
43.533451 -16.806204 -47.318641
43.38923 -20.569233 -45.14236
43.505938 -18.677413 -46.21236
29.086131 -6.542529 -46.081513
29.429328 -6.475319 -45.258781
29.086131 -6.542529 -46.081513
29.022483 -5.269181 -47.155323
28.979454 -4.163184 -49.617897
28.941854 -4.04445 -48.970131
29.29449 -2.923453 -50.597225
29.218152 -4.318621 -50.229
28.979454 -4.163184 -49.617897
31.534492 9.737188 -51.957618
32.088542 10.893237 -52.530536
31.223782 8.641883 -52.368072
31.025914 8.541134 -51.301544
31.534492 9.737188 -51.957618
39.450882 -39.841479 -36.688533
38.606138 -40.907123 -36.081668
40.30171 -38.809895 -37.245621
39.450882 -39.841479 -36.688533
39.891604 -37.501208 -37.529041
41.245251 -37.743227 -37.766838
40.30171 -38.809895 -37.245621
41.676682 -35.449627 -38.57695
41.245251 -37.743227 -37.766838
42.037926 -33.178179 -39.44199
41.676682 -35.449627 -38.57695
41.103676 -34.198176 -38.951168
42.388874 -30.962011 -40.29393
42.96188 -32.213463 -39.919712
42.037926 -33.178179 -39.44199
28.766494 -19.441735 -41.535545
28.831122 -20.916807 -40.745007
28.816532 -18.275221 -42.626991
28.766494 -19.441735 -41.535545
29.067981 -17.13758 -43.656261
29.187221 -18.654311 -42.852161
28.816532 -18.275221 -42.626991
29.282056 -15.962687 -44.697178
29.067981 -17.13758 -43.656261
28.911368 -15.583596 -44.472008
29.027203 -12.895382 -46.242984
28.845743 -14.10273 -45.194325
29.507343 -13.238142 -46.501148
29.027203 -12.895382 -46.242984
29.409102 -11.724821 -47.231209
31.590595 10.157298 -47.781731
31.662577 10.406613 -49.082443
31.590595 10.157298 -47.781731
31.244238 9.043177 -47.110894
30.353195 4.5771 -46.582276
30.459057 5.77494 -47.405243
30.353195 4.5771 -46.582276
30.179851 3.44958 -46.962231
30.079666 -0.197759 -45.346589
29.984006 1.017281 -46.291665
29.97382 -1.411464 -45.50346
30.079666 -0.197759 -45.346589
29.665143 -1.407859 -46.553441
29.818315 -2.650511 -45.548965
29.97382 -1.411464 -45.50346
36.310514 9.049732 -57.439373
35.428232 9.643991 -57.024365
36.235458 7.632715 -57.528416
36.310514 9.049732 -57.439373
37.265226 8.394232 -57.753212
41.638651 4.831475 -58.08923
42.815455 3.719926 -57.956909
40.480021 5.808769 -58.146923
41.638651 4.831475 -58.08923
40.505005 4.344846 -58.034081
39.362677 6.773323 -58.103997
40.480021 5.808769 -58.146923
38.268273 6.149678 -57.967015
38.284575 7.60086 -57.979237
39.362677 6.773323 -58.103997
45.481674 -4.526733 -55.384213
44.296291 -3.290671 -55.862823
45.520737 -6.017224 -54.593125
45.481674 -4.526733 -55.384213
44.443523 -6.313969 -54.235893
45.520737 -6.017224 -54.593125
45.624706 -10.678209 -51.654663
44.544441 -9.441539 -52.268223
45.581204 -12.273613 -50.575539
45.624706 -10.678209 -51.654663
46.626496 -11.914647 -51.015534
45.573964 -13.953494 -49.454498
44.572174 -12.717056 -50.093628
45.581204 -12.273613 -50.575539
45.480797 -15.626728 -48.344296
45.573964 -13.953494 -49.454498
29.088532 -23.985356 -39.008373
28.9922 -22.474857 -39.868103
29.441819 -24.515921 -39.127041
29.088532 -23.985356 -39.008373
29.96615 -25.073928 -39.188817
29.441819 -24.515921 -39.127041
29.782258 -23.466058 -40.130859
30.539062 -25.741872 -39.181309
29.96615 -25.073928 -39.188817
30.539062 -25.741872 -39.181309
31.007888 -24.715168 -40.13171
32.561633 -21.529334 -42.878296
33.198571 -20.480828 -43.707814
33.451296 -22.270891 -42.68945
32.007348 -22.60436 -41.981194
31.754622 -20.814296 -42.999557
32.561633 -21.529334 -42.878296
31.454763 -23.647796 -41.08662
32.007348 -22.60436 -41.981194
37.734827 -34.693565 -37.861053
37.523668 -36.954668 -36.857021
38.44927 -33.6903 -38.519207
37.734827 -34.693565 -37.861053
37.97694 -32.441933 -38.818921
42.925737 -26.653238 -42.122051
42.187614 -25.456899 -42.618351
43.106043 -24.561336 -43.099694
43.578497 -27.877485 -41.687523
42.660069 -28.773048 -41.206181
42.925737 -26.653238 -42.122051
44.540914 -26.966196 -42.155186
44.275245 -29.086006 -41.239315
43.578497 -27.877485 -41.687523
3 117 30 118
3 0 34 32
3 0 36 34
3 119 38 120
3 2 121 123
3 121 39 122
3 121 122 123
3 2 41 39
3 3 124 125
3 3 126 128
3 126 44 127
3 126 127 128
3 3 46 44
3 4 49 47
3 4 51 49
3 129 54 130
3 131 56 132
3 133 132 54
3 131 132 133
3 1 59 57
3 6 62 60
3 6 63 62
3 6 65 63
3 5 134 136
3 136 135 66
3 134 135 136
3 5 137 138
3 7 139 140
3 7 141 142
3 8 143 145
3 145 144 29
3 143 144 145
3 8 146 148
3 146 68 147
3 146 147 148
3 9 149 150
3 9 151 153
3 151 69 152
3 151 152 153
3 9 71 69
3 154 72 155
3 156 155 31
3 154 155 156
3 157 73 158
3 159 158 72
3 157 158 159
3 11 76 74
3 13 77 33
3 13 78 77
3 13 80 78
3 15 81 35
3 15 82 81
3 16 83 37
3 16 84 83
3 160 85 161
3 18 162 163
3 18 164 166
3 164 86 165
3 164 165 166
3 18 87 86
3 19 88 40
3 19 89 88
3 168 167 42
3 20 169 171
3 171 170 43
3 169 170 171
3 20 172 174
3 172 90 173
3 172 173 174
3 20 91 90
3 21 92 45
3 21 93 92
3 10 94 70
3 22 95 48
3 22 96 95
3 22 97 96
3 23 98 50
3 23 99 98
3 175 100 176
3 24 101 52
3 24 102 101
3 24 103 102
3 25 104 53
3 25 105 104
3 25 106 105
3 177 107 178
3 179 178 55
3 177 178 179
3 180 108 181
3 182 181 107
3 180 181 182
3 17 183 185
3 183 109 184
3 183 184 185
3 26 110 58
3 26 186 188
3 188 187 110
3 186 187 188
3 12 111 75
3 190 189 61
3 27 191 192
3 27 193 194
3 27 195 197
3 195 112 196
3 195 196 197
3 28 113 64
3 28 114 113
3 14 115 79
3 198 116 199
3 200 199 67
3 198 199 200
3 202 201 116
3 203 29 204
3 30 205 207
3 205 29 206
3 205 206 207
3 30 8 29
3 208 9 209
3 210 31 211
3 212 211 9
3 210 211 212
3 213 31 214
3 216 215 31
3 32 33 11
3 34 33 32
3 34 13 33
3 34 35 13
3 36 35 34
3 36 15 35
3 217 37 218
3 38 219 221
3 219 37 220
3 219 220 221
3 38 16 37
3 39 222 223
3 39 224 226
3 224 18 225
3 224 225 226
3 39 40 18
3 41 40 39
3 41 19 40
3 227 42 228
3 229 42 230
3 232 231 42
3 233 43 234
3 44 235 237
3 235 43 236
3 235 236 237
3 44 20 43
3 44 45 20
3 46 45 44
3 46 21 45
3 47 48 10
3 49 48 47
3 49 22 48
3 49 50 22
3 51 50 49
3 51 23 50
3 238 52 239
3 240 52 241
3 242 24 243
3 244 243 52
3 242 243 244
3 245 53 246
3 247 246 24
3 245 246 247
3 54 248 250
3 248 53 249
3 248 249 250
3 54 25 53
3 54 55 25
3 56 55 54
3 56 251 253
3 253 252 55
3 251 252 253
3 57 58 17
3 59 58 57
3 59 26 58
3 60 61 12
3 62 61 60
3 62 254 256
3 256 255 61
3 254 255 256
3 62 257 258
3 63 259 261
3 261 260 62
3 259 260 261
3 63 262 264
3 262 27 263
3 262 263 264
3 63 64 27
3 65 64 63
3 65 28 64
3 66 67 14
3 265 67 266
3 267 266 66
3 265 266 267
3 269 268 67
3 29 270 271
3 273 272 29
3 68 274 275
3 68 276 278
3 276 2 277
3 276 277 278
3 69 279 280
3 69 281 283
3 281 3 282
3 281 282 283
3 69 70 3
3 71 70 69
3 71 10 70
3 31 71 9
3 72 71 31
3 72 10 71
3 72 47 10
3 73 47 72
3 73 4 47
3 74 75 1
3 76 75 74
3 76 12 75
3 33 76 11
3 77 76 33
3 77 12 76
3 77 60 12
3 78 60 77
3 78 6 60
3 78 79 6
3 80 79 78
3 80 14 79
3 35 80 13
3 81 80 35
3 81 14 80
3 81 66 14
3 82 66 81
3 82 5 66
3 37 284 285
3 83 286 288
3 288 287 37
3 286 287 288
3 83 289 290
3 83 291 292
3 84 293 295
3 295 294 83
3 293 294 295
3 84 296 298
3 296 7 297
3 296 297 298
3 299 17 300
3 301 17 302
3 303 57 304
3 305 304 17
3 303 304 305
3 85 306 308
3 306 57 307
3 306 307 308
3 85 1 57
3 309 85 310
3 86 311 313
3 311 85 312
3 311 312 313
3 86 1 85
3 86 74 1
3 87 74 86
3 87 11 74
3 40 87 18
3 88 87 40
3 88 11 87
3 88 32 11
3 89 32 88
3 89 0 32
3 42 314 315
3 317 316 42
3 43 318 319
3 321 320 43
3 90 322 323
3 90 324 325
3 90 326 328
3 326 30 327
3 326 327 328
3 91 30 90
3 91 8 30
3 45 91 20
3 92 91 45
3 92 8 91
3 92 68 8
3 93 68 92
3 93 2 68
3 70 46 3
3 94 46 70
3 94 21 46
3 48 94 10
3 95 94 48
3 95 21 94
3 95 93 21
3 96 93 95
3 96 2 93
3 96 41 2
3 97 41 96
3 97 19 41
3 50 97 22
3 98 97 50
3 98 19 97
3 98 89 19
3 99 89 98
3 99 0 89
3 329 73 330
3 100 331 333
3 331 73 332
3 331 332 333
3 100 4 73
3 52 334 335
3 101 336 338
3 338 337 52
3 336 337 338
3 101 339 340
3 101 341 343
3 341 100 342
3 341 342 343
3 102 100 101
3 102 4 100
3 102 51 4
3 103 51 102
3 103 23 51
3 53 103 24
3 104 103 53
3 104 23 103
3 104 99 23
3 105 99 104
3 105 0 99
3 105 36 0
3 106 36 105
3 106 15 36
3 55 106 25
3 107 106 55
3 107 15 106
3 107 82 15
3 108 82 107
3 108 5 82
3 344 56 345
3 346 56 347
3 349 348 56
3 350 108 351
3 352 108 353
3 352 353 354
3 355 5 356
3 357 356 108
3 355 356 357
3 359 358 5
3 109 360 361
3 109 362 363
3 58 109 17
3 110 109 58
3 110 364 366
3 366 365 109
3 364 365 366
3 110 367 368
3 370 369 110
3 75 59 1
3 111 59 75
3 111 26 59
3 61 111 12
3 371 111 372
3 373 372 61
3 371 372 373
3 374 26 375
3 376 375 111
3 374 375 376
3 378 377 26
3 379 38 380
3 112 381 383
3 381 38 382
3 381 382 383
3 112 16 38
3 64 112 27
3 113 112 64
3 113 16 112
3 113 84 16
3 114 84 113
3 114 7 84
3 79 65 6
3 115 65 79
3 115 28 65
3 67 115 14
3 116 115 67
3 116 28 115
3 116 114 28
3 384 114 385
3 386 385 116
3 384 385 386
3 387 7 388
3 389 388 114
3 387 388 389
3 392 391 7
3 390 391 392
