ply
format ascii 1.0
element vertex 149
property float x
property float y
property float z
element face 134
property list uchar int vertex_index
end_header
66.415741 -9.123349 -37.322098
66.776787 -12.644592 -32.755951
64.5354 -9.757874 -30.280653
64.86628 -5.568439 -35.109871
63.918472 -1.88969 -39.938835
64.561813 -6.27311 -41.986435
68.426849 -16.695812 -34.375946
66.97744 -14.026842 -38.802094
66.783615 -10.807759 -35.024651
65.838348 -9.075702 -33.991852
65.713364 -7.188378 -36.340385
64.576439 -3.64617 -37.526466
65.214218 -5.460441 -38.701408
64.331848 -3.91384 -41.070183
65.667274 -7.610375 -39.645424
68.633995 -18.249666 -32.239899
65.813301 -12.89614 -41.075996
66.430977 -14.600533 -30.514872
65.153175 -13.180582 -29.338354
65.629303 -11.087871 -31.657747
64.829781 -7.620414 -32.693352
63.876823 -2.13674 -36.057976
63.395767 -0.195572 -38.530975
63.088463 -2.557596 -43.437157
67.220284 -18.148849 -29.316637
67.662796 -16.266947 -31.459139
67.763847 -14.496752 -33.638641
67.494293 -12.870119 -35.86013
66.854019 -11.40379 -38.123299
67.864204 -15.288528 -36.564499
67.863548 -18.051613 -37.184883
65.869614 -10.098787 -40.421867
64.586639 -8.943423 -42.740913
64.454064 -4.890629 -34.34082
64.435814 -5.916616 -33.132561
64.84803 -6.594426 -33.901612
64.371552 -3.852589 -35.583923
63.959335 -3.174779 -34.814873
64.454064 -4.890629 -34.34082
63.238214 -0.158512 -40.461536
62.976862 0.688547 -39.757606
63.65712 -1.042631 -39.234905
63.400447 -1.10716 -41.139705
63.238214 -0.158512 -40.461536
63.853466 -5.688963 -43.157688
63.116791 -3.831206 -43.883049
63.825138 -4.415353 -42.711796
67.849106 -19.042165 -29.73488
67.600007 -19.93656 -28.711657
68.070362 -18.101214 -30.806131
67.44154 -17.207898 -30.387888
67.849106 -19.042165 -29.73488
68.192955 -20.108103 -36.402451
68.272487 -18.655384 -36.105252
67.692321 -19.581983 -37.461392
68.192955 -20.108103 -36.402451
64.3023 -10.84551 -29.078282
64.611187 -12.556864 -28.607132
64.844288 -11.469228 -29.809503
64.505203 -10.408549 -43.050872
65.19997 -10.919781 -41.908455
65.118534 -12.384908 -42.218414
63.823162 -8.431325 -43.897026
64.505203 -10.408549 -43.050872
69.006637 -20.153731 -31.557216
68.555961 -19.092574 -31.196511
68.916615 -19.421664 -32.581093
69.006637 -20.153731 -31.557216
68.813041 -18.644737 -33.649116
68.530422 -17.472739 -33.307923
68.916615 -19.421664 -32.581093
68.554138 -17.977483 -34.700783
68.813041 -18.644737 -33.649116
64.122185 -9.174488 -29.433739
64.246669 -8.068786 -30.679737
66.304337 -14.925672 -40.233425
66.39537 -13.461491 -39.939045
66.886406 -15.491023 -39.096474
65.670562 -14.420742 -41.348751
66.304337 -14.925672 -40.233425
65.118534 -12.384908 -42.218414
65.670562 -14.420742 -41.348751
65.792076 -13.890557 -29.926613
65.481079 -14.90616 -28.817957
66.11998 -15.616135 -29.406216
64.39386 -7.000056 -31.886086
64.246669 -8.068786 -30.679737
64.682591 -8.689144 -31.487002
64.39386 -7.000056 -31.886086
64.435814 -5.916616 -33.132561
63.571915 -1.513215 -35.156475
63.959335 -3.174779 -34.814873
63.378456 -0.471018 -36.428055
63.073548 0.152507 -35.526554
63.571915 -1.513215 -35.156475
63.137928 0.499566 -37.664554
63.378456 -0.471018 -36.428055
63.636295 -1.166156 -37.294475
62.792665 1.470943 -38.923969
63.137928 0.499566 -37.664554
62.792665 1.470943 -38.923969
62.976862 0.688547 -39.757606
63.607135 -2.119235 -41.705379
63.400447 -1.10716 -41.139705
64.12516 -2.901765 -40.504509
62.985443 -1.441113 -42.888866
63.607135 -2.119235 -41.705379
63.710155 -3.235718 -42.25367
62.289383 -0.761742 -44.078819
62.985443 -1.441113 -42.888866
62.309506 -1.97455 -44.611008
62.289383 -0.761742 -44.078819
62.337834 -3.24816 -45.0569
62.309506 -1.97455 -44.611008
63.116791 -3.831206 -43.883049
66.856511 -19.124659 -28.259741
67.236233 -20.91237 -27.654761
67.600007 -19.93656 -28.711657
66.514634 -17.390293 -28.807099
66.856511 -19.124659 -28.259741
66.825631 -16.374691 -29.915754
66.11998 -15.616135 -29.406216
66.514634 -17.390293 -28.807099
68.148395 -17.258306 -31.849519
68.070362 -18.101214 -30.806131
68.555961 -19.092574 -31.196511
68.272816 -17.273841 -35.79506
68.145527 -15.99217 -35.470222
68.554138 -17.977483 -34.700783
67.863876 -16.670071 -36.874691
68.272816 -17.273841 -35.79506
68.272487 -18.655384 -36.105252
67.32946 -17.503408 -38.287869
66.886406 -15.491023 -39.096474
67.420494 -16.039227 -37.993488
67.32946 -17.503408 -38.287869
67.692321 -19.581983 -37.461392
64.824448 -14.24295 -28.185917
65.481079 -14.90616 -28.817957
64.824448 -14.24295 -28.185917
64.611187 -12.556864 -28.607132
63.889084 -10.262124 -28.231367
64.3023 -10.84551 -29.078282
64.122185 -9.174488 -29.433739
63.865879 -7.024119 -43.534927
63.853466 -5.688963 -43.157688
64.574226 -7.608266 -42.363674
63.865879 -7.024119 -43.534927
63.823162 -8.431325 -43.897026
3 0 10 8
3 0 12 10
3 0 14 12
3 1 19 17
3 3 20 9
3 3 33 35
3 35 34 20
3 33 34 35
3 3 36 38
3 36 21 37
3 36 37 38
3 4 22 11
3 4 39 41
3 41 40 22
3 39 40 41
3 4 42 43
3 5 23 13
3 5 44 46
3 46 45 23
3 44 45 46
3 47 24 48
3 49 25 50
3 51 50 24
3 49 50 51
3 6 26 15
3 6 27 26
3 6 29 27
3 52 30 53
3 55 54 30
3 2 56 58
3 58 57 18
3 56 57 58
3 7 31 28
3 59 32 60
3 61 60 16
3 59 60 61
3 63 62 32
3 8 9 1
3 10 9 8
3 10 3 9
3 10 11 3
3 12 11 10
3 12 4 11
3 12 13 4
3 14 13 12
3 14 5 13
3 64 15 65
3 66 15 67
3 68 6 69
3 70 69 15
3 68 69 70
3 72 71 6
3 74 73 2
3 75 16 76
3 77 76 7
3 75 76 77
3 78 16 79
3 81 80 16
3 17 82 84
3 82 18 83
3 82 83 84
3 19 18 17
3 19 2 18
3 9 19 1
3 20 19 9
3 20 2 19
3 20 85 87
3 87 86 2
3 85 86 87
3 89 88 20
3 21 90 91
3 21 92 94
3 92 93 94
3 11 21 3
3 22 21 11
3 22 95 97
3 97 96 21
3 95 96 97
3 22 98 99
3 101 100 22
3 13 102 104
3 104 103 4
3 102 103 104
3 23 105 107
3 107 106 13
3 105 106 107
3 23 108 109
3 23 110 111
3 114 113 23
3 112 113 114
3 24 115 117
3 115 116 117
3 24 118 119
3 24 120 122
3 120 17 121
3 120 121 122
3 25 17 24
3 25 1 17
3 15 123 125
3 123 25 124
3 123 124 125
3 26 25 15
3 26 1 25
3 26 8 1
3 27 8 26
3 27 0 8
3 27 28 0
3 29 28 27
3 29 7 28
3 126 29 127
3 128 127 6
3 126 127 128
3 30 129 131
3 129 29 130
3 129 130 131
3 30 7 29
3 30 132 134
3 134 133 7
3 132 133 134
3 136 135 30
3 18 137 138
3 140 139 18
3 143 142 2
3 141 142 143
3 28 14 0
3 31 14 28
3 31 5 14
3 16 31 7
3 32 31 16
3 32 5 31
3 32 144 146
3 146 145 5
3 144 145 146
3 148 147 32
