ply
format ascii 1.0
element vertex 219
property float x
property float y
property float z
element face 213
property list uchar int vertex_index
end_header
-29.314949 -99.270218 -23.590366
-19.21566 -99.265472 -19.868938
-7.141888 -108.973022 -16.60247
-30.196171 -92.376205 -23.739368
-11.142803 -111.447418 -18.926533
-21.397661 -91.41449 -19.633263
-15.198649 -97.188705 -18.042255
-17.373596 -106.372803 -20.4151
-23.998787 -99.972107 -21.822338
-25.467003 -92.60788 -21.659409
-3.154388 -111.627335 -13.438799
-4.250193 -105.349838 -13.816481
-12.791567 -104.769394 -18.486515
-9.127411 -101.906906 -16.382601
-13.533398 -112.173813 -19.970844
-19.63727 -90.33577 -18.724461
-23.328394 -103.365005 -22.025124
-26.617411 -99.785416 -22.771935
-30.599514 -88.680603 -23.934612
-27.767258 -92.66684 -22.728737
-28.321335 -88.862732 -22.853325
-6.537622 -112.117386 -16.591095
-4.519409 -113.441315 -14.992012
-4.902239 -110.509048 -15.206108
-3.567169 -108.630142 -13.693396
-5.55283 -107.28653 -15.270863
-18.232784 -102.927246 -20.118542
-14.971439 -105.745407 -19.457043
-15.970545 -102.167236 -19.17775
-13.480274 -95.733948 -17.126724
-12.081499 -99.690979 -17.281425
-10.454199 -98.061172 -16.254356
-7.649706 -100.10199 -15.190378
-32.355057 -95.214966 -24.352226
-29.757231 -95.914383 -23.629997
-32.686714 -91.775452 -24.585583
-9.008095 -110.371582 -17.812889
-20.282694 -95.416443 -19.699833
-17.108294 -98.38208 -18.944016
-18.343372 -94.425339 -18.786545
-16.584877 -93.151459 -17.910057
-16.674129 -109.580673 -20.713181
-19.978065 -106.636169 -21.362564
-20.694675 -103.3284 -21.076805
-21.518559 -99.801208 -20.834606
-27.189583 -96.316467 -22.707329
-24.723492 -96.378326 -21.69175
-22.411617 -96.077179 -20.671844
-23.338509 -92.185349 -20.613052
-32.017845 -98.470123 -24.171772
-2.54488 -106.518799 -12.078163
-3.248074 -103.199509 -12.271782
-14.149647 -109.087784 -19.739288
-11.85548 -108.236359 -18.731113
-9.806774 -107.048523 -17.667385
-13.919641 -101.074829 -18.24361
-10.842545 -103.476364 -17.473969
-8.011387 -105.558121 -16.514189
-6.475243 -103.803986 -15.247139
-5.207424 -101.823654 -13.869493
-14.846114 -112.355423 -20.463052
-13.333137 -113.582664 -20.029686
-27.96618 -99.527817 -23.181151
-26.35222 -101.419136 -22.834043
-27.700989 -101.161537 -23.243259
-29.634557 -86.859108 -23.539629
-29.460425 -88.771668 -23.393968
-30.773646 -86.768044 -24.080272
-28.578692 -86.897751 -22.972292
-29.634557 -86.859108 -23.539629
-11.2 -96.063072 -16.208781
-11.967236 -96.89756 -16.69054
-12.713037 -94.89946 -16.644965
-9.746529 -97.14331 -15.699379
-11.2 -96.063072 -16.208781
-33.922999 -91.348145 -24.873072
-32.520886 -93.495209 -24.468905
-33.75717 -93.067902 -24.756394
-9.802993 -112.433258 -18.38991
-10.90504 -112.915672 -18.970042
-10.075449 -110.9095 -18.369711
-8.73564 -111.89534 -17.833088
-9.802993 -112.433258 -18.38991
-17.310334 -91.077538 -17.886831
-18.111073 -91.743615 -18.317259
-18.836531 -89.669693 -18.294033
-15.788334 -92.399628 -17.472225
-17.310334 -91.077538 -17.886831
-21.363552 -106.587844 -21.812483
-19.689917 -108.172707 -21.502945
-33.334124 -97.952522 -24.297238
-31.864805 -99.996254 -24.095719
-34.777691 -95.853546 -24.597412
-33.461413 -96.371147 -24.471947
-33.334124 -97.952522 -24.297238
-3.067455 -112.972725 -13.215517
-3.749966 -113.879715 -13.992124
-3.836898 -112.534325 -14.215405
-2.532993 -111.967346 -12.374948
-3.067455 -112.972725 -13.215517
-2.632243 -110.596199 -12.608792
-2.532993 -111.967346 -12.374948
-5.813018 -99.959938 -13.887662
-6.428565 -100.962822 -14.529936
-7.034159 -99.099106 -14.548104
-4.715799 -100.736702 -13.144753
-5.813018 -99.959938 -13.887662
-12.100337 -113.278869 -19.492197
-13.333137 -113.582664 -20.029686
-12.3381 -111.810615 -19.448688
-10.90504 -112.915672 -18.970042
-12.100337 -113.278869 -19.492197
-21.084336 -88.81588 -19.202736
-20.517466 -90.87513 -19.178862
-21.964532 -89.35524 -19.657137
-20.296712 -88.24347 -18.74605
-21.084336 -88.81588 -19.202736
-18.836531 -89.669693 -18.294033
-20.296712 -88.24347 -18.74605
-24.707712 -103.208931 -22.460638
-23.038716 -104.952262 -22.143763
-24.972903 -101.57521 -22.39853
-24.707712 -103.208931 -22.460638
-26.35222 -101.419136 -22.834043
-27.261745 -88.776291 -22.29757
-25.834579 -90.648865 -21.700612
-26.894169 -90.735306 -22.256367
-27.261745 -88.776291 -22.29757
-28.578692 -86.897751 -22.972292
-5.528515 -112.77935 -15.791553
-5.356415 -114.205117 -15.705982
-6.365522 -113.543152 -16.505523
-8.344283 -98.163719 -15.16739
-9.051952 -99.081581 -15.722367
-9.746529 -97.14331 -15.699379
-7.034159 -99.099106 -14.548104
-8.344283 -98.163719 -15.16739
-34.030911 -89.591133 -25.092188
-33.922999 -91.348145 -24.873072
-32.831909 -89.976082 -24.735594
-34.030911 -89.591133 -25.092188
-31.586637 -90.276458 -24.312486
-31.441443 -92.075829 -24.162475
-32.831909 -89.976082 -24.735594
-31.788309 -88.428657 -24.410108
-30.397842 -90.528404 -23.83699
-31.586637 -90.276458 -24.312486
-31.900371 -86.564049 -24.597487
-31.788309 -88.428657 -24.410108
-30.773646 -86.768044 -24.080272
-31.900371 -86.564049 -24.597487
-7.500403 -112.768242 -17.222191
-6.365522 -113.543152 -16.505523
-7.772858 -111.244484 -17.201992
-7.500403 -112.768242 -17.222191
-8.73564 -111.89534 -17.833088
-14.236033 -93.690872 -17.080559
-15.032576 -94.442703 -17.51839
-15.788334 -92.399628 -17.472225
-12.713037 -94.89946 -16.644965
-14.236033 -93.690872 -17.080559
-18.037948 -109.644959 -21.178253
-16.416479 -111.058853 -20.834221
-18.326097 -108.108421 -21.037872
-18.037948 -109.644959 -21.178253
-19.689917 -108.172707 -21.502945
-21.65323 -105.000587 -21.693844
-21.363552 -106.587844 -21.812483
-23.038716 -104.952262 -22.143763
-24.770332 -90.4376 -21.177433
-24.402756 -92.396614 -21.13623
-25.834579 -90.648865 -21.700612
-23.805352 -90.171989 -20.642851
-24.770332 -90.4376 -21.177433
-22.834927 -89.78656 -20.152956
-22.368085 -91.79992 -20.123157
-23.805352 -90.171989 -20.642851
-21.964532 -89.35524 -19.657137
-22.834927 -89.78656 -20.152956
-29.110637 -100.847412 -23.592535
-27.700989 -101.161537 -23.243259
-30.462086 -100.447364 -23.883238
-31.864805 -99.996254 -24.095719
-30.666397 -98.870171 -23.881069
-29.110637 -100.847412 -23.592535
-30.462086 -100.447364 -23.883238
-33.630019 -94.743569 -24.562174
-32.186451 -96.842545 -24.261999
-33.461413 -96.371147 -24.471947
-33.75717 -93.067902 -24.756394
-33.630019 -94.743569 -24.562174
-4.446234 -114.754661 -14.781296
-5.356415 -114.205117 -15.705982
-3.676791 -115.193061 -13.781408
-4.446234 -114.754661 -14.781296
-3.749966 -113.879715 -13.992124
-2.838633 -109.097602 -12.736091
-2.632243 -110.596199 -12.608792
-3.360778 -110.128738 -13.566097
-2.327489 -108.041931 -11.928475
-2.838633 -109.097602 -12.736091
-3.056024 -107.574471 -12.885779
-1.973273 -106.906731 -11.069786
-2.327489 -108.041931 -11.928475
-2.199151 -105.365944 -11.248627
-1.973273 -106.906731 -11.069786
-2.550748 -103.706299 -11.345437
-2.199151 -105.365944 -11.248627
-2.896477 -104.859154 -12.174972
-2.908105 -102.034546 -11.487122
-2.550748 -103.706299 -11.345437
-15.103763 -110.877243 -20.342012
-14.846114 -112.355423 -20.463052
-16.416479 -111.058853 -20.834221
-3.736124 -101.42463 -12.345897
-4.227749 -102.511582 -13.070638
-4.715799 -100.736702 -13.144753
-2.908105 -102.034546 -11.487122
-3.736124 -101.42463 -12.345897
3 60 14 61
3 0 62 64
3 62 17 63
3 62 63 64
3 65 20 66
3 67 66 18
3 65 66 67
3 69 68 20
3 2 23 21
3 2 25 23
3 1 28 26
3 70 31 71
3 72 71 29
3 70 71 72
3 74 73 31
3 75 35 76
3 77 76 33
3 75 76 77
3 4 78 79
3 4 80 82
3 80 36 81
3 80 81 82
3 5 39 37
3 83 40 84
3 85 84 15
3 83 84 85
3 87 86 40
3 88 42 89
3 8 43 16
3 8 44 43
3 3 45 34
3 9 46 19
3 9 47 46
3 9 48 47
3 90 49 91
3 94 93 49
3 92 93 94
3 10 95 97
3 97 96 22
3 95 96 97
3 10 98 99
3 10 100 101
3 11 50 24
3 11 51 50
3 7 52 41
3 12 53 27
3 12 54 53
3 6 55 38
3 13 56 30
3 13 57 56
3 13 58 57
3 102 59 103
3 104 103 32
3 102 103 104
3 106 105 59
3 14 107 108
3 14 109 111
3 109 4 110
3 109 110 111
3 112 15 113
3 114 113 5
3 112 113 114
3 115 15 116
3 118 117 15
3 119 16 120
3 17 121 123
3 121 16 122
3 121 122 123
3 17 8 16
3 18 19 3
3 20 19 18
3 20 9 19
3 20 124 126
3 126 125 9
3 124 125 126
3 128 127 20
3 21 129 131
3 129 22 130
3 129 130 131
3 23 22 21
3 23 10 22
3 23 24 10
3 25 24 23
3 25 11 24
3 26 27 7
3 28 27 26
3 28 12 27
3 29 30 6
3 31 30 29
3 31 13 30
3 31 32 13
3 132 32 133
3 134 133 31
3 132 133 134
3 136 135 32
3 33 34 0
3 35 34 33
3 35 3 34
3 137 35 138
3 139 35 140
3 141 3 142
3 143 142 35
3 141 142 143
3 144 18 145
3 146 145 3
3 144 145 146
3 147 18 148
3 150 149 18
3 151 21 152
3 36 153 155
3 153 21 154
3 153 154 155
3 36 2 21
3 37 38 1
3 39 38 37
3 39 6 38
3 15 39 5
3 40 39 15
3 40 6 39
3 40 29 6
3 156 29 157
3 158 157 40
3 156 157 158
3 160 159 29
3 161 41 162
3 42 163 165
3 163 41 164
3 163 164 165
3 42 7 41
3 16 166 168
3 166 42 167
3 166 167 168
3 43 42 16
3 43 7 42
3 43 26 7
3 44 26 43
3 44 1 26
3 34 17 0
3 45 17 34
3 45 8 17
3 19 45 3
3 46 45 19
3 46 8 45
3 46 44 8
3 47 44 46
3 47 1 44
3 47 37 1
3 48 37 47
3 48 5 37
3 169 48 170
3 171 170 9
3 169 170 171
3 172 48 173
3 174 5 175
3 176 175 48
3 174 175 176
3 178 177 5
3 179 0 180
3 49 181 182
3 49 183 185
3 183 0 184
3 183 184 185
3 49 33 0
3 186 33 187
3 188 187 49
3 186 187 188
3 190 189 33
3 22 191 192
3 195 194 22
3 193 194 195
3 24 196 198
3 198 197 10
3 196 197 198
3 50 199 201
3 201 200 24
3 199 200 201
3 50 202 203
3 50 204 205
3 51 206 208
3 208 207 50
3 206 207 208
3 51 209 210
3 41 211 213
3 211 14 212
3 211 212 213
3 52 14 41
3 52 4 14
3 27 52 7
3 53 52 27
3 53 4 52
3 53 36 4
3 54 36 53
3 54 2 36
3 38 28 1
3 55 28 38
3 55 12 28
3 30 55 6
3 56 55 30
3 56 12 55
3 56 54 12
3 57 54 56
3 57 2 54
3 57 25 2
3 58 25 57
3 58 11 25
3 32 58 13
3 59 58 32
3 59 11 58
3 59 51 11
3 214 51 215
3 216 215 59
3 214 215 216
3 218 217 51
