ply
format ascii 1.0
element vertex 71
property float x
property float y
property float z
element face 57
property list uchar int vertex_index
end_header
-26.274776 79.937592 -12.695824
-32.866352 76.29567 -12.086287
-28.741987 76.934387 -16.564514
-29.658247 78.185562 -12.383175
-30.91917 76.793488 -14.402124
-27.514166 78.644104 -14.745682
-35.840736 74.222504 -11.814453
-34.566582 75.488815 -9.614195
-31.587093 77.416016 -9.892088
-28.397707 79.189072 -10.176632
-34.121422 74.777328 -14.103172
-32.139221 74.978256 -16.205734
-35.293873 74.953804 -8.305426
-35.930466 74.422691 -9.480503
-30.955223 77.79876 -8.722416
-32.438116 76.902802 -8.58294
-29.36053 78.685288 -8.864688
-29.9924 78.302544 -10.03436
-30.955223 77.79876 -8.722416
-29.330221 75.862213 -17.349409
-31.028838 74.884147 -17.170019
-30.440604 75.956322 -16.385124
-25.126534 80.149865 -13.905619
-24.535863 80.766678 -12.842444
-36.567543 73.789535 -10.580632
-37.194473 73.082313 -11.681555
-35.203659 74.85566 -10.714324
-36.567543 73.789535 -10.580632
-35.930466 74.422691 -9.480503
-33.92786 75.939201 -8.443994
-35.293873 74.953804 -8.305426
-33.076837 76.452416 -9.753141
-33.92786 75.939201 -8.443994
-32.438116 76.902802 -8.58294
-27.787924 79.528107 -8.993167
-29.36053 78.685288 -8.864688
-28.750747 79.024323 -7.681223
-26.732508 80.029511 -10.308179
-27.787924 79.528107 -8.993167
-25.671042 80.403771 -11.567775
-27.336241 79.563332 -11.436228
-26.732508 80.029511 -10.308179
-24.535863 80.766678 -12.842444
-25.671042 80.403771 -11.567775
-36.455578 73.397606 -12.82496
-37.194473 73.082313 -11.681555
-35.595921 73.675018 -13.96932
-36.455578 73.397606 -12.82496
-34.981079 74.499916 -12.958813
-34.716698 73.81459 -15.006353
-35.595921 73.675018 -13.96932
-33.725597 73.915054 -16.057634
-34.716698 73.81459 -15.006353
-33.130322 74.877792 -15.154453
-32.710465 73.862251 -16.989059
-33.725597 73.915054 -16.057634
-31.600082 73.768142 -17.953345
-32.710465 73.862251 -16.989059
-31.028838 74.884147 -17.170019
-25.746229 79.50312 -14.930548
-26.894471 79.290848 -13.720753
-25.126534 80.149865 -13.905619
-26.349418 78.690017 -15.867213
-25.746229 79.50312 -14.930548
-26.963328 77.835159 -16.776629
-28.128076 77.789245 -15.655098
-26.349418 78.690017 -15.867213
-27.557329 76.806275 -17.578016
-26.963328 77.835159 -16.776629
-29.330221 75.862213 -17.349409
-27.557329 76.806275 -17.578016
3 0 5 3
3 12 7 13
3 14 8 15
3 16 9 17
3 18 17 8
3 16 17 18
3 1 10 6
3 2 11 4
3 2 19 21
3 21 20 11
3 19 20 21
3 3 4 1
3 5 4 3
3 5 2 4
3 23 22 0
3 24 6 25
3 7 26 28
3 26 6 27
3 26 27 28
3 7 1 6
3 29 7 30
3 8 31 33
3 31 7 32
3 31 32 33
3 8 1 7
3 8 3 1
3 9 3 8
3 9 0 3
3 34 9 35
3 34 35 36
3 37 9 38
3 39 0 40
3 41 40 9
3 39 40 41
3 43 42 0
3 6 44 45
3 10 46 48
3 48 47 6
3 46 47 48
3 10 49 50
3 4 10 1
3 11 10 4
3 11 51 53
3 53 52 10
3 51 52 53
3 11 54 55
3 58 57 11
3 56 57 58
3 59 5 60
3 61 60 0
3 59 60 61
3 62 5 63
3 64 2 65
3 66 65 5
3 64 65 66
3 67 2 68
3 70 69 2
