ply
format ascii 1.0
element vertex 397
property float x
property float y
property float z
element face 424
property list uchar int vertex_index
end_header
-31.324003 -1.921768 64.97274
-16.312473 8.330641 72.170395
-34.363857 -10.456978 71.63517
-25.23595 -8.86697 72.710938
-11.335747 0.28924 81.109413
-5.829069 5.527889 83.413544
-22.2929 1.823748 66.9049
-17.073544 -5.428226 75.861572
-8.66024 3.16618 82.957695
-36.211315 -3.173519 64.780884
-30.102541 3.327431 63.298992
-25.627697 5.508015 64.201965
-26.491913 -0.380018 65.540085
-22.424364 -12.293877 77.155319
-20.816875 -7.504124 73.873734
-18.141125 -10.9973 78.550812
-14.421834 -9.069293 80.471352
-18.906376 11.938345 67.911285
-40.148533 -9.115885 66.593292
-37.231033 -7.473784 67.790649
-32.943314 -6.410666 68.131912
-28.089785 -5.421755 68.385162
-29.977304 -9.706079 72.150665
-13.919956 4.42948 76.845886
-13.934153 12.141594 75.218506
-11.430294 7.842094 79.56498
-21.892296 8.381563 65.704178
-18.946552 4.77984 69.194092
-23.465971 -3.984233 69.236633
-19.555632 -1.814131 71.043045
-16.461922 1.07551 73.743713
-14.011209 -2.723215 78.476654
-33.809696 -2.551605 64.866699
-35.601814 -0.855715 63.587555
-33.12339 -0.151211 63.728497
-32.534962 2.440134 63.001884
-30.636101 0.601339 63.9263
-28.225929 1.460329 64.235947
-28.856773 -1.216591 65.176682
-20.924818 -14.024978 79.163063
-20.220444 -11.722923 77.786049
-18.749882 -13.468541 79.864571
-16.687057 -12.768375 80.660637
-17.559351 10.173845 69.936249
-16.340836 12.126022 71.420242
-37.51445 -9.563907 69.251884
-35.779686 -8.943861 69.696671
-35.213837 -6.896708 68.023041
-33.719326 -8.462038 69.943848
-31.435308 -8.050941 70.091148
-32.266926 -10.058258 71.931358
-12.670467 2.38784 79.073128
-12.70085 6.156097 78.304825
-11.402225 4.001196 80.366676
-7.257893 4.428093 83.381409
-8.684259 6.984232 82.135994
-7.215523 8.269896 82.488281
-23.876354 3.657688 65.350433
-23.660198 6.853979 64.866379
-22.003502 5.033394 66.206696
-20.342003 6.592152 67.272636
-20.513561 3.212639 67.939285
-26.633347 -7.15003 70.477249
-25.710205 -4.783972 68.704681
-24.305161 -6.534941 70.87854
-18.852314 -6.556345 74.766434
-20.114677 -4.782098 72.342789
-18.311321 -3.622501 73.426964
-17.915266 -0.448088 72.302773
-16.70261 -2.288969 74.713364
-15.260074 -0.812164 76.142372
-15.470058 -4.138949 77.120422
-12.774101 -7.902446 81.556717
-9.904367 -1.873108 82.894936
-10.016659 1.772041 82.178505
-8.548197 -0.537775 83.691811
-7.182919 0.687534 84.161209
-5.813229 1.765034 84.249718
-4.465733 2.672709 83.934738
-38.416523 -3.856691 64.625313
-29.742678 6.237965 63.021637
-27.531075 7.384308 63.431458
-27.784502 4.338781 63.688847
-25.958113 2.470055 64.700089
-24.291046 0.626822 66.107346
-23.848795 -10.57857 74.973816
-22.955879 -8.269276 73.193985
-21.610336 -9.994827 75.53315
-19.506771 -9.24823 76.261627
-17.564365 -8.327788 77.168777
-15.789714 -7.23925 78.238266
-16.206938 -10.109699 79.45311
-40.333443 -6.889347 65.489624
-38.896908 -8.201734 67.338058
-38.741734 -6.046623 65.981812
-36.777073 -5.361818 66.237495
-34.531654 -4.784754 66.347801
-32.11705 -4.248043 66.413391
-29.645693 -3.679141 66.529984
-30.532158 -5.943197 68.220642
-29.038774 -7.636618 70.238861
-27.601908 -9.329688 72.383926
-28.527184 -11.378008 74.214355
-26.176245 -11.026083 74.551384
-24.715666 -12.731799 76.634018
-15.117566 6.412867 74.510727
-15.12801 10.229177 73.734238
-13.930521 8.235058 76.06366
-12.707314 10.042795 77.473663
-11.389194 11.783592 78.648705
-10.081921 5.549236 81.412865
-10.065334 9.436874 80.541748
-25.48035 8.687157 63.919033
-23.60704 10.161749 64.518936
-20.316463 10.082972 66.723785
-18.873642 8.315676 68.530426
-17.56292 6.498526 70.627182
-27.217211 -3.011787 66.778946
-24.91086 -2.19441 67.222336
-22.782707 -1.194508 67.900604
-22.118534 -5.752351 71.49231
-21.406116 -2.99649 70.013924
-20.865023 0.000662 68.830818
-19.166206 1.385843 70.004921
-17.670864 2.940413 71.388077
-16.340691 4.630802 72.918518
-15.150681 2.717678 75.290146
-13.936005 0.764378 77.629501
-12.650866 -1.228537 79.840782
-14.170252 -6.005366 79.426041
-12.676769 -4.66463 80.661224
-11.269005 -3.267949 81.851746
-15.1461 14.123352 72.893074
-19.038812 -14.627812 80.398983
-19.83735 -13.746759 79.513817
-20.12628 -14.90603 80.048229
-17.964402 -14.359468 80.787045
-19.038812 -14.627812 80.398983
-35.071771 -9.700419 70.66592
-35.971655 -9.958907 70.433266
-35.26374 -10.715465 71.402515
-5.77142 7.455408 82.931157
-6.464647 8.826411 82.468525
-6.522296 6.898892 82.950913
-5.123399 5.989111 83.229218
-5.77142 7.455408 82.931157
-8.467929 -2.325788 84.041004
-9.226282 -1.205442 83.293374
-9.146014 -2.993454 83.642567
-6.433284 -0.604769 84.582615
-7.102082 -1.12693 84.519127
-5.748439 -0.066019 84.626869
-6.498074 1.226284 84.205464
-6.433284 -0.604769 84.582615
-5.100552 0.376965 84.491208
-5.748439 -0.066019 84.626869
-37.090237 -2.375614 64.107888
-38.192841 -2.7172 64.030102
-37.313919 -3.515105 64.703099
-36.530277 -0.00994 63.063534
-35.308561 0.386613 63.175307
-31.093087 4.274347 62.979826
-32.309297 3.830698 62.831272
-31.318751 2.883782 63.150438
-29.92261 4.782698 63.160314
-30.913156 5.729614 62.841149
-31.093087 4.274347 62.979826
-15.72 -12.344575 81.104423
-15.908321 -13.675712 81.599221
-18.948865 13.769098 67.572495
-19.645615 12.784949 67.041172
-40.823717 -8.514696 65.645038
-41.237186 -9.066419 65.111999
-40.562002 -9.667609 66.060253
-40.240988 -8.002616 66.041458
-40.916172 -7.401426 65.093205
-40.823717 -8.514696 65.645038
-27.783699 -12.223989 75.197609
-28.926908 -12.364331 74.978435
-26.60823 -12.048026 75.366123
-27.351714 -11.202046 74.382869
-27.783699 -12.223989 75.197609
-25.877941 -12.900885 76.40744
-25.445956 -11.878941 75.592701
-26.60823 -12.048026 75.366123
-9.329981 10.167927 80.85915
-9.374797 8.210553 81.338871
-8.639444 8.941606 81.656273
-10.005339 11.424274 80.030583
-9.329981 10.167927 80.85915
-3.172226 1.554194 83.638596
-3.824454 3.038651 83.577736
-3.813505 1.188251 83.995598
-21.902689 10.096919 65.483871
-22.760061 10.987012 64.89125
-22.749668 9.271656 65.111557
-21.10438 9.232267 66.213982
-21.114773 10.947623 65.993675
-21.902689 10.096919 65.483871
-11.958133 -5.657899 81.647995
-12.725435 -6.283538 81.10897
-12.006799 -7.276807 82.095742
-11.254251 -4.959558 82.243256
-11.972887 -3.96629 81.256485
-11.958133 -5.657899 81.647995
-10.528079 -4.318408 82.732087
-11.254251 -4.959558 82.243256
-34.069349 0.738865 63.245778
-35.308561 0.386613 63.175307
-34.362602 -0.503463 63.658026
-32.829176 1.144462 63.36519
-33.775135 2.034537 62.882471
-34.069349 0.738865 63.245778
-16.93299 -14.009385 81.185078
-17.718469 -13.118458 80.262604
-17.964402 -14.359468 80.787045
-15.908321 -13.675712 81.599221
-16.93299 -14.009385 81.185078
-17.587877 12.0449 69.58046
-18.261389 12.92715 68.567978
-18.232864 11.056095 68.923767
-16.978619 13.020989 70.322456
-17.587877 12.0449 69.58046
-16.950094 11.149933 70.678246
-16.36233 14.049557 71.007469
-16.978619 13.020989 70.322456
-39.959442 -10.246195 67.044724
-40.562002 -9.667609 66.060253
-36.839037 -10.26893 70.210872
-37.549984 -10.616689 69.853591
-36.647068 -9.253884 69.474277
-36.839037 -10.26893 70.210872
-35.971655 -9.958907 70.433266
-7.905076 9.584438 81.832416
-8.639444 8.941606 81.656273
-7.949891 7.627064 82.312138
-7.129446 10.234061 81.962944
-7.905076 9.584438 81.832416
-6.378571 10.790576 81.943188
-7.129446 10.234061 81.962944
-6.464647 8.826411 82.468525
-12.862637 -9.420493 82.02821
-13.597967 -8.485869 81.014035
-13.686504 -10.003916 81.485527
-12.02391 -8.877052 82.508884
-12.862637 -9.420493 82.02821
-12.006799 -7.276807 82.095742
-12.02391 -8.877052 82.508884
-13.917151 14.127077 74.738514
-13.297504 13.078001 75.87249
-34.588047 -11.44381 72.321583
-35.26374 -10.715465 71.402515
-33.655567 -11.235942 72.577694
-34.588047 -11.44381 72.321583
-7.784721 -1.739584 84.284428
-8.467929 -2.325788 84.041004
-7.865558 0.074879 83.92651
-7.784721 -1.739584 84.284428
-7.102082 -1.12693 84.519127
-4.426804 0.830802 84.333718
-5.139481 2.218871 84.092228
-5.100552 0.376965 84.491208
-3.813505 1.188251 83.995598
-4.426804 0.830802 84.333718
-39.266587 -3.118287 63.907888
-39.367157 -4.25861 64.465916
-39.266587 -3.118287 63.907888
-38.192841 -2.7172 64.030102
-36.785486 -1.216712 63.511223
-37.090237 -2.375614 64.107888
-35.906565 -2.014617 64.184219
-36.785486 -1.216712 63.511223
-36.530277 -0.00994 63.063534
-33.520557 3.367788 62.664121
-33.775135 2.034537 62.882471
-33.520557 3.367788 62.664121
-32.309297 3.830698 62.831272
-30.761246 7.204735 62.806764
-30.913156 5.729614 62.841149
-29.643486 7.768166 62.985962
-30.662054 8.734936 62.77109
-30.761246 7.204735 62.806764
-28.636876 6.811136 63.226547
-28.537685 8.341337 63.190872
-29.643486 7.768166 62.985962
-15.47994 -11.015237 80.50066
-16.446998 -11.439037 80.056873
-15.72 -12.344575 81.104423
-14.587388 -10.495033 81.009781
-15.314386 -9.589496 79.962231
-15.47994 -11.015237 80.50066
-13.686504 -10.003916 81.485527
-14.587388 -10.495033 81.009781
-18.948865 13.769098 67.572495
-18.261389 12.92715 68.567978
-41.082116 -6.256692 64.615521
-40.916172 -7.401426 65.093205
-40.325617 -5.774938 64.898072
-41.082116 -6.256692 64.615521
-39.500236 -9.742772 67.562325
-39.959442 -10.246195 67.044724
-38.183195 -9.966783 68.891621
-37.549984 -10.616689 69.853591
-38.874424 -9.285697 67.934708
-38.183195 -9.966783 68.891621
-38.205679 -8.882821 68.294971
-39.522721 -8.65881 66.965675
-39.500236 -9.742772 67.562325
-38.874424 -9.285697 67.934708
-39.529763 -5.353576 65.144165
-40.325617 -5.774938 64.898072
-39.537588 -6.467985 65.735718
-38.579128 -4.951657 65.303562
-39.367157 -4.25861 64.465916
-39.529763 -5.353576 65.144165
-32.607101 -11.036582 72.725788
-33.315392 -10.257618 71.783264
-33.655567 -11.235942 72.577694
-31.542118 -10.872597 72.913723
-32.607101 -11.036582 72.725788
-30.397307 -10.696507 73.023377
-31.122115 -9.882169 72.041011
-31.542118 -10.872597 72.913723
-29.672247 -11.532471 74.055222
-28.926908 -12.364331 74.978435
-29.252244 -10.542044 73.18251
-30.397307 -10.696507 73.023377
-29.672247 -11.532471 74.055222
-25.096995 -13.758951 77.297257
-25.877941 -12.900885 76.40744
-23.948867 -13.593442 77.586502
-25.096995 -13.758951 77.297257
-22.803216 -13.374481 77.847152
-23.570015 -12.512838 76.894668
-23.948867 -13.593442 77.586502
-22.053443 -14.240031 78.851024
-21.674591 -13.159427 78.159191
-22.803216 -13.374481 77.847152
-21.238377 -15.115814 79.681965
-22.053443 -14.240031 78.851024
-20.439839 -15.996866 80.567131
-20.12628 -14.90603 80.048229
-21.238377 -15.115814 79.681965
-12.684084 12.028602 77.000068
-13.297504 13.078001 75.87249
-13.320733 11.092194 76.346085
-12.025024 12.899 77.58759
-12.684084 12.028602 77.000068
-12.048254 10.913194 78.061184
-11.324134 13.790812 78.113522
-12.025024 12.899 77.58759
-10.667269 12.597633 79.084061
-10.727264 10.610233 79.595226
-10.005339 11.424274 80.030583
-11.324134 13.790812 78.113522
-10.667269 12.597633 79.084061
-4.441731 4.561521 83.489814
-5.123399 5.989111 83.229218
-5.147401 4.100299 83.674141
-4.441731 4.561521 83.489814
-3.824454 3.038651 83.577736
-27.482311 8.968012 63.366898
-28.537685 8.341337 63.190872
-26.456948 9.619436 63.610686
-27.482311 8.968012 63.366898
-26.505713 8.035732 63.675246
-25.474473 10.321772 63.802784
-26.451071 11.254052 63.494436
-26.456948 9.619436 63.610686
-24.537818 11.059069 64.102735
-25.474473 10.321772 63.802784
-24.543695 9.424453 64.218985
-23.633112 11.845409 64.335724
-24.537818 11.059069 64.102735
-23.633112 11.845409 64.335724
-22.760061 10.987012 64.89125
-20.350658 11.857263 66.447422
-21.114773 10.947623 65.993675
-19.61142 11.010658 67.317535
-19.645615 12.784949 67.041172
-20.350658 11.857263 66.447422
-9.84576 -3.620987 83.253681
-10.586686 -2.570528 82.373341
-10.528079 -4.318408 82.732087
-9.146014 -2.993454 83.642567
-9.84576 -3.620987 83.253681
-15.764963 15.048222 71.743885
-16.36233 14.049557 71.007469
-15.743468 13.124687 72.156658
-14.523125 15.117956 73.575798
-14.540126 13.132473 74.05579
-13.917151 14.127077 74.738514
-15.140958 16.091028 72.413391
-14.523125 15.117956 73.575798
-15.759821 17.015898 71.264202
-15.764963 15.048222 71.743885
-15.140958 16.091028 72.413391
3 0 34 32
3 0 36 34
3 0 38 36
3 133 41 134
3 135 134 39
3 133 134 135
3 137 136 41
3 1 44 43
3 2 138 140
3 138 46 139
3 138 139 140
3 2 48 46
3 2 50 48
3 4 53 51
3 5 56 54
3 5 141 143
3 143 142 56
3 141 142 143
3 5 144 145
3 6 59 57
3 6 61 59
3 3 64 62
3 7 67 65
3 7 69 67
3 7 71 69
3 146 75 147
3 148 147 73
3 146 147 148
3 149 76 150
3 151 77 152
3 153 152 76
3 151 152 153
3 155 154 77
3 9 156 158
3 158 157 79
3 156 157 158
3 160 159 33
3 10 161 163
3 163 162 35
3 161 162 163
3 10 164 166
3 164 80 165
3 164 165 166
3 10 82 80
3 12 83 37
3 12 84 83
3 13 87 85
3 15 88 40
3 15 89 88
3 15 91 89
3 168 167 42
3 17 169 170
3 18 171 173
3 171 172 173
3 18 174 176
3 174 92 175
3 174 175 176
3 19 93 45
3 19 94 93
3 19 95 94
3 20 96 47
3 20 97 96
3 20 99 97
3 22 100 49
3 22 101 100
3 177 102 178
3 179 103 180
3 181 180 102
3 179 180 181
3 182 104 183
3 184 183 103
3 182 183 184
3 23 107 105
3 25 108 52
3 25 109 108
3 8 110 74
3 185 111 186
3 187 186 55
3 185 186 187
3 189 188 111
3 192 191 78
3 190 191 192
3 11 112 81
3 26 113 58
3 26 193 195
3 195 194 113
3 193 194 195
3 26 196 198
3 196 114 197
3 196 197 198
3 27 115 60
3 27 116 115
3 21 117 98
3 28 118 63
3 28 119 118
3 14 120 86
3 29 121 66
3 29 122 121
3 29 123 122
3 30 124 68
3 30 125 124
3 30 126 125
3 31 127 70
3 31 128 127
3 16 129 90
3 199 130 200
3 201 200 72
3 199 200 201
3 202 131 203
3 204 203 130
3 202 203 204
3 206 205 131
3 24 132 106
3 32 33 9
3 34 33 32
3 34 207 209
3 209 208 33
3 207 208 209
3 34 210 212
3 210 35 211
3 210 211 212
3 36 35 34
3 36 10 35
3 36 37 10
3 38 37 36
3 38 12 37
3 39 40 13
3 41 40 39
3 41 15 40
3 41 42 15
3 213 42 214
3 215 214 41
3 213 214 215
3 217 216 42
3 43 218 220
3 220 219 17
3 218 219 220
3 44 221 223
3 223 222 43
3 221 222 223
3 44 224 225
3 226 18 227
3 228 45 229
3 46 230 232
3 230 45 231
3 230 231 232
3 46 19 45
3 46 47 19
3 48 47 46
3 48 20 47
3 48 49 20
3 50 49 48
3 50 22 49
3 51 52 23
3 53 52 51
3 53 25 52
3 54 55 8
3 56 55 54
3 56 233 235
3 235 234 55
3 233 234 235
3 56 236 237
3 240 239 56
3 238 239 240
3 57 58 11
3 59 58 57
3 59 26 58
3 59 60 26
3 61 60 59
3 61 27 60
3 62 63 21
3 64 63 62
3 64 28 63
3 65 66 14
3 67 66 65
3 67 29 66
3 67 68 29
3 69 68 67
3 69 30 68
3 69 70 30
3 71 70 69
3 71 31 70
3 241 72 242
3 243 242 16
3 241 242 243
3 244 72 245
3 247 246 72
3 249 248 24
3 250 2 251
3 253 252 2
3 73 74 4
3 75 74 73
3 75 8 74
3 254 75 255
3 76 256 258
3 256 75 257
3 256 257 258
3 76 8 75
3 76 54 8
3 77 54 76
3 77 5 54
3 77 78 5
3 259 78 260
3 261 260 77
3 259 260 261
3 263 262 78
3 79 264 265
3 267 266 79
3 33 268 270
3 270 269 9
3 268 269 270
3 272 271 33
3 35 273 274
3 276 275 35
3 80 277 278
3 80 279 281
3 279 280 281
3 80 282 284
3 282 81 283
3 282 283 284
3 82 81 80
3 82 11 81
3 37 82 10
3 83 82 37
3 83 11 82
3 83 57 11
3 84 57 83
3 84 6 57
3 85 86 3
3 87 86 85
3 87 14 86
3 40 87 13
3 88 87 40
3 88 14 87
3 88 65 14
3 89 65 88
3 89 7 65
3 89 90 7
3 91 90 89
3 91 16 90
3 42 91 15
3 285 91 286
3 287 286 42
3 285 286 287
3 288 16 289
3 290 289 91
3 288 289 290
3 292 291 16
3 294 293 17
3 92 295 296
3 92 297 298
3 299 18 300
3 45 301 302
3 93 303 305
3 305 304 45
3 303 304 305
3 93 306 308
3 306 18 307
3 306 307 308
3 93 92 18
3 94 92 93
3 94 309 311
3 311 310 92
3 309 310 311
3 94 312 314
3 312 79 313
3 312 313 314
3 95 79 94
3 95 9 79
3 47 95 19
3 96 95 47
3 96 9 95
3 96 32 9
3 97 32 96
3 97 0 32
3 97 98 0
3 99 98 97
3 99 21 98
3 49 99 20
3 100 99 49
3 100 21 99
3 100 62 21
3 101 62 100
3 101 3 62
3 315 50 316
3 317 316 2
3 315 316 317
3 318 50 319
3 320 22 321
3 322 321 50
3 320 321 322
3 102 323 324
3 102 325 327
3 325 22 326
3 325 326 327
3 102 101 22
3 103 101 102
3 103 3 101
3 103 85 3
3 104 85 103
3 104 13 85
3 328 104 329
3 330 104 331
3 332 13 333
3 334 333 104
3 332 333 334
3 335 39 336
3 337 336 13
3 335 336 337
3 338 39 339
3 342 341 39
3 340 341 342
3 105 106 1
3 107 106 105
3 107 24 106
3 52 107 23
3 108 107 52
3 108 24 107
3 108 343 345
3 345 344 24
3 343 344 345
3 109 346 348
3 348 347 108
3 346 347 348
3 109 349 350
3 74 53 4
3 110 53 74
3 110 25 53
3 55 110 8
3 111 110 55
3 111 25 110
3 111 109 25
3 351 109 352
3 353 352 111
3 351 352 353
3 355 354 109
3 78 356 358
3 358 357 5
3 356 357 358
3 360 359 78
3 81 361 362
3 112 363 365
3 365 364 81
3 363 364 365
3 112 366 368
3 366 367 368
3 58 112 11
3 113 112 58
3 113 369 371
3 371 370 112
3 369 370 371
3 113 372 373
3 375 374 113
3 114 376 377
3 114 378 380
3 378 17 379
3 378 379 380
3 60 114 26
3 115 114 60
3 115 17 114
3 115 43 17
3 116 43 115
3 116 1 43
3 98 38 0
3 117 38 98
3 117 12 38
3 63 117 21
3 118 117 63
3 118 12 117
3 118 84 12
3 119 84 118
3 119 6 84
3 86 64 3
3 120 64 86
3 120 28 64
3 66 120 14
3 121 120 66
3 121 28 120
3 121 119 28
3 122 119 121
3 122 6 119
3 122 61 6
3 123 61 122
3 123 27 61
3 68 123 29
3 124 123 68
3 124 27 123
3 124 116 27
3 125 116 124
3 125 1 116
3 125 105 1
3 126 105 125
3 126 23 105
3 70 126 30
3 127 126 70
3 127 23 126
3 127 51 23
3 128 51 127
3 128 4 51
3 90 71 7
3 129 71 90
3 129 31 71
3 72 129 16
3 130 129 72
3 130 31 129
3 130 128 31
3 131 128 130
3 131 4 128
3 131 73 4
3 381 73 382
3 383 382 131
3 381 382 383
3 385 384 73
3 106 44 1
3 132 44 106
3 132 386 388
3 388 387 44
3 386 387 388
3 389 132 390
3 391 390 24
3 389 390 391
3 392 132 393
3 396 395 132
3 394 395 396
